<?xml version="1.0" encoding="UTF-8" standalone="no"?>
<!DOCTYPE svg PUBLIC "-//W3C//DTD SVG 1.1//EN"
 "http://www.w3.org/Graphics/SVG/1.1/DTD/svg11.dtd">
<!-- Generated by graphviz version 2.30.1 (20140712.1814)
 -->
<!-- Title: include/cinder/app/AppImplCocoaTouchRendererGl.h Pages: 1 -->
<svg width="178pt" height="112pt"
 viewBox="0.00 0.00 178.00 112.00" xmlns="http://www.w3.org/2000/svg" xmlns:xlink="http://www.w3.org/1999/xlink">
<g id="graph0" class="graph" transform="scale(1 1) rotate(0) translate(4 108)">
<title>include/cinder/app/AppImplCocoaTouchRendererGl.h</title>
<polygon fill="white" stroke="white" points="-4,5 -4,-108 175,-108 175,5 -4,5"/>
<!-- Node1 -->
<g id="node1" class="node"><title>Node1</title>
<polygon fill="#bfbfbf" stroke="black" points="-0.541504,-71 -0.541504,-103 170.542,-103 170.542,-71 -0.541504,-71"/>
<text text-anchor="start" x="7.4585" y="-89" font-family="Helvetica,sans-Serif" font-size="10.00">include/cinder/app</text>
<text text-anchor="middle" x="85" y="-77" font-family="Helvetica,sans-Serif" font-size="10.00">/AppImplCocoaTouchRendererGl.h</text>
</g>
<!-- Node2 -->
<g id="node2" class="node"><title>Node2</title>
<g id="a_node2"><a xlink:href="_app_impl_cocoa_touch_renderer_gl_8mm.html" target="_top" xlink:title="src/cinder/app/AppImplCocoa\lTouchRendererGl.mm">
<polygon fill="white" stroke="black" points="11.4116,-1 11.4116,-33 158.588,-33 158.588,-1 11.4116,-1"/>
<text text-anchor="start" x="19.4116" y="-19" font-family="Helvetica,sans-Serif" font-size="10.00">src/cinder/app/AppImplCocoa</text>
<text text-anchor="middle" x="85" y="-7" font-family="Helvetica,sans-Serif" font-size="10.00">TouchRendererGl.mm</text>
</a>
</g>
</g>
<!-- Node1&#45;&gt;Node2 -->
<g id="edge1" class="edge"><title>Node1&#45;&gt;Node2</title>
<path fill="none" stroke="midnightblue" d="M85,-60.6174C85,-51.3378 85,-41.1413 85,-33.0492"/>
<polygon fill="midnightblue" stroke="midnightblue" points="81.5001,-60.9086 85,-70.9086 88.5001,-60.9086 81.5001,-60.9086"/>
</g>
</g>
</svg>
