<?xml version="1.0" encoding="UTF-8" standalone="no"?>
<!DOCTYPE svg PUBLIC "-//W3C//DTD SVG 1.1//EN"
 "http://www.w3.org/Graphics/SVG/1.1/DTD/svg11.dtd">
<!-- Generated by graphviz version 2.30.1 (20140712.1814)
 -->
<!-- Title: include/cinder/app/AppImplMswRendererDx.h Pages: 1 -->
<!--zoomable 112 -->
<svg id="main" version="1.1" xmlns="http://www.w3.org/2000/svg" xmlns:xlink="http://www.w3.org/1999/xlink" xml:space="preserve" onload="init(evt)">
<style type="text/css"><![CDATA[
.edge:hover path { stroke: red; }
.edge:hover polygon { stroke: red; fill: red; }
]]></style>
<script type="text/javascript"><![CDATA[
var edges = document.getElementsByTagName('g');
if (edges && edges.length) {
  for (var i=0;i<edges.length;i++) {
    if (edges[i].id.substr(0,4)=='edge') {
      edges[i].setAttribute('class','edge');
    }
  }
}
]]></script>
        <defs>
                <circle id="rim" cx="0" cy="0" r="7"/>
                <circle id="rim2" cx="0" cy="0" r="3.5"/>
                <g id="zoomPlus">
                        <use xlink:href="#rim" fill="#404040">
                                <set attributeName="fill" to="#808080" begin="zoomplus.mouseover" end="zoomplus.mouseout"/>
                        </use>
                        <path d="M-4,0h8M0,-4v8" fill="none" stroke="white" stroke-width="1.5" pointer-events="none"/>
                </g>
                <g id="zoomMin">
                        <use xlink:href="#rim" fill="#404040">
                                <set attributeName="fill" to="#808080" begin="zoomminus.mouseover" end="zoomminus.mouseout"/>
                        </use>
                        <path d="M-4,0h8" fill="none" stroke="white" stroke-width="1.5" pointer-events="none"/>
                </g>
                <g id="dirArrow">
                        <path fill="none" stroke="white" stroke-width="1.5" d="M0,-3.0v7 M-2.5,-0.5L0,-3.0L2.5,-0.5"/>
                </g>
               <g id="resetDef">
                       <use xlink:href="#rim2" fill="#404040">
                               <set attributeName="fill" to="#808080" begin="reset.mouseover" end="reset.mouseout"/>
                       </use>
               </g>
        </defs>

<script type="text/javascript">
var viewWidth = 1077;
var viewHeight = 112;
var sectionId = 'dynsection-1';
</script>
<script xlink:href="svgpan.js"/>
<svg id="graph" class="graph">
<g id="viewport">
<title>include/cinder/app/AppImplMswRendererDx.h</title>
<polygon fill="white" stroke="white" points="-4,5 -4,-108 1074,-108 1074,5 -4,5"/>
<!-- Node1 -->
<g id="node1" class="node"><title>Node1</title>
<polygon fill="#bfbfbf" stroke="black" points="466.867,-71 466.867,-103 605.133,-103 605.133,-71 466.867,-71"/>
<text text-anchor="start" x="474.867" y="-89" font-family="Helvetica,sans-Serif" font-size="10.00">include/cinder/app</text>
<text text-anchor="middle" x="536" y="-77" font-family="Helvetica,sans-Serif" font-size="10.00">/AppImplMswRendererDx.h</text>
</g>
<!-- Node2 -->
<g id="node2" class="node"><title>Node2</title>
<g id="a_node2"><a xlink:href="_app_impl_msw_renderer_dx_8cpp.html" target="_top" xlink:title="src/cinder/app/AppImplMsw\lRendererDx.cpp">
<polygon fill="white" stroke="black" points="-0.411133,-1 -0.411133,-33 138.411,-33 138.411,-1 -0.411133,-1"/>
<text text-anchor="start" x="7.58887" y="-19" font-family="Helvetica,sans-Serif" font-size="10.00">src/cinder/app/AppImplMsw</text>
<text text-anchor="middle" x="69" y="-7" font-family="Helvetica,sans-Serif" font-size="10.00">RendererDx.cpp</text>
</a>
</g>
</g>
<!-- Node1&#45;&gt;Node2 -->
<g id="edge1" class="edge"><title>Node1&#45;&gt;Node2</title>
<path fill="none" stroke="midnightblue" d="M456.446,-76.9099C377.852,-67.5599 254.317,-51.8703 148,-34 144.964,-33.4897 141.866,-32.9489 138.74,-32.3867"/>
<polygon fill="midnightblue" stroke="midnightblue" points="456.412,-80.4303 466.754,-78.1306 457.235,-73.4789 456.412,-80.4303"/>
</g>
<!-- Node3 -->
<g id="node3" class="node"><title>Node3</title>
<g id="a_node3"><a xlink:href="_renderer_dx_8cpp.html" target="_top" xlink:title="src/cinder/app/RendererDx.cpp">
<polygon fill="white" stroke="black" points="156.801,-7 156.801,-27 311.199,-27 311.199,-7 156.801,-7"/>
<text text-anchor="middle" x="234" y="-13" font-family="Helvetica,sans-Serif" font-size="10.00">src/cinder/app/RendererDx.cpp</text>
</a>
</g>
</g>
<!-- Node1&#45;&gt;Node3 -->
<g id="edge2" class="edge"><title>Node1&#45;&gt;Node3</title>
<path fill="none" stroke="midnightblue" d="M459.325,-68.7354C400.331,-55.452 321.173,-37.6282 274.089,-27.0266"/>
<polygon fill="midnightblue" stroke="midnightblue" points="458.826,-72.2107 469.351,-70.9929 460.364,-65.3817 458.826,-72.2107"/>
</g>
<!-- Node4 -->
<g id="node4" class="node"><title>Node4</title>
<g id="a_node4"><a xlink:href="dx_8cpp.html" target="_top" xlink:title="src/cinder/dx/dx.cpp">
<polygon fill="white" stroke="black" points="329.537,-7 329.537,-27 434.463,-27 434.463,-7 329.537,-7"/>
<text text-anchor="middle" x="382" y="-13" font-family="Helvetica,sans-Serif" font-size="10.00">src/cinder/dx/dx.cpp</text>
</a>
</g>
</g>
<!-- Node1&#45;&gt;Node4 -->
<g id="edge3" class="edge"><title>Node1&#45;&gt;Node4</title>
<path fill="none" stroke="midnightblue" d="M492.546,-66.8123C462.996,-53.7645 425.254,-37.0991 402.39,-27.0035"/>
<polygon fill="midnightblue" stroke="midnightblue" points="491.261,-70.071 501.822,-70.9086 494.088,-63.6674 491.261,-70.071"/>
</g>
<!-- Node5 -->
<g id="node5" class="node"><title>Node5</title>
<g id="a_node5"><a xlink:href="_dx_render_target_8cpp.html" target="_top" xlink:title="src/cinder/dx/DxRenderTarget.cpp">
<polygon fill="white" stroke="black" points="452.412,-7 452.412,-27 619.588,-27 619.588,-7 452.412,-7"/>
<text text-anchor="middle" x="536" y="-13" font-family="Helvetica,sans-Serif" font-size="10.00">src/cinder/dx/DxRenderTarget.cpp</text>
</a>
</g>
</g>
<!-- Node1&#45;&gt;Node5 -->
<g id="edge4" class="edge"><title>Node1&#45;&gt;Node5</title>
<path fill="none" stroke="midnightblue" d="M536,-60.6678C536,-48.8652 536,-35.5695 536,-27.0035"/>
<polygon fill="midnightblue" stroke="midnightblue" points="532.5,-60.9086 536,-70.9086 539.5,-60.9086 532.5,-60.9086"/>
</g>
<!-- Node6 -->
<g id="node6" class="node"><title>Node6</title>
<g id="a_node6"><a xlink:href="_dx_texture_8cpp.html" target="_top" xlink:title="src/cinder/dx/DxTexture.cpp">
<polygon fill="white" stroke="black" points="637.311,-7 637.311,-27 776.689,-27 776.689,-7 637.311,-7"/>
<text text-anchor="middle" x="707" y="-13" font-family="Helvetica,sans-Serif" font-size="10.00">src/cinder/dx/DxTexture.cpp</text>
</a>
</g>
</g>
<!-- Node1&#45;&gt;Node6 -->
<g id="edge5" class="edge"><title>Node1&#45;&gt;Node6</title>
<path fill="none" stroke="midnightblue" d="M583.401,-67.1504C616.336,-54.0536 658.751,-37.1866 684.359,-27.0035"/>
<polygon fill="midnightblue" stroke="midnightblue" points="581.949,-63.9611 573.95,-70.9086 584.536,-70.4657 581.949,-63.9611"/>
</g>
<!-- Node7 -->
<g id="node7" class="node"><title>Node7</title>
<g id="a_node7"><a xlink:href="_dx_vbo_8cpp.html" target="_top" xlink:title="src/cinder/dx/DxVbo.cpp">
<polygon fill="white" stroke="black" points="794.811,-7 794.811,-27 919.189,-27 919.189,-7 794.811,-7"/>
<text text-anchor="middle" x="857" y="-13" font-family="Helvetica,sans-Serif" font-size="10.00">src/cinder/dx/DxVbo.cpp</text>
</a>
</g>
</g>
<!-- Node1&#45;&gt;Node7 -->
<g id="edge6" class="edge"><title>Node1&#45;&gt;Node7</title>
<path fill="none" stroke="midnightblue" d="M615.177,-69.7345C664.136,-59.6097 728.255,-46.2297 785,-34 795.264,-31.7878 806.34,-29.3512 816.655,-27.0609"/>
<polygon fill="midnightblue" stroke="midnightblue" points="614.366,-66.328 605.281,-71.7793 615.782,-73.1832 614.366,-66.328"/>
</g>
<!-- Node8 -->
<g id="node8" class="node"><title>Node8</title>
<g id="a_node8"><a xlink:href="_hlsl_prog_8cpp.html" target="_top" xlink:title="src/cinder/dx/HlslProg.cpp">
<polygon fill="white" stroke="black" points="936.924,-7 936.924,-27 1069.08,-27 1069.08,-7 936.924,-7"/>
<text text-anchor="middle" x="1003" y="-13" font-family="Helvetica,sans-Serif" font-size="10.00">src/cinder/dx/HlslProg.cpp</text>
</a>
</g>
</g>
<!-- Node1&#45;&gt;Node8 -->
<g id="edge7" class="edge"><title>Node1&#45;&gt;Node8</title>
<path fill="none" stroke="midnightblue" d="M615.701,-77.2809C695.102,-68.1592 820.364,-52.5909 928,-34 939.545,-32.0059 952.015,-29.4921 963.41,-27.0516"/>
<polygon fill="midnightblue" stroke="midnightblue" points="614.827,-73.8578 605.289,-78.4702 615.622,-80.8126 614.827,-73.8578"/>
</g>
</g>
</svg>
        <g id="navigator" transform="translate(0 0)" fill="#404254">
                <rect fill="#f2f5e9" fill-opacity="0.5" stroke="#606060" stroke-width=".5" x="0" y="0" width="60" height="60"/>
                <use id="zoomplus" xlink:href="#zoomPlus" x="17" y="9" onmousedown="handleZoom(evt,'in')"/>
                <use id="zoomminus" xlink:href="#zoomMin" x="42" y="9" onmousedown="handleZoom(evt,'out')"/>
                <use id="reset" xlink:href="#resetDef" x="30" y="36" onmousedown="handleReset()"/>
                <g id="arrowUp" xlink:href="#dirArrow" transform="translate(30 24)" onmousedown="handlePan(0,-1)">
                  <use xlink:href="#rim" fill="#404040">
                        <set attributeName="fill" to="#808080" begin="arrowUp.mouseover" end="arrowUp.mouseout"/>
                  </use>
                  <path fill="none" stroke="white" stroke-width="1.5" d="M0,-3.0v7 M-2.5,-0.5L0,-3.0L2.5,-0.5"/>
                </g>
                <g id="arrowRight" xlink:href="#dirArrow" transform="rotate(90) translate(36 -43)" onmousedown="handlePan(1,0)">
                  <use xlink:href="#rim" fill="#404040">
                        <set attributeName="fill" to="#808080" begin="arrowRight.mouseover" end="arrowRight.mouseout"/>
                  </use>
                  <path fill="none" stroke="white" stroke-width="1.5" d="M0,-3.0v7 M-2.5,-0.5L0,-3.0L2.5,-0.5"/>
                </g>
                <g id="arrowDown" xlink:href="#dirArrow" transform="rotate(180) translate(-30 -48)" onmousedown="handlePan(0,1)">
                  <use xlink:href="#rim" fill="#404040">
                        <set attributeName="fill" to="#808080" begin="arrowDown.mouseover" end="arrowDown.mouseout"/>
                  </use>
                  <path fill="none" stroke="white" stroke-width="1.5" d="M0,-3.0v7 M-2.5,-0.5L0,-3.0L2.5,-0.5"/>
                </g>
                <g id="arrowLeft" xlink:href="#dirArrow" transform="rotate(270) translate(-36 17)" onmousedown="handlePan(-1,0)">
                  <use xlink:href="#rim" fill="#404040">
                        <set attributeName="fill" to="#808080" begin="arrowLeft.mouseover" end="arrowLeft.mouseout"/>
                  </use>
                  <path fill="none" stroke="white" stroke-width="1.5" d="M0,-3.0v7 M-2.5,-0.5L0,-3.0L2.5,-0.5"/>
                </g>
        </g>
        <svg viewBox="0 0 15 15" width="100%" height="30px" preserveAspectRatio="xMaxYMin meet">
         <g id="arrow_out" transform="scale(0.3 0.3)">
          <a xlink:href="_app_impl_msw_renderer_dx_8h__dep__incl_org.svg" target="_base">
           <rect id="button" ry="5" rx="5" y="6" x="6" height="38" width="38"
                fill="#f2f5e9" fill-opacity="0.5" stroke="#606060" stroke-width="1.0"/>
           <path id="arrow"
             d="M 11.500037,31.436501 C 11.940474,20.09759 22.043105,11.32322 32.158766,21.979434 L 37.068811,17.246167 C 37.068811,17.246167 37.088388,32 37.088388,32 L 22.160133,31.978069 C 22.160133,31.978069 26.997745,27.140456 26.997745,27.140456 C 18.528582,18.264221 13.291696,25.230495 11.500037,31.436501 z"
             style="fill:#404040;"/>
          </a>
         </g>
        </svg>
</svg>
