<?xml version="1.0" encoding="UTF-8" standalone="no"?>
<!DOCTYPE svg PUBLIC "-//W3C//DTD SVG 1.1//EN"
 "http://www.w3.org/Graphics/SVG/1.1/DTD/svg11.dtd">
<!-- Generated by graphviz version 2.30.1 (20140712.1814)
 -->
<!-- Title: include/cinder/app/AppImplCocoaRendererGl.h Pages: 1 -->
<svg width="154pt" height="112pt"
 viewBox="0.00 0.00 154.00 112.00" xmlns="http://www.w3.org/2000/svg" xmlns:xlink="http://www.w3.org/1999/xlink">
<g id="graph0" class="graph" transform="scale(1 1) rotate(0) translate(4 108)">
<title>include/cinder/app/AppImplCocoaRendererGl.h</title>
<polygon fill="white" stroke="white" points="-4,5 -4,-108 151,-108 151,5 -4,5"/>
<!-- Node1 -->
<g id="node1" class="node"><title>Node1</title>
<polygon fill="#bfbfbf" stroke="black" points="0.800781,-71 0.800781,-103 145.199,-103 145.199,-71 0.800781,-71"/>
<text text-anchor="start" x="8.80078" y="-89" font-family="Helvetica,sans-Serif" font-size="10.00">include/cinder/app</text>
<text text-anchor="middle" x="73" y="-77" font-family="Helvetica,sans-Serif" font-size="10.00">/AppImplCocoaRendererGl.h</text>
</g>
<!-- Node2 -->
<g id="node2" class="node"><title>Node2</title>
<g id="a_node2"><a xlink:href="_app_impl_cocoa_renderer_gl_8mm.html" target="_top" xlink:title="src/cinder/app/AppImplCocoa\lRendererGl.mm">
<polygon fill="white" stroke="black" points="-0.588379,-1 -0.588379,-33 146.588,-33 146.588,-1 -0.588379,-1"/>
<text text-anchor="start" x="7.41162" y="-19" font-family="Helvetica,sans-Serif" font-size="10.00">src/cinder/app/AppImplCocoa</text>
<text text-anchor="middle" x="73" y="-7" font-family="Helvetica,sans-Serif" font-size="10.00">RendererGl.mm</text>
</a>
</g>
</g>
<!-- Node1&#45;&gt;Node2 -->
<g id="edge1" class="edge"><title>Node1&#45;&gt;Node2</title>
<path fill="none" stroke="midnightblue" d="M73,-60.6174C73,-51.3378 73,-41.1413 73,-33.0492"/>
<polygon fill="midnightblue" stroke="midnightblue" points="69.5001,-60.9086 73,-70.9086 76.5001,-60.9086 69.5001,-60.9086"/>
</g>
</g>
</svg>
