<?xml version="1.0" encoding="UTF-8" standalone="no"?>
<!DOCTYPE svg PUBLIC "-//W3C//DTD SVG 1.1//EN"
 "http://www.w3.org/Graphics/SVG/1.1/DTD/svg11.dtd">
<!-- Generated by graphviz version 2.30.1 (20140712.1814)
 -->
<!-- Title: include/cinder/app/AppImplMswRendererGdi.h Pages: 1 -->
<svg width="148pt" height="112pt"
 viewBox="0.00 0.00 148.00 112.00" xmlns="http://www.w3.org/2000/svg" xmlns:xlink="http://www.w3.org/1999/xlink">
<g id="graph0" class="graph" transform="scale(1 1) rotate(0) translate(4 108)">
<title>include/cinder/app/AppImplMswRendererGdi.h</title>
<polygon fill="white" stroke="white" points="-4,5 -4,-108 145,-108 145,5 -4,5"/>
<!-- Node1 -->
<g id="node1" class="node"><title>Node1</title>
<polygon fill="#bfbfbf" stroke="black" points="-0.802734,-71 -0.802734,-103 140.803,-103 140.803,-71 -0.802734,-71"/>
<text text-anchor="start" x="7.19727" y="-89" font-family="Helvetica,sans-Serif" font-size="10.00">include/cinder/app</text>
<text text-anchor="middle" x="70" y="-77" font-family="Helvetica,sans-Serif" font-size="10.00">/AppImplMswRendererGdi.h</text>
</g>
<!-- Node2 -->
<g id="node2" class="node"><title>Node2</title>
<g id="a_node2"><a xlink:href="_app_impl_msw_renderer_gdi_8cpp.html" target="_top" xlink:title="src/cinder/app/AppImplMsw\lRendererGdi.cpp">
<polygon fill="white" stroke="black" points="0.588867,-1 0.588867,-33 139.411,-33 139.411,-1 0.588867,-1"/>
<text text-anchor="start" x="8.58887" y="-19" font-family="Helvetica,sans-Serif" font-size="10.00">src/cinder/app/AppImplMsw</text>
<text text-anchor="middle" x="70" y="-7" font-family="Helvetica,sans-Serif" font-size="10.00">RendererGdi.cpp</text>
</a>
</g>
</g>
<!-- Node1&#45;&gt;Node2 -->
<g id="edge1" class="edge"><title>Node1&#45;&gt;Node2</title>
<path fill="none" stroke="midnightblue" d="M70,-60.6174C70,-51.3378 70,-41.1413 70,-33.0492"/>
<polygon fill="midnightblue" stroke="midnightblue" points="66.5001,-60.9086 70,-70.9086 73.5001,-60.9086 66.5001,-60.9086"/>
</g>
</g>
</svg>
