<?xml version="1.0" encoding="UTF-8" standalone="no"?>
<!DOCTYPE svg PUBLIC "-//W3C//DTD SVG 1.1//EN"
 "http://www.w3.org/Graphics/SVG/1.1/DTD/svg11.dtd">
<!-- Generated by graphviz version 2.30.1 (20140712.1814)
 -->
<!-- Title: include/cinder/app/AppImplWinRTBasic.h Pages: 1 -->
<svg width="308pt" height="182pt"
 viewBox="0.00 0.00 308.00 182.00" xmlns="http://www.w3.org/2000/svg" xmlns:xlink="http://www.w3.org/1999/xlink">
<g id="graph0" class="graph" transform="scale(1 1) rotate(0) translate(4 178)">
<title>include/cinder/app/AppImplWinRTBasic.h</title>
<polygon fill="white" stroke="white" points="-4,5 -4,-178 305,-178 305,5 -4,5"/>
<!-- Node1 -->
<g id="node1" class="node"><title>Node1</title>
<polygon fill="#bfbfbf" stroke="black" points="86.6841,-141 86.6841,-173 205.316,-173 205.316,-141 86.6841,-141"/>
<text text-anchor="start" x="94.6841" y="-159" font-family="Helvetica,sans-Serif" font-size="10.00">include/cinder/app</text>
<text text-anchor="middle" x="146" y="-147" font-family="Helvetica,sans-Serif" font-size="10.00">/AppImplWinRTBasic.h</text>
</g>
<!-- Node2 -->
<g id="node2" class="node"><title>Node2</title>
<g id="a_node2"><a xlink:href="_win_r_t_app_8h.html" target="_top" xlink:title="include/cinder/app\l/WinRTApp.h">
<polygon fill="white" stroke="black" points="97.4165,-71 97.4165,-103 194.583,-103 194.583,-71 97.4165,-71"/>
<text text-anchor="start" x="105.417" y="-89" font-family="Helvetica,sans-Serif" font-size="10.00">include/cinder/app</text>
<text text-anchor="middle" x="146" y="-77" font-family="Helvetica,sans-Serif" font-size="10.00">/WinRTApp.h</text>
</a>
</g>
</g>
<!-- Node1&#45;&gt;Node2 -->
<g id="edge1" class="edge"><title>Node1&#45;&gt;Node2</title>
<path fill="none" stroke="midnightblue" d="M146,-130.617C146,-121.338 146,-111.141 146,-103.049"/>
<polygon fill="midnightblue" stroke="midnightblue" points="142.5,-130.909 146,-140.909 149.5,-130.909 142.5,-130.909"/>
</g>
<!-- Node3 -->
<g id="node3" class="node"><title>Node3</title>
<g id="a_node3"><a xlink:href="_app_impl_win_r_t_basic_8cpp.html" target="_top" xlink:title="src/cinder/app/AppImplWin\lRTBasic.cpp">
<polygon fill="white" stroke="black" points="-0.746094,-1 -0.746094,-33 134.746,-33 134.746,-1 -0.746094,-1"/>
<text text-anchor="start" x="7.25391" y="-19" font-family="Helvetica,sans-Serif" font-size="10.00">src/cinder/app/AppImplWin</text>
<text text-anchor="middle" x="67" y="-7" font-family="Helvetica,sans-Serif" font-size="10.00">RTBasic.cpp</text>
</a>
</g>
</g>
<!-- Node1&#45;&gt;Node3 -->
<g id="edge4" class="edge"><title>Node1&#45;&gt;Node3</title>
<path fill="none" stroke="midnightblue" d="M115.442,-134.583C105.364,-126.118 94.9642,-115.626 88,-104 74.5737,-81.5859 69.7186,-51.0164 67.9719,-33.0069"/>
<polygon fill="midnightblue" stroke="midnightblue" points="113.384,-137.418 123.383,-140.919 117.75,-131.946 113.384,-137.418"/>
</g>
<!-- Node4 -->
<g id="node4" class="node"><title>Node4</title>
<g id="a_node4"><a xlink:href="_win_r_t_app_8cpp.html" target="_top" xlink:title="src/cinder/app/WinRTApp.cpp">
<polygon fill="white" stroke="black" points="153.041,-7 153.041,-27 300.959,-27 300.959,-7 153.041,-7"/>
<text text-anchor="middle" x="227" y="-13" font-family="Helvetica,sans-Serif" font-size="10.00">src/cinder/app/WinRTApp.cpp</text>
</a>
</g>
</g>
<!-- Node1&#45;&gt;Node4 -->
<g id="edge5" class="edge"><title>Node1&#45;&gt;Node4</title>
<path fill="none" stroke="midnightblue" d="M175.585,-134.567C185.541,-126.046 195.909,-115.522 203,-104 218.437,-78.9175 224.18,-43.6944 226.115,-27.1997"/>
<polygon fill="midnightblue" stroke="midnightblue" points="173.296,-131.918 167.76,-140.951 177.721,-137.342 173.296,-131.918"/>
</g>
<!-- Node2&#45;&gt;Node3 -->
<g id="edge2" class="edge"><title>Node2&#45;&gt;Node3</title>
<path fill="none" stroke="midnightblue" d="M120.668,-64.195C108.862,-54.0335 95.111,-42.1968 84.4837,-33.0492"/>
<polygon fill="midnightblue" stroke="midnightblue" points="118.605,-67.0375 128.467,-70.9086 123.172,-61.7322 118.605,-67.0375"/>
</g>
<!-- Node2&#45;&gt;Node4 -->
<g id="edge3" class="edge"><title>Node2&#45;&gt;Node4</title>
<path fill="none" stroke="midnightblue" d="M171.935,-64.2276C186.943,-51.6279 205.03,-36.4436 216.275,-27.0035"/>
<polygon fill="midnightblue" stroke="midnightblue" points="169.385,-61.7982 163.977,-70.9086 173.886,-67.1595 169.385,-61.7982"/>
</g>
</g>
</svg>
