<?xml version="1.0" encoding="UTF-8" standalone="no"?>
<!DOCTYPE svg PUBLIC "-//W3C//DTD SVG 1.1//EN"
 "http://www.w3.org/Graphics/SVG/1.1/DTD/svg11.dtd">
<!-- Generated by graphviz version 2.30.1 (20140712.1814)
 -->
<!-- Title: include/cinder/app/AppImplCocoaTouchRendererQuartz.h Pages: 1 -->
<svg width="160pt" height="124pt"
 viewBox="0.00 0.00 160.00 124.00" xmlns="http://www.w3.org/2000/svg" xmlns:xlink="http://www.w3.org/1999/xlink">
<g id="graph0" class="graph" transform="scale(1 1) rotate(0) translate(4 120)">
<title>include/cinder/app/AppImplCocoaTouchRendererQuartz.h</title>
<polygon fill="white" stroke="white" points="-4,5 -4,-120 157,-120 157,5 -4,5"/>
<!-- Node1 -->
<g id="node1" class="node"><title>Node1</title>
<polygon fill="#bfbfbf" stroke="black" points="-0.371582,-71 -0.371582,-115 152.372,-115 152.372,-71 -0.371582,-71"/>
<text text-anchor="start" x="7.62842" y="-101" font-family="Helvetica,sans-Serif" font-size="10.00">include/cinder/app</text>
<text text-anchor="start" x="7.62842" y="-89" font-family="Helvetica,sans-Serif" font-size="10.00">/AppImplCocoaTouchRenderer</text>
<text text-anchor="middle" x="76" y="-77" font-family="Helvetica,sans-Serif" font-size="10.00">Quartz.h</text>
</g>
<!-- Node2 -->
<g id="node2" class="node"><title>Node2</title>
<g id="a_node2"><a xlink:href="_app_impl_cocoa_touch_renderer_quartz_8mm.html" target="_top" xlink:title="src/cinder/app/AppImplCocoa\lTouchRendererQuartz.mm">
<polygon fill="white" stroke="black" points="2.41162,-1 2.41162,-33 149.588,-33 149.588,-1 2.41162,-1"/>
<text text-anchor="start" x="10.4116" y="-19" font-family="Helvetica,sans-Serif" font-size="10.00">src/cinder/app/AppImplCocoa</text>
<text text-anchor="middle" x="76" y="-7" font-family="Helvetica,sans-Serif" font-size="10.00">TouchRendererQuartz.mm</text>
</a>
</g>
</g>
<!-- Node1&#45;&gt;Node2 -->
<g id="edge1" class="edge"><title>Node1&#45;&gt;Node2</title>
<path fill="none" stroke="midnightblue" d="M76,-60.6933C76,-51.2613 76,-41.3236 76,-33.4115"/>
<polygon fill="midnightblue" stroke="midnightblue" points="72.5001,-60.9925 76,-70.9925 79.5001,-60.9925 72.5001,-60.9925"/>
</g>
</g>
</svg>
