<?xml version="1.0" encoding="UTF-8" standalone="no"?>
<!DOCTYPE svg PUBLIC "-//W3C//DTD SVG 1.1//EN"
 "http://www.w3.org/Graphics/SVG/1.1/DTD/svg11.dtd">
<!-- Generated by graphviz version 2.30.1 (20140712.1814)
 -->
<!-- Title: include/cinder/app/AppCocoaTouch.h Pages: 1 -->
<svg width="332pt" height="182pt"
 viewBox="0.00 0.00 332.00 182.00" xmlns="http://www.w3.org/2000/svg" xmlns:xlink="http://www.w3.org/1999/xlink">
<g id="graph0" class="graph" transform="scale(1 1) rotate(0) translate(4 178)">
<title>include/cinder/app/AppCocoaTouch.h</title>
<polygon fill="white" stroke="white" points="-4,5 -4,-178 329,-178 329,5 -4,5"/>
<!-- Node1 -->
<g id="node1" class="node"><title>Node1</title>
<polygon fill="#bfbfbf" stroke="black" points="83.749,-141 83.749,-173 184.251,-173 184.251,-141 83.749,-141"/>
<text text-anchor="start" x="91.749" y="-159" font-family="Helvetica,sans-Serif" font-size="10.00">include/cinder/app</text>
<text text-anchor="middle" x="134" y="-147" font-family="Helvetica,sans-Serif" font-size="10.00">/AppCocoaTouch.h</text>
</g>
<!-- Node2 -->
<g id="node2" class="node"><title>Node2</title>
<g id="a_node2"><a xlink:href="_cinder_view_cocoa_touch_8h.html" target="_top" xlink:title="include/cinder/app\l/CinderViewCocoaTouch.h">
<polygon fill="white" stroke="black" points="115.167,-71 115.167,-103 248.833,-103 248.833,-71 115.167,-71"/>
<text text-anchor="start" x="123.167" y="-89" font-family="Helvetica,sans-Serif" font-size="10.00">include/cinder/app</text>
<text text-anchor="middle" x="182" y="-77" font-family="Helvetica,sans-Serif" font-size="10.00">/CinderViewCocoaTouch.h</text>
</a>
</g>
</g>
<!-- Node1&#45;&gt;Node2 -->
<g id="edge1" class="edge"><title>Node1&#45;&gt;Node2</title>
<path fill="none" stroke="midnightblue" d="M150.434,-132.718C157.364,-122.902 165.23,-111.757 171.377,-103.049"/>
<polygon fill="midnightblue" stroke="midnightblue" points="147.56,-130.72 144.653,-140.909 153.279,-134.757 147.56,-130.72"/>
</g>
<!-- Node3 -->
<g id="node3" class="node"><title>Node3</title>
<g id="a_node3"><a xlink:href="_app_cocoa_touch_8mm.html" target="_top" xlink:title="src/cinder/app/AppCocoaTouch.mm">
<polygon fill="white" stroke="black" points="-0.204102,-7 -0.204102,-27 174.204,-27 174.204,-7 -0.204102,-7"/>
<text text-anchor="middle" x="87" y="-13" font-family="Helvetica,sans-Serif" font-size="10.00">src/cinder/app/AppCocoaTouch.mm</text>
</a>
</g>
</g>
<!-- Node1&#45;&gt;Node3 -->
<g id="edge4" class="edge"><title>Node1&#45;&gt;Node3</title>
<path fill="none" stroke="midnightblue" d="M119.226,-131.897C114.463,-123.329 109.514,-113.458 106,-104 95.9362,-76.9097 90.3761,-42.9448 88.1551,-27.0219"/>
<polygon fill="midnightblue" stroke="midnightblue" points="116.217,-133.686 124.244,-140.602 122.282,-130.19 116.217,-133.686"/>
</g>
<!-- Node2&#45;&gt;Node3 -->
<g id="edge2" class="edge"><title>Node2&#45;&gt;Node3</title>
<path fill="none" stroke="midnightblue" d="M152.557,-64.9248C134.769,-52.1922 113.011,-36.6184 99.5785,-27.0035"/>
<polygon fill="midnightblue" stroke="midnightblue" points="150.748,-67.9341 160.916,-70.9086 154.822,-62.242 150.748,-67.9341"/>
</g>
<!-- Node4 -->
<g id="node4" class="node"><title>Node4</title>
<g id="a_node4"><a xlink:href="_cinder_view_cocoa_touch_8mm.html" target="_top" xlink:title="src/cinder/app/CinderView\lCocoaTouch.mm">
<polygon fill="white" stroke="black" points="191.729,-1 191.729,-33 324.271,-33 324.271,-1 191.729,-1"/>
<text text-anchor="start" x="199.729" y="-19" font-family="Helvetica,sans-Serif" font-size="10.00">src/cinder/app/CinderView</text>
<text text-anchor="middle" x="258" y="-7" font-family="Helvetica,sans-Serif" font-size="10.00">CocoaTouch.mm</text>
</a>
</g>
</g>
<!-- Node2&#45;&gt;Node4 -->
<g id="edge3" class="edge"><title>Node2&#45;&gt;Node4</title>
<path fill="none" stroke="midnightblue" d="M206.37,-64.195C217.727,-54.0335 230.956,-42.1968 241.18,-33.0492"/>
<polygon fill="midnightblue" stroke="midnightblue" points="203.986,-61.6323 198.867,-70.9086 208.653,-66.849 203.986,-61.6323"/>
</g>
</g>
</svg>
