<?xml version="1.0" encoding="UTF-8" standalone="no"?>
<!DOCTYPE svg PUBLIC "-//W3C//DTD SVG 1.1//EN"
 "http://www.w3.org/Graphics/SVG/1.1/DTD/svg11.dtd">
<!-- Generated by graphviz version 2.30.1 (20140712.1814)
 -->
<!-- Title: include/cinder/app/AppImplMswRenderer.h Pages: 1 -->
<!--zoomable 252 -->
<svg id="main" version="1.1" xmlns="http://www.w3.org/2000/svg" xmlns:xlink="http://www.w3.org/1999/xlink" xml:space="preserve" onload="init(evt)">
<style type="text/css"><![CDATA[
.edge:hover path { stroke: red; }
.edge:hover polygon { stroke: red; fill: red; }
]]></style>
<script type="text/javascript"><![CDATA[
var edges = document.getElementsByTagName('g');
if (edges && edges.length) {
  for (var i=0;i<edges.length;i++) {
    if (edges[i].id.substr(0,4)=='edge') {
      edges[i].setAttribute('class','edge');
    }
  }
}
]]></script>
        <defs>
                <circle id="rim" cx="0" cy="0" r="7"/>
                <circle id="rim2" cx="0" cy="0" r="3.5"/>
                <g id="zoomPlus">
                        <use xlink:href="#rim" fill="#404040">
                                <set attributeName="fill" to="#808080" begin="zoomplus.mouseover" end="zoomplus.mouseout"/>
                        </use>
                        <path d="M-4,0h8M0,-4v8" fill="none" stroke="white" stroke-width="1.5" pointer-events="none"/>
                </g>
                <g id="zoomMin">
                        <use xlink:href="#rim" fill="#404040">
                                <set attributeName="fill" to="#808080" begin="zoomminus.mouseover" end="zoomminus.mouseout"/>
                        </use>
                        <path d="M-4,0h8" fill="none" stroke="white" stroke-width="1.5" pointer-events="none"/>
                </g>
                <g id="dirArrow">
                        <path fill="none" stroke="white" stroke-width="1.5" d="M0,-3.0v7 M-2.5,-0.5L0,-3.0L2.5,-0.5"/>
                </g>
               <g id="resetDef">
                       <use xlink:href="#rim2" fill="#404040">
                               <set attributeName="fill" to="#808080" begin="reset.mouseover" end="reset.mouseout"/>
                       </use>
               </g>
        </defs>

<script type="text/javascript">
var viewWidth = 1998;
var viewHeight = 252;
var sectionId = 'dynsection-1';
</script>
<script xlink:href="svgpan.js"/>
<svg id="graph" class="graph">
<g id="viewport">
<title>include/cinder/app/AppImplMswRenderer.h</title>
<polygon fill="white" stroke="white" points="-4,5 -4,-248 1995,-248 1995,5 -4,5"/>
<!-- Node1 -->
<g id="node1" class="node"><title>Node1</title>
<polygon fill="#bfbfbf" stroke="black" points="1327.25,-211 1327.25,-243 1452.75,-243 1452.75,-211 1327.25,-211"/>
<text text-anchor="start" x="1335.25" y="-229" font-family="Helvetica,sans-Serif" font-size="10.00">include/cinder/app</text>
<text text-anchor="middle" x="1390" y="-217" font-family="Helvetica,sans-Serif" font-size="10.00">/AppImplMswRenderer.h</text>
</g>
<!-- Node2 -->
<g id="node2" class="node"><title>Node2</title>
<g id="a_node2"><a xlink:href="_app_impl_msw_basic_8h.html" target="_top" xlink:title="include/cinder/app\l/AppImplMswBasic.h">
<polygon fill="white" stroke="black" points="92.5962,-141 92.5962,-173 201.404,-173 201.404,-141 92.5962,-141"/>
<text text-anchor="start" x="100.596" y="-159" font-family="Helvetica,sans-Serif" font-size="10.00">include/cinder/app</text>
<text text-anchor="middle" x="147" y="-147" font-family="Helvetica,sans-Serif" font-size="10.00">/AppImplMswBasic.h</text>
</a>
</g>
</g>
<!-- Node1&#45;&gt;Node2 -->
<g id="edge1" class="edge"><title>Node1&#45;&gt;Node2</title>
<path fill="none" stroke="midnightblue" d="M1316.95,-222.004C1090.12,-209.595 401.155,-171.904 201.664,-160.99"/>
<polygon fill="midnightblue" stroke="midnightblue" points="1316.9,-225.506 1327.08,-222.558 1317.29,-218.517 1316.9,-225.506"/>
</g>
<!-- Node4 -->
<g id="node4" class="node"><title>Node4</title>
<g id="a_node4"><a xlink:href="_app_impl_msw_renderer_dx_8h.html" target="_top" xlink:title="include/cinder/app\l/AppImplMswRendererDx.h">
<polygon fill="white" stroke="black" points="712.867,-141 712.867,-173 851.133,-173 851.133,-141 712.867,-141"/>
<text text-anchor="start" x="720.867" y="-159" font-family="Helvetica,sans-Serif" font-size="10.00">include/cinder/app</text>
<text text-anchor="middle" x="782" y="-147" font-family="Helvetica,sans-Serif" font-size="10.00">/AppImplMswRendererDx.h</text>
</a>
</g>
</g>
<!-- Node1&#45;&gt;Node4 -->
<g id="edge3" class="edge"><title>Node1&#45;&gt;Node4</title>
<path fill="none" stroke="midnightblue" d="M1317.19,-217.857C1199.08,-204.647 967.277,-178.722 851.396,-165.761"/>
<polygon fill="midnightblue" stroke="midnightblue" points="1316.9,-221.346 1327.22,-218.979 1317.67,-214.389 1316.9,-221.346"/>
</g>
<!-- Node12 -->
<g id="node12" class="node"><title>Node12</title>
<g id="a_node12"><a xlink:href="_app_impl_msw_renderer_gdi_8h.html" target="_top" xlink:title="include/cinder/app\l/AppImplMswRendererGdi.h">
<polygon fill="white" stroke="black" points="1241.2,-141 1241.2,-173 1382.8,-173 1382.8,-141 1241.2,-141"/>
<text text-anchor="start" x="1249.2" y="-159" font-family="Helvetica,sans-Serif" font-size="10.00">include/cinder/app</text>
<text text-anchor="middle" x="1312" y="-147" font-family="Helvetica,sans-Serif" font-size="10.00">/AppImplMswRendererGdi.h</text>
</a>
</g>
</g>
<!-- Node1&#45;&gt;Node12 -->
<g id="edge11" class="edge"><title>Node1&#45;&gt;Node12</title>
<path fill="none" stroke="midnightblue" d="M1364.99,-204.195C1353.33,-194.034 1339.76,-182.197 1329.26,-173.049"/>
<polygon fill="midnightblue" stroke="midnightblue" points="1362.85,-206.975 1372.69,-210.909 1367.45,-201.699 1362.85,-206.975"/>
</g>
<!-- Node14 -->
<g id="node14" class="node"><title>Node14</title>
<g id="a_node14"><a xlink:href="_app_impl_msw_renderer_gl_8h.html" target="_top" xlink:title="include/cinder/app\l/AppImplMswRendererGl.h">
<polygon fill="white" stroke="black" points="1400.98,-141 1400.98,-173 1537.02,-173 1537.02,-141 1400.98,-141"/>
<text text-anchor="start" x="1408.98" y="-159" font-family="Helvetica,sans-Serif" font-size="10.00">include/cinder/app</text>
<text text-anchor="middle" x="1469" y="-147" font-family="Helvetica,sans-Serif" font-size="10.00">/AppImplMswRendererGl.h</text>
</a>
</g>
</g>
<!-- Node1&#45;&gt;Node14 -->
<g id="edge13" class="edge"><title>Node1&#45;&gt;Node14</title>
<path fill="none" stroke="midnightblue" d="M1415.33,-204.195C1427.14,-194.034 1440.89,-182.197 1451.52,-173.049"/>
<polygon fill="midnightblue" stroke="midnightblue" points="1412.83,-201.732 1407.53,-210.909 1417.39,-207.038 1412.83,-201.732"/>
</g>
<!-- Node16 -->
<g id="node16" class="node"><title>Node16</title>
<g id="a_node16"><a xlink:href="_app_impl_msw_screen_saver_8h.html" target="_top" xlink:title="include/cinder/app\l/AppImplMswScreenSaver.h">
<polygon fill="white" stroke="black" points="1555.19,-141 1555.19,-173 1696.81,-173 1696.81,-141 1555.19,-141"/>
<text text-anchor="start" x="1563.19" y="-159" font-family="Helvetica,sans-Serif" font-size="10.00">include/cinder/app</text>
<text text-anchor="middle" x="1626" y="-147" font-family="Helvetica,sans-Serif" font-size="10.00">/AppImplMswScreenSaver.h</text>
</a>
</g>
</g>
<!-- Node1&#45;&gt;Node16 -->
<g id="edge15" class="edge"><title>Node1&#45;&gt;Node16</title>
<path fill="none" stroke="midnightblue" d="M1451.98,-208.143C1489.83,-197.236 1537.69,-183.444 1573.64,-173.086"/>
<polygon fill="midnightblue" stroke="midnightblue" points="1450.72,-204.861 1442.08,-210.993 1452.66,-211.587 1450.72,-204.861"/>
</g>
<!-- Node18 -->
<g id="node18" class="node"><title>Node18</title>
<g id="a_node18"><a xlink:href="_app_impl_win_r_t_basic_8h.html" target="_top" xlink:title="include/cinder/app\l/AppImplWinRTBasic.h">
<polygon fill="white" stroke="black" points="1766.68,-141 1766.68,-173 1885.32,-173 1885.32,-141 1766.68,-141"/>
<text text-anchor="start" x="1774.68" y="-159" font-family="Helvetica,sans-Serif" font-size="10.00">include/cinder/app</text>
<text text-anchor="middle" x="1826" y="-147" font-family="Helvetica,sans-Serif" font-size="10.00">/AppImplWinRTBasic.h</text>
</a>
</g>
</g>
<!-- Node1&#45;&gt;Node18 -->
<g id="edge17" class="edge"><title>Node1&#45;&gt;Node18</title>
<path fill="none" stroke="midnightblue" d="M1462.97,-215.864C1533.65,-205.871 1643.82,-189.838 1739,-174 1747.94,-172.513 1757.38,-170.861 1766.61,-169.2"/>
<polygon fill="midnightblue" stroke="midnightblue" points="1462.24,-212.431 1452.83,-217.294 1463.22,-219.362 1462.24,-212.431"/>
</g>
<!-- Node3 -->
<g id="node3" class="node"><title>Node3</title>
<g id="a_node3"><a xlink:href="_app_impl_msw_basic_8cpp.html" target="_top" xlink:title="src/cinder/app/AppImplMsw\lBasic.cpp">
<polygon fill="white" stroke="black" points="-0.411133,-71 -0.411133,-103 138.411,-103 138.411,-71 -0.411133,-71"/>
<text text-anchor="start" x="7.58887" y="-89" font-family="Helvetica,sans-Serif" font-size="10.00">src/cinder/app/AppImplMsw</text>
<text text-anchor="middle" x="69" y="-77" font-family="Helvetica,sans-Serif" font-size="10.00">Basic.cpp</text>
</a>
</g>
</g>
<!-- Node1&#45;&gt;Node3 -->
<g id="edge23" class="edge"><title>Node1&#45;&gt;Node3</title>
<path fill="none" stroke="midnightblue" d="M1316.95,-222.132C1124.6,-211.232 588.578,-176.246 148,-104 144.962,-103.502 141.863,-102.971 138.735,-102.417"/>
<polygon fill="midnightblue" stroke="midnightblue" points="1316.76,-225.626 1326.95,-222.694 1317.16,-218.637 1316.76,-225.626"/>
</g>
<!-- Node20 -->
<g id="node20" class="node"><title>Node20</title>
<g id="a_node20"><a xlink:href="_app_impl_win_r_t_basic_8cpp.html" target="_top" xlink:title="src/cinder/app/AppImplWin\lRTBasic.cpp">
<polygon fill="white" stroke="black" points="1689.25,-1 1689.25,-33 1824.75,-33 1824.75,-1 1689.25,-1"/>
<text text-anchor="start" x="1697.25" y="-19" font-family="Helvetica,sans-Serif" font-size="10.00">src/cinder/app/AppImplWin</text>
<text text-anchor="middle" x="1757" y="-7" font-family="Helvetica,sans-Serif" font-size="10.00">RTBasic.cpp</text>
</a>
</g>
</g>
<!-- Node1&#45;&gt;Node20 -->
<g id="edge24" class="edge"><title>Node1&#45;&gt;Node20</title>
<path fill="none" stroke="midnightblue" d="M1463.08,-222.532C1544.54,-217.216 1669.52,-204.273 1705,-174 1747.78,-137.498 1755.51,-64.7949 1756.8,-33.2223"/>
<polygon fill="midnightblue" stroke="midnightblue" points="1462.64,-219.053 1452.88,-223.173 1463.08,-226.039 1462.64,-219.053"/>
</g>
<!-- Node2&#45;&gt;Node3 -->
<g id="edge2" class="edge"><title>Node2&#45;&gt;Node3</title>
<path fill="none" stroke="midnightblue" d="M121.988,-134.195C110.333,-124.034 96.7552,-112.197 86.2623,-103.049"/>
<polygon fill="midnightblue" stroke="midnightblue" points="119.852,-136.975 129.689,-140.909 124.452,-131.699 119.852,-136.975"/>
</g>
<!-- Node5 -->
<g id="node5" class="node"><title>Node5</title>
<g id="a_node5"><a xlink:href="_app_impl_msw_renderer_dx_8cpp.html" target="_top" xlink:title="src/cinder/app/AppImplMsw\lRendererDx.cpp">
<polygon fill="white" stroke="black" points="1086.59,-71 1086.59,-103 1225.41,-103 1225.41,-71 1086.59,-71"/>
<text text-anchor="start" x="1094.59" y="-89" font-family="Helvetica,sans-Serif" font-size="10.00">src/cinder/app/AppImplMsw</text>
<text text-anchor="middle" x="1156" y="-77" font-family="Helvetica,sans-Serif" font-size="10.00">RendererDx.cpp</text>
</a>
</g>
</g>
<!-- Node4&#45;&gt;Node5 -->
<g id="edge4" class="edge"><title>Node4&#45;&gt;Node5</title>
<path fill="none" stroke="midnightblue" d="M861.288,-142.7C920.959,-132.539 1004.72,-117.951 1078,-104 1080.72,-103.483 1083.48,-102.949 1086.28,-102.404"/>
<polygon fill="midnightblue" stroke="midnightblue" points="860.452,-139.292 851.18,-144.419 861.625,-146.193 860.452,-139.292"/>
</g>
<!-- Node6 -->
<g id="node6" class="node"><title>Node6</title>
<g id="a_node6"><a xlink:href="_renderer_dx_8cpp.html" target="_top" xlink:title="src/cinder/app/RendererDx.cpp">
<polygon fill="white" stroke="black" points="156.801,-77 156.801,-97 311.199,-97 311.199,-77 156.801,-77"/>
<text text-anchor="middle" x="234" y="-83" font-family="Helvetica,sans-Serif" font-size="10.00">src/cinder/app/RendererDx.cpp</text>
</a>
</g>
</g>
<!-- Node4&#45;&gt;Node6 -->
<g id="edge5" class="edge"><title>Node4&#45;&gt;Node6</title>
<path fill="none" stroke="midnightblue" d="M702.61,-148.738C610.573,-139.928 454.429,-123.77 321,-104 307.631,-102.019 293.173,-99.5095 279.955,-97.0687"/>
<polygon fill="midnightblue" stroke="midnightblue" points="702.399,-152.234 712.685,-149.698 703.062,-145.265 702.399,-152.234"/>
</g>
<!-- Node7 -->
<g id="node7" class="node"><title>Node7</title>
<g id="a_node7"><a xlink:href="dx_8cpp.html" target="_top" xlink:title="src/cinder/dx/dx.cpp">
<polygon fill="white" stroke="black" points="329.537,-77 329.537,-97 434.463,-97 434.463,-77 329.537,-77"/>
<text text-anchor="middle" x="382" y="-83" font-family="Helvetica,sans-Serif" font-size="10.00">src/cinder/dx/dx.cpp</text>
</a>
</g>
</g>
<!-- Node4&#45;&gt;Node7 -->
<g id="edge6" class="edge"><title>Node4&#45;&gt;Node7</title>
<path fill="none" stroke="midnightblue" d="M702.873,-146.239C633.902,-137.167 531.357,-122.312 443,-104 433.459,-102.022 423.179,-99.4861 413.827,-97.0185"/>
<polygon fill="midnightblue" stroke="midnightblue" points="702.431,-149.711 712.8,-147.536 703.338,-142.77 702.431,-149.711"/>
</g>
<!-- Node8 -->
<g id="node8" class="node"><title>Node8</title>
<g id="a_node8"><a xlink:href="_dx_render_target_8cpp.html" target="_top" xlink:title="src/cinder/dx/DxRenderTarget.cpp">
<polygon fill="white" stroke="black" points="452.412,-77 452.412,-97 619.588,-97 619.588,-77 452.412,-77"/>
<text text-anchor="middle" x="536" y="-83" font-family="Helvetica,sans-Serif" font-size="10.00">src/cinder/dx/DxRenderTarget.cpp</text>
</a>
</g>
</g>
<!-- Node4&#45;&gt;Node8 -->
<g id="edge7" class="edge"><title>Node4&#45;&gt;Node8</title>
<path fill="none" stroke="midnightblue" d="M718.048,-138.322C670.159,-125.085 606.612,-107.519 568.655,-97.0266"/>
<polygon fill="midnightblue" stroke="midnightblue" points="717.139,-141.702 727.71,-140.993 719.004,-134.955 717.139,-141.702"/>
</g>
<!-- Node9 -->
<g id="node9" class="node"><title>Node9</title>
<g id="a_node9"><a xlink:href="_dx_texture_8cpp.html" target="_top" xlink:title="src/cinder/dx/DxTexture.cpp">
<polygon fill="white" stroke="black" points="637.311,-77 637.311,-97 776.689,-97 776.689,-77 637.311,-77"/>
<text text-anchor="middle" x="707" y="-83" font-family="Helvetica,sans-Serif" font-size="10.00">src/cinder/dx/DxTexture.cpp</text>
</a>
</g>
</g>
<!-- Node4&#45;&gt;Node9 -->
<g id="edge8" class="edge"><title>Node4&#45;&gt;Node9</title>
<path fill="none" stroke="midnightblue" d="M757.6,-133.877C743.78,-121.347 727.246,-106.356 716.93,-97.0035"/>
<polygon fill="midnightblue" stroke="midnightblue" points="755.596,-136.785 765.355,-140.909 760.298,-131.599 755.596,-136.785"/>
</g>
<!-- Node10 -->
<g id="node10" class="node"><title>Node10</title>
<g id="a_node10"><a xlink:href="_dx_vbo_8cpp.html" target="_top" xlink:title="src/cinder/dx/DxVbo.cpp">
<polygon fill="white" stroke="black" points="794.811,-77 794.811,-97 919.189,-97 919.189,-77 794.811,-77"/>
<text text-anchor="middle" x="857" y="-83" font-family="Helvetica,sans-Serif" font-size="10.00">src/cinder/dx/DxVbo.cpp</text>
</a>
</g>
</g>
<!-- Node4&#45;&gt;Node10 -->
<g id="edge9" class="edge"><title>Node4&#45;&gt;Node10</title>
<path fill="none" stroke="midnightblue" d="M806.4,-133.877C820.22,-121.347 836.754,-106.356 847.07,-97.0035"/>
<polygon fill="midnightblue" stroke="midnightblue" points="803.702,-131.599 798.645,-140.909 808.404,-136.785 803.702,-131.599"/>
</g>
<!-- Node11 -->
<g id="node11" class="node"><title>Node11</title>
<g id="a_node11"><a xlink:href="_hlsl_prog_8cpp.html" target="_top" xlink:title="src/cinder/dx/HlslProg.cpp">
<polygon fill="white" stroke="black" points="936.924,-77 936.924,-97 1069.08,-97 1069.08,-77 936.924,-77"/>
<text text-anchor="middle" x="1003" y="-83" font-family="Helvetica,sans-Serif" font-size="10.00">src/cinder/dx/HlslProg.cpp</text>
</a>
</g>
</g>
<!-- Node4&#45;&gt;Node11 -->
<g id="edge10" class="edge"><title>Node4&#45;&gt;Node11</title>
<path fill="none" stroke="midnightblue" d="M840.533,-137.99C883.427,-124.792 939.849,-107.431 973.664,-97.0266"/>
<polygon fill="midnightblue" stroke="midnightblue" points="839.301,-134.707 830.773,-140.993 841.36,-141.397 839.301,-134.707"/>
</g>
<!-- Node13 -->
<g id="node13" class="node"><title>Node13</title>
<g id="a_node13"><a xlink:href="_app_impl_msw_renderer_gdi_8cpp.html" target="_top" xlink:title="src/cinder/app/AppImplMsw\lRendererGdi.cpp">
<polygon fill="white" stroke="black" points="1243.59,-71 1243.59,-103 1382.41,-103 1382.41,-71 1243.59,-71"/>
<text text-anchor="start" x="1251.59" y="-89" font-family="Helvetica,sans-Serif" font-size="10.00">src/cinder/app/AppImplMsw</text>
<text text-anchor="middle" x="1313" y="-77" font-family="Helvetica,sans-Serif" font-size="10.00">RendererGdi.cpp</text>
</a>
</g>
</g>
<!-- Node12&#45;&gt;Node13 -->
<g id="edge12" class="edge"><title>Node12&#45;&gt;Node13</title>
<path fill="none" stroke="midnightblue" d="M1312.37,-130.617C1312.51,-121.338 1312.66,-111.141 1312.78,-103.049"/>
<polygon fill="midnightblue" stroke="midnightblue" points="1308.87,-130.858 1312.22,-140.909 1315.87,-130.961 1308.87,-130.858"/>
</g>
<!-- Node15 -->
<g id="node15" class="node"><title>Node15</title>
<g id="a_node15"><a xlink:href="_app_impl_msw_renderer_gl_8cpp.html" target="_top" xlink:title="src/cinder/app/AppImplMsw\lRendererGl.cpp">
<polygon fill="white" stroke="black" points="1400.59,-71 1400.59,-103 1539.41,-103 1539.41,-71 1400.59,-71"/>
<text text-anchor="start" x="1408.59" y="-89" font-family="Helvetica,sans-Serif" font-size="10.00">src/cinder/app/AppImplMsw</text>
<text text-anchor="middle" x="1470" y="-77" font-family="Helvetica,sans-Serif" font-size="10.00">RendererGl.cpp</text>
</a>
</g>
</g>
<!-- Node14&#45;&gt;Node15 -->
<g id="edge14" class="edge"><title>Node14&#45;&gt;Node15</title>
<path fill="none" stroke="midnightblue" d="M1469.37,-130.617C1469.51,-121.338 1469.66,-111.141 1469.78,-103.049"/>
<polygon fill="midnightblue" stroke="midnightblue" points="1465.87,-130.858 1469.22,-140.909 1472.87,-130.961 1465.87,-130.858"/>
</g>
<!-- Node17 -->
<g id="node17" class="node"><title>Node17</title>
<g id="a_node17"><a xlink:href="_app_impl_msw_screen_saver_8cpp.html" target="_top" xlink:title="src/cinder/app/AppImplMsw\lScreenSaver.cpp">
<polygon fill="white" stroke="black" points="1557.59,-71 1557.59,-103 1696.41,-103 1696.41,-71 1557.59,-71"/>
<text text-anchor="start" x="1565.59" y="-89" font-family="Helvetica,sans-Serif" font-size="10.00">src/cinder/app/AppImplMsw</text>
<text text-anchor="middle" x="1627" y="-77" font-family="Helvetica,sans-Serif" font-size="10.00">ScreenSaver.cpp</text>
</a>
</g>
</g>
<!-- Node16&#45;&gt;Node17 -->
<g id="edge16" class="edge"><title>Node16&#45;&gt;Node17</title>
<path fill="none" stroke="midnightblue" d="M1626.37,-130.617C1626.51,-121.338 1626.66,-111.141 1626.78,-103.049"/>
<polygon fill="midnightblue" stroke="midnightblue" points="1622.87,-130.858 1626.22,-140.909 1629.87,-130.961 1622.87,-130.858"/>
</g>
<!-- Node19 -->
<g id="node19" class="node"><title>Node19</title>
<g id="a_node19"><a xlink:href="_win_r_t_app_8h.html" target="_top" xlink:title="include/cinder/app\l/WinRTApp.h">
<polygon fill="white" stroke="black" points="1791.42,-71 1791.42,-103 1888.58,-103 1888.58,-71 1791.42,-71"/>
<text text-anchor="start" x="1799.42" y="-89" font-family="Helvetica,sans-Serif" font-size="10.00">include/cinder/app</text>
<text text-anchor="middle" x="1840" y="-77" font-family="Helvetica,sans-Serif" font-size="10.00">/WinRTApp.h</text>
</a>
</g>
</g>
<!-- Node18&#45;&gt;Node19 -->
<g id="edge18" class="edge"><title>Node18&#45;&gt;Node19</title>
<path fill="none" stroke="midnightblue" d="M1831.16,-130.92C1833.09,-121.56 1835.22,-111.229 1836.9,-103.049"/>
<polygon fill="midnightblue" stroke="midnightblue" points="1827.7,-130.408 1829.11,-140.909 1834.55,-131.82 1827.7,-130.408"/>
</g>
<!-- Node18&#45;&gt;Node20 -->
<g id="edge21" class="edge"><title>Node18&#45;&gt;Node20</title>
<path fill="none" stroke="midnightblue" d="M1803.37,-133.486C1795.7,-124.851 1787.65,-114.531 1782,-104 1769.57,-80.8468 1762.66,-50.7837 1759.39,-33.0243"/>
<polygon fill="midnightblue" stroke="midnightblue" points="1800.87,-135.936 1810.23,-140.9 1806.01,-131.182 1800.87,-135.936"/>
</g>
<!-- Node21 -->
<g id="node21" class="node"><title>Node21</title>
<g id="a_node21"><a xlink:href="_win_r_t_app_8cpp.html" target="_top" xlink:title="src/cinder/app/WinRTApp.cpp">
<polygon fill="white" stroke="black" points="1843.04,-7 1843.04,-27 1990.96,-27 1990.96,-7 1843.04,-7"/>
<text text-anchor="middle" x="1917" y="-13" font-family="Helvetica,sans-Serif" font-size="10.00">src/cinder/app/WinRTApp.cpp</text>
</a>
</g>
</g>
<!-- Node18&#45;&gt;Node21 -->
<g id="edge22" class="edge"><title>Node18&#45;&gt;Node21</title>
<path fill="none" stroke="midnightblue" d="M1864.26,-135.349C1876.37,-127.081 1888.74,-116.517 1897,-104 1913.13,-79.5673 1916.33,-43.7204 1916.91,-27.092"/>
<polygon fill="midnightblue" stroke="midnightblue" points="1862.06,-132.601 1855.55,-140.959 1865.85,-138.486 1862.06,-132.601"/>
</g>
<!-- Node19&#45;&gt;Node20 -->
<g id="edge19" class="edge"><title>Node19&#45;&gt;Node20</title>
<path fill="none" stroke="midnightblue" d="M1813.74,-64.4877C1801.26,-54.2614 1786.64,-42.2848 1775.37,-33.0492"/>
<polygon fill="midnightblue" stroke="midnightblue" points="1811.63,-67.2785 1821.58,-70.9086 1816.06,-61.8637 1811.63,-67.2785"/>
</g>
<!-- Node19&#45;&gt;Node21 -->
<g id="edge20" class="edge"><title>Node19&#45;&gt;Node21</title>
<path fill="none" stroke="midnightblue" d="M1864.65,-64.2276C1878.92,-51.6279 1896.12,-36.4436 1906.8,-27.0035"/>
<polygon fill="midnightblue" stroke="midnightblue" points="1862.27,-61.6657 1857.09,-70.9086 1866.9,-66.9126 1862.27,-61.6657"/>
</g>
</g>
</svg>
        <g id="navigator" transform="translate(0 0)" fill="#404254">
                <rect fill="#f2f5e9" fill-opacity="0.5" stroke="#606060" stroke-width=".5" x="0" y="0" width="60" height="60"/>
                <use id="zoomplus" xlink:href="#zoomPlus" x="17" y="9" onmousedown="handleZoom(evt,'in')"/>
                <use id="zoomminus" xlink:href="#zoomMin" x="42" y="9" onmousedown="handleZoom(evt,'out')"/>
                <use id="reset" xlink:href="#resetDef" x="30" y="36" onmousedown="handleReset()"/>
                <g id="arrowUp" xlink:href="#dirArrow" transform="translate(30 24)" onmousedown="handlePan(0,-1)">
                  <use xlink:href="#rim" fill="#404040">
                        <set attributeName="fill" to="#808080" begin="arrowUp.mouseover" end="arrowUp.mouseout"/>
                  </use>
                  <path fill="none" stroke="white" stroke-width="1.5" d="M0,-3.0v7 M-2.5,-0.5L0,-3.0L2.5,-0.5"/>
                </g>
                <g id="arrowRight" xlink:href="#dirArrow" transform="rotate(90) translate(36 -43)" onmousedown="handlePan(1,0)">
                  <use xlink:href="#rim" fill="#404040">
                        <set attributeName="fill" to="#808080" begin="arrowRight.mouseover" end="arrowRight.mouseout"/>
                  </use>
                  <path fill="none" stroke="white" stroke-width="1.5" d="M0,-3.0v7 M-2.5,-0.5L0,-3.0L2.5,-0.5"/>
                </g>
                <g id="arrowDown" xlink:href="#dirArrow" transform="rotate(180) translate(-30 -48)" onmousedown="handlePan(0,1)">
                  <use xlink:href="#rim" fill="#404040">
                        <set attributeName="fill" to="#808080" begin="arrowDown.mouseover" end="arrowDown.mouseout"/>
                  </use>
                  <path fill="none" stroke="white" stroke-width="1.5" d="M0,-3.0v7 M-2.5,-0.5L0,-3.0L2.5,-0.5"/>
                </g>
                <g id="arrowLeft" xlink:href="#dirArrow" transform="rotate(270) translate(-36 17)" onmousedown="handlePan(-1,0)">
                  <use xlink:href="#rim" fill="#404040">
                        <set attributeName="fill" to="#808080" begin="arrowLeft.mouseover" end="arrowLeft.mouseout"/>
                  </use>
                  <path fill="none" stroke="white" stroke-width="1.5" d="M0,-3.0v7 M-2.5,-0.5L0,-3.0L2.5,-0.5"/>
                </g>
        </g>
        <svg viewBox="0 0 15 15" width="100%" height="30px" preserveAspectRatio="xMaxYMin meet">
         <g id="arrow_out" transform="scale(0.3 0.3)">
          <a xlink:href="_app_impl_msw_renderer_8h__dep__incl_org.svg" target="_base">
           <rect id="button" ry="5" rx="5" y="6" x="6" height="38" width="38"
                fill="#f2f5e9" fill-opacity="0.5" stroke="#606060" stroke-width="1.0"/>
           <path id="arrow"
             d="M 11.500037,31.436501 C 11.940474,20.09759 22.043105,11.32322 32.158766,21.979434 L 37.068811,17.246167 C 37.068811,17.246167 37.088388,32 37.088388,32 L 22.160133,31.978069 C 22.160133,31.978069 26.997745,27.140456 26.997745,27.140456 C 18.528582,18.264221 13.291696,25.230495 11.500037,31.436501 z"
             style="fill:#404040;"/>
          </a>
         </g>
        </svg>
</svg>
