<?xml version="1.0" encoding="UTF-8" standalone="no"?>
<!DOCTYPE svg PUBLIC "-//W3C//DTD SVG 1.1//EN"
 "http://www.w3.org/Graphics/SVG/1.1/DTD/svg11.dtd">
<!-- Generated by graphviz version 2.30.1 (20140712.1814)
 -->
<!-- Title: include/cinder/app/AppImplCocoaScreenSaver.h Pages: 1 -->
<svg width="156pt" height="112pt"
 viewBox="0.00 0.00 156.00 112.00" xmlns="http://www.w3.org/2000/svg" xmlns:xlink="http://www.w3.org/1999/xlink">
<g id="graph0" class="graph" transform="scale(1 1) rotate(0) translate(4 108)">
<title>include/cinder/app/AppImplCocoaScreenSaver.h</title>
<polygon fill="white" stroke="white" points="-4,5 -4,-108 153,-108 153,5 -4,5"/>
<!-- Node1 -->
<g id="node1" class="node"><title>Node1</title>
<polygon fill="#bfbfbf" stroke="black" points="-0.984863,-71 -0.984863,-103 148.985,-103 148.985,-71 -0.984863,-71"/>
<text text-anchor="start" x="7.01514" y="-89" font-family="Helvetica,sans-Serif" font-size="10.00">include/cinder/app</text>
<text text-anchor="middle" x="74" y="-77" font-family="Helvetica,sans-Serif" font-size="10.00">/AppImplCocoaScreenSaver.h</text>
</g>
<!-- Node2 -->
<g id="node2" class="node"><title>Node2</title>
<g id="a_node2"><a xlink:href="_app_impl_cocoa_screen_saver_8mm.html" target="_top" xlink:title="src/cinder/app/AppImplCocoa\lScreenSaver.mm">
<polygon fill="white" stroke="black" points="0.411621,-1 0.411621,-33 147.588,-33 147.588,-1 0.411621,-1"/>
<text text-anchor="start" x="8.41162" y="-19" font-family="Helvetica,sans-Serif" font-size="10.00">src/cinder/app/AppImplCocoa</text>
<text text-anchor="middle" x="74" y="-7" font-family="Helvetica,sans-Serif" font-size="10.00">ScreenSaver.mm</text>
</a>
</g>
</g>
<!-- Node1&#45;&gt;Node2 -->
<g id="edge1" class="edge"><title>Node1&#45;&gt;Node2</title>
<path fill="none" stroke="midnightblue" d="M74,-60.6174C74,-51.3378 74,-41.1413 74,-33.0492"/>
<polygon fill="midnightblue" stroke="midnightblue" points="70.5001,-60.9086 74,-70.9086 77.5001,-60.9086 70.5001,-60.9086"/>
</g>
</g>
</svg>
