<?xml version="1.0" encoding="UTF-8" standalone="no"?>
<!DOCTYPE svg PUBLIC "-//W3C//DTD SVG 1.1//EN"
 "http://www.w3.org/Graphics/SVG/1.1/DTD/svg11.dtd">
<!-- Generated by graphviz version 2.30.1 (20140712.1814)
 -->
<!-- Title: include/cinder/Area.h Pages: 1 -->
<svg width="508pt" height="262pt"
 viewBox="0.00 0.00 508.00 262.00" xmlns="http://www.w3.org/2000/svg" xmlns:xlink="http://www.w3.org/1999/xlink">
<g id="graph0" class="graph" transform="scale(1 1) rotate(0) translate(4 258)">
<title>include/cinder/Area.h</title>
<polygon fill="white" stroke="white" points="-4,5 -4,-258 505,-258 505,5 -4,5"/>
<!-- Node1 -->
<g id="node1" class="node"><title>Node1</title>
<polygon fill="#bfbfbf" stroke="black" points="170.027,-233 170.027,-253 279.973,-253 279.973,-233 170.027,-233"/>
<text text-anchor="middle" x="225" y="-239" font-family="Helvetica,sans-Serif" font-size="10.00">include/cinder/Area.h</text>
</g>
<!-- Node2 -->
<g id="node2" class="node"><title>Node2</title>
<g id="a_node2"><a xlink:href="_cinder_8h.html" target="_top" xlink:title="cinder/Cinder.h">
<polygon fill="white" stroke="black" points="68.3672,-59 68.3672,-79 151.633,-79 151.633,-59 68.3672,-59"/>
<text text-anchor="middle" x="110" y="-65" font-family="Helvetica,sans-Serif" font-size="10.00">cinder/Cinder.h</text>
</a>
</g>
</g>
<!-- Node1&#45;&gt;Node2 -->
<g id="edge1" class="edge"><title>Node1&#45;&gt;Node2</title>
<path fill="none" stroke="midnightblue" d="M202.213,-232.975C169.547,-218.583 110.932,-186.963 89,-138 81.6131,-121.509 89.5201,-101.667 97.6574,-87.6848"/>
<polygon fill="midnightblue" stroke="midnightblue" points="100.732,-89.3715 103.143,-79.0544 94.8247,-85.6167 100.732,-89.3715"/>
</g>
<!-- Node6 -->
<g id="node6" class="node"><title>Node6</title>
<g id="a_node6"><a xlink:href="_vector_8h.html" target="_top" xlink:title="cinder/Vector.h">
<polygon fill="white" stroke="black" points="183.919,-175 183.919,-195 266.081,-195 266.081,-175 183.919,-175"/>
<text text-anchor="middle" x="225" y="-181" font-family="Helvetica,sans-Serif" font-size="10.00">cinder/Vector.h</text>
</a>
</g>
</g>
<!-- Node1&#45;&gt;Node6 -->
<g id="edge5" class="edge"><title>Node1&#45;&gt;Node6</title>
<path fill="none" stroke="midnightblue" d="M225,-232.753C225,-225.25 225,-214.424 225,-205.078"/>
<polygon fill="midnightblue" stroke="midnightblue" points="228.5,-205.075 225,-195.075 221.5,-205.075 228.5,-205.075"/>
</g>
<!-- Node9 -->
<g id="node9" class="node"><title>Node9</title>
<polygon fill="white" stroke="#bfbfbf" points="97.8276,-117 97.8276,-137 152.172,-137 152.172,-117 97.8276,-117"/>
<text text-anchor="middle" x="125" y="-123" font-family="Helvetica,sans-Serif" font-size="10.00">iostream</text>
</g>
<!-- Node1&#45;&gt;Node9 -->
<g id="edge17" class="edge"><title>Node1&#45;&gt;Node9</title>
<path fill="none" stroke="midnightblue" d="M213.693,-232.7C203.159,-223.789 187.278,-209.705 175,-196 160.563,-179.885 146.146,-159.737 136.529,-145.57"/>
<polygon fill="midnightblue" stroke="midnightblue" points="139.418,-143.594 130.95,-137.227 133.599,-147.485 139.418,-143.594"/>
</g>
<!-- Node16 -->
<g id="node16" class="node"><title>Node16</title>
<polygon fill="white" stroke="#bfbfbf" points="283.608,-175 283.608,-195 322.392,-195 322.392,-175 283.608,-175"/>
<text text-anchor="middle" x="303" y="-181" font-family="Helvetica,sans-Serif" font-size="10.00">utility</text>
</g>
<!-- Node1&#45;&gt;Node16 -->
<g id="edge18" class="edge"><title>Node1&#45;&gt;Node16</title>
<path fill="none" stroke="midnightblue" d="M237.88,-232.753C249.92,-224.109 268.106,-211.052 282.203,-200.931"/>
<polygon fill="midnightblue" stroke="midnightblue" points="284.278,-203.75 290.36,-195.075 280.195,-198.064 284.278,-203.75"/>
</g>
<!-- Node17 -->
<g id="node17" class="node"><title>Node17</title>
<polygon fill="white" stroke="#bfbfbf" points="340.384,-175 340.384,-195 383.616,-195 383.616,-175 340.384,-175"/>
<text text-anchor="middle" x="362" y="-181" font-family="Helvetica,sans-Serif" font-size="10.00">vector</text>
</g>
<!-- Node1&#45;&gt;Node17 -->
<g id="edge19" class="edge"><title>Node1&#45;&gt;Node17</title>
<path fill="none" stroke="midnightblue" d="M247.316,-232.878C269.941,-223.63 305.147,-209.239 330.585,-198.841"/>
<polygon fill="midnightblue" stroke="midnightblue" points="332.214,-201.956 340.146,-194.933 329.566,-195.477 332.214,-201.956"/>
</g>
<!-- Node3 -->
<g id="node3" class="node"><title>Node3</title>
<polygon fill="white" stroke="#bfbfbf" points="-0.450684,-1 -0.450684,-21 44.4507,-21 44.4507,-1 -0.450684,-1"/>
<text text-anchor="middle" x="22" y="-7" font-family="Helvetica,sans-Serif" font-size="10.00">cstdint</text>
</g>
<!-- Node2&#45;&gt;Node3 -->
<g id="edge2" class="edge"><title>Node2&#45;&gt;Node3</title>
<path fill="none" stroke="midnightblue" d="M95.4686,-58.7527C81.757,-50.0272 60.9794,-36.8051 45.0148,-26.6458"/>
<polygon fill="midnightblue" stroke="midnightblue" points="46.5767,-23.4912 36.261,-21.0752 42.8186,-29.3968 46.5767,-23.4912"/>
</g>
<!-- Node4 -->
<g id="node4" class="node"><title>Node4</title>
<polygon fill="white" stroke="#bfbfbf" points="62.5298,-1 62.5298,-21 157.47,-21 157.47,-1 62.5298,-1"/>
<text text-anchor="middle" x="110" y="-7" font-family="Helvetica,sans-Serif" font-size="10.00">boost/version.hpp</text>
</g>
<!-- Node2&#45;&gt;Node4 -->
<g id="edge3" class="edge"><title>Node2&#45;&gt;Node4</title>
<path fill="none" stroke="midnightblue" d="M110,-58.7527C110,-51.2504 110,-40.4238 110,-31.0781"/>
<polygon fill="midnightblue" stroke="midnightblue" points="113.5,-31.0752 110,-21.0752 106.5,-31.0752 113.5,-31.0752"/>
</g>
<!-- Node5 -->
<g id="node5" class="node"><title>Node5</title>
<polygon fill="white" stroke="#bfbfbf" points="175.621,-1 175.621,-21 308.379,-21 308.379,-1 175.621,-1"/>
<text text-anchor="middle" x="242" y="-7" font-family="Helvetica,sans-Serif" font-size="10.00">boost/checked_delete.hpp</text>
</g>
<!-- Node2&#45;&gt;Node5 -->
<g id="edge4" class="edge"><title>Node2&#45;&gt;Node5</title>
<path fill="none" stroke="midnightblue" d="M131.502,-58.878C153.172,-49.6848 186.821,-35.4095 211.295,-25.0263"/>
<polygon fill="midnightblue" stroke="midnightblue" points="212.668,-28.2457 220.507,-21.1181 209.935,-21.8016 212.668,-28.2457"/>
</g>
<!-- Node7 -->
<g id="node7" class="node"><title>Node7</title>
<polygon fill="white" stroke="#bfbfbf" points="405.384,-59 405.384,-79 448.616,-79 448.616,-59 405.384,-59"/>
<text text-anchor="middle" x="427" y="-65" font-family="Helvetica,sans-Serif" font-size="10.00">cmath</text>
</g>
<!-- Node6&#45;&gt;Node7 -->
<g id="edge6" class="edge"><title>Node6&#45;&gt;Node7</title>
<path fill="none" stroke="midnightblue" d="M265.486,-174.906C317.796,-162.998 402.823,-143.043 408,-138 420.874,-125.459 425.234,-104.976 426.609,-89.7637"/>
<polygon fill="midnightblue" stroke="midnightblue" points="430.125,-89.5508 427.17,-79.3764 423.136,-89.1729 430.125,-89.5508"/>
</g>
<!-- Node8 -->
<g id="node8" class="node"><title>Node8</title>
<polygon fill="white" stroke="#bfbfbf" points="455.273,-117 455.273,-137 500.727,-137 500.727,-117 455.273,-117"/>
<text text-anchor="middle" x="478" y="-123" font-family="Helvetica,sans-Serif" font-size="10.00">cstring</text>
</g>
<!-- Node6&#45;&gt;Node8 -->
<g id="edge7" class="edge"><title>Node6&#45;&gt;Node8</title>
<path fill="none" stroke="midnightblue" d="M266.395,-175.463C319.426,-164.478 408.389,-145.873 441,-138 442.273,-137.693 443.57,-137.373 444.878,-137.046"/>
<polygon fill="midnightblue" stroke="midnightblue" points="446.154,-140.331 454.957,-134.435 444.399,-133.554 446.154,-140.331"/>
</g>
<!-- Node6&#45;&gt;Node9 -->
<g id="edge8" class="edge"><title>Node6&#45;&gt;Node9</title>
<path fill="none" stroke="midnightblue" d="M208.487,-174.753C192.614,-165.864 168.409,-152.309 150.142,-142.079"/>
<polygon fill="midnightblue" stroke="midnightblue" points="151.641,-138.907 141.206,-137.075 148.221,-145.015 151.641,-138.907"/>
</g>
<!-- Node10 -->
<g id="node10" class="node"><title>Node10</title>
<polygon fill="white" stroke="#bfbfbf" points="169.884,-117 169.884,-137 218.116,-137 218.116,-117 169.884,-117"/>
<text text-anchor="middle" x="194" y="-123" font-family="Helvetica,sans-Serif" font-size="10.00">cassert</text>
</g>
<!-- Node6&#45;&gt;Node10 -->
<g id="edge9" class="edge"><title>Node6&#45;&gt;Node10</title>
<path fill="none" stroke="midnightblue" d="M219.881,-174.753C215.547,-166.924 209.21,-155.476 203.891,-145.868"/>
<polygon fill="midnightblue" stroke="midnightblue" points="206.929,-144.129 199.024,-137.075 200.805,-147.519 206.929,-144.129"/>
</g>
<!-- Node11 -->
<g id="node11" class="node"><title>Node11</title>
<polygon fill="white" stroke="#bfbfbf" points="236.613,-117 236.613,-137 275.387,-137 275.387,-117 236.613,-117"/>
<text text-anchor="middle" x="256" y="-123" font-family="Helvetica,sans-Serif" font-size="10.00">limits</text>
</g>
<!-- Node6&#45;&gt;Node11 -->
<g id="edge10" class="edge"><title>Node6&#45;&gt;Node11</title>
<path fill="none" stroke="midnightblue" d="M230.119,-174.753C234.453,-166.924 240.79,-155.476 246.109,-145.868"/>
<polygon fill="midnightblue" stroke="midnightblue" points="249.195,-147.519 250.976,-137.075 243.071,-144.129 249.195,-147.519"/>
</g>
<!-- Node12 -->
<g id="node12" class="node"><title>Node12</title>
<g id="a_node12"><a xlink:href="_cinder_math_8h.html" target="_top" xlink:title="cinder/CinderMath.h">
<polygon fill="white" stroke="black" points="292.978,-117 292.978,-137 399.022,-137 399.022,-117 292.978,-117"/>
<text text-anchor="middle" x="346" y="-123" font-family="Helvetica,sans-Serif" font-size="10.00">cinder/CinderMath.h</text>
</a>
</g>
</g>
<!-- Node6&#45;&gt;Node12 -->
<g id="edge11" class="edge"><title>Node6&#45;&gt;Node12</title>
<path fill="none" stroke="midnightblue" d="M244.71,-174.878C264.31,-165.807 294.602,-151.788 316.956,-141.442"/>
<polygon fill="midnightblue" stroke="midnightblue" points="318.693,-144.495 326.298,-137.118 315.753,-138.142 318.693,-144.495"/>
</g>
<!-- Node12&#45;&gt;Node2 -->
<g id="edge12" class="edge"><title>Node12&#45;&gt;Node2</title>
<path fill="none" stroke="midnightblue" d="M307.82,-116.94C267.034,-107.262 202.296,-91.9007 158.066,-81.4056"/>
<polygon fill="midnightblue" stroke="midnightblue" points="158.663,-77.95 148.125,-79.0466 157.047,-84.7609 158.663,-77.95"/>
</g>
<!-- Node12&#45;&gt;Node7 -->
<g id="edge13" class="edge"><title>Node12&#45;&gt;Node7</title>
<path fill="none" stroke="midnightblue" d="M359.376,-116.753C371.878,-108.109 390.764,-95.0518 405.403,-84.9314"/>
<polygon fill="midnightblue" stroke="midnightblue" points="407.638,-87.641 413.873,-79.0752 403.657,-81.8831 407.638,-87.641"/>
</g>
<!-- Node13 -->
<g id="node13" class="node"><title>Node13</title>
<polygon fill="white" stroke="#bfbfbf" points="343.113,-59 343.113,-79 386.887,-79 386.887,-59 343.113,-59"/>
<text text-anchor="middle" x="365" y="-65" font-family="Helvetica,sans-Serif" font-size="10.00">climits</text>
</g>
<!-- Node12&#45;&gt;Node13 -->
<g id="edge14" class="edge"><title>Node12&#45;&gt;Node13</title>
<path fill="none" stroke="midnightblue" d="M349.137,-116.753C351.711,-109.169 355.436,-98.1881 358.63,-88.7739"/>
<polygon fill="midnightblue" stroke="midnightblue" points="362.022,-89.6695 361.921,-79.0752 355.393,-87.4204 362.022,-89.6695"/>
</g>
<!-- Node14 -->
<g id="node14" class="node"><title>Node14</title>
<polygon fill="white" stroke="#bfbfbf" points="209.049,-59 209.049,-79 248.951,-79 248.951,-59 209.049,-59"/>
<text text-anchor="middle" x="229" y="-65" font-family="Helvetica,sans-Serif" font-size="10.00">cfloat</text>
</g>
<!-- Node12&#45;&gt;Node14 -->
<g id="edge15" class="edge"><title>Node12&#45;&gt;Node14</title>
<path fill="none" stroke="midnightblue" d="M326.942,-116.878C307.989,-107.807 278.699,-93.7876 257.084,-83.4418"/>
<polygon fill="midnightblue" stroke="midnightblue" points="258.581,-80.2784 248.05,-79.1181 255.559,-86.5925 258.581,-80.2784"/>
</g>
<!-- Node15 -->
<g id="node15" class="node"><title>Node15</title>
<polygon fill="white" stroke="#bfbfbf" points="266.596,-59 266.596,-79 325.404,-79 325.404,-59 266.596,-59"/>
<text text-anchor="middle" x="296" y="-65" font-family="Helvetica,sans-Serif" font-size="10.00">functional</text>
</g>
<!-- Node12&#45;&gt;Node15 -->
<g id="edge16" class="edge"><title>Node12&#45;&gt;Node15</title>
<path fill="none" stroke="midnightblue" d="M337.744,-116.753C330.463,-108.598 319.675,-96.5158 310.89,-86.6769"/>
<polygon fill="midnightblue" stroke="midnightblue" points="313.374,-84.2035 304.103,-79.0752 308.152,-88.8657 313.374,-84.2035"/>
</g>
</g>
</svg>
