<?xml version="1.0" encoding="UTF-8" standalone="no"?>
<!DOCTYPE svg PUBLIC "-//W3C//DTD SVG 1.1//EN"
 "http://www.w3.org/Graphics/SVG/1.1/DTD/svg11.dtd">
<!-- Generated by graphviz version 2.30.1 (20140712.1814)
 -->
<!-- Title: src/cinder/AxisAlignedBox.cpp Pages: 1 -->
<svg width="733pt" height="552pt"
 viewBox="0.00 0.00 733.00 552.00" xmlns="http://www.w3.org/2000/svg" xmlns:xlink="http://www.w3.org/1999/xlink">
<g id="graph0" class="graph" transform="scale(1 1) rotate(0) translate(4 548)">
<title>src/cinder/AxisAlignedBox.cpp</title>
<polygon fill="white" stroke="white" points="-4,5 -4,-548 730,-548 730,5 -4,5"/>
<!-- Node1 -->
<g id="node1" class="node"><title>Node1</title>
<polygon fill="#bfbfbf" stroke="black" points="574.747,-523 574.747,-543 725.253,-543 725.253,-523 574.747,-523"/>
<text text-anchor="middle" x="650" y="-529" font-family="Helvetica,sans-Serif" font-size="10.00">src/cinder/AxisAlignedBox.cpp</text>
</g>
<!-- Node2 -->
<g id="node2" class="node"><title>Node2</title>
<g id="a_node2"><a xlink:href="_axis_aligned_box_8h.html" target="_top" xlink:title="cinder/AxisAlignedBox.h">
<polygon fill="white" stroke="black" points="540.082,-465 540.082,-485 663.918,-485 663.918,-465 540.082,-465"/>
<text text-anchor="middle" x="602" y="-471" font-family="Helvetica,sans-Serif" font-size="10.00">cinder/AxisAlignedBox.h</text>
</a>
</g>
</g>
<!-- Node1&#45;&gt;Node2 -->
<g id="edge1" class="edge"><title>Node1&#45;&gt;Node2</title>
<path fill="none" stroke="midnightblue" d="M642.074,-522.753C635.084,-514.598 624.728,-502.516 616.294,-492.677"/>
<polygon fill="midnightblue" stroke="midnightblue" points="618.944,-490.39 609.779,-485.075 613.629,-494.946 618.944,-490.39"/>
</g>
<!-- Node18 -->
<g id="node18" class="node"><title>Node18</title>
<polygon fill="white" stroke="#bfbfbf" points="527.613,-117 527.613,-137 566.387,-137 566.387,-117 527.613,-117"/>
<text text-anchor="middle" x="547" y="-123" font-family="Helvetica,sans-Serif" font-size="10.00">limits</text>
</g>
<!-- Node1&#45;&gt;Node18 -->
<g id="edge49" class="edge"><title>Node1&#45;&gt;Node18</title>
<path fill="none" stroke="midnightblue" d="M656.877,-522.799C670.15,-504.101 698,-459.875 698,-418 698,-418 698,-418 698,-242 698,-181.637 620.19,-149.192 576.281,-135.689"/>
<polygon fill="midnightblue" stroke="midnightblue" points="577.012,-132.256 566.431,-132.802 575.043,-138.974 577.012,-132.256"/>
</g>
<!-- Node3 -->
<g id="node3" class="node"><title>Node3</title>
<g id="a_node3"><a xlink:href="_matrix_8h.html" target="_top" xlink:title="cinder/Matrix.h">
<polygon fill="white" stroke="black" points="352.212,-407 352.212,-427 433.788,-427 433.788,-407 352.212,-407"/>
<text text-anchor="middle" x="393" y="-413" font-family="Helvetica,sans-Serif" font-size="10.00">cinder/Matrix.h</text>
</a>
</g>
</g>
<!-- Node2&#45;&gt;Node3 -->
<g id="edge2" class="edge"><title>Node2&#45;&gt;Node3</title>
<path fill="none" stroke="midnightblue" d="M567.955,-464.878C532.172,-455.29 475.759,-440.175 436.709,-429.712"/>
<polygon fill="midnightblue" stroke="midnightblue" points="437.249,-426.233 426.684,-427.025 435.437,-432.994 437.249,-426.233"/>
</g>
<!-- Node24 -->
<g id="node24" class="node"><title>Node24</title>
<g id="a_node24"><a xlink:href="_ray_8h.html" target="_top" xlink:title="cinder/Ray.h">
<polygon fill="white" stroke="black" points="560.3,-349 560.3,-369 631.7,-369 631.7,-349 560.3,-349"/>
<text text-anchor="middle" x="596" y="-355" font-family="Helvetica,sans-Serif" font-size="10.00">cinder/Ray.h</text>
</a>
</g>
</g>
<!-- Node2&#45;&gt;Node24 -->
<g id="edge46" class="edge"><title>Node2&#45;&gt;Node24</title>
<path fill="none" stroke="midnightblue" d="M601.509,-464.671C600.528,-446.041 598.31,-403.898 597.008,-379.143"/>
<polygon fill="midnightblue" stroke="midnightblue" points="600.502,-378.942 596.481,-369.139 593.512,-379.31 600.502,-378.942"/>
</g>
<!-- Node14 -->
<g id="node14" class="node"><title>Node14</title>
<g id="a_node14"><a xlink:href="_vector_8h.html" target="_top" xlink:title="cinder/Vector.h">
<polygon fill="white" stroke="black" points="433.919,-175 433.919,-195 516.081,-195 516.081,-175 433.919,-175"/>
<text text-anchor="middle" x="475" y="-181" font-family="Helvetica,sans-Serif" font-size="10.00">cinder/Vector.h</text>
</a>
</g>
</g>
<!-- Node2&#45;&gt;Node14 -->
<g id="edge48" class="edge"><title>Node2&#45;&gt;Node14</title>
<path fill="none" stroke="midnightblue" d="M610.558,-464.759C626.692,-446.335 660,-403.08 660,-360 660,-360 660,-360 660,-300 660,-236.959 581.179,-207.645 526.435,-194.888"/>
<polygon fill="midnightblue" stroke="midnightblue" points="527.038,-191.437 516.518,-192.694 525.526,-198.272 527.038,-191.437"/>
</g>
<!-- Node4 -->
<g id="node4" class="node"><title>Node4</title>
<g id="a_node4"><a xlink:href="_cinder_8h.html" target="_top" xlink:title="cinder/Cinder.h">
<polygon fill="white" stroke="black" points="256.367,-59 256.367,-79 339.633,-79 339.633,-59 256.367,-59"/>
<text text-anchor="middle" x="298" y="-65" font-family="Helvetica,sans-Serif" font-size="10.00">cinder/Cinder.h</text>
</a>
</g>
</g>
<!-- Node3&#45;&gt;Node4 -->
<g id="edge3" class="edge"><title>Node3&#45;&gt;Node4</title>
<path fill="none" stroke="midnightblue" d="M407.831,-406.862C467.578,-368.977 683.173,-221.323 593,-116 562.333,-80.1804 426.249,-72.0405 350.08,-70.3286"/>
<polygon fill="midnightblue" stroke="midnightblue" points="349.814,-66.8228 339.747,-70.1275 349.677,-73.8215 349.814,-66.8228"/>
</g>
<!-- Node8 -->
<g id="node8" class="node"><title>Node8</title>
<g id="a_node8"><a xlink:href="_cinder_math_8h.html" target="_top" xlink:title="cinder/CinderMath.h">
<polygon fill="white" stroke="black" points="49.978,-117 49.978,-137 156.022,-137 156.022,-117 49.978,-117"/>
<text text-anchor="middle" x="103" y="-123" font-family="Helvetica,sans-Serif" font-size="10.00">cinder/CinderMath.h</text>
</a>
</g>
</g>
<!-- Node3&#45;&gt;Node8 -->
<g id="edge7" class="edge"><title>Node3&#45;&gt;Node8</title>
<path fill="none" stroke="midnightblue" d="M352.046,-412.34C254.595,-402.504 17,-371.406 17,-302 17,-302 17,-302 17,-242 17,-199.457 55.6421,-162.725 81.1213,-143.13"/>
<polygon fill="midnightblue" stroke="midnightblue" points="83.2309,-145.923 89.1826,-137.158 79.0639,-140.298 83.2309,-145.923"/>
</g>
<!-- Node13 -->
<g id="node13" class="node"><title>Node13</title>
<g id="a_node13"><a xlink:href="_matrix22_8h.html" target="_top" xlink:title="cinder/Matrix22.h">
<polygon fill="white" stroke="black" points="437.65,-233 437.65,-253 530.35,-253 530.35,-233 437.65,-233"/>
<text text-anchor="middle" x="484" y="-239" font-family="Helvetica,sans-Serif" font-size="10.00">cinder/Matrix22.h</text>
</a>
</g>
</g>
<!-- Node3&#45;&gt;Node13 -->
<g id="edge13" class="edge"><title>Node3&#45;&gt;Node13</title>
<path fill="none" stroke="midnightblue" d="M400.911,-406.937C408.486,-397.969 419.926,-383.645 428,-370 449.44,-333.767 467.852,-287.849 477.277,-262.655"/>
<polygon fill="midnightblue" stroke="midnightblue" points="480.582,-263.808 480.749,-253.215 474.013,-261.392 480.582,-263.808"/>
</g>
<!-- Node20 -->
<g id="node20" class="node"><title>Node20</title>
<g id="a_node20"><a xlink:href="_matrix_affine2_8h.html" target="_top" xlink:title="cinder/MatrixAffine2.h">
<polygon fill="white" stroke="black" points="82.6455,-233 82.6455,-253 195.354,-253 195.354,-233 82.6455,-233"/>
<text text-anchor="middle" x="139" y="-239" font-family="Helvetica,sans-Serif" font-size="10.00">cinder/MatrixAffine2.h</text>
</a>
</g>
</g>
<!-- Node3&#45;&gt;Node20 -->
<g id="edge24" class="edge"><title>Node3&#45;&gt;Node20</title>
<path fill="none" stroke="midnightblue" d="M360.965,-406.943C336.567,-399.228 302.736,-386.729 276,-370 225.573,-338.448 176.831,-287.124 153.424,-260.776"/>
<polygon fill="midnightblue" stroke="midnightblue" points="155.968,-258.369 146.744,-253.156 150.704,-262.983 155.968,-258.369"/>
</g>
<!-- Node21 -->
<g id="node21" class="node"><title>Node21</title>
<g id="a_node21"><a xlink:href="_matrix33_8h.html" target="_top" xlink:title="cinder/Matrix33.h">
<polygon fill="white" stroke="black" points="213.65,-233 213.65,-253 306.35,-253 306.35,-233 213.65,-233"/>
<text text-anchor="middle" x="260" y="-239" font-family="Helvetica,sans-Serif" font-size="10.00">cinder/Matrix33.h</text>
</a>
</g>
</g>
<!-- Node3&#45;&gt;Node21 -->
<g id="edge29" class="edge"><title>Node3&#45;&gt;Node21</title>
<path fill="none" stroke="midnightblue" d="M354.294,-406.896C333.329,-400.061 308.596,-388.595 293,-370 267.062,-339.074 261.251,-290.016 260.11,-263.148"/>
<polygon fill="midnightblue" stroke="midnightblue" points="263.608,-263.02 259.862,-253.109 256.611,-263.193 263.608,-263.02"/>
</g>
<!-- Node22 -->
<g id="node22" class="node"><title>Node22</title>
<g id="a_node22"><a xlink:href="_matrix44_8h.html" target="_top" xlink:title="cinder/Matrix44.h">
<polygon fill="white" stroke="black" points="325.65,-291 325.65,-311 418.35,-311 418.35,-291 325.65,-291"/>
<text text-anchor="middle" x="372" y="-297" font-family="Helvetica,sans-Serif" font-size="10.00">cinder/Matrix44.h</text>
</a>
</g>
</g>
<!-- Node3&#45;&gt;Node22 -->
<g id="edge34" class="edge"><title>Node3&#45;&gt;Node22</title>
<path fill="none" stroke="midnightblue" d="M399.345,-406.6C407.472,-393.329 419.643,-368.436 412,-348 407.774,-336.7 399.38,-326.342 391.367,-318.328"/>
<polygon fill="midnightblue" stroke="midnightblue" points="393.356,-315.397 383.651,-311.147 388.587,-320.522 393.356,-315.397"/>
</g>
<!-- Node23 -->
<g id="node23" class="node"><title>Node23</title>
<g id="a_node23"><a xlink:href="_matrix_algo_8h.html" target="_top" xlink:title="cinder/MatrixAlgo.h">
<polygon fill="white" stroke="black" points="302.205,-349 302.205,-369 403.795,-369 403.795,-349 302.205,-349"/>
<text text-anchor="middle" x="353" y="-355" font-family="Helvetica,sans-Serif" font-size="10.00">cinder/MatrixAlgo.h</text>
</a>
</g>
</g>
<!-- Node3&#45;&gt;Node23 -->
<g id="edge42" class="edge"><title>Node3&#45;&gt;Node23</title>
<path fill="none" stroke="midnightblue" d="M386.395,-406.753C380.687,-398.761 372.284,-386.998 365.336,-377.27"/>
<polygon fill="midnightblue" stroke="midnightblue" points="368.143,-375.178 359.482,-369.075 362.447,-379.247 368.143,-375.178"/>
</g>
<!-- Node5 -->
<g id="node5" class="node"><title>Node5</title>
<polygon fill="white" stroke="#bfbfbf" points="187.549,-1 187.549,-21 232.451,-21 232.451,-1 187.549,-1"/>
<text text-anchor="middle" x="210" y="-7" font-family="Helvetica,sans-Serif" font-size="10.00">cstdint</text>
</g>
<!-- Node4&#45;&gt;Node5 -->
<g id="edge4" class="edge"><title>Node4&#45;&gt;Node5</title>
<path fill="none" stroke="midnightblue" d="M283.469,-58.7527C269.757,-50.0272 248.979,-36.8051 233.015,-26.6458"/>
<polygon fill="midnightblue" stroke="midnightblue" points="234.577,-23.4912 224.261,-21.0752 230.819,-29.3968 234.577,-23.4912"/>
</g>
<!-- Node6 -->
<g id="node6" class="node"><title>Node6</title>
<polygon fill="white" stroke="#bfbfbf" points="250.53,-1 250.53,-21 345.47,-21 345.47,-1 250.53,-1"/>
<text text-anchor="middle" x="298" y="-7" font-family="Helvetica,sans-Serif" font-size="10.00">boost/version.hpp</text>
</g>
<!-- Node4&#45;&gt;Node6 -->
<g id="edge5" class="edge"><title>Node4&#45;&gt;Node6</title>
<path fill="none" stroke="midnightblue" d="M298,-58.7527C298,-51.2504 298,-40.4238 298,-31.0781"/>
<polygon fill="midnightblue" stroke="midnightblue" points="301.5,-31.0752 298,-21.0752 294.5,-31.0752 301.5,-31.0752"/>
</g>
<!-- Node7 -->
<g id="node7" class="node"><title>Node7</title>
<polygon fill="white" stroke="#bfbfbf" points="363.621,-1 363.621,-21 496.379,-21 496.379,-1 363.621,-1"/>
<text text-anchor="middle" x="430" y="-7" font-family="Helvetica,sans-Serif" font-size="10.00">boost/checked_delete.hpp</text>
</g>
<!-- Node4&#45;&gt;Node7 -->
<g id="edge6" class="edge"><title>Node4&#45;&gt;Node7</title>
<path fill="none" stroke="midnightblue" d="M319.502,-58.878C341.172,-49.6848 374.821,-35.4095 399.295,-25.0263"/>
<polygon fill="midnightblue" stroke="midnightblue" points="400.668,-28.2457 408.507,-21.1181 397.935,-21.8016 400.668,-28.2457"/>
</g>
<!-- Node8&#45;&gt;Node4 -->
<g id="edge8" class="edge"><title>Node8&#45;&gt;Node4</title>
<path fill="none" stroke="midnightblue" d="M134.764,-116.878C168.008,-107.331 220.337,-92.3033 256.753,-81.8454"/>
<polygon fill="midnightblue" stroke="midnightblue" points="257.927,-85.1496 266.573,-79.0253 255.995,-78.4216 257.927,-85.1496"/>
</g>
<!-- Node9 -->
<g id="node9" class="node"><title>Node9</title>
<polygon fill="white" stroke="#bfbfbf" points="195.384,-59 195.384,-79 238.616,-79 238.616,-59 195.384,-59"/>
<text text-anchor="middle" x="217" y="-65" font-family="Helvetica,sans-Serif" font-size="10.00">cmath</text>
</g>
<!-- Node8&#45;&gt;Node9 -->
<g id="edge9" class="edge"><title>Node8&#45;&gt;Node9</title>
<path fill="none" stroke="midnightblue" d="M121.57,-116.878C139.953,-107.847 168.32,-93.9132 189.353,-83.5812"/>
<polygon fill="midnightblue" stroke="midnightblue" points="191.006,-86.6686 198.438,-79.1181 187.919,-80.3857 191.006,-86.6686"/>
</g>
<!-- Node10 -->
<g id="node10" class="node"><title>Node10</title>
<polygon fill="white" stroke="#bfbfbf" points="133.113,-59 133.113,-79 176.887,-79 176.887,-59 133.113,-59"/>
<text text-anchor="middle" x="155" y="-65" font-family="Helvetica,sans-Serif" font-size="10.00">climits</text>
</g>
<!-- Node8&#45;&gt;Node10 -->
<g id="edge10" class="edge"><title>Node8&#45;&gt;Node10</title>
<path fill="none" stroke="midnightblue" d="M111.587,-116.753C119.159,-108.598 130.378,-96.5158 139.514,-86.6769"/>
<polygon fill="midnightblue" stroke="midnightblue" points="142.333,-88.7847 146.573,-79.0752 137.204,-84.0216 142.333,-88.7847"/>
</g>
<!-- Node11 -->
<g id="node11" class="node"><title>Node11</title>
<polygon fill="white" stroke="#bfbfbf" points="-0.950684,-59 -0.950684,-79 38.9507,-79 38.9507,-59 -0.950684,-59"/>
<text text-anchor="middle" x="19" y="-65" font-family="Helvetica,sans-Serif" font-size="10.00">cfloat</text>
</g>
<!-- Node8&#45;&gt;Node11 -->
<g id="edge11" class="edge"><title>Node8&#45;&gt;Node11</title>
<path fill="none" stroke="midnightblue" d="M89.1291,-116.753C76.0408,-108.027 56.2076,-94.8051 40.9686,-84.6458"/>
<polygon fill="midnightblue" stroke="midnightblue" points="42.8748,-81.7101 32.6128,-79.0752 38.9918,-87.5344 42.8748,-81.7101"/>
</g>
<!-- Node12 -->
<g id="node12" class="node"><title>Node12</title>
<polygon fill="white" stroke="#bfbfbf" points="56.5962,-59 56.5962,-79 115.404,-79 115.404,-59 56.5962,-59"/>
<text text-anchor="middle" x="86" y="-65" font-family="Helvetica,sans-Serif" font-size="10.00">functional</text>
</g>
<!-- Node8&#45;&gt;Node12 -->
<g id="edge12" class="edge"><title>Node8&#45;&gt;Node12</title>
<path fill="none" stroke="midnightblue" d="M100.193,-116.753C97.8905,-109.169 94.5571,-98.1881 91.6992,-88.7739"/>
<polygon fill="midnightblue" stroke="midnightblue" points="95.0089,-87.6273 88.755,-79.0752 88.3108,-89.6607 95.0089,-87.6273"/>
</g>
<!-- Node13&#45;&gt;Node4 -->
<g id="edge14" class="edge"><title>Node13&#45;&gt;Node4</title>
<path fill="none" stroke="midnightblue" d="M499.397,-232.939C533.591,-211.722 610.157,-157.477 575,-116 546.722,-82.6383 422.011,-73.445 349.934,-70.9302"/>
<polygon fill="midnightblue" stroke="midnightblue" points="349.806,-67.4244 339.7,-70.6055 349.583,-74.4209 349.806,-67.4244"/>
</g>
<!-- Node13&#45;&gt;Node8 -->
<g id="edge15" class="edge"><title>Node13&#45;&gt;Node8</title>
<path fill="none" stroke="midnightblue" d="M469.1,-232.804C444.698,-218.152 394.286,-189.576 348,-174 287.945,-153.79 216.445,-141.651 166.235,-134.961"/>
<polygon fill="midnightblue" stroke="midnightblue" points="166.538,-131.471 156.171,-133.655 165.638,-138.413 166.538,-131.471"/>
</g>
<!-- Node13&#45;&gt;Node14 -->
<g id="edge16" class="edge"><title>Node13&#45;&gt;Node14</title>
<path fill="none" stroke="midnightblue" d="M482.514,-232.753C481.308,-225.25 479.568,-214.424 478.066,-205.078"/>
<polygon fill="midnightblue" stroke="midnightblue" points="481.501,-204.393 476.459,-195.075 474.59,-205.504 481.501,-204.393"/>
</g>
<!-- Node19 -->
<g id="node19" class="node"><title>Node19</title>
<polygon fill="white" stroke="#bfbfbf" points="288.49,-175 288.49,-195 339.51,-195 339.51,-175 288.49,-175"/>
<text text-anchor="middle" x="314" y="-181" font-family="Helvetica,sans-Serif" font-size="10.00">iomanip</text>
</g>
<!-- Node13&#45;&gt;Node19 -->
<g id="edge23" class="edge"><title>Node13&#45;&gt;Node19</title>
<path fill="none" stroke="midnightblue" d="M456.308,-232.878C427.189,-223.286 381.272,-208.16 349.507,-197.697"/>
<polygon fill="midnightblue" stroke="midnightblue" points="350.324,-194.28 339.731,-194.476 348.133,-200.929 350.324,-194.28"/>
</g>
<!-- Node14&#45;&gt;Node9 -->
<g id="edge17" class="edge"><title>Node14&#45;&gt;Node9</title>
<path fill="none" stroke="midnightblue" d="M433.79,-175.742C401.134,-168.323 354.863,-155.837 317,-138 286.695,-123.724 255.318,-100.827 235.979,-85.6014"/>
<polygon fill="midnightblue" stroke="midnightblue" points="237.982,-82.7214 227.988,-79.2044 233.608,-88.1861 237.982,-82.7214"/>
</g>
<!-- Node15 -->
<g id="node15" class="node"><title>Node15</title>
<polygon fill="white" stroke="#bfbfbf" points="464.273,-117 464.273,-137 509.727,-137 509.727,-117 464.273,-117"/>
<text text-anchor="middle" x="487" y="-123" font-family="Helvetica,sans-Serif" font-size="10.00">cstring</text>
</g>
<!-- Node14&#45;&gt;Node15 -->
<g id="edge18" class="edge"><title>Node14&#45;&gt;Node15</title>
<path fill="none" stroke="midnightblue" d="M476.982,-174.753C478.589,-167.25 480.909,-156.424 482.912,-147.078"/>
<polygon fill="midnightblue" stroke="midnightblue" points="486.382,-147.587 485.055,-137.075 479.538,-146.12 486.382,-147.587"/>
</g>
<!-- Node16 -->
<g id="node16" class="node"><title>Node16</title>
<polygon fill="white" stroke="#bfbfbf" points="325.828,-117 325.828,-137 380.172,-137 380.172,-117 325.828,-117"/>
<text text-anchor="middle" x="353" y="-123" font-family="Helvetica,sans-Serif" font-size="10.00">iostream</text>
</g>
<!-- Node14&#45;&gt;Node16 -->
<g id="edge19" class="edge"><title>Node14&#45;&gt;Node16</title>
<path fill="none" stroke="midnightblue" d="M455.127,-174.878C435.276,-165.766 404.549,-151.662 381.981,-141.303"/>
<polygon fill="midnightblue" stroke="midnightblue" points="383.413,-138.109 372.864,-137.118 380.493,-144.471 383.413,-138.109"/>
</g>
<!-- Node17 -->
<g id="node17" class="node"><title>Node17</title>
<polygon fill="white" stroke="#bfbfbf" points="397.884,-117 397.884,-137 446.116,-137 446.116,-117 397.884,-117"/>
<text text-anchor="middle" x="422" y="-123" font-family="Helvetica,sans-Serif" font-size="10.00">cassert</text>
</g>
<!-- Node14&#45;&gt;Node17 -->
<g id="edge20" class="edge"><title>Node14&#45;&gt;Node17</title>
<path fill="none" stroke="midnightblue" d="M466.248,-174.753C458.453,-166.516 446.866,-154.274 437.505,-144.382"/>
<polygon fill="midnightblue" stroke="midnightblue" points="440.005,-141.932 430.589,-137.075 434.921,-146.744 440.005,-141.932"/>
</g>
<!-- Node14&#45;&gt;Node18 -->
<g id="edge21" class="edge"><title>Node14&#45;&gt;Node18</title>
<path fill="none" stroke="midnightblue" d="M486.889,-174.753C497.898,-166.19 514.474,-153.298 527.433,-143.219"/>
<polygon fill="midnightblue" stroke="midnightblue" points="529.587,-145.977 535.332,-137.075 525.29,-140.452 529.587,-145.977"/>
</g>
<!-- Node14&#45;&gt;Node8 -->
<g id="edge22" class="edge"><title>Node14&#45;&gt;Node8</title>
<path fill="none" stroke="midnightblue" d="M433.882,-176.358C429.204,-175.538 424.502,-174.736 420,-174 332.088,-159.634 230.082,-145.237 166.038,-136.471"/>
<polygon fill="midnightblue" stroke="midnightblue" points="166.475,-132.999 156.093,-135.114 165.528,-139.934 166.475,-132.999"/>
</g>
<!-- Node20&#45;&gt;Node4 -->
<g id="edge25" class="edge"><title>Node20&#45;&gt;Node4</title>
<path fill="none" stroke="midnightblue" d="M147.549,-232.753C173.107,-205.104 249.214,-122.775 282.323,-86.9584"/>
<polygon fill="midnightblue" stroke="midnightblue" points="285.191,-89.0122 289.409,-79.2932 280.051,-84.2605 285.191,-89.0122"/>
</g>
<!-- Node20&#45;&gt;Node8 -->
<g id="edge26" class="edge"><title>Node20&#45;&gt;Node8</title>
<path fill="none" stroke="midnightblue" d="M136.054,-232.671C130.144,-213.957 116.742,-171.517 108.94,-146.809"/>
<polygon fill="midnightblue" stroke="midnightblue" points="112.235,-145.621 105.886,-137.139 105.56,-147.729 112.235,-145.621"/>
</g>
<!-- Node20&#45;&gt;Node14 -->
<g id="edge27" class="edge"><title>Node20&#45;&gt;Node14</title>
<path fill="none" stroke="midnightblue" d="M193.358,-232.94C256.959,-222.34 361.47,-204.922 423.717,-194.547"/>
<polygon fill="midnightblue" stroke="midnightblue" points="424.417,-197.979 433.705,-192.882 423.266,-191.074 424.417,-197.979"/>
</g>
<!-- Node20&#45;&gt;Node19 -->
<g id="edge28" class="edge"><title>Node20&#45;&gt;Node19</title>
<path fill="none" stroke="midnightblue" d="M167.506,-232.878C197.875,-223.16 245.992,-207.763 278.727,-197.287"/>
<polygon fill="midnightblue" stroke="midnightblue" points="279.898,-200.587 288.356,-194.206 277.765,-193.92 279.898,-200.587"/>
</g>
<!-- Node21&#45;&gt;Node4 -->
<g id="edge30" class="edge"><title>Node21&#45;&gt;Node4</title>
<path fill="none" stroke="midnightblue" d="M261.412,-232.757C264.685,-211.822 273.334,-159.241 284,-116 286.224,-106.983 289.159,-97.1162 291.767,-88.8407"/>
<polygon fill="midnightblue" stroke="midnightblue" points="295.175,-89.6756 294.92,-79.0839 288.514,-87.5232 295.175,-89.6756"/>
</g>
<!-- Node21&#45;&gt;Node8 -->
<g id="edge31" class="edge"><title>Node21&#45;&gt;Node8</title>
<path fill="none" stroke="midnightblue" d="M247.417,-232.864C220.547,-213.352 157.311,-167.436 124.144,-143.353"/>
<polygon fill="midnightblue" stroke="midnightblue" points="125.791,-140.223 115.642,-137.18 121.678,-145.888 125.791,-140.223"/>
</g>
<!-- Node21&#45;&gt;Node14 -->
<g id="edge32" class="edge"><title>Node21&#45;&gt;Node14</title>
<path fill="none" stroke="midnightblue" d="M295.022,-232.878C331.989,-223.249 390.359,-208.046 430.548,-197.578"/>
<polygon fill="midnightblue" stroke="midnightblue" points="431.554,-200.933 440.349,-195.025 429.79,-194.159 431.554,-200.933"/>
</g>
<!-- Node21&#45;&gt;Node19 -->
<g id="edge33" class="edge"><title>Node21&#45;&gt;Node19</title>
<path fill="none" stroke="midnightblue" d="M268.917,-232.753C276.859,-224.516 288.665,-212.274 298.203,-202.382"/>
<polygon fill="midnightblue" stroke="midnightblue" points="300.827,-204.703 305.249,-195.075 295.788,-199.844 300.827,-204.703"/>
</g>
<!-- Node22&#45;&gt;Node4 -->
<g id="edge35" class="edge"><title>Node22&#45;&gt;Node4</title>
<path fill="none" stroke="midnightblue" d="M371.856,-290.954C371.19,-269.541 367.548,-214.512 348,-174 338.824,-154.983 326.968,-156.613 317,-138 308.781,-122.653 303.833,-103.404 301.057,-89.3065"/>
<polygon fill="midnightblue" stroke="midnightblue" points="304.471,-88.5118 299.275,-79.2783 297.579,-89.7365 304.471,-88.5118"/>
</g>
<!-- Node22&#45;&gt;Node8 -->
<g id="edge36" class="edge"><title>Node22&#45;&gt;Node8</title>
<path fill="none" stroke="midnightblue" d="M325.364,-299.869C249.798,-298.555 105.818,-291.107 74,-254 47.3361,-222.904 73.4215,-172.117 90.6023,-145.512"/>
<polygon fill="midnightblue" stroke="midnightblue" points="93.5285,-147.432 96.2069,-137.181 87.7207,-143.525 93.5285,-147.432"/>
</g>
<!-- Node22&#45;&gt;Node14 -->
<g id="edge37" class="edge"><title>Node22&#45;&gt;Node14</title>
<path fill="none" stroke="midnightblue" d="M379.137,-290.986C389.701,-277.759 410.272,-252.448 429,-232 438.228,-221.925 449.006,-211.1 457.809,-202.484"/>
<polygon fill="midnightblue" stroke="midnightblue" points="460.497,-204.752 465.237,-195.277 455.622,-199.728 460.497,-204.752"/>
</g>
<!-- Node22&#45;&gt;Node13 -->
<g id="edge38" class="edge"><title>Node22&#45;&gt;Node13</title>
<path fill="none" stroke="midnightblue" d="M390.495,-290.753C408.516,-281.742 436.129,-267.935 456.682,-257.659"/>
<polygon fill="midnightblue" stroke="midnightblue" points="458.471,-260.678 465.85,-253.075 455.34,-254.417 458.471,-260.678"/>
</g>
<!-- Node22&#45;&gt;Node21 -->
<g id="edge39" class="edge"><title>Node22&#45;&gt;Node21</title>
<path fill="none" stroke="midnightblue" d="M353.505,-290.753C335.484,-281.742 307.871,-267.935 287.318,-257.659"/>
<polygon fill="midnightblue" stroke="midnightblue" points="288.66,-254.417 278.15,-253.075 285.529,-260.678 288.66,-254.417"/>
</g>
<!-- Node22&#45;&gt;Node20 -->
<g id="edge40" class="edge"><title>Node22&#45;&gt;Node20</title>
<path fill="none" stroke="midnightblue" d="M334.306,-290.94C294.038,-281.262 230.123,-265.901 186.455,-255.406"/>
<polygon fill="midnightblue" stroke="midnightblue" points="187.181,-251.98 176.64,-253.047 185.545,-258.787 187.181,-251.98"/>
</g>
<!-- Node22&#45;&gt;Node19 -->
<g id="edge41" class="edge"><title>Node22&#45;&gt;Node19</title>
<path fill="none" stroke="midnightblue" d="M367.254,-290.671C357.647,-271.789 335.752,-228.754 323.234,-204.149"/>
<polygon fill="midnightblue" stroke="midnightblue" points="326.304,-202.465 318.65,-195.139 320.065,-205.639 326.304,-202.465"/>
</g>
<!-- Node23&#45;&gt;Node13 -->
<g id="edge43" class="edge"><title>Node23&#45;&gt;Node13</title>
<path fill="none" stroke="midnightblue" d="M371.117,-348.854C386.801,-340.46 409.633,-327.069 427,-312 444.536,-296.784 461.181,-275.914 471.906,-261.323"/>
<polygon fill="midnightblue" stroke="midnightblue" points="474.781,-263.319 477.773,-253.155 469.096,-259.234 474.781,-263.319"/>
</g>
<!-- Node23&#45;&gt;Node21 -->
<g id="edge44" class="edge"><title>Node23&#45;&gt;Node21</title>
<path fill="none" stroke="midnightblue" d="M345.389,-348.671C329.78,-329.537 293.939,-285.602 274.011,-261.175"/>
<polygon fill="midnightblue" stroke="midnightblue" points="276.489,-258.676 267.456,-253.139 271.065,-263.101 276.489,-258.676"/>
</g>
<!-- Node23&#45;&gt;Node22 -->
<g id="edge45" class="edge"><title>Node23&#45;&gt;Node22</title>
<path fill="none" stroke="midnightblue" d="M356.137,-348.753C358.711,-341.169 362.436,-330.188 365.63,-320.774"/>
<polygon fill="midnightblue" stroke="midnightblue" points="369.022,-321.67 368.921,-311.075 362.393,-319.42 369.022,-321.67"/>
</g>
<!-- Node24&#45;&gt;Node14 -->
<g id="edge47" class="edge"><title>Node24&#45;&gt;Node14</title>
<path fill="none" stroke="midnightblue" d="M593.653,-348.883C587.628,-326.842 569.882,-269.707 539,-232 528.605,-219.307 513.908,-208.414 501.22,-200.418"/>
<polygon fill="midnightblue" stroke="midnightblue" points="502.798,-197.283 492.425,-195.124 499.187,-203.28 502.798,-197.283"/>
</g>
</g>
</svg>
