<?xml version="1.0" encoding="UTF-8" standalone="no"?>
<!DOCTYPE svg PUBLIC "-//W3C//DTD SVG 1.1//EN"
 "http://www.w3.org/Graphics/SVG/1.1/DTD/svg11.dtd">
<!-- Generated by graphviz version 2.30.1 (20140712.1814)
 -->
<!-- Title: src/cinder/BSpline.cpp Pages: 1 -->
<svg width="403pt" height="320pt"
 viewBox="0.00 0.00 402.54 320.00" xmlns="http://www.w3.org/2000/svg" xmlns:xlink="http://www.w3.org/1999/xlink">
<g id="graph0" class="graph" transform="scale(1 1) rotate(0) translate(4 316)">
<title>src/cinder/BSpline.cpp</title>
<polygon fill="white" stroke="white" points="-4,5 -4,-316 399.536,-316 399.536,5 -4,5"/>
<!-- Node1 -->
<g id="node1" class="node"><title>Node1</title>
<polygon fill="#bfbfbf" stroke="black" points="204.79,-291 204.79,-311 320.282,-311 320.282,-291 204.79,-291"/>
<text text-anchor="middle" x="262.536" y="-297" font-family="Helvetica,sans-Serif" font-size="10.00">src/cinder/BSpline.cpp</text>
</g>
<!-- Node2 -->
<g id="node2" class="node"><title>Node2</title>
<g id="a_node2"><a xlink:href="_b_spline_8h.html" target="_top" xlink:title="cinder/BSpline.h">
<polygon fill="white" stroke="black" points="52.1251,-233 52.1251,-253 140.947,-253 140.947,-233 52.1251,-233"/>
<text text-anchor="middle" x="96.5362" y="-239" font-family="Helvetica,sans-Serif" font-size="10.00">cinder/BSpline.h</text>
</a>
</g>
</g>
<!-- Node1&#45;&gt;Node2 -->
<g id="edge1" class="edge"><title>Node1&#45;&gt;Node2</title>
<path fill="none" stroke="midnightblue" d="M235.496,-290.878C207.559,-281.453 163.789,-266.688 132.848,-256.25"/>
<polygon fill="midnightblue" stroke="midnightblue" points="133.884,-252.906 123.29,-253.025 131.646,-259.538 133.884,-252.906"/>
</g>
<!-- Node18 -->
<g id="node18" class="node"><title>Node18</title>
<polygon fill="white" stroke="#bfbfbf" points="158.678,-233 158.678,-253 218.394,-253 218.394,-233 158.678,-233"/>
<text text-anchor="middle" x="188.536" y="-239" font-family="Helvetica,sans-Serif" font-size="10.00">memory.h</text>
</g>
<!-- Node1&#45;&gt;Node18 -->
<g id="edge18" class="edge"><title>Node1&#45;&gt;Node18</title>
<path fill="none" stroke="midnightblue" d="M250.317,-290.753C239.002,-282.19 221.965,-269.298 208.646,-259.219"/>
<polygon fill="midnightblue" stroke="midnightblue" points="210.615,-256.319 200.528,-253.075 206.39,-261.901 210.615,-256.319"/>
</g>
<!-- Node19 -->
<g id="node19" class="node"><title>Node19</title>
<polygon fill="white" stroke="#bfbfbf" points="236.751,-233 236.751,-253 288.322,-253 288.322,-233 236.751,-233"/>
<text text-anchor="middle" x="262.536" y="-239" font-family="Helvetica,sans-Serif" font-size="10.00">assert.h</text>
</g>
<!-- Node1&#45;&gt;Node19 -->
<g id="edge19" class="edge"><title>Node1&#45;&gt;Node19</title>
<path fill="none" stroke="midnightblue" d="M262.536,-290.753C262.536,-283.25 262.536,-272.424 262.536,-263.078"/>
<polygon fill="midnightblue" stroke="midnightblue" points="266.036,-263.075 262.536,-253.075 259.036,-263.075 266.036,-263.075"/>
</g>
<!-- Node9 -->
<g id="node9" class="node"><title>Node9</title>
<polygon fill="white" stroke="#bfbfbf" points="339.149,-117 339.149,-137 377.923,-137 377.923,-117 339.149,-117"/>
<text text-anchor="middle" x="358.536" y="-123" font-family="Helvetica,sans-Serif" font-size="10.00">limits</text>
</g>
<!-- Node1&#45;&gt;Node9 -->
<g id="edge20" class="edge"><title>Node1&#45;&gt;Node9</title>
<path fill="none" stroke="midnightblue" d="M275.659,-290.776C286.822,-282.333 302.583,-268.912 312.536,-254 335.284,-219.918 348.493,-173.16 354.529,-147.254"/>
<polygon fill="midnightblue" stroke="midnightblue" points="358.004,-147.751 356.745,-137.231 351.169,-146.24 358.004,-147.751"/>
</g>
<!-- Node4 -->
<g id="node4" class="node"><title>Node4</title>
<g id="a_node4"><a xlink:href="_vector_8h.html" target="_top" xlink:title="cinder/Vector.h">
<polygon fill="white" stroke="black" points="132.455,-175 132.455,-195 214.617,-195 214.617,-175 132.455,-175"/>
<text text-anchor="middle" x="173.536" y="-181" font-family="Helvetica,sans-Serif" font-size="10.00">cinder/Vector.h</text>
</a>
</g>
</g>
<!-- Node1&#45;&gt;Node4 -->
<g id="edge21" class="edge"><title>Node1&#45;&gt;Node4</title>
<path fill="none" stroke="midnightblue" d="M273.327,-290.741C287.767,-277.209 310.077,-251.521 296.536,-232 280.419,-208.764 251.045,-197.246 225.044,-191.545"/>
<polygon fill="midnightblue" stroke="midnightblue" points="225.392,-188.047 214.907,-189.569 224.052,-194.918 225.392,-188.047"/>
</g>
<!-- Node3 -->
<g id="node3" class="node"><title>Node3</title>
<polygon fill="white" stroke="#bfbfbf" points="70.9205,-175 70.9205,-195 114.152,-195 114.152,-175 70.9205,-175"/>
<text text-anchor="middle" x="92.5362" y="-181" font-family="Helvetica,sans-Serif" font-size="10.00">vector</text>
</g>
<!-- Node2&#45;&gt;Node3 -->
<g id="edge2" class="edge"><title>Node2&#45;&gt;Node3</title>
<path fill="none" stroke="midnightblue" d="M95.8757,-232.753C95.3398,-225.25 94.5665,-214.424 93.8989,-205.078"/>
<polygon fill="midnightblue" stroke="midnightblue" points="97.3881,-204.8 93.1844,-195.075 90.4059,-205.299 97.3881,-204.8"/>
</g>
<!-- Node2&#45;&gt;Node4 -->
<g id="edge3" class="edge"><title>Node2&#45;&gt;Node4</title>
<path fill="none" stroke="midnightblue" d="M109.251,-232.753C121.025,-224.19 138.752,-211.298 152.611,-201.219"/>
<polygon fill="midnightblue" stroke="midnightblue" points="155.029,-203.788 161.058,-195.075 150.912,-198.126 155.029,-203.788"/>
</g>
<!-- Node5 -->
<g id="node5" class="node"><title>Node5</title>
<polygon fill="white" stroke="#bfbfbf" points="23.9205,-59 23.9205,-79 67.1519,-79 67.1519,-59 23.9205,-59"/>
<text text-anchor="middle" x="45.5362" y="-65" font-family="Helvetica,sans-Serif" font-size="10.00">cmath</text>
</g>
<!-- Node4&#45;&gt;Node5 -->
<g id="edge4" class="edge"><title>Node4&#45;&gt;Node5</title>
<path fill="none" stroke="midnightblue" d="M132.208,-175.48C84.7576,-165.284 12.4062,-148.298 4.53618,-138 -8.29408,-121.211 8.93883,-100.148 24.8337,-85.9489"/>
<polygon fill="midnightblue" stroke="midnightblue" points="27.4521,-88.3204 32.8574,-79.2081 22.9494,-82.9607 27.4521,-88.3204"/>
</g>
<!-- Node6 -->
<g id="node6" class="node"><title>Node6</title>
<polygon fill="white" stroke="#bfbfbf" points="13.8096,-117 13.8096,-137 59.2627,-137 59.2627,-117 13.8096,-117"/>
<text text-anchor="middle" x="36.5362" y="-123" font-family="Helvetica,sans-Serif" font-size="10.00">cstring</text>
</g>
<!-- Node4&#45;&gt;Node6 -->
<g id="edge5" class="edge"><title>Node4&#45;&gt;Node6</title>
<path fill="none" stroke="midnightblue" d="M151.22,-174.878C128.729,-165.685 93.8058,-151.409 68.404,-141.026"/>
<polygon fill="midnightblue" stroke="midnightblue" points="69.4238,-137.662 58.843,-137.118 66.7752,-144.142 69.4238,-137.662"/>
</g>
<!-- Node7 -->
<g id="node7" class="node"><title>Node7</title>
<polygon fill="white" stroke="#bfbfbf" points="77.3638,-117 77.3638,-137 131.709,-137 131.709,-117 77.3638,-117"/>
<text text-anchor="middle" x="104.536" y="-123" font-family="Helvetica,sans-Serif" font-size="10.00">iostream</text>
</g>
<!-- Node4&#45;&gt;Node7 -->
<g id="edge6" class="edge"><title>Node4&#45;&gt;Node7</title>
<path fill="none" stroke="midnightblue" d="M162.142,-174.753C151.693,-166.272 136.009,-153.543 123.643,-143.507"/>
<polygon fill="midnightblue" stroke="midnightblue" points="125.688,-140.659 115.718,-137.075 121.277,-146.095 125.688,-140.659"/>
</g>
<!-- Node8 -->
<g id="node8" class="node"><title>Node8</title>
<polygon fill="white" stroke="#bfbfbf" points="149.42,-117 149.42,-137 197.652,-137 197.652,-117 149.42,-117"/>
<text text-anchor="middle" x="173.536" y="-123" font-family="Helvetica,sans-Serif" font-size="10.00">cassert</text>
</g>
<!-- Node4&#45;&gt;Node8 -->
<g id="edge7" class="edge"><title>Node4&#45;&gt;Node8</title>
<path fill="none" stroke="midnightblue" d="M173.536,-174.753C173.536,-167.25 173.536,-156.424 173.536,-147.078"/>
<polygon fill="midnightblue" stroke="midnightblue" points="177.036,-147.075 173.536,-137.075 170.036,-147.075 177.036,-147.075"/>
</g>
<!-- Node4&#45;&gt;Node9 -->
<g id="edge8" class="edge"><title>Node4&#45;&gt;Node9</title>
<path fill="none" stroke="midnightblue" d="M206.482,-174.947C236.376,-166.601 281.856,-153.575 329.459,-138.237"/>
<polygon fill="midnightblue" stroke="midnightblue" points="330.573,-141.555 339.004,-135.139 328.412,-134.897 330.573,-141.555"/>
</g>
<!-- Node10 -->
<g id="node10" class="node"><title>Node10</title>
<g id="a_node10"><a xlink:href="_cinder_math_8h.html" target="_top" xlink:title="cinder/CinderMath.h">
<polygon fill="white" stroke="black" points="215.514,-117 215.514,-137 321.558,-137 321.558,-117 215.514,-117"/>
<text text-anchor="middle" x="268.536" y="-123" font-family="Helvetica,sans-Serif" font-size="10.00">cinder/CinderMath.h</text>
</a>
</g>
</g>
<!-- Node4&#45;&gt;Node10 -->
<g id="edge9" class="edge"><title>Node4&#45;&gt;Node10</title>
<path fill="none" stroke="midnightblue" d="M189.224,-174.753C204.164,-165.946 226.876,-152.558 244.173,-142.362"/>
<polygon fill="midnightblue" stroke="midnightblue" points="246.303,-145.169 253.141,-137.075 242.749,-139.138 246.303,-145.169"/>
</g>
<!-- Node11 -->
<g id="node11" class="node"><title>Node11</title>
<g id="a_node11"><a xlink:href="_cinder_8h.html" target="_top" xlink:title="cinder/Cinder.h">
<polygon fill="white" stroke="black" points="114.903,-59 114.903,-79 198.169,-79 198.169,-59 114.903,-59"/>
<text text-anchor="middle" x="156.536" y="-65" font-family="Helvetica,sans-Serif" font-size="10.00">cinder/Cinder.h</text>
</a>
</g>
</g>
<!-- Node10&#45;&gt;Node11 -->
<g id="edge10" class="edge"><title>Node10&#45;&gt;Node11</title>
<path fill="none" stroke="midnightblue" d="M250.042,-116.753C232.02,-107.742 204.407,-93.9353 183.854,-83.6589"/>
<polygon fill="midnightblue" stroke="midnightblue" points="185.196,-80.4169 174.687,-79.0752 182.066,-86.6779 185.196,-80.4169"/>
</g>
<!-- Node10&#45;&gt;Node5 -->
<g id="edge14" class="edge"><title>Node10&#45;&gt;Node5</title>
<path fill="none" stroke="midnightblue" d="M232.211,-116.878C189.09,-106.049 117.891,-88.1699 77.0157,-77.9052"/>
<polygon fill="midnightblue" stroke="midnightblue" points="77.8638,-74.5095 67.3125,-75.4685 76.1588,-81.2987 77.8638,-74.5095"/>
</g>
<!-- Node15 -->
<g id="node15" class="node"><title>Node15</title>
<polygon fill="white" stroke="#bfbfbf" points="216.649,-59 216.649,-79 260.423,-79 260.423,-59 216.649,-59"/>
<text text-anchor="middle" x="238.536" y="-65" font-family="Helvetica,sans-Serif" font-size="10.00">climits</text>
</g>
<!-- Node10&#45;&gt;Node15 -->
<g id="edge15" class="edge"><title>Node10&#45;&gt;Node15</title>
<path fill="none" stroke="midnightblue" d="M263.582,-116.753C259.432,-109.006 253.383,-97.7142 248.269,-88.1688"/>
<polygon fill="midnightblue" stroke="midnightblue" points="251.205,-86.2372 243.398,-79.0752 245.035,-89.5428 251.205,-86.2372"/>
</g>
<!-- Node16 -->
<g id="node16" class="node"><title>Node16</title>
<polygon fill="white" stroke="#bfbfbf" points="278.586,-59 278.586,-79 318.487,-79 318.487,-59 278.586,-59"/>
<text text-anchor="middle" x="298.536" y="-65" font-family="Helvetica,sans-Serif" font-size="10.00">cfloat</text>
</g>
<!-- Node10&#45;&gt;Node16 -->
<g id="edge16" class="edge"><title>Node10&#45;&gt;Node16</title>
<path fill="none" stroke="midnightblue" d="M273.49,-116.753C277.64,-109.006 283.689,-97.7142 288.803,-88.1688"/>
<polygon fill="midnightblue" stroke="midnightblue" points="292.037,-89.5428 293.674,-79.0752 285.867,-86.2372 292.037,-89.5428"/>
</g>
<!-- Node17 -->
<g id="node17" class="node"><title>Node17</title>
<polygon fill="white" stroke="#bfbfbf" points="336.132,-59 336.132,-79 394.94,-79 394.94,-59 336.132,-59"/>
<text text-anchor="middle" x="365.536" y="-65" font-family="Helvetica,sans-Serif" font-size="10.00">functional</text>
</g>
<!-- Node10&#45;&gt;Node17 -->
<g id="edge17" class="edge"><title>Node10&#45;&gt;Node17</title>
<path fill="none" stroke="midnightblue" d="M284.554,-116.753C299.95,-107.864 323.429,-94.3092 341.149,-84.0793"/>
<polygon fill="midnightblue" stroke="midnightblue" points="342.906,-87.1062 349.817,-79.0752 339.406,-81.0439 342.906,-87.1062"/>
</g>
<!-- Node12 -->
<g id="node12" class="node"><title>Node12</title>
<polygon fill="white" stroke="#bfbfbf" points="46.0855,-1 46.0855,-21 90.9869,-21 90.9869,-1 46.0855,-1"/>
<text text-anchor="middle" x="68.5362" y="-7" font-family="Helvetica,sans-Serif" font-size="10.00">cstdint</text>
</g>
<!-- Node11&#45;&gt;Node12 -->
<g id="edge11" class="edge"><title>Node11&#45;&gt;Node12</title>
<path fill="none" stroke="midnightblue" d="M142.005,-58.7527C128.293,-50.0272 107.516,-36.8051 91.551,-26.6458"/>
<polygon fill="midnightblue" stroke="midnightblue" points="93.1129,-23.4912 82.7972,-21.0752 89.3547,-29.3968 93.1129,-23.4912"/>
</g>
<!-- Node13 -->
<g id="node13" class="node"><title>Node13</title>
<polygon fill="white" stroke="#bfbfbf" points="109.066,-1 109.066,-21 204.006,-21 204.006,-1 109.066,-1"/>
<text text-anchor="middle" x="156.536" y="-7" font-family="Helvetica,sans-Serif" font-size="10.00">boost/version.hpp</text>
</g>
<!-- Node11&#45;&gt;Node13 -->
<g id="edge12" class="edge"><title>Node11&#45;&gt;Node13</title>
<path fill="none" stroke="midnightblue" d="M156.536,-58.7527C156.536,-51.2504 156.536,-40.4238 156.536,-31.0781"/>
<polygon fill="midnightblue" stroke="midnightblue" points="160.036,-31.0752 156.536,-21.0752 153.036,-31.0752 160.036,-31.0752"/>
</g>
<!-- Node14 -->
<g id="node14" class="node"><title>Node14</title>
<polygon fill="white" stroke="#bfbfbf" points="222.157,-1 222.157,-21 354.915,-21 354.915,-1 222.157,-1"/>
<text text-anchor="middle" x="288.536" y="-7" font-family="Helvetica,sans-Serif" font-size="10.00">boost/checked_delete.hpp</text>
</g>
<!-- Node11&#45;&gt;Node14 -->
<g id="edge13" class="edge"><title>Node11&#45;&gt;Node14</title>
<path fill="none" stroke="midnightblue" d="M178.038,-58.878C199.708,-49.6848 233.357,-35.4095 257.831,-25.0263"/>
<polygon fill="midnightblue" stroke="midnightblue" points="259.205,-28.2457 267.044,-21.1181 256.471,-21.8016 259.205,-28.2457"/>
</g>
</g>
</svg>
