<?xml version="1.0" encoding="UTF-8" standalone="no"?>
<!DOCTYPE svg PUBLIC "-//W3C//DTD SVG 1.1//EN"
 "http://www.w3.org/Graphics/SVG/1.1/DTD/svg11.dtd">
<!-- Generated by graphviz version 2.30.1 (20140712.1814)
 -->
<!-- Title: src/cinder/BSplineFit.cpp Pages: 1 -->
<svg width="705pt" height="378pt"
 viewBox="0.00 0.00 705.00 378.00" xmlns="http://www.w3.org/2000/svg" xmlns:xlink="http://www.w3.org/1999/xlink">
<g id="graph0" class="graph" transform="scale(1 1) rotate(0) translate(4 374)">
<title>src/cinder/BSplineFit.cpp</title>
<polygon fill="white" stroke="white" points="-4,5 -4,-374 702,-374 702,5 -4,5"/>
<!-- Node1 -->
<g id="node1" class="node"><title>Node1</title>
<polygon fill="#bfbfbf" stroke="black" points="243.7,-349 243.7,-369 370.3,-369 370.3,-349 243.7,-349"/>
<text text-anchor="middle" x="307" y="-355" font-family="Helvetica,sans-Serif" font-size="10.00">src/cinder/BSplineFit.cpp</text>
</g>
<!-- Node2 -->
<g id="node2" class="node"><title>Node2</title>
<g id="a_node2"><a xlink:href="_b_spline_fit_8h.html" target="_top" xlink:title="cinder/BSplineFit.h">
<polygon fill="white" stroke="black" points="101.035,-291 101.035,-311 200.965,-311 200.965,-291 101.035,-291"/>
<text text-anchor="middle" x="151" y="-297" font-family="Helvetica,sans-Serif" font-size="10.00">cinder/BSplineFit.h</text>
</a>
</g>
</g>
<!-- Node1&#45;&gt;Node2 -->
<g id="edge1" class="edge"><title>Node1&#45;&gt;Node2</title>
<path fill="none" stroke="midnightblue" d="M281.589,-348.878C255.562,-339.535 214.913,-324.943 185.883,-314.522"/>
<polygon fill="midnightblue" stroke="midnightblue" points="186.736,-311.11 176.142,-311.025 184.371,-317.698 186.736,-311.11"/>
</g>
<!-- Node12 -->
<g id="node12" class="node"><title>Node12</title>
<g id="a_node12"><a xlink:href="_cinder_math_8h.html" target="_top" xlink:title="cinder/CinderMath.h">
<polygon fill="white" stroke="black" points="323.978,-117 323.978,-137 430.022,-137 430.022,-117 323.978,-117"/>
<text text-anchor="middle" x="377" y="-123" font-family="Helvetica,sans-Serif" font-size="10.00">cinder/CinderMath.h</text>
</a>
</g>
</g>
<!-- Node1&#45;&gt;Node12 -->
<g id="edge21" class="edge"><title>Node1&#45;&gt;Node12</title>
<path fill="none" stroke="midnightblue" d="M309.744,-348.984C320.087,-314.998 356.857,-194.186 371.205,-147.04"/>
<polygon fill="midnightblue" stroke="midnightblue" points="374.635,-147.79 374.199,-137.204 367.939,-145.752 374.635,-147.79"/>
</g>
<!-- Node6 -->
<g id="node6" class="node"><title>Node6</title>
<g id="a_node6"><a xlink:href="_vector_8h.html" target="_top" xlink:title="cinder/Vector.h">
<polygon fill="white" stroke="black" points="183.919,-175 183.919,-195 266.081,-195 266.081,-175 183.919,-175"/>
<text text-anchor="middle" x="225" y="-181" font-family="Helvetica,sans-Serif" font-size="10.00">cinder/Vector.h</text>
</a>
</g>
</g>
<!-- Node1&#45;&gt;Node6 -->
<g id="edge22" class="edge"><title>Node1&#45;&gt;Node6</title>
<path fill="none" stroke="midnightblue" d="M305.745,-348.868C302.47,-327.269 292.254,-271.867 269,-232 262.435,-220.745 252.584,-210.099 243.866,-201.89"/>
<polygon fill="midnightblue" stroke="midnightblue" points="246.08,-199.174 236.305,-195.087 241.398,-204.378 246.08,-199.174"/>
</g>
<!-- Node5 -->
<g id="node5" class="node"><title>Node5</title>
<g id="a_node5"><a xlink:href="_b_spline_8h.html" target="_top" xlink:title="cinder/BSpline.h">
<polygon fill="white" stroke="black" points="171.589,-233 171.589,-253 260.411,-253 260.411,-233 171.589,-233"/>
<text text-anchor="middle" x="216" y="-239" font-family="Helvetica,sans-Serif" font-size="10.00">cinder/BSpline.h</text>
</a>
</g>
</g>
<!-- Node1&#45;&gt;Node5 -->
<g id="edge23" class="edge"><title>Node1&#45;&gt;Node5</title>
<path fill="none" stroke="midnightblue" d="M299.553,-348.671C284.28,-329.537 249.209,-285.602 229.709,-261.175"/>
<polygon fill="midnightblue" stroke="midnightblue" points="232.269,-258.771 223.295,-253.139 226.799,-263.138 232.269,-258.771"/>
</g>
<!-- Node20 -->
<g id="node20" class="node"><title>Node20</title>
<polygon fill="white" stroke="#bfbfbf" points="353.604,-291 353.604,-311 402.396,-311 402.396,-291 353.604,-291"/>
<text text-anchor="middle" x="378" y="-297" font-family="Helvetica,sans-Serif" font-size="10.00">string.h</text>
</g>
<!-- Node1&#45;&gt;Node20 -->
<g id="edge24" class="edge"><title>Node1&#45;&gt;Node20</title>
<path fill="none" stroke="midnightblue" d="M318.724,-348.753C329.477,-340.272 345.615,-327.543 358.339,-317.507"/>
<polygon fill="midnightblue" stroke="midnightblue" points="360.81,-320.016 366.494,-311.075 356.475,-314.52 360.81,-320.016"/>
</g>
<!-- Node21 -->
<g id="node21" class="node"><title>Node21</title>
<polygon fill="white" stroke="#bfbfbf" points="420.214,-291 420.214,-311 471.786,-311 471.786,-291 420.214,-291"/>
<text text-anchor="middle" x="446" y="-297" font-family="Helvetica,sans-Serif" font-size="10.00">assert.h</text>
</g>
<!-- Node1&#45;&gt;Node21 -->
<g id="edge25" class="edge"><title>Node1&#45;&gt;Node21</title>
<path fill="none" stroke="midnightblue" d="M329.642,-348.878C352.562,-339.644 388.208,-325.283 414.008,-314.889"/>
<polygon fill="midnightblue" stroke="midnightblue" points="415.4,-318.102 423.368,-311.118 412.784,-311.609 415.4,-318.102"/>
</g>
<!-- Node3 -->
<g id="node3" class="node"><title>Node3</title>
<polygon fill="white" stroke="#bfbfbf" points="122.384,-175 122.384,-195 165.616,-195 165.616,-175 122.384,-175"/>
<text text-anchor="middle" x="144" y="-181" font-family="Helvetica,sans-Serif" font-size="10.00">vector</text>
</g>
<!-- Node2&#45;&gt;Node3 -->
<g id="edge2" class="edge"><title>Node2&#45;&gt;Node3</title>
<path fill="none" stroke="midnightblue" d="M150.427,-290.671C149.283,-272.041 146.695,-229.898 145.175,-205.143"/>
<polygon fill="midnightblue" stroke="midnightblue" points="148.668,-204.906 144.561,-195.139 141.681,-205.335 148.668,-204.906"/>
</g>
<!-- Node4 -->
<g id="node4" class="node"><title>Node4</title>
<g id="a_node4"><a xlink:href="_banded_matrix_8h.html" target="_top" xlink:title="cinder/BandedMatrix.h">
<polygon fill="white" stroke="black" points="-0.0268555,-233 -0.0268555,-253 116.027,-253 116.027,-233 -0.0268555,-233"/>
<text text-anchor="middle" x="58" y="-239" font-family="Helvetica,sans-Serif" font-size="10.00">cinder/BandedMatrix.h</text>
</a>
</g>
</g>
<!-- Node2&#45;&gt;Node4 -->
<g id="edge3" class="edge"><title>Node2&#45;&gt;Node4</title>
<path fill="none" stroke="midnightblue" d="M135.643,-290.753C121.017,-281.946 98.783,-268.558 81.8507,-258.362"/>
<polygon fill="midnightblue" stroke="midnightblue" points="83.4436,-255.235 73.0713,-253.075 79.8326,-261.232 83.4436,-255.235"/>
</g>
<!-- Node2&#45;&gt;Node5 -->
<g id="edge4" class="edge"><title>Node2&#45;&gt;Node5</title>
<path fill="none" stroke="midnightblue" d="M161.733,-290.753C171.483,-282.353 186.068,-269.787 197.664,-259.798"/>
<polygon fill="midnightblue" stroke="midnightblue" points="200.175,-262.254 205.466,-253.075 195.606,-256.951 200.175,-262.254"/>
</g>
<!-- Node5&#45;&gt;Node3 -->
<g id="edge5" class="edge"><title>Node5&#45;&gt;Node3</title>
<path fill="none" stroke="midnightblue" d="M204.111,-232.753C193.102,-224.19 176.526,-211.298 163.567,-201.219"/>
<polygon fill="midnightblue" stroke="midnightblue" points="165.71,-198.452 155.668,-195.075 161.413,-203.977 165.71,-198.452"/>
</g>
<!-- Node5&#45;&gt;Node6 -->
<g id="edge6" class="edge"><title>Node5&#45;&gt;Node6</title>
<path fill="none" stroke="midnightblue" d="M217.486,-232.753C218.692,-225.25 220.432,-214.424 221.934,-205.078"/>
<polygon fill="midnightblue" stroke="midnightblue" points="225.41,-205.504 223.541,-195.075 218.499,-204.393 225.41,-205.504"/>
</g>
<!-- Node7 -->
<g id="node7" class="node"><title>Node7</title>
<polygon fill="white" stroke="#bfbfbf" points="124.384,-59 124.384,-79 167.616,-79 167.616,-59 124.384,-59"/>
<text text-anchor="middle" x="146" y="-65" font-family="Helvetica,sans-Serif" font-size="10.00">cmath</text>
</g>
<!-- Node6&#45;&gt;Node7 -->
<g id="edge7" class="edge"><title>Node6&#45;&gt;Node7</title>
<path fill="none" stroke="midnightblue" d="M183.672,-175.48C136.221,-165.284 63.87,-148.298 56,-138 36.0102,-111.842 81.0844,-90.7154 114.391,-79.2922"/>
<polygon fill="midnightblue" stroke="midnightblue" points="115.847,-82.4984 124.264,-76.0638 113.671,-75.845 115.847,-82.4984"/>
</g>
<!-- Node8 -->
<g id="node8" class="node"><title>Node8</title>
<polygon fill="white" stroke="#bfbfbf" points="65.2734,-117 65.2734,-137 110.727,-137 110.727,-117 65.2734,-117"/>
<text text-anchor="middle" x="88" y="-123" font-family="Helvetica,sans-Serif" font-size="10.00">cstring</text>
</g>
<!-- Node6&#45;&gt;Node8 -->
<g id="edge8" class="edge"><title>Node6&#45;&gt;Node8</title>
<path fill="none" stroke="midnightblue" d="M202.684,-174.878C180.193,-165.685 145.27,-151.409 119.868,-141.026"/>
<polygon fill="midnightblue" stroke="midnightblue" points="120.888,-137.662 110.307,-137.118 118.239,-144.142 120.888,-137.662"/>
</g>
<!-- Node9 -->
<g id="node9" class="node"><title>Node9</title>
<polygon fill="white" stroke="#bfbfbf" points="128.828,-117 128.828,-137 183.172,-137 183.172,-117 128.828,-117"/>
<text text-anchor="middle" x="156" y="-123" font-family="Helvetica,sans-Serif" font-size="10.00">iostream</text>
</g>
<!-- Node6&#45;&gt;Node9 -->
<g id="edge9" class="edge"><title>Node6&#45;&gt;Node9</title>
<path fill="none" stroke="midnightblue" d="M213.606,-174.753C203.156,-166.272 187.473,-153.543 175.107,-143.507"/>
<polygon fill="midnightblue" stroke="midnightblue" points="177.152,-140.659 167.182,-137.075 172.741,-146.095 177.152,-140.659"/>
</g>
<!-- Node10 -->
<g id="node10" class="node"><title>Node10</title>
<polygon fill="white" stroke="#bfbfbf" points="200.884,-117 200.884,-137 249.116,-137 249.116,-117 200.884,-117"/>
<text text-anchor="middle" x="225" y="-123" font-family="Helvetica,sans-Serif" font-size="10.00">cassert</text>
</g>
<!-- Node6&#45;&gt;Node10 -->
<g id="edge10" class="edge"><title>Node6&#45;&gt;Node10</title>
<path fill="none" stroke="midnightblue" d="M225,-174.753C225,-167.25 225,-156.424 225,-147.078"/>
<polygon fill="midnightblue" stroke="midnightblue" points="228.5,-147.075 225,-137.075 221.5,-147.075 228.5,-147.075"/>
</g>
<!-- Node11 -->
<g id="node11" class="node"><title>Node11</title>
<polygon fill="white" stroke="#bfbfbf" points="267.613,-117 267.613,-137 306.387,-137 306.387,-117 267.613,-117"/>
<text text-anchor="middle" x="287" y="-123" font-family="Helvetica,sans-Serif" font-size="10.00">limits</text>
</g>
<!-- Node6&#45;&gt;Node11 -->
<g id="edge11" class="edge"><title>Node6&#45;&gt;Node11</title>
<path fill="none" stroke="midnightblue" d="M235.238,-174.753C244.537,-166.353 258.45,-153.787 269.51,-143.798"/>
<polygon fill="midnightblue" stroke="midnightblue" points="271.877,-146.375 276.952,-137.075 267.185,-141.181 271.877,-146.375"/>
</g>
<!-- Node6&#45;&gt;Node12 -->
<g id="edge12" class="edge"><title>Node6&#45;&gt;Node12</title>
<path fill="none" stroke="midnightblue" d="M249.76,-174.878C275.044,-165.563 314.491,-151.03 342.76,-140.615"/>
<polygon fill="midnightblue" stroke="midnightblue" points="344.077,-143.859 352.251,-137.118 341.657,-137.291 344.077,-143.859"/>
</g>
<!-- Node13 -->
<g id="node13" class="node"><title>Node13</title>
<g id="a_node13"><a xlink:href="_cinder_8h.html" target="_top" xlink:title="cinder/Cinder.h">
<polygon fill="white" stroke="black" points="457.367,-59 457.367,-79 540.633,-79 540.633,-59 457.367,-59"/>
<text text-anchor="middle" x="499" y="-65" font-family="Helvetica,sans-Serif" font-size="10.00">cinder/Cinder.h</text>
</a>
</g>
</g>
<!-- Node12&#45;&gt;Node13 -->
<g id="edge13" class="edge"><title>Node12&#45;&gt;Node13</title>
<path fill="none" stroke="midnightblue" d="M396.873,-116.878C416.724,-107.766 447.451,-93.6617 470.019,-83.3028"/>
<polygon fill="midnightblue" stroke="midnightblue" points="471.507,-86.4707 479.136,-79.1181 468.587,-80.1089 471.507,-86.4707"/>
</g>
<!-- Node12&#45;&gt;Node7 -->
<g id="edge17" class="edge"><title>Node12&#45;&gt;Node7</title>
<path fill="none" stroke="midnightblue" d="M339.629,-116.94C294.567,-106.016 219.634,-87.8507 177.416,-77.6161"/>
<polygon fill="midnightblue" stroke="midnightblue" points="178.219,-74.2094 167.676,-75.2548 176.57,-81.0123 178.219,-74.2094"/>
</g>
<!-- Node17 -->
<g id="node17" class="node"><title>Node17</title>
<polygon fill="white" stroke="#bfbfbf" points="261.113,-59 261.113,-79 304.887,-79 304.887,-59 261.113,-59"/>
<text text-anchor="middle" x="283" y="-65" font-family="Helvetica,sans-Serif" font-size="10.00">climits</text>
</g>
<!-- Node12&#45;&gt;Node17 -->
<g id="edge18" class="edge"><title>Node12&#45;&gt;Node17</title>
<path fill="none" stroke="midnightblue" d="M361.478,-116.753C346.694,-107.946 324.222,-94.5575 307.107,-84.3617"/>
<polygon fill="midnightblue" stroke="midnightblue" points="308.616,-81.1864 298.233,-79.0752 305.033,-87.2002 308.616,-81.1864"/>
</g>
<!-- Node18 -->
<g id="node18" class="node"><title>Node18</title>
<polygon fill="white" stroke="#bfbfbf" points="323.049,-59 323.049,-79 362.951,-79 362.951,-59 323.049,-59"/>
<text text-anchor="middle" x="343" y="-65" font-family="Helvetica,sans-Serif" font-size="10.00">cfloat</text>
</g>
<!-- Node12&#45;&gt;Node18 -->
<g id="edge19" class="edge"><title>Node12&#45;&gt;Node18</title>
<path fill="none" stroke="midnightblue" d="M371.386,-116.753C366.633,-108.924 359.682,-97.4761 353.848,-87.8679"/>
<polygon fill="midnightblue" stroke="midnightblue" points="356.692,-85.8066 348.51,-79.0752 350.708,-89.4395 356.692,-85.8066"/>
</g>
<!-- Node19 -->
<g id="node19" class="node"><title>Node19</title>
<polygon fill="white" stroke="#bfbfbf" points="380.596,-59 380.596,-79 439.404,-79 439.404,-59 380.596,-59"/>
<text text-anchor="middle" x="410" y="-65" font-family="Helvetica,sans-Serif" font-size="10.00">functional</text>
</g>
<!-- Node12&#45;&gt;Node19 -->
<g id="edge20" class="edge"><title>Node12&#45;&gt;Node19</title>
<path fill="none" stroke="midnightblue" d="M382.449,-116.753C387.063,-108.924 393.809,-97.4761 399.471,-87.8679"/>
<polygon fill="midnightblue" stroke="midnightblue" points="402.591,-89.4675 404.652,-79.0752 396.56,-85.9136 402.591,-89.4675"/>
</g>
<!-- Node14 -->
<g id="node14" class="node"><title>Node14</title>
<polygon fill="white" stroke="#bfbfbf" points="388.549,-1 388.549,-21 433.451,-21 433.451,-1 388.549,-1"/>
<text text-anchor="middle" x="411" y="-7" font-family="Helvetica,sans-Serif" font-size="10.00">cstdint</text>
</g>
<!-- Node13&#45;&gt;Node14 -->
<g id="edge14" class="edge"><title>Node13&#45;&gt;Node14</title>
<path fill="none" stroke="midnightblue" d="M484.469,-58.7527C470.757,-50.0272 449.979,-36.8051 434.015,-26.6458"/>
<polygon fill="midnightblue" stroke="midnightblue" points="435.577,-23.4912 425.261,-21.0752 431.819,-29.3968 435.577,-23.4912"/>
</g>
<!-- Node15 -->
<g id="node15" class="node"><title>Node15</title>
<polygon fill="white" stroke="#bfbfbf" points="451.53,-1 451.53,-21 546.47,-21 546.47,-1 451.53,-1"/>
<text text-anchor="middle" x="499" y="-7" font-family="Helvetica,sans-Serif" font-size="10.00">boost/version.hpp</text>
</g>
<!-- Node13&#45;&gt;Node15 -->
<g id="edge15" class="edge"><title>Node13&#45;&gt;Node15</title>
<path fill="none" stroke="midnightblue" d="M499,-58.7527C499,-51.2504 499,-40.4238 499,-31.0781"/>
<polygon fill="midnightblue" stroke="midnightblue" points="502.5,-31.0752 499,-21.0752 495.5,-31.0752 502.5,-31.0752"/>
</g>
<!-- Node16 -->
<g id="node16" class="node"><title>Node16</title>
<polygon fill="white" stroke="#bfbfbf" points="564.621,-1 564.621,-21 697.379,-21 697.379,-1 564.621,-1"/>
<text text-anchor="middle" x="631" y="-7" font-family="Helvetica,sans-Serif" font-size="10.00">boost/checked_delete.hpp</text>
</g>
<!-- Node13&#45;&gt;Node16 -->
<g id="edge16" class="edge"><title>Node13&#45;&gt;Node16</title>
<path fill="none" stroke="midnightblue" d="M520.502,-58.878C542.172,-49.6848 575.821,-35.4095 600.295,-25.0263"/>
<polygon fill="midnightblue" stroke="midnightblue" points="601.668,-28.2457 609.507,-21.1181 598.935,-21.8016 601.668,-28.2457"/>
</g>
</g>
</svg>
