<?xml version="1.0" encoding="UTF-8" standalone="no"?>
<!DOCTYPE svg PUBLIC "-//W3C//DTD SVG 1.1//EN"
 "http://www.w3.org/Graphics/SVG/1.1/DTD/svg11.dtd">
<!-- Generated by graphviz version 2.30.1 (20140712.1814)
 -->
<!-- Title: include/cinder/Base64.h Pages: 1 -->
<svg width="257pt" height="88pt"
 viewBox="0.00 0.00 257.00 88.00" xmlns="http://www.w3.org/2000/svg" xmlns:xlink="http://www.w3.org/1999/xlink">
<g id="graph0" class="graph" transform="scale(1 1) rotate(0) translate(4 84)">
<title>include/cinder/Base64.h</title>
<polygon fill="white" stroke="white" points="-4,5 -4,-84 254,-84 254,5 -4,5"/>
<!-- Node1 -->
<g id="node1" class="node"><title>Node1</title>
<polygon fill="#bfbfbf" stroke="black" points="62.6309,-59 62.6309,-79 185.369,-79 185.369,-59 62.6309,-59"/>
<text text-anchor="middle" x="124" y="-65" font-family="Helvetica,sans-Serif" font-size="10.00">include/cinder/Base64.h</text>
</g>
<!-- Node2 -->
<g id="node2" class="node"><title>Node2</title>
<g id="a_node2"><a xlink:href="_base64_8cpp.html" target="_top" xlink:title="src/cinder/Base64.cpp">
<polygon fill="white" stroke="black" points="-0.470215,-1 -0.470215,-21 114.47,-21 114.47,-1 -0.470215,-1"/>
<text text-anchor="middle" x="57" y="-7" font-family="Helvetica,sans-Serif" font-size="10.00">src/cinder/Base64.cpp</text>
</a>
</g>
</g>
<!-- Node1&#45;&gt;Node2 -->
<g id="edge1" class="edge"><title>Node1&#45;&gt;Node2</title>
<path fill="none" stroke="midnightblue" d="M105.202,-52.288C93.1514,-42.2161 77.9352,-29.4981 67.8578,-21.0752"/>
<polygon fill="midnightblue" stroke="midnightblue" points="103.019,-55.0251 112.936,-58.7527 107.508,-49.6541 103.019,-55.0251"/>
</g>
<!-- Node3 -->
<g id="node3" class="node"><title>Node3</title>
<g id="a_node3"><a xlink:href="_svg_8cpp.html" target="_top" xlink:title="src/cinder/svg/Svg.cpp">
<polygon fill="white" stroke="black" points="132.702,-1 132.702,-21 249.298,-21 249.298,-1 132.702,-1"/>
<text text-anchor="middle" x="191" y="-7" font-family="Helvetica,sans-Serif" font-size="10.00">src/cinder/svg/Svg.cpp</text>
</a>
</g>
</g>
<!-- Node1&#45;&gt;Node3 -->
<g id="edge2" class="edge"><title>Node1&#45;&gt;Node3</title>
<path fill="none" stroke="midnightblue" d="M142.798,-52.288C154.849,-42.2161 170.065,-29.4981 180.142,-21.0752"/>
<polygon fill="midnightblue" stroke="midnightblue" points="140.492,-49.6541 135.064,-58.7527 144.981,-55.0251 140.492,-49.6541"/>
</g>
</g>
</svg>
