<?xml version="1.0" encoding="UTF-8" standalone="no"?>
<!DOCTYPE svg PUBLIC "-//W3C//DTD SVG 1.1//EN"
 "http://www.w3.org/Graphics/SVG/1.1/DTD/svg11.dtd">
<!-- Generated by graphviz version 2.30.1 (20140712.1814)
 -->
<!-- Title: src/cinder/audio/dsp/Biquad.cpp Pages: 1 -->
<!--zoomable 274 -->
<svg id="main" version="1.1" xmlns="http://www.w3.org/2000/svg" xmlns:xlink="http://www.w3.org/1999/xlink" xml:space="preserve" onload="init(evt)">
<style type="text/css"><![CDATA[
.edge:hover path { stroke: red; }
.edge:hover polygon { stroke: red; fill: red; }
]]></style>
<script type="text/javascript"><![CDATA[
var edges = document.getElementsByTagName('g');
if (edges && edges.length) {
  for (var i=0;i<edges.length;i++) {
    if (edges[i].id.substr(0,4)=='edge') {
      edges[i].setAttribute('class','edge');
    }
  }
}
]]></script>
        <defs>
                <circle id="rim" cx="0" cy="0" r="7"/>
                <circle id="rim2" cx="0" cy="0" r="3.5"/>
                <g id="zoomPlus">
                        <use xlink:href="#rim" fill="#404040">
                                <set attributeName="fill" to="#808080" begin="zoomplus.mouseover" end="zoomplus.mouseout"/>
                        </use>
                        <path d="M-4,0h8M0,-4v8" fill="none" stroke="white" stroke-width="1.5" pointer-events="none"/>
                </g>
                <g id="zoomMin">
                        <use xlink:href="#rim" fill="#404040">
                                <set attributeName="fill" to="#808080" begin="zoomminus.mouseover" end="zoomminus.mouseout"/>
                        </use>
                        <path d="M-4,0h8" fill="none" stroke="white" stroke-width="1.5" pointer-events="none"/>
                </g>
                <g id="dirArrow">
                        <path fill="none" stroke="white" stroke-width="1.5" d="M0,-3.0v7 M-2.5,-0.5L0,-3.0L2.5,-0.5"/>
                </g>
               <g id="resetDef">
                       <use xlink:href="#rim2" fill="#404040">
                               <set attributeName="fill" to="#808080" begin="reset.mouseover" end="reset.mouseout"/>
                       </use>
               </g>
        </defs>

<script type="text/javascript">
var viewWidth = 812;
var viewHeight = 274;
var sectionId = 'dynsection-0';
</script>
<script xlink:href="svgpan.js"/>
<svg id="graph" class="graph">
<g id="viewport">
<title>src/cinder/audio/dsp/Biquad.cpp</title>
<polygon fill="white" stroke="white" points="-4,5 -4,-270 809,-270 809,5 -4,5"/>
<!-- Node1 -->
<g id="node1" class="node"><title>Node1</title>
<polygon fill="#bfbfbf" stroke="black" points="487.254,-233 487.254,-265 592.746,-265 592.746,-233 487.254,-233"/>
<text text-anchor="start" x="495.254" y="-251" font-family="Helvetica,sans-Serif" font-size="10.00">src/cinder/audio/dsp</text>
<text text-anchor="middle" x="540" y="-239" font-family="Helvetica,sans-Serif" font-size="10.00">/Biquad.cpp</text>
</g>
<!-- Node2 -->
<g id="node2" class="node"><title>Node2</title>
<g id="a_node2"><a xlink:href="_biquad_8h.html" target="_top" xlink:title="cinder/audio/dsp/Biquad.h">
<polygon fill="white" stroke="black" points="356.18,-175 356.18,-195 487.82,-195 487.82,-175 356.18,-175"/>
<text text-anchor="middle" x="422" y="-181" font-family="Helvetica,sans-Serif" font-size="10.00">cinder/audio/dsp/Biquad.h</text>
</a>
</g>
</g>
<!-- Node1&#45;&gt;Node2 -->
<g id="edge1" class="edge"><title>Node1&#45;&gt;Node2</title>
<path fill="none" stroke="midnightblue" d="M511.435,-232.992C492.18,-222.874 466.969,-209.628 448.223,-199.778"/>
<polygon fill="midnightblue" stroke="midnightblue" points="449.816,-196.662 439.336,-195.109 446.561,-202.858 449.816,-196.662"/>
</g>
<!-- Node14 -->
<g id="node14" class="node"><title>Node14</title>
<g id="a_node14"><a xlink:href="audio_2_buffer_8h.html" target="_top" xlink:title="cinder/audio/Buffer.h">
<polygon fill="white" stroke="black" points="175.221,-117 175.221,-137 282.779,-137 282.779,-117 175.221,-117"/>
<text text-anchor="middle" x="229" y="-123" font-family="Helvetica,sans-Serif" font-size="10.00">cinder/audio/Buffer.h</text>
</a>
</g>
</g>
<!-- Node1&#45;&gt;Node14 -->
<g id="edge19" class="edge"><title>Node1&#45;&gt;Node14</title>
<path fill="none" stroke="midnightblue" d="M487.18,-237.657C447.69,-229.002 392.841,-215.003 347,-196 311.521,-181.292 273.557,-157.871 250.547,-142.716"/>
<polygon fill="midnightblue" stroke="midnightblue" points="252.476,-139.796 242.215,-137.158 248.591,-145.619 252.476,-139.796"/>
</g>
<!-- Node7 -->
<g id="node7" class="node"><title>Node7</title>
<g id="a_node7"><a xlink:href="_cinder_8h.html" target="_top" xlink:title="cinder/Cinder.h">
<polygon fill="white" stroke="black" points="523.367,-59 523.367,-79 606.633,-79 606.633,-59 523.367,-59"/>
<text text-anchor="middle" x="565" y="-65" font-family="Helvetica,sans-Serif" font-size="10.00">cinder/Cinder.h</text>
</a>
</g>
</g>
<!-- Node1&#45;&gt;Node7 -->
<g id="edge20" class="edge"><title>Node1&#45;&gt;Node7</title>
<path fill="none" stroke="midnightblue" d="M542.131,-232.824C546.67,-200.506 557.284,-124.937 562.293,-89.277"/>
<polygon fill="midnightblue" stroke="midnightblue" points="565.782,-89.5965 563.707,-79.2068 558.85,-88.6228 565.782,-89.5965"/>
</g>
<!-- Node18 -->
<g id="node18" class="node"><title>Node18</title>
<g id="a_node18"><a xlink:href="_cinder_math_8h.html" target="_top" xlink:title="cinder/CinderMath.h">
<polygon fill="white" stroke="black" points="580.978,-117 580.978,-137 687.022,-137 687.022,-117 580.978,-117"/>
<text text-anchor="middle" x="634" y="-123" font-family="Helvetica,sans-Serif" font-size="10.00">cinder/CinderMath.h</text>
</a>
</g>
</g>
<!-- Node1&#45;&gt;Node18 -->
<g id="edge21" class="edge"><title>Node1&#45;&gt;Node18</title>
<path fill="none" stroke="midnightblue" d="M551.48,-232.905C562.926,-217.9 581.052,-194.26 597,-174 604.607,-164.336 613.212,-153.625 620.209,-144.971"/>
<polygon fill="midnightblue" stroke="midnightblue" points="622.995,-147.092 626.572,-137.119 617.557,-142.684 622.995,-147.092"/>
</g>
<!-- Node22 -->
<g id="node22" class="node"><title>Node22</title>
<polygon fill="white" stroke="#bfbfbf" points="606.382,-175 606.382,-195 659.618,-195 659.618,-175 606.382,-175"/>
<text text-anchor="middle" x="633" y="-181" font-family="Helvetica,sans-Serif" font-size="10.00">complex</text>
</g>
<!-- Node1&#45;&gt;Node22 -->
<g id="edge27" class="edge"><title>Node1&#45;&gt;Node22</title>
<path fill="none" stroke="midnightblue" d="M562.513,-232.992C577.203,-223.198 596.293,-210.471 610.9,-200.733"/>
<polygon fill="midnightblue" stroke="midnightblue" points="612.958,-203.568 619.337,-195.109 609.075,-197.744 612.958,-203.568"/>
</g>
<!-- Node3 -->
<g id="node3" class="node"><title>Node3</title>
<g id="a_node3"><a xlink:href="_dsp_8h.html" target="_top" xlink:title="cinder/audio/dsp/Dsp.h">
<polygon fill="white" stroke="black" points="362.857,-117 362.857,-137 481.143,-137 481.143,-117 362.857,-117"/>
<text text-anchor="middle" x="422" y="-123" font-family="Helvetica,sans-Serif" font-size="10.00">cinder/audio/dsp/Dsp.h</text>
</a>
</g>
</g>
<!-- Node2&#45;&gt;Node3 -->
<g id="edge2" class="edge"><title>Node2&#45;&gt;Node3</title>
<path fill="none" stroke="midnightblue" d="M422,-174.753C422,-167.25 422,-156.424 422,-147.078"/>
<polygon fill="midnightblue" stroke="midnightblue" points="425.5,-147.075 422,-137.075 418.5,-147.075 425.5,-147.075"/>
</g>
<!-- Node2&#45;&gt;Node14 -->
<g id="edge13" class="edge"><title>Node2&#45;&gt;Node14</title>
<path fill="none" stroke="midnightblue" d="M390.562,-174.878C357.659,-165.331 305.867,-150.303 269.824,-139.845"/>
<polygon fill="midnightblue" stroke="midnightblue" points="270.684,-136.451 260.105,-137.025 268.734,-143.173 270.684,-136.451"/>
</g>
<!-- Node4 -->
<g id="node4" class="node"><title>Node4</title>
<g id="a_node4"><a xlink:href="_cinder_assert_8h.html" target="_top" xlink:title="cinder/CinderAssert.h">
<polygon fill="white" stroke="black" points="268.924,-59 268.924,-79 381.076,-79 381.076,-59 268.924,-59"/>
<text text-anchor="middle" x="325" y="-65" font-family="Helvetica,sans-Serif" font-size="10.00">cinder/CinderAssert.h</text>
</a>
</g>
</g>
<!-- Node3&#45;&gt;Node4 -->
<g id="edge3" class="edge"><title>Node3&#45;&gt;Node4</title>
<path fill="none" stroke="midnightblue" d="M405.982,-116.753C390.586,-107.864 367.107,-94.3092 349.387,-84.0793"/>
<polygon fill="midnightblue" stroke="midnightblue" points="351.13,-81.0439 340.72,-79.0752 347.63,-87.1062 351.13,-81.0439"/>
</g>
<!-- Node3&#45;&gt;Node7 -->
<g id="edge6" class="edge"><title>Node3&#45;&gt;Node7</title>
<path fill="none" stroke="midnightblue" d="M445.294,-116.878C468.873,-107.644 505.545,-93.283 532.088,-82.8887"/>
<polygon fill="midnightblue" stroke="midnightblue" points="533.681,-86.0236 541.716,-79.1181 531.129,-79.5056 533.681,-86.0236"/>
</g>
<!-- Node11 -->
<g id="node11" class="node"><title>Node11</title>
<polygon fill="white" stroke="#bfbfbf" points="399.273,-59 399.273,-79 444.727,-79 444.727,-59 399.273,-59"/>
<text text-anchor="middle" x="422" y="-65" font-family="Helvetica,sans-Serif" font-size="10.00">atomic</text>
</g>
<!-- Node3&#45;&gt;Node11 -->
<g id="edge10" class="edge"><title>Node3&#45;&gt;Node11</title>
<path fill="none" stroke="midnightblue" d="M422,-116.753C422,-109.25 422,-98.4238 422,-89.0781"/>
<polygon fill="midnightblue" stroke="midnightblue" points="425.5,-89.0752 422,-79.0752 418.5,-89.0752 425.5,-89.0752"/>
</g>
<!-- Node12 -->
<g id="node12" class="node"><title>Node12</title>
<polygon fill="white" stroke="#bfbfbf" points="207.384,-59 207.384,-79 250.616,-79 250.616,-59 207.384,-59"/>
<text text-anchor="middle" x="229" y="-65" font-family="Helvetica,sans-Serif" font-size="10.00">vector</text>
</g>
<!-- Node3&#45;&gt;Node12 -->
<g id="edge11" class="edge"><title>Node3&#45;&gt;Node12</title>
<path fill="none" stroke="midnightblue" d="M388.701,-116.916C357.868,-108.422 310.519,-95.172 260.376,-80.0399"/>
<polygon fill="midnightblue" stroke="midnightblue" points="261.235,-76.6431 250.65,-77.0915 259.204,-83.3421 261.235,-76.6431"/>
</g>
<!-- Node13 -->
<g id="node13" class="node"><title>Node13</title>
<polygon fill="white" stroke="#bfbfbf" points="462.384,-59 462.384,-79 505.616,-79 505.616,-59 462.384,-59"/>
<text text-anchor="middle" x="484" y="-65" font-family="Helvetica,sans-Serif" font-size="10.00">cmath</text>
</g>
<!-- Node3&#45;&gt;Node13 -->
<g id="edge12" class="edge"><title>Node3&#45;&gt;Node13</title>
<path fill="none" stroke="midnightblue" d="M432.238,-116.753C441.537,-108.353 455.45,-95.7874 466.51,-85.7976"/>
<polygon fill="midnightblue" stroke="midnightblue" points="468.877,-88.3755 473.952,-79.0752 464.185,-83.1807 468.877,-88.3755"/>
</g>
<!-- Node5 -->
<g id="node5" class="node"><title>Node5</title>
<g id="a_node5"><a xlink:href="_current_function_8h.html" target="_top" xlink:title="cinder/CurrentFunction.h">
<polygon fill="white" stroke="black" points="286.973,-1 286.973,-21 413.027,-21 413.027,-1 286.973,-1"/>
<text text-anchor="middle" x="350" y="-7" font-family="Helvetica,sans-Serif" font-size="10.00">cinder/CurrentFunction.h</text>
</a>
</g>
</g>
<!-- Node4&#45;&gt;Node5 -->
<g id="edge4" class="edge"><title>Node4&#45;&gt;Node5</title>
<path fill="none" stroke="midnightblue" d="M329.128,-58.7527C332.55,-51.0873 337.522,-39.9515 341.754,-30.4708"/>
<polygon fill="midnightblue" stroke="midnightblue" points="345.068,-31.6334 345.949,-21.0752 338.676,-28.7798 345.068,-31.6334"/>
</g>
<!-- Node6 -->
<g id="node6" class="node"><title>Node6</title>
<polygon fill="white" stroke="#bfbfbf" points="220.884,-1 220.884,-21 269.116,-21 269.116,-1 220.884,-1"/>
<text text-anchor="middle" x="245" y="-7" font-family="Helvetica,sans-Serif" font-size="10.00">cassert</text>
</g>
<!-- Node4&#45;&gt;Node6 -->
<g id="edge5" class="edge"><title>Node4&#45;&gt;Node6</title>
<path fill="none" stroke="midnightblue" d="M311.79,-58.7527C299.441,-50.1087 280.788,-37.0518 266.331,-26.9314"/>
<polygon fill="midnightblue" stroke="midnightblue" points="268.164,-23.9425 257.965,-21.0752 264.15,-29.6772 268.164,-23.9425"/>
</g>
<!-- Node8 -->
<g id="node8" class="node"><title>Node8</title>
<polygon fill="white" stroke="#bfbfbf" points="454.549,-1 454.549,-21 499.451,-21 499.451,-1 454.549,-1"/>
<text text-anchor="middle" x="477" y="-7" font-family="Helvetica,sans-Serif" font-size="10.00">cstdint</text>
</g>
<!-- Node7&#45;&gt;Node8 -->
<g id="edge7" class="edge"><title>Node7&#45;&gt;Node8</title>
<path fill="none" stroke="midnightblue" d="M550.469,-58.7527C536.757,-50.0272 515.979,-36.8051 500.015,-26.6458"/>
<polygon fill="midnightblue" stroke="midnightblue" points="501.577,-23.4912 491.261,-21.0752 497.819,-29.3968 501.577,-23.4912"/>
</g>
<!-- Node9 -->
<g id="node9" class="node"><title>Node9</title>
<polygon fill="white" stroke="#bfbfbf" points="517.53,-1 517.53,-21 612.47,-21 612.47,-1 517.53,-1"/>
<text text-anchor="middle" x="565" y="-7" font-family="Helvetica,sans-Serif" font-size="10.00">boost/version.hpp</text>
</g>
<!-- Node7&#45;&gt;Node9 -->
<g id="edge8" class="edge"><title>Node7&#45;&gt;Node9</title>
<path fill="none" stroke="midnightblue" d="M565,-58.7527C565,-51.2504 565,-40.4238 565,-31.0781"/>
<polygon fill="midnightblue" stroke="midnightblue" points="568.5,-31.0752 565,-21.0752 561.5,-31.0752 568.5,-31.0752"/>
</g>
<!-- Node10 -->
<g id="node10" class="node"><title>Node10</title>
<polygon fill="white" stroke="#bfbfbf" points="630.621,-1 630.621,-21 763.379,-21 763.379,-1 630.621,-1"/>
<text text-anchor="middle" x="697" y="-7" font-family="Helvetica,sans-Serif" font-size="10.00">boost/checked_delete.hpp</text>
</g>
<!-- Node7&#45;&gt;Node10 -->
<g id="edge9" class="edge"><title>Node7&#45;&gt;Node10</title>
<path fill="none" stroke="midnightblue" d="M586.502,-58.878C608.172,-49.6848 641.821,-35.4095 666.295,-25.0263"/>
<polygon fill="midnightblue" stroke="midnightblue" points="667.668,-28.2457 675.507,-21.1181 664.935,-21.8016 667.668,-28.2457"/>
</g>
<!-- Node14&#45;&gt;Node4 -->
<g id="edge14" class="edge"><title>Node14&#45;&gt;Node4</title>
<path fill="none" stroke="midnightblue" d="M244.852,-116.753C259.95,-107.946 282.901,-94.5575 300.38,-84.3617"/>
<polygon fill="midnightblue" stroke="midnightblue" points="302.568,-87.1372 309.443,-79.0752 299.041,-81.0907 302.568,-87.1372"/>
</g>
<!-- Node14&#45;&gt;Node12 -->
<g id="edge15" class="edge"><title>Node14&#45;&gt;Node12</title>
<path fill="none" stroke="midnightblue" d="M229,-116.753C229,-109.25 229,-98.4238 229,-89.0781"/>
<polygon fill="midnightblue" stroke="midnightblue" points="232.5,-89.0752 229,-79.0752 225.5,-89.0752 232.5,-89.0752"/>
</g>
<!-- Node15 -->
<g id="node15" class="node"><title>Node15</title>
<polygon fill="white" stroke="#bfbfbf" points="-0.0566406,-59 -0.0566406,-79 52.0566,-79 52.0566,-59 -0.0566406,-59"/>
<text text-anchor="middle" x="26" y="-65" font-family="Helvetica,sans-Serif" font-size="10.00">memory</text>
</g>
<!-- Node14&#45;&gt;Node15 -->
<g id="edge16" class="edge"><title>Node14&#45;&gt;Node15</title>
<path fill="none" stroke="midnightblue" d="M195.501,-116.945C163.56,-108.284 113.852,-94.7401 62.0563,-80.2767"/>
<polygon fill="midnightblue" stroke="midnightblue" points="62.9376,-76.889 52.3645,-77.5664 61.0523,-83.6303 62.9376,-76.889"/>
</g>
<!-- Node16 -->
<g id="node16" class="node"><title>Node16</title>
<polygon fill="white" stroke="#bfbfbf" points="69.8276,-59 69.8276,-79 114.172,-79 114.172,-59 69.8276,-59"/>
<text text-anchor="middle" x="92" y="-65" font-family="Helvetica,sans-Serif" font-size="10.00">cstdlib</text>
</g>
<!-- Node14&#45;&gt;Node16 -->
<g id="edge17" class="edge"><title>Node14&#45;&gt;Node16</title>
<path fill="none" stroke="midnightblue" d="M206.684,-116.878C184.193,-107.685 149.27,-93.4095 123.868,-83.0263"/>
<polygon fill="midnightblue" stroke="midnightblue" points="124.888,-79.6621 114.307,-79.1181 122.239,-86.1416 124.888,-79.6621"/>
</g>
<!-- Node17 -->
<g id="node17" class="node"><title>Node17</title>
<polygon fill="white" stroke="#bfbfbf" points="132.436,-59 132.436,-79 189.564,-79 189.564,-59 132.436,-59"/>
<text text-anchor="middle" x="161" y="-65" font-family="Helvetica,sans-Serif" font-size="10.00">algorithm</text>
</g>
<!-- Node14&#45;&gt;Node17 -->
<g id="edge18" class="edge"><title>Node14&#45;&gt;Node17</title>
<path fill="none" stroke="midnightblue" d="M217.771,-116.753C207.473,-108.272 192.016,-95.543 179.83,-85.5073"/>
<polygon fill="midnightblue" stroke="midnightblue" points="181.964,-82.7305 172.02,-79.0752 177.514,-88.1341 181.964,-82.7305"/>
</g>
<!-- Node18&#45;&gt;Node7 -->
<g id="edge22" class="edge"><title>Node18&#45;&gt;Node7</title>
<path fill="none" stroke="midnightblue" d="M622.606,-116.753C612.156,-108.272 596.473,-95.543 584.107,-85.5073"/>
<polygon fill="midnightblue" stroke="midnightblue" points="586.152,-82.6593 576.182,-79.0752 581.741,-88.0945 586.152,-82.6593"/>
</g>
<!-- Node18&#45;&gt;Node13 -->
<g id="edge23" class="edge"><title>Node18&#45;&gt;Node13</title>
<path fill="none" stroke="midnightblue" d="M609.566,-116.878C583.984,-107.327 543.71,-92.2919 515.697,-81.8335"/>
<polygon fill="midnightblue" stroke="midnightblue" points="516.573,-78.4248 505.981,-78.2061 514.125,-84.9827 516.573,-78.4248"/>
</g>
<!-- Node19 -->
<g id="node19" class="node"><title>Node19</title>
<polygon fill="white" stroke="#bfbfbf" points="625.113,-59 625.113,-79 668.887,-79 668.887,-59 625.113,-59"/>
<text text-anchor="middle" x="647" y="-65" font-family="Helvetica,sans-Serif" font-size="10.00">climits</text>
</g>
<!-- Node18&#45;&gt;Node19 -->
<g id="edge24" class="edge"><title>Node18&#45;&gt;Node19</title>
<path fill="none" stroke="midnightblue" d="M636.147,-116.753C637.888,-109.25 640.402,-98.4238 642.571,-89.0781"/>
<polygon fill="midnightblue" stroke="midnightblue" points="646.041,-89.6076 644.893,-79.0752 639.223,-88.0247 646.041,-89.6076"/>
</g>
<!-- Node20 -->
<g id="node20" class="node"><title>Node20</title>
<polygon fill="white" stroke="#bfbfbf" points="687.049,-59 687.049,-79 726.951,-79 726.951,-59 687.049,-59"/>
<text text-anchor="middle" x="707" y="-65" font-family="Helvetica,sans-Serif" font-size="10.00">cfloat</text>
</g>
<!-- Node18&#45;&gt;Node20 -->
<g id="edge25" class="edge"><title>Node18&#45;&gt;Node20</title>
<path fill="none" stroke="midnightblue" d="M646.054,-116.753C657.216,-108.19 674.023,-95.2978 687.161,-85.2186"/>
<polygon fill="midnightblue" stroke="midnightblue" points="689.366,-87.9388 695.17,-79.0752 685.105,-82.3848 689.366,-87.9388"/>
</g>
<!-- Node21 -->
<g id="node21" class="node"><title>Node21</title>
<polygon fill="white" stroke="#bfbfbf" points="744.596,-59 744.596,-79 803.404,-79 803.404,-59 744.596,-59"/>
<text text-anchor="middle" x="774" y="-65" font-family="Helvetica,sans-Serif" font-size="10.00">functional</text>
</g>
<!-- Node18&#45;&gt;Node21 -->
<g id="edge26" class="edge"><title>Node18&#45;&gt;Node21</title>
<path fill="none" stroke="midnightblue" d="M656.805,-116.878C679.89,-107.644 715.792,-93.283 741.778,-82.8887"/>
<polygon fill="midnightblue" stroke="midnightblue" points="743.22,-86.0817 751.205,-79.1181 740.62,-79.5824 743.22,-86.0817"/>
</g>
</g>
</svg>
        <g id="navigator" transform="translate(0 0)" fill="#404254">
                <rect fill="#f2f5e9" fill-opacity="0.5" stroke="#606060" stroke-width=".5" x="0" y="0" width="60" height="60"/>
                <use id="zoomplus" xlink:href="#zoomPlus" x="17" y="9" onmousedown="handleZoom(evt,'in')"/>
                <use id="zoomminus" xlink:href="#zoomMin" x="42" y="9" onmousedown="handleZoom(evt,'out')"/>
                <use id="reset" xlink:href="#resetDef" x="30" y="36" onmousedown="handleReset()"/>
                <g id="arrowUp" xlink:href="#dirArrow" transform="translate(30 24)" onmousedown="handlePan(0,-1)">
                  <use xlink:href="#rim" fill="#404040">
                        <set attributeName="fill" to="#808080" begin="arrowUp.mouseover" end="arrowUp.mouseout"/>
                  </use>
                  <path fill="none" stroke="white" stroke-width="1.5" d="M0,-3.0v7 M-2.5,-0.5L0,-3.0L2.5,-0.5"/>
                </g>
                <g id="arrowRight" xlink:href="#dirArrow" transform="rotate(90) translate(36 -43)" onmousedown="handlePan(1,0)">
                  <use xlink:href="#rim" fill="#404040">
                        <set attributeName="fill" to="#808080" begin="arrowRight.mouseover" end="arrowRight.mouseout"/>
                  </use>
                  <path fill="none" stroke="white" stroke-width="1.5" d="M0,-3.0v7 M-2.5,-0.5L0,-3.0L2.5,-0.5"/>
                </g>
                <g id="arrowDown" xlink:href="#dirArrow" transform="rotate(180) translate(-30 -48)" onmousedown="handlePan(0,1)">
                  <use xlink:href="#rim" fill="#404040">
                        <set attributeName="fill" to="#808080" begin="arrowDown.mouseover" end="arrowDown.mouseout"/>
                  </use>
                  <path fill="none" stroke="white" stroke-width="1.5" d="M0,-3.0v7 M-2.5,-0.5L0,-3.0L2.5,-0.5"/>
                </g>
                <g id="arrowLeft" xlink:href="#dirArrow" transform="rotate(270) translate(-36 17)" onmousedown="handlePan(-1,0)">
                  <use xlink:href="#rim" fill="#404040">
                        <set attributeName="fill" to="#808080" begin="arrowLeft.mouseover" end="arrowLeft.mouseout"/>
                  </use>
                  <path fill="none" stroke="white" stroke-width="1.5" d="M0,-3.0v7 M-2.5,-0.5L0,-3.0L2.5,-0.5"/>
                </g>
        </g>
        <svg viewBox="0 0 15 15" width="100%" height="30px" preserveAspectRatio="xMaxYMin meet">
         <g id="arrow_out" transform="scale(0.3 0.3)">
          <a xlink:href="_biquad_8cpp__incl_org.svg" target="_base">
           <rect id="button" ry="5" rx="5" y="6" x="6" height="38" width="38"
                fill="#f2f5e9" fill-opacity="0.5" stroke="#606060" stroke-width="1.0"/>
           <path id="arrow"
             d="M 11.500037,31.436501 C 11.940474,20.09759 22.043105,11.32322 32.158766,21.979434 L 37.068811,17.246167 C 37.068811,17.246167 37.088388,32 37.088388,32 L 22.160133,31.978069 C 22.160133,31.978069 26.997745,27.140456 26.997745,27.140456 C 18.528582,18.264221 13.291696,25.230495 11.500037,31.436501 z"
             style="fill:#404040;"/>
          </a>
         </g>
        </svg>
</svg>
