<?xml version="1.0" encoding="UTF-8" standalone="no"?>
<!DOCTYPE svg PUBLIC "-//W3C//DTD SVG 1.1//EN"
 "http://www.w3.org/Graphics/SVG/1.1/DTD/svg11.dtd">
<!-- Generated by graphviz version 2.30.1 (20140712.1814)
 -->
<!-- Title: src/cinder/ip/Blend.cpp Pages: 1 -->
<svg width="792pt" height="494pt"
 viewBox="0.00 0.00 792.00 494.00" xmlns="http://www.w3.org/2000/svg" xmlns:xlink="http://www.w3.org/1999/xlink">
<g id="graph0" class="graph" transform="scale(1 1) rotate(0) translate(4 490)">
<title>src/cinder/ip/Blend.cpp</title>
<polygon fill="white" stroke="white" points="-4,5 -4,-490 789,-490 789,5 -4,5"/>
<!-- Node1 -->
<g id="node1" class="node"><title>Node1</title>
<polygon fill="#bfbfbf" stroke="black" points="339.419,-465 339.419,-485 456.581,-485 456.581,-465 339.419,-465"/>
<text text-anchor="middle" x="398" y="-471" font-family="Helvetica,sans-Serif" font-size="10.00">src/cinder/ip/Blend.cpp</text>
</g>
<!-- Node2 -->
<g id="node2" class="node"><title>Node2</title>
<g id="a_node2"><a xlink:href="_blend_8h.html" target="_top" xlink:title="cinder/ip/Blend.h">
<polygon fill="white" stroke="black" points="494.754,-407 494.754,-427 585.246,-427 585.246,-407 494.754,-407"/>
<text text-anchor="middle" x="540" y="-413" font-family="Helvetica,sans-Serif" font-size="10.00">cinder/ip/Blend.h</text>
</a>
</g>
</g>
<!-- Node1&#45;&gt;Node2 -->
<g id="edge1" class="edge"><title>Node1&#45;&gt;Node2</title>
<path fill="none" stroke="midnightblue" d="M421.131,-464.878C444.545,-455.644 480.961,-441.283 507.318,-430.889"/>
<polygon fill="midnightblue" stroke="midnightblue" points="508.86,-434.043 516.879,-427.118 506.292,-427.531 508.86,-434.043"/>
</g>
<!-- Node27 -->
<g id="node27" class="node"><title>Node27</title>
<g id="a_node27"><a xlink:href="_fill_8h.html" target="_top" xlink:title="cinder/ip/Fill.h">
<polygon fill="white" stroke="black" points="217.155,-407 217.155,-427 294.845,-427 294.845,-407 217.155,-407"/>
<text text-anchor="middle" x="256" y="-413" font-family="Helvetica,sans-Serif" font-size="10.00">cinder/ip/Fill.h</text>
</a>
</g>
</g>
<!-- Node1&#45;&gt;Node27 -->
<g id="edge41" class="edge"><title>Node1&#45;&gt;Node27</title>
<path fill="none" stroke="midnightblue" d="M374.869,-464.878C351.455,-455.644 315.039,-441.283 288.682,-430.889"/>
<polygon fill="midnightblue" stroke="midnightblue" points="289.708,-427.531 279.121,-427.118 287.14,-434.043 289.708,-427.531"/>
</g>
<!-- Node3 -->
<g id="node3" class="node"><title>Node3</title>
<g id="a_node3"><a xlink:href="_cinder_8h.html" target="_top" xlink:title="cinder/Cinder.h">
<polygon fill="white" stroke="black" points="423.367,-59 423.367,-79 506.633,-79 506.633,-59 423.367,-59"/>
<text text-anchor="middle" x="465" y="-65" font-family="Helvetica,sans-Serif" font-size="10.00">cinder/Cinder.h</text>
</a>
</g>
</g>
<!-- Node2&#45;&gt;Node3 -->
<g id="edge2" class="edge"><title>Node2&#45;&gt;Node3</title>
<path fill="none" stroke="midnightblue" d="M585.323,-414.558C655.886,-409.628 784,-388.733 784,-302 784,-302 784,-302 784,-184 784,-137.335 746.073,-136.185 704,-116 643.891,-87.1627 567.091,-76.3983 517.006,-72.3833"/>
<polygon fill="midnightblue" stroke="midnightblue" points="516.97,-68.8712 506.74,-71.6249 516.455,-75.8522 516.97,-68.8712"/>
</g>
<!-- Node7 -->
<g id="node7" class="node"><title>Node7</title>
<g id="a_node7"><a xlink:href="_area_8h.html" target="_top" xlink:title="cinder/Area.h">
<polygon fill="white" stroke="black" points="479.261,-233 479.261,-253 554.739,-253 554.739,-233 479.261,-233"/>
<text text-anchor="middle" x="517" y="-239" font-family="Helvetica,sans-Serif" font-size="10.00">cinder/Area.h</text>
</a>
</g>
</g>
<!-- Node2&#45;&gt;Node7 -->
<g id="edge6" class="edge"><title>Node2&#45;&gt;Node7</title>
<path fill="none" stroke="midnightblue" d="M543.696,-406.829C551.685,-385.604 568.699,-331.726 554,-290 550.118,-278.98 542.356,-268.653 534.94,-260.587"/>
<polygon fill="midnightblue" stroke="midnightblue" points="537.306,-258.001 527.795,-253.332 532.318,-262.913 537.306,-258.001"/>
</g>
<!-- Node8 -->
<g id="node8" class="node"><title>Node8</title>
<g id="a_node8"><a xlink:href="_vector_8h.html" target="_top" xlink:title="cinder/Vector.h">
<polygon fill="white" stroke="black" points="403.919,-175 403.919,-195 486.081,-195 486.081,-175 403.919,-175"/>
<text text-anchor="middle" x="445" y="-181" font-family="Helvetica,sans-Serif" font-size="10.00">cinder/Vector.h</text>
</a>
</g>
</g>
<!-- Node2&#45;&gt;Node8 -->
<g id="edge23" class="edge"><title>Node2&#45;&gt;Node8</title>
<path fill="none" stroke="midnightblue" d="M535.874,-406.94C524.775,-382.465 493.529,-312.895 470,-254 463.446,-237.594 456.558,-218.722 451.676,-205.027"/>
<polygon fill="midnightblue" stroke="midnightblue" points="454.87,-203.561 448.235,-195.301 448.271,-205.896 454.87,-203.561"/>
</g>
<!-- Node20 -->
<g id="node20" class="node"><title>Node20</title>
<g id="a_node20"><a xlink:href="_surface_8h.html" target="_top" xlink:title="cinder/Surface.h">
<polygon fill="white" stroke="black" points="372.591,-349 372.591,-369 461.409,-369 461.409,-349 372.591,-349"/>
<text text-anchor="middle" x="417" y="-355" font-family="Helvetica,sans-Serif" font-size="10.00">cinder/Surface.h</text>
</a>
</g>
</g>
<!-- Node2&#45;&gt;Node20 -->
<g id="edge24" class="edge"><title>Node2&#45;&gt;Node20</title>
<path fill="none" stroke="midnightblue" d="M519.964,-406.878C499.951,-397.766 468.971,-383.662 446.219,-373.303"/>
<polygon fill="midnightblue" stroke="midnightblue" points="447.579,-370.076 437.027,-369.118 444.678,-376.447 447.579,-370.076"/>
</g>
<!-- Node4 -->
<g id="node4" class="node"><title>Node4</title>
<polygon fill="white" stroke="#bfbfbf" points="354.549,-1 354.549,-21 399.451,-21 399.451,-1 354.549,-1"/>
<text text-anchor="middle" x="377" y="-7" font-family="Helvetica,sans-Serif" font-size="10.00">cstdint</text>
</g>
<!-- Node3&#45;&gt;Node4 -->
<g id="edge3" class="edge"><title>Node3&#45;&gt;Node4</title>
<path fill="none" stroke="midnightblue" d="M450.469,-58.7527C436.757,-50.0272 415.979,-36.8051 400.015,-26.6458"/>
<polygon fill="midnightblue" stroke="midnightblue" points="401.577,-23.4912 391.261,-21.0752 397.819,-29.3968 401.577,-23.4912"/>
</g>
<!-- Node5 -->
<g id="node5" class="node"><title>Node5</title>
<polygon fill="white" stroke="#bfbfbf" points="417.53,-1 417.53,-21 512.47,-21 512.47,-1 417.53,-1"/>
<text text-anchor="middle" x="465" y="-7" font-family="Helvetica,sans-Serif" font-size="10.00">boost/version.hpp</text>
</g>
<!-- Node3&#45;&gt;Node5 -->
<g id="edge4" class="edge"><title>Node3&#45;&gt;Node5</title>
<path fill="none" stroke="midnightblue" d="M465,-58.7527C465,-51.2504 465,-40.4238 465,-31.0781"/>
<polygon fill="midnightblue" stroke="midnightblue" points="468.5,-31.0752 465,-21.0752 461.5,-31.0752 468.5,-31.0752"/>
</g>
<!-- Node6 -->
<g id="node6" class="node"><title>Node6</title>
<polygon fill="white" stroke="#bfbfbf" points="530.621,-1 530.621,-21 663.379,-21 663.379,-1 530.621,-1"/>
<text text-anchor="middle" x="597" y="-7" font-family="Helvetica,sans-Serif" font-size="10.00">boost/checked_delete.hpp</text>
</g>
<!-- Node3&#45;&gt;Node6 -->
<g id="edge5" class="edge"><title>Node3&#45;&gt;Node6</title>
<path fill="none" stroke="midnightblue" d="M486.502,-58.878C508.172,-49.6848 541.821,-35.4095 566.295,-25.0263"/>
<polygon fill="midnightblue" stroke="midnightblue" points="567.668,-28.2457 575.507,-21.1181 564.935,-21.8016 567.668,-28.2457"/>
</g>
<!-- Node7&#45;&gt;Node3 -->
<g id="edge7" class="edge"><title>Node7&#45;&gt;Node3</title>
<path fill="none" stroke="midnightblue" d="M530.387,-232.899C559.742,-211.819 624.85,-158.226 595,-116 577.338,-91.0151 544.91,-79.512 516.862,-74.2567"/>
<polygon fill="midnightblue" stroke="midnightblue" points="517.198,-70.765 506.762,-72.5898 516.058,-77.6716 517.198,-70.765"/>
</g>
<!-- Node7&#45;&gt;Node8 -->
<g id="edge8" class="edge"><title>Node7&#45;&gt;Node8</title>
<path fill="none" stroke="midnightblue" d="M505.111,-232.753C494.102,-224.19 477.526,-211.298 464.567,-201.219"/>
<polygon fill="midnightblue" stroke="midnightblue" points="466.71,-198.452 456.668,-195.075 462.413,-203.977 466.71,-198.452"/>
</g>
<!-- Node11 -->
<g id="node11" class="node"><title>Node11</title>
<polygon fill="white" stroke="#bfbfbf" points="531.828,-117 531.828,-137 586.172,-137 586.172,-117 531.828,-117"/>
<text text-anchor="middle" x="559" y="-123" font-family="Helvetica,sans-Serif" font-size="10.00">iostream</text>
</g>
<!-- Node7&#45;&gt;Node11 -->
<g id="edge20" class="edge"><title>Node7&#45;&gt;Node11</title>
<path fill="none" stroke="midnightblue" d="M528.204,-232.729C537.531,-224.255 550.191,-210.816 556,-196 562.127,-180.374 562.378,-161.156 561.388,-147.141"/>
<polygon fill="midnightblue" stroke="midnightblue" points="564.872,-146.798 560.417,-137.185 557.905,-147.478 564.872,-146.798"/>
</g>
<!-- Node18 -->
<g id="node18" class="node"><title>Node18</title>
<polygon fill="white" stroke="#bfbfbf" points="641.608,-175 641.608,-195 680.392,-195 680.392,-175 641.608,-175"/>
<text text-anchor="middle" x="661" y="-181" font-family="Helvetica,sans-Serif" font-size="10.00">utility</text>
</g>
<!-- Node7&#45;&gt;Node18 -->
<g id="edge21" class="edge"><title>Node7&#45;&gt;Node18</title>
<path fill="none" stroke="midnightblue" d="M540.457,-232.878C565.332,-223.204 604.676,-207.904 631.604,-197.432"/>
<polygon fill="midnightblue" stroke="midnightblue" points="633.209,-200.563 641.261,-193.676 630.672,-194.039 633.209,-200.563"/>
</g>
<!-- Node19 -->
<g id="node19" class="node"><title>Node19</title>
<polygon fill="white" stroke="#bfbfbf" points="504.384,-175 504.384,-195 547.616,-195 547.616,-175 504.384,-175"/>
<text text-anchor="middle" x="526" y="-181" font-family="Helvetica,sans-Serif" font-size="10.00">vector</text>
</g>
<!-- Node7&#45;&gt;Node19 -->
<g id="edge22" class="edge"><title>Node7&#45;&gt;Node19</title>
<path fill="none" stroke="midnightblue" d="M518.486,-232.753C519.692,-225.25 521.432,-214.424 522.934,-205.078"/>
<polygon fill="midnightblue" stroke="midnightblue" points="526.41,-205.504 524.541,-195.075 519.499,-204.393 526.41,-205.504"/>
</g>
<!-- Node9 -->
<g id="node9" class="node"><title>Node9</title>
<polygon fill="white" stroke="#bfbfbf" points="195.384,-59 195.384,-79 238.616,-79 238.616,-59 195.384,-59"/>
<text text-anchor="middle" x="217" y="-65" font-family="Helvetica,sans-Serif" font-size="10.00">cmath</text>
</g>
<!-- Node8&#45;&gt;Node9 -->
<g id="edge9" class="edge"><title>Node8&#45;&gt;Node9</title>
<path fill="none" stroke="midnightblue" d="M421.245,-174.928C398.915,-166.178 364.722,-152.203 336,-138 301.918,-121.146 264.02,-98.8393 240.349,-84.453"/>
<polygon fill="midnightblue" stroke="midnightblue" points="242.073,-81.4051 231.716,-79.1738 238.421,-87.3769 242.073,-81.4051"/>
</g>
<!-- Node10 -->
<g id="node10" class="node"><title>Node10</title>
<polygon fill="white" stroke="#bfbfbf" points="468.273,-117 468.273,-137 513.727,-137 513.727,-117 468.273,-117"/>
<text text-anchor="middle" x="491" y="-123" font-family="Helvetica,sans-Serif" font-size="10.00">cstring</text>
</g>
<!-- Node8&#45;&gt;Node10 -->
<g id="edge10" class="edge"><title>Node8&#45;&gt;Node10</title>
<path fill="none" stroke="midnightblue" d="M452.596,-174.753C459.227,-166.68 469.021,-154.757 477.058,-144.973"/>
<polygon fill="midnightblue" stroke="midnightblue" points="479.902,-147.024 483.545,-137.075 474.493,-142.581 479.902,-147.024"/>
</g>
<!-- Node8&#45;&gt;Node11 -->
<g id="edge11" class="edge"><title>Node8&#45;&gt;Node11</title>
<path fill="none" stroke="midnightblue" d="M463.57,-174.878C481.953,-165.847 510.32,-151.913 531.353,-141.581"/>
<polygon fill="midnightblue" stroke="midnightblue" points="533.006,-144.669 540.438,-137.118 529.919,-138.386 533.006,-144.669"/>
</g>
<!-- Node12 -->
<g id="node12" class="node"><title>Node12</title>
<polygon fill="white" stroke="#bfbfbf" points="344.884,-117 344.884,-137 393.116,-137 393.116,-117 344.884,-117"/>
<text text-anchor="middle" x="369" y="-123" font-family="Helvetica,sans-Serif" font-size="10.00">cassert</text>
</g>
<!-- Node8&#45;&gt;Node12 -->
<g id="edge12" class="edge"><title>Node8&#45;&gt;Node12</title>
<path fill="none" stroke="midnightblue" d="M432.45,-174.753C420.83,-166.19 403.333,-153.298 389.654,-143.219"/>
<polygon fill="midnightblue" stroke="midnightblue" points="391.443,-140.19 381.316,-137.075 387.291,-145.825 391.443,-140.19"/>
</g>
<!-- Node13 -->
<g id="node13" class="node"><title>Node13</title>
<polygon fill="white" stroke="#bfbfbf" points="411.613,-117 411.613,-137 450.387,-137 450.387,-117 411.613,-117"/>
<text text-anchor="middle" x="431" y="-123" font-family="Helvetica,sans-Serif" font-size="10.00">limits</text>
</g>
<!-- Node8&#45;&gt;Node13 -->
<g id="edge13" class="edge"><title>Node8&#45;&gt;Node13</title>
<path fill="none" stroke="midnightblue" d="M442.688,-174.753C440.813,-167.25 438.106,-156.424 435.77,-147.078"/>
<polygon fill="midnightblue" stroke="midnightblue" points="439.09,-145.928 433.269,-137.075 432.299,-147.626 439.09,-145.928"/>
</g>
<!-- Node14 -->
<g id="node14" class="node"><title>Node14</title>
<g id="a_node14"><a xlink:href="_cinder_math_8h.html" target="_top" xlink:title="cinder/CinderMath.h">
<polygon fill="white" stroke="black" points="44.978,-117 44.978,-137 151.022,-137 151.022,-117 44.978,-117"/>
<text text-anchor="middle" x="98" y="-123" font-family="Helvetica,sans-Serif" font-size="10.00">cinder/CinderMath.h</text>
</a>
</g>
</g>
<!-- Node8&#45;&gt;Node14 -->
<g id="edge14" class="edge"><title>Node8&#45;&gt;Node14</title>
<path fill="none" stroke="midnightblue" d="M403.83,-175.783C400.507,-175.164 397.199,-174.562 394,-174 313.865,-159.922 221.125,-145.871 161.117,-137.072"/>
<polygon fill="midnightblue" stroke="midnightblue" points="161.44,-133.582 151.039,-135.598 160.428,-140.508 161.44,-133.582"/>
</g>
<!-- Node14&#45;&gt;Node3 -->
<g id="edge15" class="edge"><title>Node14&#45;&gt;Node3</title>
<path fill="none" stroke="midnightblue" d="M151.365,-117.857C221.425,-107.167 343.627,-88.5202 413.001,-77.9345"/>
<polygon fill="midnightblue" stroke="midnightblue" points="413.895,-81.3386 423.253,-76.3701 412.839,-74.4187 413.895,-81.3386"/>
</g>
<!-- Node14&#45;&gt;Node9 -->
<g id="edge16" class="edge"><title>Node14&#45;&gt;Node9</title>
<path fill="none" stroke="midnightblue" d="M117.384,-116.878C136.661,-107.807 166.451,-93.7876 188.436,-83.4418"/>
<polygon fill="midnightblue" stroke="midnightblue" points="190.066,-86.543 197.624,-79.1181 187.086,-80.2093 190.066,-86.543"/>
</g>
<!-- Node15 -->
<g id="node15" class="node"><title>Node15</title>
<polygon fill="white" stroke="#bfbfbf" points="-0.886719,-59 -0.886719,-79 42.8867,-79 42.8867,-59 -0.886719,-59"/>
<text text-anchor="middle" x="21" y="-65" font-family="Helvetica,sans-Serif" font-size="10.00">climits</text>
</g>
<!-- Node14&#45;&gt;Node15 -->
<g id="edge17" class="edge"><title>Node14&#45;&gt;Node15</title>
<path fill="none" stroke="midnightblue" d="M85.285,-116.753C73.5117,-108.19 55.7844,-95.2978 41.9256,-85.2186"/>
<polygon fill="midnightblue" stroke="midnightblue" points="43.6244,-82.1264 33.4784,-79.0752 39.5072,-87.7875 43.6244,-82.1264"/>
</g>
<!-- Node16 -->
<g id="node16" class="node"><title>Node16</title>
<polygon fill="white" stroke="#bfbfbf" points="61.0493,-59 61.0493,-79 100.951,-79 100.951,-59 61.0493,-59"/>
<text text-anchor="middle" x="81" y="-65" font-family="Helvetica,sans-Serif" font-size="10.00">cfloat</text>
</g>
<!-- Node14&#45;&gt;Node16 -->
<g id="edge18" class="edge"><title>Node14&#45;&gt;Node16</title>
<path fill="none" stroke="midnightblue" d="M95.1928,-116.753C92.8905,-109.169 89.5571,-98.1881 86.6992,-88.7739"/>
<polygon fill="midnightblue" stroke="midnightblue" points="90.0089,-87.6273 83.755,-79.0752 83.3108,-89.6607 90.0089,-87.6273"/>
</g>
<!-- Node17 -->
<g id="node17" class="node"><title>Node17</title>
<polygon fill="white" stroke="#bfbfbf" points="118.596,-59 118.596,-79 177.404,-79 177.404,-59 118.596,-59"/>
<text text-anchor="middle" x="148" y="-65" font-family="Helvetica,sans-Serif" font-size="10.00">functional</text>
</g>
<!-- Node14&#45;&gt;Node17 -->
<g id="edge19" class="edge"><title>Node14&#45;&gt;Node17</title>
<path fill="none" stroke="midnightblue" d="M106.256,-116.753C113.537,-108.598 124.325,-96.5158 133.11,-86.6769"/>
<polygon fill="midnightblue" stroke="midnightblue" points="135.848,-88.8657 139.897,-79.0752 130.626,-84.2035 135.848,-88.8657"/>
</g>
<!-- Node20&#45;&gt;Node3 -->
<g id="edge25" class="edge"><title>Node20&#45;&gt;Node3</title>
<path fill="none" stroke="midnightblue" d="M461.561,-356.387C535.182,-352.883 677.973,-342.284 717,-312 742.958,-291.858 746,-276.856 746,-244 746,-244 746,-244 746,-184 746,-135.967 705.147,-137.107 662,-116 615.756,-93.3783 557.884,-81.5812 516.86,-75.6291"/>
<polygon fill="midnightblue" stroke="midnightblue" points="517.196,-72.1423 506.811,-74.2388 516.237,-79.0763 517.196,-72.1423"/>
</g>
<!-- Node20&#45;&gt;Node7 -->
<g id="edge26" class="edge"><title>Node20&#45;&gt;Node7</title>
<path fill="none" stroke="midnightblue" d="M434.21,-348.924C448.423,-340.758 468.402,-327.657 482,-312 494.751,-297.319 504.367,-277.18 510.263,-262.633"/>
<polygon fill="midnightblue" stroke="midnightblue" points="513.572,-263.777 513.889,-253.187 507.037,-261.268 513.572,-263.777"/>
</g>
<!-- Node21 -->
<g id="node21" class="node"><title>Node21</title>
<g id="a_node21"><a xlink:href="_channel_8h.html" target="_top" xlink:title="cinder/Channel.h">
<polygon fill="white" stroke="black" points="136.197,-291 136.197,-311 227.803,-311 227.803,-291 136.197,-291"/>
<text text-anchor="middle" x="182" y="-297" font-family="Helvetica,sans-Serif" font-size="10.00">cinder/Channel.h</text>
</a>
</g>
</g>
<!-- Node20&#45;&gt;Node21 -->
<g id="edge27" class="edge"><title>Node20&#45;&gt;Node21</title>
<path fill="none" stroke="midnightblue" d="M378.982,-348.94C338.368,-339.262 273.905,-323.901 229.863,-313.406"/>
<polygon fill="midnightblue" stroke="midnightblue" points="230.502,-309.96 219.963,-311.047 228.88,-316.769 230.502,-309.96"/>
</g>
<!-- Node22 -->
<g id="node22" class="node"><title>Node22</title>
<g id="a_node22"><a xlink:href="_chan_traits_8h.html" target="_top" xlink:title="cinder/ChanTraits.h">
<polygon fill="white" stroke="black" points="282.553,-175 282.553,-195 385.447,-195 385.447,-175 282.553,-175"/>
<text text-anchor="middle" x="334" y="-181" font-family="Helvetica,sans-Serif" font-size="10.00">cinder/ChanTraits.h</text>
</a>
</g>
</g>
<!-- Node20&#45;&gt;Node22 -->
<g id="edge30" class="edge"><title>Node20&#45;&gt;Node22</title>
<path fill="none" stroke="midnightblue" d="M395.857,-348.989C380.781,-341.402 361.407,-329.047 351,-312 330.661,-278.685 330.309,-231.276 332.037,-205.139"/>
<polygon fill="midnightblue" stroke="midnightblue" points="335.535,-205.305 332.882,-195.048 328.559,-204.721 335.535,-205.305"/>
</g>
<!-- Node23 -->
<g id="node23" class="node"><title>Node23</title>
<g id="a_node23"><a xlink:href="_color_8h.html" target="_top" xlink:title="cinder/Color.h">
<polygon fill="white" stroke="black" points="221.148,-233 221.148,-253 298.852,-253 298.852,-233 221.148,-233"/>
<text text-anchor="middle" x="260" y="-239" font-family="Helvetica,sans-Serif" font-size="10.00">cinder/Color.h</text>
</a>
</g>
</g>
<!-- Node20&#45;&gt;Node23 -->
<g id="edge32" class="edge"><title>Node20&#45;&gt;Node23</title>
<path fill="none" stroke="midnightblue" d="M389.644,-348.932C368.735,-341.176 339.881,-328.626 318,-312 299.175,-297.695 282.211,-276.328 271.563,-261.374"/>
<polygon fill="midnightblue" stroke="midnightblue" points="274.351,-259.252 265.788,-253.012 268.591,-263.23 274.351,-259.252"/>
</g>
<!-- Node24 -->
<g id="node24" class="node"><title>Node24</title>
<g id="a_node24"><a xlink:href="_filesystem_8h.html" target="_top" xlink:title="cinder/Filesystem.h">
<polygon fill="white" stroke="black" points="605.931,-291 605.931,-311 708.069,-311 708.069,-291 605.931,-291"/>
<text text-anchor="middle" x="657" y="-297" font-family="Helvetica,sans-Serif" font-size="10.00">cinder/Filesystem.h</text>
</a>
</g>
</g>
<!-- Node20&#45;&gt;Node24 -->
<g id="edge37" class="edge"><title>Node20&#45;&gt;Node24</title>
<path fill="none" stroke="midnightblue" d="M455.827,-348.94C497.392,-339.242 563.417,-323.836 608.403,-313.339"/>
<polygon fill="midnightblue" stroke="midnightblue" points="609.286,-316.727 618.229,-311.047 607.695,-309.911 609.286,-316.727"/>
</g>
<!-- Node26 -->
<g id="node26" class="node"><title>Node26</title>
<polygon fill="white" stroke="#bfbfbf" points="360.357,-291 360.357,-311 473.643,-311 473.643,-291 360.357,-291"/>
<text text-anchor="middle" x="417" y="-297" font-family="Helvetica,sans-Serif" font-size="10.00">boost/logic/tribool.hpp</text>
</g>
<!-- Node20&#45;&gt;Node26 -->
<g id="edge40" class="edge"><title>Node20&#45;&gt;Node26</title>
<path fill="none" stroke="midnightblue" d="M417,-348.753C417,-341.25 417,-330.424 417,-321.078"/>
<polygon fill="midnightblue" stroke="midnightblue" points="420.5,-321.075 417,-311.075 413.5,-321.075 420.5,-321.075"/>
</g>
<!-- Node21&#45;&gt;Node3 -->
<g id="edge28" class="edge"><title>Node21&#45;&gt;Node3</title>
<path fill="none" stroke="midnightblue" d="M184.624,-290.893C193.88,-260.517 228.057,-162.003 294,-116 329.226,-91.426 376.933,-79.9737 413.006,-74.64"/>
<polygon fill="midnightblue" stroke="midnightblue" points="413.89,-78.0519 423.326,-73.2327 412.944,-71.1161 413.89,-78.0519"/>
</g>
<!-- Node21&#45;&gt;Node7 -->
<g id="edge29" class="edge"><title>Node21&#45;&gt;Node7</title>
<path fill="none" stroke="midnightblue" d="M227.878,-292.331C291.154,-281.753 404.669,-262.778 469.03,-252.019"/>
<polygon fill="midnightblue" stroke="midnightblue" points="469.637,-255.466 478.923,-250.365 468.483,-248.562 469.637,-255.466"/>
</g>
<!-- Node22&#45;&gt;Node3 -->
<g id="edge31" class="edge"><title>Node22&#45;&gt;Node3</title>
<path fill="none" stroke="midnightblue" d="M331.235,-174.597C327.68,-160.419 323.356,-133.384 336,-116 353.75,-91.5958 385.606,-80.0831 413.218,-74.6777"/>
<polygon fill="midnightblue" stroke="midnightblue" points="413.912,-78.1097 423.166,-72.95 412.714,-71.2129 413.912,-78.1097"/>
</g>
<!-- Node23&#45;&gt;Node3 -->
<g id="edge33" class="edge"><title>Node23&#45;&gt;Node3</title>
<path fill="none" stroke="midnightblue" d="M260.411,-232.714C261.335,-219.149 264.326,-193.42 274,-174 289.305,-143.275 296.354,-134.912 325,-116 351.622,-98.4249 385.523,-87.0576 413.297,-80.0202"/>
<polygon fill="midnightblue" stroke="midnightblue" points="414.329,-83.3715 423.227,-77.62 412.684,-76.5675 414.329,-83.3715"/>
</g>
<!-- Node23&#45;&gt;Node22 -->
<g id="edge34" class="edge"><title>Node23&#45;&gt;Node22</title>
<path fill="none" stroke="midnightblue" d="M272.22,-232.753C283.534,-224.19 300.571,-211.298 313.89,-201.219"/>
<polygon fill="midnightblue" stroke="midnightblue" points="316.146,-203.901 322.008,-195.075 311.922,-198.319 316.146,-203.901"/>
</g>
<!-- Node23&#45;&gt;Node8 -->
<g id="edge35" class="edge"><title>Node23&#45;&gt;Node8</title>
<path fill="none" stroke="midnightblue" d="M290.135,-232.878C321.539,-223.372 370.895,-208.432 405.424,-197.98"/>
<polygon fill="midnightblue" stroke="midnightblue" points="406.627,-201.272 415.184,-195.025 404.599,-194.573 406.627,-201.272"/>
</g>
<!-- Node23&#45;&gt;Node14 -->
<g id="edge36" class="edge"><title>Node23&#45;&gt;Node14</title>
<path fill="none" stroke="midnightblue" d="M247.017,-232.864C219.172,-213.269 153.482,-167.043 119.381,-143.046"/>
<polygon fill="midnightblue" stroke="midnightblue" points="121.237,-140.073 111.045,-137.18 117.209,-145.797 121.237,-140.073"/>
</g>
<!-- Node24&#45;&gt;Node3 -->
<g id="edge38" class="edge"><title>Node24&#45;&gt;Node3</title>
<path fill="none" stroke="midnightblue" d="M665.429,-290.986C672.963,-282.276 683.487,-268.329 688,-254 698.682,-220.084 704.769,-205.871 689,-174 657.407,-110.147 572.46,-85.3696 516.728,-75.8432"/>
<polygon fill="midnightblue" stroke="midnightblue" points="517.108,-72.3596 506.681,-74.2359 516.002,-79.2717 517.108,-72.3596"/>
</g>
<!-- Node25 -->
<g id="node25" class="node"><title>Node25</title>
<polygon fill="white" stroke="#bfbfbf" points="572.421,-233 572.421,-253 679.579,-253 679.579,-233 572.421,-233"/>
<text text-anchor="middle" x="626" y="-239" font-family="Helvetica,sans-Serif" font-size="10.00">boost/filesystem.hpp</text>
</g>
<!-- Node24&#45;&gt;Node25 -->
<g id="edge39" class="edge"><title>Node24&#45;&gt;Node25</title>
<path fill="none" stroke="midnightblue" d="M651.881,-290.753C647.547,-282.924 641.21,-271.476 635.891,-261.868"/>
<polygon fill="midnightblue" stroke="midnightblue" points="638.929,-260.129 631.024,-253.075 632.805,-263.519 638.929,-260.129"/>
</g>
<!-- Node27&#45;&gt;Node20 -->
<g id="edge42" class="edge"><title>Node27&#45;&gt;Node20</title>
<path fill="none" stroke="midnightblue" d="M282.226,-406.878C309.204,-397.494 351.405,-382.815 381.391,-372.386"/>
<polygon fill="midnightblue" stroke="midnightblue" points="382.757,-375.616 391.052,-369.025 380.457,-369.005 382.757,-375.616"/>
</g>
<!-- Node27&#45;&gt;Node21 -->
<g id="edge43" class="edge"><title>Node27&#45;&gt;Node21</title>
<path fill="none" stroke="midnightblue" d="M249.944,-406.671C237.633,-387.705 209.504,-344.371 193.569,-319.822"/>
<polygon fill="midnightblue" stroke="midnightblue" points="196.313,-317.622 187.933,-311.139 190.442,-321.433 196.313,-317.622"/>
</g>
<!-- Node27&#45;&gt;Node7 -->
<g id="edge44" class="edge"><title>Node27&#45;&gt;Node7</title>
<path fill="none" stroke="midnightblue" d="M260.281,-406.752C271.582,-383.387 304.57,-321.597 351,-290 386.329,-265.958 433.938,-254.423 469.111,-248.924"/>
<polygon fill="midnightblue" stroke="midnightblue" points="469.747,-252.369 479.139,-247.466 468.74,-245.441 469.747,-252.369"/>
</g>
<!-- Node27&#45;&gt;Node23 -->
<g id="edge45" class="edge"><title>Node27&#45;&gt;Node23</title>
<path fill="none" stroke="midnightblue" d="M232.55,-406.865C186.414,-387.528 91.3113,-340.106 127,-290 145.956,-263.387 181.402,-252.025 210.936,-247.244"/>
<polygon fill="midnightblue" stroke="midnightblue" points="211.685,-250.673 221.1,-245.813 210.709,-243.741 211.685,-250.673"/>
</g>
</g>
</svg>
