<?xml version="1.0" encoding="UTF-8" standalone="no"?>
<!DOCTYPE svg PUBLIC "-//W3C//DTD SVG 1.1//EN"
 "http://www.w3.org/Graphics/SVG/1.1/DTD/svg11.dtd">
<!-- Generated by graphviz version 2.30.1 (20140712.1814)
 -->
<!-- Title: src/cinder/Buffer.cpp Pages: 1 -->
<svg width="969pt" height="378pt"
 viewBox="0.00 0.00 969.21 378.00" xmlns="http://www.w3.org/2000/svg" xmlns:xlink="http://www.w3.org/1999/xlink">
<g id="graph0" class="graph" transform="scale(1 1) rotate(0) translate(4 374)">
<title>src/cinder/Buffer.cpp</title>
<polygon fill="white" stroke="white" points="-4,5 -4,-374 966.212,-374 966.212,5 -4,5"/>
<!-- Node1 -->
<g id="node1" class="node"><title>Node1</title>
<polygon fill="#bfbfbf" stroke="black" points="210.722,-349 210.722,-369 317.703,-369 317.703,-349 210.722,-349"/>
<text text-anchor="middle" x="264.212" y="-355" font-family="Helvetica,sans-Serif" font-size="10.00">src/cinder/Buffer.cpp</text>
</g>
<!-- Node2 -->
<g id="node2" class="node"><title>Node2</title>
<g id="a_node2"><a xlink:href="_buffer_8h.html" target="_top" xlink:title="cinder/Buffer.h">
<polygon fill="white" stroke="black" points="22.0565,-117 22.0565,-137 102.368,-137 102.368,-117 22.0565,-117"/>
<text text-anchor="middle" x="62.2122" y="-123" font-family="Helvetica,sans-Serif" font-size="10.00">cinder/Buffer.h</text>
</a>
</g>
</g>
<!-- Node1&#45;&gt;Node2 -->
<g id="edge1" class="edge"><title>Node1&#45;&gt;Node2</title>
<path fill="none" stroke="midnightblue" d="M210.665,-351.592C162.305,-344.627 96.1933,-331.772 79.2122,-312 38.6761,-264.802 49.8013,-183.516 57.5779,-146.877"/>
<polygon fill="midnightblue" stroke="midnightblue" points="61.0131,-147.555 59.8229,-137.027 54.1882,-145.999 61.0131,-147.555"/>
</g>
<!-- Node7 -->
<g id="node7" class="node"><title>Node7</title>
<g id="a_node7"><a xlink:href="_data_source_8h.html" target="_top" xlink:title="cinder/DataSource.h">
<polygon fill="white" stroke="black" points="88.6312,-291 88.6312,-311 195.793,-311 195.793,-291 88.6312,-291"/>
<text text-anchor="middle" x="142.212" y="-297" font-family="Helvetica,sans-Serif" font-size="10.00">cinder/DataSource.h</text>
</a>
</g>
</g>
<!-- Node1&#45;&gt;Node7 -->
<g id="edge6" class="edge"><title>Node1&#45;&gt;Node7</title>
<path fill="none" stroke="midnightblue" d="M244.339,-348.878C224.488,-339.766 193.761,-325.662 171.193,-315.303"/>
<polygon fill="midnightblue" stroke="midnightblue" points="172.625,-312.109 162.077,-311.118 169.705,-318.471 172.625,-312.109"/>
</g>
<!-- Node19 -->
<g id="node19" class="node"><title>Node19</title>
<g id="a_node19"><a xlink:href="_data_target_8h.html" target="_top" xlink:title="cinder/DataTarget.h">
<polygon fill="white" stroke="black" points="252.577,-291 252.577,-311 355.847,-311 355.847,-291 252.577,-291"/>
<text text-anchor="middle" x="304.212" y="-297" font-family="Helvetica,sans-Serif" font-size="10.00">cinder/DataTarget.h</text>
</a>
</g>
</g>
<!-- Node1&#45;&gt;Node19 -->
<g id="edge28" class="edge"><title>Node1&#45;&gt;Node19</title>
<path fill="none" stroke="midnightblue" d="M270.817,-348.753C276.526,-340.761 284.928,-328.998 291.877,-319.27"/>
<polygon fill="midnightblue" stroke="midnightblue" points="294.766,-321.247 297.73,-311.075 289.069,-317.178 294.766,-321.247"/>
</g>
<!-- Node20 -->
<g id="node20" class="node"><title>Node20</title>
<polygon fill="white" stroke="#bfbfbf" points="373.54,-291 373.54,-311 412.885,-311 412.885,-291 373.54,-291"/>
<text text-anchor="middle" x="393.212" y="-297" font-family="Helvetica,sans-Serif" font-size="10.00">zlib.h</text>
</g>
<!-- Node1&#45;&gt;Node20 -->
<g id="edge33" class="edge"><title>Node1&#45;&gt;Node20</title>
<path fill="none" stroke="midnightblue" d="M285.225,-348.878C306.685,-339.562 340.167,-325.027 364.159,-314.612"/>
<polygon fill="midnightblue" stroke="midnightblue" points="365.699,-317.759 373.478,-310.567 362.912,-311.338 365.699,-317.759"/>
</g>
<!-- Node21 -->
<g id="node21" class="node"><title>Node21</title>
<polygon fill="white" stroke="#bfbfbf" points="430.597,-291 430.597,-311 473.828,-311 473.828,-291 430.597,-291"/>
<text text-anchor="middle" x="452.212" y="-297" font-family="Helvetica,sans-Serif" font-size="10.00">cmath</text>
</g>
<!-- Node1&#45;&gt;Node21 -->
<g id="edge34" class="edge"><title>Node1&#45;&gt;Node21</title>
<path fill="none" stroke="midnightblue" d="M295.862,-348.999C325.639,-340.47 371.7,-327.125 420.717,-312.096"/>
<polygon fill="midnightblue" stroke="midnightblue" points="422.027,-315.355 430.556,-309.068 419.968,-308.664 422.027,-315.355"/>
</g>
<!-- Node18 -->
<g id="node18" class="node"><title>Node18</title>
<polygon fill="white" stroke="#bfbfbf" points="170.04,-175 170.04,-195 224.385,-195 224.385,-175 170.04,-175"/>
<text text-anchor="middle" x="197.212" y="-181" font-family="Helvetica,sans-Serif" font-size="10.00">iostream</text>
</g>
<!-- Node1&#45;&gt;Node18 -->
<g id="edge35" class="edge"><title>Node1&#45;&gt;Node18</title>
<path fill="none" stroke="midnightblue" d="M259.816,-348.928C255.412,-339.716 248.541,-324.996 243.212,-312 227.819,-274.463 212.073,-229.662 203.584,-204.868"/>
<polygon fill="midnightblue" stroke="midnightblue" points="206.851,-203.604 200.316,-195.264 200.224,-205.858 206.851,-203.604"/>
</g>
<!-- Node3 -->
<g id="node3" class="node"><title>Node3</title>
<g id="a_node3"><a xlink:href="_cinder_8h.html" target="_top" xlink:title="cinder/Cinder.h">
<polygon fill="white" stroke="black" points="225.579,-59 225.579,-79 308.845,-79 308.845,-59 225.579,-59"/>
<text text-anchor="middle" x="267.212" y="-65" font-family="Helvetica,sans-Serif" font-size="10.00">cinder/Cinder.h</text>
</a>
</g>
</g>
<!-- Node2&#45;&gt;Node3 -->
<g id="edge2" class="edge"><title>Node2&#45;&gt;Node3</title>
<path fill="none" stroke="midnightblue" d="M95.6053,-116.878C130.703,-107.29 186.037,-92.1748 224.339,-81.7116"/>
<polygon fill="midnightblue" stroke="midnightblue" points="225.449,-85.0368 234.173,-79.0253 223.604,-78.2842 225.449,-85.0368"/>
</g>
<!-- Node4 -->
<g id="node4" class="node"><title>Node4</title>
<polygon fill="white" stroke="#bfbfbf" points="156.762,-1 156.762,-21 201.663,-21 201.663,-1 156.762,-1"/>
<text text-anchor="middle" x="179.212" y="-7" font-family="Helvetica,sans-Serif" font-size="10.00">cstdint</text>
</g>
<!-- Node3&#45;&gt;Node4 -->
<g id="edge3" class="edge"><title>Node3&#45;&gt;Node4</title>
<path fill="none" stroke="midnightblue" d="M252.681,-58.7527C238.969,-50.0272 218.192,-36.8051 202.227,-26.6458"/>
<polygon fill="midnightblue" stroke="midnightblue" points="203.789,-23.4912 193.473,-21.0752 200.031,-29.3968 203.789,-23.4912"/>
</g>
<!-- Node5 -->
<g id="node5" class="node"><title>Node5</title>
<polygon fill="white" stroke="#bfbfbf" points="219.742,-1 219.742,-21 314.682,-21 314.682,-1 219.742,-1"/>
<text text-anchor="middle" x="267.212" y="-7" font-family="Helvetica,sans-Serif" font-size="10.00">boost/version.hpp</text>
</g>
<!-- Node3&#45;&gt;Node5 -->
<g id="edge4" class="edge"><title>Node3&#45;&gt;Node5</title>
<path fill="none" stroke="midnightblue" d="M267.212,-58.7527C267.212,-51.2504 267.212,-40.4238 267.212,-31.0781"/>
<polygon fill="midnightblue" stroke="midnightblue" points="270.712,-31.0752 267.212,-21.0752 263.712,-31.0752 270.712,-31.0752"/>
</g>
<!-- Node6 -->
<g id="node6" class="node"><title>Node6</title>
<polygon fill="white" stroke="#bfbfbf" points="332.833,-1 332.833,-21 465.591,-21 465.591,-1 332.833,-1"/>
<text text-anchor="middle" x="399.212" y="-7" font-family="Helvetica,sans-Serif" font-size="10.00">boost/checked_delete.hpp</text>
</g>
<!-- Node3&#45;&gt;Node6 -->
<g id="edge5" class="edge"><title>Node3&#45;&gt;Node6</title>
<path fill="none" stroke="midnightblue" d="M288.714,-58.878C310.384,-49.6848 344.033,-35.4095 368.507,-25.0263"/>
<polygon fill="midnightblue" stroke="midnightblue" points="369.881,-28.2457 377.72,-21.1181 367.147,-21.8016 369.881,-28.2457"/>
</g>
<!-- Node7&#45;&gt;Node3 -->
<g id="edge7" class="edge"><title>Node7&#45;&gt;Node3</title>
<path fill="none" stroke="midnightblue" d="M127.069,-290.986C82.8342,-263.575 -39.7948,-179.234 13.2122,-116 40.9772,-82.8779 156.933,-87.6931 215.566,-79.8148"/>
<polygon fill="midnightblue" stroke="midnightblue" points="216.145,-83.2668 225.475,-78.2475 215.051,-76.3527 216.145,-83.2668"/>
</g>
<!-- Node8 -->
<g id="node8" class="node"><title>Node8</title>
<g id="a_node8"><a xlink:href="_url_8h.html" target="_top" xlink:title="cinder/Url.h">
<polygon fill="white" stroke="black" points="252.648,-233 252.648,-253 319.776,-253 319.776,-233 252.648,-233"/>
<text text-anchor="middle" x="286.212" y="-239" font-family="Helvetica,sans-Serif" font-size="10.00">cinder/Url.h</text>
</a>
</g>
</g>
<!-- Node7&#45;&gt;Node8 -->
<g id="edge8" class="edge"><title>Node7&#45;&gt;Node8</title>
<path fill="none" stroke="midnightblue" d="M165.669,-290.878C189.518,-281.603 226.667,-267.156 253.423,-256.752"/>
<polygon fill="midnightblue" stroke="midnightblue" points="254.714,-260.005 262.766,-253.118 252.177,-253.481 254.714,-260.005"/>
</g>
<!-- Node7&#45;&gt;Node2 -->
<g id="edge25" class="edge"><title>Node7&#45;&gt;Node2</title>
<path fill="none" stroke="midnightblue" d="M137.911,-290.753C125.268,-263.571 88.0441,-183.538 70.9616,-146.811"/>
<polygon fill="midnightblue" stroke="midnightblue" points="73.9255,-144.884 66.5346,-137.293 67.5785,-147.836 73.9255,-144.884"/>
</g>
<!-- Node9 -->
<g id="node9" class="node"><title>Node9</title>
<g id="a_node9"><a xlink:href="_stream_8h.html" target="_top" xlink:title="cinder/Stream.h">
<polygon fill="white" stroke="black" points="342.919,-175 342.919,-195 429.505,-195 429.505,-175 342.919,-175"/>
<text text-anchor="middle" x="386.212" y="-181" font-family="Helvetica,sans-Serif" font-size="10.00">cinder/Stream.h</text>
</a>
</g>
</g>
<!-- Node7&#45;&gt;Node9 -->
<g id="edge26" class="edge"><title>Node7&#45;&gt;Node9</title>
<path fill="none" stroke="midnightblue" d="M196.11,-295.531C235.197,-290.268 288.03,-278.831 328.212,-254 348.544,-241.436 365.406,-219.373 375.614,-203.791"/>
<polygon fill="midnightblue" stroke="midnightblue" points="378.735,-205.401 381.081,-195.069 372.804,-201.683 378.735,-205.401"/>
</g>
<!-- Node13 -->
<g id="node13" class="node"><title>Node13</title>
<g id="a_node13"><a xlink:href="_filesystem_8h.html" target="_top" xlink:title="cinder/Filesystem.h">
<polygon fill="white" stroke="black" points="120.143,-117 120.143,-137 222.281,-137 222.281,-117 120.143,-117"/>
<text text-anchor="middle" x="171.212" y="-123" font-family="Helvetica,sans-Serif" font-size="10.00">cinder/Filesystem.h</text>
</a>
</g>
</g>
<!-- Node7&#45;&gt;Node13 -->
<g id="edge27" class="edge"><title>Node7&#45;&gt;Node13</title>
<path fill="none" stroke="midnightblue" d="M143.393,-290.797C146.115,-269.942 153.21,-217.515 161.212,-174 162.857,-165.058 164.96,-155.201 166.814,-146.912"/>
<polygon fill="midnightblue" stroke="midnightblue" points="170.233,-147.657 169.046,-137.129 163.409,-146.1 170.233,-147.657"/>
</g>
<!-- Node8&#45;&gt;Node3 -->
<g id="edge9" class="edge"><title>Node8&#45;&gt;Node3</title>
<path fill="none" stroke="midnightblue" d="M285.191,-232.753C282.201,-205.688 273.423,-126.224 269.343,-89.2864"/>
<polygon fill="midnightblue" stroke="midnightblue" points="272.816,-88.8484 268.239,-79.2932 265.858,-89.6171 272.816,-88.8484"/>
</g>
<!-- Node8&#45;&gt;Node9 -->
<g id="edge10" class="edge"><title>Node8&#45;&gt;Node9</title>
<path fill="none" stroke="midnightblue" d="M302.725,-232.753C318.598,-223.864 342.803,-210.309 361.071,-200.079"/>
<polygon fill="midnightblue" stroke="midnightblue" points="362.992,-203.015 370.007,-195.075 359.571,-196.907 362.992,-203.015"/>
</g>
<!-- Node8&#45;&gt;Node18 -->
<g id="edge24" class="edge"><title>Node8&#45;&gt;Node18</title>
<path fill="none" stroke="midnightblue" d="M271.516,-232.753C257.648,-224.027 236.635,-210.805 220.489,-200.646"/>
<polygon fill="midnightblue" stroke="midnightblue" points="221.963,-197.438 211.635,-195.075 218.235,-203.363 221.963,-197.438"/>
</g>
<!-- Node9&#45;&gt;Node3 -->
<g id="edge11" class="edge"><title>Node9&#45;&gt;Node3</title>
<path fill="none" stroke="midnightblue" d="M364.085,-174.875C347.019,-167.011 323.633,-154.348 307.212,-138 292.997,-123.848 281.955,-103.633 275.108,-88.924"/>
<polygon fill="midnightblue" stroke="midnightblue" points="278.122,-87.0843 270.879,-79.3521 271.719,-89.9136 278.122,-87.0843"/>
</g>
<!-- Node9&#45;&gt;Node2 -->
<g id="edge12" class="edge"><title>Node9&#45;&gt;Node2</title>
<path fill="none" stroke="midnightblue" d="M342.785,-177.225C290.529,-168.965 199.879,-154.291 112.636,-138.218"/>
<polygon fill="midnightblue" stroke="midnightblue" points="113.037,-134.733 102.567,-136.354 111.762,-141.616 113.037,-134.733"/>
</g>
<!-- Node10 -->
<g id="node10" class="node"><title>Node10</title>
<g id="a_node10"><a xlink:href="_exception_8h.html" target="_top" xlink:title="cinder/Exception.h">
<polygon fill="white" stroke="black" points="815.077,-117 815.077,-137 913.347,-137 913.347,-117 815.077,-117"/>
<text text-anchor="middle" x="864.212" y="-123" font-family="Helvetica,sans-Serif" font-size="10.00">cinder/Exception.h</text>
</a>
</g>
</g>
<!-- Node9&#45;&gt;Node10 -->
<g id="edge13" class="edge"><title>Node9&#45;&gt;Node10</title>
<path fill="none" stroke="midnightblue" d="M429.899,-178.882C515.93,-168.803 707.377,-146.374 804.796,-134.961"/>
<polygon fill="midnightblue" stroke="midnightblue" points="805.252,-138.432 814.777,-133.792 804.437,-131.479 805.252,-138.432"/>
</g>
<!-- Node9&#45;&gt;Node13 -->
<g id="edge17" class="edge"><title>Node9&#45;&gt;Node13</title>
<path fill="none" stroke="midnightblue" d="M351.19,-174.878C314.223,-165.249 255.853,-150.046 215.665,-139.578"/>
<polygon fill="midnightblue" stroke="midnightblue" points="216.422,-136.159 205.863,-137.025 214.658,-142.933 216.422,-136.159"/>
</g>
<!-- Node15 -->
<g id="node15" class="node"><title>Node15</title>
<polygon fill="white" stroke="#bfbfbf" points="639.503,-117 639.503,-137 758.921,-137 758.921,-117 639.503,-117"/>
<text text-anchor="middle" x="699.212" y="-123" font-family="Helvetica,sans-Serif" font-size="10.00">boost/noncopyable.hpp</text>
</g>
<!-- Node9&#45;&gt;Node15 -->
<g id="edge20" class="edge"><title>Node9&#45;&gt;Node15</title>
<path fill="none" stroke="midnightblue" d="M429.734,-176.213C484.152,-166.477 577.594,-149.759 638.889,-138.793"/>
<polygon fill="midnightblue" stroke="midnightblue" points="639.587,-142.223 648.815,-137.017 638.355,-135.333 639.587,-142.223"/>
</g>
<!-- Node12 -->
<g id="node12" class="node"><title>Node12</title>
<polygon fill="white" stroke="#bfbfbf" points="920.986,-59 920.986,-79 961.439,-79 961.439,-59 920.986,-59"/>
<text text-anchor="middle" x="941.212" y="-65" font-family="Helvetica,sans-Serif" font-size="10.00">string</text>
</g>
<!-- Node9&#45;&gt;Node12 -->
<g id="edge21" class="edge"><title>Node9&#45;&gt;Node12</title>
<path fill="none" stroke="midnightblue" d="M429.545,-183.077C550.362,-180.119 884.592,-169.175 922.212,-138 936.339,-126.294 940.442,-105.032 941.413,-89.3894"/>
<polygon fill="midnightblue" stroke="midnightblue" points="944.916,-89.2929 941.665,-79.2092 937.918,-89.1194 944.916,-89.2929"/>
</g>
<!-- Node16 -->
<g id="node16" class="node"><title>Node16</title>
<polygon fill="white" stroke="#bfbfbf" points="315.786,-117 315.786,-137 464.638,-137 464.638,-117 315.786,-117"/>
<text text-anchor="middle" x="390.212" y="-123" font-family="Helvetica,sans-Serif" font-size="10.00">boost/iostreams/concepts.hpp</text>
</g>
<!-- Node9&#45;&gt;Node16 -->
<g id="edge22" class="edge"><title>Node9&#45;&gt;Node16</title>
<path fill="none" stroke="midnightblue" d="M386.873,-174.753C387.409,-167.25 388.182,-156.424 388.85,-147.078"/>
<polygon fill="midnightblue" stroke="midnightblue" points="392.343,-147.299 389.564,-137.075 385.36,-146.8 392.343,-147.299"/>
</g>
<!-- Node17 -->
<g id="node17" class="node"><title>Node17</title>
<polygon fill="white" stroke="#bfbfbf" points="482.518,-117 482.518,-137 621.907,-137 621.907,-117 482.518,-117"/>
<text text-anchor="middle" x="552.212" y="-123" font-family="Helvetica,sans-Serif" font-size="10.00">boost/iostreams/stream.hpp</text>
</g>
<!-- Node9&#45;&gt;Node17 -->
<g id="edge23" class="edge"><title>Node9&#45;&gt;Node17</title>
<path fill="none" stroke="midnightblue" d="M413.252,-174.878C441.19,-165.453 484.959,-150.688 515.9,-140.25"/>
<polygon fill="midnightblue" stroke="midnightblue" points="517.102,-143.538 525.459,-137.025 514.864,-136.906 517.102,-143.538"/>
</g>
<!-- Node10&#45;&gt;Node3 -->
<g id="edge14" class="edge"><title>Node10&#45;&gt;Node3</title>
<path fill="none" stroke="midnightblue" d="M814.737,-117.804C810.17,-117.151 805.609,-116.538 801.212,-116 624.94,-94.4459 414.712,-79.4637 319.121,-73.2337"/>
<polygon fill="midnightblue" stroke="midnightblue" points="319.066,-69.723 308.861,-72.5701 318.615,-76.7084 319.066,-69.723"/>
</g>
<!-- Node11 -->
<g id="node11" class="node"><title>Node11</title>
<polygon fill="white" stroke="#bfbfbf" points="842.597,-59 842.597,-79 885.828,-79 885.828,-59 842.597,-59"/>
<text text-anchor="middle" x="864.212" y="-65" font-family="Helvetica,sans-Serif" font-size="10.00">vector</text>
</g>
<!-- Node10&#45;&gt;Node11 -->
<g id="edge15" class="edge"><title>Node10&#45;&gt;Node11</title>
<path fill="none" stroke="midnightblue" d="M864.212,-116.753C864.212,-109.25 864.212,-98.4238 864.212,-89.0781"/>
<polygon fill="midnightblue" stroke="midnightblue" points="867.712,-89.0752 864.212,-79.0752 860.712,-89.0752 867.712,-89.0752"/>
</g>
<!-- Node10&#45;&gt;Node12 -->
<g id="edge16" class="edge"><title>Node10&#45;&gt;Node12</title>
<path fill="none" stroke="midnightblue" d="M876.927,-116.753C888.701,-108.19 906.428,-95.2978 920.287,-85.2186"/>
<polygon fill="midnightblue" stroke="midnightblue" points="922.705,-87.7875 928.734,-79.0752 918.588,-82.1264 922.705,-87.7875"/>
</g>
<!-- Node13&#45;&gt;Node3 -->
<g id="edge18" class="edge"><title>Node13&#45;&gt;Node3</title>
<path fill="none" stroke="midnightblue" d="M187.065,-116.753C202.163,-107.946 225.114,-94.5575 242.592,-84.3617"/>
<polygon fill="midnightblue" stroke="midnightblue" points="244.781,-87.1372 251.655,-79.0752 241.253,-81.0907 244.781,-87.1372"/>
</g>
<!-- Node14 -->
<g id="node14" class="node"><title>Node14</title>
<polygon fill="white" stroke="#bfbfbf" points="100.634,-59 100.634,-79 207.791,-79 207.791,-59 100.634,-59"/>
<text text-anchor="middle" x="154.212" y="-65" font-family="Helvetica,sans-Serif" font-size="10.00">boost/filesystem.hpp</text>
</g>
<!-- Node13&#45;&gt;Node14 -->
<g id="edge19" class="edge"><title>Node13&#45;&gt;Node14</title>
<path fill="none" stroke="midnightblue" d="M168.405,-116.753C166.103,-109.169 162.769,-98.1881 159.911,-88.7739"/>
<polygon fill="midnightblue" stroke="midnightblue" points="163.221,-87.6273 156.967,-79.0752 156.523,-89.6607 163.221,-87.6273"/>
</g>
<!-- Node19&#45;&gt;Node3 -->
<g id="edge29" class="edge"><title>Node19&#45;&gt;Node3</title>
<path fill="none" stroke="midnightblue" d="M349.16,-290.907C476.815,-264.122 828.493,-183.178 767.212,-116 737.421,-83.3422 440.941,-73.5577 319.089,-70.9022"/>
<polygon fill="midnightblue" stroke="midnightblue" points="318.962,-67.3989 308.891,-70.6878 318.815,-74.3973 318.962,-67.3989"/>
</g>
<!-- Node19&#45;&gt;Node8 -->
<g id="edge30" class="edge"><title>Node19&#45;&gt;Node8</title>
<path fill="none" stroke="midnightblue" d="M301.24,-290.753C298.802,-283.169 295.273,-272.188 292.247,-262.774"/>
<polygon fill="midnightblue" stroke="midnightblue" points="295.522,-261.524 289.129,-253.075 288.857,-263.667 295.522,-261.524"/>
</g>
<!-- Node19&#45;&gt;Node9 -->
<g id="edge31" class="edge"><title>Node19&#45;&gt;Node9</title>
<path fill="none" stroke="midnightblue" d="M320.05,-290.943C333.026,-282.788 351.015,-269.692 362.212,-254 372.759,-239.22 379.058,-219.362 382.538,-204.923"/>
<polygon fill="midnightblue" stroke="midnightblue" points="385.967,-205.627 384.673,-195.112 379.127,-204.139 385.967,-205.627"/>
</g>
<!-- Node19&#45;&gt;Node12 -->
<g id="edge32" class="edge"><title>Node19&#45;&gt;Node12</title>
<path fill="none" stroke="midnightblue" d="M355.876,-291.049C424.867,-279.044 540.702,-258.691 560.212,-254 733.143,-212.424 837.231,-280.834 943.212,-138 953.519,-124.109 951.379,-103.857 947.659,-89.0677"/>
<polygon fill="midnightblue" stroke="midnightblue" points="951.006,-88.0407 944.828,-79.4336 944.29,-90.0148 951.006,-88.0407"/>
</g>
</g>
</svg>
