<?xml version="1.0" encoding="UTF-8" standalone="no"?>
<!DOCTYPE svg PUBLIC "-//W3C//DTD SVG 1.1//EN"
 "http://www.w3.org/Graphics/SVG/1.1/DTD/svg11.dtd">
<!-- Generated by graphviz version 2.30.1 (20140712.1814)
 -->
<!-- Title: src/cinder/Camera.cpp Pages: 1 -->
<svg width="861pt" height="610pt"
 viewBox="0.00 0.00 861.00 610.00" xmlns="http://www.w3.org/2000/svg" xmlns:xlink="http://www.w3.org/1999/xlink">
<g id="graph0" class="graph" transform="scale(1 1) rotate(0) translate(4 606)">
<title>src/cinder/Camera.cpp</title>
<polygon fill="white" stroke="white" points="-4,5 -4,-606 858,-606 858,5 -4,5"/>
<!-- Node1 -->
<g id="node1" class="node"><title>Node1</title>
<polygon fill="#bfbfbf" stroke="black" points="653.705,-581 653.705,-601 770.295,-601 770.295,-581 653.705,-581"/>
<text text-anchor="middle" x="712" y="-587" font-family="Helvetica,sans-Serif" font-size="10.00">src/cinder/Camera.cpp</text>
</g>
<!-- Node2 -->
<g id="node2" class="node"><title>Node2</title>
<g id="a_node2"><a xlink:href="_camera_8h.html" target="_top" xlink:title="cinder/Camera.h">
<polygon fill="white" stroke="black" points="609.04,-523 609.04,-543 698.96,-543 698.96,-523 609.04,-523"/>
<text text-anchor="middle" x="654" y="-529" font-family="Helvetica,sans-Serif" font-size="10.00">cinder/Camera.h</text>
</a>
</g>
</g>
<!-- Node1&#45;&gt;Node2 -->
<g id="edge1" class="edge"><title>Node1&#45;&gt;Node2</title>
<path fill="none" stroke="midnightblue" d="M702.422,-580.753C693.808,-572.435 680.961,-560.031 670.664,-550.089"/>
<polygon fill="midnightblue" stroke="midnightblue" points="673.024,-547.503 663.399,-543.075 668.162,-552.539 673.024,-547.503"/>
</g>
<!-- Node26 -->
<g id="node26" class="node"><title>Node26</title>
<g id="a_node26"><a xlink:href="_sphere_8h.html" target="_top" xlink:title="cinder/Sphere.h">
<polygon fill="white" stroke="black" points="727.7,-523 727.7,-543 814.3,-543 814.3,-523 727.7,-523"/>
<text text-anchor="middle" x="771" y="-529" font-family="Helvetica,sans-Serif" font-size="10.00">cinder/Sphere.h</text>
</a>
</g>
</g>
<!-- Node1&#45;&gt;Node26 -->
<g id="edge53" class="edge"><title>Node1&#45;&gt;Node26</title>
<path fill="none" stroke="midnightblue" d="M721.743,-580.753C730.506,-572.435 743.575,-560.031 754.049,-550.089"/>
<polygon fill="midnightblue" stroke="midnightblue" points="756.595,-552.498 761.439,-543.075 751.776,-547.421 756.595,-552.498"/>
</g>
<!-- Node3 -->
<g id="node3" class="node"><title>Node3</title>
<g id="a_node3"><a xlink:href="_vector_8h.html" target="_top" xlink:title="cinder/Vector.h">
<polygon fill="white" stroke="black" points="605.919,-175 605.919,-195 688.081,-195 688.081,-175 605.919,-175"/>
<text text-anchor="middle" x="647" y="-181" font-family="Helvetica,sans-Serif" font-size="10.00">cinder/Vector.h</text>
</a>
</g>
</g>
<!-- Node2&#45;&gt;Node3 -->
<g id="edge2" class="edge"><title>Node2&#45;&gt;Node3</title>
<path fill="none" stroke="midnightblue" d="M654,-522.838C654,-503.48 654,-456.99 654,-418 654,-418 654,-418 654,-300 654,-266.583 650.966,-227.759 648.893,-205.129"/>
<polygon fill="midnightblue" stroke="midnightblue" points="652.375,-204.774 647.944,-195.15 645.407,-205.436 652.375,-204.774"/>
</g>
<!-- Node17 -->
<g id="node17" class="node"><title>Node17</title>
<g id="a_node17"><a xlink:href="_matrix_8h.html" target="_top" xlink:title="cinder/Matrix.h">
<polygon fill="white" stroke="black" points="331.212,-407 331.212,-427 412.788,-427 412.788,-407 331.212,-407"/>
<text text-anchor="middle" x="372" y="-413" font-family="Helvetica,sans-Serif" font-size="10.00">cinder/Matrix.h</text>
</a>
</g>
</g>
<!-- Node2&#45;&gt;Node17 -->
<g id="edge17" class="edge"><title>Node2&#45;&gt;Node17</title>
<path fill="none" stroke="midnightblue" d="M622.206,-522.958C593.342,-514.436 549.79,-500.795 513,-486 471.949,-469.491 426.085,-446.478 398.133,-431.911"/>
<polygon fill="midnightblue" stroke="midnightblue" points="399.511,-428.681 389.03,-427.135 396.259,-434.88 399.511,-428.681"/>
</g>
<!-- Node24 -->
<g id="node24" class="node"><title>Node24</title>
<g id="a_node24"><a xlink:href="_quaternion_8h.html" target="_top" xlink:title="cinder/Quaternion.h">
<polygon fill="white" stroke="black" points="522.084,-465 522.084,-485 625.916,-485 625.916,-465 522.084,-465"/>
<text text-anchor="middle" x="574" y="-471" font-family="Helvetica,sans-Serif" font-size="10.00">cinder/Quaternion.h</text>
</a>
</g>
</g>
<!-- Node2&#45;&gt;Node24 -->
<g id="edge47" class="edge"><title>Node2&#45;&gt;Node24</title>
<path fill="none" stroke="midnightblue" d="M640.79,-522.753C628.441,-514.109 609.788,-501.052 595.331,-490.931"/>
<polygon fill="midnightblue" stroke="midnightblue" points="597.164,-487.943 586.965,-485.075 593.15,-493.677 597.164,-487.943"/>
</g>
<!-- Node25 -->
<g id="node25" class="node"><title>Node25</title>
<g id="a_node25"><a xlink:href="_ray_8h.html" target="_top" xlink:title="cinder/Ray.h">
<polygon fill="white" stroke="black" points="682.3,-465 682.3,-485 753.7,-485 753.7,-465 682.3,-465"/>
<text text-anchor="middle" x="718" y="-471" font-family="Helvetica,sans-Serif" font-size="10.00">cinder/Ray.h</text>
</a>
</g>
</g>
<!-- Node2&#45;&gt;Node25 -->
<g id="edge51" class="edge"><title>Node2&#45;&gt;Node25</title>
<path fill="none" stroke="midnightblue" d="M664.568,-522.753C674.168,-514.353 688.529,-501.787 699.946,-491.798"/>
<polygon fill="midnightblue" stroke="midnightblue" points="702.407,-494.294 707.628,-485.075 697.798,-489.026 702.407,-494.294"/>
</g>
<!-- Node4 -->
<g id="node4" class="node"><title>Node4</title>
<polygon fill="white" stroke="#bfbfbf" points="617.384,-59 617.384,-79 660.616,-79 660.616,-59 617.384,-59"/>
<text text-anchor="middle" x="639" y="-65" font-family="Helvetica,sans-Serif" font-size="10.00">cmath</text>
</g>
<!-- Node3&#45;&gt;Node4 -->
<g id="edge3" class="edge"><title>Node3&#45;&gt;Node4</title>
<path fill="none" stroke="midnightblue" d="M651.706,-174.741C657.761,-161.638 666.944,-136.943 662,-116 659.67,-106.132 654.882,-95.9664 650.274,-87.7097"/>
<polygon fill="midnightblue" stroke="midnightblue" points="653.228,-85.8295 645.106,-79.0259 647.212,-89.4093 653.228,-85.8295"/>
</g>
<!-- Node5 -->
<g id="node5" class="node"><title>Node5</title>
<polygon fill="white" stroke="#bfbfbf" points="765.273,-117 765.273,-137 810.727,-137 810.727,-117 765.273,-117"/>
<text text-anchor="middle" x="788" y="-123" font-family="Helvetica,sans-Serif" font-size="10.00">cstring</text>
</g>
<!-- Node3&#45;&gt;Node5 -->
<g id="edge4" class="edge"><title>Node3&#45;&gt;Node5</title>
<path fill="none" stroke="midnightblue" d="M669.968,-174.878C693.218,-165.644 729.377,-151.283 755.548,-140.889"/>
<polygon fill="midnightblue" stroke="midnightblue" points="757.04,-144.062 765.042,-137.118 754.456,-137.556 757.04,-144.062"/>
</g>
<!-- Node6 -->
<g id="node6" class="node"><title>Node6</title>
<polygon fill="white" stroke="#bfbfbf" points="532.828,-117 532.828,-137 587.172,-137 587.172,-117 532.828,-117"/>
<text text-anchor="middle" x="560" y="-123" font-family="Helvetica,sans-Serif" font-size="10.00">iostream</text>
</g>
<!-- Node3&#45;&gt;Node6 -->
<g id="edge5" class="edge"><title>Node3&#45;&gt;Node6</title>
<path fill="none" stroke="midnightblue" d="M632.634,-174.753C619.078,-166.027 598.536,-152.805 582.753,-142.646"/>
<polygon fill="midnightblue" stroke="midnightblue" points="584.402,-139.545 574.099,-137.075 580.613,-145.431 584.402,-139.545"/>
</g>
<!-- Node7 -->
<g id="node7" class="node"><title>Node7</title>
<polygon fill="white" stroke="#bfbfbf" points="604.884,-117 604.884,-137 653.116,-137 653.116,-117 604.884,-117"/>
<text text-anchor="middle" x="629" y="-123" font-family="Helvetica,sans-Serif" font-size="10.00">cassert</text>
</g>
<!-- Node3&#45;&gt;Node7 -->
<g id="edge6" class="edge"><title>Node3&#45;&gt;Node7</title>
<path fill="none" stroke="midnightblue" d="M644.028,-174.753C641.59,-167.169 638.06,-156.188 635.034,-146.774"/>
<polygon fill="midnightblue" stroke="midnightblue" points="638.309,-145.524 631.917,-137.075 631.645,-147.667 638.309,-145.524"/>
</g>
<!-- Node8 -->
<g id="node8" class="node"><title>Node8</title>
<polygon fill="white" stroke="#bfbfbf" points="708.613,-117 708.613,-137 747.387,-137 747.387,-117 708.613,-117"/>
<text text-anchor="middle" x="728" y="-123" font-family="Helvetica,sans-Serif" font-size="10.00">limits</text>
</g>
<!-- Node3&#45;&gt;Node8 -->
<g id="edge7" class="edge"><title>Node3&#45;&gt;Node8</title>
<path fill="none" stroke="midnightblue" d="M660.376,-174.753C672.878,-166.109 691.764,-153.052 706.403,-142.931"/>
<polygon fill="midnightblue" stroke="midnightblue" points="708.638,-145.641 714.873,-137.075 704.657,-139.883 708.638,-145.641"/>
</g>
<!-- Node9 -->
<g id="node9" class="node"><title>Node9</title>
<g id="a_node9"><a xlink:href="_cinder_math_8h.html" target="_top" xlink:title="cinder/CinderMath.h">
<polygon fill="white" stroke="black" points="408.978,-117 408.978,-137 515.022,-137 515.022,-117 408.978,-117"/>
<text text-anchor="middle" x="462" y="-123" font-family="Helvetica,sans-Serif" font-size="10.00">cinder/CinderMath.h</text>
</a>
</g>
</g>
<!-- Node3&#45;&gt;Node9 -->
<g id="edge8" class="edge"><title>Node3&#45;&gt;Node9</title>
<path fill="none" stroke="midnightblue" d="M616.865,-174.878C585.461,-165.372 536.105,-150.432 501.576,-139.98"/>
<polygon fill="midnightblue" stroke="midnightblue" points="502.401,-136.573 491.816,-137.025 500.373,-143.272 502.401,-136.573"/>
</g>
<!-- Node10 -->
<g id="node10" class="node"><title>Node10</title>
<g id="a_node10"><a xlink:href="_cinder_8h.html" target="_top" xlink:title="cinder/Cinder.h">
<polygon fill="white" stroke="black" points="155.367,-59 155.367,-79 238.633,-79 238.633,-59 155.367,-59"/>
<text text-anchor="middle" x="197" y="-65" font-family="Helvetica,sans-Serif" font-size="10.00">cinder/Cinder.h</text>
</a>
</g>
</g>
<!-- Node9&#45;&gt;Node10 -->
<g id="edge9" class="edge"><title>Node9&#45;&gt;Node10</title>
<path fill="none" stroke="midnightblue" d="M419.129,-116.94C372.671,-107.123 298.537,-91.457 248.841,-80.9551"/>
<polygon fill="midnightblue" stroke="midnightblue" points="249.442,-77.5049 238.935,-78.8617 247.995,-84.3537 249.442,-77.5049"/>
</g>
<!-- Node9&#45;&gt;Node4 -->
<g id="edge13" class="edge"><title>Node9&#45;&gt;Node4</title>
<path fill="none" stroke="midnightblue" d="M490.832,-116.878C522.88,-106.739 574.468,-90.4169 607.54,-79.9536"/>
<polygon fill="midnightblue" stroke="midnightblue" points="608.688,-83.2612 617.167,-76.9077 606.577,-76.5873 608.688,-83.2612"/>
</g>
<!-- Node14 -->
<g id="node14" class="node"><title>Node14</title>
<polygon fill="white" stroke="#bfbfbf" points="380.113,-59 380.113,-79 423.887,-79 423.887,-59 380.113,-59"/>
<text text-anchor="middle" x="402" y="-65" font-family="Helvetica,sans-Serif" font-size="10.00">climits</text>
</g>
<!-- Node9&#45;&gt;Node14 -->
<g id="edge14" class="edge"><title>Node9&#45;&gt;Node14</title>
<path fill="none" stroke="midnightblue" d="M452.092,-116.753C443.18,-108.435 429.89,-96.031 419.238,-86.0893"/>
<polygon fill="midnightblue" stroke="midnightblue" points="421.422,-83.3397 411.723,-79.0752 416.646,-88.4571 421.422,-83.3397"/>
</g>
<!-- Node15 -->
<g id="node15" class="node"><title>Node15</title>
<polygon fill="white" stroke="#bfbfbf" points="442.049,-59 442.049,-79 481.951,-79 481.951,-59 442.049,-59"/>
<text text-anchor="middle" x="462" y="-65" font-family="Helvetica,sans-Serif" font-size="10.00">cfloat</text>
</g>
<!-- Node9&#45;&gt;Node15 -->
<g id="edge15" class="edge"><title>Node9&#45;&gt;Node15</title>
<path fill="none" stroke="midnightblue" d="M462,-116.753C462,-109.25 462,-98.4238 462,-89.0781"/>
<polygon fill="midnightblue" stroke="midnightblue" points="465.5,-89.0752 462,-79.0752 458.5,-89.0752 465.5,-89.0752"/>
</g>
<!-- Node16 -->
<g id="node16" class="node"><title>Node16</title>
<polygon fill="white" stroke="#bfbfbf" points="499.596,-59 499.596,-79 558.404,-79 558.404,-59 499.596,-59"/>
<text text-anchor="middle" x="529" y="-65" font-family="Helvetica,sans-Serif" font-size="10.00">functional</text>
</g>
<!-- Node9&#45;&gt;Node16 -->
<g id="edge16" class="edge"><title>Node9&#45;&gt;Node16</title>
<path fill="none" stroke="midnightblue" d="M473.064,-116.753C483.21,-108.272 498.44,-95.543 510.447,-85.5073"/>
<polygon fill="midnightblue" stroke="midnightblue" points="512.714,-88.1738 518.142,-79.0752 508.225,-82.8028 512.714,-88.1738"/>
</g>
<!-- Node11 -->
<g id="node11" class="node"><title>Node11</title>
<polygon fill="white" stroke="#bfbfbf" points="86.5493,-1 86.5493,-21 131.451,-21 131.451,-1 86.5493,-1"/>
<text text-anchor="middle" x="109" y="-7" font-family="Helvetica,sans-Serif" font-size="10.00">cstdint</text>
</g>
<!-- Node10&#45;&gt;Node11 -->
<g id="edge10" class="edge"><title>Node10&#45;&gt;Node11</title>
<path fill="none" stroke="midnightblue" d="M182.469,-58.7527C168.757,-50.0272 147.979,-36.8051 132.015,-26.6458"/>
<polygon fill="midnightblue" stroke="midnightblue" points="133.577,-23.4912 123.261,-21.0752 129.819,-29.3968 133.577,-23.4912"/>
</g>
<!-- Node12 -->
<g id="node12" class="node"><title>Node12</title>
<polygon fill="white" stroke="#bfbfbf" points="149.53,-1 149.53,-21 244.47,-21 244.47,-1 149.53,-1"/>
<text text-anchor="middle" x="197" y="-7" font-family="Helvetica,sans-Serif" font-size="10.00">boost/version.hpp</text>
</g>
<!-- Node10&#45;&gt;Node12 -->
<g id="edge11" class="edge"><title>Node10&#45;&gt;Node12</title>
<path fill="none" stroke="midnightblue" d="M197,-58.7527C197,-51.2504 197,-40.4238 197,-31.0781"/>
<polygon fill="midnightblue" stroke="midnightblue" points="200.5,-31.0752 197,-21.0752 193.5,-31.0752 200.5,-31.0752"/>
</g>
<!-- Node13 -->
<g id="node13" class="node"><title>Node13</title>
<polygon fill="white" stroke="#bfbfbf" points="262.621,-1 262.621,-21 395.379,-21 395.379,-1 262.621,-1"/>
<text text-anchor="middle" x="329" y="-7" font-family="Helvetica,sans-Serif" font-size="10.00">boost/checked_delete.hpp</text>
</g>
<!-- Node10&#45;&gt;Node13 -->
<g id="edge12" class="edge"><title>Node10&#45;&gt;Node13</title>
<path fill="none" stroke="midnightblue" d="M218.502,-58.878C240.172,-49.6848 273.821,-35.4095 298.295,-25.0263"/>
<polygon fill="midnightblue" stroke="midnightblue" points="299.668,-28.2457 307.507,-21.1181 296.935,-21.8016 299.668,-28.2457"/>
</g>
<!-- Node17&#45;&gt;Node10 -->
<g id="edge18" class="edge"><title>Node17&#45;&gt;Node10</title>
<path fill="none" stroke="midnightblue" d="M331.125,-412.218C234.49,-402.149 0,-370.646 0,-302 0,-302 0,-302 0,-184 0,-116.901 86.6734,-88.6596 145.039,-77.2483"/>
<polygon fill="midnightblue" stroke="midnightblue" points="146.022,-80.6261 155.221,-75.3701 144.752,-73.7423 146.022,-80.6261"/>
</g>
<!-- Node17&#45;&gt;Node9 -->
<g id="edge19" class="edge"><title>Node17&#45;&gt;Node9</title>
<path fill="none" stroke="midnightblue" d="M413.097,-407.166C462.834,-393.779 540,-363.155 540,-302 540,-302 540,-302 540,-242 540,-200.993 505.198,-163.904 482.087,-143.795"/>
<polygon fill="midnightblue" stroke="midnightblue" points="484.101,-140.917 474.188,-137.179 479.607,-146.283 484.101,-140.917"/>
</g>
<!-- Node18 -->
<g id="node18" class="node"><title>Node18</title>
<g id="a_node18"><a xlink:href="_matrix22_8h.html" target="_top" xlink:title="cinder/Matrix22.h">
<polygon fill="white" stroke="black" points="381.65,-233 381.65,-253 474.35,-253 474.35,-233 381.65,-233"/>
<text text-anchor="middle" x="428" y="-239" font-family="Helvetica,sans-Serif" font-size="10.00">cinder/Matrix22.h</text>
</a>
</g>
</g>
<!-- Node17&#45;&gt;Node18 -->
<g id="edge20" class="edge"><title>Node17&#45;&gt;Node18</title>
<path fill="none" stroke="midnightblue" d="M391.285,-406.941C405.151,-399.26 422.793,-386.806 431,-370 447.896,-335.403 440.148,-288.838 433.651,-263.103"/>
<polygon fill="midnightblue" stroke="midnightblue" points="436.945,-261.877 430.933,-253.152 430.192,-263.721 436.945,-261.877"/>
</g>
<!-- Node20 -->
<g id="node20" class="node"><title>Node20</title>
<g id="a_node20"><a xlink:href="_matrix_affine2_8h.html" target="_top" xlink:title="cinder/MatrixAffine2.h">
<polygon fill="white" stroke="black" points="65.6455,-233 65.6455,-253 178.354,-253 178.354,-233 65.6455,-233"/>
<text text-anchor="middle" x="122" y="-239" font-family="Helvetica,sans-Serif" font-size="10.00">cinder/MatrixAffine2.h</text>
</a>
</g>
</g>
<!-- Node17&#45;&gt;Node20 -->
<g id="edge25" class="edge"><title>Node17&#45;&gt;Node20</title>
<path fill="none" stroke="midnightblue" d="M344.162,-406.959C321.602,-398.984 289.487,-386.129 264,-370 212.733,-337.557 161.774,-286.623 137.187,-260.565"/>
<polygon fill="midnightblue" stroke="midnightblue" points="139.544,-257.96 130.164,-253.034 134.424,-262.734 139.544,-257.96"/>
</g>
<!-- Node21 -->
<g id="node21" class="node"><title>Node21</title>
<g id="a_node21"><a xlink:href="_matrix33_8h.html" target="_top" xlink:title="cinder/Matrix33.h">
<polygon fill="white" stroke="black" points="233.65,-233 233.65,-253 326.35,-253 326.35,-233 233.65,-233"/>
<text text-anchor="middle" x="280" y="-239" font-family="Helvetica,sans-Serif" font-size="10.00">cinder/Matrix33.h</text>
</a>
</g>
</g>
<!-- Node17&#45;&gt;Node21 -->
<g id="edge30" class="edge"><title>Node17&#45;&gt;Node21</title>
<path fill="none" stroke="midnightblue" d="M350.607,-406.981C319.35,-392.403 262.771,-360.325 243,-312 235.512,-293.699 248.852,-273.974 261.552,-260.506"/>
<polygon fill="midnightblue" stroke="midnightblue" points="264.136,-262.873 268.794,-253.358 259.219,-257.892 264.136,-262.873"/>
</g>
<!-- Node22 -->
<g id="node22" class="node"><title>Node22</title>
<g id="a_node22"><a xlink:href="_matrix44_8h.html" target="_top" xlink:title="cinder/Matrix44.h">
<polygon fill="white" stroke="black" points="251.65,-291 251.65,-311 344.35,-311 344.35,-291 251.65,-291"/>
<text text-anchor="middle" x="298" y="-297" font-family="Helvetica,sans-Serif" font-size="10.00">cinder/Matrix44.h</text>
</a>
</g>
</g>
<!-- Node17&#45;&gt;Node22 -->
<g id="edge35" class="edge"><title>Node17&#45;&gt;Node22</title>
<path fill="none" stroke="midnightblue" d="M354.204,-406.975C340.51,-399.09 322.247,-386.349 312,-370 302.807,-355.333 299.523,-335.723 298.41,-321.331"/>
<polygon fill="midnightblue" stroke="midnightblue" points="301.895,-320.92 297.913,-311.101 294.903,-321.26 301.895,-320.92"/>
</g>
<!-- Node23 -->
<g id="node23" class="node"><title>Node23</title>
<g id="a_node23"><a xlink:href="_matrix_algo_8h.html" target="_top" xlink:title="cinder/MatrixAlgo.h">
<polygon fill="white" stroke="black" points="321.205,-349 321.205,-369 422.795,-369 422.795,-349 321.205,-349"/>
<text text-anchor="middle" x="372" y="-355" font-family="Helvetica,sans-Serif" font-size="10.00">cinder/MatrixAlgo.h</text>
</a>
</g>
</g>
<!-- Node17&#45;&gt;Node23 -->
<g id="edge43" class="edge"><title>Node17&#45;&gt;Node23</title>
<path fill="none" stroke="midnightblue" d="M372,-406.753C372,-399.25 372,-388.424 372,-379.078"/>
<polygon fill="midnightblue" stroke="midnightblue" points="375.5,-379.075 372,-369.075 368.5,-379.075 375.5,-379.075"/>
</g>
<!-- Node18&#45;&gt;Node10 -->
<g id="edge21" class="edge"><title>Node18&#45;&gt;Node10</title>
<path fill="none" stroke="midnightblue" d="M415.906,-232.995C378.492,-205.137 264.341,-120.141 217.444,-85.2225"/>
<polygon fill="midnightblue" stroke="midnightblue" points="219.364,-82.2886 209.253,-79.1237 215.184,-87.9032 219.364,-82.2886"/>
</g>
<!-- Node18&#45;&gt;Node9 -->
<g id="edge22" class="edge"><title>Node18&#45;&gt;Node9</title>
<path fill="none" stroke="midnightblue" d="M430.782,-232.671C436.364,-213.957 449.021,-171.517 456.39,-146.809"/>
<polygon fill="midnightblue" stroke="midnightblue" points="459.77,-147.723 459.274,-137.139 453.062,-145.722 459.77,-147.723"/>
</g>
<!-- Node18&#45;&gt;Node3 -->
<g id="edge23" class="edge"><title>Node18&#45;&gt;Node3</title>
<path fill="none" stroke="midnightblue" d="M463.674,-232.878C501.408,-223.229 561.036,-207.982 601.981,-197.512"/>
<polygon fill="midnightblue" stroke="midnightblue" points="602.883,-200.894 611.705,-195.025 601.149,-194.112 602.883,-200.894"/>
</g>
<!-- Node19 -->
<g id="node19" class="node"><title>Node19</title>
<polygon fill="white" stroke="#bfbfbf" points="191.49,-175 191.49,-195 242.51,-195 242.51,-175 191.49,-175"/>
<text text-anchor="middle" x="217" y="-181" font-family="Helvetica,sans-Serif" font-size="10.00">iomanip</text>
</g>
<!-- Node18&#45;&gt;Node19 -->
<g id="edge24" class="edge"><title>Node18&#45;&gt;Node19</title>
<path fill="none" stroke="midnightblue" d="M393.63,-232.878C354.742,-222.557 291.719,-205.831 252.408,-195.397"/>
<polygon fill="midnightblue" stroke="midnightblue" points="253.276,-192.007 242.713,-192.824 251.48,-198.772 253.276,-192.007"/>
</g>
<!-- Node20&#45;&gt;Node10 -->
<g id="edge26" class="edge"><title>Node20&#45;&gt;Node10</title>
<path fill="none" stroke="midnightblue" d="M126.032,-232.753C137.885,-205.571 172.783,-125.538 188.797,-88.8111"/>
<polygon fill="midnightblue" stroke="midnightblue" points="192.159,-89.8586 192.948,-79.2932 185.742,-87.0607 192.159,-89.8586"/>
</g>
<!-- Node20&#45;&gt;Node9 -->
<g id="edge27" class="edge"><title>Node20&#45;&gt;Node9</title>
<path fill="none" stroke="midnightblue" d="M127.257,-232.708C136.313,-217.649 156.376,-188.176 182,-174 218.258,-153.941 327.774,-140.381 398.611,-133.44"/>
<polygon fill="midnightblue" stroke="midnightblue" points="399.149,-136.905 408.768,-132.464 398.479,-129.937 399.149,-136.905"/>
</g>
<!-- Node20&#45;&gt;Node3 -->
<g id="edge28" class="edge"><title>Node20&#45;&gt;Node3</title>
<path fill="none" stroke="midnightblue" d="M178.433,-235.98C281.13,-225.026 497.045,-201.995 595.772,-191.464"/>
<polygon fill="midnightblue" stroke="midnightblue" points="596.231,-194.935 605.803,-190.394 595.489,-187.975 596.231,-194.935"/>
</g>
<!-- Node20&#45;&gt;Node19 -->
<g id="edge29" class="edge"><title>Node20&#45;&gt;Node19</title>
<path fill="none" stroke="midnightblue" d="M137.687,-232.753C152.628,-223.946 175.34,-210.558 192.636,-200.362"/>
<polygon fill="midnightblue" stroke="midnightblue" points="194.767,-203.169 201.605,-195.075 191.213,-197.138 194.767,-203.169"/>
</g>
<!-- Node21&#45;&gt;Node10 -->
<g id="edge31" class="edge"><title>Node21&#45;&gt;Node10</title>
<path fill="none" stroke="midnightblue" d="M276.28,-232.662C270.963,-219.464 260.752,-194.659 251,-174 236.522,-143.327 217.999,-108.497 206.84,-87.9333"/>
<polygon fill="midnightblue" stroke="midnightblue" points="209.864,-86.1685 202.003,-79.0651 203.719,-89.5202 209.864,-86.1685"/>
</g>
<!-- Node21&#45;&gt;Node9 -->
<g id="edge32" class="edge"><title>Node21&#45;&gt;Node9</title>
<path fill="none" stroke="midnightblue" d="M285.911,-232.794C295.594,-218.386 316.159,-190.457 340,-174 362.413,-158.528 390.705,-147.439 414.4,-140.03"/>
<polygon fill="midnightblue" stroke="midnightblue" points="415.67,-143.303 424.244,-137.078 413.66,-136.598 415.67,-143.303"/>
</g>
<!-- Node21&#45;&gt;Node3 -->
<g id="edge33" class="edge"><title>Node21&#45;&gt;Node3</title>
<path fill="none" stroke="midnightblue" d="M326.481,-234.908C395.328,-224.402 523.963,-204.774 595.56,-193.849"/>
<polygon fill="midnightblue" stroke="midnightblue" points="596.338,-197.271 605.696,-192.303 595.282,-190.351 596.338,-197.271"/>
</g>
<!-- Node21&#45;&gt;Node19 -->
<g id="edge34" class="edge"><title>Node21&#45;&gt;Node19</title>
<path fill="none" stroke="midnightblue" d="M269.597,-232.753C260.148,-224.353 246.011,-211.787 234.772,-201.798"/>
<polygon fill="midnightblue" stroke="midnightblue" points="237.009,-199.103 227.21,-195.075 232.358,-204.335 237.009,-199.103"/>
</g>
<!-- Node22&#45;&gt;Node10 -->
<g id="edge36" class="edge"><title>Node22&#45;&gt;Node10</title>
<path fill="none" stroke="midnightblue" d="M251.509,-297.943C188.539,-294.07 81.1972,-283.253 57,-254 6.07446,-192.435 118.98,-115.369 171.736,-84.1266"/>
<polygon fill="midnightblue" stroke="midnightblue" points="173.653,-87.0601 180.539,-79.0079 170.135,-81.0086 173.653,-87.0601"/>
</g>
<!-- Node22&#45;&gt;Node9 -->
<g id="edge37" class="edge"><title>Node22&#45;&gt;Node9</title>
<path fill="none" stroke="midnightblue" d="M306.817,-290.753C333.18,-263.104 411.68,-180.775 445.83,-144.958"/>
<polygon fill="midnightblue" stroke="midnightblue" points="448.771,-146.946 453.139,-137.293 443.705,-142.115 448.771,-146.946"/>
</g>
<!-- Node22&#45;&gt;Node3 -->
<g id="edge38" class="edge"><title>Node22&#45;&gt;Node3</title>
<path fill="none" stroke="midnightblue" d="M342.259,-290.946C380.07,-282.749 435.694,-269.592 483,-254 531.549,-237.999 586.022,-214.191 618.37,-199.407"/>
<polygon fill="midnightblue" stroke="midnightblue" points="620.047,-202.488 627.667,-195.127 617.12,-196.13 620.047,-202.488"/>
</g>
<!-- Node22&#45;&gt;Node18 -->
<g id="edge39" class="edge"><title>Node22&#45;&gt;Node18</title>
<path fill="none" stroke="midnightblue" d="M319.176,-290.878C340.423,-281.725 373.364,-267.536 397.44,-257.164"/>
<polygon fill="midnightblue" stroke="midnightblue" points="399.034,-260.289 406.833,-253.118 396.264,-253.86 399.034,-260.289"/>
</g>
<!-- Node22&#45;&gt;Node21 -->
<g id="edge40" class="edge"><title>Node22&#45;&gt;Node21</title>
<path fill="none" stroke="midnightblue" d="M295.028,-290.753C292.59,-283.169 289.06,-272.188 286.034,-262.774"/>
<polygon fill="midnightblue" stroke="midnightblue" points="289.309,-261.524 282.917,-253.075 282.645,-263.667 289.309,-261.524"/>
</g>
<!-- Node22&#45;&gt;Node20 -->
<g id="edge41" class="edge"><title>Node22&#45;&gt;Node20</title>
<path fill="none" stroke="midnightblue" d="M269.331,-290.878C239.583,-281.413 192.902,-266.56 160.074,-256.115"/>
<polygon fill="midnightblue" stroke="midnightblue" points="160.956,-252.722 150.365,-253.025 158.833,-259.393 160.956,-252.722"/>
</g>
<!-- Node22&#45;&gt;Node19 -->
<g id="edge42" class="edge"><title>Node22&#45;&gt;Node19</title>
<path fill="none" stroke="midnightblue" d="M273.155,-290.993C256.677,-283.659 236.11,-271.61 225,-254 215.892,-239.562 214.485,-219.924 215.005,-205.463"/>
<polygon fill="midnightblue" stroke="midnightblue" points="218.518,-205.394 215.725,-195.174 211.536,-204.905 218.518,-205.394"/>
</g>
<!-- Node23&#45;&gt;Node18 -->
<g id="edge44" class="edge"><title>Node23&#45;&gt;Node18</title>
<path fill="none" stroke="midnightblue" d="M376.583,-348.671C385.858,-329.789 406.998,-286.754 419.085,-262.149"/>
<polygon fill="midnightblue" stroke="midnightblue" points="422.243,-263.658 423.51,-253.139 415.96,-260.572 422.243,-263.658"/>
</g>
<!-- Node23&#45;&gt;Node21 -->
<g id="edge45" class="edge"><title>Node23&#45;&gt;Node21</title>
<path fill="none" stroke="midnightblue" d="M371.497,-348.723C370.311,-334.711 366.332,-307.888 353,-290 342.573,-276.009 326.52,-265.227 312.121,-257.629"/>
<polygon fill="midnightblue" stroke="midnightblue" points="313.488,-254.4 302.973,-253.095 310.379,-260.672 313.488,-254.4"/>
</g>
<!-- Node23&#45;&gt;Node22 -->
<g id="edge46" class="edge"><title>Node23&#45;&gt;Node22</title>
<path fill="none" stroke="midnightblue" d="M359.78,-348.753C348.466,-340.19 331.429,-327.298 318.11,-317.219"/>
<polygon fill="midnightblue" stroke="midnightblue" points="320.078,-314.319 309.992,-311.075 315.854,-319.901 320.078,-314.319"/>
</g>
<!-- Node24&#45;&gt;Node9 -->
<g id="edge48" class="edge"><title>Node24&#45;&gt;Node9</title>
<path fill="none" stroke="midnightblue" d="M574.539,-464.842C575.631,-445.491 578,-399.014 578,-360 578,-360 578,-360 578,-242 578,-193.865 526.562,-159.285 492.191,-141.553"/>
<polygon fill="midnightblue" stroke="midnightblue" points="493.521,-138.305 483.007,-137.001 490.412,-144.577 493.521,-138.305"/>
</g>
<!-- Node24&#45;&gt;Node3 -->
<g id="edge49" class="edge"><title>Node24&#45;&gt;Node3</title>
<path fill="none" stroke="midnightblue" d="M579.84,-464.962C591.38,-446.203 616,-401.341 616,-360 616,-360 616,-360 616,-300 616,-265.296 629.542,-226.666 638.726,-204.46"/>
<polygon fill="midnightblue" stroke="midnightblue" points="641.961,-205.796 642.69,-195.226 635.529,-203.035 641.961,-205.796"/>
</g>
<!-- Node24&#45;&gt;Node17 -->
<g id="edge50" class="edge"><title>Node24&#45;&gt;Node17</title>
<path fill="none" stroke="midnightblue" d="M541.096,-464.878C506.511,-455.29 451.988,-440.175 414.245,-429.712"/>
<polygon fill="midnightblue" stroke="midnightblue" points="415.127,-426.324 404.556,-427.025 413.257,-433.07 415.127,-426.324"/>
</g>
<!-- Node25&#45;&gt;Node3 -->
<g id="edge52" class="edge"><title>Node25&#45;&gt;Node3</title>
<path fill="none" stroke="midnightblue" d="M716.247,-464.879C712.698,-445.597 705,-399.242 705,-360 705,-360 705,-360 705,-300 705,-262.137 679.27,-224.139 662.085,-202.982"/>
<polygon fill="midnightblue" stroke="midnightblue" points="664.68,-200.63 655.558,-195.241 659.328,-205.142 664.68,-200.63"/>
</g>
<!-- Node26&#45;&gt;Node3 -->
<g id="edge54" class="edge"><title>Node26&#45;&gt;Node3</title>
<path fill="none" stroke="midnightblue" d="M772.484,-522.867C775.486,-503.564 782,-457.171 782,-418 782,-418 782,-418 782,-300 782,-248.422 723.766,-215.42 683.792,-198.841"/>
<polygon fill="midnightblue" stroke="midnightblue" points="684.905,-195.518 674.319,-195.074 682.318,-202.022 684.905,-195.518"/>
</g>
<!-- Node26&#45;&gt;Node25 -->
<g id="edge55" class="edge"><title>Node26&#45;&gt;Node25</title>
<path fill="none" stroke="midnightblue" d="M762.248,-522.753C754.453,-514.516 742.866,-502.274 733.505,-492.382"/>
<polygon fill="midnightblue" stroke="midnightblue" points="736.005,-489.932 726.589,-485.075 730.921,-494.744 736.005,-489.932"/>
</g>
<!-- Node27 -->
<g id="node27" class="node"><title>Node27</title>
<polygon fill="white" stroke="#bfbfbf" points="810.384,-465 810.384,-485 853.616,-485 853.616,-465 810.384,-465"/>
<text text-anchor="middle" x="832" y="-471" font-family="Helvetica,sans-Serif" font-size="10.00">vector</text>
</g>
<!-- Node26&#45;&gt;Node27 -->
<g id="edge56" class="edge"><title>Node26&#45;&gt;Node27</title>
<path fill="none" stroke="midnightblue" d="M781.073,-522.753C790.133,-514.435 803.645,-502.031 814.474,-492.089"/>
<polygon fill="midnightblue" stroke="midnightblue" points="817.115,-494.416 822.115,-485.075 812.381,-489.26 817.115,-494.416"/>
</g>
</g>
</svg>
