<?xml version="1.0" encoding="UTF-8" standalone="no"?>
<!DOCTYPE svg PUBLIC "-//W3C//DTD SVG 1.1//EN"
 "http://www.w3.org/Graphics/SVG/1.1/DTD/svg11.dtd">
<!-- Generated by graphviz version 2.30.1 (20140712.1814)
 -->
<!-- Title: include/cinder/Camera.h Pages: 1 -->
<!--zoomable 158 -->
<svg id="main" version="1.1" xmlns="http://www.w3.org/2000/svg" xmlns:xlink="http://www.w3.org/1999/xlink" xml:space="preserve" onload="init(evt)">
<style type="text/css"><![CDATA[
.edge:hover path { stroke: red; }
.edge:hover polygon { stroke: red; fill: red; }
]]></style>
<script type="text/javascript"><![CDATA[
var edges = document.getElementsByTagName('g');
if (edges && edges.length) {
  for (var i=0;i<edges.length;i++) {
    if (edges[i].id.substr(0,4)=='edge') {
      edges[i].setAttribute('class','edge');
    }
  }
}
]]></script>
        <defs>
                <circle id="rim" cx="0" cy="0" r="7"/>
                <circle id="rim2" cx="0" cy="0" r="3.5"/>
                <g id="zoomPlus">
                        <use xlink:href="#rim" fill="#404040">
                                <set attributeName="fill" to="#808080" begin="zoomplus.mouseover" end="zoomplus.mouseout"/>
                        </use>
                        <path d="M-4,0h8M0,-4v8" fill="none" stroke="white" stroke-width="1.5" pointer-events="none"/>
                </g>
                <g id="zoomMin">
                        <use xlink:href="#rim" fill="#404040">
                                <set attributeName="fill" to="#808080" begin="zoomminus.mouseover" end="zoomminus.mouseout"/>
                        </use>
                        <path d="M-4,0h8" fill="none" stroke="white" stroke-width="1.5" pointer-events="none"/>
                </g>
                <g id="dirArrow">
                        <path fill="none" stroke="white" stroke-width="1.5" d="M0,-3.0v7 M-2.5,-0.5L0,-3.0L2.5,-0.5"/>
                </g>
               <g id="resetDef">
                       <use xlink:href="#rim2" fill="#404040">
                               <set attributeName="fill" to="#808080" begin="reset.mouseover" end="reset.mouseout"/>
                       </use>
               </g>
        </defs>

<script type="text/javascript">
var viewWidth = 1799;
var viewHeight = 158;
var sectionId = 'dynsection-1';
</script>
<script xlink:href="svgpan.js"/>
<svg id="graph" class="graph">
<g id="viewport">
<title>include/cinder/Camera.h</title>
<polygon fill="white" stroke="white" points="-4,5 -4,-154 1796,-154 1796,5 -4,5"/>
<!-- Node1 -->
<g id="node1" class="node"><title>Node1</title>
<polygon fill="#bfbfbf" stroke="black" points="910.806,-129 910.806,-149 1035.19,-149 1035.19,-129 910.806,-129"/>
<text text-anchor="middle" x="973" y="-135" font-family="Helvetica,sans-Serif" font-size="10.00">include/cinder/Camera.h</text>
</g>
<!-- Node2 -->
<g id="node2" class="node"><title>Node2</title>
<g id="a_node2"><a xlink:href="_dx_light_8h.html" target="_top" xlink:title="include/cinder/dx/DxLight.h">
<polygon fill="white" stroke="black" points="446.966,-65 446.966,-85 583.034,-85 583.034,-65 446.966,-65"/>
<text text-anchor="middle" x="515" y="-71" font-family="Helvetica,sans-Serif" font-size="10.00">include/cinder/dx/DxLight.h</text>
</a>
</g>
</g>
<!-- Node1&#45;&gt;Node2 -->
<g id="edge1" class="edge"><title>Node1&#45;&gt;Node2</title>
<path fill="none" stroke="midnightblue" d="M900.687,-131.112C823.859,-123.364 698.969,-109.539 592,-92 580.008,-90.0338 567.048,-87.5009 555.242,-85.033"/>
<polygon fill="midnightblue" stroke="midnightblue" points="900.439,-134.605 910.739,-132.119 901.137,-127.639 900.439,-134.605"/>
</g>
<!-- Node5 -->
<g id="node5" class="node"><title>Node5</title>
<g id="a_node5"><a xlink:href="_frustum_8h.html" target="_top" xlink:title="include/cinder/Frustum.h">
<polygon fill="white" stroke="black" points="-0.746094,-65 -0.746094,-85 124.746,-85 124.746,-65 -0.746094,-65"/>
<text text-anchor="middle" x="62" y="-71" font-family="Helvetica,sans-Serif" font-size="10.00">include/cinder/Frustum.h</text>
</a>
</g>
</g>
<!-- Node1&#45;&gt;Node5 -->
<g id="edge4" class="edge"><title>Node1&#45;&gt;Node5</title>
<path fill="none" stroke="midnightblue" d="M900.577,-138.091C754.626,-137.381 415.009,-131.217 133,-92 121.111,-90.3466 108.268,-87.717 96.8169,-85.0634"/>
<polygon fill="midnightblue" stroke="midnightblue" points="900.733,-141.591 910.747,-138.133 900.762,-134.591 900.733,-141.591"/>
</g>
<!-- Node7 -->
<g id="node7" class="node"><title>Node7</title>
<g id="a_node7"><a xlink:href="_light_8h.html" target="_top" xlink:title="include/cinder/gl/Light.h">
<polygon fill="white" stroke="black" points="142.466,-65 142.466,-85 263.534,-85 263.534,-65 142.466,-65"/>
<text text-anchor="middle" x="203" y="-71" font-family="Helvetica,sans-Serif" font-size="10.00">include/cinder/gl/Light.h</text>
</a>
</g>
</g>
<!-- Node1&#45;&gt;Node7 -->
<g id="edge6" class="edge"><title>Node1&#45;&gt;Node7</title>
<path fill="none" stroke="midnightblue" d="M900.71,-137.116C773.115,-134.698 499.896,-125.672 272,-92 260.565,-90.3104 248.224,-87.7044 237.185,-85.0828"/>
<polygon fill="midnightblue" stroke="midnightblue" points="900.691,-140.616 910.753,-137.298 900.818,-133.617 900.691,-140.616"/>
</g>
<!-- Node9 -->
<g id="node9" class="node"><title>Node9</title>
<g id="a_node9"><a xlink:href="_tile_render_8h.html" target="_top" xlink:title="include/cinder/gl/TileRender.h">
<polygon fill="white" stroke="black" points="281.309,-65 281.309,-85 428.691,-85 428.691,-65 281.309,-65"/>
<text text-anchor="middle" x="355" y="-71" font-family="Helvetica,sans-Serif" font-size="10.00">include/cinder/gl/TileRender.h</text>
</a>
</g>
</g>
<!-- Node1&#45;&gt;Node9 -->
<g id="edge8" class="edge"><title>Node1&#45;&gt;Node9</title>
<path fill="none" stroke="midnightblue" d="M900.583,-134.185C797.49,-128.206 602.648,-114.884 438,-92 424.773,-90.1616 410.462,-87.6085 397.509,-85.081"/>
<polygon fill="midnightblue" stroke="midnightblue" points="900.389,-137.679 910.573,-134.758 900.789,-130.691 900.389,-137.679"/>
</g>
<!-- Node11 -->
<g id="node11" class="node"><title>Node11</title>
<g id="a_node11"><a xlink:href="_maya_cam_u_i_8h.html" target="_top" xlink:title="include/cinder/MayaCamUI.h">
<polygon fill="white" stroke="black" points="600.806,-65 600.806,-85 745.194,-85 745.194,-65 600.806,-65"/>
<text text-anchor="middle" x="673" y="-71" font-family="Helvetica,sans-Serif" font-size="10.00">include/cinder/MayaCamUI.h</text>
</a>
</g>
</g>
<!-- Node1&#45;&gt;Node11 -->
<g id="edge10" class="edge"><title>Node1&#45;&gt;Node11</title>
<path fill="none" stroke="midnightblue" d="M919.323,-126.907C861.428,-114.942 770.356,-96.1202 716.675,-85.0262"/>
<polygon fill="midnightblue" stroke="midnightblue" points="918.876,-130.388 929.377,-128.985 920.293,-123.533 918.876,-130.388"/>
</g>
<!-- Node12 -->
<g id="node12" class="node"><title>Node12</title>
<g id="a_node12"><a xlink:href="_app_8cpp.html" target="_top" xlink:title="src/cinder/app/App.cpp">
<polygon fill="white" stroke="black" points="762.86,-65 762.86,-85 881.14,-85 881.14,-65 762.86,-65"/>
<text text-anchor="middle" x="822" y="-71" font-family="Helvetica,sans-Serif" font-size="10.00">src/cinder/app/App.cpp</text>
</a>
</g>
</g>
<!-- Node1&#45;&gt;Node12 -->
<g id="edge11" class="edge"><title>Node1&#45;&gt;Node12</title>
<path fill="none" stroke="midnightblue" d="M941.71,-125.152C912.519,-113.167 869.716,-95.592 843.983,-85.0262"/>
<polygon fill="midnightblue" stroke="midnightblue" points="940.463,-128.424 951.043,-128.985 943.122,-121.949 940.463,-128.424"/>
</g>
<!-- Node13 -->
<g id="node13" class="node"><title>Node13</title>
<g id="a_node13"><a xlink:href="_app_impl_cocoa_renderer_gl_8mm.html" target="_top" xlink:title="src/cinder/app/AppImplCocoa\lRendererGl.mm">
<polygon fill="white" stroke="black" points="899.412,-59 899.412,-91 1046.59,-91 1046.59,-59 899.412,-59"/>
<text text-anchor="start" x="907.412" y="-77" font-family="Helvetica,sans-Serif" font-size="10.00">src/cinder/app/AppImplCocoa</text>
<text text-anchor="middle" x="973" y="-65" font-family="Helvetica,sans-Serif" font-size="10.00">RendererGl.mm</text>
</a>
</g>
</g>
<!-- Node1&#45;&gt;Node13 -->
<g id="edge12" class="edge"><title>Node1&#45;&gt;Node13</title>
<path fill="none" stroke="midnightblue" d="M973,-118.775C973,-109.986 973,-99.715 973,-91.4404"/>
<polygon fill="midnightblue" stroke="midnightblue" points="969.5,-118.852 973,-128.852 976.5,-118.852 969.5,-118.852"/>
</g>
<!-- Node14 -->
<g id="node14" class="node"><title>Node14</title>
<g id="a_node14"><a xlink:href="_app_impl_msw_renderer_dx_8cpp.html" target="_top" xlink:title="src/cinder/app/AppImplMsw\lRendererDx.cpp">
<polygon fill="white" stroke="black" points="1064.59,-59 1064.59,-91 1203.41,-91 1203.41,-59 1064.59,-59"/>
<text text-anchor="start" x="1072.59" y="-77" font-family="Helvetica,sans-Serif" font-size="10.00">src/cinder/app/AppImplMsw</text>
<text text-anchor="middle" x="1134" y="-65" font-family="Helvetica,sans-Serif" font-size="10.00">RendererDx.cpp</text>
</a>
</g>
</g>
<!-- Node1&#45;&gt;Node14 -->
<g id="edge13" class="edge"><title>Node1&#45;&gt;Node14</title>
<path fill="none" stroke="midnightblue" d="M1005.77,-125.382C1031.59,-115.438 1067.67,-101.544 1094.98,-91.0258"/>
<polygon fill="midnightblue" stroke="midnightblue" points="1004.48,-122.125 996.411,-128.985 1007,-128.657 1004.48,-122.125"/>
</g>
<!-- Node15 -->
<g id="node15" class="node"><title>Node15</title>
<g id="a_node15"><a xlink:href="_app_impl_msw_renderer_gl_8cpp.html" target="_top" xlink:title="src/cinder/app/AppImplMsw\lRendererGl.cpp">
<polygon fill="white" stroke="black" points="1221.59,-59 1221.59,-91 1360.41,-91 1360.41,-59 1221.59,-59"/>
<text text-anchor="start" x="1229.59" y="-77" font-family="Helvetica,sans-Serif" font-size="10.00">src/cinder/app/AppImplMsw</text>
<text text-anchor="middle" x="1291" y="-65" font-family="Helvetica,sans-Serif" font-size="10.00">RendererGl.cpp</text>
</a>
</g>
</g>
<!-- Node1&#45;&gt;Node15 -->
<g id="edge14" class="edge"><title>Node1&#45;&gt;Node15</title>
<path fill="none" stroke="midnightblue" d="M1030.62,-127.072C1079.05,-117.849 1150.08,-104.229 1212,-92 1215.02,-91.4035 1218.1,-90.7914 1221.22,-90.1707"/>
<polygon fill="midnightblue" stroke="midnightblue" points="1029.81,-123.663 1020.64,-128.972 1031.12,-130.54 1029.81,-123.663"/>
</g>
<!-- Node16 -->
<g id="node16" class="node"><title>Node16</title>
<g id="a_node16"><a xlink:href="_camera_8cpp.html" target="_top" xlink:title="src/cinder/Camera.cpp">
<polygon fill="white" stroke="black" points="1378.7,-65 1378.7,-85 1495.3,-85 1495.3,-65 1378.7,-65"/>
<text text-anchor="middle" x="1437" y="-71" font-family="Helvetica,sans-Serif" font-size="10.00">src/cinder/Camera.cpp</text>
</a>
</g>
</g>
<!-- Node1&#45;&gt;Node16 -->
<g id="edge15" class="edge"><title>Node1&#45;&gt;Node16</title>
<path fill="none" stroke="midnightblue" d="M1045.81,-132.081C1125.53,-125.012 1256.94,-111.624 1369,-92 1379.75,-90.1171 1391.35,-87.5806 1401.87,-85.0828"/>
<polygon fill="midnightblue" stroke="midnightblue" points="1045.05,-128.635 1035.39,-132.995 1045.66,-135.608 1045.05,-128.635"/>
</g>
<!-- Node3 -->
<g id="node3" class="node"><title>Node3</title>
<g id="a_node3"><a xlink:href="dx_8cpp.html" target="_top" xlink:title="src/cinder/dx/dx.cpp">
<polygon fill="white" stroke="black" points="1033.54,-1 1033.54,-21 1138.46,-21 1138.46,-1 1033.54,-1"/>
<text text-anchor="middle" x="1086" y="-7" font-family="Helvetica,sans-Serif" font-size="10.00">src/cinder/dx/dx.cpp</text>
</a>
</g>
</g>
<!-- Node1&#45;&gt;Node3 -->
<g id="edge16" class="edge"><title>Node1&#45;&gt;Node3</title>
<path fill="none" stroke="midnightblue" d="M1045.45,-137.043C1183.58,-134.463 1473.63,-125.12 1504,-92 1514.21,-80.8633 1514.08,-69.2544 1504,-58 1480.01,-31.2206 1245.41,-18.4162 1138.55,-13.9365"/>
<polygon fill="midnightblue" stroke="midnightblue" points="1045.31,-133.545 1035.37,-137.224 1045.43,-140.544 1045.31,-133.545"/>
</g>
<!-- Node17 -->
<g id="node17" class="node"><title>Node17</title>
<g id="a_node17"><a xlink:href="gl_8cpp.html" target="_top" xlink:title="src/cinder/gl/gl.cpp">
<polygon fill="white" stroke="black" points="1551.32,-65 1551.32,-85 1650.68,-85 1650.68,-65 1551.32,-65"/>
<text text-anchor="middle" x="1601" y="-71" font-family="Helvetica,sans-Serif" font-size="10.00">src/cinder/gl/gl.cpp</text>
</a>
</g>
</g>
<!-- Node1&#45;&gt;Node17 -->
<g id="edge17" class="edge"><title>Node1&#45;&gt;Node17</title>
<path fill="none" stroke="midnightblue" d="M1045.7,-135.869C1153.57,-131.852 1362.1,-120.797 1537,-92 1547.62,-90.251 1559.07,-87.6292 1569.31,-85.0114"/>
<polygon fill="midnightblue" stroke="midnightblue" points="1045.45,-132.376 1035.58,-136.236 1045.7,-139.371 1045.45,-132.376"/>
</g>
<!-- Node18 -->
<g id="node18" class="node"><title>Node18</title>
<g id="a_node18"><a xlink:href="_stereo_auto_focuser_8cpp.html" target="_top" xlink:title="src/cinder/gl/StereoAuto\lFocuser.cpp">
<polygon fill="white" stroke="black" points="1668.64,-59 1668.64,-91 1791.36,-91 1791.36,-59 1668.64,-59"/>
<text text-anchor="start" x="1676.64" y="-77" font-family="Helvetica,sans-Serif" font-size="10.00">src/cinder/gl/StereoAuto</text>
<text text-anchor="middle" x="1730" y="-65" font-family="Helvetica,sans-Serif" font-size="10.00">Focuser.cpp</text>
</a>
</g>
</g>
<!-- Node1&#45;&gt;Node18 -->
<g id="edge18" class="edge"><title>Node1&#45;&gt;Node18</title>
<path fill="none" stroke="midnightblue" d="M1045.55,-136.816C1171.16,-133.948 1436.97,-124.264 1659,-92 1662.13,-91.5457 1665.32,-91.0276 1668.53,-90.4624"/>
<polygon fill="midnightblue" stroke="midnightblue" points="1045.22,-133.323 1035.3,-137.043 1045.37,-140.321 1045.22,-133.323"/>
</g>
<!-- Node2&#45;&gt;Node3 -->
<g id="edge2" class="edge"><title>Node2&#45;&gt;Node3</title>
<path fill="none" stroke="midnightblue" d="M564.216,-62.9186C573.417,-61.0904 582.976,-59.3533 592,-58 751.93,-34.0149 942.984,-20.4689 1033.49,-14.9509"/>
<polygon fill="midnightblue" stroke="midnightblue" points="563.51,-59.4904 554.415,-64.9244 564.914,-66.3483 563.51,-59.4904"/>
</g>
<!-- Node4 -->
<g id="node4" class="node"><title>Node4</title>
<g id="a_node4"><a xlink:href="_dx_light_8cpp.html" target="_top" xlink:title="src/cinder/dx/DxLight.cpp">
<polygon fill="white" stroke="black" points="450.865,-1 450.865,-21 579.135,-21 579.135,-1 450.865,-1"/>
<text text-anchor="middle" x="515" y="-7" font-family="Helvetica,sans-Serif" font-size="10.00">src/cinder/dx/DxLight.cpp</text>
</a>
</g>
</g>
<!-- Node2&#45;&gt;Node4 -->
<g id="edge3" class="edge"><title>Node2&#45;&gt;Node4</title>
<path fill="none" stroke="midnightblue" d="M515,-54.7346C515,-43.5568 515,-29.991 515,-21.1858"/>
<polygon fill="midnightblue" stroke="midnightblue" points="511.5,-54.8517 515,-64.8517 518.5,-54.8517 511.5,-54.8517"/>
</g>
<!-- Node6 -->
<g id="node6" class="node"><title>Node6</title>
<g id="a_node6"><a xlink:href="_frustum_8cpp.html" target="_top" xlink:title="src/cinder/Frustum.cpp">
<polygon fill="white" stroke="black" points="3.15283,-1 3.15283,-21 120.847,-21 120.847,-1 3.15283,-1"/>
<text text-anchor="middle" x="62" y="-7" font-family="Helvetica,sans-Serif" font-size="10.00">src/cinder/Frustum.cpp</text>
</a>
</g>
</g>
<!-- Node5&#45;&gt;Node6 -->
<g id="edge5" class="edge"><title>Node5&#45;&gt;Node6</title>
<path fill="none" stroke="midnightblue" d="M62,-54.7346C62,-43.5568 62,-29.991 62,-21.1858"/>
<polygon fill="midnightblue" stroke="midnightblue" points="58.5001,-54.8517 62,-64.8517 65.5001,-54.8517 58.5001,-54.8517"/>
</g>
<!-- Node8 -->
<g id="node8" class="node"><title>Node8</title>
<g id="a_node8"><a xlink:href="_light_8cpp.html" target="_top" xlink:title="src/cinder/gl/Light.cpp">
<polygon fill="white" stroke="black" points="146.365,-1 146.365,-21 259.635,-21 259.635,-1 146.365,-1"/>
<text text-anchor="middle" x="203" y="-7" font-family="Helvetica,sans-Serif" font-size="10.00">src/cinder/gl/Light.cpp</text>
</a>
</g>
</g>
<!-- Node7&#45;&gt;Node8 -->
<g id="edge7" class="edge"><title>Node7&#45;&gt;Node8</title>
<path fill="none" stroke="midnightblue" d="M203,-54.7346C203,-43.5568 203,-29.991 203,-21.1858"/>
<polygon fill="midnightblue" stroke="midnightblue" points="199.5,-54.8517 203,-64.8517 206.5,-54.8517 199.5,-54.8517"/>
</g>
<!-- Node10 -->
<g id="node10" class="node"><title>Node10</title>
<g id="a_node10"><a xlink:href="_tile_render_8cpp.html" target="_top" xlink:title="src/cinder/gl/TileRender.cpp">
<polygon fill="white" stroke="black" points="285.208,-1 285.208,-21 424.792,-21 424.792,-1 285.208,-1"/>
<text text-anchor="middle" x="355" y="-7" font-family="Helvetica,sans-Serif" font-size="10.00">src/cinder/gl/TileRender.cpp</text>
</a>
</g>
</g>
<!-- Node9&#45;&gt;Node10 -->
<g id="edge9" class="edge"><title>Node9&#45;&gt;Node10</title>
<path fill="none" stroke="midnightblue" d="M355,-54.7346C355,-43.5568 355,-29.991 355,-21.1858"/>
<polygon fill="midnightblue" stroke="midnightblue" points="351.5,-54.8517 355,-64.8517 358.5,-54.8517 351.5,-54.8517"/>
</g>
</g>
</svg>
        <g id="navigator" transform="translate(0 0)" fill="#404254">
                <rect fill="#f2f5e9" fill-opacity="0.5" stroke="#606060" stroke-width=".5" x="0" y="0" width="60" height="60"/>
                <use id="zoomplus" xlink:href="#zoomPlus" x="17" y="9" onmousedown="handleZoom(evt,'in')"/>
                <use id="zoomminus" xlink:href="#zoomMin" x="42" y="9" onmousedown="handleZoom(evt,'out')"/>
                <use id="reset" xlink:href="#resetDef" x="30" y="36" onmousedown="handleReset()"/>
                <g id="arrowUp" xlink:href="#dirArrow" transform="translate(30 24)" onmousedown="handlePan(0,-1)">
                  <use xlink:href="#rim" fill="#404040">
                        <set attributeName="fill" to="#808080" begin="arrowUp.mouseover" end="arrowUp.mouseout"/>
                  </use>
                  <path fill="none" stroke="white" stroke-width="1.5" d="M0,-3.0v7 M-2.5,-0.5L0,-3.0L2.5,-0.5"/>
                </g>
                <g id="arrowRight" xlink:href="#dirArrow" transform="rotate(90) translate(36 -43)" onmousedown="handlePan(1,0)">
                  <use xlink:href="#rim" fill="#404040">
                        <set attributeName="fill" to="#808080" begin="arrowRight.mouseover" end="arrowRight.mouseout"/>
                  </use>
                  <path fill="none" stroke="white" stroke-width="1.5" d="M0,-3.0v7 M-2.5,-0.5L0,-3.0L2.5,-0.5"/>
                </g>
                <g id="arrowDown" xlink:href="#dirArrow" transform="rotate(180) translate(-30 -48)" onmousedown="handlePan(0,1)">
                  <use xlink:href="#rim" fill="#404040">
                        <set attributeName="fill" to="#808080" begin="arrowDown.mouseover" end="arrowDown.mouseout"/>
                  </use>
                  <path fill="none" stroke="white" stroke-width="1.5" d="M0,-3.0v7 M-2.5,-0.5L0,-3.0L2.5,-0.5"/>
                </g>
                <g id="arrowLeft" xlink:href="#dirArrow" transform="rotate(270) translate(-36 17)" onmousedown="handlePan(-1,0)">
                  <use xlink:href="#rim" fill="#404040">
                        <set attributeName="fill" to="#808080" begin="arrowLeft.mouseover" end="arrowLeft.mouseout"/>
                  </use>
                  <path fill="none" stroke="white" stroke-width="1.5" d="M0,-3.0v7 M-2.5,-0.5L0,-3.0L2.5,-0.5"/>
                </g>
        </g>
        <svg viewBox="0 0 15 15" width="100%" height="30px" preserveAspectRatio="xMaxYMin meet">
         <g id="arrow_out" transform="scale(0.3 0.3)">
          <a xlink:href="_camera_8h__dep__incl_org.svg" target="_base">
           <rect id="button" ry="5" rx="5" y="6" x="6" height="38" width="38"
                fill="#f2f5e9" fill-opacity="0.5" stroke="#606060" stroke-width="1.0"/>
           <path id="arrow"
             d="M 11.500037,31.436501 C 11.940474,20.09759 22.043105,11.32322 32.158766,21.979434 L 37.068811,17.246167 C 37.068811,17.246167 37.088388,32 37.088388,32 L 22.160133,31.978069 C 22.160133,31.978069 26.997745,27.140456 26.997745,27.140456 C 18.528582,18.264221 13.291696,25.230495 11.500037,31.436501 z"
             style="fill:#404040;"/>
          </a>
         </g>
        </svg>
</svg>
