<?xml version="1.0" encoding="UTF-8" standalone="no"?>
<!DOCTYPE svg PUBLIC "-//W3C//DTD SVG 1.1//EN"
 "http://www.w3.org/Graphics/SVG/1.1/DTD/svg11.dtd">
<!-- Generated by graphviz version 2.30.1 (20140712.1814)
 -->
<!-- Title: include/cinder/CaptureImplDirectShow.h Pages: 1 -->
<!--zoomable 506 -->
<svg id="main" version="1.1" xmlns="http://www.w3.org/2000/svg" xmlns:xlink="http://www.w3.org/1999/xlink" xml:space="preserve" onload="init(evt)">
<style type="text/css"><![CDATA[
.edge:hover path { stroke: red; }
.edge:hover polygon { stroke: red; fill: red; }
]]></style>
<script type="text/javascript"><![CDATA[
var edges = document.getElementsByTagName('g');
if (edges && edges.length) {
  for (var i=0;i<edges.length;i++) {
    if (edges[i].id.substr(0,4)=='edge') {
      edges[i].setAttribute('class','edge');
    }
  }
}
]]></script>
        <defs>
                <circle id="rim" cx="0" cy="0" r="7"/>
                <circle id="rim2" cx="0" cy="0" r="3.5"/>
                <g id="zoomPlus">
                        <use xlink:href="#rim" fill="#404040">
                                <set attributeName="fill" to="#808080" begin="zoomplus.mouseover" end="zoomplus.mouseout"/>
                        </use>
                        <path d="M-4,0h8M0,-4v8" fill="none" stroke="white" stroke-width="1.5" pointer-events="none"/>
                </g>
                <g id="zoomMin">
                        <use xlink:href="#rim" fill="#404040">
                                <set attributeName="fill" to="#808080" begin="zoomminus.mouseover" end="zoomminus.mouseout"/>
                        </use>
                        <path d="M-4,0h8" fill="none" stroke="white" stroke-width="1.5" pointer-events="none"/>
                </g>
                <g id="dirArrow">
                        <path fill="none" stroke="white" stroke-width="1.5" d="M0,-3.0v7 M-2.5,-0.5L0,-3.0L2.5,-0.5"/>
                </g>
               <g id="resetDef">
                       <use xlink:href="#rim2" fill="#404040">
                               <set attributeName="fill" to="#808080" begin="reset.mouseover" end="reset.mouseout"/>
                       </use>
               </g>
        </defs>

<script type="text/javascript">
var viewWidth = 909;
var viewHeight = 506;
var sectionId = 'dynsection-0';
</script>
<script xlink:href="svgpan.js"/>
<svg id="graph" class="graph">
<g id="viewport">
<title>include/cinder/CaptureImplDirectShow.h</title>
<polygon fill="white" stroke="white" points="-4,5 -4,-502 906,-502 906,5 -4,5"/>
<!-- Node1 -->
<g id="node1" class="node"><title>Node1</title>
<polygon fill="#bfbfbf" stroke="black" points="75.5249,-465 75.5249,-497 210.475,-497 210.475,-465 75.5249,-465"/>
<text text-anchor="start" x="83.5249" y="-483" font-family="Helvetica,sans-Serif" font-size="10.00">include/cinder/CaptureImpl</text>
<text text-anchor="middle" x="143" y="-471" font-family="Helvetica,sans-Serif" font-size="10.00">DirectShow.h</text>
</g>
<!-- Node2 -->
<g id="node2" class="node"><title>Node2</title>
<g id="a_node2"><a xlink:href="_cinder_8h.html" target="_top" xlink:title="cinder/Cinder.h">
<polygon fill="white" stroke="black" points="249.367,-59 249.367,-79 332.633,-79 332.633,-59 249.367,-59"/>
<text text-anchor="middle" x="291" y="-65" font-family="Helvetica,sans-Serif" font-size="10.00">cinder/Cinder.h</text>
</a>
</g>
</g>
<!-- Node1&#45;&gt;Node2 -->
<g id="edge1" class="edge"><title>Node1&#45;&gt;Node2</title>
<path fill="none" stroke="midnightblue" d="M100.095,-464.912C57.9737,-447.032 0,-412.828 0,-360 0,-360 0,-360 0,-184 0,-145.954 19.6455,-136.017 52,-116 109.318,-80.5383 187.997,-71.4092 239.164,-69.5652"/>
<polygon fill="midnightblue" stroke="midnightblue" points="239.433,-73.0591 249.331,-69.2816 239.238,-66.0618 239.433,-73.0591"/>
</g>
<!-- Node6 -->
<g id="node6" class="node"><title>Node6</title>
<g id="a_node6"><a xlink:href="_capture_8h.html" target="_top" xlink:title="cinder/Capture.h">
<polygon fill="white" stroke="black" points="62.0347,-407 62.0347,-427 151.965,-427 151.965,-407 62.0347,-407"/>
<text text-anchor="middle" x="107" y="-413" font-family="Helvetica,sans-Serif" font-size="10.00">cinder/Capture.h</text>
</a>
</g>
</g>
<!-- Node1&#45;&gt;Node6 -->
<g id="edge5" class="edge"><title>Node1&#45;&gt;Node6</title>
<path fill="none" stroke="midnightblue" d="M134.285,-464.992C129.22,-456.267 122.803,-445.216 117.465,-436.023"/>
<polygon fill="midnightblue" stroke="midnightblue" points="120.443,-434.181 112.394,-427.29 114.389,-437.696 120.443,-434.181"/>
</g>
<!-- Node7 -->
<g id="node7" class="node"><title>Node7</title>
<g id="a_node7"><a xlink:href="_surface_8h.html" target="_top" xlink:title="cinder/Surface.h">
<polygon fill="white" stroke="black" points="274.591,-349 274.591,-369 363.409,-369 363.409,-349 274.591,-349"/>
<text text-anchor="middle" x="319" y="-355" font-family="Helvetica,sans-Serif" font-size="10.00">cinder/Surface.h</text>
</a>
</g>
</g>
<!-- Node1&#45;&gt;Node7 -->
<g id="edge45" class="edge"><title>Node1&#45;&gt;Node7</title>
<path fill="none" stroke="midnightblue" d="M150.97,-464.951C160.421,-448.413 177.621,-422.069 199,-406 219.99,-390.224 247.042,-379.231 270.146,-371.958"/>
<polygon fill="midnightblue" stroke="midnightblue" points="271.207,-375.294 279.777,-369.066 269.193,-368.59 271.207,-375.294"/>
</g>
<!-- Node30 -->
<g id="node30" class="node"><title>Node30</title>
<polygon fill="white" stroke="#bfbfbf" points="207.628,-407 207.628,-427 350.372,-427 350.372,-407 207.628,-407"/>
<text text-anchor="middle" x="279" y="-413" font-family="Helvetica,sans-Serif" font-size="10.00">msw/videoInput/videoInput.h</text>
</g>
<!-- Node1&#45;&gt;Node30 -->
<g id="edge46" class="edge"><title>Node1&#45;&gt;Node30</title>
<path fill="none" stroke="midnightblue" d="M175.922,-464.992C198.418,-454.736 227.969,-441.264 249.66,-431.376"/>
<polygon fill="midnightblue" stroke="midnightblue" points="251.372,-434.442 259.019,-427.109 248.469,-428.072 251.372,-434.442"/>
</g>
<!-- Node3 -->
<g id="node3" class="node"><title>Node3</title>
<polygon fill="white" stroke="#bfbfbf" points="180.549,-1 180.549,-21 225.451,-21 225.451,-1 180.549,-1"/>
<text text-anchor="middle" x="203" y="-7" font-family="Helvetica,sans-Serif" font-size="10.00">cstdint</text>
</g>
<!-- Node2&#45;&gt;Node3 -->
<g id="edge2" class="edge"><title>Node2&#45;&gt;Node3</title>
<path fill="none" stroke="midnightblue" d="M276.469,-58.7527C262.757,-50.0272 241.979,-36.8051 226.015,-26.6458"/>
<polygon fill="midnightblue" stroke="midnightblue" points="227.577,-23.4912 217.261,-21.0752 223.819,-29.3968 227.577,-23.4912"/>
</g>
<!-- Node4 -->
<g id="node4" class="node"><title>Node4</title>
<polygon fill="white" stroke="#bfbfbf" points="243.53,-1 243.53,-21 338.47,-21 338.47,-1 243.53,-1"/>
<text text-anchor="middle" x="291" y="-7" font-family="Helvetica,sans-Serif" font-size="10.00">boost/version.hpp</text>
</g>
<!-- Node2&#45;&gt;Node4 -->
<g id="edge3" class="edge"><title>Node2&#45;&gt;Node4</title>
<path fill="none" stroke="midnightblue" d="M291,-58.7527C291,-51.2504 291,-40.4238 291,-31.0781"/>
<polygon fill="midnightblue" stroke="midnightblue" points="294.5,-31.0752 291,-21.0752 287.5,-31.0752 294.5,-31.0752"/>
</g>
<!-- Node5 -->
<g id="node5" class="node"><title>Node5</title>
<polygon fill="white" stroke="#bfbfbf" points="356.621,-1 356.621,-21 489.379,-21 489.379,-1 356.621,-1"/>
<text text-anchor="middle" x="423" y="-7" font-family="Helvetica,sans-Serif" font-size="10.00">boost/checked_delete.hpp</text>
</g>
<!-- Node2&#45;&gt;Node5 -->
<g id="edge4" class="edge"><title>Node2&#45;&gt;Node5</title>
<path fill="none" stroke="midnightblue" d="M312.502,-58.878C334.172,-49.6848 367.821,-35.4095 392.295,-25.0263"/>
<polygon fill="midnightblue" stroke="midnightblue" points="393.668,-28.2457 401.507,-21.1181 390.935,-21.8016 393.668,-28.2457"/>
</g>
<!-- Node6&#45;&gt;Node2 -->
<g id="edge6" class="edge"><title>Node6&#45;&gt;Node2</title>
<path fill="none" stroke="midnightblue" d="M93.5868,-406.962C82.238,-398.638 66.3674,-385.287 57,-370 40.6048,-343.244 38,-333.38 38,-302 38,-302 38,-302 38,-184 38,-96.5762 165.123,-75.8117 239.148,-71.1313"/>
<polygon fill="midnightblue" stroke="midnightblue" points="239.431,-74.6211 249.222,-70.5724 239.044,-67.6318 239.431,-74.6211"/>
</g>
<!-- Node6&#45;&gt;Node7 -->
<g id="edge7" class="edge"><title>Node6&#45;&gt;Node7</title>
<path fill="none" stroke="midnightblue" d="M141.533,-406.878C177.907,-397.27 235.296,-382.11 274.916,-371.645"/>
<polygon fill="midnightblue" stroke="midnightblue" points="276.058,-374.963 284.833,-369.025 274.27,-368.195 276.058,-374.963"/>
</g>
<!-- Node27 -->
<g id="node27" class="node"><title>Node27</title>
<g id="a_node27"><a xlink:href="_exception_8h.html" target="_top" xlink:title="cinder/Exception.h">
<polygon fill="white" stroke="black" points="65.8647,-233 65.8647,-253 164.135,-253 164.135,-233 65.8647,-233"/>
<text text-anchor="middle" x="115" y="-239" font-family="Helvetica,sans-Serif" font-size="10.00">cinder/Exception.h</text>
</a>
</g>
</g>
<!-- Node6&#45;&gt;Node27 -->
<g id="edge40" class="edge"><title>Node6&#45;&gt;Node27</title>
<path fill="none" stroke="midnightblue" d="M107.666,-406.84C108.325,-397.559 109.329,-382.787 110,-370 111.979,-332.254 113.563,-288.109 114.385,-263.366"/>
<polygon fill="midnightblue" stroke="midnightblue" points="117.889,-263.282 114.716,-253.173 110.893,-263.054 117.889,-263.282"/>
</g>
<!-- Node29 -->
<g id="node29" class="node"><title>Node29</title>
<polygon fill="white" stroke="#bfbfbf" points="66.2734,-349 66.2734,-369 101.727,-369 101.727,-349 66.2734,-349"/>
<text text-anchor="middle" x="84" y="-355" font-family="Helvetica,sans-Serif" font-size="10.00">map</text>
</g>
<!-- Node6&#45;&gt;Node29 -->
<g id="edge44" class="edge"><title>Node6&#45;&gt;Node29</title>
<path fill="none" stroke="midnightblue" d="M103.202,-406.753C100.054,-399.087 95.4801,-387.952 91.5862,-378.471"/>
<polygon fill="midnightblue" stroke="midnightblue" points="94.7641,-376.996 87.7273,-369.075 88.289,-379.655 94.7641,-376.996"/>
</g>
<!-- Node7&#45;&gt;Node2 -->
<g id="edge8" class="edge"><title>Node7&#45;&gt;Node2</title>
<path fill="none" stroke="midnightblue" d="M303.591,-348.87C290.358,-340.486 271.358,-327.101 258,-312 218.553,-267.406 206.414,-253.507 191,-196 178.112,-147.919 231.649,-105.71 265.36,-84.5045"/>
<polygon fill="midnightblue" stroke="midnightblue" points="267.54,-87.2753 274.271,-79.093 263.907,-81.2922 267.54,-87.2753"/>
</g>
<!-- Node8 -->
<g id="node8" class="node"><title>Node8</title>
<g id="a_node8"><a xlink:href="_area_8h.html" target="_top" xlink:title="cinder/Area.h">
<polygon fill="white" stroke="black" points="281.261,-233 281.261,-253 356.739,-253 356.739,-233 281.261,-233"/>
<text text-anchor="middle" x="319" y="-239" font-family="Helvetica,sans-Serif" font-size="10.00">cinder/Area.h</text>
</a>
</g>
</g>
<!-- Node7&#45;&gt;Node8 -->
<g id="edge9" class="edge"><title>Node7&#45;&gt;Node8</title>
<path fill="none" stroke="midnightblue" d="M302.243,-348.906C282.243,-336.748 252.815,-313.935 264,-290 270.071,-277.008 281.816,-266.394 292.899,-258.648"/>
<polygon fill="midnightblue" stroke="midnightblue" points="295.034,-261.435 301.524,-253.06 291.228,-255.56 295.034,-261.435"/>
</g>
<!-- Node21 -->
<g id="node21" class="node"><title>Node21</title>
<g id="a_node21"><a xlink:href="_channel_8h.html" target="_top" xlink:title="cinder/Channel.h">
<polygon fill="white" stroke="black" points="273.197,-291 273.197,-311 364.803,-311 364.803,-291 273.197,-291"/>
<text text-anchor="middle" x="319" y="-297" font-family="Helvetica,sans-Serif" font-size="10.00">cinder/Channel.h</text>
</a>
</g>
</g>
<!-- Node7&#45;&gt;Node21 -->
<g id="edge26" class="edge"><title>Node7&#45;&gt;Node21</title>
<path fill="none" stroke="midnightblue" d="M319,-348.753C319,-341.25 319,-330.424 319,-321.078"/>
<polygon fill="midnightblue" stroke="midnightblue" points="322.5,-321.075 319,-311.075 315.5,-321.075 322.5,-321.075"/>
</g>
<!-- Node22 -->
<g id="node22" class="node"><title>Node22</title>
<g id="a_node22"><a xlink:href="_chan_traits_8h.html" target="_top" xlink:title="cinder/ChanTraits.h">
<polygon fill="white" stroke="black" points="586.553,-175 586.553,-195 689.447,-195 689.447,-175 586.553,-175"/>
<text text-anchor="middle" x="638" y="-181" font-family="Helvetica,sans-Serif" font-size="10.00">cinder/ChanTraits.h</text>
</a>
</g>
</g>
<!-- Node7&#45;&gt;Node22 -->
<g id="edge29" class="edge"><title>Node7&#45;&gt;Node22</title>
<path fill="none" stroke="midnightblue" d="M363.658,-355.873C407.431,-352.055 474.72,-341.441 525,-312 571.725,-284.641 609.733,-231.383 627.363,-203.688"/>
<polygon fill="midnightblue" stroke="midnightblue" points="630.429,-205.384 632.73,-195.042 624.482,-201.692 630.429,-205.384"/>
</g>
<!-- Node23 -->
<g id="node23" class="node"><title>Node23</title>
<g id="a_node23"><a xlink:href="_color_8h.html" target="_top" xlink:title="cinder/Color.h">
<polygon fill="white" stroke="black" points="485.148,-233 485.148,-253 562.852,-253 562.852,-233 485.148,-233"/>
<text text-anchor="middle" x="524" y="-239" font-family="Helvetica,sans-Serif" font-size="10.00">cinder/Color.h</text>
</a>
</g>
</g>
<!-- Node7&#45;&gt;Node23 -->
<g id="edge31" class="edge"><title>Node7&#45;&gt;Node23</title>
<path fill="none" stroke="midnightblue" d="M363.732,-352.055C411.836,-344.789 484.109,-331.066 504,-312 517.026,-299.515 521.691,-279.024 523.3,-263.794"/>
<polygon fill="midnightblue" stroke="midnightblue" points="526.821,-263.612 524.023,-253.393 519.838,-263.126 526.821,-263.612"/>
</g>
<!-- Node24 -->
<g id="node24" class="node"><title>Node24</title>
<g id="a_node24"><a xlink:href="_filesystem_8h.html" target="_top" xlink:title="cinder/Filesystem.h">
<polygon fill="white" stroke="black" points="621.931,-291 621.931,-311 724.069,-311 724.069,-291 621.931,-291"/>
<text text-anchor="middle" x="673" y="-297" font-family="Helvetica,sans-Serif" font-size="10.00">cinder/Filesystem.h</text>
</a>
</g>
</g>
<!-- Node7&#45;&gt;Node24 -->
<g id="edge36" class="edge"><title>Node7&#45;&gt;Node24</title>
<path fill="none" stroke="midnightblue" d="M363.476,-350.964C426.22,-341.039 540.95,-322.889 611.727,-311.693"/>
<polygon fill="midnightblue" stroke="midnightblue" points="612.509,-315.113 621.839,-310.093 611.415,-308.199 612.509,-315.113"/>
</g>
<!-- Node26 -->
<g id="node26" class="node"><title>Node26</title>
<polygon fill="white" stroke="#bfbfbf" points="382.357,-291 382.357,-311 495.643,-311 495.643,-291 382.357,-291"/>
<text text-anchor="middle" x="439" y="-297" font-family="Helvetica,sans-Serif" font-size="10.00">boost/logic/tribool.hpp</text>
</g>
<!-- Node7&#45;&gt;Node26 -->
<g id="edge39" class="edge"><title>Node7&#45;&gt;Node26</title>
<path fill="none" stroke="midnightblue" d="M338.547,-348.878C357.985,-339.807 388.027,-325.788 410.196,-315.442"/>
<polygon fill="midnightblue" stroke="midnightblue" points="411.879,-318.519 419.461,-311.118 408.919,-312.175 411.879,-318.519"/>
</g>
<!-- Node8&#45;&gt;Node2 -->
<g id="edge10" class="edge"><title>Node8&#45;&gt;Node2</title>
<path fill="none" stroke="midnightblue" d="M311.323,-232.855C304.474,-224.053 294.938,-210.043 291,-196 280.705,-159.287 284.429,-114.155 287.855,-89.0889"/>
<polygon fill="midnightblue" stroke="midnightblue" points="291.333,-89.495 289.356,-79.0863 284.41,-88.4559 291.333,-89.495"/>
</g>
<!-- Node9 -->
<g id="node9" class="node"><title>Node9</title>
<g id="a_node9"><a xlink:href="_vector_8h.html" target="_top" xlink:title="cinder/Vector.h">
<polygon fill="white" stroke="black" points="448.919,-175 448.919,-195 531.081,-195 531.081,-175 448.919,-175"/>
<text text-anchor="middle" x="490" y="-181" font-family="Helvetica,sans-Serif" font-size="10.00">cinder/Vector.h</text>
</a>
</g>
</g>
<!-- Node8&#45;&gt;Node9 -->
<g id="edge11" class="edge"><title>Node8&#45;&gt;Node9</title>
<path fill="none" stroke="midnightblue" d="M346.855,-232.878C375.633,-223.453 420.721,-208.688 452.594,-198.25"/>
<polygon fill="midnightblue" stroke="midnightblue" points="454.026,-201.464 462.441,-195.025 451.848,-194.811 454.026,-201.464"/>
</g>
<!-- Node12 -->
<g id="node12" class="node"><title>Node12</title>
<polygon fill="white" stroke="#bfbfbf" points="337.828,-117 337.828,-137 392.172,-137 392.172,-117 337.828,-117"/>
<text text-anchor="middle" x="365" y="-123" font-family="Helvetica,sans-Serif" font-size="10.00">iostream</text>
</g>
<!-- Node8&#45;&gt;Node12 -->
<g id="edge23" class="edge"><title>Node8&#45;&gt;Node12</title>
<path fill="none" stroke="midnightblue" d="M325.623,-232.912C331.901,-223.927 341.21,-209.59 347,-196 353.799,-180.043 358.594,-160.861 361.516,-146.944"/>
<polygon fill="midnightblue" stroke="midnightblue" points="364.962,-147.562 363.461,-137.074 358.094,-146.209 364.962,-147.562"/>
</g>
<!-- Node19 -->
<g id="node19" class="node"><title>Node19</title>
<polygon fill="white" stroke="#bfbfbf" points="299.608,-175 299.608,-195 338.392,-195 338.392,-175 299.608,-175"/>
<text text-anchor="middle" x="319" y="-181" font-family="Helvetica,sans-Serif" font-size="10.00">utility</text>
</g>
<!-- Node8&#45;&gt;Node19 -->
<g id="edge24" class="edge"><title>Node8&#45;&gt;Node19</title>
<path fill="none" stroke="midnightblue" d="M319,-232.753C319,-225.25 319,-214.424 319,-205.078"/>
<polygon fill="midnightblue" stroke="midnightblue" points="322.5,-205.075 319,-195.075 315.5,-205.075 322.5,-205.075"/>
</g>
<!-- Node20 -->
<g id="node20" class="node"><title>Node20</title>
<polygon fill="white" stroke="#bfbfbf" points="200.384,-175 200.384,-195 243.616,-195 243.616,-175 200.384,-175"/>
<text text-anchor="middle" x="222" y="-181" font-family="Helvetica,sans-Serif" font-size="10.00">vector</text>
</g>
<!-- Node8&#45;&gt;Node20 -->
<g id="edge25" class="edge"><title>Node8&#45;&gt;Node20</title>
<path fill="none" stroke="midnightblue" d="M302.982,-232.753C287.586,-223.864 264.107,-210.309 246.387,-200.079"/>
<polygon fill="midnightblue" stroke="midnightblue" points="248.13,-197.044 237.72,-195.075 244.63,-203.106 248.13,-197.044"/>
</g>
<!-- Node10 -->
<g id="node10" class="node"><title>Node10</title>
<polygon fill="white" stroke="#bfbfbf" points="661.384,-59 661.384,-79 704.616,-79 704.616,-59 661.384,-59"/>
<text text-anchor="middle" x="683" y="-65" font-family="Helvetica,sans-Serif" font-size="10.00">cmath</text>
</g>
<!-- Node9&#45;&gt;Node10 -->
<g id="edge12" class="edge"><title>Node9&#45;&gt;Node10</title>
<path fill="none" stroke="midnightblue" d="M512.382,-174.881C532.636,-166.307 563.027,-152.634 588,-138 615.495,-121.888 645.025,-99.9395 663.735,-85.3873"/>
<polygon fill="midnightblue" stroke="midnightblue" points="666.058,-88.0128 671.759,-79.0825 661.733,-82.5086 666.058,-88.0128"/>
</g>
<!-- Node11 -->
<g id="node11" class="node"><title>Node11</title>
<polygon fill="white" stroke="#bfbfbf" points="467.273,-117 467.273,-137 512.727,-137 512.727,-117 467.273,-117"/>
<text text-anchor="middle" x="490" y="-123" font-family="Helvetica,sans-Serif" font-size="10.00">cstring</text>
</g>
<!-- Node9&#45;&gt;Node11 -->
<g id="edge13" class="edge"><title>Node9&#45;&gt;Node11</title>
<path fill="none" stroke="midnightblue" d="M490,-174.753C490,-167.25 490,-156.424 490,-147.078"/>
<polygon fill="midnightblue" stroke="midnightblue" points="493.5,-147.075 490,-137.075 486.5,-147.075 493.5,-147.075"/>
</g>
<!-- Node9&#45;&gt;Node12 -->
<g id="edge14" class="edge"><title>Node9&#45;&gt;Node12</title>
<path fill="none" stroke="midnightblue" d="M469.638,-174.878C449.299,-165.766 417.816,-151.662 394.694,-141.303"/>
<polygon fill="midnightblue" stroke="midnightblue" points="395.91,-138.013 385.353,-137.118 393.048,-144.401 395.91,-138.013"/>
</g>
<!-- Node13 -->
<g id="node13" class="node"><title>Node13</title>
<polygon fill="white" stroke="#bfbfbf" points="530.884,-117 530.884,-137 579.116,-137 579.116,-117 530.884,-117"/>
<text text-anchor="middle" x="555" y="-123" font-family="Helvetica,sans-Serif" font-size="10.00">cassert</text>
</g>
<!-- Node9&#45;&gt;Node13 -->
<g id="edge15" class="edge"><title>Node9&#45;&gt;Node13</title>
<path fill="none" stroke="midnightblue" d="M500.733,-174.753C510.483,-166.353 525.068,-153.787 536.664,-143.798"/>
<polygon fill="midnightblue" stroke="midnightblue" points="539.175,-146.254 544.466,-137.075 534.606,-140.951 539.175,-146.254"/>
</g>
<!-- Node14 -->
<g id="node14" class="node"><title>Node14</title>
<polygon fill="white" stroke="#bfbfbf" points="410.613,-117 410.613,-137 449.387,-137 449.387,-117 410.613,-117"/>
<text text-anchor="middle" x="430" y="-123" font-family="Helvetica,sans-Serif" font-size="10.00">limits</text>
</g>
<!-- Node9&#45;&gt;Node14 -->
<g id="edge16" class="edge"><title>Node9&#45;&gt;Node14</title>
<path fill="none" stroke="midnightblue" d="M480.092,-174.753C471.18,-166.435 457.89,-154.031 447.238,-144.089"/>
<polygon fill="midnightblue" stroke="midnightblue" points="449.422,-141.34 439.723,-137.075 444.646,-146.457 449.422,-141.34"/>
</g>
<!-- Node15 -->
<g id="node15" class="node"><title>Node15</title>
<g id="a_node15"><a xlink:href="_cinder_math_8h.html" target="_top" xlink:title="cinder/CinderMath.h">
<polygon fill="white" stroke="black" points="750.978,-117 750.978,-137 857.022,-137 857.022,-117 750.978,-117"/>
<text text-anchor="middle" x="804" y="-123" font-family="Helvetica,sans-Serif" font-size="10.00">cinder/CinderMath.h</text>
</a>
</g>
</g>
<!-- Node9&#45;&gt;Node15 -->
<g id="edge17" class="edge"><title>Node9&#45;&gt;Node15</title>
<path fill="none" stroke="midnightblue" d="M531.373,-176.621C585.56,-166.957 680.983,-149.939 743.344,-138.818"/>
<polygon fill="midnightblue" stroke="midnightblue" points="744.209,-142.219 753.439,-137.017 742.98,-135.327 744.209,-142.219"/>
</g>
<!-- Node15&#45;&gt;Node2 -->
<g id="edge18" class="edge"><title>Node15&#45;&gt;Node2</title>
<path fill="none" stroke="midnightblue" d="M750.637,-117.812C746.028,-117.173 741.434,-116.559 737,-116 594.657,-98.0462 426.092,-82.1003 342.848,-74.5776"/>
<polygon fill="midnightblue" stroke="midnightblue" points="343.158,-71.0915 332.885,-73.6807 342.531,-78.0633 343.158,-71.0915"/>
</g>
<!-- Node15&#45;&gt;Node10 -->
<g id="edge19" class="edge"><title>Node15&#45;&gt;Node10</title>
<path fill="none" stroke="midnightblue" d="M784.29,-116.878C764.69,-107.807 734.398,-93.7876 712.044,-83.4418"/>
<polygon fill="midnightblue" stroke="midnightblue" points="713.247,-80.1419 702.702,-79.1181 710.307,-86.4946 713.247,-80.1419"/>
</g>
<!-- Node16 -->
<g id="node16" class="node"><title>Node16</title>
<polygon fill="white" stroke="#bfbfbf" points="723.113,-59 723.113,-79 766.887,-79 766.887,-59 723.113,-59"/>
<text text-anchor="middle" x="745" y="-65" font-family="Helvetica,sans-Serif" font-size="10.00">climits</text>
</g>
<!-- Node15&#45;&gt;Node16 -->
<g id="edge20" class="edge"><title>Node15&#45;&gt;Node16</title>
<path fill="none" stroke="midnightblue" d="M794.257,-116.753C785.494,-108.435 772.425,-96.031 761.951,-86.0893"/>
<polygon fill="midnightblue" stroke="midnightblue" points="764.224,-83.4209 754.561,-79.0752 759.405,-88.4981 764.224,-83.4209"/>
</g>
<!-- Node17 -->
<g id="node17" class="node"><title>Node17</title>
<polygon fill="white" stroke="#bfbfbf" points="785.049,-59 785.049,-79 824.951,-79 824.951,-59 785.049,-59"/>
<text text-anchor="middle" x="805" y="-65" font-family="Helvetica,sans-Serif" font-size="10.00">cfloat</text>
</g>
<!-- Node15&#45;&gt;Node17 -->
<g id="edge21" class="edge"><title>Node15&#45;&gt;Node17</title>
<path fill="none" stroke="midnightblue" d="M804.165,-116.753C804.299,-109.25 804.492,-98.4238 804.659,-89.0781"/>
<polygon fill="midnightblue" stroke="midnightblue" points="808.159,-89.1361 804.838,-79.0752 801.16,-89.0111 808.159,-89.1361"/>
</g>
<!-- Node18 -->
<g id="node18" class="node"><title>Node18</title>
<polygon fill="white" stroke="#bfbfbf" points="842.596,-59 842.596,-79 901.404,-79 901.404,-59 842.596,-59"/>
<text text-anchor="middle" x="872" y="-65" font-family="Helvetica,sans-Serif" font-size="10.00">functional</text>
</g>
<!-- Node15&#45;&gt;Node18 -->
<g id="edge22" class="edge"><title>Node15&#45;&gt;Node18</title>
<path fill="none" stroke="midnightblue" d="M815.229,-116.753C825.527,-108.272 840.984,-95.543 853.17,-85.5073"/>
<polygon fill="midnightblue" stroke="midnightblue" points="855.486,-88.1341 860.98,-79.0752 851.036,-82.7305 855.486,-88.1341"/>
</g>
<!-- Node21&#45;&gt;Node2 -->
<g id="edge27" class="edge"><title>Node21&#45;&gt;Node2</title>
<path fill="none" stroke="midnightblue" d="M332.794,-290.922C343.838,-282.754 358.517,-269.652 365,-254 368.742,-244.967 366.466,-241.667 365,-232 360.954,-205.314 357.447,-198.887 347,-174 339.888,-157.057 315.29,-112.869 301.173,-87.8851"/>
<polygon fill="midnightblue" stroke="midnightblue" points="304.147,-86.0334 296.171,-79.0594 298.057,-89.485 304.147,-86.0334"/>
</g>
<!-- Node21&#45;&gt;Node8 -->
<g id="edge28" class="edge"><title>Node21&#45;&gt;Node8</title>
<path fill="none" stroke="midnightblue" d="M319,-290.753C319,-283.25 319,-272.424 319,-263.078"/>
<polygon fill="midnightblue" stroke="midnightblue" points="322.5,-263.075 319,-253.075 315.5,-263.075 322.5,-263.075"/>
</g>
<!-- Node22&#45;&gt;Node2 -->
<g id="edge30" class="edge"><title>Node22&#45;&gt;Node2</title>
<path fill="none" stroke="midnightblue" d="M638.658,-174.922C639.18,-160.171 637.834,-131.13 621,-116 581.032,-80.0764 425.245,-72.0673 342.814,-70.3761"/>
<polygon fill="midnightblue" stroke="midnightblue" points="342.717,-66.8739 332.655,-70.1921 342.59,-73.8727 342.717,-66.8739"/>
</g>
<!-- Node23&#45;&gt;Node2 -->
<g id="edge32" class="edge"><title>Node23&#45;&gt;Node2</title>
<path fill="none" stroke="midnightblue" d="M531.367,-232.787C551.469,-207.13 604.685,-135.468 588,-116 557.071,-79.9118 419.751,-71.8914 343.128,-70.2666"/>
<polygon fill="midnightblue" stroke="midnightblue" points="342.799,-66.7602 332.737,-70.0776 342.671,-73.759 342.799,-66.7602"/>
</g>
<!-- Node23&#45;&gt;Node22 -->
<g id="edge33" class="edge"><title>Node23&#45;&gt;Node22</title>
<path fill="none" stroke="midnightblue" d="M542.57,-232.878C560.953,-223.847 589.32,-209.913 610.353,-199.581"/>
<polygon fill="midnightblue" stroke="midnightblue" points="612.006,-202.669 619.438,-195.118 608.919,-196.386 612.006,-202.669"/>
</g>
<!-- Node23&#45;&gt;Node9 -->
<g id="edge34" class="edge"><title>Node23&#45;&gt;Node9</title>
<path fill="none" stroke="midnightblue" d="M518.386,-232.753C513.633,-224.924 506.682,-213.476 500.848,-203.868"/>
<polygon fill="midnightblue" stroke="midnightblue" points="503.692,-201.807 495.51,-195.075 497.708,-205.44 503.692,-201.807"/>
</g>
<!-- Node23&#45;&gt;Node15 -->
<g id="edge35" class="edge"><title>Node23&#45;&gt;Node15</title>
<path fill="none" stroke="midnightblue" d="M563.18,-235.276C599.232,-228.251 653.668,-215.501 698,-196 730.252,-181.813 763.903,-158.541 784.412,-143.244"/>
<polygon fill="midnightblue" stroke="midnightblue" points="786.751,-145.862 792.606,-137.032 782.523,-140.284 786.751,-145.862"/>
</g>
<!-- Node24&#45;&gt;Node2 -->
<g id="edge37" class="edge"><title>Node24&#45;&gt;Node2</title>
<path fill="none" stroke="midnightblue" d="M693.845,-290.872C708.304,-283.295 726.444,-271.001 735,-254 739.395,-245.266 737.739,-241.386 735,-232 716.49,-168.567 701.014,-145.727 642,-116 590.759,-90.1882 427.55,-77.5584 342.957,-72.6126"/>
<polygon fill="midnightblue" stroke="midnightblue" points="342.98,-69.1082 332.797,-72.0334 342.581,-76.0969 342.98,-69.1082"/>
</g>
<!-- Node25 -->
<g id="node25" class="node"><title>Node25</title>
<polygon fill="white" stroke="#bfbfbf" points="619.421,-233 619.421,-253 726.579,-253 726.579,-233 619.421,-233"/>
<text text-anchor="middle" x="673" y="-239" font-family="Helvetica,sans-Serif" font-size="10.00">boost/filesystem.hpp</text>
</g>
<!-- Node24&#45;&gt;Node25 -->
<g id="edge38" class="edge"><title>Node24&#45;&gt;Node25</title>
<path fill="none" stroke="midnightblue" d="M673,-290.753C673,-283.25 673,-272.424 673,-263.078"/>
<polygon fill="midnightblue" stroke="midnightblue" points="676.5,-263.075 673,-253.075 669.5,-263.075 676.5,-263.075"/>
</g>
<!-- Node27&#45;&gt;Node2 -->
<g id="edge41" class="edge"><title>Node27&#45;&gt;Node2</title>
<path fill="none" stroke="midnightblue" d="M108.406,-232.942C99.605,-219.662 86.1028,-194.285 95,-174 119.754,-117.564 190.111,-91.0496 239.409,-79.099"/>
<polygon fill="midnightblue" stroke="midnightblue" points="240.314,-82.4823 249.276,-76.8314 238.746,-75.6602 240.314,-82.4823"/>
</g>
<!-- Node27&#45;&gt;Node20 -->
<g id="edge42" class="edge"><title>Node27&#45;&gt;Node20</title>
<path fill="none" stroke="midnightblue" d="M132.669,-232.753C149.808,-223.783 176.028,-210.06 195.635,-199.799"/>
<polygon fill="midnightblue" stroke="midnightblue" points="197.423,-202.813 204.66,-195.075 194.177,-196.611 197.423,-202.813"/>
</g>
<!-- Node28 -->
<g id="node28" class="node"><title>Node28</title>
<polygon fill="white" stroke="#bfbfbf" points="103.773,-175 103.773,-195 144.227,-195 144.227,-175 103.773,-175"/>
<text text-anchor="middle" x="124" y="-181" font-family="Helvetica,sans-Serif" font-size="10.00">string</text>
</g>
<!-- Node27&#45;&gt;Node28 -->
<g id="edge43" class="edge"><title>Node27&#45;&gt;Node28</title>
<path fill="none" stroke="midnightblue" d="M116.486,-232.753C117.692,-225.25 119.432,-214.424 120.934,-205.078"/>
<polygon fill="midnightblue" stroke="midnightblue" points="124.41,-205.504 122.541,-195.075 117.499,-204.393 124.41,-205.504"/>
</g>
</g>
</svg>
        <g id="navigator" transform="translate(0 0)" fill="#404254">
                <rect fill="#f2f5e9" fill-opacity="0.5" stroke="#606060" stroke-width=".5" x="0" y="0" width="60" height="60"/>
                <use id="zoomplus" xlink:href="#zoomPlus" x="17" y="9" onmousedown="handleZoom(evt,'in')"/>
                <use id="zoomminus" xlink:href="#zoomMin" x="42" y="9" onmousedown="handleZoom(evt,'out')"/>
                <use id="reset" xlink:href="#resetDef" x="30" y="36" onmousedown="handleReset()"/>
                <g id="arrowUp" xlink:href="#dirArrow" transform="translate(30 24)" onmousedown="handlePan(0,-1)">
                  <use xlink:href="#rim" fill="#404040">
                        <set attributeName="fill" to="#808080" begin="arrowUp.mouseover" end="arrowUp.mouseout"/>
                  </use>
                  <path fill="none" stroke="white" stroke-width="1.5" d="M0,-3.0v7 M-2.5,-0.5L0,-3.0L2.5,-0.5"/>
                </g>
                <g id="arrowRight" xlink:href="#dirArrow" transform="rotate(90) translate(36 -43)" onmousedown="handlePan(1,0)">
                  <use xlink:href="#rim" fill="#404040">
                        <set attributeName="fill" to="#808080" begin="arrowRight.mouseover" end="arrowRight.mouseout"/>
                  </use>
                  <path fill="none" stroke="white" stroke-width="1.5" d="M0,-3.0v7 M-2.5,-0.5L0,-3.0L2.5,-0.5"/>
                </g>
                <g id="arrowDown" xlink:href="#dirArrow" transform="rotate(180) translate(-30 -48)" onmousedown="handlePan(0,1)">
                  <use xlink:href="#rim" fill="#404040">
                        <set attributeName="fill" to="#808080" begin="arrowDown.mouseover" end="arrowDown.mouseout"/>
                  </use>
                  <path fill="none" stroke="white" stroke-width="1.5" d="M0,-3.0v7 M-2.5,-0.5L0,-3.0L2.5,-0.5"/>
                </g>
                <g id="arrowLeft" xlink:href="#dirArrow" transform="rotate(270) translate(-36 17)" onmousedown="handlePan(-1,0)">
                  <use xlink:href="#rim" fill="#404040">
                        <set attributeName="fill" to="#808080" begin="arrowLeft.mouseover" end="arrowLeft.mouseout"/>
                  </use>
                  <path fill="none" stroke="white" stroke-width="1.5" d="M0,-3.0v7 M-2.5,-0.5L0,-3.0L2.5,-0.5"/>
                </g>
        </g>
        <svg viewBox="0 0 15 15" width="100%" height="30px" preserveAspectRatio="xMaxYMin meet">
         <g id="arrow_out" transform="scale(0.3 0.3)">
          <a xlink:href="_capture_impl_direct_show_8h__incl_org.svg" target="_base">
           <rect id="button" ry="5" rx="5" y="6" x="6" height="38" width="38"
                fill="#f2f5e9" fill-opacity="0.5" stroke="#606060" stroke-width="1.0"/>
           <path id="arrow"
             d="M 11.500037,31.436501 C 11.940474,20.09759 22.043105,11.32322 32.158766,21.979434 L 37.068811,17.246167 C 37.068811,17.246167 37.088388,32 37.088388,32 L 22.160133,31.978069 C 22.160133,31.978069 26.997745,27.140456 26.997745,27.140456 C 18.528582,18.264221 13.291696,25.230495 11.500037,31.436501 z"
             style="fill:#404040;"/>
          </a>
         </g>
        </svg>
</svg>
