<?xml version="1.0" encoding="UTF-8" standalone="no"?>
<!DOCTYPE svg PUBLIC "-//W3C//DTD SVG 1.1//EN"
 "http://www.w3.org/Graphics/SVG/1.1/DTD/svg11.dtd">
<!-- Generated by graphviz version 2.30.1 (20140712.1814)
 -->
<!-- Title: include/cinder/Capture.h Pages: 1 -->
<svg width="743pt" height="170pt"
 viewBox="0.00 0.00 743.00 170.00" xmlns="http://www.w3.org/2000/svg" xmlns:xlink="http://www.w3.org/1999/xlink">
<g id="graph0" class="graph" transform="scale(1 1) rotate(0) translate(4 166)">
<title>include/cinder/Capture.h</title>
<polygon fill="white" stroke="white" points="-4,5 -4,-166 740,-166 740,5 -4,5"/>
<!-- Node1 -->
<g id="node1" class="node"><title>Node1</title>
<polygon fill="#bfbfbf" stroke="black" points="317.801,-141 317.801,-161 442.199,-161 442.199,-141 317.801,-141"/>
<text text-anchor="middle" x="380" y="-147" font-family="Helvetica,sans-Serif" font-size="10.00">include/cinder/Capture.h</text>
</g>
<!-- Node2 -->
<g id="node2" class="node"><title>Node2</title>
<g id="a_node2"><a xlink:href="_capture_impl_av_foundation_8h.html" target="_top" xlink:title="include/cinder/CaptureImpl\lAvFoundation.h">
<polygon fill="white" stroke="black" points="-0.475098,-71 -0.475098,-103 134.475,-103 134.475,-71 -0.475098,-71"/>
<text text-anchor="start" x="7.5249" y="-89" font-family="Helvetica,sans-Serif" font-size="10.00">include/cinder/CaptureImpl</text>
<text text-anchor="middle" x="67" y="-77" font-family="Helvetica,sans-Serif" font-size="10.00">AvFoundation.h</text>
</a>
</g>
</g>
<!-- Node1&#45;&gt;Node2 -->
<g id="edge1" class="edge"><title>Node1&#45;&gt;Node2</title>
<path fill="none" stroke="midnightblue" d="M323.995,-138.984C276.793,-129.689 207.471,-116.016 147,-104 142.971,-103.199 138.829,-102.375 134.65,-101.542"/>
<polygon fill="midnightblue" stroke="midnightblue" points="323.528,-142.459 334.015,-140.956 324.88,-135.591 323.528,-142.459"/>
</g>
<!-- Node4 -->
<g id="node4" class="node"><title>Node4</title>
<g id="a_node4"><a xlink:href="_capture_impl_cocoa_dummy_8h.html" target="_top" xlink:title="include/cinder/CaptureImpl\lCocoaDummy.h">
<polygon fill="white" stroke="black" points="155.525,-71 155.525,-103 290.475,-103 290.475,-71 155.525,-71"/>
<text text-anchor="start" x="163.525" y="-89" font-family="Helvetica,sans-Serif" font-size="10.00">include/cinder/CaptureImpl</text>
<text text-anchor="middle" x="223" y="-77" font-family="Helvetica,sans-Serif" font-size="10.00">CocoaDummy.h</text>
</a>
</g>
</g>
<!-- Node1&#45;&gt;Node4 -->
<g id="edge3" class="edge"><title>Node1&#45;&gt;Node4</title>
<path fill="none" stroke="midnightblue" d="M347.715,-137.251C322.558,-127.316 287.567,-113.498 261.049,-103.026"/>
<polygon fill="midnightblue" stroke="midnightblue" points="346.584,-140.567 357.171,-140.985 349.155,-134.056 346.584,-140.567"/>
</g>
<!-- Node6 -->
<g id="node6" class="node"><title>Node6</title>
<g id="a_node6"><a xlink:href="_capture_impl_direct_show_8h.html" target="_top" xlink:title="include/cinder/CaptureImpl\lDirectShow.h">
<polygon fill="white" stroke="black" points="312.525,-71 312.525,-103 447.475,-103 447.475,-71 312.525,-71"/>
<text text-anchor="start" x="320.525" y="-89" font-family="Helvetica,sans-Serif" font-size="10.00">include/cinder/CaptureImpl</text>
<text text-anchor="middle" x="380" y="-77" font-family="Helvetica,sans-Serif" font-size="10.00">DirectShow.h</text>
</a>
</g>
</g>
<!-- Node1&#45;&gt;Node6 -->
<g id="edge5" class="edge"><title>Node1&#45;&gt;Node6</title>
<path fill="none" stroke="midnightblue" d="M380,-130.775C380,-121.986 380,-111.715 380,-103.44"/>
<polygon fill="midnightblue" stroke="midnightblue" points="376.5,-130.852 380,-140.852 383.5,-130.852 376.5,-130.852"/>
</g>
<!-- Node8 -->
<g id="node8" class="node"><title>Node8</title>
<g id="a_node8"><a xlink:href="_capture_impl_qt_kit_8h.html" target="_top" xlink:title="include/cinder/CaptureImpl\lQtKit.h">
<polygon fill="white" stroke="black" points="465.525,-71 465.525,-103 600.475,-103 600.475,-71 465.525,-71"/>
<text text-anchor="start" x="473.525" y="-89" font-family="Helvetica,sans-Serif" font-size="10.00">include/cinder/CaptureImpl</text>
<text text-anchor="middle" x="533" y="-77" font-family="Helvetica,sans-Serif" font-size="10.00">QtKit.h</text>
</a>
</g>
</g>
<!-- Node1&#45;&gt;Node8 -->
<g id="edge7" class="edge"><title>Node1&#45;&gt;Node8</title>
<path fill="none" stroke="midnightblue" d="M411.788,-137.119C436.28,-127.194 470.193,-113.451 495.92,-103.026"/>
<polygon fill="midnightblue" stroke="midnightblue" points="410.201,-133.985 402.248,-140.985 412.83,-140.473 410.201,-133.985"/>
</g>
<!-- Node10 -->
<g id="node10" class="node"><title>Node10</title>
<g id="a_node10"><a xlink:href="_capture_8cpp.html" target="_top" xlink:title="src/cinder/Capture.cpp">
<polygon fill="white" stroke="black" points="618.7,-77 618.7,-97 735.3,-97 735.3,-77 618.7,-77"/>
<text text-anchor="middle" x="677" y="-83" font-family="Helvetica,sans-Serif" font-size="10.00">src/cinder/Capture.cpp</text>
</a>
</g>
</g>
<!-- Node1&#45;&gt;Node10 -->
<g id="edge9" class="edge"><title>Node1&#45;&gt;Node10</title>
<path fill="none" stroke="midnightblue" d="M437.329,-139.026C483.715,-130.017 550.679,-116.715 609,-104 618.954,-101.83 629.697,-99.3612 639.639,-97.0236"/>
<polygon fill="midnightblue" stroke="midnightblue" points="436.613,-135.6 427.462,-140.938 437.945,-142.472 436.613,-135.6"/>
</g>
<!-- Node3 -->
<g id="node3" class="node"><title>Node3</title>
<g id="a_node3"><a xlink:href="_capture_impl_av_foundation_8mm.html" target="_top" xlink:title="src/cinder/CaptureImplAv\lFoundation.mm">
<polygon fill="white" stroke="black" points="1.95752,-1 1.95752,-33 130.042,-33 130.042,-1 1.95752,-1"/>
<text text-anchor="start" x="9.95752" y="-19" font-family="Helvetica,sans-Serif" font-size="10.00">src/cinder/CaptureImplAv</text>
<text text-anchor="middle" x="66" y="-7" font-family="Helvetica,sans-Serif" font-size="10.00">Foundation.mm</text>
</a>
</g>
</g>
<!-- Node2&#45;&gt;Node3 -->
<g id="edge2" class="edge"><title>Node2&#45;&gt;Node3</title>
<path fill="none" stroke="midnightblue" d="M66.6267,-60.6174C66.4903,-51.3378 66.3403,-41.1413 66.2213,-33.0492"/>
<polygon fill="midnightblue" stroke="midnightblue" points="63.1313,-60.9612 66.7781,-70.9086 70.1306,-60.8582 63.1313,-60.9612"/>
</g>
<!-- Node5 -->
<g id="node5" class="node"><title>Node5</title>
<g id="a_node5"><a xlink:href="_capture_impl_cocoa_dummy_8mm.html" target="_top" xlink:title="src/cinder/CaptureImplCocoa\lDummy.mm">
<polygon fill="white" stroke="black" points="148.251,-1 148.251,-33 293.749,-33 293.749,-1 148.251,-1"/>
<text text-anchor="start" x="156.251" y="-19" font-family="Helvetica,sans-Serif" font-size="10.00">src/cinder/CaptureImplCocoa</text>
<text text-anchor="middle" x="221" y="-7" font-family="Helvetica,sans-Serif" font-size="10.00">Dummy.mm</text>
</a>
</g>
</g>
<!-- Node4&#45;&gt;Node5 -->
<g id="edge4" class="edge"><title>Node4&#45;&gt;Node5</title>
<path fill="none" stroke="midnightblue" d="M222.253,-60.6174C221.981,-51.3378 221.681,-41.1413 221.443,-33.0492"/>
<polygon fill="midnightblue" stroke="midnightblue" points="218.764,-61.0158 222.556,-70.9086 225.761,-60.81 218.764,-61.0158"/>
</g>
<!-- Node7 -->
<g id="node7" class="node"><title>Node7</title>
<g id="a_node7"><a xlink:href="_capture_impl_direct_show_8cpp.html" target="_top" xlink:title="src/cinder/CaptureImplDirect\lShow.cpp">
<polygon fill="white" stroke="black" points="311.648,-1 311.648,-33 454.352,-33 454.352,-1 311.648,-1"/>
<text text-anchor="start" x="319.648" y="-19" font-family="Helvetica,sans-Serif" font-size="10.00">src/cinder/CaptureImplDirect</text>
<text text-anchor="middle" x="383" y="-7" font-family="Helvetica,sans-Serif" font-size="10.00">Show.cpp</text>
</a>
</g>
</g>
<!-- Node6&#45;&gt;Node7 -->
<g id="edge6" class="edge"><title>Node6&#45;&gt;Node7</title>
<path fill="none" stroke="midnightblue" d="M381.12,-60.6174C381.529,-51.3378 381.979,-41.1413 382.336,-33.0492"/>
<polygon fill="midnightblue" stroke="midnightblue" points="377.61,-60.764 380.666,-70.9086 384.603,-61.0726 377.61,-60.764"/>
</g>
<!-- Node9 -->
<g id="node9" class="node"><title>Node9</title>
<g id="a_node9"><a xlink:href="_capture_impl_qt_kit_8mm.html" target="_top" xlink:title="src/cinder/CaptureImplQt\lKit.mm">
<polygon fill="white" stroke="black" points="472.426,-1 472.426,-33 599.574,-33 599.574,-1 472.426,-1"/>
<text text-anchor="start" x="480.426" y="-19" font-family="Helvetica,sans-Serif" font-size="10.00">src/cinder/CaptureImplQt</text>
<text text-anchor="middle" x="536" y="-7" font-family="Helvetica,sans-Serif" font-size="10.00">Kit.mm</text>
</a>
</g>
</g>
<!-- Node8&#45;&gt;Node9 -->
<g id="edge8" class="edge"><title>Node8&#45;&gt;Node9</title>
<path fill="none" stroke="midnightblue" d="M534.12,-60.6174C534.529,-51.3378 534.979,-41.1413 535.336,-33.0492"/>
<polygon fill="midnightblue" stroke="midnightblue" points="530.61,-60.764 533.666,-70.9086 537.603,-61.0726 530.61,-60.764"/>
</g>
</g>
</svg>
