<?xml version="1.0" encoding="UTF-8" standalone="no"?>
<!DOCTYPE svg PUBLIC "-//W3C//DTD SVG 1.1//EN"
 "http://www.w3.org/Graphics/SVG/1.1/DTD/svg11.dtd">
<!-- Generated by graphviz version 2.30.1 (20140712.1814)
 -->
<!-- Title: include/cinder/CaptureImplAvFoundation.h Pages: 1 -->
<svg width="998pt" height="506pt"
 viewBox="0.00 0.00 998.00 506.00" xmlns="http://www.w3.org/2000/svg" xmlns:xlink="http://www.w3.org/1999/xlink">
<g id="graph0" class="graph" transform="scale(1 1) rotate(0) translate(4 502)">
<title>include/cinder/CaptureImplAvFoundation.h</title>
<polygon fill="white" stroke="white" points="-4,5 -4,-502 995,-502 995,5 -4,5"/>
<!-- Node1 -->
<g id="node1" class="node"><title>Node1</title>
<polygon fill="#bfbfbf" stroke="black" points="552.525,-465 552.525,-497 687.475,-497 687.475,-465 552.525,-465"/>
<text text-anchor="start" x="560.525" y="-483" font-family="Helvetica,sans-Serif" font-size="10.00">include/cinder/CaptureImpl</text>
<text text-anchor="middle" x="620" y="-471" font-family="Helvetica,sans-Serif" font-size="10.00">AvFoundation.h</text>
</g>
<!-- Node2 -->
<g id="node2" class="node"><title>Node2</title>
<g id="a_node2"><a xlink:href="_cinder_8h.html" target="_top" xlink:title="cinder/Cinder.h">
<polygon fill="white" stroke="black" points="540.367,-59 540.367,-79 623.633,-79 623.633,-59 540.367,-59"/>
<text text-anchor="middle" x="582" y="-65" font-family="Helvetica,sans-Serif" font-size="10.00">cinder/Cinder.h</text>
</a>
</g>
</g>
<!-- Node1&#45;&gt;Node2 -->
<g id="edge1" class="edge"><title>Node1&#45;&gt;Node2</title>
<path fill="none" stroke="midnightblue" d="M552.387,-477.102C420.35,-469.592 141,-443.801 141,-360 141,-360 141,-360 141,-242 141,-165.277 190.941,-151.417 259,-116 305.103,-92.0087 451.086,-78.7757 530.062,-73.2052"/>
<polygon fill="midnightblue" stroke="midnightblue" points="530.544,-76.6804 540.279,-72.501 530.062,-69.697 530.544,-76.6804"/>
</g>
<!-- Node6 -->
<g id="node6" class="node"><title>Node6</title>
<g id="a_node6"><a xlink:href="_surface_8h.html" target="_top" xlink:title="cinder/Surface.h">
<polygon fill="white" stroke="black" points="502.591,-349 502.591,-369 591.409,-369 591.409,-349 502.591,-349"/>
<text text-anchor="middle" x="547" y="-355" font-family="Helvetica,sans-Serif" font-size="10.00">cinder/Surface.h</text>
</a>
</g>
</g>
<!-- Node1&#45;&gt;Node6 -->
<g id="edge5" class="edge"><title>Node1&#45;&gt;Node6</title>
<path fill="none" stroke="midnightblue" d="M599.672,-464.947C588.253,-455.506 574.608,-442.415 566,-428 557.073,-413.053 552.204,-393.76 549.637,-379.544"/>
<polygon fill="midnightblue" stroke="midnightblue" points="553.054,-378.745 548.038,-369.412 546.139,-379.836 553.054,-378.745"/>
</g>
<!-- Node26 -->
<g id="node26" class="node"><title>Node26</title>
<g id="a_node26"><a xlink:href="_capture_8h.html" target="_top" xlink:title="cinder/Capture.h">
<polygon fill="white" stroke="black" points="575.035,-407 575.035,-427 664.965,-427 664.965,-407 575.035,-407"/>
<text text-anchor="middle" x="620" y="-413" font-family="Helvetica,sans-Serif" font-size="10.00">cinder/Capture.h</text>
</a>
</g>
</g>
<!-- Node1&#45;&gt;Node26 -->
<g id="edge38" class="edge"><title>Node1&#45;&gt;Node26</title>
<path fill="none" stroke="midnightblue" d="M620,-464.992C620,-456.726 620,-446.373 620,-437.489"/>
<polygon fill="midnightblue" stroke="midnightblue" points="623.5,-437.29 620,-427.29 616.5,-437.29 623.5,-437.29"/>
</g>
<!-- Node30 -->
<g id="node30" class="node"><title>Node30</title>
<polygon fill="white" stroke="#bfbfbf" points="682.799,-407 682.799,-427 835.201,-427 835.201,-407 682.799,-407"/>
<text text-anchor="middle" x="759" y="-413" font-family="Helvetica,sans-Serif" font-size="10.00">AVFoundation/AVFoundation.h</text>
</g>
<!-- Node1&#45;&gt;Node30 -->
<g id="edge46" class="edge"><title>Node1&#45;&gt;Node30</title>
<path fill="none" stroke="midnightblue" d="M653.648,-464.992C676.745,-454.689 707.115,-441.143 729.312,-431.242"/>
<polygon fill="midnightblue" stroke="midnightblue" points="730.872,-434.379 738.579,-427.109 728.02,-427.986 730.872,-434.379"/>
</g>
<!-- Node19 -->
<g id="node19" class="node"><title>Node19</title>
<polygon fill="white" stroke="#bfbfbf" points="831.384,-175 831.384,-195 874.616,-195 874.616,-175 831.384,-175"/>
<text text-anchor="middle" x="853" y="-181" font-family="Helvetica,sans-Serif" font-size="10.00">vector</text>
</g>
<!-- Node1&#45;&gt;Node19 -->
<g id="edge47" class="edge"><title>Node1&#45;&gt;Node19</title>
<path fill="none" stroke="midnightblue" d="M687.485,-471.973C744.989,-463.798 821.75,-449.284 844,-428 866.676,-406.309 863,-391.38 863,-360 863,-360 863,-360 863,-300 863,-266.518 858.666,-227.714 855.705,-205.106"/>
<polygon fill="midnightblue" stroke="midnightblue" points="859.165,-204.575 854.349,-195.138 852.229,-205.518 859.165,-204.575"/>
</g>
<!-- Node3 -->
<g id="node3" class="node"><title>Node3</title>
<polygon fill="white" stroke="#bfbfbf" points="471.549,-1 471.549,-21 516.451,-21 516.451,-1 471.549,-1"/>
<text text-anchor="middle" x="494" y="-7" font-family="Helvetica,sans-Serif" font-size="10.00">cstdint</text>
</g>
<!-- Node2&#45;&gt;Node3 -->
<g id="edge2" class="edge"><title>Node2&#45;&gt;Node3</title>
<path fill="none" stroke="midnightblue" d="M567.469,-58.7527C553.757,-50.0272 532.979,-36.8051 517.015,-26.6458"/>
<polygon fill="midnightblue" stroke="midnightblue" points="518.577,-23.4912 508.261,-21.0752 514.819,-29.3968 518.577,-23.4912"/>
</g>
<!-- Node4 -->
<g id="node4" class="node"><title>Node4</title>
<polygon fill="white" stroke="#bfbfbf" points="534.53,-1 534.53,-21 629.47,-21 629.47,-1 534.53,-1"/>
<text text-anchor="middle" x="582" y="-7" font-family="Helvetica,sans-Serif" font-size="10.00">boost/version.hpp</text>
</g>
<!-- Node2&#45;&gt;Node4 -->
<g id="edge3" class="edge"><title>Node2&#45;&gt;Node4</title>
<path fill="none" stroke="midnightblue" d="M582,-58.7527C582,-51.2504 582,-40.4238 582,-31.0781"/>
<polygon fill="midnightblue" stroke="midnightblue" points="585.5,-31.0752 582,-21.0752 578.5,-31.0752 585.5,-31.0752"/>
</g>
<!-- Node5 -->
<g id="node5" class="node"><title>Node5</title>
<polygon fill="white" stroke="#bfbfbf" points="647.621,-1 647.621,-21 780.379,-21 780.379,-1 647.621,-1"/>
<text text-anchor="middle" x="714" y="-7" font-family="Helvetica,sans-Serif" font-size="10.00">boost/checked_delete.hpp</text>
</g>
<!-- Node2&#45;&gt;Node5 -->
<g id="edge4" class="edge"><title>Node2&#45;&gt;Node5</title>
<path fill="none" stroke="midnightblue" d="M603.502,-58.878C625.172,-49.6848 658.821,-35.4095 683.295,-25.0263"/>
<polygon fill="midnightblue" stroke="midnightblue" points="684.668,-28.2457 692.507,-21.1181 681.935,-21.8016 684.668,-28.2457"/>
</g>
<!-- Node6&#45;&gt;Node2 -->
<g id="edge6" class="edge"><title>Node6&#45;&gt;Node2</title>
<path fill="none" stroke="midnightblue" d="M591.522,-355.971C626.077,-352.044 672.859,-341.213 702,-312 724.248,-289.697 722,-275.502 722,-244 722,-244 722,-244 722,-184 722,-131.477 662.018,-98.8702 620.577,-82.6099"/>
<polygon fill="midnightblue" stroke="midnightblue" points="621.6,-79.2554 611.008,-79.0125 619.137,-85.8077 621.6,-79.2554"/>
</g>
<!-- Node7 -->
<g id="node7" class="node"><title>Node7</title>
<g id="a_node7"><a xlink:href="_area_8h.html" target="_top" xlink:title="cinder/Area.h">
<polygon fill="white" stroke="black" points="561.261,-233 561.261,-253 636.739,-253 636.739,-233 561.261,-233"/>
<text text-anchor="middle" x="599" y="-239" font-family="Helvetica,sans-Serif" font-size="10.00">cinder/Area.h</text>
</a>
</g>
</g>
<!-- Node6&#45;&gt;Node7 -->
<g id="edge7" class="edge"><title>Node6&#45;&gt;Node7</title>
<path fill="none" stroke="midnightblue" d="M551.255,-348.671C559.83,-329.873 579.324,-287.136 590.571,-262.478"/>
<polygon fill="midnightblue" stroke="midnightblue" points="593.865,-263.69 594.831,-253.139 587.497,-260.785 593.865,-263.69"/>
</g>
<!-- Node20 -->
<g id="node20" class="node"><title>Node20</title>
<g id="a_node20"><a xlink:href="_channel_8h.html" target="_top" xlink:title="cinder/Channel.h">
<polygon fill="white" stroke="black" points="602.197,-291 602.197,-311 693.803,-311 693.803,-291 602.197,-291"/>
<text text-anchor="middle" x="648" y="-297" font-family="Helvetica,sans-Serif" font-size="10.00">cinder/Channel.h</text>
</a>
</g>
</g>
<!-- Node6&#45;&gt;Node20 -->
<g id="edge24" class="edge"><title>Node6&#45;&gt;Node20</title>
<path fill="none" stroke="midnightblue" d="M563.678,-348.753C579.783,-339.823 604.381,-326.185 622.86,-315.939"/>
<polygon fill="midnightblue" stroke="midnightblue" points="624.584,-318.985 631.632,-311.075 621.189,-312.863 624.584,-318.985"/>
</g>
<!-- Node21 -->
<g id="node21" class="node"><title>Node21</title>
<g id="a_node21"><a xlink:href="_chan_traits_8h.html" target="_top" xlink:title="cinder/ChanTraits.h">
<polygon fill="white" stroke="black" points="244.553,-175 244.553,-195 347.447,-195 347.447,-175 244.553,-175"/>
<text text-anchor="middle" x="296" y="-181" font-family="Helvetica,sans-Serif" font-size="10.00">cinder/ChanTraits.h</text>
</a>
</g>
</g>
<!-- Node6&#45;&gt;Node21 -->
<g id="edge27" class="edge"><title>Node6&#45;&gt;Node21</title>
<path fill="none" stroke="midnightblue" d="M502.543,-355.989C439.432,-352.121 328.652,-341.249 303,-312 277.099,-282.467 284.045,-232.496 290.533,-205.202"/>
<polygon fill="midnightblue" stroke="midnightblue" points="293.972,-205.884 293.101,-195.325 287.197,-204.122 293.972,-205.884"/>
</g>
<!-- Node22 -->
<g id="node22" class="node"><title>Node22</title>
<g id="a_node22"><a xlink:href="_color_8h.html" target="_top" xlink:title="cinder/Color.h">
<polygon fill="white" stroke="black" points="178.148,-233 178.148,-253 255.852,-253 255.852,-233 178.148,-233"/>
<text text-anchor="middle" x="217" y="-239" font-family="Helvetica,sans-Serif" font-size="10.00">cinder/Color.h</text>
</a>
</g>
</g>
<!-- Node6&#45;&gt;Node22 -->
<g id="edge29" class="edge"><title>Node6&#45;&gt;Node22</title>
<path fill="none" stroke="midnightblue" d="M502.461,-354.548C434.437,-348.624 308.492,-334.898 270,-312 250.186,-300.213 235.028,-277.992 226.097,-262.161"/>
<polygon fill="midnightblue" stroke="midnightblue" points="229.152,-260.452 221.354,-253.28 222.977,-263.749 229.152,-260.452"/>
</g>
<!-- Node23 -->
<g id="node23" class="node"><title>Node23</title>
<g id="a_node23"><a xlink:href="_filesystem_8h.html" target="_top" xlink:title="cinder/Filesystem.h">
<polygon fill="white" stroke="black" points="311.931,-291 311.931,-311 414.069,-311 414.069,-291 311.931,-291"/>
<text text-anchor="middle" x="363" y="-297" font-family="Helvetica,sans-Serif" font-size="10.00">cinder/Filesystem.h</text>
</a>
</g>
</g>
<!-- Node6&#45;&gt;Node23 -->
<g id="edge34" class="edge"><title>Node6&#45;&gt;Node23</title>
<path fill="none" stroke="midnightblue" d="M517.028,-348.878C485.793,-339.372 436.704,-324.432 402.362,-313.98"/>
<polygon fill="midnightblue" stroke="midnightblue" points="403.24,-310.589 392.655,-311.025 401.202,-317.285 403.24,-310.589"/>
</g>
<!-- Node25 -->
<g id="node25" class="node"><title>Node25</title>
<polygon fill="white" stroke="#bfbfbf" points="432.357,-291 432.357,-311 545.643,-311 545.643,-291 432.357,-291"/>
<text text-anchor="middle" x="489" y="-297" font-family="Helvetica,sans-Serif" font-size="10.00">boost/logic/tribool.hpp</text>
</g>
<!-- Node6&#45;&gt;Node25 -->
<g id="edge37" class="edge"><title>Node6&#45;&gt;Node25</title>
<path fill="none" stroke="midnightblue" d="M537.422,-348.753C528.808,-340.435 515.961,-328.031 505.664,-318.089"/>
<polygon fill="midnightblue" stroke="midnightblue" points="508.024,-315.503 498.399,-311.075 503.162,-320.539 508.024,-315.503"/>
</g>
<!-- Node7&#45;&gt;Node2 -->
<g id="edge8" class="edge"><title>Node7&#45;&gt;Node2</title>
<path fill="none" stroke="midnightblue" d="M606.677,-232.855C613.526,-224.053 623.062,-210.043 627,-196 629.64,-186.585 628.466,-183.667 627,-174 622.954,-147.314 619.903,-140.69 609,-116 604.706,-106.276 598.833,-96.0226 593.662,-87.6705"/>
<polygon fill="midnightblue" stroke="midnightblue" points="596.572,-85.7249 588.242,-79.178 590.671,-89.4906 596.572,-85.7249"/>
</g>
<!-- Node8 -->
<g id="node8" class="node"><title>Node8</title>
<g id="a_node8"><a xlink:href="_vector_8h.html" target="_top" xlink:title="cinder/Vector.h">
<polygon fill="white" stroke="black" points="365.919,-175 365.919,-195 448.081,-195 448.081,-175 365.919,-175"/>
<text text-anchor="middle" x="407" y="-181" font-family="Helvetica,sans-Serif" font-size="10.00">cinder/Vector.h</text>
</a>
</g>
</g>
<!-- Node7&#45;&gt;Node8 -->
<g id="edge9" class="edge"><title>Node7&#45;&gt;Node8</title>
<path fill="none" stroke="midnightblue" d="M567.725,-232.878C534.992,-223.331 483.469,-208.303 447.613,-197.845"/>
<polygon fill="midnightblue" stroke="midnightblue" points="448.524,-194.465 437.944,-195.025 446.564,-201.185 448.524,-194.465"/>
</g>
<!-- Node11 -->
<g id="node11" class="node"><title>Node11</title>
<polygon fill="white" stroke="#bfbfbf" points="545.828,-117 545.828,-137 600.172,-137 600.172,-117 545.828,-117"/>
<text text-anchor="middle" x="573" y="-123" font-family="Helvetica,sans-Serif" font-size="10.00">iostream</text>
</g>
<!-- Node7&#45;&gt;Node11 -->
<g id="edge21" class="edge"><title>Node7&#45;&gt;Node11</title>
<path fill="none" stroke="midnightblue" d="M591.323,-232.855C584.474,-224.053 574.938,-210.043 571,-196 566.516,-180.008 567.561,-161.067 569.415,-147.241"/>
<polygon fill="midnightblue" stroke="midnightblue" points="572.928,-147.437 571.058,-137.009 566.017,-146.327 572.928,-147.437"/>
</g>
<!-- Node18 -->
<g id="node18" class="node"><title>Node18</title>
<polygon fill="white" stroke="#bfbfbf" points="579.608,-175 579.608,-195 618.392,-195 618.392,-175 579.608,-175"/>
<text text-anchor="middle" x="599" y="-181" font-family="Helvetica,sans-Serif" font-size="10.00">utility</text>
</g>
<!-- Node7&#45;&gt;Node18 -->
<g id="edge22" class="edge"><title>Node7&#45;&gt;Node18</title>
<path fill="none" stroke="midnightblue" d="M599,-232.753C599,-225.25 599,-214.424 599,-205.078"/>
<polygon fill="midnightblue" stroke="midnightblue" points="602.5,-205.075 599,-195.075 595.5,-205.075 602.5,-205.075"/>
</g>
<!-- Node7&#45;&gt;Node19 -->
<g id="edge23" class="edge"><title>Node7&#45;&gt;Node19</title>
<path fill="none" stroke="midnightblue" d="M636.752,-233.677C686.859,-222.629 774.445,-203.319 821.299,-192.989"/>
<polygon fill="midnightblue" stroke="midnightblue" points="822.185,-196.378 831.197,-190.807 820.678,-189.542 822.185,-196.378"/>
</g>
<!-- Node9 -->
<g id="node9" class="node"><title>Node9</title>
<polygon fill="white" stroke="#bfbfbf" points="234.384,-59 234.384,-79 277.616,-79 277.616,-59 234.384,-59"/>
<text text-anchor="middle" x="256" y="-65" font-family="Helvetica,sans-Serif" font-size="10.00">cmath</text>
</g>
<!-- Node8&#45;&gt;Node9 -->
<g id="edge10" class="edge"><title>Node8&#45;&gt;Node9</title>
<path fill="none" stroke="midnightblue" d="M381.102,-174.98C360.972,-167.175 333.03,-154.538 312,-138 293.881,-123.751 277.686,-102.71 267.43,-87.8133"/>
<polygon fill="midnightblue" stroke="midnightblue" points="270.31,-85.823 261.848,-79.4477 264.487,-89.7085 270.31,-85.823"/>
</g>
<!-- Node10 -->
<g id="node10" class="node"><title>Node10</title>
<polygon fill="white" stroke="#bfbfbf" points="444.273,-117 444.273,-137 489.727,-137 489.727,-117 444.273,-117"/>
<text text-anchor="middle" x="467" y="-123" font-family="Helvetica,sans-Serif" font-size="10.00">cstring</text>
</g>
<!-- Node8&#45;&gt;Node10 -->
<g id="edge11" class="edge"><title>Node8&#45;&gt;Node10</title>
<path fill="none" stroke="midnightblue" d="M416.908,-174.753C425.82,-166.435 439.11,-154.031 449.762,-144.089"/>
<polygon fill="midnightblue" stroke="midnightblue" points="452.354,-146.457 457.277,-137.075 447.578,-141.34 452.354,-146.457"/>
</g>
<!-- Node8&#45;&gt;Node11 -->
<g id="edge12" class="edge"><title>Node8&#45;&gt;Node11</title>
<path fill="none" stroke="midnightblue" d="M434.04,-174.878C461.977,-165.453 505.747,-150.688 536.688,-140.25"/>
<polygon fill="midnightblue" stroke="midnightblue" points="537.89,-143.538 546.246,-137.025 535.652,-136.906 537.89,-143.538"/>
</g>
<!-- Node12 -->
<g id="node12" class="node"><title>Node12</title>
<polygon fill="white" stroke="#bfbfbf" points="320.884,-117 320.884,-137 369.116,-137 369.116,-117 320.884,-117"/>
<text text-anchor="middle" x="345" y="-123" font-family="Helvetica,sans-Serif" font-size="10.00">cassert</text>
</g>
<!-- Node8&#45;&gt;Node12 -->
<g id="edge13" class="edge"><title>Node8&#45;&gt;Node12</title>
<path fill="none" stroke="midnightblue" d="M396.762,-174.753C387.463,-166.353 373.55,-153.787 362.49,-143.798"/>
<polygon fill="midnightblue" stroke="midnightblue" points="364.815,-141.181 355.048,-137.075 360.123,-146.375 364.815,-141.181"/>
</g>
<!-- Node13 -->
<g id="node13" class="node"><title>Node13</title>
<polygon fill="white" stroke="#bfbfbf" points="387.613,-117 387.613,-137 426.387,-137 426.387,-117 387.613,-117"/>
<text text-anchor="middle" x="407" y="-123" font-family="Helvetica,sans-Serif" font-size="10.00">limits</text>
</g>
<!-- Node8&#45;&gt;Node13 -->
<g id="edge14" class="edge"><title>Node8&#45;&gt;Node13</title>
<path fill="none" stroke="midnightblue" d="M407,-174.753C407,-167.25 407,-156.424 407,-147.078"/>
<polygon fill="midnightblue" stroke="midnightblue" points="410.5,-147.075 407,-137.075 403.5,-147.075 410.5,-147.075"/>
</g>
<!-- Node14 -->
<g id="node14" class="node"><title>Node14</title>
<g id="a_node14"><a xlink:href="_cinder_math_8h.html" target="_top" xlink:title="cinder/CinderMath.h">
<polygon fill="white" stroke="black" points="44.978,-117 44.978,-137 151.022,-137 151.022,-117 44.978,-117"/>
<text text-anchor="middle" x="98" y="-123" font-family="Helvetica,sans-Serif" font-size="10.00">cinder/CinderMath.h</text>
</a>
</g>
</g>
<!-- Node8&#45;&gt;Node14 -->
<g id="edge15" class="edge"><title>Node8&#45;&gt;Node14</title>
<path fill="none" stroke="midnightblue" d="M365.816,-175.862C362.496,-175.225 359.193,-174.598 356,-174 289.337,-161.523 212.833,-147.98 160.55,-138.843"/>
<polygon fill="midnightblue" stroke="midnightblue" points="160.879,-135.347 150.426,-137.075 159.676,-142.243 160.879,-135.347"/>
</g>
<!-- Node14&#45;&gt;Node2 -->
<g id="edge16" class="edge"><title>Node14&#45;&gt;Node2</title>
<path fill="none" stroke="midnightblue" d="M151.368,-117.846C155.976,-117.2 160.568,-116.575 165,-116 296.167,-98.9832 451.076,-82.9616 530.042,-75.086"/>
<polygon fill="midnightblue" stroke="midnightblue" points="530.605,-78.5474 540.209,-74.0752 529.912,-71.5817 530.605,-78.5474"/>
</g>
<!-- Node14&#45;&gt;Node9 -->
<g id="edge17" class="edge"><title>Node14&#45;&gt;Node9</title>
<path fill="none" stroke="midnightblue" d="M123.737,-116.878C151.391,-107.077 195.344,-91.4983 224.91,-81.0191"/>
<polygon fill="midnightblue" stroke="midnightblue" points="226.085,-84.3161 234.341,-77.6765 223.747,-77.7183 226.085,-84.3161"/>
</g>
<!-- Node15 -->
<g id="node15" class="node"><title>Node15</title>
<polygon fill="white" stroke="#bfbfbf" points="76.1133,-59 76.1133,-79 119.887,-79 119.887,-59 76.1133,-59"/>
<text text-anchor="middle" x="98" y="-65" font-family="Helvetica,sans-Serif" font-size="10.00">climits</text>
</g>
<!-- Node14&#45;&gt;Node15 -->
<g id="edge18" class="edge"><title>Node14&#45;&gt;Node15</title>
<path fill="none" stroke="midnightblue" d="M98,-116.753C98,-109.25 98,-98.4238 98,-89.0781"/>
<polygon fill="midnightblue" stroke="midnightblue" points="101.5,-89.0752 98,-79.0752 94.5001,-89.0752 101.5,-89.0752"/>
</g>
<!-- Node16 -->
<g id="node16" class="node"><title>Node16</title>
<polygon fill="white" stroke="#bfbfbf" points="138.049,-59 138.049,-79 177.951,-79 177.951,-59 138.049,-59"/>
<text text-anchor="middle" x="158" y="-65" font-family="Helvetica,sans-Serif" font-size="10.00">cfloat</text>
</g>
<!-- Node14&#45;&gt;Node16 -->
<g id="edge19" class="edge"><title>Node14&#45;&gt;Node16</title>
<path fill="none" stroke="midnightblue" d="M107.908,-116.753C116.82,-108.435 130.11,-96.031 140.762,-86.0893"/>
<polygon fill="midnightblue" stroke="midnightblue" points="143.354,-88.4571 148.277,-79.0752 138.578,-83.3397 143.354,-88.4571"/>
</g>
<!-- Node17 -->
<g id="node17" class="node"><title>Node17</title>
<polygon fill="white" stroke="#bfbfbf" points="-0.403809,-59 -0.403809,-79 58.4038,-79 58.4038,-59 -0.403809,-59"/>
<text text-anchor="middle" x="29" y="-65" font-family="Helvetica,sans-Serif" font-size="10.00">functional</text>
</g>
<!-- Node14&#45;&gt;Node17 -->
<g id="edge20" class="edge"><title>Node14&#45;&gt;Node17</title>
<path fill="none" stroke="midnightblue" d="M86.6061,-116.753C76.1564,-108.272 60.4726,-95.543 48.1073,-85.5073"/>
<polygon fill="midnightblue" stroke="midnightblue" points="50.1521,-82.6593 40.1819,-79.0752 45.7409,-88.0945 50.1521,-82.6593"/>
</g>
<!-- Node20&#45;&gt;Node2 -->
<g id="edge25" class="edge"><title>Node20&#45;&gt;Node2</title>
<path fill="none" stroke="midnightblue" d="M649.384,-290.827C653.17,-262.609 661.322,-175.415 628,-116 621.505,-104.419 611.275,-93.774 602.109,-85.6473"/>
<polygon fill="midnightblue" stroke="midnightblue" points="604.352,-82.9604 594.449,-79.1937 599.842,-88.3136 604.352,-82.9604"/>
</g>
<!-- Node20&#45;&gt;Node7 -->
<g id="edge26" class="edge"><title>Node20&#45;&gt;Node7</title>
<path fill="none" stroke="midnightblue" d="M639.909,-290.753C632.773,-282.598 622.201,-270.516 613.592,-260.677"/>
<polygon fill="midnightblue" stroke="midnightblue" points="616.16,-258.296 606.941,-253.075 610.892,-262.906 616.16,-258.296"/>
</g>
<!-- Node21&#45;&gt;Node2 -->
<g id="edge28" class="edge"><title>Node21&#45;&gt;Node2</title>
<path fill="none" stroke="midnightblue" d="M295.247,-174.992C294.563,-160.344 295.56,-131.446 312,-116 342.738,-87.1212 460.523,-76.1773 529.958,-72.1793"/>
<polygon fill="midnightblue" stroke="midnightblue" points="530.456,-75.6574 540.25,-71.617 530.074,-68.6678 530.456,-75.6574"/>
</g>
<!-- Node22&#45;&gt;Node2 -->
<g id="edge30" class="edge"><title>Node22&#45;&gt;Node2</title>
<path fill="none" stroke="midnightblue" d="M218.043,-232.59C219.9,-218.872 224.705,-192.954 236,-174 254.986,-142.139 262.832,-132.597 296,-116 371.308,-78.3163 470.459,-70.2493 530.044,-69.1774"/>
<polygon fill="midnightblue" stroke="midnightblue" points="530.377,-72.6738 540.335,-69.055 530.294,-65.6742 530.377,-72.6738"/>
</g>
<!-- Node22&#45;&gt;Node21 -->
<g id="edge31" class="edge"><title>Node22&#45;&gt;Node21</title>
<path fill="none" stroke="midnightblue" d="M230.045,-232.753C242.239,-224.109 260.659,-211.052 274.936,-200.931"/>
<polygon fill="midnightblue" stroke="midnightblue" points="277.063,-203.714 283.197,-195.075 273.015,-198.003 277.063,-203.714"/>
</g>
<!-- Node22&#45;&gt;Node8 -->
<g id="edge32" class="edge"><title>Node22&#45;&gt;Node8</title>
<path fill="none" stroke="midnightblue" d="M247.95,-232.878C280.203,-223.372 330.893,-208.432 366.354,-197.98"/>
<polygon fill="midnightblue" stroke="midnightblue" points="367.776,-201.21 376.378,-195.025 365.797,-194.495 367.776,-201.21"/>
</g>
<!-- Node22&#45;&gt;Node14 -->
<g id="edge33" class="edge"><title>Node22&#45;&gt;Node14</title>
<path fill="none" stroke="midnightblue" d="M207.262,-232.671C187.026,-213.285 140.216,-168.442 114.932,-144.22"/>
<polygon fill="midnightblue" stroke="midnightblue" points="117.183,-141.53 107.54,-137.139 112.34,-146.585 117.183,-141.53"/>
</g>
<!-- Node23&#45;&gt;Node2 -->
<g id="edge35" class="edge"><title>Node23&#45;&gt;Node2</title>
<path fill="none" stroke="midnightblue" d="M378.378,-290.89C392.17,-282.323 412.555,-268.653 428,-254 484.702,-200.208 485.378,-174.684 537,-116 545.926,-105.853 556.465,-95.024 565.098,-86.4237"/>
<polygon fill="midnightblue" stroke="midnightblue" points="567.726,-88.748 572.391,-79.2354 562.812,-83.7627 567.726,-88.748"/>
</g>
<!-- Node24 -->
<g id="node24" class="node"><title>Node24</title>
<polygon fill="white" stroke="#bfbfbf" points="312.421,-233 312.421,-253 419.579,-253 419.579,-233 312.421,-233"/>
<text text-anchor="middle" x="366" y="-239" font-family="Helvetica,sans-Serif" font-size="10.00">boost/filesystem.hpp</text>
</g>
<!-- Node23&#45;&gt;Node24 -->
<g id="edge36" class="edge"><title>Node23&#45;&gt;Node24</title>
<path fill="none" stroke="midnightblue" d="M363.495,-290.753C363.897,-283.25 364.477,-272.424 364.978,-263.078"/>
<polygon fill="midnightblue" stroke="midnightblue" points="368.474,-263.248 365.514,-253.075 361.484,-262.874 368.474,-263.248"/>
</g>
<!-- Node26&#45;&gt;Node2 -->
<g id="edge39" class="edge"><title>Node26&#45;&gt;Node2</title>
<path fill="none" stroke="midnightblue" d="M635.517,-406.986C671.968,-384.517 760,-322.16 760,-244 760,-244 760,-244 760,-184 760,-123.496 686.168,-93.64 633.605,-80.0515"/>
<polygon fill="midnightblue" stroke="midnightblue" points="634.28,-76.6131 623.733,-77.6231 632.608,-83.4105 634.28,-76.6131"/>
</g>
<!-- Node26&#45;&gt;Node6 -->
<g id="edge40" class="edge"><title>Node26&#45;&gt;Node6</title>
<path fill="none" stroke="midnightblue" d="M607.946,-406.753C596.784,-398.19 579.977,-385.298 566.839,-375.219"/>
<polygon fill="midnightblue" stroke="midnightblue" points="568.895,-372.385 558.83,-369.075 564.634,-377.939 568.895,-372.385"/>
</g>
<!-- Node27 -->
<g id="node27" class="node"><title>Node27</title>
<g id="a_node27"><a xlink:href="_exception_8h.html" target="_top" xlink:title="cinder/Exception.h">
<polygon fill="white" stroke="black" points="890.865,-233 890.865,-253 989.135,-253 989.135,-233 890.865,-233"/>
<text text-anchor="middle" x="940" y="-239" font-family="Helvetica,sans-Serif" font-size="10.00">cinder/Exception.h</text>
</a>
</g>
</g>
<!-- Node26&#45;&gt;Node27 -->
<g id="edge41" class="edge"><title>Node26&#45;&gt;Node27</title>
<path fill="none" stroke="midnightblue" d="M665.264,-407.464C711.933,-398.184 781.149,-382.947 805,-370 857.121,-341.708 904.405,-288.515 926.629,-261.179"/>
<polygon fill="midnightblue" stroke="midnightblue" points="929.434,-263.275 932.938,-253.276 923.964,-258.907 929.434,-263.275"/>
</g>
<!-- Node29 -->
<g id="node29" class="node"><title>Node29</title>
<polygon fill="white" stroke="#bfbfbf" points="761.273,-349 761.273,-369 796.727,-369 796.727,-349 761.273,-349"/>
<text text-anchor="middle" x="779" y="-355" font-family="Helvetica,sans-Serif" font-size="10.00">map</text>
</g>
<!-- Node26&#45;&gt;Node29 -->
<g id="edge45" class="edge"><title>Node26&#45;&gt;Node29</title>
<path fill="none" stroke="midnightblue" d="M645.9,-406.878C674.868,-396.676 721.607,-380.214 751.29,-369.759"/>
<polygon fill="midnightblue" stroke="midnightblue" points="752.752,-372.955 761.022,-366.332 750.427,-366.353 752.752,-372.955"/>
</g>
<!-- Node27&#45;&gt;Node2 -->
<g id="edge42" class="edge"><title>Node27&#45;&gt;Node2</title>
<path fill="none" stroke="midnightblue" d="M933.925,-232.664C924.402,-218.575 904.781,-191.653 883,-174 809,-114.025 698.277,-87.6724 633.774,-76.8503"/>
<polygon fill="midnightblue" stroke="midnightblue" points="634.261,-73.3837 623.831,-75.244 633.145,-80.2941 634.261,-73.3837"/>
</g>
<!-- Node27&#45;&gt;Node19 -->
<g id="edge43" class="edge"><title>Node27&#45;&gt;Node19</title>
<path fill="none" stroke="midnightblue" d="M925.634,-232.753C912.078,-224.027 891.536,-210.805 875.753,-200.646"/>
<polygon fill="midnightblue" stroke="midnightblue" points="877.402,-197.545 867.099,-195.075 873.613,-203.431 877.402,-197.545"/>
</g>
<!-- Node28 -->
<g id="node28" class="node"><title>Node28</title>
<polygon fill="white" stroke="#bfbfbf" points="930.773,-175 930.773,-195 971.227,-195 971.227,-175 930.773,-175"/>
<text text-anchor="middle" x="951" y="-181" font-family="Helvetica,sans-Serif" font-size="10.00">string</text>
</g>
<!-- Node27&#45;&gt;Node28 -->
<g id="edge44" class="edge"><title>Node27&#45;&gt;Node28</title>
<path fill="none" stroke="midnightblue" d="M941.816,-232.753C943.29,-225.25 945.417,-214.424 947.253,-205.078"/>
<polygon fill="midnightblue" stroke="midnightblue" points="950.724,-205.562 949.217,-195.075 943.855,-204.213 950.724,-205.562"/>
</g>
</g>
</svg>
