<?xml version="1.0" encoding="UTF-8" standalone="no"?>
<!DOCTYPE svg PUBLIC "-//W3C//DTD SVG 1.1//EN"
 "http://www.w3.org/Graphics/SVG/1.1/DTD/svg11.dtd">
<!-- Generated by graphviz version 2.30.1 (20140712.1814)
 -->
<!-- Title: include/cinder/CaptureImplQtKit.h Pages: 1 -->
<!--zoomable 506 -->
<svg id="main" version="1.1" xmlns="http://www.w3.org/2000/svg" xmlns:xlink="http://www.w3.org/1999/xlink" xml:space="preserve" onload="init(evt)">
<style type="text/css"><![CDATA[
.edge:hover path { stroke: red; }
.edge:hover polygon { stroke: red; fill: red; }
]]></style>
<script type="text/javascript"><![CDATA[
var edges = document.getElementsByTagName('g');
if (edges && edges.length) {
  for (var i=0;i<edges.length;i++) {
    if (edges[i].id.substr(0,4)=='edge') {
      edges[i].setAttribute('class','edge');
    }
  }
}
]]></script>
        <defs>
                <circle id="rim" cx="0" cy="0" r="7"/>
                <circle id="rim2" cx="0" cy="0" r="3.5"/>
                <g id="zoomPlus">
                        <use xlink:href="#rim" fill="#404040">
                                <set attributeName="fill" to="#808080" begin="zoomplus.mouseover" end="zoomplus.mouseout"/>
                        </use>
                        <path d="M-4,0h8M0,-4v8" fill="none" stroke="white" stroke-width="1.5" pointer-events="none"/>
                </g>
                <g id="zoomMin">
                        <use xlink:href="#rim" fill="#404040">
                                <set attributeName="fill" to="#808080" begin="zoomminus.mouseover" end="zoomminus.mouseout"/>
                        </use>
                        <path d="M-4,0h8" fill="none" stroke="white" stroke-width="1.5" pointer-events="none"/>
                </g>
                <g id="dirArrow">
                        <path fill="none" stroke="white" stroke-width="1.5" d="M0,-3.0v7 M-2.5,-0.5L0,-3.0L2.5,-0.5"/>
                </g>
               <g id="resetDef">
                       <use xlink:href="#rim2" fill="#404040">
                               <set attributeName="fill" to="#808080" begin="reset.mouseover" end="reset.mouseout"/>
                       </use>
               </g>
        </defs>

<script type="text/javascript">
var viewWidth = 971;
var viewHeight = 506;
var sectionId = 'dynsection-0';
</script>
<script xlink:href="svgpan.js"/>
<svg id="graph" class="graph">
<g id="viewport">
<title>include/cinder/CaptureImplQtKit.h</title>
<polygon fill="white" stroke="white" points="-4,5 -4,-502 968,-502 968,5 -4,5"/>
<!-- Node1 -->
<g id="node1" class="node"><title>Node1</title>
<polygon fill="#bfbfbf" stroke="black" points="599.525,-465 599.525,-497 734.475,-497 734.475,-465 599.525,-465"/>
<text text-anchor="start" x="607.525" y="-483" font-family="Helvetica,sans-Serif" font-size="10.00">include/cinder/CaptureImpl</text>
<text text-anchor="middle" x="667" y="-471" font-family="Helvetica,sans-Serif" font-size="10.00">QtKit.h</text>
</g>
<!-- Node2 -->
<g id="node2" class="node"><title>Node2</title>
<g id="a_node2"><a xlink:href="_cinder_8h.html" target="_top" xlink:title="cinder/Cinder.h">
<polygon fill="white" stroke="black" points="540.367,-59 540.367,-79 623.633,-79 623.633,-59 540.367,-59"/>
<text text-anchor="middle" x="582" y="-65" font-family="Helvetica,sans-Serif" font-size="10.00">cinder/Cinder.h</text>
</a>
</g>
</g>
<!-- Node1&#45;&gt;Node2 -->
<g id="edge1" class="edge"><title>Node1&#45;&gt;Node2</title>
<path fill="none" stroke="midnightblue" d="M599.312,-478.628C457.247,-473.909 141,-452.963 141,-360 141,-360 141,-360 141,-242 141,-165.277 190.941,-151.417 259,-116 305.103,-92.0087 451.086,-78.7757 530.062,-73.2052"/>
<polygon fill="midnightblue" stroke="midnightblue" points="530.544,-76.6804 540.279,-72.501 530.062,-69.697 530.544,-76.6804"/>
</g>
<!-- Node6 -->
<g id="node6" class="node"><title>Node6</title>
<g id="a_node6"><a xlink:href="_surface_8h.html" target="_top" xlink:title="cinder/Surface.h">
<polygon fill="white" stroke="black" points="529.591,-349 529.591,-369 618.409,-369 618.409,-349 529.591,-349"/>
<text text-anchor="middle" x="574" y="-355" font-family="Helvetica,sans-Serif" font-size="10.00">cinder/Surface.h</text>
</a>
</g>
</g>
<!-- Node1&#45;&gt;Node6 -->
<g id="edge5" class="edge"><title>Node1&#45;&gt;Node6</title>
<path fill="none" stroke="midnightblue" d="M648.955,-464.975C637.807,-455.151 623.647,-441.648 613,-428 600.875,-412.458 589.986,-392.734 582.815,-378.537"/>
<polygon fill="midnightblue" stroke="midnightblue" points="585.836,-376.748 578.287,-369.314 579.553,-379.833 585.836,-376.748"/>
</g>
<!-- Node26 -->
<g id="node26" class="node"><title>Node26</title>
<g id="a_node26"><a xlink:href="_capture_8h.html" target="_top" xlink:title="cinder/Capture.h">
<polygon fill="white" stroke="black" points="622.035,-407 622.035,-427 711.965,-427 711.965,-407 622.035,-407"/>
<text text-anchor="middle" x="667" y="-413" font-family="Helvetica,sans-Serif" font-size="10.00">cinder/Capture.h</text>
</a>
</g>
</g>
<!-- Node1&#45;&gt;Node26 -->
<g id="edge38" class="edge"><title>Node1&#45;&gt;Node26</title>
<path fill="none" stroke="midnightblue" d="M667,-464.992C667,-456.726 667,-446.373 667,-437.489"/>
<polygon fill="midnightblue" stroke="midnightblue" points="670.5,-437.29 667,-427.29 663.5,-437.29 670.5,-437.29"/>
</g>
<!-- Node30 -->
<g id="node30" class="node"><title>Node30</title>
<polygon fill="white" stroke="#bfbfbf" points="729.884,-407 729.884,-427 808.116,-427 808.116,-407 729.884,-407"/>
<text text-anchor="middle" x="769" y="-413" font-family="Helvetica,sans-Serif" font-size="10.00">QTKit/QTKit.h</text>
</g>
<!-- Node1&#45;&gt;Node30 -->
<g id="edge46" class="edge"><title>Node1&#45;&gt;Node30</title>
<path fill="none" stroke="midnightblue" d="M691.691,-464.992C707.956,-455.105 729.136,-442.231 745.214,-432.458"/>
<polygon fill="midnightblue" stroke="midnightblue" points="747.287,-435.294 754.015,-427.109 743.651,-429.312 747.287,-435.294"/>
</g>
<!-- Node19 -->
<g id="node19" class="node"><title>Node19</title>
<polygon fill="white" stroke="#bfbfbf" points="804.384,-175 804.384,-195 847.616,-195 847.616,-175 804.384,-175"/>
<text text-anchor="middle" x="826" y="-181" font-family="Helvetica,sans-Serif" font-size="10.00">vector</text>
</g>
<!-- Node1&#45;&gt;Node19 -->
<g id="edge47" class="edge"><title>Node1&#45;&gt;Node19</title>
<path fill="none" stroke="midnightblue" d="M734.767,-470.783C763.654,-463.59 795.567,-450.787 817,-428 838.499,-405.142 836,-391.38 836,-360 836,-360 836,-360 836,-300 836,-266.518 831.666,-227.714 828.705,-205.106"/>
<polygon fill="midnightblue" stroke="midnightblue" points="832.165,-204.575 827.349,-195.138 825.229,-205.518 832.165,-204.575"/>
</g>
<!-- Node3 -->
<g id="node3" class="node"><title>Node3</title>
<polygon fill="white" stroke="#bfbfbf" points="471.549,-1 471.549,-21 516.451,-21 516.451,-1 471.549,-1"/>
<text text-anchor="middle" x="494" y="-7" font-family="Helvetica,sans-Serif" font-size="10.00">cstdint</text>
</g>
<!-- Node2&#45;&gt;Node3 -->
<g id="edge2" class="edge"><title>Node2&#45;&gt;Node3</title>
<path fill="none" stroke="midnightblue" d="M567.469,-58.7527C553.757,-50.0272 532.979,-36.8051 517.015,-26.6458"/>
<polygon fill="midnightblue" stroke="midnightblue" points="518.577,-23.4912 508.261,-21.0752 514.819,-29.3968 518.577,-23.4912"/>
</g>
<!-- Node4 -->
<g id="node4" class="node"><title>Node4</title>
<polygon fill="white" stroke="#bfbfbf" points="534.53,-1 534.53,-21 629.47,-21 629.47,-1 534.53,-1"/>
<text text-anchor="middle" x="582" y="-7" font-family="Helvetica,sans-Serif" font-size="10.00">boost/version.hpp</text>
</g>
<!-- Node2&#45;&gt;Node4 -->
<g id="edge3" class="edge"><title>Node2&#45;&gt;Node4</title>
<path fill="none" stroke="midnightblue" d="M582,-58.7527C582,-51.2504 582,-40.4238 582,-31.0781"/>
<polygon fill="midnightblue" stroke="midnightblue" points="585.5,-31.0752 582,-21.0752 578.5,-31.0752 585.5,-31.0752"/>
</g>
<!-- Node5 -->
<g id="node5" class="node"><title>Node5</title>
<polygon fill="white" stroke="#bfbfbf" points="647.621,-1 647.621,-21 780.379,-21 780.379,-1 647.621,-1"/>
<text text-anchor="middle" x="714" y="-7" font-family="Helvetica,sans-Serif" font-size="10.00">boost/checked_delete.hpp</text>
</g>
<!-- Node2&#45;&gt;Node5 -->
<g id="edge4" class="edge"><title>Node2&#45;&gt;Node5</title>
<path fill="none" stroke="midnightblue" d="M603.502,-58.878C625.172,-49.6848 658.821,-35.4095 683.295,-25.0263"/>
<polygon fill="midnightblue" stroke="midnightblue" points="684.668,-28.2457 692.507,-21.1181 681.935,-21.8016 684.668,-28.2457"/>
</g>
<!-- Node6&#45;&gt;Node2 -->
<g id="edge6" class="edge"><title>Node6&#45;&gt;Node2</title>
<path fill="none" stroke="midnightblue" d="M618.715,-352.303C646.242,-346.548 680.295,-335.024 702,-312 723.609,-289.078 722,-275.502 722,-244 722,-244 722,-244 722,-184 722,-131.477 662.018,-98.8702 620.577,-82.6099"/>
<polygon fill="midnightblue" stroke="midnightblue" points="621.6,-79.2554 611.008,-79.0125 619.137,-85.8077 621.6,-79.2554"/>
</g>
<!-- Node7 -->
<g id="node7" class="node"><title>Node7</title>
<g id="a_node7"><a xlink:href="_area_8h.html" target="_top" xlink:title="cinder/Area.h">
<polygon fill="white" stroke="black" points="561.261,-233 561.261,-253 636.739,-253 636.739,-233 561.261,-233"/>
<text text-anchor="middle" x="599" y="-239" font-family="Helvetica,sans-Serif" font-size="10.00">cinder/Area.h</text>
</a>
</g>
</g>
<!-- Node6&#45;&gt;Node7 -->
<g id="edge7" class="edge"><title>Node6&#45;&gt;Node7</title>
<path fill="none" stroke="midnightblue" d="M576.046,-348.671C580.131,-330.041 589.373,-287.898 594.802,-263.143"/>
<polygon fill="midnightblue" stroke="midnightblue" points="598.272,-263.657 596.996,-253.139 591.435,-262.158 598.272,-263.657"/>
</g>
<!-- Node20 -->
<g id="node20" class="node"><title>Node20</title>
<g id="a_node20"><a xlink:href="_channel_8h.html" target="_top" xlink:title="cinder/Channel.h">
<polygon fill="white" stroke="black" points="602.197,-291 602.197,-311 693.803,-311 693.803,-291 602.197,-291"/>
<text text-anchor="middle" x="648" y="-297" font-family="Helvetica,sans-Serif" font-size="10.00">cinder/Channel.h</text>
</a>
</g>
</g>
<!-- Node6&#45;&gt;Node20 -->
<g id="edge24" class="edge"><title>Node6&#45;&gt;Node20</title>
<path fill="none" stroke="midnightblue" d="M586.22,-348.753C597.534,-340.19 614.571,-327.298 627.89,-317.219"/>
<polygon fill="midnightblue" stroke="midnightblue" points="630.146,-319.901 636.008,-311.075 625.922,-314.319 630.146,-319.901"/>
</g>
<!-- Node21 -->
<g id="node21" class="node"><title>Node21</title>
<g id="a_node21"><a xlink:href="_chan_traits_8h.html" target="_top" xlink:title="cinder/ChanTraits.h">
<polygon fill="white" stroke="black" points="244.553,-175 244.553,-195 347.447,-195 347.447,-175 244.553,-175"/>
<text text-anchor="middle" x="296" y="-181" font-family="Helvetica,sans-Serif" font-size="10.00">cinder/ChanTraits.h</text>
</a>
</g>
</g>
<!-- Node6&#45;&gt;Node21 -->
<g id="edge27" class="edge"><title>Node6&#45;&gt;Node21</title>
<path fill="none" stroke="midnightblue" d="M529.533,-356.934C460.49,-354.258 332.367,-344.876 303,-312 276.703,-282.561 283.955,-232.147 290.558,-204.865"/>
<polygon fill="midnightblue" stroke="midnightblue" points="293.988,-205.584 293.16,-195.022 287.22,-203.795 293.988,-205.584"/>
</g>
<!-- Node22 -->
<g id="node22" class="node"><title>Node22</title>
<g id="a_node22"><a xlink:href="_color_8h.html" target="_top" xlink:title="cinder/Color.h">
<polygon fill="white" stroke="black" points="178.148,-233 178.148,-253 255.852,-253 255.852,-233 178.148,-233"/>
<text text-anchor="middle" x="217" y="-239" font-family="Helvetica,sans-Serif" font-size="10.00">cinder/Color.h</text>
</a>
</g>
</g>
<!-- Node6&#45;&gt;Node22 -->
<g id="edge29" class="edge"><title>Node6&#45;&gt;Node22</title>
<path fill="none" stroke="midnightblue" d="M529.334,-355.29C455.811,-350.168 313.133,-337.241 270,-312 250.101,-300.356 234.961,-278.106 226.057,-262.229"/>
<polygon fill="midnightblue" stroke="midnightblue" points="229.108,-260.513 221.331,-253.318 222.924,-263.793 229.108,-260.513"/>
</g>
<!-- Node23 -->
<g id="node23" class="node"><title>Node23</title>
<g id="a_node23"><a xlink:href="_filesystem_8h.html" target="_top" xlink:title="cinder/Filesystem.h">
<polygon fill="white" stroke="black" points="311.931,-291 311.931,-311 414.069,-311 414.069,-291 311.931,-291"/>
<text text-anchor="middle" x="363" y="-297" font-family="Helvetica,sans-Serif" font-size="10.00">cinder/Filesystem.h</text>
</a>
</g>
</g>
<!-- Node6&#45;&gt;Node23 -->
<g id="edge34" class="edge"><title>Node6&#45;&gt;Node23</title>
<path fill="none" stroke="midnightblue" d="M539.63,-348.878C503.427,-339.27 446.309,-324.11 406.876,-313.645"/>
<polygon fill="midnightblue" stroke="midnightblue" points="407.569,-310.208 397.006,-311.025 405.774,-316.973 407.569,-310.208"/>
</g>
<!-- Node25 -->
<g id="node25" class="node"><title>Node25</title>
<polygon fill="white" stroke="#bfbfbf" points="432.357,-291 432.357,-311 545.643,-311 545.643,-291 432.357,-291"/>
<text text-anchor="middle" x="489" y="-297" font-family="Helvetica,sans-Serif" font-size="10.00">boost/logic/tribool.hpp</text>
</g>
<!-- Node6&#45;&gt;Node25 -->
<g id="edge37" class="edge"><title>Node6&#45;&gt;Node25</title>
<path fill="none" stroke="midnightblue" d="M559.964,-348.753C546.72,-340.027 526.651,-326.805 511.23,-316.646"/>
<polygon fill="midnightblue" stroke="midnightblue" points="513.051,-313.654 502.775,-311.075 509.2,-319.5 513.051,-313.654"/>
</g>
<!-- Node7&#45;&gt;Node2 -->
<g id="edge8" class="edge"><title>Node7&#45;&gt;Node2</title>
<path fill="none" stroke="midnightblue" d="M606.677,-232.855C613.526,-224.053 623.062,-210.043 627,-196 629.64,-186.585 628.466,-183.667 627,-174 622.954,-147.314 619.903,-140.69 609,-116 604.706,-106.276 598.833,-96.0226 593.662,-87.6705"/>
<polygon fill="midnightblue" stroke="midnightblue" points="596.572,-85.7249 588.242,-79.178 590.671,-89.4906 596.572,-85.7249"/>
</g>
<!-- Node8 -->
<g id="node8" class="node"><title>Node8</title>
<g id="a_node8"><a xlink:href="_vector_8h.html" target="_top" xlink:title="cinder/Vector.h">
<polygon fill="white" stroke="black" points="365.919,-175 365.919,-195 448.081,-195 448.081,-175 365.919,-175"/>
<text text-anchor="middle" x="407" y="-181" font-family="Helvetica,sans-Serif" font-size="10.00">cinder/Vector.h</text>
</a>
</g>
</g>
<!-- Node7&#45;&gt;Node8 -->
<g id="edge9" class="edge"><title>Node7&#45;&gt;Node8</title>
<path fill="none" stroke="midnightblue" d="M567.725,-232.878C534.992,-223.331 483.469,-208.303 447.613,-197.845"/>
<polygon fill="midnightblue" stroke="midnightblue" points="448.524,-194.465 437.944,-195.025 446.564,-201.185 448.524,-194.465"/>
</g>
<!-- Node11 -->
<g id="node11" class="node"><title>Node11</title>
<polygon fill="white" stroke="#bfbfbf" points="545.828,-117 545.828,-137 600.172,-137 600.172,-117 545.828,-117"/>
<text text-anchor="middle" x="573" y="-123" font-family="Helvetica,sans-Serif" font-size="10.00">iostream</text>
</g>
<!-- Node7&#45;&gt;Node11 -->
<g id="edge21" class="edge"><title>Node7&#45;&gt;Node11</title>
<path fill="none" stroke="midnightblue" d="M591.323,-232.855C584.474,-224.053 574.938,-210.043 571,-196 566.516,-180.008 567.561,-161.067 569.415,-147.241"/>
<polygon fill="midnightblue" stroke="midnightblue" points="572.928,-147.437 571.058,-137.009 566.017,-146.327 572.928,-147.437"/>
</g>
<!-- Node18 -->
<g id="node18" class="node"><title>Node18</title>
<polygon fill="white" stroke="#bfbfbf" points="579.608,-175 579.608,-195 618.392,-195 618.392,-175 579.608,-175"/>
<text text-anchor="middle" x="599" y="-181" font-family="Helvetica,sans-Serif" font-size="10.00">utility</text>
</g>
<!-- Node7&#45;&gt;Node18 -->
<g id="edge22" class="edge"><title>Node7&#45;&gt;Node18</title>
<path fill="none" stroke="midnightblue" d="M599,-232.753C599,-225.25 599,-214.424 599,-205.078"/>
<polygon fill="midnightblue" stroke="midnightblue" points="602.5,-205.075 599,-195.075 595.5,-205.075 602.5,-205.075"/>
</g>
<!-- Node7&#45;&gt;Node19 -->
<g id="edge23" class="edge"><title>Node7&#45;&gt;Node19</title>
<path fill="none" stroke="midnightblue" d="M635.724,-232.94C679.681,-222.096 752.562,-204.117 794.209,-193.843"/>
<polygon fill="midnightblue" stroke="midnightblue" points="795.217,-197.199 804.088,-191.406 793.54,-190.403 795.217,-197.199"/>
</g>
<!-- Node9 -->
<g id="node9" class="node"><title>Node9</title>
<polygon fill="white" stroke="#bfbfbf" points="234.384,-59 234.384,-79 277.616,-79 277.616,-59 234.384,-59"/>
<text text-anchor="middle" x="256" y="-65" font-family="Helvetica,sans-Serif" font-size="10.00">cmath</text>
</g>
<!-- Node8&#45;&gt;Node9 -->
<g id="edge10" class="edge"><title>Node8&#45;&gt;Node9</title>
<path fill="none" stroke="midnightblue" d="M381.102,-174.98C360.972,-167.175 333.03,-154.538 312,-138 293.881,-123.751 277.686,-102.71 267.43,-87.8133"/>
<polygon fill="midnightblue" stroke="midnightblue" points="270.31,-85.823 261.848,-79.4477 264.487,-89.7085 270.31,-85.823"/>
</g>
<!-- Node10 -->
<g id="node10" class="node"><title>Node10</title>
<polygon fill="white" stroke="#bfbfbf" points="444.273,-117 444.273,-137 489.727,-137 489.727,-117 444.273,-117"/>
<text text-anchor="middle" x="467" y="-123" font-family="Helvetica,sans-Serif" font-size="10.00">cstring</text>
</g>
<!-- Node8&#45;&gt;Node10 -->
<g id="edge11" class="edge"><title>Node8&#45;&gt;Node10</title>
<path fill="none" stroke="midnightblue" d="M416.908,-174.753C425.82,-166.435 439.11,-154.031 449.762,-144.089"/>
<polygon fill="midnightblue" stroke="midnightblue" points="452.354,-146.457 457.277,-137.075 447.578,-141.34 452.354,-146.457"/>
</g>
<!-- Node8&#45;&gt;Node11 -->
<g id="edge12" class="edge"><title>Node8&#45;&gt;Node11</title>
<path fill="none" stroke="midnightblue" d="M434.04,-174.878C461.977,-165.453 505.747,-150.688 536.688,-140.25"/>
<polygon fill="midnightblue" stroke="midnightblue" points="537.89,-143.538 546.246,-137.025 535.652,-136.906 537.89,-143.538"/>
</g>
<!-- Node12 -->
<g id="node12" class="node"><title>Node12</title>
<polygon fill="white" stroke="#bfbfbf" points="320.884,-117 320.884,-137 369.116,-137 369.116,-117 320.884,-117"/>
<text text-anchor="middle" x="345" y="-123" font-family="Helvetica,sans-Serif" font-size="10.00">cassert</text>
</g>
<!-- Node8&#45;&gt;Node12 -->
<g id="edge13" class="edge"><title>Node8&#45;&gt;Node12</title>
<path fill="none" stroke="midnightblue" d="M396.762,-174.753C387.463,-166.353 373.55,-153.787 362.49,-143.798"/>
<polygon fill="midnightblue" stroke="midnightblue" points="364.815,-141.181 355.048,-137.075 360.123,-146.375 364.815,-141.181"/>
</g>
<!-- Node13 -->
<g id="node13" class="node"><title>Node13</title>
<polygon fill="white" stroke="#bfbfbf" points="387.613,-117 387.613,-137 426.387,-137 426.387,-117 387.613,-117"/>
<text text-anchor="middle" x="407" y="-123" font-family="Helvetica,sans-Serif" font-size="10.00">limits</text>
</g>
<!-- Node8&#45;&gt;Node13 -->
<g id="edge14" class="edge"><title>Node8&#45;&gt;Node13</title>
<path fill="none" stroke="midnightblue" d="M407,-174.753C407,-167.25 407,-156.424 407,-147.078"/>
<polygon fill="midnightblue" stroke="midnightblue" points="410.5,-147.075 407,-137.075 403.5,-147.075 410.5,-147.075"/>
</g>
<!-- Node14 -->
<g id="node14" class="node"><title>Node14</title>
<g id="a_node14"><a xlink:href="_cinder_math_8h.html" target="_top" xlink:title="cinder/CinderMath.h">
<polygon fill="white" stroke="black" points="44.978,-117 44.978,-137 151.022,-137 151.022,-117 44.978,-117"/>
<text text-anchor="middle" x="98" y="-123" font-family="Helvetica,sans-Serif" font-size="10.00">cinder/CinderMath.h</text>
</a>
</g>
</g>
<!-- Node8&#45;&gt;Node14 -->
<g id="edge15" class="edge"><title>Node8&#45;&gt;Node14</title>
<path fill="none" stroke="midnightblue" d="M365.816,-175.862C362.496,-175.225 359.193,-174.598 356,-174 289.337,-161.523 212.833,-147.98 160.55,-138.843"/>
<polygon fill="midnightblue" stroke="midnightblue" points="160.879,-135.347 150.426,-137.075 159.676,-142.243 160.879,-135.347"/>
</g>
<!-- Node14&#45;&gt;Node2 -->
<g id="edge16" class="edge"><title>Node14&#45;&gt;Node2</title>
<path fill="none" stroke="midnightblue" d="M151.368,-117.846C155.976,-117.2 160.568,-116.575 165,-116 296.167,-98.9832 451.076,-82.9616 530.042,-75.086"/>
<polygon fill="midnightblue" stroke="midnightblue" points="530.605,-78.5474 540.209,-74.0752 529.912,-71.5817 530.605,-78.5474"/>
</g>
<!-- Node14&#45;&gt;Node9 -->
<g id="edge17" class="edge"><title>Node14&#45;&gt;Node9</title>
<path fill="none" stroke="midnightblue" d="M123.737,-116.878C151.391,-107.077 195.344,-91.4983 224.91,-81.0191"/>
<polygon fill="midnightblue" stroke="midnightblue" points="226.085,-84.3161 234.341,-77.6765 223.747,-77.7183 226.085,-84.3161"/>
</g>
<!-- Node15 -->
<g id="node15" class="node"><title>Node15</title>
<polygon fill="white" stroke="#bfbfbf" points="76.1133,-59 76.1133,-79 119.887,-79 119.887,-59 76.1133,-59"/>
<text text-anchor="middle" x="98" y="-65" font-family="Helvetica,sans-Serif" font-size="10.00">climits</text>
</g>
<!-- Node14&#45;&gt;Node15 -->
<g id="edge18" class="edge"><title>Node14&#45;&gt;Node15</title>
<path fill="none" stroke="midnightblue" d="M98,-116.753C98,-109.25 98,-98.4238 98,-89.0781"/>
<polygon fill="midnightblue" stroke="midnightblue" points="101.5,-89.0752 98,-79.0752 94.5001,-89.0752 101.5,-89.0752"/>
</g>
<!-- Node16 -->
<g id="node16" class="node"><title>Node16</title>
<polygon fill="white" stroke="#bfbfbf" points="138.049,-59 138.049,-79 177.951,-79 177.951,-59 138.049,-59"/>
<text text-anchor="middle" x="158" y="-65" font-family="Helvetica,sans-Serif" font-size="10.00">cfloat</text>
</g>
<!-- Node14&#45;&gt;Node16 -->
<g id="edge19" class="edge"><title>Node14&#45;&gt;Node16</title>
<path fill="none" stroke="midnightblue" d="M107.908,-116.753C116.82,-108.435 130.11,-96.031 140.762,-86.0893"/>
<polygon fill="midnightblue" stroke="midnightblue" points="143.354,-88.4571 148.277,-79.0752 138.578,-83.3397 143.354,-88.4571"/>
</g>
<!-- Node17 -->
<g id="node17" class="node"><title>Node17</title>
<polygon fill="white" stroke="#bfbfbf" points="-0.403809,-59 -0.403809,-79 58.4038,-79 58.4038,-59 -0.403809,-59"/>
<text text-anchor="middle" x="29" y="-65" font-family="Helvetica,sans-Serif" font-size="10.00">functional</text>
</g>
<!-- Node14&#45;&gt;Node17 -->
<g id="edge20" class="edge"><title>Node14&#45;&gt;Node17</title>
<path fill="none" stroke="midnightblue" d="M86.6061,-116.753C76.1564,-108.272 60.4726,-95.543 48.1073,-85.5073"/>
<polygon fill="midnightblue" stroke="midnightblue" points="50.1521,-82.6593 40.1819,-79.0752 45.7409,-88.0945 50.1521,-82.6593"/>
</g>
<!-- Node20&#45;&gt;Node2 -->
<g id="edge25" class="edge"><title>Node20&#45;&gt;Node2</title>
<path fill="none" stroke="midnightblue" d="M649.384,-290.827C653.17,-262.609 661.322,-175.415 628,-116 621.505,-104.419 611.275,-93.774 602.109,-85.6473"/>
<polygon fill="midnightblue" stroke="midnightblue" points="604.352,-82.9604 594.449,-79.1937 599.842,-88.3136 604.352,-82.9604"/>
</g>
<!-- Node20&#45;&gt;Node7 -->
<g id="edge26" class="edge"><title>Node20&#45;&gt;Node7</title>
<path fill="none" stroke="midnightblue" d="M639.909,-290.753C632.773,-282.598 622.201,-270.516 613.592,-260.677"/>
<polygon fill="midnightblue" stroke="midnightblue" points="616.16,-258.296 606.941,-253.075 610.892,-262.906 616.16,-258.296"/>
</g>
<!-- Node21&#45;&gt;Node2 -->
<g id="edge28" class="edge"><title>Node21&#45;&gt;Node2</title>
<path fill="none" stroke="midnightblue" d="M295.247,-174.992C294.563,-160.344 295.56,-131.446 312,-116 342.738,-87.1212 460.523,-76.1773 529.958,-72.1793"/>
<polygon fill="midnightblue" stroke="midnightblue" points="530.456,-75.6574 540.25,-71.617 530.074,-68.6678 530.456,-75.6574"/>
</g>
<!-- Node22&#45;&gt;Node2 -->
<g id="edge30" class="edge"><title>Node22&#45;&gt;Node2</title>
<path fill="none" stroke="midnightblue" d="M218.043,-232.59C219.9,-218.872 224.705,-192.954 236,-174 254.986,-142.139 262.832,-132.597 296,-116 371.308,-78.3163 470.459,-70.2493 530.044,-69.1774"/>
<polygon fill="midnightblue" stroke="midnightblue" points="530.377,-72.6738 540.335,-69.055 530.294,-65.6742 530.377,-72.6738"/>
</g>
<!-- Node22&#45;&gt;Node21 -->
<g id="edge31" class="edge"><title>Node22&#45;&gt;Node21</title>
<path fill="none" stroke="midnightblue" d="M230.045,-232.753C242.239,-224.109 260.659,-211.052 274.936,-200.931"/>
<polygon fill="midnightblue" stroke="midnightblue" points="277.063,-203.714 283.197,-195.075 273.015,-198.003 277.063,-203.714"/>
</g>
<!-- Node22&#45;&gt;Node8 -->
<g id="edge32" class="edge"><title>Node22&#45;&gt;Node8</title>
<path fill="none" stroke="midnightblue" d="M247.95,-232.878C280.203,-223.372 330.893,-208.432 366.354,-197.98"/>
<polygon fill="midnightblue" stroke="midnightblue" points="367.776,-201.21 376.378,-195.025 365.797,-194.495 367.776,-201.21"/>
</g>
<!-- Node22&#45;&gt;Node14 -->
<g id="edge33" class="edge"><title>Node22&#45;&gt;Node14</title>
<path fill="none" stroke="midnightblue" d="M207.262,-232.671C187.026,-213.285 140.216,-168.442 114.932,-144.22"/>
<polygon fill="midnightblue" stroke="midnightblue" points="117.183,-141.53 107.54,-137.139 112.34,-146.585 117.183,-141.53"/>
</g>
<!-- Node23&#45;&gt;Node2 -->
<g id="edge35" class="edge"><title>Node23&#45;&gt;Node2</title>
<path fill="none" stroke="midnightblue" d="M378.378,-290.89C392.17,-282.323 412.555,-268.653 428,-254 484.702,-200.208 485.378,-174.684 537,-116 545.926,-105.853 556.465,-95.024 565.098,-86.4237"/>
<polygon fill="midnightblue" stroke="midnightblue" points="567.726,-88.748 572.391,-79.2354 562.812,-83.7627 567.726,-88.748"/>
</g>
<!-- Node24 -->
<g id="node24" class="node"><title>Node24</title>
<polygon fill="white" stroke="#bfbfbf" points="312.421,-233 312.421,-253 419.579,-253 419.579,-233 312.421,-233"/>
<text text-anchor="middle" x="366" y="-239" font-family="Helvetica,sans-Serif" font-size="10.00">boost/filesystem.hpp</text>
</g>
<!-- Node23&#45;&gt;Node24 -->
<g id="edge36" class="edge"><title>Node23&#45;&gt;Node24</title>
<path fill="none" stroke="midnightblue" d="M363.495,-290.753C363.897,-283.25 364.477,-272.424 364.978,-263.078"/>
<polygon fill="midnightblue" stroke="midnightblue" points="368.474,-263.248 365.514,-253.075 361.484,-262.874 368.474,-263.248"/>
</g>
<!-- Node26&#45;&gt;Node2 -->
<g id="edge39" class="edge"><title>Node26&#45;&gt;Node2</title>
<path fill="none" stroke="midnightblue" d="M676.257,-406.882C699.78,-382.69 760,-313.93 760,-244 760,-244 760,-244 760,-184 760,-123.496 686.168,-93.64 633.605,-80.0515"/>
<polygon fill="midnightblue" stroke="midnightblue" points="634.28,-76.6131 623.733,-77.6231 632.608,-83.4105 634.28,-76.6131"/>
</g>
<!-- Node26&#45;&gt;Node6 -->
<g id="edge40" class="edge"><title>Node26&#45;&gt;Node6</title>
<path fill="none" stroke="midnightblue" d="M651.643,-406.753C637.017,-397.946 614.783,-384.558 597.851,-374.362"/>
<polygon fill="midnightblue" stroke="midnightblue" points="599.444,-371.235 589.071,-369.075 595.833,-377.232 599.444,-371.235"/>
</g>
<!-- Node27 -->
<g id="node27" class="node"><title>Node27</title>
<g id="a_node27"><a xlink:href="_exception_8h.html" target="_top" xlink:title="cinder/Exception.h">
<polygon fill="white" stroke="black" points="863.865,-233 863.865,-253 962.135,-253 962.135,-233 863.865,-233"/>
<text text-anchor="middle" x="913" y="-239" font-family="Helvetica,sans-Serif" font-size="10.00">cinder/Exception.h</text>
</a>
</g>
</g>
<!-- Node26&#45;&gt;Node27 -->
<g id="edge41" class="edge"><title>Node26&#45;&gt;Node27</title>
<path fill="none" stroke="midnightblue" d="M696.685,-406.95C719.888,-399.127 752.391,-386.484 778,-370 827.624,-338.059 875.684,-286.906 898.771,-260.684"/>
<polygon fill="midnightblue" stroke="midnightblue" points="901.442,-262.947 905.36,-253.103 896.158,-258.355 901.442,-262.947"/>
</g>
<!-- Node29 -->
<g id="node29" class="node"><title>Node29</title>
<polygon fill="white" stroke="#bfbfbf" points="734.273,-349 734.273,-369 769.727,-369 769.727,-349 734.273,-349"/>
<text text-anchor="middle" x="752" y="-355" font-family="Helvetica,sans-Serif" font-size="10.00">map</text>
</g>
<!-- Node26&#45;&gt;Node29 -->
<g id="edge45" class="edge"><title>Node26&#45;&gt;Node29</title>
<path fill="none" stroke="midnightblue" d="M681.036,-406.753C694.28,-398.027 714.349,-384.805 729.77,-374.646"/>
<polygon fill="midnightblue" stroke="midnightblue" points="731.8,-377.5 738.225,-369.075 727.949,-371.654 731.8,-377.5"/>
</g>
<!-- Node27&#45;&gt;Node2 -->
<g id="edge42" class="edge"><title>Node27&#45;&gt;Node2</title>
<path fill="none" stroke="midnightblue" d="M906.304,-232.546C896.289,-218.773 876.394,-192.787 856,-174 823.168,-143.755 814.661,-134.421 774,-116 728.907,-95.5707 673.583,-83.5513 633.924,-76.9551"/>
<polygon fill="midnightblue" stroke="midnightblue" points="634.369,-73.4817 623.941,-75.3538 633.26,-80.3934 634.369,-73.4817"/>
</g>
<!-- Node27&#45;&gt;Node19 -->
<g id="edge43" class="edge"><title>Node27&#45;&gt;Node19</title>
<path fill="none" stroke="midnightblue" d="M898.634,-232.753C885.078,-224.027 864.536,-210.805 848.753,-200.646"/>
<polygon fill="midnightblue" stroke="midnightblue" points="850.402,-197.545 840.099,-195.075 846.613,-203.431 850.402,-197.545"/>
</g>
<!-- Node28 -->
<g id="node28" class="node"><title>Node28</title>
<polygon fill="white" stroke="#bfbfbf" points="903.773,-175 903.773,-195 944.227,-195 944.227,-175 903.773,-175"/>
<text text-anchor="middle" x="924" y="-181" font-family="Helvetica,sans-Serif" font-size="10.00">string</text>
</g>
<!-- Node27&#45;&gt;Node28 -->
<g id="edge44" class="edge"><title>Node27&#45;&gt;Node28</title>
<path fill="none" stroke="midnightblue" d="M914.816,-232.753C916.29,-225.25 918.417,-214.424 920.253,-205.078"/>
<polygon fill="midnightblue" stroke="midnightblue" points="923.724,-205.562 922.217,-195.075 916.855,-204.213 923.724,-205.562"/>
</g>
</g>
</svg>
        <g id="navigator" transform="translate(0 0)" fill="#404254">
                <rect fill="#f2f5e9" fill-opacity="0.5" stroke="#606060" stroke-width=".5" x="0" y="0" width="60" height="60"/>
                <use id="zoomplus" xlink:href="#zoomPlus" x="17" y="9" onmousedown="handleZoom(evt,'in')"/>
                <use id="zoomminus" xlink:href="#zoomMin" x="42" y="9" onmousedown="handleZoom(evt,'out')"/>
                <use id="reset" xlink:href="#resetDef" x="30" y="36" onmousedown="handleReset()"/>
                <g id="arrowUp" xlink:href="#dirArrow" transform="translate(30 24)" onmousedown="handlePan(0,-1)">
                  <use xlink:href="#rim" fill="#404040">
                        <set attributeName="fill" to="#808080" begin="arrowUp.mouseover" end="arrowUp.mouseout"/>
                  </use>
                  <path fill="none" stroke="white" stroke-width="1.5" d="M0,-3.0v7 M-2.5,-0.5L0,-3.0L2.5,-0.5"/>
                </g>
                <g id="arrowRight" xlink:href="#dirArrow" transform="rotate(90) translate(36 -43)" onmousedown="handlePan(1,0)">
                  <use xlink:href="#rim" fill="#404040">
                        <set attributeName="fill" to="#808080" begin="arrowRight.mouseover" end="arrowRight.mouseout"/>
                  </use>
                  <path fill="none" stroke="white" stroke-width="1.5" d="M0,-3.0v7 M-2.5,-0.5L0,-3.0L2.5,-0.5"/>
                </g>
                <g id="arrowDown" xlink:href="#dirArrow" transform="rotate(180) translate(-30 -48)" onmousedown="handlePan(0,1)">
                  <use xlink:href="#rim" fill="#404040">
                        <set attributeName="fill" to="#808080" begin="arrowDown.mouseover" end="arrowDown.mouseout"/>
                  </use>
                  <path fill="none" stroke="white" stroke-width="1.5" d="M0,-3.0v7 M-2.5,-0.5L0,-3.0L2.5,-0.5"/>
                </g>
                <g id="arrowLeft" xlink:href="#dirArrow" transform="rotate(270) translate(-36 17)" onmousedown="handlePan(-1,0)">
                  <use xlink:href="#rim" fill="#404040">
                        <set attributeName="fill" to="#808080" begin="arrowLeft.mouseover" end="arrowLeft.mouseout"/>
                  </use>
                  <path fill="none" stroke="white" stroke-width="1.5" d="M0,-3.0v7 M-2.5,-0.5L0,-3.0L2.5,-0.5"/>
                </g>
        </g>
        <svg viewBox="0 0 15 15" width="100%" height="30px" preserveAspectRatio="xMaxYMin meet">
         <g id="arrow_out" transform="scale(0.3 0.3)">
          <a xlink:href="_capture_impl_qt_kit_8h__incl_org.svg" target="_base">
           <rect id="button" ry="5" rx="5" y="6" x="6" height="38" width="38"
                fill="#f2f5e9" fill-opacity="0.5" stroke="#606060" stroke-width="1.0"/>
           <path id="arrow"
             d="M 11.500037,31.436501 C 11.940474,20.09759 22.043105,11.32322 32.158766,21.979434 L 37.068811,17.246167 C 37.068811,17.246167 37.088388,32 37.088388,32 L 22.160133,31.978069 C 22.160133,31.978069 26.997745,27.140456 26.997745,27.140456 C 18.528582,18.264221 13.291696,25.230495 11.500037,31.436501 z"
             style="fill:#404040;"/>
          </a>
         </g>
        </svg>
</svg>
