<?xml version="1.0" encoding="UTF-8" standalone="no"?>
<!DOCTYPE svg PUBLIC "-//W3C//DTD SVG 1.1//EN"
 "http://www.w3.org/Graphics/SVG/1.1/DTD/svg11.dtd">
<!-- Generated by graphviz version 2.30.1 (20140712.1814)
 -->
<!-- Title: src/cinder/audio/ChannelRouterNode.cpp Pages: 1 -->
<!--zoomable 460 -->
<svg id="main" version="1.1" xmlns="http://www.w3.org/2000/svg" xmlns:xlink="http://www.w3.org/1999/xlink" xml:space="preserve" onload="init(evt)">
<style type="text/css"><![CDATA[
.edge:hover path { stroke: red; }
.edge:hover polygon { stroke: red; fill: red; }
]]></style>
<script type="text/javascript"><![CDATA[
var edges = document.getElementsByTagName('g');
if (edges && edges.length) {
  for (var i=0;i<edges.length;i++) {
    if (edges[i].id.substr(0,4)=='edge') {
      edges[i].setAttribute('class','edge');
    }
  }
}
]]></script>
        <defs>
                <circle id="rim" cx="0" cy="0" r="7"/>
                <circle id="rim2" cx="0" cy="0" r="3.5"/>
                <g id="zoomPlus">
                        <use xlink:href="#rim" fill="#404040">
                                <set attributeName="fill" to="#808080" begin="zoomplus.mouseover" end="zoomplus.mouseout"/>
                        </use>
                        <path d="M-4,0h8M0,-4v8" fill="none" stroke="white" stroke-width="1.5" pointer-events="none"/>
                </g>
                <g id="zoomMin">
                        <use xlink:href="#rim" fill="#404040">
                                <set attributeName="fill" to="#808080" begin="zoomminus.mouseover" end="zoomminus.mouseout"/>
                        </use>
                        <path d="M-4,0h8" fill="none" stroke="white" stroke-width="1.5" pointer-events="none"/>
                </g>
                <g id="dirArrow">
                        <path fill="none" stroke="white" stroke-width="1.5" d="M0,-3.0v7 M-2.5,-0.5L0,-3.0L2.5,-0.5"/>
                </g>
               <g id="resetDef">
                       <use xlink:href="#rim2" fill="#404040">
                               <set attributeName="fill" to="#808080" begin="reset.mouseover" end="reset.mouseout"/>
                       </use>
               </g>
        </defs>

<script type="text/javascript">
var viewWidth = 1446;
var viewHeight = 460;
var sectionId = 'dynsection-0';
</script>
<script xlink:href="svgpan.js"/>
<svg id="graph" class="graph">
<g id="viewport">
<title>src/cinder/audio/ChannelRouterNode.cpp</title>
<polygon fill="white" stroke="white" points="-4,5 -4,-456 1443,-456 1443,5 -4,5"/>
<!-- Node1 -->
<g id="node1" class="node"><title>Node1</title>
<polygon fill="#bfbfbf" stroke="black" points="442.69,-419 442.69,-451 569.31,-451 569.31,-419 442.69,-419"/>
<text text-anchor="start" x="450.69" y="-437" font-family="Helvetica,sans-Serif" font-size="10.00">src/cinder/audio/Channel</text>
<text text-anchor="middle" x="506" y="-425" font-family="Helvetica,sans-Serif" font-size="10.00">RouterNode.cpp</text>
</g>
<!-- Node2 -->
<g id="node2" class="node"><title>Node2</title>
<g id="a_node2"><a xlink:href="_channel_router_node_8h.html" target="_top" xlink:title="cinder/audio/ChannelRouter\lNode.h">
<polygon fill="white" stroke="black" points="275.737,-291 275.737,-323 416.263,-323 416.263,-291 275.737,-291"/>
<text text-anchor="start" x="283.737" y="-309" font-family="Helvetica,sans-Serif" font-size="10.00">cinder/audio/ChannelRouter</text>
<text text-anchor="middle" x="346" y="-297" font-family="Helvetica,sans-Serif" font-size="10.00">Node.h</text>
</a>
</g>
</g>
<!-- Node1&#45;&gt;Node2 -->
<g id="edge1" class="edge"><title>Node1&#45;&gt;Node2</title>
<path fill="none" stroke="midnightblue" d="M486.309,-418.817C472.934,-408.48 454.861,-394.464 439,-382 416.631,-364.421 391.379,-344.311 372.839,-329.496"/>
<polygon fill="midnightblue" stroke="midnightblue" points="374.824,-326.602 364.828,-323.09 370.452,-332.069 374.824,-326.602"/>
</g>
<!-- Node24 -->
<g id="node24" class="node"><title>Node24</title>
<g id="a_node24"><a xlink:href="_context_8h.html" target="_top" xlink:title="cinder/audio/Context.h">
<polygon fill="white" stroke="black" points="447.968,-361 447.968,-381 564.032,-381 564.032,-361 447.968,-361"/>
<text text-anchor="middle" x="506" y="-367" font-family="Helvetica,sans-Serif" font-size="10.00">cinder/audio/Context.h</text>
</a>
</g>
</g>
<!-- Node1&#45;&gt;Node24 -->
<g id="edge26" class="edge"><title>Node1&#45;&gt;Node24</title>
<path fill="none" stroke="midnightblue" d="M506,-418.992C506,-410.726 506,-400.373 506,-391.489"/>
<polygon fill="midnightblue" stroke="midnightblue" points="509.5,-391.29 506,-381.29 502.5,-391.29 509.5,-391.29"/>
</g>
<!-- Node34 -->
<g id="node34" class="node"><title>Node34</title>
<g id="a_node34"><a xlink:href="_dsp_8h.html" target="_top" xlink:title="cinder/audio/dsp/Dsp.h">
<polygon fill="white" stroke="black" points="-0.142578,-175 -0.142578,-195 118.143,-195 118.143,-175 -0.142578,-175"/>
<text text-anchor="middle" x="59" y="-181" font-family="Helvetica,sans-Serif" font-size="10.00">cinder/audio/dsp/Dsp.h</text>
</a>
</g>
</g>
<!-- Node1&#45;&gt;Node34 -->
<g id="edge52" class="edge"><title>Node1&#45;&gt;Node34</title>
<path fill="none" stroke="midnightblue" d="M452.02,-418.994C393.013,-401.274 296.893,-368.49 222,-324 162.231,-288.495 102.578,-230.974 74.9309,-202.731"/>
<polygon fill="midnightblue" stroke="midnightblue" points="77.1802,-200.022 67.7098,-195.272 72.1509,-204.891 77.1802,-200.022"/>
</g>
<!-- Node36 -->
<g id="node36" class="node"><title>Node36</title>
<g id="a_node36"><a xlink:href="_cinder_math_8h.html" target="_top" xlink:title="cinder/CinderMath.h">
<polygon fill="white" stroke="black" points="1226.98,-175 1226.98,-195 1333.02,-195 1333.02,-175 1226.98,-175"/>
<text text-anchor="middle" x="1280" y="-181" font-family="Helvetica,sans-Serif" font-size="10.00">cinder/CinderMath.h</text>
</a>
</g>
</g>
<!-- Node1&#45;&gt;Node36 -->
<g id="edge58" class="edge"><title>Node1&#45;&gt;Node36</title>
<path fill="none" stroke="midnightblue" d="M552.963,-418.953C694.231,-373.688 1113.44,-239.367 1242.05,-198.159"/>
<polygon fill="midnightblue" stroke="midnightblue" points="1243.4,-201.404 1251.85,-195.019 1241.26,-194.737 1243.4,-201.404"/>
</g>
<!-- Node39 -->
<g id="node39" class="node"><title>Node39</title>
<polygon fill="white" stroke="#bfbfbf" points="961.613,-361 961.613,-381 1000.39,-381 1000.39,-361 961.613,-361"/>
<text text-anchor="middle" x="981" y="-367" font-family="Helvetica,sans-Serif" font-size="10.00">limits</text>
</g>
<!-- Node1&#45;&gt;Node39 -->
<g id="edge64" class="edge"><title>Node1&#45;&gt;Node39</title>
<path fill="none" stroke="midnightblue" d="M569.514,-430.076C655.885,-423.936 814.879,-409.772 948,-382 949.253,-381.739 950.526,-381.451 951.808,-381.144"/>
<polygon fill="midnightblue" stroke="midnightblue" points="952.861,-384.485 961.604,-378.501 951.038,-377.727 952.861,-384.485"/>
</g>
<!-- Node3 -->
<g id="node3" class="node"><title>Node3</title>
<g id="a_node3"><a xlink:href="_node_8h.html" target="_top" xlink:title="cinder/audio/Node.h">
<polygon fill="white" stroke="black" points="436.247,-233 436.247,-253 541.753,-253 541.753,-233 436.247,-233"/>
<text text-anchor="middle" x="489" y="-239" font-family="Helvetica,sans-Serif" font-size="10.00">cinder/audio/Node.h</text>
</a>
</g>
</g>
<!-- Node2&#45;&gt;Node3 -->
<g id="edge2" class="edge"><title>Node2&#45;&gt;Node3</title>
<path fill="none" stroke="midnightblue" d="M380.616,-290.992C404.484,-280.643 435.903,-267.021 458.764,-257.109"/>
<polygon fill="midnightblue" stroke="midnightblue" points="460.209,-260.298 467.991,-253.109 457.424,-253.876 460.209,-260.298"/>
</g>
<!-- Node23 -->
<g id="node23" class="node"><title>Node23</title>
<polygon fill="white" stroke="#bfbfbf" points="183.5,-175 183.5,-195 212.5,-195 212.5,-175 183.5,-175"/>
<text text-anchor="middle" x="197.611" y="-181" font-family="Helvetica,sans-Serif" font-size="10.00">list</text>
</g>
<!-- Node2&#45;&gt;Node23 -->
<g id="edge25" class="edge"><title>Node2&#45;&gt;Node23</title>
<path fill="none" stroke="midnightblue" d="M327.256,-290.802C299.059,-267.94 245.997,-224.916 217.413,-201.74"/>
<polygon fill="midnightblue" stroke="midnightblue" points="219.355,-198.809 209.383,-195.229 214.946,-204.246 219.355,-198.809"/>
</g>
<!-- Node4 -->
<g id="node4" class="node"><title>Node4</title>
<g id="a_node4"><a xlink:href="audio_2_buffer_8h.html" target="_top" xlink:title="cinder/audio/Buffer.h">
<polygon fill="white" stroke="black" points="582.221,-175 582.221,-195 689.779,-195 689.779,-175 582.221,-175"/>
<text text-anchor="middle" x="636" y="-181" font-family="Helvetica,sans-Serif" font-size="10.00">cinder/audio/Buffer.h</text>
</a>
</g>
</g>
<!-- Node3&#45;&gt;Node4 -->
<g id="edge3" class="edge"><title>Node3&#45;&gt;Node4</title>
<path fill="none" stroke="midnightblue" d="M512.945,-232.878C537.291,-223.603 575.214,-209.156 602.527,-198.752"/>
<polygon fill="midnightblue" stroke="midnightblue" points="603.966,-201.949 612.065,-195.118 601.474,-195.407 603.966,-201.949"/>
</g>
<!-- Node12 -->
<g id="node12" class="node"><title>Node12</title>
<g id="a_node12"><a xlink:href="audio_2_exception_8h.html" target="_top" xlink:title="cinder/audio/Exception.h">
<polygon fill="white" stroke="black" points="230.242,-175 230.242,-195 355.758,-195 355.758,-175 230.242,-175"/>
<text text-anchor="middle" x="293" y="-181" font-family="Helvetica,sans-Serif" font-size="10.00">cinder/audio/Exception.h</text>
</a>
</g>
</g>
<!-- Node3&#45;&gt;Node12 -->
<g id="edge11" class="edge"><title>Node3&#45;&gt;Node12</title>
<path fill="none" stroke="midnightblue" d="M457.073,-232.878C423.659,-223.331 371.062,-208.303 334.459,-197.845"/>
<polygon fill="midnightblue" stroke="midnightblue" points="335.165,-194.407 324.589,-195.025 333.242,-201.138 335.165,-194.407"/>
</g>
<!-- Node19 -->
<g id="node19" class="node"><title>Node19</title>
<polygon fill="white" stroke="#bfbfbf" points="746.291,-175 746.291,-195 865.709,-195 865.709,-175 746.291,-175"/>
<text text-anchor="middle" x="806" y="-181" font-family="Helvetica,sans-Serif" font-size="10.00">boost/noncopyable.hpp</text>
</g>
<!-- Node3&#45;&gt;Node19 -->
<g id="edge20" class="edge"><title>Node3&#45;&gt;Node19</title>
<path fill="none" stroke="midnightblue" d="M540.284,-232.94C596.19,-223.064 685.598,-207.27 745.048,-196.768"/>
<polygon fill="midnightblue" stroke="midnightblue" points="745.814,-200.187 755.052,-195 744.596,-193.293 745.814,-200.187"/>
</g>
<!-- Node20 -->
<g id="node20" class="node"><title>Node20</title>
<polygon fill="white" stroke="#bfbfbf" points="412.357,-175 412.357,-195 525.643,-195 525.643,-175 412.357,-175"/>
<text text-anchor="middle" x="469" y="-181" font-family="Helvetica,sans-Serif" font-size="10.00">boost/logic/tribool.hpp</text>
</g>
<!-- Node3&#45;&gt;Node20 -->
<g id="edge21" class="edge"><title>Node3&#45;&gt;Node20</title>
<path fill="none" stroke="midnightblue" d="M485.697,-232.753C482.989,-225.169 479.067,-214.188 475.705,-204.774"/>
<polygon fill="midnightblue" stroke="midnightblue" points="478.901,-203.315 472.241,-195.075 472.308,-205.67 478.901,-203.315"/>
</g>
<!-- Node9 -->
<g id="node9" class="node"><title>Node9</title>
<polygon fill="white" stroke="#bfbfbf" points="689.943,-117 689.943,-137 742.057,-137 742.057,-117 689.943,-117"/>
<text text-anchor="middle" x="716" y="-123" font-family="Helvetica,sans-Serif" font-size="10.00">memory</text>
</g>
<!-- Node3&#45;&gt;Node9 -->
<g id="edge22" class="edge"><title>Node3&#45;&gt;Node9</title>
<path fill="none" stroke="midnightblue" d="M541.858,-233.303C599.99,-223.284 686.719,-206.815 698,-196 710.925,-183.608 714.949,-163.104 716.029,-147.845"/>
<polygon fill="midnightblue" stroke="midnightblue" points="719.541,-147.533 716.379,-137.421 712.545,-147.298 719.541,-147.533"/>
</g>
<!-- Node21 -->
<g id="node21" class="node"><title>Node21</title>
<polygon fill="white" stroke="#bfbfbf" points="518.273,-117 518.273,-137 563.727,-137 563.727,-117 518.273,-117"/>
<text text-anchor="middle" x="541" y="-123" font-family="Helvetica,sans-Serif" font-size="10.00">atomic</text>
</g>
<!-- Node3&#45;&gt;Node21 -->
<g id="edge23" class="edge"><title>Node3&#45;&gt;Node21</title>
<path fill="none" stroke="midnightblue" d="M459.718,-232.92C427.953,-221.498 384.136,-200.173 403,-174 406.208,-169.55 468.647,-149.946 508.427,-137.811"/>
<polygon fill="midnightblue" stroke="midnightblue" points="509.453,-141.158 518.003,-134.901 507.417,-134.46 509.453,-141.158"/>
</g>
<!-- Node22 -->
<g id="node22" class="node"><title>Node22</title>
<polygon fill="white" stroke="#bfbfbf" points="136.33,-175 136.33,-195 165.67,-195 165.67,-175 136.33,-175"/>
<text text-anchor="middle" x="151" y="-181" font-family="Helvetica,sans-Serif" font-size="10.00">set</text>
</g>
<!-- Node3&#45;&gt;Node22 -->
<g id="edge24" class="edge"><title>Node3&#45;&gt;Node22</title>
<path fill="none" stroke="midnightblue" d="M435.99,-238.563C374.757,-233.647 271.128,-222.411 175.686,-195.931"/>
<polygon fill="midnightblue" stroke="midnightblue" points="176.459,-192.513 165.884,-193.149 174.548,-199.247 176.459,-192.513"/>
</g>
<!-- Node5 -->
<g id="node5" class="node"><title>Node5</title>
<g id="a_node5"><a xlink:href="_cinder_assert_8h.html" target="_top" xlink:title="cinder/CinderAssert.h">
<polygon fill="white" stroke="black" points="150.924,-117 150.924,-137 263.076,-137 263.076,-117 150.924,-117"/>
<text text-anchor="middle" x="207" y="-123" font-family="Helvetica,sans-Serif" font-size="10.00">cinder/CinderAssert.h</text>
</a>
</g>
</g>
<!-- Node4&#45;&gt;Node5 -->
<g id="edge4" class="edge"><title>Node4&#45;&gt;Node5</title>
<path fill="none" stroke="midnightblue" d="M582.101,-176.964C503.711,-166.731 358.36,-147.758 273.448,-136.674"/>
<polygon fill="midnightblue" stroke="midnightblue" points="273.77,-133.186 263.401,-135.362 272.864,-140.127 273.77,-133.186"/>
</g>
<!-- Node8 -->
<g id="node8" class="node"><title>Node8</title>
<polygon fill="white" stroke="#bfbfbf" points="575.384,-59 575.384,-79 618.616,-79 618.616,-59 575.384,-59"/>
<text text-anchor="middle" x="597" y="-65" font-family="Helvetica,sans-Serif" font-size="10.00">vector</text>
</g>
<!-- Node4&#45;&gt;Node8 -->
<g id="edge7" class="edge"><title>Node4&#45;&gt;Node8</title>
<path fill="none" stroke="midnightblue" d="M631.639,-174.984C627.31,-165.816 620.664,-151.13 616,-138 610.238,-121.777 605.079,-102.886 601.596,-89.1387"/>
<polygon fill="midnightblue" stroke="midnightblue" points="604.978,-88.2346 599.183,-79.3653 598.182,-89.9128 604.978,-88.2346"/>
</g>
<!-- Node4&#45;&gt;Node9 -->
<g id="edge8" class="edge"><title>Node4&#45;&gt;Node9</title>
<path fill="none" stroke="midnightblue" d="M649.21,-174.753C661.559,-166.109 680.212,-153.052 694.669,-142.931"/>
<polygon fill="midnightblue" stroke="midnightblue" points="696.85,-145.677 703.035,-137.075 692.836,-139.943 696.85,-145.677"/>
</g>
<!-- Node10 -->
<g id="node10" class="node"><title>Node10</title>
<polygon fill="white" stroke="#bfbfbf" points="624.828,-117 624.828,-137 669.172,-137 669.172,-117 624.828,-117"/>
<text text-anchor="middle" x="647" y="-123" font-family="Helvetica,sans-Serif" font-size="10.00">cstdlib</text>
</g>
<!-- Node4&#45;&gt;Node10 -->
<g id="edge9" class="edge"><title>Node4&#45;&gt;Node10</title>
<path fill="none" stroke="midnightblue" d="M637.816,-174.753C639.29,-167.25 641.417,-156.424 643.253,-147.078"/>
<polygon fill="midnightblue" stroke="midnightblue" points="646.724,-147.562 645.217,-137.075 639.855,-146.213 646.724,-147.562"/>
</g>
<!-- Node11 -->
<g id="node11" class="node"><title>Node11</title>
<polygon fill="white" stroke="#bfbfbf" points="798.436,-117 798.436,-137 855.564,-137 855.564,-117 798.436,-117"/>
<text text-anchor="middle" x="827" y="-123" font-family="Helvetica,sans-Serif" font-size="10.00">algorithm</text>
</g>
<!-- Node4&#45;&gt;Node11 -->
<g id="edge10" class="edge"><title>Node4&#45;&gt;Node11</title>
<path fill="none" stroke="midnightblue" d="M667.113,-174.878C700.351,-165.133 753.067,-149.677 788.801,-139.2"/>
<polygon fill="midnightblue" stroke="midnightblue" points="789.788,-142.558 798.399,-136.386 787.818,-135.841 789.788,-142.558"/>
</g>
<!-- Node6 -->
<g id="node6" class="node"><title>Node6</title>
<g id="a_node6"><a xlink:href="_current_function_8h.html" target="_top" xlink:title="cinder/CurrentFunction.h">
<polygon fill="white" stroke="black" points="247.973,-59 247.973,-79 374.027,-79 374.027,-59 247.973,-59"/>
<text text-anchor="middle" x="311" y="-65" font-family="Helvetica,sans-Serif" font-size="10.00">cinder/CurrentFunction.h</text>
</a>
</g>
</g>
<!-- Node5&#45;&gt;Node6 -->
<g id="edge5" class="edge"><title>Node5&#45;&gt;Node6</title>
<path fill="none" stroke="midnightblue" d="M224.173,-116.753C240.757,-107.823 266.085,-94.1848 285.114,-83.9388"/>
<polygon fill="midnightblue" stroke="midnightblue" points="287.001,-86.8979 294.146,-79.0752 283.682,-80.7346 287.001,-86.8979"/>
</g>
<!-- Node7 -->
<g id="node7" class="node"><title>Node7</title>
<polygon fill="white" stroke="#bfbfbf" points="181.884,-59 181.884,-79 230.116,-79 230.116,-59 181.884,-59"/>
<text text-anchor="middle" x="206" y="-65" font-family="Helvetica,sans-Serif" font-size="10.00">cassert</text>
</g>
<!-- Node5&#45;&gt;Node7 -->
<g id="edge6" class="edge"><title>Node5&#45;&gt;Node7</title>
<path fill="none" stroke="midnightblue" d="M206.835,-116.753C206.701,-109.25 206.508,-98.4238 206.341,-89.0781"/>
<polygon fill="midnightblue" stroke="midnightblue" points="209.84,-89.0111 206.162,-79.0752 202.841,-89.1361 209.84,-89.0111"/>
</g>
<!-- Node13 -->
<g id="node13" class="node"><title>Node13</title>
<g id="a_node13"><a xlink:href="_exception_8h.html" target="_top" xlink:title="cinder/Exception.h">
<polygon fill="white" stroke="black" points="363.865,-117 363.865,-137 462.135,-137 462.135,-117 363.865,-117"/>
<text text-anchor="middle" x="413" y="-123" font-family="Helvetica,sans-Serif" font-size="10.00">cinder/Exception.h</text>
</a>
</g>
</g>
<!-- Node12&#45;&gt;Node13 -->
<g id="edge12" class="edge"><title>Node12&#45;&gt;Node13</title>
<path fill="none" stroke="midnightblue" d="M312.547,-174.878C331.985,-165.807 362.027,-151.788 384.196,-141.442"/>
<polygon fill="midnightblue" stroke="midnightblue" points="385.879,-144.519 393.461,-137.118 382.919,-138.175 385.879,-144.519"/>
</g>
<!-- Node18 -->
<g id="node18" class="node"><title>Node18</title>
<polygon fill="white" stroke="#bfbfbf" points="392.773,-59 392.773,-79 433.227,-79 433.227,-59 392.773,-59"/>
<text text-anchor="middle" x="413" y="-65" font-family="Helvetica,sans-Serif" font-size="10.00">string</text>
</g>
<!-- Node12&#45;&gt;Node18 -->
<g id="edge19" class="edge"><title>Node12&#45;&gt;Node18</title>
<path fill="none" stroke="midnightblue" d="M300.591,-174.767C311.867,-161.269 333.979,-135.623 355,-116 366.679,-105.098 380.692,-93.9368 392.018,-85.3391"/>
<polygon fill="midnightblue" stroke="midnightblue" points="394.164,-88.1049 400.073,-79.3108 389.969,-82.5007 394.164,-88.1049"/>
</g>
<!-- Node14 -->
<g id="node14" class="node"><title>Node14</title>
<g id="a_node14"><a xlink:href="_cinder_8h.html" target="_top" xlink:title="cinder/Cinder.h">
<polygon fill="white" stroke="black" points="894.367,-59 894.367,-79 977.633,-79 977.633,-59 894.367,-59"/>
<text text-anchor="middle" x="936" y="-65" font-family="Helvetica,sans-Serif" font-size="10.00">cinder/Cinder.h</text>
</a>
</g>
</g>
<!-- Node13&#45;&gt;Node14 -->
<g id="edge13" class="edge"><title>Node13&#45;&gt;Node14</title>
<path fill="none" stroke="midnightblue" d="M462.141,-117.919C466.82,-117.234 471.497,-116.582 476,-116 623.663,-96.9138 798.875,-81.3336 884.167,-74.2008"/>
<polygon fill="midnightblue" stroke="midnightblue" points="884.686,-77.6698 894.361,-73.3527 884.105,-70.6939 884.686,-77.6698"/>
</g>
<!-- Node13&#45;&gt;Node8 -->
<g id="edge17" class="edge"><title>Node13&#45;&gt;Node8</title>
<path fill="none" stroke="midnightblue" d="M442.972,-116.878C476.565,-106.654 530.808,-90.1452 565.149,-79.6939"/>
<polygon fill="midnightblue" stroke="midnightblue" points="566.574,-82.9186 575.122,-76.6586 564.536,-76.2219 566.574,-82.9186"/>
</g>
<!-- Node13&#45;&gt;Node18 -->
<g id="edge18" class="edge"><title>Node13&#45;&gt;Node18</title>
<path fill="none" stroke="midnightblue" d="M413,-116.753C413,-109.25 413,-98.4238 413,-89.0781"/>
<polygon fill="midnightblue" stroke="midnightblue" points="416.5,-89.0752 413,-79.0752 409.5,-89.0752 416.5,-89.0752"/>
</g>
<!-- Node15 -->
<g id="node15" class="node"><title>Node15</title>
<polygon fill="white" stroke="#bfbfbf" points="825.549,-1 825.549,-21 870.451,-21 870.451,-1 825.549,-1"/>
<text text-anchor="middle" x="848" y="-7" font-family="Helvetica,sans-Serif" font-size="10.00">cstdint</text>
</g>
<!-- Node14&#45;&gt;Node15 -->
<g id="edge14" class="edge"><title>Node14&#45;&gt;Node15</title>
<path fill="none" stroke="midnightblue" d="M921.469,-58.7527C907.757,-50.0272 886.979,-36.8051 871.015,-26.6458"/>
<polygon fill="midnightblue" stroke="midnightblue" points="872.577,-23.4912 862.261,-21.0752 868.819,-29.3968 872.577,-23.4912"/>
</g>
<!-- Node16 -->
<g id="node16" class="node"><title>Node16</title>
<polygon fill="white" stroke="#bfbfbf" points="888.53,-1 888.53,-21 983.47,-21 983.47,-1 888.53,-1"/>
<text text-anchor="middle" x="936" y="-7" font-family="Helvetica,sans-Serif" font-size="10.00">boost/version.hpp</text>
</g>
<!-- Node14&#45;&gt;Node16 -->
<g id="edge15" class="edge"><title>Node14&#45;&gt;Node16</title>
<path fill="none" stroke="midnightblue" d="M936,-58.7527C936,-51.2504 936,-40.4238 936,-31.0781"/>
<polygon fill="midnightblue" stroke="midnightblue" points="939.5,-31.0752 936,-21.0752 932.5,-31.0752 939.5,-31.0752"/>
</g>
<!-- Node17 -->
<g id="node17" class="node"><title>Node17</title>
<polygon fill="white" stroke="#bfbfbf" points="1001.62,-1 1001.62,-21 1134.38,-21 1134.38,-1 1001.62,-1"/>
<text text-anchor="middle" x="1068" y="-7" font-family="Helvetica,sans-Serif" font-size="10.00">boost/checked_delete.hpp</text>
</g>
<!-- Node14&#45;&gt;Node17 -->
<g id="edge16" class="edge"><title>Node14&#45;&gt;Node17</title>
<path fill="none" stroke="midnightblue" d="M957.502,-58.878C979.172,-49.6848 1012.82,-35.4095 1037.3,-25.0263"/>
<polygon fill="midnightblue" stroke="midnightblue" points="1038.67,-28.2457 1046.51,-21.1181 1035.93,-21.8016 1038.67,-28.2457"/>
</g>
<!-- Node24&#45;&gt;Node3 -->
<g id="edge27" class="edge"><title>Node24&#45;&gt;Node3</title>
<path fill="none" stroke="midnightblue" d="M504.777,-360.938C502.034,-340.605 495.337,-290.968 491.61,-263.348"/>
<polygon fill="midnightblue" stroke="midnightblue" points="495.063,-262.762 490.257,-253.319 488.126,-263.698 495.063,-262.762"/>
</g>
<!-- Node25 -->
<g id="node25" class="node"><title>Node25</title>
<g id="a_node25"><a xlink:href="_input_node_8h.html" target="_top" xlink:title="cinder/audio/InputNode.h">
<polygon fill="white" stroke="black" points="534.126,-297 534.126,-317 661.874,-317 661.874,-297 534.126,-297"/>
<text text-anchor="middle" x="598" y="-303" font-family="Helvetica,sans-Serif" font-size="10.00">cinder/audio/InputNode.h</text>
</a>
</g>
</g>
<!-- Node24&#45;&gt;Node25 -->
<g id="edge28" class="edge"><title>Node24&#45;&gt;Node25</title>
<path fill="none" stroke="midnightblue" d="M519.575,-360.852C534.387,-350.87 558.326,-334.737 575.864,-322.918"/>
<polygon fill="midnightblue" stroke="midnightblue" points="578.033,-325.677 584.369,-317.186 574.121,-319.872 578.033,-325.677"/>
</g>
<!-- Node32 -->
<g id="node32" class="node"><title>Node32</title>
<g id="a_node32"><a xlink:href="_output_node_8h.html" target="_top" xlink:title="cinder/audio/OutputNode.h">
<polygon fill="white" stroke="black" points="680.237,-297 680.237,-317 815.763,-317 815.763,-297 680.237,-297"/>
<text text-anchor="middle" x="748" y="-303" font-family="Helvetica,sans-Serif" font-size="10.00">cinder/audio/OutputNode.h</text>
</a>
</g>
</g>
<!-- Node24&#45;&gt;Node32 -->
<g id="edge47" class="edge"><title>Node24&#45;&gt;Node32</title>
<path fill="none" stroke="midnightblue" d="M541.189,-360.985C583.934,-350.033 656.115,-331.541 702.902,-319.554"/>
<polygon fill="midnightblue" stroke="midnightblue" points="703.95,-322.899 712.769,-317.026 702.213,-316.118 703.95,-322.899"/>
</g>
<!-- Node33 -->
<g id="node33" class="node"><title>Node33</title>
<polygon fill="white" stroke="#bfbfbf" points="434.384,-297 434.384,-317 477.616,-317 477.616,-297 434.384,-297"/>
<text text-anchor="middle" x="456" y="-303" font-family="Helvetica,sans-Serif" font-size="10.00">mutex</text>
</g>
<!-- Node24&#45;&gt;Node33 -->
<g id="edge50" class="edge"><title>Node24&#45;&gt;Node33</title>
<path fill="none" stroke="midnightblue" d="M498.622,-360.852C491.089,-351.511 479.213,-336.784 469.908,-325.246"/>
<polygon fill="midnightblue" stroke="midnightblue" points="472.41,-322.773 463.408,-317.186 466.961,-327.167 472.41,-322.773"/>
</g>
<!-- Node24&#45;&gt;Node22 -->
<g id="edge51" class="edge"><title>Node24&#45;&gt;Node22</title>
<path fill="none" stroke="midnightblue" d="M447.638,-369.523C396.743,-366.708 322.566,-356.63 267,-324 216.564,-294.383 177.95,-234.469 160.774,-204.273"/>
<polygon fill="midnightblue" stroke="midnightblue" points="163.689,-202.313 155.784,-195.259 157.565,-205.703 163.689,-202.313"/>
</g>
<!-- Node25&#45;&gt;Node3 -->
<g id="edge29" class="edge"><title>Node25&#45;&gt;Node3</title>
<path fill="none" stroke="midnightblue" d="M581.917,-296.852C564.045,-286.686 534.961,-270.143 514.091,-258.272"/>
<polygon fill="midnightblue" stroke="midnightblue" points="515.572,-255.088 505.149,-253.186 512.111,-261.172 515.572,-255.088"/>
</g>
<!-- Node26 -->
<g id="node26" class="node"><title>Node26</title>
<g id="a_node26"><a xlink:href="_param_8h.html" target="_top" xlink:title="cinder/audio/Param.h">
<polygon fill="white" stroke="black" points="559.473,-233 559.473,-253 670.527,-253 670.527,-233 559.473,-233"/>
<text text-anchor="middle" x="615" y="-239" font-family="Helvetica,sans-Serif" font-size="10.00">cinder/audio/Param.h</text>
</a>
</g>
</g>
<!-- Node25&#45;&gt;Node26 -->
<g id="edge30" class="edge"><title>Node25&#45;&gt;Node26</title>
<path fill="none" stroke="midnightblue" d="M600.508,-296.852C602.944,-287.969 606.715,-274.215 609.8,-262.964"/>
<polygon fill="midnightblue" stroke="midnightblue" points="613.212,-263.755 612.481,-253.186 606.461,-261.904 613.212,-263.755"/>
</g>
<!-- Node28 -->
<g id="node28" class="node"><title>Node28</title>
<g id="a_node28"><a xlink:href="_device_8h.html" target="_top" xlink:title="cinder/audio/Device.h">
<polygon fill="white" stroke="black" points="793.917,-233 793.917,-253 906.083,-253 906.083,-233 793.917,-233"/>
<text text-anchor="middle" x="850" y="-239" font-family="Helvetica,sans-Serif" font-size="10.00">cinder/audio/Device.h</text>
</a>
</g>
</g>
<!-- Node25&#45;&gt;Node28 -->
<g id="edge35" class="edge"><title>Node25&#45;&gt;Node28</title>
<path fill="none" stroke="midnightblue" d="M634.643,-296.985C679.248,-286.01 754.633,-267.463 803.344,-255.479"/>
<polygon fill="midnightblue" stroke="midnightblue" points="804.439,-258.814 813.313,-253.026 802.766,-252.017 804.439,-258.814"/>
</g>
<!-- Node26&#45;&gt;Node4 -->
<g id="edge31" class="edge"><title>Node26&#45;&gt;Node4</title>
<path fill="none" stroke="midnightblue" d="M618.468,-232.753C621.342,-225.087 625.518,-213.952 629.073,-204.471"/>
<polygon fill="midnightblue" stroke="midnightblue" points="632.363,-205.667 632.597,-195.075 625.808,-203.21 632.363,-205.667"/>
</g>
<!-- Node26&#45;&gt;Node23 -->
<g id="edge32" class="edge"><title>Node26&#45;&gt;Node23</title>
<path fill="none" stroke="midnightblue" d="M559.354,-233.276C556.191,-232.831 553.056,-232.402 550,-232 407.438,-213.243 365.062,-232.832 222.826,-195.869"/>
<polygon fill="midnightblue" stroke="midnightblue" points="223.424,-192.407 212.861,-193.231 221.632,-199.174 223.424,-192.407"/>
</g>
<!-- Node26&#45;&gt;Node21 -->
<g id="edge33" class="edge"><title>Node26&#45;&gt;Node21</title>
<path fill="none" stroke="midnightblue" d="M605.077,-232.844C595.928,-224.034 582.385,-210.019 573,-196 562.589,-180.448 553.799,-160.976 548.081,-146.859"/>
<polygon fill="midnightblue" stroke="midnightblue" points="551.231,-145.302 544.332,-137.261 544.71,-147.849 551.231,-145.302"/>
</g>
<!-- Node27 -->
<g id="node27" class="node"><title>Node27</title>
<polygon fill="white" stroke="#bfbfbf" points="1222.6,-117 1222.6,-137 1281.4,-137 1281.4,-117 1222.6,-117"/>
<text text-anchor="middle" x="1252" y="-123" font-family="Helvetica,sans-Serif" font-size="10.00">functional</text>
</g>
<!-- Node26&#45;&gt;Node27 -->
<g id="edge34" class="edge"><title>Node26&#45;&gt;Node27</title>
<path fill="none" stroke="midnightblue" d="M670.786,-238.965C780.239,-232.639 1019.4,-216.878 1099,-196 1146.44,-183.557 1197.82,-157.974 1227.33,-141.979"/>
<polygon fill="midnightblue" stroke="midnightblue" points="1229.03,-145.037 1236.11,-137.152 1225.66,-138.903 1229.03,-145.037"/>
</g>
<!-- Node29 -->
<g id="node29" class="node"><title>Node29</title>
<g id="a_node29"><a xlink:href="_function_8h.html" target="_top" xlink:title="cinder/Function.h">
<polygon fill="white" stroke="black" points="997.646,-175 997.646,-195 1090.35,-195 1090.35,-175 997.646,-175"/>
<text text-anchor="middle" x="1044" y="-181" font-family="Helvetica,sans-Serif" font-size="10.00">cinder/Function.h</text>
</a>
</g>
</g>
<!-- Node28&#45;&gt;Node29 -->
<g id="edge36" class="edge"><title>Node28&#45;&gt;Node29</title>
<path fill="none" stroke="midnightblue" d="M881.601,-232.878C914.675,-223.331 966.735,-208.303 1002.96,-197.845"/>
<polygon fill="midnightblue" stroke="midnightblue" points="1004.1,-201.161 1012.73,-195.025 1002.16,-194.436 1004.1,-201.161"/>
</g>
<!-- Node28&#45;&gt;Node9 -->
<g id="edge43" class="edge"><title>Node28&#45;&gt;Node9</title>
<path fill="none" stroke="midnightblue" d="M858.285,-232.808C869.776,-218.906 887.675,-192.225 874,-174 870.244,-168.994 797.589,-149.286 752.126,-137.35"/>
<polygon fill="midnightblue" stroke="midnightblue" points="752.879,-133.929 742.318,-134.785 751.107,-140.701 752.879,-133.929"/>
</g>
<!-- Node28&#45;&gt;Node18 -->
<g id="edge44" class="edge"><title>Node28&#45;&gt;Node18</title>
<path fill="none" stroke="midnightblue" d="M862.484,-232.935C879.24,-219.645 905.332,-194.256 891,-174 863.234,-134.755 832.657,-158.13 789,-138 771.278,-129.828 769.462,-122.324 751,-116 694.246,-96.5586 515.626,-79.0784 443.577,-72.6318"/>
<polygon fill="midnightblue" stroke="midnightblue" points="443.624,-69.1224 433.355,-71.7275 443.007,-76.0952 443.624,-69.1224"/>
</g>
<!-- Node28&#45;&gt;Node8 -->
<g id="edge45" class="edge"><title>Node28&#45;&gt;Node8</title>
<path fill="none" stroke="midnightblue" d="M886.093,-232.922C919.247,-222.57 961.114,-203.204 946,-174 943.435,-169.044 869.154,-118.137 864,-116 783.684,-82.6927 680.144,-73.5021 628.796,-70.9662"/>
<polygon fill="midnightblue" stroke="midnightblue" points="628.802,-67.4632 618.658,-70.5198 628.494,-74.4564 628.802,-67.4632"/>
</g>
<!-- Node28&#45;&gt;Node19 -->
<g id="edge46" class="edge"><title>Node28&#45;&gt;Node19</title>
<path fill="none" stroke="midnightblue" d="M842.734,-232.753C836.391,-224.68 827.023,-212.757 819.336,-202.973"/>
<polygon fill="midnightblue" stroke="midnightblue" points="822.061,-200.776 813.131,-195.075 816.557,-205.101 822.061,-200.776"/>
</g>
<!-- Node29&#45;&gt;Node14 -->
<g id="edge37" class="edge"><title>Node29&#45;&gt;Node14</title>
<path fill="none" stroke="midnightblue" d="M1090.37,-177.022C1138.2,-167.879 1202.25,-148.995 1175,-116 1151.74,-87.8386 1050.91,-76.7346 987.874,-72.4927"/>
<polygon fill="midnightblue" stroke="midnightblue" points="987.921,-68.9887 977.719,-71.8463 987.476,-75.9746 987.921,-68.9887"/>
</g>
<!-- Node29&#45;&gt;Node11 -->
<g id="edge38" class="edge"><title>Node29&#45;&gt;Node11</title>
<path fill="none" stroke="midnightblue" d="M1008.65,-174.878C969.349,-164.735 906.073,-148.406 865.529,-137.943"/>
<polygon fill="midnightblue" stroke="midnightblue" points="866.297,-134.527 855.74,-135.417 864.548,-141.305 866.297,-134.527"/>
</g>
<!-- Node29&#45;&gt;Node8 -->
<g id="edge39" class="edge"><title>Node29&#45;&gt;Node8</title>
<path fill="none" stroke="midnightblue" d="M1022.94,-174.983C1002.02,-165.934 969.087,-151.445 941,-138 921.637,-128.731 918.429,-122.595 898,-116 803.203,-85.3955 684.875,-74.9223 629.021,-71.5258"/>
<polygon fill="midnightblue" stroke="midnightblue" points="628.892,-68.0128 618.709,-70.937 628.493,-75.0014 628.892,-68.0128"/>
</g>
<!-- Node30 -->
<g id="node30" class="node"><title>Node30</title>
<polygon fill="white" stroke="#bfbfbf" points="949.608,-117 949.608,-137 988.392,-137 988.392,-117 949.608,-117"/>
<text text-anchor="middle" x="969" y="-123" font-family="Helvetica,sans-Serif" font-size="10.00">utility</text>
</g>
<!-- Node29&#45;&gt;Node30 -->
<g id="edge40" class="edge"><title>Node29&#45;&gt;Node30</title>
<path fill="none" stroke="midnightblue" d="M1031.62,-174.753C1020.15,-166.19 1002.88,-153.298 989.382,-143.219"/>
<polygon fill="midnightblue" stroke="midnightblue" points="991.261,-140.254 981.154,-137.075 987.073,-145.863 991.261,-140.254"/>
</g>
<!-- Node31 -->
<g id="node31" class="node"><title>Node31</title>
<polygon fill="white" stroke="#bfbfbf" points="1067.3,-117 1067.3,-137 1166.7,-137 1166.7,-117 1067.3,-117"/>
<text text-anchor="middle" x="1117" y="-123" font-family="Helvetica,sans-Serif" font-size="10.00">boost/signals2.hpp</text>
</g>
<!-- Node29&#45;&gt;Node31 -->
<g id="edge41" class="edge"><title>Node29&#45;&gt;Node31</title>
<path fill="none" stroke="midnightblue" d="M1056.05,-174.753C1067.22,-166.19 1084.02,-153.298 1097.16,-143.219"/>
<polygon fill="midnightblue" stroke="midnightblue" points="1099.37,-145.939 1105.17,-137.075 1095.11,-140.385 1099.37,-145.939"/>
</g>
<!-- Node29&#45;&gt;Node27 -->
<g id="edge42" class="edge"><title>Node29&#45;&gt;Node27</title>
<path fill="none" stroke="midnightblue" d="M1077.88,-174.878C1114.76,-164.949 1173.66,-149.091 1212.58,-138.612"/>
<polygon fill="midnightblue" stroke="midnightblue" points="1213.76,-141.919 1222.51,-135.94 1211.94,-135.16 1213.76,-141.919"/>
</g>
<!-- Node32&#45;&gt;Node3 -->
<g id="edge48" class="edge"><title>Node32&#45;&gt;Node3</title>
<path fill="none" stroke="midnightblue" d="M710.339,-296.985C664.4,-285.988 586.691,-267.386 536.638,-255.404"/>
<polygon fill="midnightblue" stroke="midnightblue" points="537.246,-251.951 526.706,-253.026 535.617,-258.758 537.246,-251.951"/>
</g>
<!-- Node32&#45;&gt;Node28 -->
<g id="edge49" class="edge"><title>Node32&#45;&gt;Node28</title>
<path fill="none" stroke="midnightblue" d="M763.05,-296.852C779.699,-286.732 806.746,-270.292 826.256,-258.432"/>
<polygon fill="midnightblue" stroke="midnightblue" points="828.161,-261.371 834.888,-253.186 824.525,-255.389 828.161,-261.371"/>
</g>
<!-- Node34&#45;&gt;Node5 -->
<g id="edge53" class="edge"><title>Node34&#45;&gt;Node5</title>
<path fill="none" stroke="midnightblue" d="M83.1081,-174.878C107.62,-165.603 145.801,-151.156 173.3,-140.752"/>
<polygon fill="midnightblue" stroke="midnightblue" points="174.788,-143.931 182.902,-137.118 172.311,-137.384 174.788,-143.931"/>
</g>
<!-- Node34&#45;&gt;Node14 -->
<g id="edge54" class="edge"><title>Node34&#45;&gt;Node14</title>
<path fill="none" stroke="midnightblue" d="M118.318,-175.128C121.252,-174.736 124.159,-174.357 127,-174 279.522,-154.813 324.818,-185.558 471,-138 489.558,-131.963 490.451,-122.066 509,-116 577.462,-93.6118 785.808,-78.8154 883.893,-72.9039"/>
<polygon fill="midnightblue" stroke="midnightblue" points="884.389,-76.3807 894.164,-72.2932 883.974,-69.393 884.389,-76.3807"/>
</g>
<!-- Node34&#45;&gt;Node21 -->
<g id="edge55" class="edge"><title>Node34&#45;&gt;Node21</title>
<path fill="none" stroke="midnightblue" d="M118.314,-175.096C121.249,-174.712 124.157,-174.345 127,-174 294.095,-153.749 338.389,-168.065 504,-138 505.289,-137.766 506.598,-137.509 507.918,-137.234"/>
<polygon fill="midnightblue" stroke="midnightblue" points="509.113,-140.548 518.044,-134.848 507.508,-133.734 509.113,-140.548"/>
</g>
<!-- Node34&#45;&gt;Node8 -->
<g id="edge56" class="edge"><title>Node34&#45;&gt;Node8</title>
<path fill="none" stroke="midnightblue" d="M103.604,-174.995C146.794,-166.128 214.065,-151.926 272,-138 309.106,-129.081 317.786,-124.457 355,-116 429.863,-98.986 518.732,-83.214 565.151,-75.3084"/>
<polygon fill="midnightblue" stroke="midnightblue" points="565.924,-78.7275 575.2,-73.6073 564.756,-71.8257 565.924,-78.7275"/>
</g>
<!-- Node35 -->
<g id="node35" class="node"><title>Node35</title>
<polygon fill="white" stroke="#bfbfbf" points="1006.38,-117 1006.38,-137 1049.62,-137 1049.62,-117 1006.38,-117"/>
<text text-anchor="middle" x="1028" y="-123" font-family="Helvetica,sans-Serif" font-size="10.00">cmath</text>
</g>
<!-- Node34&#45;&gt;Node35 -->
<g id="edge57" class="edge"><title>Node34&#45;&gt;Node35</title>
<path fill="none" stroke="midnightblue" d="M117.558,-174.991C120.748,-174.625 123.911,-174.29 127,-174 509.008,-138.107 614.235,-204.868 996.232,-137.619"/>
<polygon fill="midnightblue" stroke="midnightblue" points="996.939,-141.048 1006.17,-135.85 995.713,-134.157 996.939,-141.048"/>
</g>
<!-- Node36&#45;&gt;Node14 -->
<g id="edge59" class="edge"><title>Node36&#45;&gt;Node14</title>
<path fill="none" stroke="midnightblue" d="M1285.37,-174.803C1292.98,-160.407 1304.49,-132.495 1290,-116 1270.39,-93.6729 1081.43,-78.9795 987.91,-73.0148"/>
<polygon fill="midnightblue" stroke="midnightblue" points="988.008,-69.5141 977.808,-72.3808 987.569,-76.5004 988.008,-69.5141"/>
</g>
<!-- Node36&#45;&gt;Node35 -->
<g id="edge60" class="edge"><title>Node36&#45;&gt;Node35</title>
<path fill="none" stroke="midnightblue" d="M1227.56,-174.932C1184.61,-167.1 1122.13,-154.784 1059.85,-138.3"/>
<polygon fill="midnightblue" stroke="midnightblue" points="1060.43,-134.83 1049.86,-135.618 1058.62,-141.591 1060.43,-134.83"/>
</g>
<!-- Node37 -->
<g id="node37" class="node"><title>Node37</title>
<polygon fill="white" stroke="#bfbfbf" points="1337.11,-117 1337.11,-137 1380.89,-137 1380.89,-117 1337.11,-117"/>
<text text-anchor="middle" x="1359" y="-123" font-family="Helvetica,sans-Serif" font-size="10.00">climits</text>
</g>
<!-- Node36&#45;&gt;Node37 -->
<g id="edge61" class="edge"><title>Node36&#45;&gt;Node37</title>
<path fill="none" stroke="midnightblue" d="M1293.05,-174.753C1305.24,-166.109 1323.66,-153.052 1337.94,-142.931"/>
<polygon fill="midnightblue" stroke="midnightblue" points="1340.06,-145.714 1346.2,-137.075 1336.02,-140.003 1340.06,-145.714"/>
</g>
<!-- Node38 -->
<g id="node38" class="node"><title>Node38</title>
<polygon fill="white" stroke="#bfbfbf" points="1399.05,-117 1399.05,-137 1438.95,-137 1438.95,-117 1399.05,-117"/>
<text text-anchor="middle" x="1419" y="-123" font-family="Helvetica,sans-Serif" font-size="10.00">cfloat</text>
</g>
<!-- Node36&#45;&gt;Node38 -->
<g id="edge62" class="edge"><title>Node36&#45;&gt;Node38</title>
<path fill="none" stroke="midnightblue" d="M1302.64,-174.878C1326.24,-165.369 1363.34,-150.424 1389.29,-139.971"/>
<polygon fill="midnightblue" stroke="midnightblue" points="1390.66,-143.19 1398.63,-136.206 1388.05,-136.697 1390.66,-143.19"/>
</g>
<!-- Node36&#45;&gt;Node27 -->
<g id="edge63" class="edge"><title>Node36&#45;&gt;Node27</title>
<path fill="none" stroke="midnightblue" d="M1275.38,-174.753C1271.5,-167.006 1265.86,-155.714 1261.08,-146.169"/>
<polygon fill="midnightblue" stroke="midnightblue" points="1264.14,-144.454 1256.54,-137.075 1257.88,-147.585 1264.14,-144.454"/>
</g>
</g>
</svg>
        <g id="navigator" transform="translate(0 0)" fill="#404254">
                <rect fill="#f2f5e9" fill-opacity="0.5" stroke="#606060" stroke-width=".5" x="0" y="0" width="60" height="60"/>
                <use id="zoomplus" xlink:href="#zoomPlus" x="17" y="9" onmousedown="handleZoom(evt,'in')"/>
                <use id="zoomminus" xlink:href="#zoomMin" x="42" y="9" onmousedown="handleZoom(evt,'out')"/>
                <use id="reset" xlink:href="#resetDef" x="30" y="36" onmousedown="handleReset()"/>
                <g id="arrowUp" xlink:href="#dirArrow" transform="translate(30 24)" onmousedown="handlePan(0,-1)">
                  <use xlink:href="#rim" fill="#404040">
                        <set attributeName="fill" to="#808080" begin="arrowUp.mouseover" end="arrowUp.mouseout"/>
                  </use>
                  <path fill="none" stroke="white" stroke-width="1.5" d="M0,-3.0v7 M-2.5,-0.5L0,-3.0L2.5,-0.5"/>
                </g>
                <g id="arrowRight" xlink:href="#dirArrow" transform="rotate(90) translate(36 -43)" onmousedown="handlePan(1,0)">
                  <use xlink:href="#rim" fill="#404040">
                        <set attributeName="fill" to="#808080" begin="arrowRight.mouseover" end="arrowRight.mouseout"/>
                  </use>
                  <path fill="none" stroke="white" stroke-width="1.5" d="M0,-3.0v7 M-2.5,-0.5L0,-3.0L2.5,-0.5"/>
                </g>
                <g id="arrowDown" xlink:href="#dirArrow" transform="rotate(180) translate(-30 -48)" onmousedown="handlePan(0,1)">
                  <use xlink:href="#rim" fill="#404040">
                        <set attributeName="fill" to="#808080" begin="arrowDown.mouseover" end="arrowDown.mouseout"/>
                  </use>
                  <path fill="none" stroke="white" stroke-width="1.5" d="M0,-3.0v7 M-2.5,-0.5L0,-3.0L2.5,-0.5"/>
                </g>
                <g id="arrowLeft" xlink:href="#dirArrow" transform="rotate(270) translate(-36 17)" onmousedown="handlePan(-1,0)">
                  <use xlink:href="#rim" fill="#404040">
                        <set attributeName="fill" to="#808080" begin="arrowLeft.mouseover" end="arrowLeft.mouseout"/>
                  </use>
                  <path fill="none" stroke="white" stroke-width="1.5" d="M0,-3.0v7 M-2.5,-0.5L0,-3.0L2.5,-0.5"/>
                </g>
        </g>
        <svg viewBox="0 0 15 15" width="100%" height="30px" preserveAspectRatio="xMaxYMin meet">
         <g id="arrow_out" transform="scale(0.3 0.3)">
          <a xlink:href="_channel_router_node_8cpp__incl_org.svg" target="_base">
           <rect id="button" ry="5" rx="5" y="6" x="6" height="38" width="38"
                fill="#f2f5e9" fill-opacity="0.5" stroke="#606060" stroke-width="1.0"/>
           <path id="arrow"
             d="M 11.500037,31.436501 C 11.940474,20.09759 22.043105,11.32322 32.158766,21.979434 L 37.068811,17.246167 C 37.068811,17.246167 37.088388,32 37.088388,32 L 22.160133,31.978069 C 22.160133,31.978069 26.997745,27.140456 26.997745,27.140456 C 18.528582,18.264221 13.291696,25.230495 11.500037,31.436501 z"
             style="fill:#404040;"/>
          </a>
         </g>
        </svg>
</svg>
