<?xml version="1.0" encoding="UTF-8" standalone="no"?>
<!DOCTYPE svg PUBLIC "-//W3C//DTD SVG 1.1//EN"
 "http://www.w3.org/Graphics/SVG/1.1/DTD/svg11.dtd">
<!-- Generated by graphviz version 2.30.1 (20140712.1814)
 -->
<!-- Title: include/cinder/ChanTraits.h Pages: 1 -->
<svg width="316pt" height="146pt"
 viewBox="0.00 0.00 316.00 146.00" xmlns="http://www.w3.org/2000/svg" xmlns:xlink="http://www.w3.org/1999/xlink">
<g id="graph0" class="graph" transform="scale(1 1) rotate(0) translate(4 142)">
<title>include/cinder/ChanTraits.h</title>
<polygon fill="white" stroke="white" points="-4,5 -4,-142 313,-142 313,5 -4,5"/>
<!-- Node1 -->
<g id="node1" class="node"><title>Node1</title>
<polygon fill="#bfbfbf" stroke="black" points="41.3188,-117 41.3188,-137 178.681,-137 178.681,-117 41.3188,-117"/>
<text text-anchor="middle" x="110" y="-123" font-family="Helvetica,sans-Serif" font-size="10.00">include/cinder/ChanTraits.h</text>
</g>
<!-- Node2 -->
<g id="node2" class="node"><title>Node2</title>
<g id="a_node2"><a xlink:href="_cinder_8h.html" target="_top" xlink:title="cinder/Cinder.h">
<polygon fill="white" stroke="black" points="68.3672,-59 68.3672,-79 151.633,-79 151.633,-59 68.3672,-59"/>
<text text-anchor="middle" x="110" y="-65" font-family="Helvetica,sans-Serif" font-size="10.00">cinder/Cinder.h</text>
</a>
</g>
</g>
<!-- Node1&#45;&gt;Node2 -->
<g id="edge1" class="edge"><title>Node1&#45;&gt;Node2</title>
<path fill="none" stroke="midnightblue" d="M110,-116.753C110,-109.25 110,-98.4238 110,-89.0781"/>
<polygon fill="midnightblue" stroke="midnightblue" points="113.5,-89.0752 110,-79.0752 106.5,-89.0752 113.5,-89.0752"/>
</g>
<!-- Node3 -->
<g id="node3" class="node"><title>Node3</title>
<polygon fill="white" stroke="#bfbfbf" points="-0.450684,-1 -0.450684,-21 44.4507,-21 44.4507,-1 -0.450684,-1"/>
<text text-anchor="middle" x="22" y="-7" font-family="Helvetica,sans-Serif" font-size="10.00">cstdint</text>
</g>
<!-- Node2&#45;&gt;Node3 -->
<g id="edge2" class="edge"><title>Node2&#45;&gt;Node3</title>
<path fill="none" stroke="midnightblue" d="M95.4686,-58.7527C81.757,-50.0272 60.9794,-36.8051 45.0148,-26.6458"/>
<polygon fill="midnightblue" stroke="midnightblue" points="46.5767,-23.4912 36.261,-21.0752 42.8186,-29.3968 46.5767,-23.4912"/>
</g>
<!-- Node4 -->
<g id="node4" class="node"><title>Node4</title>
<polygon fill="white" stroke="#bfbfbf" points="62.5298,-1 62.5298,-21 157.47,-21 157.47,-1 62.5298,-1"/>
<text text-anchor="middle" x="110" y="-7" font-family="Helvetica,sans-Serif" font-size="10.00">boost/version.hpp</text>
</g>
<!-- Node2&#45;&gt;Node4 -->
<g id="edge3" class="edge"><title>Node2&#45;&gt;Node4</title>
<path fill="none" stroke="midnightblue" d="M110,-58.7527C110,-51.2504 110,-40.4238 110,-31.0781"/>
<polygon fill="midnightblue" stroke="midnightblue" points="113.5,-31.0752 110,-21.0752 106.5,-31.0752 113.5,-31.0752"/>
</g>
<!-- Node5 -->
<g id="node5" class="node"><title>Node5</title>
<polygon fill="white" stroke="#bfbfbf" points="175.621,-1 175.621,-21 308.379,-21 308.379,-1 175.621,-1"/>
<text text-anchor="middle" x="242" y="-7" font-family="Helvetica,sans-Serif" font-size="10.00">boost/checked_delete.hpp</text>
</g>
<!-- Node2&#45;&gt;Node5 -->
<g id="edge4" class="edge"><title>Node2&#45;&gt;Node5</title>
<path fill="none" stroke="midnightblue" d="M131.502,-58.878C153.172,-49.6848 186.821,-35.4095 211.295,-25.0263"/>
<polygon fill="midnightblue" stroke="midnightblue" points="212.668,-28.2457 220.507,-21.1181 209.935,-21.8016 212.668,-28.2457"/>
</g>
</g>
</svg>
