<?xml version="1.0" encoding="UTF-8" standalone="no"?>
<!DOCTYPE svg PUBLIC "-//W3C//DTD SVG 1.1//EN"
 "http://www.w3.org/Graphics/SVG/1.1/DTD/svg11.dtd">
<!-- Generated by graphviz version 2.30.1 (20140712.1814)
 -->
<!-- Title: src/cinder/Channel.cpp Pages: 1 -->
<svg width="1794pt" height="506pt"
 viewBox="0.00 0.00 1794.00 506.00" xmlns="http://www.w3.org/2000/svg" xmlns:xlink="http://www.w3.org/1999/xlink">
<g id="graph0" class="graph" transform="scale(1 1) rotate(0) translate(4 502)">
<title>src/cinder/Channel.cpp</title>
<polygon fill="white" stroke="white" points="-4,5 -4,-502 1791,-502 1791,5 -4,5"/>
<!-- Node1 -->
<g id="node1" class="node"><title>Node1</title>
<polygon fill="#bfbfbf" stroke="black" points="403.862,-477 403.862,-497 522.138,-497 522.138,-477 403.862,-477"/>
<text text-anchor="middle" x="463" y="-483" font-family="Helvetica,sans-Serif" font-size="10.00">src/cinder/Channel.cpp</text>
</g>
<!-- Node2 -->
<g id="node2" class="node"><title>Node2</title>
<g id="a_node2"><a xlink:href="_channel_8h.html" target="_top" xlink:title="cinder/Channel.h">
<polygon fill="white" stroke="black" points="214.197,-291 214.197,-311 305.803,-311 305.803,-291 214.197,-291"/>
<text text-anchor="middle" x="260" y="-297" font-family="Helvetica,sans-Serif" font-size="10.00">cinder/Channel.h</text>
</a>
</g>
</g>
<!-- Node1&#45;&gt;Node2 -->
<g id="edge1" class="edge"><title>Node1&#45;&gt;Node2</title>
<path fill="none" stroke="midnightblue" d="M452.933,-476.875C420.6,-447.568 319.095,-355.564 277.77,-318.106"/>
<polygon fill="midnightblue" stroke="midnightblue" points="279.887,-315.302 270.128,-311.18 275.186,-320.489 279.887,-315.302"/>
</g>
<!-- Node20 -->
<g id="node20" class="node"><title>Node20</title>
<g id="a_node20"><a xlink:href="_chan_traits_8h.html" target="_top" xlink:title="cinder/ChanTraits.h">
<polygon fill="white" stroke="black" points="248.553,-175 248.553,-195 351.447,-195 351.447,-175 248.553,-175"/>
<text text-anchor="middle" x="300" y="-181" font-family="Helvetica,sans-Serif" font-size="10.00">cinder/ChanTraits.h</text>
</a>
</g>
</g>
<!-- Node1&#45;&gt;Node20 -->
<g id="edge23" class="edge"><title>Node1&#45;&gt;Node20</title>
<path fill="none" stroke="midnightblue" d="M412.963,-476.933C323.409,-459.269 145,-416.935 145,-360 145,-360 145,-360 145,-300 145,-245.072 208.95,-213.673 254.696,-198.239"/>
<polygon fill="midnightblue" stroke="midnightblue" points="255.997,-201.497 264.44,-195.096 253.848,-194.835 255.997,-201.497"/>
</g>
<!-- Node21 -->
<g id="node21" class="node"><title>Node21</title>
<g id="a_node21"><a xlink:href="_image_io_8h.html" target="_top" xlink:title="cinder/ImageIo.h">
<polygon fill="white" stroke="black" points="698.756,-413 698.756,-433 789.244,-433 789.244,-413 698.756,-413"/>
<text text-anchor="middle" x="744" y="-419" font-family="Helvetica,sans-Serif" font-size="10.00">cinder/ImageIo.h</text>
</a>
</g>
</g>
<!-- Node1&#45;&gt;Node21 -->
<g id="edge25" class="edge"><title>Node1&#45;&gt;Node21</title>
<path fill="none" stroke="midnightblue" d="M503.86,-476.985C553.91,-465.942 638.715,-447.23 692.994,-435.254"/>
<polygon fill="midnightblue" stroke="midnightblue" points="694.08,-438.599 703.091,-433.026 692.572,-431.763 694.08,-438.599"/>
</g>
<!-- Node38 -->
<g id="node38" class="node"><title>Node38</title>
<polygon fill="white" stroke="#bfbfbf" points="807.313,-407 807.313,-439 906.687,-439 906.687,-407 807.313,-407"/>
<text text-anchor="start" x="815.313" y="-425" font-family="Helvetica,sans-Serif" font-size="10.00">boost/type_traits/is</text>
<text text-anchor="middle" x="857" y="-413" font-family="Helvetica,sans-Serif" font-size="10.00">_same.hpp</text>
</g>
<!-- Node1&#45;&gt;Node38 -->
<g id="edge71" class="edge"><title>Node1&#45;&gt;Node38</title>
<path fill="none" stroke="midnightblue" d="M522.389,-480.175C587.555,-473.261 695.36,-460.294 797.363,-439.973"/>
<polygon fill="midnightblue" stroke="midnightblue" points="798.105,-443.394 807.214,-437.984 796.719,-436.533 798.105,-443.394"/>
</g>
<!-- Node3 -->
<g id="node3" class="node"><title>Node3</title>
<g id="a_node3"><a xlink:href="_cinder_8h.html" target="_top" xlink:title="cinder/Cinder.h">
<polygon fill="white" stroke="black" points="664.367,-59 664.367,-79 747.633,-79 747.633,-59 664.367,-59"/>
<text text-anchor="middle" x="706" y="-65" font-family="Helvetica,sans-Serif" font-size="10.00">cinder/Cinder.h</text>
</a>
</g>
</g>
<!-- Node2&#45;&gt;Node3 -->
<g id="edge2" class="edge"><title>Node2&#45;&gt;Node3</title>
<path fill="none" stroke="midnightblue" d="M255.074,-290.907C244.136,-269.394 220.287,-214.164 240,-174 258.566,-136.173 275.989,-131.93 315,-116 375.244,-91.3991 562.183,-77.9456 654.018,-72.6668"/>
<polygon fill="midnightblue" stroke="midnightblue" points="654.412,-76.1502 664.199,-72.0927 654.018,-69.1613 654.412,-76.1502"/>
</g>
<!-- Node7 -->
<g id="node7" class="node"><title>Node7</title>
<g id="a_node7"><a xlink:href="_area_8h.html" target="_top" xlink:title="cinder/Area.h">
<polygon fill="white" stroke="black" points="474.261,-233 474.261,-253 549.739,-253 549.739,-233 474.261,-233"/>
<text text-anchor="middle" x="512" y="-239" font-family="Helvetica,sans-Serif" font-size="10.00">cinder/Area.h</text>
</a>
</g>
</g>
<!-- Node2&#45;&gt;Node7 -->
<g id="edge6" class="edge"><title>Node2&#45;&gt;Node7</title>
<path fill="none" stroke="midnightblue" d="M300.768,-290.94C345.412,-281.02 416.929,-265.127 464.185,-254.626"/>
<polygon fill="midnightblue" stroke="midnightblue" points="465.172,-257.992 474.175,-252.406 463.654,-251.158 465.172,-257.992"/>
</g>
<!-- Node4 -->
<g id="node4" class="node"><title>Node4</title>
<polygon fill="white" stroke="#bfbfbf" points="595.549,-1 595.549,-21 640.451,-21 640.451,-1 595.549,-1"/>
<text text-anchor="middle" x="618" y="-7" font-family="Helvetica,sans-Serif" font-size="10.00">cstdint</text>
</g>
<!-- Node3&#45;&gt;Node4 -->
<g id="edge3" class="edge"><title>Node3&#45;&gt;Node4</title>
<path fill="none" stroke="midnightblue" d="M691.469,-58.7527C677.757,-50.0272 656.979,-36.8051 641.015,-26.6458"/>
<polygon fill="midnightblue" stroke="midnightblue" points="642.577,-23.4912 632.261,-21.0752 638.819,-29.3968 642.577,-23.4912"/>
</g>
<!-- Node5 -->
<g id="node5" class="node"><title>Node5</title>
<polygon fill="white" stroke="#bfbfbf" points="658.53,-1 658.53,-21 753.47,-21 753.47,-1 658.53,-1"/>
<text text-anchor="middle" x="706" y="-7" font-family="Helvetica,sans-Serif" font-size="10.00">boost/version.hpp</text>
</g>
<!-- Node3&#45;&gt;Node5 -->
<g id="edge4" class="edge"><title>Node3&#45;&gt;Node5</title>
<path fill="none" stroke="midnightblue" d="M706,-58.7527C706,-51.2504 706,-40.4238 706,-31.0781"/>
<polygon fill="midnightblue" stroke="midnightblue" points="709.5,-31.0752 706,-21.0752 702.5,-31.0752 709.5,-31.0752"/>
</g>
<!-- Node6 -->
<g id="node6" class="node"><title>Node6</title>
<polygon fill="white" stroke="#bfbfbf" points="771.621,-1 771.621,-21 904.379,-21 904.379,-1 771.621,-1"/>
<text text-anchor="middle" x="838" y="-7" font-family="Helvetica,sans-Serif" font-size="10.00">boost/checked_delete.hpp</text>
</g>
<!-- Node3&#45;&gt;Node6 -->
<g id="edge5" class="edge"><title>Node3&#45;&gt;Node6</title>
<path fill="none" stroke="midnightblue" d="M727.502,-58.878C749.172,-49.6848 782.821,-35.4095 807.295,-25.0263"/>
<polygon fill="midnightblue" stroke="midnightblue" points="808.668,-28.2457 816.507,-21.1181 805.935,-21.8016 808.668,-28.2457"/>
</g>
<!-- Node7&#45;&gt;Node3 -->
<g id="edge7" class="edge"><title>Node7&#45;&gt;Node3</title>
<path fill="none" stroke="midnightblue" d="M487.446,-232.92C453.325,-218.738 393.257,-187.69 371,-138 367.003,-129.077 364.574,-123.369 371,-116 407.067,-74.6419 569.116,-69.1576 653.906,-69.2079"/>
<polygon fill="midnightblue" stroke="midnightblue" points="654.087,-72.7084 664.098,-69.2409 654.11,-65.7084 654.087,-72.7084"/>
</g>
<!-- Node8 -->
<g id="node8" class="node"><title>Node8</title>
<g id="a_node8"><a xlink:href="_vector_8h.html" target="_top" xlink:title="cinder/Vector.h">
<polygon fill="white" stroke="black" points="444.919,-175 444.919,-195 527.081,-195 527.081,-175 444.919,-175"/>
<text text-anchor="middle" x="486" y="-181" font-family="Helvetica,sans-Serif" font-size="10.00">cinder/Vector.h</text>
</a>
</g>
</g>
<!-- Node7&#45;&gt;Node8 -->
<g id="edge8" class="edge"><title>Node7&#45;&gt;Node8</title>
<path fill="none" stroke="midnightblue" d="M507.707,-232.753C504.11,-225.006 498.867,-213.714 494.435,-204.169"/>
<polygon fill="midnightblue" stroke="midnightblue" points="497.599,-202.671 490.213,-195.075 491.25,-205.619 497.599,-202.671"/>
</g>
<!-- Node11 -->
<g id="node11" class="node"><title>Node11</title>
<polygon fill="white" stroke="#bfbfbf" points="604.828,-117 604.828,-137 659.172,-137 659.172,-117 604.828,-117"/>
<text text-anchor="middle" x="632" y="-123" font-family="Helvetica,sans-Serif" font-size="10.00">iostream</text>
</g>
<!-- Node7&#45;&gt;Node11 -->
<g id="edge20" class="edge"><title>Node7&#45;&gt;Node11</title>
<path fill="none" stroke="midnightblue" d="M524.209,-232.967C536.046,-224.022 554.317,-209.714 569,-196 586.532,-179.626 605.007,-159.265 617.382,-145.112"/>
<polygon fill="midnightblue" stroke="midnightblue" points="620.339,-147.045 624.237,-137.193 615.046,-142.463 620.339,-147.045"/>
</g>
<!-- Node18 -->
<g id="node18" class="node"><title>Node18</title>
<polygon fill="white" stroke="#bfbfbf" points="620.608,-175 620.608,-195 659.392,-195 659.392,-175 620.608,-175"/>
<text text-anchor="middle" x="640" y="-181" font-family="Helvetica,sans-Serif" font-size="10.00">utility</text>
</g>
<!-- Node7&#45;&gt;Node18 -->
<g id="edge21" class="edge"><title>Node7&#45;&gt;Node18</title>
<path fill="none" stroke="midnightblue" d="M532.85,-232.878C554.144,-223.562 587.366,-209.027 611.172,-198.612"/>
<polygon fill="midnightblue" stroke="midnightblue" points="612.66,-201.781 620.419,-194.567 609.855,-195.368 612.66,-201.781"/>
</g>
<!-- Node19 -->
<g id="node19" class="node"><title>Node19</title>
<polygon fill="white" stroke="#bfbfbf" points="1726.38,-59 1726.38,-79 1769.62,-79 1769.62,-59 1726.38,-59"/>
<text text-anchor="middle" x="1748" y="-65" font-family="Helvetica,sans-Serif" font-size="10.00">vector</text>
</g>
<!-- Node7&#45;&gt;Node19 -->
<g id="edge22" class="edge"><title>Node7&#45;&gt;Node19</title>
<path fill="none" stroke="midnightblue" d="M549.992,-240.396C740.63,-232.118 1587.91,-192.494 1691,-138 1711.98,-126.912 1728.35,-104.549 1738.06,-88.4935"/>
<polygon fill="midnightblue" stroke="midnightblue" points="1741.29,-89.886 1743.23,-79.4689 1735.22,-86.4071 1741.29,-89.886"/>
</g>
<!-- Node9 -->
<g id="node9" class="node"><title>Node9</title>
<polygon fill="white" stroke="#bfbfbf" points="-0.615723,-59 -0.615723,-79 42.6157,-79 42.6157,-59 -0.615723,-59"/>
<text text-anchor="middle" x="21" y="-65" font-family="Helvetica,sans-Serif" font-size="10.00">cmath</text>
</g>
<!-- Node8&#45;&gt;Node9 -->
<g id="edge9" class="edge"><title>Node8&#45;&gt;Node9</title>
<path fill="none" stroke="midnightblue" d="M444.872,-180.373C335.94,-170.687 47.7175,-144.508 40,-138 25.9745,-126.173 21.8545,-104.932 20.8517,-89.3268"/>
<polygon fill="midnightblue" stroke="midnightblue" points="24.3463,-89.0766 20.5753,-79.1756 17.3489,-89.2671 24.3463,-89.0766"/>
</g>
<!-- Node10 -->
<g id="node10" class="node"><title>Node10</title>
<polygon fill="white" stroke="#bfbfbf" points="380.273,-117 380.273,-137 425.727,-137 425.727,-117 380.273,-117"/>
<text text-anchor="middle" x="403" y="-123" font-family="Helvetica,sans-Serif" font-size="10.00">cstring</text>
</g>
<!-- Node8&#45;&gt;Node10 -->
<g id="edge10" class="edge"><title>Node8&#45;&gt;Node10</title>
<path fill="none" stroke="midnightblue" d="M472.294,-174.753C459.483,-166.109 440.13,-153.052 425.13,-142.931"/>
<polygon fill="midnightblue" stroke="midnightblue" points="426.698,-139.767 416.451,-137.075 422.783,-145.57 426.698,-139.767"/>
</g>
<!-- Node8&#45;&gt;Node11 -->
<g id="edge11" class="edge"><title>Node8&#45;&gt;Node11</title>
<path fill="none" stroke="midnightblue" d="M509.782,-174.878C533.962,-165.603 571.628,-151.156 598.755,-140.752"/>
<polygon fill="midnightblue" stroke="midnightblue" points="600.145,-143.967 608.228,-137.118 597.638,-137.432 600.145,-143.967"/>
</g>
<!-- Node12 -->
<g id="node12" class="node"><title>Node12</title>
<polygon fill="white" stroke="#bfbfbf" points="443.884,-117 443.884,-137 492.116,-137 492.116,-117 443.884,-117"/>
<text text-anchor="middle" x="468" y="-123" font-family="Helvetica,sans-Serif" font-size="10.00">cassert</text>
</g>
<!-- Node8&#45;&gt;Node12 -->
<g id="edge12" class="edge"><title>Node8&#45;&gt;Node12</title>
<path fill="none" stroke="midnightblue" d="M483.028,-174.753C480.59,-167.169 477.06,-156.188 474.034,-146.774"/>
<polygon fill="midnightblue" stroke="midnightblue" points="477.309,-145.524 470.917,-137.075 470.645,-147.667 477.309,-145.524"/>
</g>
<!-- Node13 -->
<g id="node13" class="node"><title>Node13</title>
<polygon fill="white" stroke="#bfbfbf" points="510.613,-117 510.613,-137 549.387,-137 549.387,-117 510.613,-117"/>
<text text-anchor="middle" x="530" y="-123" font-family="Helvetica,sans-Serif" font-size="10.00">limits</text>
</g>
<!-- Node8&#45;&gt;Node13 -->
<g id="edge13" class="edge"><title>Node8&#45;&gt;Node13</title>
<path fill="none" stroke="midnightblue" d="M493.266,-174.753C499.609,-166.68 508.977,-154.757 516.664,-144.973"/>
<polygon fill="midnightblue" stroke="midnightblue" points="519.443,-147.101 522.869,-137.075 513.939,-142.776 519.443,-147.101"/>
</g>
<!-- Node14 -->
<g id="node14" class="node"><title>Node14</title>
<g id="a_node14"><a xlink:href="_cinder_math_8h.html" target="_top" xlink:title="cinder/CinderMath.h">
<polygon fill="white" stroke="black" points="48.978,-117 48.978,-137 155.022,-137 155.022,-117 48.978,-117"/>
<text text-anchor="middle" x="102" y="-123" font-family="Helvetica,sans-Serif" font-size="10.00">cinder/CinderMath.h</text>
</a>
</g>
</g>
<!-- Node8&#45;&gt;Node14 -->
<g id="edge14" class="edge"><title>Node8&#45;&gt;Node14</title>
<path fill="none" stroke="midnightblue" d="M444.905,-178.007C377.968,-168.245 244.924,-148.843 165.675,-137.286"/>
<polygon fill="midnightblue" stroke="midnightblue" points="165.737,-133.758 155.337,-135.778 164.727,-140.685 165.737,-133.758"/>
</g>
<!-- Node14&#45;&gt;Node3 -->
<g id="edge15" class="edge"><title>Node14&#45;&gt;Node3</title>
<path fill="none" stroke="midnightblue" d="M155.353,-117.729C159.964,-117.107 164.561,-116.521 169,-116 346.538,-95.1676 558.148,-79.8108 654.11,-73.3585"/>
<polygon fill="midnightblue" stroke="midnightblue" points="654.388,-76.8478 664.132,-72.6888 653.921,-69.8634 654.388,-76.8478"/>
</g>
<!-- Node14&#45;&gt;Node9 -->
<g id="edge16" class="edge"><title>Node14&#45;&gt;Node9</title>
<path fill="none" stroke="midnightblue" d="M88.6245,-116.753C76.1216,-108.109 57.2357,-95.0518 42.5972,-84.9314"/>
<polygon fill="midnightblue" stroke="midnightblue" points="44.3426,-81.8831 34.1266,-79.0752 40.3618,-87.641 44.3426,-81.8831"/>
</g>
<!-- Node15 -->
<g id="node15" class="node"><title>Node15</title>
<polygon fill="white" stroke="#bfbfbf" points="137.113,-59 137.113,-79 180.887,-79 180.887,-59 137.113,-59"/>
<text text-anchor="middle" x="159" y="-65" font-family="Helvetica,sans-Serif" font-size="10.00">climits</text>
</g>
<!-- Node14&#45;&gt;Node15 -->
<g id="edge17" class="edge"><title>Node14&#45;&gt;Node15</title>
<path fill="none" stroke="midnightblue" d="M111.412,-116.753C119.879,-108.435 132.504,-96.031 142.623,-86.0893"/>
<polygon fill="midnightblue" stroke="midnightblue" points="145.082,-88.5801 149.763,-79.0752 140.176,-83.5868 145.082,-88.5801"/>
</g>
<!-- Node16 -->
<g id="node16" class="node"><title>Node16</title>
<polygon fill="white" stroke="#bfbfbf" points="199.049,-59 199.049,-79 238.951,-79 238.951,-59 199.049,-59"/>
<text text-anchor="middle" x="219" y="-65" font-family="Helvetica,sans-Serif" font-size="10.00">cfloat</text>
</g>
<!-- Node14&#45;&gt;Node16 -->
<g id="edge18" class="edge"><title>Node14&#45;&gt;Node16</title>
<path fill="none" stroke="midnightblue" d="M121.058,-116.878C140.011,-107.807 169.301,-93.7876 190.916,-83.4418"/>
<polygon fill="midnightblue" stroke="midnightblue" points="192.441,-86.5925 199.95,-79.1181 189.419,-80.2784 192.441,-86.5925"/>
</g>
<!-- Node17 -->
<g id="node17" class="node"><title>Node17</title>
<polygon fill="white" stroke="#bfbfbf" points="60.5962,-59 60.5962,-79 119.404,-79 119.404,-59 60.5962,-59"/>
<text text-anchor="middle" x="90" y="-65" font-family="Helvetica,sans-Serif" font-size="10.00">functional</text>
</g>
<!-- Node14&#45;&gt;Node17 -->
<g id="edge19" class="edge"><title>Node14&#45;&gt;Node17</title>
<path fill="none" stroke="midnightblue" d="M100.018,-116.753C98.4108,-109.25 96.0908,-98.4238 94.0882,-89.0781"/>
<polygon fill="midnightblue" stroke="midnightblue" points="97.4624,-88.1198 91.9447,-79.0752 90.6177,-89.5866 97.4624,-88.1198"/>
</g>
<!-- Node20&#45;&gt;Node3 -->
<g id="edge24" class="edge"><title>Node20&#45;&gt;Node3</title>
<path fill="none" stroke="midnightblue" d="M302.29,-174.68C306.531,-159.582 317.137,-130.053 338,-116 388.468,-82.005 565.027,-73.133 653.966,-70.8176"/>
<polygon fill="midnightblue" stroke="midnightblue" points="654.193,-74.3133 664.106,-70.5723 654.024,-67.3153 654.193,-74.3133"/>
</g>
<!-- Node21&#45;&gt;Node3 -->
<g id="edge26" class="edge"><title>Node21&#45;&gt;Node3</title>
<path fill="none" stroke="midnightblue" d="M698.698,-419.895C580.366,-413.35 266.87,-388.938 205,-312 147.91,-241.006 188.1,-164.845 265,-116 328.449,-75.6984 551.737,-70.1159 654.068,-69.7345"/>
<polygon fill="midnightblue" stroke="midnightblue" points="654.18,-73.2344 664.172,-69.7124 654.164,-66.2344 654.18,-73.2344"/>
</g>
<!-- Node22 -->
<g id="node22" class="node"><title>Node22</title>
<g id="a_node22"><a xlink:href="_data_source_8h.html" target="_top" xlink:title="cinder/DataSource.h">
<polygon fill="white" stroke="black" points="769.419,-291 769.419,-311 876.581,-311 876.581,-291 769.419,-291"/>
<text text-anchor="middle" x="823" y="-297" font-family="Helvetica,sans-Serif" font-size="10.00">cinder/DataSource.h</text>
</a>
</g>
</g>
<!-- Node21&#45;&gt;Node22 -->
<g id="edge27" class="edge"><title>Node21&#45;&gt;Node22</title>
<path fill="none" stroke="midnightblue" d="M747.76,-412.932C753.914,-398.555 766.969,-369.914 782,-348 789.153,-337.571 798.443,-326.964 806.371,-318.568"/>
<polygon fill="midnightblue" stroke="midnightblue" points="808.994,-320.89 813.44,-311.274 803.968,-316.019 808.994,-320.89"/>
</g>
<!-- Node33 -->
<g id="node33" class="node"><title>Node33</title>
<g id="a_node33"><a xlink:href="_data_target_8h.html" target="_top" xlink:title="cinder/DataTarget.h">
<polygon fill="white" stroke="black" points="911.365,-291 911.365,-311 1014.64,-311 1014.64,-291 911.365,-291"/>
<text text-anchor="middle" x="963" y="-297" font-family="Helvetica,sans-Serif" font-size="10.00">cinder/DataTarget.h</text>
</a>
</g>
</g>
<!-- Node21&#45;&gt;Node33 -->
<g id="edge50" class="edge"><title>Node21&#45;&gt;Node33</title>
<path fill="none" stroke="midnightblue" d="M760.461,-412.98C798.351,-392.219 891.964,-340.924 937.417,-316.018"/>
<polygon fill="midnightblue" stroke="midnightblue" points="939.261,-318.999 946.348,-311.124 935.897,-312.86 939.261,-318.999"/>
</g>
<!-- Node34 -->
<g id="node34" class="node"><title>Node34</title>
<g id="a_node34"><a xlink:href="_surface_8h.html" target="_top" xlink:title="cinder/Surface.h">
<polygon fill="white" stroke="black" points="477.591,-349 477.591,-369 566.409,-369 566.409,-349 477.591,-349"/>
<text text-anchor="middle" x="522" y="-355" font-family="Helvetica,sans-Serif" font-size="10.00">cinder/Surface.h</text>
</a>
</g>
</g>
<!-- Node21&#45;&gt;Node34 -->
<g id="edge55" class="edge"><title>Node21&#45;&gt;Node34</title>
<path fill="none" stroke="midnightblue" d="M711.719,-412.985C672.753,-402.102 607.123,-383.773 564.184,-371.781"/>
<polygon fill="midnightblue" stroke="midnightblue" points="564.893,-368.345 554.32,-369.026 563.01,-375.087 564.893,-368.345"/>
</g>
<!-- Node26 -->
<g id="node26" class="node"><title>Node26</title>
<g id="a_node26"><a xlink:href="_exception_8h.html" target="_top" xlink:title="cinder/Exception.h">
<polygon fill="white" stroke="black" points="1583.86,-117 1583.86,-137 1682.14,-137 1682.14,-117 1583.86,-117"/>
<text text-anchor="middle" x="1633" y="-123" font-family="Helvetica,sans-Serif" font-size="10.00">cinder/Exception.h</text>
</a>
</g>
</g>
<!-- Node21&#45;&gt;Node26 -->
<g id="edge67" class="edge"><title>Node21&#45;&gt;Node26</title>
<path fill="none" stroke="midnightblue" d="M771.249,-412.978C779.744,-410.423 789.194,-407.839 798,-406 889.628,-386.862 1634,-395.605 1634,-302 1634,-302 1634,-302 1634,-242 1634,-208.797 1633.57,-170.156 1633.27,-147.462"/>
<polygon fill="midnightblue" stroke="midnightblue" points="1636.77,-147.113 1633.13,-137.161 1629.77,-147.208 1636.77,-147.113"/>
</g>
<!-- Node21&#45;&gt;Node19 -->
<g id="edge68" class="edge"><title>Node21&#45;&gt;Node19</title>
<path fill="none" stroke="midnightblue" d="M770.073,-412.924C778.842,-410.236 788.749,-407.589 798,-406 1101.09,-353.956 1184.42,-412.476 1489,-370 1623.12,-351.296 1786,-437.416 1786,-302 1786,-302 1786,-302 1786,-184 1786,-148.541 1769.25,-109.914 1757.99,-87.9569"/>
<polygon fill="midnightblue" stroke="midnightblue" points="1761.07,-86.2963 1753.28,-79.1127 1754.89,-89.5848 1761.07,-86.2963"/>
</g>
<!-- Node37 -->
<g id="node37" class="node"><title>Node37</title>
<polygon fill="white" stroke="#bfbfbf" points="791.273,-349 791.273,-369 826.727,-369 826.727,-349 791.273,-349"/>
<text text-anchor="middle" x="809" y="-355" font-family="Helvetica,sans-Serif" font-size="10.00">map</text>
</g>
<!-- Node21&#45;&gt;Node37 -->
<g id="edge69" class="edge"><title>Node21&#45;&gt;Node37</title>
<path fill="none" stroke="midnightblue" d="M753.591,-412.852C763.672,-403.236 779.737,-387.913 791.978,-376.236"/>
<polygon fill="midnightblue" stroke="midnightblue" points="794.549,-378.621 799.37,-369.186 789.718,-373.555 794.549,-378.621"/>
</g>
<!-- Node21&#45;&gt;Node18 -->
<g id="edge70" class="edge"><title>Node21&#45;&gt;Node18</title>
<path fill="none" stroke="midnightblue" d="M739.923,-412.749C724.456,-377.65 669.217,-252.299 648.198,-204.604"/>
<polygon fill="midnightblue" stroke="midnightblue" points="651.284,-202.927 644.049,-195.188 644.879,-205.75 651.284,-202.927"/>
</g>
<!-- Node22&#45;&gt;Node3 -->
<g id="edge28" class="edge"><title>Node22&#45;&gt;Node3</title>
<path fill="none" stroke="midnightblue" d="M818.413,-290.984C801.016,-256.783 738.889,-134.653 715.235,-88.1534"/>
<polygon fill="midnightblue" stroke="midnightblue" points="718.336,-86.53 710.682,-79.2039 712.096,-89.7039 718.336,-86.53"/>
</g>
<!-- Node23 -->
<g id="node23" class="node"><title>Node23</title>
<g id="a_node23"><a xlink:href="_url_8h.html" target="_top" xlink:title="cinder/Url.h">
<polygon fill="white" stroke="black" points="867.436,-233 867.436,-253 934.564,-253 934.564,-233 867.436,-233"/>
<text text-anchor="middle" x="901" y="-239" font-family="Helvetica,sans-Serif" font-size="10.00">cinder/Url.h</text>
</a>
</g>
</g>
<!-- Node22&#45;&gt;Node23 -->
<g id="edge29" class="edge"><title>Node22&#45;&gt;Node23</title>
<path fill="none" stroke="midnightblue" d="M835.88,-290.753C847.92,-282.109 866.106,-269.052 880.203,-258.931"/>
<polygon fill="midnightblue" stroke="midnightblue" points="882.278,-261.75 888.36,-253.075 878.195,-256.064 882.278,-261.75"/>
</g>
<!-- Node25 -->
<g id="node25" class="node"><title>Node25</title>
<g id="a_node25"><a xlink:href="_buffer_8h.html" target="_top" xlink:title="cinder/Buffer.h">
<polygon fill="white" stroke="black" points="752.844,-117 752.844,-137 833.156,-137 833.156,-117 752.844,-117"/>
<text text-anchor="middle" x="793" y="-123" font-family="Helvetica,sans-Serif" font-size="10.00">cinder/Buffer.h</text>
</a>
</g>
</g>
<!-- Node22&#45;&gt;Node25 -->
<g id="edge47" class="edge"><title>Node22&#45;&gt;Node25</title>
<path fill="none" stroke="midnightblue" d="M821.387,-290.753C816.666,-263.688 802.807,-184.224 796.364,-147.286"/>
<polygon fill="midnightblue" stroke="midnightblue" points="799.787,-146.543 794.621,-137.293 792.891,-147.746 799.787,-146.543"/>
</g>
<!-- Node24 -->
<g id="node24" class="node"><title>Node24</title>
<g id="a_node24"><a xlink:href="_stream_8h.html" target="_top" xlink:title="cinder/Stream.h">
<polygon fill="white" stroke="black" points="1013.71,-175 1013.71,-195 1100.29,-195 1100.29,-175 1013.71,-175"/>
<text text-anchor="middle" x="1057" y="-181" font-family="Helvetica,sans-Serif" font-size="10.00">cinder/Stream.h</text>
</a>
</g>
</g>
<!-- Node22&#45;&gt;Node24 -->
<g id="edge48" class="edge"><title>Node22&#45;&gt;Node24</title>
<path fill="none" stroke="midnightblue" d="M850.732,-290.893C875.425,-282.427 912.291,-268.908 943,-254 976.162,-237.901 1012.39,-215.371 1034.91,-200.733"/>
<polygon fill="midnightblue" stroke="midnightblue" points="1036.95,-203.581 1043.39,-195.169 1033.11,-197.728 1036.95,-203.581"/>
</g>
<!-- Node28 -->
<g id="node28" class="node"><title>Node28</title>
<g id="a_node28"><a xlink:href="_filesystem_8h.html" target="_top" xlink:title="cinder/Filesystem.h">
<polygon fill="white" stroke="black" points="926.931,-117 926.931,-137 1029.07,-137 1029.07,-117 926.931,-117"/>
<text text-anchor="middle" x="978" y="-123" font-family="Helvetica,sans-Serif" font-size="10.00">cinder/Filesystem.h</text>
</a>
</g>
</g>
<!-- Node22&#45;&gt;Node28 -->
<g id="edge49" class="edge"><title>Node22&#45;&gt;Node28</title>
<path fill="none" stroke="midnightblue" d="M826.518,-290.548C831.929,-276.776 843.233,-250.792 858,-232 886.798,-195.352 929.897,-161.75 955.847,-143.155"/>
<polygon fill="midnightblue" stroke="midnightblue" points="958.104,-145.847 964.259,-137.223 954.07,-140.126 958.104,-145.847"/>
</g>
<!-- Node23&#45;&gt;Node3 -->
<g id="edge30" class="edge"><title>Node23&#45;&gt;Node3</title>
<path fill="none" stroke="midnightblue" d="M899.303,-232.92C894.542,-209.947 878.915,-149.003 842,-116 818.665,-95.138 785.498,-83.6744 757.76,-77.4085"/>
<polygon fill="midnightblue" stroke="midnightblue" points="758.32,-73.9499 747.815,-75.3275 756.886,-80.8015 758.32,-73.9499"/>
</g>
<!-- Node23&#45;&gt;Node24 -->
<g id="edge31" class="edge"><title>Node23&#45;&gt;Node24</title>
<path fill="none" stroke="midnightblue" d="M926.411,-232.878C952.438,-223.535 993.087,-208.943 1022.12,-198.522"/>
<polygon fill="midnightblue" stroke="midnightblue" points="1023.63,-201.698 1031.86,-195.025 1021.26,-195.11 1023.63,-201.698"/>
</g>
<!-- Node23&#45;&gt;Node11 -->
<g id="edge46" class="edge"><title>Node23&#45;&gt;Node11</title>
<path fill="none" stroke="midnightblue" d="M879.441,-232.864C831.809,-212.677 717.481,-164.226 662.519,-140.934"/>
<polygon fill="midnightblue" stroke="midnightblue" points="663.861,-137.701 653.288,-137.022 661.13,-144.146 663.861,-137.701"/>
</g>
<!-- Node24&#45;&gt;Node3 -->
<g id="edge32" class="edge"><title>Node24&#45;&gt;Node3</title>
<path fill="none" stroke="midnightblue" d="M1057.37,-174.892C1057.42,-160.099 1055.17,-130.999 1038,-116 997.287,-80.4355 840.783,-72.2642 758.015,-70.4571"/>
<polygon fill="midnightblue" stroke="midnightblue" points="757.881,-66.9539 747.814,-70.2585 757.744,-73.9526 757.881,-66.9539"/>
</g>
<!-- Node24&#45;&gt;Node25 -->
<g id="edge33" class="edge"><title>Node24&#45;&gt;Node25</title>
<path fill="none" stroke="midnightblue" d="M1014.29,-174.94C967.598,-165.036 892.845,-149.179 843.337,-138.677"/>
<polygon fill="midnightblue" stroke="midnightblue" points="843.99,-135.238 833.481,-136.587 842.537,-142.086 843.99,-135.238"/>
</g>
<!-- Node24&#45;&gt;Node26 -->
<g id="edge35" class="edge"><title>Node24&#45;&gt;Node26</title>
<path fill="none" stroke="midnightblue" d="M1100.34,-181.113C1188.82,-174.999 1396.51,-159.522 1570,-138 1571.1,-137.864 1572.21,-137.723 1573.33,-137.578"/>
<polygon fill="midnightblue" stroke="midnightblue" points="1574.09,-141.006 1583.52,-136.179 1573.14,-134.071 1574.09,-141.006"/>
</g>
<!-- Node24&#45;&gt;Node28 -->
<g id="edge39" class="edge"><title>Node24&#45;&gt;Node28</title>
<path fill="none" stroke="midnightblue" d="M1043.95,-174.753C1031.76,-166.109 1013.34,-153.052 999.064,-142.931"/>
<polygon fill="midnightblue" stroke="midnightblue" points="1000.98,-140.003 990.803,-137.075 996.937,-145.714 1000.98,-140.003"/>
</g>
<!-- Node30 -->
<g id="node30" class="node"><title>Node30</title>
<polygon fill="white" stroke="#bfbfbf" points="1408.29,-117 1408.29,-137 1527.71,-137 1527.71,-117 1408.29,-117"/>
<text text-anchor="middle" x="1468" y="-123" font-family="Helvetica,sans-Serif" font-size="10.00">boost/noncopyable.hpp</text>
</g>
<!-- Node24&#45;&gt;Node30 -->
<g id="edge42" class="edge"><title>Node24&#45;&gt;Node30</title>
<path fill="none" stroke="midnightblue" d="M1100.48,-178.297C1163.62,-169.983 1284.65,-153.926 1398.25,-138.093"/>
<polygon fill="midnightblue" stroke="midnightblue" points="1398.75,-141.559 1408.17,-136.71 1397.78,-134.626 1398.75,-141.559"/>
</g>
<!-- Node27 -->
<g id="node27" class="node"><title>Node27</title>
<polygon fill="white" stroke="#bfbfbf" points="1612.77,-59 1612.77,-79 1653.23,-79 1653.23,-59 1612.77,-59"/>
<text text-anchor="middle" x="1633" y="-65" font-family="Helvetica,sans-Serif" font-size="10.00">string</text>
</g>
<!-- Node24&#45;&gt;Node27 -->
<g id="edge43" class="edge"><title>Node24&#45;&gt;Node27</title>
<path fill="none" stroke="midnightblue" d="M1100.62,-182.65C1203.12,-179.024 1456.65,-167.289 1536,-138 1552.51,-131.907 1590.29,-103.571 1613.53,-85.4545"/>
<polygon fill="midnightblue" stroke="midnightblue" points="1615.95,-88.0079 1621.65,-79.0792 1611.62,-82.5025 1615.95,-88.0079"/>
</g>
<!-- Node31 -->
<g id="node31" class="node"><title>Node31</title>
<polygon fill="white" stroke="#bfbfbf" points="1084.57,-117 1084.57,-137 1233.43,-137 1233.43,-117 1084.57,-117"/>
<text text-anchor="middle" x="1159" y="-123" font-family="Helvetica,sans-Serif" font-size="10.00">boost/iostreams/concepts.hpp</text>
</g>
<!-- Node24&#45;&gt;Node31 -->
<g id="edge44" class="edge"><title>Node24&#45;&gt;Node31</title>
<path fill="none" stroke="midnightblue" d="M1073.84,-174.753C1090.11,-165.823 1114.95,-152.185 1133.61,-141.939"/>
<polygon fill="midnightblue" stroke="midnightblue" points="1135.39,-144.956 1142.47,-137.075 1132.02,-138.82 1135.39,-144.956"/>
</g>
<!-- Node32 -->
<g id="node32" class="node"><title>Node32</title>
<polygon fill="white" stroke="#bfbfbf" points="1251.31,-117 1251.31,-137 1390.69,-137 1390.69,-117 1251.31,-117"/>
<text text-anchor="middle" x="1321" y="-123" font-family="Helvetica,sans-Serif" font-size="10.00">boost/iostreams/stream.hpp</text>
</g>
<!-- Node24&#45;&gt;Node32 -->
<g id="edge45" class="edge"><title>Node24&#45;&gt;Node32</title>
<path fill="none" stroke="midnightblue" d="M1099.71,-174.94C1145.72,-165.181 1218.98,-149.642 1268.48,-139.141"/>
<polygon fill="midnightblue" stroke="midnightblue" points="1269.3,-142.546 1278.35,-137.047 1267.84,-135.698 1269.3,-142.546"/>
</g>
<!-- Node25&#45;&gt;Node3 -->
<g id="edge34" class="edge"><title>Node25&#45;&gt;Node3</title>
<path fill="none" stroke="midnightblue" d="M778.634,-116.753C765.078,-108.027 744.536,-94.8051 728.753,-84.6458"/>
<polygon fill="midnightblue" stroke="midnightblue" points="730.402,-81.5447 720.099,-79.0752 726.613,-87.4307 730.402,-81.5447"/>
</g>
<!-- Node26&#45;&gt;Node3 -->
<g id="edge36" class="edge"><title>Node26&#45;&gt;Node3</title>
<path fill="none" stroke="midnightblue" d="M1583.69,-120.46C1568.42,-118.867 1551.53,-117.23 1536,-116 1383.67,-103.934 915.436,-80.3547 758.149,-72.5655"/>
<polygon fill="midnightblue" stroke="midnightblue" points="757.967,-69.0523 747.807,-72.0539 757.622,-76.0438 757.967,-69.0523"/>
</g>
<!-- Node26&#45;&gt;Node19 -->
<g id="edge37" class="edge"><title>Node26&#45;&gt;Node19</title>
<path fill="none" stroke="midnightblue" d="M1651.73,-116.878C1670.28,-107.847 1698.89,-93.9132 1720.11,-83.5812"/>
<polygon fill="midnightblue" stroke="midnightblue" points="1721.82,-86.643 1729.28,-79.1181 1718.75,-80.3495 1721.82,-86.643"/>
</g>
<!-- Node26&#45;&gt;Node27 -->
<g id="edge38" class="edge"><title>Node26&#45;&gt;Node27</title>
<path fill="none" stroke="midnightblue" d="M1633,-116.753C1633,-109.25 1633,-98.4238 1633,-89.0781"/>
<polygon fill="midnightblue" stroke="midnightblue" points="1636.5,-89.0752 1633,-79.0752 1629.5,-89.0752 1636.5,-89.0752"/>
</g>
<!-- Node28&#45;&gt;Node3 -->
<g id="edge40" class="edge"><title>Node28&#45;&gt;Node3</title>
<path fill="none" stroke="midnightblue" d="M933.996,-116.94C885.789,-107.015 808.549,-91.113 757.543,-80.6118"/>
<polygon fill="midnightblue" stroke="midnightblue" points="758.208,-77.1754 747.708,-78.5869 756.797,-84.0316 758.208,-77.1754"/>
</g>
<!-- Node29 -->
<g id="node29" class="node"><title>Node29</title>
<polygon fill="white" stroke="#bfbfbf" points="924.421,-59 924.421,-79 1031.58,-79 1031.58,-59 924.421,-59"/>
<text text-anchor="middle" x="978" y="-65" font-family="Helvetica,sans-Serif" font-size="10.00">boost/filesystem.hpp</text>
</g>
<!-- Node28&#45;&gt;Node29 -->
<g id="edge41" class="edge"><title>Node28&#45;&gt;Node29</title>
<path fill="none" stroke="midnightblue" d="M978,-116.753C978,-109.25 978,-98.4238 978,-89.0781"/>
<polygon fill="midnightblue" stroke="midnightblue" points="981.5,-89.0752 978,-79.0752 974.5,-89.0752 981.5,-89.0752"/>
</g>
<!-- Node33&#45;&gt;Node3 -->
<g id="edge51" class="edge"><title>Node33&#45;&gt;Node3</title>
<path fill="none" stroke="midnightblue" d="M961.102,-290.882C954.26,-260.471 927.866,-161.858 865,-116 833.546,-93.0558 790.851,-81.5132 757.623,-75.7304"/>
<polygon fill="midnightblue" stroke="midnightblue" points="758.068,-72.2571 747.638,-74.1144 756.95,-79.1672 758.068,-72.2571"/>
</g>
<!-- Node33&#45;&gt;Node23 -->
<g id="edge52" class="edge"><title>Node33&#45;&gt;Node23</title>
<path fill="none" stroke="midnightblue" d="M952.762,-290.753C943.463,-282.353 929.55,-269.787 918.49,-259.798"/>
<polygon fill="midnightblue" stroke="midnightblue" points="920.815,-257.181 911.048,-253.075 916.123,-262.375 920.815,-257.181"/>
</g>
<!-- Node33&#45;&gt;Node24 -->
<g id="edge53" class="edge"><title>Node33&#45;&gt;Node24</title>
<path fill="none" stroke="midnightblue" d="M978.947,-290.94C992.341,-282.694 1011.28,-269.469 1024,-254 1036.09,-239.301 1045.07,-219.432 1050.59,-204.968"/>
<polygon fill="midnightblue" stroke="midnightblue" points="1054.03,-205.731 1054.12,-195.137 1047.45,-203.362 1054.03,-205.731"/>
</g>
<!-- Node33&#45;&gt;Node27 -->
<g id="edge54" class="edge"><title>Node33&#45;&gt;Node27</title>
<path fill="none" stroke="midnightblue" d="M1014.65,-296.621C1166.4,-285.518 1605.54,-244.568 1691,-138 1706.19,-119.062 1681.15,-97.8754 1659.38,-84.2609"/>
<polygon fill="midnightblue" stroke="midnightblue" points="1661.07,-81.1918 1650.68,-79.0905 1657.49,-87.2089 1661.07,-81.1918"/>
</g>
<!-- Node34&#45;&gt;Node3 -->
<g id="edge56" class="edge"><title>Node34&#45;&gt;Node3</title>
<path fill="none" stroke="midnightblue" d="M563.397,-348.955C585.545,-342.172 611.735,-330.736 629,-312 689.191,-246.68 702.333,-134.295 705.2,-89.3759"/>
<polygon fill="midnightblue" stroke="midnightblue" points="708.703,-89.4267 705.74,-79.2546 701.712,-89.054 708.703,-89.4267"/>
</g>
<!-- Node34&#45;&gt;Node7 -->
<g id="edge57" class="edge"><title>Node34&#45;&gt;Node7</title>
<path fill="none" stroke="midnightblue" d="M515.406,-348.674C509.526,-339.744 501.346,-325.648 498,-312 493.929,-295.395 498.667,-276.315 503.702,-262.6"/>
<polygon fill="midnightblue" stroke="midnightblue" points="506.964,-263.871 507.47,-253.288 500.475,-261.245 506.964,-263.871"/>
</g>
<!-- Node34&#45;&gt;Node2 -->
<g id="edge58" class="edge"><title>Node34&#45;&gt;Node2</title>
<path fill="none" stroke="midnightblue" d="M479.614,-348.94C433.953,-339.181 361.252,-323.642 312.126,-313.141"/>
<polygon fill="midnightblue" stroke="midnightblue" points="312.836,-309.714 302.325,-311.047 311.373,-316.56 312.836,-309.714"/>
</g>
<!-- Node34&#45;&gt;Node20 -->
<g id="edge59" class="edge"><title>Node34&#45;&gt;Node20</title>
<path fill="none" stroke="midnightblue" d="M506.587,-348.82C478.243,-331.663 416.408,-292.933 369,-254 349.443,-237.939 329.038,-217.266 315.539,-202.952"/>
<polygon fill="midnightblue" stroke="midnightblue" points="317.825,-200.271 308.447,-195.341 312.704,-205.043 317.825,-200.271"/>
</g>
<!-- Node35 -->
<g id="node35" class="node"><title>Node35</title>
<g id="a_node35"><a xlink:href="_color_8h.html" target="_top" xlink:title="cinder/Color.h">
<polygon fill="white" stroke="black" points="378.148,-233 378.148,-253 455.852,-253 455.852,-233 378.148,-233"/>
<text text-anchor="middle" x="417" y="-239" font-family="Helvetica,sans-Serif" font-size="10.00">cinder/Color.h</text>
</a>
</g>
</g>
<!-- Node34&#45;&gt;Node35 -->
<g id="edge60" class="edge"><title>Node34&#45;&gt;Node35</title>
<path fill="none" stroke="midnightblue" d="M513.407,-348.671C495.63,-329.369 454.606,-284.83 432.231,-260.536"/>
<polygon fill="midnightblue" stroke="midnightblue" points="434.767,-258.124 425.418,-253.139 429.618,-262.866 434.767,-258.124"/>
</g>
<!-- Node34&#45;&gt;Node28 -->
<g id="edge65" class="edge"><title>Node34&#45;&gt;Node28</title>
<path fill="none" stroke="midnightblue" d="M557.345,-348.961C586.402,-340.946 628.288,-328.036 663,-312 769.496,-262.803 785.694,-231.405 888,-174 908.401,-162.553 931.961,-150.554 949.857,-141.681"/>
<polygon fill="midnightblue" stroke="midnightblue" points="951.737,-144.657 959.161,-137.098 948.643,-138.378 951.737,-144.657"/>
</g>
<!-- Node36 -->
<g id="node36" class="node"><title>Node36</title>
<polygon fill="white" stroke="#bfbfbf" points="507.357,-291 507.357,-311 620.643,-311 620.643,-291 507.357,-291"/>
<text text-anchor="middle" x="564" y="-297" font-family="Helvetica,sans-Serif" font-size="10.00">boost/logic/tribool.hpp</text>
</g>
<!-- Node34&#45;&gt;Node36 -->
<g id="edge66" class="edge"><title>Node34&#45;&gt;Node36</title>
<path fill="none" stroke="midnightblue" d="M528.935,-348.753C534.929,-340.761 543.752,-328.998 551.048,-319.27"/>
<polygon fill="midnightblue" stroke="midnightblue" points="553.994,-321.175 557.194,-311.075 548.394,-316.975 553.994,-321.175"/>
</g>
<!-- Node35&#45;&gt;Node3 -->
<g id="edge61" class="edge"><title>Node35&#45;&gt;Node3</title>
<path fill="none" stroke="midnightblue" d="M455.647,-232.982C480.372,-225.856 512.161,-214.05 536,-196 571.433,-169.171 560.935,-143.309 596,-116 615.615,-100.724 641.037,-89.6564 662.5,-82.2111"/>
<polygon fill="midnightblue" stroke="midnightblue" points="663.659,-85.5144 672.047,-79.0431 661.454,-78.8705 663.659,-85.5144"/>
</g>
<!-- Node35&#45;&gt;Node20 -->
<g id="edge62" class="edge"><title>Node35&#45;&gt;Node20</title>
<path fill="none" stroke="midnightblue" d="M397.942,-232.878C378.989,-223.807 349.699,-209.788 328.084,-199.442"/>
<polygon fill="midnightblue" stroke="midnightblue" points="329.581,-196.278 319.05,-195.118 326.559,-202.592 329.581,-196.278"/>
</g>
<!-- Node35&#45;&gt;Node8 -->
<g id="edge63" class="edge"><title>Node35&#45;&gt;Node8</title>
<path fill="none" stroke="midnightblue" d="M428.394,-232.753C438.844,-224.272 454.527,-211.543 466.893,-201.507"/>
<polygon fill="midnightblue" stroke="midnightblue" points="469.259,-204.095 474.818,-195.075 464.848,-198.659 469.259,-204.095"/>
</g>
<!-- Node35&#45;&gt;Node14 -->
<g id="edge64" class="edge"><title>Node35&#45;&gt;Node14</title>
<path fill="none" stroke="midnightblue" d="M412.107,-232.748C403.65,-217.748 384.796,-188.356 360,-174 327.67,-155.282 230.656,-141.65 165.246,-134.281"/>
<polygon fill="midnightblue" stroke="midnightblue" points="165.359,-130.772 155.035,-133.152 164.589,-137.73 165.359,-130.772"/>
</g>
</g>
</svg>
