<?xml version="1.0" encoding="UTF-8" standalone="no"?>
<!DOCTYPE svg PUBLIC "-//W3C//DTD SVG 1.1//EN"
 "http://www.w3.org/Graphics/SVG/1.1/DTD/svg11.dtd">
<!-- Generated by graphviz version 2.30.1 (20140712.1814)
 -->
<!-- Title: include/cinder/audio/ChannelRouterNode.h Pages: 1 -->
<svg width="134pt" height="112pt"
 viewBox="0.00 0.00 134.00 112.00" xmlns="http://www.w3.org/2000/svg" xmlns:xlink="http://www.w3.org/1999/xlink">
<g id="graph0" class="graph" transform="scale(1 1) rotate(0) translate(4 108)">
<title>include/cinder/audio/ChannelRouterNode.h</title>
<polygon fill="white" stroke="white" points="-4,5 -4,-108 131,-108 131,5 -4,5"/>
<!-- Node1 -->
<g id="node1" class="node"><title>Node1</title>
<polygon fill="#bfbfbf" stroke="black" points="3.85498,-71 3.85498,-103 122.145,-103 122.145,-71 3.85498,-71"/>
<text text-anchor="start" x="11.855" y="-89" font-family="Helvetica,sans-Serif" font-size="10.00">include/cinder/audio</text>
<text text-anchor="middle" x="63" y="-77" font-family="Helvetica,sans-Serif" font-size="10.00">/ChannelRouterNode.h</text>
</g>
<!-- Node2 -->
<g id="node2" class="node"><title>Node2</title>
<g id="a_node2"><a xlink:href="_channel_router_node_8cpp.html" target="_top" xlink:title="src/cinder/audio/Channel\lRouterNode.cpp">
<polygon fill="white" stroke="black" points="-0.310059,-1 -0.310059,-33 126.31,-33 126.31,-1 -0.310059,-1"/>
<text text-anchor="start" x="7.68994" y="-19" font-family="Helvetica,sans-Serif" font-size="10.00">src/cinder/audio/Channel</text>
<text text-anchor="middle" x="63" y="-7" font-family="Helvetica,sans-Serif" font-size="10.00">RouterNode.cpp</text>
</a>
</g>
</g>
<!-- Node1&#45;&gt;Node2 -->
<g id="edge1" class="edge"><title>Node1&#45;&gt;Node2</title>
<path fill="none" stroke="midnightblue" d="M63,-60.6174C63,-51.3378 63,-41.1413 63,-33.0492"/>
<polygon fill="midnightblue" stroke="midnightblue" points="59.5001,-60.9086 63,-70.9086 66.5001,-60.9086 59.5001,-60.9086"/>
</g>
</g>
</svg>
