<?xml version="1.0" encoding="UTF-8" standalone="no"?>
<!DOCTYPE svg PUBLIC "-//W3C//DTD SVG 1.1//EN"
 "http://www.w3.org/Graphics/SVG/1.1/DTD/svg11.dtd">
<!-- Generated by graphviz version 2.30.1 (20140712.1814)
 -->
<!-- Title: include/cinder/cocoa/CinderCocoaTouch.h Pages: 1 -->
<svg width="441pt" height="252pt"
 viewBox="0.00 0.00 441.00 252.00" xmlns="http://www.w3.org/2000/svg" xmlns:xlink="http://www.w3.org/1999/xlink">
<g id="graph0" class="graph" transform="scale(1 1) rotate(0) translate(4 248)">
<title>include/cinder/cocoa/CinderCocoaTouch.h</title>
<polygon fill="white" stroke="white" points="-4,5 -4,-248 438,-248 438,5 -4,5"/>
<!-- Node1 -->
<g id="node1" class="node"><title>Node1</title>
<polygon fill="#bfbfbf" stroke="black" points="199.917,-211 199.917,-243 312.083,-243 312.083,-211 199.917,-211"/>
<text text-anchor="start" x="207.917" y="-229" font-family="Helvetica,sans-Serif" font-size="10.00">include/cinder/cocoa</text>
<text text-anchor="middle" x="256" y="-217" font-family="Helvetica,sans-Serif" font-size="10.00">/CinderCocoaTouch.h</text>
</g>
<!-- Node2 -->
<g id="node2" class="node"><title>Node2</title>
<g id="a_node2"><a xlink:href="_app_cocoa_touch_8h.html" target="_top" xlink:title="include/cinder/app\l/AppCocoaTouch.h">
<polygon fill="white" stroke="black" points="127.749,-141 127.749,-173 228.251,-173 228.251,-141 127.749,-141"/>
<text text-anchor="start" x="135.749" y="-159" font-family="Helvetica,sans-Serif" font-size="10.00">include/cinder/app</text>
<text text-anchor="middle" x="178" y="-147" font-family="Helvetica,sans-Serif" font-size="10.00">/AppCocoaTouch.h</text>
</a>
</g>
</g>
<!-- Node1&#45;&gt;Node2 -->
<g id="edge1" class="edge"><title>Node1&#45;&gt;Node2</title>
<path fill="none" stroke="midnightblue" d="M230.988,-204.195C219.333,-194.034 205.755,-182.197 195.262,-173.049"/>
<polygon fill="midnightblue" stroke="midnightblue" points="228.852,-206.975 238.689,-210.909 233.452,-201.699 228.852,-206.975"/>
</g>
<!-- Node4 -->
<g id="node4" class="node"><title>Node4</title>
<g id="a_node4"><a xlink:href="_app_cocoa_touch_8mm.html" target="_top" xlink:title="src/cinder/app/AppCocoaTouch.mm">
<polygon fill="white" stroke="black" points="149.796,-7 149.796,-27 324.204,-27 324.204,-7 149.796,-7"/>
<text text-anchor="middle" x="237" y="-13" font-family="Helvetica,sans-Serif" font-size="10.00">src/cinder/app/AppCocoaTouch.mm</text>
</a>
</g>
</g>
<!-- Node1&#45;&gt;Node4 -->
<g id="edge6" class="edge"><title>Node1&#45;&gt;Node4</title>
<path fill="none" stroke="midnightblue" d="M253.675,-200.552C249.429,-154.065 240.6,-57.4157 237.842,-27.2196"/>
<polygon fill="midnightblue" stroke="midnightblue" points="250.208,-201.065 254.603,-210.705 257.179,-200.428 250.208,-201.065"/>
</g>
<!-- Node6 -->
<g id="node6" class="node"><title>Node6</title>
<g id="a_node6"><a xlink:href="_cinder_cocoa_touch_8mm.html" target="_top" xlink:title="src/cinder/cocoa/CinderCocoa\lTouch.mm">
<polygon fill="white" stroke="black" points="284.025,-141 284.025,-173 433.975,-173 433.975,-141 284.025,-141"/>
<text text-anchor="start" x="292.025" y="-159" font-family="Helvetica,sans-Serif" font-size="10.00">src/cinder/cocoa/CinderCocoa</text>
<text text-anchor="middle" x="359" y="-147" font-family="Helvetica,sans-Serif" font-size="10.00">Touch.mm</text>
</a>
</g>
</g>
<!-- Node1&#45;&gt;Node6 -->
<g id="edge7" class="edge"><title>Node1&#45;&gt;Node6</title>
<path fill="none" stroke="midnightblue" d="M287.264,-205.36C303.035,-194.948 321.816,-182.549 336.205,-173.049"/>
<polygon fill="midnightblue" stroke="midnightblue" points="285.276,-202.478 278.859,-210.909 289.133,-208.32 285.276,-202.478"/>
</g>
<!-- Node3 -->
<g id="node3" class="node"><title>Node3</title>
<g id="a_node3"><a xlink:href="_cinder_view_cocoa_touch_8h.html" target="_top" xlink:title="include/cinder/app\l/CinderViewCocoaTouch.h">
<polygon fill="white" stroke="black" points="56.167,-71 56.167,-103 189.833,-103 189.833,-71 56.167,-71"/>
<text text-anchor="start" x="64.167" y="-89" font-family="Helvetica,sans-Serif" font-size="10.00">include/cinder/app</text>
<text text-anchor="middle" x="123" y="-77" font-family="Helvetica,sans-Serif" font-size="10.00">/CinderViewCocoaTouch.h</text>
</a>
</g>
</g>
<!-- Node2&#45;&gt;Node3 -->
<g id="edge2" class="edge"><title>Node2&#45;&gt;Node3</title>
<path fill="none" stroke="midnightblue" d="M159.409,-133.015C151.412,-123.127 142.286,-111.845 135.172,-103.049"/>
<polygon fill="midnightblue" stroke="midnightblue" points="156.784,-135.335 165.794,-140.909 162.226,-130.932 156.784,-135.335"/>
</g>
<!-- Node2&#45;&gt;Node4 -->
<g id="edge5" class="edge"><title>Node2&#45;&gt;Node4</title>
<path fill="none" stroke="midnightblue" d="M188.389,-131.701C201.662,-100.656 223.996,-48.4165 233.03,-27.2865"/>
<polygon fill="midnightblue" stroke="midnightblue" points="185.139,-130.398 184.426,-140.969 191.576,-133.15 185.139,-130.398"/>
</g>
<!-- Node3&#45;&gt;Node4 -->
<g id="edge3" class="edge"><title>Node3&#45;&gt;Node4</title>
<path fill="none" stroke="midnightblue" d="M157.172,-65.6165C178.725,-52.7605 205.494,-36.7932 221.906,-27.0035"/>
<polygon fill="midnightblue" stroke="midnightblue" points="155.096,-62.7799 148.3,-70.9086 158.681,-68.7916 155.096,-62.7799"/>
</g>
<!-- Node5 -->
<g id="node5" class="node"><title>Node5</title>
<g id="a_node5"><a xlink:href="_cinder_view_cocoa_touch_8mm.html" target="_top" xlink:title="src/cinder/app/CinderView\lCocoaTouch.mm">
<polygon fill="white" stroke="black" points="-0.271484,-1 -0.271484,-33 132.271,-33 132.271,-1 -0.271484,-1"/>
<text text-anchor="start" x="7.72852" y="-19" font-family="Helvetica,sans-Serif" font-size="10.00">src/cinder/app/CinderView</text>
<text text-anchor="middle" x="66" y="-7" font-family="Helvetica,sans-Serif" font-size="10.00">CocoaTouch.mm</text>
</a>
</g>
</g>
<!-- Node3&#45;&gt;Node5 -->
<g id="edge4" class="edge"><title>Node3&#45;&gt;Node5</title>
<path fill="none" stroke="midnightblue" d="M103.733,-63.0153C95.4447,-53.127 85.9877,-41.845 78.6148,-33.0492"/>
<polygon fill="midnightblue" stroke="midnightblue" points="101.244,-65.4933 110.35,-70.9086 106.608,-60.9965 101.244,-65.4933"/>
</g>
</g>
</svg>
