<?xml version="1.0" encoding="UTF-8" standalone="no"?>
<!DOCTYPE svg PUBLIC "-//W3C//DTD SVG 1.1//EN"
 "http://www.w3.org/Graphics/SVG/1.1/DTD/svg11.dtd">
<!-- Generated by graphviz version 2.30.1 (20140712.1814)
 -->
<!-- Title: include/cinder/cocoa/CinderCocoa.h Pages: 1 -->
<svg width="2169pt" height="182pt"
 viewBox="0.00 0.00 2169.00 182.00" xmlns="http://www.w3.org/2000/svg" xmlns:xlink="http://www.w3.org/1999/xlink">
<g id="graph0" class="graph" transform="scale(1 1) rotate(0) translate(4 178)">
<title>include/cinder/cocoa/CinderCocoa.h</title>
<polygon fill="white" stroke="white" points="-4,5 -4,-178 2166,-178 2166,5 -4,5"/>
<!-- Node1 -->
<g id="node1" class="node"><title>Node1</title>
<polygon fill="#bfbfbf" stroke="black" points="1056.42,-141 1056.42,-173 1163.58,-173 1163.58,-141 1056.42,-141"/>
<text text-anchor="start" x="1064.42" y="-159" font-family="Helvetica,sans-Serif" font-size="10.00">include/cinder/cocoa</text>
<text text-anchor="middle" x="1110" y="-147" font-family="Helvetica,sans-Serif" font-size="10.00">/CinderCocoa.h</text>
</g>
<!-- Node2 -->
<g id="node2" class="node"><title>Node2</title>
<g id="a_node2"><a xlink:href="_image_source_file_quartz_8h.html" target="_top" xlink:title="include/cinder/ImageSource\lFileQuartz.h">
<polygon fill="white" stroke="black" points="-0.97998,-71 -0.97998,-103 138.98,-103 138.98,-71 -0.97998,-71"/>
<text text-anchor="start" x="7.02002" y="-89" font-family="Helvetica,sans-Serif" font-size="10.00">include/cinder/ImageSource</text>
<text text-anchor="middle" x="69" y="-77" font-family="Helvetica,sans-Serif" font-size="10.00">FileQuartz.h</text>
</a>
</g>
</g>
<!-- Node1&#45;&gt;Node2 -->
<g id="edge1" class="edge"><title>Node1&#45;&gt;Node2</title>
<path fill="none" stroke="midnightblue" d="M1046.12,-155.479C891.977,-153.579 487.625,-144.774 153,-104 148.432,-103.443 143.738,-102.787 139.016,-102.063"/>
<polygon fill="midnightblue" stroke="midnightblue" points="1046.3,-158.981 1056.35,-155.599 1046.39,-151.981 1046.3,-158.981"/>
</g>
<!-- Node4 -->
<g id="node4" class="node"><title>Node4</title>
<g id="a_node4"><a xlink:href="_image_target_file_quartz_8h.html" target="_top" xlink:title="include/cinder/ImageTarget\lFileQuartz.h">
<polygon fill="white" stroke="black" points="2024.97,-71 2024.97,-103 2161.03,-103 2161.03,-71 2024.97,-71"/>
<text text-anchor="start" x="2032.97" y="-89" font-family="Helvetica,sans-Serif" font-size="10.00">include/cinder/ImageTarget</text>
<text text-anchor="middle" x="2093" y="-77" font-family="Helvetica,sans-Serif" font-size="10.00">FileQuartz.h</text>
</a>
</g>
</g>
<!-- Node1&#45;&gt;Node4 -->
<g id="edge3" class="edge"><title>Node1&#45;&gt;Node4</title>
<path fill="none" stroke="midnightblue" d="M1174.05,-155.269C1322.02,-152.933 1698.83,-143.281 2011,-104 2015.46,-103.439 2020.04,-102.779 2024.65,-102.052"/>
<polygon fill="midnightblue" stroke="midnightblue" points="1173.75,-151.773 1163.8,-155.424 1173.85,-158.772 1173.75,-151.773"/>
</g>
<!-- Node6 -->
<g id="node6" class="node"><title>Node6</title>
<g id="a_node6"><a xlink:href="_app_impl_cocoa_basic_8mm.html" target="_top" xlink:title="src/cinder/app/AppImplCocoa\lBasic.mm">
<polygon fill="white" stroke="black" points="195.412,-71 195.412,-103 342.588,-103 342.588,-71 195.412,-71"/>
<text text-anchor="start" x="203.412" y="-89" font-family="Helvetica,sans-Serif" font-size="10.00">src/cinder/app/AppImplCocoa</text>
<text text-anchor="middle" x="269" y="-77" font-family="Helvetica,sans-Serif" font-size="10.00">Basic.mm</text>
</a>
</g>
</g>
<!-- Node1&#45;&gt;Node6 -->
<g id="edge5" class="edge"><title>Node1&#45;&gt;Node6</title>
<path fill="none" stroke="midnightblue" d="M1046.16,-154.305C915.284,-150.24 607.281,-137.649 351,-104 348.268,-103.641 345.489,-103.248 342.686,-102.826"/>
<polygon fill="midnightblue" stroke="midnightblue" points="1046.3,-157.81 1056.4,-154.616 1046.51,-150.814 1046.3,-157.81"/>
</g>
<!-- Node7 -->
<g id="node7" class="node"><title>Node7</title>
<g id="a_node7"><a xlink:href="_app_impl_cocoa_touch_renderer_quartz_8mm.html" target="_top" xlink:title="src/cinder/app/AppImplCocoa\lTouchRendererQuartz.mm">
<polygon fill="white" stroke="black" points="360.412,-71 360.412,-103 507.588,-103 507.588,-71 360.412,-71"/>
<text text-anchor="start" x="368.412" y="-89" font-family="Helvetica,sans-Serif" font-size="10.00">src/cinder/app/AppImplCocoa</text>
<text text-anchor="middle" x="434" y="-77" font-family="Helvetica,sans-Serif" font-size="10.00">TouchRendererQuartz.mm</text>
</a>
</g>
</g>
<!-- Node1&#45;&gt;Node7 -->
<g id="edge6" class="edge"><title>Node1&#45;&gt;Node7</title>
<path fill="none" stroke="midnightblue" d="M1045.95,-152.612C936.796,-146.344 707.903,-131.045 516,-104 513.271,-103.615 510.496,-103.2 507.695,-102.76"/>
<polygon fill="midnightblue" stroke="midnightblue" points="1045.95,-156.118 1056.13,-153.191 1046.35,-149.129 1045.95,-156.118"/>
</g>
<!-- Node8 -->
<g id="node8" class="node"><title>Node8</title>
<g id="a_node8"><a xlink:href="_cinder_view_8mm.html" target="_top" xlink:title="src/cinder/app/CinderView.mm">
<polygon fill="white" stroke="black" points="525.283,-77 525.283,-97 676.717,-97 676.717,-77 525.283,-77"/>
<text text-anchor="middle" x="601" y="-83" font-family="Helvetica,sans-Serif" font-size="10.00">src/cinder/app/CinderView.mm</text>
</a>
</g>
</g>
<!-- Node1&#45;&gt;Node8 -->
<g id="edge7" class="edge"><title>Node1&#45;&gt;Node8</title>
<path fill="none" stroke="midnightblue" d="M1046.26,-149.469C963.141,-140.659 813.334,-123.772 686,-104 672.942,-101.972 658.818,-99.4482 645.903,-97.0084"/>
<polygon fill="midnightblue" stroke="midnightblue" points="1045.99,-152.96 1056.3,-150.529 1046.72,-145.999 1045.99,-152.96"/>
</g>
<!-- Node9 -->
<g id="node9" class="node"><title>Node9</title>
<g id="a_node9"><a xlink:href="_cinder_view_cocoa_touch_8mm.html" target="_top" xlink:title="src/cinder/app/CinderView\lCocoaTouch.mm">
<polygon fill="white" stroke="black" points="694.729,-71 694.729,-103 827.271,-103 827.271,-71 694.729,-71"/>
<text text-anchor="start" x="702.729" y="-89" font-family="Helvetica,sans-Serif" font-size="10.00">src/cinder/app/CinderView</text>
<text text-anchor="middle" x="761" y="-77" font-family="Helvetica,sans-Serif" font-size="10.00">CocoaTouch.mm</text>
</a>
</g>
</g>
<!-- Node1&#45;&gt;Node9 -->
<g id="edge8" class="edge"><title>Node1&#45;&gt;Node9</title>
<path fill="none" stroke="midnightblue" d="M1046.32,-144.337C990.74,-134.056 907.94,-118.498 836,-104 833.259,-103.448 830.463,-102.878 827.64,-102.298"/>
<polygon fill="midnightblue" stroke="midnightblue" points="1045.91,-147.82 1056.38,-146.194 1047.18,-140.936 1045.91,-147.82"/>
</g>
<!-- Node10 -->
<g id="node10" class="node"><title>Node10</title>
<g id="a_node10"><a xlink:href="_device_manager_audio_session_8mm.html" target="_top" xlink:title="src/cinder/audio/cocoa\l/DeviceManagerAudioSession.mm">
<polygon fill="white" stroke="black" points="845.298,-71 845.298,-103 1014.7,-103 1014.7,-71 845.298,-71"/>
<text text-anchor="start" x="853.298" y="-89" font-family="Helvetica,sans-Serif" font-size="10.00">src/cinder/audio/cocoa</text>
<text text-anchor="middle" x="930" y="-77" font-family="Helvetica,sans-Serif" font-size="10.00">/DeviceManagerAudioSession.mm</text>
</a>
</g>
</g>
<!-- Node1&#45;&gt;Node10 -->
<g id="edge9" class="edge"><title>Node1&#45;&gt;Node10</title>
<path fill="none" stroke="midnightblue" d="M1060.65,-137.358C1032.09,-126.568 996.612,-113.164 969.836,-103.049"/>
<polygon fill="midnightblue" stroke="midnightblue" points="1059.46,-140.649 1070.05,-140.909 1061.93,-134.1 1059.46,-140.649"/>
</g>
<!-- Node11 -->
<g id="node11" class="node"><title>Node11</title>
<g id="a_node11"><a xlink:href="_device_manager_core_audio_8cpp.html" target="_top" xlink:title="src/cinder/audio/cocoa\l/DeviceManagerCoreAudio.cpp">
<polygon fill="white" stroke="black" points="1032.52,-71 1032.52,-103 1187.48,-103 1187.48,-71 1032.52,-71"/>
<text text-anchor="start" x="1040.52" y="-89" font-family="Helvetica,sans-Serif" font-size="10.00">src/cinder/audio/cocoa</text>
<text text-anchor="middle" x="1110" y="-77" font-family="Helvetica,sans-Serif" font-size="10.00">/DeviceManagerCoreAudio.cpp</text>
</a>
</g>
</g>
<!-- Node1&#45;&gt;Node11 -->
<g id="edge10" class="edge"><title>Node1&#45;&gt;Node11</title>
<path fill="none" stroke="midnightblue" d="M1110,-130.617C1110,-121.338 1110,-111.141 1110,-103.049"/>
<polygon fill="midnightblue" stroke="midnightblue" points="1106.5,-130.909 1110,-140.909 1113.5,-130.909 1106.5,-130.909"/>
</g>
<!-- Node12 -->
<g id="node12" class="node"><title>Node12</title>
<g id="a_node12"><a xlink:href="_file_core_audio_8cpp.html" target="_top" xlink:title="src/cinder/audio/cocoa\l/FileCoreAudio.cpp">
<polygon fill="white" stroke="black" points="1205.97,-71 1205.97,-103 1322.03,-103 1322.03,-71 1205.97,-71"/>
<text text-anchor="start" x="1213.97" y="-89" font-family="Helvetica,sans-Serif" font-size="10.00">src/cinder/audio/cocoa</text>
<text text-anchor="middle" x="1264" y="-77" font-family="Helvetica,sans-Serif" font-size="10.00">/FileCoreAudio.cpp</text>
</a>
</g>
</g>
<!-- Node1&#45;&gt;Node12 -->
<g id="edge11" class="edge"><title>Node1&#45;&gt;Node12</title>
<path fill="none" stroke="midnightblue" d="M1153.5,-136.793C1177.71,-126.102 1207.41,-112.988 1229.92,-103.049"/>
<polygon fill="midnightblue" stroke="midnightblue" points="1151.91,-133.667 1144.18,-140.909 1154.74,-140.071 1151.91,-133.667"/>
</g>
<!-- Node13 -->
<g id="node13" class="node"><title>Node13</title>
<g id="a_node13"><a xlink:href="_capture_impl_av_foundation_8mm.html" target="_top" xlink:title="src/cinder/CaptureImplAv\lFoundation.mm">
<polygon fill="white" stroke="black" points="1339.96,-71 1339.96,-103 1468.04,-103 1468.04,-71 1339.96,-71"/>
<text text-anchor="start" x="1347.96" y="-89" font-family="Helvetica,sans-Serif" font-size="10.00">src/cinder/CaptureImplAv</text>
<text text-anchor="middle" x="1404" y="-77" font-family="Helvetica,sans-Serif" font-size="10.00">Foundation.mm</text>
</a>
</g>
</g>
<!-- Node1&#45;&gt;Node13 -->
<g id="edge12" class="edge"><title>Node1&#45;&gt;Node13</title>
<path fill="none" stroke="midnightblue" d="M1173.81,-141.241C1222.99,-129.867 1290.68,-114.211 1339.92,-102.821"/>
<polygon fill="midnightblue" stroke="midnightblue" points="1172.88,-137.864 1163.92,-143.528 1174.46,-144.684 1172.88,-137.864"/>
</g>
<!-- Node14 -->
<g id="node14" class="node"><title>Node14</title>
<g id="a_node14"><a xlink:href="_capture_impl_qt_kit_8mm.html" target="_top" xlink:title="src/cinder/CaptureImplQt\lKit.mm">
<polygon fill="white" stroke="black" points="1486.43,-71 1486.43,-103 1613.57,-103 1613.57,-71 1486.43,-71"/>
<text text-anchor="start" x="1494.43" y="-89" font-family="Helvetica,sans-Serif" font-size="10.00">src/cinder/CaptureImplQt</text>
<text text-anchor="middle" x="1550" y="-77" font-family="Helvetica,sans-Serif" font-size="10.00">Kit.mm</text>
</a>
</g>
</g>
<!-- Node1&#45;&gt;Node14 -->
<g id="edge13" class="edge"><title>Node1&#45;&gt;Node14</title>
<path fill="none" stroke="midnightblue" d="M1173.7,-148.447C1247.08,-139.406 1371.15,-123.072 1477,-104 1480.06,-103.448 1483.2,-102.859 1486.36,-102.244"/>
<polygon fill="midnightblue" stroke="midnightblue" points="1173.19,-144.983 1163.69,-149.674 1174.04,-151.931 1173.19,-144.983"/>
</g>
<!-- Node15 -->
<g id="node15" class="node"><title>Node15</title>
<g id="a_node15"><a xlink:href="_cinder_cocoa_8mm.html" target="_top" xlink:title="src/cinder/cocoa/CinderCocoa.mm">
<polygon fill="white" stroke="black" points="1631.31,-77 1631.31,-97 1800.69,-97 1800.69,-77 1631.31,-77"/>
<text text-anchor="middle" x="1716" y="-83" font-family="Helvetica,sans-Serif" font-size="10.00">src/cinder/cocoa/CinderCocoa.mm</text>
</a>
</g>
</g>
<!-- Node1&#45;&gt;Node15 -->
<g id="edge14" class="edge"><title>Node1&#45;&gt;Node15</title>
<path fill="none" stroke="midnightblue" d="M1174.2,-150.878C1271.34,-142.812 1461.41,-125.797 1622,-104 1636.6,-102.018 1652.41,-99.4808 1666.82,-97.0133"/>
<polygon fill="midnightblue" stroke="midnightblue" points="1173.63,-147.413 1163.95,-151.724 1174.21,-154.389 1173.63,-147.413"/>
</g>
<!-- Node16 -->
<g id="node16" class="node"><title>Node16</title>
<g id="a_node16"><a xlink:href="_cinder_cocoa_touch_8mm.html" target="_top" xlink:title="src/cinder/cocoa/CinderCocoa\lTouch.mm">
<polygon fill="white" stroke="black" points="1819.02,-71 1819.02,-103 1968.98,-103 1968.98,-71 1819.02,-71"/>
<text text-anchor="start" x="1827.02" y="-89" font-family="Helvetica,sans-Serif" font-size="10.00">src/cinder/cocoa/CinderCocoa</text>
<text text-anchor="middle" x="1894" y="-77" font-family="Helvetica,sans-Serif" font-size="10.00">Touch.mm</text>
</a>
</g>
</g>
<!-- Node1&#45;&gt;Node16 -->
<g id="edge15" class="edge"><title>Node1&#45;&gt;Node16</title>
<path fill="none" stroke="midnightblue" d="M1173.71,-153.646C1296.88,-148.569 1576.04,-134.494 1809,-104 1812.28,-103.571 1815.62,-103.098 1818.99,-102.591"/>
<polygon fill="midnightblue" stroke="midnightblue" points="1173.55,-150.15 1163.7,-154.053 1173.84,-157.144 1173.55,-150.15"/>
</g>
<!-- Node3 -->
<g id="node3" class="node"><title>Node3</title>
<g id="a_node3"><a xlink:href="_image_source_file_quartz_8cpp.html" target="_top" xlink:title="src/cinder/ImageSourceFile\lQuartz.cpp">
<polygon fill="white" stroke="black" points="49.1431,-1 49.1431,-33 186.857,-33 186.857,-1 49.1431,-1"/>
<text text-anchor="start" x="57.1431" y="-19" font-family="Helvetica,sans-Serif" font-size="10.00">src/cinder/ImageSourceFile</text>
<text text-anchor="middle" x="118" y="-7" font-family="Helvetica,sans-Serif" font-size="10.00">Quartz.cpp</text>
</a>
</g>
</g>
<!-- Node1&#45;&gt;Node3 -->
<g id="edge16" class="edge"><title>Node1&#45;&gt;Node3</title>
<path fill="none" stroke="midnightblue" d="M1046.13,-155.42C849.48,-153.217 261.82,-143.375 186,-104 156.101,-88.4729 135.04,-53.3052 124.888,-33.0788"/>
<polygon fill="midnightblue" stroke="midnightblue" points="1046.27,-158.921 1056.31,-155.531 1046.34,-151.922 1046.27,-158.921"/>
</g>
<!-- Node5 -->
<g id="node5" class="node"><title>Node5</title>
<g id="a_node5"><a xlink:href="_image_target_file_quartz_8cpp.html" target="_top" xlink:title="src/cinder/ImageTargetFile\lQuartz.cpp">
<polygon fill="white" stroke="black" points="1978.09,-1 1978.09,-33 2111.91,-33 2111.91,-1 1978.09,-1"/>
<text text-anchor="start" x="1986.09" y="-19" font-family="Helvetica,sans-Serif" font-size="10.00">src/cinder/ImageTargetFile</text>
<text text-anchor="middle" x="2045" y="-7" font-family="Helvetica,sans-Serif" font-size="10.00">Quartz.cpp</text>
</a>
</g>
</g>
<!-- Node1&#45;&gt;Node5 -->
<g id="edge17" class="edge"><title>Node1&#45;&gt;Node5</title>
<path fill="none" stroke="midnightblue" d="M1173.77,-155.165C1361.99,-152.285 1906.4,-140.831 1977,-104 2006.87,-88.4178 2027.94,-53.2712 2038.1,-33.0631"/>
<polygon fill="midnightblue" stroke="midnightblue" points="1173.7,-151.665 1163.75,-155.315 1173.8,-158.665 1173.7,-151.665"/>
</g>
<!-- Node2&#45;&gt;Node3 -->
<g id="edge2" class="edge"><title>Node2&#45;&gt;Node3</title>
<path fill="none" stroke="midnightblue" d="M85.7765,-62.7183C92.8503,-52.9016 100.881,-41.757 107.156,-33.0492"/>
<polygon fill="midnightblue" stroke="midnightblue" points="82.8813,-60.7493 79.8747,-70.9086 88.5605,-64.8417 82.8813,-60.7493"/>
</g>
<!-- Node4&#45;&gt;Node5 -->
<g id="edge4" class="edge"><title>Node4&#45;&gt;Node5</title>
<path fill="none" stroke="midnightblue" d="M2076.57,-62.7183C2069.64,-52.9016 2061.77,-41.757 2055.62,-33.0492"/>
<polygon fill="midnightblue" stroke="midnightblue" points="2073.72,-64.7573 2082.35,-70.9086 2079.44,-60.7205 2073.72,-64.7573"/>
</g>
</g>
</svg>
