<?xml version="1.0" encoding="UTF-8" standalone="no"?>
<!DOCTYPE svg PUBLIC "-//W3C//DTD SVG 1.1//EN"
 "http://www.w3.org/Graphics/SVG/1.1/DTD/svg11.dtd">
<!-- Generated by graphviz version 2.30.1 (20140712.1814)
 -->
<!-- Title: include/cinder/app/CinderView.h Pages: 1 -->
<svg width="837pt" height="182pt"
 viewBox="0.00 0.00 837.00 182.00" xmlns="http://www.w3.org/2000/svg" xmlns:xlink="http://www.w3.org/1999/xlink">
<g id="graph0" class="graph" transform="scale(1 1) rotate(0) translate(4 178)">
<title>include/cinder/app/CinderView.h</title>
<polygon fill="white" stroke="white" points="-4,5 -4,-178 834,-178 834,5 -4,5"/>
<!-- Node1 -->
<g id="node1" class="node"><title>Node1</title>
<polygon fill="#bfbfbf" stroke="black" points="362.417,-141 362.417,-173 459.583,-173 459.583,-141 362.417,-141"/>
<text text-anchor="start" x="370.417" y="-159" font-family="Helvetica,sans-Serif" font-size="10.00">include/cinder/app</text>
<text text-anchor="middle" x="411" y="-147" font-family="Helvetica,sans-Serif" font-size="10.00">/CinderView.h</text>
</g>
<!-- Node2 -->
<g id="node2" class="node"><title>Node2</title>
<g id="a_node2"><a xlink:href="_app_impl_cocoa_basic_8h.html" target="_top" xlink:title="include/cinder/app\l/AppImplCocoaBasic.h">
<polygon fill="white" stroke="black" points="17.4189,-71 17.4189,-103 134.581,-103 134.581,-71 17.4189,-71"/>
<text text-anchor="start" x="25.4189" y="-89" font-family="Helvetica,sans-Serif" font-size="10.00">include/cinder/app</text>
<text text-anchor="middle" x="76" y="-77" font-family="Helvetica,sans-Serif" font-size="10.00">/AppImplCocoaBasic.h</text>
</a>
</g>
</g>
<!-- Node1&#45;&gt;Node2 -->
<g id="edge1" class="edge"><title>Node1&#45;&gt;Node2</title>
<path fill="none" stroke="midnightblue" d="M352.481,-144.624C299.548,-134.266 219.485,-118.433 150,-104 145.11,-102.984 140.041,-101.917 134.954,-100.837"/>
<polygon fill="midnightblue" stroke="midnightblue" points="351.882,-148.073 362.368,-146.556 353.225,-141.203 351.882,-148.073"/>
</g>
<!-- Node4 -->
<g id="node4" class="node"><title>Node4</title>
<g id="a_node4"><a xlink:href="_app_impl_cocoa_screen_saver_8h.html" target="_top" xlink:title="include/cinder/app\l/AppImplCocoaScreenSaver.h">
<polygon fill="white" stroke="black" points="159.015,-71 159.015,-103 308.985,-103 308.985,-71 159.015,-71"/>
<text text-anchor="start" x="167.015" y="-89" font-family="Helvetica,sans-Serif" font-size="10.00">include/cinder/app</text>
<text text-anchor="middle" x="234" y="-77" font-family="Helvetica,sans-Serif" font-size="10.00">/AppImplCocoaScreenSaver.h</text>
</a>
</g>
</g>
<!-- Node1&#45;&gt;Node4 -->
<g id="edge3" class="edge"><title>Node1&#45;&gt;Node4</title>
<path fill="none" stroke="midnightblue" d="M362.109,-137.217C334.086,-126.451 299.387,-113.12 273.172,-103.049"/>
<polygon fill="midnightblue" stroke="midnightblue" points="361.128,-140.589 371.718,-140.909 363.638,-134.055 361.128,-140.589"/>
</g>
<!-- Node6 -->
<g id="node6" class="node"><title>Node6</title>
<g id="a_node6"><a xlink:href="_app_cocoa_view_8mm.html" target="_top" xlink:title="src/cinder/app/AppCocoaView.mm">
<polygon fill="white" stroke="black" points="326.662,-77 326.662,-97 495.338,-97 495.338,-77 326.662,-77"/>
<text text-anchor="middle" x="411" y="-83" font-family="Helvetica,sans-Serif" font-size="10.00">src/cinder/app/AppCocoaView.mm</text>
</a>
</g>
</g>
<!-- Node1&#45;&gt;Node6 -->
<g id="edge5" class="edge"><title>Node1&#45;&gt;Node6</title>
<path fill="none" stroke="midnightblue" d="M411,-130.668C411,-118.865 411,-105.57 411,-97.0035"/>
<polygon fill="midnightblue" stroke="midnightblue" points="407.5,-130.909 411,-140.909 414.5,-130.909 407.5,-130.909"/>
</g>
<!-- Node7 -->
<g id="node7" class="node"><title>Node7</title>
<g id="a_node7"><a xlink:href="_app_impl_cocoa_renderer_gl_8mm.html" target="_top" xlink:title="src/cinder/app/AppImplCocoa\lRendererGl.mm">
<polygon fill="white" stroke="black" points="513.412,-71 513.412,-103 660.588,-103 660.588,-71 513.412,-71"/>
<text text-anchor="start" x="521.412" y="-89" font-family="Helvetica,sans-Serif" font-size="10.00">src/cinder/app/AppImplCocoa</text>
<text text-anchor="middle" x="587" y="-77" font-family="Helvetica,sans-Serif" font-size="10.00">RendererGl.mm</text>
</a>
</g>
</g>
<!-- Node1&#45;&gt;Node7 -->
<g id="edge6" class="edge"><title>Node1&#45;&gt;Node7</title>
<path fill="none" stroke="midnightblue" d="M459.615,-137.217C487.48,-126.451 521.983,-113.12 548.049,-103.049"/>
<polygon fill="midnightblue" stroke="midnightblue" points="458.127,-134.04 450.06,-140.909 460.65,-140.569 458.127,-134.04"/>
</g>
<!-- Node8 -->
<g id="node8" class="node"><title>Node8</title>
<g id="a_node8"><a xlink:href="_cinder_view_8mm.html" target="_top" xlink:title="src/cinder/app/CinderView.mm">
<polygon fill="white" stroke="black" points="678.283,-77 678.283,-97 829.717,-97 829.717,-77 678.283,-77"/>
<text text-anchor="middle" x="754" y="-83" font-family="Helvetica,sans-Serif" font-size="10.00">src/cinder/app/CinderView.mm</text>
</a>
</g>
</g>
<!-- Node1&#45;&gt;Node8 -->
<g id="edge7" class="edge"><title>Node1&#45;&gt;Node8</title>
<path fill="none" stroke="midnightblue" d="M469.847,-144.333C537.453,-130.931 646.94,-109.225 708.4,-97.0402"/>
<polygon fill="midnightblue" stroke="midnightblue" points="468.908,-140.952 459.779,-146.329 470.269,-147.818 468.908,-140.952"/>
</g>
<!-- Node3 -->
<g id="node3" class="node"><title>Node3</title>
<g id="a_node3"><a xlink:href="_app_impl_cocoa_basic_8mm.html" target="_top" xlink:title="src/cinder/app/AppImplCocoa\lBasic.mm">
<polygon fill="white" stroke="black" points="-0.588379,-1 -0.588379,-33 146.588,-33 146.588,-1 -0.588379,-1"/>
<text text-anchor="start" x="7.41162" y="-19" font-family="Helvetica,sans-Serif" font-size="10.00">src/cinder/app/AppImplCocoa</text>
<text text-anchor="middle" x="73" y="-7" font-family="Helvetica,sans-Serif" font-size="10.00">Basic.mm</text>
</a>
</g>
</g>
<!-- Node2&#45;&gt;Node3 -->
<g id="edge2" class="edge"><title>Node2&#45;&gt;Node3</title>
<path fill="none" stroke="midnightblue" d="M74.8802,-60.6174C74.4708,-51.3378 74.0209,-41.1413 73.6639,-33.0492"/>
<polygon fill="midnightblue" stroke="midnightblue" points="71.3968,-61.0726 75.3342,-70.9086 78.39,-60.764 71.3968,-61.0726"/>
</g>
<!-- Node5 -->
<g id="node5" class="node"><title>Node5</title>
<g id="a_node5"><a xlink:href="_app_impl_cocoa_screen_saver_8mm.html" target="_top" xlink:title="src/cinder/app/AppImplCocoa\lScreenSaver.mm">
<polygon fill="white" stroke="black" points="164.412,-1 164.412,-33 311.588,-33 311.588,-1 164.412,-1"/>
<text text-anchor="start" x="172.412" y="-19" font-family="Helvetica,sans-Serif" font-size="10.00">src/cinder/app/AppImplCocoa</text>
<text text-anchor="middle" x="238" y="-7" font-family="Helvetica,sans-Serif" font-size="10.00">ScreenSaver.mm</text>
</a>
</g>
</g>
<!-- Node4&#45;&gt;Node5 -->
<g id="edge4" class="edge"><title>Node4&#45;&gt;Node5</title>
<path fill="none" stroke="midnightblue" d="M235.475,-60.9196C236.026,-51.5597 236.634,-41.2293 237.115,-33.0492"/>
<polygon fill="midnightblue" stroke="midnightblue" points="231.981,-60.7203 234.888,-70.9086 238.969,-61.1314 231.981,-60.7203"/>
</g>
</g>
</svg>
