<?xml version="1.0" encoding="UTF-8" standalone="no"?>
<!DOCTYPE svg PUBLIC "-//W3C//DTD SVG 1.1//EN"
 "http://www.w3.org/Graphics/SVG/1.1/DTD/svg11.dtd">
<!-- Generated by graphviz version 2.30.1 (20140712.1814)
 -->
<!-- Title: include/cinder/audio/cocoa/CinderCoreAudio.h Pages: 1 -->
<!--zoomable 274 -->
<svg id="main" version="1.1" xmlns="http://www.w3.org/2000/svg" xmlns:xlink="http://www.w3.org/1999/xlink" xml:space="preserve" onload="init(evt)">
<style type="text/css"><![CDATA[
.edge:hover path { stroke: red; }
.edge:hover polygon { stroke: red; fill: red; }
]]></style>
<script type="text/javascript"><![CDATA[
var edges = document.getElementsByTagName('g');
if (edges && edges.length) {
  for (var i=0;i<edges.length;i++) {
    if (edges[i].id.substr(0,4)=='edge') {
      edges[i].setAttribute('class','edge');
    }
  }
}
]]></script>
        <defs>
                <circle id="rim" cx="0" cy="0" r="7"/>
                <circle id="rim2" cx="0" cy="0" r="3.5"/>
                <g id="zoomPlus">
                        <use xlink:href="#rim" fill="#404040">
                                <set attributeName="fill" to="#808080" begin="zoomplus.mouseover" end="zoomplus.mouseout"/>
                        </use>
                        <path d="M-4,0h8M0,-4v8" fill="none" stroke="white" stroke-width="1.5" pointer-events="none"/>
                </g>
                <g id="zoomMin">
                        <use xlink:href="#rim" fill="#404040">
                                <set attributeName="fill" to="#808080" begin="zoomminus.mouseover" end="zoomminus.mouseout"/>
                        </use>
                        <path d="M-4,0h8" fill="none" stroke="white" stroke-width="1.5" pointer-events="none"/>
                </g>
                <g id="dirArrow">
                        <path fill="none" stroke="white" stroke-width="1.5" d="M0,-3.0v7 M-2.5,-0.5L0,-3.0L2.5,-0.5"/>
                </g>
               <g id="resetDef">
                       <use xlink:href="#rim2" fill="#404040">
                               <set attributeName="fill" to="#808080" begin="reset.mouseover" end="reset.mouseout"/>
                       </use>
               </g>
        </defs>

<script type="text/javascript">
var viewWidth = 535;
var viewHeight = 274;
var sectionId = 'dynsection-0';
</script>
<script xlink:href="svgpan.js"/>
<svg id="graph" class="graph">
<g id="viewport">
<title>include/cinder/audio/cocoa/CinderCoreAudio.h</title>
<polygon fill="white" stroke="white" points="-4,5 -4,-270 532,-270 532,5 -4,5"/>
<!-- Node1 -->
<g id="node1" class="node"><title>Node1</title>
<polygon fill="#bfbfbf" stroke="black" points="235.355,-233 235.355,-265 368.645,-265 368.645,-233 235.355,-233"/>
<text text-anchor="start" x="243.355" y="-251" font-family="Helvetica,sans-Serif" font-size="10.00">include/cinder/audio</text>
<text text-anchor="middle" x="302" y="-239" font-family="Helvetica,sans-Serif" font-size="10.00">/cocoa/CinderCoreAudio.h</text>
</g>
<!-- Node2 -->
<g id="node2" class="node"><title>Node2</title>
<g id="a_node2"><a xlink:href="_converter_8h.html" target="_top" xlink:title="cinder/audio/dsp/Converter.h">
<polygon fill="white" stroke="black" points="180.069,-175 180.069,-195 323.931,-195 323.931,-175 180.069,-175"/>
<text text-anchor="middle" x="252" y="-181" font-family="Helvetica,sans-Serif" font-size="10.00">cinder/audio/dsp/Converter.h</text>
</a>
</g>
</g>
<!-- Node1&#45;&gt;Node2 -->
<g id="edge1" class="edge"><title>Node1&#45;&gt;Node2</title>
<path fill="none" stroke="midnightblue" d="M289.896,-232.992C282.638,-223.992 273.384,-212.516 265.837,-203.157"/>
<polygon fill="midnightblue" stroke="midnightblue" points="268.494,-200.877 259.492,-195.29 263.045,-205.272 268.494,-200.877"/>
</g>
<!-- Node8 -->
<g id="node8" class="node"><title>Node8</title>
<polygon fill="white" stroke="#bfbfbf" points="328.943,-59 328.943,-79 381.057,-79 381.057,-59 328.943,-59"/>
<text text-anchor="middle" x="355" y="-65" font-family="Helvetica,sans-Serif" font-size="10.00">memory</text>
</g>
<!-- Node1&#45;&gt;Node8 -->
<g id="edge11" class="edge"><title>Node1&#45;&gt;Node8</title>
<path fill="none" stroke="midnightblue" d="M312.666,-232.759C319.192,-222.743 327.186,-209.11 332,-196 345.36,-159.616 351.19,-114.365 353.55,-89.1895"/>
<polygon fill="midnightblue" stroke="midnightblue" points="357.045,-89.3995 354.405,-79.1388 350.07,-88.8062 357.045,-89.3995"/>
</g>
<!-- Node7 -->
<g id="node7" class="node"><title>Node7</title>
<polygon fill="white" stroke="#bfbfbf" points="-0.615723,-59 -0.615723,-79 42.6157,-79 42.6157,-59 -0.615723,-59"/>
<text text-anchor="middle" x="21" y="-65" font-family="Helvetica,sans-Serif" font-size="10.00">vector</text>
</g>
<!-- Node1&#45;&gt;Node7 -->
<g id="edge12" class="edge"><title>Node1&#45;&gt;Node7</title>
<path fill="none" stroke="midnightblue" d="M253.589,-232.971C228.092,-224.036 196.841,-211.429 171,-196 117.015,-163.767 62.7733,-112.377 36.8005,-86.3093"/>
<polygon fill="midnightblue" stroke="midnightblue" points="39.1908,-83.7484 29.6791,-79.0817 34.2045,-88.6614 39.1908,-83.7484"/>
</g>
<!-- Node11 -->
<g id="node11" class="node"><title>Node11</title>
<polygon fill="white" stroke="#bfbfbf" points="380.397,-175 380.397,-195 527.603,-195 527.603,-175 380.397,-175"/>
<text text-anchor="middle" x="454" y="-181" font-family="Helvetica,sans-Serif" font-size="10.00">AudioToolbox/AudioToolbox.h</text>
</g>
<!-- Node1&#45;&gt;Node11 -->
<g id="edge13" class="edge"><title>Node1&#45;&gt;Node11</title>
<path fill="none" stroke="midnightblue" d="M338.795,-232.992C364.278,-222.597 397.859,-208.899 422.186,-198.977"/>
<polygon fill="midnightblue" stroke="midnightblue" points="423.731,-202.126 431.669,-195.109 421.088,-195.645 423.731,-202.126"/>
</g>
<!-- Node3 -->
<g id="node3" class="node"><title>Node3</title>
<g id="a_node3"><a xlink:href="audio_2_buffer_8h.html" target="_top" xlink:title="cinder/audio/Buffer.h">
<polygon fill="white" stroke="black" points="162.221,-117 162.221,-137 269.779,-137 269.779,-117 162.221,-117"/>
<text text-anchor="middle" x="216" y="-123" font-family="Helvetica,sans-Serif" font-size="10.00">cinder/audio/Buffer.h</text>
</a>
</g>
</g>
<!-- Node2&#45;&gt;Node3 -->
<g id="edge2" class="edge"><title>Node2&#45;&gt;Node3</title>
<path fill="none" stroke="midnightblue" d="M246.055,-174.753C240.97,-166.843 233.51,-155.237 227.294,-145.568"/>
<polygon fill="midnightblue" stroke="midnightblue" points="230.186,-143.594 221.834,-137.075 224.298,-147.38 230.186,-143.594"/>
</g>
<!-- Node2&#45;&gt;Node8 -->
<g id="edge10" class="edge"><title>Node2&#45;&gt;Node8</title>
<path fill="none" stroke="midnightblue" d="M260.429,-174.671C277.792,-155.453 317.76,-111.217 339.772,-86.8542"/>
<polygon fill="midnightblue" stroke="midnightblue" points="342.635,-88.9058 346.742,-79.1394 337.441,-84.213 342.635,-88.9058"/>
</g>
<!-- Node4 -->
<g id="node4" class="node"><title>Node4</title>
<g id="a_node4"><a xlink:href="_cinder_assert_8h.html" target="_top" xlink:title="cinder/CinderAssert.h">
<polygon fill="white" stroke="black" points="60.9238,-59 60.9238,-79 173.076,-79 173.076,-59 60.9238,-59"/>
<text text-anchor="middle" x="117" y="-65" font-family="Helvetica,sans-Serif" font-size="10.00">cinder/CinderAssert.h</text>
</a>
</g>
</g>
<!-- Node3&#45;&gt;Node4 -->
<g id="edge3" class="edge"><title>Node3&#45;&gt;Node4</title>
<path fill="none" stroke="midnightblue" d="M199.652,-116.753C183.938,-107.864 159.975,-94.3092 141.89,-84.0793"/>
<polygon fill="midnightblue" stroke="midnightblue" points="143.471,-80.9523 133.044,-79.0752 140.024,-87.0451 143.471,-80.9523"/>
</g>
<!-- Node3&#45;&gt;Node7 -->
<g id="edge6" class="edge"><title>Node3&#45;&gt;Node7</title>
<path fill="none" stroke="midnightblue" d="M182.282,-116.951C151.062,-108.482 103.124,-95.2514 52.4707,-80.0611"/>
<polygon fill="midnightblue" stroke="midnightblue" points="53.2315,-76.6349 42.6469,-77.1004 51.2115,-83.3371 53.2315,-76.6349"/>
</g>
<!-- Node3&#45;&gt;Node8 -->
<g id="edge7" class="edge"><title>Node3&#45;&gt;Node8</title>
<path fill="none" stroke="midnightblue" d="M238.642,-116.878C261.562,-107.644 297.208,-93.283 323.008,-82.8887"/>
<polygon fill="midnightblue" stroke="midnightblue" points="324.4,-86.1015 332.368,-79.1181 321.784,-79.6086 324.4,-86.1015"/>
</g>
<!-- Node9 -->
<g id="node9" class="node"><title>Node9</title>
<polygon fill="white" stroke="#bfbfbf" points="190.828,-59 190.828,-79 235.172,-79 235.172,-59 190.828,-59"/>
<text text-anchor="middle" x="213" y="-65" font-family="Helvetica,sans-Serif" font-size="10.00">cstdlib</text>
</g>
<!-- Node3&#45;&gt;Node9 -->
<g id="edge8" class="edge"><title>Node3&#45;&gt;Node9</title>
<path fill="none" stroke="midnightblue" d="M215.505,-116.753C215.103,-109.25 214.523,-98.4238 214.022,-89.0781"/>
<polygon fill="midnightblue" stroke="midnightblue" points="217.516,-88.8736 213.486,-79.0752 210.526,-89.2481 217.516,-88.8736"/>
</g>
<!-- Node10 -->
<g id="node10" class="node"><title>Node10</title>
<polygon fill="white" stroke="#bfbfbf" points="253.436,-59 253.436,-79 310.564,-79 310.564,-59 253.436,-59"/>
<text text-anchor="middle" x="282" y="-65" font-family="Helvetica,sans-Serif" font-size="10.00">algorithm</text>
</g>
<!-- Node3&#45;&gt;Node10 -->
<g id="edge9" class="edge"><title>Node3&#45;&gt;Node10</title>
<path fill="none" stroke="midnightblue" d="M226.899,-116.753C236.798,-108.353 251.608,-95.7874 263.381,-85.7976"/>
<polygon fill="midnightblue" stroke="midnightblue" points="265.944,-88.2138 271.304,-79.0752 261.415,-82.8762 265.944,-88.2138"/>
</g>
<!-- Node5 -->
<g id="node5" class="node"><title>Node5</title>
<g id="a_node5"><a xlink:href="_current_function_8h.html" target="_top" xlink:title="cinder/CurrentFunction.h">
<polygon fill="white" stroke="black" points="1.97314,-1 1.97314,-21 128.027,-21 128.027,-1 1.97314,-1"/>
<text text-anchor="middle" x="65" y="-7" font-family="Helvetica,sans-Serif" font-size="10.00">cinder/CurrentFunction.h</text>
</a>
</g>
</g>
<!-- Node4&#45;&gt;Node5 -->
<g id="edge4" class="edge"><title>Node4&#45;&gt;Node5</title>
<path fill="none" stroke="midnightblue" d="M108.413,-58.7527C100.841,-50.598 89.6218,-38.5158 80.4856,-28.6769"/>
<polygon fill="midnightblue" stroke="midnightblue" points="82.7963,-26.0216 73.427,-21.0752 77.6667,-30.7847 82.7963,-26.0216"/>
</g>
<!-- Node6 -->
<g id="node6" class="node"><title>Node6</title>
<polygon fill="white" stroke="#bfbfbf" points="145.884,-1 145.884,-21 194.116,-21 194.116,-1 145.884,-1"/>
<text text-anchor="middle" x="170" y="-7" font-family="Helvetica,sans-Serif" font-size="10.00">cassert</text>
</g>
<!-- Node4&#45;&gt;Node6 -->
<g id="edge5" class="edge"><title>Node4&#45;&gt;Node6</title>
<path fill="none" stroke="midnightblue" d="M125.752,-58.7527C133.547,-50.5165 145.134,-38.2738 154.495,-28.3824"/>
<polygon fill="midnightblue" stroke="midnightblue" points="157.079,-30.744 161.411,-21.0752 151.995,-25.9323 157.079,-30.744"/>
</g>
</g>
</svg>
        <g id="navigator" transform="translate(0 0)" fill="#404254">
                <rect fill="#f2f5e9" fill-opacity="0.5" stroke="#606060" stroke-width=".5" x="0" y="0" width="60" height="60"/>
                <use id="zoomplus" xlink:href="#zoomPlus" x="17" y="9" onmousedown="handleZoom(evt,'in')"/>
                <use id="zoomminus" xlink:href="#zoomMin" x="42" y="9" onmousedown="handleZoom(evt,'out')"/>
                <use id="reset" xlink:href="#resetDef" x="30" y="36" onmousedown="handleReset()"/>
                <g id="arrowUp" xlink:href="#dirArrow" transform="translate(30 24)" onmousedown="handlePan(0,-1)">
                  <use xlink:href="#rim" fill="#404040">
                        <set attributeName="fill" to="#808080" begin="arrowUp.mouseover" end="arrowUp.mouseout"/>
                  </use>
                  <path fill="none" stroke="white" stroke-width="1.5" d="M0,-3.0v7 M-2.5,-0.5L0,-3.0L2.5,-0.5"/>
                </g>
                <g id="arrowRight" xlink:href="#dirArrow" transform="rotate(90) translate(36 -43)" onmousedown="handlePan(1,0)">
                  <use xlink:href="#rim" fill="#404040">
                        <set attributeName="fill" to="#808080" begin="arrowRight.mouseover" end="arrowRight.mouseout"/>
                  </use>
                  <path fill="none" stroke="white" stroke-width="1.5" d="M0,-3.0v7 M-2.5,-0.5L0,-3.0L2.5,-0.5"/>
                </g>
                <g id="arrowDown" xlink:href="#dirArrow" transform="rotate(180) translate(-30 -48)" onmousedown="handlePan(0,1)">
                  <use xlink:href="#rim" fill="#404040">
                        <set attributeName="fill" to="#808080" begin="arrowDown.mouseover" end="arrowDown.mouseout"/>
                  </use>
                  <path fill="none" stroke="white" stroke-width="1.5" d="M0,-3.0v7 M-2.5,-0.5L0,-3.0L2.5,-0.5"/>
                </g>
                <g id="arrowLeft" xlink:href="#dirArrow" transform="rotate(270) translate(-36 17)" onmousedown="handlePan(-1,0)">
                  <use xlink:href="#rim" fill="#404040">
                        <set attributeName="fill" to="#808080" begin="arrowLeft.mouseover" end="arrowLeft.mouseout"/>
                  </use>
                  <path fill="none" stroke="white" stroke-width="1.5" d="M0,-3.0v7 M-2.5,-0.5L0,-3.0L2.5,-0.5"/>
                </g>
        </g>
        <svg viewBox="0 0 15 15" width="100%" height="30px" preserveAspectRatio="xMaxYMin meet">
         <g id="arrow_out" transform="scale(0.3 0.3)">
          <a xlink:href="_cinder_core_audio_8h__incl_org.svg" target="_base">
           <rect id="button" ry="5" rx="5" y="6" x="6" height="38" width="38"
                fill="#f2f5e9" fill-opacity="0.5" stroke="#606060" stroke-width="1.0"/>
           <path id="arrow"
             d="M 11.500037,31.436501 C 11.940474,20.09759 22.043105,11.32322 32.158766,21.979434 L 37.068811,17.246167 C 37.068811,17.246167 37.088388,32 37.088388,32 L 22.160133,31.978069 C 22.160133,31.978069 26.997745,27.140456 26.997745,27.140456 C 18.528582,18.264221 13.291696,25.230495 11.500037,31.436501 z"
             style="fill:#404040;"/>
          </a>
         </g>
        </svg>
</svg>
