<?xml version="1.0" encoding="UTF-8" standalone="no"?>
<!DOCTYPE svg PUBLIC "-//W3C//DTD SVG 1.1//EN"
 "http://www.w3.org/Graphics/SVG/1.1/DTD/svg11.dtd">
<!-- Generated by graphviz version 2.30.1 (20140712.1814)
 -->
<!-- Title: include/cinder/audio/cocoa/CinderCoreAudio.h Pages: 1 -->
<svg width="489pt" height="182pt"
 viewBox="0.00 0.00 489.00 182.00" xmlns="http://www.w3.org/2000/svg" xmlns:xlink="http://www.w3.org/1999/xlink">
<g id="graph0" class="graph" transform="scale(1 1) rotate(0) translate(4 178)">
<title>include/cinder/audio/cocoa/CinderCoreAudio.h</title>
<polygon fill="white" stroke="white" points="-4,5 -4,-178 486,-178 486,5 -4,5"/>
<!-- Node1 -->
<g id="node1" class="node"><title>Node1</title>
<polygon fill="#bfbfbf" stroke="black" points="181.355,-141 181.355,-173 314.645,-173 314.645,-141 181.355,-141"/>
<text text-anchor="start" x="189.355" y="-159" font-family="Helvetica,sans-Serif" font-size="10.00">include/cinder/audio</text>
<text text-anchor="middle" x="248" y="-147" font-family="Helvetica,sans-Serif" font-size="10.00">/cocoa/CinderCoreAudio.h</text>
</g>
<!-- Node2 -->
<g id="node2" class="node"><title>Node2</title>
<g id="a_node2"><a xlink:href="_context_audio_unit_8h.html" target="_top" xlink:title="include/cinder/audio\l/cocoa/ContextAudioUnit.h">
<polygon fill="white" stroke="black" points="-0.20166,-71 -0.20166,-103 134.202,-103 134.202,-71 -0.20166,-71"/>
<text text-anchor="start" x="7.79834" y="-89" font-family="Helvetica,sans-Serif" font-size="10.00">include/cinder/audio</text>
<text text-anchor="middle" x="67" y="-77" font-family="Helvetica,sans-Serif" font-size="10.00">/cocoa/ContextAudioUnit.h</text>
</a>
</g>
</g>
<!-- Node1&#45;&gt;Node2 -->
<g id="edge1" class="edge"><title>Node1&#45;&gt;Node2</title>
<path fill="none" stroke="midnightblue" d="M198.379,-137.358C169.658,-126.568 133.982,-113.164 107.057,-103.049"/>
<polygon fill="midnightblue" stroke="midnightblue" points="197.238,-140.668 207.83,-140.909 199.7,-134.115 197.238,-140.668"/>
</g>
<!-- Node4 -->
<g id="node4" class="node"><title>Node4</title>
<g id="a_node4"><a xlink:href="_file_core_audio_8h.html" target="_top" xlink:title="include/cinder/audio\l/cocoa/FileCoreAudio.h">
<polygon fill="white" stroke="black" points="362.027,-71 362.027,-103 481.973,-103 481.973,-71 362.027,-71"/>
<text text-anchor="start" x="370.027" y="-89" font-family="Helvetica,sans-Serif" font-size="10.00">include/cinder/audio</text>
<text text-anchor="middle" x="422" y="-77" font-family="Helvetica,sans-Serif" font-size="10.00">/cocoa/FileCoreAudio.h</text>
</a>
</g>
</g>
<!-- Node1&#45;&gt;Node4 -->
<g id="edge3" class="edge"><title>Node1&#45;&gt;Node4</title>
<path fill="none" stroke="midnightblue" d="M296.062,-137.217C323.611,-126.451 357.721,-113.12 383.492,-103.049"/>
<polygon fill="midnightblue" stroke="midnightblue" points="294.656,-134.009 286.616,-140.909 297.204,-140.528 294.656,-134.009"/>
</g>
<!-- Node6 -->
<g id="node6" class="node"><title>Node6</title>
<g id="a_node6"><a xlink:href="_cinder_core_audio_8cpp.html" target="_top" xlink:title="src/cinder/audio/cocoa\l/CinderCoreAudio.cpp">
<polygon fill="white" stroke="black" points="189.973,-71 189.973,-103 306.027,-103 306.027,-71 189.973,-71"/>
<text text-anchor="start" x="197.973" y="-89" font-family="Helvetica,sans-Serif" font-size="10.00">src/cinder/audio/cocoa</text>
<text text-anchor="middle" x="248" y="-77" font-family="Helvetica,sans-Serif" font-size="10.00">/CinderCoreAudio.cpp</text>
</a>
</g>
</g>
<!-- Node1&#45;&gt;Node6 -->
<g id="edge5" class="edge"><title>Node1&#45;&gt;Node6</title>
<path fill="none" stroke="midnightblue" d="M248,-130.617C248,-121.338 248,-111.141 248,-103.049"/>
<polygon fill="midnightblue" stroke="midnightblue" points="244.5,-130.909 248,-140.909 251.5,-130.909 244.5,-130.909"/>
</g>
<!-- Node3 -->
<g id="node3" class="node"><title>Node3</title>
<g id="a_node3"><a xlink:href="_context_audio_unit_8cpp.html" target="_top" xlink:title="src/cinder/audio/cocoa\l/ContextAudioUnit.cpp">
<polygon fill="white" stroke="black" points="55.9731,-1 55.9731,-33 172.027,-33 172.027,-1 55.9731,-1"/>
<text text-anchor="start" x="63.9731" y="-19" font-family="Helvetica,sans-Serif" font-size="10.00">src/cinder/audio/cocoa</text>
<text text-anchor="middle" x="114" y="-7" font-family="Helvetica,sans-Serif" font-size="10.00">/ContextAudioUnit.cpp</text>
</a>
</g>
</g>
<!-- Node1&#45;&gt;Node3 -->
<g id="edge6" class="edge"><title>Node1&#45;&gt;Node3</title>
<path fill="none" stroke="midnightblue" d="M217.399,-134.774C205.487,-125.881 192.069,-115.049 181,-104 158.361,-81.4031 136.414,-51.1618 124.111,-33.217"/>
<polygon fill="midnightblue" stroke="midnightblue" points="215.614,-137.805 225.752,-140.883 219.746,-132.155 215.614,-137.805"/>
</g>
<!-- Node5 -->
<g id="node5" class="node"><title>Node5</title>
<g id="a_node5"><a xlink:href="_file_core_audio_8cpp.html" target="_top" xlink:title="src/cinder/audio/cocoa\l/FileCoreAudio.cpp">
<polygon fill="white" stroke="black" points="319.973,-1 319.973,-33 436.027,-33 436.027,-1 319.973,-1"/>
<text text-anchor="start" x="327.973" y="-19" font-family="Helvetica,sans-Serif" font-size="10.00">src/cinder/audio/cocoa</text>
<text text-anchor="middle" x="378" y="-7" font-family="Helvetica,sans-Serif" font-size="10.00">/FileCoreAudio.cpp</text>
</a>
</g>
</g>
<!-- Node1&#45;&gt;Node5 -->
<g id="edge7" class="edge"><title>Node1&#45;&gt;Node5</title>
<path fill="none" stroke="midnightblue" d="M279.041,-134.74C290.908,-125.907 304.178,-115.127 315,-104 336.808,-81.5777 357.279,-51.2805 368.673,-33.2775"/>
<polygon fill="midnightblue" stroke="midnightblue" points="276.732,-132.091 270.703,-140.804 280.849,-137.752 276.732,-132.091"/>
</g>
<!-- Node2&#45;&gt;Node3 -->
<g id="edge2" class="edge"><title>Node2&#45;&gt;Node3</title>
<path fill="none" stroke="midnightblue" d="M83.2977,-62.4204C90.0323,-52.6767 97.6405,-41.6691 103.598,-33.0492"/>
<polygon fill="midnightblue" stroke="midnightblue" points="80.2375,-60.6923 77.4308,-70.9086 85.9959,-64.6724 80.2375,-60.6923"/>
</g>
<!-- Node4&#45;&gt;Node5 -->
<g id="edge4" class="edge"><title>Node4&#45;&gt;Node5</title>
<path fill="none" stroke="midnightblue" d="M406.743,-62.4204C400.438,-52.6767 393.315,-41.6691 387.738,-33.0492"/>
<polygon fill="midnightblue" stroke="midnightblue" points="403.864,-64.4143 412.235,-70.9086 409.741,-60.6115 403.864,-64.4143"/>
</g>
</g>
</svg>
