<?xml version="1.0" encoding="UTF-8" standalone="no"?>
<!DOCTYPE svg PUBLIC "-//W3C//DTD SVG 1.1//EN"
 "http://www.w3.org/Graphics/SVG/1.1/DTD/svg11.dtd">
<!-- Generated by graphviz version 2.30.1 (20140712.1814)
 -->
<!-- Title: include/cinder/CinderAssert.h Pages: 1 -->
<svg width="200pt" height="88pt"
 viewBox="0.00 0.00 200.00 88.00" xmlns="http://www.w3.org/2000/svg" xmlns:xlink="http://www.w3.org/1999/xlink">
<g id="graph0" class="graph" transform="scale(1 1) rotate(0) translate(4 84)">
<title>include/cinder/CinderAssert.h</title>
<polygon fill="white" stroke="white" points="-4,5 -4,-84 197,-84 197,5 -4,5"/>
<!-- Node1 -->
<g id="node1" class="node"><title>Node1</title>
<polygon fill="#bfbfbf" stroke="black" points="41.6899,-59 41.6899,-79 188.31,-79 188.31,-59 41.6899,-59"/>
<text text-anchor="middle" x="115" y="-65" font-family="Helvetica,sans-Serif" font-size="10.00">include/cinder/CinderAssert.h</text>
</g>
<!-- Node2 -->
<g id="node2" class="node"><title>Node2</title>
<g id="a_node2"><a xlink:href="_current_function_8h.html" target="_top" xlink:title="cinder/CurrentFunction.h">
<polygon fill="white" stroke="black" points="-0.0268555,-1 -0.0268555,-21 126.027,-21 126.027,-1 -0.0268555,-1"/>
<text text-anchor="middle" x="63" y="-7" font-family="Helvetica,sans-Serif" font-size="10.00">cinder/CurrentFunction.h</text>
</a>
</g>
</g>
<!-- Node1&#45;&gt;Node2 -->
<g id="edge1" class="edge"><title>Node1&#45;&gt;Node2</title>
<path fill="none" stroke="midnightblue" d="M106.413,-58.7527C98.841,-50.598 87.6218,-38.5158 78.4856,-28.6769"/>
<polygon fill="midnightblue" stroke="midnightblue" points="80.7963,-26.0216 71.427,-21.0752 75.6667,-30.7847 80.7963,-26.0216"/>
</g>
<!-- Node3 -->
<g id="node3" class="node"><title>Node3</title>
<polygon fill="white" stroke="#bfbfbf" points="143.884,-1 143.884,-21 192.116,-21 192.116,-1 143.884,-1"/>
<text text-anchor="middle" x="168" y="-7" font-family="Helvetica,sans-Serif" font-size="10.00">cassert</text>
</g>
<!-- Node1&#45;&gt;Node3 -->
<g id="edge2" class="edge"><title>Node1&#45;&gt;Node3</title>
<path fill="none" stroke="midnightblue" d="M123.752,-58.7527C131.547,-50.5165 143.134,-38.2738 152.495,-28.3824"/>
<polygon fill="midnightblue" stroke="midnightblue" points="155.079,-30.744 159.411,-21.0752 149.995,-25.9323 155.079,-30.744"/>
</g>
</g>
</svg>
