<?xml version="1.0" encoding="UTF-8" standalone="no"?>
<!DOCTYPE svg PUBLIC "-//W3C//DTD SVG 1.1//EN"
 "http://www.w3.org/Graphics/SVG/1.1/DTD/svg11.dtd">
<!-- Generated by graphviz version 2.30.1 (20140712.1814)
 -->
<!-- Title: src/cinder/Clipboard.cpp Pages: 1 -->
<svg width="2074pt" height="552pt"
 viewBox="0.00 0.00 2073.84 552.00" xmlns="http://www.w3.org/2000/svg" xmlns:xlink="http://www.w3.org/1999/xlink">
<g id="graph0" class="graph" transform="scale(1 1) rotate(0) translate(4 548)">
<title>src/cinder/Clipboard.cpp</title>
<polygon fill="white" stroke="white" points="-4,5 -4,-548 2070.84,-548 2070.84,5 -4,5"/>
<!-- Node1 -->
<g id="node1" class="node"><title>Node1</title>
<polygon fill="#bfbfbf" stroke="black" points="1533.93,-523 1533.93,-543 1657.75,-543 1657.75,-523 1533.93,-523"/>
<text text-anchor="middle" x="1595.84" y="-529" font-family="Helvetica,sans-Serif" font-size="10.00">src/cinder/Clipboard.cpp</text>
</g>
<!-- Node2 -->
<g id="node2" class="node"><title>Node2</title>
<g id="a_node2"><a xlink:href="_clipboard_8h.html" target="_top" xlink:title="cinder/Clipboard.h">
<polygon fill="white" stroke="black" points="1509.26,-465 1509.26,-485 1606.42,-485 1606.42,-465 1509.26,-465"/>
<text text-anchor="middle" x="1557.84" y="-471" font-family="Helvetica,sans-Serif" font-size="10.00">cinder/Clipboard.h</text>
</a>
</g>
</g>
<!-- Node1&#45;&gt;Node2 -->
<g id="edge1" class="edge"><title>Node1&#45;&gt;Node2</title>
<path fill="none" stroke="midnightblue" d="M1589.57,-522.753C1584.2,-514.843 1576.32,-503.237 1569.76,-493.568"/>
<polygon fill="midnightblue" stroke="midnightblue" points="1572.51,-491.385 1564,-485.075 1566.72,-495.315 1572.51,-491.385"/>
</g>
<!-- Node39 -->
<g id="node39" class="node"><title>Node39</title>
<g id="a_node39"><a xlink:href="_unicode_8h.html" target="_top" xlink:title="cinder/Unicode.h">
<polygon fill="white" stroke="black" points="1589.32,-175 1589.32,-195 1680.36,-195 1680.36,-175 1589.32,-175"/>
<text text-anchor="middle" x="1634.84" y="-181" font-family="Helvetica,sans-Serif" font-size="10.00">cinder/Unicode.h</text>
</a>
</g>
</g>
<!-- Node1&#45;&gt;Node39 -->
<g id="edge71" class="edge"><title>Node1&#45;&gt;Node39</title>
<path fill="none" stroke="midnightblue" d="M1601.26,-522.905C1611.98,-504.043 1634.84,-458.999 1634.84,-418 1634.84,-418 1634.84,-418 1634.84,-300 1634.84,-266.798 1634.84,-228.157 1634.84,-205.462"/>
<polygon fill="midnightblue" stroke="midnightblue" points="1638.34,-205.162 1634.84,-195.162 1631.34,-205.162 1638.34,-205.162"/>
</g>
<!-- Node3 -->
<g id="node3" class="node"><title>Node3</title>
<g id="a_node3"><a xlink:href="_cinder_8h.html" target="_top" xlink:title="cinder/Cinder.h">
<polygon fill="white" stroke="black" points="1006.21,-59 1006.21,-79 1089.47,-79 1089.47,-59 1006.21,-59"/>
<text text-anchor="middle" x="1047.84" y="-65" font-family="Helvetica,sans-Serif" font-size="10.00">cinder/Cinder.h</text>
</a>
</g>
</g>
<!-- Node2&#45;&gt;Node3 -->
<g id="edge2" class="edge"><title>Node2&#45;&gt;Node3</title>
<path fill="none" stroke="midnightblue" d="M1558.25,-464.84C1559.06,-445.486 1560.84,-399.003 1560.84,-360 1560.84,-360 1560.84,-360 1560.84,-242 1560.84,-174.942 1535.1,-150.904 1477.84,-116 1415.54,-78.0211 1199.96,-71.1961 1099.77,-70.111"/>
<polygon fill="midnightblue" stroke="midnightblue" points="1099.61,-66.6095 1089.58,-70.0163 1099.55,-73.6092 1099.61,-66.6095"/>
</g>
<!-- Node7 -->
<g id="node7" class="node"><title>Node7</title>
<g id="a_node7"><a xlink:href="_image_io_8h.html" target="_top" xlink:title="cinder/ImageIo.h">
<polygon fill="white" stroke="black" points="921.598,-407 921.598,-427 1012.08,-427 1012.08,-407 921.598,-407"/>
<text text-anchor="middle" x="966.841" y="-413" font-family="Helvetica,sans-Serif" font-size="10.00">cinder/ImageIo.h</text>
</a>
</g>
</g>
<!-- Node2&#45;&gt;Node7 -->
<g id="edge6" class="edge"><title>Node2&#45;&gt;Node7</title>
<path fill="none" stroke="midnightblue" d="M1509.23,-469.393C1400.27,-459.07 1137.1,-434.133 1022.14,-423.24"/>
<polygon fill="midnightblue" stroke="midnightblue" points="1022.43,-419.751 1012.14,-422.292 1021.77,-426.72 1022.43,-419.751"/>
</g>
<!-- Node4 -->
<g id="node4" class="node"><title>Node4</title>
<polygon fill="white" stroke="#bfbfbf" points="937.391,-1 937.391,-21 982.292,-21 982.292,-1 937.391,-1"/>
<text text-anchor="middle" x="959.841" y="-7" font-family="Helvetica,sans-Serif" font-size="10.00">cstdint</text>
</g>
<!-- Node3&#45;&gt;Node4 -->
<g id="edge3" class="edge"><title>Node3&#45;&gt;Node4</title>
<path fill="none" stroke="midnightblue" d="M1033.31,-58.7527C1019.6,-50.0272 998.821,-36.8051 982.856,-26.6458"/>
<polygon fill="midnightblue" stroke="midnightblue" points="984.418,-23.4912 974.102,-21.0752 980.66,-29.3968 984.418,-23.4912"/>
</g>
<!-- Node5 -->
<g id="node5" class="node"><title>Node5</title>
<polygon fill="white" stroke="#bfbfbf" points="1000.37,-1 1000.37,-21 1095.31,-21 1095.31,-1 1000.37,-1"/>
<text text-anchor="middle" x="1047.84" y="-7" font-family="Helvetica,sans-Serif" font-size="10.00">boost/version.hpp</text>
</g>
<!-- Node3&#45;&gt;Node5 -->
<g id="edge4" class="edge"><title>Node3&#45;&gt;Node5</title>
<path fill="none" stroke="midnightblue" d="M1047.84,-58.7527C1047.84,-51.2504 1047.84,-40.4238 1047.84,-31.0781"/>
<polygon fill="midnightblue" stroke="midnightblue" points="1051.34,-31.0752 1047.84,-21.0752 1044.34,-31.0752 1051.34,-31.0752"/>
</g>
<!-- Node6 -->
<g id="node6" class="node"><title>Node6</title>
<polygon fill="white" stroke="#bfbfbf" points="1113.46,-1 1113.46,-21 1246.22,-21 1246.22,-1 1113.46,-1"/>
<text text-anchor="middle" x="1179.84" y="-7" font-family="Helvetica,sans-Serif" font-size="10.00">boost/checked_delete.hpp</text>
</g>
<!-- Node3&#45;&gt;Node6 -->
<g id="edge5" class="edge"><title>Node3&#45;&gt;Node6</title>
<path fill="none" stroke="midnightblue" d="M1069.34,-58.878C1091.01,-49.6848 1124.66,-35.4095 1149.14,-25.0263"/>
<polygon fill="midnightblue" stroke="midnightblue" points="1150.51,-28.2457 1158.35,-21.1181 1147.78,-21.8016 1150.51,-28.2457"/>
</g>
<!-- Node7&#45;&gt;Node3 -->
<g id="edge7" class="edge"><title>Node7&#45;&gt;Node3</title>
<path fill="none" stroke="midnightblue" d="M921.347,-413.875C726.454,-403.319 -18.2978,-347.363 200.841,-116 228.269,-87.0426 816.001,-74.151 995.948,-70.8732"/>
<polygon fill="midnightblue" stroke="midnightblue" points="996.024,-74.3725 1005.96,-70.6931 995.898,-67.3736 996.024,-74.3725"/>
</g>
<!-- Node8 -->
<g id="node8" class="node"><title>Node8</title>
<g id="a_node8"><a xlink:href="_data_source_8h.html" target="_top" xlink:title="cinder/DataSource.h">
<polygon fill="white" stroke="black" points="828.26,-291 828.26,-311 935.422,-311 935.422,-291 828.26,-291"/>
<text text-anchor="middle" x="881.841" y="-297" font-family="Helvetica,sans-Serif" font-size="10.00">cinder/DataSource.h</text>
</a>
</g>
</g>
<!-- Node7&#45;&gt;Node8 -->
<g id="edge8" class="edge"><title>Node7&#45;&gt;Node8</title>
<path fill="none" stroke="midnightblue" d="M959.885,-406.671C945.619,-387.537 912.861,-343.602 894.647,-319.175"/>
<polygon fill="midnightblue" stroke="midnightblue" points="897.439,-317.064 888.656,-311.139 891.827,-321.248 897.439,-317.064"/>
</g>
<!-- Node21 -->
<g id="node21" class="node"><title>Node21</title>
<g id="a_node21"><a xlink:href="_data_target_8h.html" target="_top" xlink:title="cinder/DataTarget.h">
<polygon fill="white" stroke="black" points="686.206,-291 686.206,-311 789.476,-311 789.476,-291 686.206,-291"/>
<text text-anchor="middle" x="737.841" y="-297" font-family="Helvetica,sans-Serif" font-size="10.00">cinder/DataTarget.h</text>
</a>
</g>
</g>
<!-- Node7&#45;&gt;Node21 -->
<g id="edge31" class="edge"><title>Node7&#45;&gt;Node21</title>
<path fill="none" stroke="midnightblue" d="M956.264,-406.965C939.237,-392.79 904.268,-365.175 870.841,-348 842.611,-333.495 808.784,-321.866 782.31,-313.929"/>
<polygon fill="midnightblue" stroke="midnightblue" points="783.131,-310.523 772.55,-311.07 781.163,-317.24 783.131,-310.523"/>
</g>
<!-- Node22 -->
<g id="node22" class="node"><title>Node22</title>
<g id="a_node22"><a xlink:href="_surface_8h.html" target="_top" xlink:title="cinder/Surface.h">
<polygon fill="white" stroke="black" points="1078.43,-349 1078.43,-369 1167.25,-369 1167.25,-349 1078.43,-349"/>
<text text-anchor="middle" x="1122.84" y="-355" font-family="Helvetica,sans-Serif" font-size="10.00">cinder/Surface.h</text>
</a>
</g>
</g>
<!-- Node7&#45;&gt;Node22 -->
<g id="edge36" class="edge"><title>Node7&#45;&gt;Node22</title>
<path fill="none" stroke="midnightblue" d="M992.253,-406.878C1018.28,-397.535 1058.93,-382.943 1087.96,-372.522"/>
<polygon fill="midnightblue" stroke="midnightblue" points="1089.47,-375.698 1097.7,-369.025 1087.1,-369.11 1089.47,-375.698"/>
</g>
<!-- Node12 -->
<g id="node12" class="node"><title>Node12</title>
<g id="a_node12"><a xlink:href="_exception_8h.html" target="_top" xlink:title="cinder/Exception.h">
<polygon fill="white" stroke="black" points="883.706,-117 883.706,-137 981.976,-137 981.976,-117 883.706,-117"/>
<text text-anchor="middle" x="932.841" y="-123" font-family="Helvetica,sans-Serif" font-size="10.00">cinder/Exception.h</text>
</a>
</g>
</g>
<!-- Node7&#45;&gt;Node12 -->
<g id="edge67" class="edge"><title>Node7&#45;&gt;Node12</title>
<path fill="none" stroke="midnightblue" d="M966.841,-406.838C966.841,-387.48 966.841,-340.99 966.841,-302 966.841,-302 966.841,-302 966.841,-242 966.841,-207.054 951.988,-168.502 941.916,-146.377"/>
<polygon fill="midnightblue" stroke="midnightblue" points="945.007,-144.725 937.569,-137.18 938.679,-147.717 945.007,-144.725"/>
</g>
<!-- Node13 -->
<g id="node13" class="node"><title>Node13</title>
<polygon fill="white" stroke="#bfbfbf" points="1577.23,-59 1577.23,-79 1620.46,-79 1620.46,-59 1577.23,-59"/>
<text text-anchor="middle" x="1598.84" y="-65" font-family="Helvetica,sans-Serif" font-size="10.00">vector</text>
</g>
<!-- Node7&#45;&gt;Node13 -->
<g id="edge68" class="edge"><title>Node7&#45;&gt;Node13</title>
<path fill="none" stroke="midnightblue" d="M1012.34,-416.307C1145.13,-415.991 1522.84,-405.955 1522.84,-302 1522.84,-302 1522.84,-302 1522.84,-242 1522.84,-180.758 1563.65,-116.91 1585.46,-87.1617"/>
<polygon fill="midnightblue" stroke="midnightblue" points="1588.34,-89.1597 1591.55,-79.0647 1582.74,-84.951 1588.34,-89.1597"/>
</g>
<!-- Node38 -->
<g id="node38" class="node"><title>Node38</title>
<polygon fill="white" stroke="#bfbfbf" points="827.115,-349 827.115,-369 862.568,-369 862.568,-349 827.115,-349"/>
<text text-anchor="middle" x="844.841" y="-355" font-family="Helvetica,sans-Serif" font-size="10.00">map</text>
</g>
<!-- Node7&#45;&gt;Node38 -->
<g id="edge69" class="edge"><title>Node7&#45;&gt;Node38</title>
<path fill="none" stroke="midnightblue" d="M946.968,-406.878C926.527,-397.495 894.551,-382.818 871.83,-372.388"/>
<polygon fill="midnightblue" stroke="midnightblue" points="873.267,-369.197 862.719,-368.206 870.347,-375.559 873.267,-369.197"/>
</g>
<!-- Node33 -->
<g id="node33" class="node"><title>Node33</title>
<polygon fill="white" stroke="#bfbfbf" points="2027.45,-59 2027.45,-79 2066.23,-79 2066.23,-59 2027.45,-59"/>
<text text-anchor="middle" x="2046.84" y="-65" font-family="Helvetica,sans-Serif" font-size="10.00">utility</text>
</g>
<!-- Node7&#45;&gt;Node33 -->
<g id="edge70" class="edge"><title>Node7&#45;&gt;Node33</title>
<path fill="none" stroke="midnightblue" d="M1012.35,-415.993C1216.01,-415.373 2033.84,-406.385 2033.84,-302 2033.84,-302 2033.84,-302 2033.84,-184 2033.84,-150.429 2039.48,-111.654 2043.33,-89.0753"/>
<polygon fill="midnightblue" stroke="midnightblue" points="2046.79,-89.5785 2045.09,-79.1214 2039.9,-88.3578 2046.79,-89.5785"/>
</g>
<!-- Node8&#45;&gt;Node3 -->
<g id="edge9" class="edge"><title>Node8&#45;&gt;Node3</title>
<path fill="none" stroke="midnightblue" d="M888.349,-290.984C913.136,-256.64 1001.92,-133.627 1035.16,-87.5725"/>
<polygon fill="midnightblue" stroke="midnightblue" points="1038.18,-89.3609 1041.2,-79.2039 1032.51,-85.2642 1038.18,-89.3609"/>
</g>
<!-- Node9 -->
<g id="node9" class="node"><title>Node9</title>
<g id="a_node9"><a xlink:href="_url_8h.html" target="_top" xlink:title="cinder/Url.h">
<polygon fill="white" stroke="black" points="804.277,-233 804.277,-253 871.405,-253 871.405,-233 804.277,-233"/>
<text text-anchor="middle" x="837.841" y="-239" font-family="Helvetica,sans-Serif" font-size="10.00">cinder/Url.h</text>
</a>
</g>
</g>
<!-- Node8&#45;&gt;Node9 -->
<g id="edge10" class="edge"><title>Node8&#45;&gt;Node9</title>
<path fill="none" stroke="midnightblue" d="M874.576,-290.753C868.232,-282.68 858.865,-270.757 851.177,-260.973"/>
<polygon fill="midnightblue" stroke="midnightblue" points="853.902,-258.776 844.972,-253.075 848.398,-263.101 853.902,-258.776"/>
</g>
<!-- Node11 -->
<g id="node11" class="node"><title>Node11</title>
<g id="a_node11"><a xlink:href="_buffer_8h.html" target="_top" xlink:title="cinder/Buffer.h">
<polygon fill="white" stroke="black" points="709.685,-117 709.685,-137 789.997,-137 789.997,-117 709.685,-117"/>
<text text-anchor="middle" x="749.841" y="-123" font-family="Helvetica,sans-Serif" font-size="10.00">cinder/Buffer.h</text>
</a>
</g>
</g>
<!-- Node8&#45;&gt;Node11 -->
<g id="edge28" class="edge"><title>Node8&#45;&gt;Node11</title>
<path fill="none" stroke="midnightblue" d="M883.926,-290.609C886.465,-276.913 889.331,-251.024 879.841,-232 858.444,-189.107 810.212,-158.142 778.893,-141.651"/>
<polygon fill="midnightblue" stroke="midnightblue" points="780.265,-138.422 769.765,-137.001 777.087,-144.659 780.265,-138.422"/>
</g>
<!-- Node10 -->
<g id="node10" class="node"><title>Node10</title>
<g id="a_node10"><a xlink:href="_stream_8h.html" target="_top" xlink:title="cinder/Stream.h">
<polygon fill="white" stroke="black" points="638.548,-175 638.548,-195 725.134,-195 725.134,-175 638.548,-175"/>
<text text-anchor="middle" x="681.841" y="-181" font-family="Helvetica,sans-Serif" font-size="10.00">cinder/Stream.h</text>
</a>
</g>
</g>
<!-- Node8&#45;&gt;Node10 -->
<g id="edge29" class="edge"><title>Node8&#45;&gt;Node10</title>
<path fill="none" stroke="midnightblue" d="M864.023,-290.945C846.328,-281.867 818.496,-267.358 794.841,-254 763.3,-236.189 727.588,-214.423 704.905,-200.391"/>
<polygon fill="midnightblue" stroke="midnightblue" points="706.66,-197.361 696.317,-195.063 702.969,-203.309 706.66,-197.361"/>
</g>
<!-- Node15 -->
<g id="node15" class="node"><title>Node15</title>
<g id="a_node15"><a xlink:href="_filesystem_8h.html" target="_top" xlink:title="cinder/Filesystem.h">
<polygon fill="white" stroke="black" points="13.7724,-117 13.7724,-137 115.91,-137 115.91,-117 13.7724,-117"/>
<text text-anchor="middle" x="64.8412" y="-123" font-family="Helvetica,sans-Serif" font-size="10.00">cinder/Filesystem.h</text>
</a>
</g>
</g>
<!-- Node8&#45;&gt;Node15 -->
<g id="edge30" class="edge"><title>Node8&#45;&gt;Node15</title>
<path fill="none" stroke="midnightblue" d="M839.066,-290.995C701.217,-261.974 268.826,-170.944 117.653,-139.118"/>
<polygon fill="midnightblue" stroke="midnightblue" points="118.191,-135.655 107.685,-137.02 116.749,-142.505 118.191,-135.655"/>
</g>
<!-- Node9&#45;&gt;Node3 -->
<g id="edge11" class="edge"><title>Node9&#45;&gt;Node3</title>
<path fill="none" stroke="midnightblue" d="M837.676,-232.874C837.779,-209.795 841.37,-148.62 874.841,-116 906.781,-84.8716 957.276,-74.1876 995.486,-70.8087"/>
<polygon fill="midnightblue" stroke="midnightblue" points="996.197,-74.2658 1005.91,-70.0384 995.681,-67.2848 996.197,-74.2658"/>
</g>
<!-- Node9&#45;&gt;Node10 -->
<g id="edge12" class="edge"><title>Node9&#45;&gt;Node10</title>
<path fill="none" stroke="midnightblue" d="M812.43,-232.878C786.403,-223.535 745.754,-208.943 716.724,-198.522"/>
<polygon fill="midnightblue" stroke="midnightblue" points="717.578,-195.11 706.983,-195.025 715.213,-201.698 717.578,-195.11"/>
</g>
<!-- Node20 -->
<g id="node20" class="node"><title>Node20</title>
<polygon fill="white" stroke="#bfbfbf" points="1189.67,-117 1189.67,-137 1244.01,-137 1244.01,-117 1189.67,-117"/>
<text text-anchor="middle" x="1216.84" y="-123" font-family="Helvetica,sans-Serif" font-size="10.00">iostream</text>
</g>
<!-- Node9&#45;&gt;Node20 -->
<g id="edge27" class="edge"><title>Node9&#45;&gt;Node20</title>
<path fill="none" stroke="midnightblue" d="M867.898,-232.959C936.54,-212.312 1104.66,-161.742 1179.67,-139.182"/>
<polygon fill="midnightblue" stroke="midnightblue" points="1181.04,-142.423 1189.61,-136.19 1179.03,-135.719 1181.04,-142.423"/>
</g>
<!-- Node10&#45;&gt;Node3 -->
<g id="edge13" class="edge"><title>Node10&#45;&gt;Node3</title>
<path fill="none" stroke="midnightblue" d="M681.465,-174.881C681.397,-160.072 683.627,-130.949 700.841,-116 743.886,-78.6209 910.225,-71.3235 996.012,-70.092"/>
<polygon fill="midnightblue" stroke="midnightblue" points="996.104,-73.5913 1006.06,-69.9703 996.019,-66.5918 996.104,-73.5913"/>
</g>
<!-- Node10&#45;&gt;Node11 -->
<g id="edge14" class="edge"><title>Node10&#45;&gt;Node11</title>
<path fill="none" stroke="midnightblue" d="M693.07,-174.753C703.368,-166.272 718.825,-153.543 731.011,-143.507"/>
<polygon fill="midnightblue" stroke="midnightblue" points="733.327,-146.134 738.821,-137.075 728.877,-140.731 733.327,-146.134"/>
</g>
<!-- Node10&#45;&gt;Node12 -->
<g id="edge16" class="edge"><title>Node10&#45;&gt;Node12</title>
<path fill="none" stroke="midnightblue" d="M722.448,-174.94C766.009,-165.222 835.259,-149.771 882.313,-139.273"/>
<polygon fill="midnightblue" stroke="midnightblue" points="883.295,-142.64 892.293,-137.047 881.771,-135.808 883.295,-142.64"/>
</g>
<!-- Node10&#45;&gt;Node15 -->
<g id="edge20" class="edge"><title>Node10&#45;&gt;Node15</title>
<path fill="none" stroke="midnightblue" d="M638.337,-175.929C633.789,-175.217 629.227,-174.556 624.841,-174 422.72,-148.368 370.799,-155.845 167.841,-138 154.435,-136.821 140.056,-135.476 126.421,-134.163"/>
<polygon fill="midnightblue" stroke="midnightblue" points="126.459,-130.65 116.168,-133.168 125.783,-137.618 126.459,-130.65"/>
</g>
<!-- Node17 -->
<g id="node17" class="node"><title>Node17</title>
<polygon fill="white" stroke="#bfbfbf" points="210.132,-117 210.132,-137 329.55,-137 329.55,-117 210.132,-117"/>
<text text-anchor="middle" x="269.841" y="-123" font-family="Helvetica,sans-Serif" font-size="10.00">boost/noncopyable.hpp</text>
</g>
<!-- Node10&#45;&gt;Node17 -->
<g id="edge23" class="edge"><title>Node10&#45;&gt;Node17</title>
<path fill="none" stroke="midnightblue" d="M638.308,-176.139C633.765,-175.386 629.213,-174.658 624.841,-174 501.372,-155.41 467.501,-155.188 339.842,-138.11"/>
<polygon fill="midnightblue" stroke="midnightblue" points="340.048,-134.607 329.671,-136.741 339.114,-141.544 340.048,-134.607"/>
</g>
<!-- Node14 -->
<g id="node14" class="node"><title>Node14</title>
<polygon fill="white" stroke="#bfbfbf" points="537.615,-59 537.615,-79 578.068,-79 578.068,-59 537.615,-59"/>
<text text-anchor="middle" x="557.841" y="-65" font-family="Helvetica,sans-Serif" font-size="10.00">string</text>
</g>
<!-- Node10&#45;&gt;Node14 -->
<g id="edge24" class="edge"><title>Node10&#45;&gt;Node14</title>
<path fill="none" stroke="midnightblue" d="M638.333,-175.956C633.786,-175.239 629.225,-174.57 624.841,-174 577.955,-167.909 232.828,-172.818 200.841,-138 194.226,-130.8 194.384,-123.342 200.841,-116 222.317,-91.5799 444.894,-76.4597 527.342,-71.6608"/>
<polygon fill="midnightblue" stroke="midnightblue" points="527.785,-75.1413 537.569,-71.0769 527.386,-68.1527 527.785,-75.1413"/>
</g>
<!-- Node18 -->
<g id="node18" class="node"><title>Node18</title>
<polygon fill="white" stroke="#bfbfbf" points="347.415,-117 347.415,-137 496.267,-137 496.267,-117 347.415,-117"/>
<text text-anchor="middle" x="421.841" y="-123" font-family="Helvetica,sans-Serif" font-size="10.00">boost/iostreams/concepts.hpp</text>
</g>
<!-- Node10&#45;&gt;Node18 -->
<g id="edge25" class="edge"><title>Node10&#45;&gt;Node18</title>
<path fill="none" stroke="midnightblue" d="M639.779,-174.94C594.561,-165.201 522.621,-149.706 473.875,-139.207"/>
<polygon fill="midnightblue" stroke="midnightblue" points="474.356,-135.731 463.843,-137.047 472.882,-142.574 474.356,-135.731"/>
</g>
<!-- Node19 -->
<g id="node19" class="node"><title>Node19</title>
<polygon fill="white" stroke="#bfbfbf" points="514.147,-117 514.147,-137 653.536,-137 653.536,-117 514.147,-117"/>
<text text-anchor="middle" x="583.841" y="-123" font-family="Helvetica,sans-Serif" font-size="10.00">boost/iostreams/stream.hpp</text>
</g>
<!-- Node10&#45;&gt;Node19 -->
<g id="edge26" class="edge"><title>Node10&#45;&gt;Node19</title>
<path fill="none" stroke="midnightblue" d="M665.659,-174.753C650.103,-165.864 626.382,-152.309 608.48,-142.079"/>
<polygon fill="midnightblue" stroke="midnightblue" points="610.142,-138.998 599.723,-137.075 606.669,-145.075 610.142,-138.998"/>
</g>
<!-- Node11&#45;&gt;Node3 -->
<g id="edge15" class="edge"><title>Node11&#45;&gt;Node3</title>
<path fill="none" stroke="midnightblue" d="M790.031,-118.448C843.235,-108.449 937.138,-90.8033 995.736,-79.7916"/>
<polygon fill="midnightblue" stroke="midnightblue" points="996.711,-83.1697 1005.89,-77.8829 995.418,-76.2901 996.711,-83.1697"/>
</g>
<!-- Node12&#45;&gt;Node3 -->
<g id="edge17" class="edge"><title>Node12&#45;&gt;Node3</title>
<path fill="none" stroke="midnightblue" d="M951.574,-116.878C970.119,-107.847 998.734,-93.9132 1019.95,-83.5812"/>
<polygon fill="midnightblue" stroke="midnightblue" points="1021.66,-86.643 1029.12,-79.1181 1018.59,-80.3495 1021.66,-86.643"/>
</g>
<!-- Node12&#45;&gt;Node13 -->
<g id="edge18" class="edge"><title>Node12&#45;&gt;Node13</title>
<path fill="none" stroke="midnightblue" d="M981.988,-124.241C1086.39,-120.084 1337.83,-107.832 1546.84,-80 1553.42,-79.124 1560.42,-77.9469 1567.09,-76.7082"/>
<polygon fill="midnightblue" stroke="midnightblue" points="1568.03,-80.0912 1577.17,-74.7453 1566.69,-73.2201 1568.03,-80.0912"/>
</g>
<!-- Node12&#45;&gt;Node14 -->
<g id="edge19" class="edge"><title>Node12&#45;&gt;Node14</title>
<path fill="none" stroke="midnightblue" d="M883.431,-118.621C804.681,-106.861 653.007,-84.2114 588.299,-74.5484"/>
<polygon fill="midnightblue" stroke="midnightblue" points="588.736,-71.0749 578.329,-73.0595 587.702,-77.9981 588.736,-71.0749"/>
</g>
<!-- Node15&#45;&gt;Node3 -->
<g id="edge21" class="edge"><title>Node15&#45;&gt;Node3</title>
<path fill="none" stroke="midnightblue" d="M116.226,-117.597C120.823,-116.996 125.411,-116.451 129.841,-116 458.574,-82.5656 856.115,-73.123 996.077,-70.7348"/>
<polygon fill="midnightblue" stroke="midnightblue" points="996.155,-74.2341 1006.1,-70.5685 996.038,-67.235 996.155,-74.2341"/>
</g>
<!-- Node16 -->
<g id="node16" class="node"><title>Node16</title>
<polygon fill="white" stroke="#bfbfbf" points="11.2626,-59 11.2626,-79 118.42,-79 118.42,-59 11.2626,-59"/>
<text text-anchor="middle" x="64.8412" y="-65" font-family="Helvetica,sans-Serif" font-size="10.00">boost/filesystem.hpp</text>
</g>
<!-- Node15&#45;&gt;Node16 -->
<g id="edge22" class="edge"><title>Node15&#45;&gt;Node16</title>
<path fill="none" stroke="midnightblue" d="M64.8412,-116.753C64.8412,-109.25 64.8412,-98.4238 64.8412,-89.0781"/>
<polygon fill="midnightblue" stroke="midnightblue" points="68.3413,-89.0752 64.8412,-79.0752 61.3413,-89.0752 68.3413,-89.0752"/>
</g>
<!-- Node21&#45;&gt;Node3 -->
<g id="edge32" class="edge"><title>Node21&#45;&gt;Node3</title>
<path fill="none" stroke="midnightblue" d="M740.783,-290.988C751.087,-260.913 788.562,-163.237 854.841,-116 896.345,-86.4203 954.345,-75.6667 995.908,-71.8584"/>
<polygon fill="midnightblue" stroke="midnightblue" points="996.416,-75.3288 1006.1,-71.0326 995.85,-68.3517 996.416,-75.3288"/>
</g>
<!-- Node21&#45;&gt;Node9 -->
<g id="edge33" class="edge"><title>Node21&#45;&gt;Node9</title>
<path fill="none" stroke="midnightblue" d="M754.354,-290.753C770.227,-281.864 794.432,-268.309 812.7,-258.079"/>
<polygon fill="midnightblue" stroke="midnightblue" points="814.621,-261.015 821.636,-253.075 811.2,-254.907 814.621,-261.015"/>
</g>
<!-- Node21&#45;&gt;Node10 -->
<g id="edge34" class="edge"><title>Node21&#45;&gt;Node10</title>
<path fill="none" stroke="midnightblue" d="M733.259,-290.671C723.983,-271.789 702.843,-228.754 690.756,-204.149"/>
<polygon fill="midnightblue" stroke="midnightblue" points="693.881,-202.572 686.331,-195.139 687.598,-205.658 693.881,-202.572"/>
</g>
<!-- Node21&#45;&gt;Node14 -->
<g id="edge35" class="edge"><title>Node21&#45;&gt;Node14</title>
<path fill="none" stroke="midnightblue" d="M686.109,-296.7C533.587,-285.789 90.9891,-245.266 4.84124,-138 -1.28139,-130.376 -1.77992,-123.195 4.84124,-116 40.394,-77.3671 416.378,-71.1736 527.241,-70.1861"/>
<polygon fill="midnightblue" stroke="midnightblue" points="527.441,-73.6847 537.412,-70.1038 527.384,-66.6849 527.441,-73.6847"/>
</g>
<!-- Node22&#45;&gt;Node3 -->
<g id="edge37" class="edge"><title>Node22&#45;&gt;Node3</title>
<path fill="none" stroke="midnightblue" d="M1111.45,-348.993C1090.47,-331.299 1047.84,-289.723 1047.84,-244 1047.84,-244 1047.84,-244 1047.84,-184 1047.84,-150.798 1047.84,-112.157 1047.84,-89.4623"/>
<polygon fill="midnightblue" stroke="midnightblue" points="1051.34,-89.1616 1047.84,-79.1617 1044.34,-89.1617 1051.34,-89.1616"/>
</g>
<!-- Node23 -->
<g id="node23" class="node"><title>Node23</title>
<g id="a_node23"><a xlink:href="_area_8h.html" target="_top" xlink:title="cinder/Area.h">
<polygon fill="white" stroke="black" points="1361.1,-233 1361.1,-253 1436.58,-253 1436.58,-233 1361.1,-233"/>
<text text-anchor="middle" x="1398.84" y="-239" font-family="Helvetica,sans-Serif" font-size="10.00">cinder/Area.h</text>
</a>
</g>
</g>
<!-- Node22&#45;&gt;Node23 -->
<g id="edge38" class="edge"><title>Node22&#45;&gt;Node23</title>
<path fill="none" stroke="midnightblue" d="M1167.43,-353.973C1227.79,-347.765 1331.48,-334.196 1361.84,-312 1378.24,-300.012 1388.17,-278.481 1393.56,-262.851"/>
<polygon fill="midnightblue" stroke="midnightblue" points="1396.94,-263.752 1396.58,-253.163 1390.26,-261.665 1396.94,-263.752"/>
</g>
<!-- Node34 -->
<g id="node34" class="node"><title>Node34</title>
<g id="a_node34"><a xlink:href="_channel_8h.html" target="_top" xlink:title="cinder/Channel.h">
<polygon fill="white" stroke="black" points="1114.04,-291 1114.04,-311 1205.64,-311 1205.64,-291 1114.04,-291"/>
<text text-anchor="middle" x="1159.84" y="-297" font-family="Helvetica,sans-Serif" font-size="10.00">cinder/Channel.h</text>
</a>
</g>
</g>
<!-- Node22&#45;&gt;Node34 -->
<g id="edge55" class="edge"><title>Node22&#45;&gt;Node34</title>
<path fill="none" stroke="midnightblue" d="M1128.95,-348.753C1134.18,-340.843 1141.85,-329.237 1148.23,-319.568"/>
<polygon fill="midnightblue" stroke="midnightblue" points="1151.25,-321.348 1153.85,-311.075 1145.41,-317.489 1151.25,-321.348"/>
</g>
<!-- Node35 -->
<g id="node35" class="node"><title>Node35</title>
<g id="a_node35"><a xlink:href="_chan_traits_8h.html" target="_top" xlink:title="cinder/ChanTraits.h">
<polygon fill="white" stroke="black" points="1113.39,-175 1113.39,-195 1216.29,-195 1216.29,-175 1113.39,-175"/>
<text text-anchor="middle" x="1164.84" y="-181" font-family="Helvetica,sans-Serif" font-size="10.00">cinder/ChanTraits.h</text>
</a>
</g>
</g>
<!-- Node22&#45;&gt;Node35 -->
<g id="edge58" class="edge"><title>Node22&#45;&gt;Node35</title>
<path fill="none" stroke="midnightblue" d="M1117.28,-348.757C1110.12,-335.671 1099.22,-310.998 1104.84,-290 1113.82,-256.474 1136.5,-222.565 1151.26,-202.953"/>
<polygon fill="midnightblue" stroke="midnightblue" points="1154.06,-205.054 1157.41,-195.001 1148.52,-200.772 1154.06,-205.054"/>
</g>
<!-- Node36 -->
<g id="node36" class="node"><title>Node36</title>
<g id="a_node36"><a xlink:href="_color_8h.html" target="_top" xlink:title="cinder/Color.h">
<polygon fill="white" stroke="black" points="1264.99,-233 1264.99,-253 1342.69,-253 1342.69,-233 1264.99,-233"/>
<text text-anchor="middle" x="1303.84" y="-239" font-family="Helvetica,sans-Serif" font-size="10.00">cinder/Color.h</text>
</a>
</g>
</g>
<!-- Node22&#45;&gt;Node36 -->
<g id="edge60" class="edge"><title>Node22&#45;&gt;Node36</title>
<path fill="none" stroke="midnightblue" d="M1167.43,-355.24C1225.69,-350.597 1322.91,-338.938 1344.84,-312 1358.38,-295.37 1340.33,-273.845 1324.08,-259.512"/>
<polygon fill="midnightblue" stroke="midnightblue" points="1326.32,-256.82 1316.39,-253.107 1321.83,-262.198 1326.32,-256.82"/>
</g>
<!-- Node22&#45;&gt;Node15 -->
<g id="edge65" class="edge"><title>Node22&#45;&gt;Node15</title>
<path fill="none" stroke="midnightblue" d="M1078.13,-356.115C997.333,-352.108 821.94,-340.643 676.841,-312 498.173,-276.731 458.141,-248.781 283.841,-196 220.389,-176.786 146.818,-153.795 103.143,-140.071"/>
<polygon fill="midnightblue" stroke="midnightblue" points="104.089,-136.7 93.4997,-137.039 101.989,-143.378 104.089,-136.7"/>
</g>
<!-- Node37 -->
<g id="node37" class="node"><title>Node37</title>
<polygon fill="white" stroke="#bfbfbf" points="1223.2,-291 1223.2,-311 1336.48,-311 1336.48,-291 1223.2,-291"/>
<text text-anchor="middle" x="1279.84" y="-297" font-family="Helvetica,sans-Serif" font-size="10.00">boost/logic/tribool.hpp</text>
</g>
<!-- Node22&#45;&gt;Node37 -->
<g id="edge66" class="edge"><title>Node22&#45;&gt;Node37</title>
<path fill="none" stroke="midnightblue" d="M1148.42,-348.878C1174.72,-339.494 1215.88,-324.815 1245.12,-314.386"/>
<polygon fill="midnightblue" stroke="midnightblue" points="1246.3,-317.682 1254.54,-311.025 1243.94,-311.088 1246.3,-317.682"/>
</g>
<!-- Node23&#45;&gt;Node3 -->
<g id="edge39" class="edge"><title>Node23&#45;&gt;Node3</title>
<path fill="none" stroke="midnightblue" d="M1388.04,-232.614C1354.58,-203.563 1254.83,-117.002 1252.84,-116 1204.13,-91.4784 1142.39,-79.9093 1099.46,-74.5275"/>
<polygon fill="midnightblue" stroke="midnightblue" points="1099.85,-71.05 1089.51,-73.3489 1099.03,-78.0013 1099.85,-71.05"/>
</g>
<!-- Node24 -->
<g id="node24" class="node"><title>Node24</title>
<g id="a_node24"><a xlink:href="_vector_8h.html" target="_top" xlink:title="cinder/Vector.h">
<polygon fill="white" stroke="black" points="1354.76,-175 1354.76,-195 1436.92,-195 1436.92,-175 1354.76,-175"/>
<text text-anchor="middle" x="1395.84" y="-181" font-family="Helvetica,sans-Serif" font-size="10.00">cinder/Vector.h</text>
</a>
</g>
</g>
<!-- Node23&#45;&gt;Node24 -->
<g id="edge40" class="edge"><title>Node23&#45;&gt;Node24</title>
<path fill="none" stroke="midnightblue" d="M1398.35,-232.753C1397.94,-225.25 1397.36,-214.424 1396.86,-205.078"/>
<polygon fill="midnightblue" stroke="midnightblue" points="1400.36,-204.874 1396.33,-195.075 1393.37,-205.248 1400.36,-204.874"/>
</g>
<!-- Node23&#45;&gt;Node20 -->
<g id="edge52" class="edge"><title>Node23&#45;&gt;Node20</title>
<path fill="none" stroke="midnightblue" d="M1377.54,-232.883C1358.27,-224.311 1329.4,-210.638 1305.84,-196 1280.01,-179.951 1252.52,-158.13 1235.04,-143.581"/>
<polygon fill="midnightblue" stroke="midnightblue" points="1237.22,-140.841 1227.32,-137.079 1232.71,-146.196 1237.22,-140.841"/>
</g>
<!-- Node23&#45;&gt;Node33 -->
<g id="edge53" class="edge"><title>Node23&#45;&gt;Node33</title>
<path fill="none" stroke="midnightblue" d="M1436.59,-240.42C1527.14,-235.444 1762.32,-215.449 1939.84,-138 1972.5,-123.752 2006.64,-100.334 2027.33,-85.0399"/>
<polygon fill="midnightblue" stroke="midnightblue" points="2029.43,-87.8362 2035.33,-79.0329 2025.23,-82.2384 2029.43,-87.8362"/>
</g>
<!-- Node23&#45;&gt;Node13 -->
<g id="edge54" class="edge"><title>Node23&#45;&gt;Node13</title>
<path fill="none" stroke="midnightblue" d="M1409.31,-232.995C1441.5,-205.317 1539.26,-121.241 1580.34,-85.9075"/>
<polygon fill="midnightblue" stroke="midnightblue" points="1582.69,-88.5074 1587.99,-79.3333 1578.12,-83.2 1582.69,-88.5074"/>
</g>
<!-- Node25 -->
<g id="node25" class="node"><title>Node25</title>
<polygon fill="white" stroke="#bfbfbf" points="1495.23,-59 1495.23,-79 1538.46,-79 1538.46,-59 1495.23,-59"/>
<text text-anchor="middle" x="1516.84" y="-65" font-family="Helvetica,sans-Serif" font-size="10.00">cmath</text>
</g>
<!-- Node24&#45;&gt;Node25 -->
<g id="edge41" class="edge"><title>Node24&#45;&gt;Node25</title>
<path fill="none" stroke="midnightblue" d="M1419.24,-174.95C1436.95,-167.202 1461.03,-154.657 1477.84,-138 1492,-123.973 1502.72,-103.741 1509.31,-88.9932"/>
<polygon fill="midnightblue" stroke="midnightblue" points="1512.7,-89.9654 1513.36,-79.3914 1506.25,-87.2435 1512.7,-89.9654"/>
</g>
<!-- Node26 -->
<g id="node26" class="node"><title>Node26</title>
<polygon fill="white" stroke="#bfbfbf" points="1300.11,-117 1300.11,-137 1345.57,-137 1345.57,-117 1300.11,-117"/>
<text text-anchor="middle" x="1322.84" y="-123" font-family="Helvetica,sans-Serif" font-size="10.00">cstring</text>
</g>
<!-- Node24&#45;&gt;Node26 -->
<g id="edge42" class="edge"><title>Node24&#45;&gt;Node26</title>
<path fill="none" stroke="midnightblue" d="M1383.79,-174.753C1372.63,-166.19 1355.82,-153.298 1342.68,-143.219"/>
<polygon fill="midnightblue" stroke="midnightblue" points="1344.74,-140.385 1334.67,-137.075 1340.48,-145.939 1344.74,-140.385"/>
</g>
<!-- Node24&#45;&gt;Node20 -->
<g id="edge43" class="edge"><title>Node24&#45;&gt;Node20</title>
<path fill="none" stroke="midnightblue" d="M1366.68,-174.878C1335.98,-165.272 1287.54,-150.118 1254.09,-139.653"/>
<polygon fill="midnightblue" stroke="midnightblue" points="1254.81,-136.212 1244.22,-136.567 1252.72,-142.893 1254.81,-136.212"/>
</g>
<!-- Node27 -->
<g id="node27" class="node"><title>Node27</title>
<polygon fill="white" stroke="#bfbfbf" points="1363.73,-117 1363.73,-137 1411.96,-137 1411.96,-117 1363.73,-117"/>
<text text-anchor="middle" x="1387.84" y="-123" font-family="Helvetica,sans-Serif" font-size="10.00">cassert</text>
</g>
<!-- Node24&#45;&gt;Node27 -->
<g id="edge44" class="edge"><title>Node24&#45;&gt;Node27</title>
<path fill="none" stroke="midnightblue" d="M1394.52,-174.753C1393.45,-167.25 1391.9,-156.424 1390.57,-147.078"/>
<polygon fill="midnightblue" stroke="midnightblue" points="1394.02,-146.48 1389.14,-137.075 1387.09,-147.47 1394.02,-146.48"/>
</g>
<!-- Node28 -->
<g id="node28" class="node"><title>Node28</title>
<polygon fill="white" stroke="#bfbfbf" points="1430.45,-117 1430.45,-137 1469.23,-137 1469.23,-117 1430.45,-117"/>
<text text-anchor="middle" x="1449.84" y="-123" font-family="Helvetica,sans-Serif" font-size="10.00">limits</text>
</g>
<!-- Node24&#45;&gt;Node28 -->
<g id="edge45" class="edge"><title>Node24&#45;&gt;Node28</title>
<path fill="none" stroke="midnightblue" d="M1404.76,-174.753C1412.7,-166.516 1424.51,-154.274 1434.04,-144.382"/>
<polygon fill="midnightblue" stroke="midnightblue" points="1436.67,-146.703 1441.09,-137.075 1431.63,-141.844 1436.67,-146.703"/>
</g>
<!-- Node29 -->
<g id="node29" class="node"><title>Node29</title>
<g id="a_node29"><a xlink:href="_cinder_math_8h.html" target="_top" xlink:title="cinder/CinderMath.h">
<polygon fill="white" stroke="black" points="1714.82,-117 1714.82,-137 1820.86,-137 1820.86,-117 1714.82,-117"/>
<text text-anchor="middle" x="1767.84" y="-123" font-family="Helvetica,sans-Serif" font-size="10.00">cinder/CinderMath.h</text>
</a>
</g>
</g>
<!-- Node24&#45;&gt;Node29 -->
<g id="edge46" class="edge"><title>Node24&#45;&gt;Node29</title>
<path fill="none" stroke="midnightblue" d="M1437.07,-177.793C1501.98,-168.023 1628.43,-148.987 1704.79,-137.492"/>
<polygon fill="midnightblue" stroke="midnightblue" points="1705.4,-140.94 1714.76,-135.99 1704.35,-134.018 1705.4,-140.94"/>
</g>
<!-- Node29&#45;&gt;Node3 -->
<g id="edge47" class="edge"><title>Node29&#45;&gt;Node3</title>
<path fill="none" stroke="midnightblue" d="M1714.61,-121.859C1580.94,-111.463 1232.42,-84.3559 1099.96,-74.0534"/>
<polygon fill="midnightblue" stroke="midnightblue" points="1099.92,-70.5401 1089.68,-73.2541 1099.38,-77.519 1099.92,-70.5401"/>
</g>
<!-- Node29&#45;&gt;Node25 -->
<g id="edge48" class="edge"><title>Node29&#45;&gt;Node25</title>
<path fill="none" stroke="midnightblue" d="M1727.23,-116.94C1677.42,-105.826 1594.01,-87.2173 1548.62,-77.09"/>
<polygon fill="midnightblue" stroke="midnightblue" points="1549.26,-73.6469 1538.74,-74.8853 1547.74,-80.4789 1549.26,-73.6469"/>
</g>
<!-- Node30 -->
<g id="node30" class="node"><title>Node30</title>
<polygon fill="white" stroke="#bfbfbf" points="1638.95,-59 1638.95,-79 1682.73,-79 1682.73,-59 1638.95,-59"/>
<text text-anchor="middle" x="1660.84" y="-65" font-family="Helvetica,sans-Serif" font-size="10.00">climits</text>
</g>
<!-- Node29&#45;&gt;Node30 -->
<g id="edge49" class="edge"><title>Node29&#45;&gt;Node30</title>
<path fill="none" stroke="midnightblue" d="M1750.17,-116.753C1733.03,-107.783 1706.81,-94.0601 1687.21,-83.7986"/>
<polygon fill="midnightblue" stroke="midnightblue" points="1688.66,-80.6112 1678.18,-79.0752 1685.42,-86.8132 1688.66,-80.6112"/>
</g>
<!-- Node31 -->
<g id="node31" class="node"><title>Node31</title>
<polygon fill="white" stroke="#bfbfbf" points="1700.89,-59 1700.89,-79 1740.79,-79 1740.79,-59 1700.89,-59"/>
<text text-anchor="middle" x="1720.84" y="-65" font-family="Helvetica,sans-Serif" font-size="10.00">cfloat</text>
</g>
<!-- Node29&#45;&gt;Node31 -->
<g id="edge50" class="edge"><title>Node29&#45;&gt;Node31</title>
<path fill="none" stroke="midnightblue" d="M1760.08,-116.753C1753.3,-108.68 1743.3,-96.7571 1735.09,-86.9727"/>
<polygon fill="midnightblue" stroke="midnightblue" points="1737.57,-84.4849 1728.46,-79.0752 1732.21,-88.985 1737.57,-84.4849"/>
</g>
<!-- Node32 -->
<g id="node32" class="node"><title>Node32</title>
<polygon fill="white" stroke="#bfbfbf" points="1758.44,-59 1758.44,-79 1817.25,-79 1817.25,-59 1758.44,-59"/>
<text text-anchor="middle" x="1787.84" y="-65" font-family="Helvetica,sans-Serif" font-size="10.00">functional</text>
</g>
<!-- Node29&#45;&gt;Node32 -->
<g id="edge51" class="edge"><title>Node29&#45;&gt;Node32</title>
<path fill="none" stroke="midnightblue" d="M1771.14,-116.753C1773.85,-109.169 1777.77,-98.1881 1781.14,-88.7739"/>
<polygon fill="midnightblue" stroke="midnightblue" points="1784.53,-89.6698 1784.6,-79.0752 1777.94,-87.3154 1784.53,-89.6698"/>
</g>
<!-- Node34&#45;&gt;Node3 -->
<g id="edge56" class="edge"><title>Node34&#45;&gt;Node3</title>
<path fill="none" stroke="midnightblue" d="M1154.79,-290.916C1144.87,-272.96 1122.28,-231.582 1104.84,-196 1086.35,-158.27 1066.51,-113.244 1055.8,-88.5286"/>
<polygon fill="midnightblue" stroke="midnightblue" points="1058.97,-87.0551 1051.8,-79.2601 1052.55,-89.8285 1058.97,-87.0551"/>
</g>
<!-- Node34&#45;&gt;Node23 -->
<g id="edge57" class="edge"><title>Node34&#45;&gt;Node23</title>
<path fill="none" stroke="midnightblue" d="M1198.51,-290.94C1240.14,-281.184 1306.43,-265.653 1351.24,-255.153"/>
<polygon fill="midnightblue" stroke="midnightblue" points="1352.08,-258.551 1361.02,-252.862 1350.49,-251.735 1352.08,-258.551"/>
</g>
<!-- Node35&#45;&gt;Node3 -->
<g id="edge59" class="edge"><title>Node35&#45;&gt;Node3</title>
<path fill="none" stroke="midnightblue" d="M1156.66,-174.968C1144.55,-161.72 1121.03,-136.382 1099.84,-116 1089.12,-105.685 1076.65,-94.6221 1066.61,-85.9313"/>
<polygon fill="midnightblue" stroke="midnightblue" points="1068.7,-83.1171 1058.83,-79.2573 1064.14,-88.4276 1068.7,-83.1171"/>
</g>
<!-- Node36&#45;&gt;Node3 -->
<g id="edge61" class="edge"><title>Node36&#45;&gt;Node3</title>
<path fill="none" stroke="midnightblue" d="M1294.09,-232.59C1279.63,-218.871 1251.33,-192.952 1224.84,-174 1174.23,-137.796 1110.33,-102.603 1074.8,-83.8804"/>
<polygon fill="midnightblue" stroke="midnightblue" points="1076.05,-80.5842 1065.57,-79.0491 1072.81,-86.7865 1076.05,-80.5842"/>
</g>
<!-- Node36&#45;&gt;Node35 -->
<g id="edge62" class="edge"><title>Node36&#45;&gt;Node35</title>
<path fill="none" stroke="midnightblue" d="M1281.2,-232.878C1258.28,-223.644 1222.63,-209.283 1196.83,-198.889"/>
<polygon fill="midnightblue" stroke="midnightblue" points="1198.06,-195.609 1187.47,-195.118 1195.44,-202.102 1198.06,-195.609"/>
</g>
<!-- Node36&#45;&gt;Node24 -->
<g id="edge63" class="edge"><title>Node36&#45;&gt;Node24</title>
<path fill="none" stroke="midnightblue" d="M1319.03,-232.753C1333.5,-223.946 1355.5,-210.558 1372.25,-200.362"/>
<polygon fill="midnightblue" stroke="midnightblue" points="1374.21,-203.264 1380.93,-195.075 1370.57,-197.285 1374.21,-203.264"/>
</g>
<!-- Node36&#45;&gt;Node29 -->
<g id="edge64" class="edge"><title>Node36&#45;&gt;Node29</title>
<path fill="none" stroke="midnightblue" d="M1342.81,-233.544C1345.86,-232.986 1348.9,-232.463 1351.84,-232 1500.64,-208.611 1550.61,-255.844 1688.84,-196 1715.15,-184.612 1739.14,-161.285 1753.62,-145.152"/>
<polygon fill="midnightblue" stroke="midnightblue" points="1756.37,-147.32 1760.28,-137.473 1751.08,-142.732 1756.37,-147.32"/>
</g>
<!-- Node39&#45;&gt;Node3 -->
<g id="edge72" class="edge"><title>Node39&#45;&gt;Node3</title>
<path fill="none" stroke="midnightblue" d="M1631.27,-174.527C1624.93,-159.208 1610.16,-129.37 1586.84,-116 1545.24,-92.1442 1226.89,-77.0723 1099.9,-71.9543"/>
<polygon fill="midnightblue" stroke="midnightblue" points="1099.78,-68.447 1089.65,-71.5462 1099.51,-75.4415 1099.78,-68.447"/>
</g>
<!-- Node40 -->
<g id="node40" class="node"><title>Node40</title>
<g id="a_node40"><a xlink:href="_function_8h.html" target="_top" xlink:title="cinder/Function.h">
<polygon fill="white" stroke="black" points="1838.49,-117 1838.49,-137 1931.2,-137 1931.2,-117 1838.49,-117"/>
<text text-anchor="middle" x="1884.84" y="-123" font-family="Helvetica,sans-Serif" font-size="10.00">cinder/Function.h</text>
</a>
</g>
</g>
<!-- Node39&#45;&gt;Node40 -->
<g id="edge73" class="edge"><title>Node39&#45;&gt;Node40</title>
<path fill="none" stroke="midnightblue" d="M1675.29,-174.94C1718.67,-165.222 1787.65,-149.771 1834.51,-139.273"/>
<polygon fill="midnightblue" stroke="midnightblue" points="1835.46,-142.648 1844.45,-137.047 1833.93,-135.817 1835.46,-142.648"/>
</g>
<!-- Node39&#45;&gt;Node14 -->
<g id="edge80" class="edge"><title>Node39&#45;&gt;Node14</title>
<path fill="none" stroke="midnightblue" d="M1619,-174.843C1591.4,-159.417 1532.22,-128.695 1477.84,-116 1389.72,-95.4281 738.277,-75.2753 588.488,-70.8811"/>
<polygon fill="midnightblue" stroke="midnightblue" points="588.299,-67.3742 578.201,-70.5811 588.095,-74.3713 588.299,-67.3742"/>
</g>
<!-- Node40&#45;&gt;Node3 -->
<g id="edge74" class="edge"><title>Node40&#45;&gt;Node3</title>
<path fill="none" stroke="midnightblue" d="M1838.39,-117.146C1835.5,-116.722 1832.64,-116.335 1829.84,-116 1556,-83.1734 1225.28,-73.4887 1099.64,-70.8811"/>
<polygon fill="midnightblue" stroke="midnightblue" points="1099.61,-67.3798 1089.54,-70.6776 1099.47,-74.3783 1099.61,-67.3798"/>
</g>
<!-- Node41 -->
<g id="node41" class="node"><title>Node41</title>
<polygon fill="white" stroke="#bfbfbf" points="1952.28,-59 1952.28,-79 2009.41,-79 2009.41,-59 1952.28,-59"/>
<text text-anchor="middle" x="1980.84" y="-65" font-family="Helvetica,sans-Serif" font-size="10.00">algorithm</text>
</g>
<!-- Node40&#45;&gt;Node41 -->
<g id="edge75" class="edge"><title>Node40&#45;&gt;Node41</title>
<path fill="none" stroke="midnightblue" d="M1900.69,-116.753C1915.79,-107.946 1938.74,-94.5575 1956.22,-84.3617"/>
<polygon fill="midnightblue" stroke="midnightblue" points="1958.41,-87.1372 1965.28,-79.0752 1954.88,-81.0907 1958.41,-87.1372"/>
</g>
<!-- Node40&#45;&gt;Node13 -->
<g id="edge76" class="edge"><title>Node40&#45;&gt;Node13</title>
<path fill="none" stroke="midnightblue" d="M1838.33,-117.538C1835.46,-117.017 1832.61,-116.501 1829.84,-116 1744.09,-100.487 1719.19,-101.795 1630.69,-79.951"/>
<polygon fill="midnightblue" stroke="midnightblue" points="1631.3,-76.4973 1620.75,-77.469 1629.61,-83.2886 1631.3,-76.4973"/>
</g>
<!-- Node40&#45;&gt;Node33 -->
<g id="edge77" class="edge"><title>Node40&#45;&gt;Node33</title>
<path fill="none" stroke="midnightblue" d="M1911.23,-116.878C1940.39,-106.798 1987.22,-90.6085 2017.51,-80.1386"/>
<polygon fill="midnightblue" stroke="midnightblue" points="2018.79,-83.3994 2027.1,-76.8243 2016.5,-76.7835 2018.79,-83.3994"/>
</g>
<!-- Node42 -->
<g id="node42" class="node"><title>Node42</title>
<polygon fill="white" stroke="#bfbfbf" points="1835.14,-59 1835.14,-79 1934.54,-79 1934.54,-59 1835.14,-59"/>
<text text-anchor="middle" x="1884.84" y="-65" font-family="Helvetica,sans-Serif" font-size="10.00">boost/signals2.hpp</text>
</g>
<!-- Node40&#45;&gt;Node42 -->
<g id="edge78" class="edge"><title>Node40&#45;&gt;Node42</title>
<path fill="none" stroke="midnightblue" d="M1884.84,-116.753C1884.84,-109.25 1884.84,-98.4238 1884.84,-89.0781"/>
<polygon fill="midnightblue" stroke="midnightblue" points="1888.34,-89.0752 1884.84,-79.0752 1881.34,-89.0752 1888.34,-89.0752"/>
</g>
<!-- Node40&#45;&gt;Node32 -->
<g id="edge79" class="edge"><title>Node40&#45;&gt;Node32</title>
<path fill="none" stroke="midnightblue" d="M1868.82,-116.753C1853.43,-107.864 1829.95,-94.3092 1812.23,-84.0793"/>
<polygon fill="midnightblue" stroke="midnightblue" points="1813.97,-81.0439 1803.56,-79.0752 1810.47,-87.1062 1813.97,-81.0439"/>
</g>
</g>
</svg>
