<?xml version="1.0" encoding="UTF-8" standalone="no"?>
<!DOCTYPE svg PUBLIC "-//W3C//DTD SVG 1.1//EN"
 "http://www.w3.org/Graphics/SVG/1.1/DTD/svg11.dtd">
<!-- Generated by graphviz version 2.30.1 (20140712.1814)
 -->
<!-- Title: include/cinder/audio/cocoa/ContextAudioUnit.h Pages: 1 -->
<!--zoomable 460 -->
<svg id="main" version="1.1" xmlns="http://www.w3.org/2000/svg" xmlns:xlink="http://www.w3.org/1999/xlink" xml:space="preserve" onload="init(evt)">
<style type="text/css"><![CDATA[
.edge:hover path { stroke: red; }
.edge:hover polygon { stroke: red; fill: red; }
]]></style>
<script type="text/javascript"><![CDATA[
var edges = document.getElementsByTagName('g');
if (edges && edges.length) {
  for (var i=0;i<edges.length;i++) {
    if (edges[i].id.substr(0,4)=='edge') {
      edges[i].setAttribute('class','edge');
    }
  }
}
]]></script>
        <defs>
                <circle id="rim" cx="0" cy="0" r="7"/>
                <circle id="rim2" cx="0" cy="0" r="3.5"/>
                <g id="zoomPlus">
                        <use xlink:href="#rim" fill="#404040">
                                <set attributeName="fill" to="#808080" begin="zoomplus.mouseover" end="zoomplus.mouseout"/>
                        </use>
                        <path d="M-4,0h8M0,-4v8" fill="none" stroke="white" stroke-width="1.5" pointer-events="none"/>
                </g>
                <g id="zoomMin">
                        <use xlink:href="#rim" fill="#404040">
                                <set attributeName="fill" to="#808080" begin="zoomminus.mouseover" end="zoomminus.mouseout"/>
                        </use>
                        <path d="M-4,0h8" fill="none" stroke="white" stroke-width="1.5" pointer-events="none"/>
                </g>
                <g id="dirArrow">
                        <path fill="none" stroke="white" stroke-width="1.5" d="M0,-3.0v7 M-2.5,-0.5L0,-3.0L2.5,-0.5"/>
                </g>
               <g id="resetDef">
                       <use xlink:href="#rim2" fill="#404040">
                               <set attributeName="fill" to="#808080" begin="reset.mouseover" end="reset.mouseout"/>
                       </use>
               </g>
        </defs>

<script type="text/javascript">
var viewWidth = 1369;
var viewHeight = 460;
var sectionId = 'dynsection-0';
</script>
<script xlink:href="svgpan.js"/>
<svg id="graph" class="graph">
<g id="viewport">
<title>include/cinder/audio/cocoa/ContextAudioUnit.h</title>
<polygon fill="white" stroke="white" points="-4,5 -4,-456 1366,-456 1366,5 -4,5"/>
<!-- Node1 -->
<g id="node1" class="node"><title>Node1</title>
<polygon fill="#bfbfbf" stroke="black" points="1079.8,-419 1079.8,-451 1214.2,-451 1214.2,-419 1079.8,-419"/>
<text text-anchor="start" x="1087.8" y="-437" font-family="Helvetica,sans-Serif" font-size="10.00">include/cinder/audio</text>
<text text-anchor="middle" x="1147" y="-425" font-family="Helvetica,sans-Serif" font-size="10.00">/cocoa/ContextAudioUnit.h</text>
</g>
<!-- Node2 -->
<g id="node2" class="node"><title>Node2</title>
<g id="a_node2"><a xlink:href="_context_8h.html" target="_top" xlink:title="cinder/audio/Context.h">
<polygon fill="white" stroke="black" points="586.968,-361 586.968,-381 703.032,-381 703.032,-361 586.968,-361"/>
<text text-anchor="middle" x="645" y="-367" font-family="Helvetica,sans-Serif" font-size="10.00">cinder/audio/Context.h</text>
</a>
</g>
</g>
<!-- Node1&#45;&gt;Node2 -->
<g id="edge1" class="edge"><title>Node1&#45;&gt;Node2</title>
<path fill="none" stroke="midnightblue" d="M1079.56,-425.671C983.842,-413.849 809.555,-392.324 713.346,-380.441"/>
<polygon fill="midnightblue" stroke="midnightblue" points="713.501,-376.934 703.148,-379.182 712.643,-383.881 713.501,-376.934"/>
</g>
<!-- Node33 -->
<g id="node33" class="node"><title>Node33</title>
<g id="a_node33"><a xlink:href="_ring_buffer_8h.html" target="_top" xlink:title="cinder/audio/dsp/RingBuffer.h">
<polygon fill="white" stroke="black" points="1214.49,-233 1214.49,-253 1361.51,-253 1361.51,-233 1214.49,-233"/>
<text text-anchor="middle" x="1288" y="-239" font-family="Helvetica,sans-Serif" font-size="10.00">cinder/audio/dsp/RingBuffer.h</text>
</a>
</g>
</g>
<!-- Node1&#45;&gt;Node33 -->
<g id="edge49" class="edge"><title>Node1&#45;&gt;Node33</title>
<path fill="none" stroke="midnightblue" d="M1156.58,-418.719C1166.19,-403.573 1181.61,-379.829 1196,-360 1222.25,-323.819 1255.3,-283.261 1273.79,-260.971"/>
<polygon fill="midnightblue" stroke="midnightblue" points="1276.62,-263.037 1280.33,-253.114 1271.24,-258.558 1276.62,-263.037"/>
</g>
<!-- Node34 -->
<g id="node34" class="node"><title>Node34</title>
<g id="a_node34"><a xlink:href="_cinder_core_audio_8h.html" target="_top" xlink:title="cinder/audio/cocoa\l/CinderCoreAudio.h">
<polygon fill="white" stroke="black" points="1045.09,-291 1045.09,-323 1148.91,-323 1148.91,-291 1045.09,-291"/>
<text text-anchor="start" x="1053.09" y="-309" font-family="Helvetica,sans-Serif" font-size="10.00">cinder/audio/cocoa</text>
<text text-anchor="middle" x="1097" y="-297" font-family="Helvetica,sans-Serif" font-size="10.00">/CinderCoreAudio.h</text>
</a>
</g>
</g>
<!-- Node1&#45;&gt;Node34 -->
<g id="edge52" class="edge"><title>Node1&#45;&gt;Node34</title>
<path fill="none" stroke="midnightblue" d="M1140.87,-418.55C1132.35,-397.085 1116.85,-358.014 1106.74,-332.537"/>
<polygon fill="midnightblue" stroke="midnightblue" points="1109.97,-331.187 1103.02,-323.183 1103.46,-333.769 1109.97,-331.187"/>
</g>
<!-- Node37 -->
<g id="node37" class="node"><title>Node37</title>
<polygon fill="white" stroke="#bfbfbf" points="1205.08,-361 1205.08,-381 1318.92,-381 1318.92,-361 1205.08,-361"/>
<text text-anchor="middle" x="1262" y="-367" font-family="Helvetica,sans-Serif" font-size="10.00">AudioUnit/AudioUnit.h</text>
</g>
<!-- Node1&#45;&gt;Node37 -->
<g id="edge59" class="edge"><title>Node1&#45;&gt;Node37</title>
<path fill="none" stroke="midnightblue" d="M1174.84,-418.992C1193.52,-408.92 1217.95,-395.749 1236.19,-385.914"/>
<polygon fill="midnightblue" stroke="midnightblue" points="1237.96,-388.935 1245.1,-381.109 1234.64,-382.774 1237.96,-388.935"/>
</g>
<!-- Node3 -->
<g id="node3" class="node"><title>Node3</title>
<g id="a_node3"><a xlink:href="_node_8h.html" target="_top" xlink:title="cinder/audio/Node.h">
<polygon fill="white" stroke="black" points="550.247,-233 550.247,-253 655.753,-253 655.753,-233 550.247,-233"/>
<text text-anchor="middle" x="603" y="-239" font-family="Helvetica,sans-Serif" font-size="10.00">cinder/audio/Node.h</text>
</a>
</g>
</g>
<!-- Node2&#45;&gt;Node3 -->
<g id="edge2" class="edge"><title>Node2&#45;&gt;Node3</title>
<path fill="none" stroke="midnightblue" d="M652.626,-360.708C664.24,-345.352 683.736,-313.992 671,-290 663.452,-275.782 649.33,-265.156 635.902,-257.72"/>
<polygon fill="midnightblue" stroke="midnightblue" points="637.305,-254.507 626.807,-253.077 634.122,-260.741 637.305,-254.507"/>
</g>
<!-- Node23 -->
<g id="node23" class="node"><title>Node23</title>
<g id="a_node23"><a xlink:href="_input_node_8h.html" target="_top" xlink:title="cinder/audio/InputNode.h">
<polygon fill="white" stroke="black" points="535.126,-297 535.126,-317 662.874,-317 662.874,-297 535.126,-297"/>
<text text-anchor="middle" x="599" y="-303" font-family="Helvetica,sans-Serif" font-size="10.00">cinder/audio/InputNode.h</text>
</a>
</g>
</g>
<!-- Node2&#45;&gt;Node23 -->
<g id="edge25" class="edge"><title>Node2&#45;&gt;Node23</title>
<path fill="none" stroke="midnightblue" d="M638.213,-360.852C631.282,-351.511 620.356,-336.784 611.795,-325.246"/>
<polygon fill="midnightblue" stroke="midnightblue" points="614.585,-323.131 605.815,-317.186 608.963,-327.302 614.585,-323.131"/>
</g>
<!-- Node31 -->
<g id="node31" class="node"><title>Node31</title>
<g id="a_node31"><a xlink:href="_output_node_8h.html" target="_top" xlink:title="cinder/audio/OutputNode.h">
<polygon fill="white" stroke="black" points="381.237,-297 381.237,-317 516.763,-317 516.763,-297 381.237,-297"/>
<text text-anchor="middle" x="449" y="-303" font-family="Helvetica,sans-Serif" font-size="10.00">cinder/audio/OutputNode.h</text>
</a>
</g>
</g>
<!-- Node2&#45;&gt;Node31 -->
<g id="edge44" class="edge"><title>Node2&#45;&gt;Node31</title>
<path fill="none" stroke="midnightblue" d="M616.5,-360.985C582.388,-350.194 525.13,-332.082 487.207,-320.086"/>
<polygon fill="midnightblue" stroke="midnightblue" points="488.124,-316.705 477.534,-317.026 486.013,-323.379 488.124,-316.705"/>
</g>
<!-- Node32 -->
<g id="node32" class="node"><title>Node32</title>
<polygon fill="white" stroke="#bfbfbf" points="719.384,-297 719.384,-317 762.616,-317 762.616,-297 719.384,-297"/>
<text text-anchor="middle" x="741" y="-303" font-family="Helvetica,sans-Serif" font-size="10.00">mutex</text>
</g>
<!-- Node2&#45;&gt;Node32 -->
<g id="edge47" class="edge"><title>Node2&#45;&gt;Node32</title>
<path fill="none" stroke="midnightblue" d="M659.165,-360.852C674.692,-350.824 699.83,-334.589 718.153,-322.756"/>
<polygon fill="midnightblue" stroke="midnightblue" points="720.275,-325.551 726.777,-317.186 716.477,-319.671 720.275,-325.551"/>
</g>
<!-- Node22 -->
<g id="node22" class="node"><title>Node22</title>
<polygon fill="white" stroke="#bfbfbf" points="-0.669922,-175 -0.669922,-195 28.6699,-195 28.6699,-175 -0.669922,-175"/>
<text text-anchor="middle" x="14" y="-181" font-family="Helvetica,sans-Serif" font-size="10.00">set</text>
</g>
<!-- Node2&#45;&gt;Node22 -->
<g id="edge48" class="edge"><title>Node2&#45;&gt;Node22</title>
<path fill="none" stroke="midnightblue" d="M586.747,-363.629C530.968,-356.724 444.778,-343.94 372,-324 242.61,-288.549 95.2229,-223.462 38.2456,-197.314"/>
<polygon fill="midnightblue" stroke="midnightblue" points="39.5302,-194.052 28.9838,-193.04 36.5972,-200.408 39.5302,-194.052"/>
</g>
<!-- Node4 -->
<g id="node4" class="node"><title>Node4</title>
<g id="a_node4"><a xlink:href="audio_2_buffer_8h.html" target="_top" xlink:title="cinder/audio/Buffer.h">
<polygon fill="white" stroke="black" points="854.221,-175 854.221,-195 961.779,-195 961.779,-175 854.221,-175"/>
<text text-anchor="middle" x="908" y="-181" font-family="Helvetica,sans-Serif" font-size="10.00">cinder/audio/Buffer.h</text>
</a>
</g>
</g>
<!-- Node3&#45;&gt;Node4 -->
<g id="edge3" class="edge"><title>Node3&#45;&gt;Node4</title>
<path fill="none" stroke="midnightblue" d="M652.343,-232.94C706.021,-223.085 791.8,-207.335 849,-196.833"/>
<polygon fill="midnightblue" stroke="midnightblue" points="849.777,-200.249 858.981,-195 848.513,-193.364 849.777,-200.249"/>
</g>
<!-- Node12 -->
<g id="node12" class="node"><title>Node12</title>
<g id="a_node12"><a xlink:href="audio_2_exception_8h.html" target="_top" xlink:title="cinder/audio/Exception.h">
<polygon fill="white" stroke="black" points="109.242,-175 109.242,-195 234.758,-195 234.758,-175 109.242,-175"/>
<text text-anchor="middle" x="172" y="-181" font-family="Helvetica,sans-Serif" font-size="10.00">cinder/audio/Exception.h</text>
</a>
</g>
</g>
<!-- Node3&#45;&gt;Node12 -->
<g id="edge11" class="edge"><title>Node3&#45;&gt;Node12</title>
<path fill="none" stroke="midnightblue" d="M550.151,-235.133C473.608,-225.188 331.614,-206.739 245.085,-195.496"/>
<polygon fill="midnightblue" stroke="midnightblue" points="245.443,-192.013 235.075,-194.195 244.541,-198.955 245.443,-192.013"/>
</g>
<!-- Node19 -->
<g id="node19" class="node"><title>Node19</title>
<polygon fill="white" stroke="#bfbfbf" points="462.291,-175 462.291,-195 581.709,-195 581.709,-175 462.291,-175"/>
<text text-anchor="middle" x="522" y="-181" font-family="Helvetica,sans-Serif" font-size="10.00">boost/noncopyable.hpp</text>
</g>
<!-- Node3&#45;&gt;Node19 -->
<g id="edge20" class="edge"><title>Node3&#45;&gt;Node19</title>
<path fill="none" stroke="midnightblue" d="M589.624,-232.753C577.122,-224.109 558.236,-211.052 543.597,-200.931"/>
<polygon fill="midnightblue" stroke="midnightblue" points="545.343,-197.883 535.127,-195.075 541.362,-203.641 545.343,-197.883"/>
</g>
<!-- Node20 -->
<g id="node20" class="node"><title>Node20</title>
<polygon fill="white" stroke="#bfbfbf" points="599.357,-175 599.357,-195 712.643,-195 712.643,-175 599.357,-175"/>
<text text-anchor="middle" x="656" y="-181" font-family="Helvetica,sans-Serif" font-size="10.00">boost/logic/tribool.hpp</text>
</g>
<!-- Node3&#45;&gt;Node20 -->
<g id="edge21" class="edge"><title>Node3&#45;&gt;Node20</title>
<path fill="none" stroke="midnightblue" d="M611.752,-232.753C619.547,-224.516 631.134,-212.274 640.495,-202.382"/>
<polygon fill="midnightblue" stroke="midnightblue" points="643.079,-204.744 647.411,-195.075 637.995,-199.932 643.079,-204.744"/>
</g>
<!-- Node9 -->
<g id="node9" class="node"><title>Node9</title>
<polygon fill="white" stroke="#bfbfbf" points="908.943,-117 908.943,-137 961.057,-137 961.057,-117 908.943,-117"/>
<text text-anchor="middle" x="935" y="-123" font-family="Helvetica,sans-Serif" font-size="10.00">memory</text>
</g>
<!-- Node3&#45;&gt;Node9 -->
<g id="edge22" class="edge"><title>Node3&#45;&gt;Node9</title>
<path fill="none" stroke="midnightblue" d="M628.52,-232.995C665.738,-219.886 737.11,-194.838 798,-174 832.25,-162.279 871.41,-149.158 899.067,-139.939"/>
<polygon fill="midnightblue" stroke="midnightblue" points="900.324,-143.209 908.706,-136.728 898.112,-136.568 900.324,-143.209"/>
</g>
<!-- Node21 -->
<g id="node21" class="node"><title>Node21</title>
<polygon fill="white" stroke="#bfbfbf" points="980.273,-175 980.273,-195 1025.73,-195 1025.73,-175 980.273,-175"/>
<text text-anchor="middle" x="1003" y="-181" font-family="Helvetica,sans-Serif" font-size="10.00">atomic</text>
</g>
<!-- Node3&#45;&gt;Node21 -->
<g id="edge23" class="edge"><title>Node3&#45;&gt;Node21</title>
<path fill="none" stroke="midnightblue" d="M656.098,-234.175C661.467,-233.423 666.84,-232.685 672,-232 804.246,-214.432 839.447,-223.448 970,-196 970.103,-195.978 970.205,-195.957 970.308,-195.935"/>
<polygon fill="midnightblue" stroke="midnightblue" points="971.194,-199.321 980.054,-193.511 969.504,-192.528 971.194,-199.321"/>
</g>
<!-- Node3&#45;&gt;Node22 -->
<g id="edge24" class="edge"><title>Node3&#45;&gt;Node22</title>
<path fill="none" stroke="midnightblue" d="M550.098,-236.853C533.721,-235.275 515.616,-233.548 499,-232 321.714,-215.479 277.112,-214.284 100,-196 79.5174,-193.885 56.3294,-191.17 39.1968,-189.103"/>
<polygon fill="midnightblue" stroke="midnightblue" points="39.2515,-185.584 28.9021,-187.851 38.4063,-192.533 39.2515,-185.584"/>
</g>
<!-- Node5 -->
<g id="node5" class="node"><title>Node5</title>
<g id="a_node5"><a xlink:href="_cinder_assert_8h.html" target="_top" xlink:title="cinder/CinderAssert.h">
<polygon fill="white" stroke="black" points="1217.92,-117 1217.92,-137 1330.08,-137 1330.08,-117 1217.92,-117"/>
<text text-anchor="middle" x="1274" y="-123" font-family="Helvetica,sans-Serif" font-size="10.00">cinder/CinderAssert.h</text>
</a>
</g>
</g>
<!-- Node4&#45;&gt;Node5 -->
<g id="edge4" class="edge"><title>Node4&#45;&gt;Node5</title>
<path fill="none" stroke="midnightblue" d="M961.953,-175.412C965.013,-174.932 968.045,-174.459 971,-174 1052.55,-161.337 1146.52,-147.131 1207.92,-137.901"/>
<polygon fill="midnightblue" stroke="midnightblue" points="1208.49,-141.354 1217.86,-136.407 1207.45,-134.432 1208.49,-141.354"/>
</g>
<!-- Node8 -->
<g id="node8" class="node"><title>Node8</title>
<polygon fill="white" stroke="#bfbfbf" points="630.384,-59 630.384,-79 673.616,-79 673.616,-59 630.384,-59"/>
<text text-anchor="middle" x="652" y="-65" font-family="Helvetica,sans-Serif" font-size="10.00">vector</text>
</g>
<!-- Node4&#45;&gt;Node8 -->
<g id="edge7" class="edge"><title>Node4&#45;&gt;Node8</title>
<path fill="none" stroke="midnightblue" d="M904.485,-174.865C898.283,-160.033 883.942,-130.878 862,-116 807.207,-78.8476 727.528,-71.0956 683.753,-69.8384"/>
<polygon fill="midnightblue" stroke="midnightblue" points="683.756,-66.3379 673.692,-69.6471 683.623,-73.3367 683.756,-66.3379"/>
</g>
<!-- Node4&#45;&gt;Node9 -->
<g id="edge8" class="edge"><title>Node4&#45;&gt;Node9</title>
<path fill="none" stroke="midnightblue" d="M912.459,-174.753C916.194,-167.006 921.638,-155.714 926.24,-146.169"/>
<polygon fill="midnightblue" stroke="midnightblue" points="929.434,-147.603 930.624,-137.075 923.129,-144.563 929.434,-147.603"/>
</g>
<!-- Node10 -->
<g id="node10" class="node"><title>Node10</title>
<polygon fill="white" stroke="#bfbfbf" points="808.828,-117 808.828,-137 853.172,-137 853.172,-117 808.828,-117"/>
<text text-anchor="middle" x="831" y="-123" font-family="Helvetica,sans-Serif" font-size="10.00">cstdlib</text>
</g>
<!-- Node4&#45;&gt;Node10 -->
<g id="edge9" class="edge"><title>Node4&#45;&gt;Node10</title>
<path fill="none" stroke="midnightblue" d="M895.285,-174.753C883.512,-166.19 865.784,-153.298 851.926,-143.219"/>
<polygon fill="midnightblue" stroke="midnightblue" points="853.624,-140.126 843.478,-137.075 849.507,-145.788 853.624,-140.126"/>
</g>
<!-- Node11 -->
<g id="node11" class="node"><title>Node11</title>
<polygon fill="white" stroke="#bfbfbf" points="566.436,-117 566.436,-137 623.564,-137 623.564,-117 566.436,-117"/>
<text text-anchor="middle" x="595" y="-123" font-family="Helvetica,sans-Serif" font-size="10.00">algorithm</text>
</g>
<!-- Node4&#45;&gt;Node11 -->
<g id="edge10" class="edge"><title>Node4&#45;&gt;Node11</title>
<path fill="none" stroke="midnightblue" d="M857.363,-174.94C794.98,-163.779 690.348,-145.059 633.909,-134.961"/>
<polygon fill="midnightblue" stroke="midnightblue" points="634.413,-131.496 623.952,-133.18 633.18,-138.387 634.413,-131.496"/>
</g>
<!-- Node6 -->
<g id="node6" class="node"><title>Node6</title>
<g id="a_node6"><a xlink:href="_current_function_8h.html" target="_top" xlink:title="cinder/CurrentFunction.h">
<polygon fill="white" stroke="black" points="1157.97,-59 1157.97,-79 1284.03,-79 1284.03,-59 1157.97,-59"/>
<text text-anchor="middle" x="1221" y="-65" font-family="Helvetica,sans-Serif" font-size="10.00">cinder/CurrentFunction.h</text>
</a>
</g>
</g>
<!-- Node5&#45;&gt;Node6 -->
<g id="edge5" class="edge"><title>Node5&#45;&gt;Node6</title>
<path fill="none" stroke="midnightblue" d="M1265.25,-116.753C1257.45,-108.516 1245.87,-96.2738 1236.5,-86.3824"/>
<polygon fill="midnightblue" stroke="midnightblue" points="1239,-83.9323 1229.59,-79.0752 1233.92,-88.744 1239,-83.9323"/>
</g>
<!-- Node7 -->
<g id="node7" class="node"><title>Node7</title>
<polygon fill="white" stroke="#bfbfbf" points="1301.88,-59 1301.88,-79 1350.12,-79 1350.12,-59 1301.88,-59"/>
<text text-anchor="middle" x="1326" y="-65" font-family="Helvetica,sans-Serif" font-size="10.00">cassert</text>
</g>
<!-- Node5&#45;&gt;Node7 -->
<g id="edge6" class="edge"><title>Node5&#45;&gt;Node7</title>
<path fill="none" stroke="midnightblue" d="M1282.59,-116.753C1290.16,-108.598 1301.38,-96.5158 1310.51,-86.6769"/>
<polygon fill="midnightblue" stroke="midnightblue" points="1313.33,-88.7847 1317.57,-79.0752 1308.2,-84.0216 1313.33,-88.7847"/>
</g>
<!-- Node13 -->
<g id="node13" class="node"><title>Node13</title>
<g id="a_node13"><a xlink:href="_exception_8h.html" target="_top" xlink:title="cinder/Exception.h">
<polygon fill="white" stroke="black" points="122.865,-117 122.865,-137 221.135,-137 221.135,-117 122.865,-117"/>
<text text-anchor="middle" x="172" y="-123" font-family="Helvetica,sans-Serif" font-size="10.00">cinder/Exception.h</text>
</a>
</g>
</g>
<!-- Node12&#45;&gt;Node13 -->
<g id="edge12" class="edge"><title>Node12&#45;&gt;Node13</title>
<path fill="none" stroke="midnightblue" d="M172,-174.753C172,-167.25 172,-156.424 172,-147.078"/>
<polygon fill="midnightblue" stroke="midnightblue" points="175.5,-147.075 172,-137.075 168.5,-147.075 175.5,-147.075"/>
</g>
<!-- Node18 -->
<g id="node18" class="node"><title>Node18</title>
<polygon fill="white" stroke="#bfbfbf" points="74.7734,-59 74.7734,-79 115.227,-79 115.227,-59 74.7734,-59"/>
<text text-anchor="middle" x="95" y="-65" font-family="Helvetica,sans-Serif" font-size="10.00">string</text>
</g>
<!-- Node12&#45;&gt;Node18 -->
<g id="edge19" class="edge"><title>Node12&#45;&gt;Node18</title>
<path fill="none" stroke="midnightblue" d="M155.626,-174.969C142.506,-166.917 124.596,-153.951 114,-138 104.259,-123.337 99.4681,-103.726 97.1385,-89.333"/>
<polygon fill="midnightblue" stroke="midnightblue" points="100.563,-88.5413 95.7505,-79.1027 93.6268,-89.4825 100.563,-88.5413"/>
</g>
<!-- Node14 -->
<g id="node14" class="node"><title>Node14</title>
<g id="a_node14"><a xlink:href="_cinder_8h.html" target="_top" xlink:title="cinder/Cinder.h">
<polygon fill="white" stroke="black" points="258.367,-59 258.367,-79 341.633,-79 341.633,-59 258.367,-59"/>
<text text-anchor="middle" x="300" y="-65" font-family="Helvetica,sans-Serif" font-size="10.00">cinder/Cinder.h</text>
</a>
</g>
</g>
<!-- Node13&#45;&gt;Node14 -->
<g id="edge13" class="edge"><title>Node13&#45;&gt;Node14</title>
<path fill="none" stroke="midnightblue" d="M192.85,-116.878C213.77,-107.725 246.204,-93.5357 269.91,-83.1643"/>
<polygon fill="midnightblue" stroke="midnightblue" points="271.4,-86.3329 279.159,-79.1181 268.594,-79.9198 271.4,-86.3329"/>
</g>
<!-- Node13&#45;&gt;Node8 -->
<g id="edge17" class="edge"><title>Node13&#45;&gt;Node8</title>
<path fill="none" stroke="midnightblue" d="M221.222,-117.434C224.528,-116.927 227.81,-116.444 231,-116 375.768,-95.8406 549.57,-79.2516 620.015,-72.8444"/>
<polygon fill="midnightblue" stroke="midnightblue" points="620.385,-76.3253 630.029,-71.939 619.755,-69.3537 620.385,-76.3253"/>
</g>
<!-- Node13&#45;&gt;Node18 -->
<g id="edge18" class="edge"><title>Node13&#45;&gt;Node18</title>
<path fill="none" stroke="midnightblue" d="M159.285,-116.753C147.512,-108.19 129.784,-95.2978 115.926,-85.2186"/>
<polygon fill="midnightblue" stroke="midnightblue" points="117.624,-82.1264 107.478,-79.0752 113.507,-87.7875 117.624,-82.1264"/>
</g>
<!-- Node15 -->
<g id="node15" class="node"><title>Node15</title>
<polygon fill="white" stroke="#bfbfbf" points="189.549,-1 189.549,-21 234.451,-21 234.451,-1 189.549,-1"/>
<text text-anchor="middle" x="212" y="-7" font-family="Helvetica,sans-Serif" font-size="10.00">cstdint</text>
</g>
<!-- Node14&#45;&gt;Node15 -->
<g id="edge14" class="edge"><title>Node14&#45;&gt;Node15</title>
<path fill="none" stroke="midnightblue" d="M285.469,-58.7527C271.757,-50.0272 250.979,-36.8051 235.015,-26.6458"/>
<polygon fill="midnightblue" stroke="midnightblue" points="236.577,-23.4912 226.261,-21.0752 232.819,-29.3968 236.577,-23.4912"/>
</g>
<!-- Node16 -->
<g id="node16" class="node"><title>Node16</title>
<polygon fill="white" stroke="#bfbfbf" points="252.53,-1 252.53,-21 347.47,-21 347.47,-1 252.53,-1"/>
<text text-anchor="middle" x="300" y="-7" font-family="Helvetica,sans-Serif" font-size="10.00">boost/version.hpp</text>
</g>
<!-- Node14&#45;&gt;Node16 -->
<g id="edge15" class="edge"><title>Node14&#45;&gt;Node16</title>
<path fill="none" stroke="midnightblue" d="M300,-58.7527C300,-51.2504 300,-40.4238 300,-31.0781"/>
<polygon fill="midnightblue" stroke="midnightblue" points="303.5,-31.0752 300,-21.0752 296.5,-31.0752 303.5,-31.0752"/>
</g>
<!-- Node17 -->
<g id="node17" class="node"><title>Node17</title>
<polygon fill="white" stroke="#bfbfbf" points="365.621,-1 365.621,-21 498.379,-21 498.379,-1 365.621,-1"/>
<text text-anchor="middle" x="432" y="-7" font-family="Helvetica,sans-Serif" font-size="10.00">boost/checked_delete.hpp</text>
</g>
<!-- Node14&#45;&gt;Node17 -->
<g id="edge16" class="edge"><title>Node14&#45;&gt;Node17</title>
<path fill="none" stroke="midnightblue" d="M321.502,-58.878C343.172,-49.6848 376.821,-35.4095 401.295,-25.0263"/>
<polygon fill="midnightblue" stroke="midnightblue" points="402.668,-28.2457 410.507,-21.1181 399.935,-21.8016 402.668,-28.2457"/>
</g>
<!-- Node23&#45;&gt;Node3 -->
<g id="edge26" class="edge"><title>Node23&#45;&gt;Node3</title>
<path fill="none" stroke="midnightblue" d="M599.59,-296.852C600.157,-288.06 601.032,-274.498 601.754,-263.313"/>
<polygon fill="midnightblue" stroke="midnightblue" points="605.256,-263.39 602.407,-253.186 598.271,-262.94 605.256,-263.39"/>
</g>
<!-- Node24 -->
<g id="node24" class="node"><title>Node24</title>
<g id="a_node24"><a xlink:href="_param_8h.html" target="_top" xlink:title="cinder/audio/Param.h">
<polygon fill="white" stroke="black" points="681.473,-233 681.473,-253 792.527,-253 792.527,-233 681.473,-233"/>
<text text-anchor="middle" x="737" y="-239" font-family="Helvetica,sans-Serif" font-size="10.00">cinder/audio/Param.h</text>
</a>
</g>
</g>
<!-- Node23&#45;&gt;Node24 -->
<g id="edge27" class="edge"><title>Node23&#45;&gt;Node24</title>
<path fill="none" stroke="midnightblue" d="M619.066,-296.985C642.369,-286.516 681.011,-269.154 707.677,-257.174"/>
<polygon fill="midnightblue" stroke="midnightblue" points="709.222,-260.317 716.909,-253.026 706.353,-253.932 709.222,-260.317"/>
</g>
<!-- Node27 -->
<g id="node27" class="node"><title>Node27</title>
<g id="a_node27"><a xlink:href="_device_8h.html" target="_top" xlink:title="cinder/audio/Device.h">
<polygon fill="white" stroke="black" points="377.917,-233 377.917,-253 490.083,-253 490.083,-233 377.917,-233"/>
<text text-anchor="middle" x="434" y="-239" font-family="Helvetica,sans-Serif" font-size="10.00">cinder/audio/Device.h</text>
</a>
</g>
</g>
<!-- Node23&#45;&gt;Node27 -->
<g id="edge32" class="edge"><title>Node23&#45;&gt;Node27</title>
<path fill="none" stroke="midnightblue" d="M575.008,-296.985C546.657,-286.332 499.316,-268.543 467.395,-256.548"/>
<polygon fill="midnightblue" stroke="midnightblue" points="468.613,-253.267 458.021,-253.026 466.151,-259.82 468.613,-253.267"/>
</g>
<!-- Node24&#45;&gt;Node4 -->
<g id="edge28" class="edge"><title>Node24&#45;&gt;Node4</title>
<path fill="none" stroke="midnightblue" d="M764.855,-232.878C793.633,-223.453 838.721,-208.688 870.594,-198.25"/>
<polygon fill="midnightblue" stroke="midnightblue" points="872.026,-201.464 880.441,-195.025 869.848,-194.811 872.026,-201.464"/>
</g>
<!-- Node25 -->
<g id="node25" class="node"><title>Node25</title>
<polygon fill="white" stroke="#bfbfbf" points="807.5,-175 807.5,-195 836.5,-195 836.5,-175 807.5,-175"/>
<text text-anchor="middle" x="821.611" y="-181" font-family="Helvetica,sans-Serif" font-size="10.00">list</text>
</g>
<!-- Node24&#45;&gt;Node25 -->
<g id="edge29" class="edge"><title>Node24&#45;&gt;Node25</title>
<path fill="none" stroke="midnightblue" d="M751.036,-232.753C764.28,-224.027 784.349,-210.805 799.77,-200.646"/>
<polygon fill="midnightblue" stroke="midnightblue" points="801.8,-203.5 808.225,-195.075 797.949,-197.654 801.8,-203.5"/>
</g>
<!-- Node24&#45;&gt;Node21 -->
<g id="edge30" class="edge"><title>Node24&#45;&gt;Node21</title>
<path fill="none" stroke="midnightblue" d="M790.544,-232.989C837.987,-224.635 908.992,-211.226 970,-196 970.102,-195.975 970.203,-195.949 970.305,-195.924"/>
<polygon fill="midnightblue" stroke="midnightblue" points="971.271,-199.288 980.002,-193.287 969.434,-192.533 971.271,-199.288"/>
</g>
<!-- Node26 -->
<g id="node26" class="node"><title>Node26</title>
<polygon fill="white" stroke="#bfbfbf" points="489.596,-117 489.596,-137 548.404,-137 548.404,-117 489.596,-117"/>
<text text-anchor="middle" x="519" y="-123" font-family="Helvetica,sans-Serif" font-size="10.00">functional</text>
</g>
<!-- Node24&#45;&gt;Node26 -->
<g id="edge31" class="edge"><title>Node24&#45;&gt;Node26</title>
<path fill="none" stroke="midnightblue" d="M737.688,-232.605C738.208,-217.938 736.897,-189.661 721,-174 670.019,-123.778 632.71,-152.866 558.197,-138.027"/>
<polygon fill="midnightblue" stroke="midnightblue" points="558.947,-134.608 548.428,-135.872 557.44,-141.444 558.947,-134.608"/>
</g>
<!-- Node28 -->
<g id="node28" class="node"><title>Node28</title>
<g id="a_node28"><a xlink:href="_function_8h.html" target="_top" xlink:title="cinder/Function.h">
<polygon fill="white" stroke="black" points="275.646,-175 275.646,-195 368.354,-195 368.354,-175 275.646,-175"/>
<text text-anchor="middle" x="322" y="-181" font-family="Helvetica,sans-Serif" font-size="10.00">cinder/Function.h</text>
</a>
</g>
</g>
<!-- Node27&#45;&gt;Node28 -->
<g id="edge33" class="edge"><title>Node27&#45;&gt;Node28</title>
<path fill="none" stroke="midnightblue" d="M415.505,-232.753C397.484,-223.742 369.871,-209.935 349.318,-199.659"/>
<polygon fill="midnightblue" stroke="midnightblue" points="350.66,-196.417 340.15,-195.075 347.529,-202.678 350.66,-196.417"/>
</g>
<!-- Node27&#45;&gt;Node9 -->
<g id="edge40" class="edge"><title>Node27&#45;&gt;Node9</title>
<path fill="none" stroke="midnightblue" d="M433.551,-232.795C433.378,-217.863 435.461,-188.566 453,-174 488.095,-144.853 816.666,-143.097 862,-138 873.874,-136.665 886.801,-134.973 898.433,-133.362"/>
<polygon fill="midnightblue" stroke="midnightblue" points="899.269,-136.779 908.683,-131.918 898.292,-129.847 899.269,-136.779"/>
</g>
<!-- Node27&#45;&gt;Node18 -->
<g id="edge41" class="edge"><title>Node27&#45;&gt;Node18</title>
<path fill="none" stroke="midnightblue" d="M377.57,-238.139C287.222,-231.389 118.338,-216.213 100,-196 73.4965,-166.786 81.8232,-116.28 89.0808,-88.9246"/>
<polygon fill="midnightblue" stroke="midnightblue" points="92.5198,-89.6303 91.9259,-79.0521 85.7935,-87.6919 92.5198,-89.6303"/>
</g>
<!-- Node27&#45;&gt;Node8 -->
<g id="edge42" class="edge"><title>Node27&#45;&gt;Node8</title>
<path fill="none" stroke="midnightblue" d="M430.862,-232.824C426.589,-218.457 420.965,-190.583 435,-174 492.501,-106.061 565.839,-197.537 632,-138 645.691,-125.68 650.209,-104.522 651.601,-89.0716"/>
<polygon fill="midnightblue" stroke="midnightblue" points="655.098,-89.2138 652.148,-79.0381 648.109,-88.8326 655.098,-89.2138"/>
</g>
<!-- Node27&#45;&gt;Node19 -->
<g id="edge43" class="edge"><title>Node27&#45;&gt;Node19</title>
<path fill="none" stroke="midnightblue" d="M448.531,-232.753C462.243,-224.027 483.021,-210.805 498.985,-200.646"/>
<polygon fill="midnightblue" stroke="midnightblue" points="501.181,-203.397 507.739,-195.075 497.423,-197.491 501.181,-203.397"/>
</g>
<!-- Node28&#45;&gt;Node14 -->
<g id="edge34" class="edge"><title>Node28&#45;&gt;Node14</title>
<path fill="none" stroke="midnightblue" d="M349.618,-174.953C379.612,-163.563 421.105,-142.27 404,-116 392.15,-97.8009 371.282,-86.7486 351.333,-80.0615"/>
<polygon fill="midnightblue" stroke="midnightblue" points="352.244,-76.6801 341.658,-77.1172 350.206,-83.3769 352.244,-76.6801"/>
</g>
<!-- Node28&#45;&gt;Node11 -->
<g id="edge35" class="edge"><title>Node28&#45;&gt;Node11</title>
<path fill="none" stroke="midnightblue" d="M368.558,-175.795C413.968,-167.589 485.204,-154.18 556.375,-138.029"/>
<polygon fill="midnightblue" stroke="midnightblue" points="557.447,-141.374 566.415,-135.732 555.886,-134.551 557.447,-141.374"/>
</g>
<!-- Node28&#45;&gt;Node8 -->
<g id="edge36" class="edge"><title>Node28&#45;&gt;Node8</title>
<path fill="none" stroke="midnightblue" d="M340.749,-174.952C370.143,-161.004 429.085,-133.983 481,-116 528.782,-99.4487 585.756,-85.1763 620.384,-77.0871"/>
<polygon fill="midnightblue" stroke="midnightblue" points="621.423,-80.4396 630.379,-74.7796 619.848,-73.619 621.423,-80.4396"/>
</g>
<!-- Node29 -->
<g id="node29" class="node"><title>Node29</title>
<polygon fill="white" stroke="#bfbfbf" points="239.608,-117 239.608,-137 278.392,-137 278.392,-117 239.608,-117"/>
<text text-anchor="middle" x="259" y="-123" font-family="Helvetica,sans-Serif" font-size="10.00">utility</text>
</g>
<!-- Node28&#45;&gt;Node29 -->
<g id="edge37" class="edge"><title>Node28&#45;&gt;Node29</title>
<path fill="none" stroke="midnightblue" d="M311.597,-174.753C302.148,-166.353 288.011,-153.787 276.772,-143.798"/>
<polygon fill="midnightblue" stroke="midnightblue" points="279.009,-141.103 269.21,-137.075 274.358,-146.335 279.009,-141.103"/>
</g>
<!-- Node30 -->
<g id="node30" class="node"><title>Node30</title>
<polygon fill="white" stroke="#bfbfbf" points="296.303,-117 296.303,-137 395.697,-137 395.697,-117 296.303,-117"/>
<text text-anchor="middle" x="346" y="-123" font-family="Helvetica,sans-Serif" font-size="10.00">boost/signals2.hpp</text>
</g>
<!-- Node28&#45;&gt;Node30 -->
<g id="edge38" class="edge"><title>Node28&#45;&gt;Node30</title>
<path fill="none" stroke="midnightblue" d="M325.963,-174.753C329.248,-167.087 334.021,-155.952 338.084,-146.471"/>
<polygon fill="midnightblue" stroke="midnightblue" points="341.388,-147.645 342.111,-137.075 334.954,-144.888 341.388,-147.645"/>
</g>
<!-- Node28&#45;&gt;Node26 -->
<g id="edge39" class="edge"><title>Node28&#45;&gt;Node26</title>
<path fill="none" stroke="midnightblue" d="M354.09,-174.878C388.372,-165.133 442.745,-149.677 479.601,-139.2"/>
<polygon fill="midnightblue" stroke="midnightblue" points="480.839,-142.487 489.5,-136.386 478.924,-135.753 480.839,-142.487"/>
</g>
<!-- Node31&#45;&gt;Node3 -->
<g id="edge45" class="edge"><title>Node31&#45;&gt;Node3</title>
<path fill="none" stroke="midnightblue" d="M471.393,-296.985C497.625,-286.424 541.278,-268.849 571.058,-256.86"/>
<polygon fill="midnightblue" stroke="midnightblue" points="572.611,-260.008 580.58,-253.026 569.996,-253.514 572.611,-260.008"/>
</g>
<!-- Node31&#45;&gt;Node27 -->
<g id="edge46" class="edge"><title>Node31&#45;&gt;Node27</title>
<path fill="none" stroke="midnightblue" d="M446.787,-296.852C444.638,-287.969 441.31,-274.215 438.588,-262.964"/>
<polygon fill="midnightblue" stroke="midnightblue" points="441.976,-262.082 436.222,-253.186 435.172,-263.728 441.976,-262.082"/>
</g>
<!-- Node33&#45;&gt;Node5 -->
<g id="edge50" class="edge"><title>Node33&#45;&gt;Node5</title>
<path fill="none" stroke="midnightblue" d="M1286.85,-232.671C1284.57,-214.041 1279.39,-171.898 1276.35,-147.143"/>
<polygon fill="midnightblue" stroke="midnightblue" points="1279.82,-146.638 1275.12,-137.139 1272.87,-147.491 1279.82,-146.638"/>
</g>
<!-- Node33&#45;&gt;Node21 -->
<g id="edge51" class="edge"><title>Node33&#45;&gt;Node21</title>
<path fill="none" stroke="midnightblue" d="M1241.89,-232.94C1184.24,-221.612 1086.95,-202.496 1036.14,-192.513"/>
<polygon fill="midnightblue" stroke="midnightblue" points="1036.53,-189.021 1026.04,-190.527 1035.18,-195.89 1036.53,-189.021"/>
</g>
<!-- Node35 -->
<g id="node35" class="node"><title>Node35</title>
<g id="a_node35"><a xlink:href="_converter_8h.html" target="_top" xlink:title="cinder/audio/dsp/Converter.h">
<polygon fill="white" stroke="black" points="810.069,-233 810.069,-253 953.931,-253 953.931,-233 810.069,-233"/>
<text text-anchor="middle" x="882" y="-239" font-family="Helvetica,sans-Serif" font-size="10.00">cinder/audio/dsp/Converter.h</text>
</a>
</g>
</g>
<!-- Node34&#45;&gt;Node35 -->
<g id="edge53" class="edge"><title>Node34&#45;&gt;Node35</title>
<path fill="none" stroke="midnightblue" d="M1044.95,-290.992C1007.51,-280.195 957.717,-265.835 923.066,-255.842"/>
<polygon fill="midnightblue" stroke="midnightblue" points="923.852,-252.426 913.274,-253.018 921.912,-259.152 923.852,-252.426"/>
</g>
<!-- Node34&#45;&gt;Node9 -->
<g id="edge56" class="edge"><title>Node34&#45;&gt;Node9</title>
<path fill="none" stroke="midnightblue" d="M1111,-291C1123.35,-275.864 1137.95,-251.944 1128,-232 1098.09,-172.025 1018.02,-145.352 970.94,-134.543"/>
<polygon fill="midnightblue" stroke="midnightblue" points="971.658,-131.118 961.143,-132.414 970.171,-137.958 971.658,-131.118"/>
</g>
<!-- Node34&#45;&gt;Node8 -->
<g id="edge57" class="edge"><title>Node34&#45;&gt;Node8</title>
<path fill="none" stroke="midnightblue" d="M1116.3,-290.902C1126.65,-281.536 1138.4,-268.536 1144,-254 1158.43,-216.523 1133.25,-199.22 1102,-174 1052.13,-133.755 1031.61,-133.637 970,-116 867.765,-86.7316 741.452,-75.5453 683.613,-71.741"/>
<polygon fill="midnightblue" stroke="midnightblue" points="683.831,-68.2479 673.632,-71.1138 683.392,-75.2341 683.831,-68.2479"/>
</g>
<!-- Node36 -->
<g id="node36" class="node"><title>Node36</title>
<polygon fill="white" stroke="#bfbfbf" points="972.397,-233 972.397,-253 1119.6,-253 1119.6,-233 972.397,-233"/>
<text text-anchor="middle" x="1046" y="-239" font-family="Helvetica,sans-Serif" font-size="10.00">AudioToolbox/AudioToolbox.h</text>
</g>
<!-- Node34&#45;&gt;Node36 -->
<g id="edge58" class="edge"><title>Node34&#45;&gt;Node36</title>
<path fill="none" stroke="midnightblue" d="M1084.65,-290.992C1077.25,-281.992 1067.81,-270.516 1060.11,-261.157"/>
<polygon fill="midnightblue" stroke="midnightblue" points="1062.7,-258.79 1053.64,-253.29 1057.29,-263.237 1062.7,-258.79"/>
</g>
<!-- Node35&#45;&gt;Node4 -->
<g id="edge54" class="edge"><title>Node35&#45;&gt;Node4</title>
<path fill="none" stroke="midnightblue" d="M886.293,-232.753C889.89,-225.006 895.133,-213.714 899.565,-204.169"/>
<polygon fill="midnightblue" stroke="midnightblue" points="902.75,-205.619 903.787,-195.075 896.401,-202.671 902.75,-205.619"/>
</g>
<!-- Node35&#45;&gt;Node9 -->
<g id="edge55" class="edge"><title>Node35&#45;&gt;Node9</title>
<path fill="none" stroke="midnightblue" d="M934.634,-232.934C973.597,-225.025 1021.92,-212.273 1034,-196 1054.56,-168.298 1007.2,-148.001 971.116,-137.107"/>
<polygon fill="midnightblue" stroke="midnightblue" points="971.882,-133.686 961.304,-134.286 969.948,-140.413 971.882,-133.686"/>
</g>
</g>
</svg>
        <g id="navigator" transform="translate(0 0)" fill="#404254">
                <rect fill="#f2f5e9" fill-opacity="0.5" stroke="#606060" stroke-width=".5" x="0" y="0" width="60" height="60"/>
                <use id="zoomplus" xlink:href="#zoomPlus" x="17" y="9" onmousedown="handleZoom(evt,'in')"/>
                <use id="zoomminus" xlink:href="#zoomMin" x="42" y="9" onmousedown="handleZoom(evt,'out')"/>
                <use id="reset" xlink:href="#resetDef" x="30" y="36" onmousedown="handleReset()"/>
                <g id="arrowUp" xlink:href="#dirArrow" transform="translate(30 24)" onmousedown="handlePan(0,-1)">
                  <use xlink:href="#rim" fill="#404040">
                        <set attributeName="fill" to="#808080" begin="arrowUp.mouseover" end="arrowUp.mouseout"/>
                  </use>
                  <path fill="none" stroke="white" stroke-width="1.5" d="M0,-3.0v7 M-2.5,-0.5L0,-3.0L2.5,-0.5"/>
                </g>
                <g id="arrowRight" xlink:href="#dirArrow" transform="rotate(90) translate(36 -43)" onmousedown="handlePan(1,0)">
                  <use xlink:href="#rim" fill="#404040">
                        <set attributeName="fill" to="#808080" begin="arrowRight.mouseover" end="arrowRight.mouseout"/>
                  </use>
                  <path fill="none" stroke="white" stroke-width="1.5" d="M0,-3.0v7 M-2.5,-0.5L0,-3.0L2.5,-0.5"/>
                </g>
                <g id="arrowDown" xlink:href="#dirArrow" transform="rotate(180) translate(-30 -48)" onmousedown="handlePan(0,1)">
                  <use xlink:href="#rim" fill="#404040">
                        <set attributeName="fill" to="#808080" begin="arrowDown.mouseover" end="arrowDown.mouseout"/>
                  </use>
                  <path fill="none" stroke="white" stroke-width="1.5" d="M0,-3.0v7 M-2.5,-0.5L0,-3.0L2.5,-0.5"/>
                </g>
                <g id="arrowLeft" xlink:href="#dirArrow" transform="rotate(270) translate(-36 17)" onmousedown="handlePan(-1,0)">
                  <use xlink:href="#rim" fill="#404040">
                        <set attributeName="fill" to="#808080" begin="arrowLeft.mouseover" end="arrowLeft.mouseout"/>
                  </use>
                  <path fill="none" stroke="white" stroke-width="1.5" d="M0,-3.0v7 M-2.5,-0.5L0,-3.0L2.5,-0.5"/>
                </g>
        </g>
        <svg viewBox="0 0 15 15" width="100%" height="30px" preserveAspectRatio="xMaxYMin meet">
         <g id="arrow_out" transform="scale(0.3 0.3)">
          <a xlink:href="_context_audio_unit_8h__incl_org.svg" target="_base">
           <rect id="button" ry="5" rx="5" y="6" x="6" height="38" width="38"
                fill="#f2f5e9" fill-opacity="0.5" stroke="#606060" stroke-width="1.0"/>
           <path id="arrow"
             d="M 11.500037,31.436501 C 11.940474,20.09759 22.043105,11.32322 32.158766,21.979434 L 37.068811,17.246167 C 37.068811,17.246167 37.088388,32 37.088388,32 L 22.160133,31.978069 C 22.160133,31.978069 26.997745,27.140456 26.997745,27.140456 C 18.528582,18.264221 13.291696,25.230495 11.500037,31.436501 z"
             style="fill:#404040;"/>
          </a>
         </g>
        </svg>
</svg>
