<?xml version="1.0" encoding="UTF-8" standalone="no"?>
<!DOCTYPE svg PUBLIC "-//W3C//DTD SVG 1.1//EN"
 "http://www.w3.org/Graphics/SVG/1.1/DTD/svg11.dtd">
<!-- Generated by graphviz version 2.30.1 (20140712.1814)
 -->
<!-- Title: include/cinder/audio/Context.h Pages: 1 -->
<svg width="1321pt" height="390pt"
 viewBox="0.00 0.00 1321.00 390.00" xmlns="http://www.w3.org/2000/svg" xmlns:xlink="http://www.w3.org/1999/xlink">
<g id="graph0" class="graph" transform="scale(1 1) rotate(0) translate(4 386)">
<title>include/cinder/audio/Context.h</title>
<polygon fill="white" stroke="white" points="-4,5 -4,-386 1318,-386 1318,5 -4,5"/>
<!-- Node1 -->
<g id="node1" class="node"><title>Node1</title>
<polygon fill="#bfbfbf" stroke="black" points="648.525,-349 648.525,-381 753.475,-381 753.475,-349 648.525,-349"/>
<text text-anchor="start" x="656.525" y="-367" font-family="Helvetica,sans-Serif" font-size="10.00">include/cinder/audio</text>
<text text-anchor="middle" x="701" y="-355" font-family="Helvetica,sans-Serif" font-size="10.00">/Context.h</text>
</g>
<!-- Node2 -->
<g id="node2" class="node"><title>Node2</title>
<g id="a_node2"><a xlink:href="_node_8h.html" target="_top" xlink:title="cinder/audio/Node.h">
<polygon fill="white" stroke="black" points="443.247,-233 443.247,-253 548.753,-253 548.753,-233 443.247,-233"/>
<text text-anchor="middle" x="496" y="-239" font-family="Helvetica,sans-Serif" font-size="10.00">cinder/audio/Node.h</text>
</a>
</g>
</g>
<!-- Node1&#45;&gt;Node2 -->
<g id="edge1" class="edge"><title>Node1&#45;&gt;Node2</title>
<path fill="none" stroke="midnightblue" d="M648.476,-359.182C589.378,-352.546 498.883,-338.312 478,-312 466.666,-297.719 474.674,-276.967 483.318,-262.15"/>
<polygon fill="midnightblue" stroke="midnightblue" points="486.473,-263.711 488.894,-253.397 480.569,-259.95 486.473,-263.711"/>
</g>
<!-- Node22 -->
<g id="node22" class="node"><title>Node22</title>
<g id="a_node22"><a xlink:href="_input_node_8h.html" target="_top" xlink:title="cinder/audio/InputNode.h">
<polygon fill="white" stroke="black" points="487.126,-291 487.126,-311 614.874,-311 614.874,-291 487.126,-291"/>
<text text-anchor="middle" x="551" y="-297" font-family="Helvetica,sans-Serif" font-size="10.00">cinder/audio/InputNode.h</text>
</a>
</g>
</g>
<!-- Node1&#45;&gt;Node22 -->
<g id="edge24" class="edge"><title>Node1&#45;&gt;Node22</title>
<path fill="none" stroke="midnightblue" d="M664.689,-348.992C639.541,-338.597 606.402,-324.899 582.395,-314.977"/>
<polygon fill="midnightblue" stroke="midnightblue" points="583.616,-311.694 573.037,-311.109 580.942,-318.163 583.616,-311.694"/>
</g>
<!-- Node30 -->
<g id="node30" class="node"><title>Node30</title>
<g id="a_node30"><a xlink:href="_output_node_8h.html" target="_top" xlink:title="cinder/audio/OutputNode.h">
<polygon fill="white" stroke="black" points="633.237,-291 633.237,-311 768.763,-311 768.763,-291 633.237,-291"/>
<text text-anchor="middle" x="701" y="-297" font-family="Helvetica,sans-Serif" font-size="10.00">cinder/audio/OutputNode.h</text>
</a>
</g>
</g>
<!-- Node1&#45;&gt;Node30 -->
<g id="edge43" class="edge"><title>Node1&#45;&gt;Node30</title>
<path fill="none" stroke="midnightblue" d="M701,-348.992C701,-340.726 701,-330.373 701,-321.489"/>
<polygon fill="midnightblue" stroke="midnightblue" points="704.5,-321.29 701,-311.29 697.5,-321.29 704.5,-321.29"/>
</g>
<!-- Node31 -->
<g id="node31" class="node"><title>Node31</title>
<polygon fill="white" stroke="#bfbfbf" points="825.384,-291 825.384,-311 868.616,-311 868.616,-291 825.384,-291"/>
<text text-anchor="middle" x="847" y="-297" font-family="Helvetica,sans-Serif" font-size="10.00">mutex</text>
</g>
<!-- Node1&#45;&gt;Node31 -->
<g id="edge46" class="edge"><title>Node1&#45;&gt;Node31</title>
<path fill="none" stroke="midnightblue" d="M736.343,-348.992C760.711,-338.643 792.789,-325.021 816.13,-315.109"/>
<polygon fill="midnightblue" stroke="midnightblue" points="817.714,-318.239 825.55,-311.109 814.978,-311.796 817.714,-318.239"/>
</g>
<!-- Node21 -->
<g id="node21" class="node"><title>Node21</title>
<polygon fill="white" stroke="#bfbfbf" points="1001.33,-175 1001.33,-195 1030.67,-195 1030.67,-175 1001.33,-175"/>
<text text-anchor="middle" x="1016" y="-181" font-family="Helvetica,sans-Serif" font-size="10.00">set</text>
</g>
<!-- Node1&#45;&gt;Node21 -->
<g id="edge47" class="edge"><title>Node1&#45;&gt;Node21</title>
<path fill="none" stroke="midnightblue" d="M723.097,-348.915C745.975,-333.504 782.936,-309.18 816,-290 878.151,-253.947 954.022,-216.116 991.968,-197.6"/>
<polygon fill="midnightblue" stroke="midnightblue" points="993.732,-200.634 1001.2,-193.114 990.672,-194.339 993.732,-200.634"/>
</g>
<!-- Node3 -->
<g id="node3" class="node"><title>Node3</title>
<g id="a_node3"><a xlink:href="audio_2_buffer_8h.html" target="_top" xlink:title="cinder/audio/Buffer.h">
<polygon fill="white" stroke="black" points="137.221,-175 137.221,-195 244.779,-195 244.779,-175 137.221,-175"/>
<text text-anchor="middle" x="191" y="-181" font-family="Helvetica,sans-Serif" font-size="10.00">cinder/audio/Buffer.h</text>
</a>
</g>
</g>
<!-- Node2&#45;&gt;Node3 -->
<g id="edge2" class="edge"><title>Node2&#45;&gt;Node3</title>
<path fill="none" stroke="midnightblue" d="M446.657,-232.94C392.979,-223.085 307.2,-207.335 250,-196.833"/>
<polygon fill="midnightblue" stroke="midnightblue" points="250.487,-193.364 240.019,-195 249.223,-200.249 250.487,-193.364"/>
</g>
<!-- Node11 -->
<g id="node11" class="node"><title>Node11</title>
<g id="a_node11"><a xlink:href="audio_2_exception_8h.html" target="_top" xlink:title="cinder/audio/Exception.h">
<polygon fill="white" stroke="black" points="858.242,-175 858.242,-195 983.758,-195 983.758,-175 858.242,-175"/>
<text text-anchor="middle" x="921" y="-181" font-family="Helvetica,sans-Serif" font-size="10.00">cinder/audio/Exception.h</text>
</a>
</g>
</g>
<!-- Node2&#45;&gt;Node11 -->
<g id="edge10" class="edge"><title>Node2&#45;&gt;Node11</title>
<path fill="none" stroke="midnightblue" d="M548.945,-235.242C615.983,-226.654 735.326,-211.26 847.994,-196.127"/>
<polygon fill="midnightblue" stroke="midnightblue" points="848.731,-199.559 858.176,-194.757 847.798,-192.622 848.731,-199.559"/>
</g>
<!-- Node18 -->
<g id="node18" class="node"><title>Node18</title>
<polygon fill="white" stroke="#bfbfbf" points="534.291,-175 534.291,-195 653.709,-195 653.709,-175 534.291,-175"/>
<text text-anchor="middle" x="594" y="-181" font-family="Helvetica,sans-Serif" font-size="10.00">boost/noncopyable.hpp</text>
</g>
<!-- Node2&#45;&gt;Node18 -->
<g id="edge19" class="edge"><title>Node2&#45;&gt;Node18</title>
<path fill="none" stroke="midnightblue" d="M512.183,-232.753C527.738,-223.864 551.459,-210.309 569.361,-200.079"/>
<polygon fill="midnightblue" stroke="midnightblue" points="571.172,-203.075 578.118,-195.075 567.699,-196.998 571.172,-203.075"/>
</g>
<!-- Node19 -->
<g id="node19" class="node"><title>Node19</title>
<polygon fill="white" stroke="#bfbfbf" points="403.357,-175 403.357,-195 516.643,-195 516.643,-175 403.357,-175"/>
<text text-anchor="middle" x="460" y="-181" font-family="Helvetica,sans-Serif" font-size="10.00">boost/logic/tribool.hpp</text>
</g>
<!-- Node2&#45;&gt;Node19 -->
<g id="edge20" class="edge"><title>Node2&#45;&gt;Node19</title>
<path fill="none" stroke="midnightblue" d="M490.055,-232.753C484.97,-224.843 477.51,-213.237 471.294,-203.568"/>
<polygon fill="midnightblue" stroke="midnightblue" points="474.186,-201.594 465.834,-195.075 468.298,-205.38 474.186,-201.594"/>
</g>
<!-- Node8 -->
<g id="node8" class="node"><title>Node8</title>
<polygon fill="white" stroke="#bfbfbf" points="348.943,-117 348.943,-137 401.057,-137 401.057,-117 348.943,-117"/>
<text text-anchor="middle" x="375" y="-123" font-family="Helvetica,sans-Serif" font-size="10.00">memory</text>
</g>
<!-- Node2&#45;&gt;Node8 -->
<g id="edge21" class="edge"><title>Node2&#45;&gt;Node8</title>
<path fill="none" stroke="midnightblue" d="M456.65,-232.985C435.306,-226.18 410.077,-214.713 394,-196 382.287,-182.368 377.759,-162.044 376.027,-147.166"/>
<polygon fill="midnightblue" stroke="midnightblue" points="379.502,-146.722 375.175,-137.051 372.527,-147.31 379.502,-146.722"/>
</g>
<!-- Node20 -->
<g id="node20" class="node"><title>Node20</title>
<polygon fill="white" stroke="#bfbfbf" points="301.273,-175 301.273,-195 346.727,-195 346.727,-175 301.273,-175"/>
<text text-anchor="middle" x="324" y="-181" font-family="Helvetica,sans-Serif" font-size="10.00">atomic</text>
</g>
<!-- Node2&#45;&gt;Node20 -->
<g id="edge22" class="edge"><title>Node2&#45;&gt;Node20</title>
<path fill="none" stroke="midnightblue" d="M467.982,-232.878C437.489,-222.95 388.792,-207.095 356.606,-196.616"/>
<polygon fill="midnightblue" stroke="midnightblue" points="357.372,-193.185 346.78,-193.417 355.205,-199.841 357.372,-193.185"/>
</g>
<!-- Node2&#45;&gt;Node21 -->
<g id="edge23" class="edge"><title>Node2&#45;&gt;Node21</title>
<path fill="none" stroke="midnightblue" d="M549.006,-237.994C661.829,-229.344 920.567,-208.807 991.258,-195.169"/>
<polygon fill="midnightblue" stroke="midnightblue" points="992.249,-198.534 1001.26,-192.959 990.738,-191.699 992.249,-198.534"/>
</g>
<!-- Node4 -->
<g id="node4" class="node"><title>Node4</title>
<g id="a_node4"><a xlink:href="_cinder_assert_8h.html" target="_top" xlink:title="cinder/CinderAssert.h">
<polygon fill="white" stroke="black" points="58.9238,-117 58.9238,-137 171.076,-137 171.076,-117 58.9238,-117"/>
<text text-anchor="middle" x="115" y="-123" font-family="Helvetica,sans-Serif" font-size="10.00">cinder/CinderAssert.h</text>
</a>
</g>
</g>
<!-- Node3&#45;&gt;Node4 -->
<g id="edge3" class="edge"><title>Node3&#45;&gt;Node4</title>
<path fill="none" stroke="midnightblue" d="M178.45,-174.753C166.83,-166.19 149.333,-153.298 135.654,-143.219"/>
<polygon fill="midnightblue" stroke="midnightblue" points="137.443,-140.19 127.316,-137.075 133.291,-145.825 137.443,-140.19"/>
</g>
<!-- Node7 -->
<g id="node7" class="node"><title>Node7</title>
<polygon fill="white" stroke="#bfbfbf" points="649.384,-59 649.384,-79 692.616,-79 692.616,-59 649.384,-59"/>
<text text-anchor="middle" x="671" y="-65" font-family="Helvetica,sans-Serif" font-size="10.00">vector</text>
</g>
<!-- Node3&#45;&gt;Node7 -->
<g id="edge6" class="edge"><title>Node3&#45;&gt;Node7</title>
<path fill="none" stroke="midnightblue" d="M206.938,-174.842C233.572,-159.976 289.217,-130.774 340,-116 446.723,-84.951 579.081,-74.6118 638.94,-71.3743"/>
<polygon fill="midnightblue" stroke="midnightblue" points="639.442,-74.8534 649.251,-70.8491 639.085,-67.8625 639.442,-74.8534"/>
</g>
<!-- Node3&#45;&gt;Node8 -->
<g id="edge7" class="edge"><title>Node3&#45;&gt;Node8</title>
<path fill="none" stroke="midnightblue" d="M220.972,-174.878C253.319,-165.033 304.815,-149.361 339.249,-138.881"/>
<polygon fill="midnightblue" stroke="midnightblue" points="340.365,-142.2 348.913,-135.94 338.327,-135.503 340.365,-142.2"/>
</g>
<!-- Node9 -->
<g id="node9" class="node"><title>Node9</title>
<polygon fill="white" stroke="#bfbfbf" points="188.828,-117 188.828,-137 233.172,-137 233.172,-117 188.828,-117"/>
<text text-anchor="middle" x="211" y="-123" font-family="Helvetica,sans-Serif" font-size="10.00">cstdlib</text>
</g>
<!-- Node3&#45;&gt;Node9 -->
<g id="edge8" class="edge"><title>Node3&#45;&gt;Node9</title>
<path fill="none" stroke="midnightblue" d="M194.303,-174.753C197.011,-167.169 200.933,-156.188 204.295,-146.774"/>
<polygon fill="midnightblue" stroke="midnightblue" points="207.692,-147.67 207.759,-137.075 201.099,-145.315 207.692,-147.67"/>
</g>
<!-- Node10 -->
<g id="node10" class="node"><title>Node10</title>
<polygon fill="white" stroke="#bfbfbf" points="642.436,-117 642.436,-137 699.564,-137 699.564,-117 642.436,-117"/>
<text text-anchor="middle" x="671" y="-123" font-family="Helvetica,sans-Serif" font-size="10.00">algorithm</text>
</g>
<!-- Node3&#45;&gt;Node10 -->
<g id="edge9" class="edge"><title>Node3&#45;&gt;Node10</title>
<path fill="none" stroke="midnightblue" d="M245.129,-177.685C342.923,-166.276 546.804,-142.49 632.132,-132.535"/>
<polygon fill="midnightblue" stroke="midnightblue" points="632.647,-135.998 642.174,-131.363 631.836,-129.045 632.647,-135.998"/>
</g>
<!-- Node5 -->
<g id="node5" class="node"><title>Node5</title>
<g id="a_node5"><a xlink:href="_current_function_8h.html" target="_top" xlink:title="cinder/CurrentFunction.h">
<polygon fill="white" stroke="black" points="-0.0268555,-59 -0.0268555,-79 126.027,-79 126.027,-59 -0.0268555,-59"/>
<text text-anchor="middle" x="63" y="-65" font-family="Helvetica,sans-Serif" font-size="10.00">cinder/CurrentFunction.h</text>
</a>
</g>
</g>
<!-- Node4&#45;&gt;Node5 -->
<g id="edge4" class="edge"><title>Node4&#45;&gt;Node5</title>
<path fill="none" stroke="midnightblue" d="M106.413,-116.753C98.841,-108.598 87.6218,-96.5158 78.4856,-86.6769"/>
<polygon fill="midnightblue" stroke="midnightblue" points="80.7963,-84.0216 71.427,-79.0752 75.6667,-88.7847 80.7963,-84.0216"/>
</g>
<!-- Node6 -->
<g id="node6" class="node"><title>Node6</title>
<polygon fill="white" stroke="#bfbfbf" points="143.884,-59 143.884,-79 192.116,-79 192.116,-59 143.884,-59"/>
<text text-anchor="middle" x="168" y="-65" font-family="Helvetica,sans-Serif" font-size="10.00">cassert</text>
</g>
<!-- Node4&#45;&gt;Node6 -->
<g id="edge5" class="edge"><title>Node4&#45;&gt;Node6</title>
<path fill="none" stroke="midnightblue" d="M123.752,-116.753C131.547,-108.516 143.134,-96.2738 152.495,-86.3824"/>
<polygon fill="midnightblue" stroke="midnightblue" points="155.079,-88.744 159.411,-79.0752 149.995,-83.9323 155.079,-88.744"/>
</g>
<!-- Node12 -->
<g id="node12" class="node"><title>Node12</title>
<g id="a_node12"><a xlink:href="_exception_8h.html" target="_top" xlink:title="cinder/Exception.h">
<polygon fill="white" stroke="black" points="967.865,-117 967.865,-137 1066.14,-137 1066.14,-117 967.865,-117"/>
<text text-anchor="middle" x="1017" y="-123" font-family="Helvetica,sans-Serif" font-size="10.00">cinder/Exception.h</text>
</a>
</g>
</g>
<!-- Node11&#45;&gt;Node12 -->
<g id="edge11" class="edge"><title>Node11&#45;&gt;Node12</title>
<path fill="none" stroke="midnightblue" d="M936.852,-174.753C951.95,-165.946 974.901,-152.558 992.38,-142.362"/>
<polygon fill="midnightblue" stroke="midnightblue" points="994.568,-145.137 1001.44,-137.075 991.041,-139.091 994.568,-145.137"/>
</g>
<!-- Node17 -->
<g id="node17" class="node"><title>Node17</title>
<polygon fill="white" stroke="#bfbfbf" points="996.773,-59 996.773,-79 1037.23,-79 1037.23,-59 996.773,-59"/>
<text text-anchor="middle" x="1017" y="-65" font-family="Helvetica,sans-Serif" font-size="10.00">string</text>
</g>
<!-- Node11&#45;&gt;Node17 -->
<g id="edge18" class="edge"><title>Node11&#45;&gt;Node17</title>
<path fill="none" stroke="midnightblue" d="M924.692,-174.939C930.573,-161.207 943.051,-134.747 959,-116 969.087,-104.143 982.613,-93.2088 994.066,-84.9779"/>
<polygon fill="midnightblue" stroke="midnightblue" points="996.111,-87.819 1002.33,-79.2403 992.118,-82.0694 996.111,-87.819"/>
</g>
<!-- Node13 -->
<g id="node13" class="node"><title>Node13</title>
<g id="a_node13"><a xlink:href="_cinder_8h.html" target="_top" xlink:title="cinder/Cinder.h">
<polygon fill="white" stroke="black" points="1072.37,-59 1072.37,-79 1155.63,-79 1155.63,-59 1072.37,-59"/>
<text text-anchor="middle" x="1114" y="-65" font-family="Helvetica,sans-Serif" font-size="10.00">cinder/Cinder.h</text>
</a>
</g>
</g>
<!-- Node12&#45;&gt;Node13 -->
<g id="edge12" class="edge"><title>Node12&#45;&gt;Node13</title>
<path fill="none" stroke="midnightblue" d="M1033.02,-116.753C1048.41,-107.864 1071.89,-94.3092 1089.61,-84.0793"/>
<polygon fill="midnightblue" stroke="midnightblue" points="1091.37,-87.1062 1098.28,-79.0752 1087.87,-81.0439 1091.37,-87.1062"/>
</g>
<!-- Node12&#45;&gt;Node7 -->
<g id="edge16" class="edge"><title>Node12&#45;&gt;Node7</title>
<path fill="none" stroke="midnightblue" d="M967.794,-118.036C895.809,-106.385 763.772,-85.0151 703.071,-75.1906"/>
<polygon fill="midnightblue" stroke="midnightblue" points="703.367,-71.6932 692.937,-73.5504 702.249,-78.6033 703.367,-71.6932"/>
</g>
<!-- Node12&#45;&gt;Node17 -->
<g id="edge17" class="edge"><title>Node12&#45;&gt;Node17</title>
<path fill="none" stroke="midnightblue" d="M1017,-116.753C1017,-109.25 1017,-98.4238 1017,-89.0781"/>
<polygon fill="midnightblue" stroke="midnightblue" points="1020.5,-89.0752 1017,-79.0752 1013.5,-89.0752 1020.5,-89.0752"/>
</g>
<!-- Node14 -->
<g id="node14" class="node"><title>Node14</title>
<polygon fill="white" stroke="#bfbfbf" points="1003.55,-1 1003.55,-21 1048.45,-21 1048.45,-1 1003.55,-1"/>
<text text-anchor="middle" x="1026" y="-7" font-family="Helvetica,sans-Serif" font-size="10.00">cstdint</text>
</g>
<!-- Node13&#45;&gt;Node14 -->
<g id="edge13" class="edge"><title>Node13&#45;&gt;Node14</title>
<path fill="none" stroke="midnightblue" d="M1099.47,-58.7527C1085.76,-50.0272 1064.98,-36.8051 1049.01,-26.6458"/>
<polygon fill="midnightblue" stroke="midnightblue" points="1050.58,-23.4912 1040.26,-21.0752 1046.82,-29.3968 1050.58,-23.4912"/>
</g>
<!-- Node15 -->
<g id="node15" class="node"><title>Node15</title>
<polygon fill="white" stroke="#bfbfbf" points="1066.53,-1 1066.53,-21 1161.47,-21 1161.47,-1 1066.53,-1"/>
<text text-anchor="middle" x="1114" y="-7" font-family="Helvetica,sans-Serif" font-size="10.00">boost/version.hpp</text>
</g>
<!-- Node13&#45;&gt;Node15 -->
<g id="edge14" class="edge"><title>Node13&#45;&gt;Node15</title>
<path fill="none" stroke="midnightblue" d="M1114,-58.7527C1114,-51.2504 1114,-40.4238 1114,-31.0781"/>
<polygon fill="midnightblue" stroke="midnightblue" points="1117.5,-31.0752 1114,-21.0752 1110.5,-31.0752 1117.5,-31.0752"/>
</g>
<!-- Node16 -->
<g id="node16" class="node"><title>Node16</title>
<polygon fill="white" stroke="#bfbfbf" points="1179.62,-1 1179.62,-21 1312.38,-21 1312.38,-1 1179.62,-1"/>
<text text-anchor="middle" x="1246" y="-7" font-family="Helvetica,sans-Serif" font-size="10.00">boost/checked_delete.hpp</text>
</g>
<!-- Node13&#45;&gt;Node16 -->
<g id="edge15" class="edge"><title>Node13&#45;&gt;Node16</title>
<path fill="none" stroke="midnightblue" d="M1135.5,-58.878C1157.17,-49.6848 1190.82,-35.4095 1215.3,-25.0263"/>
<polygon fill="midnightblue" stroke="midnightblue" points="1216.67,-28.2457 1224.51,-21.1181 1213.93,-21.8016 1216.67,-28.2457"/>
</g>
<!-- Node22&#45;&gt;Node2 -->
<g id="edge25" class="edge"><title>Node22&#45;&gt;Node2</title>
<path fill="none" stroke="midnightblue" d="M541.918,-290.753C533.829,-282.516 521.805,-270.274 512.09,-260.382"/>
<polygon fill="midnightblue" stroke="midnightblue" points="514.417,-257.757 504.913,-253.075 509.423,-262.662 514.417,-257.757"/>
</g>
<!-- Node23 -->
<g id="node23" class="node"><title>Node23</title>
<g id="a_node23"><a xlink:href="_param_8h.html" target="_top" xlink:title="cinder/audio/Param.h">
<polygon fill="white" stroke="black" points="217.473,-233 217.473,-253 328.527,-253 328.527,-233 217.473,-233"/>
<text text-anchor="middle" x="273" y="-239" font-family="Helvetica,sans-Serif" font-size="10.00">cinder/audio/Param.h</text>
</a>
</g>
</g>
<!-- Node22&#45;&gt;Node23 -->
<g id="edge26" class="edge"><title>Node22&#45;&gt;Node23</title>
<path fill="none" stroke="midnightblue" d="M506.026,-290.94C457.475,-281.16 380.113,-265.577 327.983,-255.076"/>
<polygon fill="midnightblue" stroke="midnightblue" points="328.404,-251.59 317.91,-253.047 327.022,-258.452 328.404,-251.59"/>
</g>
<!-- Node26 -->
<g id="node26" class="node"><title>Node26</title>
<g id="a_node26"><a xlink:href="_device_8h.html" target="_top" xlink:title="cinder/audio/Device.h">
<polygon fill="white" stroke="black" points="644.917,-233 644.917,-253 757.083,-253 757.083,-233 644.917,-233"/>
<text text-anchor="middle" x="701" y="-239" font-family="Helvetica,sans-Serif" font-size="10.00">cinder/audio/Device.h</text>
</a>
</g>
</g>
<!-- Node22&#45;&gt;Node26 -->
<g id="edge31" class="edge"><title>Node22&#45;&gt;Node26</title>
<path fill="none" stroke="midnightblue" d="M575.434,-290.878C600.277,-281.603 638.974,-267.156 666.844,-256.752"/>
<polygon fill="midnightblue" stroke="midnightblue" points="668.432,-259.895 676.577,-253.118 665.984,-253.337 668.432,-259.895"/>
</g>
<!-- Node23&#45;&gt;Node3 -->
<g id="edge27" class="edge"><title>Node23&#45;&gt;Node3</title>
<path fill="none" stroke="midnightblue" d="M259.459,-232.753C246.802,-224.109 227.683,-211.052 212.864,-200.931"/>
<polygon fill="midnightblue" stroke="midnightblue" points="214.521,-197.825 204.289,-195.075 210.573,-203.605 214.521,-197.825"/>
</g>
<!-- Node24 -->
<g id="node24" class="node"><title>Node24</title>
<polygon fill="white" stroke="#bfbfbf" points="90.5,-175 90.5,-195 119.5,-195 119.5,-175 90.5,-175"/>
<text text-anchor="middle" x="104.611" y="-181" font-family="Helvetica,sans-Serif" font-size="10.00">list</text>
</g>
<!-- Node23&#45;&gt;Node24 -->
<g id="edge28" class="edge"><title>Node23&#45;&gt;Node24</title>
<path fill="none" stroke="midnightblue" d="M241.284,-232.963C213.715,-224.884 172.566,-212.288 129.107,-196.179"/>
<polygon fill="midnightblue" stroke="midnightblue" points="130.1,-192.813 119.508,-192.577 127.641,-199.367 130.1,-192.813"/>
</g>
<!-- Node23&#45;&gt;Node20 -->
<g id="edge29" class="edge"><title>Node23&#45;&gt;Node20</title>
<path fill="none" stroke="midnightblue" d="M281.422,-232.753C288.848,-224.598 299.852,-212.516 308.812,-202.677"/>
<polygon fill="midnightblue" stroke="midnightblue" points="311.589,-204.825 315.735,-195.075 306.414,-200.112 311.589,-204.825"/>
</g>
<!-- Node25 -->
<g id="node25" class="node"><title>Node25</title>
<polygon fill="white" stroke="#bfbfbf" points="482.596,-117 482.596,-137 541.404,-137 541.404,-117 482.596,-117"/>
<text text-anchor="middle" x="512" y="-123" font-family="Helvetica,sans-Serif" font-size="10.00">functional</text>
</g>
<!-- Node23&#45;&gt;Node25 -->
<g id="edge30" class="edge"><title>Node23&#45;&gt;Node25</title>
<path fill="none" stroke="midnightblue" d="M272.755,-232.546C272.921,-217.797 275.532,-189.411 292,-174 317.629,-150.017 415.886,-137.025 472.035,-131.42"/>
<polygon fill="midnightblue" stroke="midnightblue" points="472.718,-134.87 482.336,-130.427 472.046,-127.903 472.718,-134.87"/>
</g>
<!-- Node27 -->
<g id="node27" class="node"><title>Node27</title>
<g id="a_node27"><a xlink:href="_function_8h.html" target="_top" xlink:title="cinder/Function.h">
<polygon fill="white" stroke="black" points="747.646,-175 747.646,-195 840.354,-195 840.354,-175 747.646,-175"/>
<text text-anchor="middle" x="794" y="-181" font-family="Helvetica,sans-Serif" font-size="10.00">cinder/Function.h</text>
</a>
</g>
</g>
<!-- Node26&#45;&gt;Node27 -->
<g id="edge32" class="edge"><title>Node26&#45;&gt;Node27</title>
<path fill="none" stroke="midnightblue" d="M716.357,-232.753C730.983,-223.946 753.217,-210.558 770.149,-200.362"/>
<polygon fill="midnightblue" stroke="midnightblue" points="772.167,-203.232 778.929,-195.075 768.556,-197.235 772.167,-203.232"/>
</g>
<!-- Node26&#45;&gt;Node8 -->
<g id="edge39" class="edge"><title>Node26&#45;&gt;Node8</title>
<path fill="none" stroke="midnightblue" d="M698.519,-232.755C693.978,-217.765 682.828,-188.387 662,-174 641.62,-159.922 483.677,-140.38 411.172,-132.036"/>
<polygon fill="midnightblue" stroke="midnightblue" points="411.453,-128.546 401.121,-130.889 410.659,-135.501 411.453,-128.546"/>
</g>
<!-- Node26&#45;&gt;Node17 -->
<g id="edge40" class="edge"><title>Node26&#45;&gt;Node17</title>
<path fill="none" stroke="midnightblue" d="M757.374,-240.073C841.188,-236.261 993.659,-225.401 1039,-196 1071.71,-174.787 1091.96,-151.106 1075,-116 1068.58,-102.721 1056.27,-92.1046 1044.63,-84.4311"/>
<polygon fill="midnightblue" stroke="midnightblue" points="1046.33,-81.3676 1035.97,-79.1416 1042.68,-87.3413 1046.33,-81.3676"/>
</g>
<!-- Node26&#45;&gt;Node7 -->
<g id="edge41" class="edge"><title>Node26&#45;&gt;Node7</title>
<path fill="none" stroke="midnightblue" d="M701.059,-232.805C700.718,-218.899 698.344,-192.214 686,-174 670.024,-150.428 646.328,-163.164 633,-138 623.494,-120.051 638.22,-99.7578 652.018,-86.0488"/>
<polygon fill="midnightblue" stroke="midnightblue" points="654.483,-88.5365 659.429,-79.1668 649.72,-83.4073 654.483,-88.5365"/>
</g>
<!-- Node26&#45;&gt;Node18 -->
<g id="edge42" class="edge"><title>Node26&#45;&gt;Node18</title>
<path fill="none" stroke="midnightblue" d="M683.331,-232.753C666.192,-223.783 639.972,-210.06 620.365,-199.799"/>
<polygon fill="midnightblue" stroke="midnightblue" points="621.823,-196.611 611.34,-195.075 618.577,-202.813 621.823,-196.611"/>
</g>
<!-- Node27&#45;&gt;Node13 -->
<g id="edge33" class="edge"><title>Node27&#45;&gt;Node13</title>
<path fill="none" stroke="midnightblue" d="M840.498,-175.472C843.374,-174.967 846.226,-174.473 849,-174 949.263,-156.902 991.286,-195.767 1075,-138 1091.93,-126.319 1102.46,-104.732 1108.25,-89.0051"/>
<polygon fill="midnightblue" stroke="midnightblue" points="1111.66,-89.8414 1111.52,-79.2475 1105.02,-87.6169 1111.66,-89.8414"/>
</g>
<!-- Node27&#45;&gt;Node10 -->
<g id="edge34" class="edge"><title>Node27&#45;&gt;Node10</title>
<path fill="none" stroke="midnightblue" d="M773.964,-174.878C753.951,-165.766 722.971,-151.662 700.219,-141.303"/>
<polygon fill="midnightblue" stroke="midnightblue" points="701.579,-138.076 691.027,-137.118 698.678,-144.447 701.579,-138.076"/>
</g>
<!-- Node27&#45;&gt;Node7 -->
<g id="edge35" class="edge"><title>Node27&#45;&gt;Node7</title>
<path fill="none" stroke="midnightblue" d="M783.934,-174.671C763.019,-155.285 714.635,-110.442 688.501,-86.2205"/>
<polygon fill="midnightblue" stroke="midnightblue" points="690.574,-83.3701 680.861,-79.1394 685.816,-88.5041 690.574,-83.3701"/>
</g>
<!-- Node28 -->
<g id="node28" class="node"><title>Node28</title>
<polygon fill="white" stroke="#bfbfbf" points="755.608,-117 755.608,-137 794.392,-137 794.392,-117 755.608,-117"/>
<text text-anchor="middle" x="775" y="-123" font-family="Helvetica,sans-Serif" font-size="10.00">utility</text>
</g>
<!-- Node27&#45;&gt;Node28 -->
<g id="edge36" class="edge"><title>Node27&#45;&gt;Node28</title>
<path fill="none" stroke="midnightblue" d="M790.863,-174.753C788.289,-167.169 784.564,-156.188 781.37,-146.774"/>
<polygon fill="midnightblue" stroke="midnightblue" points="784.607,-145.42 778.079,-137.075 777.978,-147.67 784.607,-145.42"/>
</g>
<!-- Node29 -->
<g id="node29" class="node"><title>Node29</title>
<polygon fill="white" stroke="#bfbfbf" points="812.303,-117 812.303,-137 911.697,-137 911.697,-117 812.303,-117"/>
<text text-anchor="middle" x="862" y="-123" font-family="Helvetica,sans-Serif" font-size="10.00">boost/signals2.hpp</text>
</g>
<!-- Node27&#45;&gt;Node29 -->
<g id="edge37" class="edge"><title>Node27&#45;&gt;Node29</title>
<path fill="none" stroke="midnightblue" d="M805.229,-174.753C815.527,-166.272 830.984,-153.543 843.17,-143.507"/>
<polygon fill="midnightblue" stroke="midnightblue" points="845.486,-146.134 850.98,-137.075 841.036,-140.731 845.486,-146.134"/>
</g>
<!-- Node27&#45;&gt;Node25 -->
<g id="edge38" class="edge"><title>Node27&#45;&gt;Node25</title>
<path fill="none" stroke="midnightblue" d="M748.378,-174.94C693.836,-164.109 603.448,-146.16 551.679,-135.88"/>
<polygon fill="midnightblue" stroke="midnightblue" points="552.044,-132.384 541.554,-133.869 550.68,-139.25 552.044,-132.384"/>
</g>
<!-- Node30&#45;&gt;Node2 -->
<g id="edge44" class="edge"><title>Node30&#45;&gt;Node2</title>
<path fill="none" stroke="midnightblue" d="M667.607,-290.878C632.509,-281.29 577.176,-266.175 538.873,-255.712"/>
<polygon fill="midnightblue" stroke="midnightblue" points="539.608,-252.284 529.039,-253.025 537.763,-259.037 539.608,-252.284"/>
</g>
<!-- Node30&#45;&gt;Node26 -->
<g id="edge45" class="edge"><title>Node30&#45;&gt;Node26</title>
<path fill="none" stroke="midnightblue" d="M701,-290.753C701,-283.25 701,-272.424 701,-263.078"/>
<polygon fill="midnightblue" stroke="midnightblue" points="704.5,-263.075 701,-253.075 697.5,-263.075 704.5,-263.075"/>
</g>
</g>
</svg>
