<?xml version="1.0" encoding="UTF-8" standalone="no"?>
<!DOCTYPE svg PUBLIC "-//W3C//DTD SVG 1.1//EN"
 "http://www.w3.org/Graphics/SVG/1.1/DTD/svg11.dtd">
<!-- Generated by graphviz version 2.30.1 (20140712.1814)
 -->
<!-- Title: include/cinder/audio/dsp/Converter.h Pages: 1 -->
<!--zoomable 252 -->
<svg id="main" version="1.1" xmlns="http://www.w3.org/2000/svg" xmlns:xlink="http://www.w3.org/1999/xlink" xml:space="preserve" onload="init(evt)">
<style type="text/css"><![CDATA[
.edge:hover path { stroke: red; }
.edge:hover polygon { stroke: red; fill: red; }
]]></style>
<script type="text/javascript"><![CDATA[
var edges = document.getElementsByTagName('g');
if (edges && edges.length) {
  for (var i=0;i<edges.length;i++) {
    if (edges[i].id.substr(0,4)=='edge') {
      edges[i].setAttribute('class','edge');
    }
  }
}
]]></script>
        <defs>
                <circle id="rim" cx="0" cy="0" r="7"/>
                <circle id="rim2" cx="0" cy="0" r="3.5"/>
                <g id="zoomPlus">
                        <use xlink:href="#rim" fill="#404040">
                                <set attributeName="fill" to="#808080" begin="zoomplus.mouseover" end="zoomplus.mouseout"/>
                        </use>
                        <path d="M-4,0h8M0,-4v8" fill="none" stroke="white" stroke-width="1.5" pointer-events="none"/>
                </g>
                <g id="zoomMin">
                        <use xlink:href="#rim" fill="#404040">
                                <set attributeName="fill" to="#808080" begin="zoomminus.mouseover" end="zoomminus.mouseout"/>
                        </use>
                        <path d="M-4,0h8" fill="none" stroke="white" stroke-width="1.5" pointer-events="none"/>
                </g>
                <g id="dirArrow">
                        <path fill="none" stroke="white" stroke-width="1.5" d="M0,-3.0v7 M-2.5,-0.5L0,-3.0L2.5,-0.5"/>
                </g>
               <g id="resetDef">
                       <use xlink:href="#rim2" fill="#404040">
                               <set attributeName="fill" to="#808080" begin="reset.mouseover" end="reset.mouseout"/>
                       </use>
               </g>
        </defs>

<script type="text/javascript">
var viewWidth = 1245;
var viewHeight = 252;
var sectionId = 'dynsection-1';
</script>
<script xlink:href="svgpan.js"/>
<svg id="graph" class="graph">
<g id="viewport">
<title>include/cinder/audio/dsp/Converter.h</title>
<polygon fill="white" stroke="white" points="-4,5 -4,-248 1242,-248 1242,5 -4,5"/>
<!-- Node1 -->
<g id="node1" class="node"><title>Node1</title>
<polygon fill="#bfbfbf" stroke="black" points="725.525,-211 725.525,-243 830.475,-243 830.475,-211 725.525,-211"/>
<text text-anchor="start" x="733.525" y="-229" font-family="Helvetica,sans-Serif" font-size="10.00">include/cinder/audio</text>
<text text-anchor="middle" x="778" y="-217" font-family="Helvetica,sans-Serif" font-size="10.00">/dsp/Converter.h</text>
</g>
<!-- Node2 -->
<g id="node2" class="node"><title>Node2</title>
<g id="a_node2"><a xlink:href="_cinder_core_audio_8h.html" target="_top" xlink:title="include/cinder/audio\l/cocoa/CinderCoreAudio.h">
<polygon fill="white" stroke="black" points="219.355,-141 219.355,-173 352.645,-173 352.645,-141 219.355,-141"/>
<text text-anchor="start" x="227.355" y="-159" font-family="Helvetica,sans-Serif" font-size="10.00">include/cinder/audio</text>
<text text-anchor="middle" x="286" y="-147" font-family="Helvetica,sans-Serif" font-size="10.00">/cocoa/CinderCoreAudio.h</text>
</a>
</g>
</g>
<!-- Node1&#45;&gt;Node2 -->
<g id="edge1" class="edge"><title>Node1&#45;&gt;Node2</title>
<path fill="none" stroke="midnightblue" d="M715.222,-217.323C622.079,-204.45 448.051,-180.397 352.697,-167.218"/>
<polygon fill="midnightblue" stroke="midnightblue" points="714.962,-220.821 725.347,-218.723 715.921,-213.887 714.962,-220.821"/>
</g>
<!-- Node8 -->
<g id="node8" class="node"><title>Node8</title>
<g id="a_node8"><a xlink:href="_converter_r8brain_8h.html" target="_top" xlink:title="include/cinder/audio\l/dsp/ConverterR8brain.h">
<polygon fill="white" stroke="black" points="464.527,-141 464.527,-173 589.473,-173 589.473,-141 464.527,-141"/>
<text text-anchor="start" x="472.527" y="-159" font-family="Helvetica,sans-Serif" font-size="10.00">include/cinder/audio</text>
<text text-anchor="middle" x="527" y="-147" font-family="Helvetica,sans-Serif" font-size="10.00">/dsp/ConverterR8brain.h</text>
</a>
</g>
</g>
<!-- Node1&#45;&gt;Node8 -->
<g id="edge9" class="edge"><title>Node1&#45;&gt;Node8</title>
<path fill="none" stroke="midnightblue" d="M715.549,-209.081C674.75,-198.028 621.941,-183.721 582.594,-173.061"/>
<polygon fill="midnightblue" stroke="midnightblue" points="714.815,-212.508 725.382,-211.745 716.645,-205.752 714.815,-212.508"/>
</g>
<!-- Node11 -->
<g id="node11" class="node"><title>Node11</title>
<g id="a_node11"><a xlink:href="_context_8cpp.html" target="_top" xlink:title="src/cinder/audio/Context.cpp">
<polygon fill="white" stroke="black" points="607.633,-147 607.633,-167 750.367,-167 750.367,-147 607.633,-147"/>
<text text-anchor="middle" x="679" y="-153" font-family="Helvetica,sans-Serif" font-size="10.00">src/cinder/audio/Context.cpp</text>
</a>
</g>
</g>
<!-- Node1&#45;&gt;Node11 -->
<g id="edge12" class="edge"><title>Node1&#45;&gt;Node11</title>
<path fill="none" stroke="midnightblue" d="M747.57,-205.098C728.986,-192.334 706.17,-176.662 692.108,-167.004"/>
<polygon fill="midnightblue" stroke="midnightblue" points="745.804,-208.132 756.029,-210.909 749.767,-202.362 745.804,-208.132"/>
</g>
<!-- Node9 -->
<g id="node9" class="node"><title>Node9</title>
<g id="a_node9"><a xlink:href="_converter_8cpp.html" target="_top" xlink:title="src/cinder/audio/dsp\l/Converter.cpp">
<polygon fill="white" stroke="black" points="664.254,-71 664.254,-103 769.746,-103 769.746,-71 664.254,-71"/>
<text text-anchor="start" x="672.254" y="-89" font-family="Helvetica,sans-Serif" font-size="10.00">src/cinder/audio/dsp</text>
<text text-anchor="middle" x="717" y="-77" font-family="Helvetica,sans-Serif" font-size="10.00">/Converter.cpp</text>
</a>
</g>
</g>
<!-- Node1&#45;&gt;Node9 -->
<g id="edge13" class="edge"><title>Node1&#45;&gt;Node9</title>
<path fill="none" stroke="midnightblue" d="M775.502,-200.579C773.033,-182.903 768.223,-159.17 759,-140 752.359,-126.196 741.4,-112.802 732.342,-103.066"/>
<polygon fill="midnightblue" stroke="midnightblue" points="772.054,-201.212 776.756,-210.706 779.001,-200.352 772.054,-201.212"/>
</g>
<!-- Node12 -->
<g id="node12" class="node"><title>Node12</title>
<g id="a_node12"><a xlink:href="_file_ogg_vorbis_8cpp.html" target="_top" xlink:title="src/cinder/audio/FileOgg\lVorbis.cpp">
<polygon fill="white" stroke="black" points="805.808,-141 805.808,-173 930.192,-173 930.192,-141 805.808,-141"/>
<text text-anchor="start" x="813.808" y="-159" font-family="Helvetica,sans-Serif" font-size="10.00">src/cinder/audio/FileOgg</text>
<text text-anchor="middle" x="868" y="-147" font-family="Helvetica,sans-Serif" font-size="10.00">Vorbis.cpp</text>
</a>
</g>
</g>
<!-- Node1&#45;&gt;Node12 -->
<g id="edge14" class="edge"><title>Node1&#45;&gt;Node12</title>
<path fill="none" stroke="midnightblue" d="M806.086,-204.779C819.705,-194.49 835.742,-182.373 848.082,-173.049"/>
<polygon fill="midnightblue" stroke="midnightblue" points="803.843,-202.088 797.974,-210.909 808.063,-207.673 803.843,-202.088"/>
</g>
<!-- Node13 -->
<g id="node13" class="node"><title>Node13</title>
<g id="a_node13"><a xlink:href="_node_8cpp.html" target="_top" xlink:title="src/cinder/audio/Node.cpp">
<polygon fill="white" stroke="black" points="947.912,-147 947.912,-167 1080.09,-167 1080.09,-147 947.912,-147"/>
<text text-anchor="middle" x="1014" y="-153" font-family="Helvetica,sans-Serif" font-size="10.00">src/cinder/audio/Node.cpp</text>
</a>
</g>
</g>
<!-- Node1&#45;&gt;Node13 -->
<g id="edge15" class="edge"><title>Node1&#45;&gt;Node13</title>
<path fill="none" stroke="midnightblue" d="M839.928,-208.156C885.804,-194.938 946.411,-177.475 982.672,-167.027"/>
<polygon fill="midnightblue" stroke="midnightblue" points="838.723,-204.861 830.083,-210.993 840.662,-211.587 838.723,-204.861"/>
</g>
<!-- Node14 -->
<g id="node14" class="node"><title>Node14</title>
<g id="a_node14"><a xlink:href="_source_8cpp.html" target="_top" xlink:title="src/cinder/audio/Source.cpp">
<polygon fill="white" stroke="black" points="1098.02,-147 1098.02,-167 1237.98,-167 1237.98,-147 1098.02,-147"/>
<text text-anchor="middle" x="1168" y="-153" font-family="Helvetica,sans-Serif" font-size="10.00">src/cinder/audio/Source.cpp</text>
</a>
</g>
</g>
<!-- Node1&#45;&gt;Node14 -->
<g id="edge16" class="edge"><title>Node1&#45;&gt;Node14</title>
<path fill="none" stroke="midnightblue" d="M840.802,-216.145C903.696,-206.124 1003.21,-189.856 1089,-174 1100.56,-171.864 1113.04,-169.407 1124.59,-167.07"/>
<polygon fill="midnightblue" stroke="midnightblue" points="839.973,-212.733 830.647,-217.759 841.072,-219.646 839.973,-212.733"/>
</g>
<!-- Node3 -->
<g id="node3" class="node"><title>Node3</title>
<g id="a_node3"><a xlink:href="_context_audio_unit_8h.html" target="_top" xlink:title="include/cinder/audio\l/cocoa/ContextAudioUnit.h">
<polygon fill="white" stroke="black" points="171.798,-71 171.798,-103 306.202,-103 306.202,-71 171.798,-71"/>
<text text-anchor="start" x="179.798" y="-89" font-family="Helvetica,sans-Serif" font-size="10.00">include/cinder/audio</text>
<text text-anchor="middle" x="239" y="-77" font-family="Helvetica,sans-Serif" font-size="10.00">/cocoa/ContextAudioUnit.h</text>
</a>
</g>
</g>
<!-- Node2&#45;&gt;Node3 -->
<g id="edge2" class="edge"><title>Node2&#45;&gt;Node3</title>
<path fill="none" stroke="midnightblue" d="M269.702,-132.42C262.968,-122.677 255.36,-111.669 249.402,-103.049"/>
<polygon fill="midnightblue" stroke="midnightblue" points="267.004,-134.672 275.569,-140.909 272.763,-130.692 267.004,-134.672"/>
</g>
<!-- Node5 -->
<g id="node5" class="node"><title>Node5</title>
<g id="a_node5"><a xlink:href="_file_core_audio_8h.html" target="_top" xlink:title="include/cinder/audio\l/cocoa/FileCoreAudio.h">
<polygon fill="white" stroke="black" points="362.027,-71 362.027,-103 481.973,-103 481.973,-71 362.027,-71"/>
<text text-anchor="start" x="370.027" y="-89" font-family="Helvetica,sans-Serif" font-size="10.00">include/cinder/audio</text>
<text text-anchor="middle" x="422" y="-77" font-family="Helvetica,sans-Serif" font-size="10.00">/cocoa/FileCoreAudio.h</text>
</a>
</g>
</g>
<!-- Node2&#45;&gt;Node5 -->
<g id="edge4" class="edge"><title>Node2&#45;&gt;Node5</title>
<path fill="none" stroke="midnightblue" d="M325.269,-136.366C346.491,-125.755 372.287,-112.857 391.902,-103.049"/>
<polygon fill="midnightblue" stroke="midnightblue" points="323.562,-133.306 316.183,-140.909 326.692,-139.567 323.562,-133.306"/>
</g>
<!-- Node7 -->
<g id="node7" class="node"><title>Node7</title>
<g id="a_node7"><a xlink:href="_cinder_core_audio_8cpp.html" target="_top" xlink:title="src/cinder/audio/cocoa\l/CinderCoreAudio.cpp">
<polygon fill="white" stroke="black" points="-0.0268555,-71 -0.0268555,-103 116.027,-103 116.027,-71 -0.0268555,-71"/>
<text text-anchor="start" x="7.97314" y="-89" font-family="Helvetica,sans-Serif" font-size="10.00">src/cinder/audio/cocoa</text>
<text text-anchor="middle" x="58" y="-77" font-family="Helvetica,sans-Serif" font-size="10.00">/CinderCoreAudio.cpp</text>
</a>
</g>
</g>
<!-- Node2&#45;&gt;Node7 -->
<g id="edge6" class="edge"><title>Node2&#45;&gt;Node7</title>
<path fill="none" stroke="midnightblue" d="M225.658,-138.003C189.164,-127.119 143.164,-113.4 108.583,-103.086"/>
<polygon fill="midnightblue" stroke="midnightblue" points="225.099,-141.489 235.682,-140.993 227.1,-134.781 225.099,-141.489"/>
</g>
<!-- Node4 -->
<g id="node4" class="node"><title>Node4</title>
<g id="a_node4"><a xlink:href="_context_audio_unit_8cpp.html" target="_top" xlink:title="src/cinder/audio/cocoa\l/ContextAudioUnit.cpp">
<polygon fill="white" stroke="black" points="146.973,-1 146.973,-33 263.027,-33 263.027,-1 146.973,-1"/>
<text text-anchor="start" x="154.973" y="-19" font-family="Helvetica,sans-Serif" font-size="10.00">src/cinder/audio/cocoa</text>
<text text-anchor="middle" x="205" y="-7" font-family="Helvetica,sans-Serif" font-size="10.00">/ContextAudioUnit.cpp</text>
</a>
</g>
</g>
<!-- Node2&#45;&gt;Node4 -->
<g id="edge7" class="edge"><title>Node2&#45;&gt;Node4</title>
<path fill="none" stroke="midnightblue" d="M209.875,-139.641C191.502,-131.933 174.013,-120.613 163,-104 147.576,-80.7334 170.484,-50.9671 188.056,-33.2521"/>
<polygon fill="midnightblue" stroke="midnightblue" points="208.646,-142.918 219.236,-143.246 211.162,-136.386 208.646,-142.918"/>
</g>
<!-- Node6 -->
<g id="node6" class="node"><title>Node6</title>
<g id="a_node6"><a xlink:href="_file_core_audio_8cpp.html" target="_top" xlink:title="src/cinder/audio/cocoa\l/FileCoreAudio.cpp">
<polygon fill="white" stroke="black" points="308.973,-1 308.973,-33 425.027,-33 425.027,-1 308.973,-1"/>
<text text-anchor="start" x="316.973" y="-19" font-family="Helvetica,sans-Serif" font-size="10.00">src/cinder/audio/cocoa</text>
<text text-anchor="middle" x="367" y="-7" font-family="Helvetica,sans-Serif" font-size="10.00">/FileCoreAudio.cpp</text>
</a>
</g>
</g>
<!-- Node2&#45;&gt;Node6 -->
<g id="edge8" class="edge"><title>Node2&#45;&gt;Node6</title>
<path fill="none" stroke="midnightblue" d="M300.05,-132.063C316.775,-103.569 344.197,-56.8502 358.188,-33.0126"/>
<polygon fill="midnightblue" stroke="midnightblue" points="296.866,-130.573 294.823,-140.969 302.903,-134.116 296.866,-130.573"/>
</g>
<!-- Node3&#45;&gt;Node4 -->
<g id="edge3" class="edge"><title>Node3&#45;&gt;Node4</title>
<path fill="none" stroke="midnightblue" d="M226.911,-61.8223C222.114,-52.2284 216.747,-41.4932 212.525,-33.0492"/>
<polygon fill="midnightblue" stroke="midnightblue" points="223.852,-63.5296 231.454,-70.9086 230.113,-60.399 223.852,-63.5296"/>
</g>
<!-- Node5&#45;&gt;Node6 -->
<g id="edge5" class="edge"><title>Node5&#45;&gt;Node6</title>
<path fill="none" stroke="midnightblue" d="M403.409,-63.0153C395.412,-53.127 386.286,-41.845 379.172,-33.0492"/>
<polygon fill="midnightblue" stroke="midnightblue" points="400.784,-65.3345 409.794,-70.9086 406.226,-60.9324 400.784,-65.3345"/>
</g>
<!-- Node8&#45;&gt;Node9 -->
<g id="edge10" class="edge"><title>Node8&#45;&gt;Node9</title>
<path fill="none" stroke="midnightblue" d="M578.695,-137.499C608.912,-126.684 646.565,-113.208 674.951,-103.049"/>
<polygon fill="midnightblue" stroke="midnightblue" points="577.403,-134.244 569.167,-140.909 579.762,-140.834 577.403,-134.244"/>
</g>
<!-- Node10 -->
<g id="node10" class="node"><title>Node10</title>
<g id="a_node10"><a xlink:href="_converter_r8brain_8cpp.html" target="_top" xlink:title="src/cinder/audio/dsp\l/ConverterR8brain.cpp">
<polygon fill="white" stroke="black" points="499.697,-71 499.697,-103 616.303,-103 616.303,-71 499.697,-71"/>
<text text-anchor="start" x="507.697" y="-89" font-family="Helvetica,sans-Serif" font-size="10.00">src/cinder/audio/dsp</text>
<text text-anchor="middle" x="558" y="-77" font-family="Helvetica,sans-Serif" font-size="10.00">/ConverterR8brain.cpp</text>
</a>
</g>
</g>
<!-- Node8&#45;&gt;Node10 -->
<g id="edge11" class="edge"><title>Node8&#45;&gt;Node10</title>
<path fill="none" stroke="midnightblue" d="M538.159,-131.522C542.498,-122.005 547.33,-111.405 551.139,-103.049"/>
<polygon fill="midnightblue" stroke="midnightblue" points="534.843,-130.358 533.88,-140.909 541.213,-133.261 534.843,-130.358"/>
</g>
</g>
</svg>
        <g id="navigator" transform="translate(0 0)" fill="#404254">
                <rect fill="#f2f5e9" fill-opacity="0.5" stroke="#606060" stroke-width=".5" x="0" y="0" width="60" height="60"/>
                <use id="zoomplus" xlink:href="#zoomPlus" x="17" y="9" onmousedown="handleZoom(evt,'in')"/>
                <use id="zoomminus" xlink:href="#zoomMin" x="42" y="9" onmousedown="handleZoom(evt,'out')"/>
                <use id="reset" xlink:href="#resetDef" x="30" y="36" onmousedown="handleReset()"/>
                <g id="arrowUp" xlink:href="#dirArrow" transform="translate(30 24)" onmousedown="handlePan(0,-1)">
                  <use xlink:href="#rim" fill="#404040">
                        <set attributeName="fill" to="#808080" begin="arrowUp.mouseover" end="arrowUp.mouseout"/>
                  </use>
                  <path fill="none" stroke="white" stroke-width="1.5" d="M0,-3.0v7 M-2.5,-0.5L0,-3.0L2.5,-0.5"/>
                </g>
                <g id="arrowRight" xlink:href="#dirArrow" transform="rotate(90) translate(36 -43)" onmousedown="handlePan(1,0)">
                  <use xlink:href="#rim" fill="#404040">
                        <set attributeName="fill" to="#808080" begin="arrowRight.mouseover" end="arrowRight.mouseout"/>
                  </use>
                  <path fill="none" stroke="white" stroke-width="1.5" d="M0,-3.0v7 M-2.5,-0.5L0,-3.0L2.5,-0.5"/>
                </g>
                <g id="arrowDown" xlink:href="#dirArrow" transform="rotate(180) translate(-30 -48)" onmousedown="handlePan(0,1)">
                  <use xlink:href="#rim" fill="#404040">
                        <set attributeName="fill" to="#808080" begin="arrowDown.mouseover" end="arrowDown.mouseout"/>
                  </use>
                  <path fill="none" stroke="white" stroke-width="1.5" d="M0,-3.0v7 M-2.5,-0.5L0,-3.0L2.5,-0.5"/>
                </g>
                <g id="arrowLeft" xlink:href="#dirArrow" transform="rotate(270) translate(-36 17)" onmousedown="handlePan(-1,0)">
                  <use xlink:href="#rim" fill="#404040">
                        <set attributeName="fill" to="#808080" begin="arrowLeft.mouseover" end="arrowLeft.mouseout"/>
                  </use>
                  <path fill="none" stroke="white" stroke-width="1.5" d="M0,-3.0v7 M-2.5,-0.5L0,-3.0L2.5,-0.5"/>
                </g>
        </g>
        <svg viewBox="0 0 15 15" width="100%" height="30px" preserveAspectRatio="xMaxYMin meet">
         <g id="arrow_out" transform="scale(0.3 0.3)">
          <a xlink:href="_converter_8h__dep__incl_org.svg" target="_base">
           <rect id="button" ry="5" rx="5" y="6" x="6" height="38" width="38"
                fill="#f2f5e9" fill-opacity="0.5" stroke="#606060" stroke-width="1.0"/>
           <path id="arrow"
             d="M 11.500037,31.436501 C 11.940474,20.09759 22.043105,11.32322 32.158766,21.979434 L 37.068811,17.246167 C 37.068811,17.246167 37.088388,32 37.088388,32 L 22.160133,31.978069 C 22.160133,31.978069 26.997745,27.140456 26.997745,27.140456 C 18.528582,18.264221 13.291696,25.230495 11.500037,31.436501 z"
             style="fill:#404040;"/>
          </a>
         </g>
        </svg>
</svg>
