<?xml version="1.0" encoding="UTF-8" standalone="no"?>
<!DOCTYPE svg PUBLIC "-//W3C//DTD SVG 1.1//EN"
 "http://www.w3.org/Graphics/SVG/1.1/DTD/svg11.dtd">
<!-- Generated by graphviz version 2.30.1 (20140712.1814)
 -->
<!-- Title: include/cinder/audio/dsp/ConverterR8brain.h Pages: 1 -->
<svg width="388pt" height="274pt"
 viewBox="0.00 0.00 388.00 274.00" xmlns="http://www.w3.org/2000/svg" xmlns:xlink="http://www.w3.org/1999/xlink">
<g id="graph0" class="graph" transform="scale(1 1) rotate(0) translate(4 270)">
<title>include/cinder/audio/dsp/ConverterR8brain.h</title>
<polygon fill="white" stroke="white" points="-4,5 -4,-270 385,-270 385,5 -4,5"/>
<!-- Node1 -->
<g id="node1" class="node"><title>Node1</title>
<polygon fill="#bfbfbf" stroke="black" points="143.527,-233 143.527,-265 268.473,-265 268.473,-233 143.527,-233"/>
<text text-anchor="start" x="151.527" y="-251" font-family="Helvetica,sans-Serif" font-size="10.00">include/cinder/audio</text>
<text text-anchor="middle" x="206" y="-239" font-family="Helvetica,sans-Serif" font-size="10.00">/dsp/ConverterR8brain.h</text>
</g>
<!-- Node2 -->
<g id="node2" class="node"><title>Node2</title>
<g id="a_node2"><a xlink:href="_converter_8h.html" target="_top" xlink:title="cinder/audio/dsp/Converter.h">
<polygon fill="white" stroke="black" points="134.069,-175 134.069,-195 277.931,-195 277.931,-175 134.069,-175"/>
<text text-anchor="middle" x="206" y="-181" font-family="Helvetica,sans-Serif" font-size="10.00">cinder/audio/dsp/Converter.h</text>
</a>
</g>
</g>
<!-- Node1&#45;&gt;Node2 -->
<g id="edge1" class="edge"><title>Node1&#45;&gt;Node2</title>
<path fill="none" stroke="midnightblue" d="M206,-232.992C206,-224.726 206,-214.373 206,-205.489"/>
<polygon fill="midnightblue" stroke="midnightblue" points="209.5,-205.29 206,-195.29 202.5,-205.29 209.5,-205.29"/>
</g>
<!-- Node7 -->
<g id="node7" class="node"><title>Node7</title>
<polygon fill="white" stroke="#bfbfbf" points="-0.615723,-59 -0.615723,-79 42.6157,-79 42.6157,-59 -0.615723,-59"/>
<text text-anchor="middle" x="21" y="-65" font-family="Helvetica,sans-Serif" font-size="10.00">vector</text>
</g>
<!-- Node1&#45;&gt;Node7 -->
<g id="edge11" class="edge"><title>Node1&#45;&gt;Node7</title>
<path fill="none" stroke="midnightblue" d="M177.88,-232.868C161.567,-223.399 141.125,-210.307 125,-196 86.641,-161.965 50.5909,-113.159 32.7208,-87.4204"/>
<polygon fill="midnightblue" stroke="midnightblue" points="35.5275,-85.3244 26.989,-79.0518 29.7522,-89.28 35.5275,-85.3244"/>
</g>
<!-- Node8 -->
<g id="node8" class="node"><title>Node8</title>
<polygon fill="white" stroke="#bfbfbf" points="327.943,-59 327.943,-79 380.057,-79 380.057,-59 327.943,-59"/>
<text text-anchor="middle" x="354" y="-65" font-family="Helvetica,sans-Serif" font-size="10.00">memory</text>
</g>
<!-- Node1&#45;&gt;Node8 -->
<g id="edge12" class="edge"><title>Node1&#45;&gt;Node8</title>
<path fill="none" stroke="midnightblue" d="M236.771,-232.829C252.875,-223.776 272.079,-211.104 286,-196 316.057,-163.389 337.247,-115.032 347.331,-88.717"/>
<polygon fill="midnightblue" stroke="midnightblue" points="350.667,-89.7876 350.86,-79.1945 344.103,-87.3548 350.667,-89.7876"/>
</g>
<!-- Node3 -->
<g id="node3" class="node"><title>Node3</title>
<g id="a_node3"><a xlink:href="audio_2_buffer_8h.html" target="_top" xlink:title="cinder/audio/Buffer.h">
<polygon fill="white" stroke="black" points="143.221,-117 143.221,-137 250.779,-137 250.779,-117 143.221,-117"/>
<text text-anchor="middle" x="197" y="-123" font-family="Helvetica,sans-Serif" font-size="10.00">cinder/audio/Buffer.h</text>
</a>
</g>
</g>
<!-- Node2&#45;&gt;Node3 -->
<g id="edge2" class="edge"><title>Node2&#45;&gt;Node3</title>
<path fill="none" stroke="midnightblue" d="M204.514,-174.753C203.308,-167.25 201.568,-156.424 200.066,-147.078"/>
<polygon fill="midnightblue" stroke="midnightblue" points="203.501,-146.393 198.459,-137.075 196.59,-147.504 203.501,-146.393"/>
</g>
<!-- Node2&#45;&gt;Node8 -->
<g id="edge10" class="edge"><title>Node2&#45;&gt;Node8</title>
<path fill="none" stroke="midnightblue" d="M217.861,-174.864C243.192,-155.352 302.803,-109.436 334.068,-85.3533"/>
<polygon fill="midnightblue" stroke="midnightblue" points="336.296,-88.055 342.082,-79.1799 332.024,-82.5094 336.296,-88.055"/>
</g>
<!-- Node4 -->
<g id="node4" class="node"><title>Node4</title>
<g id="a_node4"><a xlink:href="_cinder_assert_8h.html" target="_top" xlink:title="cinder/CinderAssert.h">
<polygon fill="white" stroke="black" points="135.924,-59 135.924,-79 248.076,-79 248.076,-59 135.924,-59"/>
<text text-anchor="middle" x="192" y="-65" font-family="Helvetica,sans-Serif" font-size="10.00">cinder/CinderAssert.h</text>
</a>
</g>
</g>
<!-- Node3&#45;&gt;Node4 -->
<g id="edge3" class="edge"><title>Node3&#45;&gt;Node4</title>
<path fill="none" stroke="midnightblue" d="M196.174,-116.753C195.505,-109.25 194.538,-98.4238 193.703,-89.0781"/>
<polygon fill="midnightblue" stroke="midnightblue" points="197.186,-88.7243 192.81,-79.0752 190.214,-89.3469 197.186,-88.7243"/>
</g>
<!-- Node3&#45;&gt;Node7 -->
<g id="edge6" class="edge"><title>Node3&#45;&gt;Node7</title>
<path fill="none" stroke="midnightblue" d="M167.869,-116.977C140.327,-108.412 97.6032,-95.0392 52.3145,-80.3955"/>
<polygon fill="midnightblue" stroke="midnightblue" points="53.2079,-77.0059 42.616,-77.2527 51.05,-83.665 53.2079,-77.0059"/>
</g>
<!-- Node3&#45;&gt;Node8 -->
<g id="edge7" class="edge"><title>Node3&#45;&gt;Node8</title>
<path fill="none" stroke="midnightblue" d="M222.574,-116.878C248.882,-107.494 290.035,-92.8155 319.276,-82.3857"/>
<polygon fill="midnightblue" stroke="midnightblue" points="320.454,-85.6815 328.697,-79.0253 318.102,-79.0884 320.454,-85.6815"/>
</g>
<!-- Node9 -->
<g id="node9" class="node"><title>Node9</title>
<polygon fill="white" stroke="#bfbfbf" points="265.828,-59 265.828,-79 310.172,-79 310.172,-59 265.828,-59"/>
<text text-anchor="middle" x="288" y="-65" font-family="Helvetica,sans-Serif" font-size="10.00">cstdlib</text>
</g>
<!-- Node3&#45;&gt;Node9 -->
<g id="edge8" class="edge"><title>Node3&#45;&gt;Node9</title>
<path fill="none" stroke="midnightblue" d="M212.027,-116.753C226.338,-107.946 248.094,-94.5575 264.662,-84.3617"/>
<polygon fill="midnightblue" stroke="midnightblue" points="266.571,-87.297 273.253,-79.0752 262.902,-81.3354 266.571,-87.297"/>
</g>
<!-- Node10 -->
<g id="node10" class="node"><title>Node10</title>
<polygon fill="white" stroke="#bfbfbf" points="60.436,-59 60.436,-79 117.564,-79 117.564,-59 60.436,-59"/>
<text text-anchor="middle" x="89" y="-65" font-family="Helvetica,sans-Serif" font-size="10.00">algorithm</text>
</g>
<!-- Node3&#45;&gt;Node10 -->
<g id="edge9" class="edge"><title>Node3&#45;&gt;Node10</title>
<path fill="none" stroke="midnightblue" d="M179.166,-116.753C161.866,-107.783 135.402,-94.0601 115.612,-83.7986"/>
<polygon fill="midnightblue" stroke="midnightblue" points="116.991,-80.5713 106.502,-79.0752 113.769,-86.7856 116.991,-80.5713"/>
</g>
<!-- Node5 -->
<g id="node5" class="node"><title>Node5</title>
<g id="a_node5"><a xlink:href="_current_function_8h.html" target="_top" xlink:title="cinder/CurrentFunction.h">
<polygon fill="white" stroke="black" points="76.9731,-1 76.9731,-21 203.027,-21 203.027,-1 76.9731,-1"/>
<text text-anchor="middle" x="140" y="-7" font-family="Helvetica,sans-Serif" font-size="10.00">cinder/CurrentFunction.h</text>
</a>
</g>
</g>
<!-- Node4&#45;&gt;Node5 -->
<g id="edge4" class="edge"><title>Node4&#45;&gt;Node5</title>
<path fill="none" stroke="midnightblue" d="M183.413,-58.7527C175.841,-50.598 164.622,-38.5158 155.486,-28.6769"/>
<polygon fill="midnightblue" stroke="midnightblue" points="157.796,-26.0216 148.427,-21.0752 152.667,-30.7847 157.796,-26.0216"/>
</g>
<!-- Node6 -->
<g id="node6" class="node"><title>Node6</title>
<polygon fill="white" stroke="#bfbfbf" points="220.884,-1 220.884,-21 269.116,-21 269.116,-1 220.884,-1"/>
<text text-anchor="middle" x="245" y="-7" font-family="Helvetica,sans-Serif" font-size="10.00">cassert</text>
</g>
<!-- Node4&#45;&gt;Node6 -->
<g id="edge5" class="edge"><title>Node4&#45;&gt;Node6</title>
<path fill="none" stroke="midnightblue" d="M200.752,-58.7527C208.547,-50.5165 220.134,-38.2738 229.495,-28.3824"/>
<polygon fill="midnightblue" stroke="midnightblue" points="232.079,-30.744 236.411,-21.0752 226.995,-25.9323 232.079,-30.744"/>
</g>
</g>
</svg>
