<?xml version="1.0" encoding="UTF-8" standalone="no"?>
<!DOCTYPE svg PUBLIC "-//W3C//DTD SVG 1.1//EN"
 "http://www.w3.org/Graphics/SVG/1.1/DTD/svg11.dtd">
<!-- Generated by graphviz version 2.30.1 (20140712.1814)
 -->
<!-- Title: src/cinder/audio/dsp/Converter.cpp Pages: 1 -->
<svg width="705pt" height="344pt"
 viewBox="0.00 0.00 705.00 344.00" xmlns="http://www.w3.org/2000/svg" xmlns:xlink="http://www.w3.org/1999/xlink">
<g id="graph0" class="graph" transform="scale(1 1) rotate(0) translate(4 340)">
<title>src/cinder/audio/dsp/Converter.cpp</title>
<polygon fill="white" stroke="white" points="-4,5 -4,-340 702,-340 702,5 -4,5"/>
<!-- Node1 -->
<g id="node1" class="node"><title>Node1</title>
<polygon fill="#bfbfbf" stroke="black" points="432.254,-303 432.254,-335 537.746,-335 537.746,-303 432.254,-303"/>
<text text-anchor="start" x="440.254" y="-321" font-family="Helvetica,sans-Serif" font-size="10.00">src/cinder/audio/dsp</text>
<text text-anchor="middle" x="485" y="-309" font-family="Helvetica,sans-Serif" font-size="10.00">/Converter.cpp</text>
</g>
<!-- Node2 -->
<g id="node2" class="node"><title>Node2</title>
<g id="a_node2"><a xlink:href="_converter_8h.html" target="_top" xlink:title="cinder/audio/dsp/Converter.h">
<polygon fill="white" stroke="black" points="513.069,-175 513.069,-195 656.931,-195 656.931,-175 513.069,-175"/>
<text text-anchor="middle" x="585" y="-181" font-family="Helvetica,sans-Serif" font-size="10.00">cinder/audio/dsp/Converter.h</text>
</a>
</g>
</g>
<!-- Node1&#45;&gt;Node2 -->
<g id="edge1" class="edge"><title>Node1&#45;&gt;Node2</title>
<path fill="none" stroke="midnightblue" d="M517.47,-302.824C532.991,-294.064 550.621,-281.659 562,-266 575.171,-247.874 580.824,-222.361 583.235,-205.057"/>
<polygon fill="midnightblue" stroke="midnightblue" points="586.723,-205.367 584.398,-195.03 579.769,-204.561 586.723,-205.367"/>
</g>
<!-- Node11 -->
<g id="node11" class="node"><title>Node11</title>
<g id="a_node11"><a xlink:href="_dsp_8h.html" target="_top" xlink:title="cinder/audio/dsp/Dsp.h">
<polygon fill="white" stroke="black" points="267.857,-117 267.857,-137 386.143,-137 386.143,-117 267.857,-117"/>
<text text-anchor="middle" x="327" y="-123" font-family="Helvetica,sans-Serif" font-size="10.00">cinder/audio/dsp/Dsp.h</text>
</a>
</g>
</g>
<!-- Node1&#45;&gt;Node11 -->
<g id="edge11" class="edge"><title>Node1&#45;&gt;Node11</title>
<path fill="none" stroke="midnightblue" d="M456.359,-302.855C440.781,-293.647 421.911,-280.819 408,-266 373.438,-229.182 347.119,-175.071 334.763,-146.79"/>
<polygon fill="midnightblue" stroke="midnightblue" points="337.861,-145.133 330.723,-137.305 331.421,-147.877 337.861,-145.133"/>
</g>
<!-- Node18 -->
<g id="node18" class="node"><title>Node18</title>
<g id="a_node18"><a xlink:href="_converter_r8brain_8h.html" target="_top" xlink:title="cinder/audio/dsp/Converter\lR8brain.h">
<polygon fill="white" stroke="black" points="416.966,-233 416.966,-265 553.034,-265 553.034,-233 416.966,-233"/>
<text text-anchor="start" x="424.966" y="-251" font-family="Helvetica,sans-Serif" font-size="10.00">cinder/audio/dsp/Converter</text>
<text text-anchor="middle" x="485" y="-239" font-family="Helvetica,sans-Serif" font-size="10.00">R8brain.h</text>
</a>
</g>
</g>
<!-- Node1&#45;&gt;Node18 -->
<g id="edge20" class="edge"><title>Node1&#45;&gt;Node18</title>
<path fill="none" stroke="midnightblue" d="M485,-302.909C485,-294.809 485,-284.611 485,-275.334"/>
<polygon fill="midnightblue" stroke="midnightblue" points="488.5,-275.049 485,-265.049 481.5,-275.049 488.5,-275.049"/>
</g>
<!-- Node4 -->
<g id="node4" class="node"><title>Node4</title>
<g id="a_node4"><a xlink:href="_cinder_assert_8h.html" target="_top" xlink:title="cinder/CinderAssert.h">
<polygon fill="white" stroke="black" points="72.9238,-59 72.9238,-79 185.076,-79 185.076,-59 72.9238,-59"/>
<text text-anchor="middle" x="129" y="-65" font-family="Helvetica,sans-Serif" font-size="10.00">cinder/CinderAssert.h</text>
</a>
</g>
</g>
<!-- Node1&#45;&gt;Node4 -->
<g id="edge24" class="edge"><title>Node1&#45;&gt;Node4</title>
<path fill="none" stroke="midnightblue" d="M449.645,-302.904C428.552,-293.354 401.57,-280.166 379,-266 285.672,-207.425 185.749,-120.9 146.368,-85.727"/>
<polygon fill="midnightblue" stroke="midnightblue" points="148.687,-83.1054 138.907,-79.0295 144.01,-88.3143 148.687,-83.1054"/>
</g>
<!-- Node10 -->
<g id="node10" class="node"><title>Node10</title>
<polygon fill="white" stroke="#bfbfbf" points="639.436,-59 639.436,-79 696.564,-79 696.564,-59 639.436,-59"/>
<text text-anchor="middle" x="668" y="-65" font-family="Helvetica,sans-Serif" font-size="10.00">algorithm</text>
</g>
<!-- Node1&#45;&gt;Node10 -->
<g id="edge25" class="edge"><title>Node1&#45;&gt;Node10</title>
<path fill="none" stroke="midnightblue" d="M529.837,-302.94C574.151,-285.26 638.978,-251.137 665,-196 681.433,-161.181 676.693,-114.699 672.123,-89.0375"/>
<polygon fill="midnightblue" stroke="midnightblue" points="675.536,-88.2559 670.174,-79.1182 668.667,-89.6054 675.536,-88.2559"/>
</g>
<!-- Node3 -->
<g id="node3" class="node"><title>Node3</title>
<g id="a_node3"><a xlink:href="audio_2_buffer_8h.html" target="_top" xlink:title="cinder/audio/Buffer.h">
<polygon fill="white" stroke="black" points="442.221,-117 442.221,-137 549.779,-137 549.779,-117 442.221,-117"/>
<text text-anchor="middle" x="496" y="-123" font-family="Helvetica,sans-Serif" font-size="10.00">cinder/audio/Buffer.h</text>
</a>
</g>
</g>
<!-- Node2&#45;&gt;Node3 -->
<g id="edge2" class="edge"><title>Node2&#45;&gt;Node3</title>
<path fill="none" stroke="midnightblue" d="M570.303,-174.753C556.436,-166.027 535.422,-152.805 519.276,-142.646"/>
<polygon fill="midnightblue" stroke="midnightblue" points="520.751,-139.438 510.423,-137.075 517.023,-145.363 520.751,-139.438"/>
</g>
<!-- Node8 -->
<g id="node8" class="node"><title>Node8</title>
<polygon fill="white" stroke="#bfbfbf" points="551.943,-59 551.943,-79 604.057,-79 604.057,-59 551.943,-59"/>
<text text-anchor="middle" x="578" y="-65" font-family="Helvetica,sans-Serif" font-size="10.00">memory</text>
</g>
<!-- Node2&#45;&gt;Node8 -->
<g id="edge10" class="edge"><title>Node2&#45;&gt;Node8</title>
<path fill="none" stroke="midnightblue" d="M587.419,-174.728C590.51,-161.608 595.109,-136.895 592,-116 590.65,-106.929 587.881,-97.1721 585.159,-88.9885"/>
<polygon fill="midnightblue" stroke="midnightblue" points="588.373,-87.5808 581.731,-79.3267 581.776,-89.9214 588.373,-87.5808"/>
</g>
<!-- Node3&#45;&gt;Node4 -->
<g id="edge3" class="edge"><title>Node3&#45;&gt;Node4</title>
<path fill="none" stroke="midnightblue" d="M441.988,-117.798C383.687,-108.939 287.8,-94.3524 195.448,-80.2202"/>
<polygon fill="midnightblue" stroke="midnightblue" points="195.784,-76.7308 185.369,-78.6775 194.725,-83.6503 195.784,-76.7308"/>
</g>
<!-- Node7 -->
<g id="node7" class="node"><title>Node7</title>
<polygon fill="white" stroke="#bfbfbf" points="428.384,-59 428.384,-79 471.616,-79 471.616,-59 428.384,-59"/>
<text text-anchor="middle" x="450" y="-65" font-family="Helvetica,sans-Serif" font-size="10.00">vector</text>
</g>
<!-- Node3&#45;&gt;Node7 -->
<g id="edge6" class="edge"><title>Node3&#45;&gt;Node7</title>
<path fill="none" stroke="midnightblue" d="M488.404,-116.753C481.773,-108.68 471.979,-96.7571 463.942,-86.9727"/>
<polygon fill="midnightblue" stroke="midnightblue" points="466.507,-84.5809 457.455,-79.0752 461.098,-89.0241 466.507,-84.5809"/>
</g>
<!-- Node3&#45;&gt;Node8 -->
<g id="edge7" class="edge"><title>Node3&#45;&gt;Node8</title>
<path fill="none" stroke="midnightblue" d="M509.541,-116.753C522.198,-108.109 541.317,-95.0518 556.136,-84.9314"/>
<polygon fill="midnightblue" stroke="midnightblue" points="558.427,-87.6052 564.711,-79.0752 554.479,-81.8245 558.427,-87.6052"/>
</g>
<!-- Node9 -->
<g id="node9" class="node"><title>Node9</title>
<polygon fill="white" stroke="#bfbfbf" points="489.828,-59 489.828,-79 534.172,-79 534.172,-59 489.828,-59"/>
<text text-anchor="middle" x="512" y="-65" font-family="Helvetica,sans-Serif" font-size="10.00">cstdlib</text>
</g>
<!-- Node3&#45;&gt;Node9 -->
<g id="edge8" class="edge"><title>Node3&#45;&gt;Node9</title>
<path fill="none" stroke="midnightblue" d="M498.642,-116.753C500.809,-109.169 503.946,-98.1881 506.636,-88.7739"/>
<polygon fill="midnightblue" stroke="midnightblue" points="510.025,-89.652 509.407,-79.0752 503.294,-87.7289 510.025,-89.652"/>
</g>
<!-- Node3&#45;&gt;Node10 -->
<g id="edge9" class="edge"><title>Node3&#45;&gt;Node10</title>
<path fill="none" stroke="midnightblue" d="M524.018,-116.878C552.964,-107.453 598.316,-92.6878 630.375,-82.2499"/>
<polygon fill="midnightblue" stroke="midnightblue" points="631.854,-85.4493 640.279,-79.0253 629.687,-78.7932 631.854,-85.4493"/>
</g>
<!-- Node5 -->
<g id="node5" class="node"><title>Node5</title>
<g id="a_node5"><a xlink:href="_current_function_8h.html" target="_top" xlink:title="cinder/CurrentFunction.h">
<polygon fill="white" stroke="black" points="65.9731,-1 65.9731,-21 192.027,-21 192.027,-1 65.9731,-1"/>
<text text-anchor="middle" x="129" y="-7" font-family="Helvetica,sans-Serif" font-size="10.00">cinder/CurrentFunction.h</text>
</a>
</g>
</g>
<!-- Node4&#45;&gt;Node5 -->
<g id="edge4" class="edge"><title>Node4&#45;&gt;Node5</title>
<path fill="none" stroke="midnightblue" d="M129,-58.7527C129,-51.2504 129,-40.4238 129,-31.0781"/>
<polygon fill="midnightblue" stroke="midnightblue" points="132.5,-31.0752 129,-21.0752 125.5,-31.0752 132.5,-31.0752"/>
</g>
<!-- Node6 -->
<g id="node6" class="node"><title>Node6</title>
<polygon fill="white" stroke="#bfbfbf" points="-0.115723,-1 -0.115723,-21 48.1157,-21 48.1157,-1 -0.115723,-1"/>
<text text-anchor="middle" x="24" y="-7" font-family="Helvetica,sans-Serif" font-size="10.00">cassert</text>
</g>
<!-- Node4&#45;&gt;Node6 -->
<g id="edge5" class="edge"><title>Node4&#45;&gt;Node6</title>
<path fill="none" stroke="midnightblue" d="M111.661,-58.7527C94.8423,-49.7826 69.1127,-36.0601 49.8724,-25.7986"/>
<polygon fill="midnightblue" stroke="midnightblue" points="51.4866,-22.6929 41.016,-21.0752 48.1924,-28.8694 51.4866,-22.6929"/>
</g>
<!-- Node11&#45;&gt;Node4 -->
<g id="edge12" class="edge"><title>Node11&#45;&gt;Node4</title>
<path fill="none" stroke="midnightblue" d="M294.747,-116.878C260.992,-107.331 207.858,-92.3033 170.882,-81.8454"/>
<polygon fill="midnightblue" stroke="midnightblue" points="171.486,-78.379 160.911,-79.0253 169.581,-85.1148 171.486,-78.379"/>
</g>
<!-- Node12 -->
<g id="node12" class="node"><title>Node12</title>
<g id="a_node12"><a xlink:href="_cinder_8h.html" target="_top" xlink:title="cinder/Cinder.h">
<polygon fill="white" stroke="black" points="203.367,-59 203.367,-79 286.633,-79 286.633,-59 203.367,-59"/>
<text text-anchor="middle" x="245" y="-65" font-family="Helvetica,sans-Serif" font-size="10.00">cinder/Cinder.h</text>
</a>
</g>
</g>
<!-- Node11&#45;&gt;Node12 -->
<g id="edge13" class="edge"><title>Node11&#45;&gt;Node12</title>
<path fill="none" stroke="midnightblue" d="M313.459,-116.753C300.802,-108.109 281.683,-95.0518 266.864,-84.9314"/>
<polygon fill="midnightblue" stroke="midnightblue" points="268.521,-81.8245 258.289,-79.0752 264.573,-87.6052 268.521,-81.8245"/>
</g>
<!-- Node16 -->
<g id="node16" class="node"><title>Node16</title>
<polygon fill="white" stroke="#bfbfbf" points="304.273,-59 304.273,-79 349.727,-79 349.727,-59 304.273,-59"/>
<text text-anchor="middle" x="327" y="-65" font-family="Helvetica,sans-Serif" font-size="10.00">atomic</text>
</g>
<!-- Node11&#45;&gt;Node16 -->
<g id="edge17" class="edge"><title>Node11&#45;&gt;Node16</title>
<path fill="none" stroke="midnightblue" d="M327,-116.753C327,-109.25 327,-98.4238 327,-89.0781"/>
<polygon fill="midnightblue" stroke="midnightblue" points="330.5,-89.0752 327,-79.0752 323.5,-89.0752 330.5,-89.0752"/>
</g>
<!-- Node11&#45;&gt;Node7 -->
<g id="edge18" class="edge"><title>Node11&#45;&gt;Node7</title>
<path fill="none" stroke="midnightblue" d="M347.036,-116.878C367.049,-107.766 398.029,-93.6617 420.781,-83.3028"/>
<polygon fill="midnightblue" stroke="midnightblue" points="422.322,-86.4472 429.973,-79.1181 419.421,-80.0764 422.322,-86.4472"/>
</g>
<!-- Node17 -->
<g id="node17" class="node"><title>Node17</title>
<polygon fill="white" stroke="#bfbfbf" points="367.384,-59 367.384,-79 410.616,-79 410.616,-59 367.384,-59"/>
<text text-anchor="middle" x="389" y="-65" font-family="Helvetica,sans-Serif" font-size="10.00">cmath</text>
</g>
<!-- Node11&#45;&gt;Node17 -->
<g id="edge19" class="edge"><title>Node11&#45;&gt;Node17</title>
<path fill="none" stroke="midnightblue" d="M337.238,-116.753C346.537,-108.353 360.45,-95.7874 371.51,-85.7976"/>
<polygon fill="midnightblue" stroke="midnightblue" points="373.877,-88.3755 378.952,-79.0752 369.185,-83.1807 373.877,-88.3755"/>
</g>
<!-- Node13 -->
<g id="node13" class="node"><title>Node13</title>
<polygon fill="white" stroke="#bfbfbf" points="209.549,-1 209.549,-21 254.451,-21 254.451,-1 209.549,-1"/>
<text text-anchor="middle" x="232" y="-7" font-family="Helvetica,sans-Serif" font-size="10.00">cstdint</text>
</g>
<!-- Node12&#45;&gt;Node13 -->
<g id="edge14" class="edge"><title>Node12&#45;&gt;Node13</title>
<path fill="none" stroke="midnightblue" d="M242.853,-58.7527C241.112,-51.2504 238.598,-40.4238 236.429,-31.0781"/>
<polygon fill="midnightblue" stroke="midnightblue" points="239.777,-30.0247 234.107,-21.0752 232.959,-31.6076 239.777,-30.0247"/>
</g>
<!-- Node14 -->
<g id="node14" class="node"><title>Node14</title>
<polygon fill="white" stroke="#bfbfbf" points="272.53,-1 272.53,-21 367.47,-21 367.47,-1 272.53,-1"/>
<text text-anchor="middle" x="320" y="-7" font-family="Helvetica,sans-Serif" font-size="10.00">boost/version.hpp</text>
</g>
<!-- Node12&#45;&gt;Node14 -->
<g id="edge15" class="edge"><title>Node12&#45;&gt;Node14</title>
<path fill="none" stroke="midnightblue" d="M257.385,-58.7527C268.852,-50.1903 286.119,-37.2978 299.618,-27.2186"/>
<polygon fill="midnightblue" stroke="midnightblue" points="301.927,-29.8626 307.846,-21.0752 297.739,-24.2536 301.927,-29.8626"/>
</g>
<!-- Node15 -->
<g id="node15" class="node"><title>Node15</title>
<polygon fill="white" stroke="#bfbfbf" points="385.621,-1 385.621,-21 518.379,-21 518.379,-1 385.621,-1"/>
<text text-anchor="middle" x="452" y="-7" font-family="Helvetica,sans-Serif" font-size="10.00">boost/checked_delete.hpp</text>
</g>
<!-- Node12&#45;&gt;Node15 -->
<g id="edge16" class="edge"><title>Node12&#45;&gt;Node15</title>
<path fill="none" stroke="midnightblue" d="M278.719,-58.878C314.159,-49.2902 370.032,-34.1748 408.709,-23.7116"/>
<polygon fill="midnightblue" stroke="midnightblue" points="409.9,-27.0154 418.639,-21.0253 408.072,-20.2583 409.9,-27.0154"/>
</g>
<!-- Node18&#45;&gt;Node2 -->
<g id="edge21" class="edge"><title>Node18&#45;&gt;Node2</title>
<path fill="none" stroke="midnightblue" d="M509.207,-232.992C525.153,-223.105 545.918,-210.231 561.68,-200.458"/>
<polygon fill="midnightblue" stroke="midnightblue" points="563.654,-203.353 570.308,-195.109 559.965,-197.404 563.654,-203.353"/>
</g>
<!-- Node18&#45;&gt;Node7 -->
<g id="edge22" class="edge"><title>Node18&#45;&gt;Node7</title>
<path fill="none" stroke="midnightblue" d="M475.108,-232.764C462.423,-212.228 441.096,-174.069 433,-138 429.22,-121.158 434.848,-102.104 440.619,-88.4588"/>
<polygon fill="midnightblue" stroke="midnightblue" points="443.878,-89.7501 444.906,-79.2053 437.526,-86.8073 443.878,-89.7501"/>
</g>
<!-- Node18&#45;&gt;Node8 -->
<g id="edge23" class="edge"><title>Node18&#45;&gt;Node8</title>
<path fill="none" stroke="midnightblue" d="M485.748,-232.779C487.208,-216.812 491.49,-191.633 504,-174 520.691,-150.475 540.904,-161.232 558,-138 568.578,-123.626 573.59,-103.714 575.947,-89.1515"/>
<polygon fill="midnightblue" stroke="midnightblue" points="579.416,-89.6165 577.28,-79.2392 572.478,-88.6833 579.416,-89.6165"/>
</g>
</g>
</svg>
