<?xml version="1.0" encoding="UTF-8" standalone="no"?>
<!DOCTYPE svg PUBLIC "-//W3C//DTD SVG 1.1//EN"
 "http://www.w3.org/Graphics/SVG/1.1/DTD/svg11.dtd">
<!-- Generated by graphviz version 2.30.1 (20140712.1814)
 -->
<!-- Title: include/cinder/ConvexHull.h Pages: 1 -->
<!--zoomable 494 -->
<svg id="main" version="1.1" xmlns="http://www.w3.org/2000/svg" xmlns:xlink="http://www.w3.org/1999/xlink" xml:space="preserve" onload="init(evt)">
<style type="text/css"><![CDATA[
.edge:hover path { stroke: red; }
.edge:hover polygon { stroke: red; fill: red; }
]]></style>
<script type="text/javascript"><![CDATA[
var edges = document.getElementsByTagName('g');
if (edges && edges.length) {
  for (var i=0;i<edges.length;i++) {
    if (edges[i].id.substr(0,4)=='edge') {
      edges[i].setAttribute('class','edge');
    }
  }
}
]]></script>
        <defs>
                <circle id="rim" cx="0" cy="0" r="7"/>
                <circle id="rim2" cx="0" cy="0" r="3.5"/>
                <g id="zoomPlus">
                        <use xlink:href="#rim" fill="#404040">
                                <set attributeName="fill" to="#808080" begin="zoomplus.mouseover" end="zoomplus.mouseout"/>
                        </use>
                        <path d="M-4,0h8M0,-4v8" fill="none" stroke="white" stroke-width="1.5" pointer-events="none"/>
                </g>
                <g id="zoomMin">
                        <use xlink:href="#rim" fill="#404040">
                                <set attributeName="fill" to="#808080" begin="zoomminus.mouseover" end="zoomminus.mouseout"/>
                        </use>
                        <path d="M-4,0h8" fill="none" stroke="white" stroke-width="1.5" pointer-events="none"/>
                </g>
                <g id="dirArrow">
                        <path fill="none" stroke="white" stroke-width="1.5" d="M0,-3.0v7 M-2.5,-0.5L0,-3.0L2.5,-0.5"/>
                </g>
               <g id="resetDef">
                       <use xlink:href="#rim2" fill="#404040">
                               <set attributeName="fill" to="#808080" begin="reset.mouseover" end="reset.mouseout"/>
                       </use>
               </g>
        </defs>

<script type="text/javascript">
var viewWidth = 967;
var viewHeight = 494;
var sectionId = 'dynsection-0';
</script>
<script xlink:href="svgpan.js"/>
<svg id="graph" class="graph">
<g id="viewport">
<title>include/cinder/ConvexHull.h</title>
<polygon fill="white" stroke="white" points="-4,5 -4,-490 964,-490 964,5 -4,5"/>
<!-- Node1 -->
<g id="node1" class="node"><title>Node1</title>
<polygon fill="#bfbfbf" stroke="black" points="539.022,-465 539.022,-485 678.978,-485 678.978,-465 539.022,-465"/>
<text text-anchor="middle" x="609" y="-471" font-family="Helvetica,sans-Serif" font-size="10.00">include/cinder/ConvexHull.h</text>
</g>
<!-- Node2 -->
<g id="node2" class="node"><title>Node2</title>
<g id="a_node2"><a xlink:href="_cinder_8h.html" target="_top" xlink:title="cinder/Cinder.h">
<polygon fill="white" stroke="black" points="619.367,-59 619.367,-79 702.633,-79 702.633,-59 619.367,-59"/>
<text text-anchor="middle" x="661" y="-65" font-family="Helvetica,sans-Serif" font-size="10.00">cinder/Cinder.h</text>
</a>
</g>
</g>
<!-- Node1&#45;&gt;Node2 -->
<g id="edge1" class="edge"><title>Node1&#45;&gt;Node2</title>
<path fill="none" stroke="midnightblue" d="M679.253,-467.329C744.618,-456.793 832,-429.678 832,-360 832,-360 832,-360 832,-242 832,-163.049 740.268,-107.481 691.178,-83.3959"/>
<polygon fill="midnightblue" stroke="midnightblue" points="692.5,-80.1491 681.968,-79.0011 689.486,-86.4667 692.5,-80.1491"/>
</g>
<!-- Node6 -->
<g id="node6" class="node"><title>Node6</title>
<g id="a_node6"><a xlink:href="_poly_line_8h.html" target="_top" xlink:title="cinder/PolyLine.h">
<polygon fill="white" stroke="black" points="505.643,-233 505.643,-253 598.357,-253 598.357,-233 505.643,-233"/>
<text text-anchor="middle" x="552" y="-239" font-family="Helvetica,sans-Serif" font-size="10.00">cinder/PolyLine.h</text>
</a>
</g>
</g>
<!-- Node1&#45;&gt;Node6 -->
<g id="edge5" class="edge"><title>Node1&#45;&gt;Node6</title>
<path fill="none" stroke="midnightblue" d="M606.766,-464.984C598.343,-430.998 568.403,-310.186 556.719,-263.04"/>
<polygon fill="midnightblue" stroke="midnightblue" points="560.084,-262.068 554.281,-253.204 553.289,-263.752 560.084,-262.068"/>
</g>
<!-- Node18 -->
<g id="node18" class="node"><title>Node18</title>
<g id="a_node18"><a xlink:href="_shape2d_8h.html" target="_top" xlink:title="cinder/Shape2d.h">
<polygon fill="white" stroke="black" points="468.803,-407 468.803,-427 563.197,-427 563.197,-407 468.803,-407"/>
<text text-anchor="middle" x="516" y="-413" font-family="Helvetica,sans-Serif" font-size="10.00">cinder/Shape2d.h</text>
</a>
</g>
</g>
<!-- Node1&#45;&gt;Node18 -->
<g id="edge19" class="edge"><title>Node1&#45;&gt;Node18</title>
<path fill="none" stroke="midnightblue" d="M593.643,-464.753C579.017,-455.946 556.783,-442.558 539.851,-432.362"/>
<polygon fill="midnightblue" stroke="midnightblue" points="541.444,-429.235 531.071,-427.075 537.833,-435.232 541.444,-429.235"/>
</g>
<!-- Node17 -->
<g id="node17" class="node"><title>Node17</title>
<polygon fill="white" stroke="#bfbfbf" points="186.384,-175 186.384,-195 229.616,-195 229.616,-175 186.384,-175"/>
<text text-anchor="middle" x="208" y="-181" font-family="Helvetica,sans-Serif" font-size="10.00">vector</text>
</g>
<!-- Node1&#45;&gt;Node17 -->
<g id="edge48" class="edge"><title>Node1&#45;&gt;Node17</title>
<path fill="none" stroke="midnightblue" d="M538.909,-472.7C399.986,-468.216 103,-448.304 103,-360 103,-360 103,-360 103,-300 103,-253.959 149.909,-218.535 181.02,-200.105"/>
<polygon fill="midnightblue" stroke="midnightblue" points="182.757,-203.143 189.71,-195.15 179.29,-197.062 182.757,-203.143"/>
</g>
<!-- Node3 -->
<g id="node3" class="node"><title>Node3</title>
<polygon fill="white" stroke="#bfbfbf" points="550.549,-1 550.549,-21 595.451,-21 595.451,-1 550.549,-1"/>
<text text-anchor="middle" x="573" y="-7" font-family="Helvetica,sans-Serif" font-size="10.00">cstdint</text>
</g>
<!-- Node2&#45;&gt;Node3 -->
<g id="edge2" class="edge"><title>Node2&#45;&gt;Node3</title>
<path fill="none" stroke="midnightblue" d="M646.469,-58.7527C632.757,-50.0272 611.979,-36.8051 596.015,-26.6458"/>
<polygon fill="midnightblue" stroke="midnightblue" points="597.577,-23.4912 587.261,-21.0752 593.819,-29.3968 597.577,-23.4912"/>
</g>
<!-- Node4 -->
<g id="node4" class="node"><title>Node4</title>
<polygon fill="white" stroke="#bfbfbf" points="613.53,-1 613.53,-21 708.47,-21 708.47,-1 613.53,-1"/>
<text text-anchor="middle" x="661" y="-7" font-family="Helvetica,sans-Serif" font-size="10.00">boost/version.hpp</text>
</g>
<!-- Node2&#45;&gt;Node4 -->
<g id="edge3" class="edge"><title>Node2&#45;&gt;Node4</title>
<path fill="none" stroke="midnightblue" d="M661,-58.7527C661,-51.2504 661,-40.4238 661,-31.0781"/>
<polygon fill="midnightblue" stroke="midnightblue" points="664.5,-31.0752 661,-21.0752 657.5,-31.0752 664.5,-31.0752"/>
</g>
<!-- Node5 -->
<g id="node5" class="node"><title>Node5</title>
<polygon fill="white" stroke="#bfbfbf" points="726.621,-1 726.621,-21 859.379,-21 859.379,-1 726.621,-1"/>
<text text-anchor="middle" x="793" y="-7" font-family="Helvetica,sans-Serif" font-size="10.00">boost/checked_delete.hpp</text>
</g>
<!-- Node2&#45;&gt;Node5 -->
<g id="edge4" class="edge"><title>Node2&#45;&gt;Node5</title>
<path fill="none" stroke="midnightblue" d="M682.502,-58.878C704.172,-49.6848 737.821,-35.4095 762.295,-25.0263"/>
<polygon fill="midnightblue" stroke="midnightblue" points="763.668,-28.2457 771.507,-21.1181 760.935,-21.8016 763.668,-28.2457"/>
</g>
<!-- Node7 -->
<g id="node7" class="node"><title>Node7</title>
<g id="a_node7"><a xlink:href="_vector_8h.html" target="_top" xlink:title="cinder/Vector.h">
<polygon fill="white" stroke="black" points="510.919,-175 510.919,-195 593.081,-195 593.081,-175 510.919,-175"/>
<text text-anchor="middle" x="552" y="-181" font-family="Helvetica,sans-Serif" font-size="10.00">cinder/Vector.h</text>
</a>
</g>
</g>
<!-- Node6&#45;&gt;Node7 -->
<g id="edge6" class="edge"><title>Node6&#45;&gt;Node7</title>
<path fill="none" stroke="midnightblue" d="M552,-232.753C552,-225.25 552,-214.424 552,-205.078"/>
<polygon fill="midnightblue" stroke="midnightblue" points="555.5,-205.075 552,-195.075 548.5,-205.075 555.5,-205.075"/>
</g>
<!-- Node6&#45;&gt;Node17 -->
<g id="edge18" class="edge"><title>Node6&#45;&gt;Node17</title>
<path fill="none" stroke="midnightblue" d="M505.607,-234.448C434.674,-222.9 301.076,-201.152 239.969,-191.204"/>
<polygon fill="midnightblue" stroke="midnightblue" points="240.208,-187.697 229.776,-189.545 239.083,-194.606 240.208,-187.697"/>
</g>
<!-- Node8 -->
<g id="node8" class="node"><title>Node8</title>
<polygon fill="white" stroke="#bfbfbf" points="720.384,-59 720.384,-79 763.616,-79 763.616,-59 720.384,-59"/>
<text text-anchor="middle" x="742" y="-65" font-family="Helvetica,sans-Serif" font-size="10.00">cmath</text>
</g>
<!-- Node7&#45;&gt;Node8 -->
<g id="edge7" class="edge"><title>Node7&#45;&gt;Node8</title>
<path fill="none" stroke="midnightblue" d="M567.349,-174.85C582.896,-165.578 607.632,-150.812 629,-138 659.894,-119.477 695.493,-98.0387 718.346,-84.2643"/>
<polygon fill="midnightblue" stroke="midnightblue" points="720.264,-87.1952 727.021,-79.0349 716.65,-81.2003 720.264,-87.1952"/>
</g>
<!-- Node9 -->
<g id="node9" class="node"><title>Node9</title>
<polygon fill="white" stroke="#bfbfbf" points="451.273,-117 451.273,-137 496.727,-137 496.727,-117 451.273,-117"/>
<text text-anchor="middle" x="474" y="-123" font-family="Helvetica,sans-Serif" font-size="10.00">cstring</text>
</g>
<!-- Node7&#45;&gt;Node9 -->
<g id="edge8" class="edge"><title>Node7&#45;&gt;Node9</title>
<path fill="none" stroke="midnightblue" d="M539.12,-174.753C527.08,-166.109 508.894,-153.052 494.797,-142.931"/>
<polygon fill="midnightblue" stroke="midnightblue" points="496.805,-140.064 486.64,-137.075 492.722,-145.75 496.805,-140.064"/>
</g>
<!-- Node10 -->
<g id="node10" class="node"><title>Node10</title>
<polygon fill="white" stroke="#bfbfbf" points="162.828,-117 162.828,-137 217.172,-137 217.172,-117 162.828,-117"/>
<text text-anchor="middle" x="190" y="-123" font-family="Helvetica,sans-Serif" font-size="10.00">iostream</text>
</g>
<!-- Node7&#45;&gt;Node10 -->
<g id="edge9" class="edge"><title>Node7&#45;&gt;Node10</title>
<path fill="none" stroke="midnightblue" d="M510.826,-177.631C439.938,-166.664 295.886,-144.38 227.568,-133.812"/>
<polygon fill="midnightblue" stroke="midnightblue" points="227.694,-130.29 217.277,-132.22 226.624,-137.207 227.694,-130.29"/>
</g>
<!-- Node11 -->
<g id="node11" class="node"><title>Node11</title>
<polygon fill="white" stroke="#bfbfbf" points="514.884,-117 514.884,-137 563.116,-137 563.116,-117 514.884,-117"/>
<text text-anchor="middle" x="539" y="-123" font-family="Helvetica,sans-Serif" font-size="10.00">cassert</text>
</g>
<!-- Node7&#45;&gt;Node11 -->
<g id="edge10" class="edge"><title>Node7&#45;&gt;Node11</title>
<path fill="none" stroke="midnightblue" d="M549.853,-174.753C548.112,-167.25 545.598,-156.424 543.429,-147.078"/>
<polygon fill="midnightblue" stroke="midnightblue" points="546.777,-146.025 541.107,-137.075 539.959,-147.608 546.777,-146.025"/>
</g>
<!-- Node12 -->
<g id="node12" class="node"><title>Node12</title>
<polygon fill="white" stroke="#bfbfbf" points="581.613,-117 581.613,-137 620.387,-137 620.387,-117 581.613,-117"/>
<text text-anchor="middle" x="601" y="-123" font-family="Helvetica,sans-Serif" font-size="10.00">limits</text>
</g>
<!-- Node7&#45;&gt;Node12 -->
<g id="edge11" class="edge"><title>Node7&#45;&gt;Node12</title>
<path fill="none" stroke="midnightblue" d="M560.091,-174.753C567.227,-166.598 577.799,-154.516 586.408,-144.677"/>
<polygon fill="midnightblue" stroke="midnightblue" points="589.108,-146.906 593.059,-137.075 583.84,-142.296 589.108,-146.906"/>
</g>
<!-- Node13 -->
<g id="node13" class="node"><title>Node13</title>
<g id="a_node13"><a xlink:href="_cinder_math_8h.html" target="_top" xlink:title="cinder/CinderMath.h">
<polygon fill="white" stroke="black" points="801.978,-117 801.978,-137 908.022,-137 908.022,-117 801.978,-117"/>
<text text-anchor="middle" x="855" y="-123" font-family="Helvetica,sans-Serif" font-size="10.00">cinder/CinderMath.h</text>
</a>
</g>
</g>
<!-- Node7&#45;&gt;Node13 -->
<g id="edge12" class="edge"><title>Node7&#45;&gt;Node13</title>
<path fill="none" stroke="midnightblue" d="M593.179,-176.389C645.568,-166.707 736.397,-149.92 796.1,-138.886"/>
<polygon fill="midnightblue" stroke="midnightblue" points="796.939,-142.29 806.136,-137.031 795.666,-135.407 796.939,-142.29"/>
</g>
<!-- Node13&#45;&gt;Node2 -->
<g id="edge13" class="edge"><title>Node13&#45;&gt;Node2</title>
<path fill="none" stroke="midnightblue" d="M823.399,-116.878C790.325,-107.331 738.265,-92.3033 702.036,-81.8454"/>
<polygon fill="midnightblue" stroke="midnightblue" points="702.845,-78.436 692.266,-79.0253 700.903,-85.1615 702.845,-78.436"/>
</g>
<!-- Node13&#45;&gt;Node8 -->
<g id="edge14" class="edge"><title>Node13&#45;&gt;Node8</title>
<path fill="none" stroke="midnightblue" d="M836.593,-116.878C818.371,-107.847 790.253,-93.9132 769.405,-83.5812"/>
<polygon fill="midnightblue" stroke="midnightblue" points="770.913,-80.4225 760.399,-79.1181 767.805,-86.6946 770.913,-80.4225"/>
</g>
<!-- Node14 -->
<g id="node14" class="node"><title>Node14</title>
<polygon fill="white" stroke="#bfbfbf" points="858.113,-59 858.113,-79 901.887,-79 901.887,-59 858.113,-59"/>
<text text-anchor="middle" x="880" y="-65" font-family="Helvetica,sans-Serif" font-size="10.00">climits</text>
</g>
<!-- Node13&#45;&gt;Node14 -->
<g id="edge15" class="edge"><title>Node13&#45;&gt;Node14</title>
<path fill="none" stroke="midnightblue" d="M859.128,-116.753C862.55,-109.087 867.522,-97.9515 871.754,-88.4708"/>
<polygon fill="midnightblue" stroke="midnightblue" points="875.068,-89.6334 875.949,-79.0752 868.676,-86.7798 875.068,-89.6334"/>
</g>
<!-- Node15 -->
<g id="node15" class="node"><title>Node15</title>
<polygon fill="white" stroke="#bfbfbf" points="920.049,-59 920.049,-79 959.951,-79 959.951,-59 920.049,-59"/>
<text text-anchor="middle" x="940" y="-65" font-family="Helvetica,sans-Serif" font-size="10.00">cfloat</text>
</g>
<!-- Node13&#45;&gt;Node15 -->
<g id="edge16" class="edge"><title>Node13&#45;&gt;Node15</title>
<path fill="none" stroke="midnightblue" d="M869.036,-116.753C882.28,-108.027 902.349,-94.8051 917.77,-84.6458"/>
<polygon fill="midnightblue" stroke="midnightblue" points="919.8,-87.4995 926.225,-79.0752 915.949,-81.6541 919.8,-87.4995"/>
</g>
<!-- Node16 -->
<g id="node16" class="node"><title>Node16</title>
<polygon fill="white" stroke="#bfbfbf" points="781.596,-59 781.596,-79 840.404,-79 840.404,-59 781.596,-59"/>
<text text-anchor="middle" x="811" y="-65" font-family="Helvetica,sans-Serif" font-size="10.00">functional</text>
</g>
<!-- Node13&#45;&gt;Node16 -->
<g id="edge17" class="edge"><title>Node13&#45;&gt;Node16</title>
<path fill="none" stroke="midnightblue" d="M847.734,-116.753C841.391,-108.68 832.023,-96.7571 824.336,-86.9727"/>
<polygon fill="midnightblue" stroke="midnightblue" points="827.061,-84.776 818.131,-79.0752 821.557,-89.1008 827.061,-84.776"/>
</g>
<!-- Node18&#45;&gt;Node7 -->
<g id="edge20" class="edge"><title>Node18&#45;&gt;Node7</title>
<path fill="none" stroke="midnightblue" d="M524.919,-406.797C546.732,-383.566 602.413,-319.709 622,-254 624.793,-244.63 626.642,-240.605 622,-232 614.259,-217.65 599.87,-207.046 586.142,-199.659"/>
<polygon fill="midnightblue" stroke="midnightblue" points="587.349,-196.351 576.834,-195.053 584.244,-202.625 587.349,-196.351"/>
</g>
<!-- Node19 -->
<g id="node19" class="node"><title>Node19</title>
<g id="a_node19"><a xlink:href="_rect_8h.html" target="_top" xlink:title="cinder/Rect.h">
<polygon fill="white" stroke="black" points="168.542,-291 168.542,-311 243.458,-311 243.458,-291 168.542,-291"/>
<text text-anchor="middle" x="206" y="-297" font-family="Helvetica,sans-Serif" font-size="10.00">cinder/Rect.h</text>
</a>
</g>
</g>
<!-- Node18&#45;&gt;Node19 -->
<g id="edge21" class="edge"><title>Node18&#45;&gt;Node19</title>
<path fill="none" stroke="midnightblue" d="M477.828,-406.932C444.66,-398.635 395.552,-385.341 354,-370 310.387,-353.898 261.748,-330.43 232.528,-315.7"/>
<polygon fill="midnightblue" stroke="midnightblue" points="233.899,-312.471 223.398,-311.063 230.729,-318.712 233.899,-312.471"/>
</g>
<!-- Node22 -->
<g id="node22" class="node"><title>Node22</title>
<g id="a_node22"><a xlink:href="_path2d_8h.html" target="_top" xlink:title="cinder/Path2d.h">
<polygon fill="white" stroke="black" points="362.976,-349 362.976,-369 449.024,-369 449.024,-349 362.976,-349"/>
<text text-anchor="middle" x="406" y="-355" font-family="Helvetica,sans-Serif" font-size="10.00">cinder/Path2d.h</text>
</a>
</g>
</g>
<!-- Node18&#45;&gt;Node22 -->
<g id="edge30" class="edge"><title>Node18&#45;&gt;Node22</title>
<path fill="none" stroke="midnightblue" d="M497.836,-406.753C480.136,-397.742 453.016,-383.935 432.83,-373.659"/>
<polygon fill="midnightblue" stroke="midnightblue" points="434.326,-370.493 423.826,-369.075 431.15,-376.731 434.326,-370.493"/>
</g>
<!-- Node26 -->
<g id="node26" class="node"><title>Node26</title>
<g id="a_node26"><a xlink:href="_matrix_affine2_8h.html" target="_top" xlink:title="cinder/MatrixAffine2.h">
<polygon fill="white" stroke="black" points="691.646,-233 691.646,-253 804.354,-253 804.354,-233 691.646,-233"/>
<text text-anchor="middle" x="748" y="-239" font-family="Helvetica,sans-Serif" font-size="10.00">cinder/MatrixAffine2.h</text>
</a>
</g>
</g>
<!-- Node18&#45;&gt;Node26 -->
<g id="edge46" class="edge"><title>Node18&#45;&gt;Node26</title>
<path fill="none" stroke="midnightblue" d="M563.31,-412.255C598.199,-407.358 645.12,-396.059 678,-370 713.492,-341.87 733.786,-290.542 742.633,-262.874"/>
<polygon fill="midnightblue" stroke="midnightblue" points="746.009,-263.801 745.559,-253.216 739.31,-261.771 746.009,-263.801"/>
</g>
<!-- Node18&#45;&gt;Node17 -->
<g id="edge47" class="edge"><title>Node18&#45;&gt;Node17</title>
<path fill="none" stroke="midnightblue" d="M468.559,-409.634C379.842,-396.604 194.629,-363.688 160,-312 136.355,-276.706 170.358,-228.129 192.157,-202.841"/>
<polygon fill="midnightblue" stroke="midnightblue" points="194.924,-204.997 198.981,-195.21 189.706,-200.331 194.924,-204.997"/>
</g>
<!-- Node19&#45;&gt;Node7 -->
<g id="edge22" class="edge"><title>Node19&#45;&gt;Node7</title>
<path fill="none" stroke="midnightblue" d="M243.527,-298.414C294.294,-295.119 386.802,-285.003 459,-254 474.645,-247.282 510.613,-219.425 532.953,-201.516"/>
<polygon fill="midnightblue" stroke="midnightblue" points="535.191,-204.207 540.777,-195.204 530.796,-198.759 535.191,-204.207"/>
</g>
<!-- Node20 -->
<g id="node20" class="node"><title>Node20</title>
<g id="a_node20"><a xlink:href="_area_8h.html" target="_top" xlink:title="cinder/Area.h">
<polygon fill="white" stroke="black" points="-0.73877,-233 -0.73877,-253 74.7388,-253 74.7388,-233 -0.73877,-233"/>
<text text-anchor="middle" x="37" y="-239" font-family="Helvetica,sans-Serif" font-size="10.00">cinder/Area.h</text>
</a>
</g>
</g>
<!-- Node19&#45;&gt;Node20 -->
<g id="edge23" class="edge"><title>Node19&#45;&gt;Node20</title>
<path fill="none" stroke="midnightblue" d="M178.471,-290.878C150.029,-281.453 105.468,-266.688 73.9684,-256.25"/>
<polygon fill="midnightblue" stroke="midnightblue" points="74.8305,-252.848 64.2371,-253.025 72.6286,-259.493 74.8305,-252.848"/>
</g>
<!-- Node19&#45;&gt;Node17 -->
<g id="edge29" class="edge"><title>Node19&#45;&gt;Node17</title>
<path fill="none" stroke="midnightblue" d="M205.017,-290.758C203.757,-277.674 201.862,-253.004 203,-232 203.478,-223.176 204.469,-213.443 205.443,-205.21"/>
<polygon fill="midnightblue" stroke="midnightblue" points="208.934,-205.499 206.711,-195.14 201.989,-204.624 208.934,-205.499"/>
</g>
<!-- Node20&#45;&gt;Node2 -->
<g id="edge24" class="edge"><title>Node20&#45;&gt;Node2</title>
<path fill="none" stroke="midnightblue" d="M37.4409,-232.676C38.546,-218.602 42.4203,-191.7 56,-174 86.808,-133.845 105.838,-131.557 154,-116 237.698,-88.9639 497.722,-76.1619 609.295,-71.8033"/>
<polygon fill="midnightblue" stroke="midnightblue" points="609.442,-75.3003 619.301,-71.4196 609.174,-68.3054 609.442,-75.3003"/>
</g>
<!-- Node20&#45;&gt;Node7 -->
<g id="edge25" class="edge"><title>Node20&#45;&gt;Node7</title>
<path fill="none" stroke="midnightblue" d="M74.8692,-237.882C165.936,-227.98 397.281,-202.824 500.691,-191.579"/>
<polygon fill="midnightblue" stroke="midnightblue" points="501.319,-195.032 510.882,-190.471 500.563,-188.073 501.319,-195.032"/>
</g>
<!-- Node20&#45;&gt;Node10 -->
<g id="edge26" class="edge"><title>Node20&#45;&gt;Node10</title>
<path fill="none" stroke="midnightblue" d="M53.6008,-232.884C69.1467,-224.103 92.7962,-210.108 112,-196 133.989,-179.846 157.34,-158.926 172.698,-144.58"/>
<polygon fill="midnightblue" stroke="midnightblue" points="175.479,-146.768 180.349,-137.359 170.674,-141.678 175.479,-146.768"/>
</g>
<!-- Node21 -->
<g id="node21" class="node"><title>Node21</title>
<polygon fill="white" stroke="#bfbfbf" points="64.6084,-175 64.6084,-195 103.392,-195 103.392,-175 64.6084,-175"/>
<text text-anchor="middle" x="84" y="-181" font-family="Helvetica,sans-Serif" font-size="10.00">utility</text>
</g>
<!-- Node20&#45;&gt;Node21 -->
<g id="edge27" class="edge"><title>Node20&#45;&gt;Node21</title>
<path fill="none" stroke="midnightblue" d="M44.7611,-232.753C51.5368,-224.68 61.5432,-212.757 69.7551,-202.973"/>
<polygon fill="midnightblue" stroke="midnightblue" points="72.6355,-204.985 76.3833,-195.075 67.2737,-200.485 72.6355,-204.985"/>
</g>
<!-- Node20&#45;&gt;Node17 -->
<g id="edge28" class="edge"><title>Node20&#45;&gt;Node17</title>
<path fill="none" stroke="midnightblue" d="M64.8547,-232.878C95.4266,-222.866 144.404,-206.827 176.391,-196.351"/>
<polygon fill="midnightblue" stroke="midnightblue" points="177.721,-199.599 186.135,-193.16 175.542,-192.947 177.721,-199.599"/>
</g>
<!-- Node22&#45;&gt;Node7 -->
<g id="edge31" class="edge"><title>Node22&#45;&gt;Node7</title>
<path fill="none" stroke="midnightblue" d="M449.19,-349.463C497.297,-337.394 572.789,-310.22 607,-254 619.101,-234.114 596.982,-213.658 577.29,-200.447"/>
<polygon fill="midnightblue" stroke="midnightblue" points="579.146,-197.48 568.826,-195.083 575.399,-203.393 579.146,-197.48"/>
</g>
<!-- Node23 -->
<g id="node23" class="node"><title>Node23</title>
<g id="a_node23"><a xlink:href="_b_spline_8h.html" target="_top" xlink:title="cinder/BSpline.h">
<polygon fill="white" stroke="black" points="361.589,-233 361.589,-253 450.411,-253 450.411,-233 361.589,-233"/>
<text text-anchor="middle" x="406" y="-239" font-family="Helvetica,sans-Serif" font-size="10.00">cinder/BSpline.h</text>
</a>
</g>
</g>
<!-- Node22&#45;&gt;Node23 -->
<g id="edge32" class="edge"><title>Node22&#45;&gt;Node23</title>
<path fill="none" stroke="midnightblue" d="M406,-348.671C406,-330.041 406,-287.898 406,-263.143"/>
<polygon fill="midnightblue" stroke="midnightblue" points="409.5,-263.139 406,-253.139 402.5,-263.139 409.5,-263.139"/>
</g>
<!-- Node22&#45;&gt;Node19 -->
<g id="edge35" class="edge"><title>Node22&#45;&gt;Node19</title>
<path fill="none" stroke="midnightblue" d="M373.421,-348.878C339.325,-339.331 285.655,-324.303 248.305,-313.845"/>
<polygon fill="midnightblue" stroke="midnightblue" points="248.807,-310.351 238.233,-311.025 246.919,-317.092 248.807,-310.351"/>
</g>
<!-- Node24 -->
<g id="node24" class="node"><title>Node24</title>
<g id="a_node24"><a xlink:href="_exception_8h.html" target="_top" xlink:title="cinder/Exception.h">
<polygon fill="white" stroke="black" points="244.865,-233 244.865,-253 343.135,-253 343.135,-233 244.865,-233"/>
<text text-anchor="middle" x="294" y="-239" font-family="Helvetica,sans-Serif" font-size="10.00">cinder/Exception.h</text>
</a>
</g>
</g>
<!-- Node22&#45;&gt;Node24 -->
<g id="edge36" class="edge"><title>Node22&#45;&gt;Node24</title>
<path fill="none" stroke="midnightblue" d="M396.835,-348.671C377.872,-329.369 334.113,-284.83 310.246,-260.536"/>
<polygon fill="midnightblue" stroke="midnightblue" points="312.484,-257.82 302.979,-253.139 307.491,-262.726 312.484,-257.82"/>
</g>
<!-- Node22&#45;&gt;Node26 -->
<g id="edge40" class="edge"><title>Node22&#45;&gt;Node26</title>
<path fill="none" stroke="midnightblue" d="M449.157,-350.517C489.357,-342.93 550.638,-329.776 602,-312 645.682,-296.882 693.83,-272.933 722.461,-257.863"/>
<polygon fill="midnightblue" stroke="midnightblue" points="724.2,-260.902 731.387,-253.118 720.915,-254.721 724.2,-260.902"/>
</g>
<!-- Node22&#45;&gt;Node17 -->
<g id="edge45" class="edge"><title>Node22&#45;&gt;Node17</title>
<path fill="none" stroke="midnightblue" d="M381.841,-348.964C345.548,-334.263 276.863,-301.91 236,-254 223.984,-239.912 216.596,-219.962 212.449,-205.313"/>
<polygon fill="midnightblue" stroke="midnightblue" points="215.763,-204.145 209.886,-195.329 208.983,-205.885 215.763,-204.145"/>
</g>
<!-- Node23&#45;&gt;Node17 -->
<g id="edge33" class="edge"><title>Node23&#45;&gt;Node17</title>
<path fill="none" stroke="midnightblue" d="M373.747,-232.878C336.686,-222.396 276.266,-205.308 239.518,-194.914"/>
<polygon fill="midnightblue" stroke="midnightblue" points="240.395,-191.525 229.82,-192.171 238.49,-198.261 240.395,-191.525"/>
</g>
<!-- Node23&#45;&gt;Node7 -->
<g id="edge34" class="edge"><title>Node23&#45;&gt;Node7</title>
<path fill="none" stroke="midnightblue" d="M429.782,-232.878C453.962,-223.603 491.628,-209.156 518.755,-198.752"/>
<polygon fill="midnightblue" stroke="midnightblue" points="520.145,-201.967 528.228,-195.118 517.638,-195.432 520.145,-201.967"/>
</g>
<!-- Node24&#45;&gt;Node2 -->
<g id="edge37" class="edge"><title>Node24&#45;&gt;Node2</title>
<path fill="none" stroke="midnightblue" d="M294.173,-232.947C294.911,-218.747 298.292,-191.099 313,-174 387.618,-87.2507 531.308,-71.2291 608.654,-69.2534"/>
<polygon fill="midnightblue" stroke="midnightblue" points="609.18,-72.7444 619.114,-69.0619 609.051,-65.7456 609.18,-72.7444"/>
</g>
<!-- Node24&#45;&gt;Node17 -->
<g id="edge38" class="edge"><title>Node24&#45;&gt;Node17</title>
<path fill="none" stroke="midnightblue" d="M279.799,-232.753C266.399,-224.027 246.093,-210.805 230.492,-200.646"/>
<polygon fill="midnightblue" stroke="midnightblue" points="232.227,-197.599 221.937,-195.075 228.407,-203.465 232.227,-197.599"/>
</g>
<!-- Node25 -->
<g id="node25" class="node"><title>Node25</title>
<polygon fill="white" stroke="#bfbfbf" points="321.773,-175 321.773,-195 362.227,-195 362.227,-175 321.773,-175"/>
<text text-anchor="middle" x="342" y="-181" font-family="Helvetica,sans-Serif" font-size="10.00">string</text>
</g>
<!-- Node24&#45;&gt;Node25 -->
<g id="edge39" class="edge"><title>Node24&#45;&gt;Node25</title>
<path fill="none" stroke="midnightblue" d="M301.926,-232.753C308.916,-224.598 319.272,-212.516 327.706,-202.677"/>
<polygon fill="midnightblue" stroke="midnightblue" points="330.371,-204.946 334.221,-195.075 325.056,-200.39 330.371,-204.946"/>
</g>
<!-- Node26&#45;&gt;Node2 -->
<g id="edge41" class="edge"><title>Node26&#45;&gt;Node2</title>
<path fill="none" stroke="midnightblue" d="M737.109,-232.773C727.502,-224.126 713.711,-210.406 705,-196 683.904,-161.111 671.021,-114.656 665.027,-89.0171"/>
<polygon fill="midnightblue" stroke="midnightblue" points="668.41,-88.1045 662.815,-79.1075 661.578,-89.6299 668.41,-88.1045"/>
</g>
<!-- Node26&#45;&gt;Node13 -->
<g id="edge42" class="edge"><title>Node26&#45;&gt;Node13</title>
<path fill="none" stroke="midnightblue" d="M756.756,-232.671C774.873,-213.369 816.677,-168.83 839.479,-144.536"/>
<polygon fill="midnightblue" stroke="midnightblue" points="842.13,-146.826 846.422,-137.139 837.026,-142.036 842.13,-146.826"/>
</g>
<!-- Node26&#45;&gt;Node7 -->
<g id="edge43" class="edge"><title>Node26&#45;&gt;Node7</title>
<path fill="none" stroke="midnightblue" d="M716.073,-232.878C682.659,-223.331 630.062,-208.303 593.459,-197.845"/>
<polygon fill="midnightblue" stroke="midnightblue" points="594.165,-194.407 583.589,-195.025 592.242,-201.138 594.165,-194.407"/>
</g>
<!-- Node27 -->
<g id="node27" class="node"><title>Node27</title>
<polygon fill="white" stroke="#bfbfbf" points="714.49,-175 714.49,-195 765.51,-195 765.51,-175 714.49,-175"/>
<text text-anchor="middle" x="740" y="-181" font-family="Helvetica,sans-Serif" font-size="10.00">iomanip</text>
</g>
<!-- Node26&#45;&gt;Node27 -->
<g id="edge44" class="edge"><title>Node26&#45;&gt;Node27</title>
<path fill="none" stroke="midnightblue" d="M746.679,-232.753C745.607,-225.25 744.061,-214.424 742.725,-205.078"/>
<polygon fill="midnightblue" stroke="midnightblue" points="746.176,-204.48 741.296,-195.075 739.246,-205.47 746.176,-204.48"/>
</g>
</g>
</svg>
        <g id="navigator" transform="translate(0 0)" fill="#404254">
                <rect fill="#f2f5e9" fill-opacity="0.5" stroke="#606060" stroke-width=".5" x="0" y="0" width="60" height="60"/>
                <use id="zoomplus" xlink:href="#zoomPlus" x="17" y="9" onmousedown="handleZoom(evt,'in')"/>
                <use id="zoomminus" xlink:href="#zoomMin" x="42" y="9" onmousedown="handleZoom(evt,'out')"/>
                <use id="reset" xlink:href="#resetDef" x="30" y="36" onmousedown="handleReset()"/>
                <g id="arrowUp" xlink:href="#dirArrow" transform="translate(30 24)" onmousedown="handlePan(0,-1)">
                  <use xlink:href="#rim" fill="#404040">
                        <set attributeName="fill" to="#808080" begin="arrowUp.mouseover" end="arrowUp.mouseout"/>
                  </use>
                  <path fill="none" stroke="white" stroke-width="1.5" d="M0,-3.0v7 M-2.5,-0.5L0,-3.0L2.5,-0.5"/>
                </g>
                <g id="arrowRight" xlink:href="#dirArrow" transform="rotate(90) translate(36 -43)" onmousedown="handlePan(1,0)">
                  <use xlink:href="#rim" fill="#404040">
                        <set attributeName="fill" to="#808080" begin="arrowRight.mouseover" end="arrowRight.mouseout"/>
                  </use>
                  <path fill="none" stroke="white" stroke-width="1.5" d="M0,-3.0v7 M-2.5,-0.5L0,-3.0L2.5,-0.5"/>
                </g>
                <g id="arrowDown" xlink:href="#dirArrow" transform="rotate(180) translate(-30 -48)" onmousedown="handlePan(0,1)">
                  <use xlink:href="#rim" fill="#404040">
                        <set attributeName="fill" to="#808080" begin="arrowDown.mouseover" end="arrowDown.mouseout"/>
                  </use>
                  <path fill="none" stroke="white" stroke-width="1.5" d="M0,-3.0v7 M-2.5,-0.5L0,-3.0L2.5,-0.5"/>
                </g>
                <g id="arrowLeft" xlink:href="#dirArrow" transform="rotate(270) translate(-36 17)" onmousedown="handlePan(-1,0)">
                  <use xlink:href="#rim" fill="#404040">
                        <set attributeName="fill" to="#808080" begin="arrowLeft.mouseover" end="arrowLeft.mouseout"/>
                  </use>
                  <path fill="none" stroke="white" stroke-width="1.5" d="M0,-3.0v7 M-2.5,-0.5L0,-3.0L2.5,-0.5"/>
                </g>
        </g>
        <svg viewBox="0 0 15 15" width="100%" height="30px" preserveAspectRatio="xMaxYMin meet">
         <g id="arrow_out" transform="scale(0.3 0.3)">
          <a xlink:href="_convex_hull_8h__incl_org.svg" target="_base">
           <rect id="button" ry="5" rx="5" y="6" x="6" height="38" width="38"
                fill="#f2f5e9" fill-opacity="0.5" stroke="#606060" stroke-width="1.0"/>
           <path id="arrow"
             d="M 11.500037,31.436501 C 11.940474,20.09759 22.043105,11.32322 32.158766,21.979434 L 37.068811,17.246167 C 37.068811,17.246167 37.088388,32 37.088388,32 L 22.160133,31.978069 C 22.160133,31.978069 26.997745,27.140456 26.997745,27.140456 C 18.528582,18.264221 13.291696,25.230495 11.500037,31.436501 z"
             style="fill:#404040;"/>
          </a>
         </g>
        </svg>
</svg>
