<?xml version="1.0" encoding="UTF-8" standalone="no"?>
<!DOCTYPE svg PUBLIC "-//W3C//DTD SVG 1.1//EN"
 "http://www.w3.org/Graphics/SVG/1.1/DTD/svg11.dtd">
<!-- Generated by graphviz version 2.30.1 (20140712.1814)
 -->
<!-- Title: include/cinder/audio/dsp/Converter.h Pages: 1 -->
<svg width="449pt" height="216pt"
 viewBox="0.00 0.00 449.00 216.00" xmlns="http://www.w3.org/2000/svg" xmlns:xlink="http://www.w3.org/1999/xlink">
<g id="graph0" class="graph" transform="scale(1 1) rotate(0) translate(4 212)">
<title>include/cinder/audio/dsp/Converter.h</title>
<polygon fill="white" stroke="white" points="-4,5 -4,-212 446,-212 446,5 -4,5"/>
<!-- Node1 -->
<g id="node1" class="node"><title>Node1</title>
<polygon fill="#bfbfbf" stroke="black" points="291.525,-175 291.525,-207 396.475,-207 396.475,-175 291.525,-175"/>
<text text-anchor="start" x="299.525" y="-193" font-family="Helvetica,sans-Serif" font-size="10.00">include/cinder/audio</text>
<text text-anchor="middle" x="344" y="-181" font-family="Helvetica,sans-Serif" font-size="10.00">/dsp/Converter.h</text>
</g>
<!-- Node2 -->
<g id="node2" class="node"><title>Node2</title>
<g id="a_node2"><a xlink:href="audio_2_buffer_8h.html" target="_top" xlink:title="cinder/audio/Buffer.h">
<polygon fill="white" stroke="black" points="234.221,-117 234.221,-137 341.779,-137 341.779,-117 234.221,-117"/>
<text text-anchor="middle" x="288" y="-123" font-family="Helvetica,sans-Serif" font-size="10.00">cinder/audio/Buffer.h</text>
</a>
</g>
</g>
<!-- Node1&#45;&gt;Node2 -->
<g id="edge1" class="edge"><title>Node1&#45;&gt;Node2</title>
<path fill="none" stroke="midnightblue" d="M330.444,-174.992C322.232,-165.9 311.738,-154.281 303.239,-144.872"/>
<polygon fill="midnightblue" stroke="midnightblue" points="305.692,-142.365 296.391,-137.29 300.497,-147.057 305.692,-142.365"/>
</g>
<!-- Node7 -->
<g id="node7" class="node"><title>Node7</title>
<polygon fill="white" stroke="#bfbfbf" points="388.943,-59 388.943,-79 441.057,-79 441.057,-59 388.943,-59"/>
<text text-anchor="middle" x="415" y="-65" font-family="Helvetica,sans-Serif" font-size="10.00">memory</text>
</g>
<!-- Node1&#45;&gt;Node7 -->
<g id="edge9" class="edge"><title>Node1&#45;&gt;Node7</title>
<path fill="none" stroke="midnightblue" d="M352.992,-174.802C366.111,-152.63 390.449,-111.494 404.414,-87.8913"/>
<polygon fill="midnightblue" stroke="midnightblue" points="407.459,-89.618 409.539,-79.2293 401.435,-86.0535 407.459,-89.618"/>
</g>
<!-- Node3 -->
<g id="node3" class="node"><title>Node3</title>
<g id="a_node3"><a xlink:href="_cinder_assert_8h.html" target="_top" xlink:title="cinder/CinderAssert.h">
<polygon fill="white" stroke="black" points="58.9238,-59 58.9238,-79 171.076,-79 171.076,-59 58.9238,-59"/>
<text text-anchor="middle" x="115" y="-65" font-family="Helvetica,sans-Serif" font-size="10.00">cinder/CinderAssert.h</text>
</a>
</g>
</g>
<!-- Node2&#45;&gt;Node3 -->
<g id="edge2" class="edge"><title>Node2&#45;&gt;Node3</title>
<path fill="none" stroke="midnightblue" d="M259.82,-116.878C230.578,-107.413 184.694,-92.5598 152.425,-82.1146"/>
<polygon fill="midnightblue" stroke="midnightblue" points="153.474,-78.7752 142.882,-79.0253 151.318,-85.4349 153.474,-78.7752"/>
</g>
<!-- Node6 -->
<g id="node6" class="node"><title>Node6</title>
<polygon fill="white" stroke="#bfbfbf" points="189.384,-59 189.384,-79 232.616,-79 232.616,-59 189.384,-59"/>
<text text-anchor="middle" x="211" y="-65" font-family="Helvetica,sans-Serif" font-size="10.00">vector</text>
</g>
<!-- Node2&#45;&gt;Node6 -->
<g id="edge5" class="edge"><title>Node2&#45;&gt;Node6</title>
<path fill="none" stroke="midnightblue" d="M275.285,-116.753C263.512,-108.19 245.784,-95.2978 231.926,-85.2186"/>
<polygon fill="midnightblue" stroke="midnightblue" points="233.624,-82.1264 223.478,-79.0752 229.507,-87.7875 233.624,-82.1264"/>
</g>
<!-- Node2&#45;&gt;Node7 -->
<g id="edge6" class="edge"><title>Node2&#45;&gt;Node7</title>
<path fill="none" stroke="midnightblue" d="M308.687,-116.878C329.444,-107.725 361.624,-93.5357 385.145,-83.1643"/>
<polygon fill="midnightblue" stroke="midnightblue" points="386.584,-86.3553 394.321,-79.1181 383.759,-79.9503 386.584,-86.3553"/>
</g>
<!-- Node8 -->
<g id="node8" class="node"><title>Node8</title>
<polygon fill="white" stroke="#bfbfbf" points="250.828,-59 250.828,-79 295.172,-79 295.172,-59 250.828,-59"/>
<text text-anchor="middle" x="273" y="-65" font-family="Helvetica,sans-Serif" font-size="10.00">cstdlib</text>
</g>
<!-- Node2&#45;&gt;Node8 -->
<g id="edge7" class="edge"><title>Node2&#45;&gt;Node8</title>
<path fill="none" stroke="midnightblue" d="M285.523,-116.753C283.492,-109.169 280.55,-98.1881 278.029,-88.7739"/>
<polygon fill="midnightblue" stroke="midnightblue" points="281.399,-87.8291 275.431,-79.0752 274.637,-89.6403 281.399,-87.8291"/>
</g>
<!-- Node9 -->
<g id="node9" class="node"><title>Node9</title>
<polygon fill="white" stroke="#bfbfbf" points="313.436,-59 313.436,-79 370.564,-79 370.564,-59 313.436,-59"/>
<text text-anchor="middle" x="342" y="-65" font-family="Helvetica,sans-Serif" font-size="10.00">algorithm</text>
</g>
<!-- Node2&#45;&gt;Node9 -->
<g id="edge8" class="edge"><title>Node2&#45;&gt;Node9</title>
<path fill="none" stroke="midnightblue" d="M296.917,-116.753C304.859,-108.516 316.665,-96.2738 326.203,-86.3824"/>
<polygon fill="midnightblue" stroke="midnightblue" points="328.827,-88.7031 333.249,-79.0752 323.788,-83.8442 328.827,-88.7031"/>
</g>
<!-- Node4 -->
<g id="node4" class="node"><title>Node4</title>
<g id="a_node4"><a xlink:href="_current_function_8h.html" target="_top" xlink:title="cinder/CurrentFunction.h">
<polygon fill="white" stroke="black" points="-0.0268555,-1 -0.0268555,-21 126.027,-21 126.027,-1 -0.0268555,-1"/>
<text text-anchor="middle" x="63" y="-7" font-family="Helvetica,sans-Serif" font-size="10.00">cinder/CurrentFunction.h</text>
</a>
</g>
</g>
<!-- Node3&#45;&gt;Node4 -->
<g id="edge3" class="edge"><title>Node3&#45;&gt;Node4</title>
<path fill="none" stroke="midnightblue" d="M106.413,-58.7527C98.841,-50.598 87.6218,-38.5158 78.4856,-28.6769"/>
<polygon fill="midnightblue" stroke="midnightblue" points="80.7963,-26.0216 71.427,-21.0752 75.6667,-30.7847 80.7963,-26.0216"/>
</g>
<!-- Node5 -->
<g id="node5" class="node"><title>Node5</title>
<polygon fill="white" stroke="#bfbfbf" points="143.884,-1 143.884,-21 192.116,-21 192.116,-1 143.884,-1"/>
<text text-anchor="middle" x="168" y="-7" font-family="Helvetica,sans-Serif" font-size="10.00">cassert</text>
</g>
<!-- Node3&#45;&gt;Node5 -->
<g id="edge4" class="edge"><title>Node3&#45;&gt;Node5</title>
<path fill="none" stroke="midnightblue" d="M123.752,-58.7527C131.547,-50.5165 143.134,-38.2738 152.495,-28.3824"/>
<polygon fill="midnightblue" stroke="midnightblue" points="155.079,-30.744 159.411,-21.0752 149.995,-25.9323 155.079,-30.744"/>
</g>
</g>
</svg>
