<?xml version="1.0" encoding="UTF-8" standalone="no"?>
<!DOCTYPE svg PUBLIC "-//W3C//DTD SVG 1.1//EN"
 "http://www.w3.org/Graphics/SVG/1.1/DTD/svg11.dtd">
<!-- Generated by graphviz version 2.30.1 (20140712.1814)
 -->
<!-- Title: include/cinder/dx/DDSTextureLoader.h Pages: 1 -->
<svg width="293pt" height="112pt"
 viewBox="0.00 0.00 293.00 112.00" xmlns="http://www.w3.org/2000/svg" xmlns:xlink="http://www.w3.org/1999/xlink">
<g id="graph0" class="graph" transform="scale(1 1) rotate(0) translate(4 108)">
<title>include/cinder/dx/DDSTextureLoader.h</title>
<polygon fill="white" stroke="white" points="-4,5 -4,-108 290,-108 290,5 -4,5"/>
<!-- Node1 -->
<g id="node1" class="node"><title>Node1</title>
<polygon fill="#bfbfbf" stroke="black" points="66.1357,-71 66.1357,-103 213.864,-103 213.864,-71 66.1357,-71"/>
<text text-anchor="start" x="74.1357" y="-89" font-family="Helvetica,sans-Serif" font-size="10.00">include/cinder/dx/DDSTexture</text>
<text text-anchor="middle" x="140" y="-77" font-family="Helvetica,sans-Serif" font-size="10.00">Loader.h</text>
</g>
<!-- Node2 -->
<g id="node2" class="node"><title>Node2</title>
<g id="a_node2"><a xlink:href="_d_d_s_texture_loader_8cpp.html" target="_top" xlink:title="src/cinder/dx/DDSTexture\lLoader.cpp">
<polygon fill="white" stroke="black" points="-0.68457,-1 -0.68457,-33 128.685,-33 128.685,-1 -0.68457,-1"/>
<text text-anchor="start" x="7.31543" y="-19" font-family="Helvetica,sans-Serif" font-size="10.00">src/cinder/dx/DDSTexture</text>
<text text-anchor="middle" x="64" y="-7" font-family="Helvetica,sans-Serif" font-size="10.00">Loader.cpp</text>
</a>
</g>
</g>
<!-- Node1&#45;&gt;Node2 -->
<g id="edge1" class="edge"><title>Node1&#45;&gt;Node2</title>
<path fill="none" stroke="midnightblue" d="M115.63,-64.195C104.273,-54.0335 91.0435,-42.1968 80.8197,-33.0492"/>
<polygon fill="midnightblue" stroke="midnightblue" points="113.347,-66.849 123.133,-70.9086 118.014,-61.6323 113.347,-66.849"/>
</g>
<!-- Node3 -->
<g id="node3" class="node"><title>Node3</title>
<g id="a_node3"><a xlink:href="_dx_texture_8cpp.html" target="_top" xlink:title="src/cinder/dx/DxTexture.cpp">
<polygon fill="white" stroke="black" points="146.311,-7 146.311,-27 285.689,-27 285.689,-7 146.311,-7"/>
<text text-anchor="middle" x="216" y="-13" font-family="Helvetica,sans-Serif" font-size="10.00">src/cinder/dx/DxTexture.cpp</text>
</a>
</g>
</g>
<!-- Node1&#45;&gt;Node3 -->
<g id="edge2" class="edge"><title>Node1&#45;&gt;Node3</title>
<path fill="none" stroke="midnightblue" d="M164.334,-64.2276C178.416,-51.6279 195.387,-36.4436 205.937,-27.0035"/>
<polygon fill="midnightblue" stroke="midnightblue" points="161.986,-61.6323 156.867,-70.9086 166.653,-66.849 161.986,-61.6323"/>
</g>
</g>
</svg>
