<?xml version="1.0" encoding="UTF-8" standalone="no"?>
<!DOCTYPE svg PUBLIC "-//W3C//DTD SVG 1.1//EN"
 "http://www.w3.org/Graphics/SVG/1.1/DTD/svg11.dtd">
<!-- Generated by graphviz version 2.30.1 (20140712.1814)
 -->
<!-- Title: include/cinder/dx/DDSTextureLoader.h Pages: 1 -->
<svg width="154pt" height="100pt"
 viewBox="0.00 0.00 154.00 100.00" xmlns="http://www.w3.org/2000/svg" xmlns:xlink="http://www.w3.org/1999/xlink">
<g id="graph0" class="graph" transform="scale(1 1) rotate(0) translate(4 96)">
<title>include/cinder/dx/DDSTextureLoader.h</title>
<polygon fill="white" stroke="white" points="-4,5 -4,-96 151,-96 151,5 -4,5"/>
<!-- Node1 -->
<g id="node1" class="node"><title>Node1</title>
<polygon fill="#bfbfbf" stroke="black" points="-0.864258,-59 -0.864258,-91 146.864,-91 146.864,-59 -0.864258,-59"/>
<text text-anchor="start" x="7.13574" y="-77" font-family="Helvetica,sans-Serif" font-size="10.00">include/cinder/dx/DDSTexture</text>
<text text-anchor="middle" x="73" y="-65" font-family="Helvetica,sans-Serif" font-size="10.00">Loader.h</text>
</g>
<!-- Node2 -->
<g id="node2" class="node"><title>Node2</title>
<polygon fill="white" stroke="#bfbfbf" points="13.2949,-1 13.2949,-21 64.7051,-21 64.7051,-1 13.2949,-1"/>
<text text-anchor="middle" x="39" y="-7" font-family="Helvetica,sans-Serif" font-size="10.00">d3d11.h</text>
</g>
<!-- Node1&#45;&gt;Node2 -->
<g id="edge1" class="edge"><title>Node1&#45;&gt;Node2</title>
<path fill="none" stroke="midnightblue" d="M64.7695,-58.9915C60.0356,-50.359 54.0523,-39.4483 49.0429,-30.3136"/>
<polygon fill="midnightblue" stroke="midnightblue" points="51.972,-28.3756 44.0947,-21.2904 45.8343,-31.7415 51.972,-28.3756"/>
</g>
<!-- Node3 -->
<g id="node3" class="node"><title>Node3</title>
<polygon fill="white" stroke="#bfbfbf" points="82.8794,-1 82.8794,-21 131.121,-21 131.121,-1 82.8794,-1"/>
<text text-anchor="middle" x="107" y="-7" font-family="Helvetica,sans-Serif" font-size="10.00">stdint.h</text>
</g>
<!-- Node1&#45;&gt;Node3 -->
<g id="edge2" class="edge"><title>Node1&#45;&gt;Node3</title>
<path fill="none" stroke="midnightblue" d="M81.2305,-58.9915C85.9644,-50.359 91.9477,-39.4483 96.9571,-30.3136"/>
<polygon fill="midnightblue" stroke="midnightblue" points="100.166,-31.7415 101.905,-21.2904 94.028,-28.3756 100.166,-31.7415"/>
</g>
</g>
</svg>
