<?xml version="1.0" encoding="UTF-8" standalone="no"?>
<!DOCTYPE svg PUBLIC "-//W3C//DTD SVG 1.1//EN"
 "http://www.w3.org/Graphics/SVG/1.1/DTD/svg11.dtd">
<!-- Generated by graphviz version 2.30.1 (20140712.1814)
 -->
<!-- Title: include/cinder/dx/DDS.h Pages: 1 -->
<svg width="145pt" height="88pt"
 viewBox="0.00 0.00 145.00 88.00" xmlns="http://www.w3.org/2000/svg" xmlns:xlink="http://www.w3.org/1999/xlink">
<g id="graph0" class="graph" transform="scale(1 1) rotate(0) translate(4 84)">
<title>include/cinder/dx/DDS.h</title>
<polygon fill="white" stroke="white" points="-4,5 -4,-84 142,-84 142,5 -4,5"/>
<!-- Node1 -->
<g id="node1" class="node"><title>Node1</title>
<polygon fill="#bfbfbf" stroke="black" points="12.3623,-59 12.3623,-79 135.638,-79 135.638,-59 12.3623,-59"/>
<text text-anchor="middle" x="74" y="-65" font-family="Helvetica,sans-Serif" font-size="10.00">include/cinder/dx/DDS.h</text>
</g>
<!-- Node2 -->
<g id="node2" class="node"><title>Node2</title>
<polygon fill="white" stroke="#bfbfbf" points="-0.512207,-1 -0.512207,-21 70.5122,-21 70.5122,-1 -0.512207,-1"/>
<text text-anchor="middle" x="35" y="-7" font-family="Helvetica,sans-Serif" font-size="10.00">dxgiformat.h</text>
</g>
<!-- Node1&#45;&gt;Node2 -->
<g id="edge1" class="edge"><title>Node1&#45;&gt;Node2</title>
<path fill="none" stroke="midnightblue" d="M67.5599,-58.7527C62.0511,-50.8427 53.9688,-39.2372 47.235,-29.5683"/>
<polygon fill="midnightblue" stroke="midnightblue" points="49.9073,-27.281 41.3202,-21.0752 44.1631,-31.2815 49.9073,-27.281"/>
</g>
<!-- Node3 -->
<g id="node3" class="node"><title>Node3</title>
<polygon fill="white" stroke="#bfbfbf" points="88.8794,-1 88.8794,-21 137.121,-21 137.121,-1 88.8794,-1"/>
<text text-anchor="middle" x="113" y="-7" font-family="Helvetica,sans-Serif" font-size="10.00">stdint.h</text>
</g>
<!-- Node1&#45;&gt;Node3 -->
<g id="edge2" class="edge"><title>Node1&#45;&gt;Node3</title>
<path fill="none" stroke="midnightblue" d="M80.4401,-58.7527C85.9489,-50.8427 94.0312,-39.2372 100.765,-29.5683"/>
<polygon fill="midnightblue" stroke="midnightblue" points="103.837,-31.2815 106.68,-21.0752 98.0927,-27.281 103.837,-31.2815"/>
</g>
</g>
</svg>
