<?xml version="1.0" encoding="UTF-8" standalone="no"?>
<!DOCTYPE svg PUBLIC "-//W3C//DTD SVG 1.1//EN"
 "http://www.w3.org/Graphics/SVG/1.1/DTD/svg11.dtd">
<!-- Generated by graphviz version 2.30.1 (20140712.1814)
 -->
<!-- Title: include/cinder/DataSource.h Pages: 1 -->
<svg width="900pt" height="320pt"
 viewBox="0.00 0.00 900.00 320.00" xmlns="http://www.w3.org/2000/svg" xmlns:xlink="http://www.w3.org/1999/xlink">
<g id="graph0" class="graph" transform="scale(1 1) rotate(0) translate(4 316)">
<title>include/cinder/DataSource.h</title>
<polygon fill="white" stroke="white" points="-4,5 -4,-316 897,-316 897,5 -4,5"/>
<!-- Node1 -->
<g id="node1" class="node"><title>Node1</title>
<polygon fill="#bfbfbf" stroke="black" points="50.1851,-291 50.1851,-311 191.815,-311 191.815,-291 50.1851,-291"/>
<text text-anchor="middle" x="121" y="-297" font-family="Helvetica,sans-Serif" font-size="10.00">include/cinder/DataSource.h</text>
</g>
<!-- Node2 -->
<g id="node2" class="node"><title>Node2</title>
<g id="a_node2"><a xlink:href="_cinder_8h.html" target="_top" xlink:title="cinder/Cinder.h">
<polygon fill="white" stroke="black" points="68.3672,-59 68.3672,-79 151.633,-79 151.633,-59 68.3672,-59"/>
<text text-anchor="middle" x="110" y="-65" font-family="Helvetica,sans-Serif" font-size="10.00">cinder/Cinder.h</text>
</a>
</g>
</g>
<!-- Node1&#45;&gt;Node2 -->
<g id="edge1" class="edge"><title>Node1&#45;&gt;Node2</title>
<path fill="none" stroke="midnightblue" d="M107.224,-290.833C95.4783,-282.427 78.823,-269.028 68,-254 35.3923,-208.725 30.8753,-192.725 20,-138 18.0942,-128.41 14.8964,-124.34 20,-116 29.5706,-100.36 46.3228,-89.8239 62.7993,-82.8307"/>
<polygon fill="midnightblue" stroke="midnightblue" points="64.3492,-85.984 72.4122,-79.1109 61.823,-79.4557 64.3492,-85.984"/>
</g>
<!-- Node6 -->
<g id="node6" class="node"><title>Node6</title>
<g id="a_node6"><a xlink:href="_url_8h.html" target="_top" xlink:title="cinder/Url.h">
<polygon fill="white" stroke="black" points="87.436,-233 87.436,-253 154.564,-253 154.564,-233 87.436,-233"/>
<text text-anchor="middle" x="121" y="-239" font-family="Helvetica,sans-Serif" font-size="10.00">cinder/Url.h</text>
</a>
</g>
</g>
<!-- Node1&#45;&gt;Node6 -->
<g id="edge5" class="edge"><title>Node1&#45;&gt;Node6</title>
<path fill="none" stroke="midnightblue" d="M121,-290.753C121,-283.25 121,-272.424 121,-263.078"/>
<polygon fill="midnightblue" stroke="midnightblue" points="124.5,-263.075 121,-253.075 117.5,-263.075 124.5,-263.075"/>
</g>
<!-- Node8 -->
<g id="node8" class="node"><title>Node8</title>
<g id="a_node8"><a xlink:href="_buffer_8h.html" target="_top" xlink:title="cinder/Buffer.h">
<polygon fill="white" stroke="black" points="35.8442,-117 35.8442,-137 116.156,-137 116.156,-117 35.8442,-117"/>
<text text-anchor="middle" x="76" y="-123" font-family="Helvetica,sans-Serif" font-size="10.00">cinder/Buffer.h</text>
</a>
</g>
</g>
<!-- Node1&#45;&gt;Node8 -->
<g id="edge23" class="edge"><title>Node1&#45;&gt;Node8</title>
<path fill="none" stroke="midnightblue" d="M108.146,-290.692C97.8475,-282.385 84.14,-269.205 78,-254 63.657,-218.481 67.9981,-172.608 72.1749,-147.159"/>
<polygon fill="midnightblue" stroke="midnightblue" points="75.6218,-147.766 73.9572,-137.302 68.7335,-146.52 75.6218,-147.766"/>
</g>
<!-- Node7 -->
<g id="node7" class="node"><title>Node7</title>
<g id="a_node7"><a xlink:href="_stream_8h.html" target="_top" xlink:title="cinder/Stream.h">
<polygon fill="white" stroke="black" points="266.707,-175 266.707,-195 353.293,-195 353.293,-175 266.707,-175"/>
<text text-anchor="middle" x="310" y="-181" font-family="Helvetica,sans-Serif" font-size="10.00">cinder/Stream.h</text>
</a>
</g>
</g>
<!-- Node1&#45;&gt;Node7 -->
<g id="edge24" class="edge"><title>Node1&#45;&gt;Node7</title>
<path fill="none" stroke="midnightblue" d="M136.147,-290.864C168.99,-271.053 246.964,-224.022 286.356,-200.261"/>
<polygon fill="midnightblue" stroke="midnightblue" points="288.288,-203.184 295.043,-195.022 284.672,-197.19 288.288,-203.184"/>
</g>
<!-- Node12 -->
<g id="node12" class="node"><title>Node12</title>
<g id="a_node12"><a xlink:href="_filesystem_8h.html" target="_top" xlink:title="cinder/Filesystem.h">
<polygon fill="white" stroke="black" points="787.931,-117 787.931,-137 890.069,-137 890.069,-117 787.931,-117"/>
<text text-anchor="middle" x="839" y="-123" font-family="Helvetica,sans-Serif" font-size="10.00">cinder/Filesystem.h</text>
</a>
</g>
</g>
<!-- Node1&#45;&gt;Node12 -->
<g id="edge25" class="edge"><title>Node1&#45;&gt;Node12</title>
<path fill="none" stroke="midnightblue" d="M158.592,-290.995C279.374,-262.061 657.458,-171.489 791.387,-139.406"/>
<polygon fill="midnightblue" stroke="midnightblue" points="792.439,-142.753 801.348,-137.02 790.808,-135.946 792.439,-142.753"/>
</g>
<!-- Node3 -->
<g id="node3" class="node"><title>Node3</title>
<polygon fill="white" stroke="#bfbfbf" points="-0.450684,-1 -0.450684,-21 44.4507,-21 44.4507,-1 -0.450684,-1"/>
<text text-anchor="middle" x="22" y="-7" font-family="Helvetica,sans-Serif" font-size="10.00">cstdint</text>
</g>
<!-- Node2&#45;&gt;Node3 -->
<g id="edge2" class="edge"><title>Node2&#45;&gt;Node3</title>
<path fill="none" stroke="midnightblue" d="M95.4686,-58.7527C81.757,-50.0272 60.9794,-36.8051 45.0148,-26.6458"/>
<polygon fill="midnightblue" stroke="midnightblue" points="46.5767,-23.4912 36.261,-21.0752 42.8186,-29.3968 46.5767,-23.4912"/>
</g>
<!-- Node4 -->
<g id="node4" class="node"><title>Node4</title>
<polygon fill="white" stroke="#bfbfbf" points="62.5298,-1 62.5298,-21 157.47,-21 157.47,-1 62.5298,-1"/>
<text text-anchor="middle" x="110" y="-7" font-family="Helvetica,sans-Serif" font-size="10.00">boost/version.hpp</text>
</g>
<!-- Node2&#45;&gt;Node4 -->
<g id="edge3" class="edge"><title>Node2&#45;&gt;Node4</title>
<path fill="none" stroke="midnightblue" d="M110,-58.7527C110,-51.2504 110,-40.4238 110,-31.0781"/>
<polygon fill="midnightblue" stroke="midnightblue" points="113.5,-31.0752 110,-21.0752 106.5,-31.0752 113.5,-31.0752"/>
</g>
<!-- Node5 -->
<g id="node5" class="node"><title>Node5</title>
<polygon fill="white" stroke="#bfbfbf" points="175.621,-1 175.621,-21 308.379,-21 308.379,-1 175.621,-1"/>
<text text-anchor="middle" x="242" y="-7" font-family="Helvetica,sans-Serif" font-size="10.00">boost/checked_delete.hpp</text>
</g>
<!-- Node2&#45;&gt;Node5 -->
<g id="edge4" class="edge"><title>Node2&#45;&gt;Node5</title>
<path fill="none" stroke="midnightblue" d="M131.502,-58.878C153.172,-49.6848 186.821,-35.4095 211.295,-25.0263"/>
<polygon fill="midnightblue" stroke="midnightblue" points="212.668,-28.2457 220.507,-21.1181 209.935,-21.8016 212.668,-28.2457"/>
</g>
<!-- Node6&#45;&gt;Node2 -->
<g id="edge6" class="edge"><title>Node6&#45;&gt;Node2</title>
<path fill="none" stroke="midnightblue" d="M108.106,-232.923C86.4273,-216.772 43.4377,-180.7 27,-138 23.4873,-128.875 22.0371,-124.425 27,-116 36.0023,-100.718 52.1114,-90.1546 67.758,-83.0432"/>
<polygon fill="midnightblue" stroke="midnightblue" points="69.48,-86.1179 77.3728,-79.0501 66.7952,-79.6533 69.48,-86.1179"/>
</g>
<!-- Node6&#45;&gt;Node7 -->
<g id="edge7" class="edge"><title>Node6&#45;&gt;Node7</title>
<path fill="none" stroke="midnightblue" d="M151.787,-232.878C183.87,-223.372 234.293,-208.432 269.568,-197.98"/>
<polygon fill="midnightblue" stroke="midnightblue" points="270.946,-201.222 279.54,-195.025 268.957,-194.51 270.946,-201.222"/>
</g>
<!-- Node17 -->
<g id="node17" class="node"><title>Node17</title>
<polygon fill="white" stroke="#bfbfbf" points="93.8276,-175 93.8276,-195 148.172,-195 148.172,-175 93.8276,-175"/>
<text text-anchor="middle" x="121" y="-181" font-family="Helvetica,sans-Serif" font-size="10.00">iostream</text>
</g>
<!-- Node6&#45;&gt;Node17 -->
<g id="edge22" class="edge"><title>Node6&#45;&gt;Node17</title>
<path fill="none" stroke="midnightblue" d="M121,-232.753C121,-225.25 121,-214.424 121,-205.078"/>
<polygon fill="midnightblue" stroke="midnightblue" points="124.5,-205.075 121,-195.075 117.5,-205.075 124.5,-205.075"/>
</g>
<!-- Node7&#45;&gt;Node2 -->
<g id="edge8" class="edge"><title>Node7&#45;&gt;Node2</title>
<path fill="none" stroke="midnightblue" d="M266.42,-177.493C235.437,-171.25 193.991,-159.476 163,-138 144.431,-125.132 129.334,-103.799 120.07,-88.4566"/>
<polygon fill="midnightblue" stroke="midnightblue" points="122.871,-86.3069 114.847,-79.3885 116.806,-89.8008 122.871,-86.3069"/>
</g>
<!-- Node7&#45;&gt;Node8 -->
<g id="edge9" class="edge"><title>Node7&#45;&gt;Node8</title>
<path fill="none" stroke="midnightblue" d="M272.144,-174.94C231.703,-165.262 167.514,-149.901 123.659,-139.406"/>
<polygon fill="midnightblue" stroke="midnightblue" points="124.342,-135.97 113.802,-137.047 122.713,-142.778 124.342,-135.97"/>
</g>
<!-- Node9 -->
<g id="node9" class="node"><title>Node9</title>
<g id="a_node9"><a xlink:href="_exception_8h.html" target="_top" xlink:title="cinder/Exception.h">
<polygon fill="white" stroke="black" points="329.865,-117 329.865,-137 428.135,-137 428.135,-117 329.865,-117"/>
<text text-anchor="middle" x="379" y="-123" font-family="Helvetica,sans-Serif" font-size="10.00">cinder/Exception.h</text>
</a>
</g>
</g>
<!-- Node7&#45;&gt;Node9 -->
<g id="edge11" class="edge"><title>Node7&#45;&gt;Node9</title>
<path fill="none" stroke="midnightblue" d="M321.394,-174.753C331.844,-166.272 347.527,-153.543 359.893,-143.507"/>
<polygon fill="midnightblue" stroke="midnightblue" points="362.259,-146.095 367.818,-137.075 357.848,-140.659 362.259,-146.095"/>
</g>
<!-- Node7&#45;&gt;Node12 -->
<g id="edge15" class="edge"><title>Node7&#45;&gt;Node12</title>
<path fill="none" stroke="midnightblue" d="M353.588,-180.467C435.901,-173.62 619.802,-157.49 774,-138 775.104,-137.86 776.219,-137.717 777.341,-137.57"/>
<polygon fill="midnightblue" stroke="midnightblue" points="778.154,-140.992 787.589,-136.171 777.207,-134.056 778.154,-140.992"/>
</g>
<!-- Node14 -->
<g id="node14" class="node"><title>Node14</title>
<polygon fill="white" stroke="#bfbfbf" points="446.291,-117 446.291,-137 565.709,-137 565.709,-117 446.291,-117"/>
<text text-anchor="middle" x="506" y="-123" font-family="Helvetica,sans-Serif" font-size="10.00">boost/noncopyable.hpp</text>
</g>
<!-- Node7&#45;&gt;Node14 -->
<g id="edge18" class="edge"><title>Node7&#45;&gt;Node14</title>
<path fill="none" stroke="midnightblue" d="M341.927,-174.878C375.341,-165.331 427.938,-150.303 464.541,-139.845"/>
<polygon fill="midnightblue" stroke="midnightblue" points="465.758,-143.138 474.411,-137.025 463.835,-136.407 465.758,-143.138"/>
</g>
<!-- Node11 -->
<g id="node11" class="node"><title>Node11</title>
<polygon fill="white" stroke="#bfbfbf" points="572.773,-59 572.773,-79 613.227,-79 613.227,-59 572.773,-59"/>
<text text-anchor="middle" x="593" y="-65" font-family="Helvetica,sans-Serif" font-size="10.00">string</text>
</g>
<!-- Node7&#45;&gt;Node11 -->
<g id="edge19" class="edge"><title>Node7&#45;&gt;Node11</title>
<path fill="none" stroke="midnightblue" d="M353.332,-182.596C457.521,-178.775 715.374,-166.506 741,-138 777.167,-97.7676 676.615,-79.6906 623.496,-73.1242"/>
<polygon fill="midnightblue" stroke="midnightblue" points="623.591,-69.6117 613.252,-71.9275 622.779,-76.5644 623.591,-69.6117"/>
</g>
<!-- Node15 -->
<g id="node15" class="node"><title>Node15</title>
<polygon fill="white" stroke="#bfbfbf" points="583.574,-117 583.574,-137 732.426,-137 732.426,-117 583.574,-117"/>
<text text-anchor="middle" x="658" y="-123" font-family="Helvetica,sans-Serif" font-size="10.00">boost/iostreams/concepts.hpp</text>
</g>
<!-- Node7&#45;&gt;Node15 -->
<g id="edge20" class="edge"><title>Node7&#45;&gt;Node15</title>
<path fill="none" stroke="midnightblue" d="M353.371,-177.021C413.284,-167.38 521.892,-149.902 591.934,-138.631"/>
<polygon fill="midnightblue" stroke="midnightblue" points="592.661,-142.059 601.978,-137.015 591.549,-135.148 592.661,-142.059"/>
</g>
<!-- Node16 -->
<g id="node16" class="node"><title>Node16</title>
<polygon fill="white" stroke="#bfbfbf" points="172.306,-117 172.306,-137 311.694,-137 311.694,-117 172.306,-117"/>
<text text-anchor="middle" x="242" y="-123" font-family="Helvetica,sans-Serif" font-size="10.00">boost/iostreams/stream.hpp</text>
</g>
<!-- Node7&#45;&gt;Node16 -->
<g id="edge21" class="edge"><title>Node7&#45;&gt;Node16</title>
<path fill="none" stroke="midnightblue" d="M298.771,-174.753C288.473,-166.272 273.016,-153.543 260.83,-143.507"/>
<polygon fill="midnightblue" stroke="midnightblue" points="262.964,-140.731 253.02,-137.075 258.514,-146.134 262.964,-140.731"/>
</g>
<!-- Node8&#45;&gt;Node2 -->
<g id="edge10" class="edge"><title>Node8&#45;&gt;Node2</title>
<path fill="none" stroke="midnightblue" d="M81.6144,-116.753C86.3674,-108.924 93.3181,-97.4761 99.1516,-87.8679"/>
<polygon fill="midnightblue" stroke="midnightblue" points="102.292,-89.4395 104.49,-79.0752 96.3085,-85.8066 102.292,-89.4395"/>
</g>
<!-- Node9&#45;&gt;Node2 -->
<g id="edge12" class="edge"><title>Node9&#45;&gt;Node2</title>
<path fill="none" stroke="midnightblue" d="M335.482,-116.94C288.044,-107.065 212.181,-91.2719 161.733,-80.7697"/>
<polygon fill="midnightblue" stroke="midnightblue" points="162.189,-77.2898 151.686,-78.6781 160.763,-84.1428 162.189,-77.2898"/>
</g>
<!-- Node10 -->
<g id="node10" class="node"><title>Node10</title>
<polygon fill="white" stroke="#bfbfbf" points="357.384,-59 357.384,-79 400.616,-79 400.616,-59 357.384,-59"/>
<text text-anchor="middle" x="379" y="-65" font-family="Helvetica,sans-Serif" font-size="10.00">vector</text>
</g>
<!-- Node9&#45;&gt;Node10 -->
<g id="edge13" class="edge"><title>Node9&#45;&gt;Node10</title>
<path fill="none" stroke="midnightblue" d="M379,-116.753C379,-109.25 379,-98.4238 379,-89.0781"/>
<polygon fill="midnightblue" stroke="midnightblue" points="382.5,-89.0752 379,-79.0752 375.5,-89.0752 382.5,-89.0752"/>
</g>
<!-- Node9&#45;&gt;Node11 -->
<g id="edge14" class="edge"><title>Node9&#45;&gt;Node11</title>
<path fill="none" stroke="midnightblue" d="M413.859,-116.878C455.282,-106.038 523.704,-88.1335 562.911,-77.8739"/>
<polygon fill="midnightblue" stroke="midnightblue" points="563.893,-81.2347 572.681,-75.3171 562.121,-74.4627 563.893,-81.2347"/>
</g>
<!-- Node12&#45;&gt;Node2 -->
<g id="edge16" class="edge"><title>Node12&#45;&gt;Node2</title>
<path fill="none" stroke="midnightblue" d="M787.91,-120.504C772.813,-118.957 756.248,-117.333 741,-116 526.297,-97.2238 270.024,-80.2065 162.038,-73.2824"/>
<polygon fill="midnightblue" stroke="midnightblue" points="161.953,-69.7699 151.75,-72.6245 161.506,-76.7556 161.953,-69.7699"/>
</g>
<!-- Node13 -->
<g id="node13" class="node"><title>Node13</title>
<polygon fill="white" stroke="#bfbfbf" points="785.421,-59 785.421,-79 892.579,-79 892.579,-59 785.421,-59"/>
<text text-anchor="middle" x="839" y="-65" font-family="Helvetica,sans-Serif" font-size="10.00">boost/filesystem.hpp</text>
</g>
<!-- Node12&#45;&gt;Node13 -->
<g id="edge17" class="edge"><title>Node12&#45;&gt;Node13</title>
<path fill="none" stroke="midnightblue" d="M839,-116.753C839,-109.25 839,-98.4238 839,-89.0781"/>
<polygon fill="midnightblue" stroke="midnightblue" points="842.5,-89.0752 839,-79.0752 835.5,-89.0752 842.5,-89.0752"/>
</g>
</g>
</svg>
