<?xml version="1.0" encoding="UTF-8" standalone="no"?>
<!DOCTYPE svg PUBLIC "-//W3C//DTD SVG 1.1//EN"
 "http://www.w3.org/Graphics/SVG/1.1/DTD/svg11.dtd">
<!-- Generated by graphviz version 2.30.1 (20140712.1814)
 -->
<!-- Title: include/cinder/DataTarget.h Pages: 1 -->
<svg width="943pt" height="320pt"
 viewBox="0.00 0.00 942.77 320.00" xmlns="http://www.w3.org/2000/svg" xmlns:xlink="http://www.w3.org/1999/xlink">
<g id="graph0" class="graph" transform="scale(1 1) rotate(0) translate(4 316)">
<title>include/cinder/DataTarget.h</title>
<polygon fill="white" stroke="white" points="-4,5 -4,-316 939.775,-316 939.775,5 -4,5"/>
<!-- Node1 -->
<g id="node1" class="node"><title>Node1</title>
<polygon fill="#bfbfbf" stroke="black" points="259.131,-291 259.131,-311 396.869,-311 396.869,-291 259.131,-291"/>
<text text-anchor="middle" x="328" y="-297" font-family="Helvetica,sans-Serif" font-size="10.00">include/cinder/DataTarget.h</text>
</g>
<!-- Node2 -->
<g id="node2" class="node"><title>Node2</title>
<g id="a_node2"><a xlink:href="_cinder_8h.html" target="_top" xlink:title="cinder/Cinder.h">
<polygon fill="white" stroke="black" points="68.3672,-59 68.3672,-79 151.633,-79 151.633,-59 68.3672,-59"/>
<text text-anchor="middle" x="110" y="-65" font-family="Helvetica,sans-Serif" font-size="10.00">cinder/Cinder.h</text>
</a>
</g>
</g>
<!-- Node1&#45;&gt;Node2 -->
<g id="edge1" class="edge"><title>Node1&#45;&gt;Node2</title>
<path fill="none" stroke="midnightblue" d="M298.752,-290.944C255.435,-276.418 173.395,-244.519 118,-196 88.2444,-169.938 67.4428,-153.83 79,-116 82.1822,-105.584 88.6028,-95.3934 94.7795,-87.262"/>
<polygon fill="midnightblue" stroke="midnightblue" points="97.6319,-89.3018 101.221,-79.3335 92.1991,-84.8876 97.6319,-89.3018"/>
</g>
<!-- Node6 -->
<g id="node6" class="node"><title>Node6</title>
<g id="a_node6"><a xlink:href="_url_8h.html" target="_top" xlink:title="cinder/Url.h">
<polygon fill="white" stroke="black" points="257.436,-233 257.436,-253 324.564,-253 324.564,-233 257.436,-233"/>
<text text-anchor="middle" x="291" y="-239" font-family="Helvetica,sans-Serif" font-size="10.00">cinder/Url.h</text>
</a>
</g>
</g>
<!-- Node1&#45;&gt;Node6 -->
<g id="edge5" class="edge"><title>Node1&#45;&gt;Node6</title>
<path fill="none" stroke="midnightblue" d="M321.89,-290.753C316.664,-282.843 308.996,-271.237 302.608,-261.568"/>
<polygon fill="midnightblue" stroke="midnightblue" points="305.429,-259.489 296.996,-253.075 299.589,-263.348 305.429,-259.489"/>
</g>
<!-- Node7 -->
<g id="node7" class="node"><title>Node7</title>
<g id="a_node7"><a xlink:href="_stream_8h.html" target="_top" xlink:title="cinder/Stream.h">
<polygon fill="white" stroke="black" points="329.707,-175 329.707,-195 416.293,-195 416.293,-175 329.707,-175"/>
<text text-anchor="middle" x="373" y="-181" font-family="Helvetica,sans-Serif" font-size="10.00">cinder/Stream.h</text>
</a>
</g>
</g>
<!-- Node1&#45;&gt;Node7 -->
<g id="edge23" class="edge"><title>Node1&#45;&gt;Node7</title>
<path fill="none" stroke="midnightblue" d="M331.683,-290.671C339.103,-271.873 355.972,-229.136 365.706,-204.478"/>
<polygon fill="midnightblue" stroke="midnightblue" points="368.976,-205.726 369.392,-195.139 362.465,-203.156 368.976,-205.726"/>
</g>
<!-- Node11 -->
<g id="node11" class="node"><title>Node11</title>
<polygon fill="white" stroke="#bfbfbf" points="429.773,-59 429.773,-79 470.227,-79 470.227,-59 429.773,-59"/>
<text text-anchor="middle" x="450" y="-65" font-family="Helvetica,sans-Serif" font-size="10.00">string</text>
</g>
<!-- Node1&#45;&gt;Node11 -->
<g id="edge24" class="edge"><title>Node1&#45;&gt;Node11</title>
<path fill="none" stroke="midnightblue" d="M396.936,-291.882C540.754,-273.381 864.858,-222.989 930,-138 935.948,-130.24 936.576,-123.236 930,-116 899.716,-82.6745 581.271,-72.8732 480.438,-70.5942"/>
<polygon fill="midnightblue" stroke="midnightblue" points="480.381,-67.0922 470.307,-70.3742 480.229,-74.0906 480.381,-67.0922"/>
</g>
<!-- Node3 -->
<g id="node3" class="node"><title>Node3</title>
<polygon fill="white" stroke="#bfbfbf" points="-0.450684,-1 -0.450684,-21 44.4507,-21 44.4507,-1 -0.450684,-1"/>
<text text-anchor="middle" x="22" y="-7" font-family="Helvetica,sans-Serif" font-size="10.00">cstdint</text>
</g>
<!-- Node2&#45;&gt;Node3 -->
<g id="edge2" class="edge"><title>Node2&#45;&gt;Node3</title>
<path fill="none" stroke="midnightblue" d="M95.4686,-58.7527C81.757,-50.0272 60.9794,-36.8051 45.0148,-26.6458"/>
<polygon fill="midnightblue" stroke="midnightblue" points="46.5767,-23.4912 36.261,-21.0752 42.8186,-29.3968 46.5767,-23.4912"/>
</g>
<!-- Node4 -->
<g id="node4" class="node"><title>Node4</title>
<polygon fill="white" stroke="#bfbfbf" points="62.5298,-1 62.5298,-21 157.47,-21 157.47,-1 62.5298,-1"/>
<text text-anchor="middle" x="110" y="-7" font-family="Helvetica,sans-Serif" font-size="10.00">boost/version.hpp</text>
</g>
<!-- Node2&#45;&gt;Node4 -->
<g id="edge3" class="edge"><title>Node2&#45;&gt;Node4</title>
<path fill="none" stroke="midnightblue" d="M110,-58.7527C110,-51.2504 110,-40.4238 110,-31.0781"/>
<polygon fill="midnightblue" stroke="midnightblue" points="113.5,-31.0752 110,-21.0752 106.5,-31.0752 113.5,-31.0752"/>
</g>
<!-- Node5 -->
<g id="node5" class="node"><title>Node5</title>
<polygon fill="white" stroke="#bfbfbf" points="175.621,-1 175.621,-21 308.379,-21 308.379,-1 175.621,-1"/>
<text text-anchor="middle" x="242" y="-7" font-family="Helvetica,sans-Serif" font-size="10.00">boost/checked_delete.hpp</text>
</g>
<!-- Node2&#45;&gt;Node5 -->
<g id="edge4" class="edge"><title>Node2&#45;&gt;Node5</title>
<path fill="none" stroke="midnightblue" d="M131.502,-58.878C153.172,-49.6848 186.821,-35.4095 211.295,-25.0263"/>
<polygon fill="midnightblue" stroke="midnightblue" points="212.668,-28.2457 220.507,-21.1181 209.935,-21.8016 212.668,-28.2457"/>
</g>
<!-- Node6&#45;&gt;Node2 -->
<g id="edge6" class="edge"><title>Node6&#45;&gt;Node2</title>
<path fill="none" stroke="midnightblue" d="M257.223,-235.99C209.574,-225.496 124.278,-198.846 87,-138 77.3868,-122.309 86.5147,-102.096 95.9626,-87.7983"/>
<polygon fill="midnightblue" stroke="midnightblue" points="99.0305,-89.5267 102.024,-79.3635 93.346,-85.4418 99.0305,-89.5267"/>
</g>
<!-- Node6&#45;&gt;Node7 -->
<g id="edge7" class="edge"><title>Node6&#45;&gt;Node7</title>
<path fill="none" stroke="midnightblue" d="M304.541,-232.753C317.198,-224.109 336.317,-211.052 351.136,-200.931"/>
<polygon fill="midnightblue" stroke="midnightblue" points="353.427,-203.605 359.711,-195.075 349.479,-197.825 353.427,-203.605"/>
</g>
<!-- Node17 -->
<g id="node17" class="node"><title>Node17</title>
<polygon fill="white" stroke="#bfbfbf" points="257.828,-175 257.828,-195 312.172,-195 312.172,-175 257.828,-175"/>
<text text-anchor="middle" x="285" y="-181" font-family="Helvetica,sans-Serif" font-size="10.00">iostream</text>
</g>
<!-- Node6&#45;&gt;Node17 -->
<g id="edge22" class="edge"><title>Node6&#45;&gt;Node17</title>
<path fill="none" stroke="midnightblue" d="M290.009,-232.753C289.205,-225.25 288.045,-214.424 287.044,-205.078"/>
<polygon fill="midnightblue" stroke="midnightblue" points="290.518,-204.645 285.972,-195.075 283.558,-205.391 290.518,-204.645"/>
</g>
<!-- Node7&#45;&gt;Node2 -->
<g id="edge8" class="edge"><title>Node7&#45;&gt;Node2</title>
<path fill="none" stroke="midnightblue" d="M329.607,-175.552C326.696,-175.017 323.807,-174.495 321,-174 271.351,-165.238 129.699,-176.374 97,-138 85.2336,-124.192 91.8613,-103.027 99.2831,-87.9815"/>
<polygon fill="midnightblue" stroke="midnightblue" points="102.4,-89.5758 104.09,-79.1165 96.2463,-86.2392 102.4,-89.5758"/>
</g>
<!-- Node8 -->
<g id="node8" class="node"><title>Node8</title>
<g id="a_node8"><a xlink:href="_buffer_8h.html" target="_top" xlink:title="cinder/Buffer.h">
<polygon fill="white" stroke="black" points="105.844,-117 105.844,-137 186.156,-137 186.156,-117 105.844,-117"/>
<text text-anchor="middle" x="146" y="-123" font-family="Helvetica,sans-Serif" font-size="10.00">cinder/Buffer.h</text>
</a>
</g>
</g>
<!-- Node7&#45;&gt;Node8 -->
<g id="edge9" class="edge"><title>Node7&#45;&gt;Node8</title>
<path fill="none" stroke="midnightblue" d="M336.276,-174.94C297.128,-165.283 235.038,-149.965 192.502,-139.472"/>
<polygon fill="midnightblue" stroke="midnightblue" points="193.218,-136.044 182.671,-137.047 191.542,-142.84 193.218,-136.044"/>
</g>
<!-- Node9 -->
<g id="node9" class="node"><title>Node9</title>
<g id="a_node9"><a xlink:href="_exception_8h.html" target="_top" xlink:title="cinder/Exception.h">
<polygon fill="white" stroke="black" points="323.865,-117 323.865,-137 422.135,-137 422.135,-117 323.865,-117"/>
<text text-anchor="middle" x="373" y="-123" font-family="Helvetica,sans-Serif" font-size="10.00">cinder/Exception.h</text>
</a>
</g>
</g>
<!-- Node7&#45;&gt;Node9 -->
<g id="edge11" class="edge"><title>Node7&#45;&gt;Node9</title>
<path fill="none" stroke="midnightblue" d="M373,-174.753C373,-167.25 373,-156.424 373,-147.078"/>
<polygon fill="midnightblue" stroke="midnightblue" points="376.5,-147.075 373,-137.075 369.5,-147.075 376.5,-147.075"/>
</g>
<!-- Node12 -->
<g id="node12" class="node"><title>Node12</title>
<g id="a_node12"><a xlink:href="_filesystem_8h.html" target="_top" xlink:title="cinder/Filesystem.h">
<polygon fill="white" stroke="black" points="203.931,-117 203.931,-137 306.069,-137 306.069,-117 203.931,-117"/>
<text text-anchor="middle" x="255" y="-123" font-family="Helvetica,sans-Serif" font-size="10.00">cinder/Filesystem.h</text>
</a>
</g>
</g>
<!-- Node7&#45;&gt;Node12 -->
<g id="edge15" class="edge"><title>Node7&#45;&gt;Node12</title>
<path fill="none" stroke="midnightblue" d="M353.779,-174.878C334.664,-165.807 305.124,-151.788 283.324,-141.442"/>
<polygon fill="midnightblue" stroke="midnightblue" points="284.748,-138.244 274.213,-137.118 281.747,-144.568 284.748,-138.244"/>
</g>
<!-- Node14 -->
<g id="node14" class="node"><title>Node14</title>
<polygon fill="white" stroke="#bfbfbf" points="478.291,-117 478.291,-137 597.709,-137 597.709,-117 478.291,-117"/>
<text text-anchor="middle" x="538" y="-123" font-family="Helvetica,sans-Serif" font-size="10.00">boost/noncopyable.hpp</text>
</g>
<!-- Node7&#45;&gt;Node14 -->
<g id="edge18" class="edge"><title>Node7&#45;&gt;Node14</title>
<path fill="none" stroke="midnightblue" d="M399.877,-174.878C427.646,-165.453 471.152,-150.688 501.907,-140.25"/>
<polygon fill="midnightblue" stroke="midnightblue" points="503.063,-143.554 511.408,-137.025 500.813,-136.925 503.063,-143.554"/>
</g>
<!-- Node7&#45;&gt;Node11 -->
<g id="edge19" class="edge"><title>Node7&#45;&gt;Node11</title>
<path fill="none" stroke="midnightblue" d="M389.374,-174.969C402.494,-166.917 420.404,-153.951 431,-138 440.741,-123.337 445.532,-103.726 447.861,-89.333"/>
<polygon fill="midnightblue" stroke="midnightblue" points="451.373,-89.4825 449.249,-79.1027 444.437,-88.5413 451.373,-89.4825"/>
</g>
<!-- Node15 -->
<g id="node15" class="node"><title>Node15</title>
<polygon fill="white" stroke="#bfbfbf" points="615.574,-117 615.574,-137 764.426,-137 764.426,-117 615.574,-117"/>
<text text-anchor="middle" x="690" y="-123" font-family="Helvetica,sans-Serif" font-size="10.00">boost/iostreams/concepts.hpp</text>
</g>
<!-- Node7&#45;&gt;Node15 -->
<g id="edge20" class="edge"><title>Node7&#45;&gt;Node15</title>
<path fill="none" stroke="midnightblue" d="M416.413,-176.331C471.427,-166.612 566.575,-149.804 628.903,-138.793"/>
<polygon fill="midnightblue" stroke="midnightblue" points="629.756,-142.197 638.995,-137.01 628.538,-135.303 629.756,-142.197"/>
</g>
<!-- Node16 -->
<g id="node16" class="node"><title>Node16</title>
<polygon fill="white" stroke="#bfbfbf" points="782.306,-117 782.306,-137 921.694,-137 921.694,-117 782.306,-117"/>
<text text-anchor="middle" x="852" y="-123" font-family="Helvetica,sans-Serif" font-size="10.00">boost/iostreams/stream.hpp</text>
</g>
<!-- Node7&#45;&gt;Node16 -->
<g id="edge21" class="edge"><title>Node7&#45;&gt;Node16</title>
<path fill="none" stroke="midnightblue" d="M416.524,-179.159C488.226,-171.149 635.958,-154.493 772.026,-138.107"/>
<polygon fill="midnightblue" stroke="midnightblue" points="772.71,-141.55 782.218,-136.877 771.871,-134.6 772.71,-141.55"/>
</g>
<!-- Node8&#45;&gt;Node2 -->
<g id="edge10" class="edge"><title>Node8&#45;&gt;Node2</title>
<path fill="none" stroke="midnightblue" d="M140.055,-116.753C134.97,-108.843 127.51,-97.2372 121.294,-87.5683"/>
<polygon fill="midnightblue" stroke="midnightblue" points="124.186,-85.5943 115.834,-79.0752 118.298,-89.3797 124.186,-85.5943"/>
</g>
<!-- Node9&#45;&gt;Node2 -->
<g id="edge12" class="edge"><title>Node9&#45;&gt;Node2</title>
<path fill="none" stroke="midnightblue" d="M330.452,-116.94C284.481,-107.152 211.205,-91.5493 161.887,-81.0481"/>
<polygon fill="midnightblue" stroke="midnightblue" points="162.561,-77.6134 152.052,-78.9539 161.103,-84.4599 162.561,-77.6134"/>
</g>
<!-- Node10 -->
<g id="node10" class="node"><title>Node10</title>
<polygon fill="white" stroke="#bfbfbf" points="351.384,-59 351.384,-79 394.616,-79 394.616,-59 351.384,-59"/>
<text text-anchor="middle" x="373" y="-65" font-family="Helvetica,sans-Serif" font-size="10.00">vector</text>
</g>
<!-- Node9&#45;&gt;Node10 -->
<g id="edge13" class="edge"><title>Node9&#45;&gt;Node10</title>
<path fill="none" stroke="midnightblue" d="M373,-116.753C373,-109.25 373,-98.4238 373,-89.0781"/>
<polygon fill="midnightblue" stroke="midnightblue" points="376.5,-89.0752 373,-79.0752 369.5,-89.0752 376.5,-89.0752"/>
</g>
<!-- Node9&#45;&gt;Node11 -->
<g id="edge14" class="edge"><title>Node9&#45;&gt;Node11</title>
<path fill="none" stroke="midnightblue" d="M385.715,-116.753C397.488,-108.19 415.216,-95.2978 429.074,-85.2186"/>
<polygon fill="midnightblue" stroke="midnightblue" points="431.493,-87.7875 437.522,-79.0752 427.376,-82.1264 431.493,-87.7875"/>
</g>
<!-- Node12&#45;&gt;Node2 -->
<g id="edge16" class="edge"><title>Node12&#45;&gt;Node2</title>
<path fill="none" stroke="midnightblue" d="M231.381,-116.878C207.366,-107.603 169.959,-93.1564 143.017,-82.7515"/>
<polygon fill="midnightblue" stroke="midnightblue" points="144.199,-79.4559 133.609,-79.1181 141.677,-85.9858 144.199,-79.4559"/>
</g>
<!-- Node13 -->
<g id="node13" class="node"><title>Node13</title>
<polygon fill="white" stroke="#bfbfbf" points="201.421,-59 201.421,-79 308.579,-79 308.579,-59 201.421,-59"/>
<text text-anchor="middle" x="255" y="-65" font-family="Helvetica,sans-Serif" font-size="10.00">boost/filesystem.hpp</text>
</g>
<!-- Node12&#45;&gt;Node13 -->
<g id="edge17" class="edge"><title>Node12&#45;&gt;Node13</title>
<path fill="none" stroke="midnightblue" d="M255,-116.753C255,-109.25 255,-98.4238 255,-89.0781"/>
<polygon fill="midnightblue" stroke="midnightblue" points="258.5,-89.0752 255,-79.0752 251.5,-89.0752 258.5,-89.0752"/>
</g>
</g>
</svg>
