<?xml version="1.0" encoding="UTF-8" standalone="no"?>
<!DOCTYPE svg PUBLIC "-//W3C//DTD SVG 1.1//EN"
 "http://www.w3.org/Graphics/SVG/1.1/DTD/svg11.dtd">
<!-- Generated by graphviz version 2.30.1 (20140712.1814)
 -->
<!-- Title: src/cinder/DataTarget.cpp Pages: 1 -->
<!--zoomable 436 -->
<svg id="main" version="1.1" xmlns="http://www.w3.org/2000/svg" xmlns:xlink="http://www.w3.org/1999/xlink" xml:space="preserve" onload="init(evt)">
<style type="text/css"><![CDATA[
.edge:hover path { stroke: red; }
.edge:hover polygon { stroke: red; fill: red; }
]]></style>
<script type="text/javascript"><![CDATA[
var edges = document.getElementsByTagName('g');
if (edges && edges.length) {
  for (var i=0;i<edges.length;i++) {
    if (edges[i].id.substr(0,4)=='edge') {
      edges[i].setAttribute('class','edge');
    }
  }
}
]]></script>
        <defs>
                <circle id="rim" cx="0" cy="0" r="7"/>
                <circle id="rim2" cx="0" cy="0" r="3.5"/>
                <g id="zoomPlus">
                        <use xlink:href="#rim" fill="#404040">
                                <set attributeName="fill" to="#808080" begin="zoomplus.mouseover" end="zoomplus.mouseout"/>
                        </use>
                        <path d="M-4,0h8M0,-4v8" fill="none" stroke="white" stroke-width="1.5" pointer-events="none"/>
                </g>
                <g id="zoomMin">
                        <use xlink:href="#rim" fill="#404040">
                                <set attributeName="fill" to="#808080" begin="zoomminus.mouseover" end="zoomminus.mouseout"/>
                        </use>
                        <path d="M-4,0h8" fill="none" stroke="white" stroke-width="1.5" pointer-events="none"/>
                </g>
                <g id="dirArrow">
                        <path fill="none" stroke="white" stroke-width="1.5" d="M0,-3.0v7 M-2.5,-0.5L0,-3.0L2.5,-0.5"/>
                </g>
               <g id="resetDef">
                       <use xlink:href="#rim2" fill="#404040">
                               <set attributeName="fill" to="#808080" begin="reset.mouseover" end="reset.mouseout"/>
                       </use>
               </g>
        </defs>

<script type="text/javascript">
var viewWidth = 1108;
var viewHeight = 436;
var sectionId = 'dynsection-0';
</script>
<script xlink:href="svgpan.js"/>
<svg id="graph" class="graph">
<g id="viewport">
<title>src/cinder/DataTarget.cpp</title>
<polygon fill="white" stroke="white" points="-4,5 -4,-432 1105,-432 1105,5 -4,5"/>
<!-- Node1 -->
<g id="node1" class="node"><title>Node1</title>
<polygon fill="#bfbfbf" stroke="black" points="583.03,-407 583.03,-427 712.97,-427 712.97,-407 583.03,-407"/>
<text text-anchor="middle" x="648" y="-413" font-family="Helvetica,sans-Serif" font-size="10.00">src/cinder/DataTarget.cpp</text>
</g>
<!-- Node2 -->
<g id="node2" class="node"><title>Node2</title>
<g id="a_node2"><a xlink:href="_data_target_8h.html" target="_top" xlink:title="cinder/DataTarget.h">
<polygon fill="white" stroke="black" points="490.365,-291 490.365,-311 593.635,-311 593.635,-291 490.365,-291"/>
<text text-anchor="middle" x="542" y="-297" font-family="Helvetica,sans-Serif" font-size="10.00">cinder/DataTarget.h</text>
</a>
</g>
</g>
<!-- Node1&#45;&gt;Node2 -->
<g id="edge1" class="edge"><title>Node1&#45;&gt;Node2</title>
<path fill="none" stroke="midnightblue" d="M639.326,-406.671C621.379,-387.369 579.965,-342.83 557.376,-318.536"/>
<polygon fill="midnightblue" stroke="midnightblue" points="559.871,-316.079 550.498,-311.139 554.744,-320.846 559.871,-316.079"/>
</g>
<!-- Node19 -->
<g id="node19" class="node"><title>Node19</title>
<g id="a_node19"><a xlink:href="_utilities_8h.html" target="_top" xlink:title="cinder/Utilities.h">
<polygon fill="white" stroke="black" points="663.709,-349 663.709,-369 750.291,-369 750.291,-349 663.709,-349"/>
<text text-anchor="middle" x="707" y="-355" font-family="Helvetica,sans-Serif" font-size="10.00">cinder/Utilities.h</text>
</a>
</g>
</g>
<!-- Node1&#45;&gt;Node19 -->
<g id="edge26" class="edge"><title>Node1&#45;&gt;Node19</title>
<path fill="none" stroke="midnightblue" d="M657.743,-406.753C666.506,-398.435 679.575,-386.031 690.049,-376.089"/>
<polygon fill="midnightblue" stroke="midnightblue" points="692.595,-378.498 697.439,-369.075 687.776,-373.421 692.595,-378.498"/>
</g>
<!-- Node3 -->
<g id="node3" class="node"><title>Node3</title>
<g id="a_node3"><a xlink:href="_cinder_8h.html" target="_top" xlink:title="cinder/Cinder.h">
<polygon fill="white" stroke="black" points="736.367,-59 736.367,-79 819.633,-79 819.633,-59 736.367,-59"/>
<text text-anchor="middle" x="778" y="-65" font-family="Helvetica,sans-Serif" font-size="10.00">cinder/Cinder.h</text>
</a>
</g>
</g>
<!-- Node2&#45;&gt;Node3 -->
<g id="edge2" class="edge"><title>Node2&#45;&gt;Node3</title>
<path fill="none" stroke="midnightblue" d="M490.002,-294.083C363.753,-277.838 58.6807,-226.232 161,-116 199.097,-74.9573 584.529,-70.2568 726.155,-69.9248"/>
<polygon fill="midnightblue" stroke="midnightblue" points="726.327,-73.4246 736.321,-69.9076 726.315,-66.4246 726.327,-73.4246"/>
</g>
<!-- Node7 -->
<g id="node7" class="node"><title>Node7</title>
<g id="a_node7"><a xlink:href="_url_8h.html" target="_top" xlink:title="cinder/Url.h">
<polygon fill="white" stroke="black" points="583.436,-233 583.436,-253 650.564,-253 650.564,-233 583.436,-233"/>
<text text-anchor="middle" x="617" y="-239" font-family="Helvetica,sans-Serif" font-size="10.00">cinder/Url.h</text>
</a>
</g>
</g>
<!-- Node2&#45;&gt;Node7 -->
<g id="edge6" class="edge"><title>Node2&#45;&gt;Node7</title>
<path fill="none" stroke="midnightblue" d="M554.385,-290.753C565.852,-282.19 583.119,-269.298 596.618,-259.219"/>
<polygon fill="midnightblue" stroke="midnightblue" points="598.927,-261.863 604.846,-253.075 594.739,-256.254 598.927,-261.863"/>
</g>
<!-- Node8 -->
<g id="node8" class="node"><title>Node8</title>
<g id="a_node8"><a xlink:href="_stream_8h.html" target="_top" xlink:title="cinder/Stream.h">
<polygon fill="white" stroke="black" points="616.707,-175 616.707,-195 703.293,-195 703.293,-175 616.707,-175"/>
<text text-anchor="middle" x="660" y="-181" font-family="Helvetica,sans-Serif" font-size="10.00">cinder/Stream.h</text>
</a>
</g>
</g>
<!-- Node2&#45;&gt;Node8 -->
<g id="edge24" class="edge"><title>Node2&#45;&gt;Node8</title>
<path fill="none" stroke="midnightblue" d="M544.376,-290.555C548.371,-276.323 557.645,-249.216 574,-232 587.745,-217.53 607.064,-206.634 623.91,-199.087"/>
<polygon fill="midnightblue" stroke="midnightblue" points="625.642,-202.155 633.483,-195.029 622.91,-195.71 625.642,-202.155"/>
</g>
<!-- Node12 -->
<g id="node12" class="node"><title>Node12</title>
<polygon fill="white" stroke="#bfbfbf" points="55.7734,-59 55.7734,-79 96.2266,-79 96.2266,-59 55.7734,-59"/>
<text text-anchor="middle" x="76" y="-65" font-family="Helvetica,sans-Serif" font-size="10.00">string</text>
</g>
<!-- Node2&#45;&gt;Node12 -->
<g id="edge25" class="edge"><title>Node2&#45;&gt;Node12</title>
<path fill="none" stroke="midnightblue" d="M490.343,-300.628C424.395,-299.68 307.947,-292.049 217,-254 177.802,-237.601 168.295,-228.564 141,-196 112.915,-162.493 92.5106,-114.824 82.6495,-88.7766"/>
<polygon fill="midnightblue" stroke="midnightblue" points="85.808,-87.2237 79.0772,-79.0416 79.2364,-89.6352 85.808,-87.2237"/>
</g>
<!-- Node4 -->
<g id="node4" class="node"><title>Node4</title>
<polygon fill="white" stroke="#bfbfbf" points="667.549,-1 667.549,-21 712.451,-21 712.451,-1 667.549,-1"/>
<text text-anchor="middle" x="690" y="-7" font-family="Helvetica,sans-Serif" font-size="10.00">cstdint</text>
</g>
<!-- Node3&#45;&gt;Node4 -->
<g id="edge3" class="edge"><title>Node3&#45;&gt;Node4</title>
<path fill="none" stroke="midnightblue" d="M763.469,-58.7527C749.757,-50.0272 728.979,-36.8051 713.015,-26.6458"/>
<polygon fill="midnightblue" stroke="midnightblue" points="714.577,-23.4912 704.261,-21.0752 710.819,-29.3968 714.577,-23.4912"/>
</g>
<!-- Node5 -->
<g id="node5" class="node"><title>Node5</title>
<polygon fill="white" stroke="#bfbfbf" points="730.53,-1 730.53,-21 825.47,-21 825.47,-1 730.53,-1"/>
<text text-anchor="middle" x="778" y="-7" font-family="Helvetica,sans-Serif" font-size="10.00">boost/version.hpp</text>
</g>
<!-- Node3&#45;&gt;Node5 -->
<g id="edge4" class="edge"><title>Node3&#45;&gt;Node5</title>
<path fill="none" stroke="midnightblue" d="M778,-58.7527C778,-51.2504 778,-40.4238 778,-31.0781"/>
<polygon fill="midnightblue" stroke="midnightblue" points="781.5,-31.0752 778,-21.0752 774.5,-31.0752 781.5,-31.0752"/>
</g>
<!-- Node6 -->
<g id="node6" class="node"><title>Node6</title>
<polygon fill="white" stroke="#bfbfbf" points="843.621,-1 843.621,-21 976.379,-21 976.379,-1 843.621,-1"/>
<text text-anchor="middle" x="910" y="-7" font-family="Helvetica,sans-Serif" font-size="10.00">boost/checked_delete.hpp</text>
</g>
<!-- Node3&#45;&gt;Node6 -->
<g id="edge5" class="edge"><title>Node3&#45;&gt;Node6</title>
<path fill="none" stroke="midnightblue" d="M799.502,-58.878C821.172,-49.6848 854.821,-35.4095 879.295,-25.0263"/>
<polygon fill="midnightblue" stroke="midnightblue" points="880.668,-28.2457 888.507,-21.1181 877.935,-21.8016 880.668,-28.2457"/>
</g>
<!-- Node7&#45;&gt;Node3 -->
<g id="edge7" class="edge"><title>Node7&#45;&gt;Node3</title>
<path fill="none" stroke="midnightblue" d="M583.41,-238.4C470.051,-225.615 111.921,-179.726 171,-116 208.37,-75.6905 585.884,-70.5177 726.012,-69.9943"/>
<polygon fill="midnightblue" stroke="midnightblue" points="726.088,-73.4942 736.077,-69.9632 726.066,-66.4942 726.088,-73.4942"/>
</g>
<!-- Node7&#45;&gt;Node8 -->
<g id="edge8" class="edge"><title>Node7&#45;&gt;Node8</title>
<path fill="none" stroke="midnightblue" d="M624.101,-232.753C630.237,-224.761 639.27,-212.998 646.739,-203.27"/>
<polygon fill="midnightblue" stroke="midnightblue" points="649.717,-205.138 653.032,-195.075 644.165,-200.875 649.717,-205.138"/>
</g>
<!-- Node18 -->
<g id="node18" class="node"><title>Node18</title>
<polygon fill="white" stroke="#bfbfbf" points="544.828,-175 544.828,-195 599.172,-195 599.172,-175 544.828,-175"/>
<text text-anchor="middle" x="572" y="-181" font-family="Helvetica,sans-Serif" font-size="10.00">iostream</text>
</g>
<!-- Node7&#45;&gt;Node18 -->
<g id="edge23" class="edge"><title>Node7&#45;&gt;Node18</title>
<path fill="none" stroke="midnightblue" d="M609.569,-232.753C603.082,-224.68 593.501,-212.757 585.639,-202.973"/>
<polygon fill="midnightblue" stroke="midnightblue" points="588.285,-200.678 579.293,-195.075 582.828,-205.063 588.285,-200.678"/>
</g>
<!-- Node8&#45;&gt;Node3 -->
<g id="edge9" class="edge"><title>Node8&#45;&gt;Node3</title>
<path fill="none" stroke="midnightblue" d="M688.885,-174.9C708.08,-167.581 732.666,-155.588 749,-138 761.806,-124.211 769.456,-103.91 773.655,-89.0803"/>
<polygon fill="midnightblue" stroke="midnightblue" points="777.145,-89.5593 776.222,-79.0047 770.361,-87.8311 777.145,-89.5593"/>
</g>
<!-- Node9 -->
<g id="node9" class="node"><title>Node9</title>
<g id="a_node9"><a xlink:href="_buffer_8h.html" target="_top" xlink:title="cinder/Buffer.h">
<polygon fill="white" stroke="black" points="795.844,-117 795.844,-137 876.156,-137 876.156,-117 795.844,-117"/>
<text text-anchor="middle" x="836" y="-123" font-family="Helvetica,sans-Serif" font-size="10.00">cinder/Buffer.h</text>
</a>
</g>
</g>
<!-- Node8&#45;&gt;Node9 -->
<g id="edge10" class="edge"><title>Node8&#45;&gt;Node9</title>
<path fill="none" stroke="midnightblue" d="M688.669,-174.878C718.417,-165.413 765.098,-150.56 797.926,-140.115"/>
<polygon fill="midnightblue" stroke="midnightblue" points="799.167,-143.393 807.635,-137.025 797.044,-136.722 799.167,-143.393"/>
</g>
<!-- Node10 -->
<g id="node10" class="node"><title>Node10</title>
<g id="a_node10"><a xlink:href="_exception_8h.html" target="_top" xlink:title="cinder/Exception.h">
<polygon fill="white" stroke="black" points="641.865,-117 641.865,-137 740.135,-137 740.135,-117 641.865,-117"/>
<text text-anchor="middle" x="691" y="-123" font-family="Helvetica,sans-Serif" font-size="10.00">cinder/Exception.h</text>
</a>
</g>
</g>
<!-- Node8&#45;&gt;Node10 -->
<g id="edge12" class="edge"><title>Node8&#45;&gt;Node10</title>
<path fill="none" stroke="midnightblue" d="M665.119,-174.753C669.453,-166.924 675.79,-155.476 681.109,-145.868"/>
<polygon fill="midnightblue" stroke="midnightblue" points="684.195,-147.519 685.976,-137.075 678.071,-144.129 684.195,-147.519"/>
</g>
<!-- Node13 -->
<g id="node13" class="node"><title>Node13</title>
<g id="a_node13"><a xlink:href="_filesystem_8h.html" target="_top" xlink:title="cinder/Filesystem.h">
<polygon fill="white" stroke="black" points="931.931,-117 931.931,-137 1034.07,-137 1034.07,-117 931.931,-117"/>
<text text-anchor="middle" x="983" y="-123" font-family="Helvetica,sans-Serif" font-size="10.00">cinder/Filesystem.h</text>
</a>
</g>
</g>
<!-- Node8&#45;&gt;Node13 -->
<g id="edge16" class="edge"><title>Node8&#45;&gt;Node13</title>
<path fill="none" stroke="midnightblue" d="M703.561,-176.448C759.871,-166.685 858.24,-149.63 921.974,-138.58"/>
<polygon fill="midnightblue" stroke="midnightblue" points="922.638,-142.017 931.894,-136.861 921.443,-135.12 922.638,-142.017"/>
</g>
<!-- Node15 -->
<g id="node15" class="node"><title>Node15</title>
<polygon fill="white" stroke="#bfbfbf" points="180.291,-117 180.291,-137 299.709,-137 299.709,-117 180.291,-117"/>
<text text-anchor="middle" x="240" y="-123" font-family="Helvetica,sans-Serif" font-size="10.00">boost/noncopyable.hpp</text>
</g>
<!-- Node8&#45;&gt;Node15 -->
<g id="edge19" class="edge"><title>Node8&#45;&gt;Node15</title>
<path fill="none" stroke="midnightblue" d="M616.628,-175.423C613.712,-174.92 610.816,-174.44 608,-174 478.983,-153.853 443.408,-155.504 310.027,-138.103"/>
<polygon fill="midnightblue" stroke="midnightblue" points="310.198,-134.596 299.827,-136.761 309.285,-141.536 310.198,-134.596"/>
</g>
<!-- Node8&#45;&gt;Node12 -->
<g id="edge20" class="edge"><title>Node8&#45;&gt;Node12</title>
<path fill="none" stroke="midnightblue" d="M616.646,-175.3C613.726,-174.826 610.824,-174.387 608,-174 414.922,-147.56 353.95,-205.139 171,-138 140.237,-126.711 110.465,-102.587 92.6867,-86.3249"/>
<polygon fill="midnightblue" stroke="midnightblue" points="94.6517,-83.3681 84.9705,-79.064 89.8546,-88.466 94.6517,-83.3681"/>
</g>
<!-- Node16 -->
<g id="node16" class="node"><title>Node16</title>
<polygon fill="white" stroke="#bfbfbf" points="317.574,-117 317.574,-137 466.426,-137 466.426,-117 317.574,-117"/>
<text text-anchor="middle" x="392" y="-123" font-family="Helvetica,sans-Serif" font-size="10.00">boost/iostreams/concepts.hpp</text>
</g>
<!-- Node8&#45;&gt;Node16 -->
<g id="edge21" class="edge"><title>Node8&#45;&gt;Node16</title>
<path fill="none" stroke="midnightblue" d="M616.643,-174.94C569.937,-165.181 495.571,-149.642 445.32,-139.141"/>
<polygon fill="midnightblue" stroke="midnightblue" points="445.799,-135.666 435.294,-137.047 444.367,-142.518 445.799,-135.666"/>
</g>
<!-- Node17 -->
<g id="node17" class="node"><title>Node17</title>
<polygon fill="white" stroke="#bfbfbf" points="484.306,-117 484.306,-137 623.694,-137 623.694,-117 484.306,-117"/>
<text text-anchor="middle" x="554" y="-123" font-family="Helvetica,sans-Serif" font-size="10.00">boost/iostreams/stream.hpp</text>
</g>
<!-- Node8&#45;&gt;Node17 -->
<g id="edge22" class="edge"><title>Node8&#45;&gt;Node17</title>
<path fill="none" stroke="midnightblue" d="M642.496,-174.753C625.517,-165.783 599.542,-152.06 580.119,-141.799"/>
<polygon fill="midnightblue" stroke="midnightblue" points="581.655,-138.652 571.178,-137.075 578.385,-144.841 581.655,-138.652"/>
</g>
<!-- Node9&#45;&gt;Node3 -->
<g id="edge11" class="edge"><title>Node9&#45;&gt;Node3</title>
<path fill="none" stroke="midnightblue" d="M826.422,-116.753C817.808,-108.435 804.961,-96.031 794.664,-86.0893"/>
<polygon fill="midnightblue" stroke="midnightblue" points="797.024,-83.5033 787.399,-79.0752 792.162,-88.5391 797.024,-83.5033"/>
</g>
<!-- Node10&#45;&gt;Node3 -->
<g id="edge13" class="edge"><title>Node10&#45;&gt;Node3</title>
<path fill="none" stroke="midnightblue" d="M705.366,-116.753C718.922,-108.027 739.464,-94.8051 755.247,-84.6458"/>
<polygon fill="midnightblue" stroke="midnightblue" points="757.387,-87.4307 763.901,-79.0752 753.598,-81.5447 757.387,-87.4307"/>
</g>
<!-- Node11 -->
<g id="node11" class="node"><title>Node11</title>
<polygon fill="white" stroke="#bfbfbf" points="848.384,-59 848.384,-79 891.616,-79 891.616,-59 848.384,-59"/>
<text text-anchor="middle" x="870" y="-65" font-family="Helvetica,sans-Serif" font-size="10.00">vector</text>
</g>
<!-- Node10&#45;&gt;Node11 -->
<g id="edge14" class="edge"><title>Node10&#45;&gt;Node11</title>
<path fill="none" stroke="midnightblue" d="M720.158,-116.878C752.658,-106.71 805.028,-90.3265 838.462,-79.8667"/>
<polygon fill="midnightblue" stroke="midnightblue" points="839.688,-83.1505 848.187,-76.8243 837.598,-76.4698 839.688,-83.1505"/>
</g>
<!-- Node10&#45;&gt;Node12 -->
<g id="edge15" class="edge"><title>Node10&#45;&gt;Node12</title>
<path fill="none" stroke="midnightblue" d="M641.791,-117.337C638.482,-116.854 635.195,-116.402 632,-116 432.222,-90.852 190.257,-76.213 106.365,-71.5988"/>
<polygon fill="midnightblue" stroke="midnightblue" points="106.436,-68.0976 96.2608,-71.0498 106.056,-75.0873 106.436,-68.0976"/>
</g>
<!-- Node13&#45;&gt;Node3 -->
<g id="edge17" class="edge"><title>Node13&#45;&gt;Node3</title>
<path fill="none" stroke="midnightblue" d="M949.607,-116.878C914.509,-107.29 859.176,-92.1748 820.873,-81.7116"/>
<polygon fill="midnightblue" stroke="midnightblue" points="821.608,-78.2842 811.039,-79.0253 819.763,-85.0368 821.608,-78.2842"/>
</g>
<!-- Node14 -->
<g id="node14" class="node"><title>Node14</title>
<polygon fill="white" stroke="#bfbfbf" points="929.421,-59 929.421,-79 1036.58,-79 1036.58,-59 929.421,-59"/>
<text text-anchor="middle" x="983" y="-65" font-family="Helvetica,sans-Serif" font-size="10.00">boost/filesystem.hpp</text>
</g>
<!-- Node13&#45;&gt;Node14 -->
<g id="edge18" class="edge"><title>Node13&#45;&gt;Node14</title>
<path fill="none" stroke="midnightblue" d="M983,-116.753C983,-109.25 983,-98.4238 983,-89.0781"/>
<polygon fill="midnightblue" stroke="midnightblue" points="986.5,-89.0752 983,-79.0752 979.5,-89.0752 986.5,-89.0752"/>
</g>
<!-- Node19&#45;&gt;Node12 -->
<g id="edge27" class="edge"><title>Node19&#45;&gt;Node12</title>
<path fill="none" stroke="midnightblue" d="M663.573,-355.612C509.752,-346.583 0,-311.565 0,-244 0,-244 0,-244 0,-184 0,-143.325 33.9099,-106.124 56.4281,-85.9052"/>
<polygon fill="midnightblue" stroke="midnightblue" points="58.8503,-88.4378 64.125,-79.2493 54.2715,-83.1429 58.8503,-88.4378"/>
</g>
<!-- Node19&#45;&gt;Node11 -->
<g id="edge28" class="edge"><title>Node19&#45;&gt;Node11</title>
<path fill="none" stroke="midnightblue" d="M750.532,-357.638C810.298,-355.75 920.122,-347.246 1006,-312 1053.7,-292.422 1100,-295.563 1100,-244 1100,-244 1100,-244 1100,-184 1100,-149.804 1091.05,-136.922 1064,-116 1057.53,-110.999 954.974,-88.3309 901.66,-76.7923"/>
<polygon fill="midnightblue" stroke="midnightblue" points="902.21,-73.3305 891.696,-74.6415 900.733,-80.1729 902.21,-73.3305"/>
</g>
<!-- Node19&#45;&gt;Node3 -->
<g id="edge29" class="edge"><title>Node19&#45;&gt;Node3</title>
<path fill="none" stroke="midnightblue" d="M750.53,-353.314C845.325,-341.9 1062,-308.732 1062,-244 1062,-244 1062,-244 1062,-184 1062,-152.62 1066.28,-137.045 1043,-116 1041.02,-114.209 906.408,-91.4645 829.832,-78.6445"/>
<polygon fill="midnightblue" stroke="midnightblue" points="830.326,-75.1786 819.886,-76.9805 829.171,-82.0827 830.326,-75.1786"/>
</g>
<!-- Node19&#45;&gt;Node7 -->
<g id="edge30" class="edge"><title>Node19&#45;&gt;Node7</title>
<path fill="none" stroke="midnightblue" d="M688.058,-348.968C673.353,-341.078 653.437,-328.336 641,-312 630.002,-297.553 623.762,-277.651 620.419,-263.111"/>
<polygon fill="midnightblue" stroke="midnightblue" points="623.829,-262.313 618.397,-253.216 616.971,-263.715 623.829,-262.313"/>
</g>
<!-- Node20 -->
<g id="node20" class="node"><title>Node20</title>
<g id="a_node20"><a xlink:href="_data_source_8h.html" target="_top" xlink:title="cinder/DataSource.h">
<polygon fill="white" stroke="black" points="782.419,-291 782.419,-311 889.581,-311 889.581,-291 782.419,-291"/>
<text text-anchor="middle" x="836" y="-297" font-family="Helvetica,sans-Serif" font-size="10.00">cinder/DataSource.h</text>
</a>
</g>
</g>
<!-- Node19&#45;&gt;Node20 -->
<g id="edge31" class="edge"><title>Node19&#45;&gt;Node20</title>
<path fill="none" stroke="midnightblue" d="M728.013,-348.878C749.097,-339.725 781.784,-325.536 805.675,-315.164"/>
<polygon fill="midnightblue" stroke="midnightblue" points="807.217,-318.311 814.996,-311.118 804.429,-311.89 807.217,-318.311"/>
</g>
<!-- Node21 -->
<g id="node21" class="node"><title>Node21</title>
<polygon fill="white" stroke="#bfbfbf" points="649.803,-291 649.803,-311 764.197,-311 764.197,-291 649.803,-291"/>
<text text-anchor="middle" x="707" y="-297" font-family="Helvetica,sans-Serif" font-size="10.00">boost/lexical_cast.hpp</text>
</g>
<!-- Node19&#45;&gt;Node21 -->
<g id="edge37" class="edge"><title>Node19&#45;&gt;Node21</title>
<path fill="none" stroke="midnightblue" d="M707,-348.753C707,-341.25 707,-330.424 707,-321.078"/>
<polygon fill="midnightblue" stroke="midnightblue" points="710.5,-321.075 707,-311.075 703.5,-321.075 710.5,-321.075"/>
</g>
<!-- Node20&#45;&gt;Node3 -->
<g id="edge32" class="edge"><title>Node20&#45;&gt;Node3</title>
<path fill="none" stroke="midnightblue" d="M843.261,-290.749C864.647,-262.305 923.547,-174.529 885,-116 872.519,-97.0483 850.417,-85.8725 829.529,-79.2972"/>
<polygon fill="midnightblue" stroke="midnightblue" points="830.315,-75.882 819.739,-76.5067 828.396,-82.6139 830.315,-75.882"/>
</g>
<!-- Node20&#45;&gt;Node7 -->
<g id="edge33" class="edge"><title>Node20&#45;&gt;Node7</title>
<path fill="none" stroke="midnightblue" d="M800.326,-290.878C762.144,-281.115 701.545,-265.619 660.569,-255.141"/>
<polygon fill="midnightblue" stroke="midnightblue" points="661.413,-251.744 650.858,-252.658 659.679,-258.526 661.413,-251.744"/>
</g>
<!-- Node20&#45;&gt;Node9 -->
<g id="edge34" class="edge"><title>Node20&#45;&gt;Node9</title>
<path fill="none" stroke="midnightblue" d="M836,-290.753C836,-263.804 836,-184.908 836,-147.766"/>
<polygon fill="midnightblue" stroke="midnightblue" points="839.5,-147.293 836,-137.293 832.5,-147.293 839.5,-147.293"/>
</g>
<!-- Node20&#45;&gt;Node8 -->
<g id="edge35" class="edge"><title>Node20&#45;&gt;Node8</title>
<path fill="none" stroke="midnightblue" d="M821.895,-290.864C791.515,-271.186 719.668,-224.649 682.757,-200.741"/>
<polygon fill="midnightblue" stroke="midnightblue" points="684.468,-197.679 674.172,-195.18 680.663,-203.554 684.468,-197.679"/>
</g>
<!-- Node20&#45;&gt;Node13 -->
<g id="edge36" class="edge"><title>Node20&#45;&gt;Node13</title>
<path fill="none" stroke="midnightblue" d="M859.977,-290.999C877.768,-283.35 901.672,-270.909 918,-254 948.656,-222.253 968.255,-173.169 977.247,-146.606"/>
<polygon fill="midnightblue" stroke="midnightblue" points="980.603,-147.605 980.361,-137.013 973.945,-145.444 980.603,-147.605"/>
</g>
</g>
</svg>
        <g id="navigator" transform="translate(0 0)" fill="#404254">
                <rect fill="#f2f5e9" fill-opacity="0.5" stroke="#606060" stroke-width=".5" x="0" y="0" width="60" height="60"/>
                <use id="zoomplus" xlink:href="#zoomPlus" x="17" y="9" onmousedown="handleZoom(evt,'in')"/>
                <use id="zoomminus" xlink:href="#zoomMin" x="42" y="9" onmousedown="handleZoom(evt,'out')"/>
                <use id="reset" xlink:href="#resetDef" x="30" y="36" onmousedown="handleReset()"/>
                <g id="arrowUp" xlink:href="#dirArrow" transform="translate(30 24)" onmousedown="handlePan(0,-1)">
                  <use xlink:href="#rim" fill="#404040">
                        <set attributeName="fill" to="#808080" begin="arrowUp.mouseover" end="arrowUp.mouseout"/>
                  </use>
                  <path fill="none" stroke="white" stroke-width="1.5" d="M0,-3.0v7 M-2.5,-0.5L0,-3.0L2.5,-0.5"/>
                </g>
                <g id="arrowRight" xlink:href="#dirArrow" transform="rotate(90) translate(36 -43)" onmousedown="handlePan(1,0)">
                  <use xlink:href="#rim" fill="#404040">
                        <set attributeName="fill" to="#808080" begin="arrowRight.mouseover" end="arrowRight.mouseout"/>
                  </use>
                  <path fill="none" stroke="white" stroke-width="1.5" d="M0,-3.0v7 M-2.5,-0.5L0,-3.0L2.5,-0.5"/>
                </g>
                <g id="arrowDown" xlink:href="#dirArrow" transform="rotate(180) translate(-30 -48)" onmousedown="handlePan(0,1)">
                  <use xlink:href="#rim" fill="#404040">
                        <set attributeName="fill" to="#808080" begin="arrowDown.mouseover" end="arrowDown.mouseout"/>
                  </use>
                  <path fill="none" stroke="white" stroke-width="1.5" d="M0,-3.0v7 M-2.5,-0.5L0,-3.0L2.5,-0.5"/>
                </g>
                <g id="arrowLeft" xlink:href="#dirArrow" transform="rotate(270) translate(-36 17)" onmousedown="handlePan(-1,0)">
                  <use xlink:href="#rim" fill="#404040">
                        <set attributeName="fill" to="#808080" begin="arrowLeft.mouseover" end="arrowLeft.mouseout"/>
                  </use>
                  <path fill="none" stroke="white" stroke-width="1.5" d="M0,-3.0v7 M-2.5,-0.5L0,-3.0L2.5,-0.5"/>
                </g>
        </g>
        <svg viewBox="0 0 15 15" width="100%" height="30px" preserveAspectRatio="xMaxYMin meet">
         <g id="arrow_out" transform="scale(0.3 0.3)">
          <a xlink:href="_data_target_8cpp__incl_org.svg" target="_base">
           <rect id="button" ry="5" rx="5" y="6" x="6" height="38" width="38"
                fill="#f2f5e9" fill-opacity="0.5" stroke="#606060" stroke-width="1.0"/>
           <path id="arrow"
             d="M 11.500037,31.436501 C 11.940474,20.09759 22.043105,11.32322 32.158766,21.979434 L 37.068811,17.246167 C 37.068811,17.246167 37.088388,32 37.088388,32 L 22.160133,31.978069 C 22.160133,31.978069 26.997745,27.140456 26.997745,27.140456 C 18.528582,18.264221 13.291696,25.230495 11.500037,31.436501 z"
             style="fill:#404040;"/>
          </a>
         </g>
        </svg>
</svg>
