<?xml version="1.0" encoding="UTF-8" standalone="no"?>
<!DOCTYPE svg PUBLIC "-//W3C//DTD SVG 1.1//EN"
 "http://www.w3.org/Graphics/SVG/1.1/DTD/svg11.dtd">
<!-- Generated by graphviz version 2.30.1 (20140712.1814)
 -->
<!-- Title: include/cinder/audio/Debug.h Pages: 1 -->
<svg width="3153pt" height="112pt"
 viewBox="0.00 0.00 3153.00 112.00" xmlns="http://www.w3.org/2000/svg" xmlns:xlink="http://www.w3.org/1999/xlink">
<g id="graph0" class="graph" transform="scale(1 1) rotate(0) translate(4 108)">
<title>include/cinder/audio/Debug.h</title>
<polygon fill="white" stroke="white" points="-4,5 -4,-108 3150,-108 3150,5 -4,5"/>
<!-- Node1 -->
<g id="node1" class="node"><title>Node1</title>
<polygon fill="#bfbfbf" stroke="black" points="1477.52,-71 1477.52,-103 1582.48,-103 1582.48,-71 1477.52,-71"/>
<text text-anchor="start" x="1485.52" y="-89" font-family="Helvetica,sans-Serif" font-size="10.00">include/cinder/audio</text>
<text text-anchor="middle" x="1530" y="-77" font-family="Helvetica,sans-Serif" font-size="10.00">/Debug.h</text>
</g>
<!-- Node2 -->
<g id="node2" class="node"><title>Node2</title>
<g id="a_node2"><a xlink:href="_cinder_core_audio_8cpp.html" target="_top" xlink:title="src/cinder/audio/cocoa\l/CinderCoreAudio.cpp">
<polygon fill="white" stroke="black" points="-0.0268555,-1 -0.0268555,-33 116.027,-33 116.027,-1 -0.0268555,-1"/>
<text text-anchor="start" x="7.97314" y="-19" font-family="Helvetica,sans-Serif" font-size="10.00">src/cinder/audio/cocoa</text>
<text text-anchor="middle" x="58" y="-7" font-family="Helvetica,sans-Serif" font-size="10.00">/CinderCoreAudio.cpp</text>
</a>
</g>
</g>
<!-- Node1&#45;&gt;Node2 -->
<g id="edge1" class="edge"><title>Node1&#45;&gt;Node2</title>
<path fill="none" stroke="midnightblue" d="M1467.01,-85.3211C1229.72,-82.5068 389.815,-70.1589 125,-34 122.156,-33.6117 119.257,-33.1556 116.337,-32.6478"/>
<polygon fill="midnightblue" stroke="midnightblue" points="1467.15,-88.8229 1477.19,-85.4403 1467.23,-81.8234 1467.15,-88.8229"/>
</g>
<!-- Node3 -->
<g id="node3" class="node"><title>Node3</title>
<g id="a_node3"><a xlink:href="_context_audio_unit_8cpp.html" target="_top" xlink:title="src/cinder/audio/cocoa\l/ContextAudioUnit.cpp">
<polygon fill="white" stroke="black" points="133.973,-1 133.973,-33 250.027,-33 250.027,-1 133.973,-1"/>
<text text-anchor="start" x="141.973" y="-19" font-family="Helvetica,sans-Serif" font-size="10.00">src/cinder/audio/cocoa</text>
<text text-anchor="middle" x="192" y="-7" font-family="Helvetica,sans-Serif" font-size="10.00">/ContextAudioUnit.cpp</text>
</a>
</g>
</g>
<!-- Node1&#45;&gt;Node3 -->
<g id="edge2" class="edge"><title>Node1&#45;&gt;Node3</title>
<path fill="none" stroke="midnightblue" d="M1467.19,-85.0392C1244.93,-81.3885 496.409,-66.888 259,-34 256.157,-33.6062 253.258,-33.1455 250.339,-32.6341"/>
<polygon fill="midnightblue" stroke="midnightblue" points="1467.31,-88.5416 1477.37,-85.2049 1467.43,-81.5426 1467.31,-88.5416"/>
</g>
<!-- Node4 -->
<g id="node4" class="node"><title>Node4</title>
<g id="a_node4"><a xlink:href="_device_manager_audio_session_8mm.html" target="_top" xlink:title="src/cinder/audio/cocoa\l/DeviceManagerAudioSession.mm">
<polygon fill="white" stroke="black" points="268.298,-1 268.298,-33 437.702,-33 437.702,-1 268.298,-1"/>
<text text-anchor="start" x="276.298" y="-19" font-family="Helvetica,sans-Serif" font-size="10.00">src/cinder/audio/cocoa</text>
<text text-anchor="middle" x="353" y="-7" font-family="Helvetica,sans-Serif" font-size="10.00">/DeviceManagerAudioSession.mm</text>
</a>
</g>
</g>
<!-- Node1&#45;&gt;Node4 -->
<g id="edge3" class="edge"><title>Node1&#45;&gt;Node4</title>
<path fill="none" stroke="midnightblue" d="M1467.36,-85.6297C1300.79,-84.0753 833.299,-75.9956 447,-34 443.955,-33.669 440.86,-33.3023 437.737,-32.9068"/>
<polygon fill="midnightblue" stroke="midnightblue" points="1467.39,-89.1301 1477.42,-85.719 1467.45,-82.1303 1467.39,-89.1301"/>
</g>
<!-- Node5 -->
<g id="node5" class="node"><title>Node5</title>
<g id="a_node5"><a xlink:href="_device_manager_core_audio_8cpp.html" target="_top" xlink:title="src/cinder/audio/cocoa\l/DeviceManagerCoreAudio.cpp">
<polygon fill="white" stroke="black" points="455.518,-1 455.518,-33 610.482,-33 610.482,-1 455.518,-1"/>
<text text-anchor="start" x="463.518" y="-19" font-family="Helvetica,sans-Serif" font-size="10.00">src/cinder/audio/cocoa</text>
<text text-anchor="middle" x="533" y="-7" font-family="Helvetica,sans-Serif" font-size="10.00">/DeviceManagerCoreAudio.cpp</text>
</a>
</g>
</g>
<!-- Node1&#45;&gt;Node5 -->
<g id="edge4" class="edge"><title>Node1&#45;&gt;Node5</title>
<path fill="none" stroke="midnightblue" d="M1467.23,-85.1072C1319.19,-82.4151 936.84,-72.0366 620,-34 616.95,-33.6339 613.846,-33.2273 610.715,-32.7889"/>
<polygon fill="midnightblue" stroke="midnightblue" points="1467.42,-88.611 1477.48,-85.2881 1467.54,-81.6121 1467.42,-88.611"/>
</g>
<!-- Node6 -->
<g id="node6" class="node"><title>Node6</title>
<g id="a_node6"><a xlink:href="_file_core_audio_8cpp.html" target="_top" xlink:title="src/cinder/audio/cocoa\l/FileCoreAudio.cpp">
<polygon fill="white" stroke="black" points="628.973,-1 628.973,-33 745.027,-33 745.027,-1 628.973,-1"/>
<text text-anchor="start" x="636.973" y="-19" font-family="Helvetica,sans-Serif" font-size="10.00">src/cinder/audio/cocoa</text>
<text text-anchor="middle" x="687" y="-7" font-family="Helvetica,sans-Serif" font-size="10.00">/FileCoreAudio.cpp</text>
</a>
</g>
</g>
<!-- Node1&#45;&gt;Node6 -->
<g id="edge5" class="edge"><title>Node1&#45;&gt;Node6</title>
<path fill="none" stroke="midnightblue" d="M1467.08,-85.3462C1334.48,-83.1882 1016.87,-73.9078 754,-34 751.162,-33.5692 748.268,-33.0786 745.352,-32.5431"/>
<polygon fill="midnightblue" stroke="midnightblue" points="1467.39,-88.8513 1477.45,-85.5063 1467.5,-81.8521 1467.39,-88.8513"/>
</g>
<!-- Node7 -->
<g id="node7" class="node"><title>Node7</title>
<g id="a_node7"><a xlink:href="_context_8cpp.html" target="_top" xlink:title="src/cinder/audio/Context.cpp">
<polygon fill="white" stroke="black" points="762.633,-7 762.633,-27 905.367,-27 905.367,-7 762.633,-7"/>
<text text-anchor="middle" x="834" y="-13" font-family="Helvetica,sans-Serif" font-size="10.00">src/cinder/audio/Context.cpp</text>
</a>
</g>
</g>
<!-- Node1&#45;&gt;Node7 -->
<g id="edge6" class="edge"><title>Node1&#45;&gt;Node7</title>
<path fill="none" stroke="midnightblue" d="M1467.37,-83.0597C1355.74,-77.2969 1115.2,-62.5184 914,-34 901.098,-32.1712 887.137,-29.5905 874.545,-27.0344"/>
<polygon fill="midnightblue" stroke="midnightblue" points="1467.28,-86.5595 1477.45,-83.5732 1467.64,-79.5685 1467.28,-86.5595"/>
</g>
<!-- Node8 -->
<g id="node8" class="node"><title>Node8</title>
<g id="a_node8"><a xlink:href="_delay_node_8cpp.html" target="_top" xlink:title="src/cinder/audio/DelayNode.cpp">
<polygon fill="white" stroke="black" points="923.128,-7 923.128,-27 1080.87,-27 1080.87,-7 923.128,-7"/>
<text text-anchor="middle" x="1002" y="-13" font-family="Helvetica,sans-Serif" font-size="10.00">src/cinder/audio/DelayNode.cpp</text>
</a>
</g>
</g>
<!-- Node1&#45;&gt;Node8 -->
<g id="edge7" class="edge"><title>Node1&#45;&gt;Node8</title>
<path fill="none" stroke="midnightblue" d="M1467.31,-79.8309C1381.81,-71.1352 1223.96,-54.0734 1090,-34 1076.49,-31.9749 1061.86,-29.4514 1048.49,-27.0115"/>
<polygon fill="midnightblue" stroke="midnightblue" points="1467.07,-83.3243 1477.37,-80.8495 1467.77,-76.3599 1467.07,-83.3243"/>
</g>
<!-- Node9 -->
<g id="node9" class="node"><title>Node9</title>
<g id="a_node9"><a xlink:href="_device_8cpp.html" target="_top" xlink:title="src/cinder/audio/Device.cpp">
<polygon fill="white" stroke="black" points="1098.58,-7 1098.58,-27 1237.42,-27 1237.42,-7 1098.58,-7"/>
<text text-anchor="middle" x="1168" y="-13" font-family="Helvetica,sans-Serif" font-size="10.00">src/cinder/audio/Device.cpp</text>
</a>
</g>
</g>
<!-- Node1&#45;&gt;Node9 -->
<g id="edge8" class="edge"><title>Node1&#45;&gt;Node9</title>
<path fill="none" stroke="midnightblue" d="M1467.26,-74.8083C1409.87,-64.4912 1322.65,-48.61 1247,-34 1235.6,-31.7976 1223.28,-29.3415 1211.85,-27.0276"/>
<polygon fill="midnightblue" stroke="midnightblue" points="1466.81,-78.2824 1477.27,-76.605 1468.04,-71.3926 1466.81,-78.2824"/>
</g>
<!-- Node10 -->
<g id="node10" class="node"><title>Node10</title>
<g id="a_node10"><a xlink:href="_converter_r8brain_8cpp.html" target="_top" xlink:title="src/cinder/audio/dsp\l/ConverterR8brain.cpp">
<polygon fill="white" stroke="black" points="1255.7,-1 1255.7,-33 1372.3,-33 1372.3,-1 1255.7,-1"/>
<text text-anchor="start" x="1263.7" y="-19" font-family="Helvetica,sans-Serif" font-size="10.00">src/cinder/audio/dsp</text>
<text text-anchor="middle" x="1314" y="-7" font-family="Helvetica,sans-Serif" font-size="10.00">/ConverterR8brain.cpp</text>
</a>
</g>
</g>
<!-- Node1&#45;&gt;Node10 -->
<g id="edge9" class="edge"><title>Node1&#45;&gt;Node10</title>
<path fill="none" stroke="midnightblue" d="M1472.39,-67.8636C1437.89,-57.0017 1394.54,-43.3557 1361.92,-33.0861"/>
<polygon fill="midnightblue" stroke="midnightblue" points="1471.74,-71.3285 1482.33,-70.9929 1473.84,-64.6515 1471.74,-71.3285"/>
</g>
<!-- Node11 -->
<g id="node11" class="node"><title>Node11</title>
<g id="a_node11"><a xlink:href="_file_ogg_vorbis_8cpp.html" target="_top" xlink:title="src/cinder/audio/FileOgg\lVorbis.cpp">
<polygon fill="white" stroke="black" points="1389.81,-1 1389.81,-33 1514.19,-33 1514.19,-1 1389.81,-1"/>
<text text-anchor="start" x="1397.81" y="-19" font-family="Helvetica,sans-Serif" font-size="10.00">src/cinder/audio/FileOgg</text>
<text text-anchor="middle" x="1452" y="-7" font-family="Helvetica,sans-Serif" font-size="10.00">Vorbis.cpp</text>
</a>
</g>
</g>
<!-- Node1&#45;&gt;Node11 -->
<g id="edge10" class="edge"><title>Node1&#45;&gt;Node11</title>
<path fill="none" stroke="midnightblue" d="M1504.99,-64.195C1493.33,-54.0335 1479.76,-42.1968 1469.26,-33.0492"/>
<polygon fill="midnightblue" stroke="midnightblue" points="1502.85,-66.9754 1512.69,-70.9086 1507.45,-61.699 1502.85,-66.9754"/>
</g>
<!-- Node12 -->
<g id="node12" class="node"><title>Node12</title>
<g id="a_node12"><a xlink:href="_gen_node_8cpp.html" target="_top" xlink:title="src/cinder/audio/GenNode.cpp">
<polygon fill="white" stroke="black" points="1532.46,-7 1532.46,-27 1683.54,-27 1683.54,-7 1532.46,-7"/>
<text text-anchor="middle" x="1608" y="-13" font-family="Helvetica,sans-Serif" font-size="10.00">src/cinder/audio/GenNode.cpp</text>
</a>
</g>
</g>
<!-- Node1&#45;&gt;Node12 -->
<g id="edge11" class="edge"><title>Node1&#45;&gt;Node12</title>
<path fill="none" stroke="midnightblue" d="M1554.97,-64.2276C1569.43,-51.6279 1586.84,-36.4436 1597.67,-27.0035"/>
<polygon fill="midnightblue" stroke="midnightblue" points="1552.55,-61.699 1547.31,-70.9086 1557.15,-66.9754 1552.55,-61.699"/>
</g>
<!-- Node13 -->
<g id="node13" class="node"><title>Node13</title>
<g id="a_node13"><a xlink:href="_monitor_node_8cpp.html" target="_top" xlink:title="src/cinder/audio/Monitor\lNode.cpp">
<polygon fill="white" stroke="black" points="1701.64,-1 1701.64,-33 1824.36,-33 1824.36,-1 1701.64,-1"/>
<text text-anchor="start" x="1709.64" y="-19" font-family="Helvetica,sans-Serif" font-size="10.00">src/cinder/audio/Monitor</text>
<text text-anchor="middle" x="1763" y="-7" font-family="Helvetica,sans-Serif" font-size="10.00">Node.cpp</text>
</a>
</g>
</g>
<!-- Node1&#45;&gt;Node13 -->
<g id="edge12" class="edge"><title>Node1&#45;&gt;Node13</title>
<path fill="none" stroke="midnightblue" d="M1591.19,-68.1427C1628.56,-57.2363 1675.82,-43.4439 1711.31,-33.0861"/>
<polygon fill="midnightblue" stroke="midnightblue" points="1590.04,-64.8314 1581.42,-70.9929 1592,-71.5511 1590.04,-64.8314"/>
</g>
<!-- Node14 -->
<g id="node14" class="node"><title>Node14</title>
<g id="a_node14"><a xlink:href="_node_8cpp.html" target="_top" xlink:title="src/cinder/audio/Node.cpp">
<polygon fill="white" stroke="black" points="1841.91,-7 1841.91,-27 1974.09,-27 1974.09,-7 1841.91,-7"/>
<text text-anchor="middle" x="1908" y="-13" font-family="Helvetica,sans-Serif" font-size="10.00">src/cinder/audio/Node.cpp</text>
</a>
</g>
</g>
<!-- Node1&#45;&gt;Node14 -->
<g id="edge13" class="edge"><title>Node1&#45;&gt;Node14</title>
<path fill="none" stroke="midnightblue" d="M1592.58,-76.0143C1653.94,-66.0454 1750.09,-49.9519 1833,-34 1844.11,-31.8619 1856.11,-29.3798 1867.19,-27.0177"/>
<polygon fill="midnightblue" stroke="midnightblue" points="1591.98,-72.5666 1582.67,-77.6212 1593.1,-79.4765 1591.98,-72.5666"/>
</g>
<!-- Node15 -->
<g id="node15" class="node"><title>Node15</title>
<g id="a_node15"><a xlink:href="_output_node_8cpp.html" target="_top" xlink:title="src/cinder/audio/OutputNode.cpp">
<polygon fill="white" stroke="black" points="1991.9,-7 1991.9,-27 2154.1,-27 2154.1,-7 1991.9,-7"/>
<text text-anchor="middle" x="2073" y="-13" font-family="Helvetica,sans-Serif" font-size="10.00">src/cinder/audio/OutputNode.cpp</text>
</a>
</g>
</g>
<!-- Node1&#45;&gt;Node15 -->
<g id="edge14" class="edge"><title>Node1&#45;&gt;Node15</title>
<path fill="none" stroke="midnightblue" d="M1592.84,-80.023C1680.45,-71.4085 1844.17,-54.2884 1983,-34 1996.82,-31.9805 2011.77,-29.4588 2025.45,-27.0187"/>
<polygon fill="midnightblue" stroke="midnightblue" points="1592.41,-76.5483 1582.8,-81.0059 1593.09,-83.515 1592.41,-76.5483"/>
</g>
<!-- Node16 -->
<g id="node16" class="node"><title>Node16</title>
<g id="a_node16"><a xlink:href="_param_8cpp.html" target="_top" xlink:title="src/cinder/audio/Param.cpp">
<polygon fill="white" stroke="black" points="2172.14,-7 2172.14,-27 2309.86,-27 2309.86,-7 2172.14,-7"/>
<text text-anchor="middle" x="2241" y="-13" font-family="Helvetica,sans-Serif" font-size="10.00">src/cinder/audio/Param.cpp</text>
</a>
</g>
</g>
<!-- Node1&#45;&gt;Node16 -->
<g id="edge15" class="edge"><title>Node1&#45;&gt;Node16</title>
<path fill="none" stroke="midnightblue" d="M1593.05,-83.3371C1707.21,-77.9573 1955.54,-63.6899 2163,-34 2175.59,-32.1983 2189.2,-29.6252 2201.48,-27.0678"/>
<polygon fill="midnightblue" stroke="midnightblue" points="1592.59,-79.8549 1582.76,-83.8151 1592.91,-86.8473 1592.59,-79.8549"/>
</g>
<!-- Node17 -->
<g id="node17" class="node"><title>Node17</title>
<g id="a_node17"><a xlink:href="_sample_player_node_8cpp.html" target="_top" xlink:title="src/cinder/audio/SamplePlayer\lNode.cpp">
<polygon fill="white" stroke="black" points="2328.19,-1 2328.19,-33 2479.81,-33 2479.81,-1 2328.19,-1"/>
<text text-anchor="start" x="2336.19" y="-19" font-family="Helvetica,sans-Serif" font-size="10.00">src/cinder/audio/SamplePlayer</text>
<text text-anchor="middle" x="2404" y="-7" font-family="Helvetica,sans-Serif" font-size="10.00">Node.cpp</text>
</a>
</g>
</g>
<!-- Node1&#45;&gt;Node17 -->
<g id="edge16" class="edge"><title>Node1&#45;&gt;Node17</title>
<path fill="none" stroke="midnightblue" d="M1592.84,-84.3714C1726.67,-80.3507 2049.52,-67.7133 2318,-34 2321.32,-33.5837 2324.7,-33.1208 2328.11,-32.6224"/>
<polygon fill="midnightblue" stroke="midnightblue" points="1592.66,-80.875 1582.77,-84.6683 1592.87,-87.872 1592.66,-80.875"/>
</g>
<!-- Node18 -->
<g id="node18" class="node"><title>Node18</title>
<g id="a_node18"><a xlink:href="_sample_recorder_node_8cpp.html" target="_top" xlink:title="src/cinder/audio/SampleRecorder\lNode.cpp">
<polygon fill="white" stroke="black" points="2497.8,-1 2497.8,-33 2662.2,-33 2662.2,-1 2497.8,-1"/>
<text text-anchor="start" x="2505.8" y="-19" font-family="Helvetica,sans-Serif" font-size="10.00">src/cinder/audio/SampleRecorder</text>
<text text-anchor="middle" x="2580" y="-7" font-family="Helvetica,sans-Serif" font-size="10.00">Node.cpp</text>
</a>
</g>
</g>
<!-- Node1&#45;&gt;Node18 -->
<g id="edge17" class="edge"><title>Node1&#45;&gt;Node18</title>
<path fill="none" stroke="midnightblue" d="M1592.79,-85.1513C1746.17,-82.522 2151.9,-72.2128 2488,-34 2491.06,-33.652 2494.17,-33.2676 2497.31,-32.854"/>
<polygon fill="midnightblue" stroke="midnightblue" points="1592.57,-81.6545 1582.62,-85.3206 1592.68,-88.6535 1592.57,-81.6545"/>
</g>
<!-- Node19 -->
<g id="node19" class="node"><title>Node19</title>
<g id="a_node19"><a xlink:href="_source_8cpp.html" target="_top" xlink:title="src/cinder/audio/Source.cpp">
<polygon fill="white" stroke="black" points="2680.02,-7 2680.02,-27 2819.98,-27 2819.98,-7 2680.02,-7"/>
<text text-anchor="middle" x="2750" y="-13" font-family="Helvetica,sans-Serif" font-size="10.00">src/cinder/audio/Source.cpp</text>
</a>
</g>
</g>
<!-- Node1&#45;&gt;Node19 -->
<g id="edge18" class="edge"><title>Node1&#45;&gt;Node19</title>
<path fill="none" stroke="midnightblue" d="M1592.73,-86.5273C1765.42,-87.2498 2262.13,-84.4162 2671,-34 2684.33,-32.356 2698.78,-29.695 2711.62,-27.0109"/>
<polygon fill="midnightblue" stroke="midnightblue" points="1592.57,-83.0266 1582.56,-86.479 1592.54,-90.0266 1592.57,-83.0266"/>
</g>
<!-- Node20 -->
<g id="node20" class="node"><title>Node20</title>
<g id="a_node20"><a xlink:href="_voice_8cpp.html" target="_top" xlink:title="src/cinder/audio/Voice.cpp">
<polygon fill="white" stroke="black" points="2837.63,-7 2837.63,-27 2970.37,-27 2970.37,-7 2837.63,-7"/>
<text text-anchor="middle" x="2904" y="-13" font-family="Helvetica,sans-Serif" font-size="10.00">src/cinder/audio/Voice.cpp</text>
</a>
</g>
</g>
<!-- Node1&#45;&gt;Node20 -->
<g id="edge19" class="edge"><title>Node1&#45;&gt;Node20</title>
<path fill="none" stroke="midnightblue" d="M1592.96,-84.8754C1818.39,-80.6311 2584.7,-64.2676 2828,-34 2840.85,-32.402 2854.74,-29.7525 2867.1,-27.0648"/>
<polygon fill="midnightblue" stroke="midnightblue" points="1592.58,-81.382 1582.64,-85.0684 1592.71,-88.3808 1592.58,-81.382"/>
</g>
<!-- Node21 -->
<g id="node21" class="node"><title>Node21</title>
<g id="a_node21"><a xlink:href="_wave_table_8cpp.html" target="_top" xlink:title="src/cinder/audio/WaveTable.cpp">
<polygon fill="white" stroke="black" points="2988.31,-7 2988.31,-27 3145.69,-27 3145.69,-7 2988.31,-7"/>
<text text-anchor="middle" x="3067" y="-13" font-family="Helvetica,sans-Serif" font-size="10.00">src/cinder/audio/WaveTable.cpp</text>
</a>
</g>
</g>
<!-- Node1&#45;&gt;Node21 -->
<g id="edge20" class="edge"><title>Node1&#45;&gt;Node21</title>
<path fill="none" stroke="midnightblue" d="M1592.49,-84.9566C1833.68,-80.7437 2704.06,-63.7708 2979,-34 2993.82,-32.3952 3009.9,-29.744 3024.21,-27.0569"/>
<polygon fill="midnightblue" stroke="midnightblue" points="1592.43,-81.4571 1582.5,-85.1302 1592.55,-88.456 1592.43,-81.4571"/>
</g>
</g>
</svg>
