<?xml version="1.0" encoding="UTF-8" standalone="no"?>
<!DOCTYPE svg PUBLIC "-//W3C//DTD SVG 1.1//EN"
 "http://www.w3.org/Graphics/SVG/1.1/DTD/svg11.dtd">
<!-- Generated by graphviz version 2.30.1 (20140712.1814)
 -->
<!-- Title: include/cinder/audio/DelayNode.h Pages: 1 -->
<svg width="855pt" height="332pt"
 viewBox="0.00 0.00 855.00 332.00" xmlns="http://www.w3.org/2000/svg" xmlns:xlink="http://www.w3.org/1999/xlink">
<g id="graph0" class="graph" transform="scale(1 1) rotate(0) translate(4 328)">
<title>include/cinder/audio/DelayNode.h</title>
<polygon fill="white" stroke="white" points="-4,5 -4,-328 852,-328 852,5 -4,5"/>
<!-- Node1 -->
<g id="node1" class="node"><title>Node1</title>
<polygon fill="#bfbfbf" stroke="black" points="255.525,-291 255.525,-323 360.475,-323 360.475,-291 255.525,-291"/>
<text text-anchor="start" x="263.525" y="-309" font-family="Helvetica,sans-Serif" font-size="10.00">include/cinder/audio</text>
<text text-anchor="middle" x="308" y="-297" font-family="Helvetica,sans-Serif" font-size="10.00">/DelayNode.h</text>
</g>
<!-- Node2 -->
<g id="node2" class="node"><title>Node2</title>
<g id="a_node2"><a xlink:href="_node_8h.html" target="_top" xlink:title="cinder/audio/Node.h">
<polygon fill="white" stroke="black" points="386.247,-233 386.247,-253 491.753,-253 491.753,-233 386.247,-233"/>
<text text-anchor="middle" x="439" y="-239" font-family="Helvetica,sans-Serif" font-size="10.00">cinder/audio/Node.h</text>
</a>
</g>
</g>
<!-- Node1&#45;&gt;Node2 -->
<g id="edge1" class="edge"><title>Node1&#45;&gt;Node2</title>
<path fill="none" stroke="midnightblue" d="M339.711,-290.992C361.283,-280.782 389.589,-267.385 410.456,-257.509"/>
<polygon fill="midnightblue" stroke="midnightblue" points="412.213,-260.55 419.754,-253.109 409.218,-254.223 412.213,-260.55"/>
</g>
<!-- Node22 -->
<g id="node22" class="node"><title>Node22</title>
<g id="a_node22"><a xlink:href="_param_8h.html" target="_top" xlink:title="cinder/audio/Param.h">
<polygon fill="white" stroke="black" points="121.473,-233 121.473,-253 232.527,-253 232.527,-233 121.473,-233"/>
<text text-anchor="middle" x="177" y="-239" font-family="Helvetica,sans-Serif" font-size="10.00">cinder/audio/Param.h</text>
</a>
</g>
</g>
<!-- Node1&#45;&gt;Node22 -->
<g id="edge24" class="edge"><title>Node1&#45;&gt;Node22</title>
<path fill="none" stroke="midnightblue" d="M276.289,-290.992C254.717,-280.782 226.411,-267.385 205.544,-257.509"/>
<polygon fill="midnightblue" stroke="midnightblue" points="206.782,-254.223 196.246,-253.109 203.787,-260.55 206.782,-254.223"/>
</g>
<!-- Node3 -->
<g id="node3" class="node"><title>Node3</title>
<g id="a_node3"><a xlink:href="audio_2_buffer_8h.html" target="_top" xlink:title="cinder/audio/Buffer.h">
<polygon fill="white" stroke="black" points="123.221,-175 123.221,-195 230.779,-195 230.779,-175 123.221,-175"/>
<text text-anchor="middle" x="177" y="-181" font-family="Helvetica,sans-Serif" font-size="10.00">cinder/audio/Buffer.h</text>
</a>
</g>
</g>
<!-- Node2&#45;&gt;Node3 -->
<g id="edge2" class="edge"><title>Node2&#45;&gt;Node3</title>
<path fill="none" stroke="midnightblue" d="M396.614,-232.94C350.953,-223.181 278.252,-207.642 229.126,-197.141"/>
<polygon fill="midnightblue" stroke="midnightblue" points="229.836,-193.714 219.325,-195.047 228.373,-200.56 229.836,-193.714"/>
</g>
<!-- Node11 -->
<g id="node11" class="node"><title>Node11</title>
<g id="a_node11"><a xlink:href="audio_2_exception_8h.html" target="_top" xlink:title="cinder/audio/Exception.h">
<polygon fill="white" stroke="black" points="666.242,-175 666.242,-195 791.758,-195 791.758,-175 666.242,-175"/>
<text text-anchor="middle" x="729" y="-181" font-family="Helvetica,sans-Serif" font-size="10.00">cinder/audio/Exception.h</text>
</a>
</g>
</g>
<!-- Node2&#45;&gt;Node11 -->
<g id="edge10" class="edge"><title>Node2&#45;&gt;Node11</title>
<path fill="none" stroke="midnightblue" d="M485.916,-232.94C536.773,-223.12 617.936,-207.447 672.322,-196.945"/>
<polygon fill="midnightblue" stroke="midnightblue" points="672.997,-200.379 682.152,-195.047 671.669,-193.506 672.997,-200.379"/>
</g>
<!-- Node18 -->
<g id="node18" class="node"><title>Node18</title>
<polygon fill="white" stroke="#bfbfbf" points="312.291,-175 312.291,-195 431.709,-195 431.709,-175 312.291,-175"/>
<text text-anchor="middle" x="372" y="-181" font-family="Helvetica,sans-Serif" font-size="10.00">boost/noncopyable.hpp</text>
</g>
<!-- Node2&#45;&gt;Node18 -->
<g id="edge19" class="edge"><title>Node2&#45;&gt;Node18</title>
<path fill="none" stroke="midnightblue" d="M427.936,-232.753C417.79,-224.272 402.56,-211.543 390.553,-201.507"/>
<polygon fill="midnightblue" stroke="midnightblue" points="392.775,-198.803 382.858,-195.075 388.286,-204.174 392.775,-198.803"/>
</g>
<!-- Node19 -->
<g id="node19" class="node"><title>Node19</title>
<polygon fill="white" stroke="#bfbfbf" points="449.357,-175 449.357,-195 562.643,-195 562.643,-175 449.357,-175"/>
<text text-anchor="middle" x="506" y="-181" font-family="Helvetica,sans-Serif" font-size="10.00">boost/logic/tribool.hpp</text>
</g>
<!-- Node2&#45;&gt;Node19 -->
<g id="edge20" class="edge"><title>Node2&#45;&gt;Node19</title>
<path fill="none" stroke="midnightblue" d="M450.064,-232.753C460.21,-224.272 475.44,-211.543 487.447,-201.507"/>
<polygon fill="midnightblue" stroke="midnightblue" points="489.714,-204.174 495.142,-195.075 485.225,-198.803 489.714,-204.174"/>
</g>
<!-- Node8 -->
<g id="node8" class="node"><title>Node8</title>
<polygon fill="white" stroke="#bfbfbf" points="440.943,-117 440.943,-137 493.057,-137 493.057,-117 440.943,-117"/>
<text text-anchor="middle" x="467" y="-123" font-family="Helvetica,sans-Serif" font-size="10.00">memory</text>
</g>
<!-- Node2&#45;&gt;Node8 -->
<g id="edge21" class="edge"><title>Node2&#45;&gt;Node8</title>
<path fill="none" stroke="midnightblue" d="M492.129,-235.546C539.143,-228.614 602.614,-215.84 618,-196 650.525,-154.059 557.624,-137.246 503.274,-131.131"/>
<polygon fill="midnightblue" stroke="midnightblue" points="503.602,-127.646 493.29,-130.078 502.868,-134.607 503.602,-127.646"/>
</g>
<!-- Node20 -->
<g id="node20" class="node"><title>Node20</title>
<polygon fill="white" stroke="#bfbfbf" points="249.273,-175 249.273,-195 294.727,-195 294.727,-175 249.273,-175"/>
<text text-anchor="middle" x="272" y="-181" font-family="Helvetica,sans-Serif" font-size="10.00">atomic</text>
</g>
<!-- Node2&#45;&gt;Node20 -->
<g id="edge22" class="edge"><title>Node2&#45;&gt;Node20</title>
<path fill="none" stroke="midnightblue" d="M411.797,-232.878C382.441,-223.034 335.707,-207.363 304.454,-196.883"/>
<polygon fill="midnightblue" stroke="midnightblue" points="305.486,-193.537 294.892,-193.676 303.261,-200.174 305.486,-193.537"/>
</g>
<!-- Node21 -->
<g id="node21" class="node"><title>Node21</title>
<polygon fill="white" stroke="#bfbfbf" points="580.33,-175 580.33,-195 609.67,-195 609.67,-175 580.33,-175"/>
<text text-anchor="middle" x="595" y="-181" font-family="Helvetica,sans-Serif" font-size="10.00">set</text>
</g>
<!-- Node2&#45;&gt;Node21 -->
<g id="edge23" class="edge"><title>Node2&#45;&gt;Node21</title>
<path fill="none" stroke="midnightblue" d="M466.475,-232.956C491.41,-224.632 529.367,-211.675 570.655,-195.985"/>
<polygon fill="midnightblue" stroke="midnightblue" points="571.988,-199.223 580.076,-192.379 569.486,-192.685 571.988,-199.223"/>
</g>
<!-- Node4 -->
<g id="node4" class="node"><title>Node4</title>
<g id="a_node4"><a xlink:href="_cinder_assert_8h.html" target="_top" xlink:title="cinder/CinderAssert.h">
<polygon fill="white" stroke="black" points="120.924,-117 120.924,-137 233.076,-137 233.076,-117 120.924,-117"/>
<text text-anchor="middle" x="177" y="-123" font-family="Helvetica,sans-Serif" font-size="10.00">cinder/CinderAssert.h</text>
</a>
</g>
</g>
<!-- Node3&#45;&gt;Node4 -->
<g id="edge3" class="edge"><title>Node3&#45;&gt;Node4</title>
<path fill="none" stroke="midnightblue" d="M177,-174.753C177,-167.25 177,-156.424 177,-147.078"/>
<polygon fill="midnightblue" stroke="midnightblue" points="180.5,-147.075 177,-137.075 173.5,-147.075 180.5,-147.075"/>
</g>
<!-- Node7 -->
<g id="node7" class="node"><title>Node7</title>
<polygon fill="white" stroke="#bfbfbf" points="409.384,-59 409.384,-79 452.616,-79 452.616,-59 409.384,-59"/>
<text text-anchor="middle" x="431" y="-65" font-family="Helvetica,sans-Serif" font-size="10.00">vector</text>
</g>
<!-- Node3&#45;&gt;Node7 -->
<g id="edge6" class="edge"><title>Node3&#45;&gt;Node7</title>
<path fill="none" stroke="midnightblue" d="M189.967,-174.759C213.261,-158.275 261.482,-124.709 280,-116 319.436,-97.4531 368.145,-84.1983 399.388,-76.8175"/>
<polygon fill="midnightblue" stroke="midnightblue" points="400.317,-80.1954 409.276,-74.5405 398.746,-73.374 400.317,-80.1954"/>
</g>
<!-- Node3&#45;&gt;Node8 -->
<g id="edge7" class="edge"><title>Node3&#45;&gt;Node8</title>
<path fill="none" stroke="midnightblue" d="M223.916,-174.94C281.776,-163.767 378.862,-145.02 431.115,-134.93"/>
<polygon fill="midnightblue" stroke="midnightblue" points="431.788,-138.364 440.943,-133.032 430.461,-131.491 431.788,-138.364"/>
</g>
<!-- Node9 -->
<g id="node9" class="node"><title>Node9</title>
<polygon fill="white" stroke="#bfbfbf" points="288.828,-117 288.828,-137 333.172,-137 333.172,-117 288.828,-117"/>
<text text-anchor="middle" x="311" y="-123" font-family="Helvetica,sans-Serif" font-size="10.00">cstdlib</text>
</g>
<!-- Node3&#45;&gt;Node9 -->
<g id="edge8" class="edge"><title>Node3&#45;&gt;Node9</title>
<path fill="none" stroke="midnightblue" d="M198.828,-174.878C220.826,-165.685 254.984,-151.409 279.83,-141.026"/>
<polygon fill="midnightblue" stroke="midnightblue" points="281.305,-144.203 289.182,-137.118 278.605,-137.745 281.305,-144.203"/>
</g>
<!-- Node10 -->
<g id="node10" class="node"><title>Node10</title>
<polygon fill="white" stroke="#bfbfbf" points="45.436,-117 45.436,-137 102.564,-137 102.564,-117 45.436,-117"/>
<text text-anchor="middle" x="74" y="-123" font-family="Helvetica,sans-Serif" font-size="10.00">algorithm</text>
</g>
<!-- Node3&#45;&gt;Node10 -->
<g id="edge9" class="edge"><title>Node3&#45;&gt;Node10</title>
<path fill="none" stroke="midnightblue" d="M159.992,-174.753C143.568,-165.823 118.483,-152.185 99.6374,-141.939"/>
<polygon fill="midnightblue" stroke="midnightblue" points="101.149,-138.777 90.6919,-137.075 97.8055,-144.927 101.149,-138.777"/>
</g>
<!-- Node5 -->
<g id="node5" class="node"><title>Node5</title>
<g id="a_node5"><a xlink:href="_current_function_8h.html" target="_top" xlink:title="cinder/CurrentFunction.h">
<polygon fill="white" stroke="black" points="61.9731,-59 61.9731,-79 188.027,-79 188.027,-59 61.9731,-59"/>
<text text-anchor="middle" x="125" y="-65" font-family="Helvetica,sans-Serif" font-size="10.00">cinder/CurrentFunction.h</text>
</a>
</g>
</g>
<!-- Node4&#45;&gt;Node5 -->
<g id="edge4" class="edge"><title>Node4&#45;&gt;Node5</title>
<path fill="none" stroke="midnightblue" d="M168.413,-116.753C160.841,-108.598 149.622,-96.5158 140.486,-86.6769"/>
<polygon fill="midnightblue" stroke="midnightblue" points="142.796,-84.0216 133.427,-79.0752 137.667,-88.7847 142.796,-84.0216"/>
</g>
<!-- Node6 -->
<g id="node6" class="node"><title>Node6</title>
<polygon fill="white" stroke="#bfbfbf" points="205.884,-59 205.884,-79 254.116,-79 254.116,-59 205.884,-59"/>
<text text-anchor="middle" x="230" y="-65" font-family="Helvetica,sans-Serif" font-size="10.00">cassert</text>
</g>
<!-- Node4&#45;&gt;Node6 -->
<g id="edge5" class="edge"><title>Node4&#45;&gt;Node6</title>
<path fill="none" stroke="midnightblue" d="M185.752,-116.753C193.547,-108.516 205.134,-96.2738 214.495,-86.3824"/>
<polygon fill="midnightblue" stroke="midnightblue" points="217.079,-88.744 221.411,-79.0752 211.995,-83.9323 217.079,-88.744"/>
</g>
<!-- Node12 -->
<g id="node12" class="node"><title>Node12</title>
<g id="a_node12"><a xlink:href="_exception_8h.html" target="_top" xlink:title="cinder/Exception.h">
<polygon fill="white" stroke="black" points="601.865,-117 601.865,-137 700.135,-137 700.135,-117 601.865,-117"/>
<text text-anchor="middle" x="651" y="-123" font-family="Helvetica,sans-Serif" font-size="10.00">cinder/Exception.h</text>
</a>
</g>
</g>
<!-- Node11&#45;&gt;Node12 -->
<g id="edge11" class="edge"><title>Node11&#45;&gt;Node12</title>
<path fill="none" stroke="midnightblue" d="M716.12,-174.753C704.08,-166.109 685.894,-153.052 671.797,-142.931"/>
<polygon fill="midnightblue" stroke="midnightblue" points="673.805,-140.064 663.64,-137.075 669.722,-145.75 673.805,-140.064"/>
</g>
<!-- Node17 -->
<g id="node17" class="node"><title>Node17</title>
<polygon fill="white" stroke="#bfbfbf" points="708.773,-59 708.773,-79 749.227,-79 749.227,-59 708.773,-59"/>
<text text-anchor="middle" x="729" y="-65" font-family="Helvetica,sans-Serif" font-size="10.00">string</text>
</g>
<!-- Node11&#45;&gt;Node17 -->
<g id="edge18" class="edge"><title>Node11&#45;&gt;Node17</title>
<path fill="none" stroke="midnightblue" d="M729,-174.671C729,-156.041 729,-113.898 729,-89.1428"/>
<polygon fill="midnightblue" stroke="midnightblue" points="732.5,-89.1394 729,-79.1394 725.5,-89.1394 732.5,-89.1394"/>
</g>
<!-- Node13 -->
<g id="node13" class="node"><title>Node13</title>
<g id="a_node13"><a xlink:href="_cinder_8h.html" target="_top" xlink:title="cinder/Cinder.h">
<polygon fill="white" stroke="black" points="607.367,-59 607.367,-79 690.633,-79 690.633,-59 607.367,-59"/>
<text text-anchor="middle" x="649" y="-65" font-family="Helvetica,sans-Serif" font-size="10.00">cinder/Cinder.h</text>
</a>
</g>
</g>
<!-- Node12&#45;&gt;Node13 -->
<g id="edge12" class="edge"><title>Node12&#45;&gt;Node13</title>
<path fill="none" stroke="midnightblue" d="M650.67,-116.753C650.402,-109.25 650.015,-98.4238 649.681,-89.0781"/>
<polygon fill="midnightblue" stroke="midnightblue" points="653.179,-88.9439 649.324,-79.0752 646.183,-89.1938 653.179,-88.9439"/>
</g>
<!-- Node12&#45;&gt;Node7 -->
<g id="edge16" class="edge"><title>Node12&#45;&gt;Node7</title>
<path fill="none" stroke="midnightblue" d="M615.164,-116.878C572.825,-106.101 503.049,-88.3396 462.633,-78.052"/>
<polygon fill="midnightblue" stroke="midnightblue" points="463.338,-74.6199 452.783,-75.5448 461.611,-81.4036 463.338,-74.6199"/>
</g>
<!-- Node12&#45;&gt;Node17 -->
<g id="edge17" class="edge"><title>Node12&#45;&gt;Node17</title>
<path fill="none" stroke="midnightblue" d="M663.88,-116.753C675.92,-108.109 694.106,-95.0518 708.203,-84.9314"/>
<polygon fill="midnightblue" stroke="midnightblue" points="710.278,-87.7504 716.36,-79.0752 706.195,-82.0642 710.278,-87.7504"/>
</g>
<!-- Node14 -->
<g id="node14" class="node"><title>Node14</title>
<polygon fill="white" stroke="#bfbfbf" points="538.549,-1 538.549,-21 583.451,-21 583.451,-1 538.549,-1"/>
<text text-anchor="middle" x="561" y="-7" font-family="Helvetica,sans-Serif" font-size="10.00">cstdint</text>
</g>
<!-- Node13&#45;&gt;Node14 -->
<g id="edge13" class="edge"><title>Node13&#45;&gt;Node14</title>
<path fill="none" stroke="midnightblue" d="M634.469,-58.7527C620.757,-50.0272 599.979,-36.8051 584.015,-26.6458"/>
<polygon fill="midnightblue" stroke="midnightblue" points="585.577,-23.4912 575.261,-21.0752 581.819,-29.3968 585.577,-23.4912"/>
</g>
<!-- Node15 -->
<g id="node15" class="node"><title>Node15</title>
<polygon fill="white" stroke="#bfbfbf" points="601.53,-1 601.53,-21 696.47,-21 696.47,-1 601.53,-1"/>
<text text-anchor="middle" x="649" y="-7" font-family="Helvetica,sans-Serif" font-size="10.00">boost/version.hpp</text>
</g>
<!-- Node13&#45;&gt;Node15 -->
<g id="edge14" class="edge"><title>Node13&#45;&gt;Node15</title>
<path fill="none" stroke="midnightblue" d="M649,-58.7527C649,-51.2504 649,-40.4238 649,-31.0781"/>
<polygon fill="midnightblue" stroke="midnightblue" points="652.5,-31.0752 649,-21.0752 645.5,-31.0752 652.5,-31.0752"/>
</g>
<!-- Node16 -->
<g id="node16" class="node"><title>Node16</title>
<polygon fill="white" stroke="#bfbfbf" points="714.621,-1 714.621,-21 847.379,-21 847.379,-1 714.621,-1"/>
<text text-anchor="middle" x="781" y="-7" font-family="Helvetica,sans-Serif" font-size="10.00">boost/checked_delete.hpp</text>
</g>
<!-- Node13&#45;&gt;Node16 -->
<g id="edge15" class="edge"><title>Node13&#45;&gt;Node16</title>
<path fill="none" stroke="midnightblue" d="M670.502,-58.878C692.172,-49.6848 725.821,-35.4095 750.295,-25.0263"/>
<polygon fill="midnightblue" stroke="midnightblue" points="751.668,-28.2457 759.507,-21.1181 748.935,-21.8016 751.668,-28.2457"/>
</g>
<!-- Node22&#45;&gt;Node3 -->
<g id="edge25" class="edge"><title>Node22&#45;&gt;Node3</title>
<path fill="none" stroke="midnightblue" d="M177,-232.753C177,-225.25 177,-214.424 177,-205.078"/>
<polygon fill="midnightblue" stroke="midnightblue" points="180.5,-205.075 177,-195.075 173.5,-205.075 180.5,-205.075"/>
</g>
<!-- Node23 -->
<g id="node23" class="node"><title>Node23</title>
<polygon fill="white" stroke="#bfbfbf" points="76.5,-175 76.5,-195 105.5,-195 105.5,-175 76.5,-175"/>
<text text-anchor="middle" x="90.6108" y="-181" font-family="Helvetica,sans-Serif" font-size="10.00">list</text>
</g>
<!-- Node22&#45;&gt;Node23 -->
<g id="edge26" class="edge"><title>Node22&#45;&gt;Node23</title>
<path fill="none" stroke="midnightblue" d="M162.799,-232.753C149.399,-224.027 129.093,-210.805 113.492,-200.646"/>
<polygon fill="midnightblue" stroke="midnightblue" points="115.227,-197.599 104.937,-195.075 111.407,-203.465 115.227,-197.599"/>
</g>
<!-- Node22&#45;&gt;Node20 -->
<g id="edge27" class="edge"><title>Node22&#45;&gt;Node20</title>
<path fill="none" stroke="midnightblue" d="M192.687,-232.753C207.628,-223.946 230.34,-210.558 247.636,-200.362"/>
<polygon fill="midnightblue" stroke="midnightblue" points="249.767,-203.169 256.605,-195.075 246.213,-197.138 249.767,-203.169"/>
</g>
<!-- Node24 -->
<g id="node24" class="node"><title>Node24</title>
<polygon fill="white" stroke="#bfbfbf" points="-0.403809,-175 -0.403809,-195 58.4038,-195 58.4038,-175 -0.403809,-175"/>
<text text-anchor="middle" x="29" y="-181" font-family="Helvetica,sans-Serif" font-size="10.00">functional</text>
</g>
<!-- Node22&#45;&gt;Node24 -->
<g id="edge28" class="edge"><title>Node22&#45;&gt;Node24</title>
<path fill="none" stroke="midnightblue" d="M152.892,-232.878C128.38,-223.603 90.1991,-209.156 62.7005,-198.752"/>
<polygon fill="midnightblue" stroke="midnightblue" points="63.6893,-195.384 53.0978,-195.118 61.2121,-201.931 63.6893,-195.384"/>
</g>
</g>
</svg>
