<?xml version="1.0" encoding="UTF-8" standalone="no"?>
<!DOCTYPE svg PUBLIC "-//W3C//DTD SVG 1.1//EN"
 "http://www.w3.org/Graphics/SVG/1.1/DTD/svg11.dtd">
<!-- Generated by graphviz version 2.30.1 (20140712.1814)
 -->
<!-- Title: include/cinder/audio/cocoa/DeviceManagerAudioSession.h Pages: 1 -->
<svg width="311pt" height="112pt"
 viewBox="0.00 0.00 311.00 112.00" xmlns="http://www.w3.org/2000/svg" xmlns:xlink="http://www.w3.org/1999/xlink">
<g id="graph0" class="graph" transform="scale(1 1) rotate(0) translate(4 108)">
<title>include/cinder/audio/cocoa/DeviceManagerAudioSession.h</title>
<polygon fill="white" stroke="white" points="-4,5 -4,-108 308,-108 308,5 -4,5"/>
<!-- Node1 -->
<g id="node1" class="node"><title>Node1</title>
<polygon fill="#bfbfbf" stroke="black" points="44.1162,-71 44.1162,-103 231.884,-103 231.884,-71 44.1162,-71"/>
<text text-anchor="start" x="52.1162" y="-89" font-family="Helvetica,sans-Serif" font-size="10.00">include/cinder/audio</text>
<text text-anchor="middle" x="138" y="-77" font-family="Helvetica,sans-Serif" font-size="10.00">/cocoa/DeviceManagerAudioSession.h</text>
</g>
<!-- Node2 -->
<g id="node2" class="node"><title>Node2</title>
<g id="a_node2"><a xlink:href="_context_audio_unit_8cpp.html" target="_top" xlink:title="src/cinder/audio/cocoa\l/ContextAudioUnit.cpp">
<polygon fill="white" stroke="black" points="-0.0268555,-1 -0.0268555,-33 116.027,-33 116.027,-1 -0.0268555,-1"/>
<text text-anchor="start" x="7.97314" y="-19" font-family="Helvetica,sans-Serif" font-size="10.00">src/cinder/audio/cocoa</text>
<text text-anchor="middle" x="58" y="-7" font-family="Helvetica,sans-Serif" font-size="10.00">/ContextAudioUnit.cpp</text>
</a>
</g>
</g>
<!-- Node1&#45;&gt;Node2 -->
<g id="edge1" class="edge"><title>Node1&#45;&gt;Node2</title>
<path fill="none" stroke="midnightblue" d="M112.347,-64.195C100.392,-54.0335 86.4669,-42.1968 75.705,-33.0492"/>
<polygon fill="midnightblue" stroke="midnightblue" points="110.359,-67.0989 120.245,-70.9086 114.893,-61.7653 110.359,-67.0989"/>
</g>
<!-- Node3 -->
<g id="node3" class="node"><title>Node3</title>
<g id="a_node3"><a xlink:href="_device_manager_audio_session_8mm.html" target="_top" xlink:title="src/cinder/audio/cocoa\l/DeviceManagerAudioSession.mm">
<polygon fill="white" stroke="black" points="134.298,-1 134.298,-33 303.702,-33 303.702,-1 134.298,-1"/>
<text text-anchor="start" x="142.298" y="-19" font-family="Helvetica,sans-Serif" font-size="10.00">src/cinder/audio/cocoa</text>
<text text-anchor="middle" x="219" y="-7" font-family="Helvetica,sans-Serif" font-size="10.00">/DeviceManagerAudioSession.mm</text>
</a>
</g>
</g>
<!-- Node1&#45;&gt;Node3 -->
<g id="edge2" class="edge"><title>Node1&#45;&gt;Node3</title>
<path fill="none" stroke="midnightblue" d="M163.974,-64.195C176.078,-54.0335 190.177,-42.1968 201.074,-33.0492"/>
<polygon fill="midnightblue" stroke="midnightblue" points="161.385,-61.7982 155.977,-70.9086 165.886,-67.1595 161.385,-61.7982"/>
</g>
</g>
</svg>
