<?xml version="1.0" encoding="UTF-8" standalone="no"?>
<!DOCTYPE svg PUBLIC "-//W3C//DTD SVG 1.1//EN"
 "http://www.w3.org/Graphics/SVG/1.1/DTD/svg11.dtd">
<!-- Generated by graphviz version 2.30.1 (20140712.1814)
 -->
<!-- Title: include/cinder/audio/cocoa/DeviceManagerAudioSession.h Pages: 1 -->
<svg width="672pt" height="274pt"
 viewBox="0.00 0.00 672.00 274.00" xmlns="http://www.w3.org/2000/svg" xmlns:xlink="http://www.w3.org/1999/xlink">
<g id="graph0" class="graph" transform="scale(1 1) rotate(0) translate(4 270)">
<title>include/cinder/audio/cocoa/DeviceManagerAudioSession.h</title>
<polygon fill="white" stroke="white" points="-4,5 -4,-270 669,-270 669,5 -4,5"/>
<!-- Node1 -->
<g id="node1" class="node"><title>Node1</title>
<polygon fill="#bfbfbf" stroke="black" points="375.116,-233 375.116,-265 562.884,-265 562.884,-233 375.116,-233"/>
<text text-anchor="start" x="383.116" y="-251" font-family="Helvetica,sans-Serif" font-size="10.00">include/cinder/audio</text>
<text text-anchor="middle" x="469" y="-239" font-family="Helvetica,sans-Serif" font-size="10.00">/cocoa/DeviceManagerAudioSession.h</text>
</g>
<!-- Node2 -->
<g id="node2" class="node"><title>Node2</title>
<g id="a_node2"><a xlink:href="_device_8h.html" target="_top" xlink:title="cinder/audio/Device.h">
<polygon fill="white" stroke="black" points="412.917,-175 412.917,-195 525.083,-195 525.083,-175 412.917,-175"/>
<text text-anchor="middle" x="469" y="-181" font-family="Helvetica,sans-Serif" font-size="10.00">cinder/audio/Device.h</text>
</a>
</g>
</g>
<!-- Node1&#45;&gt;Node2 -->
<g id="edge1" class="edge"><title>Node1&#45;&gt;Node2</title>
<path fill="none" stroke="midnightblue" d="M469,-232.992C469,-224.726 469,-214.373 469,-205.489"/>
<polygon fill="midnightblue" stroke="midnightblue" points="472.5,-205.29 469,-195.29 465.5,-205.29 472.5,-205.29"/>
</g>
<!-- Node3 -->
<g id="node3" class="node"><title>Node3</title>
<g id="a_node3"><a xlink:href="_function_8h.html" target="_top" xlink:title="cinder/Function.h">
<polygon fill="white" stroke="black" points="268.646,-117 268.646,-137 361.354,-137 361.354,-117 268.646,-117"/>
<text text-anchor="middle" x="315" y="-123" font-family="Helvetica,sans-Serif" font-size="10.00">cinder/Function.h</text>
</a>
</g>
</g>
<!-- Node2&#45;&gt;Node3 -->
<g id="edge2" class="edge"><title>Node2&#45;&gt;Node3</title>
<path fill="none" stroke="midnightblue" d="M443.914,-174.878C418.221,-165.535 378.093,-150.943 349.435,-140.522"/>
<polygon fill="midnightblue" stroke="midnightblue" points="350.414,-137.154 339.82,-137.025 348.021,-143.732 350.414,-137.154"/>
</g>
<!-- Node13 -->
<g id="node13" class="node"><title>Node13</title>
<polygon fill="white" stroke="#bfbfbf" points="378.943,-117 378.943,-137 431.057,-137 431.057,-117 378.943,-117"/>
<text text-anchor="middle" x="405" y="-123" font-family="Helvetica,sans-Serif" font-size="10.00">memory</text>
</g>
<!-- Node2&#45;&gt;Node13 -->
<g id="edge12" class="edge"><title>Node2&#45;&gt;Node13</title>
<path fill="none" stroke="midnightblue" d="M458.432,-174.753C448.832,-166.353 434.471,-153.787 423.054,-143.798"/>
<polygon fill="midnightblue" stroke="midnightblue" points="425.202,-141.026 415.372,-137.075 420.593,-146.294 425.202,-141.026"/>
</g>
<!-- Node14 -->
<g id="node14" class="node"><title>Node14</title>
<polygon fill="white" stroke="#bfbfbf" points="448.773,-117 448.773,-137 489.227,-137 489.227,-117 448.773,-117"/>
<text text-anchor="middle" x="469" y="-123" font-family="Helvetica,sans-Serif" font-size="10.00">string</text>
</g>
<!-- Node2&#45;&gt;Node14 -->
<g id="edge13" class="edge"><title>Node2&#45;&gt;Node14</title>
<path fill="none" stroke="midnightblue" d="M469,-174.753C469,-167.25 469,-156.424 469,-147.078"/>
<polygon fill="midnightblue" stroke="midnightblue" points="472.5,-147.075 469,-137.075 465.5,-147.075 472.5,-147.075"/>
</g>
<!-- Node9 -->
<g id="node9" class="node"><title>Node9</title>
<polygon fill="white" stroke="#bfbfbf" points="495.384,-59 495.384,-79 538.616,-79 538.616,-59 495.384,-59"/>
<text text-anchor="middle" x="517" y="-65" font-family="Helvetica,sans-Serif" font-size="10.00">vector</text>
</g>
<!-- Node2&#45;&gt;Node9 -->
<g id="edge14" class="edge"><title>Node2&#45;&gt;Node9</title>
<path fill="none" stroke="midnightblue" d="M475.837,-174.932C482.323,-165.962 491.952,-151.635 498,-138 505.059,-122.085 510.134,-102.899 513.253,-88.9693"/>
<polygon fill="midnightblue" stroke="midnightblue" points="516.698,-89.5952 515.336,-79.0883 509.848,-88.1513 516.698,-89.5952"/>
</g>
<!-- Node15 -->
<g id="node15" class="node"><title>Node15</title>
<polygon fill="white" stroke="#bfbfbf" points="545.291,-117 545.291,-137 664.709,-137 664.709,-117 545.291,-117"/>
<text text-anchor="middle" x="605" y="-123" font-family="Helvetica,sans-Serif" font-size="10.00">boost/noncopyable.hpp</text>
</g>
<!-- Node2&#45;&gt;Node15 -->
<g id="edge15" class="edge"><title>Node2&#45;&gt;Node15</title>
<path fill="none" stroke="midnightblue" d="M491.153,-174.878C513.48,-165.685 548.148,-151.409 573.365,-141.026"/>
<polygon fill="midnightblue" stroke="midnightblue" points="574.942,-144.162 582.856,-137.118 572.277,-137.689 574.942,-144.162"/>
</g>
<!-- Node4 -->
<g id="node4" class="node"><title>Node4</title>
<g id="a_node4"><a xlink:href="_cinder_8h.html" target="_top" xlink:title="cinder/Cinder.h">
<polygon fill="white" stroke="black" points="68.3672,-59 68.3672,-79 151.633,-79 151.633,-59 68.3672,-59"/>
<text text-anchor="middle" x="110" y="-65" font-family="Helvetica,sans-Serif" font-size="10.00">cinder/Cinder.h</text>
</a>
</g>
</g>
<!-- Node3&#45;&gt;Node4 -->
<g id="edge3" class="edge"><title>Node3&#45;&gt;Node4</title>
<path fill="none" stroke="midnightblue" d="M281.607,-116.878C246.509,-107.29 191.176,-92.1748 152.873,-81.7116"/>
<polygon fill="midnightblue" stroke="midnightblue" points="153.608,-78.2842 143.039,-79.0253 151.763,-85.0368 153.608,-78.2842"/>
</g>
<!-- Node8 -->
<g id="node8" class="node"><title>Node8</title>
<polygon fill="white" stroke="#bfbfbf" points="169.436,-59 169.436,-79 226.564,-79 226.564,-59 169.436,-59"/>
<text text-anchor="middle" x="198" y="-65" font-family="Helvetica,sans-Serif" font-size="10.00">algorithm</text>
</g>
<!-- Node3&#45;&gt;Node8 -->
<g id="edge7" class="edge"><title>Node3&#45;&gt;Node8</title>
<path fill="none" stroke="midnightblue" d="M295.942,-116.878C276.989,-107.807 247.699,-93.7876 226.084,-83.4418"/>
<polygon fill="midnightblue" stroke="midnightblue" points="227.581,-80.2784 217.05,-79.1181 224.559,-86.5925 227.581,-80.2784"/>
</g>
<!-- Node3&#45;&gt;Node9 -->
<g id="edge8" class="edge"><title>Node3&#45;&gt;Node9</title>
<path fill="none" stroke="midnightblue" d="M350.513,-116.991C383.166,-108.588 433.132,-95.4261 485.55,-80.0302"/>
<polygon fill="midnightblue" stroke="midnightblue" points="486.764,-83.3209 495.362,-77.1301 484.78,-76.608 486.764,-83.3209"/>
</g>
<!-- Node10 -->
<g id="node10" class="node"><title>Node10</title>
<polygon fill="white" stroke="#bfbfbf" points="244.608,-59 244.608,-79 283.392,-79 283.392,-59 244.608,-59"/>
<text text-anchor="middle" x="264" y="-65" font-family="Helvetica,sans-Serif" font-size="10.00">utility</text>
</g>
<!-- Node3&#45;&gt;Node10 -->
<g id="edge9" class="edge"><title>Node3&#45;&gt;Node10</title>
<path fill="none" stroke="midnightblue" d="M306.578,-116.753C299.152,-108.598 288.148,-96.5158 279.188,-86.6769"/>
<polygon fill="midnightblue" stroke="midnightblue" points="281.586,-84.112 272.265,-79.0752 276.411,-88.8253 281.586,-84.112"/>
</g>
<!-- Node11 -->
<g id="node11" class="node"><title>Node11</title>
<polygon fill="white" stroke="#bfbfbf" points="301.303,-59 301.303,-79 400.697,-79 400.697,-59 301.303,-59"/>
<text text-anchor="middle" x="351" y="-65" font-family="Helvetica,sans-Serif" font-size="10.00">boost/signals2.hpp</text>
</g>
<!-- Node3&#45;&gt;Node11 -->
<g id="edge10" class="edge"><title>Node3&#45;&gt;Node11</title>
<path fill="none" stroke="midnightblue" d="M320.945,-116.753C326.03,-108.843 333.49,-97.2372 339.706,-87.5683"/>
<polygon fill="midnightblue" stroke="midnightblue" points="342.702,-89.3797 345.166,-79.0752 336.814,-85.5943 342.702,-89.3797"/>
</g>
<!-- Node12 -->
<g id="node12" class="node"><title>Node12</title>
<polygon fill="white" stroke="#bfbfbf" points="418.596,-59 418.596,-79 477.404,-79 477.404,-59 418.596,-59"/>
<text text-anchor="middle" x="448" y="-65" font-family="Helvetica,sans-Serif" font-size="10.00">functional</text>
</g>
<!-- Node3&#45;&gt;Node12 -->
<g id="edge11" class="edge"><title>Node3&#45;&gt;Node12</title>
<path fill="none" stroke="midnightblue" d="M336.665,-116.878C358.499,-107.685 392.403,-93.4095 417.063,-83.0263"/>
<polygon fill="midnightblue" stroke="midnightblue" points="418.486,-86.2245 426.345,-79.1181 415.77,-79.773 418.486,-86.2245"/>
</g>
<!-- Node5 -->
<g id="node5" class="node"><title>Node5</title>
<polygon fill="white" stroke="#bfbfbf" points="-0.450684,-1 -0.450684,-21 44.4507,-21 44.4507,-1 -0.450684,-1"/>
<text text-anchor="middle" x="22" y="-7" font-family="Helvetica,sans-Serif" font-size="10.00">cstdint</text>
</g>
<!-- Node4&#45;&gt;Node5 -->
<g id="edge4" class="edge"><title>Node4&#45;&gt;Node5</title>
<path fill="none" stroke="midnightblue" d="M95.4686,-58.7527C81.757,-50.0272 60.9794,-36.8051 45.0148,-26.6458"/>
<polygon fill="midnightblue" stroke="midnightblue" points="46.5767,-23.4912 36.261,-21.0752 42.8186,-29.3968 46.5767,-23.4912"/>
</g>
<!-- Node6 -->
<g id="node6" class="node"><title>Node6</title>
<polygon fill="white" stroke="#bfbfbf" points="62.5298,-1 62.5298,-21 157.47,-21 157.47,-1 62.5298,-1"/>
<text text-anchor="middle" x="110" y="-7" font-family="Helvetica,sans-Serif" font-size="10.00">boost/version.hpp</text>
</g>
<!-- Node4&#45;&gt;Node6 -->
<g id="edge5" class="edge"><title>Node4&#45;&gt;Node6</title>
<path fill="none" stroke="midnightblue" d="M110,-58.7527C110,-51.2504 110,-40.4238 110,-31.0781"/>
<polygon fill="midnightblue" stroke="midnightblue" points="113.5,-31.0752 110,-21.0752 106.5,-31.0752 113.5,-31.0752"/>
</g>
<!-- Node7 -->
<g id="node7" class="node"><title>Node7</title>
<polygon fill="white" stroke="#bfbfbf" points="175.621,-1 175.621,-21 308.379,-21 308.379,-1 175.621,-1"/>
<text text-anchor="middle" x="242" y="-7" font-family="Helvetica,sans-Serif" font-size="10.00">boost/checked_delete.hpp</text>
</g>
<!-- Node4&#45;&gt;Node7 -->
<g id="edge6" class="edge"><title>Node4&#45;&gt;Node7</title>
<path fill="none" stroke="midnightblue" d="M131.502,-58.878C153.172,-49.6848 186.821,-35.4095 211.295,-25.0263"/>
<polygon fill="midnightblue" stroke="midnightblue" points="212.668,-28.2457 220.507,-21.1181 209.935,-21.8016 212.668,-28.2457"/>
</g>
</g>
</svg>
