<?xml version="1.0" encoding="UTF-8" standalone="no"?>
<!DOCTYPE svg PUBLIC "-//W3C//DTD SVG 1.1//EN"
 "http://www.w3.org/Graphics/SVG/1.1/DTD/svg11.dtd">
<!-- Generated by graphviz version 2.30.1 (20140712.1814)
 -->
<!-- Title: include/cinder/audio/Device.h Pages: 1 -->
<!--zoomable 322 -->
<svg id="main" version="1.1" xmlns="http://www.w3.org/2000/svg" xmlns:xlink="http://www.w3.org/1999/xlink" xml:space="preserve" onload="init(evt)">
<style type="text/css"><![CDATA[
.edge:hover path { stroke: red; }
.edge:hover polygon { stroke: red; fill: red; }
]]></style>
<script type="text/javascript"><![CDATA[
var edges = document.getElementsByTagName('g');
if (edges && edges.length) {
  for (var i=0;i<edges.length;i++) {
    if (edges[i].id.substr(0,4)=='edge') {
      edges[i].setAttribute('class','edge');
    }
  }
}
]]></script>
        <defs>
                <circle id="rim" cx="0" cy="0" r="7"/>
                <circle id="rim2" cx="0" cy="0" r="3.5"/>
                <g id="zoomPlus">
                        <use xlink:href="#rim" fill="#404040">
                                <set attributeName="fill" to="#808080" begin="zoomplus.mouseover" end="zoomplus.mouseout"/>
                        </use>
                        <path d="M-4,0h8M0,-4v8" fill="none" stroke="white" stroke-width="1.5" pointer-events="none"/>
                </g>
                <g id="zoomMin">
                        <use xlink:href="#rim" fill="#404040">
                                <set attributeName="fill" to="#808080" begin="zoomminus.mouseover" end="zoomminus.mouseout"/>
                        </use>
                        <path d="M-4,0h8" fill="none" stroke="white" stroke-width="1.5" pointer-events="none"/>
                </g>
                <g id="dirArrow">
                        <path fill="none" stroke="white" stroke-width="1.5" d="M0,-3.0v7 M-2.5,-0.5L0,-3.0L2.5,-0.5"/>
                </g>
               <g id="resetDef">
                       <use xlink:href="#rim2" fill="#404040">
                               <set attributeName="fill" to="#808080" begin="reset.mouseover" end="reset.mouseout"/>
                       </use>
               </g>
        </defs>

<script type="text/javascript">
var viewWidth = 2283;
var viewHeight = 322;
var sectionId = 'dynsection-1';
</script>
<script xlink:href="svgpan.js"/>
<svg id="graph" class="graph">
<g id="viewport">
<title>include/cinder/audio/Device.h</title>
<polygon fill="white" stroke="white" points="-4,5 -4,-318 2280,-318 2280,5 -4,5"/>
<!-- Node1 -->
<g id="node1" class="node"><title>Node1</title>
<polygon fill="#bfbfbf" stroke="black" points="1809.52,-281 1809.52,-313 1914.48,-313 1914.48,-281 1809.52,-281"/>
<text text-anchor="start" x="1817.52" y="-299" font-family="Helvetica,sans-Serif" font-size="10.00">include/cinder/audio</text>
<text text-anchor="middle" x="1862" y="-287" font-family="Helvetica,sans-Serif" font-size="10.00">/Device.h</text>
</g>
<!-- Node2 -->
<g id="node2" class="node"><title>Node2</title>
<g id="a_node2"><a xlink:href="_device_manager_audio_session_8h.html" target="_top" xlink:title="include/cinder/audio\l/cocoa/DeviceManagerAudioSession.h">
<polygon fill="white" stroke="black" points="1890.12,-211 1890.12,-243 2077.88,-243 2077.88,-211 1890.12,-211"/>
<text text-anchor="start" x="1898.12" y="-229" font-family="Helvetica,sans-Serif" font-size="10.00">include/cinder/audio</text>
<text text-anchor="middle" x="1984" y="-217" font-family="Helvetica,sans-Serif" font-size="10.00">/cocoa/DeviceManagerAudioSession.h</text>
</a>
</g>
</g>
<!-- Node1&#45;&gt;Node2 -->
<g id="edge1" class="edge"><title>Node1&#45;&gt;Node2</title>
<path fill="none" stroke="midnightblue" d="M1898,-275.936C1916.89,-265.408 1939.64,-252.725 1957,-243.049"/>
<polygon fill="midnightblue" stroke="midnightblue" points="1896.11,-272.983 1889.08,-280.909 1899.51,-279.097 1896.11,-272.983"/>
</g>
<!-- Node5 -->
<g id="node5" class="node"><title>Node5</title>
<g id="a_node5"><a xlink:href="_device_manager_core_audio_8h.html" target="_top" xlink:title="include/cinder/audio\l/cocoa/DeviceManagerCoreAudio.h">
<polygon fill="white" stroke="black" points="2101.07,-211 2101.07,-243 2274.93,-243 2274.93,-211 2101.07,-211"/>
<text text-anchor="start" x="2109.07" y="-229" font-family="Helvetica,sans-Serif" font-size="10.00">include/cinder/audio</text>
<text text-anchor="middle" x="2188" y="-217" font-family="Helvetica,sans-Serif" font-size="10.00">/cocoa/DeviceManagerCoreAudio.h</text>
</a>
</g>
</g>
<!-- Node1&#45;&gt;Node5 -->
<g id="edge4" class="edge"><title>Node1&#45;&gt;Node5</title>
<path fill="none" stroke="midnightblue" d="M1924.65,-282.933C1979.3,-271.533 2058.58,-254.995 2115.87,-243.046"/>
<polygon fill="midnightblue" stroke="midnightblue" points="1923.81,-279.531 1914.74,-284.999 1925.24,-286.383 1923.81,-279.531"/>
</g>
<!-- Node7 -->
<g id="node7" class="node"><title>Node7</title>
<g id="a_node7"><a xlink:href="_input_node_8h.html" target="_top" xlink:title="include/cinder/audio\l/InputNode.h">
<polygon fill="white" stroke="black" points="479.525,-211 479.525,-243 584.475,-243 584.475,-211 479.525,-211"/>
<text text-anchor="start" x="487.525" y="-229" font-family="Helvetica,sans-Serif" font-size="10.00">include/cinder/audio</text>
<text text-anchor="middle" x="532" y="-217" font-family="Helvetica,sans-Serif" font-size="10.00">/InputNode.h</text>
</a>
</g>
</g>
<!-- Node1&#45;&gt;Node7 -->
<g id="edge6" class="edge"><title>Node1&#45;&gt;Node7</title>
<path fill="none" stroke="midnightblue" d="M1799.38,-292.798C1572.39,-281.193 795.073,-241.45 584.803,-230.7"/>
<polygon fill="midnightblue" stroke="midnightblue" points="1799.29,-296.298 1809.45,-293.313 1799.64,-289.307 1799.29,-296.298"/>
</g>
<!-- Node26 -->
<g id="node26" class="node"><title>Node26</title>
<g id="a_node26"><a xlink:href="_output_node_8h.html" target="_top" xlink:title="include/cinder/audio\l/OutputNode.h">
<polygon fill="white" stroke="black" points="1729.52,-211 1729.52,-243 1834.48,-243 1834.48,-211 1729.52,-211"/>
<text text-anchor="start" x="1737.52" y="-229" font-family="Helvetica,sans-Serif" font-size="10.00">include/cinder/audio</text>
<text text-anchor="middle" x="1782" y="-217" font-family="Helvetica,sans-Serif" font-size="10.00">/OutputNode.h</text>
</a>
</g>
</g>
<!-- Node1&#45;&gt;Node26 -->
<g id="edge32" class="edge"><title>Node1&#45;&gt;Node26</title>
<path fill="none" stroke="midnightblue" d="M1836.35,-274.195C1824.39,-264.034 1810.47,-252.197 1799.7,-243.049"/>
<polygon fill="midnightblue" stroke="midnightblue" points="1834.36,-277.099 1844.25,-280.909 1838.89,-271.765 1834.36,-277.099"/>
</g>
<!-- Node14 -->
<g id="node14" class="node"><title>Node14</title>
<g id="a_node14"><a xlink:href="_device_8cpp.html" target="_top" xlink:title="src/cinder/audio/Device.cpp">
<polygon fill="white" stroke="black" points="1921.58,-77 1921.58,-97 2060.42,-97 2060.42,-77 1921.58,-77"/>
<text text-anchor="middle" x="1991" y="-83" font-family="Helvetica,sans-Serif" font-size="10.00">src/cinder/audio/Device.cpp</text>
</a>
</g>
</g>
<!-- Node1&#45;&gt;Node14 -->
<g id="edge35" class="edge"><title>Node1&#45;&gt;Node14</title>
<path fill="none" stroke="midnightblue" d="M1858.12,-270.769C1854.44,-237.529 1853.02,-178.758 1881,-140 1897.2,-117.562 1925.62,-104.472 1949.52,-97.0375"/>
<polygon fill="midnightblue" stroke="midnightblue" points="1854.69,-271.516 1859.42,-280.997 1861.63,-270.636 1854.69,-271.516"/>
</g>
<!-- Node3 -->
<g id="node3" class="node"><title>Node3</title>
<g id="a_node3"><a xlink:href="_context_audio_unit_8cpp.html" target="_top" xlink:title="src/cinder/audio/cocoa\l/ContextAudioUnit.cpp">
<polygon fill="white" stroke="black" points="1813.97,-1 1813.97,-33 1930.03,-33 1930.03,-1 1813.97,-1"/>
<text text-anchor="start" x="1821.97" y="-19" font-family="Helvetica,sans-Serif" font-size="10.00">src/cinder/audio/cocoa</text>
<text text-anchor="middle" x="1872" y="-7" font-family="Helvetica,sans-Serif" font-size="10.00">/ContextAudioUnit.cpp</text>
</a>
</g>
</g>
<!-- Node2&#45;&gt;Node3 -->
<g id="edge2" class="edge"><title>Node2&#45;&gt;Node3</title>
<path fill="none" stroke="midnightblue" d="M2034.09,-205.98C2047.45,-198.089 2060.3,-187.589 2068,-174 2090.78,-133.78 2097.21,-106.62 2069,-70 2052.11,-48.072 1982.25,-33.5209 1930.49,-25.5222"/>
<polygon fill="midnightblue" stroke="midnightblue" points="2032.38,-202.926 2025.29,-210.794 2035.74,-209.068 2032.38,-202.926"/>
</g>
<!-- Node4 -->
<g id="node4" class="node"><title>Node4</title>
<g id="a_node4"><a xlink:href="_device_manager_audio_session_8mm.html" target="_top" xlink:title="src/cinder/audio/cocoa\l/DeviceManagerAudioSession.mm">
<polygon fill="white" stroke="black" points="1890.3,-141 1890.3,-173 2059.7,-173 2059.7,-141 1890.3,-141"/>
<text text-anchor="start" x="1898.3" y="-159" font-family="Helvetica,sans-Serif" font-size="10.00">src/cinder/audio/cocoa</text>
<text text-anchor="middle" x="1975" y="-147" font-family="Helvetica,sans-Serif" font-size="10.00">/DeviceManagerAudioSession.mm</text>
</a>
</g>
</g>
<!-- Node2&#45;&gt;Node4 -->
<g id="edge3" class="edge"><title>Node2&#45;&gt;Node4</title>
<path fill="none" stroke="midnightblue" d="M1980.68,-200.92C1979.44,-191.56 1978.07,-181.229 1976.99,-173.049"/>
<polygon fill="midnightblue" stroke="midnightblue" points="1977.22,-201.454 1982,-210.909 1984.16,-200.536 1977.22,-201.454"/>
</g>
<!-- Node6 -->
<g id="node6" class="node"><title>Node6</title>
<g id="a_node6"><a xlink:href="_device_manager_core_audio_8cpp.html" target="_top" xlink:title="src/cinder/audio/cocoa\l/DeviceManagerCoreAudio.cpp">
<polygon fill="white" stroke="black" points="2115.52,-141 2115.52,-173 2270.48,-173 2270.48,-141 2115.52,-141"/>
<text text-anchor="start" x="2123.52" y="-159" font-family="Helvetica,sans-Serif" font-size="10.00">src/cinder/audio/cocoa</text>
<text text-anchor="middle" x="2193" y="-147" font-family="Helvetica,sans-Serif" font-size="10.00">/DeviceManagerCoreAudio.cpp</text>
</a>
</g>
</g>
<!-- Node5&#45;&gt;Node6 -->
<g id="edge5" class="edge"><title>Node5&#45;&gt;Node6</title>
<path fill="none" stroke="midnightblue" d="M2189.84,-200.92C2190.53,-191.56 2191.29,-181.229 2191.89,-173.049"/>
<polygon fill="midnightblue" stroke="midnightblue" points="2186.35,-200.679 2189.11,-210.909 2193.33,-201.192 2186.35,-200.679"/>
</g>
<!-- Node8 -->
<g id="node8" class="node"><title>Node8</title>
<g id="a_node8"><a xlink:href="_context_8h.html" target="_top" xlink:title="include/cinder/audio\l/Context.h">
<polygon fill="white" stroke="black" points="990.525,-141 990.525,-173 1095.48,-173 1095.48,-141 990.525,-141"/>
<text text-anchor="start" x="998.525" y="-159" font-family="Helvetica,sans-Serif" font-size="10.00">include/cinder/audio</text>
<text text-anchor="middle" x="1043" y="-147" font-family="Helvetica,sans-Serif" font-size="10.00">/Context.h</text>
</a>
</g>
</g>
<!-- Node7&#45;&gt;Node8 -->
<g id="edge7" class="edge"><title>Node7&#45;&gt;Node8</title>
<path fill="none" stroke="midnightblue" d="M594.887,-217.631C696.579,-204.099 895.282,-177.657 990.143,-165.034"/>
<polygon fill="midnightblue" stroke="midnightblue" points="594.212,-214.19 584.761,-218.979 595.136,-221.129 594.212,-214.19"/>
</g>
<!-- Node23 -->
<g id="node23" class="node"><title>Node23</title>
<g id="a_node23"><a xlink:href="_gen_node_8h.html" target="_top" xlink:title="include/cinder/audio\l/GenNode.h">
<polygon fill="white" stroke="black" points="357.525,-141 357.525,-173 462.475,-173 462.475,-141 357.525,-141"/>
<text text-anchor="start" x="365.525" y="-159" font-family="Helvetica,sans-Serif" font-size="10.00">include/cinder/audio</text>
<text text-anchor="middle" x="410" y="-147" font-family="Helvetica,sans-Serif" font-size="10.00">/GenNode.h</text>
</a>
</g>
</g>
<!-- Node7&#45;&gt;Node23 -->
<g id="edge23" class="edge"><title>Node7&#45;&gt;Node23</title>
<path fill="none" stroke="midnightblue" d="M496.003,-205.936C477.115,-195.408 454.359,-182.725 437,-173.049"/>
<polygon fill="midnightblue" stroke="midnightblue" points="494.485,-209.097 504.924,-210.909 497.893,-202.983 494.485,-209.097"/>
</g>
<!-- Node24 -->
<g id="node24" class="node"><title>Node24</title>
<g id="a_node24"><a xlink:href="_sample_player_node_8h.html" target="_top" xlink:title="include/cinder/audio\l/SamplePlayerNode.h">
<polygon fill="white" stroke="black" points="141.362,-141 141.362,-173 254.638,-173 254.638,-141 141.362,-141"/>
<text text-anchor="start" x="149.362" y="-159" font-family="Helvetica,sans-Serif" font-size="10.00">include/cinder/audio</text>
<text text-anchor="middle" x="198" y="-147" font-family="Helvetica,sans-Serif" font-size="10.00">/SamplePlayerNode.h</text>
</a>
</g>
</g>
<!-- Node7&#45;&gt;Node24 -->
<g id="edge25" class="edge"><title>Node7&#45;&gt;Node24</title>
<path fill="none" stroke="midnightblue" d="M469.449,-213.265C407.759,-200.705 314.3,-181.678 254.715,-169.547"/>
<polygon fill="midnightblue" stroke="midnightblue" points="468.948,-216.735 479.445,-215.3 470.344,-209.875 468.948,-216.735"/>
</g>
<!-- Node25 -->
<g id="node25" class="node"><title>Node25</title>
<g id="a_node25"><a xlink:href="_voice_8h.html" target="_top" xlink:title="include/cinder/audio\l/Voice.h">
<polygon fill="white" stroke="black" points="-0.475098,-71 -0.475098,-103 104.475,-103 104.475,-71 -0.475098,-71"/>
<text text-anchor="start" x="7.5249" y="-89" font-family="Helvetica,sans-Serif" font-size="10.00">include/cinder/audio</text>
<text text-anchor="middle" x="52" y="-77" font-family="Helvetica,sans-Serif" font-size="10.00">/Voice.h</text>
</a>
</g>
</g>
<!-- Node7&#45;&gt;Node25 -->
<g id="edge29" class="edge"><title>Node7&#45;&gt;Node25</title>
<path fill="none" stroke="midnightblue" d="M469.218,-223.014C371.794,-217.522 189.429,-203.563 132,-174 100.09,-157.574 74.244,-123.085 61.2062,-103.134"/>
<polygon fill="midnightblue" stroke="midnightblue" points="469.056,-226.51 479.233,-223.565 469.441,-219.521 469.056,-226.51"/>
</g>
<!-- Node13 -->
<g id="node13" class="node"><title>Node13</title>
<g id="a_node13"><a xlink:href="_context_8cpp.html" target="_top" xlink:title="src/cinder/audio/Context.cpp">
<polygon fill="white" stroke="black" points="460.633,-77 460.633,-97 603.367,-97 603.367,-77 460.633,-77"/>
<text text-anchor="middle" x="532" y="-83" font-family="Helvetica,sans-Serif" font-size="10.00">src/cinder/audio/Context.cpp</text>
</a>
</g>
</g>
<!-- Node7&#45;&gt;Node13 -->
<g id="edge30" class="edge"><title>Node7&#45;&gt;Node13</title>
<path fill="none" stroke="midnightblue" d="M532,-200.889C532,-169.754 532,-118.234 532,-97.2865"/>
<polygon fill="midnightblue" stroke="midnightblue" points="528.5,-200.969 532,-210.969 535.5,-200.969 528.5,-200.969"/>
</g>
<!-- Node16 -->
<g id="node16" class="node"><title>Node16</title>
<g id="a_node16"><a xlink:href="_input_node_8cpp.html" target="_top" xlink:title="src/cinder/audio/InputNode.cpp">
<polygon fill="white" stroke="black" points="621.791,-77 621.791,-97 776.209,-97 776.209,-77 621.791,-77"/>
<text text-anchor="middle" x="699" y="-83" font-family="Helvetica,sans-Serif" font-size="10.00">src/cinder/audio/InputNode.cpp</text>
</a>
</g>
</g>
<!-- Node7&#45;&gt;Node16 -->
<g id="edge31" class="edge"><title>Node7&#45;&gt;Node16</title>
<path fill="none" stroke="midnightblue" d="M558.063,-204.463C595.108,-173.851 661.417,-119.057 687.762,-97.2865"/>
<polygon fill="midnightblue" stroke="midnightblue" points="555.669,-201.901 550.19,-210.969 560.128,-207.297 555.669,-201.901"/>
</g>
<!-- Node9 -->
<g id="node9" class="node"><title>Node9</title>
<g id="a_node9"><a xlink:href="_context_audio_unit_8h.html" target="_top" xlink:title="include/cinder/audio\l/cocoa/ContextAudioUnit.h">
<polygon fill="white" stroke="black" points="1588.8,-71 1588.8,-103 1723.2,-103 1723.2,-71 1588.8,-71"/>
<text text-anchor="start" x="1596.8" y="-89" font-family="Helvetica,sans-Serif" font-size="10.00">include/cinder/audio</text>
<text text-anchor="middle" x="1656" y="-77" font-family="Helvetica,sans-Serif" font-size="10.00">/cocoa/ContextAudioUnit.h</text>
</a>
</g>
</g>
<!-- Node8&#45;&gt;Node9 -->
<g id="edge8" class="edge"><title>Node8&#45;&gt;Node9</title>
<path fill="none" stroke="midnightblue" d="M1106.01,-152.105C1206.46,-145.398 1408.94,-129.841 1579,-104 1582.1,-103.528 1585.27,-103.012 1588.47,-102.463"/>
<polygon fill="midnightblue" stroke="midnightblue" points="1105.48,-148.632 1095.73,-152.784 1105.94,-155.617 1105.48,-148.632"/>
</g>
<!-- Node10 -->
<g id="node10" class="node"><title>Node10</title>
<g id="a_node10"><a xlink:href="_monitor_node_8h.html" target="_top" xlink:title="include/cinder/audio\l/MonitorNode.h">
<polygon fill="white" stroke="black" points="1465.52,-71 1465.52,-103 1570.48,-103 1570.48,-71 1465.52,-71"/>
<text text-anchor="start" x="1473.52" y="-89" font-family="Helvetica,sans-Serif" font-size="10.00">include/cinder/audio</text>
<text text-anchor="middle" x="1518" y="-77" font-family="Helvetica,sans-Serif" font-size="10.00">/MonitorNode.h</text>
</a>
</g>
</g>
<!-- Node8&#45;&gt;Node10 -->
<g id="edge10" class="edge"><title>Node8&#45;&gt;Node10</title>
<path fill="none" stroke="midnightblue" d="M1105.55,-150.625C1186.79,-143.074 1332.79,-127.555 1456,-104 1459.06,-103.416 1462.19,-102.767 1465.34,-102.077"/>
<polygon fill="midnightblue" stroke="midnightblue" points="1105.13,-147.149 1095.49,-151.55 1105.77,-154.12 1105.13,-147.149"/>
</g>
<!-- Node12 -->
<g id="node12" class="node"><title>Node12</title>
<g id="a_node12"><a xlink:href="_channel_router_node_8cpp.html" target="_top" xlink:title="src/cinder/audio/Channel\lRouterNode.cpp">
<polygon fill="white" stroke="black" points="794.69,-71 794.69,-103 921.31,-103 921.31,-71 794.69,-71"/>
<text text-anchor="start" x="802.69" y="-89" font-family="Helvetica,sans-Serif" font-size="10.00">src/cinder/audio/Channel</text>
<text text-anchor="middle" x="858" y="-77" font-family="Helvetica,sans-Serif" font-size="10.00">RouterNode.cpp</text>
</a>
</g>
</g>
<!-- Node8&#45;&gt;Node12 -->
<g id="edge12" class="edge"><title>Node8&#45;&gt;Node12</title>
<path fill="none" stroke="midnightblue" d="M992.283,-137.358C962.926,-126.568 926.462,-113.164 898.943,-103.049"/>
<polygon fill="midnightblue" stroke="midnightblue" points="991.349,-140.744 1001.94,-140.909 993.764,-134.173 991.349,-140.744"/>
</g>
<!-- Node8&#45;&gt;Node13 -->
<g id="edge13" class="edge"><title>Node8&#45;&gt;Node13</title>
<path fill="none" stroke="midnightblue" d="M980.061,-149.876C896.098,-141.367 742.927,-124.659 613,-104 600.542,-102.019 587.078,-99.5096 574.771,-97.0688"/>
<polygon fill="midnightblue" stroke="midnightblue" points="979.898,-153.377 990.199,-150.898 980.6,-146.413 979.898,-153.377"/>
</g>
<!-- Node8&#45;&gt;Node14 -->
<g id="edge14" class="edge"><title>Node8&#45;&gt;Node14</title>
<path fill="none" stroke="midnightblue" d="M1106.01,-155.249C1249.61,-152.879 1611.91,-143.172 1912,-104 1925.04,-102.297 1939.16,-99.6879 1951.8,-97.0671"/>
<polygon fill="midnightblue" stroke="midnightblue" points="1105.59,-151.755 1095.65,-155.413 1105.7,-158.754 1105.59,-151.755"/>
</g>
<!-- Node15 -->
<g id="node15" class="node"><title>Node15</title>
<g id="a_node15"><a xlink:href="_gen_node_8cpp.html" target="_top" xlink:title="src/cinder/audio/GenNode.cpp">
<polygon fill="white" stroke="black" points="291.461,-77 291.461,-97 442.539,-97 442.539,-77 291.461,-77"/>
<text text-anchor="middle" x="367" y="-83" font-family="Helvetica,sans-Serif" font-size="10.00">src/cinder/audio/GenNode.cpp</text>
</a>
</g>
</g>
<!-- Node8&#45;&gt;Node15 -->
<g id="edge15" class="edge"><title>Node8&#45;&gt;Node15</title>
<path fill="none" stroke="midnightblue" d="M980.134,-152.505C871.898,-146.033 643.518,-130.386 452,-104 438.463,-102.135 423.81,-99.5742 410.544,-97.0479"/>
<polygon fill="midnightblue" stroke="midnightblue" points="980.039,-156.005 990.228,-153.103 980.452,-149.018 980.039,-156.005"/>
</g>
<!-- Node8&#45;&gt;Node16 -->
<g id="edge16" class="edge"><title>Node8&#45;&gt;Node16</title>
<path fill="none" stroke="midnightblue" d="M980.22,-143.59C912.181,-130.14 805.25,-109.003 744.738,-97.0412"/>
<polygon fill="midnightblue" stroke="midnightblue" points="979.89,-147.093 990.379,-145.598 981.248,-140.225 979.89,-147.093"/>
</g>
<!-- Node17 -->
<g id="node17" class="node"><title>Node17</title>
<g id="a_node17"><a xlink:href="_node_8cpp.html" target="_top" xlink:title="src/cinder/audio/Node.cpp">
<polygon fill="white" stroke="black" points="976.912,-77 976.912,-97 1109.09,-97 1109.09,-77 976.912,-77"/>
<text text-anchor="middle" x="1043" y="-83" font-family="Helvetica,sans-Serif" font-size="10.00">src/cinder/audio/Node.cpp</text>
</a>
</g>
</g>
<!-- Node8&#45;&gt;Node17 -->
<g id="edge17" class="edge"><title>Node8&#45;&gt;Node17</title>
<path fill="none" stroke="midnightblue" d="M1043,-130.668C1043,-118.865 1043,-105.57 1043,-97.0035"/>
<polygon fill="midnightblue" stroke="midnightblue" points="1039.5,-130.909 1043,-140.909 1046.5,-130.909 1039.5,-130.909"/>
</g>
<!-- Node18 -->
<g id="node18" class="node"><title>Node18</title>
<g id="a_node18"><a xlink:href="_output_node_8cpp.html" target="_top" xlink:title="src/cinder/audio/OutputNode.cpp">
<polygon fill="white" stroke="black" points="1740.9,-77 1740.9,-97 1903.1,-97 1903.1,-77 1740.9,-77"/>
<text text-anchor="middle" x="1822" y="-83" font-family="Helvetica,sans-Serif" font-size="10.00">src/cinder/audio/OutputNode.cpp</text>
</a>
</g>
</g>
<!-- Node8&#45;&gt;Node18 -->
<g id="edge18" class="edge"><title>Node8&#45;&gt;Node18</title>
<path fill="none" stroke="midnightblue" d="M1106.14,-153.363C1227.68,-147.815 1502.45,-132.992 1732,-104 1746.49,-102.171 1762.18,-99.5896 1776.35,-97.0335"/>
<polygon fill="midnightblue" stroke="midnightblue" points="1105.74,-149.877 1095.91,-153.824 1106.06,-156.87 1105.74,-149.877"/>
</g>
<!-- Node19 -->
<g id="node19" class="node"><title>Node19</title>
<g id="a_node19"><a xlink:href="_param_8cpp.html" target="_top" xlink:title="src/cinder/audio/Param.cpp">
<polygon fill="white" stroke="black" points="1127.14,-77 1127.14,-97 1264.86,-97 1264.86,-77 1127.14,-77"/>
<text text-anchor="middle" x="1196" y="-83" font-family="Helvetica,sans-Serif" font-size="10.00">src/cinder/audio/Param.cpp</text>
</a>
</g>
</g>
<!-- Node8&#45;&gt;Node19 -->
<g id="edge19" class="edge"><title>Node8&#45;&gt;Node19</title>
<path fill="none" stroke="midnightblue" d="M1086.17,-136.812C1115.53,-123.765 1153.03,-107.099 1175.74,-97.0035"/>
<polygon fill="midnightblue" stroke="midnightblue" points="1084.67,-133.649 1076.96,-140.909 1087.52,-140.045 1084.67,-133.649"/>
</g>
<!-- Node20 -->
<g id="node20" class="node"><title>Node20</title>
<g id="a_node20"><a xlink:href="_sample_player_node_8cpp.html" target="_top" xlink:title="src/cinder/audio/SamplePlayer\lNode.cpp">
<polygon fill="white" stroke="black" points="122.19,-71 122.19,-103 273.81,-103 273.81,-71 122.19,-71"/>
<text text-anchor="start" x="130.19" y="-89" font-family="Helvetica,sans-Serif" font-size="10.00">src/cinder/audio/SamplePlayer</text>
<text text-anchor="middle" x="198" y="-77" font-family="Helvetica,sans-Serif" font-size="10.00">Node.cpp</text>
</a>
</g>
</g>
<!-- Node8&#45;&gt;Node20 -->
<g id="edge20" class="edge"><title>Node8&#45;&gt;Node20</title>
<path fill="none" stroke="midnightblue" d="M979.983,-154.251C849.342,-150.064 539.67,-137.222 282,-104 279.35,-103.658 276.657,-103.286 273.941,-102.888"/>
<polygon fill="midnightblue" stroke="midnightblue" points="980.093,-157.756 990.198,-154.573 980.313,-150.76 980.093,-157.756"/>
</g>
<!-- Node21 -->
<g id="node21" class="node"><title>Node21</title>
<g id="a_node21"><a xlink:href="_sample_recorder_node_8cpp.html" target="_top" xlink:title="src/cinder/audio/SampleRecorder\lNode.cpp">
<polygon fill="white" stroke="black" points="1282.8,-71 1282.8,-103 1447.2,-103 1447.2,-71 1282.8,-71"/>
<text text-anchor="start" x="1290.8" y="-89" font-family="Helvetica,sans-Serif" font-size="10.00">src/cinder/audio/SampleRecorder</text>
<text text-anchor="middle" x="1365" y="-77" font-family="Helvetica,sans-Serif" font-size="10.00">Node.cpp</text>
</a>
</g>
</g>
<!-- Node8&#45;&gt;Node21 -->
<g id="edge21" class="edge"><title>Node8&#45;&gt;Node21</title>
<path fill="none" stroke="midnightblue" d="M1105.6,-142.78C1159.56,-131.384 1237.45,-114.936 1293.78,-103.04"/>
<polygon fill="midnightblue" stroke="midnightblue" points="1104.87,-139.357 1095.81,-144.847 1106.32,-146.205 1104.87,-139.357"/>
</g>
<!-- Node22 -->
<g id="node22" class="node"><title>Node22</title>
<g id="a_node22"><a xlink:href="_voice_8cpp.html" target="_top" xlink:title="src/cinder/audio/Voice.cpp">
<polygon fill="white" stroke="black" points="434.631,-7 434.631,-27 567.369,-27 567.369,-7 434.631,-7"/>
<text text-anchor="middle" x="501" y="-13" font-family="Helvetica,sans-Serif" font-size="10.00">src/cinder/audio/Voice.cpp</text>
</a>
</g>
</g>
<!-- Node8&#45;&gt;Node22 -->
<g id="edge22" class="edge"><title>Node8&#45;&gt;Node22</title>
<path fill="none" stroke="midnightblue" d="M1010.96,-135.067C997.431,-125.9 981.672,-114.789 968,-104 950.21,-89.9614 950.644,-79.3495 930,-70 866.869,-41.4081 671.426,-27.0019 567.525,-21.1976"/>
<polygon fill="midnightblue" stroke="midnightblue" points="1009.24,-138.123 1019.49,-140.788 1013.14,-132.31 1009.24,-138.123"/>
</g>
<!-- Node9&#45;&gt;Node3 -->
<g id="edge9" class="edge"><title>Node9&#45;&gt;Node3</title>
<path fill="none" stroke="midnightblue" d="M1713.61,-67.8636C1748.11,-57.0017 1791.46,-43.3557 1824.08,-33.0861"/>
<polygon fill="midnightblue" stroke="midnightblue" points="1712.16,-64.6515 1703.67,-70.9929 1714.26,-71.3285 1712.16,-64.6515"/>
</g>
<!-- Node11 -->
<g id="node11" class="node"><title>Node11</title>
<g id="a_node11"><a xlink:href="_monitor_node_8cpp.html" target="_top" xlink:title="src/cinder/audio/Monitor\lNode.cpp">
<polygon fill="white" stroke="black" points="1456.64,-1 1456.64,-33 1579.36,-33 1579.36,-1 1456.64,-1"/>
<text text-anchor="start" x="1464.64" y="-19" font-family="Helvetica,sans-Serif" font-size="10.00">src/cinder/audio/Monitor</text>
<text text-anchor="middle" x="1518" y="-7" font-family="Helvetica,sans-Serif" font-size="10.00">Node.cpp</text>
</a>
</g>
</g>
<!-- Node10&#45;&gt;Node11 -->
<g id="edge11" class="edge"><title>Node10&#45;&gt;Node11</title>
<path fill="none" stroke="midnightblue" d="M1518,-60.6174C1518,-51.3378 1518,-41.1413 1518,-33.0492"/>
<polygon fill="midnightblue" stroke="midnightblue" points="1514.5,-60.9086 1518,-70.9086 1521.5,-60.9086 1514.5,-60.9086"/>
</g>
<!-- Node23&#45;&gt;Node15 -->
<g id="edge24" class="edge"><title>Node23&#45;&gt;Node15</title>
<path fill="none" stroke="midnightblue" d="M394.89,-132.105C387.209,-119.958 378.331,-105.919 372.693,-97.0035"/>
<polygon fill="midnightblue" stroke="midnightblue" points="392.154,-134.327 400.457,-140.909 398.07,-130.586 392.154,-134.327"/>
</g>
<!-- Node24&#45;&gt;Node25 -->
<g id="edge26" class="edge"><title>Node24&#45;&gt;Node25</title>
<path fill="none" stroke="midnightblue" d="M156.456,-136.651C133.559,-125.986 105.557,-112.944 84.3116,-103.049"/>
<polygon fill="midnightblue" stroke="midnightblue" points="155.055,-139.859 165.598,-140.909 158.011,-133.514 155.055,-139.859"/>
</g>
<!-- Node24&#45;&gt;Node20 -->
<g id="edge28" class="edge"><title>Node24&#45;&gt;Node20</title>
<path fill="none" stroke="midnightblue" d="M198,-130.617C198,-121.338 198,-111.141 198,-103.049"/>
<polygon fill="midnightblue" stroke="midnightblue" points="194.5,-130.909 198,-140.909 201.5,-130.909 194.5,-130.909"/>
</g>
<!-- Node25&#45;&gt;Node22 -->
<g id="edge27" class="edge"><title>Node25&#45;&gt;Node22</title>
<path fill="none" stroke="midnightblue" d="M114.376,-69.8569C232.022,-47.0827 358.839,-32.2313 434.34,-24.4075"/>
<polygon fill="midnightblue" stroke="midnightblue" points="113.618,-66.4389 104.477,-71.7964 114.964,-73.3082 113.618,-66.4389"/>
</g>
<!-- Node26&#45;&gt;Node8 -->
<g id="edge33" class="edge"><title>Node26&#45;&gt;Node8</title>
<path fill="none" stroke="midnightblue" d="M1719.1,-220.212C1576.06,-207.05 1228.57,-175.075 1095.78,-162.857"/>
<polygon fill="midnightblue" stroke="midnightblue" points="1719.17,-223.733 1729.45,-221.164 1719.81,-216.762 1719.17,-223.733"/>
</g>
<!-- Node26&#45;&gt;Node18 -->
<g id="edge34" class="edge"><title>Node26&#45;&gt;Node18</title>
<path fill="none" stroke="midnightblue" d="M1789.16,-201.296C1798.17,-170.204 1813.21,-118.325 1819.31,-97.2865"/>
<polygon fill="midnightblue" stroke="midnightblue" points="1785.78,-200.39 1786.36,-210.969 1792.5,-202.339 1785.78,-200.39"/>
</g>
</g>
</svg>
        <g id="navigator" transform="translate(0 0)" fill="#404254">
                <rect fill="#f2f5e9" fill-opacity="0.5" stroke="#606060" stroke-width=".5" x="0" y="0" width="60" height="60"/>
                <use id="zoomplus" xlink:href="#zoomPlus" x="17" y="9" onmousedown="handleZoom(evt,'in')"/>
                <use id="zoomminus" xlink:href="#zoomMin" x="42" y="9" onmousedown="handleZoom(evt,'out')"/>
                <use id="reset" xlink:href="#resetDef" x="30" y="36" onmousedown="handleReset()"/>
                <g id="arrowUp" xlink:href="#dirArrow" transform="translate(30 24)" onmousedown="handlePan(0,-1)">
                  <use xlink:href="#rim" fill="#404040">
                        <set attributeName="fill" to="#808080" begin="arrowUp.mouseover" end="arrowUp.mouseout"/>
                  </use>
                  <path fill="none" stroke="white" stroke-width="1.5" d="M0,-3.0v7 M-2.5,-0.5L0,-3.0L2.5,-0.5"/>
                </g>
                <g id="arrowRight" xlink:href="#dirArrow" transform="rotate(90) translate(36 -43)" onmousedown="handlePan(1,0)">
                  <use xlink:href="#rim" fill="#404040">
                        <set attributeName="fill" to="#808080" begin="arrowRight.mouseover" end="arrowRight.mouseout"/>
                  </use>
                  <path fill="none" stroke="white" stroke-width="1.5" d="M0,-3.0v7 M-2.5,-0.5L0,-3.0L2.5,-0.5"/>
                </g>
                <g id="arrowDown" xlink:href="#dirArrow" transform="rotate(180) translate(-30 -48)" onmousedown="handlePan(0,1)">
                  <use xlink:href="#rim" fill="#404040">
                        <set attributeName="fill" to="#808080" begin="arrowDown.mouseover" end="arrowDown.mouseout"/>
                  </use>
                  <path fill="none" stroke="white" stroke-width="1.5" d="M0,-3.0v7 M-2.5,-0.5L0,-3.0L2.5,-0.5"/>
                </g>
                <g id="arrowLeft" xlink:href="#dirArrow" transform="rotate(270) translate(-36 17)" onmousedown="handlePan(-1,0)">
                  <use xlink:href="#rim" fill="#404040">
                        <set attributeName="fill" to="#808080" begin="arrowLeft.mouseover" end="arrowLeft.mouseout"/>
                  </use>
                  <path fill="none" stroke="white" stroke-width="1.5" d="M0,-3.0v7 M-2.5,-0.5L0,-3.0L2.5,-0.5"/>
                </g>
        </g>
        <svg viewBox="0 0 15 15" width="100%" height="30px" preserveAspectRatio="xMaxYMin meet">
         <g id="arrow_out" transform="scale(0.3 0.3)">
          <a xlink:href="_device_8h__dep__incl_org.svg" target="_base">
           <rect id="button" ry="5" rx="5" y="6" x="6" height="38" width="38"
                fill="#f2f5e9" fill-opacity="0.5" stroke="#606060" stroke-width="1.0"/>
           <path id="arrow"
             d="M 11.500037,31.436501 C 11.940474,20.09759 22.043105,11.32322 32.158766,21.979434 L 37.068811,17.246167 C 37.068811,17.246167 37.088388,32 37.088388,32 L 22.160133,31.978069 C 22.160133,31.978069 26.997745,27.140456 26.997745,27.140456 C 18.528582,18.264221 13.291696,25.230495 11.500037,31.436501 z"
             style="fill:#404040;"/>
          </a>
         </g>
        </svg>
</svg>
