<?xml version="1.0" encoding="UTF-8" standalone="no"?>
<!DOCTYPE svg PUBLIC "-//W3C//DTD SVG 1.1//EN"
 "http://www.w3.org/Graphics/SVG/1.1/DTD/svg11.dtd">
<!-- Generated by graphviz version 2.30.1 (20140712.1814)
 -->
<!-- Title: src/cinder/Display.cpp Pages: 1 -->
<svg width="749pt" height="378pt"
 viewBox="0.00 0.00 748.67 378.00" xmlns="http://www.w3.org/2000/svg" xmlns:xlink="http://www.w3.org/1999/xlink">
<g id="graph0" class="graph" transform="scale(1 1) rotate(0) translate(4 374)">
<title>src/cinder/Display.cpp</title>
<polygon fill="white" stroke="white" points="-4,5 -4,-374 745.671,-374 745.671,5 -4,5"/>
<!-- Node1 -->
<g id="node1" class="node"><title>Node1</title>
<polygon fill="#bfbfbf" stroke="black" points="547.134,-349 547.134,-369 660.209,-369 660.209,-349 547.134,-349"/>
<text text-anchor="middle" x="603.671" y="-355" font-family="Helvetica,sans-Serif" font-size="10.00">src/cinder/Display.cpp</text>
</g>
<!-- Node2 -->
<g id="node2" class="node"><title>Node2</title>
<g id="a_node2"><a xlink:href="_display_8h.html" target="_top" xlink:title="cinder/Display.h">
<polygon fill="white" stroke="black" points="483.469,-291 483.469,-311 569.874,-311 569.874,-291 483.469,-291"/>
<text text-anchor="middle" x="526.671" y="-297" font-family="Helvetica,sans-Serif" font-size="10.00">cinder/Display.h</text>
</a>
</g>
</g>
<!-- Node1&#45;&gt;Node2 -->
<g id="edge1" class="edge"><title>Node1&#45;&gt;Node2</title>
<path fill="none" stroke="midnightblue" d="M590.956,-348.753C579.183,-340.19 561.456,-327.298 547.597,-317.219"/>
<polygon fill="midnightblue" stroke="midnightblue" points="549.296,-314.126 539.15,-311.075 545.179,-319.788 549.296,-314.126"/>
</g>
<!-- Node23 -->
<g id="node23" class="node"><title>Node23</title>
<polygon fill="white" stroke="#bfbfbf" points="704.945,-233 704.945,-253 740.398,-253 740.398,-233 704.945,-233"/>
<text text-anchor="middle" x="722.671" y="-239" font-family="Helvetica,sans-Serif" font-size="10.00">map</text>
</g>
<!-- Node1&#45;&gt;Node23 -->
<g id="edge32" class="edge"><title>Node1&#45;&gt;Node23</title>
<path fill="none" stroke="midnightblue" d="M613.41,-348.671C633.645,-329.285 680.456,-284.442 705.739,-260.22"/>
<polygon fill="midnightblue" stroke="midnightblue" points="708.331,-262.585 713.131,-253.139 703.489,-257.53 708.331,-262.585"/>
</g>
<!-- Node3 -->
<g id="node3" class="node"><title>Node3</title>
<g id="a_node3"><a xlink:href="_cinder_8h.html" target="_top" xlink:title="cinder/Cinder.h">
<polygon fill="white" stroke="black" points="437.039,-59 437.039,-79 520.304,-79 520.304,-59 437.039,-59"/>
<text text-anchor="middle" x="478.671" y="-65" font-family="Helvetica,sans-Serif" font-size="10.00">cinder/Cinder.h</text>
</a>
</g>
</g>
<!-- Node2&#45;&gt;Node3 -->
<g id="edge2" class="edge"><title>Node2&#45;&gt;Node3</title>
<path fill="none" stroke="midnightblue" d="M550.843,-290.859C596.25,-272.208 687.101,-227.022 656.671,-174 628.326,-124.61 566.458,-96.4404 523.685,-82.1917"/>
<polygon fill="midnightblue" stroke="midnightblue" points="524.653,-78.8267 514.062,-79.1119 522.52,-85.4936 524.653,-78.8267"/>
</g>
<!-- Node7 -->
<g id="node7" class="node"><title>Node7</title>
<g id="a_node7"><a xlink:href="_area_8h.html" target="_top" xlink:title="cinder/Area.h">
<polygon fill="white" stroke="black" points="235.933,-233 235.933,-253 311.41,-253 311.41,-233 235.933,-233"/>
<text text-anchor="middle" x="273.671" y="-239" font-family="Helvetica,sans-Serif" font-size="10.00">cinder/Area.h</text>
</a>
</g>
</g>
<!-- Node2&#45;&gt;Node7 -->
<g id="edge6" class="edge"><title>Node2&#45;&gt;Node7</title>
<path fill="none" stroke="midnightblue" d="M485.741,-290.94C440.921,-281.02 369.12,-265.127 321.676,-254.626"/>
<polygon fill="midnightblue" stroke="midnightblue" points="322.167,-251.149 311.646,-252.406 320.654,-257.984 322.167,-251.149"/>
</g>
<!-- Node20 -->
<g id="node20" class="node"><title>Node20</title>
<g id="a_node20"><a xlink:href="_function_8h.html" target="_top" xlink:title="cinder/Function.h">
<polygon fill="white" stroke="black" points="438.317,-233 438.317,-253 531.026,-253 531.026,-233 438.317,-233"/>
<text text-anchor="middle" x="484.671" y="-239" font-family="Helvetica,sans-Serif" font-size="10.00">cinder/Function.h</text>
</a>
</g>
</g>
<!-- Node2&#45;&gt;Node20 -->
<g id="edge23" class="edge"><title>Node2&#45;&gt;Node20</title>
<path fill="none" stroke="midnightblue" d="M519.736,-290.753C513.742,-282.761 504.92,-270.998 497.624,-261.27"/>
<polygon fill="midnightblue" stroke="midnightblue" points="500.278,-258.975 491.478,-253.075 494.678,-263.175 500.278,-258.975"/>
</g>
<!-- Node2&#45;&gt;Node23 -->
<g id="edge30" class="edge"><title>Node2&#45;&gt;Node23</title>
<path fill="none" stroke="midnightblue" d="M560.049,-290.947C593.246,-281.871 645.592,-267.363 690.671,-254 692.101,-253.576 693.566,-253.137 695.043,-252.69"/>
<polygon fill="midnightblue" stroke="midnightblue" points="696.232,-255.986 704.76,-249.699 694.173,-249.296 696.232,-255.986"/>
</g>
<!-- Node19 -->
<g id="node19" class="node"><title>Node19</title>
<polygon fill="white" stroke="#bfbfbf" points="279.056,-175 279.056,-195 322.287,-195 322.287,-175 279.056,-175"/>
<text text-anchor="middle" x="300.671" y="-181" font-family="Helvetica,sans-Serif" font-size="10.00">vector</text>
</g>
<!-- Node2&#45;&gt;Node19 -->
<g id="edge31" class="edge"><title>Node2&#45;&gt;Node19</title>
<path fill="none" stroke="midnightblue" d="M506.861,-290.904C487.173,-281.794 456.173,-267.261 429.671,-254 393.376,-235.838 351.951,-213.756 326.054,-199.787"/>
<polygon fill="midnightblue" stroke="midnightblue" points="327.715,-196.706 317.254,-195.029 324.386,-202.864 327.715,-196.706"/>
</g>
<!-- Node4 -->
<g id="node4" class="node"><title>Node4</title>
<polygon fill="white" stroke="#bfbfbf" points="368.221,-1 368.221,-21 413.122,-21 413.122,-1 368.221,-1"/>
<text text-anchor="middle" x="390.671" y="-7" font-family="Helvetica,sans-Serif" font-size="10.00">cstdint</text>
</g>
<!-- Node3&#45;&gt;Node4 -->
<g id="edge3" class="edge"><title>Node3&#45;&gt;Node4</title>
<path fill="none" stroke="midnightblue" d="M464.14,-58.7527C450.428,-50.0272 429.651,-36.8051 413.686,-26.6458"/>
<polygon fill="midnightblue" stroke="midnightblue" points="415.248,-23.4912 404.932,-21.0752 411.49,-29.3968 415.248,-23.4912"/>
</g>
<!-- Node5 -->
<g id="node5" class="node"><title>Node5</title>
<polygon fill="white" stroke="#bfbfbf" points="431.201,-1 431.201,-21 526.142,-21 526.142,-1 431.201,-1"/>
<text text-anchor="middle" x="478.671" y="-7" font-family="Helvetica,sans-Serif" font-size="10.00">boost/version.hpp</text>
</g>
<!-- Node3&#45;&gt;Node5 -->
<g id="edge4" class="edge"><title>Node3&#45;&gt;Node5</title>
<path fill="none" stroke="midnightblue" d="M478.671,-58.7527C478.671,-51.2504 478.671,-40.4238 478.671,-31.0781"/>
<polygon fill="midnightblue" stroke="midnightblue" points="482.172,-31.0752 478.671,-21.0752 475.172,-31.0752 482.172,-31.0752"/>
</g>
<!-- Node6 -->
<g id="node6" class="node"><title>Node6</title>
<polygon fill="white" stroke="#bfbfbf" points="544.293,-1 544.293,-21 677.05,-21 677.05,-1 544.293,-1"/>
<text text-anchor="middle" x="610.671" y="-7" font-family="Helvetica,sans-Serif" font-size="10.00">boost/checked_delete.hpp</text>
</g>
<!-- Node3&#45;&gt;Node6 -->
<g id="edge5" class="edge"><title>Node3&#45;&gt;Node6</title>
<path fill="none" stroke="midnightblue" d="M500.173,-58.878C521.843,-49.6848 555.492,-35.4095 579.967,-25.0263"/>
<polygon fill="midnightblue" stroke="midnightblue" points="581.34,-28.2457 589.179,-21.1181 578.606,-21.8016 581.34,-28.2457"/>
</g>
<!-- Node7&#45;&gt;Node3 -->
<g id="edge7" class="edge"><title>Node7&#45;&gt;Node3</title>
<path fill="none" stroke="midnightblue" d="M269.651,-232.575C264.289,-218.37 256.864,-191.298 269.671,-174 302.299,-129.933 338.759,-162.78 387.671,-138 415.491,-123.906 443.662,-101.28 461.137,-86.0383"/>
<polygon fill="midnightblue" stroke="midnightblue" points="463.659,-88.4791 468.808,-79.2193 459.008,-83.2474 463.659,-88.4791"/>
</g>
<!-- Node8 -->
<g id="node8" class="node"><title>Node8</title>
<g id="a_node8"><a xlink:href="_vector_8h.html" target="_top" xlink:title="cinder/Vector.h">
<polygon fill="white" stroke="black" points="102.59,-175 102.59,-195 184.752,-195 184.752,-175 102.59,-175"/>
<text text-anchor="middle" x="143.671" y="-181" font-family="Helvetica,sans-Serif" font-size="10.00">cinder/Vector.h</text>
</a>
</g>
</g>
<!-- Node7&#45;&gt;Node8 -->
<g id="edge8" class="edge"><title>Node7&#45;&gt;Node8</title>
<path fill="none" stroke="midnightblue" d="M252.495,-232.878C231.248,-223.725 198.308,-209.536 174.231,-199.164"/>
<polygon fill="midnightblue" stroke="midnightblue" points="175.407,-195.86 164.838,-195.118 172.638,-202.289 175.407,-195.86"/>
</g>
<!-- Node11 -->
<g id="node11" class="node"><title>Node11</title>
<polygon fill="white" stroke="#bfbfbf" points="324.499,-117 324.499,-137 378.844,-137 378.844,-117 324.499,-117"/>
<text text-anchor="middle" x="351.671" y="-123" font-family="Helvetica,sans-Serif" font-size="10.00">iostream</text>
</g>
<!-- Node7&#45;&gt;Node11 -->
<g id="edge20" class="edge"><title>Node7&#45;&gt;Node11</title>
<path fill="none" stroke="midnightblue" d="M262.239,-232.876C246.911,-219.513 223.109,-194.033 236.671,-174 241.383,-167.041 283.224,-151.428 315.091,-140.325"/>
<polygon fill="midnightblue" stroke="midnightblue" points="316.298,-143.611 324.608,-137.038 314.013,-136.994 316.298,-143.611"/>
</g>
<!-- Node18 -->
<g id="node18" class="node"><title>Node18</title>
<polygon fill="white" stroke="#bfbfbf" points="340.28,-175 340.28,-195 379.063,-195 379.063,-175 340.28,-175"/>
<text text-anchor="middle" x="359.671" y="-181" font-family="Helvetica,sans-Serif" font-size="10.00">utility</text>
</g>
<!-- Node7&#45;&gt;Node18 -->
<g id="edge21" class="edge"><title>Node7&#45;&gt;Node18</title>
<path fill="none" stroke="midnightblue" d="M287.873,-232.753C301.272,-224.027 321.578,-210.805 337.18,-200.646"/>
<polygon fill="midnightblue" stroke="midnightblue" points="339.264,-203.465 345.735,-195.075 335.445,-197.599 339.264,-203.465"/>
</g>
<!-- Node7&#45;&gt;Node19 -->
<g id="edge22" class="edge"><title>Node7&#45;&gt;Node19</title>
<path fill="none" stroke="midnightblue" d="M278.13,-232.753C281.865,-225.006 287.309,-213.714 291.911,-204.169"/>
<polygon fill="midnightblue" stroke="midnightblue" points="295.106,-205.603 296.296,-195.075 288.8,-202.563 295.106,-205.603"/>
</g>
<!-- Node9 -->
<g id="node9" class="node"><title>Node9</title>
<polygon fill="white" stroke="#bfbfbf" points="63.0557,-59 63.0557,-79 106.287,-79 106.287,-59 63.0557,-59"/>
<text text-anchor="middle" x="84.6714" y="-65" font-family="Helvetica,sans-Serif" font-size="10.00">cmath</text>
</g>
<!-- Node8&#45;&gt;Node9 -->
<g id="edge9" class="edge"><title>Node8&#45;&gt;Node9</title>
<path fill="none" stroke="midnightblue" d="M102.418,-182.665C70.0078,-179.176 26.7757,-168.598 4.67141,-138 -12.5909,-114.104 23.8815,-93.2629 53.0874,-81.1527"/>
<polygon fill="midnightblue" stroke="midnightblue" points="54.6082,-84.3153 62.6253,-77.3887 52.0386,-77.804 54.6082,-84.3153"/>
</g>
<!-- Node10 -->
<g id="node10" class="node"><title>Node10</title>
<polygon fill="white" stroke="#bfbfbf" points="13.9448,-117 13.9448,-137 59.398,-137 59.398,-117 13.9448,-117"/>
<text text-anchor="middle" x="36.6714" y="-123" font-family="Helvetica,sans-Serif" font-size="10.00">cstring</text>
</g>
<!-- Node8&#45;&gt;Node10 -->
<g id="edge10" class="edge"><title>Node8&#45;&gt;Node10</title>
<path fill="none" stroke="midnightblue" d="M126.003,-174.753C108.863,-165.783 82.6434,-152.06 63.0366,-141.799"/>
<polygon fill="midnightblue" stroke="midnightblue" points="64.4944,-138.611 54.0115,-137.075 61.2485,-144.813 64.4944,-138.611"/>
</g>
<!-- Node8&#45;&gt;Node11 -->
<g id="edge11" class="edge"><title>Node8&#45;&gt;Node11</title>
<path fill="none" stroke="midnightblue" d="M177.963,-174.933C210.662,-166.264 261.551,-152.713 314.295,-138.359"/>
<polygon fill="midnightblue" stroke="midnightblue" points="315.434,-141.677 324.162,-135.671 313.593,-134.923 315.434,-141.677"/>
</g>
<!-- Node12 -->
<g id="node12" class="node"><title>Node12</title>
<polygon fill="white" stroke="#bfbfbf" points="77.5557,-117 77.5557,-137 125.787,-137 125.787,-117 77.5557,-117"/>
<text text-anchor="middle" x="101.671" y="-123" font-family="Helvetica,sans-Serif" font-size="10.00">cassert</text>
</g>
<!-- Node8&#45;&gt;Node12 -->
<g id="edge12" class="edge"><title>Node8&#45;&gt;Node12</title>
<path fill="none" stroke="midnightblue" d="M136.736,-174.753C130.742,-166.761 121.92,-154.998 114.624,-145.27"/>
<polygon fill="midnightblue" stroke="midnightblue" points="117.278,-142.975 108.478,-137.075 111.678,-147.175 117.278,-142.975"/>
</g>
<!-- Node13 -->
<g id="node13" class="node"><title>Node13</title>
<polygon fill="white" stroke="#bfbfbf" points="144.285,-117 144.285,-137 183.058,-137 183.058,-117 144.285,-117"/>
<text text-anchor="middle" x="163.671" y="-123" font-family="Helvetica,sans-Serif" font-size="10.00">limits</text>
</g>
<!-- Node8&#45;&gt;Node13 -->
<g id="edge13" class="edge"><title>Node8&#45;&gt;Node13</title>
<path fill="none" stroke="midnightblue" d="M146.974,-174.753C149.683,-167.169 153.604,-156.188 156.966,-146.774"/>
<polygon fill="midnightblue" stroke="midnightblue" points="160.363,-147.67 160.43,-137.075 153.771,-145.315 160.363,-147.67"/>
</g>
<!-- Node14 -->
<g id="node14" class="node"><title>Node14</title>
<g id="a_node14"><a xlink:href="_cinder_math_8h.html" target="_top" xlink:title="cinder/CinderMath.h">
<polygon fill="white" stroke="black" points="200.649,-117 200.649,-137 306.693,-137 306.693,-117 200.649,-117"/>
<text text-anchor="middle" x="253.671" y="-123" font-family="Helvetica,sans-Serif" font-size="10.00">cinder/CinderMath.h</text>
</a>
</g>
</g>
<!-- Node8&#45;&gt;Node14 -->
<g id="edge14" class="edge"><title>Node8&#45;&gt;Node14</title>
<path fill="none" stroke="midnightblue" d="M161.836,-174.753C179.536,-165.742 206.656,-151.935 226.841,-141.659"/>
<polygon fill="midnightblue" stroke="midnightblue" points="228.521,-144.731 235.845,-137.075 225.346,-138.493 228.521,-144.731"/>
</g>
<!-- Node14&#45;&gt;Node3 -->
<g id="edge15" class="edge"><title>Node14&#45;&gt;Node3</title>
<path fill="none" stroke="midnightblue" d="M290.072,-116.94C328.875,-107.283 390.418,-91.9654 432.579,-81.4719"/>
<polygon fill="midnightblue" stroke="midnightblue" points="433.465,-84.8583 442.324,-79.0466 431.774,-78.0655 433.465,-84.8583"/>
</g>
<!-- Node14&#45;&gt;Node9 -->
<g id="edge16" class="edge"><title>Node14&#45;&gt;Node9</title>
<path fill="none" stroke="midnightblue" d="M226.143,-116.878C196.013,-106.894 147.794,-90.9163 116.176,-80.4393"/>
<polygon fill="midnightblue" stroke="midnightblue" points="117.131,-77.0686 106.537,-77.2455 114.929,-83.7133 117.131,-77.0686"/>
</g>
<!-- Node15 -->
<g id="node15" class="node"><title>Node15</title>
<polygon fill="white" stroke="#bfbfbf" points="197.785,-59 197.785,-79 241.558,-79 241.558,-59 197.785,-59"/>
<text text-anchor="middle" x="219.671" y="-65" font-family="Helvetica,sans-Serif" font-size="10.00">climits</text>
</g>
<!-- Node14&#45;&gt;Node15 -->
<g id="edge17" class="edge"><title>Node14&#45;&gt;Node15</title>
<path fill="none" stroke="midnightblue" d="M248.057,-116.753C243.304,-108.924 236.353,-97.4761 230.52,-87.8679"/>
<polygon fill="midnightblue" stroke="midnightblue" points="233.363,-85.8066 225.181,-79.0752 227.379,-89.4395 233.363,-85.8066"/>
</g>
<!-- Node16 -->
<g id="node16" class="node"><title>Node16</title>
<polygon fill="white" stroke="#bfbfbf" points="259.721,-59 259.721,-79 299.622,-79 299.622,-59 259.721,-59"/>
<text text-anchor="middle" x="279.671" y="-65" font-family="Helvetica,sans-Serif" font-size="10.00">cfloat</text>
</g>
<!-- Node14&#45;&gt;Node16 -->
<g id="edge18" class="edge"><title>Node14&#45;&gt;Node16</title>
<path fill="none" stroke="midnightblue" d="M257.965,-116.753C261.562,-109.006 266.804,-97.7142 271.236,-88.1688"/>
<polygon fill="midnightblue" stroke="midnightblue" points="274.421,-89.6192 275.458,-79.0752 268.072,-86.6714 274.421,-89.6192"/>
</g>
<!-- Node17 -->
<g id="node17" class="node"><title>Node17</title>
<polygon fill="white" stroke="#bfbfbf" points="343.268,-59 343.268,-79 402.075,-79 402.075,-59 343.268,-59"/>
<text text-anchor="middle" x="372.671" y="-65" font-family="Helvetica,sans-Serif" font-size="10.00">functional</text>
</g>
<!-- Node14&#45;&gt;Node17 -->
<g id="edge19" class="edge"><title>Node14&#45;&gt;Node17</title>
<path fill="none" stroke="midnightblue" d="M273.056,-116.878C292.332,-107.807 322.123,-93.7876 344.108,-83.4418"/>
<polygon fill="midnightblue" stroke="midnightblue" points="345.738,-86.543 353.295,-79.1181 342.757,-80.2093 345.738,-86.543"/>
</g>
<!-- Node20&#45;&gt;Node3 -->
<g id="edge24" class="edge"><title>Node20&#45;&gt;Node3</title>
<path fill="none" stroke="midnightblue" d="M503.639,-232.858C517.274,-225.135 534.619,-212.663 542.671,-196 546.926,-187.196 545.334,-183.408 542.671,-174 533.108,-140.212 509.129,-106.61 493.391,-87.0978"/>
<polygon fill="midnightblue" stroke="midnightblue" points="495.898,-84.6383 486.821,-79.1739 490.509,-89.1061 495.898,-84.6383"/>
</g>
<!-- Node21 -->
<g id="node21" class="node"><title>Node21</title>
<polygon fill="white" stroke="#bfbfbf" points="591.107,-175 591.107,-195 648.235,-195 648.235,-175 591.107,-175"/>
<text text-anchor="middle" x="619.671" y="-181" font-family="Helvetica,sans-Serif" font-size="10.00">algorithm</text>
</g>
<!-- Node20&#45;&gt;Node21 -->
<g id="edge25" class="edge"><title>Node20&#45;&gt;Node21</title>
<path fill="none" stroke="midnightblue" d="M506.662,-232.878C528.824,-223.685 563.238,-209.409 588.269,-199.026"/>
<polygon fill="midnightblue" stroke="midnightblue" points="589.795,-202.183 597.69,-195.118 587.112,-195.717 589.795,-202.183"/>
</g>
<!-- Node20&#45;&gt;Node19 -->
<g id="edge26" class="edge"><title>Node20&#45;&gt;Node19</title>
<path fill="none" stroke="midnightblue" d="M453.846,-232.929C424.841,-224.35 379.963,-210.966 331.97,-196.051"/>
<polygon fill="midnightblue" stroke="midnightblue" points="332.923,-192.682 322.334,-193.049 330.84,-199.365 332.923,-192.682"/>
</g>
<!-- Node20&#45;&gt;Node18 -->
<g id="edge27" class="edge"><title>Node20&#45;&gt;Node18</title>
<path fill="none" stroke="midnightblue" d="M464.31,-232.878C443.729,-223.658 411.737,-209.325 388.543,-198.934"/>
<polygon fill="midnightblue" stroke="midnightblue" points="389.758,-195.643 379.201,-194.749 386.896,-202.032 389.758,-195.643"/>
</g>
<!-- Node22 -->
<g id="node22" class="node"><title>Node22</title>
<polygon fill="white" stroke="#bfbfbf" points="434.975,-175 434.975,-195 534.368,-195 534.368,-175 434.975,-175"/>
<text text-anchor="middle" x="484.671" y="-181" font-family="Helvetica,sans-Serif" font-size="10.00">boost/signals2.hpp</text>
</g>
<!-- Node20&#45;&gt;Node22 -->
<g id="edge28" class="edge"><title>Node20&#45;&gt;Node22</title>
<path fill="none" stroke="midnightblue" d="M484.671,-232.753C484.671,-225.25 484.671,-214.424 484.671,-205.078"/>
<polygon fill="midnightblue" stroke="midnightblue" points="488.172,-205.075 484.671,-195.075 481.172,-205.075 488.172,-205.075"/>
</g>
<!-- Node20&#45;&gt;Node17 -->
<g id="edge29" class="edge"><title>Node20&#45;&gt;Node17</title>
<path fill="none" stroke="midnightblue" d="M469.054,-232.992C455.978,-224.779 437.593,-211.573 425.671,-196 412.187,-178.385 390.131,-119.298 379.215,-88.7075"/>
<polygon fill="midnightblue" stroke="midnightblue" points="382.483,-87.4522 375.85,-79.1904 375.883,-89.7852 382.483,-87.4522"/>
</g>
</g>
</svg>
