<?xml version="1.0" encoding="UTF-8" standalone="no"?>
<!DOCTYPE svg PUBLIC "-//W3C//DTD SVG 1.1//EN"
 "http://www.w3.org/Graphics/SVG/1.1/DTD/svg11.dtd">
<!-- Generated by graphviz version 2.30.1 (20140712.1814)
 -->
<!-- Title: include/cinder/Display.h Pages: 1 -->
<!--zoomable 320 -->
<svg id="main" version="1.1" xmlns="http://www.w3.org/2000/svg" xmlns:xlink="http://www.w3.org/1999/xlink" xml:space="preserve" onload="init(evt)">
<style type="text/css"><![CDATA[
.edge:hover path { stroke: red; }
.edge:hover polygon { stroke: red; fill: red; }
]]></style>
<script type="text/javascript"><![CDATA[
var edges = document.getElementsByTagName('g');
if (edges && edges.length) {
  for (var i=0;i<edges.length;i++) {
    if (edges[i].id.substr(0,4)=='edge') {
      edges[i].setAttribute('class','edge');
    }
  }
}
]]></script>
        <defs>
                <circle id="rim" cx="0" cy="0" r="7"/>
                <circle id="rim2" cx="0" cy="0" r="3.5"/>
                <g id="zoomPlus">
                        <use xlink:href="#rim" fill="#404040">
                                <set attributeName="fill" to="#808080" begin="zoomplus.mouseover" end="zoomplus.mouseout"/>
                        </use>
                        <path d="M-4,0h8M0,-4v8" fill="none" stroke="white" stroke-width="1.5" pointer-events="none"/>
                </g>
                <g id="zoomMin">
                        <use xlink:href="#rim" fill="#404040">
                                <set attributeName="fill" to="#808080" begin="zoomminus.mouseover" end="zoomminus.mouseout"/>
                        </use>
                        <path d="M-4,0h8" fill="none" stroke="white" stroke-width="1.5" pointer-events="none"/>
                </g>
                <g id="dirArrow">
                        <path fill="none" stroke="white" stroke-width="1.5" d="M0,-3.0v7 M-2.5,-0.5L0,-3.0L2.5,-0.5"/>
                </g>
               <g id="resetDef">
                       <use xlink:href="#rim2" fill="#404040">
                               <set attributeName="fill" to="#808080" begin="reset.mouseover" end="reset.mouseout"/>
                       </use>
               </g>
        </defs>

<script type="text/javascript">
var viewWidth = 770;
var viewHeight = 320;
var sectionId = 'dynsection-0';
</script>
<script xlink:href="svgpan.js"/>
<svg id="graph" class="graph">
<g id="viewport">
<title>include/cinder/Display.h</title>
<polygon fill="white" stroke="white" points="-4,5 -4,-316 767,-316 767,5 -4,5"/>
<!-- Node1 -->
<g id="node1" class="node"><title>Node1</title>
<polygon fill="#bfbfbf" stroke="black" points="417.563,-291 417.563,-311 538.437,-311 538.437,-291 417.563,-291"/>
<text text-anchor="middle" x="478" y="-297" font-family="Helvetica,sans-Serif" font-size="10.00">include/cinder/Display.h</text>
</g>
<!-- Node2 -->
<g id="node2" class="node"><title>Node2</title>
<g id="a_node2"><a xlink:href="_cinder_8h.html" target="_top" xlink:title="cinder/Cinder.h">
<polygon fill="white" stroke="black" points="472.367,-59 472.367,-79 555.633,-79 555.633,-59 472.367,-59"/>
<text text-anchor="middle" x="514" y="-65" font-family="Helvetica,sans-Serif" font-size="10.00">cinder/Cinder.h</text>
</a>
</g>
</g>
<!-- Node1&#45;&gt;Node2 -->
<g id="edge1" class="edge"><title>Node1&#45;&gt;Node2</title>
<path fill="none" stroke="midnightblue" d="M514.345,-290.957C557.627,-278.022 627.958,-249.638 659,-196 674.103,-169.904 637.968,-120.713 633,-116 614.441,-98.3918 588.406,-87.3087 565.418,-80.4471"/>
<polygon fill="midnightblue" stroke="midnightblue" points="566.356,-77.0752 555.783,-77.7581 564.474,-83.8175 566.356,-77.0752"/>
</g>
<!-- Node6 -->
<g id="node6" class="node"><title>Node6</title>
<g id="a_node6"><a xlink:href="_area_8h.html" target="_top" xlink:title="cinder/Area.h">
<polygon fill="white" stroke="black" points="264.261,-233 264.261,-253 339.739,-253 339.739,-233 264.261,-233"/>
<text text-anchor="middle" x="302" y="-239" font-family="Helvetica,sans-Serif" font-size="10.00">cinder/Area.h</text>
</a>
</g>
</g>
<!-- Node1&#45;&gt;Node6 -->
<g id="edge5" class="edge"><title>Node1&#45;&gt;Node6</title>
<path fill="none" stroke="midnightblue" d="M449.331,-290.878C419.583,-281.413 372.902,-266.56 340.074,-256.115"/>
<polygon fill="midnightblue" stroke="midnightblue" points="340.956,-252.722 330.365,-253.025 338.833,-259.393 340.956,-252.722"/>
</g>
<!-- Node19 -->
<g id="node19" class="node"><title>Node19</title>
<g id="a_node19"><a xlink:href="_function_8h.html" target="_top" xlink:title="cinder/Function.h">
<polygon fill="white" stroke="black" points="431.646,-233 431.646,-253 524.354,-253 524.354,-233 431.646,-233"/>
<text text-anchor="middle" x="478" y="-239" font-family="Helvetica,sans-Serif" font-size="10.00">cinder/Function.h</text>
</a>
</g>
</g>
<!-- Node1&#45;&gt;Node19 -->
<g id="edge22" class="edge"><title>Node1&#45;&gt;Node19</title>
<path fill="none" stroke="midnightblue" d="M478,-290.753C478,-283.25 478,-272.424 478,-263.078"/>
<polygon fill="midnightblue" stroke="midnightblue" points="481.5,-263.075 478,-253.075 474.5,-263.075 481.5,-263.075"/>
</g>
<!-- Node22 -->
<g id="node22" class="node"><title>Node22</title>
<polygon fill="white" stroke="#bfbfbf" points="727.273,-233 727.273,-253 762.727,-253 762.727,-233 727.273,-233"/>
<text text-anchor="middle" x="745" y="-239" font-family="Helvetica,sans-Serif" font-size="10.00">map</text>
</g>
<!-- Node1&#45;&gt;Node22 -->
<g id="edge29" class="edge"><title>Node1&#45;&gt;Node22</title>
<path fill="none" stroke="midnightblue" d="M532.985,-290.994C580.852,-282.737 651.945,-269.466 713,-254 714.446,-253.634 715.923,-253.241 717.41,-252.83"/>
<polygon fill="midnightblue" stroke="midnightblue" points="718.557,-256.141 727.159,-249.955 716.577,-249.427 718.557,-256.141"/>
</g>
<!-- Node18 -->
<g id="node18" class="node"><title>Node18</title>
<polygon fill="white" stroke="#bfbfbf" points="358.384,-175 358.384,-195 401.616,-195 401.616,-175 358.384,-175"/>
<text text-anchor="middle" x="380" y="-181" font-family="Helvetica,sans-Serif" font-size="10.00">vector</text>
</g>
<!-- Node1&#45;&gt;Node18 -->
<g id="edge30" class="edge"><title>Node1&#45;&gt;Node18</title>
<path fill="none" stroke="midnightblue" d="M464.777,-290.781C452.965,-282.14 435.627,-268.424 423,-254 409.544,-238.63 397.429,-218.628 389.514,-204.303"/>
<polygon fill="midnightblue" stroke="midnightblue" points="392.557,-202.571 384.74,-195.419 386.391,-205.885 392.557,-202.571"/>
</g>
<!-- Node3 -->
<g id="node3" class="node"><title>Node3</title>
<polygon fill="white" stroke="#bfbfbf" points="403.549,-1 403.549,-21 448.451,-21 448.451,-1 403.549,-1"/>
<text text-anchor="middle" x="426" y="-7" font-family="Helvetica,sans-Serif" font-size="10.00">cstdint</text>
</g>
<!-- Node2&#45;&gt;Node3 -->
<g id="edge2" class="edge"><title>Node2&#45;&gt;Node3</title>
<path fill="none" stroke="midnightblue" d="M499.469,-58.7527C485.757,-50.0272 464.979,-36.8051 449.015,-26.6458"/>
<polygon fill="midnightblue" stroke="midnightblue" points="450.577,-23.4912 440.261,-21.0752 446.819,-29.3968 450.577,-23.4912"/>
</g>
<!-- Node4 -->
<g id="node4" class="node"><title>Node4</title>
<polygon fill="white" stroke="#bfbfbf" points="466.53,-1 466.53,-21 561.47,-21 561.47,-1 466.53,-1"/>
<text text-anchor="middle" x="514" y="-7" font-family="Helvetica,sans-Serif" font-size="10.00">boost/version.hpp</text>
</g>
<!-- Node2&#45;&gt;Node4 -->
<g id="edge3" class="edge"><title>Node2&#45;&gt;Node4</title>
<path fill="none" stroke="midnightblue" d="M514,-58.7527C514,-51.2504 514,-40.4238 514,-31.0781"/>
<polygon fill="midnightblue" stroke="midnightblue" points="517.5,-31.0752 514,-21.0752 510.5,-31.0752 517.5,-31.0752"/>
</g>
<!-- Node5 -->
<g id="node5" class="node"><title>Node5</title>
<polygon fill="white" stroke="#bfbfbf" points="579.621,-1 579.621,-21 712.379,-21 712.379,-1 579.621,-1"/>
<text text-anchor="middle" x="646" y="-7" font-family="Helvetica,sans-Serif" font-size="10.00">boost/checked_delete.hpp</text>
</g>
<!-- Node2&#45;&gt;Node5 -->
<g id="edge4" class="edge"><title>Node2&#45;&gt;Node5</title>
<path fill="none" stroke="midnightblue" d="M535.502,-58.878C557.172,-49.6848 590.821,-35.4095 615.295,-25.0263"/>
<polygon fill="midnightblue" stroke="midnightblue" points="616.668,-28.2457 624.507,-21.1181 613.935,-21.8016 616.668,-28.2457"/>
</g>
<!-- Node6&#45;&gt;Node2 -->
<g id="edge6" class="edge"><title>Node6&#45;&gt;Node2</title>
<path fill="none" stroke="midnightblue" d="M296.951,-232.609C290.105,-218.448 280.124,-191.434 293,-174 325.323,-130.236 360.748,-161.114 410,-138 441.301,-123.31 474.175,-100.359 494.382,-85.2497"/>
<polygon fill="midnightblue" stroke="midnightblue" points="496.624,-87.9422 502.475,-79.1093 492.393,-82.3657 496.624,-87.9422"/>
</g>
<!-- Node7 -->
<g id="node7" class="node"><title>Node7</title>
<g id="a_node7"><a xlink:href="_vector_8h.html" target="_top" xlink:title="cinder/Vector.h">
<polygon fill="white" stroke="black" points="163.919,-175 163.919,-195 246.081,-195 246.081,-175 163.919,-175"/>
<text text-anchor="middle" x="205" y="-181" font-family="Helvetica,sans-Serif" font-size="10.00">cinder/Vector.h</text>
</a>
</g>
</g>
<!-- Node6&#45;&gt;Node7 -->
<g id="edge7" class="edge"><title>Node6&#45;&gt;Node7</title>
<path fill="none" stroke="midnightblue" d="M285.982,-232.753C270.586,-223.864 247.107,-210.309 229.387,-200.079"/>
<polygon fill="midnightblue" stroke="midnightblue" points="231.13,-197.044 220.72,-195.075 227.63,-203.106 231.13,-197.044"/>
</g>
<!-- Node10 -->
<g id="node10" class="node"><title>Node10</title>
<polygon fill="white" stroke="#bfbfbf" points="-0.172363,-117 -0.172363,-137 54.1724,-137 54.1724,-117 -0.172363,-117"/>
<text text-anchor="middle" x="27" y="-123" font-family="Helvetica,sans-Serif" font-size="10.00">iostream</text>
</g>
<!-- Node6&#45;&gt;Node10 -->
<g id="edge19" class="edge"><title>Node6&#45;&gt;Node10</title>
<path fill="none" stroke="midnightblue" d="M266.901,-232.99C236.706,-224.775 192.257,-211.568 155,-196 117.324,-180.257 75.9827,-157.151 50.7602,-142.341"/>
<polygon fill="midnightblue" stroke="midnightblue" points="52.311,-139.191 41.9238,-137.104 48.7419,-145.213 52.311,-139.191"/>
</g>
<!-- Node17 -->
<g id="node17" class="node"><title>Node17</title>
<polygon fill="white" stroke="#bfbfbf" points="301.608,-175 301.608,-195 340.392,-195 340.392,-175 301.608,-175"/>
<text text-anchor="middle" x="321" y="-181" font-family="Helvetica,sans-Serif" font-size="10.00">utility</text>
</g>
<!-- Node6&#45;&gt;Node17 -->
<g id="edge20" class="edge"><title>Node6&#45;&gt;Node17</title>
<path fill="none" stroke="midnightblue" d="M305.137,-232.753C307.711,-225.169 311.436,-214.188 314.63,-204.774"/>
<polygon fill="midnightblue" stroke="midnightblue" points="318.022,-205.67 317.921,-195.075 311.393,-203.42 318.022,-205.67"/>
</g>
<!-- Node6&#45;&gt;Node18 -->
<g id="edge21" class="edge"><title>Node6&#45;&gt;Node18</title>
<path fill="none" stroke="midnightblue" d="M314.88,-232.753C326.92,-224.109 345.106,-211.052 359.203,-200.931"/>
<polygon fill="midnightblue" stroke="midnightblue" points="361.278,-203.75 367.36,-195.075 357.195,-198.064 361.278,-203.75"/>
</g>
<!-- Node8 -->
<g id="node8" class="node"><title>Node8</title>
<polygon fill="white" stroke="#bfbfbf" points="103.384,-59 103.384,-79 146.616,-79 146.616,-59 103.384,-59"/>
<text text-anchor="middle" x="125" y="-65" font-family="Helvetica,sans-Serif" font-size="10.00">cmath</text>
</g>
<!-- Node7&#45;&gt;Node8 -->
<g id="edge8" class="edge"><title>Node7&#45;&gt;Node8</title>
<path fill="none" stroke="midnightblue" d="M163.87,-177.027C141.196,-170.856 114.897,-159.343 101,-138 90.8171,-122.362 100.63,-101.88 110.605,-87.4972"/>
<polygon fill="midnightblue" stroke="midnightblue" points="113.457,-89.5274 116.659,-79.428 107.858,-85.3263 113.457,-89.5274"/>
</g>
<!-- Node9 -->
<g id="node9" class="node"><title>Node9</title>
<polygon fill="white" stroke="#bfbfbf" points="356.273,-117 356.273,-137 401.727,-137 401.727,-117 356.273,-117"/>
<text text-anchor="middle" x="379" y="-123" font-family="Helvetica,sans-Serif" font-size="10.00">cstring</text>
</g>
<!-- Node7&#45;&gt;Node9 -->
<g id="edge9" class="edge"><title>Node7&#45;&gt;Node9</title>
<path fill="none" stroke="midnightblue" d="M233.343,-174.878C264.278,-164.922 313.732,-149.006 346.29,-138.527"/>
<polygon fill="midnightblue" stroke="midnightblue" points="347.775,-141.726 356.222,-135.331 345.63,-135.063 347.775,-141.726"/>
</g>
<!-- Node7&#45;&gt;Node10 -->
<g id="edge10" class="edge"><title>Node7&#45;&gt;Node10</title>
<path fill="none" stroke="midnightblue" d="M176.005,-174.878C145.472,-165.272 97.3033,-150.118 64.0386,-139.653"/>
<polygon fill="midnightblue" stroke="midnightblue" points="64.8191,-136.229 54.2296,-136.567 62.7183,-142.906 64.8191,-136.229"/>
</g>
<!-- Node11 -->
<g id="node11" class="node"><title>Node11</title>
<polygon fill="white" stroke="#bfbfbf" points="109.884,-117 109.884,-137 158.116,-137 158.116,-117 109.884,-117"/>
<text text-anchor="middle" x="134" y="-123" font-family="Helvetica,sans-Serif" font-size="10.00">cassert</text>
</g>
<!-- Node7&#45;&gt;Node11 -->
<g id="edge11" class="edge"><title>Node7&#45;&gt;Node11</title>
<path fill="none" stroke="midnightblue" d="M193.276,-174.753C182.523,-166.272 166.385,-153.543 153.661,-143.507"/>
<polygon fill="midnightblue" stroke="midnightblue" points="155.525,-140.52 145.506,-137.075 151.19,-146.016 155.525,-140.52"/>
</g>
<!-- Node12 -->
<g id="node12" class="node"><title>Node12</title>
<polygon fill="white" stroke="#bfbfbf" points="299.613,-117 299.613,-137 338.387,-137 338.387,-117 299.613,-117"/>
<text text-anchor="middle" x="319" y="-123" font-family="Helvetica,sans-Serif" font-size="10.00">limits</text>
</g>
<!-- Node7&#45;&gt;Node12 -->
<g id="edge12" class="edge"><title>Node7&#45;&gt;Node12</title>
<path fill="none" stroke="midnightblue" d="M223.57,-174.878C241.953,-165.847 270.32,-151.913 291.353,-141.581"/>
<polygon fill="midnightblue" stroke="midnightblue" points="293.006,-144.669 300.438,-137.118 289.919,-138.386 293.006,-144.669"/>
</g>
<!-- Node13 -->
<g id="node13" class="node"><title>Node13</title>
<g id="a_node13"><a xlink:href="_cinder_math_8h.html" target="_top" xlink:title="cinder/CinderMath.h">
<polygon fill="white" stroke="black" points="175.978,-117 175.978,-137 282.022,-137 282.022,-117 175.978,-117"/>
<text text-anchor="middle" x="229" y="-123" font-family="Helvetica,sans-Serif" font-size="10.00">cinder/CinderMath.h</text>
</a>
</g>
</g>
<!-- Node7&#45;&gt;Node13 -->
<g id="edge13" class="edge"><title>Node7&#45;&gt;Node13</title>
<path fill="none" stroke="midnightblue" d="M208.963,-174.753C212.248,-167.087 217.021,-155.952 221.084,-146.471"/>
<polygon fill="midnightblue" stroke="midnightblue" points="224.388,-147.645 225.111,-137.075 217.954,-144.888 224.388,-147.645"/>
</g>
<!-- Node13&#45;&gt;Node2 -->
<g id="edge14" class="edge"><title>Node13&#45;&gt;Node2</title>
<path fill="none" stroke="midnightblue" d="M275.107,-116.94C326.316,-106.878 408.79,-90.6729 462.191,-80.18"/>
<polygon fill="midnightblue" stroke="midnightblue" points="463,-83.5881 472.137,-78.2256 461.65,-76.7194 463,-83.5881"/>
</g>
<!-- Node13&#45;&gt;Node8 -->
<g id="edge15" class="edge"><title>Node13&#45;&gt;Node8</title>
<path fill="none" stroke="midnightblue" d="M211.827,-116.753C195.243,-107.823 169.915,-94.1848 150.886,-83.9388"/>
<polygon fill="midnightblue" stroke="midnightblue" points="152.318,-80.7346 141.854,-79.0752 148.999,-86.8979 152.318,-80.7346"/>
</g>
<!-- Node14 -->
<g id="node14" class="node"><title>Node14</title>
<polygon fill="white" stroke="#bfbfbf" points="177.113,-59 177.113,-79 220.887,-79 220.887,-59 177.113,-59"/>
<text text-anchor="middle" x="199" y="-65" font-family="Helvetica,sans-Serif" font-size="10.00">climits</text>
</g>
<!-- Node13&#45;&gt;Node14 -->
<g id="edge16" class="edge"><title>Node13&#45;&gt;Node14</title>
<path fill="none" stroke="midnightblue" d="M224.046,-116.753C219.896,-109.006 213.847,-97.7142 208.733,-88.1688"/>
<polygon fill="midnightblue" stroke="midnightblue" points="211.669,-86.2372 203.862,-79.0752 205.499,-89.5428 211.669,-86.2372"/>
</g>
<!-- Node15 -->
<g id="node15" class="node"><title>Node15</title>
<polygon fill="white" stroke="#bfbfbf" points="239.049,-59 239.049,-79 278.951,-79 278.951,-59 239.049,-59"/>
<text text-anchor="middle" x="259" y="-65" font-family="Helvetica,sans-Serif" font-size="10.00">cfloat</text>
</g>
<!-- Node13&#45;&gt;Node15 -->
<g id="edge17" class="edge"><title>Node13&#45;&gt;Node15</title>
<path fill="none" stroke="midnightblue" d="M233.954,-116.753C238.104,-109.006 244.153,-97.7142 249.267,-88.1688"/>
<polygon fill="midnightblue" stroke="midnightblue" points="252.501,-89.5428 254.138,-79.0752 246.331,-86.2372 252.501,-89.5428"/>
</g>
<!-- Node16 -->
<g id="node16" class="node"><title>Node16</title>
<polygon fill="white" stroke="#bfbfbf" points="354.596,-59 354.596,-79 413.404,-79 413.404,-59 354.596,-59"/>
<text text-anchor="middle" x="384" y="-65" font-family="Helvetica,sans-Serif" font-size="10.00">functional</text>
</g>
<!-- Node13&#45;&gt;Node16 -->
<g id="edge18" class="edge"><title>Node13&#45;&gt;Node16</title>
<path fill="none" stroke="midnightblue" d="M254.248,-116.878C280.108,-107.535 320.497,-92.943 349.341,-82.522"/>
<polygon fill="midnightblue" stroke="midnightblue" points="350.804,-85.7151 359.019,-79.0253 348.425,-79.1316 350.804,-85.7151"/>
</g>
<!-- Node19&#45;&gt;Node2 -->
<g id="edge23" class="edge"><title>Node19&#45;&gt;Node2</title>
<path fill="none" stroke="midnightblue" d="M524.395,-235.22C567.431,-227.87 626.893,-214.639 641,-196 675.633,-150.241 594.114,-104.898 546.068,-83.2079"/>
<polygon fill="midnightblue" stroke="midnightblue" points="547.227,-79.8937 536.664,-79.0694 544.407,-86.3008 547.227,-79.8937"/>
</g>
<!-- Node20 -->
<g id="node20" class="node"><title>Node20</title>
<polygon fill="white" stroke="#bfbfbf" points="458.436,-175 458.436,-195 515.564,-195 515.564,-175 458.436,-175"/>
<text text-anchor="middle" x="487" y="-181" font-family="Helvetica,sans-Serif" font-size="10.00">algorithm</text>
</g>
<!-- Node19&#45;&gt;Node20 -->
<g id="edge24" class="edge"><title>Node19&#45;&gt;Node20</title>
<path fill="none" stroke="midnightblue" d="M479.486,-232.753C480.692,-225.25 482.432,-214.424 483.934,-205.078"/>
<polygon fill="midnightblue" stroke="midnightblue" points="487.41,-205.504 485.541,-195.075 480.499,-204.393 487.41,-205.504"/>
</g>
<!-- Node19&#45;&gt;Node18 -->
<g id="edge25" class="edge"><title>Node19&#45;&gt;Node18</title>
<path fill="none" stroke="midnightblue" d="M461.817,-232.753C446.262,-223.864 422.541,-210.309 404.639,-200.079"/>
<polygon fill="midnightblue" stroke="midnightblue" points="406.301,-196.998 395.882,-195.075 402.828,-203.075 406.301,-196.998"/>
</g>
<!-- Node19&#45;&gt;Node17 -->
<g id="edge26" class="edge"><title>Node19&#45;&gt;Node17</title>
<path fill="none" stroke="midnightblue" d="M452.299,-232.84C428.145,-224.229 390.738,-210.893 350.126,-196.401"/>
<polygon fill="midnightblue" stroke="midnightblue" points="351.176,-193.06 340.582,-192.995 348.824,-199.652 351.176,-193.06"/>
</g>
<!-- Node21 -->
<g id="node21" class="node"><title>Node21</title>
<polygon fill="white" stroke="#bfbfbf" points="533.303,-175 533.303,-195 632.697,-195 632.697,-175 533.303,-175"/>
<text text-anchor="middle" x="583" y="-181" font-family="Helvetica,sans-Serif" font-size="10.00">boost/signals2.hpp</text>
</g>
<!-- Node19&#45;&gt;Node21 -->
<g id="edge27" class="edge"><title>Node19&#45;&gt;Node21</title>
<path fill="none" stroke="midnightblue" d="M495.339,-232.753C512.158,-223.783 537.887,-210.06 557.128,-199.799"/>
<polygon fill="midnightblue" stroke="midnightblue" points="558.808,-202.869 565.984,-195.075 555.513,-196.693 558.808,-202.869"/>
</g>
<!-- Node19&#45;&gt;Node16 -->
<g id="edge28" class="edge"><title>Node19&#45;&gt;Node16</title>
<path fill="none" stroke="midnightblue" d="M471.694,-232.667C465.602,-223.5 456.256,-209.032 449,-196 429.757,-161.44 428.407,-151.012 410,-116 405.091,-106.662 399.346,-96.4313 394.506,-87.9938"/>
<polygon fill="midnightblue" stroke="midnightblue" points="397.383,-85.9768 389.345,-79.0739 391.324,-89.4823 397.383,-85.9768"/>
</g>
</g>
</svg>
        <g id="navigator" transform="translate(0 0)" fill="#404254">
                <rect fill="#f2f5e9" fill-opacity="0.5" stroke="#606060" stroke-width=".5" x="0" y="0" width="60" height="60"/>
                <use id="zoomplus" xlink:href="#zoomPlus" x="17" y="9" onmousedown="handleZoom(evt,'in')"/>
                <use id="zoomminus" xlink:href="#zoomMin" x="42" y="9" onmousedown="handleZoom(evt,'out')"/>
                <use id="reset" xlink:href="#resetDef" x="30" y="36" onmousedown="handleReset()"/>
                <g id="arrowUp" xlink:href="#dirArrow" transform="translate(30 24)" onmousedown="handlePan(0,-1)">
                  <use xlink:href="#rim" fill="#404040">
                        <set attributeName="fill" to="#808080" begin="arrowUp.mouseover" end="arrowUp.mouseout"/>
                  </use>
                  <path fill="none" stroke="white" stroke-width="1.5" d="M0,-3.0v7 M-2.5,-0.5L0,-3.0L2.5,-0.5"/>
                </g>
                <g id="arrowRight" xlink:href="#dirArrow" transform="rotate(90) translate(36 -43)" onmousedown="handlePan(1,0)">
                  <use xlink:href="#rim" fill="#404040">
                        <set attributeName="fill" to="#808080" begin="arrowRight.mouseover" end="arrowRight.mouseout"/>
                  </use>
                  <path fill="none" stroke="white" stroke-width="1.5" d="M0,-3.0v7 M-2.5,-0.5L0,-3.0L2.5,-0.5"/>
                </g>
                <g id="arrowDown" xlink:href="#dirArrow" transform="rotate(180) translate(-30 -48)" onmousedown="handlePan(0,1)">
                  <use xlink:href="#rim" fill="#404040">
                        <set attributeName="fill" to="#808080" begin="arrowDown.mouseover" end="arrowDown.mouseout"/>
                  </use>
                  <path fill="none" stroke="white" stroke-width="1.5" d="M0,-3.0v7 M-2.5,-0.5L0,-3.0L2.5,-0.5"/>
                </g>
                <g id="arrowLeft" xlink:href="#dirArrow" transform="rotate(270) translate(-36 17)" onmousedown="handlePan(-1,0)">
                  <use xlink:href="#rim" fill="#404040">
                        <set attributeName="fill" to="#808080" begin="arrowLeft.mouseover" end="arrowLeft.mouseout"/>
                  </use>
                  <path fill="none" stroke="white" stroke-width="1.5" d="M0,-3.0v7 M-2.5,-0.5L0,-3.0L2.5,-0.5"/>
                </g>
        </g>
        <svg viewBox="0 0 15 15" width="100%" height="30px" preserveAspectRatio="xMaxYMin meet">
         <g id="arrow_out" transform="scale(0.3 0.3)">
          <a xlink:href="_display_8h__incl_org.svg" target="_base">
           <rect id="button" ry="5" rx="5" y="6" x="6" height="38" width="38"
                fill="#f2f5e9" fill-opacity="0.5" stroke="#606060" stroke-width="1.0"/>
           <path id="arrow"
             d="M 11.500037,31.436501 C 11.940474,20.09759 22.043105,11.32322 32.158766,21.979434 L 37.068811,17.246167 C 37.068811,17.246167 37.088388,32 37.088388,32 L 22.160133,31.978069 C 22.160133,31.978069 26.997745,27.140456 26.997745,27.140456 C 18.528582,18.264221 13.291696,25.230495 11.500037,31.436501 z"
             style="fill:#404040;"/>
          </a>
         </g>
        </svg>
</svg>
