<?xml version="1.0" encoding="UTF-8" standalone="no"?>
<!DOCTYPE svg PUBLIC "-//W3C//DTD SVG 1.1//EN"
 "http://www.w3.org/Graphics/SVG/1.1/DTD/svg11.dtd">
<!-- Generated by graphviz version 2.30.1 (20140712.1814)
 -->
<!-- Title: src/cinder/audio/dsp/Dsp.cpp Pages: 1 -->
<!--zoomable 216 -->
<svg id="main" version="1.1" xmlns="http://www.w3.org/2000/svg" xmlns:xlink="http://www.w3.org/1999/xlink" xml:space="preserve" onload="init(evt)">
<style type="text/css"><![CDATA[
.edge:hover path { stroke: red; }
.edge:hover polygon { stroke: red; fill: red; }
]]></style>
<script type="text/javascript"><![CDATA[
var edges = document.getElementsByTagName('g');
if (edges && edges.length) {
  for (var i=0;i<edges.length;i++) {
    if (edges[i].id.substr(0,4)=='edge') {
      edges[i].setAttribute('class','edge');
    }
  }
}
]]></script>
        <defs>
                <circle id="rim" cx="0" cy="0" r="7"/>
                <circle id="rim2" cx="0" cy="0" r="3.5"/>
                <g id="zoomPlus">
                        <use xlink:href="#rim" fill="#404040">
                                <set attributeName="fill" to="#808080" begin="zoomplus.mouseover" end="zoomplus.mouseout"/>
                        </use>
                        <path d="M-4,0h8M0,-4v8" fill="none" stroke="white" stroke-width="1.5" pointer-events="none"/>
                </g>
                <g id="zoomMin">
                        <use xlink:href="#rim" fill="#404040">
                                <set attributeName="fill" to="#808080" begin="zoomminus.mouseover" end="zoomminus.mouseout"/>
                        </use>
                        <path d="M-4,0h8" fill="none" stroke="white" stroke-width="1.5" pointer-events="none"/>
                </g>
                <g id="dirArrow">
                        <path fill="none" stroke="white" stroke-width="1.5" d="M0,-3.0v7 M-2.5,-0.5L0,-3.0L2.5,-0.5"/>
                </g>
               <g id="resetDef">
                       <use xlink:href="#rim2" fill="#404040">
                               <set attributeName="fill" to="#808080" begin="reset.mouseover" end="reset.mouseout"/>
                       </use>
               </g>
        </defs>

<script type="text/javascript">
var viewWidth = 651;
var viewHeight = 216;
var sectionId = 'dynsection-0';
</script>
<script xlink:href="svgpan.js"/>
<svg id="graph" class="graph">
<g id="viewport">
<title>src/cinder/audio/dsp/Dsp.cpp</title>
<polygon fill="white" stroke="white" points="-4,5 -4,-212 648,-212 648,5 -4,5"/>
<!-- Node1 -->
<g id="node1" class="node"><title>Node1</title>
<polygon fill="#bfbfbf" stroke="black" points="307.254,-175 307.254,-207 412.746,-207 412.746,-175 307.254,-175"/>
<text text-anchor="start" x="315.254" y="-193" font-family="Helvetica,sans-Serif" font-size="10.00">src/cinder/audio/dsp</text>
<text text-anchor="middle" x="360" y="-181" font-family="Helvetica,sans-Serif" font-size="10.00">/Dsp.cpp</text>
</g>
<!-- Node2 -->
<g id="node2" class="node"><title>Node2</title>
<g id="a_node2"><a xlink:href="_dsp_8h.html" target="_top" xlink:title="cinder/audio/dsp/Dsp.h">
<polygon fill="white" stroke="black" points="219.857,-117 219.857,-137 338.143,-137 338.143,-117 219.857,-117"/>
<text text-anchor="middle" x="279" y="-123" font-family="Helvetica,sans-Serif" font-size="10.00">cinder/audio/dsp/Dsp.h</text>
</a>
</g>
</g>
<!-- Node1&#45;&gt;Node2 -->
<g id="edge1" class="edge"><title>Node1&#45;&gt;Node2</title>
<path fill="none" stroke="midnightblue" d="M340.392,-174.992C327.914,-165.441 311.793,-153.101 299.202,-143.463"/>
<polygon fill="midnightblue" stroke="midnightblue" points="301.206,-140.589 291.137,-137.29 296.951,-146.148 301.206,-140.589"/>
</g>
<!-- Node13 -->
<g id="node13" class="node"><title>Node13</title>
<g id="a_node13"><a xlink:href="_cinder_math_8h.html" target="_top" xlink:title="cinder/CinderMath.h">
<polygon fill="white" stroke="black" points="402.978,-117 402.978,-137 509.022,-137 509.022,-117 402.978,-117"/>
<text text-anchor="middle" x="456" y="-123" font-family="Helvetica,sans-Serif" font-size="10.00">cinder/CinderMath.h</text>
</a>
</g>
</g>
<!-- Node1&#45;&gt;Node13 -->
<g id="edge12" class="edge"><title>Node1&#45;&gt;Node13</title>
<path fill="none" stroke="midnightblue" d="M383.239,-174.992C398.404,-165.198 418.109,-152.471 433.187,-142.733"/>
<polygon fill="midnightblue" stroke="midnightblue" points="435.395,-145.474 441.896,-137.109 431.597,-139.594 435.395,-145.474"/>
</g>
<!-- Node3 -->
<g id="node3" class="node"><title>Node3</title>
<g id="a_node3"><a xlink:href="_cinder_assert_8h.html" target="_top" xlink:title="cinder/CinderAssert.h">
<polygon fill="white" stroke="black" points="47.9238,-59 47.9238,-79 160.076,-79 160.076,-59 47.9238,-59"/>
<text text-anchor="middle" x="104" y="-65" font-family="Helvetica,sans-Serif" font-size="10.00">cinder/CinderAssert.h</text>
</a>
</g>
</g>
<!-- Node2&#45;&gt;Node3 -->
<g id="edge2" class="edge"><title>Node2&#45;&gt;Node3</title>
<path fill="none" stroke="midnightblue" d="M250.494,-116.878C220.914,-107.413 174.499,-92.5598 141.858,-82.1146"/>
<polygon fill="midnightblue" stroke="midnightblue" points="142.795,-78.7396 132.204,-79.0253 140.662,-85.4066 142.795,-78.7396"/>
</g>
<!-- Node6 -->
<g id="node6" class="node"><title>Node6</title>
<g id="a_node6"><a xlink:href="_cinder_8h.html" target="_top" xlink:title="cinder/Cinder.h">
<polygon fill="white" stroke="black" points="302.367,-59 302.367,-79 385.633,-79 385.633,-59 302.367,-59"/>
<text text-anchor="middle" x="344" y="-65" font-family="Helvetica,sans-Serif" font-size="10.00">cinder/Cinder.h</text>
</a>
</g>
</g>
<!-- Node2&#45;&gt;Node6 -->
<g id="edge5" class="edge"><title>Node2&#45;&gt;Node6</title>
<path fill="none" stroke="midnightblue" d="M289.733,-116.753C299.483,-108.353 314.068,-95.7874 325.664,-85.7976"/>
<polygon fill="midnightblue" stroke="midnightblue" points="328.175,-88.254 333.466,-79.0752 323.606,-82.9507 328.175,-88.254"/>
</g>
<!-- Node10 -->
<g id="node10" class="node"><title>Node10</title>
<polygon fill="white" stroke="#bfbfbf" points="178.273,-59 178.273,-79 223.727,-79 223.727,-59 178.273,-59"/>
<text text-anchor="middle" x="201" y="-65" font-family="Helvetica,sans-Serif" font-size="10.00">atomic</text>
</g>
<!-- Node2&#45;&gt;Node10 -->
<g id="edge9" class="edge"><title>Node2&#45;&gt;Node10</title>
<path fill="none" stroke="midnightblue" d="M266.12,-116.753C254.08,-108.109 235.894,-95.0518 221.797,-84.9314"/>
<polygon fill="midnightblue" stroke="midnightblue" points="223.805,-82.0642 213.64,-79.0752 219.722,-87.7504 223.805,-82.0642"/>
</g>
<!-- Node11 -->
<g id="node11" class="node"><title>Node11</title>
<polygon fill="white" stroke="#bfbfbf" points="241.384,-59 241.384,-79 284.616,-79 284.616,-59 241.384,-59"/>
<text text-anchor="middle" x="263" y="-65" font-family="Helvetica,sans-Serif" font-size="10.00">vector</text>
</g>
<!-- Node2&#45;&gt;Node11 -->
<g id="edge10" class="edge"><title>Node2&#45;&gt;Node11</title>
<path fill="none" stroke="midnightblue" d="M276.358,-116.753C274.191,-109.169 271.054,-98.1881 268.364,-88.7739"/>
<polygon fill="midnightblue" stroke="midnightblue" points="271.706,-87.7289 265.593,-79.0752 264.975,-89.652 271.706,-87.7289"/>
</g>
<!-- Node12 -->
<g id="node12" class="node"><title>Node12</title>
<polygon fill="white" stroke="#bfbfbf" points="403.384,-59 403.384,-79 446.616,-79 446.616,-59 403.384,-59"/>
<text text-anchor="middle" x="425" y="-65" font-family="Helvetica,sans-Serif" font-size="10.00">cmath</text>
</g>
<!-- Node2&#45;&gt;Node12 -->
<g id="edge11" class="edge"><title>Node2&#45;&gt;Node12</title>
<path fill="none" stroke="midnightblue" d="M302.782,-116.878C327.538,-107.383 366.429,-92.4655 393.674,-82.0153"/>
<polygon fill="midnightblue" stroke="midnightblue" points="395.054,-85.2348 403.137,-78.3857 392.547,-78.6991 395.054,-85.2348"/>
</g>
<!-- Node4 -->
<g id="node4" class="node"><title>Node4</title>
<g id="a_node4"><a xlink:href="_current_function_8h.html" target="_top" xlink:title="cinder/CurrentFunction.h">
<polygon fill="white" stroke="black" points="65.9731,-1 65.9731,-21 192.027,-21 192.027,-1 65.9731,-1"/>
<text text-anchor="middle" x="129" y="-7" font-family="Helvetica,sans-Serif" font-size="10.00">cinder/CurrentFunction.h</text>
</a>
</g>
</g>
<!-- Node3&#45;&gt;Node4 -->
<g id="edge3" class="edge"><title>Node3&#45;&gt;Node4</title>
<path fill="none" stroke="midnightblue" d="M108.128,-58.7527C111.55,-51.0873 116.522,-39.9515 120.754,-30.4708"/>
<polygon fill="midnightblue" stroke="midnightblue" points="124.068,-31.6334 124.949,-21.0752 117.676,-28.7798 124.068,-31.6334"/>
</g>
<!-- Node5 -->
<g id="node5" class="node"><title>Node5</title>
<polygon fill="white" stroke="#bfbfbf" points="-0.115723,-1 -0.115723,-21 48.1157,-21 48.1157,-1 -0.115723,-1"/>
<text text-anchor="middle" x="24" y="-7" font-family="Helvetica,sans-Serif" font-size="10.00">cassert</text>
</g>
<!-- Node3&#45;&gt;Node5 -->
<g id="edge4" class="edge"><title>Node3&#45;&gt;Node5</title>
<path fill="none" stroke="midnightblue" d="M90.7896,-58.7527C78.4411,-50.1087 59.7883,-37.0518 45.3306,-26.9314"/>
<polygon fill="midnightblue" stroke="midnightblue" points="47.164,-23.9425 36.9646,-21.0752 43.1498,-29.6772 47.164,-23.9425"/>
</g>
<!-- Node7 -->
<g id="node7" class="node"><title>Node7</title>
<polygon fill="white" stroke="#bfbfbf" points="233.549,-1 233.549,-21 278.451,-21 278.451,-1 233.549,-1"/>
<text text-anchor="middle" x="256" y="-7" font-family="Helvetica,sans-Serif" font-size="10.00">cstdint</text>
</g>
<!-- Node6&#45;&gt;Node7 -->
<g id="edge6" class="edge"><title>Node6&#45;&gt;Node7</title>
<path fill="none" stroke="midnightblue" d="M329.469,-58.7527C315.757,-50.0272 294.979,-36.8051 279.015,-26.6458"/>
<polygon fill="midnightblue" stroke="midnightblue" points="280.577,-23.4912 270.261,-21.0752 276.819,-29.3968 280.577,-23.4912"/>
</g>
<!-- Node8 -->
<g id="node8" class="node"><title>Node8</title>
<polygon fill="white" stroke="#bfbfbf" points="296.53,-1 296.53,-21 391.47,-21 391.47,-1 296.53,-1"/>
<text text-anchor="middle" x="344" y="-7" font-family="Helvetica,sans-Serif" font-size="10.00">boost/version.hpp</text>
</g>
<!-- Node6&#45;&gt;Node8 -->
<g id="edge7" class="edge"><title>Node6&#45;&gt;Node8</title>
<path fill="none" stroke="midnightblue" d="M344,-58.7527C344,-51.2504 344,-40.4238 344,-31.0781"/>
<polygon fill="midnightblue" stroke="midnightblue" points="347.5,-31.0752 344,-21.0752 340.5,-31.0752 347.5,-31.0752"/>
</g>
<!-- Node9 -->
<g id="node9" class="node"><title>Node9</title>
<polygon fill="white" stroke="#bfbfbf" points="409.621,-1 409.621,-21 542.379,-21 542.379,-1 409.621,-1"/>
<text text-anchor="middle" x="476" y="-7" font-family="Helvetica,sans-Serif" font-size="10.00">boost/checked_delete.hpp</text>
</g>
<!-- Node6&#45;&gt;Node9 -->
<g id="edge8" class="edge"><title>Node6&#45;&gt;Node9</title>
<path fill="none" stroke="midnightblue" d="M365.502,-58.878C387.172,-49.6848 420.821,-35.4095 445.295,-25.0263"/>
<polygon fill="midnightblue" stroke="midnightblue" points="446.668,-28.2457 454.507,-21.1181 443.935,-21.8016 446.668,-28.2457"/>
</g>
<!-- Node13&#45;&gt;Node6 -->
<g id="edge13" class="edge"><title>Node13&#45;&gt;Node6</title>
<path fill="none" stroke="midnightblue" d="M437.505,-116.753C419.484,-107.742 391.871,-93.9353 371.318,-83.6589"/>
<polygon fill="midnightblue" stroke="midnightblue" points="372.66,-80.4169 362.15,-79.0752 369.529,-86.6779 372.66,-80.4169"/>
</g>
<!-- Node13&#45;&gt;Node12 -->
<g id="edge14" class="edge"><title>Node13&#45;&gt;Node12</title>
<path fill="none" stroke="midnightblue" d="M450.881,-116.753C446.547,-108.924 440.21,-97.4761 434.891,-87.8679"/>
<polygon fill="midnightblue" stroke="midnightblue" points="437.929,-86.129 430.024,-79.0752 431.805,-89.5193 437.929,-86.129"/>
</g>
<!-- Node14 -->
<g id="node14" class="node"><title>Node14</title>
<polygon fill="white" stroke="#bfbfbf" points="465.113,-59 465.113,-79 508.887,-79 508.887,-59 465.113,-59"/>
<text text-anchor="middle" x="487" y="-65" font-family="Helvetica,sans-Serif" font-size="10.00">climits</text>
</g>
<!-- Node13&#45;&gt;Node14 -->
<g id="edge15" class="edge"><title>Node13&#45;&gt;Node14</title>
<path fill="none" stroke="midnightblue" d="M461.119,-116.753C465.453,-108.924 471.79,-97.4761 477.109,-87.8679"/>
<polygon fill="midnightblue" stroke="midnightblue" points="480.195,-89.5193 481.976,-79.0752 474.071,-86.129 480.195,-89.5193"/>
</g>
<!-- Node15 -->
<g id="node15" class="node"><title>Node15</title>
<polygon fill="white" stroke="#bfbfbf" points="527.049,-59 527.049,-79 566.951,-79 566.951,-59 527.049,-59"/>
<text text-anchor="middle" x="547" y="-65" font-family="Helvetica,sans-Serif" font-size="10.00">cfloat</text>
</g>
<!-- Node13&#45;&gt;Node15 -->
<g id="edge16" class="edge"><title>Node13&#45;&gt;Node15</title>
<path fill="none" stroke="midnightblue" d="M471.027,-116.753C485.338,-107.946 507.094,-94.5575 523.662,-84.3617"/>
<polygon fill="midnightblue" stroke="midnightblue" points="525.571,-87.297 532.253,-79.0752 521.902,-81.3354 525.571,-87.297"/>
</g>
<!-- Node16 -->
<g id="node16" class="node"><title>Node16</title>
<polygon fill="white" stroke="#bfbfbf" points="584.596,-59 584.596,-79 643.404,-79 643.404,-59 584.596,-59"/>
<text text-anchor="middle" x="614" y="-65" font-family="Helvetica,sans-Serif" font-size="10.00">functional</text>
</g>
<!-- Node13&#45;&gt;Node16 -->
<g id="edge17" class="edge"><title>Node13&#45;&gt;Node16</title>
<path fill="none" stroke="midnightblue" d="M481.737,-116.878C508.213,-107.494 549.628,-92.8155 579.055,-82.3857"/>
<polygon fill="midnightblue" stroke="midnightblue" points="580.28,-85.665 588.536,-79.0253 577.941,-79.0671 580.28,-85.665"/>
</g>
</g>
</svg>
        <g id="navigator" transform="translate(0 0)" fill="#404254">
                <rect fill="#f2f5e9" fill-opacity="0.5" stroke="#606060" stroke-width=".5" x="0" y="0" width="60" height="60"/>
                <use id="zoomplus" xlink:href="#zoomPlus" x="17" y="9" onmousedown="handleZoom(evt,'in')"/>
                <use id="zoomminus" xlink:href="#zoomMin" x="42" y="9" onmousedown="handleZoom(evt,'out')"/>
                <use id="reset" xlink:href="#resetDef" x="30" y="36" onmousedown="handleReset()"/>
                <g id="arrowUp" xlink:href="#dirArrow" transform="translate(30 24)" onmousedown="handlePan(0,-1)">
                  <use xlink:href="#rim" fill="#404040">
                        <set attributeName="fill" to="#808080" begin="arrowUp.mouseover" end="arrowUp.mouseout"/>
                  </use>
                  <path fill="none" stroke="white" stroke-width="1.5" d="M0,-3.0v7 M-2.5,-0.5L0,-3.0L2.5,-0.5"/>
                </g>
                <g id="arrowRight" xlink:href="#dirArrow" transform="rotate(90) translate(36 -43)" onmousedown="handlePan(1,0)">
                  <use xlink:href="#rim" fill="#404040">
                        <set attributeName="fill" to="#808080" begin="arrowRight.mouseover" end="arrowRight.mouseout"/>
                  </use>
                  <path fill="none" stroke="white" stroke-width="1.5" d="M0,-3.0v7 M-2.5,-0.5L0,-3.0L2.5,-0.5"/>
                </g>
                <g id="arrowDown" xlink:href="#dirArrow" transform="rotate(180) translate(-30 -48)" onmousedown="handlePan(0,1)">
                  <use xlink:href="#rim" fill="#404040">
                        <set attributeName="fill" to="#808080" begin="arrowDown.mouseover" end="arrowDown.mouseout"/>
                  </use>
                  <path fill="none" stroke="white" stroke-width="1.5" d="M0,-3.0v7 M-2.5,-0.5L0,-3.0L2.5,-0.5"/>
                </g>
                <g id="arrowLeft" xlink:href="#dirArrow" transform="rotate(270) translate(-36 17)" onmousedown="handlePan(-1,0)">
                  <use xlink:href="#rim" fill="#404040">
                        <set attributeName="fill" to="#808080" begin="arrowLeft.mouseover" end="arrowLeft.mouseout"/>
                  </use>
                  <path fill="none" stroke="white" stroke-width="1.5" d="M0,-3.0v7 M-2.5,-0.5L0,-3.0L2.5,-0.5"/>
                </g>
        </g>
        <svg viewBox="0 0 15 15" width="100%" height="30px" preserveAspectRatio="xMaxYMin meet">
         <g id="arrow_out" transform="scale(0.3 0.3)">
          <a xlink:href="_dsp_8cpp__incl_org.svg" target="_base">
           <rect id="button" ry="5" rx="5" y="6" x="6" height="38" width="38"
                fill="#f2f5e9" fill-opacity="0.5" stroke="#606060" stroke-width="1.0"/>
           <path id="arrow"
             d="M 11.500037,31.436501 C 11.940474,20.09759 22.043105,11.32322 32.158766,21.979434 L 37.068811,17.246167 C 37.068811,17.246167 37.088388,32 37.088388,32 L 22.160133,31.978069 C 22.160133,31.978069 26.997745,27.140456 26.997745,27.140456 C 18.528582,18.264221 13.291696,25.230495 11.500037,31.436501 z"
             style="fill:#404040;"/>
          </a>
         </g>
        </svg>
</svg>
