<?xml version="1.0" encoding="UTF-8" standalone="no"?>
<!DOCTYPE svg PUBLIC "-//W3C//DTD SVG 1.1//EN"
 "http://www.w3.org/Graphics/SVG/1.1/DTD/svg11.dtd">
<!-- Generated by graphviz version 2.30.1 (20140712.1814)
 -->
<!-- Title: include/cinder/audio/dsp/Dsp.h Pages: 1 -->
<!--zoomable 252 -->
<svg id="main" version="1.1" xmlns="http://www.w3.org/2000/svg" xmlns:xlink="http://www.w3.org/1999/xlink" xml:space="preserve" onload="init(evt)">
<style type="text/css"><![CDATA[
.edge:hover path { stroke: red; }
.edge:hover polygon { stroke: red; fill: red; }
]]></style>
<script type="text/javascript"><![CDATA[
var edges = document.getElementsByTagName('g');
if (edges && edges.length) {
  for (var i=0;i<edges.length;i++) {
    if (edges[i].id.substr(0,4)=='edge') {
      edges[i].setAttribute('class','edge');
    }
  }
}
]]></script>
        <defs>
                <circle id="rim" cx="0" cy="0" r="7"/>
                <circle id="rim2" cx="0" cy="0" r="3.5"/>
                <g id="zoomPlus">
                        <use xlink:href="#rim" fill="#404040">
                                <set attributeName="fill" to="#808080" begin="zoomplus.mouseover" end="zoomplus.mouseout"/>
                        </use>
                        <path d="M-4,0h8M0,-4v8" fill="none" stroke="white" stroke-width="1.5" pointer-events="none"/>
                </g>
                <g id="zoomMin">
                        <use xlink:href="#rim" fill="#404040">
                                <set attributeName="fill" to="#808080" begin="zoomminus.mouseover" end="zoomminus.mouseout"/>
                        </use>
                        <path d="M-4,0h8" fill="none" stroke="white" stroke-width="1.5" pointer-events="none"/>
                </g>
                <g id="dirArrow">
                        <path fill="none" stroke="white" stroke-width="1.5" d="M0,-3.0v7 M-2.5,-0.5L0,-3.0L2.5,-0.5"/>
                </g>
               <g id="resetDef">
                       <use xlink:href="#rim2" fill="#404040">
                               <set attributeName="fill" to="#808080" begin="reset.mouseover" end="reset.mouseout"/>
                       </use>
               </g>
        </defs>

<script type="text/javascript">
var viewWidth = 1941;
var viewHeight = 252;
var sectionId = 'dynsection-1';
</script>
<script xlink:href="svgpan.js"/>
<svg id="graph" class="graph">
<g id="viewport">
<title>include/cinder/audio/dsp/Dsp.h</title>
<polygon fill="white" stroke="white" points="-4,5 -4,-248 1938,-248 1938,5 -4,5"/>
<!-- Node1 -->
<g id="node1" class="node"><title>Node1</title>
<polygon fill="#bfbfbf" stroke="black" points="910.525,-211 910.525,-243 1015.48,-243 1015.48,-211 910.525,-211"/>
<text text-anchor="start" x="918.525" y="-229" font-family="Helvetica,sans-Serif" font-size="10.00">include/cinder/audio</text>
<text text-anchor="middle" x="963" y="-217" font-family="Helvetica,sans-Serif" font-size="10.00">/dsp/Dsp.h</text>
</g>
<!-- Node2 -->
<g id="node2" class="node"><title>Node2</title>
<g id="a_node2"><a xlink:href="_biquad_8h.html" target="_top" xlink:title="include/cinder/audio\l/dsp/Biquad.h">
<polygon fill="white" stroke="black" points="196.525,-141 196.525,-173 301.475,-173 301.475,-141 196.525,-141"/>
<text text-anchor="start" x="204.525" y="-159" font-family="Helvetica,sans-Serif" font-size="10.00">include/cinder/audio</text>
<text text-anchor="middle" x="249" y="-147" font-family="Helvetica,sans-Serif" font-size="10.00">/dsp/Biquad.h</text>
</a>
</g>
</g>
<!-- Node1&#45;&gt;Node2 -->
<g id="edge1" class="edge"><title>Node1&#45;&gt;Node2</title>
<path fill="none" stroke="midnightblue" d="M900.028,-224.244C783.762,-220.272 527.832,-208.119 315,-174 310.693,-173.309 306.252,-172.484 301.806,-171.578"/>
<polygon fill="midnightblue" stroke="midnightblue" points="900.057,-227.746 910.168,-224.581 900.29,-220.75 900.057,-227.746"/>
</g>
<!-- Node7 -->
<g id="node7" class="node"><title>Node7</title>
<g id="a_node7"><a xlink:href="_fft_8h.html" target="_top" xlink:title="include/cinder/audio\l/dsp/Fft.h">
<polygon fill="white" stroke="black" points="323.525,-141 323.525,-173 428.475,-173 428.475,-141 323.525,-141"/>
<text text-anchor="start" x="331.525" y="-159" font-family="Helvetica,sans-Serif" font-size="10.00">include/cinder/audio</text>
<text text-anchor="middle" x="376" y="-147" font-family="Helvetica,sans-Serif" font-size="10.00">/dsp/Fft.h</text>
</a>
</g>
</g>
<!-- Node1&#45;&gt;Node7 -->
<g id="edge6" class="edge"><title>Node1&#45;&gt;Node7</title>
<path fill="none" stroke="midnightblue" d="M900.356,-222.917C801.488,-217.353 603.491,-203.369 438,-174 434.935,-173.456 431.799,-172.84 428.644,-172.173"/>
<polygon fill="midnightblue" stroke="midnightblue" points="900.296,-226.419 910.474,-223.477 900.682,-219.43 900.296,-226.419"/>
</g>
<!-- Node10 -->
<g id="node10" class="node"><title>Node10</title>
<g id="a_node10"><a xlink:href="_monitor_node_8h.html" target="_top" xlink:title="include/cinder/audio\l/MonitorNode.h">
<polygon fill="white" stroke="black" points="446.525,-141 446.525,-173 551.475,-173 551.475,-141 446.525,-141"/>
<text text-anchor="start" x="454.525" y="-159" font-family="Helvetica,sans-Serif" font-size="10.00">include/cinder/audio</text>
<text text-anchor="middle" x="499" y="-147" font-family="Helvetica,sans-Serif" font-size="10.00">/MonitorNode.h</text>
</a>
</g>
</g>
<!-- Node1&#45;&gt;Node10 -->
<g id="edge9" class="edge"><title>Node1&#45;&gt;Node10</title>
<path fill="none" stroke="midnightblue" d="M899.983,-220.288C820.508,-212.527 679.868,-196.934 561,-174 557.944,-173.41 554.814,-172.758 551.664,-172.064"/>
<polygon fill="midnightblue" stroke="midnightblue" points="900.02,-223.808 910.311,-221.286 900.694,-216.841 900.02,-223.808"/>
</g>
<!-- Node11 -->
<g id="node11" class="node"><title>Node11</title>
<g id="a_node11"><a xlink:href="_channel_router_node_8cpp.html" target="_top" xlink:title="src/cinder/audio/Channel\lRouterNode.cpp">
<polygon fill="white" stroke="black" points="569.69,-141 569.69,-173 696.31,-173 696.31,-141 569.69,-141"/>
<text text-anchor="start" x="577.69" y="-159" font-family="Helvetica,sans-Serif" font-size="10.00">src/cinder/audio/Channel</text>
<text text-anchor="middle" x="633" y="-147" font-family="Helvetica,sans-Serif" font-size="10.00">RouterNode.cpp</text>
</a>
</g>
</g>
<!-- Node1&#45;&gt;Node11 -->
<g id="edge11" class="edge"><title>Node1&#45;&gt;Node11</title>
<path fill="none" stroke="midnightblue" d="M899.939,-213.652C847.659,-203.328 771.422,-188.072 705,-174 702.244,-173.416 699.43,-172.814 696.588,-172.202"/>
<polygon fill="midnightblue" stroke="midnightblue" points="899.578,-217.148 910.066,-215.649 900.932,-210.28 899.578,-217.148"/>
</g>
<!-- Node12 -->
<g id="node12" class="node"><title>Node12</title>
<g id="a_node12"><a xlink:href="_converter_8cpp.html" target="_top" xlink:title="src/cinder/audio/dsp\l/Converter.cpp">
<polygon fill="white" stroke="black" points="714.254,-141 714.254,-173 819.746,-173 819.746,-141 714.254,-141"/>
<text text-anchor="start" x="722.254" y="-159" font-family="Helvetica,sans-Serif" font-size="10.00">src/cinder/audio/dsp</text>
<text text-anchor="middle" x="767" y="-147" font-family="Helvetica,sans-Serif" font-size="10.00">/Converter.cpp</text>
</a>
</g>
</g>
<!-- Node1&#45;&gt;Node12 -->
<g id="edge12" class="edge"><title>Node1&#45;&gt;Node12</title>
<path fill="none" stroke="midnightblue" d="M909.672,-207.499C878.501,-196.684 839.659,-183.208 810.377,-173.049"/>
<polygon fill="midnightblue" stroke="midnightblue" points="908.906,-210.937 919.501,-210.909 911.201,-204.324 908.906,-210.937"/>
</g>
<!-- Node13 -->
<g id="node13" class="node"><title>Node13</title>
<g id="a_node13"><a xlink:href="_dsp_8cpp.html" target="_top" xlink:title="src/cinder/audio/dsp\l/Dsp.cpp">
<polygon fill="white" stroke="black" points="837.254,-141 837.254,-173 942.746,-173 942.746,-141 837.254,-141"/>
<text text-anchor="start" x="845.254" y="-159" font-family="Helvetica,sans-Serif" font-size="10.00">src/cinder/audio/dsp</text>
<text text-anchor="middle" x="890" y="-147" font-family="Helvetica,sans-Serif" font-size="10.00">/Dsp.cpp</text>
</a>
</g>
</g>
<!-- Node1&#45;&gt;Node13 -->
<g id="edge13" class="edge"><title>Node1&#45;&gt;Node13</title>
<path fill="none" stroke="midnightblue" d="M939.277,-203.901C928.439,-193.806 915.882,-182.109 906.156,-173.049"/>
<polygon fill="midnightblue" stroke="midnightblue" points="937.096,-206.654 946.799,-210.909 941.867,-201.531 937.096,-206.654"/>
</g>
<!-- Node14 -->
<g id="node14" class="node"><title>Node14</title>
<g id="a_node14"><a xlink:href="_gen_node_8cpp.html" target="_top" xlink:title="src/cinder/audio/GenNode.cpp">
<polygon fill="white" stroke="black" points="960.461,-147 960.461,-167 1111.54,-167 1111.54,-147 960.461,-147"/>
<text text-anchor="middle" x="1036" y="-153" font-family="Helvetica,sans-Serif" font-size="10.00">src/cinder/audio/GenNode.cpp</text>
</a>
</g>
</g>
<!-- Node1&#45;&gt;Node14 -->
<g id="edge14" class="edge"><title>Node1&#45;&gt;Node14</title>
<path fill="none" stroke="midnightblue" d="M986.75,-203.877C1000.2,-191.347 1016.29,-176.356 1026.33,-167.004"/>
<polygon fill="midnightblue" stroke="midnightblue" points="984.133,-201.531 979.201,-210.909 988.904,-206.654 984.133,-201.531"/>
</g>
<!-- Node15 -->
<g id="node15" class="node"><title>Node15</title>
<g id="a_node15"><a xlink:href="_node_8cpp.html" target="_top" xlink:title="src/cinder/audio/Node.cpp">
<polygon fill="white" stroke="black" points="1129.91,-147 1129.91,-167 1262.09,-167 1262.09,-147 1129.91,-147"/>
<text text-anchor="middle" x="1196" y="-153" font-family="Helvetica,sans-Serif" font-size="10.00">src/cinder/audio/Node.cpp</text>
</a>
</g>
</g>
<!-- Node1&#45;&gt;Node15 -->
<g id="edge15" class="edge"><title>Node1&#45;&gt;Node15</title>
<path fill="none" stroke="midnightblue" d="M1024.14,-208.156C1069.43,-194.938 1129.27,-177.475 1165.07,-167.027"/>
<polygon fill="midnightblue" stroke="midnightblue" points="1023.04,-204.831 1014.42,-210.993 1025,-211.551 1023.04,-204.831"/>
</g>
<!-- Node16 -->
<g id="node16" class="node"><title>Node16</title>
<g id="a_node16"><a xlink:href="_node_math_8cpp.html" target="_top" xlink:title="src/cinder/audio/NodeMath.cpp">
<polygon fill="white" stroke="black" points="1279.8,-147 1279.8,-167 1434.2,-167 1434.2,-147 1279.8,-147"/>
<text text-anchor="middle" x="1357" y="-153" font-family="Helvetica,sans-Serif" font-size="10.00">src/cinder/audio/NodeMath.cpp</text>
</a>
</g>
</g>
<!-- Node1&#45;&gt;Node16 -->
<g id="edge16" class="edge"><title>Node1&#45;&gt;Node16</title>
<path fill="none" stroke="midnightblue" d="M1025.7,-215.73C1087.97,-205.455 1186.15,-189.054 1271,-174 1283.41,-171.798 1296.81,-169.342 1309.26,-167.028"/>
<polygon fill="midnightblue" stroke="midnightblue" points="1024.93,-212.308 1015.64,-217.388 1026.07,-219.215 1024.93,-212.308"/>
</g>
<!-- Node17 -->
<g id="node17" class="node"><title>Node17</title>
<g id="a_node17"><a xlink:href="_pan_node_8cpp.html" target="_top" xlink:title="src/cinder/audio/PanNode.cpp">
<polygon fill="white" stroke="black" points="1452.02,-147 1452.02,-167 1601.98,-167 1601.98,-147 1452.02,-147"/>
<text text-anchor="middle" x="1527" y="-153" font-family="Helvetica,sans-Serif" font-size="10.00">src/cinder/audio/PanNode.cpp</text>
</a>
</g>
</g>
<!-- Node1&#45;&gt;Node17 -->
<g id="edge17" class="edge"><title>Node1&#45;&gt;Node17</title>
<path fill="none" stroke="midnightblue" d="M1025.71,-220.826C1117.56,-212.88 1293.97,-196.229 1443,-174 1456.07,-172.051 1470.2,-169.523 1483.08,-167.055"/>
<polygon fill="midnightblue" stroke="midnightblue" points="1025.4,-217.339 1015.74,-221.683 1026,-224.313 1025.4,-217.339"/>
</g>
<!-- Node18 -->
<g id="node18" class="node"><title>Node18</title>
<g id="a_node18"><a xlink:href="_param_8cpp.html" target="_top" xlink:title="src/cinder/audio/Param.cpp">
<polygon fill="white" stroke="black" points="1620.14,-147 1620.14,-167 1757.86,-167 1757.86,-147 1620.14,-147"/>
<text text-anchor="middle" x="1689" y="-153" font-family="Helvetica,sans-Serif" font-size="10.00">src/cinder/audio/Param.cpp</text>
</a>
</g>
</g>
<!-- Node1&#45;&gt;Node18 -->
<g id="edge18" class="edge"><title>Node1&#45;&gt;Node18</title>
<path fill="none" stroke="midnightblue" d="M1025.76,-223.454C1141.65,-218.197 1396.89,-204.035 1610,-174 1622.75,-172.203 1636.54,-169.632 1648.97,-167.074"/>
<polygon fill="midnightblue" stroke="midnightblue" points="1025.48,-219.962 1015.65,-223.905 1025.8,-226.955 1025.48,-219.962"/>
</g>
<!-- Node19 -->
<g id="node19" class="node"><title>Node19</title>
<g id="a_node19"><a xlink:href="_wave_table_8cpp.html" target="_top" xlink:title="src/cinder/audio/WaveTable.cpp">
<polygon fill="white" stroke="black" points="1776.31,-147 1776.31,-167 1933.69,-167 1933.69,-147 1776.31,-147"/>
<text text-anchor="middle" x="1855" y="-153" font-family="Helvetica,sans-Serif" font-size="10.00">src/cinder/audio/WaveTable.cpp</text>
</a>
</g>
</g>
<!-- Node1&#45;&gt;Node19 -->
<g id="edge19" class="edge"><title>Node1&#45;&gt;Node19</title>
<path fill="none" stroke="midnightblue" d="M1026.01,-224.345C1161.74,-220.249 1491.64,-207.436 1766,-174 1780.49,-172.234 1796.2,-169.639 1810.33,-167.051"/>
<polygon fill="midnightblue" stroke="midnightblue" points="1025.7,-220.853 1015.8,-224.648 1025.9,-227.85 1025.7,-220.853"/>
</g>
<!-- Node3 -->
<g id="node3" class="node"><title>Node3</title>
<g id="a_node3"><a xlink:href="_filter_node_8h.html" target="_top" xlink:title="include/cinder/audio\l/FilterNode.h">
<polygon fill="white" stroke="black" points="73.5249,-71 73.5249,-103 178.475,-103 178.475,-71 73.5249,-71"/>
<text text-anchor="start" x="81.5249" y="-89" font-family="Helvetica,sans-Serif" font-size="10.00">include/cinder/audio</text>
<text text-anchor="middle" x="126" y="-77" font-family="Helvetica,sans-Serif" font-size="10.00">/FilterNode.h</text>
</a>
</g>
</g>
<!-- Node2&#45;&gt;Node3 -->
<g id="edge2" class="edge"><title>Node2&#45;&gt;Node3</title>
<path fill="none" stroke="midnightblue" d="M212.708,-135.936C193.665,-125.408 170.722,-112.725 153.221,-103.049"/>
<polygon fill="midnightblue" stroke="midnightblue" points="211.257,-139.133 221.702,-140.909 214.644,-133.007 211.257,-139.133"/>
</g>
<!-- Node6 -->
<g id="node6" class="node"><title>Node6</title>
<g id="a_node6"><a xlink:href="_biquad_8cpp.html" target="_top" xlink:title="src/cinder/audio/dsp\l/Biquad.cpp">
<polygon fill="white" stroke="black" points="196.254,-71 196.254,-103 301.746,-103 301.746,-71 196.254,-71"/>
<text text-anchor="start" x="204.254" y="-89" font-family="Helvetica,sans-Serif" font-size="10.00">src/cinder/audio/dsp</text>
<text text-anchor="middle" x="249" y="-77" font-family="Helvetica,sans-Serif" font-size="10.00">/Biquad.cpp</text>
</a>
</g>
</g>
<!-- Node2&#45;&gt;Node6 -->
<g id="edge5" class="edge"><title>Node2&#45;&gt;Node6</title>
<path fill="none" stroke="midnightblue" d="M249,-130.617C249,-121.338 249,-111.141 249,-103.049"/>
<polygon fill="midnightblue" stroke="midnightblue" points="245.5,-130.909 249,-140.909 252.5,-130.909 245.5,-130.909"/>
</g>
<!-- Node4 -->
<g id="node4" class="node"><title>Node4</title>
<g id="a_node4"><a xlink:href="_node_effects_8h.html" target="_top" xlink:title="include/cinder/audio\l/NodeEffects.h">
<polygon fill="white" stroke="black" points="-0.475098,-1 -0.475098,-33 104.475,-33 104.475,-1 -0.475098,-1"/>
<text text-anchor="start" x="7.5249" y="-19" font-family="Helvetica,sans-Serif" font-size="10.00">include/cinder/audio</text>
<text text-anchor="middle" x="52" y="-7" font-family="Helvetica,sans-Serif" font-size="10.00">/NodeEffects.h</text>
</a>
</g>
</g>
<!-- Node3&#45;&gt;Node4 -->
<g id="edge3" class="edge"><title>Node3&#45;&gt;Node4</title>
<path fill="none" stroke="midnightblue" d="M101.952,-63.9014C90.9655,-53.8062 78.2361,-42.1089 68.3771,-33.0492"/>
<polygon fill="midnightblue" stroke="midnightblue" points="99.8455,-66.7195 109.577,-70.9086 104.582,-61.5652 99.8455,-66.7195"/>
</g>
<!-- Node5 -->
<g id="node5" class="node"><title>Node5</title>
<g id="a_node5"><a xlink:href="_filter_node_8cpp.html" target="_top" xlink:title="src/cinder/audio/FilterNode.cpp">
<polygon fill="white" stroke="black" points="122.801,-7 122.801,-27 277.199,-27 277.199,-7 122.801,-7"/>
<text text-anchor="middle" x="200" y="-13" font-family="Helvetica,sans-Serif" font-size="10.00">src/cinder/audio/FilterNode.cpp</text>
</a>
</g>
</g>
<!-- Node3&#45;&gt;Node5 -->
<g id="edge4" class="edge"><title>Node3&#45;&gt;Node5</title>
<path fill="none" stroke="midnightblue" d="M150.075,-63.8769C163.71,-51.3472 180.024,-36.3562 190.202,-27.0035"/>
<polygon fill="midnightblue" stroke="midnightblue" points="147.418,-61.5652 142.423,-70.9086 152.154,-66.7195 147.418,-61.5652"/>
</g>
<!-- Node8 -->
<g id="node8" class="node"><title>Node8</title>
<g id="a_node8"><a xlink:href="_fft_8cpp.html" target="_top" xlink:title="src/cinder/audio/dsp\l/Fft.cpp">
<polygon fill="white" stroke="black" points="319.254,-71 319.254,-103 424.746,-103 424.746,-71 319.254,-71"/>
<text text-anchor="start" x="327.254" y="-89" font-family="Helvetica,sans-Serif" font-size="10.00">src/cinder/audio/dsp</text>
<text text-anchor="middle" x="372" y="-77" font-family="Helvetica,sans-Serif" font-size="10.00">/Fft.cpp</text>
</a>
</g>
</g>
<!-- Node7&#45;&gt;Node8 -->
<g id="edge7" class="edge"><title>Node7&#45;&gt;Node8</title>
<path fill="none" stroke="midnightblue" d="M374.525,-130.92C373.974,-121.56 373.366,-111.229 372.885,-103.049"/>
<polygon fill="midnightblue" stroke="midnightblue" points="371.031,-131.131 375.112,-140.909 378.019,-130.72 371.031,-131.131"/>
</g>
<!-- Node9 -->
<g id="node9" class="node"><title>Node9</title>
<g id="a_node9"><a xlink:href="_monitor_node_8cpp.html" target="_top" xlink:title="src/cinder/audio/Monitor\lNode.cpp">
<polygon fill="white" stroke="black" points="442.643,-71 442.643,-103 565.357,-103 565.357,-71 442.643,-71"/>
<text text-anchor="start" x="450.643" y="-89" font-family="Helvetica,sans-Serif" font-size="10.00">src/cinder/audio/Monitor</text>
<text text-anchor="middle" x="504" y="-77" font-family="Helvetica,sans-Serif" font-size="10.00">Node.cpp</text>
</a>
</g>
</g>
<!-- Node7&#45;&gt;Node9 -->
<g id="edge8" class="edge"><title>Node7&#45;&gt;Node9</title>
<path fill="none" stroke="midnightblue" d="M413.497,-136.08C433.367,-125.524 457.377,-112.769 475.672,-103.049"/>
<polygon fill="midnightblue" stroke="midnightblue" points="411.596,-133.126 404.407,-140.909 414.881,-139.308 411.596,-133.126"/>
</g>
<!-- Node10&#45;&gt;Node9 -->
<g id="edge10" class="edge"><title>Node10&#45;&gt;Node9</title>
<path fill="none" stroke="midnightblue" d="M500.844,-130.92C501.532,-121.56 502.292,-111.229 502.893,-103.049"/>
<polygon fill="midnightblue" stroke="midnightblue" points="497.352,-130.679 500.11,-140.909 504.334,-131.192 497.352,-130.679"/>
</g>
</g>
</svg>
        <g id="navigator" transform="translate(0 0)" fill="#404254">
                <rect fill="#f2f5e9" fill-opacity="0.5" stroke="#606060" stroke-width=".5" x="0" y="0" width="60" height="60"/>
                <use id="zoomplus" xlink:href="#zoomPlus" x="17" y="9" onmousedown="handleZoom(evt,'in')"/>
                <use id="zoomminus" xlink:href="#zoomMin" x="42" y="9" onmousedown="handleZoom(evt,'out')"/>
                <use id="reset" xlink:href="#resetDef" x="30" y="36" onmousedown="handleReset()"/>
                <g id="arrowUp" xlink:href="#dirArrow" transform="translate(30 24)" onmousedown="handlePan(0,-1)">
                  <use xlink:href="#rim" fill="#404040">
                        <set attributeName="fill" to="#808080" begin="arrowUp.mouseover" end="arrowUp.mouseout"/>
                  </use>
                  <path fill="none" stroke="white" stroke-width="1.5" d="M0,-3.0v7 M-2.5,-0.5L0,-3.0L2.5,-0.5"/>
                </g>
                <g id="arrowRight" xlink:href="#dirArrow" transform="rotate(90) translate(36 -43)" onmousedown="handlePan(1,0)">
                  <use xlink:href="#rim" fill="#404040">
                        <set attributeName="fill" to="#808080" begin="arrowRight.mouseover" end="arrowRight.mouseout"/>
                  </use>
                  <path fill="none" stroke="white" stroke-width="1.5" d="M0,-3.0v7 M-2.5,-0.5L0,-3.0L2.5,-0.5"/>
                </g>
                <g id="arrowDown" xlink:href="#dirArrow" transform="rotate(180) translate(-30 -48)" onmousedown="handlePan(0,1)">
                  <use xlink:href="#rim" fill="#404040">
                        <set attributeName="fill" to="#808080" begin="arrowDown.mouseover" end="arrowDown.mouseout"/>
                  </use>
                  <path fill="none" stroke="white" stroke-width="1.5" d="M0,-3.0v7 M-2.5,-0.5L0,-3.0L2.5,-0.5"/>
                </g>
                <g id="arrowLeft" xlink:href="#dirArrow" transform="rotate(270) translate(-36 17)" onmousedown="handlePan(-1,0)">
                  <use xlink:href="#rim" fill="#404040">
                        <set attributeName="fill" to="#808080" begin="arrowLeft.mouseover" end="arrowLeft.mouseout"/>
                  </use>
                  <path fill="none" stroke="white" stroke-width="1.5" d="M0,-3.0v7 M-2.5,-0.5L0,-3.0L2.5,-0.5"/>
                </g>
        </g>
        <svg viewBox="0 0 15 15" width="100%" height="30px" preserveAspectRatio="xMaxYMin meet">
         <g id="arrow_out" transform="scale(0.3 0.3)">
          <a xlink:href="_dsp_8h__dep__incl_org.svg" target="_base">
           <rect id="button" ry="5" rx="5" y="6" x="6" height="38" width="38"
                fill="#f2f5e9" fill-opacity="0.5" stroke="#606060" stroke-width="1.0"/>
           <path id="arrow"
             d="M 11.500037,31.436501 C 11.940474,20.09759 22.043105,11.32322 32.158766,21.979434 L 37.068811,17.246167 C 37.068811,17.246167 37.088388,32 37.088388,32 L 22.160133,31.978069 C 22.160133,31.978069 26.997745,27.140456 26.997745,27.140456 C 18.528582,18.264221 13.291696,25.230495 11.500037,31.436501 z"
             style="fill:#404040;"/>
          </a>
         </g>
        </svg>
</svg>
