<?xml version="1.0" encoding="UTF-8" standalone="no"?>
<!DOCTYPE svg PUBLIC "-//W3C//DTD SVG 1.1//EN"
 "http://www.w3.org/Graphics/SVG/1.1/DTD/svg11.dtd">
<!-- Generated by graphviz version 2.30.1 (20140712.1814)
 -->
<!-- Title: include/cinder/dx/DxVbo.h Pages: 1 -->
<svg width="255pt" height="88pt"
 viewBox="0.00 0.00 255.00 88.00" xmlns="http://www.w3.org/2000/svg" xmlns:xlink="http://www.w3.org/1999/xlink">
<g id="graph0" class="graph" transform="scale(1 1) rotate(0) translate(4 84)">
<title>include/cinder/dx/DxVbo.h</title>
<polygon fill="white" stroke="white" points="-4,5 -4,-84 252,-84 252,5 -4,5"/>
<!-- Node1 -->
<g id="node1" class="node"><title>Node1</title>
<polygon fill="#bfbfbf" stroke="black" points="51.9116,-59 51.9116,-79 184.088,-79 184.088,-59 51.9116,-59"/>
<text text-anchor="middle" x="118" y="-65" font-family="Helvetica,sans-Serif" font-size="10.00">include/cinder/dx/DxVbo.h</text>
</g>
<!-- Node2 -->
<g id="node2" class="node"><title>Node2</title>
<g id="a_node2"><a xlink:href="dx_8cpp.html" target="_top" xlink:title="src/cinder/dx/dx.cpp">
<polygon fill="white" stroke="black" points="-0.462891,-1 -0.462891,-21 104.463,-21 104.463,-1 -0.462891,-1"/>
<text text-anchor="middle" x="52" y="-7" font-family="Helvetica,sans-Serif" font-size="10.00">src/cinder/dx/dx.cpp</text>
</a>
</g>
</g>
<!-- Node1&#45;&gt;Node2 -->
<g id="edge1" class="edge"><title>Node1&#45;&gt;Node2</title>
<path fill="none" stroke="midnightblue" d="M99.139,-51.9967C87.3241,-41.9719 72.5273,-29.4171 62.6958,-21.0752"/>
<polygon fill="midnightblue" stroke="midnightblue" points="97.2119,-54.9517 107.101,-58.7527 101.741,-49.6141 97.2119,-54.9517"/>
</g>
<!-- Node3 -->
<g id="node3" class="node"><title>Node3</title>
<g id="a_node3"><a xlink:href="_dx_vbo_8cpp.html" target="_top" xlink:title="src/cinder/dx/DxVbo.cpp">
<polygon fill="white" stroke="black" points="122.811,-1 122.811,-21 247.189,-21 247.189,-1 122.811,-1"/>
<text text-anchor="middle" x="185" y="-7" font-family="Helvetica,sans-Serif" font-size="10.00">src/cinder/dx/DxVbo.cpp</text>
</a>
</g>
</g>
<!-- Node1&#45;&gt;Node3 -->
<g id="edge2" class="edge"><title>Node1&#45;&gt;Node3</title>
<path fill="none" stroke="midnightblue" d="M136.798,-52.288C148.849,-42.2161 164.065,-29.4981 174.142,-21.0752"/>
<polygon fill="midnightblue" stroke="midnightblue" points="134.492,-49.6541 129.064,-58.7527 138.981,-55.0251 134.492,-49.6541"/>
</g>
</g>
</svg>
