<?xml version="1.0" encoding="UTF-8" standalone="no"?>
<!DOCTYPE svg PUBLIC "-//W3C//DTD SVG 1.1//EN"
 "http://www.w3.org/Graphics/SVG/1.1/DTD/svg11.dtd">
<!-- Generated by graphviz version 2.30.1 (20140712.1814)
 -->
<!-- Title: include/cinder/dx/DxLight.h Pages: 1 -->
<svg width="259pt" height="88pt"
 viewBox="0.00 0.00 259.00 88.00" xmlns="http://www.w3.org/2000/svg" xmlns:xlink="http://www.w3.org/1999/xlink">
<g id="graph0" class="graph" transform="scale(1 1) rotate(0) translate(4 84)">
<title>include/cinder/dx/DxLight.h</title>
<polygon fill="white" stroke="white" points="-4,5 -4,-84 256,-84 256,5 -4,5"/>
<!-- Node1 -->
<g id="node1" class="node"><title>Node1</title>
<polygon fill="#bfbfbf" stroke="black" points="50.9658,-59 50.9658,-79 187.034,-79 187.034,-59 50.9658,-59"/>
<text text-anchor="middle" x="119" y="-65" font-family="Helvetica,sans-Serif" font-size="10.00">include/cinder/dx/DxLight.h</text>
</g>
<!-- Node2 -->
<g id="node2" class="node"><title>Node2</title>
<g id="a_node2"><a xlink:href="dx_8cpp.html" target="_top" xlink:title="src/cinder/dx/dx.cpp">
<polygon fill="white" stroke="black" points="-0.462891,-1 -0.462891,-21 104.463,-21 104.463,-1 -0.462891,-1"/>
<text text-anchor="middle" x="52" y="-7" font-family="Helvetica,sans-Serif" font-size="10.00">src/cinder/dx/dx.cpp</text>
</a>
</g>
</g>
<!-- Node1&#45;&gt;Node2 -->
<g id="edge1" class="edge"><title>Node1&#45;&gt;Node2</title>
<path fill="none" stroke="midnightblue" d="M100.202,-52.288C88.1514,-42.2161 72.9352,-29.4981 62.8578,-21.0752"/>
<polygon fill="midnightblue" stroke="midnightblue" points="98.0189,-55.0251 107.936,-58.7527 102.508,-49.6541 98.0189,-55.0251"/>
</g>
<!-- Node3 -->
<g id="node3" class="node"><title>Node3</title>
<g id="a_node3"><a xlink:href="_dx_light_8cpp.html" target="_top" xlink:title="src/cinder/dx/DxLight.cpp">
<polygon fill="white" stroke="black" points="122.865,-1 122.865,-21 251.135,-21 251.135,-1 122.865,-1"/>
<text text-anchor="middle" x="187" y="-7" font-family="Helvetica,sans-Serif" font-size="10.00">src/cinder/dx/DxLight.cpp</text>
</a>
</g>
</g>
<!-- Node1&#45;&gt;Node3 -->
<g id="edge2" class="edge"><title>Node1&#45;&gt;Node3</title>
<path fill="none" stroke="midnightblue" d="M138.079,-52.288C150.309,-42.2161 165.752,-29.4981 175.98,-21.0752"/>
<polygon fill="midnightblue" stroke="midnightblue" points="135.723,-49.6939 130.229,-58.7527 140.173,-55.0974 135.723,-49.6939"/>
</g>
</g>
</svg>
