<?xml version="1.0" encoding="UTF-8" standalone="no"?>
<!DOCTYPE svg PUBLIC "-//W3C//DTD SVG 1.1//EN"
 "http://www.w3.org/Graphics/SVG/1.1/DTD/svg11.dtd">
<!-- Generated by graphviz version 2.30.1 (20140712.1814)
 -->
<!-- Title: include/cinder/dx/DxTexture.h Pages: 1 -->
<svg width="615pt" height="158pt"
 viewBox="0.00 0.00 615.00 158.00" xmlns="http://www.w3.org/2000/svg" xmlns:xlink="http://www.w3.org/1999/xlink">
<g id="graph0" class="graph" transform="scale(1 1) rotate(0) translate(4 154)">
<title>include/cinder/dx/DxTexture.h</title>
<polygon fill="white" stroke="white" points="-4,5 -4,-154 612,-154 612,5 -4,5"/>
<!-- Node1 -->
<g id="node1" class="node"><title>Node1</title>
<polygon fill="#bfbfbf" stroke="black" points="254.412,-129 254.412,-149 401.588,-149 401.588,-129 254.412,-129"/>
<text text-anchor="middle" x="328" y="-135" font-family="Helvetica,sans-Serif" font-size="10.00">include/cinder/dx/DxTexture.h</text>
</g>
<!-- Node2 -->
<g id="node2" class="node"><title>Node2</title>
<g id="a_node2"><a xlink:href="_dx_render_target_8h.html" target="_top" xlink:title="include/cinder/dx/DxRender\lTarget.h">
<polygon fill="white" stroke="black" points="19.5791,-59 19.5791,-91 158.421,-91 158.421,-59 19.5791,-59"/>
<text text-anchor="start" x="27.5791" y="-77" font-family="Helvetica,sans-Serif" font-size="10.00">include/cinder/dx/DxRender</text>
<text text-anchor="middle" x="89" y="-65" font-family="Helvetica,sans-Serif" font-size="10.00">Target.h</text>
</a>
</g>
</g>
<!-- Node1&#45;&gt;Node2 -->
<g id="edge1" class="edge"><title>Node1&#45;&gt;Node2</title>
<path fill="none" stroke="midnightblue" d="M283.355,-126.419C244.82,-116.422 188.897,-101.915 146.922,-91.0258"/>
<polygon fill="midnightblue" stroke="midnightblue" points="282.689,-129.861 293.247,-128.985 284.447,-123.086 282.689,-129.861"/>
</g>
<!-- Node4 -->
<g id="node4" class="node"><title>Node4</title>
<g id="a_node4"><a xlink:href="_dx_texture_font_8h.html" target="_top" xlink:title="include/cinder/dx/DxTexture\lFont.h">
<polygon fill="white" stroke="black" points="188.582,-59 188.582,-91 327.418,-91 327.418,-59 188.582,-59"/>
<text text-anchor="start" x="196.582" y="-77" font-family="Helvetica,sans-Serif" font-size="10.00">include/cinder/dx/DxTexture</text>
<text text-anchor="middle" x="258" y="-65" font-family="Helvetica,sans-Serif" font-size="10.00">Font.h</text>
</a>
</g>
</g>
<!-- Node1&#45;&gt;Node4 -->
<g id="edge3" class="edge"><title>Node1&#45;&gt;Node4</title>
<path fill="none" stroke="midnightblue" d="M310.109,-122.153C299.365,-112.638 285.77,-100.596 275.16,-91.1992"/>
<polygon fill="midnightblue" stroke="midnightblue" points="307.865,-124.841 317.671,-128.852 312.506,-119.601 307.865,-124.841"/>
</g>
<!-- Node6 -->
<g id="node6" class="node"><title>Node6</title>
<g id="a_node6"><a xlink:href="dx_8cpp.html" target="_top" xlink:title="src/cinder/dx/dx.cpp">
<polygon fill="white" stroke="black" points="345.537,-65 345.537,-85 450.463,-85 450.463,-65 345.537,-65"/>
<text text-anchor="middle" x="398" y="-71" font-family="Helvetica,sans-Serif" font-size="10.00">src/cinder/dx/dx.cpp</text>
</a>
</g>
</g>
<!-- Node1&#45;&gt;Node6 -->
<g id="edge5" class="edge"><title>Node1&#45;&gt;Node6</title>
<path fill="none" stroke="midnightblue" d="M345.904,-122.142C359.122,-110.435 376.652,-94.9082 387.629,-85.1858"/>
<polygon fill="midnightblue" stroke="midnightblue" points="343.494,-119.601 338.329,-128.852 348.135,-124.841 343.494,-119.601"/>
</g>
<!-- Node7 -->
<g id="node7" class="node"><title>Node7</title>
<g id="a_node7"><a xlink:href="_dx_texture_8cpp.html" target="_top" xlink:title="src/cinder/dx/DxTexture.cpp">
<polygon fill="white" stroke="black" points="468.311,-65 468.311,-85 607.689,-85 607.689,-65 468.311,-65"/>
<text text-anchor="middle" x="538" y="-71" font-family="Helvetica,sans-Serif" font-size="10.00">src/cinder/dx/DxTexture.cpp</text>
</a>
</g>
</g>
<!-- Node1&#45;&gt;Node7 -->
<g id="edge6" class="edge"><title>Node1&#45;&gt;Node7</title>
<path fill="none" stroke="midnightblue" d="M368.378,-126.079C408.99,-114.089 470.707,-95.8676 507.427,-85.0262"/>
<polygon fill="midnightblue" stroke="midnightblue" points="367.135,-122.796 358.536,-128.985 369.118,-129.51 367.135,-122.796"/>
</g>
<!-- Node3 -->
<g id="node3" class="node"><title>Node3</title>
<g id="a_node3"><a xlink:href="_dx_render_target_8cpp.html" target="_top" xlink:title="src/cinder/dx/DxRenderTarget.cpp">
<polygon fill="white" stroke="black" points="-0.588379,-1 -0.588379,-21 166.588,-21 166.588,-1 -0.588379,-1"/>
<text text-anchor="middle" x="83" y="-7" font-family="Helvetica,sans-Serif" font-size="10.00">src/cinder/dx/DxRenderTarget.cpp</text>
</a>
</g>
</g>
<!-- Node2&#45;&gt;Node3 -->
<g id="edge2" class="edge"><title>Node2&#45;&gt;Node3</title>
<path fill="none" stroke="midnightblue" d="M86.5731,-48.922C85.6295,-39.1719 84.6074,-28.6099 83.8991,-21.2904"/>
<polygon fill="midnightblue" stroke="midnightblue" points="83.1005,-49.3752 87.5476,-58.9915 90.068,-48.7009 83.1005,-49.3752"/>
</g>
<!-- Node5 -->
<g id="node5" class="node"><title>Node5</title>
<g id="a_node5"><a xlink:href="_dx_texture_font_8cpp.html" target="_top" xlink:title="src/cinder/dx/DxTextureFont.cpp">
<polygon fill="white" stroke="black" points="184.306,-1 184.306,-21 343.694,-21 343.694,-1 184.306,-1"/>
<text text-anchor="middle" x="264" y="-7" font-family="Helvetica,sans-Serif" font-size="10.00">src/cinder/dx/DxTextureFont.cpp</text>
</a>
</g>
</g>
<!-- Node4&#45;&gt;Node5 -->
<g id="edge4" class="edge"><title>Node4&#45;&gt;Node5</title>
<path fill="none" stroke="midnightblue" d="M260.427,-48.922C261.37,-39.1719 262.393,-28.6099 263.101,-21.2904"/>
<polygon fill="midnightblue" stroke="midnightblue" points="256.932,-48.7009 259.452,-58.9915 263.899,-49.3752 256.932,-48.7009"/>
</g>
</g>
</svg>
