<?xml version="1.0" encoding="UTF-8" standalone="no"?>
<!DOCTYPE svg PUBLIC "-//W3C//DTD SVG 1.1//EN"
 "http://www.w3.org/Graphics/SVG/1.1/DTD/svg11.dtd">
<!-- Generated by graphviz version 2.30.1 (20140712.1814)
 -->
<!-- Title: src/cinder/ip/EdgeDetect.cpp Pages: 1 -->
<svg width="725pt" height="506pt"
 viewBox="0.00 0.00 724.94 506.00" xmlns="http://www.w3.org/2000/svg" xmlns:xlink="http://www.w3.org/1999/xlink">
<g id="graph0" class="graph" transform="scale(1 1) rotate(0) translate(4 502)">
<title>src/cinder/ip/EdgeDetect.cpp</title>
<polygon fill="white" stroke="white" points="-4,5 -4,-502 721.938,-502 721.938,5 -4,5"/>
<!-- Node1 -->
<g id="node1" class="node"><title>Node1</title>
<polygon fill="#bfbfbf" stroke="black" points="273.079,-477 273.079,-497 416.921,-497 416.921,-477 273.079,-477"/>
<text text-anchor="middle" x="345" y="-483" font-family="Helvetica,sans-Serif" font-size="10.00">src/cinder/ip/EdgeDetect.cpp</text>
</g>
<!-- Node2 -->
<g id="node2" class="node"><title>Node2</title>
<g id="a_node2"><a xlink:href="_edge_detect_8h.html" target="_top" xlink:title="cinder/ip/EdgeDetect.h">
<polygon fill="white" stroke="black" points="330.414,-413 330.414,-433 447.586,-433 447.586,-413 330.414,-413"/>
<text text-anchor="middle" x="389" y="-419" font-family="Helvetica,sans-Serif" font-size="10.00">cinder/ip/EdgeDetect.h</text>
</a>
</g>
</g>
<!-- Node1&#45;&gt;Node2 -->
<g id="edge1" class="edge"><title>Node1&#45;&gt;Node2</title>
<path fill="none" stroke="midnightblue" d="M351.492,-476.852C358.057,-467.602 368.368,-453.072 376.52,-441.586"/>
<polygon fill="midnightblue" stroke="midnightblue" points="379.548,-443.367 382.481,-433.186 373.839,-439.315 379.548,-443.367"/>
</g>
<!-- Node3 -->
<g id="node3" class="node"><title>Node3</title>
<g id="a_node3"><a xlink:href="_surface_8h.html" target="_top" xlink:title="cinder/Surface.h">
<polygon fill="white" stroke="black" points="344.591,-349 344.591,-369 433.409,-369 433.409,-349 344.591,-349"/>
<text text-anchor="middle" x="389" y="-355" font-family="Helvetica,sans-Serif" font-size="10.00">cinder/Surface.h</text>
</a>
</g>
</g>
<!-- Node1&#45;&gt;Node3 -->
<g id="edge38" class="edge"><title>Node1&#45;&gt;Node3</title>
<path fill="none" stroke="midnightblue" d="M337.761,-476.67C326.754,-461.259 308.354,-429.822 321,-406 328.548,-391.782 342.67,-381.156 356.098,-373.72"/>
<polygon fill="midnightblue" stroke="midnightblue" points="357.878,-376.741 365.193,-369.077 354.695,-370.507 357.878,-376.741"/>
</g>
<!-- Node15 -->
<g id="node15" class="node"><title>Node15</title>
<g id="a_node15"><a xlink:href="_cinder_math_8h.html" target="_top" xlink:title="cinder/CinderMath.h">
<polygon fill="white" stroke="black" points="35.978,-117 35.978,-137 142.022,-137 142.022,-117 35.978,-117"/>
<text text-anchor="middle" x="89" y="-123" font-family="Helvetica,sans-Serif" font-size="10.00">cinder/CinderMath.h</text>
</a>
</g>
</g>
<!-- Node1&#45;&gt;Node15 -->
<g id="edge39" class="edge"><title>Node1&#45;&gt;Node15</title>
<path fill="none" stroke="midnightblue" d="M273.008,-480.81C197.29,-470.969 89,-442.478 89,-360 89,-360 89,-360 89,-242 89,-208.798 89,-170.157 89,-147.462"/>
<polygon fill="midnightblue" stroke="midnightblue" points="92.5001,-147.162 89,-137.162 85.5001,-147.162 92.5001,-147.162"/>
</g>
<!-- Node27 -->
<g id="node27" class="node"><title>Node27</title>
<polygon fill="white" stroke="#bfbfbf" points="465.2,-407 465.2,-439 566.8,-439 566.8,-407 465.2,-407"/>
<text text-anchor="start" x="473.2" y="-425" font-family="Helvetica,sans-Serif" font-size="10.00">boost/preprocessor</text>
<text text-anchor="middle" x="516" y="-413" font-family="Helvetica,sans-Serif" font-size="10.00">/seq.hpp</text>
</g>
<!-- Node1&#45;&gt;Node27 -->
<g id="edge40" class="edge"><title>Node1&#45;&gt;Node27</title>
<path fill="none" stroke="midnightblue" d="M369.865,-476.985C394.713,-467.975 433.638,-453.862 465.068,-442.467"/>
<polygon fill="midnightblue" stroke="midnightblue" points="466.35,-445.725 474.558,-439.026 463.964,-439.144 466.35,-445.725"/>
</g>
<!-- Node2&#45;&gt;Node3 -->
<g id="edge2" class="edge"><title>Node2&#45;&gt;Node3</title>
<path fill="none" stroke="midnightblue" d="M389,-412.852C389,-404.06 389,-390.498 389,-379.313"/>
<polygon fill="midnightblue" stroke="midnightblue" points="392.5,-379.186 389,-369.186 385.5,-379.186 392.5,-379.186"/>
</g>
<!-- Node4 -->
<g id="node4" class="node"><title>Node4</title>
<g id="a_node4"><a xlink:href="_cinder_8h.html" target="_top" xlink:title="cinder/Cinder.h">
<polygon fill="white" stroke="black" points="256.367,-59 256.367,-79 339.633,-79 339.633,-59 256.367,-59"/>
<text text-anchor="middle" x="298" y="-65" font-family="Helvetica,sans-Serif" font-size="10.00">cinder/Cinder.h</text>
</a>
</g>
</g>
<!-- Node3&#45;&gt;Node4 -->
<g id="edge3" class="edge"><title>Node3&#45;&gt;Node4</title>
<path fill="none" stroke="midnightblue" d="M433.487,-357.062C508.962,-354.561 657.652,-345.413 696,-312 719.751,-291.305 716,-275.502 716,-244 716,-244 716,-244 716,-184 716,-142.497 688.956,-134.887 652,-116 600.414,-89.6367 435.38,-77.2463 350.108,-72.4804"/>
<polygon fill="midnightblue" stroke="midnightblue" points="350.044,-68.9718 339.868,-71.9234 349.663,-75.9615 350.044,-68.9718"/>
</g>
<!-- Node8 -->
<g id="node8" class="node"><title>Node8</title>
<g id="a_node8"><a xlink:href="_area_8h.html" target="_top" xlink:title="cinder/Area.h">
<polygon fill="white" stroke="black" points="418.261,-233 418.261,-253 493.739,-253 493.739,-233 418.261,-233"/>
<text text-anchor="middle" x="456" y="-239" font-family="Helvetica,sans-Serif" font-size="10.00">cinder/Area.h</text>
</a>
</g>
</g>
<!-- Node3&#45;&gt;Node8 -->
<g id="edge7" class="edge"><title>Node3&#45;&gt;Node8</title>
<path fill="none" stroke="midnightblue" d="M394.483,-348.671C405.629,-329.705 431.098,-286.371 445.526,-261.822"/>
<polygon fill="midnightblue" stroke="midnightblue" points="448.579,-263.534 450.629,-253.139 442.544,-259.987 448.579,-263.534"/>
</g>
<!-- Node21 -->
<g id="node21" class="node"><title>Node21</title>
<g id="a_node21"><a xlink:href="_channel_8h.html" target="_top" xlink:title="cinder/Channel.h">
<polygon fill="white" stroke="black" points="306.197,-291 306.197,-311 397.803,-311 397.803,-291 306.197,-291"/>
<text text-anchor="middle" x="352" y="-297" font-family="Helvetica,sans-Serif" font-size="10.00">cinder/Channel.h</text>
</a>
</g>
</g>
<!-- Node3&#45;&gt;Node21 -->
<g id="edge24" class="edge"><title>Node3&#45;&gt;Node21</title>
<path fill="none" stroke="midnightblue" d="M382.89,-348.753C377.664,-340.843 369.996,-329.237 363.608,-319.568"/>
<polygon fill="midnightblue" stroke="midnightblue" points="366.429,-317.489 357.996,-311.075 360.589,-321.348 366.429,-317.489"/>
</g>
<!-- Node22 -->
<g id="node22" class="node"><title>Node22</title>
<g id="a_node22"><a xlink:href="_chan_traits_8h.html" target="_top" xlink:title="cinder/ChanTraits.h">
<polygon fill="white" stroke="black" points="192.553,-175 192.553,-195 295.447,-195 295.447,-175 192.553,-175"/>
<text text-anchor="middle" x="244" y="-181" font-family="Helvetica,sans-Serif" font-size="10.00">cinder/ChanTraits.h</text>
</a>
</g>
</g>
<!-- Node3&#45;&gt;Node22 -->
<g id="edge27" class="edge"><title>Node3&#45;&gt;Node22</title>
<path fill="none" stroke="midnightblue" d="M358.684,-348.997C338.896,-341.775 313.724,-329.856 297,-312 281.836,-295.809 260.553,-236.066 250.177,-205.018"/>
<polygon fill="midnightblue" stroke="midnightblue" points="253.445,-203.752 246.989,-195.351 246.797,-205.944 253.445,-203.752"/>
</g>
<!-- Node23 -->
<g id="node23" class="node"><title>Node23</title>
<g id="a_node23"><a xlink:href="_color_8h.html" target="_top" xlink:title="cinder/Color.h">
<polygon fill="white" stroke="black" points="172.148,-233 172.148,-253 249.852,-253 249.852,-233 172.148,-233"/>
<text text-anchor="middle" x="211" y="-239" font-family="Helvetica,sans-Serif" font-size="10.00">cinder/Color.h</text>
</a>
</g>
</g>
<!-- Node3&#45;&gt;Node23 -->
<g id="edge29" class="edge"><title>Node3&#45;&gt;Node23</title>
<path fill="none" stroke="midnightblue" d="M347.653,-348.987C321.854,-341.932 288.932,-330.204 264,-312 245.754,-298.678 230.599,-277.426 221.234,-262.227"/>
<polygon fill="midnightblue" stroke="midnightblue" points="224.037,-260.091 215.941,-253.257 218.008,-263.648 224.037,-260.091"/>
</g>
<!-- Node24 -->
<g id="node24" class="node"><title>Node24</title>
<g id="a_node24"><a xlink:href="_filesystem_8h.html" target="_top" xlink:title="cinder/Filesystem.h">
<polygon fill="white" stroke="black" points="453.931,-291 453.931,-311 556.069,-311 556.069,-291 453.931,-291"/>
<text text-anchor="middle" x="505" y="-297" font-family="Helvetica,sans-Serif" font-size="10.00">cinder/Filesystem.h</text>
</a>
</g>
</g>
<!-- Node3&#45;&gt;Node24 -->
<g id="edge34" class="edge"><title>Node3&#45;&gt;Node24</title>
<path fill="none" stroke="midnightblue" d="M407.896,-348.878C426.602,-339.847 455.466,-325.913 476.868,-315.581"/>
<polygon fill="midnightblue" stroke="midnightblue" points="478.629,-318.618 486.113,-311.118 475.585,-312.314 478.629,-318.618"/>
</g>
<!-- Node26 -->
<g id="node26" class="node"><title>Node26</title>
<polygon fill="white" stroke="#bfbfbf" points="574.357,-291 574.357,-311 687.643,-311 687.643,-291 574.357,-291"/>
<text text-anchor="middle" x="631" y="-297" font-family="Helvetica,sans-Serif" font-size="10.00">boost/logic/tribool.hpp</text>
</g>
<!-- Node3&#45;&gt;Node26 -->
<g id="edge37" class="edge"><title>Node3&#45;&gt;Node26</title>
<path fill="none" stroke="midnightblue" d="M428.15,-348.94C470.062,-339.242 536.637,-323.836 581.998,-313.339"/>
<polygon fill="midnightblue" stroke="midnightblue" points="582.952,-316.711 591.906,-311.047 581.374,-309.891 582.952,-316.711"/>
</g>
<!-- Node5 -->
<g id="node5" class="node"><title>Node5</title>
<polygon fill="white" stroke="#bfbfbf" points="187.549,-1 187.549,-21 232.451,-21 232.451,-1 187.549,-1"/>
<text text-anchor="middle" x="210" y="-7" font-family="Helvetica,sans-Serif" font-size="10.00">cstdint</text>
</g>
<!-- Node4&#45;&gt;Node5 -->
<g id="edge4" class="edge"><title>Node4&#45;&gt;Node5</title>
<path fill="none" stroke="midnightblue" d="M283.469,-58.7527C269.757,-50.0272 248.979,-36.8051 233.015,-26.6458"/>
<polygon fill="midnightblue" stroke="midnightblue" points="234.577,-23.4912 224.261,-21.0752 230.819,-29.3968 234.577,-23.4912"/>
</g>
<!-- Node6 -->
<g id="node6" class="node"><title>Node6</title>
<polygon fill="white" stroke="#bfbfbf" points="250.53,-1 250.53,-21 345.47,-21 345.47,-1 250.53,-1"/>
<text text-anchor="middle" x="298" y="-7" font-family="Helvetica,sans-Serif" font-size="10.00">boost/version.hpp</text>
</g>
<!-- Node4&#45;&gt;Node6 -->
<g id="edge5" class="edge"><title>Node4&#45;&gt;Node6</title>
<path fill="none" stroke="midnightblue" d="M298,-58.7527C298,-51.2504 298,-40.4238 298,-31.0781"/>
<polygon fill="midnightblue" stroke="midnightblue" points="301.5,-31.0752 298,-21.0752 294.5,-31.0752 301.5,-31.0752"/>
</g>
<!-- Node7 -->
<g id="node7" class="node"><title>Node7</title>
<polygon fill="white" stroke="#bfbfbf" points="363.621,-1 363.621,-21 496.379,-21 496.379,-1 363.621,-1"/>
<text text-anchor="middle" x="430" y="-7" font-family="Helvetica,sans-Serif" font-size="10.00">boost/checked_delete.hpp</text>
</g>
<!-- Node4&#45;&gt;Node7 -->
<g id="edge6" class="edge"><title>Node4&#45;&gt;Node7</title>
<path fill="none" stroke="midnightblue" d="M319.502,-58.878C341.172,-49.6848 374.821,-35.4095 399.295,-25.0263"/>
<polygon fill="midnightblue" stroke="midnightblue" points="400.668,-28.2457 408.507,-21.1181 397.935,-21.8016 400.668,-28.2457"/>
</g>
<!-- Node8&#45;&gt;Node4 -->
<g id="edge8" class="edge"><title>Node8&#45;&gt;Node4</title>
<path fill="none" stroke="midnightblue" d="M487.627,-232.918C519.198,-223.378 564.979,-208.106 579,-196 607.985,-170.973 636.032,-144.98 611,-116 577.928,-77.7129 430.358,-70.7091 350.213,-69.7914"/>
<polygon fill="midnightblue" stroke="midnightblue" points="349.872,-66.2884 339.842,-69.7023 349.811,-73.2881 349.872,-66.2884"/>
</g>
<!-- Node9 -->
<g id="node9" class="node"><title>Node9</title>
<g id="a_node9"><a xlink:href="_vector_8h.html" target="_top" xlink:title="cinder/Vector.h">
<polygon fill="white" stroke="black" points="350.919,-175 350.919,-195 433.081,-195 433.081,-175 350.919,-175"/>
<text text-anchor="middle" x="392" y="-181" font-family="Helvetica,sans-Serif" font-size="10.00">cinder/Vector.h</text>
</a>
</g>
</g>
<!-- Node8&#45;&gt;Node9 -->
<g id="edge9" class="edge"><title>Node8&#45;&gt;Node9</title>
<path fill="none" stroke="midnightblue" d="M445.432,-232.753C435.832,-224.353 421.471,-211.787 410.054,-201.798"/>
<polygon fill="midnightblue" stroke="midnightblue" points="412.202,-199.026 402.372,-195.075 407.593,-204.294 412.202,-199.026"/>
</g>
<!-- Node12 -->
<g id="node12" class="node"><title>Node12</title>
<polygon fill="white" stroke="#bfbfbf" points="547.828,-117 547.828,-137 602.172,-137 602.172,-117 547.828,-117"/>
<text text-anchor="middle" x="575" y="-123" font-family="Helvetica,sans-Serif" font-size="10.00">iostream</text>
</g>
<!-- Node8&#45;&gt;Node12 -->
<g id="edge21" class="edge"><title>Node8&#45;&gt;Node12</title>
<path fill="none" stroke="midnightblue" d="M493.744,-234.025C515.86,-227.442 542.589,-215.847 559,-196 570.332,-182.296 573.932,-161.983 574.939,-147.127"/>
<polygon fill="midnightblue" stroke="midnightblue" points="578.441,-147.145 575.29,-137.03 571.445,-146.903 578.441,-147.145"/>
</g>
<!-- Node19 -->
<g id="node19" class="node"><title>Node19</title>
<polygon fill="white" stroke="#bfbfbf" points="450.608,-175 450.608,-195 489.392,-195 489.392,-175 450.608,-175"/>
<text text-anchor="middle" x="470" y="-181" font-family="Helvetica,sans-Serif" font-size="10.00">utility</text>
</g>
<!-- Node8&#45;&gt;Node19 -->
<g id="edge22" class="edge"><title>Node8&#45;&gt;Node19</title>
<path fill="none" stroke="midnightblue" d="M458.312,-232.753C460.187,-225.25 462.894,-214.424 465.23,-205.078"/>
<polygon fill="midnightblue" stroke="midnightblue" points="468.701,-205.626 467.731,-195.075 461.91,-203.928 468.701,-205.626"/>
</g>
<!-- Node20 -->
<g id="node20" class="node"><title>Node20</title>
<polygon fill="white" stroke="#bfbfbf" points="507.384,-175 507.384,-195 550.616,-195 550.616,-175 507.384,-175"/>
<text text-anchor="middle" x="529" y="-181" font-family="Helvetica,sans-Serif" font-size="10.00">vector</text>
</g>
<!-- Node8&#45;&gt;Node20 -->
<g id="edge23" class="edge"><title>Node8&#45;&gt;Node20</title>
<path fill="none" stroke="midnightblue" d="M468.054,-232.753C479.216,-224.19 496.023,-211.298 509.161,-201.219"/>
<polygon fill="midnightblue" stroke="midnightblue" points="511.366,-203.939 517.17,-195.075 507.105,-198.385 511.366,-203.939"/>
</g>
<!-- Node10 -->
<g id="node10" class="node"><title>Node10</title>
<polygon fill="white" stroke="#bfbfbf" points="195.384,-59 195.384,-79 238.616,-79 238.616,-59 195.384,-59"/>
<text text-anchor="middle" x="217" y="-65" font-family="Helvetica,sans-Serif" font-size="10.00">cmath</text>
</g>
<!-- Node9&#45;&gt;Node10 -->
<g id="edge10" class="edge"><title>Node9&#45;&gt;Node10</title>
<path fill="none" stroke="midnightblue" d="M377.975,-174.864C347.768,-155.186 276.329,-108.649 239.628,-84.7406"/>
<polygon fill="midnightblue" stroke="midnightblue" points="241.381,-81.7056 231.092,-79.1799 237.561,-87.5709 241.381,-81.7056"/>
</g>
<!-- Node11 -->
<g id="node11" class="node"><title>Node11</title>
<polygon fill="white" stroke="#bfbfbf" points="360.273,-117 360.273,-137 405.727,-137 405.727,-117 360.273,-117"/>
<text text-anchor="middle" x="383" y="-123" font-family="Helvetica,sans-Serif" font-size="10.00">cstring</text>
</g>
<!-- Node9&#45;&gt;Node11 -->
<g id="edge11" class="edge"><title>Node9&#45;&gt;Node11</title>
<path fill="none" stroke="midnightblue" d="M390.514,-174.753C389.308,-167.25 387.568,-156.424 386.066,-147.078"/>
<polygon fill="midnightblue" stroke="midnightblue" points="389.501,-146.393 384.459,-137.075 382.59,-147.504 389.501,-146.393"/>
</g>
<!-- Node9&#45;&gt;Node12 -->
<g id="edge12" class="edge"><title>Node9&#45;&gt;Node12</title>
<path fill="none" stroke="midnightblue" d="M421.809,-174.878C453.519,-165.174 503.732,-149.809 537.961,-139.334"/>
<polygon fill="midnightblue" stroke="midnightblue" points="539.059,-142.659 547.597,-136.386 537.01,-135.965 539.059,-142.659"/>
</g>
<!-- Node13 -->
<g id="node13" class="node"><title>Node13</title>
<polygon fill="white" stroke="#bfbfbf" points="423.884,-117 423.884,-137 472.116,-137 472.116,-117 423.884,-117"/>
<text text-anchor="middle" x="448" y="-123" font-family="Helvetica,sans-Serif" font-size="10.00">cassert</text>
</g>
<!-- Node9&#45;&gt;Node13 -->
<g id="edge13" class="edge"><title>Node9&#45;&gt;Node13</title>
<path fill="none" stroke="midnightblue" d="M401.247,-174.753C409.484,-166.516 421.726,-154.274 431.618,-144.382"/>
<polygon fill="midnightblue" stroke="midnightblue" points="434.329,-146.621 438.925,-137.075 429.379,-141.671 434.329,-146.621"/>
</g>
<!-- Node14 -->
<g id="node14" class="node"><title>Node14</title>
<polygon fill="white" stroke="#bfbfbf" points="490.613,-117 490.613,-137 529.387,-137 529.387,-117 490.613,-117"/>
<text text-anchor="middle" x="510" y="-123" font-family="Helvetica,sans-Serif" font-size="10.00">limits</text>
</g>
<!-- Node9&#45;&gt;Node14 -->
<g id="edge14" class="edge"><title>Node9&#45;&gt;Node14</title>
<path fill="none" stroke="midnightblue" d="M411.221,-174.878C430.336,-165.807 459.876,-151.788 481.676,-141.442"/>
<polygon fill="midnightblue" stroke="midnightblue" points="483.253,-144.568 490.787,-137.118 480.252,-138.244 483.253,-144.568"/>
</g>
<!-- Node9&#45;&gt;Node15 -->
<g id="edge15" class="edge"><title>Node9&#45;&gt;Node15</title>
<path fill="none" stroke="midnightblue" d="M350.821,-176.389C298.432,-166.707 207.603,-149.92 147.9,-138.886"/>
<polygon fill="midnightblue" stroke="midnightblue" points="148.334,-135.407 137.864,-137.031 147.061,-142.29 148.334,-135.407"/>
</g>
<!-- Node15&#45;&gt;Node4 -->
<g id="edge16" class="edge"><title>Node15&#45;&gt;Node4</title>
<path fill="none" stroke="midnightblue" d="M123.045,-116.878C158.828,-107.29 215.241,-92.1748 254.291,-81.7116"/>
<polygon fill="midnightblue" stroke="midnightblue" points="255.563,-84.9943 264.316,-79.0253 253.751,-78.2328 255.563,-84.9943"/>
</g>
<!-- Node15&#45;&gt;Node10 -->
<g id="edge17" class="edge"><title>Node15&#45;&gt;Node10</title>
<path fill="none" stroke="midnightblue" d="M109.85,-116.878C130.77,-107.725 163.204,-93.5357 186.91,-83.1643"/>
<polygon fill="midnightblue" stroke="midnightblue" points="188.4,-86.3329 196.159,-79.1181 185.594,-79.9198 188.4,-86.3329"/>
</g>
<!-- Node16 -->
<g id="node16" class="node"><title>Node16</title>
<polygon fill="white" stroke="#bfbfbf" points="133.113,-59 133.113,-79 176.887,-79 176.887,-59 133.113,-59"/>
<text text-anchor="middle" x="155" y="-65" font-family="Helvetica,sans-Serif" font-size="10.00">climits</text>
</g>
<!-- Node15&#45;&gt;Node16 -->
<g id="edge18" class="edge"><title>Node15&#45;&gt;Node16</title>
<path fill="none" stroke="midnightblue" d="M99.8986,-116.753C109.798,-108.353 124.608,-95.7874 136.381,-85.7976"/>
<polygon fill="midnightblue" stroke="midnightblue" points="138.944,-88.2138 144.304,-79.0752 134.415,-82.8762 138.944,-88.2138"/>
</g>
<!-- Node17 -->
<g id="node17" class="node"><title>Node17</title>
<polygon fill="white" stroke="#bfbfbf" points="-0.950684,-59 -0.950684,-79 38.9507,-79 38.9507,-59 -0.950684,-59"/>
<text text-anchor="middle" x="19" y="-65" font-family="Helvetica,sans-Serif" font-size="10.00">cfloat</text>
</g>
<!-- Node15&#45;&gt;Node17 -->
<g id="edge19" class="edge"><title>Node15&#45;&gt;Node17</title>
<path fill="none" stroke="midnightblue" d="M77.4409,-116.753C66.8398,-108.272 50.9287,-95.543 38.3842,-85.5073"/>
<polygon fill="midnightblue" stroke="midnightblue" points="40.3391,-82.5891 30.344,-79.0752 35.9663,-88.0552 40.3391,-82.5891"/>
</g>
<!-- Node18 -->
<g id="node18" class="node"><title>Node18</title>
<polygon fill="white" stroke="#bfbfbf" points="56.5962,-59 56.5962,-79 115.404,-79 115.404,-59 56.5962,-59"/>
<text text-anchor="middle" x="86" y="-65" font-family="Helvetica,sans-Serif" font-size="10.00">functional</text>
</g>
<!-- Node15&#45;&gt;Node18 -->
<g id="edge20" class="edge"><title>Node15&#45;&gt;Node18</title>
<path fill="none" stroke="midnightblue" d="M88.5046,-116.753C88.1027,-109.25 87.5227,-98.4238 87.022,-89.0781"/>
<polygon fill="midnightblue" stroke="midnightblue" points="90.5162,-88.8736 86.4862,-79.0752 83.5262,-89.2481 90.5162,-88.8736"/>
</g>
<!-- Node21&#45;&gt;Node4 -->
<g id="edge25" class="edge"><title>Node21&#45;&gt;Node4</title>
<path fill="none" stroke="midnightblue" d="M349.883,-290.984C341.904,-256.998 313.539,-136.186 302.47,-89.0397"/>
<polygon fill="midnightblue" stroke="midnightblue" points="305.854,-88.1391 300.161,-79.2039 299.039,-89.7392 305.854,-88.1391"/>
</g>
<!-- Node21&#45;&gt;Node8 -->
<g id="edge26" class="edge"><title>Node21&#45;&gt;Node8</title>
<path fill="none" stroke="midnightblue" d="M369.173,-290.753C385.757,-281.823 411.085,-268.185 430.114,-257.939"/>
<polygon fill="midnightblue" stroke="midnightblue" points="432.001,-260.898 439.146,-253.075 428.682,-254.735 432.001,-260.898"/>
</g>
<!-- Node22&#45;&gt;Node4 -->
<g id="edge28" class="edge"><title>Node22&#45;&gt;Node4</title>
<path fill="none" stroke="midnightblue" d="M248.419,-174.671C257.323,-155.873 277.567,-113.136 289.247,-88.478"/>
<polygon fill="midnightblue" stroke="midnightblue" points="292.553,-89.6751 293.671,-79.1394 286.227,-86.6785 292.553,-89.6751"/>
</g>
<!-- Node23&#45;&gt;Node4 -->
<g id="edge30" class="edge"><title>Node23&#45;&gt;Node4</title>
<path fill="none" stroke="midnightblue" d="M202.465,-232.669C191.491,-219.48 174.871,-194.685 184,-174 201.979,-133.263 244.667,-101.583 272.401,-84.3727"/>
<polygon fill="midnightblue" stroke="midnightblue" points="274.407,-87.25 281.175,-79.0984 270.801,-81.2504 274.407,-87.25"/>
</g>
<!-- Node23&#45;&gt;Node22 -->
<g id="edge31" class="edge"><title>Node23&#45;&gt;Node22</title>
<path fill="none" stroke="midnightblue" d="M216.449,-232.753C221.063,-224.924 227.809,-213.476 233.471,-203.868"/>
<polygon fill="midnightblue" stroke="midnightblue" points="236.591,-205.468 238.652,-195.075 230.56,-201.914 236.591,-205.468"/>
</g>
<!-- Node23&#45;&gt;Node9 -->
<g id="edge32" class="edge"><title>Node23&#45;&gt;Node9</title>
<path fill="none" stroke="midnightblue" d="M240.484,-232.878C271.077,-223.413 319.083,-208.56 352.844,-198.115"/>
<polygon fill="midnightblue" stroke="midnightblue" points="354.31,-201.325 362.829,-195.025 352.241,-194.637 354.31,-201.325"/>
</g>
<!-- Node23&#45;&gt;Node15 -->
<g id="edge33" class="edge"><title>Node23&#45;&gt;Node15</title>
<path fill="none" stroke="midnightblue" d="M197.591,-232.766C185.063,-223.901 166.082,-209.849 151,-196 133.459,-179.893 115.325,-159.489 103.235,-145.252"/>
<polygon fill="midnightblue" stroke="midnightblue" points="105.656,-142.692 96.5481,-137.278 100.292,-147.19 105.656,-142.692"/>
</g>
<!-- Node24&#45;&gt;Node4 -->
<g id="edge35" class="edge"><title>Node24&#45;&gt;Node4</title>
<path fill="none" stroke="midnightblue" d="M541.929,-290.93C573.98,-282.234 616.802,-268.344 627,-254 662.547,-204.001 670.293,-162.261 630,-116 594.321,-75.0363 434.081,-69.3565 349.955,-69.2827"/>
<polygon fill="midnightblue" stroke="midnightblue" points="349.834,-65.7828 339.841,-69.3006 349.847,-72.7828 349.834,-65.7828"/>
</g>
<!-- Node25 -->
<g id="node25" class="node"><title>Node25</title>
<polygon fill="white" stroke="#bfbfbf" points="511.421,-233 511.421,-253 618.579,-253 618.579,-233 511.421,-233"/>
<text text-anchor="middle" x="565" y="-239" font-family="Helvetica,sans-Serif" font-size="10.00">boost/filesystem.hpp</text>
</g>
<!-- Node24&#45;&gt;Node25 -->
<g id="edge36" class="edge"><title>Node24&#45;&gt;Node25</title>
<path fill="none" stroke="midnightblue" d="M514.908,-290.753C523.82,-282.435 537.11,-270.031 547.762,-260.089"/>
<polygon fill="midnightblue" stroke="midnightblue" points="550.354,-262.457 555.277,-253.075 545.578,-257.34 550.354,-262.457"/>
</g>
</g>
</svg>
