<?xml version="1.0" encoding="UTF-8" standalone="no"?>
<!DOCTYPE svg PUBLIC "-//W3C//DTD SVG 1.1//EN"
 "http://www.w3.org/Graphics/SVG/1.1/DTD/svg11.dtd">
<!-- Generated by graphviz version 2.30.1 (20140712.1814)
 -->
<!-- Title: src/cinder/Exception.cpp Pages: 1 -->
<!--zoomable 436 -->
<svg id="main" version="1.1" xmlns="http://www.w3.org/2000/svg" xmlns:xlink="http://www.w3.org/1999/xlink" xml:space="preserve" onload="init(evt)">
<style type="text/css"><![CDATA[
.edge:hover path { stroke: red; }
.edge:hover polygon { stroke: red; fill: red; }
]]></style>
<script type="text/javascript"><![CDATA[
var edges = document.getElementsByTagName('g');
if (edges && edges.length) {
  for (var i=0;i<edges.length;i++) {
    if (edges[i].id.substr(0,4)=='edge') {
      edges[i].setAttribute('class','edge');
    }
  }
}
]]></script>
        <defs>
                <circle id="rim" cx="0" cy="0" r="7"/>
                <circle id="rim2" cx="0" cy="0" r="3.5"/>
                <g id="zoomPlus">
                        <use xlink:href="#rim" fill="#404040">
                                <set attributeName="fill" to="#808080" begin="zoomplus.mouseover" end="zoomplus.mouseout"/>
                        </use>
                        <path d="M-4,0h8M0,-4v8" fill="none" stroke="white" stroke-width="1.5" pointer-events="none"/>
                </g>
                <g id="zoomMin">
                        <use xlink:href="#rim" fill="#404040">
                                <set attributeName="fill" to="#808080" begin="zoomminus.mouseover" end="zoomminus.mouseout"/>
                        </use>
                        <path d="M-4,0h8" fill="none" stroke="white" stroke-width="1.5" pointer-events="none"/>
                </g>
                <g id="dirArrow">
                        <path fill="none" stroke="white" stroke-width="1.5" d="M0,-3.0v7 M-2.5,-0.5L0,-3.0L2.5,-0.5"/>
                </g>
               <g id="resetDef">
                       <use xlink:href="#rim2" fill="#404040">
                               <set attributeName="fill" to="#808080" begin="reset.mouseover" end="reset.mouseout"/>
                       </use>
               </g>
        </defs>

<script type="text/javascript">
var viewWidth = 1052;
var viewHeight = 436;
var sectionId = 'dynsection-0';
</script>
<script xlink:href="svgpan.js"/>
<svg id="graph" class="graph">
<g id="viewport">
<title>src/cinder/Exception.cpp</title>
<polygon fill="white" stroke="white" points="-4,5 -4,-432 1048.94,-432 1048.94,5 -4,5"/>
<!-- Node1 -->
<g id="node1" class="node"><title>Node1</title>
<polygon fill="#bfbfbf" stroke="black" points="-0.470215,-407 -0.470215,-427 124.47,-427 124.47,-407 -0.470215,-407"/>
<text text-anchor="middle" x="62" y="-413" font-family="Helvetica,sans-Serif" font-size="10.00">src/cinder/Exception.cpp</text>
</g>
<!-- Node2 -->
<g id="node2" class="node"><title>Node2</title>
<g id="a_node2"><a xlink:href="_exception_8h.html" target="_top" xlink:title="cinder/Exception.h">
<polygon fill="white" stroke="black" points="85.8647,-117 85.8647,-137 184.135,-137 184.135,-117 85.8647,-117"/>
<text text-anchor="middle" x="135" y="-123" font-family="Helvetica,sans-Serif" font-size="10.00">cinder/Exception.h</text>
</a>
</g>
</g>
<!-- Node1&#45;&gt;Node2 -->
<g id="edge1" class="edge"><title>Node1&#45;&gt;Node2</title>
<path fill="none" stroke="midnightblue" d="M62.3903,-406.707C63.4287,-385.667 66.9063,-332.887 77,-290 89.5562,-236.65 113.905,-176.562 126.694,-146.796"/>
<polygon fill="midnightblue" stroke="midnightblue" points="130.059,-147.836 130.84,-137.27 123.64,-145.043 130.059,-147.836"/>
</g>
<!-- Node9 -->
<g id="node9" class="node"><title>Node9</title>
<g id="a_node9"><a xlink:href="_utilities_8h.html" target="_top" xlink:title="cinder/Utilities.h">
<polygon fill="white" stroke="black" points="99.7095,-349 99.7095,-369 186.291,-369 186.291,-349 99.7095,-349"/>
<text text-anchor="middle" x="143" y="-355" font-family="Helvetica,sans-Serif" font-size="10.00">cinder/Utilities.h</text>
</a>
</g>
</g>
<!-- Node1&#45;&gt;Node9 -->
<g id="edge8" class="edge"><title>Node1&#45;&gt;Node9</title>
<path fill="none" stroke="midnightblue" d="M75.3755,-406.753C87.8784,-398.109 106.764,-385.052 121.403,-374.931"/>
<polygon fill="midnightblue" stroke="midnightblue" points="123.638,-377.641 129.873,-369.075 119.657,-371.883 123.638,-377.641"/>
</g>
<!-- Node3 -->
<g id="node3" class="node"><title>Node3</title>
<g id="a_node3"><a xlink:href="_cinder_8h.html" target="_top" xlink:title="cinder/Cinder.h">
<polygon fill="white" stroke="black" points="775.367,-59 775.367,-79 858.633,-79 858.633,-59 775.367,-59"/>
<text text-anchor="middle" x="817" y="-65" font-family="Helvetica,sans-Serif" font-size="10.00">cinder/Cinder.h</text>
</a>
</g>
</g>
<!-- Node2&#45;&gt;Node3 -->
<g id="edge2" class="edge"><title>Node2&#45;&gt;Node3</title>
<path fill="none" stroke="midnightblue" d="M184.469,-117.749C189.037,-117.108 193.6,-116.512 198,-116 407.512,-91.6302 658.502,-77.6349 765.068,-72.396"/>
<polygon fill="midnightblue" stroke="midnightblue" points="765.408,-75.8837 775.226,-71.9017 765.068,-68.892 765.408,-75.8837"/>
</g>
<!-- Node7 -->
<g id="node7" class="node"><title>Node7</title>
<polygon fill="white" stroke="#bfbfbf" points="26.3843,-59 26.3843,-79 69.6157,-79 69.6157,-59 26.3843,-59"/>
<text text-anchor="middle" x="48" y="-65" font-family="Helvetica,sans-Serif" font-size="10.00">vector</text>
</g>
<!-- Node2&#45;&gt;Node7 -->
<g id="edge6" class="edge"><title>Node2&#45;&gt;Node7</title>
<path fill="none" stroke="midnightblue" d="M120.634,-116.753C107.078,-108.027 86.5364,-94.8051 70.7532,-84.6458"/>
<polygon fill="midnightblue" stroke="midnightblue" points="72.402,-81.5447 62.099,-79.0752 68.6132,-87.4307 72.402,-81.5447"/>
</g>
<!-- Node8 -->
<g id="node8" class="node"><title>Node8</title>
<polygon fill="white" stroke="#bfbfbf" points="114.773,-59 114.773,-79 155.227,-79 155.227,-59 114.773,-59"/>
<text text-anchor="middle" x="135" y="-65" font-family="Helvetica,sans-Serif" font-size="10.00">string</text>
</g>
<!-- Node2&#45;&gt;Node8 -->
<g id="edge7" class="edge"><title>Node2&#45;&gt;Node8</title>
<path fill="none" stroke="midnightblue" d="M135,-116.753C135,-109.25 135,-98.4238 135,-89.0781"/>
<polygon fill="midnightblue" stroke="midnightblue" points="138.5,-89.0752 135,-79.0752 131.5,-89.0752 138.5,-89.0752"/>
</g>
<!-- Node4 -->
<g id="node4" class="node"><title>Node4</title>
<polygon fill="white" stroke="#bfbfbf" points="706.549,-1 706.549,-21 751.451,-21 751.451,-1 706.549,-1"/>
<text text-anchor="middle" x="729" y="-7" font-family="Helvetica,sans-Serif" font-size="10.00">cstdint</text>
</g>
<!-- Node3&#45;&gt;Node4 -->
<g id="edge3" class="edge"><title>Node3&#45;&gt;Node4</title>
<path fill="none" stroke="midnightblue" d="M802.469,-58.7527C788.757,-50.0272 767.979,-36.8051 752.015,-26.6458"/>
<polygon fill="midnightblue" stroke="midnightblue" points="753.577,-23.4912 743.261,-21.0752 749.819,-29.3968 753.577,-23.4912"/>
</g>
<!-- Node5 -->
<g id="node5" class="node"><title>Node5</title>
<polygon fill="white" stroke="#bfbfbf" points="769.53,-1 769.53,-21 864.47,-21 864.47,-1 769.53,-1"/>
<text text-anchor="middle" x="817" y="-7" font-family="Helvetica,sans-Serif" font-size="10.00">boost/version.hpp</text>
</g>
<!-- Node3&#45;&gt;Node5 -->
<g id="edge4" class="edge"><title>Node3&#45;&gt;Node5</title>
<path fill="none" stroke="midnightblue" d="M817,-58.7527C817,-51.2504 817,-40.4238 817,-31.0781"/>
<polygon fill="midnightblue" stroke="midnightblue" points="820.5,-31.0752 817,-21.0752 813.5,-31.0752 820.5,-31.0752"/>
</g>
<!-- Node6 -->
<g id="node6" class="node"><title>Node6</title>
<polygon fill="white" stroke="#bfbfbf" points="882.621,-1 882.621,-21 1015.38,-21 1015.38,-1 882.621,-1"/>
<text text-anchor="middle" x="949" y="-7" font-family="Helvetica,sans-Serif" font-size="10.00">boost/checked_delete.hpp</text>
</g>
<!-- Node3&#45;&gt;Node6 -->
<g id="edge5" class="edge"><title>Node3&#45;&gt;Node6</title>
<path fill="none" stroke="midnightblue" d="M838.502,-58.878C860.172,-49.6848 893.821,-35.4095 918.295,-25.0263"/>
<polygon fill="midnightblue" stroke="midnightblue" points="919.668,-28.2457 927.507,-21.1181 916.935,-21.8016 919.668,-28.2457"/>
</g>
<!-- Node9&#45;&gt;Node8 -->
<g id="edge9" class="edge"><title>Node9&#45;&gt;Node8</title>
<path fill="none" stroke="midnightblue" d="M123.147,-348.869C108.339,-341.079 88.7222,-328.514 77,-312 58.8366,-286.411 58,-275.38 58,-244 58,-244 58,-244 58,-184 58,-152.62 59.6363,-142.138 77,-116 85.4438,-103.289 98.5317,-92.474 110.139,-84.53"/>
<polygon fill="midnightblue" stroke="midnightblue" points="112.137,-87.4062 118.626,-79.031 108.331,-81.5316 112.137,-87.4062"/>
</g>
<!-- Node9&#45;&gt;Node7 -->
<g id="edge10" class="edge"><title>Node9&#45;&gt;Node7</title>
<path fill="none" stroke="midnightblue" d="M119.865,-348.987C84.2345,-333.412 20,-297.864 20,-244 20,-244 20,-244 20,-184 20,-149.673 32.1215,-111.165 40.4136,-88.8395"/>
<polygon fill="midnightblue" stroke="midnightblue" points="43.772,-89.8581 44.1067,-79.2685 37.2413,-87.3381 43.772,-89.8581"/>
</g>
<!-- Node9&#45;&gt;Node3 -->
<g id="edge11" class="edge"><title>Node9&#45;&gt;Node3</title>
<path fill="none" stroke="midnightblue" d="M186.409,-357.127C366.187,-352.948 1043,-331.412 1043,-244 1043,-244 1043,-244 1043,-184 1043,-152.62 1046.78,-137.584 1024,-116 1012.72,-105.31 926.256,-88.7085 868.702,-78.6451"/>
<polygon fill="midnightblue" stroke="midnightblue" points="869.121,-75.1656 858.67,-76.9058 867.925,-82.0627 869.121,-75.1656"/>
</g>
<!-- Node10 -->
<g id="node10" class="node"><title>Node10</title>
<g id="a_node10"><a xlink:href="_url_8h.html" target="_top" xlink:title="cinder/Url.h">
<polygon fill="white" stroke="black" points="194.436,-233 194.436,-253 261.564,-253 261.564,-233 194.436,-233"/>
<text text-anchor="middle" x="228" y="-239" font-family="Helvetica,sans-Serif" font-size="10.00">cinder/Url.h</text>
</a>
</g>
</g>
<!-- Node9&#45;&gt;Node10 -->
<g id="edge12" class="edge"><title>Node9&#45;&gt;Node10</title>
<path fill="none" stroke="midnightblue" d="M162.853,-348.869C177.661,-341.079 197.278,-328.514 209,-312 219.189,-297.645 223.926,-277.997 226.121,-263.511"/>
<polygon fill="midnightblue" stroke="midnightblue" points="229.642,-263.554 227.392,-253.201 222.695,-262.697 229.642,-263.554"/>
</g>
<!-- Node19 -->
<g id="node19" class="node"><title>Node19</title>
<g id="a_node19"><a xlink:href="_data_source_8h.html" target="_top" xlink:title="cinder/DataSource.h">
<polygon fill="white" stroke="black" points="661.419,-291 661.419,-311 768.581,-311 768.581,-291 661.419,-291"/>
<text text-anchor="middle" x="715" y="-297" font-family="Helvetica,sans-Serif" font-size="10.00">cinder/DataSource.h</text>
</a>
</g>
</g>
<!-- Node9&#45;&gt;Node19 -->
<g id="edge27" class="edge"><title>Node9&#45;&gt;Node19</title>
<path fill="none" stroke="midnightblue" d="M186.462,-353.745C286.553,-343.946 533.71,-319.749 651.108,-308.255"/>
<polygon fill="midnightblue" stroke="midnightblue" points="651.764,-311.708 661.375,-307.25 651.081,-304.741 651.764,-311.708"/>
</g>
<!-- Node20 -->
<g id="node20" class="node"><title>Node20</title>
<polygon fill="white" stroke="#bfbfbf" points="85.8032,-291 85.8032,-311 200.197,-311 200.197,-291 85.8032,-291"/>
<text text-anchor="middle" x="143" y="-297" font-family="Helvetica,sans-Serif" font-size="10.00">boost/lexical_cast.hpp</text>
</g>
<!-- Node9&#45;&gt;Node20 -->
<g id="edge33" class="edge"><title>Node9&#45;&gt;Node20</title>
<path fill="none" stroke="midnightblue" d="M143,-348.753C143,-341.25 143,-330.424 143,-321.078"/>
<polygon fill="midnightblue" stroke="midnightblue" points="146.5,-321.075 143,-311.075 139.5,-321.075 146.5,-321.075"/>
</g>
<!-- Node10&#45;&gt;Node3 -->
<g id="edge13" class="edge"><title>Node10&#45;&gt;Node3</title>
<path fill="none" stroke="midnightblue" d="M227.83,-232.826C227.942,-209.082 231.855,-145.426 269,-116 307.344,-85.6235 635.526,-74.4019 764.89,-71.1343"/>
<polygon fill="midnightblue" stroke="midnightblue" points="765.042,-74.6317 774.953,-70.8861 764.869,-67.6338 765.042,-74.6317"/>
</g>
<!-- Node11 -->
<g id="node11" class="node"><title>Node11</title>
<g id="a_node11"><a xlink:href="_stream_8h.html" target="_top" xlink:title="cinder/Stream.h">
<polygon fill="white" stroke="black" points="503.707,-175 503.707,-195 590.293,-195 590.293,-175 503.707,-175"/>
<text text-anchor="middle" x="547" y="-181" font-family="Helvetica,sans-Serif" font-size="10.00">cinder/Stream.h</text>
</a>
</g>
</g>
<!-- Node10&#45;&gt;Node11 -->
<g id="edge14" class="edge"><title>Node10&#45;&gt;Node11</title>
<path fill="none" stroke="midnightblue" d="M261.837,-236.06C317.163,-226.347 427.427,-206.991 493.457,-195.399"/>
<polygon fill="midnightblue" stroke="midnightblue" points="494.415,-198.785 503.659,-193.608 493.204,-191.89 494.415,-198.785"/>
</g>
<!-- Node18 -->
<g id="node18" class="node"><title>Node18</title>
<polygon fill="white" stroke="#bfbfbf" points="129.828,-175 129.828,-195 184.172,-195 184.172,-175 129.828,-175"/>
<text text-anchor="middle" x="157" y="-181" font-family="Helvetica,sans-Serif" font-size="10.00">iostream</text>
</g>
<!-- Node10&#45;&gt;Node18 -->
<g id="edge26" class="edge"><title>Node10&#45;&gt;Node18</title>
<path fill="none" stroke="midnightblue" d="M216.276,-232.753C205.523,-224.272 189.385,-211.543 176.661,-201.507"/>
<polygon fill="midnightblue" stroke="midnightblue" points="178.525,-198.52 168.506,-195.075 174.19,-204.016 178.525,-198.52"/>
</g>
<!-- Node11&#45;&gt;Node3 -->
<g id="edge15" class="edge"><title>Node11&#45;&gt;Node3</title>
<path fill="none" stroke="midnightblue" d="M590.65,-178.122C628.643,-171.823 684.452,-159.669 729,-138 756.454,-124.646 783.567,-101.845 800.286,-86.3626"/>
<polygon fill="midnightblue" stroke="midnightblue" points="802.759,-88.8406 807.614,-79.4234 797.946,-83.7577 802.759,-88.8406"/>
</g>
<!-- Node12 -->
<g id="node12" class="node"><title>Node12</title>
<g id="a_node12"><a xlink:href="_buffer_8h.html" target="_top" xlink:title="cinder/Buffer.h">
<polygon fill="white" stroke="black" points="776.844,-117 776.844,-137 857.156,-137 857.156,-117 776.844,-117"/>
<text text-anchor="middle" x="817" y="-123" font-family="Helvetica,sans-Serif" font-size="10.00">cinder/Buffer.h</text>
</a>
</g>
</g>
<!-- Node11&#45;&gt;Node12 -->
<g id="edge16" class="edge"><title>Node11&#45;&gt;Node12</title>
<path fill="none" stroke="midnightblue" d="M590.38,-175.003C638.494,-165.023 716.005,-148.947 766.729,-138.427"/>
<polygon fill="midnightblue" stroke="midnightblue" points="767.732,-141.793 776.813,-136.335 766.31,-134.939 767.732,-141.793"/>
</g>
<!-- Node11&#45;&gt;Node2 -->
<g id="edge18" class="edge"><title>Node11&#45;&gt;Node2</title>
<path fill="none" stroke="midnightblue" d="M503.687,-178.113C429.612,-168.044 278.481,-147.502 194.542,-136.093"/>
<polygon fill="midnightblue" stroke="midnightblue" points="194.78,-132.593 184.4,-134.715 193.838,-139.53 194.78,-132.593"/>
</g>
<!-- Node13 -->
<g id="node13" class="node"><title>Node13</title>
<g id="a_node13"><a xlink:href="_filesystem_8h.html" target="_top" xlink:title="cinder/Filesystem.h">
<polygon fill="white" stroke="black" points="912.931,-117 912.931,-137 1015.07,-137 1015.07,-117 912.931,-117"/>
<text text-anchor="middle" x="964" y="-123" font-family="Helvetica,sans-Serif" font-size="10.00">cinder/Filesystem.h</text>
</a>
</g>
</g>
<!-- Node11&#45;&gt;Node13 -->
<g id="edge19" class="edge"><title>Node11&#45;&gt;Node13</title>
<path fill="none" stroke="midnightblue" d="M590.446,-178.165C665.015,-168.151 817.55,-147.667 902.833,-136.214"/>
<polygon fill="midnightblue" stroke="midnightblue" points="903.445,-139.664 912.89,-134.864 902.514,-132.726 903.445,-139.664"/>
</g>
<!-- Node15 -->
<g id="node15" class="node"><title>Node15</title>
<polygon fill="white" stroke="#bfbfbf" points="601.291,-117 601.291,-137 720.709,-137 720.709,-117 601.291,-117"/>
<text text-anchor="middle" x="661" y="-123" font-family="Helvetica,sans-Serif" font-size="10.00">boost/noncopyable.hpp</text>
</g>
<!-- Node11&#45;&gt;Node15 -->
<g id="edge22" class="edge"><title>Node11&#45;&gt;Node15</title>
<path fill="none" stroke="midnightblue" d="M565.57,-174.878C583.953,-165.847 612.32,-151.913 633.353,-141.581"/>
<polygon fill="midnightblue" stroke="midnightblue" points="635.006,-144.669 642.438,-137.118 631.919,-138.386 635.006,-144.669"/>
</g>
<!-- Node11&#45;&gt;Node8 -->
<g id="edge23" class="edge"><title>Node11&#45;&gt;Node8</title>
<path fill="none" stroke="midnightblue" d="M503.642,-180.943C448.105,-176.103 349.421,-164.364 269,-138 227.934,-124.537 183.905,-100.024 157.944,-84.3992"/>
<polygon fill="midnightblue" stroke="midnightblue" points="159.594,-81.306 149.235,-79.0817 155.946,-87.2803 159.594,-81.306"/>
</g>
<!-- Node16 -->
<g id="node16" class="node"><title>Node16</title>
<polygon fill="white" stroke="#bfbfbf" points="277.574,-117 277.574,-137 426.426,-137 426.426,-117 277.574,-117"/>
<text text-anchor="middle" x="352" y="-123" font-family="Helvetica,sans-Serif" font-size="10.00">boost/iostreams/concepts.hpp</text>
</g>
<!-- Node11&#45;&gt;Node16 -->
<g id="edge24" class="edge"><title>Node11&#45;&gt;Node16</title>
<path fill="none" stroke="midnightblue" d="M515.236,-174.878C481.992,-165.331 429.663,-150.303 393.247,-139.845"/>
<polygon fill="midnightblue" stroke="midnightblue" points="394.005,-136.422 383.427,-137.025 392.073,-143.15 394.005,-136.422"/>
</g>
<!-- Node17 -->
<g id="node17" class="node"><title>Node17</title>
<polygon fill="white" stroke="#bfbfbf" points="444.306,-117 444.306,-137 583.694,-137 583.694,-117 444.306,-117"/>
<text text-anchor="middle" x="514" y="-123" font-family="Helvetica,sans-Serif" font-size="10.00">boost/iostreams/stream.hpp</text>
</g>
<!-- Node11&#45;&gt;Node17 -->
<g id="edge25" class="edge"><title>Node11&#45;&gt;Node17</title>
<path fill="none" stroke="midnightblue" d="M541.551,-174.753C536.937,-166.924 530.191,-155.476 524.529,-145.868"/>
<polygon fill="midnightblue" stroke="midnightblue" points="527.44,-143.914 519.348,-137.075 521.409,-147.468 527.44,-143.914"/>
</g>
<!-- Node12&#45;&gt;Node3 -->
<g id="edge17" class="edge"><title>Node12&#45;&gt;Node3</title>
<path fill="none" stroke="midnightblue" d="M817,-116.753C817,-109.25 817,-98.4238 817,-89.0781"/>
<polygon fill="midnightblue" stroke="midnightblue" points="820.5,-89.0752 817,-79.0752 813.5,-89.0752 820.5,-89.0752"/>
</g>
<!-- Node13&#45;&gt;Node3 -->
<g id="edge20" class="edge"><title>Node13&#45;&gt;Node3</title>
<path fill="none" stroke="midnightblue" d="M940.055,-116.878C915.709,-107.603 877.786,-93.1564 850.473,-82.7515"/>
<polygon fill="midnightblue" stroke="midnightblue" points="851.526,-79.4074 840.935,-79.1181 849.034,-85.9488 851.526,-79.4074"/>
</g>
<!-- Node14 -->
<g id="node14" class="node"><title>Node14</title>
<polygon fill="white" stroke="#bfbfbf" points="910.421,-59 910.421,-79 1017.58,-79 1017.58,-59 910.421,-59"/>
<text text-anchor="middle" x="964" y="-65" font-family="Helvetica,sans-Serif" font-size="10.00">boost/filesystem.hpp</text>
</g>
<!-- Node13&#45;&gt;Node14 -->
<g id="edge21" class="edge"><title>Node13&#45;&gt;Node14</title>
<path fill="none" stroke="midnightblue" d="M964,-116.753C964,-109.25 964,-98.4238 964,-89.0781"/>
<polygon fill="midnightblue" stroke="midnightblue" points="967.5,-89.0752 964,-79.0752 960.5,-89.0752 967.5,-89.0752"/>
</g>
<!-- Node19&#45;&gt;Node3 -->
<g id="edge28" class="edge"><title>Node19&#45;&gt;Node3</title>
<path fill="none" stroke="midnightblue" d="M729.09,-290.775C761.046,-268.882 838.382,-210.177 866,-138 869.494,-128.868 869.884,-124.973 866,-116 860.641,-103.619 850.127,-93.0378 840.208,-85.1567"/>
<polygon fill="midnightblue" stroke="midnightblue" points="842.263,-82.3236 832.142,-79.1914 838.101,-87.9517 842.263,-82.3236"/>
</g>
<!-- Node19&#45;&gt;Node10 -->
<g id="edge29" class="edge"><title>Node19&#45;&gt;Node10</title>
<path fill="none" stroke="midnightblue" d="M661.022,-293.793C563.829,-282.617 361.211,-259.318 271.897,-249.048"/>
<polygon fill="midnightblue" stroke="midnightblue" points="272.169,-245.556 261.834,-247.891 271.369,-252.51 272.169,-245.556"/>
</g>
<!-- Node19&#45;&gt;Node12 -->
<g id="edge30" class="edge"><title>Node19&#45;&gt;Node12</title>
<path fill="none" stroke="midnightblue" d="M720.484,-290.753C736.673,-263.454 784.472,-182.85 806.124,-146.341"/>
<polygon fill="midnightblue" stroke="midnightblue" points="809.399,-147.68 811.489,-137.293 803.378,-144.109 809.399,-147.68"/>
</g>
<!-- Node19&#45;&gt;Node11 -->
<g id="edge31" class="edge"><title>Node19&#45;&gt;Node11</title>
<path fill="none" stroke="midnightblue" d="M701.536,-290.864C672.66,-271.269 604.537,-225.043 569.173,-201.046"/>
<polygon fill="midnightblue" stroke="midnightblue" points="570.768,-197.899 560.528,-195.18 566.838,-203.691 570.768,-197.899"/>
</g>
<!-- Node19&#45;&gt;Node13 -->
<g id="edge32" class="edge"><title>Node19&#45;&gt;Node13</title>
<path fill="none" stroke="midnightblue" d="M768.909,-298.152C808.627,-294.235 861.956,-283.333 899,-254 933.923,-226.346 951.954,-174.821 959.523,-146.997"/>
<polygon fill="midnightblue" stroke="midnightblue" points="962.921,-147.835 961.999,-137.28 956.138,-146.106 962.921,-147.835"/>
</g>
</g>
</svg>
        <g id="navigator" transform="translate(0 0)" fill="#404254">
                <rect fill="#f2f5e9" fill-opacity="0.5" stroke="#606060" stroke-width=".5" x="0" y="0" width="60" height="60"/>
                <use id="zoomplus" xlink:href="#zoomPlus" x="17" y="9" onmousedown="handleZoom(evt,'in')"/>
                <use id="zoomminus" xlink:href="#zoomMin" x="42" y="9" onmousedown="handleZoom(evt,'out')"/>
                <use id="reset" xlink:href="#resetDef" x="30" y="36" onmousedown="handleReset()"/>
                <g id="arrowUp" xlink:href="#dirArrow" transform="translate(30 24)" onmousedown="handlePan(0,-1)">
                  <use xlink:href="#rim" fill="#404040">
                        <set attributeName="fill" to="#808080" begin="arrowUp.mouseover" end="arrowUp.mouseout"/>
                  </use>
                  <path fill="none" stroke="white" stroke-width="1.5" d="M0,-3.0v7 M-2.5,-0.5L0,-3.0L2.5,-0.5"/>
                </g>
                <g id="arrowRight" xlink:href="#dirArrow" transform="rotate(90) translate(36 -43)" onmousedown="handlePan(1,0)">
                  <use xlink:href="#rim" fill="#404040">
                        <set attributeName="fill" to="#808080" begin="arrowRight.mouseover" end="arrowRight.mouseout"/>
                  </use>
                  <path fill="none" stroke="white" stroke-width="1.5" d="M0,-3.0v7 M-2.5,-0.5L0,-3.0L2.5,-0.5"/>
                </g>
                <g id="arrowDown" xlink:href="#dirArrow" transform="rotate(180) translate(-30 -48)" onmousedown="handlePan(0,1)">
                  <use xlink:href="#rim" fill="#404040">
                        <set attributeName="fill" to="#808080" begin="arrowDown.mouseover" end="arrowDown.mouseout"/>
                  </use>
                  <path fill="none" stroke="white" stroke-width="1.5" d="M0,-3.0v7 M-2.5,-0.5L0,-3.0L2.5,-0.5"/>
                </g>
                <g id="arrowLeft" xlink:href="#dirArrow" transform="rotate(270) translate(-36 17)" onmousedown="handlePan(-1,0)">
                  <use xlink:href="#rim" fill="#404040">
                        <set attributeName="fill" to="#808080" begin="arrowLeft.mouseover" end="arrowLeft.mouseout"/>
                  </use>
                  <path fill="none" stroke="white" stroke-width="1.5" d="M0,-3.0v7 M-2.5,-0.5L0,-3.0L2.5,-0.5"/>
                </g>
        </g>
        <svg viewBox="0 0 15 15" width="100%" height="30px" preserveAspectRatio="xMaxYMin meet">
         <g id="arrow_out" transform="scale(0.3 0.3)">
          <a xlink:href="_exception_8cpp__incl_org.svg" target="_base">
           <rect id="button" ry="5" rx="5" y="6" x="6" height="38" width="38"
                fill="#f2f5e9" fill-opacity="0.5" stroke="#606060" stroke-width="1.0"/>
           <path id="arrow"
             d="M 11.500037,31.436501 C 11.940474,20.09759 22.043105,11.32322 32.158766,21.979434 L 37.068811,17.246167 C 37.068811,17.246167 37.088388,32 37.088388,32 L 22.160133,31.978069 C 22.160133,31.978069 26.997745,27.140456 26.997745,27.140456 C 18.528582,18.264221 13.291696,25.230495 11.500037,31.436501 z"
             style="fill:#404040;"/>
          </a>
         </g>
        </svg>
</svg>
