<?xml version="1.0" encoding="UTF-8" standalone="no"?>
<!DOCTYPE svg PUBLIC "-//W3C//DTD SVG 1.1//EN"
 "http://www.w3.org/Graphics/SVG/1.1/DTD/svg11.dtd">
<!-- Generated by graphviz version 2.30.1 (20140712.1814)
 -->
<!-- Title: include/cinder/audio/dsp/Fft.h Pages: 1 -->
<svg width="752pt" height="216pt"
 viewBox="0.00 0.00 752.00 216.00" xmlns="http://www.w3.org/2000/svg" xmlns:xlink="http://www.w3.org/1999/xlink">
<g id="graph0" class="graph" transform="scale(1 1) rotate(0) translate(4 212)">
<title>include/cinder/audio/dsp/Fft.h</title>
<polygon fill="white" stroke="white" points="-4,5 -4,-212 749,-212 749,5 -4,5"/>
<!-- Node1 -->
<g id="node1" class="node"><title>Node1</title>
<polygon fill="#bfbfbf" stroke="black" points="341.525,-175 341.525,-207 446.475,-207 446.475,-175 341.525,-175"/>
<text text-anchor="start" x="349.525" y="-193" font-family="Helvetica,sans-Serif" font-size="10.00">include/cinder/audio</text>
<text text-anchor="middle" x="394" y="-181" font-family="Helvetica,sans-Serif" font-size="10.00">/dsp/Fft.h</text>
</g>
<!-- Node2 -->
<g id="node2" class="node"><title>Node2</title>
<g id="a_node2"><a xlink:href="audio_2_buffer_8h.html" target="_top" xlink:title="cinder/audio/Buffer.h">
<polygon fill="white" stroke="black" points="494.221,-117 494.221,-137 601.779,-137 601.779,-117 494.221,-117"/>
<text text-anchor="middle" x="548" y="-123" font-family="Helvetica,sans-Serif" font-size="10.00">cinder/audio/Buffer.h</text>
</a>
</g>
</g>
<!-- Node1&#45;&gt;Node2 -->
<g id="edge1" class="edge"><title>Node1&#45;&gt;Node2</title>
<path fill="none" stroke="midnightblue" d="M431.279,-174.992C457.212,-164.551 491.423,-150.778 516.096,-140.845"/>
<polygon fill="midnightblue" stroke="midnightblue" points="517.406,-144.09 525.375,-137.109 514.791,-137.597 517.406,-144.09"/>
</g>
<!-- Node10 -->
<g id="node10" class="node"><title>Node10</title>
<g id="a_node10"><a xlink:href="_dsp_8h.html" target="_top" xlink:title="cinder/audio/dsp/Dsp.h">
<polygon fill="white" stroke="black" points="277.857,-117 277.857,-137 396.143,-137 396.143,-117 277.857,-117"/>
<text text-anchor="middle" x="337" y="-123" font-family="Helvetica,sans-Serif" font-size="10.00">cinder/audio/dsp/Dsp.h</text>
</a>
</g>
</g>
<!-- Node1&#45;&gt;Node10 -->
<g id="edge9" class="edge"><title>Node1&#45;&gt;Node10</title>
<path fill="none" stroke="midnightblue" d="M380.202,-174.992C371.843,-165.9 361.162,-154.281 352.511,-144.872"/>
<polygon fill="midnightblue" stroke="midnightblue" points="354.886,-142.283 345.541,-137.29 349.733,-147.021 354.886,-142.283"/>
</g>
<!-- Node11 -->
<g id="node11" class="node"><title>Node11</title>
<g id="a_node11"><a xlink:href="_cinder_8h.html" target="_top" xlink:title="cinder/Cinder.h">
<polygon fill="white" stroke="black" points="137.367,-59 137.367,-79 220.633,-79 220.633,-59 137.367,-59"/>
<text text-anchor="middle" x="179" y="-65" font-family="Helvetica,sans-Serif" font-size="10.00">cinder/Cinder.h</text>
</a>
</g>
</g>
<!-- Node1&#45;&gt;Node11 -->
<g id="edge18" class="edge"><title>Node1&#45;&gt;Node11</title>
<path fill="none" stroke="midnightblue" d="M350.203,-174.897C325.618,-165.66 294.793,-152.79 269,-138 242.283,-122.68 214.426,-100.52 196.913,-85.7062"/>
<polygon fill="midnightblue" stroke="midnightblue" points="199.066,-82.9412 189.197,-79.0859 194.508,-88.2538 199.066,-82.9412"/>
</g>
<!-- Node6 -->
<g id="node6" class="node"><title>Node6</title>
<polygon fill="white" stroke="#bfbfbf" points="493.384,-59 493.384,-79 536.616,-79 536.616,-59 493.384,-59"/>
<text text-anchor="middle" x="515" y="-65" font-family="Helvetica,sans-Serif" font-size="10.00">vector</text>
</g>
<!-- Node1&#45;&gt;Node6 -->
<g id="edge19" class="edge"><title>Node1&#45;&gt;Node6</title>
<path fill="none" stroke="midnightblue" d="M409.325,-174.802C432.178,-152.137 475.013,-109.657 498.52,-86.3442"/>
<polygon fill="midnightblue" stroke="midnightblue" points="501.058,-88.7562 505.694,-79.2293 496.129,-83.7859 501.058,-88.7562"/>
</g>
<!-- Node3 -->
<g id="node3" class="node"><title>Node3</title>
<g id="a_node3"><a xlink:href="_cinder_assert_8h.html" target="_top" xlink:title="cinder/CinderAssert.h">
<polygon fill="white" stroke="black" points="362.924,-59 362.924,-79 475.076,-79 475.076,-59 362.924,-59"/>
<text text-anchor="middle" x="419" y="-65" font-family="Helvetica,sans-Serif" font-size="10.00">cinder/CinderAssert.h</text>
</a>
</g>
</g>
<!-- Node2&#45;&gt;Node3 -->
<g id="edge2" class="edge"><title>Node2&#45;&gt;Node3</title>
<path fill="none" stroke="midnightblue" d="M526.987,-116.878C505.903,-107.725 473.216,-93.5357 449.325,-83.1643"/>
<polygon fill="midnightblue" stroke="midnightblue" points="450.571,-79.8897 440.004,-79.1181 447.783,-86.3108 450.571,-79.8897"/>
</g>
<!-- Node2&#45;&gt;Node6 -->
<g id="edge5" class="edge"><title>Node2&#45;&gt;Node6</title>
<path fill="none" stroke="midnightblue" d="M542.551,-116.753C537.937,-108.924 531.191,-97.4761 525.529,-87.8679"/>
<polygon fill="midnightblue" stroke="midnightblue" points="528.44,-85.9136 520.348,-79.0752 522.409,-89.4675 528.44,-85.9136"/>
</g>
<!-- Node7 -->
<g id="node7" class="node"><title>Node7</title>
<polygon fill="white" stroke="#bfbfbf" points="554.943,-59 554.943,-79 607.057,-79 607.057,-59 554.943,-59"/>
<text text-anchor="middle" x="581" y="-65" font-family="Helvetica,sans-Serif" font-size="10.00">memory</text>
</g>
<!-- Node2&#45;&gt;Node7 -->
<g id="edge6" class="edge"><title>Node2&#45;&gt;Node7</title>
<path fill="none" stroke="midnightblue" d="M553.449,-116.753C558.063,-108.924 564.809,-97.4761 570.471,-87.8679"/>
<polygon fill="midnightblue" stroke="midnightblue" points="573.591,-89.4675 575.652,-79.0752 567.56,-85.9136 573.591,-89.4675"/>
</g>
<!-- Node8 -->
<g id="node8" class="node"><title>Node8</title>
<polygon fill="white" stroke="#bfbfbf" points="624.828,-59 624.828,-79 669.172,-79 669.172,-59 624.828,-59"/>
<text text-anchor="middle" x="647" y="-65" font-family="Helvetica,sans-Serif" font-size="10.00">cstdlib</text>
</g>
<!-- Node2&#45;&gt;Node8 -->
<g id="edge7" class="edge"><title>Node2&#45;&gt;Node8</title>
<path fill="none" stroke="midnightblue" d="M564.348,-116.753C580.062,-107.864 604.025,-94.3092 622.11,-84.0793"/>
<polygon fill="midnightblue" stroke="midnightblue" points="623.976,-87.0451 630.956,-79.0752 620.529,-80.9523 623.976,-87.0451"/>
</g>
<!-- Node9 -->
<g id="node9" class="node"><title>Node9</title>
<polygon fill="white" stroke="#bfbfbf" points="687.436,-59 687.436,-79 744.564,-79 744.564,-59 687.436,-59"/>
<text text-anchor="middle" x="716" y="-65" font-family="Helvetica,sans-Serif" font-size="10.00">algorithm</text>
</g>
<!-- Node2&#45;&gt;Node9 -->
<g id="edge8" class="edge"><title>Node2&#45;&gt;Node9</title>
<path fill="none" stroke="midnightblue" d="M575.366,-116.878C603.64,-107.453 647.937,-92.6878 679.25,-82.2499"/>
<polygon fill="midnightblue" stroke="midnightblue" points="680.544,-85.508 688.924,-79.0253 678.33,-78.8673 680.544,-85.508"/>
</g>
<!-- Node4 -->
<g id="node4" class="node"><title>Node4</title>
<g id="a_node4"><a xlink:href="_current_function_8h.html" target="_top" xlink:title="cinder/CurrentFunction.h">
<polygon fill="white" stroke="black" points="426.973,-1 426.973,-21 553.027,-21 553.027,-1 426.973,-1"/>
<text text-anchor="middle" x="490" y="-7" font-family="Helvetica,sans-Serif" font-size="10.00">cinder/CurrentFunction.h</text>
</a>
</g>
</g>
<!-- Node3&#45;&gt;Node4 -->
<g id="edge3" class="edge"><title>Node3&#45;&gt;Node4</title>
<path fill="none" stroke="midnightblue" d="M430.724,-58.7527C441.477,-50.2718 457.615,-37.543 470.339,-27.5073"/>
<polygon fill="midnightblue" stroke="midnightblue" points="472.81,-30.0162 478.494,-21.0752 468.475,-24.52 472.81,-30.0162"/>
</g>
<!-- Node5 -->
<g id="node5" class="node"><title>Node5</title>
<polygon fill="white" stroke="#bfbfbf" points="360.884,-1 360.884,-21 409.116,-21 409.116,-1 360.884,-1"/>
<text text-anchor="middle" x="385" y="-7" font-family="Helvetica,sans-Serif" font-size="10.00">cassert</text>
</g>
<!-- Node3&#45;&gt;Node5 -->
<g id="edge4" class="edge"><title>Node3&#45;&gt;Node5</title>
<path fill="none" stroke="midnightblue" d="M413.386,-58.7527C408.633,-50.9242 401.682,-39.4761 395.848,-29.8679"/>
<polygon fill="midnightblue" stroke="midnightblue" points="398.692,-27.8066 390.51,-21.0752 392.708,-31.4395 398.692,-27.8066"/>
</g>
<!-- Node10&#45;&gt;Node3 -->
<g id="edge10" class="edge"><title>Node10&#45;&gt;Node3</title>
<path fill="none" stroke="midnightblue" d="M350.541,-116.753C363.198,-108.109 382.317,-95.0518 397.136,-84.9314"/>
<polygon fill="midnightblue" stroke="midnightblue" points="399.427,-87.6052 405.711,-79.0752 395.479,-81.8245 399.427,-87.6052"/>
</g>
<!-- Node10&#45;&gt;Node11 -->
<g id="edge11" class="edge"><title>Node10&#45;&gt;Node11</title>
<path fill="none" stroke="midnightblue" d="M311.263,-116.878C284.787,-107.494 243.372,-92.8155 213.945,-82.3857"/>
<polygon fill="midnightblue" stroke="midnightblue" points="215.059,-79.0671 204.464,-79.0253 212.72,-85.665 215.059,-79.0671"/>
</g>
<!-- Node15 -->
<g id="node15" class="node"><title>Node15</title>
<polygon fill="white" stroke="#bfbfbf" points="238.273,-59 238.273,-79 283.727,-79 283.727,-59 238.273,-59"/>
<text text-anchor="middle" x="261" y="-65" font-family="Helvetica,sans-Serif" font-size="10.00">atomic</text>
</g>
<!-- Node10&#45;&gt;Node15 -->
<g id="edge15" class="edge"><title>Node10&#45;&gt;Node15</title>
<path fill="none" stroke="midnightblue" d="M324.45,-116.753C312.83,-108.19 295.333,-95.2978 281.654,-85.2186"/>
<polygon fill="midnightblue" stroke="midnightblue" points="283.443,-82.1895 273.316,-79.0752 279.291,-87.8249 283.443,-82.1895"/>
</g>
<!-- Node10&#45;&gt;Node6 -->
<g id="edge16" class="edge"><title>Node10&#45;&gt;Node6</title>
<path fill="none" stroke="midnightblue" d="M366.031,-116.998C393.788,-108.373 437.06,-94.8795 483.654,-80.0915"/>
<polygon fill="midnightblue" stroke="midnightblue" points="484.857,-83.3818 493.328,-77.0178 482.737,-76.7105 484.857,-83.3818"/>
</g>
<!-- Node16 -->
<g id="node16" class="node"><title>Node16</title>
<polygon fill="white" stroke="#bfbfbf" points="301.384,-59 301.384,-79 344.616,-79 344.616,-59 301.384,-59"/>
<text text-anchor="middle" x="323" y="-65" font-family="Helvetica,sans-Serif" font-size="10.00">cmath</text>
</g>
<!-- Node10&#45;&gt;Node16 -->
<g id="edge17" class="edge"><title>Node10&#45;&gt;Node16</title>
<path fill="none" stroke="midnightblue" d="M334.688,-116.753C332.813,-109.25 330.106,-98.4238 327.77,-89.0781"/>
<polygon fill="midnightblue" stroke="midnightblue" points="331.09,-87.9277 325.269,-79.0752 324.299,-89.6255 331.09,-87.9277"/>
</g>
<!-- Node12 -->
<g id="node12" class="node"><title>Node12</title>
<polygon fill="white" stroke="#bfbfbf" points="263.549,-1 263.549,-21 308.451,-21 308.451,-1 263.549,-1"/>
<text text-anchor="middle" x="286" y="-7" font-family="Helvetica,sans-Serif" font-size="10.00">cstdint</text>
</g>
<!-- Node11&#45;&gt;Node12 -->
<g id="edge12" class="edge"><title>Node11&#45;&gt;Node12</title>
<path fill="none" stroke="midnightblue" d="M196.669,-58.7527C213.808,-49.7826 240.028,-36.0601 259.635,-25.7986"/>
<polygon fill="midnightblue" stroke="midnightblue" points="261.423,-28.8132 268.66,-21.0752 258.177,-22.6112 261.423,-28.8132"/>
</g>
<!-- Node13 -->
<g id="node13" class="node"><title>Node13</title>
<polygon fill="white" stroke="#bfbfbf" points="-0.470215,-1 -0.470215,-21 94.4702,-21 94.4702,-1 -0.470215,-1"/>
<text text-anchor="middle" x="47" y="-7" font-family="Helvetica,sans-Serif" font-size="10.00">boost/version.hpp</text>
</g>
<!-- Node11&#45;&gt;Node13 -->
<g id="edge13" class="edge"><title>Node11&#45;&gt;Node13</title>
<path fill="none" stroke="midnightblue" d="M157.498,-58.878C135.828,-49.6848 102.179,-35.4095 77.7048,-25.0263"/>
<polygon fill="midnightblue" stroke="midnightblue" points="79.0654,-21.8016 68.4927,-21.1181 76.3315,-28.2457 79.0654,-21.8016"/>
</g>
<!-- Node14 -->
<g id="node14" class="node"><title>Node14</title>
<polygon fill="white" stroke="#bfbfbf" points="112.621,-1 112.621,-21 245.379,-21 245.379,-1 112.621,-1"/>
<text text-anchor="middle" x="179" y="-7" font-family="Helvetica,sans-Serif" font-size="10.00">boost/checked_delete.hpp</text>
</g>
<!-- Node11&#45;&gt;Node14 -->
<g id="edge14" class="edge"><title>Node11&#45;&gt;Node14</title>
<path fill="none" stroke="midnightblue" d="M179,-58.7527C179,-51.2504 179,-40.4238 179,-31.0781"/>
<polygon fill="midnightblue" stroke="midnightblue" points="182.5,-31.0752 179,-21.0752 175.5,-31.0752 182.5,-31.0752"/>
</g>
</g>
</svg>
