<?xml version="1.0" encoding="UTF-8" standalone="no"?>
<!DOCTYPE svg PUBLIC "-//W3C//DTD SVG 1.1//EN"
 "http://www.w3.org/Graphics/SVG/1.1/DTD/svg11.dtd">
<!-- Generated by graphviz version 2.30.1 (20140712.1814)
 -->
<!-- Title: include/cinder/audio/dsp/Fft.h Pages: 1 -->
<svg width="253pt" height="112pt"
 viewBox="0.00 0.00 253.00 112.00" xmlns="http://www.w3.org/2000/svg" xmlns:xlink="http://www.w3.org/1999/xlink">
<g id="graph0" class="graph" transform="scale(1 1) rotate(0) translate(4 108)">
<title>include/cinder/audio/dsp/Fft.h</title>
<polygon fill="white" stroke="white" points="-4,5 -4,-108 250,-108 250,5 -4,5"/>
<!-- Node1 -->
<g id="node1" class="node"><title>Node1</title>
<polygon fill="#bfbfbf" stroke="black" points="65.5249,-71 65.5249,-103 170.475,-103 170.475,-71 65.5249,-71"/>
<text text-anchor="start" x="73.5249" y="-89" font-family="Helvetica,sans-Serif" font-size="10.00">include/cinder/audio</text>
<text text-anchor="middle" x="118" y="-77" font-family="Helvetica,sans-Serif" font-size="10.00">/dsp/Fft.h</text>
</g>
<!-- Node2 -->
<g id="node2" class="node"><title>Node2</title>
<g id="a_node2"><a xlink:href="_fft_8cpp.html" target="_top" xlink:title="src/cinder/audio/dsp\l/Fft.cpp">
<polygon fill="white" stroke="black" points="-0.746094,-1 -0.746094,-33 104.746,-33 104.746,-1 -0.746094,-1"/>
<text text-anchor="start" x="7.25391" y="-19" font-family="Helvetica,sans-Serif" font-size="10.00">src/cinder/audio/dsp</text>
<text text-anchor="middle" x="52" y="-7" font-family="Helvetica,sans-Serif" font-size="10.00">/Fft.cpp</text>
</a>
</g>
</g>
<!-- Node1&#45;&gt;Node2 -->
<g id="edge1" class="edge"><title>Node1&#45;&gt;Node2</title>
<path fill="none" stroke="midnightblue" d="M96.2656,-63.6069C86.5328,-53.5793 75.3144,-42.0209 66.6066,-33.0492"/>
<polygon fill="midnightblue" stroke="midnightblue" points="93.8761,-66.1704 103.352,-70.9086 98.8992,-61.2951 93.8761,-66.1704"/>
</g>
<!-- Node3 -->
<g id="node3" class="node"><title>Node3</title>
<g id="a_node3"><a xlink:href="_monitor_node_8cpp.html" target="_top" xlink:title="src/cinder/audio/Monitor\lNode.cpp">
<polygon fill="white" stroke="black" points="122.643,-1 122.643,-33 245.357,-33 245.357,-1 122.643,-1"/>
<text text-anchor="start" x="130.643" y="-19" font-family="Helvetica,sans-Serif" font-size="10.00">src/cinder/audio/Monitor</text>
<text text-anchor="middle" x="184" y="-7" font-family="Helvetica,sans-Serif" font-size="10.00">Node.cpp</text>
</a>
</g>
</g>
<!-- Node1&#45;&gt;Node3 -->
<g id="edge2" class="edge"><title>Node1&#45;&gt;Node3</title>
<path fill="none" stroke="midnightblue" d="M139.734,-63.6069C149.467,-53.5793 160.686,-42.0209 169.393,-33.0492"/>
<polygon fill="midnightblue" stroke="midnightblue" points="137.101,-61.2951 132.648,-70.9086 142.124,-66.1704 137.101,-61.2951"/>
</g>
</g>
</svg>
