<?xml version="1.0" encoding="UTF-8" standalone="no"?>
<!DOCTYPE svg PUBLIC "-//W3C//DTD SVG 1.1//EN"
 "http://www.w3.org/Graphics/SVG/1.1/DTD/svg11.dtd">
<!-- Generated by graphviz version 2.30.1 (20140712.1814)
 -->
<!-- Title: include/cinder/audio/cocoa/FileCoreAudio.h Pages: 1 -->
<!--zoomable 460 -->
<svg id="main" version="1.1" xmlns="http://www.w3.org/2000/svg" xmlns:xlink="http://www.w3.org/1999/xlink" xml:space="preserve" onload="init(evt)">
<style type="text/css"><![CDATA[
.edge:hover path { stroke: red; }
.edge:hover polygon { stroke: red; fill: red; }
]]></style>
<script type="text/javascript"><![CDATA[
var edges = document.getElementsByTagName('g');
if (edges && edges.length) {
  for (var i=0;i<edges.length;i++) {
    if (edges[i].id.substr(0,4)=='edge') {
      edges[i].setAttribute('class','edge');
    }
  }
}
]]></script>
        <defs>
                <circle id="rim" cx="0" cy="0" r="7"/>
                <circle id="rim2" cx="0" cy="0" r="3.5"/>
                <g id="zoomPlus">
                        <use xlink:href="#rim" fill="#404040">
                                <set attributeName="fill" to="#808080" begin="zoomplus.mouseover" end="zoomplus.mouseout"/>
                        </use>
                        <path d="M-4,0h8M0,-4v8" fill="none" stroke="white" stroke-width="1.5" pointer-events="none"/>
                </g>
                <g id="zoomMin">
                        <use xlink:href="#rim" fill="#404040">
                                <set attributeName="fill" to="#808080" begin="zoomminus.mouseover" end="zoomminus.mouseout"/>
                        </use>
                        <path d="M-4,0h8" fill="none" stroke="white" stroke-width="1.5" pointer-events="none"/>
                </g>
                <g id="dirArrow">
                        <path fill="none" stroke="white" stroke-width="1.5" d="M0,-3.0v7 M-2.5,-0.5L0,-3.0L2.5,-0.5"/>
                </g>
               <g id="resetDef">
                       <use xlink:href="#rim2" fill="#404040">
                               <set attributeName="fill" to="#808080" begin="reset.mouseover" end="reset.mouseout"/>
                       </use>
               </g>
        </defs>

<script type="text/javascript">
var viewWidth = 1536;
var viewHeight = 460;
var sectionId = 'dynsection-0';
</script>
<script xlink:href="svgpan.js"/>
<svg id="graph" class="graph">
<g id="viewport">
<title>include/cinder/audio/cocoa/FileCoreAudio.h</title>
<polygon fill="white" stroke="white" points="-4,5 -4,-456 1533,-456 1533,5 -4,5"/>
<!-- Node1 -->
<g id="node1" class="node"><title>Node1</title>
<polygon fill="#bfbfbf" stroke="black" points="933.027,-419 933.027,-451 1052.97,-451 1052.97,-419 933.027,-419"/>
<text text-anchor="start" x="941.027" y="-437" font-family="Helvetica,sans-Serif" font-size="10.00">include/cinder/audio</text>
<text text-anchor="middle" x="993" y="-425" font-family="Helvetica,sans-Serif" font-size="10.00">/cocoa/FileCoreAudio.h</text>
</g>
<!-- Node2 -->
<g id="node2" class="node"><title>Node2</title>
<g id="a_node2"><a xlink:href="_source_8h.html" target="_top" xlink:title="cinder/audio/Source.h">
<polygon fill="white" stroke="black" points="469.357,-355 469.357,-375 582.643,-375 582.643,-355 469.357,-355"/>
<text text-anchor="middle" x="526" y="-361" font-family="Helvetica,sans-Serif" font-size="10.00">cinder/audio/Source.h</text>
</a>
</g>
</g>
<!-- Node1&#45;&gt;Node2 -->
<g id="edge1" class="edge"><title>Node1&#45;&gt;Node2</title>
<path fill="none" stroke="midnightblue" d="M932.904,-425.249C845.524,-412.526 683.923,-388.995 592.876,-375.738"/>
<polygon fill="midnightblue" stroke="midnightblue" points="593.342,-372.269 582.942,-374.291 592.334,-379.196 593.342,-372.269"/>
</g>
<!-- Node27 -->
<g id="node27" class="node"><title>Node27</title>
<g id="a_node27"><a xlink:href="_target_8h.html" target="_top" xlink:title="cinder/audio/Target.h">
<polygon fill="white" stroke="black" points="938.303,-355 938.303,-375 1047.7,-375 1047.7,-355 938.303,-355"/>
<text text-anchor="middle" x="993" y="-361" font-family="Helvetica,sans-Serif" font-size="10.00">cinder/audio/Target.h</text>
</a>
</g>
</g>
<!-- Node1&#45;&gt;Node27 -->
<g id="edge37" class="edge"><title>Node1&#45;&gt;Node27</title>
<path fill="none" stroke="midnightblue" d="M993,-418.909C993,-408.919 993,-395.736 993,-385.028"/>
<polygon fill="midnightblue" stroke="midnightblue" points="996.5,-385.004 993,-375.004 989.5,-385.004 996.5,-385.004"/>
</g>
<!-- Node30 -->
<g id="node30" class="node"><title>Node30</title>
<g id="a_node30"><a xlink:href="_cinder_core_audio_8h.html" target="_top" xlink:title="cinder/audio/cocoa\l/CinderCoreAudio.h">
<polygon fill="white" stroke="black" points="1196.09,-349 1196.09,-381 1299.91,-381 1299.91,-349 1196.09,-349"/>
<text text-anchor="start" x="1204.09" y="-367" font-family="Helvetica,sans-Serif" font-size="10.00">cinder/audio/cocoa</text>
<text text-anchor="middle" x="1248" y="-355" font-family="Helvetica,sans-Serif" font-size="10.00">/CinderCoreAudio.h</text>
</a>
</g>
</g>
<!-- Node1&#45;&gt;Node30 -->
<g id="edge45" class="edge"><title>Node1&#45;&gt;Node30</title>
<path fill="none" stroke="midnightblue" d="M1049.28,-418.993C1089.74,-408.203 1144.3,-393.655 1186.01,-382.531"/>
<polygon fill="midnightblue" stroke="midnightblue" points="1187.02,-385.884 1195.78,-379.926 1185.21,-379.121 1187.02,-385.884"/>
</g>
<!-- Node11 -->
<g id="node11" class="node"><title>Node11</title>
<g id="a_node11"><a xlink:href="_data_source_8h.html" target="_top" xlink:title="cinder/DataSource.h">
<polygon fill="white" stroke="black" points="378.419,-291 378.419,-311 485.581,-311 485.581,-291 378.419,-291"/>
<text text-anchor="middle" x="432" y="-297" font-family="Helvetica,sans-Serif" font-size="10.00">cinder/DataSource.h</text>
</a>
</g>
</g>
<!-- Node1&#45;&gt;Node11 -->
<g id="edge52" class="edge"><title>Node1&#45;&gt;Node11</title>
<path fill="none" stroke="midnightblue" d="M932.963,-419.874C820.944,-393.516 582.199,-337.341 480.021,-313.299"/>
<polygon fill="midnightblue" stroke="midnightblue" points="480.813,-309.89 470.277,-311.006 479.21,-316.704 480.813,-309.89"/>
</g>
<!-- Node33 -->
<g id="node33" class="node"><title>Node33</title>
<polygon fill="white" stroke="#bfbfbf" points="1317.67,-349 1317.67,-381 1464.33,-381 1464.33,-349 1317.67,-349"/>
<text text-anchor="start" x="1325.67" y="-367" font-family="Helvetica,sans-Serif" font-size="10.00">AudioToolbox/ExtendedAudio</text>
<text text-anchor="middle" x="1391" y="-355" font-family="Helvetica,sans-Serif" font-size="10.00">File.h</text>
</g>
<!-- Node1&#45;&gt;Node33 -->
<g id="edge53" class="edge"><title>Node1&#45;&gt;Node33</title>
<path fill="none" stroke="midnightblue" d="M1053.18,-424.558C1114.46,-414.831 1212.49,-398.967 1307.21,-382.115"/>
<polygon fill="midnightblue" stroke="midnightblue" points="1308.02,-385.526 1317.25,-380.323 1306.79,-378.635 1308.02,-385.526"/>
</g>
<!-- Node3 -->
<g id="node3" class="node"><title>Node3</title>
<g id="a_node3"><a xlink:href="audio_2_buffer_8h.html" target="_top" xlink:title="cinder/audio/Buffer.h">
<polygon fill="white" stroke="black" points="1069.22,-233 1069.22,-253 1176.78,-253 1176.78,-233 1069.22,-233"/>
<text text-anchor="middle" x="1123" y="-239" font-family="Helvetica,sans-Serif" font-size="10.00">cinder/audio/Buffer.h</text>
</a>
</g>
</g>
<!-- Node2&#45;&gt;Node3 -->
<g id="edge2" class="edge"><title>Node2&#45;&gt;Node3</title>
<path fill="none" stroke="midnightblue" d="M582.663,-359.561C650.375,-353.278 766.615,-339.368 863,-312 887.14,-305.145 891.094,-297.63 915,-290 962.684,-274.781 1018.08,-262.797 1059.72,-254.881"/>
<polygon fill="midnightblue" stroke="midnightblue" points="1060.54,-258.288 1069.72,-253.006 1059.25,-251.408 1060.54,-258.288"/>
</g>
<!-- Node2&#45;&gt;Node11 -->
<g id="edge10" class="edge"><title>Node2&#45;&gt;Node11</title>
<path fill="none" stroke="midnightblue" d="M512.13,-354.852C496.996,-344.87 472.537,-328.737 454.617,-316.918"/>
<polygon fill="midnightblue" stroke="midnightblue" points="456.202,-313.77 445.927,-311.186 452.348,-319.614 456.202,-313.77"/>
</g>
<!-- Node23 -->
<g id="node23" class="node"><title>Node23</title>
<polygon fill="white" stroke="#bfbfbf" points="-0.708984,-117 -0.708984,-137 118.709,-137 118.709,-117 -0.708984,-117"/>
<text text-anchor="middle" x="59" y="-123" font-family="Helvetica,sans-Serif" font-size="10.00">boost/noncopyable.hpp</text>
</g>
<!-- Node2&#45;&gt;Node23 -->
<g id="edge36" class="edge"><title>Node2&#45;&gt;Node23</title>
<path fill="none" stroke="midnightblue" d="M496.553,-354.953C464.836,-345.044 412.997,-328.375 369,-312 305.879,-288.508 287.605,-287.19 229,-254 169.938,-220.552 107.578,-169.752 77.4456,-144.07"/>
<polygon fill="midnightblue" stroke="midnightblue" points="79.3636,-141.104 69.4984,-137.24 74.8009,-146.413 79.3636,-141.104"/>
</g>
<!-- Node4 -->
<g id="node4" class="node"><title>Node4</title>
<g id="a_node4"><a xlink:href="_cinder_assert_8h.html" target="_top" xlink:title="cinder/CinderAssert.h">
<polygon fill="white" stroke="black" points="1027.92,-175 1027.92,-195 1140.08,-195 1140.08,-175 1027.92,-175"/>
<text text-anchor="middle" x="1084" y="-181" font-family="Helvetica,sans-Serif" font-size="10.00">cinder/CinderAssert.h</text>
</a>
</g>
</g>
<!-- Node3&#45;&gt;Node4 -->
<g id="edge3" class="edge"><title>Node3&#45;&gt;Node4</title>
<path fill="none" stroke="midnightblue" d="M1116.56,-232.753C1111.05,-224.843 1102.97,-213.237 1096.24,-203.568"/>
<polygon fill="midnightblue" stroke="midnightblue" points="1098.91,-201.281 1090.32,-195.075 1093.16,-205.282 1098.91,-201.281"/>
</g>
<!-- Node7 -->
<g id="node7" class="node"><title>Node7</title>
<polygon fill="white" stroke="#bfbfbf" points="1222.38,-59 1222.38,-79 1265.62,-79 1265.62,-59 1222.38,-59"/>
<text text-anchor="middle" x="1244" y="-65" font-family="Helvetica,sans-Serif" font-size="10.00">vector</text>
</g>
<!-- Node3&#45;&gt;Node7 -->
<g id="edge6" class="edge"><title>Node3&#45;&gt;Node7</title>
<path fill="none" stroke="midnightblue" d="M1164.84,-232.925C1185.77,-226.216 1209.65,-214.861 1224,-196 1247.94,-164.536 1248.22,-115.691 1246.19,-89.0005"/>
<polygon fill="midnightblue" stroke="midnightblue" points="1249.68,-88.6575 1245.25,-79.0333 1242.71,-89.3195 1249.68,-88.6575"/>
</g>
<!-- Node8 -->
<g id="node8" class="node"><title>Node8</title>
<polygon fill="white" stroke="#bfbfbf" points="1271.94,-175 1271.94,-195 1324.06,-195 1324.06,-175 1271.94,-175"/>
<text text-anchor="middle" x="1298" y="-181" font-family="Helvetica,sans-Serif" font-size="10.00">memory</text>
</g>
<!-- Node3&#45;&gt;Node8 -->
<g id="edge7" class="edge"><title>Node3&#45;&gt;Node8</title>
<path fill="none" stroke="midnightblue" d="M1151.51,-232.878C1181.7,-223.216 1229.44,-207.94 1262.16,-197.469"/>
<polygon fill="midnightblue" stroke="midnightblue" points="1263.34,-200.767 1271.79,-194.386 1261.2,-194.1 1263.34,-200.767"/>
</g>
<!-- Node9 -->
<g id="node9" class="node"><title>Node9</title>
<polygon fill="white" stroke="#bfbfbf" points="965.828,-175 965.828,-195 1010.17,-195 1010.17,-175 965.828,-175"/>
<text text-anchor="middle" x="988" y="-181" font-family="Helvetica,sans-Serif" font-size="10.00">cstdlib</text>
</g>
<!-- Node3&#45;&gt;Node9 -->
<g id="edge8" class="edge"><title>Node3&#45;&gt;Node9</title>
<path fill="none" stroke="midnightblue" d="M1101.01,-232.878C1078.85,-223.685 1044.43,-209.409 1019.4,-199.026"/>
<polygon fill="midnightblue" stroke="midnightblue" points="1020.56,-195.717 1009.98,-195.118 1017.88,-202.183 1020.56,-195.717"/>
</g>
<!-- Node10 -->
<g id="node10" class="node"><title>Node10</title>
<polygon fill="white" stroke="#bfbfbf" points="1158.44,-175 1158.44,-195 1215.56,-195 1215.56,-175 1158.44,-175"/>
<text text-anchor="middle" x="1187" y="-181" font-family="Helvetica,sans-Serif" font-size="10.00">algorithm</text>
</g>
<!-- Node3&#45;&gt;Node10 -->
<g id="edge9" class="edge"><title>Node3&#45;&gt;Node10</title>
<path fill="none" stroke="midnightblue" d="M1133.57,-232.753C1143.17,-224.353 1157.53,-211.787 1168.95,-201.798"/>
<polygon fill="midnightblue" stroke="midnightblue" points="1171.41,-204.294 1176.63,-195.075 1166.8,-199.026 1171.41,-204.294"/>
</g>
<!-- Node5 -->
<g id="node5" class="node"><title>Node5</title>
<g id="a_node5"><a xlink:href="_current_function_8h.html" target="_top" xlink:title="cinder/CurrentFunction.h">
<polygon fill="white" stroke="black" points="1022.97,-117 1022.97,-137 1149.03,-137 1149.03,-117 1022.97,-117"/>
<text text-anchor="middle" x="1086" y="-123" font-family="Helvetica,sans-Serif" font-size="10.00">cinder/CurrentFunction.h</text>
</a>
</g>
</g>
<!-- Node4&#45;&gt;Node5 -->
<g id="edge4" class="edge"><title>Node4&#45;&gt;Node5</title>
<path fill="none" stroke="midnightblue" d="M1084.33,-174.753C1084.6,-167.25 1084.98,-156.424 1085.32,-147.078"/>
<polygon fill="midnightblue" stroke="midnightblue" points="1088.82,-147.194 1085.68,-137.075 1081.82,-146.944 1088.82,-147.194"/>
</g>
<!-- Node6 -->
<g id="node6" class="node"><title>Node6</title>
<polygon fill="white" stroke="#bfbfbf" points="1166.88,-117 1166.88,-137 1215.12,-137 1215.12,-117 1166.88,-117"/>
<text text-anchor="middle" x="1191" y="-123" font-family="Helvetica,sans-Serif" font-size="10.00">cassert</text>
</g>
<!-- Node4&#45;&gt;Node6 -->
<g id="edge5" class="edge"><title>Node4&#45;&gt;Node6</title>
<path fill="none" stroke="midnightblue" d="M1101.67,-174.753C1118.81,-165.783 1145.03,-152.06 1164.63,-141.799"/>
<polygon fill="midnightblue" stroke="midnightblue" points="1166.42,-144.813 1173.66,-137.075 1163.18,-138.611 1166.42,-144.813"/>
</g>
<!-- Node12 -->
<g id="node12" class="node"><title>Node12</title>
<g id="a_node12"><a xlink:href="_cinder_8h.html" target="_top" xlink:title="cinder/Cinder.h">
<polygon fill="white" stroke="black" points="331.367,-59 331.367,-79 414.633,-79 414.633,-59 331.367,-59"/>
<text text-anchor="middle" x="373" y="-65" font-family="Helvetica,sans-Serif" font-size="10.00">cinder/Cinder.h</text>
</a>
</g>
</g>
<!-- Node11&#45;&gt;Node12 -->
<g id="edge11" class="edge"><title>Node11&#45;&gt;Node12</title>
<path fill="none" stroke="midnightblue" d="M418.732,-290.984C406.942,-282.48 389.797,-268.851 378,-254 341.897,-208.55 331.722,-194.398 318,-138 315.688,-128.499 313.861,-124.858 318,-116 324.071,-103.008 335.816,-92.3935 346.899,-84.6479"/>
<polygon fill="midnightblue" stroke="midnightblue" points="349.034,-87.4349 355.524,-79.0604 345.228,-81.5599 349.034,-87.4349"/>
</g>
<!-- Node16 -->
<g id="node16" class="node"><title>Node16</title>
<g id="a_node16"><a xlink:href="_url_8h.html" target="_top" xlink:title="cinder/Url.h">
<polygon fill="white" stroke="black" points="398.436,-233 398.436,-253 465.564,-253 465.564,-233 398.436,-233"/>
<text text-anchor="middle" x="432" y="-239" font-family="Helvetica,sans-Serif" font-size="10.00">cinder/Url.h</text>
</a>
</g>
</g>
<!-- Node11&#45;&gt;Node16 -->
<g id="edge15" class="edge"><title>Node11&#45;&gt;Node16</title>
<path fill="none" stroke="midnightblue" d="M432,-290.753C432,-283.25 432,-272.424 432,-263.078"/>
<polygon fill="midnightblue" stroke="midnightblue" points="435.5,-263.075 432,-253.075 428.5,-263.075 435.5,-263.075"/>
</g>
<!-- Node18 -->
<g id="node18" class="node"><title>Node18</title>
<g id="a_node18"><a xlink:href="_buffer_8h.html" target="_top" xlink:title="cinder/Buffer.h">
<polygon fill="white" stroke="black" points="332.844,-117 332.844,-137 413.156,-137 413.156,-117 332.844,-117"/>
<text text-anchor="middle" x="373" y="-123" font-family="Helvetica,sans-Serif" font-size="10.00">cinder/Buffer.h</text>
</a>
</g>
</g>
<!-- Node11&#45;&gt;Node18 -->
<g id="edge33" class="edge"><title>Node11&#45;&gt;Node18</title>
<path fill="none" stroke="midnightblue" d="M419.973,-290.84C409.898,-282.438 396.063,-269.041 389,-254 372.582,-219.036 371.141,-172.926 371.868,-147.294"/>
<polygon fill="midnightblue" stroke="midnightblue" points="375.374,-147.213 372.308,-137.072 368.381,-146.912 375.374,-147.213"/>
</g>
<!-- Node17 -->
<g id="node17" class="node"><title>Node17</title>
<g id="a_node17"><a xlink:href="_stream_8h.html" target="_top" xlink:title="cinder/Stream.h">
<polygon fill="white" stroke="black" points="470.707,-175 470.707,-195 557.293,-195 557.293,-175 470.707,-175"/>
<text text-anchor="middle" x="514" y="-181" font-family="Helvetica,sans-Serif" font-size="10.00">cinder/Stream.h</text>
</a>
</g>
</g>
<!-- Node11&#45;&gt;Node17 -->
<g id="edge34" class="edge"><title>Node11&#45;&gt;Node17</title>
<path fill="none" stroke="midnightblue" d="M441.291,-290.982C450.233,-282.048 463.853,-267.747 474,-254 485.781,-238.038 497.036,-218.37 504.589,-204.3"/>
<polygon fill="midnightblue" stroke="midnightblue" points="507.83,-205.656 509.388,-195.176 501.635,-202.397 507.83,-205.656"/>
</g>
<!-- Node21 -->
<g id="node21" class="node"><title>Node21</title>
<g id="a_node21"><a xlink:href="_filesystem_8h.html" target="_top" xlink:title="cinder/Filesystem.h">
<polygon fill="white" stroke="black" points="136.931,-117 136.931,-137 239.069,-137 239.069,-117 136.931,-117"/>
<text text-anchor="middle" x="188" y="-123" font-family="Helvetica,sans-Serif" font-size="10.00">cinder/Filesystem.h</text>
</a>
</g>
</g>
<!-- Node11&#45;&gt;Node21 -->
<g id="edge35" class="edge"><title>Node11&#45;&gt;Node21</title>
<path fill="none" stroke="midnightblue" d="M378.32,-297.655C339.804,-293.449 288.627,-282.402 253,-254 218.168,-226.232 200.1,-174.754 192.501,-146.967"/>
<polygon fill="midnightblue" stroke="midnightblue" points="195.887,-146.082 190.014,-137.265 189.107,-147.82 195.887,-146.082"/>
</g>
<!-- Node13 -->
<g id="node13" class="node"><title>Node13</title>
<polygon fill="white" stroke="#bfbfbf" points="262.549,-1 262.549,-21 307.451,-21 307.451,-1 262.549,-1"/>
<text text-anchor="middle" x="285" y="-7" font-family="Helvetica,sans-Serif" font-size="10.00">cstdint</text>
</g>
<!-- Node12&#45;&gt;Node13 -->
<g id="edge12" class="edge"><title>Node12&#45;&gt;Node13</title>
<path fill="none" stroke="midnightblue" d="M358.469,-58.7527C344.757,-50.0272 323.979,-36.8051 308.015,-26.6458"/>
<polygon fill="midnightblue" stroke="midnightblue" points="309.577,-23.4912 299.261,-21.0752 305.819,-29.3968 309.577,-23.4912"/>
</g>
<!-- Node14 -->
<g id="node14" class="node"><title>Node14</title>
<polygon fill="white" stroke="#bfbfbf" points="325.53,-1 325.53,-21 420.47,-21 420.47,-1 325.53,-1"/>
<text text-anchor="middle" x="373" y="-7" font-family="Helvetica,sans-Serif" font-size="10.00">boost/version.hpp</text>
</g>
<!-- Node12&#45;&gt;Node14 -->
<g id="edge13" class="edge"><title>Node12&#45;&gt;Node14</title>
<path fill="none" stroke="midnightblue" d="M373,-58.7527C373,-51.2504 373,-40.4238 373,-31.0781"/>
<polygon fill="midnightblue" stroke="midnightblue" points="376.5,-31.0752 373,-21.0752 369.5,-31.0752 376.5,-31.0752"/>
</g>
<!-- Node15 -->
<g id="node15" class="node"><title>Node15</title>
<polygon fill="white" stroke="#bfbfbf" points="438.621,-1 438.621,-21 571.379,-21 571.379,-1 438.621,-1"/>
<text text-anchor="middle" x="505" y="-7" font-family="Helvetica,sans-Serif" font-size="10.00">boost/checked_delete.hpp</text>
</g>
<!-- Node12&#45;&gt;Node15 -->
<g id="edge14" class="edge"><title>Node12&#45;&gt;Node15</title>
<path fill="none" stroke="midnightblue" d="M394.502,-58.878C416.172,-49.6848 449.821,-35.4095 474.295,-25.0263"/>
<polygon fill="midnightblue" stroke="midnightblue" points="475.668,-28.2457 483.507,-21.1181 472.935,-21.8016 475.668,-28.2457"/>
</g>
<!-- Node16&#45;&gt;Node12 -->
<g id="edge16" class="edge"><title>Node16&#45;&gt;Node12</title>
<path fill="none" stroke="midnightblue" d="M416.441,-232.918C391.375,-217.266 342.949,-182.554 324,-138 320.173,-129.002 320.116,-124.973 324,-116 329.359,-103.619 339.873,-93.0378 349.792,-85.1567"/>
<polygon fill="midnightblue" stroke="midnightblue" points="351.899,-87.9517 357.858,-79.1914 347.737,-82.3236 351.899,-87.9517"/>
</g>
<!-- Node16&#45;&gt;Node17 -->
<g id="edge17" class="edge"><title>Node16&#45;&gt;Node17</title>
<path fill="none" stroke="midnightblue" d="M445.541,-232.753C458.198,-224.109 477.317,-211.052 492.136,-200.931"/>
<polygon fill="midnightblue" stroke="midnightblue" points="494.427,-203.605 500.711,-195.075 490.479,-197.825 494.427,-203.605"/>
</g>
<!-- Node26 -->
<g id="node26" class="node"><title>Node26</title>
<polygon fill="white" stroke="#bfbfbf" points="398.828,-175 398.828,-195 453.172,-195 453.172,-175 398.828,-175"/>
<text text-anchor="middle" x="426" y="-181" font-family="Helvetica,sans-Serif" font-size="10.00">iostream</text>
</g>
<!-- Node16&#45;&gt;Node26 -->
<g id="edge32" class="edge"><title>Node16&#45;&gt;Node26</title>
<path fill="none" stroke="midnightblue" d="M431.009,-232.753C430.205,-225.25 429.045,-214.424 428.044,-205.078"/>
<polygon fill="midnightblue" stroke="midnightblue" points="431.518,-204.645 426.972,-195.075 424.558,-205.391 431.518,-204.645"/>
</g>
<!-- Node17&#45;&gt;Node12 -->
<g id="edge18" class="edge"><title>Node17&#45;&gt;Node12</title>
<path fill="none" stroke="midnightblue" d="M502.461,-174.671C478.277,-155.118 422.058,-109.664 392.29,-85.596"/>
<polygon fill="midnightblue" stroke="midnightblue" points="394.281,-82.7049 384.304,-79.1394 389.88,-88.1484 394.281,-82.7049"/>
</g>
<!-- Node17&#45;&gt;Node18 -->
<g id="edge19" class="edge"><title>Node17&#45;&gt;Node18</title>
<path fill="none" stroke="midnightblue" d="M491.032,-174.878C467.782,-165.644 431.623,-151.283 405.452,-140.889"/>
<polygon fill="midnightblue" stroke="midnightblue" points="406.544,-137.556 395.958,-137.118 403.96,-144.062 406.544,-137.556"/>
</g>
<!-- Node19 -->
<g id="node19" class="node"><title>Node19</title>
<g id="a_node19"><a xlink:href="_exception_8h.html" target="_top" xlink:title="cinder/Exception.h">
<polygon fill="white" stroke="black" points="830.865,-117 830.865,-137 929.135,-137 929.135,-117 830.865,-117"/>
<text text-anchor="middle" x="880" y="-123" font-family="Helvetica,sans-Serif" font-size="10.00">cinder/Exception.h</text>
</a>
</g>
</g>
<!-- Node17&#45;&gt;Node19 -->
<g id="edge21" class="edge"><title>Node17&#45;&gt;Node19</title>
<path fill="none" stroke="midnightblue" d="M557.422,-177.356C622.889,-167.339 747.033,-148.345 820.755,-137.065"/>
<polygon fill="midnightblue" stroke="midnightblue" points="821.456,-140.498 830.812,-135.526 820.397,-133.579 821.456,-140.498"/>
</g>
<!-- Node17&#45;&gt;Node21 -->
<g id="edge25" class="edge"><title>Node17&#45;&gt;Node21</title>
<path fill="none" stroke="midnightblue" d="M470.603,-175.575C467.693,-175.034 464.805,-174.505 462,-174 389.043,-160.863 304.934,-146.921 249.356,-137.875"/>
<polygon fill="midnightblue" stroke="midnightblue" points="249.752,-134.393 239.32,-136.244 248.629,-141.302 249.752,-134.393"/>
</g>
<!-- Node17&#45;&gt;Node23 -->
<g id="edge28" class="edge"><title>Node17&#45;&gt;Node23</title>
<path fill="none" stroke="midnightblue" d="M470.634,-175.383C467.717,-174.889 464.818,-174.422 462,-174 317.515,-152.358 277.82,-156.515 128.797,-138.055"/>
<polygon fill="midnightblue" stroke="midnightblue" points="129.178,-134.576 118.821,-136.806 128.309,-141.522 129.178,-134.576"/>
</g>
<!-- Node20 -->
<g id="node20" class="node"><title>Node20</title>
<polygon fill="white" stroke="#bfbfbf" points="936.773,-59 936.773,-79 977.227,-79 977.227,-59 936.773,-59"/>
<text text-anchor="middle" x="957" y="-65" font-family="Helvetica,sans-Serif" font-size="10.00">string</text>
</g>
<!-- Node17&#45;&gt;Node20 -->
<g id="edge29" class="edge"><title>Node17&#45;&gt;Node20</title>
<path fill="none" stroke="midnightblue" d="M557.31,-182.026C659.521,-176.986 909.337,-162.3 938,-138 951.994,-126.136 956.119,-104.901 957.132,-89.3077"/>
<polygon fill="midnightblue" stroke="midnightblue" points="960.635,-89.2593 957.416,-79.1652 953.637,-89.0634 960.635,-89.2593"/>
</g>
<!-- Node24 -->
<g id="node24" class="node"><title>Node24</title>
<polygon fill="white" stroke="#bfbfbf" points="468.574,-117 468.574,-137 617.426,-137 617.426,-117 468.574,-117"/>
<text text-anchor="middle" x="543" y="-123" font-family="Helvetica,sans-Serif" font-size="10.00">boost/iostreams/concepts.hpp</text>
</g>
<!-- Node17&#45;&gt;Node24 -->
<g id="edge30" class="edge"><title>Node17&#45;&gt;Node24</title>
<path fill="none" stroke="midnightblue" d="M518.789,-174.753C522.801,-167.006 528.648,-155.714 533.591,-146.169"/>
<polygon fill="midnightblue" stroke="midnightblue" points="536.81,-147.565 538.3,-137.075 530.594,-144.346 536.81,-147.565"/>
</g>
<!-- Node25 -->
<g id="node25" class="node"><title>Node25</title>
<polygon fill="white" stroke="#bfbfbf" points="635.306,-117 635.306,-137 774.694,-137 774.694,-117 635.306,-117"/>
<text text-anchor="middle" x="705" y="-123" font-family="Helvetica,sans-Serif" font-size="10.00">boost/iostreams/stream.hpp</text>
</g>
<!-- Node17&#45;&gt;Node25 -->
<g id="edge31" class="edge"><title>Node17&#45;&gt;Node25</title>
<path fill="none" stroke="midnightblue" d="M545.113,-174.878C577.675,-165.331 628.93,-150.303 664.599,-139.845"/>
<polygon fill="midnightblue" stroke="midnightblue" points="665.606,-143.198 674.217,-137.025 663.636,-136.48 665.606,-143.198"/>
</g>
<!-- Node18&#45;&gt;Node12 -->
<g id="edge20" class="edge"><title>Node18&#45;&gt;Node12</title>
<path fill="none" stroke="midnightblue" d="M373,-116.753C373,-109.25 373,-98.4238 373,-89.0781"/>
<polygon fill="midnightblue" stroke="midnightblue" points="376.5,-89.0752 373,-79.0752 369.5,-89.0752 376.5,-89.0752"/>
</g>
<!-- Node19&#45;&gt;Node12 -->
<g id="edge22" class="edge"><title>Node19&#45;&gt;Node12</title>
<path fill="none" stroke="midnightblue" d="M830.857,-117.936C826.178,-117.248 821.502,-116.59 817,-116 675.521,-97.4565 507.873,-81.7914 424.888,-74.4568"/>
<polygon fill="midnightblue" stroke="midnightblue" points="424.981,-70.9516 414.713,-73.5619 424.368,-77.9247 424.981,-70.9516"/>
</g>
<!-- Node19&#45;&gt;Node7 -->
<g id="edge23" class="edge"><title>Node19&#45;&gt;Node7</title>
<path fill="none" stroke="midnightblue" d="M929.469,-118.389C1005.36,-106.714 1148.4,-84.7083 1212.05,-74.9152"/>
<polygon fill="midnightblue" stroke="midnightblue" points="1212.92,-78.3225 1222.27,-73.3426 1211.86,-71.4039 1212.92,-78.3225"/>
</g>
<!-- Node19&#45;&gt;Node20 -->
<g id="edge24" class="edge"><title>Node19&#45;&gt;Node20</title>
<path fill="none" stroke="midnightblue" d="M892.715,-116.753C904.488,-108.19 922.216,-95.2978 936.074,-85.2186"/>
<polygon fill="midnightblue" stroke="midnightblue" points="938.493,-87.7875 944.522,-79.0752 934.376,-82.1264 938.493,-87.7875"/>
</g>
<!-- Node21&#45;&gt;Node12 -->
<g id="edge26" class="edge"><title>Node21&#45;&gt;Node12</title>
<path fill="none" stroke="midnightblue" d="M218.135,-116.878C249.539,-107.372 298.895,-92.4317 333.424,-81.9798"/>
<polygon fill="midnightblue" stroke="midnightblue" points="334.627,-85.2725 343.184,-79.0253 332.599,-78.5727 334.627,-85.2725"/>
</g>
<!-- Node22 -->
<g id="node22" class="node"><title>Node22</title>
<polygon fill="white" stroke="#bfbfbf" points="134.421,-59 134.421,-79 241.579,-79 241.579,-59 134.421,-59"/>
<text text-anchor="middle" x="188" y="-65" font-family="Helvetica,sans-Serif" font-size="10.00">boost/filesystem.hpp</text>
</g>
<!-- Node21&#45;&gt;Node22 -->
<g id="edge27" class="edge"><title>Node21&#45;&gt;Node22</title>
<path fill="none" stroke="midnightblue" d="M188,-116.753C188,-109.25 188,-98.4238 188,-89.0781"/>
<polygon fill="midnightblue" stroke="midnightblue" points="191.5,-89.0752 188,-79.0752 184.5,-89.0752 191.5,-89.0752"/>
</g>
<!-- Node27&#45;&gt;Node3 -->
<g id="edge38" class="edge"><title>Node27&#45;&gt;Node3</title>
<path fill="none" stroke="midnightblue" d="M1009.41,-354.98C1025.78,-345.526 1051.14,-329.618 1070,-312 1086.33,-296.746 1101.64,-276.156 1111.56,-261.642"/>
<polygon fill="midnightblue" stroke="midnightblue" points="1114.63,-263.36 1117.26,-253.099 1108.8,-259.474 1114.63,-263.36"/>
</g>
<!-- Node28 -->
<g id="node28" class="node"><title>Node28</title>
<g id="a_node28"><a xlink:href="_sample_type_8h.html" target="_top" xlink:title="cinder/audio/SampleType.h">
<polygon fill="white" stroke="black" points="924.404,-291 924.404,-311 1061.6,-311 1061.6,-291 924.404,-291"/>
<text text-anchor="middle" x="993" y="-297" font-family="Helvetica,sans-Serif" font-size="10.00">cinder/audio/SampleType.h</text>
</a>
</g>
</g>
<!-- Node27&#45;&gt;Node28 -->
<g id="edge39" class="edge"><title>Node27&#45;&gt;Node28</title>
<path fill="none" stroke="midnightblue" d="M993,-354.852C993,-346.06 993,-332.498 993,-321.313"/>
<polygon fill="midnightblue" stroke="midnightblue" points="996.5,-321.186 993,-311.186 989.5,-321.186 996.5,-321.186"/>
</g>
<!-- Node29 -->
<g id="node29" class="node"><title>Node29</title>
<g id="a_node29"><a xlink:href="_data_target_8h.html" target="_top" xlink:title="cinder/DataTarget.h">
<polygon fill="white" stroke="black" points="751.365,-291 751.365,-311 854.635,-311 854.635,-291 751.365,-291"/>
<text text-anchor="middle" x="803" y="-297" font-family="Helvetica,sans-Serif" font-size="10.00">cinder/DataTarget.h</text>
</a>
</g>
</g>
<!-- Node27&#45;&gt;Node29 -->
<g id="edge40" class="edge"><title>Node27&#45;&gt;Node29</title>
<path fill="none" stroke="midnightblue" d="M965.372,-354.985C932.445,-344.24 877.271,-326.236 840.508,-314.239"/>
<polygon fill="midnightblue" stroke="midnightblue" points="841.253,-310.801 830.661,-311.026 839.082,-317.456 841.253,-310.801"/>
</g>
<!-- Node29&#45;&gt;Node12 -->
<g id="edge41" class="edge"><title>Node29&#45;&gt;Node12</title>
<path fill="none" stroke="midnightblue" d="M805.481,-290.7C812.903,-260.56 831.539,-164.707 783,-116 758.137,-91.0508 529.427,-77.2842 424.804,-72.2451"/>
<polygon fill="midnightblue" stroke="midnightblue" points="424.932,-68.7473 414.778,-71.7706 424.601,-75.7395 424.932,-68.7473"/>
</g>
<!-- Node29&#45;&gt;Node16 -->
<g id="edge42" class="edge"><title>Node29&#45;&gt;Node16</title>
<path fill="none" stroke="midnightblue" d="M751.023,-292.154C677.52,-281.06 544.517,-260.984 475.771,-250.607"/>
<polygon fill="midnightblue" stroke="midnightblue" points="476.119,-247.12 465.709,-249.088 475.074,-254.042 476.119,-247.12"/>
</g>
<!-- Node29&#45;&gt;Node17 -->
<g id="edge43" class="edge"><title>Node29&#45;&gt;Node17</title>
<path fill="none" stroke="midnightblue" d="M779.838,-290.864C728.558,-270.635 605.327,-222.025 546.422,-198.789"/>
<polygon fill="midnightblue" stroke="midnightblue" points="547.457,-195.435 536.871,-195.022 544.889,-201.947 547.457,-195.435"/>
</g>
<!-- Node29&#45;&gt;Node20 -->
<g id="edge44" class="edge"><title>Node29&#45;&gt;Node20</title>
<path fill="none" stroke="midnightblue" d="M817.534,-290.884C850.515,-269.22 930.445,-210.965 960,-138 966.301,-122.444 964.687,-103.218 962.001,-89.1824"/>
<polygon fill="midnightblue" stroke="midnightblue" points="965.365,-88.1913 959.748,-79.2084 958.537,-89.7339 965.365,-88.1913"/>
</g>
<!-- Node31 -->
<g id="node31" class="node"><title>Node31</title>
<g id="a_node31"><a xlink:href="_converter_8h.html" target="_top" xlink:title="cinder/audio/dsp/Converter.h">
<polygon fill="white" stroke="black" points="1126.07,-291 1126.07,-311 1269.93,-311 1269.93,-291 1126.07,-291"/>
<text text-anchor="middle" x="1198" y="-297" font-family="Helvetica,sans-Serif" font-size="10.00">cinder/audio/dsp/Converter.h</text>
</a>
</g>
</g>
<!-- Node30&#45;&gt;Node31 -->
<g id="edge46" class="edge"><title>Node30&#45;&gt;Node31</title>
<path fill="none" stroke="midnightblue" d="M1235.9,-348.992C1228.64,-339.992 1219.38,-328.516 1211.84,-319.157"/>
<polygon fill="midnightblue" stroke="midnightblue" points="1214.49,-316.877 1205.49,-311.29 1209.05,-321.272 1214.49,-316.877"/>
</g>
<!-- Node30&#45;&gt;Node8 -->
<g id="edge49" class="edge"><title>Node30&#45;&gt;Node8</title>
<path fill="none" stroke="midnightblue" d="M1258.77,-348.797C1265.34,-338.795 1273.34,-325.165 1278,-312 1290.89,-275.608 1295.5,-230.36 1297.13,-205.187"/>
<polygon fill="midnightblue" stroke="midnightblue" points="1300.63,-205.316 1297.69,-195.138 1293.64,-204.928 1300.63,-205.316"/>
</g>
<!-- Node30&#45;&gt;Node7 -->
<g id="edge50" class="edge"><title>Node30&#45;&gt;Node7</title>
<path fill="none" stroke="midnightblue" d="M1274.51,-348.862C1305.33,-329.068 1352,-291.28 1352,-244 1352,-244 1352,-244 1352,-184 1352,-137.35 1303.75,-102.132 1271.75,-83.9041"/>
<polygon fill="midnightblue" stroke="midnightblue" points="1273.26,-80.7422 1262.81,-79.0083 1269.9,-86.8817 1273.26,-80.7422"/>
</g>
<!-- Node32 -->
<g id="node32" class="node"><title>Node32</title>
<polygon fill="white" stroke="#bfbfbf" points="1380.4,-291 1380.4,-311 1527.6,-311 1527.6,-291 1380.4,-291"/>
<text text-anchor="middle" x="1454" y="-297" font-family="Helvetica,sans-Serif" font-size="10.00">AudioToolbox/AudioToolbox.h</text>
</g>
<!-- Node30&#45;&gt;Node32 -->
<g id="edge51" class="edge"><title>Node30&#45;&gt;Node32</title>
<path fill="none" stroke="midnightblue" d="M1297.87,-348.992C1333.59,-338.241 1381.04,-323.958 1414.22,-313.971"/>
<polygon fill="midnightblue" stroke="midnightblue" points="1415.47,-317.252 1424.04,-311.018 1413.45,-310.549 1415.47,-317.252"/>
</g>
<!-- Node31&#45;&gt;Node3 -->
<g id="edge47" class="edge"><title>Node31&#45;&gt;Node3</title>
<path fill="none" stroke="midnightblue" d="M1185.62,-290.753C1174.15,-282.19 1156.88,-269.298 1143.38,-259.219"/>
<polygon fill="midnightblue" stroke="midnightblue" points="1145.26,-256.254 1135.15,-253.075 1141.07,-261.863 1145.26,-256.254"/>
</g>
<!-- Node31&#45;&gt;Node8 -->
<g id="edge48" class="edge"><title>Node31&#45;&gt;Node8</title>
<path fill="none" stroke="midnightblue" d="M1206.18,-290.671C1223.04,-271.453 1261.85,-227.217 1283.22,-202.854"/>
<polygon fill="midnightblue" stroke="midnightblue" points="1286.02,-204.965 1289.98,-195.139 1280.76,-200.349 1286.02,-204.965"/>
</g>
</g>
</svg>
        <g id="navigator" transform="translate(0 0)" fill="#404254">
                <rect fill="#f2f5e9" fill-opacity="0.5" stroke="#606060" stroke-width=".5" x="0" y="0" width="60" height="60"/>
                <use id="zoomplus" xlink:href="#zoomPlus" x="17" y="9" onmousedown="handleZoom(evt,'in')"/>
                <use id="zoomminus" xlink:href="#zoomMin" x="42" y="9" onmousedown="handleZoom(evt,'out')"/>
                <use id="reset" xlink:href="#resetDef" x="30" y="36" onmousedown="handleReset()"/>
                <g id="arrowUp" xlink:href="#dirArrow" transform="translate(30 24)" onmousedown="handlePan(0,-1)">
                  <use xlink:href="#rim" fill="#404040">
                        <set attributeName="fill" to="#808080" begin="arrowUp.mouseover" end="arrowUp.mouseout"/>
                  </use>
                  <path fill="none" stroke="white" stroke-width="1.5" d="M0,-3.0v7 M-2.5,-0.5L0,-3.0L2.5,-0.5"/>
                </g>
                <g id="arrowRight" xlink:href="#dirArrow" transform="rotate(90) translate(36 -43)" onmousedown="handlePan(1,0)">
                  <use xlink:href="#rim" fill="#404040">
                        <set attributeName="fill" to="#808080" begin="arrowRight.mouseover" end="arrowRight.mouseout"/>
                  </use>
                  <path fill="none" stroke="white" stroke-width="1.5" d="M0,-3.0v7 M-2.5,-0.5L0,-3.0L2.5,-0.5"/>
                </g>
                <g id="arrowDown" xlink:href="#dirArrow" transform="rotate(180) translate(-30 -48)" onmousedown="handlePan(0,1)">
                  <use xlink:href="#rim" fill="#404040">
                        <set attributeName="fill" to="#808080" begin="arrowDown.mouseover" end="arrowDown.mouseout"/>
                  </use>
                  <path fill="none" stroke="white" stroke-width="1.5" d="M0,-3.0v7 M-2.5,-0.5L0,-3.0L2.5,-0.5"/>
                </g>
                <g id="arrowLeft" xlink:href="#dirArrow" transform="rotate(270) translate(-36 17)" onmousedown="handlePan(-1,0)">
                  <use xlink:href="#rim" fill="#404040">
                        <set attributeName="fill" to="#808080" begin="arrowLeft.mouseover" end="arrowLeft.mouseout"/>
                  </use>
                  <path fill="none" stroke="white" stroke-width="1.5" d="M0,-3.0v7 M-2.5,-0.5L0,-3.0L2.5,-0.5"/>
                </g>
        </g>
        <svg viewBox="0 0 15 15" width="100%" height="30px" preserveAspectRatio="xMaxYMin meet">
         <g id="arrow_out" transform="scale(0.3 0.3)">
          <a xlink:href="_file_core_audio_8h__incl_org.svg" target="_base">
           <rect id="button" ry="5" rx="5" y="6" x="6" height="38" width="38"
                fill="#f2f5e9" fill-opacity="0.5" stroke="#606060" stroke-width="1.0"/>
           <path id="arrow"
             d="M 11.500037,31.436501 C 11.940474,20.09759 22.043105,11.32322 32.158766,21.979434 L 37.068811,17.246167 C 37.068811,17.246167 37.088388,32 37.088388,32 L 22.160133,31.978069 C 22.160133,31.978069 26.997745,27.140456 26.997745,27.140456 C 18.528582,18.264221 13.291696,25.230495 11.500037,31.436501 z"
             style="fill:#404040;"/>
          </a>
         </g>
        </svg>
</svg>
