<?xml version="1.0" encoding="UTF-8" standalone="no"?>
<!DOCTYPE svg PUBLIC "-//W3C//DTD SVG 1.1//EN"
 "http://www.w3.org/Graphics/SVG/1.1/DTD/svg11.dtd">
<!-- Generated by graphviz version 2.30.1 (20140712.1814)
 -->
<!-- Title: include/cinder/ip/Fill.h Pages: 1 -->
<svg width="795pt" height="436pt"
 viewBox="0.00 0.00 795.00 436.00" xmlns="http://www.w3.org/2000/svg" xmlns:xlink="http://www.w3.org/1999/xlink">
<g id="graph0" class="graph" transform="scale(1 1) rotate(0) translate(4 432)">
<title>include/cinder/ip/Fill.h</title>
<polygon fill="white" stroke="white" points="-4,5 -4,-432 792,-432 792,5 -4,5"/>
<!-- Node1 -->
<g id="node1" class="node"><title>Node1</title>
<polygon fill="#bfbfbf" stroke="black" points="294.921,-407 294.921,-427 407.079,-427 407.079,-407 294.921,-407"/>
<text text-anchor="middle" x="351" y="-413" font-family="Helvetica,sans-Serif" font-size="10.00">include/cinder/ip/Fill.h</text>
</g>
<!-- Node2 -->
<g id="node2" class="node"><title>Node2</title>
<g id="a_node2"><a xlink:href="_surface_8h.html" target="_top" xlink:title="cinder/Surface.h">
<polygon fill="white" stroke="black" points="431.591,-349 431.591,-369 520.409,-369 520.409,-349 431.591,-349"/>
<text text-anchor="middle" x="476" y="-355" font-family="Helvetica,sans-Serif" font-size="10.00">cinder/Surface.h</text>
</a>
</g>
</g>
<!-- Node1&#45;&gt;Node2 -->
<g id="edge1" class="edge"><title>Node1&#45;&gt;Node2</title>
<path fill="none" stroke="midnightblue" d="M371.362,-406.878C391.701,-397.766 423.184,-383.662 446.306,-373.303"/>
<polygon fill="midnightblue" stroke="midnightblue" points="447.952,-376.401 455.647,-369.118 445.09,-370.013 447.952,-376.401"/>
</g>
<!-- Node20 -->
<g id="node20" class="node"><title>Node20</title>
<g id="a_node20"><a xlink:href="_channel_8h.html" target="_top" xlink:title="cinder/Channel.h">
<polygon fill="white" stroke="black" points="221.197,-291 221.197,-311 312.803,-311 312.803,-291 221.197,-291"/>
<text text-anchor="middle" x="267" y="-297" font-family="Helvetica,sans-Serif" font-size="10.00">cinder/Channel.h</text>
</a>
</g>
</g>
<!-- Node1&#45;&gt;Node20 -->
<g id="edge37" class="edge"><title>Node1&#45;&gt;Node20</title>
<path fill="none" stroke="midnightblue" d="M344.126,-406.671C330.089,-387.621 297.938,-343.987 279.893,-319.497"/>
<polygon fill="midnightblue" stroke="midnightblue" points="282.484,-317.114 273.734,-311.139 276.849,-321.266 282.484,-317.114"/>
</g>
<!-- Node7 -->
<g id="node7" class="node"><title>Node7</title>
<g id="a_node7"><a xlink:href="_area_8h.html" target="_top" xlink:title="cinder/Area.h">
<polygon fill="white" stroke="black" points="175.261,-233 175.261,-253 250.739,-253 250.739,-233 175.261,-233"/>
<text text-anchor="middle" x="213" y="-239" font-family="Helvetica,sans-Serif" font-size="10.00">cinder/Area.h</text>
</a>
</g>
</g>
<!-- Node1&#45;&gt;Node7 -->
<g id="edge38" class="edge"><title>Node1&#45;&gt;Node7</title>
<path fill="none" stroke="midnightblue" d="M328.217,-406.891C295.468,-392.394 236.357,-360.643 212,-312 204.492,-297.005 205.623,-277.718 208.118,-263.516"/>
<polygon fill="midnightblue" stroke="midnightblue" points="211.613,-263.906 210.272,-253.397 204.766,-262.449 211.613,-263.906"/>
</g>
<!-- Node22 -->
<g id="node22" class="node"><title>Node22</title>
<g id="a_node22"><a xlink:href="_color_8h.html" target="_top" xlink:title="cinder/Color.h">
<polygon fill="white" stroke="black" points="467.148,-233 467.148,-253 544.852,-253 544.852,-233 467.148,-233"/>
<text text-anchor="middle" x="506" y="-239" font-family="Helvetica,sans-Serif" font-size="10.00">cinder/Color.h</text>
</a>
</g>
</g>
<!-- Node1&#45;&gt;Node22 -->
<g id="edge39" class="edge"><title>Node1&#45;&gt;Node22</title>
<path fill="none" stroke="midnightblue" d="M354.859,-406.745C364.542,-384.399 391.78,-326.637 429,-290 442.602,-276.612 460.829,-265.499 476.134,-257.552"/>
<polygon fill="midnightblue" stroke="midnightblue" points="477.833,-260.616 485.22,-253.021 474.709,-254.352 477.833,-260.616"/>
</g>
<!-- Node3 -->
<g id="node3" class="node"><title>Node3</title>
<g id="a_node3"><a xlink:href="_cinder_8h.html" target="_top" xlink:title="cinder/Cinder.h">
<polygon fill="white" stroke="black" points="464.367,-59 464.367,-79 547.633,-79 547.633,-59 464.367,-59"/>
<text text-anchor="middle" x="506" y="-65" font-family="Helvetica,sans-Serif" font-size="10.00">cinder/Cinder.h</text>
</a>
</g>
</g>
<!-- Node2&#45;&gt;Node3 -->
<g id="edge2" class="edge"><title>Node2&#45;&gt;Node3</title>
<path fill="none" stroke="midnightblue" d="M520.681,-358.439C573.313,-357.091 661.824,-348.846 727,-312 762.086,-292.165 787,-284.305 787,-244 787,-244 787,-244 787,-184 787,-135.091 638.976,-97.1249 557.797,-79.9815"/>
<polygon fill="midnightblue" stroke="midnightblue" points="558.268,-76.5046 547.765,-77.8969 556.844,-83.3582 558.268,-76.5046"/>
</g>
<!-- Node2&#45;&gt;Node7 -->
<g id="edge6" class="edge"><title>Node2&#45;&gt;Node7</title>
<path fill="none" stroke="midnightblue" d="M455.471,-348.91C425.825,-335.802 369.282,-310.872 321,-290 295.044,-278.779 265.499,-266.209 243.879,-257.048"/>
<polygon fill="midnightblue" stroke="midnightblue" points="245.118,-253.772 234.545,-253.096 242.389,-260.218 245.118,-253.772"/>
</g>
<!-- Node2&#45;&gt;Node20 -->
<g id="edge23" class="edge"><title>Node2&#45;&gt;Node20</title>
<path fill="none" stroke="midnightblue" d="M441.955,-348.878C406.172,-339.29 349.759,-324.175 310.709,-313.712"/>
<polygon fill="midnightblue" stroke="midnightblue" points="311.249,-310.233 300.684,-311.025 309.437,-316.994 311.249,-310.233"/>
</g>
<!-- Node21 -->
<g id="node21" class="node"><title>Node21</title>
<g id="a_node21"><a xlink:href="_chan_traits_8h.html" target="_top" xlink:title="cinder/ChanTraits.h">
<polygon fill="white" stroke="black" points="533.553,-175 533.553,-195 636.447,-195 636.447,-175 533.553,-175"/>
<text text-anchor="middle" x="585" y="-181" font-family="Helvetica,sans-Serif" font-size="10.00">cinder/ChanTraits.h</text>
</a>
</g>
</g>
<!-- Node2&#45;&gt;Node21 -->
<g id="edge26" class="edge"><title>Node2&#45;&gt;Node21</title>
<path fill="none" stroke="midnightblue" d="M511.138,-348.969C530.685,-342.09 553.688,-330.555 567,-312 589.88,-280.109 589.675,-231.813 587.405,-205.231"/>
<polygon fill="midnightblue" stroke="midnightblue" points="590.886,-204.862 586.367,-195.279 583.924,-205.588 590.886,-204.862"/>
</g>
<!-- Node2&#45;&gt;Node22 -->
<g id="edge28" class="edge"><title>Node2&#45;&gt;Node22</title>
<path fill="none" stroke="midnightblue" d="M463.899,-348.884C448.285,-335.951 424.425,-311.457 436,-290 443.741,-275.65 458.13,-265.046 471.858,-257.659"/>
<polygon fill="midnightblue" stroke="midnightblue" points="473.756,-260.625 481.166,-253.053 470.651,-254.351 473.756,-260.625"/>
</g>
<!-- Node23 -->
<g id="node23" class="node"><title>Node23</title>
<g id="a_node23"><a xlink:href="_filesystem_8h.html" target="_top" xlink:title="cinder/Filesystem.h">
<polygon fill="white" stroke="black" points="615.931,-291 615.931,-311 718.069,-311 718.069,-291 615.931,-291"/>
<text text-anchor="middle" x="667" y="-297" font-family="Helvetica,sans-Serif" font-size="10.00">cinder/Filesystem.h</text>
</a>
</g>
</g>
<!-- Node2&#45;&gt;Node23 -->
<g id="edge33" class="edge"><title>Node2&#45;&gt;Node23</title>
<path fill="none" stroke="midnightblue" d="M507.113,-348.878C539.675,-339.331 590.93,-324.303 626.599,-313.845"/>
<polygon fill="midnightblue" stroke="midnightblue" points="627.606,-317.198 636.217,-311.025 625.636,-310.48 627.606,-317.198"/>
</g>
<!-- Node25 -->
<g id="node25" class="node"><title>Node25</title>
<polygon fill="white" stroke="#bfbfbf" points="445.357,-291 445.357,-311 558.643,-311 558.643,-291 445.357,-291"/>
<text text-anchor="middle" x="502" y="-297" font-family="Helvetica,sans-Serif" font-size="10.00">boost/logic/tribool.hpp</text>
</g>
<!-- Node2&#45;&gt;Node25 -->
<g id="edge36" class="edge"><title>Node2&#45;&gt;Node25</title>
<path fill="none" stroke="midnightblue" d="M480.293,-348.753C483.89,-341.006 489.133,-329.714 493.565,-320.169"/>
<polygon fill="midnightblue" stroke="midnightblue" points="496.75,-321.619 497.787,-311.075 490.401,-318.671 496.75,-321.619"/>
</g>
<!-- Node4 -->
<g id="node4" class="node"><title>Node4</title>
<polygon fill="white" stroke="#bfbfbf" points="395.549,-1 395.549,-21 440.451,-21 440.451,-1 395.549,-1"/>
<text text-anchor="middle" x="418" y="-7" font-family="Helvetica,sans-Serif" font-size="10.00">cstdint</text>
</g>
<!-- Node3&#45;&gt;Node4 -->
<g id="edge3" class="edge"><title>Node3&#45;&gt;Node4</title>
<path fill="none" stroke="midnightblue" d="M491.469,-58.7527C477.757,-50.0272 456.979,-36.8051 441.015,-26.6458"/>
<polygon fill="midnightblue" stroke="midnightblue" points="442.577,-23.4912 432.261,-21.0752 438.819,-29.3968 442.577,-23.4912"/>
</g>
<!-- Node5 -->
<g id="node5" class="node"><title>Node5</title>
<polygon fill="white" stroke="#bfbfbf" points="458.53,-1 458.53,-21 553.47,-21 553.47,-1 458.53,-1"/>
<text text-anchor="middle" x="506" y="-7" font-family="Helvetica,sans-Serif" font-size="10.00">boost/version.hpp</text>
</g>
<!-- Node3&#45;&gt;Node5 -->
<g id="edge4" class="edge"><title>Node3&#45;&gt;Node5</title>
<path fill="none" stroke="midnightblue" d="M506,-58.7527C506,-51.2504 506,-40.4238 506,-31.0781"/>
<polygon fill="midnightblue" stroke="midnightblue" points="509.5,-31.0752 506,-21.0752 502.5,-31.0752 509.5,-31.0752"/>
</g>
<!-- Node6 -->
<g id="node6" class="node"><title>Node6</title>
<polygon fill="white" stroke="#bfbfbf" points="571.621,-1 571.621,-21 704.379,-21 704.379,-1 571.621,-1"/>
<text text-anchor="middle" x="638" y="-7" font-family="Helvetica,sans-Serif" font-size="10.00">boost/checked_delete.hpp</text>
</g>
<!-- Node3&#45;&gt;Node6 -->
<g id="edge5" class="edge"><title>Node3&#45;&gt;Node6</title>
<path fill="none" stroke="midnightblue" d="M527.502,-58.878C549.172,-49.6848 582.821,-35.4095 607.295,-25.0263"/>
<polygon fill="midnightblue" stroke="midnightblue" points="608.668,-28.2457 616.507,-21.1181 605.935,-21.8016 608.668,-28.2457"/>
</g>
<!-- Node7&#45;&gt;Node3 -->
<g id="edge7" class="edge"><title>Node7&#45;&gt;Node3</title>
<path fill="none" stroke="midnightblue" d="M232.32,-232.952C268.309,-215.858 347.705,-177.02 411,-138 437.978,-121.369 467.415,-99.7065 486.259,-85.3508"/>
<polygon fill="midnightblue" stroke="midnightblue" points="488.562,-87.9949 494.363,-79.129 484.299,-82.4426 488.562,-87.9949"/>
</g>
<!-- Node8 -->
<g id="node8" class="node"><title>Node8</title>
<g id="a_node8"><a xlink:href="_vector_8h.html" target="_top" xlink:title="cinder/Vector.h">
<polygon fill="white" stroke="black" points="192.919,-175 192.919,-195 275.081,-195 275.081,-175 192.919,-175"/>
<text text-anchor="middle" x="234" y="-181" font-family="Helvetica,sans-Serif" font-size="10.00">cinder/Vector.h</text>
</a>
</g>
</g>
<!-- Node7&#45;&gt;Node8 -->
<g id="edge8" class="edge"><title>Node7&#45;&gt;Node8</title>
<path fill="none" stroke="midnightblue" d="M216.468,-232.753C219.342,-225.087 223.518,-213.952 227.073,-204.471"/>
<polygon fill="midnightblue" stroke="midnightblue" points="230.363,-205.667 230.597,-195.075 223.808,-203.21 230.363,-205.667"/>
</g>
<!-- Node11 -->
<g id="node11" class="node"><title>Node11</title>
<polygon fill="white" stroke="#bfbfbf" points="-0.172363,-117 -0.172363,-137 54.1724,-137 54.1724,-117 -0.172363,-117"/>
<text text-anchor="middle" x="27" y="-123" font-family="Helvetica,sans-Serif" font-size="10.00">iostream</text>
</g>
<!-- Node7&#45;&gt;Node11 -->
<g id="edge20" class="edge"><title>Node7&#45;&gt;Node11</title>
<path fill="none" stroke="midnightblue" d="M174.986,-237.894C142.969,-232.746 97.4821,-221.285 66,-196 50.137,-183.259 39.501,-162.209 33.3969,-146.899"/>
<polygon fill="midnightblue" stroke="midnightblue" points="36.6332,-145.559 29.8865,-137.39 30.0663,-147.983 36.6332,-145.559"/>
</g>
<!-- Node18 -->
<g id="node18" class="node"><title>Node18</title>
<polygon fill="white" stroke="#bfbfbf" points="74.6084,-175 74.6084,-195 113.392,-195 113.392,-175 74.6084,-175"/>
<text text-anchor="middle" x="94" y="-181" font-family="Helvetica,sans-Serif" font-size="10.00">utility</text>
</g>
<!-- Node7&#45;&gt;Node18 -->
<g id="edge21" class="edge"><title>Node7&#45;&gt;Node18</title>
<path fill="none" stroke="midnightblue" d="M193.616,-232.878C174.339,-223.807 144.549,-209.788 122.564,-199.442"/>
<polygon fill="midnightblue" stroke="midnightblue" points="123.914,-196.209 113.376,-195.118 120.934,-202.543 123.914,-196.209"/>
</g>
<!-- Node19 -->
<g id="node19" class="node"><title>Node19</title>
<polygon fill="white" stroke="#bfbfbf" points="131.384,-175 131.384,-195 174.616,-195 174.616,-175 131.384,-175"/>
<text text-anchor="middle" x="153" y="-181" font-family="Helvetica,sans-Serif" font-size="10.00">vector</text>
</g>
<!-- Node7&#45;&gt;Node19 -->
<g id="edge22" class="edge"><title>Node7&#45;&gt;Node19</title>
<path fill="none" stroke="midnightblue" d="M203.092,-232.753C194.18,-224.435 180.89,-212.031 170.238,-202.089"/>
<polygon fill="midnightblue" stroke="midnightblue" points="172.422,-199.34 162.723,-195.075 167.646,-204.457 172.422,-199.34"/>
</g>
<!-- Node9 -->
<g id="node9" class="node"><title>Node9</title>
<polygon fill="white" stroke="#bfbfbf" points="133.384,-59 133.384,-79 176.616,-79 176.616,-59 133.384,-59"/>
<text text-anchor="middle" x="155" y="-65" font-family="Helvetica,sans-Serif" font-size="10.00">cmath</text>
</g>
<!-- Node8&#45;&gt;Node9 -->
<g id="edge9" class="edge"><title>Node8&#45;&gt;Node9</title>
<path fill="none" stroke="midnightblue" d="M192.681,-175.209C157.827,-166.857 111.914,-153.323 101,-138 87.4393,-118.961 110.115,-98.0392 130.107,-84.5"/>
<polygon fill="midnightblue" stroke="midnightblue" points="132.15,-87.3477 138.68,-79.0043 128.372,-81.4547 132.15,-87.3477"/>
</g>
<!-- Node10 -->
<g id="node10" class="node"><title>Node10</title>
<polygon fill="white" stroke="#bfbfbf" points="166.273,-117 166.273,-137 211.727,-137 211.727,-117 166.273,-117"/>
<text text-anchor="middle" x="189" y="-123" font-family="Helvetica,sans-Serif" font-size="10.00">cstring</text>
</g>
<!-- Node8&#45;&gt;Node10 -->
<g id="edge10" class="edge"><title>Node8&#45;&gt;Node10</title>
<path fill="none" stroke="midnightblue" d="M226.569,-174.753C220.082,-166.68 210.501,-154.757 202.639,-144.973"/>
<polygon fill="midnightblue" stroke="midnightblue" points="205.285,-142.678 196.293,-137.075 199.828,-147.063 205.285,-142.678"/>
</g>
<!-- Node8&#45;&gt;Node11 -->
<g id="edge11" class="edge"><title>Node8&#45;&gt;Node11</title>
<path fill="none" stroke="midnightblue" d="M200.281,-174.878C162.948,-164.778 102.941,-148.544 64.2467,-138.076"/>
<polygon fill="midnightblue" stroke="midnightblue" points="64.9824,-134.65 54.4154,-135.417 63.1543,-141.407 64.9824,-134.65"/>
</g>
<!-- Node12 -->
<g id="node12" class="node"><title>Node12</title>
<polygon fill="white" stroke="#bfbfbf" points="229.884,-117 229.884,-137 278.116,-137 278.116,-117 229.884,-117"/>
<text text-anchor="middle" x="254" y="-123" font-family="Helvetica,sans-Serif" font-size="10.00">cassert</text>
</g>
<!-- Node8&#45;&gt;Node12 -->
<g id="edge12" class="edge"><title>Node8&#45;&gt;Node12</title>
<path fill="none" stroke="midnightblue" d="M237.303,-174.753C240.011,-167.169 243.933,-156.188 247.295,-146.774"/>
<polygon fill="midnightblue" stroke="midnightblue" points="250.692,-147.67 250.759,-137.075 244.099,-145.315 250.692,-147.67"/>
</g>
<!-- Node13 -->
<g id="node13" class="node"><title>Node13</title>
<polygon fill="white" stroke="#bfbfbf" points="109.613,-117 109.613,-137 148.387,-137 148.387,-117 109.613,-117"/>
<text text-anchor="middle" x="129" y="-123" font-family="Helvetica,sans-Serif" font-size="10.00">limits</text>
</g>
<!-- Node8&#45;&gt;Node13 -->
<g id="edge13" class="edge"><title>Node8&#45;&gt;Node13</title>
<path fill="none" stroke="midnightblue" d="M216.661,-174.753C199.842,-165.783 174.113,-152.06 154.872,-141.799"/>
<polygon fill="midnightblue" stroke="midnightblue" points="156.487,-138.693 146.016,-137.075 153.192,-144.869 156.487,-138.693"/>
</g>
<!-- Node14 -->
<g id="node14" class="node"><title>Node14</title>
<g id="a_node14"><a xlink:href="_cinder_math_8h.html" target="_top" xlink:title="cinder/CinderMath.h">
<polygon fill="white" stroke="black" points="295.978,-117 295.978,-137 402.022,-137 402.022,-117 295.978,-117"/>
<text text-anchor="middle" x="349" y="-123" font-family="Helvetica,sans-Serif" font-size="10.00">cinder/CinderMath.h</text>
</a>
</g>
</g>
<!-- Node8&#45;&gt;Node14 -->
<g id="edge14" class="edge"><title>Node8&#45;&gt;Node14</title>
<path fill="none" stroke="midnightblue" d="M252.733,-174.878C271.277,-165.847 299.893,-151.913 321.11,-141.581"/>
<polygon fill="midnightblue" stroke="midnightblue" points="322.817,-144.643 330.275,-137.118 319.752,-138.349 322.817,-144.643"/>
</g>
<!-- Node14&#45;&gt;Node3 -->
<g id="edge15" class="edge"><title>Node14&#45;&gt;Node3</title>
<path fill="none" stroke="midnightblue" d="M374.574,-116.878C400.882,-107.494 442.035,-92.8155 471.276,-82.3857"/>
<polygon fill="midnightblue" stroke="midnightblue" points="472.454,-85.6815 480.697,-79.0253 470.102,-79.0884 472.454,-85.6815"/>
</g>
<!-- Node14&#45;&gt;Node9 -->
<g id="edge16" class="edge"><title>Node14&#45;&gt;Node9</title>
<path fill="none" stroke="midnightblue" d="M317.399,-116.878C281.34,-106.469 222.711,-89.5454 186.637,-79.1323"/>
<polygon fill="midnightblue" stroke="midnightblue" points="187.235,-75.6621 176.657,-76.2514 185.294,-82.3875 187.235,-75.6621"/>
</g>
<!-- Node15 -->
<g id="node15" class="node"><title>Node15</title>
<polygon fill="white" stroke="#bfbfbf" points="267.113,-59 267.113,-79 310.887,-79 310.887,-59 267.113,-59"/>
<text text-anchor="middle" x="289" y="-65" font-family="Helvetica,sans-Serif" font-size="10.00">climits</text>
</g>
<!-- Node14&#45;&gt;Node15 -->
<g id="edge17" class="edge"><title>Node14&#45;&gt;Node15</title>
<path fill="none" stroke="midnightblue" d="M339.092,-116.753C330.18,-108.435 316.89,-96.031 306.238,-86.0893"/>
<polygon fill="midnightblue" stroke="midnightblue" points="308.422,-83.3397 298.723,-79.0752 303.646,-88.4571 308.422,-83.3397"/>
</g>
<!-- Node16 -->
<g id="node16" class="node"><title>Node16</title>
<polygon fill="white" stroke="#bfbfbf" points="329.049,-59 329.049,-79 368.951,-79 368.951,-59 329.049,-59"/>
<text text-anchor="middle" x="349" y="-65" font-family="Helvetica,sans-Serif" font-size="10.00">cfloat</text>
</g>
<!-- Node14&#45;&gt;Node16 -->
<g id="edge18" class="edge"><title>Node14&#45;&gt;Node16</title>
<path fill="none" stroke="midnightblue" d="M349,-116.753C349,-109.25 349,-98.4238 349,-89.0781"/>
<polygon fill="midnightblue" stroke="midnightblue" points="352.5,-89.0752 349,-79.0752 345.5,-89.0752 352.5,-89.0752"/>
</g>
<!-- Node17 -->
<g id="node17" class="node"><title>Node17</title>
<polygon fill="white" stroke="#bfbfbf" points="386.596,-59 386.596,-79 445.404,-79 445.404,-59 386.596,-59"/>
<text text-anchor="middle" x="416" y="-65" font-family="Helvetica,sans-Serif" font-size="10.00">functional</text>
</g>
<!-- Node14&#45;&gt;Node17 -->
<g id="edge19" class="edge"><title>Node14&#45;&gt;Node17</title>
<path fill="none" stroke="midnightblue" d="M360.064,-116.753C370.21,-108.272 385.44,-95.543 397.447,-85.5073"/>
<polygon fill="midnightblue" stroke="midnightblue" points="399.714,-88.1738 405.142,-79.0752 395.225,-82.8028 399.714,-88.1738"/>
</g>
<!-- Node20&#45;&gt;Node3 -->
<g id="edge24" class="edge"><title>Node20&#45;&gt;Node3</title>
<path fill="none" stroke="midnightblue" d="M277.489,-290.748C305.029,-266.358 381.444,-198.057 442,-138 459.128,-121.013 477.967,-100.8 490.741,-86.8501"/>
<polygon fill="midnightblue" stroke="midnightblue" points="493.353,-89.1803 497.503,-79.432 488.179,-84.4647 493.353,-89.1803"/>
</g>
<!-- Node20&#45;&gt;Node7 -->
<g id="edge25" class="edge"><title>Node20&#45;&gt;Node7</title>
<path fill="none" stroke="midnightblue" d="M258.083,-290.753C250.141,-282.516 238.335,-270.274 228.797,-260.382"/>
<polygon fill="midnightblue" stroke="midnightblue" points="231.212,-257.844 221.751,-253.075 226.173,-262.703 231.212,-257.844"/>
</g>
<!-- Node21&#45;&gt;Node3 -->
<g id="edge27" class="edge"><title>Node21&#45;&gt;Node3</title>
<path fill="none" stroke="midnightblue" d="M578.535,-174.671C565.334,-155.621 535.097,-111.987 518.125,-87.4971"/>
<polygon fill="midnightblue" stroke="midnightblue" points="520.906,-85.3652 512.333,-79.1394 515.153,-89.3523 520.906,-85.3652"/>
</g>
<!-- Node22&#45;&gt;Node3 -->
<g id="edge29" class="edge"><title>Node22&#45;&gt;Node3</title>
<path fill="none" stroke="midnightblue" d="M506,-232.753C506,-205.804 506,-126.908 506,-89.7664"/>
<polygon fill="midnightblue" stroke="midnightblue" points="509.5,-89.2932 506,-79.2932 502.5,-89.2932 509.5,-89.2932"/>
</g>
<!-- Node22&#45;&gt;Node21 -->
<g id="edge30" class="edge"><title>Node22&#45;&gt;Node21</title>
<path fill="none" stroke="midnightblue" d="M519.045,-232.753C531.239,-224.109 549.659,-211.052 563.936,-200.931"/>
<polygon fill="midnightblue" stroke="midnightblue" points="566.063,-203.714 572.197,-195.075 562.015,-198.003 566.063,-203.714"/>
</g>
<!-- Node22&#45;&gt;Node8 -->
<g id="edge31" class="edge"><title>Node22&#45;&gt;Node8</title>
<path fill="none" stroke="midnightblue" d="M467.029,-233.977C419.143,-224.118 337.768,-207.364 284.961,-196.492"/>
<polygon fill="midnightblue" stroke="midnightblue" points="285.624,-193.055 275.124,-194.467 284.213,-199.911 285.624,-193.055"/>
</g>
<!-- Node22&#45;&gt;Node14 -->
<g id="edge32" class="edge"><title>Node22&#45;&gt;Node14</title>
<path fill="none" stroke="midnightblue" d="M493.417,-232.864C466.547,-213.352 403.311,-167.436 370.144,-143.353"/>
<polygon fill="midnightblue" stroke="midnightblue" points="371.791,-140.223 361.642,-137.18 367.678,-145.888 371.791,-140.223"/>
</g>
<!-- Node23&#45;&gt;Node3 -->
<g id="edge34" class="edge"><title>Node23&#45;&gt;Node3</title>
<path fill="none" stroke="midnightblue" d="M686.283,-290.957C708.823,-279.022 741.548,-256.626 729,-232 689.2,-153.893 592.167,-104.615 540.194,-82.9036"/>
<polygon fill="midnightblue" stroke="midnightblue" points="541.316,-79.5812 530.734,-79.0489 538.674,-86.0637 541.316,-79.5812"/>
</g>
<!-- Node24 -->
<g id="node24" class="node"><title>Node24</title>
<polygon fill="white" stroke="#bfbfbf" points="613.421,-233 613.421,-253 720.579,-253 720.579,-233 613.421,-233"/>
<text text-anchor="middle" x="667" y="-239" font-family="Helvetica,sans-Serif" font-size="10.00">boost/filesystem.hpp</text>
</g>
<!-- Node23&#45;&gt;Node24 -->
<g id="edge35" class="edge"><title>Node23&#45;&gt;Node24</title>
<path fill="none" stroke="midnightblue" d="M667,-290.753C667,-283.25 667,-272.424 667,-263.078"/>
<polygon fill="midnightblue" stroke="midnightblue" points="670.5,-263.075 667,-253.075 663.5,-263.075 670.5,-263.075"/>
</g>
</g>
</svg>
