<?xml version="1.0" encoding="UTF-8" standalone="no"?>
<!DOCTYPE svg PUBLIC "-//W3C//DTD SVG 1.1//EN"
 "http://www.w3.org/Graphics/SVG/1.1/DTD/svg11.dtd">
<!-- Generated by graphviz version 2.30.1 (20140712.1814)
 -->
<!-- Title: include/cinder/audio/FileOggVorbis.h Pages: 1 -->
<!--zoomable 448 -->
<svg id="main" version="1.1" xmlns="http://www.w3.org/2000/svg" xmlns:xlink="http://www.w3.org/1999/xlink" xml:space="preserve" onload="init(evt)">
<style type="text/css"><![CDATA[
.edge:hover path { stroke: red; }
.edge:hover polygon { stroke: red; fill: red; }
]]></style>
<script type="text/javascript"><![CDATA[
var edges = document.getElementsByTagName('g');
if (edges && edges.length) {
  for (var i=0;i<edges.length;i++) {
    if (edges[i].id.substr(0,4)=='edge') {
      edges[i].setAttribute('class','edge');
    }
  }
}
]]></script>
        <defs>
                <circle id="rim" cx="0" cy="0" r="7"/>
                <circle id="rim2" cx="0" cy="0" r="3.5"/>
                <g id="zoomPlus">
                        <use xlink:href="#rim" fill="#404040">
                                <set attributeName="fill" to="#808080" begin="zoomplus.mouseover" end="zoomplus.mouseout"/>
                        </use>
                        <path d="M-4,0h8M0,-4v8" fill="none" stroke="white" stroke-width="1.5" pointer-events="none"/>
                </g>
                <g id="zoomMin">
                        <use xlink:href="#rim" fill="#404040">
                                <set attributeName="fill" to="#808080" begin="zoomminus.mouseover" end="zoomminus.mouseout"/>
                        </use>
                        <path d="M-4,0h8" fill="none" stroke="white" stroke-width="1.5" pointer-events="none"/>
                </g>
                <g id="dirArrow">
                        <path fill="none" stroke="white" stroke-width="1.5" d="M0,-3.0v7 M-2.5,-0.5L0,-3.0L2.5,-0.5"/>
                </g>
               <g id="resetDef">
                       <use xlink:href="#rim2" fill="#404040">
                               <set attributeName="fill" to="#808080" begin="reset.mouseover" end="reset.mouseout"/>
                       </use>
               </g>
        </defs>

<script type="text/javascript">
var viewWidth = 1337;
var viewHeight = 448;
var sectionId = 'dynsection-0';
</script>
<script xlink:href="svgpan.js"/>
<svg id="graph" class="graph">
<g id="viewport">
<title>include/cinder/audio/FileOggVorbis.h</title>
<polygon fill="white" stroke="white" points="-4,5 -4,-444 1334,-444 1334,5 -4,5"/>
<!-- Node1 -->
<g id="node1" class="node"><title>Node1</title>
<polygon fill="#bfbfbf" stroke="black" points="935.525,-407 935.525,-439 1040.48,-439 1040.48,-407 935.525,-407"/>
<text text-anchor="start" x="943.525" y="-425" font-family="Helvetica,sans-Serif" font-size="10.00">include/cinder/audio</text>
<text text-anchor="middle" x="988" y="-413" font-family="Helvetica,sans-Serif" font-size="10.00">/FileOggVorbis.h</text>
</g>
<!-- Node2 -->
<g id="node2" class="node"><title>Node2</title>
<g id="a_node2"><a xlink:href="_source_8h.html" target="_top" xlink:title="cinder/audio/Source.h">
<polygon fill="white" stroke="black" points="816.357,-349 816.357,-369 929.643,-369 929.643,-349 816.357,-349"/>
<text text-anchor="middle" x="873" y="-355" font-family="Helvetica,sans-Serif" font-size="10.00">cinder/audio/Source.h</text>
</a>
</g>
</g>
<!-- Node1&#45;&gt;Node2 -->
<g id="edge1" class="edge"><title>Node1&#45;&gt;Node2</title>
<path fill="none" stroke="midnightblue" d="M960.162,-406.992C941.482,-396.92 917.05,-383.749 898.807,-373.914"/>
<polygon fill="midnightblue" stroke="midnightblue" points="900.359,-370.774 889.895,-369.109 897.037,-376.935 900.359,-370.774"/>
</g>
<!-- Node27 -->
<g id="node27" class="node"><title>Node27</title>
<polygon fill="white" stroke="#bfbfbf" points="947.761,-349 947.761,-369 1028.24,-369 1028.24,-349 947.761,-349"/>
<text text-anchor="middle" x="988" y="-355" font-family="Helvetica,sans-Serif" font-size="10.00">vorbis/codec.h</text>
</g>
<!-- Node1&#45;&gt;Node27 -->
<g id="edge37" class="edge"><title>Node1&#45;&gt;Node27</title>
<path fill="none" stroke="midnightblue" d="M988,-406.992C988,-398.726 988,-388.373 988,-379.489"/>
<polygon fill="midnightblue" stroke="midnightblue" points="991.5,-379.29 988,-369.29 984.5,-379.29 991.5,-379.29"/>
</g>
<!-- Node28 -->
<g id="node28" class="node"><title>Node28</title>
<polygon fill="white" stroke="#bfbfbf" points="1046.37,-349 1046.37,-369 1139.63,-369 1139.63,-349 1046.37,-349"/>
<text text-anchor="middle" x="1093" y="-355" font-family="Helvetica,sans-Serif" font-size="10.00">vorbis/vorbisfile.h</text>
</g>
<!-- Node1&#45;&gt;Node28 -->
<g id="edge38" class="edge"><title>Node1&#45;&gt;Node28</title>
<path fill="none" stroke="midnightblue" d="M1013.42,-406.992C1030.16,-397.105 1051.96,-384.231 1068.51,-374.458"/>
<polygon fill="midnightblue" stroke="midnightblue" points="1070.74,-377.207 1077.57,-369.109 1067.18,-371.18 1070.74,-377.207"/>
</g>
<!-- Node3 -->
<g id="node3" class="node"><title>Node3</title>
<g id="a_node3"><a xlink:href="audio_2_buffer_8h.html" target="_top" xlink:title="cinder/audio/Buffer.h">
<polygon fill="white" stroke="black" points="994.221,-291 994.221,-311 1101.78,-311 1101.78,-291 994.221,-291"/>
<text text-anchor="middle" x="1048" y="-297" font-family="Helvetica,sans-Serif" font-size="10.00">cinder/audio/Buffer.h</text>
</a>
</g>
</g>
<!-- Node2&#45;&gt;Node3 -->
<g id="edge2" class="edge"><title>Node2&#45;&gt;Node3</title>
<path fill="none" stroke="midnightblue" d="M901.506,-348.878C931.086,-339.413 977.501,-324.56 1010.14,-314.115"/>
<polygon fill="midnightblue" stroke="midnightblue" points="1011.34,-317.407 1019.8,-311.025 1009.2,-310.74 1011.34,-317.407"/>
</g>
<!-- Node11 -->
<g id="node11" class="node"><title>Node11</title>
<g id="a_node11"><a xlink:href="_data_source_8h.html" target="_top" xlink:title="cinder/DataSource.h">
<polygon fill="white" stroke="black" points="215.419,-291 215.419,-311 322.581,-311 322.581,-291 215.419,-291"/>
<text text-anchor="middle" x="269" y="-297" font-family="Helvetica,sans-Serif" font-size="10.00">cinder/DataSource.h</text>
</a>
</g>
</g>
<!-- Node2&#45;&gt;Node11 -->
<g id="edge10" class="edge"><title>Node2&#45;&gt;Node11</title>
<path fill="none" stroke="midnightblue" d="M816.177,-352.732C703.178,-342.255 450.977,-318.872 332.626,-307.899"/>
<polygon fill="midnightblue" stroke="midnightblue" points="332.906,-304.41 322.626,-306.972 332.26,-311.38 332.906,-304.41"/>
</g>
<!-- Node23 -->
<g id="node23" class="node"><title>Node23</title>
<polygon fill="white" stroke="#bfbfbf" points="813.291,-117 813.291,-137 932.709,-137 932.709,-117 813.291,-117"/>
<text text-anchor="middle" x="873" y="-123" font-family="Helvetica,sans-Serif" font-size="10.00">boost/noncopyable.hpp</text>
</g>
<!-- Node2&#45;&gt;Node23 -->
<g id="edge36" class="edge"><title>Node2&#45;&gt;Node23</title>
<path fill="none" stroke="midnightblue" d="M873,-348.984C873,-315.07 873,-194.695 873,-147.339"/>
<polygon fill="midnightblue" stroke="midnightblue" points="876.5,-147.204 873,-137.204 869.5,-147.204 876.5,-147.204"/>
</g>
<!-- Node4 -->
<g id="node4" class="node"><title>Node4</title>
<g id="a_node4"><a xlink:href="_cinder_assert_8h.html" target="_top" xlink:title="cinder/CinderAssert.h">
<polygon fill="white" stroke="black" points="1196.92,-233 1196.92,-253 1309.08,-253 1309.08,-233 1196.92,-233"/>
<text text-anchor="middle" x="1253" y="-239" font-family="Helvetica,sans-Serif" font-size="10.00">cinder/CinderAssert.h</text>
</a>
</g>
</g>
<!-- Node3&#45;&gt;Node4 -->
<g id="edge3" class="edge"><title>Node3&#45;&gt;Node4</title>
<path fill="none" stroke="midnightblue" d="M1081.39,-290.878C1116.49,-281.29 1171.82,-266.175 1210.13,-255.712"/>
<polygon fill="midnightblue" stroke="midnightblue" points="1211.24,-259.037 1219.96,-253.025 1209.39,-252.284 1211.24,-259.037"/>
</g>
<!-- Node7 -->
<g id="node7" class="node"><title>Node7</title>
<polygon fill="white" stroke="#bfbfbf" points="831.384,-59 831.384,-79 874.616,-79 874.616,-59 831.384,-59"/>
<text text-anchor="middle" x="853" y="-65" font-family="Helvetica,sans-Serif" font-size="10.00">vector</text>
</g>
<!-- Node3&#45;&gt;Node7 -->
<g id="edge6" class="edge"><title>Node3&#45;&gt;Node7</title>
<path fill="none" stroke="midnightblue" d="M1027.24,-290.843C1012.03,-283.111 992.021,-270.636 980,-254 942.671,-202.34 981.189,-165.468 941,-116 926.467,-98.1116 903.112,-86.3614 884.114,-79.217"/>
<polygon fill="midnightblue" stroke="midnightblue" points="885.241,-75.9032 874.646,-75.8927 882.922,-82.508 885.241,-75.9032"/>
</g>
<!-- Node8 -->
<g id="node8" class="node"><title>Node8</title>
<polygon fill="white" stroke="#bfbfbf" points="988.943,-233 988.943,-253 1041.06,-253 1041.06,-233 988.943,-233"/>
<text text-anchor="middle" x="1015" y="-239" font-family="Helvetica,sans-Serif" font-size="10.00">memory</text>
</g>
<!-- Node3&#45;&gt;Node8 -->
<g id="edge7" class="edge"><title>Node3&#45;&gt;Node8</title>
<path fill="none" stroke="midnightblue" d="M1042.55,-290.753C1037.94,-282.924 1031.19,-271.476 1025.53,-261.868"/>
<polygon fill="midnightblue" stroke="midnightblue" points="1028.44,-259.914 1020.35,-253.075 1022.41,-263.468 1028.44,-259.914"/>
</g>
<!-- Node9 -->
<g id="node9" class="node"><title>Node9</title>
<polygon fill="white" stroke="#bfbfbf" points="1058.83,-233 1058.83,-253 1103.17,-253 1103.17,-233 1058.83,-233"/>
<text text-anchor="middle" x="1081" y="-239" font-family="Helvetica,sans-Serif" font-size="10.00">cstdlib</text>
</g>
<!-- Node3&#45;&gt;Node9 -->
<g id="edge8" class="edge"><title>Node3&#45;&gt;Node9</title>
<path fill="none" stroke="midnightblue" d="M1053.45,-290.753C1058.06,-282.924 1064.81,-271.476 1070.47,-261.868"/>
<polygon fill="midnightblue" stroke="midnightblue" points="1073.59,-263.468 1075.65,-253.075 1067.56,-259.914 1073.59,-263.468"/>
</g>
<!-- Node10 -->
<g id="node10" class="node"><title>Node10</title>
<polygon fill="white" stroke="#bfbfbf" points="1121.44,-233 1121.44,-253 1178.56,-253 1178.56,-233 1121.44,-233"/>
<text text-anchor="middle" x="1150" y="-239" font-family="Helvetica,sans-Serif" font-size="10.00">algorithm</text>
</g>
<!-- Node3&#45;&gt;Node10 -->
<g id="edge9" class="edge"><title>Node3&#45;&gt;Node10</title>
<path fill="none" stroke="midnightblue" d="M1064.84,-290.753C1081.11,-281.823 1105.95,-268.185 1124.61,-257.939"/>
<polygon fill="midnightblue" stroke="midnightblue" points="1126.39,-260.956 1133.47,-253.075 1123.02,-254.82 1126.39,-260.956"/>
</g>
<!-- Node5 -->
<g id="node5" class="node"><title>Node5</title>
<g id="a_node5"><a xlink:href="_current_function_8h.html" target="_top" xlink:title="cinder/CurrentFunction.h">
<polygon fill="white" stroke="black" points="1136.97,-175 1136.97,-195 1263.03,-195 1263.03,-175 1136.97,-175"/>
<text text-anchor="middle" x="1200" y="-181" font-family="Helvetica,sans-Serif" font-size="10.00">cinder/CurrentFunction.h</text>
</a>
</g>
</g>
<!-- Node4&#45;&gt;Node5 -->
<g id="edge4" class="edge"><title>Node4&#45;&gt;Node5</title>
<path fill="none" stroke="midnightblue" d="M1244.25,-232.753C1236.45,-224.516 1224.87,-212.274 1215.5,-202.382"/>
<polygon fill="midnightblue" stroke="midnightblue" points="1218,-199.932 1208.59,-195.075 1212.92,-204.744 1218,-199.932"/>
</g>
<!-- Node6 -->
<g id="node6" class="node"><title>Node6</title>
<polygon fill="white" stroke="#bfbfbf" points="1280.88,-175 1280.88,-195 1329.12,-195 1329.12,-175 1280.88,-175"/>
<text text-anchor="middle" x="1305" y="-181" font-family="Helvetica,sans-Serif" font-size="10.00">cassert</text>
</g>
<!-- Node4&#45;&gt;Node6 -->
<g id="edge5" class="edge"><title>Node4&#45;&gt;Node6</title>
<path fill="none" stroke="midnightblue" d="M1261.59,-232.753C1269.16,-224.598 1280.38,-212.516 1289.51,-202.677"/>
<polygon fill="midnightblue" stroke="midnightblue" points="1292.33,-204.785 1296.57,-195.075 1287.2,-200.022 1292.33,-204.785"/>
</g>
<!-- Node12 -->
<g id="node12" class="node"><title>Node12</title>
<g id="a_node12"><a xlink:href="_cinder_8h.html" target="_top" xlink:title="cinder/Cinder.h">
<polygon fill="white" stroke="black" points="192.367,-59 192.367,-79 275.633,-79 275.633,-59 192.367,-59"/>
<text text-anchor="middle" x="234" y="-65" font-family="Helvetica,sans-Serif" font-size="10.00">cinder/Cinder.h</text>
</a>
</g>
</g>
<!-- Node11&#45;&gt;Node12 -->
<g id="edge11" class="edge"><title>Node11&#45;&gt;Node12</title>
<path fill="none" stroke="midnightblue" d="M258.733,-290.68C234.253,-267.675 172.868,-205.164 151,-138 147.973,-128.703 146.037,-124.425 151,-116 160.002,-100.718 176.111,-90.1546 191.758,-83.0432"/>
<polygon fill="midnightblue" stroke="midnightblue" points="193.48,-86.1179 201.373,-79.0501 190.795,-79.6533 193.48,-86.1179"/>
</g>
<!-- Node16 -->
<g id="node16" class="node"><title>Node16</title>
<g id="a_node16"><a xlink:href="_url_8h.html" target="_top" xlink:title="cinder/Url.h">
<polygon fill="white" stroke="black" points="274.436,-233 274.436,-253 341.564,-253 341.564,-233 274.436,-233"/>
<text text-anchor="middle" x="308" y="-239" font-family="Helvetica,sans-Serif" font-size="10.00">cinder/Url.h</text>
</a>
</g>
</g>
<!-- Node11&#45;&gt;Node16 -->
<g id="edge15" class="edge"><title>Node11&#45;&gt;Node16</title>
<path fill="none" stroke="midnightblue" d="M275.44,-290.753C280.949,-282.843 289.031,-271.237 295.765,-261.568"/>
<polygon fill="midnightblue" stroke="midnightblue" points="298.837,-263.282 301.68,-253.075 293.093,-259.281 298.837,-263.282"/>
</g>
<!-- Node18 -->
<g id="node18" class="node"><title>Node18</title>
<g id="a_node18"><a xlink:href="_buffer_8h.html" target="_top" xlink:title="cinder/Buffer.h">
<polygon fill="white" stroke="black" points="159.844,-117 159.844,-137 240.156,-137 240.156,-117 159.844,-117"/>
<text text-anchor="middle" x="200" y="-123" font-family="Helvetica,sans-Serif" font-size="10.00">cinder/Buffer.h</text>
</a>
</g>
</g>
<!-- Node11&#45;&gt;Node18 -->
<g id="edge33" class="edge"><title>Node11&#45;&gt;Node18</title>
<path fill="none" stroke="midnightblue" d="M265.29,-290.753C254.386,-263.571 222.28,-183.538 207.546,-146.811"/>
<polygon fill="midnightblue" stroke="midnightblue" points="210.7,-145.271 203.728,-137.293 204.203,-147.877 210.7,-145.271"/>
</g>
<!-- Node17 -->
<g id="node17" class="node"><title>Node17</title>
<g id="a_node17"><a xlink:href="_stream_8h.html" target="_top" xlink:title="cinder/Stream.h">
<polygon fill="white" stroke="black" points="393.707,-175 393.707,-195 480.293,-195 480.293,-175 393.707,-175"/>
<text text-anchor="middle" x="437" y="-181" font-family="Helvetica,sans-Serif" font-size="10.00">cinder/Stream.h</text>
</a>
</g>
</g>
<!-- Node11&#45;&gt;Node17 -->
<g id="edge34" class="edge"><title>Node11&#45;&gt;Node17</title>
<path fill="none" stroke="midnightblue" d="M286.826,-290.851C303.544,-282.046 329.036,-268.035 350,-254 374.553,-237.562 401.078,-216.268 418.3,-201.924"/>
<polygon fill="midnightblue" stroke="midnightblue" points="420.994,-204.232 426.398,-195.119 416.49,-198.873 420.994,-204.232"/>
</g>
<!-- Node21 -->
<g id="node21" class="node"><title>Node21</title>
<g id="a_node21"><a xlink:href="_filesystem_8h.html" target="_top" xlink:title="cinder/Filesystem.h">
<polygon fill="white" stroke="black" points="1.93115,-117 1.93115,-137 104.069,-137 104.069,-117 1.93115,-117"/>
<text text-anchor="middle" x="53" y="-123" font-family="Helvetica,sans-Serif" font-size="10.00">cinder/Filesystem.h</text>
</a>
</g>
</g>
<!-- Node11&#45;&gt;Node21 -->
<g id="edge35" class="edge"><title>Node11&#45;&gt;Node21</title>
<path fill="none" stroke="midnightblue" d="M215.153,-294.122C183.872,-288.323 145.36,-276.818 118,-254 83.941,-225.596 65.6264,-174.76 57.7652,-147.138"/>
<polygon fill="midnightblue" stroke="midnightblue" points="61.0622,-145.918 55.0974,-137.162 54.2998,-147.726 61.0622,-145.918"/>
</g>
<!-- Node13 -->
<g id="node13" class="node"><title>Node13</title>
<polygon fill="white" stroke="#bfbfbf" points="123.549,-1 123.549,-21 168.451,-21 168.451,-1 123.549,-1"/>
<text text-anchor="middle" x="146" y="-7" font-family="Helvetica,sans-Serif" font-size="10.00">cstdint</text>
</g>
<!-- Node12&#45;&gt;Node13 -->
<g id="edge12" class="edge"><title>Node12&#45;&gt;Node13</title>
<path fill="none" stroke="midnightblue" d="M219.469,-58.7527C205.757,-50.0272 184.979,-36.8051 169.015,-26.6458"/>
<polygon fill="midnightblue" stroke="midnightblue" points="170.577,-23.4912 160.261,-21.0752 166.819,-29.3968 170.577,-23.4912"/>
</g>
<!-- Node14 -->
<g id="node14" class="node"><title>Node14</title>
<polygon fill="white" stroke="#bfbfbf" points="186.53,-1 186.53,-21 281.47,-21 281.47,-1 186.53,-1"/>
<text text-anchor="middle" x="234" y="-7" font-family="Helvetica,sans-Serif" font-size="10.00">boost/version.hpp</text>
</g>
<!-- Node12&#45;&gt;Node14 -->
<g id="edge13" class="edge"><title>Node12&#45;&gt;Node14</title>
<path fill="none" stroke="midnightblue" d="M234,-58.7527C234,-51.2504 234,-40.4238 234,-31.0781"/>
<polygon fill="midnightblue" stroke="midnightblue" points="237.5,-31.0752 234,-21.0752 230.5,-31.0752 237.5,-31.0752"/>
</g>
<!-- Node15 -->
<g id="node15" class="node"><title>Node15</title>
<polygon fill="white" stroke="#bfbfbf" points="299.621,-1 299.621,-21 432.379,-21 432.379,-1 299.621,-1"/>
<text text-anchor="middle" x="366" y="-7" font-family="Helvetica,sans-Serif" font-size="10.00">boost/checked_delete.hpp</text>
</g>
<!-- Node12&#45;&gt;Node15 -->
<g id="edge14" class="edge"><title>Node12&#45;&gt;Node15</title>
<path fill="none" stroke="midnightblue" d="M255.502,-58.878C277.172,-49.6848 310.821,-35.4095 335.295,-25.0263"/>
<polygon fill="midnightblue" stroke="midnightblue" points="336.668,-28.2457 344.507,-21.1181 333.935,-21.8016 336.668,-28.2457"/>
</g>
<!-- Node16&#45;&gt;Node12 -->
<g id="edge16" class="edge"><title>Node16&#45;&gt;Node12</title>
<path fill="none" stroke="midnightblue" d="M303.735,-232.872C299.433,-223.617 292.64,-208.864 287,-196 270.398,-158.135 251.846,-113.452 241.688,-88.7678"/>
<polygon fill="midnightblue" stroke="midnightblue" points="244.799,-87.1309 237.763,-79.21 238.324,-89.79 244.799,-87.1309"/>
</g>
<!-- Node16&#45;&gt;Node17 -->
<g id="edge17" class="edge"><title>Node16&#45;&gt;Node17</title>
<path fill="none" stroke="midnightblue" d="M329.013,-232.878C350.097,-223.725 382.784,-209.536 406.675,-199.164"/>
<polygon fill="midnightblue" stroke="midnightblue" points="408.217,-202.311 415.996,-195.118 405.429,-195.89 408.217,-202.311"/>
</g>
<!-- Node26 -->
<g id="node26" class="node"><title>Node26</title>
<polygon fill="white" stroke="#bfbfbf" points="295.828,-175 295.828,-195 350.172,-195 350.172,-175 295.828,-175"/>
<text text-anchor="middle" x="323" y="-181" font-family="Helvetica,sans-Serif" font-size="10.00">iostream</text>
</g>
<!-- Node16&#45;&gt;Node26 -->
<g id="edge32" class="edge"><title>Node16&#45;&gt;Node26</title>
<path fill="none" stroke="midnightblue" d="M310.477,-232.753C312.508,-225.169 315.45,-214.188 317.971,-204.774"/>
<polygon fill="midnightblue" stroke="midnightblue" points="321.363,-205.64 320.569,-195.075 314.601,-203.829 321.363,-205.64"/>
</g>
<!-- Node17&#45;&gt;Node12 -->
<g id="edge18" class="edge"><title>Node17&#45;&gt;Node12</title>
<path fill="none" stroke="midnightblue" d="M441.598,-174.926C448.084,-160.699 457.69,-133.013 444,-116 424.506,-91.7739 341.42,-79.5965 285.784,-74.0467"/>
<polygon fill="midnightblue" stroke="midnightblue" points="286.024,-70.5538 275.736,-73.0862 285.358,-77.522 286.024,-70.5538"/>
</g>
<!-- Node17&#45;&gt;Node18 -->
<g id="edge19" class="edge"><title>Node17&#45;&gt;Node18</title>
<path fill="none" stroke="midnightblue" d="M398.658,-174.94C357.699,-165.262 292.687,-149.901 248.27,-139.406"/>
<polygon fill="midnightblue" stroke="midnightblue" points="248.823,-135.94 238.286,-137.047 247.214,-142.752 248.823,-135.94"/>
</g>
<!-- Node19 -->
<g id="node19" class="node"><title>Node19</title>
<g id="a_node19"><a xlink:href="_exception_8h.html" target="_top" xlink:title="cinder/Exception.h">
<polygon fill="white" stroke="black" points="696.865,-117 696.865,-137 795.135,-137 795.135,-117 696.865,-117"/>
<text text-anchor="middle" x="746" y="-123" font-family="Helvetica,sans-Serif" font-size="10.00">cinder/Exception.h</text>
</a>
</g>
</g>
<!-- Node17&#45;&gt;Node19 -->
<g id="edge21" class="edge"><title>Node17&#45;&gt;Node19</title>
<path fill="none" stroke="midnightblue" d="M480.617,-176.095C534.479,-166.334 626.342,-149.686 686.607,-138.764"/>
<polygon fill="midnightblue" stroke="midnightblue" points="687.52,-142.155 696.736,-136.928 686.272,-135.268 687.52,-142.155"/>
</g>
<!-- Node17&#45;&gt;Node21 -->
<g id="edge25" class="edge"><title>Node17&#45;&gt;Node21</title>
<path fill="none" stroke="midnightblue" d="M393.697,-177.685C325.462,-167.734 192.666,-148.368 114.544,-136.975"/>
<polygon fill="midnightblue" stroke="midnightblue" points="114.763,-133.47 104.362,-135.49 113.753,-140.397 114.763,-133.47"/>
</g>
<!-- Node17&#45;&gt;Node23 -->
<g id="edge28" class="edge"><title>Node17&#45;&gt;Node23</title>
<path fill="none" stroke="midnightblue" d="M480.536,-178.818C547.483,-170.789 680.003,-154.658 803.185,-138.09"/>
<polygon fill="midnightblue" stroke="midnightblue" points="803.728,-141.548 813.171,-136.743 802.793,-134.611 803.728,-141.548"/>
</g>
<!-- Node20 -->
<g id="node20" class="node"><title>Node20</title>
<polygon fill="white" stroke="#bfbfbf" points="603.773,-59 603.773,-79 644.227,-79 644.227,-59 603.773,-59"/>
<text text-anchor="middle" x="624" y="-65" font-family="Helvetica,sans-Serif" font-size="10.00">string</text>
</g>
<!-- Node17&#45;&gt;Node20 -->
<g id="edge29" class="edge"><title>Node17&#45;&gt;Node20</title>
<path fill="none" stroke="midnightblue" d="M446.456,-174.945C461.384,-160.988 491.733,-133.955 521,-116 544.346,-101.678 572.923,-89.2758 594.049,-80.9702"/>
<polygon fill="midnightblue" stroke="midnightblue" points="595.401,-84.2004 603.475,-77.341 592.886,-77.6678 595.401,-84.2004"/>
</g>
<!-- Node24 -->
<g id="node24" class="node"><title>Node24</title>
<polygon fill="white" stroke="#bfbfbf" points="529.574,-117 529.574,-137 678.426,-137 678.426,-117 529.574,-117"/>
<text text-anchor="middle" x="604" y="-123" font-family="Helvetica,sans-Serif" font-size="10.00">boost/iostreams/concepts.hpp</text>
</g>
<!-- Node17&#45;&gt;Node24 -->
<g id="edge30" class="edge"><title>Node17&#45;&gt;Node24</title>
<path fill="none" stroke="midnightblue" d="M464.203,-174.878C492.309,-165.453 536.342,-150.688 567.469,-140.25"/>
<polygon fill="midnightblue" stroke="midnightblue" points="568.717,-143.523 577.085,-137.025 566.491,-136.886 568.717,-143.523"/>
</g>
<!-- Node25 -->
<g id="node25" class="node"><title>Node25</title>
<polygon fill="white" stroke="#bfbfbf" points="296.306,-117 296.306,-137 435.694,-137 435.694,-117 296.306,-117"/>
<text text-anchor="middle" x="366" y="-123" font-family="Helvetica,sans-Serif" font-size="10.00">boost/iostreams/stream.hpp</text>
</g>
<!-- Node17&#45;&gt;Node25 -->
<g id="edge31" class="edge"><title>Node17&#45;&gt;Node25</title>
<path fill="none" stroke="midnightblue" d="M425.276,-174.753C414.523,-166.272 398.385,-153.543 385.661,-143.507"/>
<polygon fill="midnightblue" stroke="midnightblue" points="387.525,-140.52 377.506,-137.075 383.19,-146.016 387.525,-140.52"/>
</g>
<!-- Node18&#45;&gt;Node12 -->
<g id="edge20" class="edge"><title>Node18&#45;&gt;Node12</title>
<path fill="none" stroke="midnightblue" d="M205.614,-116.753C210.367,-108.924 217.318,-97.4761 223.152,-87.8679"/>
<polygon fill="midnightblue" stroke="midnightblue" points="226.292,-89.4395 228.49,-79.0752 220.308,-85.8066 226.292,-89.4395"/>
</g>
<!-- Node19&#45;&gt;Node12 -->
<g id="edge22" class="edge"><title>Node19&#45;&gt;Node12</title>
<path fill="none" stroke="midnightblue" d="M696.782,-117.406C693.475,-116.906 690.192,-116.432 687,-116 542.053,-96.3793 369.982,-81.0905 285.72,-74.1217"/>
<polygon fill="midnightblue" stroke="midnightblue" points="285.896,-70.6245 275.643,-73.2935 285.322,-77.601 285.896,-70.6245"/>
</g>
<!-- Node19&#45;&gt;Node7 -->
<g id="edge23" class="edge"><title>Node19&#45;&gt;Node7</title>
<path fill="none" stroke="midnightblue" d="M763.669,-116.753C780.808,-107.783 807.028,-94.0601 826.635,-83.7986"/>
<polygon fill="midnightblue" stroke="midnightblue" points="828.423,-86.8132 835.66,-79.0752 825.177,-80.6112 828.423,-86.8132"/>
</g>
<!-- Node19&#45;&gt;Node20 -->
<g id="edge24" class="edge"><title>Node19&#45;&gt;Node20</title>
<path fill="none" stroke="midnightblue" d="M726.127,-116.878C706.276,-107.766 675.549,-93.6617 652.981,-83.3028"/>
<polygon fill="midnightblue" stroke="midnightblue" points="654.413,-80.1089 643.864,-79.1181 651.493,-86.4707 654.413,-80.1089"/>
</g>
<!-- Node21&#45;&gt;Node12 -->
<g id="edge26" class="edge"><title>Node21&#45;&gt;Node12</title>
<path fill="none" stroke="midnightblue" d="M82.4836,-116.878C113.077,-107.413 161.083,-92.5598 194.844,-82.1146"/>
<polygon fill="midnightblue" stroke="midnightblue" points="196.31,-85.3247 204.829,-79.0253 194.241,-78.6374 196.31,-85.3247"/>
</g>
<!-- Node22 -->
<g id="node22" class="node"><title>Node22</title>
<polygon fill="white" stroke="#bfbfbf" points="-0.578613,-59 -0.578613,-79 106.579,-79 106.579,-59 -0.578613,-59"/>
<text text-anchor="middle" x="53" y="-65" font-family="Helvetica,sans-Serif" font-size="10.00">boost/filesystem.hpp</text>
</g>
<!-- Node21&#45;&gt;Node22 -->
<g id="edge27" class="edge"><title>Node21&#45;&gt;Node22</title>
<path fill="none" stroke="midnightblue" d="M53,-116.753C53,-109.25 53,-98.4238 53,-89.0781"/>
<polygon fill="midnightblue" stroke="midnightblue" points="56.5001,-89.0752 53,-79.0752 49.5001,-89.0752 56.5001,-89.0752"/>
</g>
</g>
</svg>
        <g id="navigator" transform="translate(0 0)" fill="#404254">
                <rect fill="#f2f5e9" fill-opacity="0.5" stroke="#606060" stroke-width=".5" x="0" y="0" width="60" height="60"/>
                <use id="zoomplus" xlink:href="#zoomPlus" x="17" y="9" onmousedown="handleZoom(evt,'in')"/>
                <use id="zoomminus" xlink:href="#zoomMin" x="42" y="9" onmousedown="handleZoom(evt,'out')"/>
                <use id="reset" xlink:href="#resetDef" x="30" y="36" onmousedown="handleReset()"/>
                <g id="arrowUp" xlink:href="#dirArrow" transform="translate(30 24)" onmousedown="handlePan(0,-1)">
                  <use xlink:href="#rim" fill="#404040">
                        <set attributeName="fill" to="#808080" begin="arrowUp.mouseover" end="arrowUp.mouseout"/>
                  </use>
                  <path fill="none" stroke="white" stroke-width="1.5" d="M0,-3.0v7 M-2.5,-0.5L0,-3.0L2.5,-0.5"/>
                </g>
                <g id="arrowRight" xlink:href="#dirArrow" transform="rotate(90) translate(36 -43)" onmousedown="handlePan(1,0)">
                  <use xlink:href="#rim" fill="#404040">
                        <set attributeName="fill" to="#808080" begin="arrowRight.mouseover" end="arrowRight.mouseout"/>
                  </use>
                  <path fill="none" stroke="white" stroke-width="1.5" d="M0,-3.0v7 M-2.5,-0.5L0,-3.0L2.5,-0.5"/>
                </g>
                <g id="arrowDown" xlink:href="#dirArrow" transform="rotate(180) translate(-30 -48)" onmousedown="handlePan(0,1)">
                  <use xlink:href="#rim" fill="#404040">
                        <set attributeName="fill" to="#808080" begin="arrowDown.mouseover" end="arrowDown.mouseout"/>
                  </use>
                  <path fill="none" stroke="white" stroke-width="1.5" d="M0,-3.0v7 M-2.5,-0.5L0,-3.0L2.5,-0.5"/>
                </g>
                <g id="arrowLeft" xlink:href="#dirArrow" transform="rotate(270) translate(-36 17)" onmousedown="handlePan(-1,0)">
                  <use xlink:href="#rim" fill="#404040">
                        <set attributeName="fill" to="#808080" begin="arrowLeft.mouseover" end="arrowLeft.mouseout"/>
                  </use>
                  <path fill="none" stroke="white" stroke-width="1.5" d="M0,-3.0v7 M-2.5,-0.5L0,-3.0L2.5,-0.5"/>
                </g>
        </g>
        <svg viewBox="0 0 15 15" width="100%" height="30px" preserveAspectRatio="xMaxYMin meet">
         <g id="arrow_out" transform="scale(0.3 0.3)">
          <a xlink:href="_file_ogg_vorbis_8h__incl_org.svg" target="_base">
           <rect id="button" ry="5" rx="5" y="6" x="6" height="38" width="38"
                fill="#f2f5e9" fill-opacity="0.5" stroke="#606060" stroke-width="1.0"/>
           <path id="arrow"
             d="M 11.500037,31.436501 C 11.940474,20.09759 22.043105,11.32322 32.158766,21.979434 L 37.068811,17.246167 C 37.068811,17.246167 37.088388,32 37.088388,32 L 22.160133,31.978069 C 22.160133,31.978069 26.997745,27.140456 26.997745,27.140456 C 18.528582,18.264221 13.291696,25.230495 11.500037,31.436501 z"
             style="fill:#404040;"/>
          </a>
         </g>
        </svg>
</svg>
