<?xml version="1.0" encoding="UTF-8" standalone="no"?>
<!DOCTYPE svg PUBLIC "-//W3C//DTD SVG 1.1//EN"
 "http://www.w3.org/Graphics/SVG/1.1/DTD/svg11.dtd">
<!-- Generated by graphviz version 2.30.1 (20140712.1814)
 -->
<!-- Title: include/cinder/ip/Fill.h Pages: 1 -->
<!--zoomable 100 -->
<svg id="main" version="1.1" xmlns="http://www.w3.org/2000/svg" xmlns:xlink="http://www.w3.org/1999/xlink" xml:space="preserve" onload="init(evt)">
<style type="text/css"><![CDATA[
.edge:hover path { stroke: red; }
.edge:hover polygon { stroke: red; fill: red; }
]]></style>
<script type="text/javascript"><![CDATA[
var edges = document.getElementsByTagName('g');
if (edges && edges.length) {
  for (var i=0;i<edges.length;i++) {
    if (edges[i].id.substr(0,4)=='edge') {
      edges[i].setAttribute('class','edge');
    }
  }
}
]]></script>
        <defs>
                <circle id="rim" cx="0" cy="0" r="7"/>
                <circle id="rim2" cx="0" cy="0" r="3.5"/>
                <g id="zoomPlus">
                        <use xlink:href="#rim" fill="#404040">
                                <set attributeName="fill" to="#808080" begin="zoomplus.mouseover" end="zoomplus.mouseout"/>
                        </use>
                        <path d="M-4,0h8M0,-4v8" fill="none" stroke="white" stroke-width="1.5" pointer-events="none"/>
                </g>
                <g id="zoomMin">
                        <use xlink:href="#rim" fill="#404040">
                                <set attributeName="fill" to="#808080" begin="zoomminus.mouseover" end="zoomminus.mouseout"/>
                        </use>
                        <path d="M-4,0h8" fill="none" stroke="white" stroke-width="1.5" pointer-events="none"/>
                </g>
                <g id="dirArrow">
                        <path fill="none" stroke="white" stroke-width="1.5" d="M0,-3.0v7 M-2.5,-0.5L0,-3.0L2.5,-0.5"/>
                </g>
               <g id="resetDef">
                       <use xlink:href="#rim2" fill="#404040">
                               <set attributeName="fill" to="#808080" begin="reset.mouseover" end="reset.mouseout"/>
                       </use>
               </g>
        </defs>

<script type="text/javascript">
var viewWidth = 1125;
var viewHeight = 100;
var sectionId = 'dynsection-1';
</script>
<script xlink:href="svgpan.js"/>
<svg id="graph" class="graph">
<g id="viewport">
<title>include/cinder/ip/Fill.h</title>
<polygon fill="white" stroke="white" points="-4,5 -4,-96 1122,-96 1122,5 -4,5"/>
<!-- Node1 -->
<g id="node1" class="node"><title>Node1</title>
<polygon fill="#bfbfbf" stroke="black" points="568.921,-71 568.921,-91 681.079,-91 681.079,-71 568.921,-71"/>
<text text-anchor="middle" x="625" y="-77" font-family="Helvetica,sans-Serif" font-size="10.00">include/cinder/ip/Fill.h</text>
</g>
<!-- Node2 -->
<g id="node2" class="node"><title>Node2</title>
<g id="a_node2"><a xlink:href="_capture_impl_cocoa_dummy_8mm.html" target="_top" xlink:title="src/cinder/CaptureImplCocoa\lDummy.mm">
<polygon fill="white" stroke="black" points="-0.748535,-1 -0.748535,-33 144.749,-33 144.749,-1 -0.748535,-1"/>
<text text-anchor="start" x="7.25146" y="-19" font-family="Helvetica,sans-Serif" font-size="10.00">src/cinder/CaptureImplCocoa</text>
<text text-anchor="middle" x="72" y="-7" font-family="Helvetica,sans-Serif" font-size="10.00">Dummy.mm</text>
</a>
</g>
</g>
<!-- Node1&#45;&gt;Node2 -->
<g id="edge1" class="edge"><title>Node1&#45;&gt;Node2</title>
<path fill="none" stroke="midnightblue" d="M558.605,-75.5879C467.024,-69.034 296.924,-55.1761 153,-34 150.306,-33.6035 147.565,-33.1778 144.8,-32.7293"/>
<polygon fill="midnightblue" stroke="midnightblue" points="558.615,-79.0973 568.838,-76.3131 559.11,-72.1148 558.615,-79.0973"/>
</g>
<!-- Node3 -->
<g id="node3" class="node"><title>Node3</title>
<g id="a_node3"><a xlink:href="_dx_texture_font_8cpp.html" target="_top" xlink:title="src/cinder/dx/DxTextureFont.cpp">
<polygon fill="white" stroke="black" points="162.306,-7 162.306,-27 321.694,-27 321.694,-7 162.306,-7"/>
<text text-anchor="middle" x="242" y="-13" font-family="Helvetica,sans-Serif" font-size="10.00">src/cinder/dx/DxTextureFont.cpp</text>
</a>
</g>
</g>
<!-- Node1&#45;&gt;Node3 -->
<g id="edge2" class="edge"><title>Node1&#45;&gt;Node3</title>
<path fill="none" stroke="midnightblue" d="M558.815,-70.0828C499.183,-61.0432 409.142,-47.1355 331,-34 317.995,-31.8139 303.943,-29.3398 290.93,-27.0021"/>
<polygon fill="midnightblue" stroke="midnightblue" points="558.44,-73.5658 568.851,-71.6017 559.487,-66.6446 558.44,-73.5658"/>
</g>
<!-- Node4 -->
<g id="node4" class="node"><title>Node4</title>
<g id="a_node4"><a xlink:href="_texture_font_8cpp.html" target="_top" xlink:title="src/cinder/gl/TextureFont.cpp">
<polygon fill="white" stroke="black" points="339.806,-7 339.806,-27 484.194,-27 484.194,-7 339.806,-7"/>
<text text-anchor="middle" x="412" y="-13" font-family="Helvetica,sans-Serif" font-size="10.00">src/cinder/gl/TextureFont.cpp</text>
</a>
</g>
</g>
<!-- Node1&#45;&gt;Node4 -->
<g id="edge3" class="edge"><title>Node1&#45;&gt;Node4</title>
<path fill="none" stroke="midnightblue" d="M584.307,-68.155C543.118,-56.1658 480.334,-37.8906 443.009,-27.0262"/>
<polygon fill="midnightblue" stroke="midnightblue" points="583.448,-71.5503 594.028,-70.9847 585.405,-64.8293 583.448,-71.5503"/>
</g>
<!-- Node5 -->
<g id="node5" class="node"><title>Node5</title>
<g id="a_node5"><a xlink:href="_blend_8cpp.html" target="_top" xlink:title="src/cinder/ip/Blend.cpp">
<polygon fill="white" stroke="black" points="502.419,-7 502.419,-27 619.581,-27 619.581,-7 502.419,-7"/>
<text text-anchor="middle" x="561" y="-13" font-family="Helvetica,sans-Serif" font-size="10.00">src/cinder/ip/Blend.cpp</text>
</a>
</g>
</g>
<!-- Node1&#45;&gt;Node5 -->
<g id="edge4" class="edge"><title>Node1&#45;&gt;Node5</title>
<path fill="none" stroke="midnightblue" d="M608.287,-63.8095C596.244,-52.1422 580.423,-36.8165 570.482,-27.1858"/>
<polygon fill="midnightblue" stroke="midnightblue" points="605.939,-66.4076 615.557,-70.8517 610.809,-61.3799 605.939,-66.4076"/>
</g>
<!-- Node6 -->
<g id="node6" class="node"><title>Node6</title>
<g id="a_node6"><a xlink:href="_fill_8cpp.html" target="_top" xlink:title="src/cinder/ip/Fill.cpp">
<polygon fill="white" stroke="black" points="637.82,-7 637.82,-27 742.18,-27 742.18,-7 637.82,-7"/>
<text text-anchor="middle" x="690" y="-13" font-family="Helvetica,sans-Serif" font-size="10.00">src/cinder/ip/Fill.cpp</text>
</a>
</g>
</g>
<!-- Node1&#45;&gt;Node6 -->
<g id="edge5" class="edge"><title>Node1&#45;&gt;Node6</title>
<path fill="none" stroke="midnightblue" d="M641.974,-63.8095C654.206,-52.1422 670.273,-36.8165 680.37,-27.1858"/>
<polygon fill="midnightblue" stroke="midnightblue" points="639.411,-61.4169 634.591,-70.8517 644.243,-66.4822 639.411,-61.4169"/>
</g>
<!-- Node7 -->
<g id="node7" class="node"><title>Node7</title>
<g id="a_node7"><a xlink:href="_hdr_8cpp.html" target="_top" xlink:title="src/cinder/ip/Hdr.cpp">
<polygon fill="white" stroke="black" points="760.424,-7 760.424,-27 867.576,-27 867.576,-7 760.424,-7"/>
<text text-anchor="middle" x="814" y="-13" font-family="Helvetica,sans-Serif" font-size="10.00">src/cinder/ip/Hdr.cpp</text>
</a>
</g>
</g>
<!-- Node1&#45;&gt;Node7 -->
<g id="edge6" class="edge"><title>Node1&#45;&gt;Node7</title>
<path fill="none" stroke="midnightblue" d="M662.274,-67.7727C698.831,-55.7803 753.716,-37.7757 786.485,-27.0262"/>
<polygon fill="midnightblue" stroke="midnightblue" points="660.893,-64.542 652.482,-70.9847 663.075,-71.1932 660.893,-64.542"/>
</g>
<!-- Node8 -->
<g id="node8" class="node"><title>Node8</title>
<g id="a_node8"><a xlink:href="_surface_8cpp.html" target="_top" xlink:title="src/cinder/Surface.cpp">
<polygon fill="white" stroke="black" points="885.256,-7 885.256,-27 1000.74,-27 1000.74,-7 885.256,-7"/>
<text text-anchor="middle" x="943" y="-13" font-family="Helvetica,sans-Serif" font-size="10.00">src/cinder/Surface.cpp</text>
</a>
</g>
</g>
<!-- Node1&#45;&gt;Node8 -->
<g id="edge7" class="edge"><title>Node1&#45;&gt;Node8</title>
<path fill="none" stroke="midnightblue" d="M688.885,-69.2572C739.722,-60.4762 812.602,-47.3693 876,-34 885.946,-31.9025 896.674,-29.4339 906.568,-27.072"/>
<polygon fill="midnightblue" stroke="midnightblue" points="688.283,-65.8093 679.021,-70.9545 689.47,-72.708 688.283,-65.8093"/>
</g>
<!-- Node9 -->
<g id="node9" class="node"><title>Node9</title>
<g id="a_node9"><a xlink:href="_text_8cpp.html" target="_top" xlink:title="src/cinder/Text.cpp">
<polygon fill="white" stroke="black" points="1018.32,-7 1018.32,-27 1117.68,-27 1117.68,-7 1018.32,-7"/>
<text text-anchor="middle" x="1068" y="-13" font-family="Helvetica,sans-Serif" font-size="10.00">src/cinder/Text.cpp</text>
</a>
</g>
</g>
<!-- Node1&#45;&gt;Node9 -->
<g id="edge8" class="edge"><title>Node1&#45;&gt;Node9</title>
<path fill="none" stroke="midnightblue" d="M691.392,-75.0015C768.308,-68.5295 898.615,-55.4606 1009,-34 1018.48,-32.1569 1028.68,-29.6024 1037.88,-27.0751"/>
<polygon fill="midnightblue" stroke="midnightblue" points="691.038,-71.5187 681.361,-75.8335 691.616,-78.4948 691.038,-71.5187"/>
</g>
</g>
</svg>
        <g id="navigator" transform="translate(0 0)" fill="#404254">
                <rect fill="#f2f5e9" fill-opacity="0.5" stroke="#606060" stroke-width=".5" x="0" y="0" width="60" height="60"/>
                <use id="zoomplus" xlink:href="#zoomPlus" x="17" y="9" onmousedown="handleZoom(evt,'in')"/>
                <use id="zoomminus" xlink:href="#zoomMin" x="42" y="9" onmousedown="handleZoom(evt,'out')"/>
                <use id="reset" xlink:href="#resetDef" x="30" y="36" onmousedown="handleReset()"/>
                <g id="arrowUp" xlink:href="#dirArrow" transform="translate(30 24)" onmousedown="handlePan(0,-1)">
                  <use xlink:href="#rim" fill="#404040">
                        <set attributeName="fill" to="#808080" begin="arrowUp.mouseover" end="arrowUp.mouseout"/>
                  </use>
                  <path fill="none" stroke="white" stroke-width="1.5" d="M0,-3.0v7 M-2.5,-0.5L0,-3.0L2.5,-0.5"/>
                </g>
                <g id="arrowRight" xlink:href="#dirArrow" transform="rotate(90) translate(36 -43)" onmousedown="handlePan(1,0)">
                  <use xlink:href="#rim" fill="#404040">
                        <set attributeName="fill" to="#808080" begin="arrowRight.mouseover" end="arrowRight.mouseout"/>
                  </use>
                  <path fill="none" stroke="white" stroke-width="1.5" d="M0,-3.0v7 M-2.5,-0.5L0,-3.0L2.5,-0.5"/>
                </g>
                <g id="arrowDown" xlink:href="#dirArrow" transform="rotate(180) translate(-30 -48)" onmousedown="handlePan(0,1)">
                  <use xlink:href="#rim" fill="#404040">
                        <set attributeName="fill" to="#808080" begin="arrowDown.mouseover" end="arrowDown.mouseout"/>
                  </use>
                  <path fill="none" stroke="white" stroke-width="1.5" d="M0,-3.0v7 M-2.5,-0.5L0,-3.0L2.5,-0.5"/>
                </g>
                <g id="arrowLeft" xlink:href="#dirArrow" transform="rotate(270) translate(-36 17)" onmousedown="handlePan(-1,0)">
                  <use xlink:href="#rim" fill="#404040">
                        <set attributeName="fill" to="#808080" begin="arrowLeft.mouseover" end="arrowLeft.mouseout"/>
                  </use>
                  <path fill="none" stroke="white" stroke-width="1.5" d="M0,-3.0v7 M-2.5,-0.5L0,-3.0L2.5,-0.5"/>
                </g>
        </g>
        <svg viewBox="0 0 15 15" width="100%" height="30px" preserveAspectRatio="xMaxYMin meet">
         <g id="arrow_out" transform="scale(0.3 0.3)">
          <a xlink:href="_fill_8h__dep__incl_org.svg" target="_base">
           <rect id="button" ry="5" rx="5" y="6" x="6" height="38" width="38"
                fill="#f2f5e9" fill-opacity="0.5" stroke="#606060" stroke-width="1.0"/>
           <path id="arrow"
             d="M 11.500037,31.436501 C 11.940474,20.09759 22.043105,11.32322 32.158766,21.979434 L 37.068811,17.246167 C 37.068811,17.246167 37.088388,32 37.088388,32 L 22.160133,31.978069 C 22.160133,31.978069 26.997745,27.140456 26.997745,27.140456 C 18.528582,18.264221 13.291696,25.230495 11.500037,31.436501 z"
             style="fill:#404040;"/>
          </a>
         </g>
        </svg>
</svg>
