<?xml version="1.0" encoding="UTF-8" standalone="no"?>
<!DOCTYPE svg PUBLIC "-//W3C//DTD SVG 1.1//EN"
 "http://www.w3.org/Graphics/SVG/1.1/DTD/svg11.dtd">
<!-- Generated by graphviz version 2.30.1 (20140712.1814)
 -->
<!-- Title: include/cinder/Filter.h Pages: 1 -->
<svg width="179pt" height="146pt"
 viewBox="0.00 0.00 179.00 146.00" xmlns="http://www.w3.org/2000/svg" xmlns:xlink="http://www.w3.org/1999/xlink">
<g id="graph0" class="graph" transform="scale(1 1) rotate(0) translate(4 142)">
<title>include/cinder/Filter.h</title>
<polygon fill="white" stroke="white" points="-4,5 -4,-142 176,-142 176,5 -4,5"/>
<!-- Node1 -->
<g id="node1" class="node"><title>Node1</title>
<polygon fill="#bfbfbf" stroke="black" points="54.7515,-117 54.7515,-137 165.249,-137 165.249,-117 54.7515,-117"/>
<text text-anchor="middle" x="110" y="-123" font-family="Helvetica,sans-Serif" font-size="10.00">include/cinder/Filter.h</text>
</g>
<!-- Node2 -->
<g id="node2" class="node"><title>Node2</title>
<g id="a_node2"><a xlink:href="_resize_8h.html" target="_top" xlink:title="include/cinder/ip/Resize.h">
<polygon fill="white" stroke="black" points="-0.975098,-59 -0.975098,-79 128.975,-79 128.975,-59 -0.975098,-59"/>
<text text-anchor="middle" x="64" y="-65" font-family="Helvetica,sans-Serif" font-size="10.00">include/cinder/ip/Resize.h</text>
</a>
</g>
</g>
<!-- Node1&#45;&gt;Node2 -->
<g id="edge1" class="edge"><title>Node1&#45;&gt;Node2</title>
<path fill="none" stroke="midnightblue" d="M95.886,-108.818C87.824,-99.0032 78.0408,-87.0932 71.4546,-79.0752"/>
<polygon fill="midnightblue" stroke="midnightblue" points="93.3521,-111.247 102.404,-116.753 98.7612,-106.804 93.3521,-111.247"/>
</g>
<!-- Node3 -->
<g id="node3" class="node"><title>Node3</title>
<g id="a_node3"><a xlink:href="_resize_8cpp.html" target="_top" xlink:title="src/cinder/ip/Resize.cpp">
<polygon fill="white" stroke="black" points="48.9238,-1 48.9238,-21 171.076,-21 171.076,-1 48.9238,-1"/>
<text text-anchor="middle" x="110" y="-7" font-family="Helvetica,sans-Serif" font-size="10.00">src/cinder/ip/Resize.cpp</text>
</a>
</g>
</g>
<!-- Node1&#45;&gt;Node3 -->
<g id="edge3" class="edge"><title>Node1&#45;&gt;Node3</title>
<path fill="none" stroke="midnightblue" d="M123.244,-108.502C128.639,-100.305 134.247,-90.1284 137,-80 139.565,-70.5645 139.565,-67.4355 137,-58 133.211,-44.0599 124.014,-30.0277 117.407,-21.1922"/>
<polygon fill="midnightblue" stroke="midnightblue" points="120.293,-106.614 117.407,-116.808 126.02,-110.639 120.293,-106.614"/>
</g>
<!-- Node2&#45;&gt;Node3 -->
<g id="edge2" class="edge"><title>Node2&#45;&gt;Node3</title>
<path fill="none" stroke="midnightblue" d="M78.114,-50.8177C86.176,-41.0032 95.9592,-29.0932 102.545,-21.0752"/>
<polygon fill="midnightblue" stroke="midnightblue" points="75.2388,-48.8039 71.596,-58.7527 80.6479,-53.2471 75.2388,-48.8039"/>
</g>
</g>
</svg>
