<?xml version="1.0" encoding="UTF-8" standalone="no"?>
<!DOCTYPE svg PUBLIC "-//W3C//DTD SVG 1.1//EN"
 "http://www.w3.org/Graphics/SVG/1.1/DTD/svg11.dtd">
<!-- Generated by graphviz version 2.30.1 (20140712.1814)
 -->
<!-- Title: src/cinder/audio/FilterNode.cpp Pages: 1 -->
<!--zoomable 378 -->
<svg id="main" version="1.1" xmlns="http://www.w3.org/2000/svg" xmlns:xlink="http://www.w3.org/1999/xlink" xml:space="preserve" onload="init(evt)">
<style type="text/css"><![CDATA[
.edge:hover path { stroke: red; }
.edge:hover polygon { stroke: red; fill: red; }
]]></style>
<script type="text/javascript"><![CDATA[
var edges = document.getElementsByTagName('g');
if (edges && edges.length) {
  for (var i=0;i<edges.length;i++) {
    if (edges[i].id.substr(0,4)=='edge') {
      edges[i].setAttribute('class','edge');
    }
  }
}
]]></script>
        <defs>
                <circle id="rim" cx="0" cy="0" r="7"/>
                <circle id="rim2" cx="0" cy="0" r="3.5"/>
                <g id="zoomPlus">
                        <use xlink:href="#rim" fill="#404040">
                                <set attributeName="fill" to="#808080" begin="zoomplus.mouseover" end="zoomplus.mouseout"/>
                        </use>
                        <path d="M-4,0h8M0,-4v8" fill="none" stroke="white" stroke-width="1.5" pointer-events="none"/>
                </g>
                <g id="zoomMin">
                        <use xlink:href="#rim" fill="#404040">
                                <set attributeName="fill" to="#808080" begin="zoomminus.mouseover" end="zoomminus.mouseout"/>
                        </use>
                        <path d="M-4,0h8" fill="none" stroke="white" stroke-width="1.5" pointer-events="none"/>
                </g>
                <g id="dirArrow">
                        <path fill="none" stroke="white" stroke-width="1.5" d="M0,-3.0v7 M-2.5,-0.5L0,-3.0L2.5,-0.5"/>
                </g>
               <g id="resetDef">
                       <use xlink:href="#rim2" fill="#404040">
                               <set attributeName="fill" to="#808080" begin="reset.mouseover" end="reset.mouseout"/>
                       </use>
               </g>
        </defs>

<script type="text/javascript">
var viewWidth = 1009;
var viewHeight = 378;
var sectionId = 'dynsection-0';
</script>
<script xlink:href="svgpan.js"/>
<svg id="graph" class="graph">
<g id="viewport">
<title>src/cinder/audio/FilterNode.cpp</title>
<polygon fill="white" stroke="white" points="-4,5 -4,-374 1005.73,-374 1005.73,5 -4,5"/>
<!-- Node1 -->
<g id="node1" class="node"><title>Node1</title>
<polygon fill="#bfbfbf" stroke="black" points="235.531,-349 235.531,-369 389.929,-369 389.929,-349 235.531,-349"/>
<text text-anchor="middle" x="312.73" y="-355" font-family="Helvetica,sans-Serif" font-size="10.00">src/cinder/audio/FilterNode.cpp</text>
</g>
<!-- Node2 -->
<g id="node2" class="node"><title>Node2</title>
<g id="a_node2"><a xlink:href="_filter_node_8h.html" target="_top" xlink:title="cinder/audio/FilterNode.h">
<polygon fill="white" stroke="black" points="248.866,-291 248.866,-311 376.594,-311 376.594,-291 248.866,-291"/>
<text text-anchor="middle" x="312.73" y="-297" font-family="Helvetica,sans-Serif" font-size="10.00">cinder/audio/FilterNode.h</text>
</a>
</g>
</g>
<!-- Node1&#45;&gt;Node2 -->
<g id="edge1" class="edge"><title>Node1&#45;&gt;Node2</title>
<path fill="none" stroke="midnightblue" d="M312.73,-348.753C312.73,-341.25 312.73,-330.424 312.73,-321.078"/>
<polygon fill="midnightblue" stroke="midnightblue" points="316.23,-321.075 312.73,-311.075 309.23,-321.075 316.23,-321.075"/>
</g>
<!-- Node3 -->
<g id="node3" class="node"><title>Node3</title>
<g id="a_node3"><a xlink:href="_node_8h.html" target="_top" xlink:title="cinder/audio/Node.h">
<polygon fill="white" stroke="black" points="524.977,-233 524.977,-253 630.483,-253 630.483,-233 524.977,-233"/>
<text text-anchor="middle" x="577.73" y="-239" font-family="Helvetica,sans-Serif" font-size="10.00">cinder/audio/Node.h</text>
</a>
</g>
</g>
<!-- Node2&#45;&gt;Node3 -->
<g id="edge2" class="edge"><title>Node2&#45;&gt;Node3</title>
<path fill="none" stroke="midnightblue" d="M355.601,-290.94C401.785,-281.181 475.319,-265.642 525.007,-255.141"/>
<polygon fill="midnightblue" stroke="midnightblue" points="525.86,-258.539 534.92,-253.047 524.413,-251.69 525.86,-258.539"/>
</g>
<!-- Node23 -->
<g id="node23" class="node"><title>Node23</title>
<g id="a_node23"><a xlink:href="_biquad_8h.html" target="_top" xlink:title="cinder/audio/dsp/Biquad.h">
<polygon fill="white" stroke="black" points="246.91,-233 246.91,-253 378.55,-253 378.55,-233 246.91,-233"/>
<text text-anchor="middle" x="312.73" y="-239" font-family="Helvetica,sans-Serif" font-size="10.00">cinder/audio/dsp/Biquad.h</text>
</a>
</g>
</g>
<!-- Node2&#45;&gt;Node23 -->
<g id="edge25" class="edge"><title>Node2&#45;&gt;Node23</title>
<path fill="none" stroke="midnightblue" d="M312.73,-290.753C312.73,-283.25 312.73,-272.424 312.73,-263.078"/>
<polygon fill="midnightblue" stroke="midnightblue" points="316.23,-263.075 312.73,-253.075 309.23,-263.075 316.23,-263.075"/>
</g>
<!-- Node8 -->
<g id="node8" class="node"><title>Node8</title>
<polygon fill="white" stroke="#bfbfbf" points="293.114,-59 293.114,-79 336.346,-79 336.346,-59 293.114,-59"/>
<text text-anchor="middle" x="314.73" y="-65" font-family="Helvetica,sans-Serif" font-size="10.00">vector</text>
</g>
<!-- Node2&#45;&gt;Node8 -->
<g id="edge33" class="edge"><title>Node2&#45;&gt;Node8</title>
<path fill="none" stroke="midnightblue" d="M266.65,-290.955C165.188,-269.102 -62.4385,-208.327 16.73,-116 25.3774,-105.915 207.721,-82.8963 282.829,-73.7998"/>
<polygon fill="midnightblue" stroke="midnightblue" points="283.59,-77.2335 293.099,-72.5619 282.752,-70.2838 283.59,-77.2335"/>
</g>
<!-- Node4 -->
<g id="node4" class="node"><title>Node4</title>
<g id="a_node4"><a xlink:href="audio_2_buffer_8h.html" target="_top" xlink:title="cinder/audio/Buffer.h">
<polygon fill="white" stroke="black" points="370.951,-175 370.951,-195 478.509,-195 478.509,-175 370.951,-175"/>
<text text-anchor="middle" x="424.73" y="-181" font-family="Helvetica,sans-Serif" font-size="10.00">cinder/audio/Buffer.h</text>
</a>
</g>
</g>
<!-- Node3&#45;&gt;Node4 -->
<g id="edge3" class="edge"><title>Node3&#45;&gt;Node4</title>
<path fill="none" stroke="midnightblue" d="M552.807,-232.878C527.281,-223.535 487.414,-208.943 458.942,-198.522"/>
<polygon fill="midnightblue" stroke="midnightblue" points="459.982,-195.176 449.388,-195.025 457.576,-201.749 459.982,-195.176"/>
</g>
<!-- Node12 -->
<g id="node12" class="node"><title>Node12</title>
<g id="a_node12"><a xlink:href="audio_2_exception_8h.html" target="_top" xlink:title="cinder/audio/Exception.h">
<polygon fill="white" stroke="black" points="560.972,-175 560.972,-195 686.488,-195 686.488,-175 560.972,-175"/>
<text text-anchor="middle" x="623.73" y="-181" font-family="Helvetica,sans-Serif" font-size="10.00">cinder/audio/Exception.h</text>
</a>
</g>
</g>
<!-- Node3&#45;&gt;Node12 -->
<g id="edge11" class="edge"><title>Node3&#45;&gt;Node12</title>
<path fill="none" stroke="midnightblue" d="M585.326,-232.753C591.957,-224.68 601.751,-212.757 609.788,-202.973"/>
<polygon fill="midnightblue" stroke="midnightblue" points="612.632,-205.024 616.275,-195.075 607.223,-200.581 612.632,-205.024"/>
</g>
<!-- Node19 -->
<g id="node19" class="node"><title>Node19</title>
<polygon fill="white" stroke="#bfbfbf" points="704.021,-175 704.021,-195 823.439,-195 823.439,-175 704.021,-175"/>
<text text-anchor="middle" x="763.73" y="-181" font-family="Helvetica,sans-Serif" font-size="10.00">boost/noncopyable.hpp</text>
</g>
<!-- Node3&#45;&gt;Node19 -->
<g id="edge20" class="edge"><title>Node3&#45;&gt;Node19</title>
<path fill="none" stroke="midnightblue" d="M608.028,-232.878C639.602,-223.372 689.225,-208.432 723.94,-197.98"/>
<polygon fill="midnightblue" stroke="midnightblue" points="725.187,-201.26 733.753,-195.025 723.169,-194.557 725.187,-201.26"/>
</g>
<!-- Node20 -->
<g id="node20" class="node"><title>Node20</title>
<polygon fill="white" stroke="#bfbfbf" points="841.087,-175 841.087,-195 954.373,-195 954.373,-175 841.087,-175"/>
<text text-anchor="middle" x="897.73" y="-181" font-family="Helvetica,sans-Serif" font-size="10.00">boost/logic/tribool.hpp</text>
</g>
<!-- Node3&#45;&gt;Node20 -->
<g id="edge21" class="edge"><title>Node3&#45;&gt;Node20</title>
<path fill="none" stroke="midnightblue" d="M629.499,-232.94C685.934,-223.064 776.188,-207.27 836.201,-196.768"/>
<polygon fill="midnightblue" stroke="midnightblue" points="837.053,-200.172 846.3,-195 835.846,-193.276 837.053,-200.172"/>
</g>
<!-- Node9 -->
<g id="node9" class="node"><title>Node9</title>
<polygon fill="white" stroke="#bfbfbf" points="533.673,-117 533.673,-137 585.787,-137 585.787,-117 533.673,-117"/>
<text text-anchor="middle" x="559.73" y="-123" font-family="Helvetica,sans-Serif" font-size="10.00">memory</text>
</g>
<!-- Node3&#45;&gt;Node9 -->
<g id="edge22" class="edge"><title>Node3&#45;&gt;Node9</title>
<path fill="none" stroke="midnightblue" d="M570.594,-232.762C564.229,-223.894 555.371,-209.84 551.73,-196 547.483,-179.854 550.304,-160.956 553.716,-147.186"/>
<polygon fill="midnightblue" stroke="midnightblue" points="557.132,-147.966 556.455,-137.392 550.391,-146.08 557.132,-147.966"/>
</g>
<!-- Node21 -->
<g id="node21" class="node"><title>Node21</title>
<polygon fill="white" stroke="#bfbfbf" points="294.003,-117 294.003,-137 339.457,-137 339.457,-117 294.003,-117"/>
<text text-anchor="middle" x="316.73" y="-123" font-family="Helvetica,sans-Serif" font-size="10.00">atomic</text>
</g>
<!-- Node3&#45;&gt;Node21 -->
<g id="edge23" class="edge"><title>Node3&#45;&gt;Node21</title>
<path fill="none" stroke="midnightblue" d="M524.969,-241.718C478.339,-239.072 410.37,-229.134 361.73,-196 343.879,-183.839 331.321,-162.019 324.089,-146.373"/>
<polygon fill="midnightblue" stroke="midnightblue" points="327.282,-144.939 320.102,-137.147 320.856,-147.715 327.282,-144.939"/>
</g>
<!-- Node22 -->
<g id="node22" class="node"><title>Node22</title>
<polygon fill="white" stroke="#bfbfbf" points="972.06,-175 972.06,-195 1001.4,-195 1001.4,-175 972.06,-175"/>
<text text-anchor="middle" x="986.73" y="-181" font-family="Helvetica,sans-Serif" font-size="10.00">set</text>
</g>
<!-- Node3&#45;&gt;Node22 -->
<g id="edge24" class="edge"><title>Node3&#45;&gt;Node22</title>
<path fill="none" stroke="midnightblue" d="M630.582,-240.283C703.604,-236.909 839.282,-227.022 962.029,-195.503"/>
<polygon fill="midnightblue" stroke="midnightblue" points="963.187,-198.818 971.972,-192.895 961.411,-192.047 963.187,-198.818"/>
</g>
<!-- Node5 -->
<g id="node5" class="node"><title>Node5</title>
<g id="a_node5"><a xlink:href="_cinder_assert_8h.html" target="_top" xlink:title="cinder/CinderAssert.h">
<polygon fill="white" stroke="black" points="87.6538,-117 87.6538,-137 199.806,-137 199.806,-117 87.6538,-117"/>
<text text-anchor="middle" x="143.73" y="-123" font-family="Helvetica,sans-Serif" font-size="10.00">cinder/CinderAssert.h</text>
</a>
</g>
</g>
<!-- Node4&#45;&gt;Node5 -->
<g id="edge4" class="edge"><title>Node4&#45;&gt;Node5</title>
<path fill="none" stroke="midnightblue" d="M379.27,-174.94C330.093,-165.14 251.673,-149.512 198.978,-139.01"/>
<polygon fill="midnightblue" stroke="midnightblue" points="199.616,-135.569 189.124,-137.047 198.248,-142.434 199.616,-135.569"/>
</g>
<!-- Node4&#45;&gt;Node8 -->
<g id="edge7" class="edge"><title>Node4&#45;&gt;Node8</title>
<path fill="none" stroke="midnightblue" d="M415.728,-174.671C397.104,-155.369 354.127,-110.83 330.686,-86.5362"/>
<polygon fill="midnightblue" stroke="midnightblue" points="333.011,-83.9053 323.549,-79.1394 327.974,-88.7659 333.011,-83.9053"/>
</g>
<!-- Node4&#45;&gt;Node9 -->
<g id="edge8" class="edge"><title>Node4&#45;&gt;Node9</title>
<path fill="none" stroke="midnightblue" d="M446.721,-174.878C468.883,-165.685 503.296,-151.409 528.327,-141.026"/>
<polygon fill="midnightblue" stroke="midnightblue" points="529.853,-144.183 537.749,-137.118 527.171,-137.717 529.853,-144.183"/>
</g>
<!-- Node10 -->
<g id="node10" class="node"><title>Node10</title>
<polygon fill="white" stroke="#bfbfbf" points="471.558,-117 471.558,-137 515.902,-137 515.902,-117 471.558,-117"/>
<text text-anchor="middle" x="493.73" y="-123" font-family="Helvetica,sans-Serif" font-size="10.00">cstdlib</text>
</g>
<!-- Node4&#45;&gt;Node10 -->
<g id="edge9" class="edge"><title>Node4&#45;&gt;Node10</title>
<path fill="none" stroke="midnightblue" d="M436.124,-174.753C446.574,-166.272 462.257,-153.543 474.623,-143.507"/>
<polygon fill="midnightblue" stroke="midnightblue" points="476.989,-146.095 482.548,-137.075 472.578,-140.659 476.989,-146.095"/>
</g>
<!-- Node11 -->
<g id="node11" class="node"><title>Node11</title>
<polygon fill="white" stroke="#bfbfbf" points="396.166,-117 396.166,-137 453.294,-137 453.294,-117 396.166,-117"/>
<text text-anchor="middle" x="424.73" y="-123" font-family="Helvetica,sans-Serif" font-size="10.00">algorithm</text>
</g>
<!-- Node4&#45;&gt;Node11 -->
<g id="edge10" class="edge"><title>Node4&#45;&gt;Node11</title>
<path fill="none" stroke="midnightblue" d="M424.73,-174.753C424.73,-167.25 424.73,-156.424 424.73,-147.078"/>
<polygon fill="midnightblue" stroke="midnightblue" points="428.23,-147.075 424.73,-137.075 421.23,-147.075 428.23,-147.075"/>
</g>
<!-- Node6 -->
<g id="node6" class="node"><title>Node6</title>
<g id="a_node6"><a xlink:href="_current_function_8h.html" target="_top" xlink:title="cinder/CurrentFunction.h">
<polygon fill="white" stroke="black" points="28.7031,-59 28.7031,-79 154.757,-79 154.757,-59 28.7031,-59"/>
<text text-anchor="middle" x="91.73" y="-65" font-family="Helvetica,sans-Serif" font-size="10.00">cinder/CurrentFunction.h</text>
</a>
</g>
</g>
<!-- Node5&#45;&gt;Node6 -->
<g id="edge5" class="edge"><title>Node5&#45;&gt;Node6</title>
<path fill="none" stroke="midnightblue" d="M135.143,-116.753C127.571,-108.598 116.352,-96.5158 107.216,-86.6769"/>
<polygon fill="midnightblue" stroke="midnightblue" points="109.526,-84.0216 100.157,-79.0752 104.397,-88.7847 109.526,-84.0216"/>
</g>
<!-- Node7 -->
<g id="node7" class="node"><title>Node7</title>
<polygon fill="white" stroke="#bfbfbf" points="172.614,-59 172.614,-79 220.846,-79 220.846,-59 172.614,-59"/>
<text text-anchor="middle" x="196.73" y="-65" font-family="Helvetica,sans-Serif" font-size="10.00">cassert</text>
</g>
<!-- Node5&#45;&gt;Node7 -->
<g id="edge6" class="edge"><title>Node5&#45;&gt;Node7</title>
<path fill="none" stroke="midnightblue" d="M152.482,-116.753C160.277,-108.516 171.864,-96.2738 181.225,-86.3824"/>
<polygon fill="midnightblue" stroke="midnightblue" points="183.809,-88.744 188.141,-79.0752 178.725,-83.9323 183.809,-88.744"/>
</g>
<!-- Node13 -->
<g id="node13" class="node"><title>Node13</title>
<g id="a_node13"><a xlink:href="_exception_8h.html" target="_top" xlink:title="cinder/Exception.h">
<polygon fill="white" stroke="black" points="603.595,-117 603.595,-137 701.865,-137 701.865,-117 603.595,-117"/>
<text text-anchor="middle" x="652.73" y="-123" font-family="Helvetica,sans-Serif" font-size="10.00">cinder/Exception.h</text>
</a>
</g>
</g>
<!-- Node12&#45;&gt;Node13 -->
<g id="edge12" class="edge"><title>Node12&#45;&gt;Node13</title>
<path fill="none" stroke="midnightblue" d="M628.519,-174.753C632.531,-167.006 638.378,-155.714 643.321,-146.169"/>
<polygon fill="midnightblue" stroke="midnightblue" points="646.54,-147.565 648.03,-137.075 640.324,-144.346 646.54,-147.565"/>
</g>
<!-- Node18 -->
<g id="node18" class="node"><title>Node18</title>
<polygon fill="white" stroke="#bfbfbf" points="670.503,-59 670.503,-79 710.957,-79 710.957,-59 670.503,-59"/>
<text text-anchor="middle" x="690.73" y="-65" font-family="Helvetica,sans-Serif" font-size="10.00">string</text>
</g>
<!-- Node12&#45;&gt;Node18 -->
<g id="edge19" class="edge"><title>Node12&#45;&gt;Node18</title>
<path fill="none" stroke="midnightblue" d="M659.21,-174.889C678.034,-168.053 699.533,-156.586 710.73,-138 720.106,-122.436 712.013,-102.204 703.483,-87.8667"/>
<polygon fill="midnightblue" stroke="midnightblue" points="706.372,-85.8893 697.994,-79.4045 700.499,-89.6988 706.372,-85.8893"/>
</g>
<!-- Node14 -->
<g id="node14" class="node"><title>Node14</title>
<g id="a_node14"><a xlink:href="_cinder_8h.html" target="_top" xlink:title="cinder/Cinder.h">
<polygon fill="white" stroke="black" points="481.097,-59 481.097,-79 564.363,-79 564.363,-59 481.097,-59"/>
<text text-anchor="middle" x="522.73" y="-65" font-family="Helvetica,sans-Serif" font-size="10.00">cinder/Cinder.h</text>
</a>
</g>
</g>
<!-- Node13&#45;&gt;Node14 -->
<g id="edge13" class="edge"><title>Node13&#45;&gt;Node14</title>
<path fill="none" stroke="midnightblue" d="M631.554,-116.878C610.307,-107.725 577.366,-93.5357 553.29,-83.1643"/>
<polygon fill="midnightblue" stroke="midnightblue" points="554.466,-79.8599 543.897,-79.1181 551.696,-86.2888 554.466,-79.8599"/>
</g>
<!-- Node13&#45;&gt;Node8 -->
<g id="edge17" class="edge"><title>Node13&#45;&gt;Node8</title>
<path fill="none" stroke="midnightblue" d="M603.374,-117.463C600.449,-116.966 597.551,-116.475 594.73,-116 504.743,-100.851 398.381,-83.5406 346.457,-75.1285"/>
<polygon fill="midnightblue" stroke="midnightblue" points="346.954,-71.6635 336.523,-73.5201 345.835,-78.5735 346.954,-71.6635"/>
</g>
<!-- Node13&#45;&gt;Node18 -->
<g id="edge18" class="edge"><title>Node13&#45;&gt;Node18</title>
<path fill="none" stroke="midnightblue" d="M659.005,-116.753C664.372,-108.843 672.248,-97.2372 678.809,-87.5683"/>
<polygon fill="midnightblue" stroke="midnightblue" points="681.853,-89.3152 684.572,-79.0752 676.061,-85.3847 681.853,-89.3152"/>
</g>
<!-- Node15 -->
<g id="node15" class="node"><title>Node15</title>
<polygon fill="white" stroke="#bfbfbf" points="412.279,-1 412.279,-21 457.181,-21 457.181,-1 412.279,-1"/>
<text text-anchor="middle" x="434.73" y="-7" font-family="Helvetica,sans-Serif" font-size="10.00">cstdint</text>
</g>
<!-- Node14&#45;&gt;Node15 -->
<g id="edge14" class="edge"><title>Node14&#45;&gt;Node15</title>
<path fill="none" stroke="midnightblue" d="M508.199,-58.7527C494.487,-50.0272 473.709,-36.8051 457.745,-26.6458"/>
<polygon fill="midnightblue" stroke="midnightblue" points="459.307,-23.4912 448.991,-21.0752 455.549,-29.3968 459.307,-23.4912"/>
</g>
<!-- Node16 -->
<g id="node16" class="node"><title>Node16</title>
<polygon fill="white" stroke="#bfbfbf" points="475.26,-1 475.26,-21 570.2,-21 570.2,-1 475.26,-1"/>
<text text-anchor="middle" x="522.73" y="-7" font-family="Helvetica,sans-Serif" font-size="10.00">boost/version.hpp</text>
</g>
<!-- Node14&#45;&gt;Node16 -->
<g id="edge15" class="edge"><title>Node14&#45;&gt;Node16</title>
<path fill="none" stroke="midnightblue" d="M522.73,-58.7527C522.73,-51.2504 522.73,-40.4238 522.73,-31.0781"/>
<polygon fill="midnightblue" stroke="midnightblue" points="526.23,-31.0752 522.73,-21.0752 519.23,-31.0752 526.23,-31.0752"/>
</g>
<!-- Node17 -->
<g id="node17" class="node"><title>Node17</title>
<polygon fill="white" stroke="#bfbfbf" points="588.351,-1 588.351,-21 721.109,-21 721.109,-1 588.351,-1"/>
<text text-anchor="middle" x="654.73" y="-7" font-family="Helvetica,sans-Serif" font-size="10.00">boost/checked_delete.hpp</text>
</g>
<!-- Node14&#45;&gt;Node17 -->
<g id="edge16" class="edge"><title>Node14&#45;&gt;Node17</title>
<path fill="none" stroke="midnightblue" d="M544.232,-58.878C565.902,-49.6848 599.551,-35.4095 624.025,-25.0263"/>
<polygon fill="midnightblue" stroke="midnightblue" points="625.398,-28.2457 633.237,-21.1181 622.665,-21.8016 625.398,-28.2457"/>
</g>
<!-- Node24 -->
<g id="node24" class="node"><title>Node24</title>
<g id="a_node24"><a xlink:href="_dsp_8h.html" target="_top" xlink:title="cinder/audio/dsp/Dsp.h">
<polygon fill="white" stroke="black" points="169.587,-175 169.587,-195 287.873,-195 287.873,-175 169.587,-175"/>
<text text-anchor="middle" x="228.73" y="-181" font-family="Helvetica,sans-Serif" font-size="10.00">cinder/audio/dsp/Dsp.h</text>
</a>
</g>
</g>
<!-- Node23&#45;&gt;Node24 -->
<g id="edge26" class="edge"><title>Node23&#45;&gt;Node24</title>
<path fill="none" stroke="midnightblue" d="M298.859,-232.753C285.771,-224.027 265.938,-210.805 250.699,-200.646"/>
<polygon fill="midnightblue" stroke="midnightblue" points="252.605,-197.71 242.343,-195.075 248.722,-203.534 252.605,-197.71"/>
</g>
<!-- Node23&#45;&gt;Node4 -->
<g id="edge32" class="edge"><title>Node23&#45;&gt;Node4</title>
<path fill="none" stroke="midnightblue" d="M331.225,-232.753C349.246,-223.742 376.859,-209.935 397.412,-199.659"/>
<polygon fill="midnightblue" stroke="midnightblue" points="399.201,-202.678 406.58,-195.075 396.07,-196.417 399.201,-202.678"/>
</g>
<!-- Node24&#45;&gt;Node5 -->
<g id="edge27" class="edge"><title>Node24&#45;&gt;Node5</title>
<path fill="none" stroke="midnightblue" d="M214.694,-174.753C201.45,-166.027 181.381,-152.805 165.96,-142.646"/>
<polygon fill="midnightblue" stroke="midnightblue" points="167.781,-139.654 157.505,-137.075 163.93,-145.5 167.781,-139.654"/>
</g>
<!-- Node24&#45;&gt;Node14 -->
<g id="edge28" class="edge"><title>Node24&#45;&gt;Node14</title>
<path fill="none" stroke="midnightblue" d="M233.517,-174.788C241.796,-159.847 260.279,-130.537 284.73,-116 342.262,-81.795 420.169,-72.336 470.929,-70.0776"/>
<polygon fill="midnightblue" stroke="midnightblue" points="471.153,-73.5718 481.018,-69.7076 470.897,-66.5765 471.153,-73.5718"/>
</g>
<!-- Node24&#45;&gt;Node21 -->
<g id="edge29" class="edge"><title>Node24&#45;&gt;Node21</title>
<path fill="none" stroke="midnightblue" d="M243.261,-174.753C256.973,-166.027 277.751,-152.805 293.715,-142.646"/>
<polygon fill="midnightblue" stroke="midnightblue" points="295.911,-145.397 302.469,-137.075 292.153,-139.491 295.911,-145.397"/>
</g>
<!-- Node24&#45;&gt;Node8 -->
<g id="edge30" class="edge"><title>Node24&#45;&gt;Node8</title>
<path fill="none" stroke="midnightblue" d="M230.02,-174.823C232.346,-160.941 238.31,-134.286 251.73,-116 261.273,-102.998 275.571,-92.1375 288.135,-84.2405"/>
<polygon fill="midnightblue" stroke="midnightblue" points="290.087,-87.1521 296.885,-79.0257 286.503,-81.1391 290.087,-87.1521"/>
</g>
<!-- Node25 -->
<g id="node25" class="node"><title>Node25</title>
<polygon fill="white" stroke="#bfbfbf" points="26.1143,-117 26.1143,-137 69.3457,-137 69.3457,-117 26.1143,-117"/>
<text text-anchor="middle" x="47.73" y="-123" font-family="Helvetica,sans-Serif" font-size="10.00">cmath</text>
</g>
<!-- Node24&#45;&gt;Node25 -->
<g id="edge31" class="edge"><title>Node24&#45;&gt;Node25</title>
<path fill="none" stroke="midnightblue" d="M198.808,-174.963C170.457,-166.37 126.442,-152.951 79.2027,-138.118"/>
<polygon fill="midnightblue" stroke="midnightblue" points="79.9869,-134.696 69.3974,-135.034 77.8862,-141.373 79.9869,-134.696"/>
</g>
</g>
</svg>
        <g id="navigator" transform="translate(0 0)" fill="#404254">
                <rect fill="#f2f5e9" fill-opacity="0.5" stroke="#606060" stroke-width=".5" x="0" y="0" width="60" height="60"/>
                <use id="zoomplus" xlink:href="#zoomPlus" x="17" y="9" onmousedown="handleZoom(evt,'in')"/>
                <use id="zoomminus" xlink:href="#zoomMin" x="42" y="9" onmousedown="handleZoom(evt,'out')"/>
                <use id="reset" xlink:href="#resetDef" x="30" y="36" onmousedown="handleReset()"/>
                <g id="arrowUp" xlink:href="#dirArrow" transform="translate(30 24)" onmousedown="handlePan(0,-1)">
                  <use xlink:href="#rim" fill="#404040">
                        <set attributeName="fill" to="#808080" begin="arrowUp.mouseover" end="arrowUp.mouseout"/>
                  </use>
                  <path fill="none" stroke="white" stroke-width="1.5" d="M0,-3.0v7 M-2.5,-0.5L0,-3.0L2.5,-0.5"/>
                </g>
                <g id="arrowRight" xlink:href="#dirArrow" transform="rotate(90) translate(36 -43)" onmousedown="handlePan(1,0)">
                  <use xlink:href="#rim" fill="#404040">
                        <set attributeName="fill" to="#808080" begin="arrowRight.mouseover" end="arrowRight.mouseout"/>
                  </use>
                  <path fill="none" stroke="white" stroke-width="1.5" d="M0,-3.0v7 M-2.5,-0.5L0,-3.0L2.5,-0.5"/>
                </g>
                <g id="arrowDown" xlink:href="#dirArrow" transform="rotate(180) translate(-30 -48)" onmousedown="handlePan(0,1)">
                  <use xlink:href="#rim" fill="#404040">
                        <set attributeName="fill" to="#808080" begin="arrowDown.mouseover" end="arrowDown.mouseout"/>
                  </use>
                  <path fill="none" stroke="white" stroke-width="1.5" d="M0,-3.0v7 M-2.5,-0.5L0,-3.0L2.5,-0.5"/>
                </g>
                <g id="arrowLeft" xlink:href="#dirArrow" transform="rotate(270) translate(-36 17)" onmousedown="handlePan(-1,0)">
                  <use xlink:href="#rim" fill="#404040">
                        <set attributeName="fill" to="#808080" begin="arrowLeft.mouseover" end="arrowLeft.mouseout"/>
                  </use>
                  <path fill="none" stroke="white" stroke-width="1.5" d="M0,-3.0v7 M-2.5,-0.5L0,-3.0L2.5,-0.5"/>
                </g>
        </g>
        <svg viewBox="0 0 15 15" width="100%" height="30px" preserveAspectRatio="xMaxYMin meet">
         <g id="arrow_out" transform="scale(0.3 0.3)">
          <a xlink:href="_filter_node_8cpp__incl_org.svg" target="_base">
           <rect id="button" ry="5" rx="5" y="6" x="6" height="38" width="38"
                fill="#f2f5e9" fill-opacity="0.5" stroke="#606060" stroke-width="1.0"/>
           <path id="arrow"
             d="M 11.500037,31.436501 C 11.940474,20.09759 22.043105,11.32322 32.158766,21.979434 L 37.068811,17.246167 C 37.068811,17.246167 37.088388,32 37.088388,32 L 22.160133,31.978069 C 22.160133,31.978069 26.997745,27.140456 26.997745,27.140456 C 18.528582,18.264221 13.291696,25.230495 11.500037,31.436501 z"
             style="fill:#404040;"/>
          </a>
         </g>
        </svg>
</svg>
