<?xml version="1.0" encoding="UTF-8" standalone="no"?>
<!DOCTYPE svg PUBLIC "-//W3C//DTD SVG 1.1//EN"
 "http://www.w3.org/Graphics/SVG/1.1/DTD/svg11.dtd">
<!-- Generated by graphviz version 2.30.1 (20140712.1814)
 -->
<!-- Title: include/cinder/audio/FilterNode.h Pages: 1 -->
<svg width="1009pt" height="332pt"
 viewBox="0.00 0.00 1008.97 332.00" xmlns="http://www.w3.org/2000/svg" xmlns:xlink="http://www.w3.org/1999/xlink">
<g id="graph0" class="graph" transform="scale(1 1) rotate(0) translate(4 328)">
<title>include/cinder/audio/FilterNode.h</title>
<polygon fill="white" stroke="white" points="-4,5 -4,-328 1005.97,-328 1005.97,5 -4,5"/>
<!-- Node1 -->
<g id="node1" class="node"><title>Node1</title>
<polygon fill="#bfbfbf" stroke="black" points="260.493,-291 260.493,-323 365.443,-323 365.443,-291 260.493,-291"/>
<text text-anchor="start" x="268.493" y="-309" font-family="Helvetica,sans-Serif" font-size="10.00">include/cinder/audio</text>
<text text-anchor="middle" x="312.968" y="-297" font-family="Helvetica,sans-Serif" font-size="10.00">/FilterNode.h</text>
</g>
<!-- Node2 -->
<g id="node2" class="node"><title>Node2</title>
<g id="a_node2"><a xlink:href="_node_8h.html" target="_top" xlink:title="cinder/audio/Node.h">
<polygon fill="white" stroke="black" points="525.215,-233 525.215,-253 630.722,-253 630.722,-233 525.215,-233"/>
<text text-anchor="middle" x="577.968" y="-239" font-family="Helvetica,sans-Serif" font-size="10.00">cinder/audio/Node.h</text>
</a>
</g>
</g>
<!-- Node1&#45;&gt;Node2 -->
<g id="edge1" class="edge"><title>Node1&#45;&gt;Node2</title>
<path fill="none" stroke="midnightblue" d="M365.64,-293.677C413.312,-282.523 482.962,-266.228 529.337,-255.378"/>
<polygon fill="midnightblue" stroke="midnightblue" points="530.212,-258.768 539.152,-253.082 528.617,-251.952 530.212,-258.768"/>
</g>
<!-- Node22 -->
<g id="node22" class="node"><title>Node22</title>
<g id="a_node22"><a xlink:href="_biquad_8h.html" target="_top" xlink:title="cinder/audio/dsp/Biquad.h">
<polygon fill="white" stroke="black" points="247.148,-233 247.148,-253 378.788,-253 378.788,-233 247.148,-233"/>
<text text-anchor="middle" x="312.968" y="-239" font-family="Helvetica,sans-Serif" font-size="10.00">cinder/audio/dsp/Biquad.h</text>
</a>
</g>
</g>
<!-- Node1&#45;&gt;Node22 -->
<g id="edge24" class="edge"><title>Node1&#45;&gt;Node22</title>
<path fill="none" stroke="midnightblue" d="M312.968,-290.992C312.968,-282.726 312.968,-272.373 312.968,-263.489"/>
<polygon fill="midnightblue" stroke="midnightblue" points="316.468,-263.29 312.968,-253.29 309.468,-263.29 316.468,-263.29"/>
</g>
<!-- Node7 -->
<g id="node7" class="node"><title>Node7</title>
<polygon fill="white" stroke="#bfbfbf" points="293.352,-59 293.352,-79 336.584,-79 336.584,-59 293.352,-59"/>
<text text-anchor="middle" x="314.968" y="-65" font-family="Helvetica,sans-Serif" font-size="10.00">vector</text>
</g>
<!-- Node1&#45;&gt;Node7 -->
<g id="edge32" class="edge"><title>Node1&#45;&gt;Node7</title>
<path fill="none" stroke="midnightblue" d="M260.172,-294.835C155.607,-270.447 -61.2389,-207.206 16.9681,-116 25.6156,-105.915 207.959,-82.8963 283.068,-73.7998"/>
<polygon fill="midnightblue" stroke="midnightblue" points="283.828,-77.2335 293.338,-72.5619 282.991,-70.2838 283.828,-77.2335"/>
</g>
<!-- Node3 -->
<g id="node3" class="node"><title>Node3</title>
<g id="a_node3"><a xlink:href="audio_2_buffer_8h.html" target="_top" xlink:title="cinder/audio/Buffer.h">
<polygon fill="white" stroke="black" points="371.189,-175 371.189,-195 478.747,-195 478.747,-175 371.189,-175"/>
<text text-anchor="middle" x="424.968" y="-181" font-family="Helvetica,sans-Serif" font-size="10.00">cinder/audio/Buffer.h</text>
</a>
</g>
</g>
<!-- Node2&#45;&gt;Node3 -->
<g id="edge2" class="edge"><title>Node2&#45;&gt;Node3</title>
<path fill="none" stroke="midnightblue" d="M553.046,-232.878C527.519,-223.535 487.652,-208.943 459.18,-198.522"/>
<polygon fill="midnightblue" stroke="midnightblue" points="460.22,-195.176 449.627,-195.025 457.814,-201.749 460.22,-195.176"/>
</g>
<!-- Node11 -->
<g id="node11" class="node"><title>Node11</title>
<g id="a_node11"><a xlink:href="audio_2_exception_8h.html" target="_top" xlink:title="cinder/audio/Exception.h">
<polygon fill="white" stroke="black" points="561.21,-175 561.21,-195 686.726,-195 686.726,-175 561.21,-175"/>
<text text-anchor="middle" x="623.968" y="-181" font-family="Helvetica,sans-Serif" font-size="10.00">cinder/audio/Exception.h</text>
</a>
</g>
</g>
<!-- Node2&#45;&gt;Node11 -->
<g id="edge10" class="edge"><title>Node2&#45;&gt;Node11</title>
<path fill="none" stroke="midnightblue" d="M585.564,-232.753C592.196,-224.68 601.989,-212.757 610.026,-202.973"/>
<polygon fill="midnightblue" stroke="midnightblue" points="612.871,-205.024 616.514,-195.075 607.462,-200.581 612.871,-205.024"/>
</g>
<!-- Node18 -->
<g id="node18" class="node"><title>Node18</title>
<polygon fill="white" stroke="#bfbfbf" points="704.259,-175 704.259,-195 823.677,-195 823.677,-175 704.259,-175"/>
<text text-anchor="middle" x="763.968" y="-181" font-family="Helvetica,sans-Serif" font-size="10.00">boost/noncopyable.hpp</text>
</g>
<!-- Node2&#45;&gt;Node18 -->
<g id="edge19" class="edge"><title>Node2&#45;&gt;Node18</title>
<path fill="none" stroke="midnightblue" d="M608.266,-232.878C639.84,-223.372 689.463,-208.432 724.178,-197.98"/>
<polygon fill="midnightblue" stroke="midnightblue" points="725.425,-201.26 733.991,-195.025 723.407,-194.557 725.425,-201.26"/>
</g>
<!-- Node19 -->
<g id="node19" class="node"><title>Node19</title>
<polygon fill="white" stroke="#bfbfbf" points="841.326,-175 841.326,-195 954.611,-195 954.611,-175 841.326,-175"/>
<text text-anchor="middle" x="897.968" y="-181" font-family="Helvetica,sans-Serif" font-size="10.00">boost/logic/tribool.hpp</text>
</g>
<!-- Node2&#45;&gt;Node19 -->
<g id="edge20" class="edge"><title>Node2&#45;&gt;Node19</title>
<path fill="none" stroke="midnightblue" d="M629.737,-232.94C686.172,-223.064 776.426,-207.27 836.439,-196.768"/>
<polygon fill="midnightblue" stroke="midnightblue" points="837.291,-200.172 846.538,-195 836.085,-193.276 837.291,-200.172"/>
</g>
<!-- Node8 -->
<g id="node8" class="node"><title>Node8</title>
<polygon fill="white" stroke="#bfbfbf" points="533.911,-117 533.911,-137 586.025,-137 586.025,-117 533.911,-117"/>
<text text-anchor="middle" x="559.968" y="-123" font-family="Helvetica,sans-Serif" font-size="10.00">memory</text>
</g>
<!-- Node2&#45;&gt;Node8 -->
<g id="edge21" class="edge"><title>Node2&#45;&gt;Node8</title>
<path fill="none" stroke="midnightblue" d="M570.832,-232.762C564.467,-223.894 555.609,-209.84 551.968,-196 547.721,-179.854 550.542,-160.956 553.954,-147.186"/>
<polygon fill="midnightblue" stroke="midnightblue" points="557.37,-147.966 556.694,-137.392 550.629,-146.08 557.37,-147.966"/>
</g>
<!-- Node20 -->
<g id="node20" class="node"><title>Node20</title>
<polygon fill="white" stroke="#bfbfbf" points="294.242,-117 294.242,-137 339.695,-137 339.695,-117 294.242,-117"/>
<text text-anchor="middle" x="316.968" y="-123" font-family="Helvetica,sans-Serif" font-size="10.00">atomic</text>
</g>
<!-- Node2&#45;&gt;Node20 -->
<g id="edge22" class="edge"><title>Node2&#45;&gt;Node20</title>
<path fill="none" stroke="midnightblue" d="M525.207,-241.718C478.577,-239.072 410.608,-229.134 361.968,-196 344.117,-183.839 331.559,-162.019 324.327,-146.373"/>
<polygon fill="midnightblue" stroke="midnightblue" points="327.52,-144.939 320.341,-137.147 321.094,-147.715 327.52,-144.939"/>
</g>
<!-- Node21 -->
<g id="node21" class="node"><title>Node21</title>
<polygon fill="white" stroke="#bfbfbf" points="972.298,-175 972.298,-195 1001.64,-195 1001.64,-175 972.298,-175"/>
<text text-anchor="middle" x="986.968" y="-181" font-family="Helvetica,sans-Serif" font-size="10.00">set</text>
</g>
<!-- Node2&#45;&gt;Node21 -->
<g id="edge23" class="edge"><title>Node2&#45;&gt;Node21</title>
<path fill="none" stroke="midnightblue" d="M630.82,-240.283C703.842,-236.909 839.52,-227.022 962.267,-195.503"/>
<polygon fill="midnightblue" stroke="midnightblue" points="963.426,-198.818 972.21,-192.895 961.649,-192.047 963.426,-198.818"/>
</g>
<!-- Node4 -->
<g id="node4" class="node"><title>Node4</title>
<g id="a_node4"><a xlink:href="_cinder_assert_8h.html" target="_top" xlink:title="cinder/CinderAssert.h">
<polygon fill="white" stroke="black" points="87.892,-117 87.892,-137 200.044,-137 200.044,-117 87.892,-117"/>
<text text-anchor="middle" x="143.968" y="-123" font-family="Helvetica,sans-Serif" font-size="10.00">cinder/CinderAssert.h</text>
</a>
</g>
</g>
<!-- Node3&#45;&gt;Node4 -->
<g id="edge3" class="edge"><title>Node3&#45;&gt;Node4</title>
<path fill="none" stroke="midnightblue" d="M379.508,-174.94C330.331,-165.14 251.911,-149.512 199.216,-139.01"/>
<polygon fill="midnightblue" stroke="midnightblue" points="199.854,-135.569 189.363,-137.047 198.486,-142.434 199.854,-135.569"/>
</g>
<!-- Node3&#45;&gt;Node7 -->
<g id="edge6" class="edge"><title>Node3&#45;&gt;Node7</title>
<path fill="none" stroke="midnightblue" d="M415.966,-174.671C397.342,-155.369 354.365,-110.83 330.924,-86.5362"/>
<polygon fill="midnightblue" stroke="midnightblue" points="333.249,-83.9053 323.787,-79.1394 328.212,-88.7659 333.249,-83.9053"/>
</g>
<!-- Node3&#45;&gt;Node8 -->
<g id="edge7" class="edge"><title>Node3&#45;&gt;Node8</title>
<path fill="none" stroke="midnightblue" d="M446.959,-174.878C469.121,-165.685 503.535,-151.409 528.566,-141.026"/>
<polygon fill="midnightblue" stroke="midnightblue" points="530.091,-144.183 537.987,-137.118 527.409,-137.717 530.091,-144.183"/>
</g>
<!-- Node9 -->
<g id="node9" class="node"><title>Node9</title>
<polygon fill="white" stroke="#bfbfbf" points="471.796,-117 471.796,-137 516.14,-137 516.14,-117 471.796,-117"/>
<text text-anchor="middle" x="493.968" y="-123" font-family="Helvetica,sans-Serif" font-size="10.00">cstdlib</text>
</g>
<!-- Node3&#45;&gt;Node9 -->
<g id="edge8" class="edge"><title>Node3&#45;&gt;Node9</title>
<path fill="none" stroke="midnightblue" d="M436.362,-174.753C446.812,-166.272 462.496,-153.543 474.861,-143.507"/>
<polygon fill="midnightblue" stroke="midnightblue" points="477.227,-146.095 482.786,-137.075 472.816,-140.659 477.227,-146.095"/>
</g>
<!-- Node10 -->
<g id="node10" class="node"><title>Node10</title>
<polygon fill="white" stroke="#bfbfbf" points="396.404,-117 396.404,-137 453.532,-137 453.532,-117 396.404,-117"/>
<text text-anchor="middle" x="424.968" y="-123" font-family="Helvetica,sans-Serif" font-size="10.00">algorithm</text>
</g>
<!-- Node3&#45;&gt;Node10 -->
<g id="edge9" class="edge"><title>Node3&#45;&gt;Node10</title>
<path fill="none" stroke="midnightblue" d="M424.968,-174.753C424.968,-167.25 424.968,-156.424 424.968,-147.078"/>
<polygon fill="midnightblue" stroke="midnightblue" points="428.468,-147.075 424.968,-137.075 421.468,-147.075 428.468,-147.075"/>
</g>
<!-- Node5 -->
<g id="node5" class="node"><title>Node5</title>
<g id="a_node5"><a xlink:href="_current_function_8h.html" target="_top" xlink:title="cinder/CurrentFunction.h">
<polygon fill="white" stroke="black" points="28.9413,-59 28.9413,-79 154.995,-79 154.995,-59 28.9413,-59"/>
<text text-anchor="middle" x="91.9681" y="-65" font-family="Helvetica,sans-Serif" font-size="10.00">cinder/CurrentFunction.h</text>
</a>
</g>
</g>
<!-- Node4&#45;&gt;Node5 -->
<g id="edge4" class="edge"><title>Node4&#45;&gt;Node5</title>
<path fill="none" stroke="midnightblue" d="M135.381,-116.753C127.809,-108.598 116.59,-96.5158 107.454,-86.6769"/>
<polygon fill="midnightblue" stroke="midnightblue" points="109.764,-84.0216 100.395,-79.0752 104.635,-88.7847 109.764,-84.0216"/>
</g>
<!-- Node6 -->
<g id="node6" class="node"><title>Node6</title>
<polygon fill="white" stroke="#bfbfbf" points="172.852,-59 172.852,-79 221.084,-79 221.084,-59 172.852,-59"/>
<text text-anchor="middle" x="196.968" y="-65" font-family="Helvetica,sans-Serif" font-size="10.00">cassert</text>
</g>
<!-- Node4&#45;&gt;Node6 -->
<g id="edge5" class="edge"><title>Node4&#45;&gt;Node6</title>
<path fill="none" stroke="midnightblue" d="M152.72,-116.753C160.515,-108.516 172.102,-96.2738 181.463,-86.3824"/>
<polygon fill="midnightblue" stroke="midnightblue" points="184.047,-88.744 188.379,-79.0752 178.963,-83.9323 184.047,-88.744"/>
</g>
<!-- Node12 -->
<g id="node12" class="node"><title>Node12</title>
<g id="a_node12"><a xlink:href="_exception_8h.html" target="_top" xlink:title="cinder/Exception.h">
<polygon fill="white" stroke="black" points="603.833,-117 603.833,-137 702.103,-137 702.103,-117 603.833,-117"/>
<text text-anchor="middle" x="652.968" y="-123" font-family="Helvetica,sans-Serif" font-size="10.00">cinder/Exception.h</text>
</a>
</g>
</g>
<!-- Node11&#45;&gt;Node12 -->
<g id="edge11" class="edge"><title>Node11&#45;&gt;Node12</title>
<path fill="none" stroke="midnightblue" d="M628.757,-174.753C632.769,-167.006 638.616,-155.714 643.559,-146.169"/>
<polygon fill="midnightblue" stroke="midnightblue" points="646.778,-147.565 648.268,-137.075 640.562,-144.346 646.778,-147.565"/>
</g>
<!-- Node17 -->
<g id="node17" class="node"><title>Node17</title>
<polygon fill="white" stroke="#bfbfbf" points="670.742,-59 670.742,-79 711.195,-79 711.195,-59 670.742,-59"/>
<text text-anchor="middle" x="690.968" y="-65" font-family="Helvetica,sans-Serif" font-size="10.00">string</text>
</g>
<!-- Node11&#45;&gt;Node17 -->
<g id="edge18" class="edge"><title>Node11&#45;&gt;Node17</title>
<path fill="none" stroke="midnightblue" d="M659.448,-174.889C678.272,-168.053 699.771,-156.586 710.968,-138 720.344,-122.436 712.251,-102.204 703.721,-87.8667"/>
<polygon fill="midnightblue" stroke="midnightblue" points="706.61,-85.8893 698.232,-79.4045 700.738,-89.6988 706.61,-85.8893"/>
</g>
<!-- Node13 -->
<g id="node13" class="node"><title>Node13</title>
<g id="a_node13"><a xlink:href="_cinder_8h.html" target="_top" xlink:title="cinder/Cinder.h">
<polygon fill="white" stroke="black" points="481.335,-59 481.335,-79 564.601,-79 564.601,-59 481.335,-59"/>
<text text-anchor="middle" x="522.968" y="-65" font-family="Helvetica,sans-Serif" font-size="10.00">cinder/Cinder.h</text>
</a>
</g>
</g>
<!-- Node12&#45;&gt;Node13 -->
<g id="edge12" class="edge"><title>Node12&#45;&gt;Node13</title>
<path fill="none" stroke="midnightblue" d="M631.792,-116.878C610.545,-107.725 577.605,-93.5357 553.528,-83.1643"/>
<polygon fill="midnightblue" stroke="midnightblue" points="554.704,-79.8599 544.135,-79.1181 551.935,-86.2888 554.704,-79.8599"/>
</g>
<!-- Node12&#45;&gt;Node7 -->
<g id="edge16" class="edge"><title>Node12&#45;&gt;Node7</title>
<path fill="none" stroke="midnightblue" d="M603.612,-117.463C600.687,-116.966 597.789,-116.475 594.968,-116 504.981,-100.851 398.619,-83.5406 346.695,-75.1285"/>
<polygon fill="midnightblue" stroke="midnightblue" points="347.192,-71.6635 336.761,-73.5201 346.073,-78.5735 347.192,-71.6635"/>
</g>
<!-- Node12&#45;&gt;Node17 -->
<g id="edge17" class="edge"><title>Node12&#45;&gt;Node17</title>
<path fill="none" stroke="midnightblue" d="M659.243,-116.753C664.611,-108.843 672.486,-97.2372 679.047,-87.5683"/>
<polygon fill="midnightblue" stroke="midnightblue" points="682.091,-89.3152 684.81,-79.0752 676.299,-85.3847 682.091,-89.3152"/>
</g>
<!-- Node14 -->
<g id="node14" class="node"><title>Node14</title>
<polygon fill="white" stroke="#bfbfbf" points="412.517,-1 412.517,-21 457.419,-21 457.419,-1 412.517,-1"/>
<text text-anchor="middle" x="434.968" y="-7" font-family="Helvetica,sans-Serif" font-size="10.00">cstdint</text>
</g>
<!-- Node13&#45;&gt;Node14 -->
<g id="edge13" class="edge"><title>Node13&#45;&gt;Node14</title>
<path fill="none" stroke="midnightblue" d="M508.437,-58.7527C494.725,-50.0272 473.948,-36.8051 457.983,-26.6458"/>
<polygon fill="midnightblue" stroke="midnightblue" points="459.545,-23.4912 449.229,-21.0752 455.787,-29.3968 459.545,-23.4912"/>
</g>
<!-- Node15 -->
<g id="node15" class="node"><title>Node15</title>
<polygon fill="white" stroke="#bfbfbf" points="475.498,-1 475.498,-21 570.438,-21 570.438,-1 475.498,-1"/>
<text text-anchor="middle" x="522.968" y="-7" font-family="Helvetica,sans-Serif" font-size="10.00">boost/version.hpp</text>
</g>
<!-- Node13&#45;&gt;Node15 -->
<g id="edge14" class="edge"><title>Node13&#45;&gt;Node15</title>
<path fill="none" stroke="midnightblue" d="M522.968,-58.7527C522.968,-51.2504 522.968,-40.4238 522.968,-31.0781"/>
<polygon fill="midnightblue" stroke="midnightblue" points="526.468,-31.0752 522.968,-21.0752 519.468,-31.0752 526.468,-31.0752"/>
</g>
<!-- Node16 -->
<g id="node16" class="node"><title>Node16</title>
<polygon fill="white" stroke="#bfbfbf" points="588.589,-1 588.589,-21 721.347,-21 721.347,-1 588.589,-1"/>
<text text-anchor="middle" x="654.968" y="-7" font-family="Helvetica,sans-Serif" font-size="10.00">boost/checked_delete.hpp</text>
</g>
<!-- Node13&#45;&gt;Node16 -->
<g id="edge15" class="edge"><title>Node13&#45;&gt;Node16</title>
<path fill="none" stroke="midnightblue" d="M544.47,-58.878C566.14,-49.6848 599.789,-35.4095 624.263,-25.0263"/>
<polygon fill="midnightblue" stroke="midnightblue" points="625.637,-28.2457 633.475,-21.1181 622.903,-21.8016 625.637,-28.2457"/>
</g>
<!-- Node23 -->
<g id="node23" class="node"><title>Node23</title>
<g id="a_node23"><a xlink:href="_dsp_8h.html" target="_top" xlink:title="cinder/audio/dsp/Dsp.h">
<polygon fill="white" stroke="black" points="169.826,-175 169.826,-195 288.111,-195 288.111,-175 169.826,-175"/>
<text text-anchor="middle" x="228.968" y="-181" font-family="Helvetica,sans-Serif" font-size="10.00">cinder/audio/dsp/Dsp.h</text>
</a>
</g>
</g>
<!-- Node22&#45;&gt;Node23 -->
<g id="edge25" class="edge"><title>Node22&#45;&gt;Node23</title>
<path fill="none" stroke="midnightblue" d="M299.097,-232.753C286.009,-224.027 266.176,-210.805 250.937,-200.646"/>
<polygon fill="midnightblue" stroke="midnightblue" points="252.843,-197.71 242.581,-195.075 248.96,-203.534 252.843,-197.71"/>
</g>
<!-- Node22&#45;&gt;Node3 -->
<g id="edge31" class="edge"><title>Node22&#45;&gt;Node3</title>
<path fill="none" stroke="midnightblue" d="M331.463,-232.753C349.485,-223.742 377.098,-209.935 397.65,-199.659"/>
<polygon fill="midnightblue" stroke="midnightblue" points="399.439,-202.678 406.818,-195.075 396.308,-196.417 399.439,-202.678"/>
</g>
<!-- Node23&#45;&gt;Node4 -->
<g id="edge26" class="edge"><title>Node23&#45;&gt;Node4</title>
<path fill="none" stroke="midnightblue" d="M214.932,-174.753C201.688,-166.027 181.619,-152.805 166.198,-142.646"/>
<polygon fill="midnightblue" stroke="midnightblue" points="168.019,-139.654 157.743,-137.075 164.168,-145.5 168.019,-139.654"/>
</g>
<!-- Node23&#45;&gt;Node13 -->
<g id="edge27" class="edge"><title>Node23&#45;&gt;Node13</title>
<path fill="none" stroke="midnightblue" d="M233.755,-174.788C242.035,-159.847 260.517,-130.537 284.968,-116 342.5,-81.795 420.407,-72.336 471.167,-70.0776"/>
<polygon fill="midnightblue" stroke="midnightblue" points="471.391,-73.5718 481.256,-69.7076 471.135,-66.5765 471.391,-73.5718"/>
</g>
<!-- Node23&#45;&gt;Node20 -->
<g id="edge28" class="edge"><title>Node23&#45;&gt;Node20</title>
<path fill="none" stroke="midnightblue" d="M243.5,-174.753C257.211,-166.027 277.989,-152.805 293.953,-142.646"/>
<polygon fill="midnightblue" stroke="midnightblue" points="296.15,-145.397 302.707,-137.075 292.391,-139.491 296.15,-145.397"/>
</g>
<!-- Node23&#45;&gt;Node7 -->
<g id="edge29" class="edge"><title>Node23&#45;&gt;Node7</title>
<path fill="none" stroke="midnightblue" d="M230.258,-174.823C232.585,-160.941 238.548,-134.286 251.968,-116 261.511,-102.998 275.809,-92.1375 288.374,-84.2405"/>
<polygon fill="midnightblue" stroke="midnightblue" points="290.325,-87.1521 297.123,-79.0257 286.741,-81.1391 290.325,-87.1521"/>
</g>
<!-- Node24 -->
<g id="node24" class="node"><title>Node24</title>
<polygon fill="white" stroke="#bfbfbf" points="26.3524,-117 26.3524,-137 69.5839,-137 69.5839,-117 26.3524,-117"/>
<text text-anchor="middle" x="47.9681" y="-123" font-family="Helvetica,sans-Serif" font-size="10.00">cmath</text>
</g>
<!-- Node23&#45;&gt;Node24 -->
<g id="edge30" class="edge"><title>Node23&#45;&gt;Node24</title>
<path fill="none" stroke="midnightblue" d="M199.046,-174.963C170.695,-166.37 126.68,-152.951 79.4409,-138.118"/>
<polygon fill="midnightblue" stroke="midnightblue" points="80.225,-134.696 69.6356,-135.034 78.1243,-141.373 80.225,-134.696"/>
</g>
</g>
</svg>
