<?xml version="1.0" encoding="UTF-8" standalone="no"?>
<!DOCTYPE svg PUBLIC "-//W3C//DTD SVG 1.1//EN"
 "http://www.w3.org/Graphics/SVG/1.1/DTD/svg11.dtd">
<!-- Generated by graphviz version 2.30.1 (20140712.1814)
 -->
<!-- Title: include/cinder/audio/cocoa/FileCoreAudio.h Pages: 1 -->
<svg width="126pt" height="112pt"
 viewBox="0.00 0.00 126.00 112.00" xmlns="http://www.w3.org/2000/svg" xmlns:xlink="http://www.w3.org/1999/xlink">
<g id="graph0" class="graph" transform="scale(1 1) rotate(0) translate(4 108)">
<title>include/cinder/audio/cocoa/FileCoreAudio.h</title>
<polygon fill="white" stroke="white" points="-4,5 -4,-108 123,-108 123,5 -4,5"/>
<!-- Node1 -->
<g id="node1" class="node"><title>Node1</title>
<polygon fill="#bfbfbf" stroke="black" points="-0.972656,-71 -0.972656,-103 118.973,-103 118.973,-71 -0.972656,-71"/>
<text text-anchor="start" x="7.02734" y="-89" font-family="Helvetica,sans-Serif" font-size="10.00">include/cinder/audio</text>
<text text-anchor="middle" x="59" y="-77" font-family="Helvetica,sans-Serif" font-size="10.00">/cocoa/FileCoreAudio.h</text>
</g>
<!-- Node2 -->
<g id="node2" class="node"><title>Node2</title>
<g id="a_node2"><a xlink:href="_file_core_audio_8cpp.html" target="_top" xlink:title="src/cinder/audio/cocoa\l/FileCoreAudio.cpp">
<polygon fill="white" stroke="black" points="0.973145,-1 0.973145,-33 117.027,-33 117.027,-1 0.973145,-1"/>
<text text-anchor="start" x="8.97314" y="-19" font-family="Helvetica,sans-Serif" font-size="10.00">src/cinder/audio/cocoa</text>
<text text-anchor="middle" x="59" y="-7" font-family="Helvetica,sans-Serif" font-size="10.00">/FileCoreAudio.cpp</text>
</a>
</g>
</g>
<!-- Node1&#45;&gt;Node2 -->
<g id="edge1" class="edge"><title>Node1&#45;&gt;Node2</title>
<path fill="none" stroke="midnightblue" d="M59,-60.6174C59,-51.3378 59,-41.1413 59,-33.0492"/>
<polygon fill="midnightblue" stroke="midnightblue" points="55.5001,-60.9086 59,-70.9086 62.5001,-60.9086 55.5001,-60.9086"/>
</g>
</g>
</svg>
