<?xml version="1.0" encoding="UTF-8" standalone="no"?>
<!DOCTYPE svg PUBLIC "-//W3C//DTD SVG 1.1//EN"
 "http://www.w3.org/Graphics/SVG/1.1/DTD/svg11.dtd">
<!-- Generated by graphviz version 2.30.1 (20140712.1814)
 -->
<!-- Title: include/cinder/app/FileDropEvent.h Pages: 1 -->
<svg width="546pt" height="274pt"
 viewBox="0.00 0.00 546.00 274.00" xmlns="http://www.w3.org/2000/svg" xmlns:xlink="http://www.w3.org/1999/xlink">
<g id="graph0" class="graph" transform="scale(1 1) rotate(0) translate(4 270)">
<title>include/cinder/app/FileDropEvent.h</title>
<polygon fill="white" stroke="white" points="-4,5 -4,-270 543,-270 543,5 -4,5"/>
<!-- Node1 -->
<g id="node1" class="node"><title>Node1</title>
<polygon fill="#bfbfbf" stroke="black" points="332.417,-233 332.417,-265 429.583,-265 429.583,-233 332.417,-233"/>
<text text-anchor="start" x="340.417" y="-251" font-family="Helvetica,sans-Serif" font-size="10.00">include/cinder/app</text>
<text text-anchor="middle" x="381" y="-239" font-family="Helvetica,sans-Serif" font-size="10.00">/FileDropEvent.h</text>
</g>
<!-- Node2 -->
<g id="node2" class="node"><title>Node2</title>
<g id="a_node2"><a xlink:href="_cinder_8h.html" target="_top" xlink:title="cinder/Cinder.h">
<polygon fill="white" stroke="black" points="68.3672,-59 68.3672,-79 151.633,-79 151.633,-59 68.3672,-59"/>
<text text-anchor="middle" x="110" y="-65" font-family="Helvetica,sans-Serif" font-size="10.00">cinder/Cinder.h</text>
</a>
</g>
</g>
<!-- Node1&#45;&gt;Node2 -->
<g id="edge1" class="edge"><title>Node1&#45;&gt;Node2</title>
<path fill="none" stroke="midnightblue" d="M332.099,-240.868C294.658,-233.776 242.844,-220.324 203,-196 160.424,-170.009 131.108,-116.556 117.913,-88.3527"/>
<polygon fill="midnightblue" stroke="midnightblue" points="121.088,-86.8794 113.786,-79.2023 114.707,-89.7571 121.088,-86.8794"/>
</g>
<!-- Node6 -->
<g id="node6" class="node"><title>Node6</title>
<g id="a_node6"><a xlink:href="_event_8h.html" target="_top" xlink:title="cinder/app/Event.h">
<polygon fill="white" stroke="black" points="212.306,-175 212.306,-195 311.694,-195 311.694,-175 212.306,-175"/>
<text text-anchor="middle" x="262" y="-181" font-family="Helvetica,sans-Serif" font-size="10.00">cinder/app/Event.h</text>
</a>
</g>
</g>
<!-- Node1&#45;&gt;Node6 -->
<g id="edge5" class="edge"><title>Node1&#45;&gt;Node6</title>
<path fill="none" stroke="midnightblue" d="M352.193,-232.992C332.775,-222.874 307.35,-209.628 288.446,-199.778"/>
<polygon fill="midnightblue" stroke="midnightblue" points="289.969,-196.625 279.483,-195.109 286.734,-202.833 289.969,-196.625"/>
</g>
<!-- Node13 -->
<g id="node13" class="node"><title>Node13</title>
<g id="a_node13"><a xlink:href="_filesystem_8h.html" target="_top" xlink:title="cinder/Filesystem.h">
<polygon fill="white" stroke="black" points="329.931,-175 329.931,-195 432.069,-195 432.069,-175 329.931,-175"/>
<text text-anchor="middle" x="381" y="-181" font-family="Helvetica,sans-Serif" font-size="10.00">cinder/Filesystem.h</text>
</a>
</g>
</g>
<!-- Node1&#45;&gt;Node13 -->
<g id="edge14" class="edge"><title>Node1&#45;&gt;Node13</title>
<path fill="none" stroke="midnightblue" d="M381,-232.992C381,-224.726 381,-214.373 381,-205.489"/>
<polygon fill="midnightblue" stroke="midnightblue" points="384.5,-205.29 381,-195.29 377.5,-205.29 384.5,-205.29"/>
</g>
<!-- Node9 -->
<g id="node9" class="node"><title>Node9</title>
<polygon fill="white" stroke="#bfbfbf" points="495.384,-59 495.384,-79 538.616,-79 538.616,-59 495.384,-59"/>
<text text-anchor="middle" x="517" y="-65" font-family="Helvetica,sans-Serif" font-size="10.00">vector</text>
</g>
<!-- Node1&#45;&gt;Node9 -->
<g id="edge17" class="edge"><title>Node1&#45;&gt;Node9</title>
<path fill="none" stroke="midnightblue" d="M401.628,-232.795C413.932,-223.107 429.371,-209.814 441,-196 470.209,-161.303 495.457,-114.131 508.19,-88.4746"/>
<polygon fill="midnightblue" stroke="midnightblue" points="511.483,-89.7068 512.718,-79.1842 505.191,-86.64 511.483,-89.7068"/>
</g>
<!-- Node15 -->
<g id="node15" class="node"><title>Node15</title>
<polygon fill="white" stroke="#bfbfbf" points="490.773,-175 490.773,-195 531.227,-195 531.227,-175 490.773,-175"/>
<text text-anchor="middle" x="511" y="-181" font-family="Helvetica,sans-Serif" font-size="10.00">string</text>
</g>
<!-- Node1&#45;&gt;Node15 -->
<g id="edge18" class="edge"><title>Node1&#45;&gt;Node15</title>
<path fill="none" stroke="midnightblue" d="M412.469,-232.992C433.877,-222.782 461.966,-209.385 482.674,-199.509"/>
<polygon fill="midnightblue" stroke="midnightblue" points="484.382,-202.573 491.901,-195.109 481.368,-196.254 484.382,-202.573"/>
</g>
<!-- Node3 -->
<g id="node3" class="node"><title>Node3</title>
<polygon fill="white" stroke="#bfbfbf" points="-0.450684,-1 -0.450684,-21 44.4507,-21 44.4507,-1 -0.450684,-1"/>
<text text-anchor="middle" x="22" y="-7" font-family="Helvetica,sans-Serif" font-size="10.00">cstdint</text>
</g>
<!-- Node2&#45;&gt;Node3 -->
<g id="edge2" class="edge"><title>Node2&#45;&gt;Node3</title>
<path fill="none" stroke="midnightblue" d="M95.4686,-58.7527C81.757,-50.0272 60.9794,-36.8051 45.0148,-26.6458"/>
<polygon fill="midnightblue" stroke="midnightblue" points="46.5767,-23.4912 36.261,-21.0752 42.8186,-29.3968 46.5767,-23.4912"/>
</g>
<!-- Node4 -->
<g id="node4" class="node"><title>Node4</title>
<polygon fill="white" stroke="#bfbfbf" points="62.5298,-1 62.5298,-21 157.47,-21 157.47,-1 62.5298,-1"/>
<text text-anchor="middle" x="110" y="-7" font-family="Helvetica,sans-Serif" font-size="10.00">boost/version.hpp</text>
</g>
<!-- Node2&#45;&gt;Node4 -->
<g id="edge3" class="edge"><title>Node2&#45;&gt;Node4</title>
<path fill="none" stroke="midnightblue" d="M110,-58.7527C110,-51.2504 110,-40.4238 110,-31.0781"/>
<polygon fill="midnightblue" stroke="midnightblue" points="113.5,-31.0752 110,-21.0752 106.5,-31.0752 113.5,-31.0752"/>
</g>
<!-- Node5 -->
<g id="node5" class="node"><title>Node5</title>
<polygon fill="white" stroke="#bfbfbf" points="175.621,-1 175.621,-21 308.379,-21 308.379,-1 175.621,-1"/>
<text text-anchor="middle" x="242" y="-7" font-family="Helvetica,sans-Serif" font-size="10.00">boost/checked_delete.hpp</text>
</g>
<!-- Node2&#45;&gt;Node5 -->
<g id="edge4" class="edge"><title>Node2&#45;&gt;Node5</title>
<path fill="none" stroke="midnightblue" d="M131.502,-58.878C153.172,-49.6848 186.821,-35.4095 211.295,-25.0263"/>
<polygon fill="midnightblue" stroke="midnightblue" points="212.668,-28.2457 220.507,-21.1181 209.935,-21.8016 212.668,-28.2457"/>
</g>
<!-- Node6&#45;&gt;Node2 -->
<g id="edge6" class="edge"><title>Node6&#45;&gt;Node2</title>
<path fill="none" stroke="midnightblue" d="M240.486,-174.983C222.153,-166.764 195.582,-153.555 175,-138 155.177,-123.019 135.958,-101.828 123.627,-87.0984"/>
<polygon fill="midnightblue" stroke="midnightblue" points="126.255,-84.7842 117.21,-79.2686 120.842,-89.2214 126.255,-84.7842"/>
</g>
<!-- Node7 -->
<g id="node7" class="node"><title>Node7</title>
<g id="a_node7"><a xlink:href="_function_8h.html" target="_top" xlink:title="cinder/Function.h">
<polygon fill="white" stroke="black" points="216.646,-117 216.646,-137 309.354,-137 309.354,-117 216.646,-117"/>
<text text-anchor="middle" x="263" y="-123" font-family="Helvetica,sans-Serif" font-size="10.00">cinder/Function.h</text>
</a>
</g>
</g>
<!-- Node6&#45;&gt;Node7 -->
<g id="edge7" class="edge"><title>Node6&#45;&gt;Node7</title>
<path fill="none" stroke="midnightblue" d="M262.165,-174.753C262.299,-167.25 262.492,-156.424 262.659,-147.078"/>
<polygon fill="midnightblue" stroke="midnightblue" points="266.159,-147.136 262.838,-137.075 259.16,-147.011 266.159,-147.136"/>
</g>
<!-- Node7&#45;&gt;Node2 -->
<g id="edge8" class="edge"><title>Node7&#45;&gt;Node2</title>
<path fill="none" stroke="midnightblue" d="M238.077,-116.878C212.551,-107.535 172.684,-92.943 144.212,-82.522"/>
<polygon fill="midnightblue" stroke="midnightblue" points="145.252,-79.1757 134.658,-79.0253 142.846,-85.7493 145.252,-79.1757"/>
</g>
<!-- Node8 -->
<g id="node8" class="node"><title>Node8</title>
<polygon fill="white" stroke="#bfbfbf" points="169.436,-59 169.436,-79 226.564,-79 226.564,-59 169.436,-59"/>
<text text-anchor="middle" x="198" y="-65" font-family="Helvetica,sans-Serif" font-size="10.00">algorithm</text>
</g>
<!-- Node7&#45;&gt;Node8 -->
<g id="edge9" class="edge"><title>Node7&#45;&gt;Node8</title>
<path fill="none" stroke="midnightblue" d="M252.267,-116.753C242.517,-108.353 227.932,-95.7874 216.336,-85.7976"/>
<polygon fill="midnightblue" stroke="midnightblue" points="218.394,-82.9507 208.534,-79.0752 213.825,-88.254 218.394,-82.9507"/>
</g>
<!-- Node7&#45;&gt;Node9 -->
<g id="edge10" class="edge"><title>Node7&#45;&gt;Node9</title>
<path fill="none" stroke="midnightblue" d="M309.619,-117.003C360.811,-107.023 440.698,-91.1271 485.317,-79.9261"/>
<polygon fill="midnightblue" stroke="midnightblue" points="486.269,-83.2951 495.072,-77.399 484.513,-76.5188 486.269,-83.2951"/>
</g>
<!-- Node10 -->
<g id="node10" class="node"><title>Node10</title>
<polygon fill="white" stroke="#bfbfbf" points="244.608,-59 244.608,-79 283.392,-79 283.392,-59 244.608,-59"/>
<text text-anchor="middle" x="264" y="-65" font-family="Helvetica,sans-Serif" font-size="10.00">utility</text>
</g>
<!-- Node7&#45;&gt;Node10 -->
<g id="edge11" class="edge"><title>Node7&#45;&gt;Node10</title>
<path fill="none" stroke="midnightblue" d="M263.165,-116.753C263.299,-109.25 263.492,-98.4238 263.659,-89.0781"/>
<polygon fill="midnightblue" stroke="midnightblue" points="267.159,-89.1361 263.838,-79.0752 260.16,-89.0111 267.159,-89.1361"/>
</g>
<!-- Node11 -->
<g id="node11" class="node"><title>Node11</title>
<polygon fill="white" stroke="#bfbfbf" points="301.303,-59 301.303,-79 400.697,-79 400.697,-59 301.303,-59"/>
<text text-anchor="middle" x="351" y="-65" font-family="Helvetica,sans-Serif" font-size="10.00">boost/signals2.hpp</text>
</g>
<!-- Node7&#45;&gt;Node11 -->
<g id="edge12" class="edge"><title>Node7&#45;&gt;Node11</title>
<path fill="none" stroke="midnightblue" d="M277.531,-116.753C291.243,-108.027 312.021,-94.8051 327.985,-84.6458"/>
<polygon fill="midnightblue" stroke="midnightblue" points="330.181,-87.3968 336.739,-79.0752 326.423,-81.4912 330.181,-87.3968"/>
</g>
<!-- Node12 -->
<g id="node12" class="node"><title>Node12</title>
<polygon fill="white" stroke="#bfbfbf" points="418.596,-59 418.596,-79 477.404,-79 477.404,-59 418.596,-59"/>
<text text-anchor="middle" x="448" y="-65" font-family="Helvetica,sans-Serif" font-size="10.00">functional</text>
</g>
<!-- Node7&#45;&gt;Node12 -->
<g id="edge13" class="edge"><title>Node7&#45;&gt;Node12</title>
<path fill="none" stroke="midnightblue" d="M293.135,-116.878C324.633,-107.344 374.188,-92.343 408.731,-81.8868"/>
<polygon fill="midnightblue" stroke="midnightblue" points="409.933,-85.18 418.49,-78.9329 407.904,-78.4802 409.933,-85.18"/>
</g>
<!-- Node13&#45;&gt;Node2 -->
<g id="edge15" class="edge"><title>Node13&#45;&gt;Node2</title>
<path fill="none" stroke="midnightblue" d="M329.81,-175.244C294.499,-168.052 247.067,-156.07 208,-138 203.845,-136.078 158.657,-104.356 131.115,-84.927"/>
<polygon fill="midnightblue" stroke="midnightblue" points="133.055,-82.0124 122.868,-79.1041 129.018,-87.7309 133.055,-82.0124"/>
</g>
<!-- Node14 -->
<g id="node14" class="node"><title>Node14</title>
<polygon fill="white" stroke="#bfbfbf" points="327.421,-117 327.421,-137 434.579,-137 434.579,-117 327.421,-117"/>
<text text-anchor="middle" x="381" y="-123" font-family="Helvetica,sans-Serif" font-size="10.00">boost/filesystem.hpp</text>
</g>
<!-- Node13&#45;&gt;Node14 -->
<g id="edge16" class="edge"><title>Node13&#45;&gt;Node14</title>
<path fill="none" stroke="midnightblue" d="M381,-174.753C381,-167.25 381,-156.424 381,-147.078"/>
<polygon fill="midnightblue" stroke="midnightblue" points="384.5,-147.075 381,-137.075 377.5,-147.075 384.5,-147.075"/>
</g>
</g>
</svg>
