<?xml version="1.0" encoding="UTF-8" standalone="no"?>
<!DOCTYPE svg PUBLIC "-//W3C//DTD SVG 1.1//EN"
 "http://www.w3.org/Graphics/SVG/1.1/DTD/svg11.dtd">
<!-- Generated by graphviz version 2.30.1 (20140712.1814)
 -->
<!-- Title: src/cinder/Font.cpp Pages: 1 -->
<svg width="1950pt" height="552pt"
 viewBox="0.00 0.00 1950.00 552.00" xmlns="http://www.w3.org/2000/svg" xmlns:xlink="http://www.w3.org/1999/xlink">
<g id="graph0" class="graph" transform="scale(1 1) rotate(0) translate(4 548)">
<title>src/cinder/Font.cpp</title>
<polygon fill="white" stroke="white" points="-4,5 -4,-548 1947,-548 1947,5 -4,5"/>
<!-- Node1 -->
<g id="node1" class="node"><title>Node1</title>
<polygon fill="#bfbfbf" stroke="black" points="892.483,-523 892.483,-543 993.517,-543 993.517,-523 892.483,-523"/>
<text text-anchor="middle" x="943" y="-529" font-family="Helvetica,sans-Serif" font-size="10.00">src/cinder/Font.cpp</text>
</g>
<!-- Node2 -->
<g id="node2" class="node"><title>Node2</title>
<g id="a_node2"><a xlink:href="_font_8h.html" target="_top" xlink:title="cinder/Font.h">
<polygon fill="white" stroke="black" points="1093.82,-465 1093.82,-485 1168.18,-485 1168.18,-465 1093.82,-465"/>
<text text-anchor="middle" x="1131" y="-471" font-family="Helvetica,sans-Serif" font-size="10.00">cinder/Font.h</text>
</a>
</g>
</g>
<!-- Node1&#45;&gt;Node2 -->
<g id="edge1" class="edge"><title>Node1&#45;&gt;Node2</title>
<path fill="none" stroke="midnightblue" d="M973.624,-522.878C1005.54,-513.372 1055.69,-498.432 1090.78,-487.98"/>
<polygon fill="midnightblue" stroke="midnightblue" points="1092.12,-491.234 1100.7,-485.025 1090.12,-484.526 1092.12,-491.234"/>
</g>
<!-- Node37 -->
<g id="node37" class="node"><title>Node37</title>
<g id="a_node37"><a xlink:href="_utilities_8h.html" target="_top" xlink:title="cinder/Utilities.h">
<polygon fill="white" stroke="black" points="571.709,-465 571.709,-485 658.291,-485 658.291,-465 571.709,-465"/>
<text text-anchor="middle" x="615" y="-471" font-family="Helvetica,sans-Serif" font-size="10.00">cinder/Utilities.h</text>
</a>
</g>
</g>
<!-- Node1&#45;&gt;Node37 -->
<g id="edge69" class="edge"><title>Node1&#45;&gt;Node37</title>
<path fill="none" stroke="midnightblue" d="M892.469,-523.373C831.784,-513.012 730.443,-495.71 668.477,-485.13"/>
<polygon fill="midnightblue" stroke="midnightblue" points="668.954,-481.661 658.508,-483.428 667.776,-488.561 668.954,-481.661"/>
</g>
<!-- Node39 -->
<g id="node39" class="node"><title>Node39</title>
<g id="a_node39"><a xlink:href="_unicode_8h.html" target="_top" xlink:title="cinder/Unicode.h">
<polygon fill="white" stroke="black" points="897.478,-291 897.478,-311 988.522,-311 988.522,-291 897.478,-291"/>
<text text-anchor="middle" x="943" y="-297" font-family="Helvetica,sans-Serif" font-size="10.00">cinder/Unicode.h</text>
</a>
</g>
</g>
<!-- Node1&#45;&gt;Node39 -->
<g id="edge76" class="edge"><title>Node1&#45;&gt;Node39</title>
<path fill="none" stroke="midnightblue" d="M943,-522.984C943,-489.07 943,-368.695 943,-321.339"/>
<polygon fill="midnightblue" stroke="midnightblue" points="946.5,-321.204 943,-311.204 939.5,-321.204 946.5,-321.204"/>
</g>
<!-- Node3 -->
<g id="node3" class="node"><title>Node3</title>
<g id="a_node3"><a xlink:href="_cinder_8h.html" target="_top" xlink:title="cinder/Cinder.h">
<polygon fill="white" stroke="black" points="865.367,-59 865.367,-79 948.633,-79 948.633,-59 865.367,-59"/>
<text text-anchor="middle" x="907" y="-65" font-family="Helvetica,sans-Serif" font-size="10.00">cinder/Cinder.h</text>
</a>
</g>
</g>
<!-- Node2&#45;&gt;Node3 -->
<g id="edge2" class="edge"><title>Node2&#45;&gt;Node3</title>
<path fill="none" stroke="midnightblue" d="M1129,-464.988C1125.93,-451.765 1119.49,-426.458 1111,-406 1065.93,-297.432 1047.34,-273.023 984,-174 963.647,-142.183 936.818,-107.302 920.796,-87.1041"/>
<polygon fill="midnightblue" stroke="midnightblue" points="923.426,-84.7879 914.45,-79.1592 917.956,-89.1569 923.426,-84.7879"/>
</g>
<!-- Node7 -->
<g id="node7" class="node"><title>Node7</title>
<g id="a_node7"><a xlink:href="_shape2d_8h.html" target="_top" xlink:title="cinder/Shape2d.h">
<polygon fill="white" stroke="black" points="1559.8,-407 1559.8,-427 1654.2,-427 1654.2,-407 1559.8,-407"/>
<text text-anchor="middle" x="1607" y="-413" font-family="Helvetica,sans-Serif" font-size="10.00">cinder/Shape2d.h</text>
</a>
</g>
</g>
<!-- Node2&#45;&gt;Node7 -->
<g id="edge6" class="edge"><title>Node2&#45;&gt;Node7</title>
<path fill="none" stroke="midnightblue" d="M1168.35,-469.606C1251.12,-459.869 1450.42,-436.421 1549.33,-424.785"/>
<polygon fill="midnightblue" stroke="midnightblue" points="1549.92,-428.24 1559.44,-423.595 1549.1,-421.288 1549.92,-428.24"/>
</g>
<!-- Node24 -->
<g id="node24" class="node"><title>Node24</title>
<g id="a_node24"><a xlink:href="_exception_8h.html" target="_top" xlink:title="cinder/Exception.h">
<polygon fill="white" stroke="black" points="1048.86,-233 1048.86,-253 1147.14,-253 1147.14,-233 1048.86,-233"/>
<text text-anchor="middle" x="1098" y="-239" font-family="Helvetica,sans-Serif" font-size="10.00">cinder/Exception.h</text>
</a>
</g>
</g>
<!-- Node2&#45;&gt;Node24 -->
<g id="edge46" class="edge"><title>Node2&#45;&gt;Node24</title>
<path fill="none" stroke="midnightblue" d="M1134.73,-464.673C1138.18,-455.511 1143.06,-441.046 1145,-428 1150.23,-392.832 1152.49,-382.758 1145,-348 1138.08,-315.874 1120.4,-281.721 1108.8,-261.653"/>
<polygon fill="midnightblue" stroke="midnightblue" points="1111.79,-259.82 1103.67,-253.003 1105.76,-263.39 1111.79,-259.82"/>
</g>
<!-- Node28 -->
<g id="node28" class="node"><title>Node28</title>
<g id="a_node28"><a xlink:href="_data_source_8h.html" target="_top" xlink:title="cinder/DataSource.h">
<polygon fill="white" stroke="black" points="561.419,-407 561.419,-427 668.581,-427 668.581,-407 561.419,-407"/>
<text text-anchor="middle" x="615" y="-413" font-family="Helvetica,sans-Serif" font-size="10.00">cinder/DataSource.h</text>
</a>
</g>
</g>
<!-- Node2&#45;&gt;Node28 -->
<g id="edge47" class="edge"><title>Node2&#45;&gt;Node28</title>
<path fill="none" stroke="midnightblue" d="M1093.47,-469.928C1006.08,-460.443 788.13,-436.789 679.153,-424.962"/>
<polygon fill="midnightblue" stroke="midnightblue" points="679.274,-421.455 668.955,-423.856 678.519,-428.414 679.274,-421.455"/>
</g>
<!-- Node25 -->
<g id="node25" class="node"><title>Node25</title>
<polygon fill="white" stroke="#bfbfbf" points="934.773,-175 934.773,-195 975.227,-195 975.227,-175 934.773,-175"/>
<text text-anchor="middle" x="955" y="-181" font-family="Helvetica,sans-Serif" font-size="10.00">string</text>
</g>
<!-- Node2&#45;&gt;Node25 -->
<g id="edge67" class="edge"><title>Node2&#45;&gt;Node25</title>
<path fill="none" stroke="midnightblue" d="M1125.34,-464.744C1100.31,-423.781 999.257,-258.421 965.81,-203.689"/>
<polygon fill="midnightblue" stroke="midnightblue" points="968.749,-201.786 960.548,-195.078 962.776,-205.436 968.749,-201.786"/>
</g>
<!-- Node21 -->
<g id="node21" class="node"><title>Node21</title>
<polygon fill="white" stroke="#bfbfbf" points="1376.38,-175 1376.38,-195 1419.62,-195 1419.62,-175 1376.38,-175"/>
<text text-anchor="middle" x="1398" y="-181" font-family="Helvetica,sans-Serif" font-size="10.00">vector</text>
</g>
<!-- Node2&#45;&gt;Node21 -->
<g id="edge68" class="edge"><title>Node2&#45;&gt;Node21</title>
<path fill="none" stroke="midnightblue" d="M1168.21,-472.125C1233.3,-466.628 1361,-445.01 1361,-360 1361,-360 1361,-360 1361,-300 1361,-264.792 1377.16,-226.324 1388.12,-204.286"/>
<polygon fill="midnightblue" stroke="midnightblue" points="1391.37,-205.621 1392.86,-195.13 1385.16,-202.408 1391.37,-205.621"/>
</g>
<!-- Node4 -->
<g id="node4" class="node"><title>Node4</title>
<polygon fill="white" stroke="#bfbfbf" points="796.549,-1 796.549,-21 841.451,-21 841.451,-1 796.549,-1"/>
<text text-anchor="middle" x="819" y="-7" font-family="Helvetica,sans-Serif" font-size="10.00">cstdint</text>
</g>
<!-- Node3&#45;&gt;Node4 -->
<g id="edge3" class="edge"><title>Node3&#45;&gt;Node4</title>
<path fill="none" stroke="midnightblue" d="M892.469,-58.7527C878.757,-50.0272 857.979,-36.8051 842.015,-26.6458"/>
<polygon fill="midnightblue" stroke="midnightblue" points="843.577,-23.4912 833.261,-21.0752 839.819,-29.3968 843.577,-23.4912"/>
</g>
<!-- Node5 -->
<g id="node5" class="node"><title>Node5</title>
<polygon fill="white" stroke="#bfbfbf" points="859.53,-1 859.53,-21 954.47,-21 954.47,-1 859.53,-1"/>
<text text-anchor="middle" x="907" y="-7" font-family="Helvetica,sans-Serif" font-size="10.00">boost/version.hpp</text>
</g>
<!-- Node3&#45;&gt;Node5 -->
<g id="edge4" class="edge"><title>Node3&#45;&gt;Node5</title>
<path fill="none" stroke="midnightblue" d="M907,-58.7527C907,-51.2504 907,-40.4238 907,-31.0781"/>
<polygon fill="midnightblue" stroke="midnightblue" points="910.5,-31.0752 907,-21.0752 903.5,-31.0752 910.5,-31.0752"/>
</g>
<!-- Node6 -->
<g id="node6" class="node"><title>Node6</title>
<polygon fill="white" stroke="#bfbfbf" points="972.621,-1 972.621,-21 1105.38,-21 1105.38,-1 972.621,-1"/>
<text text-anchor="middle" x="1039" y="-7" font-family="Helvetica,sans-Serif" font-size="10.00">boost/checked_delete.hpp</text>
</g>
<!-- Node3&#45;&gt;Node6 -->
<g id="edge5" class="edge"><title>Node3&#45;&gt;Node6</title>
<path fill="none" stroke="midnightblue" d="M928.502,-58.878C950.172,-49.6848 983.821,-35.4095 1008.3,-25.0263"/>
<polygon fill="midnightblue" stroke="midnightblue" points="1009.67,-28.2457 1017.51,-21.1181 1006.93,-21.8016 1009.67,-28.2457"/>
</g>
<!-- Node8 -->
<g id="node8" class="node"><title>Node8</title>
<g id="a_node8"><a xlink:href="_vector_8h.html" target="_top" xlink:title="cinder/Vector.h">
<polygon fill="white" stroke="black" points="1637.92,-175 1637.92,-195 1720.08,-195 1720.08,-175 1637.92,-175"/>
<text text-anchor="middle" x="1679" y="-181" font-family="Helvetica,sans-Serif" font-size="10.00">cinder/Vector.h</text>
</a>
</g>
</g>
<!-- Node7&#45;&gt;Node8 -->
<g id="edge7" class="edge"><title>Node7&#45;&gt;Node8</title>
<path fill="none" stroke="midnightblue" d="M1635.01,-406.853C1653.98,-399.455 1678.51,-387.388 1695,-370 1734,-328.87 1735.95,-309.385 1748,-254 1750.08,-244.446 1752.61,-240.621 1748,-232 1740.38,-217.767 1726.2,-207.178 1712.67,-199.77"/>
<polygon fill="midnightblue" stroke="midnightblue" points="1714,-196.52 1703.49,-195.145 1710.84,-202.771 1714,-196.52"/>
</g>
<!-- Node18 -->
<g id="node18" class="node"><title>Node18</title>
<g id="a_node18"><a xlink:href="_rect_8h.html" target="_top" xlink:title="cinder/Rect.h">
<polygon fill="white" stroke="black" points="1534.54,-291 1534.54,-311 1609.46,-311 1609.46,-291 1534.54,-291"/>
<text text-anchor="middle" x="1572" y="-297" font-family="Helvetica,sans-Serif" font-size="10.00">cinder/Rect.h</text>
</a>
</g>
</g>
<!-- Node7&#45;&gt;Node18 -->
<g id="edge19" class="edge"><title>Node7&#45;&gt;Node18</title>
<path fill="none" stroke="midnightblue" d="M1603.64,-406.892C1600.28,-397.651 1595.04,-382.91 1591,-370 1585.85,-353.571 1580.63,-334.701 1576.97,-321.013"/>
<polygon fill="midnightblue" stroke="midnightblue" points="1580.34,-320.065 1574.4,-311.293 1573.57,-321.855 1580.34,-320.065"/>
</g>
<!-- Node22 -->
<g id="node22" class="node"><title>Node22</title>
<g id="a_node22"><a xlink:href="_path2d_8h.html" target="_top" xlink:title="cinder/Path2d.h">
<polygon fill="white" stroke="black" points="1599.98,-349 1599.98,-369 1686.02,-369 1686.02,-349 1599.98,-349"/>
<text text-anchor="middle" x="1643" y="-355" font-family="Helvetica,sans-Serif" font-size="10.00">cinder/Path2d.h</text>
</a>
</g>
</g>
<!-- Node7&#45;&gt;Node22 -->
<g id="edge28" class="edge"><title>Node7&#45;&gt;Node22</title>
<path fill="none" stroke="midnightblue" d="M1612.94,-406.753C1618.03,-398.843 1625.49,-387.237 1631.71,-377.568"/>
<polygon fill="midnightblue" stroke="midnightblue" points="1634.7,-379.38 1637.17,-369.075 1628.81,-375.594 1634.7,-379.38"/>
</g>
<!-- Node26 -->
<g id="node26" class="node"><title>Node26</title>
<g id="a_node26"><a xlink:href="_matrix_affine2_8h.html" target="_top" xlink:title="cinder/MatrixAffine2.h">
<polygon fill="white" stroke="black" points="1816.65,-233 1816.65,-253 1929.35,-253 1929.35,-233 1816.65,-233"/>
<text text-anchor="middle" x="1873" y="-239" font-family="Helvetica,sans-Serif" font-size="10.00">cinder/MatrixAffine2.h</text>
</a>
</g>
</g>
<!-- Node7&#45;&gt;Node26 -->
<g id="edge44" class="edge"><title>Node7&#45;&gt;Node26</title>
<path fill="none" stroke="midnightblue" d="M1654.27,-415.421C1697.04,-412.636 1759.78,-402.662 1803,-370 1839.13,-342.697 1859.16,-291.027 1867.8,-263.087"/>
<polygon fill="midnightblue" stroke="midnightblue" points="1871.2,-263.907 1870.65,-253.327 1864.48,-261.946 1871.2,-263.907"/>
</g>
<!-- Node7&#45;&gt;Node21 -->
<g id="edge45" class="edge"><title>Node7&#45;&gt;Node21</title>
<path fill="none" stroke="midnightblue" d="M1594.17,-406.712C1563.21,-383.775 1483.33,-321.405 1434,-254 1422.57,-238.387 1412.55,-218.673 1406,-204.497"/>
<polygon fill="midnightblue" stroke="midnightblue" points="1409.16,-202.986 1401.88,-195.291 1402.77,-205.848 1409.16,-202.986"/>
</g>
<!-- Node9 -->
<g id="node9" class="node"><title>Node9</title>
<polygon fill="white" stroke="#bfbfbf" points="1769.38,-59 1769.38,-79 1812.62,-79 1812.62,-59 1769.38,-59"/>
<text text-anchor="middle" x="1791" y="-65" font-family="Helvetica,sans-Serif" font-size="10.00">cmath</text>
</g>
<!-- Node8&#45;&gt;Node9 -->
<g id="edge8" class="edge"><title>Node8&#45;&gt;Node9</title>
<path fill="none" stroke="midnightblue" d="M1689.59,-174.744C1699.89,-165.634 1715.85,-151.208 1729,-138 1745.8,-121.123 1764.06,-100.845 1776.38,-86.8489"/>
<polygon fill="midnightblue" stroke="midnightblue" points="1779.27,-88.8635 1783.22,-79.0326 1774,-84.2545 1779.27,-88.8635"/>
</g>
<!-- Node10 -->
<g id="node10" class="node"><title>Node10</title>
<polygon fill="white" stroke="#bfbfbf" points="1551.27,-117 1551.27,-137 1596.73,-137 1596.73,-117 1551.27,-117"/>
<text text-anchor="middle" x="1574" y="-123" font-family="Helvetica,sans-Serif" font-size="10.00">cstring</text>
</g>
<!-- Node8&#45;&gt;Node10 -->
<g id="edge9" class="edge"><title>Node8&#45;&gt;Node10</title>
<path fill="none" stroke="midnightblue" d="M1661.66,-174.753C1644.84,-165.783 1619.11,-152.06 1599.87,-141.799"/>
<polygon fill="midnightblue" stroke="midnightblue" points="1601.49,-138.693 1591.02,-137.075 1598.19,-144.869 1601.49,-138.693"/>
</g>
<!-- Node11 -->
<g id="node11" class="node"><title>Node11</title>
<polygon fill="white" stroke="#bfbfbf" points="1478.83,-117 1478.83,-137 1533.17,-137 1533.17,-117 1478.83,-117"/>
<text text-anchor="middle" x="1506" y="-123" font-family="Helvetica,sans-Serif" font-size="10.00">iostream</text>
</g>
<!-- Node8&#45;&gt;Node11 -->
<g id="edge10" class="edge"><title>Node8&#45;&gt;Node11</title>
<path fill="none" stroke="midnightblue" d="M1650.82,-174.878C1621.4,-165.356 1575.15,-150.383 1542.85,-139.929"/>
<polygon fill="midnightblue" stroke="midnightblue" points="1543.9,-136.591 1533.31,-136.841 1541.75,-143.25 1543.9,-136.591"/>
</g>
<!-- Node12 -->
<g id="node12" class="node"><title>Node12</title>
<polygon fill="white" stroke="#bfbfbf" points="1614.88,-117 1614.88,-137 1663.12,-137 1663.12,-117 1614.88,-117"/>
<text text-anchor="middle" x="1639" y="-123" font-family="Helvetica,sans-Serif" font-size="10.00">cassert</text>
</g>
<!-- Node8&#45;&gt;Node12 -->
<g id="edge11" class="edge"><title>Node8&#45;&gt;Node12</title>
<path fill="none" stroke="midnightblue" d="M1672.39,-174.753C1666.69,-166.761 1658.28,-154.998 1651.34,-145.27"/>
<polygon fill="midnightblue" stroke="midnightblue" points="1654.14,-143.178 1645.48,-137.075 1648.45,-147.247 1654.14,-143.178"/>
</g>
<!-- Node13 -->
<g id="node13" class="node"><title>Node13</title>
<polygon fill="white" stroke="#bfbfbf" points="1681.61,-117 1681.61,-137 1720.39,-137 1720.39,-117 1681.61,-117"/>
<text text-anchor="middle" x="1701" y="-123" font-family="Helvetica,sans-Serif" font-size="10.00">limits</text>
</g>
<!-- Node8&#45;&gt;Node13 -->
<g id="edge12" class="edge"><title>Node8&#45;&gt;Node13</title>
<path fill="none" stroke="midnightblue" d="M1682.63,-174.753C1685.64,-167.087 1690.02,-155.952 1693.74,-146.471"/>
<polygon fill="midnightblue" stroke="midnightblue" points="1697.04,-147.663 1697.43,-137.075 1690.52,-145.103 1697.04,-147.663"/>
</g>
<!-- Node14 -->
<g id="node14" class="node"><title>Node14</title>
<g id="a_node14"><a xlink:href="_cinder_math_8h.html" target="_top" xlink:title="cinder/CinderMath.h">
<polygon fill="white" stroke="black" points="1813.98,-117 1813.98,-137 1920.02,-137 1920.02,-117 1813.98,-117"/>
<text text-anchor="middle" x="1867" y="-123" font-family="Helvetica,sans-Serif" font-size="10.00">cinder/CinderMath.h</text>
</a>
</g>
</g>
<!-- Node8&#45;&gt;Node14 -->
<g id="edge13" class="edge"><title>Node8&#45;&gt;Node14</title>
<path fill="none" stroke="midnightblue" d="M1709.62,-174.878C1741.54,-165.372 1791.69,-150.432 1826.78,-139.98"/>
<polygon fill="midnightblue" stroke="midnightblue" points="1828.12,-143.234 1836.7,-137.025 1826.12,-136.526 1828.12,-143.234"/>
</g>
<!-- Node14&#45;&gt;Node3 -->
<g id="edge14" class="edge"><title>Node14&#45;&gt;Node3</title>
<path fill="none" stroke="midnightblue" d="M1813.89,-120.513C1797.28,-118.913 1778.89,-117.258 1762,-116 1458.18,-93.3691 1092.83,-77.491 959.195,-72.0584"/>
<polygon fill="midnightblue" stroke="midnightblue" points="958.987,-68.5472 948.854,-71.64 958.704,-75.5415 958.987,-68.5472"/>
</g>
<!-- Node14&#45;&gt;Node9 -->
<g id="edge15" class="edge"><title>Node14&#45;&gt;Node9</title>
<path fill="none" stroke="midnightblue" d="M1854.45,-116.753C1842.83,-108.19 1825.33,-95.2978 1811.65,-85.2186"/>
<polygon fill="midnightblue" stroke="midnightblue" points="1813.44,-82.1895 1803.32,-79.0752 1809.29,-87.8249 1813.44,-82.1895"/>
</g>
<!-- Node15 -->
<g id="node15" class="node"><title>Node15</title>
<polygon fill="white" stroke="#bfbfbf" points="1840.11,-59 1840.11,-79 1883.89,-79 1883.89,-59 1840.11,-59"/>
<text text-anchor="middle" x="1862" y="-65" font-family="Helvetica,sans-Serif" font-size="10.00">climits</text>
</g>
<!-- Node14&#45;&gt;Node15 -->
<g id="edge16" class="edge"><title>Node14&#45;&gt;Node15</title>
<path fill="none" stroke="midnightblue" d="M1866.17,-116.753C1865.5,-109.25 1864.54,-98.4238 1863.7,-89.0781"/>
<polygon fill="midnightblue" stroke="midnightblue" points="1867.19,-88.7243 1862.81,-79.0752 1860.21,-89.3469 1867.19,-88.7243"/>
</g>
<!-- Node16 -->
<g id="node16" class="node"><title>Node16</title>
<polygon fill="white" stroke="#bfbfbf" points="1902.05,-59 1902.05,-79 1941.95,-79 1941.95,-59 1902.05,-59"/>
<text text-anchor="middle" x="1922" y="-65" font-family="Helvetica,sans-Serif" font-size="10.00">cfloat</text>
</g>
<!-- Node14&#45;&gt;Node16 -->
<g id="edge17" class="edge"><title>Node14&#45;&gt;Node16</title>
<path fill="none" stroke="midnightblue" d="M1876.08,-116.753C1884.17,-108.516 1896.2,-96.2738 1905.91,-86.3824"/>
<polygon fill="midnightblue" stroke="midnightblue" points="1908.58,-88.6622 1913.09,-79.0752 1903.58,-83.7572 1908.58,-88.6622"/>
</g>
<!-- Node17 -->
<g id="node17" class="node"><title>Node17</title>
<polygon fill="white" stroke="#bfbfbf" points="1559.6,-59 1559.6,-79 1618.4,-79 1618.4,-59 1559.6,-59"/>
<text text-anchor="middle" x="1589" y="-65" font-family="Helvetica,sans-Serif" font-size="10.00">functional</text>
</g>
<!-- Node14&#45;&gt;Node17 -->
<g id="edge18" class="edge"><title>Node14&#45;&gt;Node17</title>
<path fill="none" stroke="midnightblue" d="M1822.03,-116.94C1768.4,-106.138 1679.63,-88.2557 1628.53,-77.9621"/>
<polygon fill="midnightblue" stroke="midnightblue" points="1629.02,-74.4912 1618.53,-75.9475 1627.64,-81.3534 1629.02,-74.4912"/>
</g>
<!-- Node18&#45;&gt;Node8 -->
<g id="edge20" class="edge"><title>Node18&#45;&gt;Node8</title>
<path fill="none" stroke="midnightblue" d="M1578.49,-290.762C1588.16,-277.257 1607.24,-251.602 1626,-232 1636.27,-221.274 1648.77,-210.334 1659.06,-201.816"/>
<polygon fill="midnightblue" stroke="midnightblue" points="1661.53,-204.316 1667.07,-195.288 1657.11,-198.888 1661.53,-204.316"/>
</g>
<!-- Node19 -->
<g id="node19" class="node"><title>Node19</title>
<g id="a_node19"><a xlink:href="_area_8h.html" target="_top" xlink:title="cinder/Area.h">
<polygon fill="white" stroke="black" points="1503.26,-233 1503.26,-253 1578.74,-253 1578.74,-233 1503.26,-233"/>
<text text-anchor="middle" x="1541" y="-239" font-family="Helvetica,sans-Serif" font-size="10.00">cinder/Area.h</text>
</a>
</g>
</g>
<!-- Node18&#45;&gt;Node19 -->
<g id="edge21" class="edge"><title>Node18&#45;&gt;Node19</title>
<path fill="none" stroke="midnightblue" d="M1566.88,-290.753C1562.55,-282.924 1556.21,-271.476 1550.89,-261.868"/>
<polygon fill="midnightblue" stroke="midnightblue" points="1553.93,-260.129 1546.02,-253.075 1547.8,-263.519 1553.93,-260.129"/>
</g>
<!-- Node18&#45;&gt;Node21 -->
<g id="edge27" class="edge"><title>Node18&#45;&gt;Node21</title>
<path fill="none" stroke="midnightblue" d="M1555.63,-290.873C1539.68,-281.858 1514.85,-267.5 1494,-254 1467.36,-236.752 1437.69,-215.388 1418.48,-201.261"/>
<polygon fill="midnightblue" stroke="midnightblue" points="1420.32,-198.267 1410.2,-195.138 1416.16,-203.897 1420.32,-198.267"/>
</g>
<!-- Node19&#45;&gt;Node3 -->
<g id="edge22" class="edge"><title>Node19&#45;&gt;Node3</title>
<path fill="none" stroke="midnightblue" d="M1536.23,-232.753C1527.98,-217.76 1509.54,-188.379 1485,-174 1395.58,-121.614 1083.71,-86.8468 959.057,-74.7495"/>
<polygon fill="midnightblue" stroke="midnightblue" points="959.286,-71.2555 948.997,-73.7832 958.617,-78.2235 959.286,-71.2555"/>
</g>
<!-- Node19&#45;&gt;Node8 -->
<g id="edge23" class="edge"><title>Node19&#45;&gt;Node8</title>
<path fill="none" stroke="midnightblue" d="M1563.48,-232.878C1586.23,-223.644 1621.62,-209.283 1647.24,-198.889"/>
<polygon fill="midnightblue" stroke="midnightblue" points="1648.58,-202.121 1656.53,-195.118 1645.95,-195.635 1648.58,-202.121"/>
</g>
<!-- Node19&#45;&gt;Node11 -->
<g id="edge24" class="edge"><title>Node19&#45;&gt;Node11</title>
<path fill="none" stroke="midnightblue" d="M1538.14,-232.671C1532.39,-213.957 1519.36,-171.517 1511.77,-146.809"/>
<polygon fill="midnightblue" stroke="midnightblue" points="1515.09,-145.672 1508.81,-137.139 1508.4,-147.726 1515.09,-145.672"/>
</g>
<!-- Node20 -->
<g id="node20" class="node"><title>Node20</title>
<polygon fill="white" stroke="#bfbfbf" points="1437.61,-175 1437.61,-195 1476.39,-195 1476.39,-175 1437.61,-175"/>
<text text-anchor="middle" x="1457" y="-181" font-family="Helvetica,sans-Serif" font-size="10.00">utility</text>
</g>
<!-- Node19&#45;&gt;Node20 -->
<g id="edge25" class="edge"><title>Node19&#45;&gt;Node20</title>
<path fill="none" stroke="midnightblue" d="M1527.13,-232.753C1514.04,-224.027 1494.21,-210.805 1478.97,-200.646"/>
<polygon fill="midnightblue" stroke="midnightblue" points="1480.87,-197.71 1470.61,-195.075 1476.99,-203.534 1480.87,-197.71"/>
</g>
<!-- Node19&#45;&gt;Node21 -->
<g id="edge26" class="edge"><title>Node19&#45;&gt;Node21</title>
<path fill="none" stroke="midnightblue" d="M1517.71,-232.878C1493.71,-223.479 1456.14,-208.769 1429.5,-198.336"/>
<polygon fill="midnightblue" stroke="midnightblue" points="1430.46,-194.954 1419.88,-194.567 1427.91,-201.472 1430.46,-194.954"/>
</g>
<!-- Node22&#45;&gt;Node8 -->
<g id="edge29" class="edge"><title>Node22&#45;&gt;Node8</title>
<path fill="none" stroke="midnightblue" d="M1655.23,-348.755C1675.78,-332.352 1716.52,-295.908 1732,-254 1735.39,-244.828 1736.06,-240.896 1732,-232 1726.13,-219.143 1714.7,-208.493 1703.95,-200.69"/>
<polygon fill="midnightblue" stroke="midnightblue" points="1705.85,-197.745 1695.6,-195.054 1701.93,-203.548 1705.85,-197.745"/>
</g>
<!-- Node23 -->
<g id="node23" class="node"><title>Node23</title>
<g id="a_node23"><a xlink:href="_b_spline_8h.html" target="_top" xlink:title="cinder/BSpline.h">
<polygon fill="white" stroke="black" points="1634.59,-233 1634.59,-253 1723.41,-253 1723.41,-233 1634.59,-233"/>
<text text-anchor="middle" x="1679" y="-239" font-family="Helvetica,sans-Serif" font-size="10.00">cinder/BSpline.h</text>
</a>
</g>
</g>
<!-- Node22&#45;&gt;Node23 -->
<g id="edge30" class="edge"><title>Node22&#45;&gt;Node23</title>
<path fill="none" stroke="midnightblue" d="M1645.95,-348.671C1651.86,-329.957 1665.26,-287.517 1673.06,-262.809"/>
<polygon fill="midnightblue" stroke="midnightblue" points="1676.44,-263.729 1676.11,-253.139 1669.76,-261.621 1676.44,-263.729"/>
</g>
<!-- Node22&#45;&gt;Node18 -->
<g id="edge33" class="edge"><title>Node22&#45;&gt;Node18</title>
<path fill="none" stroke="midnightblue" d="M1631.28,-348.753C1620.52,-340.272 1604.38,-327.543 1591.66,-317.507"/>
<polygon fill="midnightblue" stroke="midnightblue" points="1593.53,-314.52 1583.51,-311.075 1589.19,-320.016 1593.53,-314.52"/>
</g>
<!-- Node22&#45;&gt;Node24 -->
<g id="edge34" class="edge"><title>Node22&#45;&gt;Node24</title>
<path fill="none" stroke="midnightblue" d="M1599.59,-348.925C1555.21,-339.648 1484.3,-324.822 1423,-312 1327.13,-291.948 1215.35,-268.558 1151.02,-255.095"/>
<polygon fill="midnightblue" stroke="midnightblue" points="1151.61,-251.644 1141.11,-253.021 1150.18,-258.496 1151.61,-251.644"/>
</g>
<!-- Node22&#45;&gt;Node26 -->
<g id="edge38" class="edge"><title>Node22&#45;&gt;Node26</title>
<path fill="none" stroke="midnightblue" d="M1661.43,-348.864C1701.82,-328.844 1798.3,-281.027 1845.73,-257.517"/>
<polygon fill="midnightblue" stroke="midnightblue" points="1847.39,-260.599 1854.8,-253.022 1844.28,-254.327 1847.39,-260.599"/>
</g>
<!-- Node22&#45;&gt;Node21 -->
<g id="edge43" class="edge"><title>Node22&#45;&gt;Node21</title>
<path fill="none" stroke="midnightblue" d="M1611.89,-348.9C1587.54,-341.051 1553.33,-328.394 1526,-312 1491.94,-291.564 1486.32,-281.851 1458,-254 1441.27,-237.545 1423.68,-217.198 1411.9,-203.07"/>
<polygon fill="midnightblue" stroke="midnightblue" points="1414.45,-200.653 1405.38,-195.167 1409.05,-205.108 1414.45,-200.653"/>
</g>
<!-- Node23&#45;&gt;Node21 -->
<g id="edge31" class="edge"><title>Node23&#45;&gt;Node21</title>
<path fill="none" stroke="midnightblue" d="M1634.37,-235.583C1586.13,-228.249 1506.87,-215.051 1429.79,-195.943"/>
<polygon fill="midnightblue" stroke="midnightblue" points="1430.46,-192.504 1419.91,-193.458 1428.76,-199.292 1430.46,-192.504"/>
</g>
<!-- Node23&#45;&gt;Node8 -->
<g id="edge32" class="edge"><title>Node23&#45;&gt;Node8</title>
<path fill="none" stroke="midnightblue" d="M1679,-232.753C1679,-225.25 1679,-214.424 1679,-205.078"/>
<polygon fill="midnightblue" stroke="midnightblue" points="1682.5,-205.075 1679,-195.075 1675.5,-205.075 1682.5,-205.075"/>
</g>
<!-- Node24&#45;&gt;Node3 -->
<g id="edge35" class="edge"><title>Node24&#45;&gt;Node3</title>
<path fill="none" stroke="midnightblue" d="M1091.2,-232.99C1084.37,-223.825 1073.64,-209.142 1065,-196 1042.23,-161.347 1048.36,-143.129 1017,-116 998.891,-100.333 974.687,-89.4323 953.594,-82.1893"/>
<polygon fill="midnightblue" stroke="midnightblue" points="954.436,-78.7826 943.843,-79.019 952.271,-85.4396 954.436,-78.7826"/>
</g>
<!-- Node24&#45;&gt;Node21 -->
<g id="edge36" class="edge"><title>Node24&#45;&gt;Node21</title>
<path fill="none" stroke="midnightblue" d="M1146.53,-232.94C1208.44,-221.385 1313.74,-201.728 1366.26,-191.925"/>
<polygon fill="midnightblue" stroke="midnightblue" points="1367.14,-195.321 1376.33,-190.045 1365.86,-188.44 1367.14,-195.321"/>
</g>
<!-- Node24&#45;&gt;Node25 -->
<g id="edge37" class="edge"><title>Node24&#45;&gt;Node25</title>
<path fill="none" stroke="midnightblue" d="M1074.71,-232.878C1050.28,-223.314 1011.82,-208.251 985.108,-197.791"/>
<polygon fill="midnightblue" stroke="midnightblue" points="986.088,-194.416 975.5,-194.028 983.535,-200.934 986.088,-194.416"/>
</g>
<!-- Node26&#45;&gt;Node3 -->
<g id="edge39" class="edge"><title>Node26&#45;&gt;Node3</title>
<path fill="none" stroke="midnightblue" d="M1847.98,-232.964C1828.95,-225.224 1802.91,-212.682 1784,-196 1751.64,-167.459 1766.61,-137.147 1729,-116 1662.11,-78.3908 1128.99,-71.5097 958.93,-70.2687"/>
<polygon fill="midnightblue" stroke="midnightblue" points="958.758,-66.7675 948.734,-70.1979 958.709,-73.7673 958.758,-66.7675"/>
</g>
<!-- Node26&#45;&gt;Node14 -->
<g id="edge40" class="edge"><title>Node26&#45;&gt;Node14</title>
<path fill="none" stroke="midnightblue" d="M1872.51,-232.671C1871.53,-214.041 1869.31,-171.898 1868.01,-147.143"/>
<polygon fill="midnightblue" stroke="midnightblue" points="1871.5,-146.942 1867.48,-137.139 1864.51,-147.31 1871.5,-146.942"/>
</g>
<!-- Node26&#45;&gt;Node8 -->
<g id="edge41" class="edge"><title>Node26&#45;&gt;Node8</title>
<path fill="none" stroke="midnightblue" d="M1841.4,-232.878C1808.33,-223.331 1756.27,-208.303 1720.04,-197.845"/>
<polygon fill="midnightblue" stroke="midnightblue" points="1720.84,-194.436 1710.27,-195.025 1718.9,-201.161 1720.84,-194.436"/>
</g>
<!-- Node27 -->
<g id="node27" class="node"><title>Node27</title>
<polygon fill="white" stroke="#bfbfbf" points="1793.49,-175 1793.49,-195 1844.51,-195 1844.51,-175 1793.49,-175"/>
<text text-anchor="middle" x="1819" y="-181" font-family="Helvetica,sans-Serif" font-size="10.00">iomanip</text>
</g>
<!-- Node26&#45;&gt;Node27 -->
<g id="edge42" class="edge"><title>Node26&#45;&gt;Node27</title>
<path fill="none" stroke="midnightblue" d="M1864.08,-232.753C1856.14,-224.516 1844.34,-212.274 1834.8,-202.382"/>
<polygon fill="midnightblue" stroke="midnightblue" points="1837.21,-199.844 1827.75,-195.075 1832.17,-204.703 1837.21,-199.844"/>
</g>
<!-- Node28&#45;&gt;Node3 -->
<g id="edge48" class="edge"><title>Node28&#45;&gt;Node3</title>
<path fill="none" stroke="midnightblue" d="M668.671,-410.913C732.642,-401.552 831,-375.25 831,-302 831,-302 831,-302 831,-184 831,-143.325 864.91,-106.124 887.428,-85.9052"/>
<polygon fill="midnightblue" stroke="midnightblue" points="889.85,-88.4378 895.125,-79.2493 885.272,-83.1429 889.85,-88.4378"/>
</g>
<!-- Node29 -->
<g id="node29" class="node"><title>Node29</title>
<g id="a_node29"><a xlink:href="_url_8h.html" target="_top" xlink:title="cinder/Url.h">
<polygon fill="white" stroke="black" points="465.436,-349 465.436,-369 532.564,-369 532.564,-349 465.436,-349"/>
<text text-anchor="middle" x="499" y="-355" font-family="Helvetica,sans-Serif" font-size="10.00">cinder/Url.h</text>
</a>
</g>
</g>
<!-- Node28&#45;&gt;Node29 -->
<g id="edge49" class="edge"><title>Node28&#45;&gt;Node29</title>
<path fill="none" stroke="midnightblue" d="M596.104,-406.878C577.398,-397.847 548.534,-383.913 527.132,-373.581"/>
<polygon fill="midnightblue" stroke="midnightblue" points="528.415,-370.314 517.887,-369.118 525.371,-376.618 528.415,-370.314"/>
</g>
<!-- Node31 -->
<g id="node31" class="node"><title>Node31</title>
<g id="a_node31"><a xlink:href="_buffer_8h.html" target="_top" xlink:title="cinder/Buffer.h">
<polygon fill="white" stroke="black" points="223.844,-233 223.844,-253 304.156,-253 304.156,-233 223.844,-233"/>
<text text-anchor="middle" x="264" y="-239" font-family="Helvetica,sans-Serif" font-size="10.00">cinder/Buffer.h</text>
</a>
</g>
</g>
<!-- Node28&#45;&gt;Node31 -->
<g id="edge64" class="edge"><title>Node28&#45;&gt;Node31</title>
<path fill="none" stroke="midnightblue" d="M607.222,-406.879C594.613,-392.586 568.35,-364.812 541,-348 466.279,-302.068 368.005,-271.141 310.838,-255.637"/>
<polygon fill="midnightblue" stroke="midnightblue" points="311.564,-252.209 300.999,-253.012 309.759,-258.972 311.564,-252.209"/>
</g>
<!-- Node30 -->
<g id="node30" class="node"><title>Node30</title>
<g id="a_node30"><a xlink:href="_stream_8h.html" target="_top" xlink:title="cinder/Stream.h">
<polygon fill="white" stroke="black" points="571.707,-291 571.707,-311 658.293,-311 658.293,-291 571.707,-291"/>
<text text-anchor="middle" x="615" y="-297" font-family="Helvetica,sans-Serif" font-size="10.00">cinder/Stream.h</text>
</a>
</g>
</g>
<!-- Node28&#45;&gt;Node30 -->
<g id="edge65" class="edge"><title>Node28&#45;&gt;Node30</title>
<path fill="none" stroke="midnightblue" d="M615,-406.671C615,-388.041 615,-345.898 615,-321.143"/>
<polygon fill="midnightblue" stroke="midnightblue" points="618.5,-321.139 615,-311.139 611.5,-321.139 618.5,-321.139"/>
</g>
<!-- Node32 -->
<g id="node32" class="node"><title>Node32</title>
<g id="a_node32"><a xlink:href="_filesystem_8h.html" target="_top" xlink:title="cinder/Filesystem.h">
<polygon fill="white" stroke="black" points="103.931,-233 103.931,-253 206.069,-253 206.069,-233 103.931,-233"/>
<text text-anchor="middle" x="155" y="-239" font-family="Helvetica,sans-Serif" font-size="10.00">cinder/Filesystem.h</text>
</a>
</g>
</g>
<!-- Node28&#45;&gt;Node32 -->
<g id="edge66" class="edge"><title>Node28&#45;&gt;Node32</title>
<path fill="none" stroke="midnightblue" d="M579.266,-406.921C546.796,-398.374 497.735,-384.718 456,-370 353.9,-333.995 236.498,-281.53 183.537,-257.244"/>
<polygon fill="midnightblue" stroke="midnightblue" points="184.964,-254.048 174.417,-253.048 182.038,-260.407 184.964,-254.048"/>
</g>
<!-- Node29&#45;&gt;Node3 -->
<g id="edge50" class="edge"><title>Node29&#45;&gt;Node3</title>
<path fill="none" stroke="midnightblue" d="M465.385,-354.704C375.795,-345.158 134.909,-314.257 88,-254 71.7568,-233.135 99.2039,-190.24 111,-174 134.744,-141.311 143.443,-130.896 181,-116 243.15,-91.3494 699.236,-76.0052 855.016,-71.438"/>
<polygon fill="midnightblue" stroke="midnightblue" points="855.376,-74.9291 865.27,-71.1402 855.173,-67.932 855.376,-74.9291"/>
</g>
<!-- Node29&#45;&gt;Node30 -->
<g id="edge51" class="edge"><title>Node29&#45;&gt;Node30</title>
<path fill="none" stroke="midnightblue" d="M517.896,-348.878C536.602,-339.847 565.466,-325.913 586.868,-315.581"/>
<polygon fill="midnightblue" stroke="midnightblue" points="588.629,-318.618 596.113,-311.118 585.585,-312.314 588.629,-318.618"/>
</g>
<!-- Node29&#45;&gt;Node11 -->
<g id="edge63" class="edge"><title>Node29&#45;&gt;Node11</title>
<path fill="none" stroke="midnightblue" d="M532.687,-356.29C613.279,-351.894 823.425,-338.63 997,-312 1027.22,-307.363 1238.35,-267.055 1266,-254 1317.78,-229.55 1316.6,-201.189 1367,-174 1399.48,-156.479 1439.82,-144.037 1468.66,-136.548"/>
<polygon fill="midnightblue" stroke="midnightblue" points="1469.89,-139.848 1478.73,-134.013 1468.18,-133.06 1469.89,-139.848"/>
</g>
<!-- Node30&#45;&gt;Node3 -->
<g id="edge52" class="edge"><title>Node30&#45;&gt;Node3</title>
<path fill="none" stroke="midnightblue" d="M571.66,-299.443C452.551,-297.465 126.937,-288.887 95,-254 88.3977,-246.788 91.1082,-240.97 95,-232 127.848,-156.29 162.178,-143.475 240,-116 353.074,-76.0795 718.113,-70.6338 854.739,-70.0183"/>
<polygon fill="midnightblue" stroke="midnightblue" points="854.957,-73.5176 864.944,-69.9795 854.93,-66.5176 854.957,-73.5176"/>
</g>
<!-- Node30&#45;&gt;Node31 -->
<g id="edge53" class="edge"><title>Node30&#45;&gt;Node31</title>
<path fill="none" stroke="midnightblue" d="M571.452,-292.232C566.912,-291.46 562.364,-290.703 558,-290 452.527,-273.002 423.11,-272.996 314.406,-254.174"/>
<polygon fill="midnightblue" stroke="midnightblue" points="314.796,-250.689 304.343,-252.418 313.592,-257.585 314.796,-250.689"/>
</g>
<!-- Node30&#45;&gt;Node24 -->
<g id="edge55" class="edge"><title>Node30&#45;&gt;Node24</title>
<path fill="none" stroke="midnightblue" d="M658.715,-294.932C745.623,-284.855 940.193,-262.296 1038.59,-250.888"/>
<polygon fill="midnightblue" stroke="midnightblue" points="1039.14,-254.348 1048.67,-249.719 1038.33,-247.394 1039.14,-254.348"/>
</g>
<!-- Node30&#45;&gt;Node32 -->
<g id="edge56" class="edge"><title>Node30&#45;&gt;Node32</title>
<path fill="none" stroke="midnightblue" d="M571.699,-295.747C500.005,-288.546 351.902,-273.001 216.501,-254.157"/>
<polygon fill="midnightblue" stroke="midnightblue" points="216.75,-250.657 206.361,-252.736 215.778,-257.59 216.75,-250.657"/>
</g>
<!-- Node34 -->
<g id="node34" class="node"><title>Node34</title>
<polygon fill="white" stroke="#bfbfbf" points="479.291,-233 479.291,-253 598.709,-253 598.709,-233 479.291,-233"/>
<text text-anchor="middle" x="539" y="-239" font-family="Helvetica,sans-Serif" font-size="10.00">boost/noncopyable.hpp</text>
</g>
<!-- Node30&#45;&gt;Node34 -->
<g id="edge59" class="edge"><title>Node30&#45;&gt;Node34</title>
<path fill="none" stroke="midnightblue" d="M602.45,-290.753C590.83,-282.19 573.333,-269.298 559.654,-259.219"/>
<polygon fill="midnightblue" stroke="midnightblue" points="561.443,-256.19 551.316,-253.075 557.291,-261.825 561.443,-256.19"/>
</g>
<!-- Node30&#45;&gt;Node25 -->
<g id="edge60" class="edge"><title>Node30&#45;&gt;Node25</title>
<path fill="none" stroke="midnightblue" d="M649.044,-290.976C681.4,-282.205 731.318,-268.168 774,-254 827.874,-236.117 889.55,-212.189 925.215,-198.005"/>
<polygon fill="midnightblue" stroke="midnightblue" points="926.566,-201.234 934.556,-194.276 923.971,-194.733 926.566,-201.234"/>
</g>
<!-- Node35 -->
<g id="node35" class="node"><title>Node35</title>
<polygon fill="white" stroke="#bfbfbf" points="616.574,-233 616.574,-253 765.426,-253 765.426,-233 616.574,-233"/>
<text text-anchor="middle" x="691" y="-239" font-family="Helvetica,sans-Serif" font-size="10.00">boost/iostreams/concepts.hpp</text>
</g>
<!-- Node30&#45;&gt;Node35 -->
<g id="edge61" class="edge"><title>Node30&#45;&gt;Node35</title>
<path fill="none" stroke="midnightblue" d="M627.55,-290.753C639.17,-282.19 656.667,-269.298 670.346,-259.219"/>
<polygon fill="midnightblue" stroke="midnightblue" points="672.709,-261.825 678.684,-253.075 668.557,-256.19 672.709,-261.825"/>
</g>
<!-- Node36 -->
<g id="node36" class="node"><title>Node36</title>
<polygon fill="white" stroke="#bfbfbf" points="322.306,-233 322.306,-253 461.694,-253 461.694,-233 322.306,-233"/>
<text text-anchor="middle" x="392" y="-239" font-family="Helvetica,sans-Serif" font-size="10.00">boost/iostreams/stream.hpp</text>
</g>
<!-- Node30&#45;&gt;Node36 -->
<g id="edge62" class="edge"><title>Node30&#45;&gt;Node36</title>
<path fill="none" stroke="midnightblue" d="M578.675,-290.878C540.251,-281.229 479.534,-265.982 437.842,-255.512"/>
<polygon fill="midnightblue" stroke="midnightblue" points="438.491,-252.066 427.94,-253.025 436.786,-258.856 438.491,-252.066"/>
</g>
<!-- Node31&#45;&gt;Node3 -->
<g id="edge54" class="edge"><title>Node31&#45;&gt;Node3</title>
<path fill="none" stroke="midnightblue" d="M297.665,-232.995C405.506,-204.148 742.387,-114.033 863.273,-81.6969"/>
<polygon fill="midnightblue" stroke="midnightblue" points="864.525,-84.9849 873.281,-79.0196 862.716,-78.2227 864.525,-84.9849"/>
</g>
<!-- Node32&#45;&gt;Node3 -->
<g id="edge57" class="edge"><title>Node32&#45;&gt;Node3</title>
<path fill="none" stroke="midnightblue" d="M154.639,-232.898C154.593,-218.115 156.854,-189.027 174,-174 275.594,-84.9607 704.556,-72.0245 854.776,-70.2456"/>
<polygon fill="midnightblue" stroke="midnightblue" points="855.14,-73.742 865.102,-70.1359 855.065,-66.7424 855.14,-73.742"/>
</g>
<!-- Node33 -->
<g id="node33" class="node"><title>Node33</title>
<polygon fill="white" stroke="#bfbfbf" points="183.421,-175 183.421,-195 290.579,-195 290.579,-175 183.421,-175"/>
<text text-anchor="middle" x="237" y="-181" font-family="Helvetica,sans-Serif" font-size="10.00">boost/filesystem.hpp</text>
</g>
<!-- Node32&#45;&gt;Node33 -->
<g id="edge58" class="edge"><title>Node32&#45;&gt;Node33</title>
<path fill="none" stroke="midnightblue" d="M168.541,-232.753C181.198,-224.109 200.317,-211.052 215.136,-200.931"/>
<polygon fill="midnightblue" stroke="midnightblue" points="217.427,-203.605 223.711,-195.075 213.479,-197.825 217.427,-203.605"/>
</g>
<!-- Node37&#45;&gt;Node25 -->
<g id="edge70" class="edge"><title>Node37&#45;&gt;Node25</title>
<path fill="none" stroke="midnightblue" d="M658.376,-473.42C730.921,-469.905 869,-451.232 869,-360 869,-360 869,-360 869,-300 869,-257.457 907.642,-220.725 933.121,-201.13"/>
<polygon fill="midnightblue" stroke="midnightblue" points="935.231,-203.923 941.183,-195.158 931.064,-198.298 935.231,-203.923"/>
</g>
<!-- Node37&#45;&gt;Node21 -->
<g id="edge71" class="edge"><title>Node37&#45;&gt;Node21</title>
<path fill="none" stroke="midnightblue" d="M658.34,-468.394C707.586,-461.435 790.066,-447.99 859,-428 1060.18,-369.662 1111.73,-351.719 1297,-254 1326.67,-238.35 1358.37,-215.972 1378.18,-201.221"/>
<polygon fill="midnightblue" stroke="midnightblue" points="1380.51,-203.845 1386.39,-195.032 1376.3,-198.254 1380.51,-203.845"/>
</g>
<!-- Node37&#45;&gt;Node3 -->
<g id="edge72" class="edge"><title>Node37&#45;&gt;Node3</title>
<path fill="none" stroke="midnightblue" d="M571.264,-470.534C430.761,-458.82 0,-418.163 0,-360 0,-360 0,-360 0,-184 0,-115.625 71.9017,-133.498 138,-116 273.889,-80.0266 705.098,-72.1152 855.025,-70.4359"/>
<polygon fill="midnightblue" stroke="midnightblue" points="855.364,-73.9326 865.326,-70.3255 855.289,-66.933 855.364,-73.9326"/>
</g>
<!-- Node37&#45;&gt;Node29 -->
<g id="edge73" class="edge"><title>Node37&#45;&gt;Node29</title>
<path fill="none" stroke="midnightblue" d="M600.358,-464.991C586.99,-456.39 567.074,-442.608 552,-428 535.953,-412.448 520.597,-391.908 510.584,-377.488"/>
<polygon fill="midnightblue" stroke="midnightblue" points="513.337,-375.312 504.822,-369.009 507.547,-379.247 513.337,-375.312"/>
</g>
<!-- Node37&#45;&gt;Node28 -->
<g id="edge74" class="edge"><title>Node37&#45;&gt;Node28</title>
<path fill="none" stroke="midnightblue" d="M615,-464.753C615,-457.25 615,-446.424 615,-437.078"/>
<polygon fill="midnightblue" stroke="midnightblue" points="618.5,-437.075 615,-427.075 611.5,-437.075 618.5,-437.075"/>
</g>
<!-- Node38 -->
<g id="node38" class="node"><title>Node38</title>
<polygon fill="white" stroke="#bfbfbf" points="390.803,-407 390.803,-427 505.197,-427 505.197,-407 390.803,-407"/>
<text text-anchor="middle" x="448" y="-413" font-family="Helvetica,sans-Serif" font-size="10.00">boost/lexical_cast.hpp</text>
</g>
<!-- Node37&#45;&gt;Node38 -->
<g id="edge75" class="edge"><title>Node37&#45;&gt;Node38</title>
<path fill="none" stroke="midnightblue" d="M587.797,-464.878C559.691,-455.453 515.658,-440.688 484.531,-430.25"/>
<polygon fill="midnightblue" stroke="midnightblue" points="485.509,-426.886 474.915,-427.025 483.283,-433.523 485.509,-426.886"/>
</g>
<!-- Node39&#45;&gt;Node3 -->
<g id="edge77" class="edge"><title>Node39&#45;&gt;Node3</title>
<path fill="none" stroke="midnightblue" d="M941.461,-290.824C938.431,-272.708 931.509,-231.063 926,-196 920.071,-158.267 913.497,-114.118 909.845,-89.3709"/>
<polygon fill="midnightblue" stroke="midnightblue" points="913.263,-88.559 908.344,-79.1755 906.338,-89.5787 913.263,-88.559"/>
</g>
<!-- Node40 -->
<g id="node40" class="node"><title>Node40</title>
<g id="a_node40"><a xlink:href="_function_8h.html" target="_top" xlink:title="cinder/Function.h">
<polygon fill="white" stroke="black" points="1164.65,-233 1164.65,-253 1257.35,-253 1257.35,-233 1164.65,-233"/>
<text text-anchor="middle" x="1211" y="-239" font-family="Helvetica,sans-Serif" font-size="10.00">cinder/Function.h</text>
</a>
</g>
</g>
<!-- Node39&#45;&gt;Node40 -->
<g id="edge78" class="edge"><title>Node39&#45;&gt;Node40</title>
<path fill="none" stroke="midnightblue" d="M986.357,-290.94C1033.06,-281.181 1107.43,-265.642 1157.68,-255.141"/>
<polygon fill="midnightblue" stroke="midnightblue" points="1158.63,-258.518 1167.71,-253.047 1157.2,-251.666 1158.63,-258.518"/>
</g>
<!-- Node39&#45;&gt;Node25 -->
<g id="edge85" class="edge"><title>Node39&#45;&gt;Node25</title>
<path fill="none" stroke="midnightblue" d="M943.982,-290.671C945.943,-272.041 950.379,-229.898 952.985,-205.143"/>
<polygon fill="midnightblue" stroke="midnightblue" points="956.472,-205.451 954.038,-195.139 949.51,-204.718 956.472,-205.451"/>
</g>
<!-- Node40&#45;&gt;Node3 -->
<g id="edge79" class="edge"><title>Node40&#45;&gt;Node3</title>
<path fill="none" stroke="midnightblue" d="M1174.68,-232.933C1151.07,-225.735 1120.59,-213.87 1098,-196 1063.76,-168.918 1075.99,-142.114 1041,-116 1016.88,-97.9965 985.202,-86.6941 958.703,-79.8001"/>
<polygon fill="midnightblue" stroke="midnightblue" points="959.373,-76.3608 948.827,-77.3689 957.7,-83.1579 959.373,-76.3608"/>
</g>
<!-- Node41 -->
<g id="node41" class="node"><title>Node41</title>
<polygon fill="white" stroke="#bfbfbf" points="1107.44,-175 1107.44,-195 1164.56,-195 1164.56,-175 1107.44,-175"/>
<text text-anchor="middle" x="1136" y="-181" font-family="Helvetica,sans-Serif" font-size="10.00">algorithm</text>
</g>
<!-- Node40&#45;&gt;Node41 -->
<g id="edge80" class="edge"><title>Node40&#45;&gt;Node41</title>
<path fill="none" stroke="midnightblue" d="M1198.62,-232.753C1187.15,-224.19 1169.88,-211.298 1156.38,-201.219"/>
<polygon fill="midnightblue" stroke="midnightblue" points="1158.26,-198.254 1148.15,-195.075 1154.07,-203.863 1158.26,-198.254"/>
</g>
<!-- Node40&#45;&gt;Node21 -->
<g id="edge81" class="edge"><title>Node40&#45;&gt;Node21</title>
<path fill="none" stroke="midnightblue" d="M1241.46,-232.878C1275.94,-222.554 1331.81,-205.82 1366.65,-195.388"/>
<polygon fill="midnightblue" stroke="midnightblue" points="1367.74,-198.716 1376.31,-192.494 1365.73,-192.01 1367.74,-198.716"/>
</g>
<!-- Node40&#45;&gt;Node20 -->
<g id="edge82" class="edge"><title>Node40&#45;&gt;Node20</title>
<path fill="none" stroke="midnightblue" d="M1257.54,-233.853C1299.6,-226.107 1363.32,-213.419 1427.55,-195.852"/>
<polygon fill="midnightblue" stroke="midnightblue" points="1428.75,-199.154 1437.45,-193.108 1426.88,-192.408 1428.75,-199.154"/>
</g>
<!-- Node42 -->
<g id="node42" class="node"><title>Node42</title>
<polygon fill="white" stroke="#bfbfbf" points="1182.3,-175 1182.3,-195 1281.7,-195 1281.7,-175 1182.3,-175"/>
<text text-anchor="middle" x="1232" y="-181" font-family="Helvetica,sans-Serif" font-size="10.00">boost/signals2.hpp</text>
</g>
<!-- Node40&#45;&gt;Node42 -->
<g id="edge83" class="edge"><title>Node40&#45;&gt;Node42</title>
<path fill="none" stroke="midnightblue" d="M1214.47,-232.753C1217.34,-225.087 1221.52,-213.952 1225.07,-204.471"/>
<polygon fill="midnightblue" stroke="midnightblue" points="1228.36,-205.667 1228.6,-195.075 1221.81,-203.21 1228.36,-205.667"/>
</g>
<!-- Node40&#45;&gt;Node17 -->
<g id="edge84" class="edge"><title>Node40&#45;&gt;Node17</title>
<path fill="none" stroke="midnightblue" d="M1226.27,-232.898C1249.26,-219.343 1294.31,-193.372 1334,-174 1393.05,-145.177 1409.12,-140.739 1470,-116 1498.55,-104.399 1531.21,-91.8211 1555.09,-82.7548"/>
<polygon fill="midnightblue" stroke="midnightblue" points="1556.63,-85.9125 1564.75,-79.0973 1554.15,-79.3663 1556.63,-85.9125"/>
</g>
</g>
</svg>
