<?xml version="1.0" encoding="UTF-8" standalone="no"?>
<!DOCTYPE svg PUBLIC "-//W3C//DTD SVG 1.1//EN"
 "http://www.w3.org/Graphics/SVG/1.1/DTD/svg11.dtd">
<!-- Generated by graphviz version 2.30.1 (20140712.1814)
 -->
<!-- Title: include/cinder/Font.h Pages: 1 -->
<!--zoomable 494 -->
<svg id="main" version="1.1" xmlns="http://www.w3.org/2000/svg" xmlns:xlink="http://www.w3.org/1999/xlink" xml:space="preserve" onload="init(evt)">
<style type="text/css"><![CDATA[
.edge:hover path { stroke: red; }
.edge:hover polygon { stroke: red; fill: red; }
]]></style>
<script type="text/javascript"><![CDATA[
var edges = document.getElementsByTagName('g');
if (edges && edges.length) {
  for (var i=0;i<edges.length;i++) {
    if (edges[i].id.substr(0,4)=='edge') {
      edges[i].setAttribute('class','edge');
    }
  }
}
]]></script>
        <defs>
                <circle id="rim" cx="0" cy="0" r="7"/>
                <circle id="rim2" cx="0" cy="0" r="3.5"/>
                <g id="zoomPlus">
                        <use xlink:href="#rim" fill="#404040">
                                <set attributeName="fill" to="#808080" begin="zoomplus.mouseover" end="zoomplus.mouseout"/>
                        </use>
                        <path d="M-4,0h8M0,-4v8" fill="none" stroke="white" stroke-width="1.5" pointer-events="none"/>
                </g>
                <g id="zoomMin">
                        <use xlink:href="#rim" fill="#404040">
                                <set attributeName="fill" to="#808080" begin="zoomminus.mouseover" end="zoomminus.mouseout"/>
                        </use>
                        <path d="M-4,0h8" fill="none" stroke="white" stroke-width="1.5" pointer-events="none"/>
                </g>
                <g id="dirArrow">
                        <path fill="none" stroke="white" stroke-width="1.5" d="M0,-3.0v7 M-2.5,-0.5L0,-3.0L2.5,-0.5"/>
                </g>
               <g id="resetDef">
                       <use xlink:href="#rim2" fill="#404040">
                               <set attributeName="fill" to="#808080" begin="reset.mouseover" end="reset.mouseout"/>
                       </use>
               </g>
        </defs>

<script type="text/javascript">
var viewWidth = 1655;
var viewHeight = 494;
var sectionId = 'dynsection-0';
</script>
<script xlink:href="svgpan.js"/>
<svg id="graph" class="graph">
<g id="viewport">
<title>include/cinder/Font.h</title>
<polygon fill="white" stroke="white" points="-4,5 -4,-490 1651.88,-490 1651.88,5 -4,5"/>
<!-- Node1 -->
<g id="node1" class="node"><title>Node1</title>
<polygon fill="#bfbfbf" stroke="black" points="603.584,-465 603.584,-485 712.416,-485 712.416,-465 603.584,-465"/>
<text text-anchor="middle" x="658" y="-471" font-family="Helvetica,sans-Serif" font-size="10.00">include/cinder/Font.h</text>
</g>
<!-- Node2 -->
<g id="node2" class="node"><title>Node2</title>
<g id="a_node2"><a xlink:href="_cinder_8h.html" target="_top" xlink:title="cinder/Cinder.h">
<polygon fill="white" stroke="black" points="765.367,-59 765.367,-79 848.633,-79 848.633,-59 765.367,-59"/>
<text text-anchor="middle" x="807" y="-65" font-family="Helvetica,sans-Serif" font-size="10.00">cinder/Cinder.h</text>
</a>
</g>
</g>
<!-- Node1&#45;&gt;Node2 -->
<g id="edge1" class="edge"><title>Node1&#45;&gt;Node2</title>
<path fill="none" stroke="midnightblue" d="M655.438,-464.924C650.251,-445.728 639,-399.527 639,-360 639,-360 639,-360 639,-184 639,-127.117 705.763,-96.6477 755.115,-81.8957"/>
<polygon fill="midnightblue" stroke="midnightblue" points="756.382,-85.174 765.04,-79.067 754.463,-78.4421 756.382,-85.174"/>
</g>
<!-- Node6 -->
<g id="node6" class="node"><title>Node6</title>
<g id="a_node6"><a xlink:href="_shape2d_8h.html" target="_top" xlink:title="cinder/Shape2d.h">
<polygon fill="white" stroke="black" points="322.803,-407 322.803,-427 417.197,-427 417.197,-407 322.803,-407"/>
<text text-anchor="middle" x="370" y="-413" font-family="Helvetica,sans-Serif" font-size="10.00">cinder/Shape2d.h</text>
</a>
</g>
</g>
<!-- Node1&#45;&gt;Node6 -->
<g id="edge5" class="edge"><title>Node1&#45;&gt;Node6</title>
<path fill="none" stroke="midnightblue" d="M611.408,-464.94C561.006,-455.14 480.632,-439.512 426.624,-429.01"/>
<polygon fill="midnightblue" stroke="midnightblue" points="427.01,-425.52 416.525,-427.047 425.673,-432.391 427.01,-425.52"/>
</g>
<!-- Node23 -->
<g id="node23" class="node"><title>Node23</title>
<g id="a_node23"><a xlink:href="_exception_8h.html" target="_top" xlink:title="cinder/Exception.h">
<polygon fill="white" stroke="black" points="704.865,-233 704.865,-253 803.135,-253 803.135,-233 704.865,-233"/>
<text text-anchor="middle" x="754" y="-239" font-family="Helvetica,sans-Serif" font-size="10.00">cinder/Exception.h</text>
</a>
</g>
</g>
<!-- Node1&#45;&gt;Node23 -->
<g id="edge45" class="edge"><title>Node1&#45;&gt;Node23</title>
<path fill="none" stroke="midnightblue" d="M661.763,-464.984C676.008,-430.855 726.801,-309.165 746.3,-262.447"/>
<polygon fill="midnightblue" stroke="midnightblue" points="749.536,-263.78 750.158,-253.204 743.077,-261.084 749.536,-263.78"/>
</g>
<!-- Node27 -->
<g id="node27" class="node"><title>Node27</title>
<g id="a_node27"><a xlink:href="_data_source_8h.html" target="_top" xlink:title="cinder/DataSource.h">
<polygon fill="white" stroke="black" points="920.419,-407 920.419,-427 1027.58,-427 1027.58,-407 920.419,-407"/>
<text text-anchor="middle" x="974" y="-413" font-family="Helvetica,sans-Serif" font-size="10.00">cinder/DataSource.h</text>
</a>
</g>
</g>
<!-- Node1&#45;&gt;Node27 -->
<g id="edge46" class="edge"><title>Node1&#45;&gt;Node27</title>
<path fill="none" stroke="midnightblue" d="M709.122,-464.94C764.852,-455.064 853.978,-439.27 913.24,-428.768"/>
<polygon fill="midnightblue" stroke="midnightblue" points="913.977,-432.192 923.213,-427 912.756,-425.299 913.977,-432.192"/>
</g>
<!-- Node24 -->
<g id="node24" class="node"><title>Node24</title>
<polygon fill="white" stroke="#bfbfbf" points="1409.77,-175 1409.77,-195 1450.23,-195 1450.23,-175 1409.77,-175"/>
<text text-anchor="middle" x="1430" y="-181" font-family="Helvetica,sans-Serif" font-size="10.00">string</text>
</g>
<!-- Node1&#45;&gt;Node24 -->
<g id="edge66" class="edge"><title>Node1&#45;&gt;Node24</title>
<path fill="none" stroke="midnightblue" d="M712.596,-472.421C899.913,-466.287 1505,-440.261 1505,-360 1505,-360 1505,-360 1505,-300 1505,-259.278 1471.19,-221.845 1448.97,-201.644"/>
<polygon fill="midnightblue" stroke="midnightblue" points="1451.22,-198.963 1441.39,-195.007 1446.61,-204.229 1451.22,-198.963"/>
</g>
<!-- Node20 -->
<g id="node20" class="node"><title>Node20</title>
<polygon fill="white" stroke="#bfbfbf" points="541.384,-175 541.384,-195 584.616,-195 584.616,-175 541.384,-175"/>
<text text-anchor="middle" x="563" y="-181" font-family="Helvetica,sans-Serif" font-size="10.00">vector</text>
</g>
<!-- Node1&#45;&gt;Node20 -->
<g id="edge67" class="edge"><title>Node1&#45;&gt;Node20</title>
<path fill="none" stroke="midnightblue" d="M649.589,-464.733C633.734,-446.261 601,-402.928 601,-360 601,-360 601,-360 601,-300 601,-264.541 584.249,-225.914 572.99,-203.957"/>
<polygon fill="midnightblue" stroke="midnightblue" points="576.071,-202.296 568.284,-195.113 569.892,-205.585 576.071,-202.296"/>
</g>
<!-- Node3 -->
<g id="node3" class="node"><title>Node3</title>
<polygon fill="white" stroke="#bfbfbf" points="696.549,-1 696.549,-21 741.451,-21 741.451,-1 696.549,-1"/>
<text text-anchor="middle" x="719" y="-7" font-family="Helvetica,sans-Serif" font-size="10.00">cstdint</text>
</g>
<!-- Node2&#45;&gt;Node3 -->
<g id="edge2" class="edge"><title>Node2&#45;&gt;Node3</title>
<path fill="none" stroke="midnightblue" d="M792.469,-58.7527C778.757,-50.0272 757.979,-36.8051 742.015,-26.6458"/>
<polygon fill="midnightblue" stroke="midnightblue" points="743.577,-23.4912 733.261,-21.0752 739.819,-29.3968 743.577,-23.4912"/>
</g>
<!-- Node4 -->
<g id="node4" class="node"><title>Node4</title>
<polygon fill="white" stroke="#bfbfbf" points="759.53,-1 759.53,-21 854.47,-21 854.47,-1 759.53,-1"/>
<text text-anchor="middle" x="807" y="-7" font-family="Helvetica,sans-Serif" font-size="10.00">boost/version.hpp</text>
</g>
<!-- Node2&#45;&gt;Node4 -->
<g id="edge3" class="edge"><title>Node2&#45;&gt;Node4</title>
<path fill="none" stroke="midnightblue" d="M807,-58.7527C807,-51.2504 807,-40.4238 807,-31.0781"/>
<polygon fill="midnightblue" stroke="midnightblue" points="810.5,-31.0752 807,-21.0752 803.5,-31.0752 810.5,-31.0752"/>
</g>
<!-- Node5 -->
<g id="node5" class="node"><title>Node5</title>
<polygon fill="white" stroke="#bfbfbf" points="872.621,-1 872.621,-21 1005.38,-21 1005.38,-1 872.621,-1"/>
<text text-anchor="middle" x="939" y="-7" font-family="Helvetica,sans-Serif" font-size="10.00">boost/checked_delete.hpp</text>
</g>
<!-- Node2&#45;&gt;Node5 -->
<g id="edge4" class="edge"><title>Node2&#45;&gt;Node5</title>
<path fill="none" stroke="midnightblue" d="M828.502,-58.878C850.172,-49.6848 883.821,-35.4095 908.295,-25.0263"/>
<polygon fill="midnightblue" stroke="midnightblue" points="909.668,-28.2457 917.507,-21.1181 906.935,-21.8016 909.668,-28.2457"/>
</g>
<!-- Node7 -->
<g id="node7" class="node"><title>Node7</title>
<g id="a_node7"><a xlink:href="_vector_8h.html" target="_top" xlink:title="cinder/Vector.h">
<polygon fill="white" stroke="black" points="231.919,-175 231.919,-195 314.081,-195 314.081,-175 231.919,-175"/>
<text text-anchor="middle" x="273" y="-181" font-family="Helvetica,sans-Serif" font-size="10.00">cinder/Vector.h</text>
</a>
</g>
</g>
<!-- Node6&#45;&gt;Node7 -->
<g id="edge6" class="edge"><title>Node6&#45;&gt;Node7</title>
<path fill="none" stroke="midnightblue" d="M343.669,-406.871C324.764,-399.293 299.615,-386.999 282,-370 260.658,-349.405 262.223,-338.547 249,-312 232.391,-278.656 209.203,-266.186 224,-232 229.359,-219.619 239.873,-209.038 249.792,-201.157"/>
<polygon fill="midnightblue" stroke="midnightblue" points="251.899,-203.952 257.858,-195.191 247.737,-198.324 251.899,-203.952"/>
</g>
<!-- Node17 -->
<g id="node17" class="node"><title>Node17</title>
<g id="a_node17"><a xlink:href="_rect_8h.html" target="_top" xlink:title="cinder/Rect.h">
<polygon fill="white" stroke="black" points="367.542,-291 367.542,-311 442.458,-311 442.458,-291 367.542,-291"/>
<text text-anchor="middle" x="405" y="-297" font-family="Helvetica,sans-Serif" font-size="10.00">cinder/Rect.h</text>
</a>
</g>
</g>
<!-- Node6&#45;&gt;Node17 -->
<g id="edge18" class="edge"><title>Node6&#45;&gt;Node17</title>
<path fill="none" stroke="midnightblue" d="M373.356,-406.892C376.717,-397.651 381.956,-382.91 386,-370 391.147,-353.571 396.365,-334.701 400.028,-321.013"/>
<polygon fill="midnightblue" stroke="midnightblue" points="403.425,-321.855 402.6,-311.293 396.658,-320.065 403.425,-321.855"/>
</g>
<!-- Node21 -->
<g id="node21" class="node"><title>Node21</title>
<g id="a_node21"><a xlink:href="_path2d_8h.html" target="_top" xlink:title="cinder/Path2d.h">
<polygon fill="white" stroke="black" points="290.976,-349 290.976,-369 377.024,-369 377.024,-349 290.976,-349"/>
<text text-anchor="middle" x="334" y="-355" font-family="Helvetica,sans-Serif" font-size="10.00">cinder/Path2d.h</text>
</a>
</g>
</g>
<!-- Node6&#45;&gt;Node21 -->
<g id="edge27" class="edge"><title>Node6&#45;&gt;Node21</title>
<path fill="none" stroke="midnightblue" d="M364.055,-406.753C358.97,-398.843 351.51,-387.237 345.294,-377.568"/>
<polygon fill="midnightblue" stroke="midnightblue" points="348.186,-375.594 339.834,-369.075 342.298,-379.38 348.186,-375.594"/>
</g>
<!-- Node25 -->
<g id="node25" class="node"><title>Node25</title>
<g id="a_node25"><a xlink:href="_matrix_affine2_8h.html" target="_top" xlink:title="cinder/MatrixAffine2.h">
<polygon fill="white" stroke="black" points="32.6455,-233 32.6455,-253 145.354,-253 145.354,-233 32.6455,-233"/>
<text text-anchor="middle" x="89" y="-239" font-family="Helvetica,sans-Serif" font-size="10.00">cinder/MatrixAffine2.h</text>
</a>
</g>
</g>
<!-- Node6&#45;&gt;Node25 -->
<g id="edge43" class="edge"><title>Node6&#45;&gt;Node25</title>
<path fill="none" stroke="midnightblue" d="M322.684,-416.509C276.652,-414.693 206.845,-405.561 159,-370 122.475,-342.853 102.518,-290.689 94.0224,-262.752"/>
<polygon fill="midnightblue" stroke="midnightblue" points="97.3535,-261.671 91.233,-253.023 90.6246,-263.6 97.3535,-261.671"/>
</g>
<!-- Node6&#45;&gt;Node20 -->
<g id="edge44" class="edge"><title>Node6&#45;&gt;Node20</title>
<path fill="none" stroke="midnightblue" d="M382.624,-406.827C413.022,-384.147 491.086,-322.302 536,-254 546.01,-238.777 553.279,-219.265 557.736,-205.049"/>
<polygon fill="midnightblue" stroke="midnightblue" points="561.119,-205.952 560.595,-195.37 554.406,-203.969 561.119,-205.952"/>
</g>
<!-- Node8 -->
<g id="node8" class="node"><title>Node8</title>
<polygon fill="white" stroke="#bfbfbf" points="195.384,-59 195.384,-79 238.616,-79 238.616,-59 195.384,-59"/>
<text text-anchor="middle" x="217" y="-65" font-family="Helvetica,sans-Serif" font-size="10.00">cmath</text>
</g>
<!-- Node7&#45;&gt;Node8 -->
<g id="edge7" class="edge"><title>Node7&#45;&gt;Node8</title>
<path fill="none" stroke="midnightblue" d="M263.82,-174.935C255.451,-166.19 243.311,-152.219 236,-138 228.039,-122.517 223.063,-103.283 220.211,-89.2259"/>
<polygon fill="midnightblue" stroke="midnightblue" points="223.623,-88.4292 218.362,-79.2329 216.74,-89.7028 223.623,-88.4292"/>
</g>
<!-- Node9 -->
<g id="node9" class="node"><title>Node9</title>
<polygon fill="white" stroke="#bfbfbf" points="301.273,-117 301.273,-137 346.727,-137 346.727,-117 301.273,-117"/>
<text text-anchor="middle" x="324" y="-123" font-family="Helvetica,sans-Serif" font-size="10.00">cstring</text>
</g>
<!-- Node7&#45;&gt;Node9 -->
<g id="edge8" class="edge"><title>Node7&#45;&gt;Node9</title>
<path fill="none" stroke="midnightblue" d="M281.422,-174.753C288.848,-166.598 299.852,-154.516 308.812,-144.677"/>
<polygon fill="midnightblue" stroke="midnightblue" points="311.589,-146.825 315.735,-137.075 306.414,-142.112 311.589,-146.825"/>
</g>
<!-- Node10 -->
<g id="node10" class="node"><title>Node10</title>
<polygon fill="white" stroke="#bfbfbf" points="430.828,-117 430.828,-137 485.172,-137 485.172,-117 430.828,-117"/>
<text text-anchor="middle" x="458" y="-123" font-family="Helvetica,sans-Serif" font-size="10.00">iostream</text>
</g>
<!-- Node7&#45;&gt;Node10 -->
<g id="edge9" class="edge"><title>Node7&#45;&gt;Node10</title>
<path fill="none" stroke="midnightblue" d="M303.135,-174.878C335.285,-165.146 386.249,-149.719 420.858,-139.243"/>
<polygon fill="midnightblue" stroke="midnightblue" points="422.037,-142.543 430.595,-136.296 420.009,-135.843 422.037,-142.543"/>
</g>
<!-- Node11 -->
<g id="node11" class="node"><title>Node11</title>
<polygon fill="white" stroke="#bfbfbf" points="364.884,-117 364.884,-137 413.116,-137 413.116,-117 364.884,-117"/>
<text text-anchor="middle" x="389" y="-123" font-family="Helvetica,sans-Serif" font-size="10.00">cassert</text>
</g>
<!-- Node7&#45;&gt;Node11 -->
<g id="edge10" class="edge"><title>Node7&#45;&gt;Node11</title>
<path fill="none" stroke="midnightblue" d="M291.896,-174.878C310.602,-165.847 339.466,-151.913 360.868,-141.581"/>
<polygon fill="midnightblue" stroke="midnightblue" points="362.629,-144.618 370.113,-137.118 359.585,-138.314 362.629,-144.618"/>
</g>
<!-- Node12 -->
<g id="node12" class="node"><title>Node12</title>
<polygon fill="white" stroke="#bfbfbf" points="244.613,-117 244.613,-137 283.387,-137 283.387,-117 244.613,-117"/>
<text text-anchor="middle" x="264" y="-123" font-family="Helvetica,sans-Serif" font-size="10.00">limits</text>
</g>
<!-- Node7&#45;&gt;Node12 -->
<g id="edge11" class="edge"><title>Node7&#45;&gt;Node12</title>
<path fill="none" stroke="midnightblue" d="M271.514,-174.753C270.308,-167.25 268.568,-156.424 267.066,-147.078"/>
<polygon fill="midnightblue" stroke="midnightblue" points="270.501,-146.393 265.459,-137.075 263.59,-147.504 270.501,-146.393"/>
</g>
<!-- Node13 -->
<g id="node13" class="node"><title>Node13</title>
<g id="a_node13"><a xlink:href="_cinder_math_8h.html" target="_top" xlink:title="cinder/CinderMath.h">
<polygon fill="white" stroke="black" points="44.978,-117 44.978,-137 151.022,-137 151.022,-117 44.978,-117"/>
<text text-anchor="middle" x="98" y="-123" font-family="Helvetica,sans-Serif" font-size="10.00">cinder/CinderMath.h</text>
</a>
</g>
</g>
<!-- Node7&#45;&gt;Node13 -->
<g id="edge12" class="edge"><title>Node7&#45;&gt;Node13</title>
<path fill="none" stroke="midnightblue" d="M244.494,-174.878C214.914,-165.413 168.499,-150.56 135.858,-140.115"/>
<polygon fill="midnightblue" stroke="midnightblue" points="136.795,-136.74 126.204,-137.025 134.662,-143.407 136.795,-136.74"/>
</g>
<!-- Node13&#45;&gt;Node2 -->
<g id="edge13" class="edge"><title>Node13&#45;&gt;Node2</title>
<path fill="none" stroke="midnightblue" d="M151.346,-117.661C155.958,-117.055 160.558,-116.49 165,-116 383.696,-91.8803 645.765,-77.6511 755.115,-72.3665"/>
<polygon fill="midnightblue" stroke="midnightblue" points="755.392,-75.8574 765.213,-71.883 755.057,-68.8654 755.392,-75.8574"/>
</g>
<!-- Node13&#45;&gt;Node8 -->
<g id="edge14" class="edge"><title>Node13&#45;&gt;Node8</title>
<path fill="none" stroke="midnightblue" d="M117.384,-116.878C136.661,-107.807 166.451,-93.7876 188.436,-83.4418"/>
<polygon fill="midnightblue" stroke="midnightblue" points="190.066,-86.543 197.624,-79.1181 187.086,-80.2093 190.066,-86.543"/>
</g>
<!-- Node14 -->
<g id="node14" class="node"><title>Node14</title>
<polygon fill="white" stroke="#bfbfbf" points="133.113,-59 133.113,-79 176.887,-79 176.887,-59 133.113,-59"/>
<text text-anchor="middle" x="155" y="-65" font-family="Helvetica,sans-Serif" font-size="10.00">climits</text>
</g>
<!-- Node13&#45;&gt;Node14 -->
<g id="edge15" class="edge"><title>Node13&#45;&gt;Node14</title>
<path fill="none" stroke="midnightblue" d="M107.412,-116.753C115.879,-108.435 128.504,-96.031 138.623,-86.0893"/>
<polygon fill="midnightblue" stroke="midnightblue" points="141.082,-88.5801 145.763,-79.0752 136.176,-83.5868 141.082,-88.5801"/>
</g>
<!-- Node15 -->
<g id="node15" class="node"><title>Node15</title>
<polygon fill="white" stroke="#bfbfbf" points="-0.950684,-59 -0.950684,-79 38.9507,-79 38.9507,-59 -0.950684,-59"/>
<text text-anchor="middle" x="19" y="-65" font-family="Helvetica,sans-Serif" font-size="10.00">cfloat</text>
</g>
<!-- Node13&#45;&gt;Node15 -->
<g id="edge16" class="edge"><title>Node13&#45;&gt;Node15</title>
<path fill="none" stroke="midnightblue" d="M84.9548,-116.753C72.7606,-108.109 54.341,-95.0518 40.0639,-84.9314"/>
<polygon fill="midnightblue" stroke="midnightblue" points="41.9848,-82.0029 31.8025,-79.0752 37.9367,-87.7137 41.9848,-82.0029"/>
</g>
<!-- Node16 -->
<g id="node16" class="node"><title>Node16</title>
<polygon fill="white" stroke="#bfbfbf" points="56.5962,-59 56.5962,-79 115.404,-79 115.404,-59 56.5962,-59"/>
<text text-anchor="middle" x="86" y="-65" font-family="Helvetica,sans-Serif" font-size="10.00">functional</text>
</g>
<!-- Node13&#45;&gt;Node16 -->
<g id="edge17" class="edge"><title>Node13&#45;&gt;Node16</title>
<path fill="none" stroke="midnightblue" d="M96.0184,-116.753C94.4108,-109.25 92.0908,-98.4238 90.0882,-89.0781"/>
<polygon fill="midnightblue" stroke="midnightblue" points="93.4624,-88.1198 87.9447,-79.0752 86.6177,-89.5866 93.4624,-88.1198"/>
</g>
<!-- Node17&#45;&gt;Node7 -->
<g id="edge19" class="edge"><title>Node17&#45;&gt;Node7</title>
<path fill="none" stroke="midnightblue" d="M396.466,-290.762C383.81,-277.258 359.069,-251.604 336,-232 323.046,-220.991 307.647,-209.718 295.317,-201.087"/>
<polygon fill="midnightblue" stroke="midnightblue" points="297.176,-198.117 286.96,-195.311 293.196,-203.876 297.176,-198.117"/>
</g>
<!-- Node18 -->
<g id="node18" class="node"><title>Node18</title>
<g id="a_node18"><a xlink:href="_area_8h.html" target="_top" xlink:title="cinder/Area.h">
<polygon fill="white" stroke="black" points="383.261,-233 383.261,-253 458.739,-253 458.739,-233 383.261,-233"/>
<text text-anchor="middle" x="421" y="-239" font-family="Helvetica,sans-Serif" font-size="10.00">cinder/Area.h</text>
</a>
</g>
</g>
<!-- Node17&#45;&gt;Node18 -->
<g id="edge20" class="edge"><title>Node17&#45;&gt;Node18</title>
<path fill="none" stroke="midnightblue" d="M407.642,-290.753C409.809,-283.169 412.946,-272.188 415.636,-262.774"/>
<polygon fill="midnightblue" stroke="midnightblue" points="419.025,-263.652 418.407,-253.075 412.294,-261.729 419.025,-263.652"/>
</g>
<!-- Node17&#45;&gt;Node20 -->
<g id="edge26" class="edge"><title>Node17&#45;&gt;Node20</title>
<path fill="none" stroke="midnightblue" d="M417.663,-290.864C444.82,-271.269 508.888,-225.043 542.147,-201.046"/>
<polygon fill="midnightblue" stroke="midnightblue" points="544.215,-203.869 550.277,-195.18 540.12,-198.193 544.215,-203.869"/>
</g>
<!-- Node18&#45;&gt;Node2 -->
<g id="edge21" class="edge"><title>Node18&#45;&gt;Node2</title>
<path fill="none" stroke="midnightblue" d="M432.706,-232.951C462.873,-210.052 546.414,-149.265 625,-116 667.248,-98.1167 718.062,-85.992 755.249,-78.7001"/>
<polygon fill="midnightblue" stroke="midnightblue" points="756.191,-82.0835 765.358,-76.7708 754.879,-75.2076 756.191,-82.0835"/>
</g>
<!-- Node18&#45;&gt;Node7 -->
<g id="edge22" class="edge"><title>Node18&#45;&gt;Node7</title>
<path fill="none" stroke="midnightblue" d="M396.892,-232.878C372.38,-223.603 334.199,-209.156 306.7,-198.752"/>
<polygon fill="midnightblue" stroke="midnightblue" points="307.689,-195.384 297.098,-195.118 305.212,-201.931 307.689,-195.384"/>
</g>
<!-- Node18&#45;&gt;Node10 -->
<g id="edge23" class="edge"><title>Node18&#45;&gt;Node10</title>
<path fill="none" stroke="midnightblue" d="M424.859,-232.935C428.705,-223.728 434.648,-209.013 439,-196 444.46,-179.672 449.648,-160.792 453.219,-147.075"/>
<polygon fill="midnightblue" stroke="midnightblue" points="456.625,-147.884 455.71,-137.329 449.843,-146.15 456.625,-147.884"/>
</g>
<!-- Node19 -->
<g id="node19" class="node"><title>Node19</title>
<polygon fill="white" stroke="#bfbfbf" points="391.608,-175 391.608,-195 430.392,-195 430.392,-175 391.608,-175"/>
<text text-anchor="middle" x="411" y="-181" font-family="Helvetica,sans-Serif" font-size="10.00">utility</text>
</g>
<!-- Node18&#45;&gt;Node19 -->
<g id="edge24" class="edge"><title>Node18&#45;&gt;Node19</title>
<path fill="none" stroke="midnightblue" d="M419.349,-232.753C418.009,-225.25 416.076,-214.424 414.407,-205.078"/>
<polygon fill="midnightblue" stroke="midnightblue" points="417.824,-204.304 412.621,-195.075 410.933,-205.535 417.824,-204.304"/>
</g>
<!-- Node18&#45;&gt;Node20 -->
<g id="edge25" class="edge"><title>Node18&#45;&gt;Node20</title>
<path fill="none" stroke="midnightblue" d="M444.131,-232.878C467.963,-223.479 505.266,-208.769 531.72,-198.336"/>
<polygon fill="midnightblue" stroke="midnightblue" points="533.259,-201.491 541.277,-194.567 530.691,-194.979 533.259,-201.491"/>
</g>
<!-- Node21&#45;&gt;Node7 -->
<g id="edge28" class="edge"><title>Node21&#45;&gt;Node7</title>
<path fill="none" stroke="midnightblue" d="M319.002,-348.767C294.84,-332.897 248.175,-297.879 230,-254 222.062,-234.837 237.803,-215.024 252.422,-201.764"/>
<polygon fill="midnightblue" stroke="midnightblue" points="254.901,-204.251 260.271,-195.118 250.378,-198.909 254.901,-204.251"/>
</g>
<!-- Node22 -->
<g id="node22" class="node"><title>Node22</title>
<g id="a_node22"><a xlink:href="_b_spline_8h.html" target="_top" xlink:title="cinder/BSpline.h">
<polygon fill="white" stroke="black" points="238.589,-233 238.589,-253 327.411,-253 327.411,-233 238.589,-233"/>
<text text-anchor="middle" x="283" y="-239" font-family="Helvetica,sans-Serif" font-size="10.00">cinder/BSpline.h</text>
</a>
</g>
</g>
<!-- Node21&#45;&gt;Node22 -->
<g id="edge29" class="edge"><title>Node21&#45;&gt;Node22</title>
<path fill="none" stroke="midnightblue" d="M329.826,-348.671C321.417,-329.873 302.298,-287.136 291.266,-262.478"/>
<polygon fill="midnightblue" stroke="midnightblue" points="294.367,-260.838 287.089,-253.139 287.978,-263.697 294.367,-260.838"/>
</g>
<!-- Node21&#45;&gt;Node17 -->
<g id="edge32" class="edge"><title>Node21&#45;&gt;Node17</title>
<path fill="none" stroke="midnightblue" d="M345.724,-348.753C356.477,-340.272 372.615,-327.543 385.339,-317.507"/>
<polygon fill="midnightblue" stroke="midnightblue" points="387.81,-320.016 393.494,-311.075 383.475,-314.52 387.81,-320.016"/>
</g>
<!-- Node21&#45;&gt;Node23 -->
<g id="edge33" class="edge"><title>Node21&#45;&gt;Node23</title>
<path fill="none" stroke="midnightblue" d="M367.308,-348.959C442.817,-328.464 626.957,-278.483 710.955,-255.684"/>
<polygon fill="midnightblue" stroke="midnightblue" points="711.955,-259.039 720.689,-253.042 710.121,-252.283 711.955,-259.039"/>
</g>
<!-- Node21&#45;&gt;Node25 -->
<g id="edge37" class="edge"><title>Node21&#45;&gt;Node25</title>
<path fill="none" stroke="midnightblue" d="M314.275,-348.841C294.293,-339.561 262.494,-324.79 235,-312 194.228,-293.033 147.065,-271.061 117.631,-257.344"/>
<polygon fill="midnightblue" stroke="midnightblue" points="118.906,-254.077 108.363,-253.025 115.949,-260.422 118.906,-254.077"/>
</g>
<!-- Node21&#45;&gt;Node20 -->
<g id="edge42" class="edge"><title>Node21&#45;&gt;Node20</title>
<path fill="none" stroke="midnightblue" d="M368.864,-348.998C393.301,-341.607 425.944,-329.489 451,-312 494.796,-281.431 533.064,-230.419 551.431,-203.642"/>
<polygon fill="midnightblue" stroke="midnightblue" points="554.396,-205.505 557.074,-195.254 548.588,-201.597 554.396,-205.505"/>
</g>
<!-- Node22&#45;&gt;Node20 -->
<g id="edge30" class="edge"><title>Node22&#45;&gt;Node20</title>
<path fill="none" stroke="midnightblue" d="M327.676,-233.065C384.614,-221.677 481.61,-202.278 531.423,-192.315"/>
<polygon fill="midnightblue" stroke="midnightblue" points="532.186,-195.732 541.305,-190.339 530.813,-188.868 532.186,-195.732"/>
</g>
<!-- Node22&#45;&gt;Node7 -->
<g id="edge31" class="edge"><title>Node22&#45;&gt;Node7</title>
<path fill="none" stroke="midnightblue" d="M281.349,-232.753C280.009,-225.25 278.076,-214.424 276.407,-205.078"/>
<polygon fill="midnightblue" stroke="midnightblue" points="279.824,-204.304 274.621,-195.075 272.933,-205.535 279.824,-204.304"/>
</g>
<!-- Node23&#45;&gt;Node2 -->
<g id="edge34" class="edge"><title>Node23&#45;&gt;Node2</title>
<path fill="none" stroke="midnightblue" d="M756.85,-232.753C765.189,-205.688 789.675,-126.224 801.057,-89.2864"/>
<polygon fill="midnightblue" stroke="midnightblue" points="804.536,-89.8805 804.136,-79.2932 797.847,-87.8191 804.536,-89.8805"/>
</g>
<!-- Node23&#45;&gt;Node20 -->
<g id="edge35" class="edge"><title>Node23&#45;&gt;Node20</title>
<path fill="none" stroke="midnightblue" d="M722.887,-232.878C687.578,-222.526 630.289,-205.729 594.727,-195.302"/>
<polygon fill="midnightblue" stroke="midnightblue" points="595.454,-191.868 584.873,-192.413 593.484,-198.585 595.454,-191.868"/>
</g>
<!-- Node23&#45;&gt;Node24 -->
<g id="edge36" class="edge"><title>Node23&#45;&gt;Node24</title>
<path fill="none" stroke="midnightblue" d="M803.313,-233.165C806.248,-232.742 809.16,-232.35 812,-232 1036.72,-204.33 1309.6,-191.067 1399.6,-187.223"/>
<polygon fill="midnightblue" stroke="midnightblue" points="1399.81,-190.717 1409.66,-186.8 1399.52,-183.723 1399.81,-190.717"/>
</g>
<!-- Node25&#45;&gt;Node2 -->
<g id="edge38" class="edge"><title>Node25&#45;&gt;Node2</title>
<path fill="none" stroke="midnightblue" d="M104.992,-232.893C119.655,-224.225 141.658,-210.399 159,-196 196.968,-164.475 191.403,-137.129 236,-116 327.043,-72.8665 631.599,-69.1941 754.706,-69.539"/>
<polygon fill="midnightblue" stroke="midnightblue" points="754.984,-73.04 764.998,-69.5785 755.011,-66.0401 754.984,-73.04"/>
</g>
<!-- Node25&#45;&gt;Node13 -->
<g id="edge39" class="edge"><title>Node25&#45;&gt;Node13</title>
<path fill="none" stroke="midnightblue" d="M88.6758,-232.736C88.3215,-219.626 88.0389,-194.924 90,-174 90.832,-165.122 92.4261,-155.381 93.9737,-147.157"/>
<polygon fill="midnightblue" stroke="midnightblue" points="97.4545,-147.599 95.9793,-137.107 90.5898,-146.229 97.4545,-147.599"/>
</g>
<!-- Node25&#45;&gt;Node7 -->
<g id="edge40" class="edge"><title>Node25&#45;&gt;Node7</title>
<path fill="none" stroke="midnightblue" d="M118.972,-232.878C150.207,-223.372 199.296,-208.432 233.638,-197.98"/>
<polygon fill="midnightblue" stroke="midnightblue" points="234.798,-201.285 243.345,-195.025 232.76,-194.589 234.798,-201.285"/>
</g>
<!-- Node26 -->
<g id="node26" class="node"><title>Node26</title>
<polygon fill="white" stroke="#bfbfbf" points="99.4902,-175 99.4902,-195 150.51,-195 150.51,-175 99.4902,-175"/>
<text text-anchor="middle" x="125" y="-181" font-family="Helvetica,sans-Serif" font-size="10.00">iomanip</text>
</g>
<!-- Node25&#45;&gt;Node26 -->
<g id="edge41" class="edge"><title>Node25&#45;&gt;Node26</title>
<path fill="none" stroke="midnightblue" d="M94.9447,-232.753C100.03,-224.843 107.49,-213.237 113.706,-203.568"/>
<polygon fill="midnightblue" stroke="midnightblue" points="116.702,-205.38 119.166,-195.075 110.814,-201.594 116.702,-205.38"/>
</g>
<!-- Node27&#45;&gt;Node2 -->
<g id="edge47" class="edge"><title>Node27&#45;&gt;Node2</title>
<path fill="none" stroke="midnightblue" d="M1027.71,-412.514C1193.48,-400.434 1683.6,-354.21 1644,-232 1609.68,-126.097 1531.25,-137.373 1422,-116 1216.33,-75.7653 965.645,-70.1651 859.01,-69.7582"/>
<polygon fill="midnightblue" stroke="midnightblue" points="858.852,-66.2579 848.844,-69.7337 858.835,-73.2579 858.852,-66.2579"/>
</g>
<!-- Node28 -->
<g id="node28" class="node"><title>Node28</title>
<g id="a_node28"><a xlink:href="_url_8h.html" target="_top" xlink:title="cinder/Url.h">
<polygon fill="white" stroke="black" points="905.436,-349 905.436,-369 972.564,-369 972.564,-349 905.436,-349"/>
<text text-anchor="middle" x="939" y="-355" font-family="Helvetica,sans-Serif" font-size="10.00">cinder/Url.h</text>
</a>
</g>
</g>
<!-- Node27&#45;&gt;Node28 -->
<g id="edge48" class="edge"><title>Node27&#45;&gt;Node28</title>
<path fill="none" stroke="midnightblue" d="M968.22,-406.753C963.277,-398.843 956.023,-387.237 949.98,-377.568"/>
<polygon fill="midnightblue" stroke="midnightblue" points="952.94,-375.7 944.672,-369.075 947.004,-379.41 952.94,-375.7"/>
</g>
<!-- Node30 -->
<g id="node30" class="node"><title>Node30</title>
<g id="a_node30"><a xlink:href="_buffer_8h.html" target="_top" xlink:title="cinder/Buffer.h">
<polygon fill="white" stroke="black" points="820.844,-233 820.844,-253 901.156,-253 901.156,-233 820.844,-233"/>
<text text-anchor="middle" x="861" y="-239" font-family="Helvetica,sans-Serif" font-size="10.00">cinder/Buffer.h</text>
</a>
</g>
</g>
<!-- Node27&#45;&gt;Node30 -->
<g id="edge63" class="edge"><title>Node27&#45;&gt;Node30</title>
<path fill="none" stroke="midnightblue" d="M948.721,-406.981C931.469,-399.582 909.398,-387.462 896,-370 871.562,-338.148 864.185,-290.181 861.96,-263.559"/>
<polygon fill="midnightblue" stroke="midnightblue" points="865.431,-263.008 861.272,-253.264 858.447,-263.475 865.431,-263.008"/>
</g>
<!-- Node29 -->
<g id="node29" class="node"><title>Node29</title>
<g id="a_node29"><a xlink:href="_stream_8h.html" target="_top" xlink:title="cinder/Stream.h">
<polygon fill="white" stroke="black" points="984.707,-291 984.707,-311 1071.29,-311 1071.29,-291 984.707,-291"/>
<text text-anchor="middle" x="1028" y="-297" font-family="Helvetica,sans-Serif" font-size="10.00">cinder/Stream.h</text>
</a>
</g>
</g>
<!-- Node27&#45;&gt;Node29 -->
<g id="edge64" class="edge"><title>Node27&#45;&gt;Node29</title>
<path fill="none" stroke="midnightblue" d="M978.419,-406.671C987.323,-387.873 1007.57,-345.136 1019.25,-320.478"/>
<polygon fill="midnightblue" stroke="midnightblue" points="1022.55,-321.675 1023.67,-311.139 1016.23,-318.678 1022.55,-321.675"/>
</g>
<!-- Node31 -->
<g id="node31" class="node"><title>Node31</title>
<g id="a_node31"><a xlink:href="_filesystem_8h.html" target="_top" xlink:title="cinder/Filesystem.h">
<polygon fill="white" stroke="black" points="1532.93,-233 1532.93,-253 1635.07,-253 1635.07,-233 1532.93,-233"/>
<text text-anchor="middle" x="1584" y="-239" font-family="Helvetica,sans-Serif" font-size="10.00">cinder/Filesystem.h</text>
</a>
</g>
</g>
<!-- Node27&#45;&gt;Node31 -->
<g id="edge65" class="edge"><title>Node27&#45;&gt;Node31</title>
<path fill="none" stroke="midnightblue" d="M1005.94,-406.995C1108.14,-378.177 1427.19,-288.214 1542.17,-255.795"/>
<polygon fill="midnightblue" stroke="midnightblue" points="1543.34,-259.102 1552.01,-253.02 1541.44,-252.365 1543.34,-259.102"/>
</g>
<!-- Node28&#45;&gt;Node2 -->
<g id="edge49" class="edge"><title>Node28&#45;&gt;Node2</title>
<path fill="none" stroke="midnightblue" d="M937.651,-348.862C934.922,-329.549 929,-283.139 929,-244 929,-244 929,-244 929,-184 929,-134.771 875.312,-100.689 839.166,-83.3216"/>
<polygon fill="midnightblue" stroke="midnightblue" points="840.494,-80.0795 829.947,-79.0673 837.561,-86.4354 840.494,-80.0795"/>
</g>
<!-- Node28&#45;&gt;Node29 -->
<g id="edge50" class="edge"><title>Node28&#45;&gt;Node29</title>
<path fill="none" stroke="midnightblue" d="M953.697,-348.753C967.564,-340.027 988.578,-326.805 1004.72,-316.646"/>
<polygon fill="midnightblue" stroke="midnightblue" points="1006.98,-319.363 1013.58,-311.075 1003.25,-313.438 1006.98,-319.363"/>
</g>
<!-- Node28&#45;&gt;Node10 -->
<g id="edge62" class="edge"><title>Node28&#45;&gt;Node10</title>
<path fill="none" stroke="midnightblue" d="M911.67,-348.9C865.517,-332.973 769.936,-297.557 696,-254 646.058,-224.578 644.023,-201.503 593,-174 561.65,-157.101 522.911,-144.67 494.983,-137.021"/>
<polygon fill="midnightblue" stroke="midnightblue" points="495.78,-133.612 485.216,-134.42 493.979,-140.376 495.78,-133.612"/>
</g>
<!-- Node29&#45;&gt;Node2 -->
<g id="edge51" class="edge"><title>Node29&#45;&gt;Node2</title>
<path fill="none" stroke="midnightblue" d="M1017.26,-290.791C1007.8,-282.156 994.29,-268.444 986,-254 954.023,-198.282 987.875,-161.97 943,-116 920.903,-93.3639 887.29,-81.8661 859.01,-76.0263"/>
<polygon fill="midnightblue" stroke="midnightblue" points="859.338,-72.5268 848.864,-74.1206 858.046,-79.4065 859.338,-72.5268"/>
</g>
<!-- Node29&#45;&gt;Node30 -->
<g id="edge52" class="edge"><title>Node29&#45;&gt;Node30</title>
<path fill="none" stroke="midnightblue" d="M1000.8,-290.878C972.691,-281.453 928.658,-266.688 897.531,-256.25"/>
<polygon fill="midnightblue" stroke="midnightblue" points="898.509,-252.886 887.915,-253.025 896.283,-259.523 898.509,-252.886"/>
</g>
<!-- Node29&#45;&gt;Node23 -->
<g id="edge54" class="edge"><title>Node29&#45;&gt;Node23</title>
<path fill="none" stroke="midnightblue" d="M984.584,-291.127C936.768,-281.354 859.817,-265.627 808.109,-255.059"/>
<polygon fill="midnightblue" stroke="midnightblue" points="808.619,-251.591 798.12,-253.017 807.217,-258.449 808.619,-251.591"/>
</g>
<!-- Node29&#45;&gt;Node31 -->
<g id="edge55" class="edge"><title>Node29&#45;&gt;Node31</title>
<path fill="none" stroke="midnightblue" d="M1071.63,-295.606C1169.94,-285.704 1409,-261.626 1522.38,-250.206"/>
<polygon fill="midnightblue" stroke="midnightblue" points="1523.03,-253.659 1532.63,-249.174 1522.33,-246.694 1523.03,-253.659"/>
</g>
<!-- Node33 -->
<g id="node33" class="node"><title>Node33</title>
<polygon fill="white" stroke="#bfbfbf" points="995.291,-233 995.291,-253 1114.71,-253 1114.71,-233 995.291,-233"/>
<text text-anchor="middle" x="1055" y="-239" font-family="Helvetica,sans-Serif" font-size="10.00">boost/noncopyable.hpp</text>
</g>
<!-- Node29&#45;&gt;Node33 -->
<g id="edge58" class="edge"><title>Node29&#45;&gt;Node33</title>
<path fill="none" stroke="midnightblue" d="M1032.46,-290.753C1036.19,-283.006 1041.64,-271.714 1046.24,-262.169"/>
<polygon fill="midnightblue" stroke="midnightblue" points="1049.43,-263.603 1050.62,-253.075 1043.13,-260.563 1049.43,-263.603"/>
</g>
<!-- Node29&#45;&gt;Node24 -->
<g id="edge59" class="edge"><title>Node29&#45;&gt;Node24</title>
<path fill="none" stroke="midnightblue" d="M1071.63,-298.443C1173.88,-294.345 1422.24,-281.623 1447,-254 1459.38,-240.192 1451,-218.73 1442.18,-203.618"/>
<polygon fill="midnightblue" stroke="midnightblue" points="1445.13,-201.73 1436.82,-195.154 1439.22,-205.475 1445.13,-201.73"/>
</g>
<!-- Node34 -->
<g id="node34" class="node"><title>Node34</title>
<polygon fill="white" stroke="#bfbfbf" points="1132.57,-233 1132.57,-253 1281.43,-253 1281.43,-233 1132.57,-233"/>
<text text-anchor="middle" x="1207" y="-239" font-family="Helvetica,sans-Serif" font-size="10.00">boost/iostreams/concepts.hpp</text>
</g>
<!-- Node29&#45;&gt;Node34 -->
<g id="edge60" class="edge"><title>Node29&#45;&gt;Node34</title>
<path fill="none" stroke="midnightblue" d="M1057.16,-290.878C1087.41,-281.413 1134.89,-266.56 1168.28,-256.115"/>
<polygon fill="midnightblue" stroke="midnightblue" points="1169.65,-259.352 1178.15,-253.025 1167.56,-252.671 1169.65,-259.352"/>
</g>
<!-- Node35 -->
<g id="node35" class="node"><title>Node35</title>
<polygon fill="white" stroke="#bfbfbf" points="1299.31,-233 1299.31,-253 1438.69,-253 1438.69,-233 1299.31,-233"/>
<text text-anchor="middle" x="1369" y="-239" font-family="Helvetica,sans-Serif" font-size="10.00">boost/iostreams/stream.hpp</text>
</g>
<!-- Node29&#45;&gt;Node35 -->
<g id="edge61" class="edge"><title>Node29&#45;&gt;Node35</title>
<path fill="none" stroke="midnightblue" d="M1071.53,-292.851C1130.37,-283.189 1235.74,-265.885 1303.98,-254.678"/>
<polygon fill="midnightblue" stroke="midnightblue" points="1304.88,-258.077 1314.18,-253.003 1303.75,-251.169 1304.88,-258.077"/>
</g>
<!-- Node30&#45;&gt;Node2 -->
<g id="edge53" class="edge"><title>Node30&#45;&gt;Node2</title>
<path fill="none" stroke="midnightblue" d="M858.097,-232.753C849.6,-205.688 824.652,-126.224 813.055,-89.2864"/>
<polygon fill="midnightblue" stroke="midnightblue" points="816.252,-87.7856 809.918,-79.2932 809.574,-89.8824 816.252,-87.7856"/>
</g>
<!-- Node31&#45;&gt;Node2 -->
<g id="edge56" class="edge"><title>Node31&#45;&gt;Node2</title>
<path fill="none" stroke="midnightblue" d="M1587.39,-232.768C1592.05,-218.324 1598.3,-190.347 1584,-174 1536.07,-119.223 1025.65,-83.3701 859.176,-73.0651"/>
<polygon fill="midnightblue" stroke="midnightblue" points="858.912,-69.5424 848.717,-72.4234 858.484,-76.5293 858.912,-69.5424"/>
</g>
<!-- Node32 -->
<g id="node32" class="node"><title>Node32</title>
<polygon fill="white" stroke="#bfbfbf" points="1468.42,-175 1468.42,-195 1575.58,-195 1575.58,-175 1468.42,-175"/>
<text text-anchor="middle" x="1522" y="-181" font-family="Helvetica,sans-Serif" font-size="10.00">boost/filesystem.hpp</text>
</g>
<!-- Node31&#45;&gt;Node32 -->
<g id="edge57" class="edge"><title>Node31&#45;&gt;Node32</title>
<path fill="none" stroke="midnightblue" d="M1573.76,-232.753C1564.46,-224.353 1550.55,-211.787 1539.49,-201.798"/>
<polygon fill="midnightblue" stroke="midnightblue" points="1541.81,-199.181 1532.05,-195.075 1537.12,-204.375 1541.81,-199.181"/>
</g>
</g>
</svg>
        <g id="navigator" transform="translate(0 0)" fill="#404254">
                <rect fill="#f2f5e9" fill-opacity="0.5" stroke="#606060" stroke-width=".5" x="0" y="0" width="60" height="60"/>
                <use id="zoomplus" xlink:href="#zoomPlus" x="17" y="9" onmousedown="handleZoom(evt,'in')"/>
                <use id="zoomminus" xlink:href="#zoomMin" x="42" y="9" onmousedown="handleZoom(evt,'out')"/>
                <use id="reset" xlink:href="#resetDef" x="30" y="36" onmousedown="handleReset()"/>
                <g id="arrowUp" xlink:href="#dirArrow" transform="translate(30 24)" onmousedown="handlePan(0,-1)">
                  <use xlink:href="#rim" fill="#404040">
                        <set attributeName="fill" to="#808080" begin="arrowUp.mouseover" end="arrowUp.mouseout"/>
                  </use>
                  <path fill="none" stroke="white" stroke-width="1.5" d="M0,-3.0v7 M-2.5,-0.5L0,-3.0L2.5,-0.5"/>
                </g>
                <g id="arrowRight" xlink:href="#dirArrow" transform="rotate(90) translate(36 -43)" onmousedown="handlePan(1,0)">
                  <use xlink:href="#rim" fill="#404040">
                        <set attributeName="fill" to="#808080" begin="arrowRight.mouseover" end="arrowRight.mouseout"/>
                  </use>
                  <path fill="none" stroke="white" stroke-width="1.5" d="M0,-3.0v7 M-2.5,-0.5L0,-3.0L2.5,-0.5"/>
                </g>
                <g id="arrowDown" xlink:href="#dirArrow" transform="rotate(180) translate(-30 -48)" onmousedown="handlePan(0,1)">
                  <use xlink:href="#rim" fill="#404040">
                        <set attributeName="fill" to="#808080" begin="arrowDown.mouseover" end="arrowDown.mouseout"/>
                  </use>
                  <path fill="none" stroke="white" stroke-width="1.5" d="M0,-3.0v7 M-2.5,-0.5L0,-3.0L2.5,-0.5"/>
                </g>
                <g id="arrowLeft" xlink:href="#dirArrow" transform="rotate(270) translate(-36 17)" onmousedown="handlePan(-1,0)">
                  <use xlink:href="#rim" fill="#404040">
                        <set attributeName="fill" to="#808080" begin="arrowLeft.mouseover" end="arrowLeft.mouseout"/>
                  </use>
                  <path fill="none" stroke="white" stroke-width="1.5" d="M0,-3.0v7 M-2.5,-0.5L0,-3.0L2.5,-0.5"/>
                </g>
        </g>
        <svg viewBox="0 0 15 15" width="100%" height="30px" preserveAspectRatio="xMaxYMin meet">
         <g id="arrow_out" transform="scale(0.3 0.3)">
          <a xlink:href="_font_8h__incl_org.svg" target="_base">
           <rect id="button" ry="5" rx="5" y="6" x="6" height="38" width="38"
                fill="#f2f5e9" fill-opacity="0.5" stroke="#606060" stroke-width="1.0"/>
           <path id="arrow"
             d="M 11.500037,31.436501 C 11.940474,20.09759 22.043105,11.32322 32.158766,21.979434 L 37.068811,17.246167 C 37.068811,17.246167 37.088388,32 37.088388,32 L 22.160133,31.978069 C 22.160133,31.978069 26.997745,27.140456 26.997745,27.140456 C 18.528582,18.264221 13.291696,25.230495 11.500037,31.436501 z"
             style="fill:#404040;"/>
          </a>
         </g>
        </svg>
</svg>
