<?xml version="1.0" encoding="UTF-8" standalone="no"?>
<!DOCTYPE svg PUBLIC "-//W3C//DTD SVG 1.1//EN"
 "http://www.w3.org/Graphics/SVG/1.1/DTD/svg11.dtd">
<!-- Generated by graphviz version 2.30.1 (20140712.1814)
 -->
<!-- Title: src/cinder/gl/GLee.c Pages: 1 -->
<!--zoomable 146 -->
<svg id="main" version="1.1" xmlns="http://www.w3.org/2000/svg" xmlns:xlink="http://www.w3.org/1999/xlink" xml:space="preserve" onload="init(evt)">
<style type="text/css"><![CDATA[
.edge:hover path { stroke: red; }
.edge:hover polygon { stroke: red; fill: red; }
]]></style>
<script type="text/javascript"><![CDATA[
var edges = document.getElementsByTagName('g');
if (edges && edges.length) {
  for (var i=0;i<edges.length;i++) {
    if (edges[i].id.substr(0,4)=='edge') {
      edges[i].setAttribute('class','edge');
    }
  }
}
]]></script>
        <defs>
                <circle id="rim" cx="0" cy="0" r="7"/>
                <circle id="rim2" cx="0" cy="0" r="3.5"/>
                <g id="zoomPlus">
                        <use xlink:href="#rim" fill="#404040">
                                <set attributeName="fill" to="#808080" begin="zoomplus.mouseover" end="zoomplus.mouseout"/>
                        </use>
                        <path d="M-4,0h8M0,-4v8" fill="none" stroke="white" stroke-width="1.5" pointer-events="none"/>
                </g>
                <g id="zoomMin">
                        <use xlink:href="#rim" fill="#404040">
                                <set attributeName="fill" to="#808080" begin="zoomminus.mouseover" end="zoomminus.mouseout"/>
                        </use>
                        <path d="M-4,0h8" fill="none" stroke="white" stroke-width="1.5" pointer-events="none"/>
                </g>
                <g id="dirArrow">
                        <path fill="none" stroke="white" stroke-width="1.5" d="M0,-3.0v7 M-2.5,-0.5L0,-3.0L2.5,-0.5"/>
                </g>
               <g id="resetDef">
                       <use xlink:href="#rim2" fill="#404040">
                               <set attributeName="fill" to="#808080" begin="reset.mouseover" end="reset.mouseout"/>
                       </use>
               </g>
        </defs>

<script type="text/javascript">
var viewWidth = 1270;
var viewHeight = 146;
var sectionId = 'dynsection-0';
</script>
<script xlink:href="svgpan.js"/>
<svg id="graph" class="graph">
<g id="viewport">
<title>src/cinder/gl/GLee.c</title>
<polygon fill="white" stroke="white" points="-4,5 -4,-142 1267,-142 1267,5 -4,5"/>
<!-- Node1 -->
<g id="node1" class="node"><title>Node1</title>
<polygon fill="#bfbfbf" stroke="black" points="472.537,-117 472.537,-137 577.463,-137 577.463,-117 472.537,-117"/>
<text text-anchor="middle" x="525" y="-123" font-family="Helvetica,sans-Serif" font-size="10.00">src/cinder/gl/GLee.c</text>
</g>
<!-- Node2 -->
<g id="node2" class="node"><title>Node2</title>
<polygon fill="white" stroke="#bfbfbf" points="404.269,-59 404.269,-79 449.731,-79 449.731,-59 404.269,-59"/>
<text text-anchor="middle" x="427" y="-65" font-family="Helvetica,sans-Serif" font-size="10.00">stdio.h</text>
</g>
<!-- Node1&#45;&gt;Node2 -->
<g id="edge1" class="edge"><title>Node1&#45;&gt;Node2</title>
<path fill="none" stroke="midnightblue" d="M508.817,-116.753C493.262,-107.864 469.541,-94.3092 451.639,-84.0793"/>
<polygon fill="midnightblue" stroke="midnightblue" points="453.301,-80.9978 442.882,-79.0752 449.828,-87.0755 453.301,-80.9978"/>
</g>
<!-- Node3 -->
<g id="node3" class="node"><title>Node3</title>
<polygon fill="white" stroke="#bfbfbf" points="468.158,-59 468.158,-79 515.842,-79 515.842,-59 468.158,-59"/>
<text text-anchor="middle" x="492" y="-65" font-family="Helvetica,sans-Serif" font-size="10.00">stdlib.h</text>
</g>
<!-- Node1&#45;&gt;Node3 -->
<g id="edge2" class="edge"><title>Node1&#45;&gt;Node3</title>
<path fill="none" stroke="midnightblue" d="M519.551,-116.753C514.937,-108.924 508.191,-97.4761 502.529,-87.8679"/>
<polygon fill="midnightblue" stroke="midnightblue" points="505.44,-85.9136 497.348,-79.0752 499.409,-89.4675 505.44,-85.9136"/>
</g>
<!-- Node4 -->
<g id="node4" class="node"><title>Node4</title>
<polygon fill="white" stroke="#bfbfbf" points="533.604,-59 533.604,-79 582.396,-79 582.396,-59 533.604,-59"/>
<text text-anchor="middle" x="558" y="-65" font-family="Helvetica,sans-Serif" font-size="10.00">string.h</text>
</g>
<!-- Node1&#45;&gt;Node4 -->
<g id="edge3" class="edge"><title>Node1&#45;&gt;Node4</title>
<path fill="none" stroke="midnightblue" d="M530.449,-116.753C535.063,-108.924 541.809,-97.4761 547.471,-87.8679"/>
<polygon fill="midnightblue" stroke="midnightblue" points="550.591,-89.4675 552.652,-79.0752 544.56,-85.9136 550.591,-89.4675"/>
</g>
<!-- Node5 -->
<g id="node5" class="node"><title>Node5</title>
<g id="a_node5"><a xlink:href="_g_lee_8h.html" target="_top" xlink:title="cinder/gl/GLee.h">
<polygon fill="white" stroke="black" points="600.311,-59 600.311,-79 689.689,-79 689.689,-59 600.311,-59"/>
<text text-anchor="middle" x="645" y="-65" font-family="Helvetica,sans-Serif" font-size="10.00">cinder/gl/GLee.h</text>
</a>
</g>
</g>
<!-- Node1&#45;&gt;Node5 -->
<g id="edge4" class="edge"><title>Node1&#45;&gt;Node5</title>
<path fill="none" stroke="midnightblue" d="M544.547,-116.878C563.985,-107.807 594.027,-93.7876 616.196,-83.4418"/>
<polygon fill="midnightblue" stroke="midnightblue" points="617.879,-86.5187 625.461,-79.1181 614.919,-80.1754 617.879,-86.5187"/>
</g>
<!-- Node6 -->
<g id="node6" class="node"><title>Node6</title>
<polygon fill="white" stroke="#bfbfbf" points="-0.120605,-1 -0.120605,-21 48.1206,-21 48.1206,-1 -0.120605,-1"/>
<text text-anchor="middle" x="24" y="-7" font-family="Helvetica,sans-Serif" font-size="10.00">GL/gl.h</text>
</g>
<!-- Node5&#45;&gt;Node6 -->
<g id="edge5" class="edge"><title>Node5&#45;&gt;Node6</title>
<path fill="none" stroke="midnightblue" d="M600.273,-59.3049C597.141,-58.823 594.027,-58.381 591,-58 358.217,-28.6994 292.778,-63.7823 58.2092,-21.8428"/>
<polygon fill="midnightblue" stroke="midnightblue" points="58.8209,-18.3967 48.3565,-20.054 57.5704,-25.2841 58.8209,-18.3967"/>
</g>
<!-- Node7 -->
<g id="node7" class="node"><title>Node7</title>
<polygon fill="white" stroke="#bfbfbf" points="66.3672,-1 66.3672,-21 149.633,-21 149.633,-1 66.3672,-1"/>
<text text-anchor="middle" x="108" y="-7" font-family="Helvetica,sans-Serif" font-size="10.00">cinder/Cinder.h</text>
</g>
<!-- Node5&#45;&gt;Node7 -->
<g id="edge6" class="edge"><title>Node5&#45;&gt;Node7</title>
<path fill="none" stroke="midnightblue" d="M600.266,-59.3599C597.136,-58.8649 594.024,-58.405 591,-58 403.303,-32.8639 351.581,-48.0366 159.816,-21.961"/>
<polygon fill="midnightblue" stroke="midnightblue" points="160.07,-18.4629 149.685,-20.563 159.113,-25.3972 160.07,-18.4629"/>
</g>
<!-- Node8 -->
<g id="node8" class="node"><title>Node8</title>
<polygon fill="white" stroke="#bfbfbf" points="167.865,-1 167.865,-21 266.135,-21 266.135,-1 167.865,-1"/>
<text text-anchor="middle" x="217" y="-7" font-family="Helvetica,sans-Serif" font-size="10.00">cinder/Exception.h</text>
</g>
<!-- Node5&#45;&gt;Node8 -->
<g id="edge7" class="edge"><title>Node5&#45;&gt;Node8</title>
<path fill="none" stroke="midnightblue" d="M600.251,-59.4649C597.124,-58.945 594.018,-58.4507 591,-58 454.475,-37.6073 416.685,-41.8012 276.597,-22.1593"/>
<polygon fill="midnightblue" stroke="midnightblue" points="276.723,-18.6422 266.331,-20.7032 275.74,-25.5729 276.723,-18.6422"/>
</g>
<!-- Node9 -->
<g id="node9" class="node"><title>Node9</title>
<polygon fill="white" stroke="#bfbfbf" points="284.084,-1 284.084,-21 387.916,-21 387.916,-1 284.084,-1"/>
<text text-anchor="middle" x="336" y="-7" font-family="Helvetica,sans-Serif" font-size="10.00">cinder/Quaternion.h</text>
</g>
<!-- Node5&#45;&gt;Node9 -->
<g id="edge8" class="edge"><title>Node5&#45;&gt;Node9</title>
<path fill="none" stroke="midnightblue" d="M600.214,-59.6897C597.096,-59.1163 594.001,-58.5486 591,-58 524.414,-45.829 448.007,-32.0737 396.328,-22.8013"/>
<polygon fill="midnightblue" stroke="midnightblue" points="396.793,-19.3289 386.332,-21.0084 395.557,-26.219 396.793,-19.3289"/>
</g>
<!-- Node10 -->
<g id="node10" class="node"><title>Node10</title>
<polygon fill="white" stroke="#bfbfbf" points="406.212,-1 406.212,-21 487.788,-21 487.788,-1 406.212,-1"/>
<text text-anchor="middle" x="447" y="-7" font-family="Helvetica,sans-Serif" font-size="10.00">cinder/Matrix.h</text>
</g>
<!-- Node5&#45;&gt;Node10 -->
<g id="edge9" class="edge"><title>Node5&#45;&gt;Node10</title>
<path fill="none" stroke="midnightblue" d="M612.747,-58.878C578.992,-49.331 525.858,-34.3033 488.882,-23.8454"/>
<polygon fill="midnightblue" stroke="midnightblue" points="489.486,-20.379 478.911,-21.0253 487.581,-27.1148 489.486,-20.379"/>
</g>
<!-- Node11 -->
<g id="node11" class="node"><title>Node11</title>
<polygon fill="white" stroke="#bfbfbf" points="505.919,-1 505.919,-21 588.081,-21 588.081,-1 505.919,-1"/>
<text text-anchor="middle" x="547" y="-7" font-family="Helvetica,sans-Serif" font-size="10.00">cinder/Vector.h</text>
</g>
<!-- Node5&#45;&gt;Node11 -->
<g id="edge10" class="edge"><title>Node5&#45;&gt;Node11</title>
<path fill="none" stroke="midnightblue" d="M628.817,-58.7527C613.262,-49.8641 589.541,-36.3092 571.639,-26.0793"/>
<polygon fill="midnightblue" stroke="midnightblue" points="573.301,-22.9978 562.882,-21.0752 569.828,-29.0755 573.301,-22.9978"/>
</g>
<!-- Node12 -->
<g id="node12" class="node"><title>Node12</title>
<polygon fill="white" stroke="#bfbfbf" points="606.148,-1 606.148,-21 683.852,-21 683.852,-1 606.148,-1"/>
<text text-anchor="middle" x="645" y="-7" font-family="Helvetica,sans-Serif" font-size="10.00">cinder/Color.h</text>
</g>
<!-- Node5&#45;&gt;Node12 -->
<g id="edge11" class="edge"><title>Node5&#45;&gt;Node12</title>
<path fill="none" stroke="midnightblue" d="M645,-58.7527C645,-51.2504 645,-40.4238 645,-31.0781"/>
<polygon fill="midnightblue" stroke="midnightblue" points="648.5,-31.0752 645,-21.0752 641.5,-31.0752 648.5,-31.0752"/>
</g>
<!-- Node13 -->
<g id="node13" class="node"><title>Node13</title>
<polygon fill="white" stroke="#bfbfbf" points="701.542,-1 701.542,-21 776.458,-21 776.458,-1 701.542,-1"/>
<text text-anchor="middle" x="739" y="-7" font-family="Helvetica,sans-Serif" font-size="10.00">cinder/Rect.h</text>
</g>
<!-- Node5&#45;&gt;Node13 -->
<g id="edge12" class="edge"><title>Node5&#45;&gt;Node13</title>
<path fill="none" stroke="midnightblue" d="M660.522,-58.7527C675.306,-49.9457 697.778,-36.5575 714.893,-26.3617"/>
<polygon fill="midnightblue" stroke="midnightblue" points="716.967,-29.2002 723.767,-21.0752 713.384,-23.1864 716.967,-29.2002"/>
</g>
<!-- Node14 -->
<g id="node14" class="node"><title>Node14</title>
<polygon fill="white" stroke="#bfbfbf" points="794.818,-1 794.818,-21 869.182,-21 869.182,-1 794.818,-1"/>
<text text-anchor="middle" x="832" y="-7" font-family="Helvetica,sans-Serif" font-size="10.00">cinder/Font.h</text>
</g>
<!-- Node5&#45;&gt;Node14 -->
<g id="edge13" class="edge"><title>Node5&#45;&gt;Node14</title>
<path fill="none" stroke="midnightblue" d="M675.461,-58.878C707.205,-49.3718 757.094,-34.4317 791.996,-23.9798"/>
<polygon fill="midnightblue" stroke="midnightblue" points="793.286,-27.247 801.862,-21.0253 791.278,-20.5413 793.286,-27.247"/>
</g>
<!-- Node15 -->
<g id="node15" class="node"><title>Node15</title>
<polygon fill="white" stroke="#bfbfbf" points="887.643,-1 887.643,-21 980.357,-21 980.357,-1 887.643,-1"/>
<text text-anchor="middle" x="934" y="-7" font-family="Helvetica,sans-Serif" font-size="10.00">cinder/PolyLine.h</text>
</g>
<!-- Node5&#45;&gt;Node15 -->
<g id="edge14" class="edge"><title>Node5&#45;&gt;Node15</title>
<path fill="none" stroke="midnightblue" d="M689.839,-59.3114C740.436,-49.5071 822.819,-33.5437 877.705,-22.9084"/>
<polygon fill="midnightblue" stroke="midnightblue" points="878.468,-26.3258 887.619,-20.9873 877.136,-19.4536 878.468,-26.3258"/>
</g>
<!-- Node16 -->
<g id="node16" class="node"><title>Node16</title>
<polygon fill="white" stroke="#bfbfbf" points="998.082,-1 998.082,-21 1121.92,-21 1121.92,-1 998.082,-1"/>
<text text-anchor="middle" x="1060" y="-7" font-family="Helvetica,sans-Serif" font-size="10.00">cinder/AxisAlignedBox.h</text>
</g>
<!-- Node5&#45;&gt;Node16 -->
<g id="edge15" class="edge"><title>Node5&#45;&gt;Node16</title>
<path fill="none" stroke="midnightblue" d="M689.817,-62.1087C753.561,-53.707 874.357,-37.7032 987.798,-22.1577"/>
<polygon fill="midnightblue" stroke="midnightblue" points="988.616,-25.5784 998.048,-20.7517 987.665,-18.6434 988.616,-25.5784"/>
</g>
<!-- Node17 -->
<g id="node17" class="node"><title>Node17</title>
<polygon fill="white" stroke="#bfbfbf" points="1140.38,-1 1140.38,-21 1193.62,-21 1193.62,-1 1140.38,-1"/>
<text text-anchor="middle" x="1167" y="-7" font-family="Helvetica,sans-Serif" font-size="10.00">GL/glx.h</text>
</g>
<!-- Node5&#45;&gt;Node17 -->
<g id="edge16" class="edge"><title>Node5&#45;&gt;Node17</title>
<path fill="none" stroke="midnightblue" d="M689.812,-66.2868C775.785,-62.4414 969.586,-51.0684 1130,-22 1130.1,-21.9815 1130.2,-21.9628 1130.31,-21.9439"/>
<polygon fill="midnightblue" stroke="midnightblue" points="1131,-25.3749 1140.04,-19.8522 1129.53,-18.5311 1131,-25.3749"/>
</g>
<!-- Node18 -->
<g id="node18" class="node"><title>Node18</title>
<polygon fill="white" stroke="#bfbfbf" points="1211.21,-1 1211.21,-21 1262.79,-21 1262.79,-1 1211.21,-1"/>
<text text-anchor="middle" x="1237" y="-7" font-family="Helvetica,sans-Serif" font-size="10.00">stddef.h</text>
</g>
<!-- Node5&#45;&gt;Node18 -->
<g id="edge17" class="edge"><title>Node5&#45;&gt;Node18</title>
<path fill="none" stroke="midnightblue" d="M689.792,-67.2682C783.319,-65.1032 1006.15,-56.619 1201.28,-21.7863"/>
<polygon fill="midnightblue" stroke="midnightblue" points="1201.92,-25.2269 1211.14,-19.9996 1200.68,-18.3392 1201.92,-25.2269"/>
</g>
</g>
</svg>
        <g id="navigator" transform="translate(0 0)" fill="#404254">
                <rect fill="#f2f5e9" fill-opacity="0.5" stroke="#606060" stroke-width=".5" x="0" y="0" width="60" height="60"/>
                <use id="zoomplus" xlink:href="#zoomPlus" x="17" y="9" onmousedown="handleZoom(evt,'in')"/>
                <use id="zoomminus" xlink:href="#zoomMin" x="42" y="9" onmousedown="handleZoom(evt,'out')"/>
                <use id="reset" xlink:href="#resetDef" x="30" y="36" onmousedown="handleReset()"/>
                <g id="arrowUp" xlink:href="#dirArrow" transform="translate(30 24)" onmousedown="handlePan(0,-1)">
                  <use xlink:href="#rim" fill="#404040">
                        <set attributeName="fill" to="#808080" begin="arrowUp.mouseover" end="arrowUp.mouseout"/>
                  </use>
                  <path fill="none" stroke="white" stroke-width="1.5" d="M0,-3.0v7 M-2.5,-0.5L0,-3.0L2.5,-0.5"/>
                </g>
                <g id="arrowRight" xlink:href="#dirArrow" transform="rotate(90) translate(36 -43)" onmousedown="handlePan(1,0)">
                  <use xlink:href="#rim" fill="#404040">
                        <set attributeName="fill" to="#808080" begin="arrowRight.mouseover" end="arrowRight.mouseout"/>
                  </use>
                  <path fill="none" stroke="white" stroke-width="1.5" d="M0,-3.0v7 M-2.5,-0.5L0,-3.0L2.5,-0.5"/>
                </g>
                <g id="arrowDown" xlink:href="#dirArrow" transform="rotate(180) translate(-30 -48)" onmousedown="handlePan(0,1)">
                  <use xlink:href="#rim" fill="#404040">
                        <set attributeName="fill" to="#808080" begin="arrowDown.mouseover" end="arrowDown.mouseout"/>
                  </use>
                  <path fill="none" stroke="white" stroke-width="1.5" d="M0,-3.0v7 M-2.5,-0.5L0,-3.0L2.5,-0.5"/>
                </g>
                <g id="arrowLeft" xlink:href="#dirArrow" transform="rotate(270) translate(-36 17)" onmousedown="handlePan(-1,0)">
                  <use xlink:href="#rim" fill="#404040">
                        <set attributeName="fill" to="#808080" begin="arrowLeft.mouseover" end="arrowLeft.mouseout"/>
                  </use>
                  <path fill="none" stroke="white" stroke-width="1.5" d="M0,-3.0v7 M-2.5,-0.5L0,-3.0L2.5,-0.5"/>
                </g>
        </g>
        <svg viewBox="0 0 15 15" width="100%" height="30px" preserveAspectRatio="xMaxYMin meet">
         <g id="arrow_out" transform="scale(0.3 0.3)">
          <a xlink:href="_g_lee_8c__incl_org.svg" target="_base">
           <rect id="button" ry="5" rx="5" y="6" x="6" height="38" width="38"
                fill="#f2f5e9" fill-opacity="0.5" stroke="#606060" stroke-width="1.0"/>
           <path id="arrow"
             d="M 11.500037,31.436501 C 11.940474,20.09759 22.043105,11.32322 32.158766,21.979434 L 37.068811,17.246167 C 37.068811,17.246167 37.088388,32 37.088388,32 L 22.160133,31.978069 C 22.160133,31.978069 26.997745,27.140456 26.997745,27.140456 C 18.528582,18.264221 13.291696,25.230495 11.500037,31.436501 z"
             style="fill:#404040;"/>
          </a>
         </g>
        </svg>
</svg>
