<?xml version="1.0" encoding="UTF-8" standalone="no"?>
<!DOCTYPE svg PUBLIC "-//W3C//DTD SVG 1.1//EN"
 "http://www.w3.org/Graphics/SVG/1.1/DTD/svg11.dtd">
<!-- Generated by graphviz version 2.30.1 (20140712.1814)
 -->
<!-- Title: include/cinder/gl/GLee.h Pages: 1 -->
<svg width="1412pt" height="286pt"
 viewBox="0.00 0.00 1411.70 286.00" xmlns="http://www.w3.org/2000/svg" xmlns:xlink="http://www.w3.org/1999/xlink">
<g id="graph0" class="graph" transform="scale(1 1) rotate(0) translate(4 282)">
<title>include/cinder/gl/GLee.h</title>
<polygon fill="white" stroke="white" points="-4,5 -4,-282 1408.7,-282 1408.7,5 -4,5"/>
<!-- Node1 -->
<g id="node1" class="node"><title>Node1</title>
<polygon fill="#bfbfbf" stroke="black" points="666.778,-257 666.778,-277 790.624,-277 790.624,-257 666.778,-257"/>
<text text-anchor="middle" x="728.701" y="-263" font-family="Helvetica,sans-Serif" font-size="10.00">include/cinder/gl/GLee.h</text>
</g>
<!-- Node2 -->
<g id="node2" class="node"><title>Node2</title>
<g id="a_node2"><a xlink:href="dx_8h.html" target="_top" xlink:title="include/cinder/dx/dx.h">
<polygon fill="white" stroke="black" points="609.339,-199 609.339,-219 722.063,-219 722.063,-199 609.339,-199"/>
<text text-anchor="middle" x="665.701" y="-205" font-family="Helvetica,sans-Serif" font-size="10.00">include/cinder/dx/dx.h</text>
</a>
</g>
</g>
<!-- Node1&#45;&gt;Node2 -->
<g id="edge1" class="edge"><title>Node1&#45;&gt;Node2</title>
<path fill="none" stroke="midnightblue" d="M710.697,-249.997C699.419,-239.972 685.295,-227.417 675.911,-219.075"/>
<polygon fill="midnightblue" stroke="midnightblue" points="708.498,-252.725 718.298,-256.753 713.149,-247.493 708.498,-252.725"/>
</g>
<!-- Node19 -->
<g id="node19" class="node"><title>Node19</title>
<g id="a_node19"><a xlink:href="_g_lee_8c.html" target="_top" xlink:title="src/cinder/gl/GLee.c">
<polygon fill="white" stroke="black" points="740.238,-199 740.238,-219 845.164,-219 845.164,-199 740.238,-199"/>
<text text-anchor="middle" x="792.701" y="-205" font-family="Helvetica,sans-Serif" font-size="10.00">src/cinder/gl/GLee.c</text>
</a>
</g>
</g>
<!-- Node1&#45;&gt;Node19 -->
<g id="edge31" class="edge"><title>Node1&#45;&gt;Node19</title>
<path fill="none" stroke="midnightblue" d="M746.99,-249.997C758.447,-239.972 772.796,-227.417 782.329,-219.075"/>
<polygon fill="midnightblue" stroke="midnightblue" points="744.49,-247.534 739.269,-256.753 749.1,-252.802 744.49,-247.534"/>
</g>
<!-- Node3 -->
<g id="node3" class="node"><title>Node3</title>
<g id="a_node3"><a xlink:href="_app_impl_msw_renderer_dx_8h.html" target="_top" xlink:title="include/cinder/app\l/AppImplMswRendererDx.h">
<polygon fill="white" stroke="black" points="766.568,-129 766.568,-161 904.834,-161 904.834,-129 766.568,-129"/>
<text text-anchor="start" x="774.568" y="-147" font-family="Helvetica,sans-Serif" font-size="10.00">include/cinder/app</text>
<text text-anchor="middle" x="835.701" y="-135" font-family="Helvetica,sans-Serif" font-size="10.00">/AppImplMswRendererDx.h</text>
</a>
</g>
</g>
<!-- Node2&#45;&gt;Node3 -->
<g id="edge2" class="edge"><title>Node2&#45;&gt;Node3</title>
<path fill="none" stroke="midnightblue" d="M699.938,-195.513C727.228,-185.561 765.534,-171.59 794.501,-161.026"/>
<polygon fill="midnightblue" stroke="midnightblue" points="698.616,-192.27 690.42,-198.985 701.014,-198.846 698.616,-192.27"/>
</g>
<!-- Node11 -->
<g id="node11" class="node"><title>Node11</title>
<g id="a_node11"><a xlink:href="_dx_light_8h.html" target="_top" xlink:title="include/cinder/dx/DxLight.h">
<polygon fill="white" stroke="black" points="124.667,-135 124.667,-155 260.735,-155 260.735,-135 124.667,-135"/>
<text text-anchor="middle" x="192.701" y="-141" font-family="Helvetica,sans-Serif" font-size="10.00">include/cinder/dx/DxLight.h</text>
</a>
</g>
</g>
<!-- Node2&#45;&gt;Node11 -->
<g id="edge10" class="edge"><title>Node2&#45;&gt;Node11</title>
<path fill="none" stroke="midnightblue" d="M599.02,-201.705C521.025,-193.984 388.127,-179.712 274.701,-162 261.947,-160.008 248.149,-157.468 235.576,-155"/>
<polygon fill="midnightblue" stroke="midnightblue" points="598.892,-205.209 609.186,-202.705 599.577,-198.243 598.892,-205.209"/>
</g>
<!-- Node13 -->
<g id="node13" class="node"><title>Node13</title>
<g id="a_node13"><a xlink:href="_dx_render_target_8h.html" target="_top" xlink:title="include/cinder/dx/DxRender\lTarget.h">
<polygon fill="white" stroke="black" points="591.28,-59 591.28,-91 730.122,-91 730.122,-59 591.28,-59"/>
<text text-anchor="start" x="599.28" y="-77" font-family="Helvetica,sans-Serif" font-size="10.00">include/cinder/dx/DxRender</text>
<text text-anchor="middle" x="660.701" y="-65" font-family="Helvetica,sans-Serif" font-size="10.00">Target.h</text>
</a>
</g>
</g>
<!-- Node2&#45;&gt;Node13 -->
<g id="edge13" class="edge"><title>Node2&#45;&gt;Node13</title>
<path fill="none" stroke="midnightblue" d="M664.968,-188.644C663.963,-162.121 662.18,-115.041 661.27,-91.0136"/>
<polygon fill="midnightblue" stroke="midnightblue" points="661.481,-189.067 665.357,-198.927 668.476,-188.802 661.481,-189.067"/>
</g>
<!-- Node14 -->
<g id="node14" class="node"><title>Node14</title>
<g id="a_node14"><a xlink:href="_dx_texture_8h.html" target="_top" xlink:title="include/cinder/dx/DxTexture.h">
<polygon fill="white" stroke="black" points="490.113,-135 490.113,-155 637.289,-155 637.289,-135 490.113,-135"/>
<text text-anchor="middle" x="563.701" y="-141" font-family="Helvetica,sans-Serif" font-size="10.00">include/cinder/dx/DxTexture.h</text>
</a>
</g>
</g>
<!-- Node2&#45;&gt;Node14 -->
<g id="edge15" class="edge"><title>Node2&#45;&gt;Node14</title>
<path fill="none" stroke="midnightblue" d="M642.03,-193.611C622.538,-181.763 595.487,-165.321 578.813,-155.186"/>
<polygon fill="midnightblue" stroke="midnightblue" points="640.287,-196.648 650.651,-198.852 643.923,-190.667 640.287,-196.648"/>
</g>
<!-- Node17 -->
<g id="node17" class="node"><title>Node17</title>
<g id="a_node17"><a xlink:href="_dx_vbo_8h.html" target="_top" xlink:title="include/cinder/dx/DxVbo.h">
<polygon fill="white" stroke="black" points="316.613,-135 316.613,-155 448.789,-155 448.789,-135 316.613,-135"/>
<text text-anchor="middle" x="382.701" y="-141" font-family="Helvetica,sans-Serif" font-size="10.00">include/cinder/dx/DxVbo.h</text>
</a>
</g>
</g>
<!-- Node2&#45;&gt;Node17 -->
<g id="edge21" class="edge"><title>Node2&#45;&gt;Node17</title>
<path fill="none" stroke="midnightblue" d="M614.726,-196.832C560.096,-184.864 474.435,-166.097 423.901,-155.026"/>
<polygon fill="midnightblue" stroke="midnightblue" points="614.033,-200.263 624.55,-198.985 615.531,-193.426 614.033,-200.263"/>
</g>
<!-- Node18 -->
<g id="node18" class="node"><title>Node18</title>
<g id="a_node18"><a xlink:href="_hlsl_prog_8h.html" target="_top" xlink:title="include/cinder/dx/HlslProg.h">
<polygon fill="white" stroke="black" points="1249.73,-135 1249.73,-155 1389.68,-155 1389.68,-135 1249.73,-135"/>
<text text-anchor="middle" x="1319.7" y="-141" font-family="Helvetica,sans-Serif" font-size="10.00">include/cinder/dx/HlslProg.h</text>
</a>
</g>
</g>
<!-- Node2&#45;&gt;Node18 -->
<g id="edge24" class="edge"><title>Node2&#45;&gt;Node18</title>
<path fill="none" stroke="midnightblue" d="M732.264,-198.002C925.679,-175.073 1140.86,-158.519 1249.41,-150.797"/>
<polygon fill="midnightblue" stroke="midnightblue" points="731.71,-194.544 722.195,-199.204 732.54,-201.494 731.71,-194.544"/>
</g>
<!-- Node4 -->
<g id="node4" class="node"><title>Node4</title>
<g id="a_node4"><a xlink:href="_app_impl_msw_renderer_dx_8cpp.html" target="_top" xlink:title="src/cinder/app/AppImplMsw\lRendererDx.cpp">
<polygon fill="white" stroke="black" points="1115.29,-59 1115.29,-91 1254.11,-91 1254.11,-59 1115.29,-59"/>
<text text-anchor="start" x="1123.29" y="-77" font-family="Helvetica,sans-Serif" font-size="10.00">src/cinder/app/AppImplMsw</text>
<text text-anchor="middle" x="1184.7" y="-65" font-family="Helvetica,sans-Serif" font-size="10.00">RendererDx.cpp</text>
</a>
</g>
</g>
<!-- Node2&#45;&gt;Node4 -->
<g id="edge26" class="edge"><title>Node2&#45;&gt;Node4</title>
<path fill="none" stroke="midnightblue" d="M728.643,-197.242C790.193,-186.556 879.498,-170.564 913.701,-162 996.059,-141.378 1090.08,-109.645 1142.92,-91.0407"/>
<polygon fill="midnightblue" stroke="midnightblue" points="727.892,-193.82 718.636,-198.975 729.086,-200.717 727.892,-193.82"/>
</g>
<!-- Node6 -->
<g id="node6" class="node"><title>Node6</title>
<g id="a_node6"><a xlink:href="dx_8cpp.html" target="_top" xlink:title="src/cinder/dx/dx.cpp">
<polygon fill="white" stroke="black" points="168.238,-65 168.238,-85 273.164,-85 273.164,-65 168.238,-65"/>
<text text-anchor="middle" x="220.701" y="-71" font-family="Helvetica,sans-Serif" font-size="10.00">src/cinder/dx/dx.cpp</text>
</a>
</g>
</g>
<!-- Node2&#45;&gt;Node6 -->
<g id="edge27" class="edge"><title>Node2&#45;&gt;Node6</title>
<path fill="none" stroke="midnightblue" d="M599.328,-204.545C510.315,-199.051 357.664,-186.364 307.701,-162 298.061,-157.299 249.466,-106.472 229.394,-85.2378"/>
<polygon fill="midnightblue" stroke="midnightblue" points="599.134,-208.039 609.327,-205.148 599.556,-201.052 599.134,-208.039"/>
</g>
<!-- Node7 -->
<g id="node7" class="node"><title>Node7</title>
<g id="a_node7"><a xlink:href="_dx_render_target_8cpp.html" target="_top" xlink:title="src/cinder/dx/DxRenderTarget.cpp">
<polygon fill="white" stroke="black" points="589.113,-1 589.113,-21 756.289,-21 756.289,-1 589.113,-1"/>
<text text-anchor="middle" x="672.701" y="-7" font-family="Helvetica,sans-Serif" font-size="10.00">src/cinder/dx/DxRenderTarget.cpp</text>
</a>
</g>
</g>
<!-- Node2&#45;&gt;Node7 -->
<g id="edge28" class="edge"><title>Node2&#45;&gt;Node7</title>
<path fill="none" stroke="midnightblue" d="M598.625,-206.635C472.087,-203.364 203.011,-192.902 115.701,-162 54.3743,-140.294 -31.8183,-105.436 12.701,-58 55.9011,-11.9701 516.803,-27.3757 579.701,-22 583.342,-21.6889 587.06,-21.3552 590.816,-21.0053"/>
<polygon fill="midnightblue" stroke="midnightblue" points="598.868,-210.142 608.952,-206.894 599.043,-203.144 598.868,-210.142"/>
</g>
<!-- Node8 -->
<g id="node8" class="node"><title>Node8</title>
<g id="a_node8"><a xlink:href="_dx_texture_8cpp.html" target="_top" xlink:title="src/cinder/dx/DxTexture.cpp">
<polygon fill="white" stroke="black" points="748.012,-65 748.012,-85 887.39,-85 887.39,-65 748.012,-65"/>
<text text-anchor="middle" x="817.701" y="-71" font-family="Helvetica,sans-Serif" font-size="10.00">src/cinder/dx/DxTexture.cpp</text>
</a>
</g>
</g>
<!-- Node2&#45;&gt;Node8 -->
<g id="edge29" class="edge"><title>Node2&#45;&gt;Node8</title>
<path fill="none" stroke="midnightblue" d="M683.872,-192.184C702.424,-176.039 732.058,-150.261 757.701,-128 774.98,-113 795.079,-95.5883 807.075,-85.2"/>
<polygon fill="midnightblue" stroke="midnightblue" points="681.428,-189.671 676.182,-198.876 686.023,-194.951 681.428,-189.671"/>
</g>
<!-- Node10 -->
<g id="node10" class="node"><title>Node10</title>
<g id="a_node10"><a xlink:href="_hlsl_prog_8cpp.html" target="_top" xlink:title="src/cinder/dx/HlslProg.cpp">
<polygon fill="white" stroke="black" points="1271.62,-65 1271.62,-85 1403.78,-85 1403.78,-65 1271.62,-65"/>
<text text-anchor="middle" x="1337.7" y="-71" font-family="Helvetica,sans-Serif" font-size="10.00">src/cinder/dx/HlslProg.cpp</text>
</a>
</g>
</g>
<!-- Node2&#45;&gt;Node10 -->
<g id="edge30" class="edge"><title>Node2&#45;&gt;Node10</title>
<path fill="none" stroke="midnightblue" d="M732.355,-197.927C845.786,-181.586 876.33,-182.86 984.701,-162 1103.94,-139.049 1243.45,-101.987 1305.33,-85.0128"/>
<polygon fill="midnightblue" stroke="midnightblue" points="731.613,-194.498 722.222,-199.402 732.622,-201.425 731.613,-194.498"/>
</g>
<!-- Node3&#45;&gt;Node4 -->
<g id="edge3" class="edge"><title>Node3&#45;&gt;Node4</title>
<path fill="none" stroke="midnightblue" d="M914.928,-128.563C975.223,-116.815 1057.4,-100.803 1115.17,-89.5484"/>
<polygon fill="midnightblue" stroke="midnightblue" points="914.215,-125.136 905.069,-130.484 915.554,-132.007 914.215,-125.136"/>
</g>
<!-- Node5 -->
<g id="node5" class="node"><title>Node5</title>
<g id="a_node5"><a xlink:href="_renderer_dx_8cpp.html" target="_top" xlink:title="src/cinder/app/RendererDx.cpp">
<polygon fill="white" stroke="black" points="905.502,-65 905.502,-85 1059.9,-85 1059.9,-65 905.502,-65"/>
<text text-anchor="middle" x="982.701" y="-71" font-family="Helvetica,sans-Serif" font-size="10.00">src/cinder/app/RendererDx.cpp</text>
</a>
</g>
</g>
<!-- Node3&#45;&gt;Node5 -->
<g id="edge4" class="edge"><title>Node3&#45;&gt;Node5</title>
<path fill="none" stroke="midnightblue" d="M877.547,-124.643C905.698,-111.62 941.508,-95.0554 963.237,-85.0035"/>
<polygon fill="midnightblue" stroke="midnightblue" points="875.932,-121.534 868.325,-128.909 878.871,-127.887 875.932,-121.534"/>
</g>
<!-- Node3&#45;&gt;Node6 -->
<g id="edge5" class="edge"><title>Node3&#45;&gt;Node6</title>
<path fill="none" stroke="midnightblue" d="M756.103,-137.221C614.207,-125.031 328.109,-99.9422 282.701,-92 272.517,-90.2188 261.55,-87.6202 251.713,-85.0331"/>
<polygon fill="midnightblue" stroke="midnightblue" points="756.216,-140.743 766.479,-138.111 756.815,-133.769 756.216,-140.743"/>
</g>
<!-- Node3&#45;&gt;Node7 -->
<g id="edge6" class="edge"><title>Node3&#45;&gt;Node7</title>
<path fill="none" stroke="midnightblue" d="M915.1,-131.285C978.689,-120.291 1058.86,-104.28 1068.7,-92 1078.15,-80.2084 1078.75,-69.2848 1068.7,-58 1048.33,-35.1285 866.825,-21.8941 756.74,-15.904"/>
<polygon fill="midnightblue" stroke="midnightblue" points="914.316,-127.868 905.05,-133.005 915.497,-134.767 914.316,-127.868"/>
</g>
<!-- Node3&#45;&gt;Node8 -->
<g id="edge7" class="edge"><title>Node3&#45;&gt;Node8</title>
<path fill="none" stroke="midnightblue" d="M829.091,-119.029C825.943,-107.137 822.375,-93.6569 820.084,-85.0035"/>
<polygon fill="midnightblue" stroke="midnightblue" points="825.764,-120.137 831.706,-128.909 832.531,-118.346 825.764,-120.137"/>
</g>
<!-- Node9 -->
<g id="node9" class="node"><title>Node9</title>
<g id="a_node9"><a xlink:href="_dx_vbo_8cpp.html" target="_top" xlink:title="src/cinder/dx/DxVbo.cpp">
<polygon fill="white" stroke="black" points="291.512,-65 291.512,-85 415.89,-85 415.89,-65 291.512,-65"/>
<text text-anchor="middle" x="353.701" y="-71" font-family="Helvetica,sans-Serif" font-size="10.00">src/cinder/dx/DxVbo.cpp</text>
</a>
</g>
</g>
<!-- Node3&#45;&gt;Node9 -->
<g id="edge8" class="edge"><title>Node3&#45;&gt;Node9</title>
<path fill="none" stroke="midnightblue" d="M756.399,-136.142C673.574,-127.421 540.04,-111.911 425.701,-92 414.474,-90.0448 402.35,-87.5153 391.311,-85.047"/>
<polygon fill="midnightblue" stroke="midnightblue" points="756.184,-139.638 766.493,-137.197 756.912,-132.676 756.184,-139.638"/>
</g>
<!-- Node3&#45;&gt;Node10 -->
<g id="edge9" class="edge"><title>Node3&#45;&gt;Node10</title>
<path fill="none" stroke="midnightblue" d="M915.333,-136.442C1001.33,-127.783 1142.2,-112.15 1262.7,-92 1274.39,-90.0457 1287.01,-87.5165 1298.51,-85.0482"/>
<polygon fill="midnightblue" stroke="midnightblue" points="914.725,-132.986 905.123,-137.464 915.422,-139.951 914.725,-132.986"/>
</g>
<!-- Node11&#45;&gt;Node6 -->
<g id="edge11" class="edge"><title>Node11&#45;&gt;Node6</title>
<path fill="none" stroke="midnightblue" d="M200.384,-125.34C205.784,-112.226 212.77,-95.2601 216.985,-85.0255"/>
<polygon fill="midnightblue" stroke="midnightblue" points="197.048,-124.25 196.477,-134.829 203.521,-126.915 197.048,-124.25"/>
</g>
<!-- Node12 -->
<g id="node12" class="node"><title>Node12</title>
<g id="a_node12"><a xlink:href="_dx_light_8cpp.html" target="_top" xlink:title="src/cinder/dx/DxLight.cpp">
<polygon fill="white" stroke="black" points="21.5658,-65 21.5658,-85 149.836,-85 149.836,-65 21.5658,-65"/>
<text text-anchor="middle" x="85.701" y="-71" font-family="Helvetica,sans-Serif" font-size="10.00">src/cinder/dx/DxLight.cpp</text>
</a>
</g>
</g>
<!-- Node11&#45;&gt;Node12 -->
<g id="edge12" class="edge"><title>Node11&#45;&gt;Node12</title>
<path fill="none" stroke="midnightblue" d="M169.56,-129.293C148.37,-115.827 117.682,-96.3241 99.9029,-85.0255"/>
<polygon fill="midnightblue" stroke="midnightblue" points="167.953,-132.419 178.271,-134.829 171.708,-126.512 167.953,-132.419"/>
</g>
<!-- Node13&#45;&gt;Node7 -->
<g id="edge14" class="edge"><title>Node13&#45;&gt;Node7</title>
<path fill="none" stroke="midnightblue" d="M665.555,-48.922C667.442,-39.1719 669.486,-28.6099 670.903,-21.2904"/>
<polygon fill="midnightblue" stroke="midnightblue" points="662.07,-48.5086 663.606,-58.9915 668.942,-49.8388 662.07,-48.5086"/>
</g>
<!-- Node14&#45;&gt;Node13 -->
<g id="edge16" class="edge"><title>Node14&#45;&gt;Node13</title>
<path fill="none" stroke="midnightblue" d="M584.996,-129.071C600.993,-117.857 622.826,-102.551 638.936,-91.2579"/>
<polygon fill="midnightblue" stroke="midnightblue" points="582.962,-126.223 576.783,-134.829 586.98,-131.955 582.962,-126.223"/>
</g>
<!-- Node15 -->
<g id="node15" class="node"><title>Node15</title>
<g id="a_node15"><a xlink:href="_dx_texture_font_8h.html" target="_top" xlink:title="include/cinder/dx/DxTexture\lFont.h">
<polygon fill="white" stroke="black" points="434.283,-59 434.283,-91 573.119,-91 573.119,-59 434.283,-59"/>
<text text-anchor="start" x="442.283" y="-77" font-family="Helvetica,sans-Serif" font-size="10.00">include/cinder/dx/DxTexture</text>
<text text-anchor="middle" x="503.701" y="-65" font-family="Helvetica,sans-Serif" font-size="10.00">Font.h</text>
</a>
</g>
</g>
<!-- Node14&#45;&gt;Node15 -->
<g id="edge17" class="edge"><title>Node14&#45;&gt;Node15</title>
<path fill="none" stroke="midnightblue" d="M548.847,-127.166C539.144,-116.169 526.575,-101.924 517.164,-91.2579"/>
<polygon fill="midnightblue" stroke="midnightblue" points="546.368,-129.647 555.609,-134.829 551.617,-125.015 546.368,-129.647"/>
</g>
<!-- Node14&#45;&gt;Node6 -->
<g id="edge19" class="edge"><title>Node14&#45;&gt;Node6</title>
<path fill="none" stroke="midnightblue" d="M498.575,-133.271C441.456,-123.546 356.274,-108.28 282.701,-92 273.367,-89.9345 263.307,-87.4511 254.062,-85.0637"/>
<polygon fill="midnightblue" stroke="midnightblue" points="498.107,-136.741 508.551,-134.962 499.277,-129.84 498.107,-136.741"/>
</g>
<!-- Node14&#45;&gt;Node8 -->
<g id="edge20" class="edge"><title>Node14&#45;&gt;Node8</title>
<path fill="none" stroke="midnightblue" d="M607.308,-132.326C657.337,-118.932 738.31,-97.2543 783.832,-85.0672"/>
<polygon fill="midnightblue" stroke="midnightblue" points="606.185,-129.003 597.43,-134.97 607.995,-135.765 606.185,-129.003"/>
</g>
<!-- Node16 -->
<g id="node16" class="node"><title>Node16</title>
<g id="a_node16"><a xlink:href="_dx_texture_font_8cpp.html" target="_top" xlink:title="src/cinder/dx/DxTextureFont.cpp">
<polygon fill="white" stroke="black" points="412.007,-1 412.007,-21 571.395,-21 571.395,-1 412.007,-1"/>
<text text-anchor="middle" x="491.701" y="-7" font-family="Helvetica,sans-Serif" font-size="10.00">src/cinder/dx/DxTextureFont.cpp</text>
</a>
</g>
</g>
<!-- Node15&#45;&gt;Node16 -->
<g id="edge18" class="edge"><title>Node15&#45;&gt;Node16</title>
<path fill="none" stroke="midnightblue" d="M498.847,-48.922C496.96,-39.1719 494.916,-28.6099 493.499,-21.2904"/>
<polygon fill="midnightblue" stroke="midnightblue" points="495.46,-49.8388 500.796,-58.9915 502.332,-48.5086 495.46,-49.8388"/>
</g>
<!-- Node17&#45;&gt;Node6 -->
<g id="edge22" class="edge"><title>Node17&#45;&gt;Node6</title>
<path fill="none" stroke="midnightblue" d="M351.834,-131.044C319.768,-117.584 270.427,-96.8727 242.302,-85.0672"/>
<polygon fill="midnightblue" stroke="midnightblue" points="350.613,-134.327 361.189,-134.97 353.323,-127.872 350.613,-134.327"/>
</g>
<!-- Node17&#45;&gt;Node9 -->
<g id="edge23" class="edge"><title>Node17&#45;&gt;Node9</title>
<path fill="none" stroke="midnightblue" d="M374.743,-125.34C369.15,-112.226 361.915,-95.2601 357.55,-85.0255"/>
<polygon fill="midnightblue" stroke="midnightblue" points="371.648,-127.004 378.79,-134.829 378.086,-124.258 371.648,-127.004"/>
</g>
<!-- Node18&#45;&gt;Node10 -->
<g id="edge25" class="edge"><title>Node18&#45;&gt;Node10</title>
<path fill="none" stroke="midnightblue" d="M1324.74,-124.95C1328.2,-111.891 1332.63,-95.1587 1335.31,-85.0255"/>
<polygon fill="midnightblue" stroke="midnightblue" points="1321.3,-124.267 1322.13,-134.829 1328.07,-126.058 1321.3,-124.267"/>
</g>
</g>
</svg>
