<?xml version="1.0" encoding="UTF-8" standalone="no"?>
<!DOCTYPE svg PUBLIC "-//W3C//DTD SVG 1.1//EN"
 "http://www.w3.org/Graphics/SVG/1.1/DTD/svg11.dtd">
<!-- Generated by graphviz version 2.30.1 (20140712.1814)
 -->
<!-- Title: include/cinder/gl/GLee.h Pages: 1 -->
<svg width="1270pt" height="88pt"
 viewBox="0.00 0.00 1270.00 88.00" xmlns="http://www.w3.org/2000/svg" xmlns:xlink="http://www.w3.org/1999/xlink">
<g id="graph0" class="graph" transform="scale(1 1) rotate(0) translate(4 84)">
<title>include/cinder/gl/GLee.h</title>
<polygon fill="white" stroke="white" points="-4,5 -4,-84 1267,-84 1267,5 -4,5"/>
<!-- Node1 -->
<g id="node1" class="node"><title>Node1</title>
<polygon fill="#bfbfbf" stroke="black" points="583.077,-59 583.077,-79 706.923,-79 706.923,-59 583.077,-59"/>
<text text-anchor="middle" x="645" y="-65" font-family="Helvetica,sans-Serif" font-size="10.00">include/cinder/gl/GLee.h</text>
</g>
<!-- Node2 -->
<g id="node2" class="node"><title>Node2</title>
<polygon fill="white" stroke="#bfbfbf" points="-0.120605,-1 -0.120605,-21 48.1206,-21 48.1206,-1 -0.120605,-1"/>
<text text-anchor="middle" x="24" y="-7" font-family="Helvetica,sans-Serif" font-size="10.00">GL/gl.h</text>
</g>
<!-- Node1&#45;&gt;Node2 -->
<g id="edge1" class="edge"><title>Node1&#45;&gt;Node2</title>
<path fill="none" stroke="midnightblue" d="M583.052,-67.536C477.011,-65.7868 253.992,-57.9425 58.2514,-21.8748"/>
<polygon fill="midnightblue" stroke="midnightblue" points="58.8353,-18.4234 48.3621,-20.0239 57.5475,-25.3039 58.8353,-18.4234"/>
</g>
<!-- Node3 -->
<g id="node3" class="node"><title>Node3</title>
<polygon fill="white" stroke="#bfbfbf" points="66.3672,-1 66.3672,-21 149.633,-21 149.633,-1 66.3672,-1"/>
<text text-anchor="middle" x="108" y="-7" font-family="Helvetica,sans-Serif" font-size="10.00">cinder/Cinder.h</text>
</g>
<!-- Node1&#45;&gt;Node3 -->
<g id="edge2" class="edge"><title>Node1&#45;&gt;Node3</title>
<path fill="none" stroke="midnightblue" d="M583.008,-64.111C492.303,-57.9832 317.942,-44.5482 159.614,-21.9557"/>
<polygon fill="midnightblue" stroke="midnightblue" points="160.088,-18.488 149.691,-20.5245 159.089,-25.4163 160.088,-18.488"/>
</g>
<!-- Node4 -->
<g id="node4" class="node"><title>Node4</title>
<polygon fill="white" stroke="#bfbfbf" points="167.865,-1 167.865,-21 266.135,-21 266.135,-1 167.865,-1"/>
<text text-anchor="middle" x="217" y="-7" font-family="Helvetica,sans-Serif" font-size="10.00">cinder/Exception.h</text>
</g>
<!-- Node1&#45;&gt;Node4 -->
<g id="edge3" class="edge"><title>Node1&#45;&gt;Node4</title>
<path fill="none" stroke="midnightblue" d="M583.013,-61.1958C511.508,-53.144 390.167,-38.8603 276.274,-22.137"/>
<polygon fill="midnightblue" stroke="midnightblue" points="276.74,-18.668 266.336,-20.6686 275.717,-25.5928 276.74,-18.668"/>
</g>
<!-- Node5 -->
<g id="node5" class="node"><title>Node5</title>
<polygon fill="white" stroke="#bfbfbf" points="284.084,-1 284.084,-21 387.916,-21 387.916,-1 284.084,-1"/>
<text text-anchor="middle" x="336" y="-7" font-family="Helvetica,sans-Serif" font-size="10.00">cinder/Quaternion.h</text>
</g>
<!-- Node1&#45;&gt;Node5 -->
<g id="edge4" class="edge"><title>Node1&#45;&gt;Node5</title>
<path fill="none" stroke="midnightblue" d="M595.01,-58.9404C540.628,-49.0847 453.724,-33.335 395.774,-22.8328"/>
<polygon fill="midnightblue" stroke="midnightblue" points="396.126,-19.3397 385.662,-21.0002 394.877,-26.2275 396.126,-19.3397"/>
</g>
<!-- Node6 -->
<g id="node6" class="node"><title>Node6</title>
<polygon fill="white" stroke="#bfbfbf" points="406.212,-1 406.212,-21 487.788,-21 487.788,-1 406.212,-1"/>
<text text-anchor="middle" x="447" y="-7" font-family="Helvetica,sans-Serif" font-size="10.00">cinder/Matrix.h</text>
</g>
<!-- Node1&#45;&gt;Node6 -->
<g id="edge5" class="edge"><title>Node1&#45;&gt;Node6</title>
<path fill="none" stroke="midnightblue" d="M612.747,-58.878C578.992,-49.331 525.858,-34.3033 488.882,-23.8454"/>
<polygon fill="midnightblue" stroke="midnightblue" points="489.486,-20.379 478.911,-21.0253 487.581,-27.1148 489.486,-20.379"/>
</g>
<!-- Node7 -->
<g id="node7" class="node"><title>Node7</title>
<polygon fill="white" stroke="#bfbfbf" points="505.919,-1 505.919,-21 588.081,-21 588.081,-1 505.919,-1"/>
<text text-anchor="middle" x="547" y="-7" font-family="Helvetica,sans-Serif" font-size="10.00">cinder/Vector.h</text>
</g>
<!-- Node1&#45;&gt;Node7 -->
<g id="edge6" class="edge"><title>Node1&#45;&gt;Node7</title>
<path fill="none" stroke="midnightblue" d="M628.817,-58.7527C613.262,-49.8641 589.541,-36.3092 571.639,-26.0793"/>
<polygon fill="midnightblue" stroke="midnightblue" points="573.301,-22.9978 562.882,-21.0752 569.828,-29.0755 573.301,-22.9978"/>
</g>
<!-- Node8 -->
<g id="node8" class="node"><title>Node8</title>
<polygon fill="white" stroke="#bfbfbf" points="606.148,-1 606.148,-21 683.852,-21 683.852,-1 606.148,-1"/>
<text text-anchor="middle" x="645" y="-7" font-family="Helvetica,sans-Serif" font-size="10.00">cinder/Color.h</text>
</g>
<!-- Node1&#45;&gt;Node8 -->
<g id="edge7" class="edge"><title>Node1&#45;&gt;Node8</title>
<path fill="none" stroke="midnightblue" d="M645,-58.7527C645,-51.2504 645,-40.4238 645,-31.0781"/>
<polygon fill="midnightblue" stroke="midnightblue" points="648.5,-31.0752 645,-21.0752 641.5,-31.0752 648.5,-31.0752"/>
</g>
<!-- Node9 -->
<g id="node9" class="node"><title>Node9</title>
<polygon fill="white" stroke="#bfbfbf" points="701.542,-1 701.542,-21 776.458,-21 776.458,-1 701.542,-1"/>
<text text-anchor="middle" x="739" y="-7" font-family="Helvetica,sans-Serif" font-size="10.00">cinder/Rect.h</text>
</g>
<!-- Node1&#45;&gt;Node9 -->
<g id="edge8" class="edge"><title>Node1&#45;&gt;Node9</title>
<path fill="none" stroke="midnightblue" d="M660.522,-58.7527C675.306,-49.9457 697.778,-36.5575 714.893,-26.3617"/>
<polygon fill="midnightblue" stroke="midnightblue" points="716.967,-29.2002 723.767,-21.0752 713.384,-23.1864 716.967,-29.2002"/>
</g>
<!-- Node10 -->
<g id="node10" class="node"><title>Node10</title>
<polygon fill="white" stroke="#bfbfbf" points="794.818,-1 794.818,-21 869.182,-21 869.182,-1 794.818,-1"/>
<text text-anchor="middle" x="832" y="-7" font-family="Helvetica,sans-Serif" font-size="10.00">cinder/Font.h</text>
</g>
<!-- Node1&#45;&gt;Node10 -->
<g id="edge9" class="edge"><title>Node1&#45;&gt;Node10</title>
<path fill="none" stroke="midnightblue" d="M675.461,-58.878C707.205,-49.3718 757.094,-34.4317 791.996,-23.9798"/>
<polygon fill="midnightblue" stroke="midnightblue" points="793.286,-27.247 801.862,-21.0253 791.278,-20.5413 793.286,-27.247"/>
</g>
<!-- Node11 -->
<g id="node11" class="node"><title>Node11</title>
<polygon fill="white" stroke="#bfbfbf" points="887.643,-1 887.643,-21 980.357,-21 980.357,-1 887.643,-1"/>
<text text-anchor="middle" x="934" y="-7" font-family="Helvetica,sans-Serif" font-size="10.00">cinder/PolyLine.h</text>
</g>
<!-- Node1&#45;&gt;Node11 -->
<g id="edge10" class="edge"><title>Node1&#45;&gt;Node11</title>
<path fill="none" stroke="midnightblue" d="M691.754,-58.9404C742.331,-49.14 822.984,-33.5118 877.179,-23.0102"/>
<polygon fill="midnightblue" stroke="midnightblue" points="878.162,-26.3851 887.313,-21.0466 876.83,-19.5129 878.162,-26.3851"/>
</g>
<!-- Node12 -->
<g id="node12" class="node"><title>Node12</title>
<polygon fill="white" stroke="#bfbfbf" points="998.082,-1 998.082,-21 1121.92,-21 1121.92,-1 998.082,-1"/>
<text text-anchor="middle" x="1060" y="-7" font-family="Helvetica,sans-Serif" font-size="10.00">cinder/AxisAlignedBox.h</text>
</g>
<!-- Node1&#45;&gt;Node12 -->
<g id="edge11" class="edge"><title>Node1&#45;&gt;Node12</title>
<path fill="none" stroke="midnightblue" d="M707.162,-59.8206C773.918,-51.0066 883.397,-36.4656 987.947,-22.1374"/>
<polygon fill="midnightblue" stroke="midnightblue" points="988.616,-25.5785 998.048,-20.7517 987.665,-18.6434 988.616,-25.5785"/>
</g>
<!-- Node13 -->
<g id="node13" class="node"><title>Node13</title>
<polygon fill="white" stroke="#bfbfbf" points="1140.38,-1 1140.38,-21 1193.62,-21 1193.62,-1 1140.38,-1"/>
<text text-anchor="middle" x="1167" y="-7" font-family="Helvetica,sans-Serif" font-size="10.00">GL/glx.h</text>
</g>
<!-- Node1&#45;&gt;Node13 -->
<g id="edge12" class="edge"><title>Node1&#45;&gt;Node13</title>
<path fill="none" stroke="midnightblue" d="M707.089,-65.4786C799.786,-60.9567 979.573,-49.2587 1130,-22 1130.1,-21.9815 1130.2,-21.9628 1130.31,-21.9439"/>
<polygon fill="midnightblue" stroke="midnightblue" points="1131,-25.3749 1140.04,-19.8522 1129.53,-18.5311 1131,-25.3749"/>
</g>
<!-- Node14 -->
<g id="node14" class="node"><title>Node14</title>
<polygon fill="white" stroke="#bfbfbf" points="1211.21,-1 1211.21,-21 1262.79,-21 1262.79,-1 1211.21,-1"/>
<text text-anchor="middle" x="1237" y="-7" font-family="Helvetica,sans-Serif" font-size="10.00">stddef.h</text>
</g>
<!-- Node1&#45;&gt;Node14 -->
<g id="edge13" class="edge"><title>Node1&#45;&gt;Node14</title>
<path fill="none" stroke="midnightblue" d="M707.337,-66.8242C809.046,-64.0368 1016.98,-54.7086 1201.27,-21.7894"/>
<polygon fill="midnightblue" stroke="midnightblue" points="1201.93,-25.2279 1211.14,-19.9996 1200.68,-18.3402 1201.93,-25.2279"/>
</g>
</g>
</svg>
