<?xml version="1.0" encoding="UTF-8" standalone="no"?>
<!DOCTYPE svg PUBLIC "-//W3C//DTD SVG 1.1//EN"
 "http://www.w3.org/Graphics/SVG/1.1/DTD/svg11.dtd">
<!-- Generated by graphviz version 2.30.1 (20140712.1814)
 -->
<!-- Title: include/cinder/audio/GainNode.h Pages: 1 -->
<svg width="263pt" height="112pt"
 viewBox="0.00 0.00 263.00 112.00" xmlns="http://www.w3.org/2000/svg" xmlns:xlink="http://www.w3.org/1999/xlink">
<g id="graph0" class="graph" transform="scale(1 1) rotate(0) translate(4 108)">
<title>include/cinder/audio/GainNode.h</title>
<polygon fill="white" stroke="white" points="-4,5 -4,-108 260,-108 260,5 -4,5"/>
<!-- Node1 -->
<g id="node1" class="node"><title>Node1</title>
<polygon fill="#bfbfbf" stroke="black" points="67.5249,-71 67.5249,-103 172.475,-103 172.475,-71 67.5249,-71"/>
<text text-anchor="start" x="75.5249" y="-89" font-family="Helvetica,sans-Serif" font-size="10.00">include/cinder/audio</text>
<text text-anchor="middle" x="120" y="-77" font-family="Helvetica,sans-Serif" font-size="10.00">/GainNode.h</text>
</g>
<!-- Node2 -->
<g id="node2" class="node"><title>Node2</title>
<g id="a_node2"><a xlink:href="_node_effects_8h.html" target="_top" xlink:title="include/cinder/audio\l/NodeEffects.h">
<polygon fill="white" stroke="black" points="-0.475098,-1 -0.475098,-33 104.475,-33 104.475,-1 -0.475098,-1"/>
<text text-anchor="start" x="7.5249" y="-19" font-family="Helvetica,sans-Serif" font-size="10.00">include/cinder/audio</text>
<text text-anchor="middle" x="52" y="-7" font-family="Helvetica,sans-Serif" font-size="10.00">/NodeEffects.h</text>
</a>
</g>
</g>
<!-- Node1&#45;&gt;Node2 -->
<g id="edge1" class="edge"><title>Node1&#45;&gt;Node2</title>
<path fill="none" stroke="midnightblue" d="M97.6069,-63.6069C87.5793,-53.5793 76.0209,-42.0209 67.0492,-33.0492"/>
<polygon fill="midnightblue" stroke="midnightblue" points="95.3626,-66.3124 104.909,-70.9086 100.312,-61.3626 95.3626,-66.3124"/>
</g>
<!-- Node3 -->
<g id="node3" class="node"><title>Node3</title>
<g id="a_node3"><a xlink:href="_voice_8cpp.html" target="_top" xlink:title="src/cinder/audio/Voice.cpp">
<polygon fill="white" stroke="black" points="122.631,-7 122.631,-27 255.369,-27 255.369,-7 122.631,-7"/>
<text text-anchor="middle" x="189" y="-13" font-family="Helvetica,sans-Serif" font-size="10.00">src/cinder/audio/Voice.cpp</text>
</a>
</g>
</g>
<!-- Node1&#45;&gt;Node3 -->
<g id="edge2" class="edge"><title>Node1&#45;&gt;Node3</title>
<path fill="none" stroke="midnightblue" d="M142.448,-63.8769C155.162,-51.3472 170.374,-36.3562 179.864,-27.0035"/>
<polygon fill="midnightblue" stroke="midnightblue" points="139.979,-61.3964 135.313,-70.9086 144.893,-66.3822 139.979,-61.3964"/>
</g>
</g>
</svg>
