<?xml version="1.0" encoding="UTF-8" standalone="no"?>
<!DOCTYPE svg PUBLIC "-//W3C//DTD SVG 1.1//EN"
 "http://www.w3.org/Graphics/SVG/1.1/DTD/svg11.dtd">
<!-- Generated by graphviz version 2.30.1 (20140712.1814)
 -->
<!-- Title: include/cinder/audio/GenNode.h Pages: 1 -->
<!--zoomable 390 -->
<svg id="main" version="1.1" xmlns="http://www.w3.org/2000/svg" xmlns:xlink="http://www.w3.org/1999/xlink" xml:space="preserve" onload="init(evt)">
<style type="text/css"><![CDATA[
.edge:hover path { stroke: red; }
.edge:hover polygon { stroke: red; fill: red; }
]]></style>
<script type="text/javascript"><![CDATA[
var edges = document.getElementsByTagName('g');
if (edges && edges.length) {
  for (var i=0;i<edges.length;i++) {
    if (edges[i].id.substr(0,4)=='edge') {
      edges[i].setAttribute('class','edge');
    }
  }
}
]]></script>
        <defs>
                <circle id="rim" cx="0" cy="0" r="7"/>
                <circle id="rim2" cx="0" cy="0" r="3.5"/>
                <g id="zoomPlus">
                        <use xlink:href="#rim" fill="#404040">
                                <set attributeName="fill" to="#808080" begin="zoomplus.mouseover" end="zoomplus.mouseout"/>
                        </use>
                        <path d="M-4,0h8M0,-4v8" fill="none" stroke="white" stroke-width="1.5" pointer-events="none"/>
                </g>
                <g id="zoomMin">
                        <use xlink:href="#rim" fill="#404040">
                                <set attributeName="fill" to="#808080" begin="zoomminus.mouseover" end="zoomminus.mouseout"/>
                        </use>
                        <path d="M-4,0h8" fill="none" stroke="white" stroke-width="1.5" pointer-events="none"/>
                </g>
                <g id="dirArrow">
                        <path fill="none" stroke="white" stroke-width="1.5" d="M0,-3.0v7 M-2.5,-0.5L0,-3.0L2.5,-0.5"/>
                </g>
               <g id="resetDef">
                       <use xlink:href="#rim2" fill="#404040">
                               <set attributeName="fill" to="#808080" begin="reset.mouseover" end="reset.mouseout"/>
                       </use>
               </g>
        </defs>

<script type="text/javascript">
var viewWidth = 1076;
var viewHeight = 390;
var sectionId = 'dynsection-0';
</script>
<script xlink:href="svgpan.js"/>
<svg id="graph" class="graph">
<g id="viewport">
<title>include/cinder/audio/GenNode.h</title>
<polygon fill="white" stroke="white" points="-4,5 -4,-386 1073,-386 1073,5 -4,5"/>
<!-- Node1 -->
<g id="node1" class="node"><title>Node1</title>
<polygon fill="#bfbfbf" stroke="black" points="373.525,-349 373.525,-381 478.475,-381 478.475,-349 373.525,-349"/>
<text text-anchor="start" x="381.525" y="-367" font-family="Helvetica,sans-Serif" font-size="10.00">include/cinder/audio</text>
<text text-anchor="middle" x="426" y="-355" font-family="Helvetica,sans-Serif" font-size="10.00">/GenNode.h</text>
</g>
<!-- Node2 -->
<g id="node2" class="node"><title>Node2</title>
<g id="a_node2"><a xlink:href="_input_node_8h.html" target="_top" xlink:title="cinder/audio/InputNode.h">
<polygon fill="white" stroke="black" points="437.126,-291 437.126,-311 564.874,-311 564.874,-291 437.126,-291"/>
<text text-anchor="middle" x="501" y="-297" font-family="Helvetica,sans-Serif" font-size="10.00">cinder/audio/InputNode.h</text>
</a>
</g>
</g>
<!-- Node1&#45;&gt;Node2 -->
<g id="edge1" class="edge"><title>Node1&#45;&gt;Node2</title>
<path fill="none" stroke="midnightblue" d="M444.155,-348.992C455.598,-339.533 470.349,-327.338 481.957,-317.742"/>
<polygon fill="midnightblue" stroke="midnightblue" points="484.284,-320.36 489.762,-311.29 479.824,-314.964 484.284,-320.36"/>
</g>
<!-- Node30 -->
<g id="node30" class="node"><title>Node30</title>
<g id="a_node30"><a xlink:href="_wave_table_8h.html" target="_top" xlink:title="cinder/audio/WaveTable.h">
<polygon fill="white" stroke="black" points="166.649,-233 166.649,-253 297.351,-253 297.351,-233 166.649,-233"/>
<text text-anchor="middle" x="232" y="-239" font-family="Helvetica,sans-Serif" font-size="10.00">cinder/audio/WaveTable.h</text>
</a>
</g>
</g>
<!-- Node1&#45;&gt;Node30 -->
<g id="edge42" class="edge"><title>Node1&#45;&gt;Node30</title>
<path fill="none" stroke="midnightblue" d="M401.43,-348.802C363.833,-325.546 292.507,-281.427 255.538,-258.56"/>
<polygon fill="midnightblue" stroke="midnightblue" points="257.267,-255.513 246.921,-253.229 253.584,-261.467 257.267,-255.513"/>
</g>
<!-- Node3 -->
<g id="node3" class="node"><title>Node3</title>
<g id="a_node3"><a xlink:href="_node_8h.html" target="_top" xlink:title="cinder/audio/Node.h">
<polygon fill="white" stroke="black" points="543.247,-233 543.247,-253 648.753,-253 648.753,-233 543.247,-233"/>
<text text-anchor="middle" x="596" y="-239" font-family="Helvetica,sans-Serif" font-size="10.00">cinder/audio/Node.h</text>
</a>
</g>
</g>
<!-- Node2&#45;&gt;Node3 -->
<g id="edge2" class="edge"><title>Node2&#45;&gt;Node3</title>
<path fill="none" stroke="midnightblue" d="M516.687,-290.753C531.628,-281.946 554.34,-268.558 571.636,-258.362"/>
<polygon fill="midnightblue" stroke="midnightblue" points="573.767,-261.169 580.605,-253.075 570.213,-255.138 573.767,-261.169"/>
</g>
<!-- Node23 -->
<g id="node23" class="node"><title>Node23</title>
<g id="a_node23"><a xlink:href="_param_8h.html" target="_top" xlink:title="cinder/audio/Param.h">
<polygon fill="white" stroke="black" points="382.473,-233 382.473,-253 493.527,-253 493.527,-233 382.473,-233"/>
<text text-anchor="middle" x="438" y="-239" font-family="Helvetica,sans-Serif" font-size="10.00">cinder/audio/Param.h</text>
</a>
</g>
</g>
<!-- Node2&#45;&gt;Node23 -->
<g id="edge25" class="edge"><title>Node2&#45;&gt;Node23</title>
<path fill="none" stroke="midnightblue" d="M490.597,-290.753C481.148,-282.353 467.011,-269.787 455.772,-259.798"/>
<polygon fill="midnightblue" stroke="midnightblue" points="458.009,-257.103 448.21,-253.075 453.358,-262.335 458.009,-257.103"/>
</g>
<!-- Node26 -->
<g id="node26" class="node"><title>Node26</title>
<g id="a_node26"><a xlink:href="_device_8h.html" target="_top" xlink:title="cinder/audio/Device.h">
<polygon fill="white" stroke="black" points="750.917,-175 750.917,-195 863.083,-195 863.083,-175 750.917,-175"/>
<text text-anchor="middle" x="807" y="-181" font-family="Helvetica,sans-Serif" font-size="10.00">cinder/audio/Device.h</text>
</a>
</g>
</g>
<!-- Node2&#45;&gt;Node26 -->
<g id="edge30" class="edge"><title>Node2&#45;&gt;Node26</title>
<path fill="none" stroke="midnightblue" d="M536.775,-290.968C568.696,-282.553 616.51,-269.064 657,-254 700.819,-237.697 749.858,-214.478 779.571,-199.829"/>
<polygon fill="midnightblue" stroke="midnightblue" points="781.47,-202.794 788.871,-195.212 778.358,-196.524 781.47,-202.794"/>
</g>
<!-- Node4 -->
<g id="node4" class="node"><title>Node4</title>
<g id="a_node4"><a xlink:href="audio_2_buffer_8h.html" target="_top" xlink:title="cinder/audio/Buffer.h">
<polygon fill="white" stroke="black" points="298.221,-175 298.221,-195 405.779,-195 405.779,-175 298.221,-175"/>
<text text-anchor="middle" x="352" y="-181" font-family="Helvetica,sans-Serif" font-size="10.00">cinder/audio/Buffer.h</text>
</a>
</g>
</g>
<!-- Node3&#45;&gt;Node4 -->
<g id="edge3" class="edge"><title>Node3&#45;&gt;Node4</title>
<path fill="none" stroke="midnightblue" d="M556.526,-232.94C514.268,-223.242 447.143,-207.836 401.407,-197.339"/>
<polygon fill="midnightblue" stroke="midnightblue" points="401.947,-193.872 391.417,-195.047 400.381,-200.695 401.947,-193.872"/>
</g>
<!-- Node12 -->
<g id="node12" class="node"><title>Node12</title>
<g id="a_node12"><a xlink:href="audio_2_exception_8h.html" target="_top" xlink:title="cinder/audio/Exception.h">
<polygon fill="white" stroke="black" points="919.242,-175 919.242,-195 1044.76,-195 1044.76,-175 919.242,-175"/>
<text text-anchor="middle" x="982" y="-181" font-family="Helvetica,sans-Serif" font-size="10.00">cinder/audio/Exception.h</text>
</a>
</g>
</g>
<!-- Node3&#45;&gt;Node12 -->
<g id="edge11" class="edge"><title>Node3&#45;&gt;Node12</title>
<path fill="none" stroke="midnightblue" d="M648.862,-234.331C716.542,-224.512 834.103,-207.457 909.939,-196.454"/>
<polygon fill="midnightblue" stroke="midnightblue" points="910.499,-199.91 919.893,-195.01 909.494,-192.982 910.499,-199.91"/>
</g>
<!-- Node19 -->
<g id="node19" class="node"><title>Node19</title>
<polygon fill="white" stroke="#bfbfbf" points="726.291,-117 726.291,-137 845.709,-137 845.709,-117 726.291,-117"/>
<text text-anchor="middle" x="786" y="-123" font-family="Helvetica,sans-Serif" font-size="10.00">boost/noncopyable.hpp</text>
</g>
<!-- Node3&#45;&gt;Node19 -->
<g id="edge20" class="edge"><title>Node3&#45;&gt;Node19</title>
<path fill="none" stroke="midnightblue" d="M648.864,-241.001C720.847,-238.394 843.976,-229.081 872,-196 891.177,-173.362 855.117,-153.081 823.976,-140.68"/>
<polygon fill="midnightblue" stroke="midnightblue" points="825.128,-137.374 814.536,-137.091 822.64,-143.917 825.128,-137.374"/>
</g>
<!-- Node20 -->
<g id="node20" class="node"><title>Node20</title>
<polygon fill="white" stroke="#bfbfbf" points="572.357,-175 572.357,-195 685.643,-195 685.643,-175 572.357,-175"/>
<text text-anchor="middle" x="629" y="-181" font-family="Helvetica,sans-Serif" font-size="10.00">boost/logic/tribool.hpp</text>
</g>
<!-- Node3&#45;&gt;Node20 -->
<g id="edge21" class="edge"><title>Node3&#45;&gt;Node20</title>
<path fill="none" stroke="midnightblue" d="M601.449,-232.753C606.063,-224.924 612.809,-213.476 618.471,-203.868"/>
<polygon fill="midnightblue" stroke="midnightblue" points="621.591,-205.468 623.652,-195.075 615.56,-201.914 621.591,-205.468"/>
</g>
<!-- Node9 -->
<g id="node9" class="node"><title>Node9</title>
<polygon fill="white" stroke="#bfbfbf" points="507.943,-117 507.943,-137 560.057,-137 560.057,-117 507.943,-117"/>
<text text-anchor="middle" x="534" y="-123" font-family="Helvetica,sans-Serif" font-size="10.00">memory</text>
</g>
<!-- Node3&#45;&gt;Node9 -->
<g id="edge22" class="edge"><title>Node3&#45;&gt;Node9</title>
<path fill="none" stroke="midnightblue" d="M588.544,-232.887C581.403,-223.883 570.618,-209.532 563,-196 553.97,-179.958 545.954,-160.545 540.652,-146.574"/>
<polygon fill="midnightblue" stroke="midnightblue" points="543.9,-145.267 537.154,-137.098 537.333,-147.692 543.9,-145.267"/>
</g>
<!-- Node21 -->
<g id="node21" class="node"><title>Node21</title>
<polygon fill="white" stroke="#bfbfbf" points="470.273,-175 470.273,-195 515.727,-195 515.727,-175 470.273,-175"/>
<text text-anchor="middle" x="493" y="-181" font-family="Helvetica,sans-Serif" font-size="10.00">atomic</text>
</g>
<!-- Node3&#45;&gt;Node21 -->
<g id="edge23" class="edge"><title>Node3&#45;&gt;Node21</title>
<path fill="none" stroke="midnightblue" d="M578.992,-232.753C562.568,-223.823 537.483,-210.185 518.637,-199.939"/>
<polygon fill="midnightblue" stroke="midnightblue" points="520.149,-196.777 509.692,-195.075 516.806,-202.927 520.149,-196.777"/>
</g>
<!-- Node22 -->
<g id="node22" class="node"><title>Node22</title>
<polygon fill="white" stroke="#bfbfbf" points="703.33,-175 703.33,-195 732.67,-195 732.67,-175 703.33,-175"/>
<text text-anchor="middle" x="718" y="-181" font-family="Helvetica,sans-Serif" font-size="10.00">set</text>
</g>
<!-- Node3&#45;&gt;Node22 -->
<g id="edge24" class="edge"><title>Node3&#45;&gt;Node22</title>
<path fill="none" stroke="midnightblue" d="M615.873,-232.878C637.164,-223.105 670.968,-207.588 693.796,-197.11"/>
<polygon fill="midnightblue" stroke="midnightblue" points="695.505,-200.177 703.133,-192.824 692.584,-193.815 695.505,-200.177"/>
</g>
<!-- Node5 -->
<g id="node5" class="node"><title>Node5</title>
<g id="a_node5"><a xlink:href="_cinder_assert_8h.html" target="_top" xlink:title="cinder/CinderAssert.h">
<polygon fill="white" stroke="black" points="91.9238,-117 91.9238,-137 204.076,-137 204.076,-117 91.9238,-117"/>
<text text-anchor="middle" x="148" y="-123" font-family="Helvetica,sans-Serif" font-size="10.00">cinder/CinderAssert.h</text>
</a>
</g>
</g>
<!-- Node4&#45;&gt;Node5 -->
<g id="edge4" class="edge"><title>Node4&#45;&gt;Node5</title>
<path fill="none" stroke="midnightblue" d="M318.77,-174.878C283.843,-165.29 228.78,-150.175 190.664,-139.712"/>
<polygon fill="midnightblue" stroke="midnightblue" points="191.448,-136.297 180.878,-137.025 189.595,-143.048 191.448,-136.297"/>
</g>
<!-- Node8 -->
<g id="node8" class="node"><title>Node8</title>
<polygon fill="white" stroke="#bfbfbf" points="476.384,-59 476.384,-79 519.616,-79 519.616,-59 476.384,-59"/>
<text text-anchor="middle" x="498" y="-65" font-family="Helvetica,sans-Serif" font-size="10.00">vector</text>
</g>
<!-- Node4&#45;&gt;Node8 -->
<g id="edge7" class="edge"><title>Node4&#45;&gt;Node8</title>
<path fill="none" stroke="midnightblue" d="M352.023,-174.813C352.557,-160.43 355.661,-132.535 371,-116 395.857,-89.2042 437.522,-77.9856 466.314,-73.309"/>
<polygon fill="midnightblue" stroke="midnightblue" points="466.89,-76.7622 476.285,-71.8652 465.887,-69.8345 466.89,-76.7622"/>
</g>
<!-- Node4&#45;&gt;Node9 -->
<g id="edge8" class="edge"><title>Node4&#45;&gt;Node9</title>
<path fill="none" stroke="midnightblue" d="M381.647,-174.878C413.55,-165.062 464.286,-149.451 498.344,-138.971"/>
<polygon fill="midnightblue" stroke="midnightblue" points="499.38,-142.314 507.909,-136.028 497.322,-135.624 499.38,-142.314"/>
</g>
<!-- Node10 -->
<g id="node10" class="node"><title>Node10</title>
<polygon fill="white" stroke="#bfbfbf" points="379.828,-117 379.828,-137 424.172,-137 424.172,-117 379.828,-117"/>
<text text-anchor="middle" x="402" y="-123" font-family="Helvetica,sans-Serif" font-size="10.00">cstdlib</text>
</g>
<!-- Node4&#45;&gt;Node10 -->
<g id="edge9" class="edge"><title>Node4&#45;&gt;Node10</title>
<path fill="none" stroke="midnightblue" d="M360.256,-174.753C367.537,-166.598 378.325,-154.516 387.11,-144.677"/>
<polygon fill="midnightblue" stroke="midnightblue" points="389.848,-146.866 393.897,-137.075 384.626,-142.204 389.848,-146.866"/>
</g>
<!-- Node11 -->
<g id="node11" class="node"><title>Node11</title>
<polygon fill="white" stroke="#bfbfbf" points="537.436,-59 537.436,-79 594.564,-79 594.564,-59 537.436,-59"/>
<text text-anchor="middle" x="566" y="-65" font-family="Helvetica,sans-Serif" font-size="10.00">algorithm</text>
</g>
<!-- Node4&#45;&gt;Node11 -->
<g id="edge10" class="edge"><title>Node4&#45;&gt;Node11</title>
<path fill="none" stroke="midnightblue" d="M369.151,-174.864C406.574,-154.928 495.745,-107.425 540.07,-83.8131"/>
<polygon fill="midnightblue" stroke="midnightblue" points="541.884,-86.8124 549.065,-79.0217 538.593,-80.6343 541.884,-86.8124"/>
</g>
<!-- Node6 -->
<g id="node6" class="node"><title>Node6</title>
<g id="a_node6"><a xlink:href="_current_function_8h.html" target="_top" xlink:title="cinder/CurrentFunction.h">
<polygon fill="white" stroke="black" points="32.9731,-59 32.9731,-79 159.027,-79 159.027,-59 32.9731,-59"/>
<text text-anchor="middle" x="96" y="-65" font-family="Helvetica,sans-Serif" font-size="10.00">cinder/CurrentFunction.h</text>
</a>
</g>
</g>
<!-- Node5&#45;&gt;Node6 -->
<g id="edge5" class="edge"><title>Node5&#45;&gt;Node6</title>
<path fill="none" stroke="midnightblue" d="M139.413,-116.753C131.841,-108.598 120.622,-96.5158 111.486,-86.6769"/>
<polygon fill="midnightblue" stroke="midnightblue" points="113.796,-84.0216 104.427,-79.0752 108.667,-88.7847 113.796,-84.0216"/>
</g>
<!-- Node7 -->
<g id="node7" class="node"><title>Node7</title>
<polygon fill="white" stroke="#bfbfbf" points="176.884,-59 176.884,-79 225.116,-79 225.116,-59 176.884,-59"/>
<text text-anchor="middle" x="201" y="-65" font-family="Helvetica,sans-Serif" font-size="10.00">cassert</text>
</g>
<!-- Node5&#45;&gt;Node7 -->
<g id="edge6" class="edge"><title>Node5&#45;&gt;Node7</title>
<path fill="none" stroke="midnightblue" d="M156.752,-116.753C164.547,-108.516 176.134,-96.2738 185.495,-86.3824"/>
<polygon fill="midnightblue" stroke="midnightblue" points="188.079,-88.744 192.411,-79.0752 182.995,-83.9323 188.079,-88.744"/>
</g>
<!-- Node13 -->
<g id="node13" class="node"><title>Node13</title>
<g id="a_node13"><a xlink:href="_exception_8h.html" target="_top" xlink:title="cinder/Exception.h">
<polygon fill="white" stroke="black" points="863.865,-117 863.865,-137 962.135,-137 962.135,-117 863.865,-117"/>
<text text-anchor="middle" x="913" y="-123" font-family="Helvetica,sans-Serif" font-size="10.00">cinder/Exception.h</text>
</a>
</g>
</g>
<!-- Node12&#45;&gt;Node13 -->
<g id="edge12" class="edge"><title>Node12&#45;&gt;Node13</title>
<path fill="none" stroke="midnightblue" d="M970.606,-174.753C960.156,-166.272 944.473,-153.543 932.107,-143.507"/>
<polygon fill="midnightblue" stroke="midnightblue" points="934.152,-140.659 924.182,-137.075 929.741,-146.095 934.152,-140.659"/>
</g>
<!-- Node18 -->
<g id="node18" class="node"><title>Node18</title>
<polygon fill="white" stroke="#bfbfbf" points="969.773,-59 969.773,-79 1010.23,-79 1010.23,-59 969.773,-59"/>
<text text-anchor="middle" x="990" y="-65" font-family="Helvetica,sans-Serif" font-size="10.00">string</text>
</g>
<!-- Node12&#45;&gt;Node18 -->
<g id="edge19" class="edge"><title>Node12&#45;&gt;Node18</title>
<path fill="none" stroke="midnightblue" d="M987.843,-174.935C993.251,-165.966 1000.91,-151.64 1004,-138 1007.78,-121.327 1003.07,-102.254 998.125,-88.5594"/>
<polygon fill="midnightblue" stroke="midnightblue" points="1001.38,-87.2633 994.429,-79.2642 994.871,-89.8498 1001.38,-87.2633"/>
</g>
<!-- Node14 -->
<g id="node14" class="node"><title>Node14</title>
<g id="a_node14"><a xlink:href="_cinder_8h.html" target="_top" xlink:title="cinder/Cinder.h">
<polygon fill="white" stroke="black" points="827.367,-59 827.367,-79 910.633,-79 910.633,-59 827.367,-59"/>
<text text-anchor="middle" x="869" y="-65" font-family="Helvetica,sans-Serif" font-size="10.00">cinder/Cinder.h</text>
</a>
</g>
</g>
<!-- Node13&#45;&gt;Node14 -->
<g id="edge13" class="edge"><title>Node13&#45;&gt;Node14</title>
<path fill="none" stroke="midnightblue" d="M905.734,-116.753C899.391,-108.68 890.023,-96.7571 882.336,-86.9727"/>
<polygon fill="midnightblue" stroke="midnightblue" points="885.061,-84.776 876.131,-79.0752 879.557,-89.1008 885.061,-84.776"/>
</g>
<!-- Node13&#45;&gt;Node8 -->
<g id="edge17" class="edge"><title>Node13&#45;&gt;Node8</title>
<path fill="none" stroke="midnightblue" d="M863.778,-117.438C860.472,-116.931 857.19,-116.446 854,-116 712.878,-96.2653 672.203,-110.549 529.786,-80.0375"/>
<polygon fill="midnightblue" stroke="midnightblue" points="530.321,-76.5721 519.805,-77.8624 528.831,-83.4116 530.321,-76.5721"/>
</g>
<!-- Node13&#45;&gt;Node18 -->
<g id="edge18" class="edge"><title>Node13&#45;&gt;Node18</title>
<path fill="none" stroke="midnightblue" d="M925.715,-116.753C937.488,-108.19 955.216,-95.2978 969.074,-85.2186"/>
<polygon fill="midnightblue" stroke="midnightblue" points="971.493,-87.7875 977.522,-79.0752 967.376,-82.1264 971.493,-87.7875"/>
</g>
<!-- Node15 -->
<g id="node15" class="node"><title>Node15</title>
<polygon fill="white" stroke="#bfbfbf" points="758.549,-1 758.549,-21 803.451,-21 803.451,-1 758.549,-1"/>
<text text-anchor="middle" x="781" y="-7" font-family="Helvetica,sans-Serif" font-size="10.00">cstdint</text>
</g>
<!-- Node14&#45;&gt;Node15 -->
<g id="edge14" class="edge"><title>Node14&#45;&gt;Node15</title>
<path fill="none" stroke="midnightblue" d="M854.469,-58.7527C840.757,-50.0272 819.979,-36.8051 804.015,-26.6458"/>
<polygon fill="midnightblue" stroke="midnightblue" points="805.577,-23.4912 795.261,-21.0752 801.819,-29.3968 805.577,-23.4912"/>
</g>
<!-- Node16 -->
<g id="node16" class="node"><title>Node16</title>
<polygon fill="white" stroke="#bfbfbf" points="821.53,-1 821.53,-21 916.47,-21 916.47,-1 821.53,-1"/>
<text text-anchor="middle" x="869" y="-7" font-family="Helvetica,sans-Serif" font-size="10.00">boost/version.hpp</text>
</g>
<!-- Node14&#45;&gt;Node16 -->
<g id="edge15" class="edge"><title>Node14&#45;&gt;Node16</title>
<path fill="none" stroke="midnightblue" d="M869,-58.7527C869,-51.2504 869,-40.4238 869,-31.0781"/>
<polygon fill="midnightblue" stroke="midnightblue" points="872.5,-31.0752 869,-21.0752 865.5,-31.0752 872.5,-31.0752"/>
</g>
<!-- Node17 -->
<g id="node17" class="node"><title>Node17</title>
<polygon fill="white" stroke="#bfbfbf" points="934.621,-1 934.621,-21 1067.38,-21 1067.38,-1 934.621,-1"/>
<text text-anchor="middle" x="1001" y="-7" font-family="Helvetica,sans-Serif" font-size="10.00">boost/checked_delete.hpp</text>
</g>
<!-- Node14&#45;&gt;Node17 -->
<g id="edge16" class="edge"><title>Node14&#45;&gt;Node17</title>
<path fill="none" stroke="midnightblue" d="M890.502,-58.878C912.172,-49.6848 945.821,-35.4095 970.295,-25.0263"/>
<polygon fill="midnightblue" stroke="midnightblue" points="971.668,-28.2457 979.507,-21.1181 968.935,-21.8016 971.668,-28.2457"/>
</g>
<!-- Node23&#45;&gt;Node4 -->
<g id="edge26" class="edge"><title>Node23&#45;&gt;Node4</title>
<path fill="none" stroke="midnightblue" d="M423.799,-232.753C410.399,-224.027 390.093,-210.805 374.492,-200.646"/>
<polygon fill="midnightblue" stroke="midnightblue" points="376.227,-197.599 365.937,-195.075 372.407,-203.465 376.227,-197.599"/>
</g>
<!-- Node24 -->
<g id="node24" class="node"><title>Node24</title>
<polygon fill="white" stroke="#bfbfbf" points="423.5,-175 423.5,-195 452.5,-195 452.5,-175 423.5,-175"/>
<text text-anchor="middle" x="437.611" y="-181" font-family="Helvetica,sans-Serif" font-size="10.00">list</text>
</g>
<!-- Node23&#45;&gt;Node24 -->
<g id="edge27" class="edge"><title>Node23&#45;&gt;Node24</title>
<path fill="none" stroke="midnightblue" d="M438,-232.753C438,-225.25 438,-214.424 438,-205.078"/>
<polygon fill="midnightblue" stroke="midnightblue" points="441.5,-205.075 438,-195.075 434.5,-205.075 441.5,-205.075"/>
</g>
<!-- Node23&#45;&gt;Node21 -->
<g id="edge28" class="edge"><title>Node23&#45;&gt;Node21</title>
<path fill="none" stroke="midnightblue" d="M447.082,-232.753C455.171,-224.516 467.195,-212.274 476.91,-202.382"/>
<polygon fill="midnightblue" stroke="midnightblue" points="479.577,-204.662 484.087,-195.075 474.583,-199.757 479.577,-204.662"/>
</g>
<!-- Node25 -->
<g id="node25" class="node"><title>Node25</title>
<polygon fill="white" stroke="#bfbfbf" points="321.596,-59 321.596,-79 380.404,-79 380.404,-59 321.596,-59"/>
<text text-anchor="middle" x="351" y="-65" font-family="Helvetica,sans-Serif" font-size="10.00">functional</text>
</g>
<!-- Node23&#45;&gt;Node25 -->
<g id="edge29" class="edge"><title>Node23&#45;&gt;Node25</title>
<path fill="none" stroke="midnightblue" d="M382.297,-240.365C349.464,-236.173 310.298,-224.865 289,-196 262.502,-160.087 305.605,-111.106 332.316,-86.1103"/>
<polygon fill="midnightblue" stroke="midnightblue" points="334.923,-88.4716 339.985,-79.1641 330.224,-83.2835 334.923,-88.4716"/>
</g>
<!-- Node27 -->
<g id="node27" class="node"><title>Node27</title>
<g id="a_node27"><a xlink:href="_function_8h.html" target="_top" xlink:title="cinder/Function.h">
<polygon fill="white" stroke="black" points="615.646,-117 615.646,-137 708.354,-137 708.354,-117 615.646,-117"/>
<text text-anchor="middle" x="662" y="-123" font-family="Helvetica,sans-Serif" font-size="10.00">cinder/Function.h</text>
</a>
</g>
</g>
<!-- Node26&#45;&gt;Node27 -->
<g id="edge31" class="edge"><title>Node26&#45;&gt;Node27</title>
<path fill="none" stroke="midnightblue" d="M783.381,-174.878C759.366,-165.603 721.959,-151.156 695.017,-140.752"/>
<polygon fill="midnightblue" stroke="midnightblue" points="696.199,-137.456 685.609,-137.118 693.677,-143.986 696.199,-137.456"/>
</g>
<!-- Node26&#45;&gt;Node9 -->
<g id="edge38" class="edge"><title>Node26&#45;&gt;Node9</title>
<path fill="none" stroke="midnightblue" d="M757.306,-174.935C710.03,-166.135 636.974,-152.079 574,-138 572.743,-137.719 571.464,-137.428 570.174,-137.13"/>
<polygon fill="midnightblue" stroke="midnightblue" points="570.745,-133.668 560.205,-134.751 569.12,-140.476 570.745,-133.668"/>
</g>
<!-- Node26&#45;&gt;Node18 -->
<g id="edge39" class="edge"><title>Node26&#45;&gt;Node18</title>
<path fill="none" stroke="midnightblue" d="M863.371,-181.813C898.722,-177.49 942.786,-166.242 971,-138 983.702,-125.285 988.087,-104.828 989.515,-89.6685"/>
<polygon fill="midnightblue" stroke="midnightblue" points="993.03,-89.5118 990.119,-79.3246 986.042,-89.1034 993.03,-89.5118"/>
</g>
<!-- Node26&#45;&gt;Node8 -->
<g id="edge40" class="edge"><title>Node26&#45;&gt;Node8</title>
<path fill="none" stroke="midnightblue" d="M759.449,-174.951C709.397,-165.091 634.165,-149.227 607,-138 597.933,-134.252 549.835,-103.532 520.645,-84.6871"/>
<polygon fill="midnightblue" stroke="midnightblue" points="522.203,-81.5266 511.905,-79.0353 518.402,-87.4047 522.203,-81.5266"/>
</g>
<!-- Node26&#45;&gt;Node19 -->
<g id="edge41" class="edge"><title>Node26&#45;&gt;Node19</title>
<path fill="none" stroke="midnightblue" d="M803.532,-174.753C800.658,-167.087 796.482,-155.952 792.927,-146.471"/>
<polygon fill="midnightblue" stroke="midnightblue" points="796.192,-145.21 789.403,-137.075 789.637,-147.667 796.192,-145.21"/>
</g>
<!-- Node27&#45;&gt;Node14 -->
<g id="edge32" class="edge"><title>Node27&#45;&gt;Node14</title>
<path fill="none" stroke="midnightblue" d="M695.719,-116.878C731.159,-107.29 787.032,-92.1748 825.709,-81.7116"/>
<polygon fill="midnightblue" stroke="midnightblue" points="826.9,-85.0154 835.639,-79.0253 825.072,-78.2583 826.9,-85.0154"/>
</g>
<!-- Node27&#45;&gt;Node11 -->
<g id="edge33" class="edge"><title>Node27&#45;&gt;Node11</title>
<path fill="none" stroke="midnightblue" d="M646.148,-116.753C631.05,-107.946 608.099,-94.5575 590.62,-84.3617"/>
<polygon fill="midnightblue" stroke="midnightblue" points="591.959,-81.0907 581.557,-79.0752 588.432,-87.1372 591.959,-81.0907"/>
</g>
<!-- Node27&#45;&gt;Node8 -->
<g id="edge34" class="edge"><title>Node27&#45;&gt;Node8</title>
<path fill="none" stroke="midnightblue" d="M635.286,-116.878C606.337,-106.993 560.18,-91.2323 529.489,-80.7523"/>
<polygon fill="midnightblue" stroke="midnightblue" points="530.315,-77.336 519.72,-77.4167 528.053,-83.9604 530.315,-77.336"/>
</g>
<!-- Node28 -->
<g id="node28" class="node"><title>Node28</title>
<polygon fill="white" stroke="#bfbfbf" points="729.608,-59 729.608,-79 768.392,-79 768.392,-59 729.608,-59"/>
<text text-anchor="middle" x="749" y="-65" font-family="Helvetica,sans-Serif" font-size="10.00">utility</text>
</g>
<!-- Node27&#45;&gt;Node28 -->
<g id="edge35" class="edge"><title>Node27&#45;&gt;Node28</title>
<path fill="none" stroke="midnightblue" d="M676.366,-116.753C689.922,-108.027 710.464,-94.8051 726.247,-84.6458"/>
<polygon fill="midnightblue" stroke="midnightblue" points="728.387,-87.4307 734.901,-79.0752 724.598,-81.5447 728.387,-87.4307"/>
</g>
<!-- Node29 -->
<g id="node29" class="node"><title>Node29</title>
<polygon fill="white" stroke="#bfbfbf" points="612.303,-59 612.303,-79 711.697,-79 711.697,-59 612.303,-59"/>
<text text-anchor="middle" x="662" y="-65" font-family="Helvetica,sans-Serif" font-size="10.00">boost/signals2.hpp</text>
</g>
<!-- Node27&#45;&gt;Node29 -->
<g id="edge36" class="edge"><title>Node27&#45;&gt;Node29</title>
<path fill="none" stroke="midnightblue" d="M662,-116.753C662,-109.25 662,-98.4238 662,-89.0781"/>
<polygon fill="midnightblue" stroke="midnightblue" points="665.5,-89.0752 662,-79.0752 658.5,-89.0752 665.5,-89.0752"/>
</g>
<!-- Node27&#45;&gt;Node25 -->
<g id="edge37" class="edge"><title>Node27&#45;&gt;Node25</title>
<path fill="none" stroke="midnightblue" d="M615.44,-117.616C554.343,-106.615 448.156,-87.4943 390.684,-77.1457"/>
<polygon fill="midnightblue" stroke="midnightblue" points="391.004,-73.647 380.542,-75.3194 389.763,-80.5362 391.004,-73.647"/>
</g>
<!-- Node31 -->
<g id="node31" class="node"><title>Node31</title>
<g id="a_node31"><a xlink:href="_waveform_type_8h.html" target="_top" xlink:title="cinder/audio/WaveformType.h">
<polygon fill="white" stroke="black" points="-0.240234,-175 -0.240234,-195 148.24,-195 148.24,-175 -0.240234,-175"/>
<text text-anchor="middle" x="74" y="-181" font-family="Helvetica,sans-Serif" font-size="10.00">cinder/audio/WaveformType.h</text>
</a>
</g>
</g>
<!-- Node30&#45;&gt;Node31 -->
<g id="edge43" class="edge"><title>Node30&#45;&gt;Node31</title>
<path fill="none" stroke="midnightblue" d="M206.263,-232.878C179.787,-223.494 138.372,-208.815 108.945,-198.386"/>
<polygon fill="midnightblue" stroke="midnightblue" points="110.059,-195.067 99.4643,-195.025 107.72,-201.665 110.059,-195.067"/>
</g>
<!-- Node30&#45;&gt;Node4 -->
<g id="edge44" class="edge"><title>Node30&#45;&gt;Node4</title>
<path fill="none" stroke="midnightblue" d="M251.547,-232.878C270.985,-223.807 301.027,-209.788 323.196,-199.442"/>
<polygon fill="midnightblue" stroke="midnightblue" points="324.879,-202.519 332.461,-195.118 321.919,-196.175 324.879,-202.519"/>
</g>
<!-- Node30&#45;&gt;Node8 -->
<g id="edge45" class="edge"><title>Node30&#45;&gt;Node8</title>
<path fill="none" stroke="midnightblue" d="M238.21,-232.673C254.409,-209.12 300.494,-146.926 355,-116 390.609,-95.7956 436.322,-83.0725 466.355,-76.2532"/>
<polygon fill="midnightblue" stroke="midnightblue" points="467.259,-79.6384 476.282,-74.0848 465.765,-72.7996 467.259,-79.6384"/>
</g>
<!-- Node32 -->
<g id="node32" class="node"><title>Node32</title>
<polygon fill="white" stroke="#bfbfbf" points="166.158,-175 166.158,-195 203.842,-195 203.842,-175 166.158,-175"/>
<text text-anchor="middle" x="185" y="-181" font-family="Helvetica,sans-Serif" font-size="10.00">tuple</text>
</g>
<!-- Node30&#45;&gt;Node32 -->
<g id="edge46" class="edge"><title>Node30&#45;&gt;Node32</title>
<path fill="none" stroke="midnightblue" d="M224.239,-232.753C217.463,-224.68 207.457,-212.757 199.245,-202.973"/>
<polygon fill="midnightblue" stroke="midnightblue" points="201.726,-200.485 192.617,-195.075 196.365,-204.985 201.726,-200.485"/>
</g>
</g>
</svg>
        <g id="navigator" transform="translate(0 0)" fill="#404254">
                <rect fill="#f2f5e9" fill-opacity="0.5" stroke="#606060" stroke-width=".5" x="0" y="0" width="60" height="60"/>
                <use id="zoomplus" xlink:href="#zoomPlus" x="17" y="9" onmousedown="handleZoom(evt,'in')"/>
                <use id="zoomminus" xlink:href="#zoomMin" x="42" y="9" onmousedown="handleZoom(evt,'out')"/>
                <use id="reset" xlink:href="#resetDef" x="30" y="36" onmousedown="handleReset()"/>
                <g id="arrowUp" xlink:href="#dirArrow" transform="translate(30 24)" onmousedown="handlePan(0,-1)">
                  <use xlink:href="#rim" fill="#404040">
                        <set attributeName="fill" to="#808080" begin="arrowUp.mouseover" end="arrowUp.mouseout"/>
                  </use>
                  <path fill="none" stroke="white" stroke-width="1.5" d="M0,-3.0v7 M-2.5,-0.5L0,-3.0L2.5,-0.5"/>
                </g>
                <g id="arrowRight" xlink:href="#dirArrow" transform="rotate(90) translate(36 -43)" onmousedown="handlePan(1,0)">
                  <use xlink:href="#rim" fill="#404040">
                        <set attributeName="fill" to="#808080" begin="arrowRight.mouseover" end="arrowRight.mouseout"/>
                  </use>
                  <path fill="none" stroke="white" stroke-width="1.5" d="M0,-3.0v7 M-2.5,-0.5L0,-3.0L2.5,-0.5"/>
                </g>
                <g id="arrowDown" xlink:href="#dirArrow" transform="rotate(180) translate(-30 -48)" onmousedown="handlePan(0,1)">
                  <use xlink:href="#rim" fill="#404040">
                        <set attributeName="fill" to="#808080" begin="arrowDown.mouseover" end="arrowDown.mouseout"/>
                  </use>
                  <path fill="none" stroke="white" stroke-width="1.5" d="M0,-3.0v7 M-2.5,-0.5L0,-3.0L2.5,-0.5"/>
                </g>
                <g id="arrowLeft" xlink:href="#dirArrow" transform="rotate(270) translate(-36 17)" onmousedown="handlePan(-1,0)">
                  <use xlink:href="#rim" fill="#404040">
                        <set attributeName="fill" to="#808080" begin="arrowLeft.mouseover" end="arrowLeft.mouseout"/>
                  </use>
                  <path fill="none" stroke="white" stroke-width="1.5" d="M0,-3.0v7 M-2.5,-0.5L0,-3.0L2.5,-0.5"/>
                </g>
        </g>
        <svg viewBox="0 0 15 15" width="100%" height="30px" preserveAspectRatio="xMaxYMin meet">
         <g id="arrow_out" transform="scale(0.3 0.3)">
          <a xlink:href="_gen_node_8h__incl_org.svg" target="_base">
           <rect id="button" ry="5" rx="5" y="6" x="6" height="38" width="38"
                fill="#f2f5e9" fill-opacity="0.5" stroke="#606060" stroke-width="1.0"/>
           <path id="arrow"
             d="M 11.500037,31.436501 C 11.940474,20.09759 22.043105,11.32322 32.158766,21.979434 L 37.068811,17.246167 C 37.068811,17.246167 37.088388,32 37.088388,32 L 22.160133,31.978069 C 22.160133,31.978069 26.997745,27.140456 26.997745,27.140456 C 18.528582,18.264221 13.291696,25.230495 11.500037,31.436501 z"
             style="fill:#404040;"/>
          </a>
         </g>
        </svg>
</svg>
