<?xml version="1.0" encoding="UTF-8" standalone="no"?>
<!DOCTYPE svg PUBLIC "-//W3C//DTD SVG 1.1//EN"
 "http://www.w3.org/Graphics/SVG/1.1/DTD/svg11.dtd">
<!-- Generated by graphviz version 2.30.1 (20140712.1814)
 -->
<!-- Title: include/cinder/ip/Grayscale.h Pages: 1 -->
<svg width="269pt" height="88pt"
 viewBox="0.00 0.00 269.00 88.00" xmlns="http://www.w3.org/2000/svg" xmlns:xlink="http://www.w3.org/1999/xlink">
<g id="graph0" class="graph" transform="scale(1 1) rotate(0) translate(4 84)">
<title>include/cinder/ip/Grayscale.h</title>
<polygon fill="white" stroke="white" points="-4,5 -4,-84 266,-84 266,5 -4,5"/>
<!-- Node1 -->
<g id="node1" class="node"><title>Node1</title>
<polygon fill="#bfbfbf" stroke="black" points="65.8008,-59 65.8008,-79 210.199,-79 210.199,-59 65.8008,-59"/>
<text text-anchor="middle" x="138" y="-65" font-family="Helvetica,sans-Serif" font-size="10.00">include/cinder/ip/Grayscale.h</text>
</g>
<!-- Node2 -->
<g id="node2" class="node"><title>Node2</title>
<g id="a_node2"><a xlink:href="_grayscale_8cpp.html" target="_top" xlink:title="src/cinder/ip/Grayscale.cpp">
<polygon fill="white" stroke="black" points="-0.300293,-1 -0.300293,-21 136.3,-21 136.3,-1 -0.300293,-1"/>
<text text-anchor="middle" x="68" y="-7" font-family="Helvetica,sans-Serif" font-size="10.00">src/cinder/ip/Grayscale.cpp</text>
</a>
</g>
</g>
<!-- Node1&#45;&gt;Node2 -->
<g id="edge1" class="edge"><title>Node1&#45;&gt;Node2</title>
<path fill="none" stroke="midnightblue" d="M118.36,-52.288C105.77,-42.2161 89.8726,-29.4981 79.344,-21.0752"/>
<polygon fill="midnightblue" stroke="midnightblue" points="116.446,-55.2388 126.441,-58.7527 120.819,-49.7727 116.446,-55.2388"/>
</g>
<!-- Node3 -->
<g id="node3" class="node"><title>Node3</title>
<g id="a_node3"><a xlink:href="_hdr_8cpp.html" target="_top" xlink:title="src/cinder/ip/Hdr.cpp">
<polygon fill="white" stroke="black" points="154.424,-1 154.424,-21 261.576,-21 261.576,-1 154.424,-1"/>
<text text-anchor="middle" x="208" y="-7" font-family="Helvetica,sans-Serif" font-size="10.00">src/cinder/ip/Hdr.cpp</text>
</a>
</g>
</g>
<!-- Node1&#45;&gt;Node3 -->
<g id="edge2" class="edge"><title>Node1&#45;&gt;Node3</title>
<path fill="none" stroke="midnightblue" d="M157.64,-52.288C170.23,-42.2161 186.127,-29.4981 196.656,-21.0752"/>
<polygon fill="midnightblue" stroke="midnightblue" points="155.181,-49.7727 149.559,-58.7527 159.554,-55.2388 155.181,-49.7727"/>
</g>
</g>
</svg>
