<?xml version="1.0" encoding="UTF-8" standalone="no"?>
<!DOCTYPE svg PUBLIC "-//W3C//DTD SVG 1.1//EN"
 "http://www.w3.org/Graphics/SVG/1.1/DTD/svg11.dtd">
<!-- Generated by graphviz version 2.30.1 (20140712.1814)
 -->
<!-- Title: src/cinder/ip/Hdr.cpp Pages: 1 -->
<!--zoomable 494 -->
<svg id="main" version="1.1" xmlns="http://www.w3.org/2000/svg" xmlns:xlink="http://www.w3.org/1999/xlink" xml:space="preserve" onload="init(evt)">
<style type="text/css"><![CDATA[
.edge:hover path { stroke: red; }
.edge:hover polygon { stroke: red; fill: red; }
]]></style>
<script type="text/javascript"><![CDATA[
var edges = document.getElementsByTagName('g');
if (edges && edges.length) {
  for (var i=0;i<edges.length;i++) {
    if (edges[i].id.substr(0,4)=='edge') {
      edges[i].setAttribute('class','edge');
    }
  }
}
]]></script>
        <defs>
                <circle id="rim" cx="0" cy="0" r="7"/>
                <circle id="rim2" cx="0" cy="0" r="3.5"/>
                <g id="zoomPlus">
                        <use xlink:href="#rim" fill="#404040">
                                <set attributeName="fill" to="#808080" begin="zoomplus.mouseover" end="zoomplus.mouseout"/>
                        </use>
                        <path d="M-4,0h8M0,-4v8" fill="none" stroke="white" stroke-width="1.5" pointer-events="none"/>
                </g>
                <g id="zoomMin">
                        <use xlink:href="#rim" fill="#404040">
                                <set attributeName="fill" to="#808080" begin="zoomminus.mouseover" end="zoomminus.mouseout"/>
                        </use>
                        <path d="M-4,0h8" fill="none" stroke="white" stroke-width="1.5" pointer-events="none"/>
                </g>
                <g id="dirArrow">
                        <path fill="none" stroke="white" stroke-width="1.5" d="M0,-3.0v7 M-2.5,-0.5L0,-3.0L2.5,-0.5"/>
                </g>
               <g id="resetDef">
                       <use xlink:href="#rim2" fill="#404040">
                               <set attributeName="fill" to="#808080" begin="reset.mouseover" end="reset.mouseout"/>
                       </use>
               </g>
        </defs>

<script type="text/javascript">
var viewWidth = 991;
var viewHeight = 494;
var sectionId = 'dynsection-0';
</script>
<script xlink:href="svgpan.js"/>
<svg id="graph" class="graph">
<g id="viewport">
<title>src/cinder/ip/Hdr.cpp</title>
<polygon fill="white" stroke="white" points="-4,5 -4,-490 988.037,-490 988.037,5 -4,5"/>
<!-- Node1 -->
<g id="node1" class="node"><title>Node1</title>
<polygon fill="#bfbfbf" stroke="black" points="454.461,-465 454.461,-485 561.614,-485 561.614,-465 454.461,-465"/>
<text text-anchor="middle" x="508.037" y="-471" font-family="Helvetica,sans-Serif" font-size="10.00">src/cinder/ip/Hdr.cpp</text>
</g>
<!-- Node2 -->
<g id="node2" class="node"><title>Node2</title>
<g id="a_node2"><a xlink:href="_hdr_8h.html" target="_top" xlink:title="cinder/ip/Hdr.h">
<polygon fill="white" stroke="black" points="353.796,-407 353.796,-427 434.279,-427 434.279,-407 353.796,-407"/>
<text text-anchor="middle" x="394.037" y="-413" font-family="Helvetica,sans-Serif" font-size="10.00">cinder/ip/Hdr.h</text>
</a>
</g>
</g>
<!-- Node1&#45;&gt;Node2 -->
<g id="edge1" class="edge"><title>Node1&#45;&gt;Node2</title>
<path fill="none" stroke="midnightblue" d="M489.468,-464.878C471.084,-455.847 442.718,-441.913 421.685,-431.581"/>
<polygon fill="midnightblue" stroke="midnightblue" points="423.118,-428.386 412.599,-427.118 420.032,-434.669 423.118,-428.386"/>
</g>
<!-- Node27 -->
<g id="node27" class="node"><title>Node27</title>
<g id="a_node27"><a xlink:href="_grayscale_8h.html" target="_top" xlink:title="cinder/ip/Grayscale.h">
<polygon fill="white" stroke="black" points="226.072,-407 226.072,-427 336.003,-427 336.003,-407 226.072,-407"/>
<text text-anchor="middle" x="281.037" y="-413" font-family="Helvetica,sans-Serif" font-size="10.00">cinder/ip/Grayscale.h</text>
</a>
</g>
</g>
<!-- Node1&#45;&gt;Node27 -->
<g id="edge39" class="edge"><title>Node1&#45;&gt;Node27</title>
<path fill="none" stroke="midnightblue" d="M471.314,-464.94C432.165,-455.283 370.076,-439.965 327.54,-429.472"/>
<polygon fill="midnightblue" stroke="midnightblue" points="328.256,-426.044 317.708,-427.047 326.579,-432.84 328.256,-426.044"/>
</g>
<!-- Node22 -->
<g id="node22" class="node"><title>Node22</title>
<g id="a_node22"><a xlink:href="_chan_traits_8h.html" target="_top" xlink:title="cinder/ChanTraits.h">
<polygon fill="white" stroke="black" points="511.59,-233 511.59,-253 614.485,-253 614.485,-233 511.59,-233"/>
<text text-anchor="middle" x="563.037" y="-239" font-family="Helvetica,sans-Serif" font-size="10.00">cinder/ChanTraits.h</text>
</a>
</g>
</g>
<!-- Node1&#45;&gt;Node22 -->
<g id="edge42" class="edge"><title>Node1&#45;&gt;Node22</title>
<path fill="none" stroke="midnightblue" d="M521.948,-464.915C533.121,-456.744 548.057,-443.639 555.037,-428 579.743,-372.649 572.246,-298.377 566.692,-263.558"/>
<polygon fill="midnightblue" stroke="midnightblue" points="570.079,-262.607 564.932,-253.347 563.181,-263.796 570.079,-262.607"/>
</g>
<!-- Node28 -->
<g id="node28" class="node"><title>Node28</title>
<g id="a_node28"><a xlink:href="_fill_8h.html" target="_top" xlink:title="cinder/ip/Fill.h">
<polygon fill="white" stroke="black" points="469.193,-407 469.193,-427 546.882,-427 546.882,-407 469.193,-407"/>
<text text-anchor="middle" x="508.037" y="-413" font-family="Helvetica,sans-Serif" font-size="10.00">cinder/ip/Fill.h</text>
</a>
</g>
</g>
<!-- Node1&#45;&gt;Node28 -->
<g id="edge43" class="edge"><title>Node1&#45;&gt;Node28</title>
<path fill="none" stroke="midnightblue" d="M508.037,-464.753C508.037,-457.25 508.037,-446.424 508.037,-437.078"/>
<polygon fill="midnightblue" stroke="midnightblue" points="511.538,-437.075 508.037,-427.075 504.538,-437.075 511.538,-437.075"/>
</g>
<!-- Node29 -->
<g id="node29" class="node"><title>Node29</title>
<polygon fill="white" stroke="#bfbfbf" points="618.474,-407 618.474,-427 675.601,-427 675.601,-407 618.474,-407"/>
<text text-anchor="middle" x="647.037" y="-413" font-family="Helvetica,sans-Serif" font-size="10.00">algorithm</text>
</g>
<!-- Node1&#45;&gt;Node29 -->
<g id="edge48" class="edge"><title>Node1&#45;&gt;Node29</title>
<path fill="none" stroke="midnightblue" d="M530.68,-464.878C553.599,-455.644 589.246,-441.283 615.046,-430.889"/>
<polygon fill="midnightblue" stroke="midnightblue" points="616.437,-434.102 624.405,-427.118 613.822,-427.609 616.437,-434.102"/>
</g>
<!-- Node3 -->
<g id="node3" class="node"><title>Node3</title>
<g id="a_node3"><a xlink:href="_cinder_8h.html" target="_top" xlink:title="cinder/Cinder.h">
<polygon fill="white" stroke="black" points="267.405,-59 267.405,-79 350.67,-79 350.67,-59 267.405,-59"/>
<text text-anchor="middle" x="309.037" y="-65" font-family="Helvetica,sans-Serif" font-size="10.00">cinder/Cinder.h</text>
</a>
</g>
</g>
<!-- Node2&#45;&gt;Node3 -->
<g id="edge2" class="edge"><title>Node2&#45;&gt;Node3</title>
<path fill="none" stroke="midnightblue" d="M353.546,-407.373C260.239,-386.934 38.0375,-334.814 38.0375,-302 38.0375,-302 38.0375,-302 38.0375,-184 38.0375,-89.9662 178.384,-72.2349 257.079,-69.6838"/>
<polygon fill="midnightblue" stroke="midnightblue" points="257.379,-73.1774 267.288,-69.4264 257.203,-66.1797 257.379,-73.1774"/>
</g>
<!-- Node7 -->
<g id="node7" class="node"><title>Node7</title>
<g id="a_node7"><a xlink:href="_surface_8h.html" target="_top" xlink:title="cinder/Surface.h">
<polygon fill="white" stroke="black" points="331.629,-349 331.629,-369 420.446,-369 420.446,-349 331.629,-349"/>
<text text-anchor="middle" x="376.037" y="-355" font-family="Helvetica,sans-Serif" font-size="10.00">cinder/Surface.h</text>
</a>
</g>
</g>
<!-- Node2&#45;&gt;Node7 -->
<g id="edge6" class="edge"><title>Node2&#45;&gt;Node7</title>
<path fill="none" stroke="midnightblue" d="M391.065,-406.753C388.627,-399.169 385.098,-388.188 382.072,-378.774"/>
<polygon fill="midnightblue" stroke="midnightblue" points="385.347,-377.524 378.955,-369.075 378.683,-379.667 385.347,-377.524"/>
</g>
<!-- Node4 -->
<g id="node4" class="node"><title>Node4</title>
<polygon fill="white" stroke="#bfbfbf" points="198.587,-1 198.587,-21 243.488,-21 243.488,-1 198.587,-1"/>
<text text-anchor="middle" x="221.037" y="-7" font-family="Helvetica,sans-Serif" font-size="10.00">cstdint</text>
</g>
<!-- Node3&#45;&gt;Node4 -->
<g id="edge3" class="edge"><title>Node3&#45;&gt;Node4</title>
<path fill="none" stroke="midnightblue" d="M294.506,-58.7527C280.795,-50.0272 260.017,-36.8051 244.052,-26.6458"/>
<polygon fill="midnightblue" stroke="midnightblue" points="245.614,-23.4912 235.299,-21.0752 241.856,-29.3968 245.614,-23.4912"/>
</g>
<!-- Node5 -->
<g id="node5" class="node"><title>Node5</title>
<polygon fill="white" stroke="#bfbfbf" points="261.567,-1 261.567,-21 356.508,-21 356.508,-1 261.567,-1"/>
<text text-anchor="middle" x="309.037" y="-7" font-family="Helvetica,sans-Serif" font-size="10.00">boost/version.hpp</text>
</g>
<!-- Node3&#45;&gt;Node5 -->
<g id="edge4" class="edge"><title>Node3&#45;&gt;Node5</title>
<path fill="none" stroke="midnightblue" d="M309.037,-58.7527C309.037,-51.2504 309.037,-40.4238 309.037,-31.0781"/>
<polygon fill="midnightblue" stroke="midnightblue" points="312.538,-31.0752 309.037,-21.0752 305.538,-31.0752 312.538,-31.0752"/>
</g>
<!-- Node6 -->
<g id="node6" class="node"><title>Node6</title>
<polygon fill="white" stroke="#bfbfbf" points="374.659,-1 374.659,-21 507.416,-21 507.416,-1 374.659,-1"/>
<text text-anchor="middle" x="441.037" y="-7" font-family="Helvetica,sans-Serif" font-size="10.00">boost/checked_delete.hpp</text>
</g>
<!-- Node3&#45;&gt;Node6 -->
<g id="edge5" class="edge"><title>Node3&#45;&gt;Node6</title>
<path fill="none" stroke="midnightblue" d="M330.539,-58.878C352.209,-49.6848 385.858,-35.4095 410.333,-25.0263"/>
<polygon fill="midnightblue" stroke="midnightblue" points="411.706,-28.2457 419.545,-21.1181 408.972,-21.8016 411.706,-28.2457"/>
</g>
<!-- Node7&#45;&gt;Node3 -->
<g id="edge7" class="edge"><title>Node7&#45;&gt;Node3</title>
<path fill="none" stroke="midnightblue" d="M371.378,-348.668C356.876,-318.893 313.037,-223.111 305.037,-138 303.499,-121.627 304.812,-102.976 306.333,-89.3542"/>
<polygon fill="midnightblue" stroke="midnightblue" points="309.828,-89.6128 307.601,-79.2546 302.882,-88.7405 309.828,-89.6128"/>
</g>
<!-- Node8 -->
<g id="node8" class="node"><title>Node8</title>
<g id="a_node8"><a xlink:href="_area_8h.html" target="_top" xlink:title="cinder/Area.h">
<polygon fill="white" stroke="black" points="410.299,-233 410.299,-253 485.776,-253 485.776,-233 410.299,-233"/>
<text text-anchor="middle" x="448.037" y="-239" font-family="Helvetica,sans-Serif" font-size="10.00">cinder/Area.h</text>
</a>
</g>
</g>
<!-- Node7&#45;&gt;Node8 -->
<g id="edge8" class="edge"><title>Node7&#45;&gt;Node8</title>
<path fill="none" stroke="midnightblue" d="M375.085,-348.911C374.091,-335.143 373.972,-308.636 385.037,-290 393.05,-276.507 406.716,-265.804 419.277,-258.13"/>
<polygon fill="midnightblue" stroke="midnightblue" points="421.178,-261.076 428.13,-253.081 417.71,-254.995 421.178,-261.076"/>
</g>
<!-- Node21 -->
<g id="node21" class="node"><title>Node21</title>
<g id="a_node21"><a xlink:href="_channel_8h.html" target="_top" xlink:title="cinder/Channel.h">
<polygon fill="white" stroke="black" points="394.235,-291 394.235,-311 485.84,-311 485.84,-291 394.235,-291"/>
<text text-anchor="middle" x="440.037" y="-297" font-family="Helvetica,sans-Serif" font-size="10.00">cinder/Channel.h</text>
</a>
</g>
</g>
<!-- Node7&#45;&gt;Node21 -->
<g id="edge25" class="edge"><title>Node7&#45;&gt;Node21</title>
<path fill="none" stroke="midnightblue" d="M386.606,-348.753C396.205,-340.353 410.566,-327.787 421.983,-317.798"/>
<polygon fill="midnightblue" stroke="midnightblue" points="424.445,-320.294 429.666,-311.075 419.835,-315.026 424.445,-320.294"/>
</g>
<!-- Node7&#45;&gt;Node22 -->
<g id="edge28" class="edge"><title>Node7&#45;&gt;Node22</title>
<path fill="none" stroke="midnightblue" d="M409.548,-348.938C434.159,-341.36 467.742,-329.037 494.037,-312 515.748,-297.933 536.279,-276.222 549.21,-261.131"/>
<polygon fill="midnightblue" stroke="midnightblue" points="552.177,-263.038 555.897,-253.118 546.802,-258.553 552.177,-263.038"/>
</g>
<!-- Node23 -->
<g id="node23" class="node"><title>Node23</title>
<g id="a_node23"><a xlink:href="_color_8h.html" target="_top" xlink:title="cinder/Color.h">
<polygon fill="white" stroke="black" points="618.185,-291 618.185,-311 695.89,-311 695.89,-291 618.185,-291"/>
<text text-anchor="middle" x="657.037" y="-297" font-family="Helvetica,sans-Serif" font-size="10.00">cinder/Color.h</text>
</a>
</g>
</g>
<!-- Node7&#45;&gt;Node23 -->
<g id="edge30" class="edge"><title>Node7&#45;&gt;Node23</title>
<path fill="none" stroke="midnightblue" d="M420.563,-349.127C471.738,-338.928 555.454,-322.244 608.328,-311.707"/>
<polygon fill="midnightblue" stroke="midnightblue" points="609.027,-315.137 618.15,-309.75 607.659,-308.272 609.027,-315.137"/>
</g>
<!-- Node24 -->
<g id="node24" class="node"><title>Node24</title>
<g id="a_node24"><a xlink:href="_filesystem_8h.html" target="_top" xlink:title="cinder/Filesystem.h">
<polygon fill="white" stroke="black" points="65.9686,-291 65.9686,-311 168.106,-311 168.106,-291 65.9686,-291"/>
<text text-anchor="middle" x="117.037" y="-297" font-family="Helvetica,sans-Serif" font-size="10.00">cinder/Filesystem.h</text>
</a>
</g>
</g>
<!-- Node7&#45;&gt;Node24 -->
<g id="edge35" class="edge"><title>Node7&#45;&gt;Node24</title>
<path fill="none" stroke="midnightblue" d="M334.137,-348.94C289.093,-339.201 217.43,-323.706 168.871,-313.207"/>
<polygon fill="midnightblue" stroke="midnightblue" points="169.392,-309.739 158.878,-311.047 167.912,-316.581 169.392,-309.739"/>
</g>
<!-- Node26 -->
<g id="node26" class="node"><title>Node26</title>
<polygon fill="white" stroke="#bfbfbf" points="186.395,-291 186.395,-311 299.68,-311 299.68,-291 186.395,-291"/>
<text text-anchor="middle" x="243.037" y="-297" font-family="Helvetica,sans-Serif" font-size="10.00">boost/logic/tribool.hpp</text>
</g>
<!-- Node7&#45;&gt;Node26 -->
<g id="edge38" class="edge"><title>Node7&#45;&gt;Node26</title>
<path fill="none" stroke="midnightblue" d="M354.373,-348.878C332.539,-339.685 298.635,-325.409 273.975,-315.026"/>
<polygon fill="midnightblue" stroke="midnightblue" points="275.268,-311.773 264.693,-311.118 272.551,-318.224 275.268,-311.773"/>
</g>
<!-- Node8&#45;&gt;Node3 -->
<g id="edge9" class="edge"><title>Node8&#45;&gt;Node3</title>
<path fill="none" stroke="midnightblue" d="M450.003,-232.565C452.364,-218.814 454.879,-192.857 445.037,-174 422.257,-130.351 372.015,-99.6452 339.389,-83.4082"/>
<polygon fill="midnightblue" stroke="midnightblue" points="340.813,-80.2096 330.285,-79.0242 337.776,-86.5164 340.813,-80.2096"/>
</g>
<!-- Node9 -->
<g id="node9" class="node"><title>Node9</title>
<g id="a_node9"><a xlink:href="_vector_8h.html" target="_top" xlink:title="cinder/Vector.h">
<polygon fill="white" stroke="black" points="615.956,-175 615.956,-195 698.119,-195 698.119,-175 615.956,-175"/>
<text text-anchor="middle" x="657.037" y="-181" font-family="Helvetica,sans-Serif" font-size="10.00">cinder/Vector.h</text>
</a>
</g>
</g>
<!-- Node8&#45;&gt;Node9 -->
<g id="edge10" class="edge"><title>Node8&#45;&gt;Node9</title>
<path fill="none" stroke="midnightblue" d="M482.082,-232.878C517.865,-223.29 574.278,-208.175 613.328,-197.712"/>
<polygon fill="midnightblue" stroke="midnightblue" points="614.6,-200.994 623.354,-195.025 612.789,-194.233 614.6,-200.994"/>
</g>
<!-- Node12 -->
<g id="node12" class="node"><title>Node12</title>
<polygon fill="white" stroke="#bfbfbf" points="458.865,-117 458.865,-137 513.21,-137 513.21,-117 458.865,-117"/>
<text text-anchor="middle" x="486.037" y="-123" font-family="Helvetica,sans-Serif" font-size="10.00">iostream</text>
</g>
<!-- Node8&#45;&gt;Node12 -->
<g id="edge22" class="edge"><title>Node8&#45;&gt;Node12</title>
<path fill="none" stroke="midnightblue" d="M456.189,-232.892C463.526,-224.116 473.917,-210.124 479.037,-196 484.726,-180.31 486.277,-161.339 486.52,-147.425"/>
<polygon fill="midnightblue" stroke="midnightblue" points="490.018,-147.097 486.478,-137.111 483.019,-147.125 490.018,-147.097"/>
</g>
<!-- Node19 -->
<g id="node19" class="node"><title>Node19</title>
<polygon fill="white" stroke="#bfbfbf" points="336.646,-175 336.646,-195 375.429,-195 375.429,-175 336.646,-175"/>
<text text-anchor="middle" x="356.037" y="-181" font-family="Helvetica,sans-Serif" font-size="10.00">utility</text>
</g>
<!-- Node8&#45;&gt;Node19 -->
<g id="edge23" class="edge"><title>Node8&#45;&gt;Node19</title>
<path fill="none" stroke="midnightblue" d="M432.846,-232.753C418.377,-223.946 396.382,-210.558 379.632,-200.362"/>
<polygon fill="midnightblue" stroke="midnightblue" points="381.309,-197.285 370.947,-195.075 377.669,-203.264 381.309,-197.285"/>
</g>
<!-- Node20 -->
<g id="node20" class="node"><title>Node20</title>
<polygon fill="white" stroke="#bfbfbf" points="393.422,-175 393.422,-195 436.653,-195 436.653,-175 393.422,-175"/>
<text text-anchor="middle" x="415.037" y="-181" font-family="Helvetica,sans-Serif" font-size="10.00">vector</text>
</g>
<!-- Node8&#45;&gt;Node20 -->
<g id="edge24" class="edge"><title>Node8&#45;&gt;Node20</title>
<path fill="none" stroke="midnightblue" d="M442.588,-232.753C437.975,-224.924 431.229,-213.476 425.567,-203.868"/>
<polygon fill="midnightblue" stroke="midnightblue" points="428.478,-201.914 420.385,-195.075 422.447,-205.468 428.478,-201.914"/>
</g>
<!-- Node10 -->
<g id="node10" class="node"><title>Node10</title>
<polygon fill="white" stroke="#bfbfbf" points="744.422,-59 744.422,-79 787.653,-79 787.653,-59 744.422,-59"/>
<text text-anchor="middle" x="766.037" y="-65" font-family="Helvetica,sans-Serif" font-size="10.00">cmath</text>
</g>
<!-- Node9&#45;&gt;Node10 -->
<g id="edge11" class="edge"><title>Node9&#45;&gt;Node10</title>
<path fill="none" stroke="midnightblue" d="M689.171,-174.86C708.55,-167.778 732.265,-156.068 747.037,-138 758.29,-124.237 762.891,-104.243 764.765,-89.4961"/>
<polygon fill="midnightblue" stroke="midnightblue" points="768.26,-89.7203 765.732,-79.4314 761.292,-89.0509 768.26,-89.7203"/>
</g>
<!-- Node11 -->
<g id="node11" class="node"><title>Node11</title>
<polygon fill="white" stroke="#bfbfbf" points="569.311,-117 569.311,-137 614.764,-137 614.764,-117 569.311,-117"/>
<text text-anchor="middle" x="592.037" y="-123" font-family="Helvetica,sans-Serif" font-size="10.00">cstring</text>
</g>
<!-- Node9&#45;&gt;Node11 -->
<g id="edge12" class="edge"><title>Node9&#45;&gt;Node11</title>
<path fill="none" stroke="midnightblue" d="M646.304,-174.753C636.555,-166.353 621.969,-153.787 610.374,-143.798"/>
<polygon fill="midnightblue" stroke="midnightblue" points="612.432,-140.951 602.571,-137.075 607.863,-146.254 612.432,-140.951"/>
</g>
<!-- Node9&#45;&gt;Node12 -->
<g id="edge13" class="edge"><title>Node9&#45;&gt;Node12</title>
<path fill="none" stroke="midnightblue" d="M629.183,-174.878C600.319,-165.425 555.048,-150.6 523.16,-140.157"/>
<polygon fill="midnightblue" stroke="midnightblue" points="523.907,-136.719 513.315,-136.933 521.729,-143.371 523.907,-136.719"/>
</g>
<!-- Node13 -->
<g id="node13" class="node"><title>Node13</title>
<polygon fill="white" stroke="#bfbfbf" points="632.922,-117 632.922,-137 681.153,-137 681.153,-117 632.922,-117"/>
<text text-anchor="middle" x="657.037" y="-123" font-family="Helvetica,sans-Serif" font-size="10.00">cassert</text>
</g>
<!-- Node9&#45;&gt;Node13 -->
<g id="edge14" class="edge"><title>Node9&#45;&gt;Node13</title>
<path fill="none" stroke="midnightblue" d="M657.037,-174.753C657.037,-167.25 657.037,-156.424 657.037,-147.078"/>
<polygon fill="midnightblue" stroke="midnightblue" points="660.538,-147.075 657.037,-137.075 653.538,-147.075 660.538,-147.075"/>
</g>
<!-- Node14 -->
<g id="node14" class="node"><title>Node14</title>
<polygon fill="white" stroke="#bfbfbf" points="699.651,-117 699.651,-137 738.424,-137 738.424,-117 699.651,-117"/>
<text text-anchor="middle" x="719.037" y="-123" font-family="Helvetica,sans-Serif" font-size="10.00">limits</text>
</g>
<!-- Node9&#45;&gt;Node14 -->
<g id="edge15" class="edge"><title>Node9&#45;&gt;Node14</title>
<path fill="none" stroke="midnightblue" d="M667.276,-174.753C676.575,-166.353 690.487,-153.787 701.547,-143.798"/>
<polygon fill="midnightblue" stroke="midnightblue" points="703.915,-146.375 708.99,-137.075 699.223,-141.181 703.915,-146.375"/>
</g>
<!-- Node15 -->
<g id="node15" class="node"><title>Node15</title>
<g id="a_node15"><a xlink:href="_cinder_math_8h.html" target="_top" xlink:title="cinder/CinderMath.h">
<polygon fill="white" stroke="black" points="832.016,-117 832.016,-137 938.059,-137 938.059,-117 832.016,-117"/>
<text text-anchor="middle" x="885.037" y="-123" font-family="Helvetica,sans-Serif" font-size="10.00">cinder/CinderMath.h</text>
</a>
</g>
</g>
<!-- Node9&#45;&gt;Node15 -->
<g id="edge16" class="edge"><title>Node9&#45;&gt;Node15</title>
<path fill="none" stroke="midnightblue" d="M693.923,-174.94C733.244,-165.283 795.607,-149.965 838.33,-139.472"/>
<polygon fill="midnightblue" stroke="midnightblue" points="839.328,-142.831 848.205,-137.047 837.659,-136.033 839.328,-142.831"/>
</g>
<!-- Node15&#45;&gt;Node3 -->
<g id="edge17" class="edge"><title>Node15&#45;&gt;Node3</title>
<path fill="none" stroke="midnightblue" d="M831.682,-117.751C827.071,-117.125 822.475,-116.531 818.037,-116 651.347,-96.0453 453.01,-80.4594 360.862,-73.6849"/>
<polygon fill="midnightblue" stroke="midnightblue" points="360.918,-70.1797 350.69,-72.9412 360.408,-77.1611 360.918,-70.1797"/>
</g>
<!-- Node15&#45;&gt;Node10 -->
<g id="edge18" class="edge"><title>Node15&#45;&gt;Node10</title>
<path fill="none" stroke="midnightblue" d="M865.653,-116.878C846.377,-107.807 816.586,-93.7876 794.601,-83.4418"/>
<polygon fill="midnightblue" stroke="midnightblue" points="795.952,-80.2093 785.413,-79.1181 792.971,-86.543 795.952,-80.2093"/>
</g>
<!-- Node16 -->
<g id="node16" class="node"><title>Node16</title>
<polygon fill="white" stroke="#bfbfbf" points="940.151,-59 940.151,-79 983.924,-79 983.924,-59 940.151,-59"/>
<text text-anchor="middle" x="962.037" y="-65" font-family="Helvetica,sans-Serif" font-size="10.00">climits</text>
</g>
<!-- Node15&#45;&gt;Node16 -->
<g id="edge19" class="edge"><title>Node15&#45;&gt;Node16</title>
<path fill="none" stroke="midnightblue" d="M897.752,-116.753C909.526,-108.19 927.253,-95.2978 941.112,-85.2186"/>
<polygon fill="midnightblue" stroke="midnightblue" points="943.53,-87.7875 949.559,-79.0752 939.413,-82.1264 943.53,-87.7875"/>
</g>
<!-- Node17 -->
<g id="node17" class="node"><title>Node17</title>
<polygon fill="white" stroke="#bfbfbf" points="806.087,-59 806.087,-79 845.988,-79 845.988,-59 806.087,-59"/>
<text text-anchor="middle" x="826.037" y="-65" font-family="Helvetica,sans-Serif" font-size="10.00">cfloat</text>
</g>
<!-- Node15&#45;&gt;Node17 -->
<g id="edge20" class="edge"><title>Node15&#45;&gt;Node17</title>
<path fill="none" stroke="midnightblue" d="M875.295,-116.753C866.531,-108.435 853.463,-96.031 842.989,-86.0893"/>
<polygon fill="midnightblue" stroke="midnightblue" points="845.261,-83.4209 835.599,-79.0752 840.442,-88.4981 845.261,-83.4209"/>
</g>
<!-- Node18 -->
<g id="node18" class="node"><title>Node18</title>
<polygon fill="white" stroke="#bfbfbf" points="863.634,-59 863.634,-79 922.441,-79 922.441,-59 863.634,-59"/>
<text text-anchor="middle" x="893.037" y="-65" font-family="Helvetica,sans-Serif" font-size="10.00">functional</text>
</g>
<!-- Node15&#45;&gt;Node18 -->
<g id="edge21" class="edge"><title>Node15&#45;&gt;Node18</title>
<path fill="none" stroke="midnightblue" d="M886.359,-116.753C887.43,-109.25 888.977,-98.4238 890.312,-89.0781"/>
<polygon fill="midnightblue" stroke="midnightblue" points="893.792,-89.4697 891.741,-79.0752 886.862,-88.4797 893.792,-89.4697"/>
</g>
<!-- Node21&#45;&gt;Node3 -->
<g id="edge26" class="edge"><title>Node21&#45;&gt;Node3</title>
<path fill="none" stroke="midnightblue" d="M425.066,-290.969C400.294,-275.143 351.216,-239.873 328.037,-196 309.935,-161.736 307.71,-115.368 308.11,-89.5033"/>
<polygon fill="midnightblue" stroke="midnightblue" points="311.618,-89.2835 308.431,-79.1796 304.622,-89.0661 311.618,-89.2835"/>
</g>
<!-- Node21&#45;&gt;Node8 -->
<g id="edge27" class="edge"><title>Node21&#45;&gt;Node8</title>
<path fill="none" stroke="midnightblue" d="M441.359,-290.753C442.43,-283.25 443.977,-272.424 445.312,-263.078"/>
<polygon fill="midnightblue" stroke="midnightblue" points="448.792,-263.47 446.741,-253.075 441.862,-262.48 448.792,-263.47"/>
</g>
<!-- Node22&#45;&gt;Node3 -->
<g id="edge29" class="edge"><title>Node22&#45;&gt;Node3</title>
<path fill="none" stroke="midnightblue" d="M562.972,-232.753C562.274,-209.39 557.038,-147.604 522.037,-116 498.71,-94.9361 415.933,-81.8369 360.706,-75.237"/>
<polygon fill="midnightblue" stroke="midnightblue" points="361.072,-71.7561 350.735,-74.0799 360.265,-78.7094 361.072,-71.7561"/>
</g>
<!-- Node23&#45;&gt;Node3 -->
<g id="edge31" class="edge"><title>Node23&#45;&gt;Node3</title>
<path fill="none" stroke="midnightblue" d="M668.092,-290.934C701.76,-262.288 797.723,-172.287 747.037,-116 721.604,-87.756 471.448,-75.6361 360.998,-71.6317"/>
<polygon fill="midnightblue" stroke="midnightblue" points="360.875,-68.1253 350.758,-71.2692 360.627,-75.1209 360.875,-68.1253"/>
</g>
<!-- Node23&#45;&gt;Node22 -->
<g id="edge32" class="edge"><title>Node23&#45;&gt;Node22</title>
<path fill="none" stroke="midnightblue" d="M641.515,-290.753C626.732,-281.946 604.259,-268.558 587.145,-258.362"/>
<polygon fill="midnightblue" stroke="midnightblue" points="588.653,-255.186 578.271,-253.075 585.071,-261.2 588.653,-255.186"/>
</g>
<!-- Node23&#45;&gt;Node9 -->
<g id="edge33" class="edge"><title>Node23&#45;&gt;Node9</title>
<path fill="none" stroke="midnightblue" d="M657.037,-290.671C657.037,-272.041 657.037,-229.898 657.037,-205.143"/>
<polygon fill="midnightblue" stroke="midnightblue" points="660.538,-205.139 657.037,-195.139 653.538,-205.139 660.538,-205.139"/>
</g>
<!-- Node23&#45;&gt;Node15 -->
<g id="edge34" class="edge"><title>Node23&#45;&gt;Node15</title>
<path fill="none" stroke="midnightblue" d="M696.086,-297.403C731.375,-293.224 783.007,-282.339 818.037,-254 852.897,-225.8 871.953,-174.501 880.129,-146.856"/>
<polygon fill="midnightblue" stroke="midnightblue" points="883.505,-147.779 882.821,-137.206 876.762,-145.898 883.505,-147.779"/>
</g>
<!-- Node24&#45;&gt;Node3 -->
<g id="edge36" class="edge"><title>Node24&#45;&gt;Node3</title>
<path fill="none" stroke="midnightblue" d="M134.157,-290.845C148.316,-282.631 168.265,-269.503 182.037,-254 228.4,-201.814 213.569,-170.621 257.037,-116 266.068,-104.653 278.095,-93.8115 288.308,-85.5065"/>
<polygon fill="midnightblue" stroke="midnightblue" points="290.663,-88.1073 296.355,-79.1714 286.333,-82.6073 290.663,-88.1073"/>
</g>
<!-- Node25 -->
<g id="node25" class="node"><title>Node25</title>
<polygon fill="white" stroke="#bfbfbf" points="66.4589,-233 66.4589,-253 173.616,-253 173.616,-233 66.4589,-233"/>
<text text-anchor="middle" x="120.037" y="-239" font-family="Helvetica,sans-Serif" font-size="10.00">boost/filesystem.hpp</text>
</g>
<!-- Node24&#45;&gt;Node25 -->
<g id="edge37" class="edge"><title>Node24&#45;&gt;Node25</title>
<path fill="none" stroke="midnightblue" d="M117.533,-290.753C117.935,-283.25 118.515,-272.424 119.015,-263.078"/>
<polygon fill="midnightblue" stroke="midnightblue" points="122.511,-263.248 119.551,-253.075 115.521,-262.874 122.511,-263.248"/>
</g>
<!-- Node27&#45;&gt;Node3 -->
<g id="edge40" class="edge"><title>Node27&#45;&gt;Node3</title>
<path fill="none" stroke="midnightblue" d="M226.069,-412.568C159.854,-407.364 53.7868,-395.277 24.0375,-370 -0.386016,-349.248 0.0374962,-334.049 0.0374962,-302 0.0374962,-302 0.0374962,-302 0.0374962,-184 0.0374962,-151.951 -0.562443,-136.543 24.0375,-116 58.55,-87.1796 184.686,-76.1617 257.058,-72.1491"/>
<polygon fill="midnightblue" stroke="midnightblue" points="257.527,-75.6293 267.328,-71.6066 257.157,-68.639 257.527,-75.6293"/>
</g>
<!-- Node27&#45;&gt;Node7 -->
<g id="edge41" class="edge"><title>Node27&#45;&gt;Node7</title>
<path fill="none" stroke="midnightblue" d="M296.725,-406.753C311.665,-397.946 334.377,-384.558 351.674,-374.362"/>
<polygon fill="midnightblue" stroke="midnightblue" points="353.805,-377.169 360.642,-369.075 350.25,-371.138 353.805,-377.169"/>
</g>
<!-- Node28&#45;&gt;Node7 -->
<g id="edge44" class="edge"><title>Node28&#45;&gt;Node7</title>
<path fill="none" stroke="midnightblue" d="M486.536,-406.878C464.866,-397.685 431.217,-383.409 406.742,-373.026"/>
<polygon fill="midnightblue" stroke="midnightblue" points="408.103,-369.802 397.53,-369.118 405.369,-376.246 408.103,-369.802"/>
</g>
<!-- Node28&#45;&gt;Node21 -->
<g id="edge45" class="edge"><title>Node28&#45;&gt;Node21</title>
<path fill="none" stroke="midnightblue" d="M502.473,-406.671C491.16,-387.705 465.312,-344.371 450.668,-319.822"/>
<polygon fill="midnightblue" stroke="midnightblue" points="453.618,-317.935 445.489,-311.139 447.606,-321.521 453.618,-317.935"/>
</g>
<!-- Node28&#45;&gt;Node8 -->
<g id="edge46" class="edge"><title>Node28&#45;&gt;Node8</title>
<path fill="none" stroke="midnightblue" d="M509.002,-406.895C510.879,-385.355 513.297,-330.071 494.037,-290 488.361,-278.19 478.383,-267.637 469.167,-259.627"/>
<polygon fill="midnightblue" stroke="midnightblue" points="471.35,-256.892 461.392,-253.275 466.921,-262.312 471.35,-256.892"/>
</g>
<!-- Node28&#45;&gt;Node23 -->
<g id="edge47" class="edge"><title>Node28&#45;&gt;Node23</title>
<path fill="none" stroke="midnightblue" d="M519.979,-406.864C545.48,-387.352 605.494,-341.436 636.97,-317.353"/>
<polygon fill="midnightblue" stroke="midnightblue" points="639.224,-320.036 645.039,-311.18 634.97,-314.477 639.224,-320.036"/>
</g>
</g>
</svg>
        <g id="navigator" transform="translate(0 0)" fill="#404254">
                <rect fill="#f2f5e9" fill-opacity="0.5" stroke="#606060" stroke-width=".5" x="0" y="0" width="60" height="60"/>
                <use id="zoomplus" xlink:href="#zoomPlus" x="17" y="9" onmousedown="handleZoom(evt,'in')"/>
                <use id="zoomminus" xlink:href="#zoomMin" x="42" y="9" onmousedown="handleZoom(evt,'out')"/>
                <use id="reset" xlink:href="#resetDef" x="30" y="36" onmousedown="handleReset()"/>
                <g id="arrowUp" xlink:href="#dirArrow" transform="translate(30 24)" onmousedown="handlePan(0,-1)">
                  <use xlink:href="#rim" fill="#404040">
                        <set attributeName="fill" to="#808080" begin="arrowUp.mouseover" end="arrowUp.mouseout"/>
                  </use>
                  <path fill="none" stroke="white" stroke-width="1.5" d="M0,-3.0v7 M-2.5,-0.5L0,-3.0L2.5,-0.5"/>
                </g>
                <g id="arrowRight" xlink:href="#dirArrow" transform="rotate(90) translate(36 -43)" onmousedown="handlePan(1,0)">
                  <use xlink:href="#rim" fill="#404040">
                        <set attributeName="fill" to="#808080" begin="arrowRight.mouseover" end="arrowRight.mouseout"/>
                  </use>
                  <path fill="none" stroke="white" stroke-width="1.5" d="M0,-3.0v7 M-2.5,-0.5L0,-3.0L2.5,-0.5"/>
                </g>
                <g id="arrowDown" xlink:href="#dirArrow" transform="rotate(180) translate(-30 -48)" onmousedown="handlePan(0,1)">
                  <use xlink:href="#rim" fill="#404040">
                        <set attributeName="fill" to="#808080" begin="arrowDown.mouseover" end="arrowDown.mouseout"/>
                  </use>
                  <path fill="none" stroke="white" stroke-width="1.5" d="M0,-3.0v7 M-2.5,-0.5L0,-3.0L2.5,-0.5"/>
                </g>
                <g id="arrowLeft" xlink:href="#dirArrow" transform="rotate(270) translate(-36 17)" onmousedown="handlePan(-1,0)">
                  <use xlink:href="#rim" fill="#404040">
                        <set attributeName="fill" to="#808080" begin="arrowLeft.mouseover" end="arrowLeft.mouseout"/>
                  </use>
                  <path fill="none" stroke="white" stroke-width="1.5" d="M0,-3.0v7 M-2.5,-0.5L0,-3.0L2.5,-0.5"/>
                </g>
        </g>
        <svg viewBox="0 0 15 15" width="100%" height="30px" preserveAspectRatio="xMaxYMin meet">
         <g id="arrow_out" transform="scale(0.3 0.3)">
          <a xlink:href="_hdr_8cpp__incl_org.svg" target="_base">
           <rect id="button" ry="5" rx="5" y="6" x="6" height="38" width="38"
                fill="#f2f5e9" fill-opacity="0.5" stroke="#606060" stroke-width="1.0"/>
           <path id="arrow"
             d="M 11.500037,31.436501 C 11.940474,20.09759 22.043105,11.32322 32.158766,21.979434 L 37.068811,17.246167 C 37.068811,17.246167 37.088388,32 37.088388,32 L 22.160133,31.978069 C 22.160133,31.978069 26.997745,27.140456 26.997745,27.140456 C 18.528582,18.264221 13.291696,25.230495 11.500037,31.436501 z"
             style="fill:#404040;"/>
          </a>
         </g>
        </svg>
</svg>
