<?xml version="1.0" encoding="UTF-8" standalone="no"?>
<!DOCTYPE svg PUBLIC "-//W3C//DTD SVG 1.1//EN"
 "http://www.w3.org/Graphics/SVG/1.1/DTD/svg11.dtd">
<!-- Generated by graphviz version 2.30.1 (20140712.1814)
 -->
<!-- Title: include/cinder/ImageIo.h Pages: 1 -->
<svg width="1718pt" height="436pt"
 viewBox="0.00 0.00 1718.00 436.00" xmlns="http://www.w3.org/2000/svg" xmlns:xlink="http://www.w3.org/1999/xlink">
<g id="graph0" class="graph" transform="scale(1 1) rotate(0) translate(4 432)">
<title>include/cinder/ImageIo.h</title>
<polygon fill="white" stroke="white" points="-4,5 -4,-432 1715,-432 1715,5 -4,5"/>
<!-- Node1 -->
<g id="node1" class="node"><title>Node1</title>
<polygon fill="#bfbfbf" stroke="black" points="961.522,-407 961.522,-427 1086.48,-427 1086.48,-407 961.522,-407"/>
<text text-anchor="middle" x="1024" y="-413" font-family="Helvetica,sans-Serif" font-size="10.00">include/cinder/ImageIo.h</text>
</g>
<!-- Node2 -->
<g id="node2" class="node"><title>Node2</title>
<g id="a_node2"><a xlink:href="_cinder_8h.html" target="_top" xlink:title="cinder/Cinder.h">
<polygon fill="white" stroke="black" points="887.367,-59 887.367,-79 970.633,-79 970.633,-59 887.367,-59"/>
<text text-anchor="middle" x="929" y="-65" font-family="Helvetica,sans-Serif" font-size="10.00">cinder/Cinder.h</text>
</a>
</g>
</g>
<!-- Node1&#45;&gt;Node2 -->
<g id="edge1" class="edge"><title>Node1&#45;&gt;Node2</title>
<path fill="none" stroke="midnightblue" d="M1008.48,-406.894C981.779,-389.927 930,-350.739 930,-302 930,-302 930,-302 930,-242 930,-185.367 960.532,-171.447 949,-116 947.008,-106.423 942.914,-96.3942 938.945,-88.1538"/>
<polygon fill="midnightblue" stroke="midnightblue" points="941.998,-86.437 934.317,-79.1399 935.771,-89.6344 941.998,-86.437"/>
</g>
<!-- Node6 -->
<g id="node6" class="node"><title>Node6</title>
<g id="a_node6"><a xlink:href="_data_source_8h.html" target="_top" xlink:title="cinder/DataSource.h">
<polygon fill="white" stroke="black" points="647.419,-291 647.419,-311 754.581,-311 754.581,-291 647.419,-291"/>
<text text-anchor="middle" x="701" y="-297" font-family="Helvetica,sans-Serif" font-size="10.00">cinder/DataSource.h</text>
</a>
</g>
</g>
<!-- Node1&#45;&gt;Node6 -->
<g id="edge5" class="edge"><title>Node1&#45;&gt;Node6</title>
<path fill="none" stroke="midnightblue" d="M975.628,-406.936C937.801,-399.144 884.223,-386.547 839,-370 797.715,-354.894 752.472,-331.103 725.427,-316.039"/>
<polygon fill="midnightblue" stroke="midnightblue" points="727.087,-312.958 716.656,-311.104 723.654,-319.058 727.087,-312.958"/>
</g>
<!-- Node19 -->
<g id="node19" class="node"><title>Node19</title>
<g id="a_node19"><a xlink:href="_data_target_8h.html" target="_top" xlink:title="cinder/DataTarget.h">
<polygon fill="white" stroke="black" points="449.365,-291 449.365,-311 552.635,-311 552.635,-291 449.365,-291"/>
<text text-anchor="middle" x="501" y="-297" font-family="Helvetica,sans-Serif" font-size="10.00">cinder/DataTarget.h</text>
</a>
</g>
</g>
<!-- Node1&#45;&gt;Node19 -->
<g id="edge28" class="edge"><title>Node1&#45;&gt;Node19</title>
<path fill="none" stroke="midnightblue" d="M973.51,-406.962C925.046,-398.127 849.846,-383.996 785,-370 700.556,-351.774 602.704,-327.684 546.705,-313.612"/>
<polygon fill="midnightblue" stroke="midnightblue" points="547.3,-310.153 536.748,-311.104 545.59,-316.941 547.3,-310.153"/>
</g>
<!-- Node20 -->
<g id="node20" class="node"><title>Node20</title>
<g id="a_node20"><a xlink:href="_surface_8h.html" target="_top" xlink:title="cinder/Surface.h">
<polygon fill="white" stroke="black" points="1071.59,-349 1071.59,-369 1160.41,-369 1160.41,-349 1071.59,-349"/>
<text text-anchor="middle" x="1116" y="-355" font-family="Helvetica,sans-Serif" font-size="10.00">cinder/Surface.h</text>
</a>
</g>
</g>
<!-- Node1&#45;&gt;Node20 -->
<g id="edge33" class="edge"><title>Node1&#45;&gt;Node20</title>
<path fill="none" stroke="midnightblue" d="M1039.19,-406.753C1053.66,-397.946 1075.66,-384.558 1092.41,-374.362"/>
<polygon fill="midnightblue" stroke="midnightblue" points="1094.37,-377.264 1101.09,-369.075 1090.73,-371.285 1094.37,-377.264"/>
</g>
<!-- Node10 -->
<g id="node10" class="node"><title>Node10</title>
<g id="a_node10"><a xlink:href="_exception_8h.html" target="_top" xlink:title="cinder/Exception.h">
<polygon fill="white" stroke="black" points="841.865,-117 841.865,-137 940.135,-137 940.135,-117 841.865,-117"/>
<text text-anchor="middle" x="891" y="-123" font-family="Helvetica,sans-Serif" font-size="10.00">cinder/Exception.h</text>
</a>
</g>
</g>
<!-- Node1&#45;&gt;Node10 -->
<g id="edge64" class="edge"><title>Node1&#45;&gt;Node10</title>
<path fill="none" stroke="midnightblue" d="M980.407,-406.939C929.744,-393.558 853,-363.191 853,-302 853,-302 853,-302 853,-242 853,-206.541 869.751,-167.914 881.01,-145.957"/>
<polygon fill="midnightblue" stroke="midnightblue" points="884.108,-147.585 885.716,-137.113 877.929,-144.296 884.108,-147.585"/>
</g>
<!-- Node11 -->
<g id="node11" class="node"><title>Node11</title>
<polygon fill="white" stroke="#bfbfbf" points="1170.38,-59 1170.38,-79 1213.62,-79 1213.62,-59 1170.38,-59"/>
<text text-anchor="middle" x="1192" y="-65" font-family="Helvetica,sans-Serif" font-size="10.00">vector</text>
</g>
<!-- Node1&#45;&gt;Node11 -->
<g id="edge65" class="edge"><title>Node1&#45;&gt;Node11</title>
<path fill="none" stroke="midnightblue" d="M1086.68,-414.958C1222.32,-411.003 1531,-392.106 1531,-302 1531,-302 1531,-302 1531,-184 1531,-136.996 1492.58,-135.91 1450,-116 1374.36,-80.6285 1274.57,-72.3313 1224.13,-70.4682"/>
<polygon fill="midnightblue" stroke="midnightblue" points="1223.96,-66.9613 1213.86,-70.1538 1223.75,-73.9581 1223.96,-66.9613"/>
</g>
<!-- Node36 -->
<g id="node36" class="node"><title>Node36</title>
<polygon fill="white" stroke="#bfbfbf" points="1559.27,-349 1559.27,-369 1594.73,-369 1594.73,-349 1559.27,-349"/>
<text text-anchor="middle" x="1577" y="-355" font-family="Helvetica,sans-Serif" font-size="10.00">map</text>
</g>
<!-- Node1&#45;&gt;Node36 -->
<g id="edge66" class="edge"><title>Node1&#45;&gt;Node36</title>
<path fill="none" stroke="midnightblue" d="M1086.77,-414.797C1185.27,-411.939 1381.77,-402.32 1545,-370 1546.46,-369.71 1547.95,-369.378 1549.45,-369.016"/>
<polygon fill="midnightblue" stroke="midnightblue" points="1550.54,-372.346 1559.24,-366.294 1548.66,-365.602 1550.54,-372.346"/>
</g>
<!-- Node31 -->
<g id="node31" class="node"><title>Node31</title>
<polygon fill="white" stroke="#bfbfbf" points="1205.61,-175 1205.61,-195 1244.39,-195 1244.39,-175 1205.61,-175"/>
<text text-anchor="middle" x="1225" y="-181" font-family="Helvetica,sans-Serif" font-size="10.00">utility</text>
</g>
<!-- Node1&#45;&gt;Node31 -->
<g id="edge67" class="edge"><title>Node1&#45;&gt;Node31</title>
<path fill="none" stroke="midnightblue" d="M1086.65,-407.777C1141.39,-396.709 1216.56,-371.036 1246,-312 1263.57,-276.766 1246.67,-229.802 1234.66,-204.323"/>
<polygon fill="midnightblue" stroke="midnightblue" points="1237.66,-202.5 1230.08,-195.103 1231.39,-205.615 1237.66,-202.5"/>
</g>
<!-- Node3 -->
<g id="node3" class="node"><title>Node3</title>
<polygon fill="white" stroke="#bfbfbf" points="818.549,-1 818.549,-21 863.451,-21 863.451,-1 818.549,-1"/>
<text text-anchor="middle" x="841" y="-7" font-family="Helvetica,sans-Serif" font-size="10.00">cstdint</text>
</g>
<!-- Node2&#45;&gt;Node3 -->
<g id="edge2" class="edge"><title>Node2&#45;&gt;Node3</title>
<path fill="none" stroke="midnightblue" d="M914.469,-58.7527C900.757,-50.0272 879.979,-36.8051 864.015,-26.6458"/>
<polygon fill="midnightblue" stroke="midnightblue" points="865.577,-23.4912 855.261,-21.0752 861.819,-29.3968 865.577,-23.4912"/>
</g>
<!-- Node4 -->
<g id="node4" class="node"><title>Node4</title>
<polygon fill="white" stroke="#bfbfbf" points="881.53,-1 881.53,-21 976.47,-21 976.47,-1 881.53,-1"/>
<text text-anchor="middle" x="929" y="-7" font-family="Helvetica,sans-Serif" font-size="10.00">boost/version.hpp</text>
</g>
<!-- Node2&#45;&gt;Node4 -->
<g id="edge3" class="edge"><title>Node2&#45;&gt;Node4</title>
<path fill="none" stroke="midnightblue" d="M929,-58.7527C929,-51.2504 929,-40.4238 929,-31.0781"/>
<polygon fill="midnightblue" stroke="midnightblue" points="932.5,-31.0752 929,-21.0752 925.5,-31.0752 932.5,-31.0752"/>
</g>
<!-- Node5 -->
<g id="node5" class="node"><title>Node5</title>
<polygon fill="white" stroke="#bfbfbf" points="994.621,-1 994.621,-21 1127.38,-21 1127.38,-1 994.621,-1"/>
<text text-anchor="middle" x="1061" y="-7" font-family="Helvetica,sans-Serif" font-size="10.00">boost/checked_delete.hpp</text>
</g>
<!-- Node2&#45;&gt;Node5 -->
<g id="edge4" class="edge"><title>Node2&#45;&gt;Node5</title>
<path fill="none" stroke="midnightblue" d="M950.502,-58.878C972.172,-49.6848 1005.82,-35.4095 1030.3,-25.0263"/>
<polygon fill="midnightblue" stroke="midnightblue" points="1031.67,-28.2457 1039.51,-21.1181 1028.93,-21.8016 1031.67,-28.2457"/>
</g>
<!-- Node6&#45;&gt;Node2 -->
<g id="edge6" class="edge"><title>Node6&#45;&gt;Node2</title>
<path fill="none" stroke="midnightblue" d="M705.49,-290.724C720.061,-261.451 768.827,-169.797 833,-116 850.247,-101.542 872.808,-90.4302 891.724,-82.7527"/>
<polygon fill="midnightblue" stroke="midnightblue" points="893.187,-85.9394 901.237,-79.0514 890.649,-79.4158 893.187,-85.9394"/>
</g>
<!-- Node7 -->
<g id="node7" class="node"><title>Node7</title>
<g id="a_node7"><a xlink:href="_url_8h.html" target="_top" xlink:title="cinder/Url.h">
<polygon fill="white" stroke="black" points="567.436,-233 567.436,-253 634.564,-253 634.564,-233 567.436,-233"/>
<text text-anchor="middle" x="601" y="-239" font-family="Helvetica,sans-Serif" font-size="10.00">cinder/Url.h</text>
</a>
</g>
</g>
<!-- Node6&#45;&gt;Node7 -->
<g id="edge7" class="edge"><title>Node6&#45;&gt;Node7</title>
<path fill="none" stroke="midnightblue" d="M684.487,-290.753C668.614,-281.864 644.409,-268.309 626.142,-258.079"/>
<polygon fill="midnightblue" stroke="midnightblue" points="627.641,-254.907 617.206,-253.075 624.221,-261.015 627.641,-254.907"/>
</g>
<!-- Node9 -->
<g id="node9" class="node"><title>Node9</title>
<g id="a_node9"><a xlink:href="_buffer_8h.html" target="_top" xlink:title="cinder/Buffer.h">
<polygon fill="white" stroke="black" points="547.844,-117 547.844,-137 628.156,-137 628.156,-117 547.844,-117"/>
<text text-anchor="middle" x="588" y="-123" font-family="Helvetica,sans-Serif" font-size="10.00">cinder/Buffer.h</text>
</a>
</g>
</g>
<!-- Node6&#45;&gt;Node9 -->
<g id="edge25" class="edge"><title>Node6&#45;&gt;Node9</title>
<path fill="none" stroke="midnightblue" d="M694.925,-290.753C676.914,-263.338 623.582,-182.161 599.743,-145.875"/>
<polygon fill="midnightblue" stroke="midnightblue" points="602.521,-143.729 594.105,-137.293 596.671,-147.573 602.521,-143.729"/>
</g>
<!-- Node8 -->
<g id="node8" class="node"><title>Node8</title>
<g id="a_node8"><a xlink:href="_stream_8h.html" target="_top" xlink:title="cinder/Stream.h">
<polygon fill="white" stroke="black" points="476.707,-175 476.707,-195 563.293,-195 563.293,-175 476.707,-175"/>
<text text-anchor="middle" x="520" y="-181" font-family="Helvetica,sans-Serif" font-size="10.00">cinder/Stream.h</text>
</a>
</g>
</g>
<!-- Node6&#45;&gt;Node8 -->
<g id="edge26" class="edge"><title>Node6&#45;&gt;Node8</title>
<path fill="none" stroke="midnightblue" d="M647.145,-292.493C618.183,-286.198 583.321,-274.738 558,-254 542.358,-241.19 532.026,-220.151 526.137,-204.863"/>
<polygon fill="midnightblue" stroke="midnightblue" points="529.408,-203.617 522.758,-195.37 522.814,-205.964 529.408,-203.617"/>
</g>
<!-- Node13 -->
<g id="node13" class="node"><title>Node13</title>
<g id="a_node13"><a xlink:href="_filesystem_8h.html" target="_top" xlink:title="cinder/Filesystem.h">
<polygon fill="white" stroke="black" points="645.931,-117 645.931,-137 748.069,-137 748.069,-117 645.931,-117"/>
<text text-anchor="middle" x="697" y="-123" font-family="Helvetica,sans-Serif" font-size="10.00">cinder/Filesystem.h</text>
</a>
</g>
</g>
<!-- Node6&#45;&gt;Node13 -->
<g id="edge27" class="edge"><title>Node6&#45;&gt;Node13</title>
<path fill="none" stroke="midnightblue" d="M700.785,-290.753C700.158,-263.804 698.323,-184.908 697.46,-147.766"/>
<polygon fill="midnightblue" stroke="midnightblue" points="700.948,-147.209 697.216,-137.293 693.95,-147.372 700.948,-147.209"/>
</g>
<!-- Node7&#45;&gt;Node2 -->
<g id="edge8" class="edge"><title>Node7&#45;&gt;Node2</title>
<path fill="none" stroke="midnightblue" d="M613.462,-232.711C643.972,-210.287 725.38,-152.367 800,-116 828.398,-102.16 862.066,-90.2951 887.885,-82.0834"/>
<polygon fill="midnightblue" stroke="midnightblue" points="889.22,-85.3333 897.721,-79.0103 887.132,-78.6518 889.22,-85.3333"/>
</g>
<!-- Node7&#45;&gt;Node8 -->
<g id="edge9" class="edge"><title>Node7&#45;&gt;Node8</title>
<path fill="none" stroke="midnightblue" d="M587.624,-232.753C575.122,-224.109 556.236,-211.052 541.597,-200.931"/>
<polygon fill="midnightblue" stroke="midnightblue" points="543.343,-197.883 533.127,-195.075 539.362,-203.641 543.343,-197.883"/>
</g>
<!-- Node18 -->
<g id="node18" class="node"><title>Node18</title>
<polygon fill="white" stroke="#bfbfbf" points="1109.83,-117 1109.83,-137 1164.17,-137 1164.17,-117 1109.83,-117"/>
<text text-anchor="middle" x="1137" y="-123" font-family="Helvetica,sans-Serif" font-size="10.00">iostream</text>
</g>
<!-- Node7&#45;&gt;Node18 -->
<g id="edge24" class="edge"><title>Node7&#45;&gt;Node18</title>
<path fill="none" stroke="midnightblue" d="M634.936,-234.782C730.396,-214.479 1000.74,-156.981 1099.92,-135.886"/>
<polygon fill="midnightblue" stroke="midnightblue" points="1100.74,-139.29 1109.79,-133.787 1099.28,-132.444 1100.74,-139.29"/>
</g>
<!-- Node8&#45;&gt;Node2 -->
<g id="edge10" class="edge"><title>Node8&#45;&gt;Node2</title>
<path fill="none" stroke="midnightblue" d="M519.6,-174.853C519.497,-160.004 521.678,-130.825 539,-116 564.201,-94.4319 776.473,-79.0722 876.826,-72.946"/>
<polygon fill="midnightblue" stroke="midnightblue" points="877.275,-76.4254 887.047,-72.3305 876.854,-69.4381 877.275,-76.4254"/>
</g>
<!-- Node8&#45;&gt;Node9 -->
<g id="edge11" class="edge"><title>Node8&#45;&gt;Node9</title>
<path fill="none" stroke="midnightblue" d="M531.229,-174.753C541.527,-166.272 556.984,-153.543 569.17,-143.507"/>
<polygon fill="midnightblue" stroke="midnightblue" points="571.486,-146.134 576.98,-137.075 567.036,-140.731 571.486,-146.134"/>
</g>
<!-- Node8&#45;&gt;Node10 -->
<g id="edge13" class="edge"><title>Node8&#45;&gt;Node10</title>
<path fill="none" stroke="midnightblue" d="M563.649,-177.411C630.057,-167.388 756.625,-148.283 831.431,-136.992"/>
<polygon fill="midnightblue" stroke="midnightblue" points="832.266,-140.405 841.631,-135.452 831.221,-133.484 832.266,-140.405"/>
</g>
<!-- Node8&#45;&gt;Node13 -->
<g id="edge17" class="edge"><title>Node8&#45;&gt;Node13</title>
<path fill="none" stroke="midnightblue" d="M548.832,-174.878C578.749,-165.413 625.695,-150.56 658.709,-140.115"/>
<polygon fill="midnightblue" stroke="midnightblue" points="659.995,-143.379 668.474,-137.025 657.884,-136.705 659.995,-143.379"/>
</g>
<!-- Node15 -->
<g id="node15" class="node"><title>Node15</title>
<polygon fill="white" stroke="#bfbfbf" points="48.291,-117 48.291,-137 167.709,-137 167.709,-117 48.291,-117"/>
<text text-anchor="middle" x="108" y="-123" font-family="Helvetica,sans-Serif" font-size="10.00">boost/noncopyable.hpp</text>
</g>
<!-- Node8&#45;&gt;Node15 -->
<g id="edge20" class="edge"><title>Node8&#45;&gt;Node15</title>
<path fill="none" stroke="midnightblue" d="M476.663,-178.338C413.415,-170.041 291.841,-153.97 177.786,-138.098"/>
<polygon fill="midnightblue" stroke="midnightblue" points="178.221,-134.625 167.834,-136.711 177.255,-141.558 178.221,-134.625"/>
</g>
<!-- Node12 -->
<g id="node12" class="node"><title>Node12</title>
<polygon fill="white" stroke="#bfbfbf" points="-0.226562,-59 -0.226562,-79 40.2266,-79 40.2266,-59 -0.226562,-59"/>
<text text-anchor="middle" x="20" y="-65" font-family="Helvetica,sans-Serif" font-size="10.00">string</text>
</g>
<!-- Node8&#45;&gt;Node12 -->
<g id="edge21" class="edge"><title>Node8&#45;&gt;Node12</title>
<path fill="none" stroke="midnightblue" d="M476.322,-182.609C364.107,-178.648 72.171,-165.761 39,-138 24.9306,-126.225 20.8181,-104.975 19.829,-89.3539"/>
<polygon fill="midnightblue" stroke="midnightblue" points="23.3235,-89.0951 19.5631,-79.1901 16.3259,-89.2783 23.3235,-89.0951"/>
</g>
<!-- Node16 -->
<g id="node16" class="node"><title>Node16</title>
<polygon fill="white" stroke="#bfbfbf" points="185.574,-117 185.574,-137 334.426,-137 334.426,-117 185.574,-117"/>
<text text-anchor="middle" x="260" y="-123" font-family="Helvetica,sans-Serif" font-size="10.00">boost/iostreams/concepts.hpp</text>
</g>
<!-- Node8&#45;&gt;Node16 -->
<g id="edge22" class="edge"><title>Node8&#45;&gt;Node16</title>
<path fill="none" stroke="midnightblue" d="M477.938,-174.94C432.72,-165.201 360.78,-149.706 312.034,-139.207"/>
<polygon fill="midnightblue" stroke="midnightblue" points="312.515,-135.731 302.002,-137.047 311.041,-142.574 312.515,-135.731"/>
</g>
<!-- Node17 -->
<g id="node17" class="node"><title>Node17</title>
<polygon fill="white" stroke="#bfbfbf" points="352.306,-117 352.306,-137 491.694,-137 491.694,-117 352.306,-117"/>
<text text-anchor="middle" x="422" y="-123" font-family="Helvetica,sans-Serif" font-size="10.00">boost/iostreams/stream.hpp</text>
</g>
<!-- Node8&#45;&gt;Node17 -->
<g id="edge23" class="edge"><title>Node8&#45;&gt;Node17</title>
<path fill="none" stroke="midnightblue" d="M503.817,-174.753C488.262,-165.864 464.541,-152.309 446.639,-142.079"/>
<polygon fill="midnightblue" stroke="midnightblue" points="448.301,-138.998 437.882,-137.075 444.828,-145.075 448.301,-138.998"/>
</g>
<!-- Node9&#45;&gt;Node2 -->
<g id="edge12" class="edge"><title>Node9&#45;&gt;Node2</title>
<path fill="none" stroke="midnightblue" d="M628.349,-117.616C631.274,-117.054 634.181,-116.51 637,-116 720.848,-100.847 818.759,-86.0006 877.223,-77.4365"/>
<polygon fill="midnightblue" stroke="midnightblue" points="877.926,-80.8711 887.315,-75.9632 876.915,-73.9445 877.926,-80.8711"/>
</g>
<!-- Node10&#45;&gt;Node2 -->
<g id="edge14" class="edge"><title>Node10&#45;&gt;Node2</title>
<path fill="none" stroke="midnightblue" d="M897.275,-116.753C902.642,-108.843 910.518,-97.2372 917.079,-87.5683"/>
<polygon fill="midnightblue" stroke="midnightblue" points="920.123,-89.3152 922.842,-79.0752 914.331,-85.3847 920.123,-89.3152"/>
</g>
<!-- Node10&#45;&gt;Node11 -->
<g id="edge15" class="edge"><title>Node10&#45;&gt;Node11</title>
<path fill="none" stroke="midnightblue" d="M939.695,-116.94C1001.8,-105.385 1107.46,-85.7283 1160.15,-75.9252"/>
<polygon fill="midnightblue" stroke="midnightblue" points="1161.07,-79.3154 1170.26,-74.0452 1159.79,-72.4334 1161.07,-79.3154"/>
</g>
<!-- Node10&#45;&gt;Node12 -->
<g id="edge16" class="edge"><title>Node10&#45;&gt;Node12</title>
<path fill="none" stroke="midnightblue" d="M841.689,-122.176C816.378,-120.25 785.045,-117.922 757,-116 482.735,-97.2078 150.829,-77.6222 50.2846,-71.7578"/>
<polygon fill="midnightblue" stroke="midnightblue" points="50.416,-68.2597 40.2294,-71.1722 50.0089,-75.2478 50.416,-68.2597"/>
</g>
<!-- Node13&#45;&gt;Node2 -->
<g id="edge18" class="edge"><title>Node13&#45;&gt;Node2</title>
<path fill="none" stroke="midnightblue" d="M734.533,-116.94C774.628,-107.262 838.268,-91.9007 881.748,-81.4056"/>
<polygon fill="midnightblue" stroke="midnightblue" points="882.622,-84.7954 891.521,-79.0466 880.979,-77.9908 882.622,-84.7954"/>
</g>
<!-- Node14 -->
<g id="node14" class="node"><title>Node14</title>
<polygon fill="white" stroke="#bfbfbf" points="643.421,-59 643.421,-79 750.579,-79 750.579,-59 643.421,-59"/>
<text text-anchor="middle" x="697" y="-65" font-family="Helvetica,sans-Serif" font-size="10.00">boost/filesystem.hpp</text>
</g>
<!-- Node13&#45;&gt;Node14 -->
<g id="edge19" class="edge"><title>Node13&#45;&gt;Node14</title>
<path fill="none" stroke="midnightblue" d="M697,-116.753C697,-109.25 697,-98.4238 697,-89.0781"/>
<polygon fill="midnightblue" stroke="midnightblue" points="700.5,-89.0752 697,-79.0752 693.5,-89.0752 700.5,-89.0752"/>
</g>
<!-- Node19&#45;&gt;Node2 -->
<g id="edge29" class="edge"><title>Node19&#45;&gt;Node2</title>
<path fill="none" stroke="midnightblue" d="M449.248,-297.019C304.513,-286.978 -85.8853,-247.286 39,-116 66.6034,-86.9819 719.009,-82.1759 759,-80 798.595,-77.8456 843.365,-75.2037 877.019,-73.1765"/>
<polygon fill="midnightblue" stroke="midnightblue" points="877.317,-76.665 887.088,-72.5683 876.895,-69.6777 877.317,-76.665"/>
</g>
<!-- Node19&#45;&gt;Node7 -->
<g id="edge30" class="edge"><title>Node19&#45;&gt;Node7</title>
<path fill="none" stroke="midnightblue" d="M517.513,-290.753C533.386,-281.864 557.591,-268.309 575.858,-258.079"/>
<polygon fill="midnightblue" stroke="midnightblue" points="577.779,-261.015 584.794,-253.075 574.359,-254.907 577.779,-261.015"/>
</g>
<!-- Node19&#45;&gt;Node8 -->
<g id="edge31" class="edge"><title>Node19&#45;&gt;Node8</title>
<path fill="none" stroke="midnightblue" d="M502.555,-290.671C505.66,-272.041 512.684,-229.898 516.81,-205.143"/>
<polygon fill="midnightblue" stroke="midnightblue" points="520.285,-205.579 518.477,-195.139 513.38,-204.428 520.285,-205.579"/>
</g>
<!-- Node19&#45;&gt;Node12 -->
<g id="edge32" class="edge"><title>Node19&#45;&gt;Node12</title>
<path fill="none" stroke="midnightblue" d="M449.018,-298.112C351.702,-293.957 145.985,-282.063 81,-254 44.5325,-238.252 29.6421,-232.068 13,-196 -3.22364,-160.839 6.29214,-114.167 13.7385,-88.6401"/>
<polygon fill="midnightblue" stroke="midnightblue" points="17.0808,-89.6786 16.722,-79.0898 10.3993,-87.5912 17.0808,-89.6786"/>
</g>
<!-- Node20&#45;&gt;Node2 -->
<g id="edge34" class="edge"><title>Node20&#45;&gt;Node2</title>
<path fill="none" stroke="midnightblue" d="M1071.52,-354.068C1043.32,-349.044 1008.75,-337.67 990,-312 938.582,-241.593 1019.8,-194.565 982,-116 975.873,-103.265 964.418,-92.6266 953.721,-84.7995"/>
<polygon fill="midnightblue" stroke="midnightblue" points="955.654,-81.8815 945.42,-79.1387 951.71,-87.6646 955.654,-81.8815"/>
</g>
<!-- Node21 -->
<g id="node21" class="node"><title>Node21</title>
<g id="a_node21"><a xlink:href="_area_8h.html" target="_top" xlink:title="cinder/Area.h">
<polygon fill="white" stroke="black" points="1140.26,-233 1140.26,-253 1215.74,-253 1215.74,-233 1140.26,-233"/>
<text text-anchor="middle" x="1178" y="-239" font-family="Helvetica,sans-Serif" font-size="10.00">cinder/Area.h</text>
</a>
</g>
</g>
<!-- Node20&#45;&gt;Node21 -->
<g id="edge35" class="edge"><title>Node20&#45;&gt;Node21</title>
<path fill="none" stroke="midnightblue" d="M1160.67,-352.186C1185.55,-346.412 1214.54,-334.91 1230,-312 1242.76,-293.091 1221.53,-272.411 1202.47,-258.882"/>
<polygon fill="midnightblue" stroke="midnightblue" points="1204.26,-255.864 1194,-253.201 1200.36,-261.678 1204.26,-255.864"/>
</g>
<!-- Node32 -->
<g id="node32" class="node"><title>Node32</title>
<g id="a_node32"><a xlink:href="_channel_8h.html" target="_top" xlink:title="cinder/Channel.h">
<polygon fill="white" stroke="black" points="1130.2,-291 1130.2,-311 1221.8,-311 1221.8,-291 1130.2,-291"/>
<text text-anchor="middle" x="1176" y="-297" font-family="Helvetica,sans-Serif" font-size="10.00">cinder/Channel.h</text>
</a>
</g>
</g>
<!-- Node20&#45;&gt;Node32 -->
<g id="edge52" class="edge"><title>Node20&#45;&gt;Node32</title>
<path fill="none" stroke="midnightblue" d="M1125.91,-348.753C1134.82,-340.435 1148.11,-328.031 1158.76,-318.089"/>
<polygon fill="midnightblue" stroke="midnightblue" points="1161.35,-320.457 1166.28,-311.075 1156.58,-315.34 1161.35,-320.457"/>
</g>
<!-- Node33 -->
<g id="node33" class="node"><title>Node33</title>
<g id="a_node33"><a xlink:href="_chan_traits_8h.html" target="_top" xlink:title="cinder/ChanTraits.h">
<polygon fill="white" stroke="black" points="1362.55,-175 1362.55,-195 1465.45,-195 1465.45,-175 1362.55,-175"/>
<text text-anchor="middle" x="1414" y="-181" font-family="Helvetica,sans-Serif" font-size="10.00">cinder/ChanTraits.h</text>
</a>
</g>
</g>
<!-- Node20&#45;&gt;Node33 -->
<g id="edge55" class="edge"><title>Node20&#45;&gt;Node33</title>
<path fill="none" stroke="midnightblue" d="M1150.31,-348.962C1177.24,-341.146 1215.19,-328.505 1246,-312 1305.67,-280.035 1367.16,-228.157 1396.44,-202.066"/>
<polygon fill="midnightblue" stroke="midnightblue" points="1399.05,-204.429 1404.14,-195.137 1394.36,-199.226 1399.05,-204.429"/>
</g>
<!-- Node34 -->
<g id="node34" class="node"><title>Node34</title>
<g id="a_node34"><a xlink:href="_color_8h.html" target="_top" xlink:title="cinder/Color.h">
<polygon fill="white" stroke="black" points="1392.15,-233 1392.15,-253 1469.85,-253 1469.85,-233 1392.15,-233"/>
<text text-anchor="middle" x="1431" y="-239" font-family="Helvetica,sans-Serif" font-size="10.00">cinder/Color.h</text>
</a>
</g>
</g>
<!-- Node20&#45;&gt;Node34 -->
<g id="edge57" class="edge"><title>Node20&#45;&gt;Node34</title>
<path fill="none" stroke="midnightblue" d="M1160.51,-350.152C1198.78,-342.665 1255.06,-329.872 1302,-312 1340.6,-297.303 1382.4,-273.719 1407.64,-258.545"/>
<polygon fill="midnightblue" stroke="midnightblue" points="1409.74,-261.366 1416.46,-253.178 1406.1,-255.386 1409.74,-261.366"/>
</g>
<!-- Node20&#45;&gt;Node13 -->
<g id="edge62" class="edge"><title>Node20&#45;&gt;Node13</title>
<path fill="none" stroke="midnightblue" d="M1071.36,-349.29C1038.66,-341.92 993.765,-329.703 957,-312 857.457,-264.069 754.929,-178.883 714.703,-143.785"/>
<polygon fill="midnightblue" stroke="midnightblue" points="716.909,-141.064 707.089,-137.087 712.286,-146.32 716.909,-141.064"/>
</g>
<!-- Node35 -->
<g id="node35" class="node"><title>Node35</title>
<polygon fill="white" stroke="#bfbfbf" points="999.357,-291 999.357,-311 1112.64,-311 1112.64,-291 999.357,-291"/>
<text text-anchor="middle" x="1056" y="-297" font-family="Helvetica,sans-Serif" font-size="10.00">boost/logic/tribool.hpp</text>
</g>
<!-- Node20&#45;&gt;Node35 -->
<g id="edge63" class="edge"><title>Node20&#45;&gt;Node35</title>
<path fill="none" stroke="midnightblue" d="M1106.09,-348.753C1097.18,-340.435 1083.89,-328.031 1073.24,-318.089"/>
<polygon fill="midnightblue" stroke="midnightblue" points="1075.42,-315.34 1065.72,-311.075 1070.65,-320.457 1075.42,-315.34"/>
</g>
<!-- Node21&#45;&gt;Node2 -->
<g id="edge36" class="edge"><title>Node21&#45;&gt;Node2</title>
<path fill="none" stroke="midnightblue" d="M1171.55,-232.672C1155.19,-209.651 1109.68,-149.574 1058,-116 1033.89,-100.333 1003.76,-89.202 978.692,-81.8182"/>
<polygon fill="midnightblue" stroke="midnightblue" points="979.577,-78.4311 969.001,-79.074 977.669,-85.1662 979.577,-78.4311"/>
</g>
<!-- Node22 -->
<g id="node22" class="node"><title>Node22</title>
<g id="a_node22"><a xlink:href="_vector_8h.html" target="_top" xlink:title="cinder/Vector.h">
<polygon fill="white" stroke="black" points="1261.92,-175 1261.92,-195 1344.08,-195 1344.08,-175 1261.92,-175"/>
<text text-anchor="middle" x="1303" y="-181" font-family="Helvetica,sans-Serif" font-size="10.00">cinder/Vector.h</text>
</a>
</g>
</g>
<!-- Node21&#45;&gt;Node22 -->
<g id="edge37" class="edge"><title>Node21&#45;&gt;Node22</title>
<path fill="none" stroke="midnightblue" d="M1198.36,-232.878C1218.7,-223.766 1250.18,-209.662 1273.31,-199.303"/>
<polygon fill="midnightblue" stroke="midnightblue" points="1274.95,-202.401 1282.65,-195.118 1272.09,-196.013 1274.95,-202.401"/>
</g>
<!-- Node21&#45;&gt;Node18 -->
<g id="edge49" class="edge"><title>Node21&#45;&gt;Node18</title>
<path fill="none" stroke="midnightblue" d="M1174.64,-232.671C1167.91,-213.957 1152.65,-171.517 1143.76,-146.809"/>
<polygon fill="midnightblue" stroke="midnightblue" points="1146.96,-145.365 1140.29,-137.139 1140.38,-147.734 1146.96,-145.365"/>
</g>
<!-- Node21&#45;&gt;Node31 -->
<g id="edge50" class="edge"><title>Node21&#45;&gt;Node31</title>
<path fill="none" stroke="midnightblue" d="M1185.76,-232.753C1192.54,-224.68 1202.54,-212.757 1210.76,-202.973"/>
<polygon fill="midnightblue" stroke="midnightblue" points="1213.64,-204.985 1217.38,-195.075 1208.27,-200.485 1213.64,-204.985"/>
</g>
<!-- Node21&#45;&gt;Node11 -->
<g id="edge51" class="edge"><title>Node21&#45;&gt;Node11</title>
<path fill="none" stroke="midnightblue" d="M1178.75,-232.753C1180.96,-205.688 1187.42,-126.224 1190.43,-89.2864"/>
<polygon fill="midnightblue" stroke="midnightblue" points="1193.92,-89.5442 1191.24,-79.2932 1186.94,-88.9763 1193.92,-89.5442"/>
</g>
<!-- Node23 -->
<g id="node23" class="node"><title>Node23</title>
<polygon fill="white" stroke="#bfbfbf" points="1471.38,-59 1471.38,-79 1514.62,-79 1514.62,-59 1471.38,-59"/>
<text text-anchor="middle" x="1493" y="-65" font-family="Helvetica,sans-Serif" font-size="10.00">cmath</text>
</g>
<!-- Node22&#45;&gt;Node23 -->
<g id="edge38" class="edge"><title>Node22&#45;&gt;Node23</title>
<path fill="none" stroke="midnightblue" d="M1324.04,-174.882C1343.43,-166.206 1372.78,-152.375 1397,-138 1424.59,-121.62 1454.48,-99.7321 1473.45,-85.2671"/>
<polygon fill="midnightblue" stroke="midnightblue" points="1475.79,-87.8768 1481.59,-79.0045 1471.53,-82.3292 1475.79,-87.8768"/>
</g>
<!-- Node24 -->
<g id="node24" class="node"><title>Node24</title>
<polygon fill="white" stroke="#bfbfbf" points="1343.27,-117 1343.27,-137 1388.73,-137 1388.73,-117 1343.27,-117"/>
<text text-anchor="middle" x="1366" y="-123" font-family="Helvetica,sans-Serif" font-size="10.00">cstring</text>
</g>
<!-- Node22&#45;&gt;Node24 -->
<g id="edge39" class="edge"><title>Node22&#45;&gt;Node24</title>
<path fill="none" stroke="midnightblue" d="M1313.4,-174.753C1322.85,-166.353 1336.99,-153.787 1348.23,-143.798"/>
<polygon fill="midnightblue" stroke="midnightblue" points="1350.64,-146.335 1355.79,-137.075 1345.99,-141.103 1350.64,-146.335"/>
</g>
<!-- Node22&#45;&gt;Node18 -->
<g id="edge40" class="edge"><title>Node22&#45;&gt;Node18</title>
<path fill="none" stroke="midnightblue" d="M1275.96,-174.878C1248.02,-165.453 1204.25,-150.688 1173.31,-140.25"/>
<polygon fill="midnightblue" stroke="midnightblue" points="1174.35,-136.906 1163.75,-137.025 1172.11,-143.538 1174.35,-136.906"/>
</g>
<!-- Node25 -->
<g id="node25" class="node"><title>Node25</title>
<polygon fill="white" stroke="#bfbfbf" points="1219.88,-117 1219.88,-137 1268.12,-137 1268.12,-117 1219.88,-117"/>
<text text-anchor="middle" x="1244" y="-123" font-family="Helvetica,sans-Serif" font-size="10.00">cassert</text>
</g>
<!-- Node22&#45;&gt;Node25 -->
<g id="edge41" class="edge"><title>Node22&#45;&gt;Node25</title>
<path fill="none" stroke="midnightblue" d="M1293.26,-174.753C1284.49,-166.435 1271.43,-154.031 1260.95,-144.089"/>
<polygon fill="midnightblue" stroke="midnightblue" points="1263.22,-141.421 1253.56,-137.075 1258.4,-146.498 1263.22,-141.421"/>
</g>
<!-- Node26 -->
<g id="node26" class="node"><title>Node26</title>
<polygon fill="white" stroke="#bfbfbf" points="1286.61,-117 1286.61,-137 1325.39,-137 1325.39,-117 1286.61,-117"/>
<text text-anchor="middle" x="1306" y="-123" font-family="Helvetica,sans-Serif" font-size="10.00">limits</text>
</g>
<!-- Node22&#45;&gt;Node26 -->
<g id="edge42" class="edge"><title>Node22&#45;&gt;Node26</title>
<path fill="none" stroke="midnightblue" d="M1303.5,-174.753C1303.9,-167.25 1304.48,-156.424 1304.98,-147.078"/>
<polygon fill="midnightblue" stroke="midnightblue" points="1308.47,-147.248 1305.51,-137.075 1301.48,-146.874 1308.47,-147.248"/>
</g>
<!-- Node27 -->
<g id="node27" class="node"><title>Node27</title>
<g id="a_node27"><a xlink:href="_cinder_math_8h.html" target="_top" xlink:title="cinder/CinderMath.h">
<polygon fill="white" stroke="black" points="1558.98,-117 1558.98,-137 1665.02,-137 1665.02,-117 1558.98,-117"/>
<text text-anchor="middle" x="1612" y="-123" font-family="Helvetica,sans-Serif" font-size="10.00">cinder/CinderMath.h</text>
</a>
</g>
</g>
<!-- Node22&#45;&gt;Node27 -->
<g id="edge43" class="edge"><title>Node22&#45;&gt;Node27</title>
<path fill="none" stroke="midnightblue" d="M1344.18,-175.862C1347.5,-175.225 1350.81,-174.598 1354,-174 1420.66,-161.523 1497.17,-147.98 1549.45,-138.843"/>
<polygon fill="midnightblue" stroke="midnightblue" points="1550.32,-142.243 1559.57,-137.075 1549.12,-135.347 1550.32,-142.243"/>
</g>
<!-- Node27&#45;&gt;Node2 -->
<g id="edge44" class="edge"><title>Node27&#45;&gt;Node2</title>
<path fill="none" stroke="midnightblue" d="M1558.97,-121.652C1431.24,-111.179 1107.71,-84.6527 981.015,-74.2648"/>
<polygon fill="midnightblue" stroke="midnightblue" points="981.058,-70.7566 970.805,-73.4277 980.486,-77.7332 981.058,-70.7566"/>
</g>
<!-- Node27&#45;&gt;Node23 -->
<g id="edge45" class="edge"><title>Node27&#45;&gt;Node23</title>
<path fill="none" stroke="midnightblue" d="M1592.62,-116.878C1573.34,-107.807 1543.55,-93.7876 1521.56,-83.4418"/>
<polygon fill="midnightblue" stroke="midnightblue" points="1522.91,-80.2093 1512.38,-79.1181 1519.93,-86.543 1522.91,-80.2093"/>
</g>
<!-- Node28 -->
<g id="node28" class="node"><title>Node28</title>
<polygon fill="white" stroke="#bfbfbf" points="1609.11,-59 1609.11,-79 1652.89,-79 1652.89,-59 1609.11,-59"/>
<text text-anchor="middle" x="1631" y="-65" font-family="Helvetica,sans-Serif" font-size="10.00">climits</text>
</g>
<!-- Node27&#45;&gt;Node28 -->
<g id="edge46" class="edge"><title>Node27&#45;&gt;Node28</title>
<path fill="none" stroke="midnightblue" d="M1615.14,-116.753C1617.71,-109.169 1621.44,-98.1881 1624.63,-88.7739"/>
<polygon fill="midnightblue" stroke="midnightblue" points="1628.02,-89.6695 1627.92,-79.0752 1621.39,-87.4204 1628.02,-89.6695"/>
</g>
<!-- Node29 -->
<g id="node29" class="node"><title>Node29</title>
<polygon fill="white" stroke="#bfbfbf" points="1671.05,-59 1671.05,-79 1710.95,-79 1710.95,-59 1671.05,-59"/>
<text text-anchor="middle" x="1691" y="-65" font-family="Helvetica,sans-Serif" font-size="10.00">cfloat</text>
</g>
<!-- Node27&#45;&gt;Node29 -->
<g id="edge47" class="edge"><title>Node27&#45;&gt;Node29</title>
<path fill="none" stroke="midnightblue" d="M1625.05,-116.753C1637.24,-108.109 1655.66,-95.0518 1669.94,-84.9314"/>
<polygon fill="midnightblue" stroke="midnightblue" points="1672.06,-87.7137 1678.2,-79.0752 1668.02,-82.0029 1672.06,-87.7137"/>
</g>
<!-- Node30 -->
<g id="node30" class="node"><title>Node30</title>
<polygon fill="white" stroke="#bfbfbf" points="1532.6,-59 1532.6,-79 1591.4,-79 1591.4,-59 1532.6,-59"/>
<text text-anchor="middle" x="1562" y="-65" font-family="Helvetica,sans-Serif" font-size="10.00">functional</text>
</g>
<!-- Node27&#45;&gt;Node30 -->
<g id="edge48" class="edge"><title>Node27&#45;&gt;Node30</title>
<path fill="none" stroke="midnightblue" d="M1603.74,-116.753C1596.46,-108.598 1585.67,-96.5158 1576.89,-86.6769"/>
<polygon fill="midnightblue" stroke="midnightblue" points="1579.37,-84.2035 1570.1,-79.0752 1574.15,-88.8657 1579.37,-84.2035"/>
</g>
<!-- Node32&#45;&gt;Node2 -->
<g id="edge53" class="edge"><title>Node32&#45;&gt;Node2</title>
<path fill="none" stroke="midnightblue" d="M1166.42,-290.742C1157.11,-281.63 1142.72,-267.202 1131,-254 1078.75,-195.131 1081.17,-165.538 1020,-116 1002.94,-102.182 981.047,-90.9552 963.013,-83.0529"/>
<polygon fill="midnightblue" stroke="midnightblue" points="964.019,-79.6785 953.445,-79.0094 961.294,-86.1263 964.019,-79.6785"/>
</g>
<!-- Node32&#45;&gt;Node21 -->
<g id="edge54" class="edge"><title>Node32&#45;&gt;Node21</title>
<path fill="none" stroke="midnightblue" d="M1176.33,-290.753C1176.6,-283.25 1176.98,-272.424 1177.32,-263.078"/>
<polygon fill="midnightblue" stroke="midnightblue" points="1180.82,-263.194 1177.68,-253.075 1173.82,-262.944 1180.82,-263.194"/>
</g>
<!-- Node33&#45;&gt;Node2 -->
<g id="edge56" class="edge"><title>Node33&#45;&gt;Node2</title>
<path fill="none" stroke="midnightblue" d="M1414.73,-174.844C1415.35,-159.983 1414.14,-130.786 1397,-116 1365.99,-89.2406 1095.97,-76.1666 980.75,-71.7664"/>
<polygon fill="midnightblue" stroke="midnightblue" points="980.876,-68.2688 970.752,-71.3916 980.613,-75.2639 980.876,-68.2688"/>
</g>
<!-- Node34&#45;&gt;Node2 -->
<g id="edge58" class="edge"><title>Node34&#45;&gt;Node2</title>
<path fill="none" stroke="midnightblue" d="M1443.92,-232.717C1454.25,-224.425 1467.98,-211.253 1474,-196 1477.59,-186.905 1477.66,-183.066 1474,-174 1460.58,-140.776 1450.29,-131.533 1418,-116 1379.31,-97.3865 1098.78,-79.5867 980.927,-72.8429"/>
<polygon fill="midnightblue" stroke="midnightblue" points="980.894,-69.3355 970.712,-72.2628 980.497,-76.3243 980.894,-69.3355"/>
</g>
<!-- Node34&#45;&gt;Node33 -->
<g id="edge59" class="edge"><title>Node34&#45;&gt;Node33</title>
<path fill="none" stroke="midnightblue" d="M1428.19,-232.753C1425.89,-225.169 1422.56,-214.188 1419.7,-204.774"/>
<polygon fill="midnightblue" stroke="midnightblue" points="1423.01,-203.627 1416.75,-195.075 1416.31,-205.661 1423.01,-203.627"/>
</g>
<!-- Node34&#45;&gt;Node22 -->
<g id="edge60" class="edge"><title>Node34&#45;&gt;Node22</title>
<path fill="none" stroke="midnightblue" d="M1410.15,-232.878C1389.23,-223.725 1356.8,-209.536 1333.09,-199.164"/>
<polygon fill="midnightblue" stroke="midnightblue" points="1334.41,-195.92 1323.84,-195.118 1331.6,-202.333 1334.41,-195.92"/>
</g>
<!-- Node34&#45;&gt;Node27 -->
<g id="edge61" class="edge"><title>Node34&#45;&gt;Node27</title>
<path fill="none" stroke="midnightblue" d="M1446.22,-232.971C1461.63,-223.792 1486.09,-209.097 1507,-196 1535.7,-178.027 1568.39,-156.721 1589.57,-142.81"/>
<polygon fill="midnightblue" stroke="midnightblue" points="1591.73,-145.576 1598.16,-137.155 1587.88,-139.729 1591.73,-145.576"/>
</g>
</g>
</svg>
