<?xml version="1.0" encoding="UTF-8" standalone="no"?>
<!DOCTYPE svg PUBLIC "-//W3C//DTD SVG 1.1//EN"
 "http://www.w3.org/Graphics/SVG/1.1/DTD/svg11.dtd">
<!-- Generated by graphviz version 2.30.1 (20140712.1814)
 -->
<!-- Title: include/cinder/ImageIo.h Pages: 1 -->
<!--zoomable 240 -->
<svg id="main" version="1.1" xmlns="http://www.w3.org/2000/svg" xmlns:xlink="http://www.w3.org/1999/xlink" xml:space="preserve" onload="init(evt)">
<style type="text/css"><![CDATA[
.edge:hover path { stroke: red; }
.edge:hover polygon { stroke: red; fill: red; }
]]></style>
<script type="text/javascript"><![CDATA[
var edges = document.getElementsByTagName('g');
if (edges && edges.length) {
  for (var i=0;i<edges.length;i++) {
    if (edges[i].id.substr(0,4)=='edge') {
      edges[i].setAttribute('class','edge');
    }
  }
}
]]></script>
        <defs>
                <circle id="rim" cx="0" cy="0" r="7"/>
                <circle id="rim2" cx="0" cy="0" r="3.5"/>
                <g id="zoomPlus">
                        <use xlink:href="#rim" fill="#404040">
                                <set attributeName="fill" to="#808080" begin="zoomplus.mouseover" end="zoomplus.mouseout"/>
                        </use>
                        <path d="M-4,0h8M0,-4v8" fill="none" stroke="white" stroke-width="1.5" pointer-events="none"/>
                </g>
                <g id="zoomMin">
                        <use xlink:href="#rim" fill="#404040">
                                <set attributeName="fill" to="#808080" begin="zoomminus.mouseover" end="zoomminus.mouseout"/>
                        </use>
                        <path d="M-4,0h8" fill="none" stroke="white" stroke-width="1.5" pointer-events="none"/>
                </g>
                <g id="dirArrow">
                        <path fill="none" stroke="white" stroke-width="1.5" d="M0,-3.0v7 M-2.5,-0.5L0,-3.0L2.5,-0.5"/>
                </g>
               <g id="resetDef">
                       <use xlink:href="#rim2" fill="#404040">
                               <set attributeName="fill" to="#808080" begin="reset.mouseover" end="reset.mouseout"/>
                       </use>
               </g>
        </defs>

<script type="text/javascript">
var viewWidth = 4205;
var viewHeight = 240;
var sectionId = 'dynsection-1';
</script>
<script xlink:href="svgpan.js"/>
<svg id="graph" class="graph">
<g id="viewport">
<title>include/cinder/ImageIo.h</title>
<polygon fill="white" stroke="white" points="-4,5 -4,-236 4202,-236 4202,5 -4,5"/>
<!-- Node1 -->
<g id="node1" class="node"><title>Node1</title>
<polygon fill="#bfbfbf" stroke="black" points="2903.52,-211 2903.52,-231 3028.48,-231 3028.48,-211 2903.52,-211"/>
<text text-anchor="middle" x="2966" y="-217" font-family="Helvetica,sans-Serif" font-size="10.00">include/cinder/ImageIo.h</text>
</g>
<!-- Node2 -->
<g id="node2" class="node"><title>Node2</title>
<g id="a_node2"><a xlink:href="_clipboard_8h.html" target="_top" xlink:title="include/cinder/Clipboard.h">
<polygon fill="white" stroke="black" points="362.188,-147 362.188,-167 493.812,-167 493.812,-147 362.188,-147"/>
<text text-anchor="middle" x="428" y="-153" font-family="Helvetica,sans-Serif" font-size="10.00">include/cinder/Clipboard.h</text>
</a>
</g>
</g>
<!-- Node1&#45;&gt;Node2 -->
<g id="edge1" class="edge"><title>Node1&#45;&gt;Node2</title>
<path fill="none" stroke="midnightblue" d="M2893.01,-219.006C2618.82,-215.152 1624.3,-200.103 805,-174 695.981,-170.527 569.298,-164.803 494.044,-161.226"/>
<polygon fill="midnightblue" stroke="midnightblue" points="2893.18,-222.508 2903.23,-219.149 2893.28,-215.509 2893.18,-222.508"/>
</g>
<!-- Node4 -->
<g id="node4" class="node"><title>Node4</title>
<g id="a_node4"><a xlink:href="_cinder_cocoa_8h.html" target="_top" xlink:title="include/cinder/cocoa\l/CinderCocoa.h">
<polygon fill="white" stroke="black" points="1384.42,-141 1384.42,-173 1491.58,-173 1491.58,-141 1384.42,-141"/>
<text text-anchor="start" x="1392.42" y="-159" font-family="Helvetica,sans-Serif" font-size="10.00">include/cinder/cocoa</text>
<text text-anchor="middle" x="1438" y="-147" font-family="Helvetica,sans-Serif" font-size="10.00">/CinderCocoa.h</text>
</a>
</g>
</g>
<!-- Node1&#45;&gt;Node4 -->
<g id="edge3" class="edge"><title>Node1&#45;&gt;Node4</title>
<path fill="none" stroke="midnightblue" d="M2892.99,-217.038C2628.33,-206.299 1722.72,-169.553 1491.89,-160.187"/>
<polygon fill="midnightblue" stroke="midnightblue" points="2893.12,-220.546 2903.25,-217.454 2893.4,-213.551 2893.12,-220.546"/>
</g>
<!-- Node5 -->
<g id="node5" class="node"><title>Node5</title>
<g id="a_node5"><a xlink:href="_image_source_file_quartz_8h.html" target="_top" xlink:title="include/cinder/ImageSource\lFileQuartz.h">
<polygon fill="white" stroke="black" points="141.02,-71 141.02,-103 280.98,-103 280.98,-71 141.02,-71"/>
<text text-anchor="start" x="149.02" y="-89" font-family="Helvetica,sans-Serif" font-size="10.00">include/cinder/ImageSource</text>
<text text-anchor="middle" x="211" y="-77" font-family="Helvetica,sans-Serif" font-size="10.00">FileQuartz.h</text>
</a>
</g>
</g>
<!-- Node1&#45;&gt;Node5 -->
<g id="edge21" class="edge"><title>Node1&#45;&gt;Node5</title>
<path fill="none" stroke="midnightblue" d="M2893.38,-218.819C2668.02,-214.955 1960.5,-201.343 1375,-174 892.301,-151.458 769.013,-167.662 290,-104 287.087,-103.613 284.12,-103.182 281.128,-102.716"/>
<polygon fill="midnightblue" stroke="midnightblue" points="2893.37,-222.319 2903.43,-218.99 2893.49,-215.32 2893.37,-222.319"/>
</g>
<!-- Node20 -->
<g id="node20" class="node"><title>Node20</title>
<g id="a_node20"><a xlink:href="_image_source_file_wic_8h.html" target="_top" xlink:title="include/cinder/ImageSource\lFileWic.h">
<polygon fill="white" stroke="black" points="2320.02,-141 2320.02,-173 2459.98,-173 2459.98,-141 2320.02,-141"/>
<text text-anchor="start" x="2328.02" y="-159" font-family="Helvetica,sans-Serif" font-size="10.00">include/cinder/ImageSource</text>
<text text-anchor="middle" x="2390" y="-147" font-family="Helvetica,sans-Serif" font-size="10.00">FileWic.h</text>
</a>
</g>
</g>
<!-- Node1&#45;&gt;Node20 -->
<g id="edge22" class="edge"><title>Node1&#45;&gt;Node20</title>
<path fill="none" stroke="midnightblue" d="M2893.37,-215.733C2796.3,-209.471 2619.08,-196.077 2469,-174 2466.09,-173.572 2463.13,-173.107 2460.14,-172.613"/>
<polygon fill="midnightblue" stroke="midnightblue" points="2893.17,-219.227 2903.37,-216.371 2893.61,-212.241 2893.17,-219.227"/>
</g>
<!-- Node22 -->
<g id="node22" class="node"><title>Node22</title>
<g id="a_node22"><a xlink:href="_image_source_png_8h.html" target="_top" xlink:title="include/cinder/ImageSource\lPng.h">
<polygon fill="white" stroke="black" points="2478.02,-141 2478.02,-173 2617.98,-173 2617.98,-141 2478.02,-141"/>
<text text-anchor="start" x="2486.02" y="-159" font-family="Helvetica,sans-Serif" font-size="10.00">include/cinder/ImageSource</text>
<text text-anchor="middle" x="2548" y="-147" font-family="Helvetica,sans-Serif" font-size="10.00">Png.h</text>
</a>
</g>
</g>
<!-- Node1&#45;&gt;Node22 -->
<g id="edge24" class="edge"><title>Node1&#45;&gt;Node22</title>
<path fill="none" stroke="midnightblue" d="M2893.04,-211.49C2824.25,-203.137 2718.35,-189.432 2627,-174 2624.1,-173.511 2621.15,-172.994 2618.17,-172.457"/>
<polygon fill="midnightblue" stroke="midnightblue" points="2892.99,-215.009 2903.33,-212.734 2893.83,-208.059 2892.99,-215.009"/>
</g>
<!-- Node7 -->
<g id="node7" class="node"><title>Node7</title>
<g id="a_node7"><a xlink:href="_image_target_file_quartz_8h.html" target="_top" xlink:title="include/cinder/ImageTarget\lFileQuartz.h">
<polygon fill="white" stroke="black" points="2166.97,-71 2166.97,-103 2303.03,-103 2303.03,-71 2166.97,-71"/>
<text text-anchor="start" x="2174.97" y="-89" font-family="Helvetica,sans-Serif" font-size="10.00">include/cinder/ImageTarget</text>
<text text-anchor="middle" x="2235" y="-77" font-family="Helvetica,sans-Serif" font-size="10.00">FileQuartz.h</text>
</a>
</g>
</g>
<!-- Node1&#45;&gt;Node7 -->
<g id="edge26" class="edge"><title>Node1&#45;&gt;Node7</title>
<path fill="none" stroke="midnightblue" d="M2893.28,-217.989C2733.54,-213.13 2362.14,-199.245 2311,-174 2279.38,-158.388 2255.15,-123.253 2243.21,-103.054"/>
<polygon fill="midnightblue" stroke="midnightblue" points="2893.39,-221.494 2903.49,-218.296 2893.6,-214.497 2893.39,-221.494"/>
</g>
<!-- Node24 -->
<g id="node24" class="node"><title>Node24</title>
<g id="a_node24"><a xlink:href="_image_target_file_wic_8h.html" target="_top" xlink:title="include/cinder/ImageTarget\lFileWic.h">
<polygon fill="white" stroke="black" points="2635.97,-141 2635.97,-173 2772.03,-173 2772.03,-141 2635.97,-141"/>
<text text-anchor="start" x="2643.97" y="-159" font-family="Helvetica,sans-Serif" font-size="10.00">include/cinder/ImageTarget</text>
<text text-anchor="middle" x="2704" y="-147" font-family="Helvetica,sans-Serif" font-size="10.00">FileWic.h</text>
</a>
</g>
</g>
<!-- Node1&#45;&gt;Node24 -->
<g id="edge27" class="edge"><title>Node1&#45;&gt;Node24</title>
<path fill="none" stroke="midnightblue" d="M2918.13,-208.673C2875.86,-198.669 2813.9,-184.007 2767.5,-173.026"/>
<polygon fill="midnightblue" stroke="midnightblue" points="2917.37,-212.088 2927.9,-210.985 2918.98,-205.276 2917.37,-212.088"/>
</g>
<!-- Node26 -->
<g id="node26" class="node"><title>Node26</title>
<g id="a_node26"><a xlink:href="_movie_writer_8h.html" target="_top" xlink:title="include/cinder/qtime\l/MovieWriter.h">
<polygon fill="white" stroke="black" points="2790.53,-141 2790.53,-173 2895.47,-173 2895.47,-141 2790.53,-141"/>
<text text-anchor="start" x="2798.53" y="-159" font-family="Helvetica,sans-Serif" font-size="10.00">include/cinder/qtime</text>
<text text-anchor="middle" x="2843" y="-147" font-family="Helvetica,sans-Serif" font-size="10.00">/MovieWriter.h</text>
</a>
</g>
</g>
<!-- Node1&#45;&gt;Node26 -->
<g id="edge29" class="edge"><title>Node1&#45;&gt;Node26</title>
<path fill="none" stroke="midnightblue" d="M2939.12,-206.451C2919.55,-196.585 2893.03,-183.22 2872.81,-173.026"/>
<polygon fill="midnightblue" stroke="midnightblue" points="2937.61,-209.609 2948.11,-210.985 2940.76,-203.358 2937.61,-209.609"/>
</g>
<!-- Node28 -->
<g id="node28" class="node"><title>Node28</title>
<g id="a_node28"><a xlink:href="_quick_time_utils_8h.html" target="_top" xlink:title="include/cinder/qtime\l/QuickTimeUtils.h">
<polygon fill="white" stroke="black" points="2913.53,-141 2913.53,-173 3018.47,-173 3018.47,-141 2913.53,-141"/>
<text text-anchor="start" x="2921.53" y="-159" font-family="Helvetica,sans-Serif" font-size="10.00">include/cinder/qtime</text>
<text text-anchor="middle" x="2966" y="-147" font-family="Helvetica,sans-Serif" font-size="10.00">/QuickTimeUtils.h</text>
</a>
</g>
</g>
<!-- Node1&#45;&gt;Node28 -->
<g id="edge31" class="edge"><title>Node1&#45;&gt;Node28</title>
<path fill="none" stroke="midnightblue" d="M2966,-200.775C2966,-191.986 2966,-181.715 2966,-173.44"/>
<polygon fill="midnightblue" stroke="midnightblue" points="2962.5,-200.852 2966,-210.852 2969.5,-200.852 2962.5,-200.852"/>
</g>
<!-- Node31 -->
<g id="node31" class="node"><title>Node31</title>
<g id="a_node31"><a xlink:href="_channel_8cpp.html" target="_top" xlink:title="src/cinder/Channel.cpp">
<polygon fill="white" stroke="black" points="3036.86,-147 3036.86,-167 3155.14,-167 3155.14,-147 3036.86,-147"/>
<text text-anchor="middle" x="3096" y="-153" font-family="Helvetica,sans-Serif" font-size="10.00">src/cinder/Channel.cpp</text>
</a>
</g>
</g>
<!-- Node1&#45;&gt;Node31 -->
<g id="edge35" class="edge"><title>Node1&#45;&gt;Node31</title>
<path fill="none" stroke="midnightblue" d="M2994.26,-206.522C3019.35,-194.558 3055.31,-177.408 3077.07,-167.026"/>
<polygon fill="midnightblue" stroke="midnightblue" points="2992.42,-203.521 2984.9,-210.985 2995.44,-209.839 2992.42,-203.521"/>
</g>
<!-- Node32 -->
<g id="node32" class="node"><title>Node32</title>
<g id="a_node32"><a xlink:href="_dx_texture_8cpp.html" target="_top" xlink:title="src/cinder/dx/DxTexture.cpp">
<polygon fill="white" stroke="black" points="3173.31,-147 3173.31,-167 3312.69,-167 3312.69,-147 3173.31,-147"/>
<text text-anchor="middle" x="3243" y="-153" font-family="Helvetica,sans-Serif" font-size="10.00">src/cinder/dx/DxTexture.cpp</text>
</a>
</g>
</g>
<!-- Node1&#45;&gt;Node32 -->
<g id="edge36" class="edge"><title>Node1&#45;&gt;Node32</title>
<path fill="none" stroke="midnightblue" d="M3016.23,-208.758C3069.71,-196.786 3153.31,-178.074 3202.67,-167.026"/>
<polygon fill="midnightblue" stroke="midnightblue" points="3015.27,-205.385 3006.28,-210.985 3016.8,-212.216 3015.27,-205.385"/>
</g>
<!-- Node33 -->
<g id="node33" class="node"><title>Node33</title>
<g id="a_node33"><a xlink:href="_dx_texture_font_8cpp.html" target="_top" xlink:title="src/cinder/dx/DxTextureFont.cpp">
<polygon fill="white" stroke="black" points="3330.31,-147 3330.31,-167 3489.69,-167 3489.69,-147 3330.31,-147"/>
<text text-anchor="middle" x="3410" y="-153" font-family="Helvetica,sans-Serif" font-size="10.00">src/cinder/dx/DxTextureFont.cpp</text>
</a>
</g>
</g>
<!-- Node1&#45;&gt;Node33 -->
<g id="edge37" class="edge"><title>Node1&#45;&gt;Node33</title>
<path fill="none" stroke="midnightblue" d="M3038.96,-211.607C3110.83,-203.088 3223.68,-189.044 3321,-174 3334.34,-171.937 3348.76,-169.455 3362.04,-167.068"/>
<polygon fill="midnightblue" stroke="midnightblue" points="3038.18,-208.174 3028.66,-212.823 3039,-215.126 3038.18,-208.174"/>
</g>
<!-- Node34 -->
<g id="node34" class="node"><title>Node34</title>
<g id="a_node34"><a xlink:href="_texture_8cpp.html" target="_top" xlink:title="src/cinder/gl/Texture.cpp">
<polygon fill="white" stroke="black" points="3507.81,-147 3507.81,-167 3632.19,-167 3632.19,-147 3507.81,-147"/>
<text text-anchor="middle" x="3570" y="-153" font-family="Helvetica,sans-Serif" font-size="10.00">src/cinder/gl/Texture.cpp</text>
</a>
</g>
</g>
<!-- Node1&#45;&gt;Node34 -->
<g id="edge38" class="edge"><title>Node1&#45;&gt;Node34</title>
<path fill="none" stroke="midnightblue" d="M3038.83,-216.761C3141.65,-211.495 3335,-199.046 3498,-174 3509.64,-172.211 3522.22,-169.641 3533.55,-167.083"/>
<polygon fill="midnightblue" stroke="midnightblue" points="3038.38,-213.279 3028.57,-217.278 3038.73,-220.271 3038.38,-213.279"/>
</g>
<!-- Node35 -->
<g id="node35" class="node"><title>Node35</title>
<g id="a_node35"><a xlink:href="_texture_font_8cpp.html" target="_top" xlink:title="src/cinder/gl/TextureFont.cpp">
<polygon fill="white" stroke="black" points="3649.81,-147 3649.81,-167 3794.19,-167 3794.19,-147 3649.81,-147"/>
<text text-anchor="middle" x="3722" y="-153" font-family="Helvetica,sans-Serif" font-size="10.00">src/cinder/gl/TextureFont.cpp</text>
</a>
</g>
</g>
<!-- Node1&#45;&gt;Node35 -->
<g id="edge39" class="edge"><title>Node1&#45;&gt;Node35</title>
<path fill="none" stroke="midnightblue" d="M3038.75,-218.07C3162.79,-214.102 3422.97,-202.844 3641,-174 3654.22,-172.252 3668.52,-169.662 3681.38,-167.073"/>
<polygon fill="midnightblue" stroke="midnightblue" points="3038.5,-214.576 3028.61,-218.387 3038.72,-221.572 3038.5,-214.576"/>
</g>
<!-- Node36 -->
<g id="node36" class="node"><title>Node36</title>
<g id="a_node36"><a xlink:href="_image_io_8cpp.html" target="_top" xlink:title="src/cinder/ImageIo.cpp">
<polygon fill="white" stroke="black" points="3812.42,-147 3812.42,-167 3929.58,-167 3929.58,-147 3812.42,-147"/>
<text text-anchor="middle" x="3871" y="-153" font-family="Helvetica,sans-Serif" font-size="10.00">src/cinder/ImageIo.cpp</text>
</a>
</g>
</g>
<!-- Node1&#45;&gt;Node36 -->
<g id="edge40" class="edge"><title>Node1&#45;&gt;Node36</title>
<path fill="none" stroke="midnightblue" d="M3038.74,-220.296C3184.53,-219.946 3522.54,-214.381 3803,-174 3814.4,-172.358 3826.71,-169.731 3837.67,-167.077"/>
<polygon fill="midnightblue" stroke="midnightblue" points="3038.58,-216.797 3028.58,-220.313 3038.59,-223.797 3038.58,-216.797"/>
</g>
<!-- Node37 -->
<g id="node37" class="node"><title>Node37</title>
<g id="a_node37"><a xlink:href="_surface_8cpp.html" target="_top" xlink:title="src/cinder/Surface.cpp">
<polygon fill="white" stroke="black" points="3947.26,-147 3947.26,-167 4062.74,-167 4062.74,-147 3947.26,-147"/>
<text text-anchor="middle" x="4005" y="-153" font-family="Helvetica,sans-Serif" font-size="10.00">src/cinder/Surface.cpp</text>
</a>
</g>
</g>
<!-- Node1&#45;&gt;Node37 -->
<g id="edge41" class="edge"><title>Node1&#45;&gt;Node37</title>
<path fill="none" stroke="midnightblue" d="M3038.65,-218.325C3233.47,-213.55 3764.43,-198.611 3938,-174 3949.37,-172.388 3961.63,-169.735 3972.52,-167.049"/>
<polygon fill="midnightblue" stroke="midnightblue" points="3038.44,-214.829 3028.52,-218.571 3038.61,-221.827 3038.44,-214.829"/>
</g>
<!-- Node38 -->
<g id="node38" class="node"><title>Node38</title>
<g id="a_node38"><a xlink:href="_svg_8cpp.html" target="_top" xlink:title="src/cinder/svg/Svg.cpp">
<polygon fill="white" stroke="black" points="4080.7,-147 4080.7,-167 4197.3,-167 4197.3,-147 4080.7,-147"/>
<text text-anchor="middle" x="4139" y="-153" font-family="Helvetica,sans-Serif" font-size="10.00">src/cinder/svg/Svg.cpp</text>
</a>
</g>
</g>
<!-- Node1&#45;&gt;Node38 -->
<g id="edge42" class="edge"><title>Node1&#45;&gt;Node38</title>
<path fill="none" stroke="midnightblue" d="M3038.81,-218.77C3251.69,-214.888 3870.62,-201.492 4071,-174 4082.53,-172.417 4094.98,-169.772 4106.03,-167.083"/>
<polygon fill="midnightblue" stroke="midnightblue" points="3038.61,-215.273 3028.68,-218.953 3038.74,-222.272 3038.61,-215.273"/>
</g>
<!-- Node3 -->
<g id="node3" class="node"><title>Node3</title>
<g id="a_node3"><a xlink:href="_clipboard_8cpp.html" target="_top" xlink:title="src/cinder/Clipboard.cpp">
<polygon fill="white" stroke="black" points="-0.913574,-77 -0.913574,-97 122.914,-97 122.914,-77 -0.913574,-77"/>
<text text-anchor="middle" x="61" y="-83" font-family="Helvetica,sans-Serif" font-size="10.00">src/cinder/Clipboard.cpp</text>
</a>
</g>
</g>
<!-- Node2&#45;&gt;Node3 -->
<g id="edge2" class="edge"><title>Node2&#45;&gt;Node3</title>
<path fill="none" stroke="midnightblue" d="M361.819,-145.303C301.719,-135.368 210.708,-119.773 132,-104 121.469,-101.89 110.104,-99.4168 99.6198,-97.0548"/>
<polygon fill="midnightblue" stroke="midnightblue" points="361.495,-148.797 371.931,-146.969 362.633,-141.89 361.495,-148.797"/>
</g>
<!-- Node4&#45;&gt;Node5 -->
<g id="edge4" class="edge"><title>Node4&#45;&gt;Node5</title>
<path fill="none" stroke="midnightblue" d="M1374.03,-154.406C1164.84,-148.988 502.373,-130.157 290,-104 287.083,-103.641 284.114,-103.233 281.119,-102.787"/>
<polygon fill="midnightblue" stroke="midnightblue" points="1374.14,-157.91 1384.23,-154.669 1374.32,-150.912 1374.14,-157.91"/>
</g>
<!-- Node4&#45;&gt;Node7 -->
<g id="edge6" class="edge"><title>Node4&#45;&gt;Node7</title>
<path fill="none" stroke="midnightblue" d="M1501.77,-153.932C1627.05,-149.304 1913.91,-135.902 2153,-104 2157.46,-103.405 2162.04,-102.72 2166.64,-101.975"/>
<polygon fill="midnightblue" stroke="midnightblue" points="1501.46,-150.441 1491.59,-154.302 1501.71,-157.437 1501.46,-150.441"/>
</g>
<!-- Node9 -->
<g id="node9" class="node"><title>Node9</title>
<g id="a_node9"><a xlink:href="_app_impl_cocoa_basic_8mm.html" target="_top" xlink:title="src/cinder/app/AppImplCocoa\lBasic.mm">
<polygon fill="white" stroke="black" points="299.412,-71 299.412,-103 446.588,-103 446.588,-71 299.412,-71"/>
<text text-anchor="start" x="307.412" y="-89" font-family="Helvetica,sans-Serif" font-size="10.00">src/cinder/app/AppImplCocoa</text>
<text text-anchor="middle" x="373" y="-77" font-family="Helvetica,sans-Serif" font-size="10.00">Basic.mm</text>
</a>
</g>
</g>
<!-- Node4&#45;&gt;Node9 -->
<g id="edge8" class="edge"><title>Node4&#45;&gt;Node9</title>
<path fill="none" stroke="midnightblue" d="M1373.8,-155.704C1216.52,-154.306 799.661,-146.53 455,-104 452.265,-103.662 449.484,-103.287 446.679,-102.881"/>
<polygon fill="midnightblue" stroke="midnightblue" points="1374.2,-159.207 1384.22,-155.791 1374.25,-152.207 1374.2,-159.207"/>
</g>
<!-- Node10 -->
<g id="node10" class="node"><title>Node10</title>
<g id="a_node10"><a xlink:href="_app_impl_cocoa_touch_renderer_quartz_8mm.html" target="_top" xlink:title="src/cinder/app/AppImplCocoa\lTouchRendererQuartz.mm">
<polygon fill="white" stroke="black" points="464.412,-71 464.412,-103 611.588,-103 611.588,-71 464.412,-71"/>
<text text-anchor="start" x="472.412" y="-89" font-family="Helvetica,sans-Serif" font-size="10.00">src/cinder/app/AppImplCocoa</text>
<text text-anchor="middle" x="538" y="-77" font-family="Helvetica,sans-Serif" font-size="10.00">TouchRendererQuartz.mm</text>
</a>
</g>
</g>
<!-- Node4&#45;&gt;Node10 -->
<g id="edge9" class="edge"><title>Node4&#45;&gt;Node10</title>
<path fill="none" stroke="midnightblue" d="M1373.77,-154.737C1235.43,-151.398 899.229,-139.964 620,-104 617.267,-103.648 614.487,-103.26 611.684,-102.844"/>
<polygon fill="midnightblue" stroke="midnightblue" points="1374.09,-158.245 1384.17,-154.981 1374.26,-151.247 1374.09,-158.245"/>
</g>
<!-- Node11 -->
<g id="node11" class="node"><title>Node11</title>
<g id="a_node11"><a xlink:href="_cinder_view_8mm.html" target="_top" xlink:title="src/cinder/app/CinderView.mm">
<polygon fill="white" stroke="black" points="629.283,-77 629.283,-97 780.717,-97 780.717,-77 629.283,-77"/>
<text text-anchor="middle" x="705" y="-83" font-family="Helvetica,sans-Serif" font-size="10.00">src/cinder/app/CinderView.mm</text>
</a>
</g>
</g>
<!-- Node4&#45;&gt;Node11 -->
<g id="edge10" class="edge"><title>Node4&#45;&gt;Node11</title>
<path fill="none" stroke="midnightblue" d="M1373.85,-153.11C1257.23,-147.354 1002.83,-132.489 790,-104 776.307,-102.167 761.478,-99.5852 748.098,-97.0294"/>
<polygon fill="midnightblue" stroke="midnightblue" points="1373.87,-156.615 1384.03,-153.606 1374.21,-149.623 1373.87,-156.615"/>
</g>
<!-- Node12 -->
<g id="node12" class="node"><title>Node12</title>
<g id="a_node12"><a xlink:href="_cinder_view_cocoa_touch_8mm.html" target="_top" xlink:title="src/cinder/app/CinderView\lCocoaTouch.mm">
<polygon fill="white" stroke="black" points="798.729,-71 798.729,-103 931.271,-103 931.271,-71 798.729,-71"/>
<text text-anchor="start" x="806.729" y="-89" font-family="Helvetica,sans-Serif" font-size="10.00">src/cinder/app/CinderView</text>
<text text-anchor="middle" x="865" y="-77" font-family="Helvetica,sans-Serif" font-size="10.00">CocoaTouch.mm</text>
</a>
</g>
</g>
<!-- Node4&#45;&gt;Node12 -->
<g id="edge11" class="edge"><title>Node4&#45;&gt;Node12</title>
<path fill="none" stroke="midnightblue" d="M1374.3,-151.525C1279.32,-144.361 1095.12,-128.573 940,-104 937.239,-103.563 934.425,-103.089 931.588,-102.589"/>
<polygon fill="midnightblue" stroke="midnightblue" points="1374.09,-155.019 1384.33,-152.274 1374.61,-148.038 1374.09,-155.019"/>
</g>
<!-- Node13 -->
<g id="node13" class="node"><title>Node13</title>
<g id="a_node13"><a xlink:href="_device_manager_audio_session_8mm.html" target="_top" xlink:title="src/cinder/audio/cocoa\l/DeviceManagerAudioSession.mm">
<polygon fill="white" stroke="black" points="949.298,-71 949.298,-103 1118.7,-103 1118.7,-71 949.298,-71"/>
<text text-anchor="start" x="957.298" y="-89" font-family="Helvetica,sans-Serif" font-size="10.00">src/cinder/audio/cocoa</text>
<text text-anchor="middle" x="1034" y="-77" font-family="Helvetica,sans-Serif" font-size="10.00">/DeviceManagerAudioSession.mm</text>
</a>
</g>
</g>
<!-- Node4&#45;&gt;Node13 -->
<g id="edge12" class="edge"><title>Node4&#45;&gt;Node13</title>
<path fill="none" stroke="midnightblue" d="M1374.1,-145.328C1311.42,-134.847 1213.12,-118.384 1128,-104 1124.98,-103.49 1121.91,-102.97 1118.8,-102.444"/>
<polygon fill="midnightblue" stroke="midnightblue" points="1373.79,-148.824 1384.23,-147.021 1374.94,-141.92 1373.79,-148.824"/>
</g>
<!-- Node14 -->
<g id="node14" class="node"><title>Node14</title>
<g id="a_node14"><a xlink:href="_device_manager_core_audio_8cpp.html" target="_top" xlink:title="src/cinder/audio/cocoa\l/DeviceManagerCoreAudio.cpp">
<polygon fill="white" stroke="black" points="1136.52,-71 1136.52,-103 1291.48,-103 1291.48,-71 1136.52,-71"/>
<text text-anchor="start" x="1144.52" y="-89" font-family="Helvetica,sans-Serif" font-size="10.00">src/cinder/audio/cocoa</text>
<text text-anchor="middle" x="1214" y="-77" font-family="Helvetica,sans-Serif" font-size="10.00">/DeviceManagerCoreAudio.cpp</text>
</a>
</g>
</g>
<!-- Node4&#45;&gt;Node14 -->
<g id="edge13" class="edge"><title>Node4&#45;&gt;Node14</title>
<path fill="none" stroke="midnightblue" d="M1378.72,-138.003C1342.86,-127.119 1297.67,-113.4 1263.7,-103.086"/>
<polygon fill="midnightblue" stroke="midnightblue" points="1377.98,-141.437 1388.56,-140.993 1380.01,-134.739 1377.98,-141.437"/>
</g>
<!-- Node15 -->
<g id="node15" class="node"><title>Node15</title>
<g id="a_node15"><a xlink:href="_file_core_audio_8cpp.html" target="_top" xlink:title="src/cinder/audio/cocoa\l/FileCoreAudio.cpp">
<polygon fill="white" stroke="black" points="1309.97,-71 1309.97,-103 1426.03,-103 1426.03,-71 1309.97,-71"/>
<text text-anchor="start" x="1317.97" y="-89" font-family="Helvetica,sans-Serif" font-size="10.00">src/cinder/audio/cocoa</text>
<text text-anchor="middle" x="1368" y="-77" font-family="Helvetica,sans-Serif" font-size="10.00">/FileCoreAudio.cpp</text>
</a>
</g>
</g>
<!-- Node4&#45;&gt;Node15 -->
<g id="edge14" class="edge"><title>Node4&#45;&gt;Node15</title>
<path fill="none" stroke="midnightblue" d="M1415.25,-133.901C1404.86,-123.806 1392.82,-112.109 1383.49,-103.049"/>
<polygon fill="midnightblue" stroke="midnightblue" points="1412.85,-136.451 1422.46,-140.909 1417.73,-131.43 1412.85,-136.451"/>
</g>
<!-- Node16 -->
<g id="node16" class="node"><title>Node16</title>
<g id="a_node16"><a xlink:href="_capture_impl_av_foundation_8mm.html" target="_top" xlink:title="src/cinder/CaptureImplAv\lFoundation.mm">
<polygon fill="white" stroke="black" points="1443.96,-71 1443.96,-103 1572.04,-103 1572.04,-71 1443.96,-71"/>
<text text-anchor="start" x="1451.96" y="-89" font-family="Helvetica,sans-Serif" font-size="10.00">src/cinder/CaptureImplAv</text>
<text text-anchor="middle" x="1508" y="-77" font-family="Helvetica,sans-Serif" font-size="10.00">Foundation.mm</text>
</a>
</g>
</g>
<!-- Node4&#45;&gt;Node16 -->
<g id="edge15" class="edge"><title>Node4&#45;&gt;Node16</title>
<path fill="none" stroke="midnightblue" d="M1460.75,-133.901C1471.14,-123.806 1483.18,-112.109 1492.51,-103.049"/>
<polygon fill="midnightblue" stroke="midnightblue" points="1458.27,-131.43 1453.54,-140.909 1463.15,-136.451 1458.27,-131.43"/>
</g>
<!-- Node17 -->
<g id="node17" class="node"><title>Node17</title>
<g id="a_node17"><a xlink:href="_capture_impl_qt_kit_8mm.html" target="_top" xlink:title="src/cinder/CaptureImplQt\lKit.mm">
<polygon fill="white" stroke="black" points="1590.43,-71 1590.43,-103 1717.57,-103 1717.57,-71 1590.43,-71"/>
<text text-anchor="start" x="1598.43" y="-89" font-family="Helvetica,sans-Serif" font-size="10.00">src/cinder/CaptureImplQt</text>
<text text-anchor="middle" x="1654" y="-77" font-family="Helvetica,sans-Serif" font-size="10.00">Kit.mm</text>
</a>
</g>
</g>
<!-- Node4&#45;&gt;Node17 -->
<g id="edge16" class="edge"><title>Node4&#45;&gt;Node17</title>
<path fill="none" stroke="midnightblue" d="M1495.61,-137.864C1530.11,-127.002 1573.46,-113.356 1606.08,-103.086"/>
<polygon fill="midnightblue" stroke="midnightblue" points="1494.16,-134.652 1485.67,-140.993 1496.26,-141.328 1494.16,-134.652"/>
</g>
<!-- Node18 -->
<g id="node18" class="node"><title>Node18</title>
<g id="a_node18"><a xlink:href="_cinder_cocoa_8mm.html" target="_top" xlink:title="src/cinder/cocoa/CinderCocoa.mm">
<polygon fill="white" stroke="black" points="1735.31,-77 1735.31,-97 1904.69,-97 1904.69,-77 1735.31,-77"/>
<text text-anchor="middle" x="1820" y="-83" font-family="Helvetica,sans-Serif" font-size="10.00">src/cinder/cocoa/CinderCocoa.mm</text>
</a>
</g>
</g>
<!-- Node4&#45;&gt;Node18 -->
<g id="edge17" class="edge"><title>Node4&#45;&gt;Node18</title>
<path fill="none" stroke="midnightblue" d="M1502.21,-144.57C1577.46,-131.175 1700.58,-109.258 1769.4,-97.0077"/>
<polygon fill="midnightblue" stroke="midnightblue" points="1501.15,-141.203 1491.92,-146.401 1502.38,-148.095 1501.15,-141.203"/>
</g>
<!-- Node19 -->
<g id="node19" class="node"><title>Node19</title>
<g id="a_node19"><a xlink:href="_cinder_cocoa_touch_8mm.html" target="_top" xlink:title="src/cinder/cocoa/CinderCocoa\lTouch.mm">
<polygon fill="white" stroke="black" points="1923.02,-71 1923.02,-103 2072.98,-103 2072.98,-71 1923.02,-71"/>
<text text-anchor="start" x="1931.02" y="-89" font-family="Helvetica,sans-Serif" font-size="10.00">src/cinder/cocoa/CinderCocoa</text>
<text text-anchor="middle" x="1998" y="-77" font-family="Helvetica,sans-Serif" font-size="10.00">Touch.mm</text>
</a>
</g>
</g>
<!-- Node4&#45;&gt;Node19 -->
<g id="edge18" class="edge"><title>Node4&#45;&gt;Node19</title>
<path fill="none" stroke="midnightblue" d="M1501.79,-150.59C1593.16,-142.484 1766.43,-125.784 1913,-104 1916.27,-103.514 1919.6,-102.994 1922.97,-102.448"/>
<polygon fill="midnightblue" stroke="midnightblue" points="1501.25,-147.123 1491.6,-151.488 1501.87,-154.096 1501.25,-147.123"/>
</g>
<!-- Node6 -->
<g id="node6" class="node"><title>Node6</title>
<g id="a_node6"><a xlink:href="_image_source_file_quartz_8cpp.html" target="_top" xlink:title="src/cinder/ImageSourceFile\lQuartz.cpp">
<polygon fill="white" stroke="black" points="1077.14,-1 1077.14,-33 1214.86,-33 1214.86,-1 1077.14,-1"/>
<text text-anchor="start" x="1085.14" y="-19" font-family="Helvetica,sans-Serif" font-size="10.00">src/cinder/ImageSourceFile</text>
<text text-anchor="middle" x="1146" y="-7" font-family="Helvetica,sans-Serif" font-size="10.00">Quartz.cpp</text>
</a>
</g>
</g>
<!-- Node4&#45;&gt;Node6 -->
<g id="edge19" class="edge"><title>Node4&#45;&gt;Node6</title>
<path fill="none" stroke="midnightblue" d="M1502.16,-155.631C1657.19,-154.072 2042.28,-145.972 2081,-104 2091.25,-92.8925 2091.38,-80.9778 2081,-70 2051.31,-38.6091 1425.94,-23.4909 1214.87,-19.2691"/>
<polygon fill="midnightblue" stroke="midnightblue" points="1501.81,-152.134 1491.84,-155.728 1501.88,-159.133 1501.81,-152.134"/>
</g>
<!-- Node8 -->
<g id="node8" class="node"><title>Node8</title>
<g id="a_node8"><a xlink:href="_image_target_file_quartz_8cpp.html" target="_top" xlink:title="src/cinder/ImageTargetFile\lQuartz.cpp">
<polygon fill="white" stroke="black" points="2120.09,-1 2120.09,-33 2253.91,-33 2253.91,-1 2120.09,-1"/>
<text text-anchor="start" x="2128.09" y="-19" font-family="Helvetica,sans-Serif" font-size="10.00">src/cinder/ImageTargetFile</text>
<text text-anchor="middle" x="2187" y="-7" font-family="Helvetica,sans-Serif" font-size="10.00">Quartz.cpp</text>
</a>
</g>
</g>
<!-- Node4&#45;&gt;Node8 -->
<g id="edge20" class="edge"><title>Node4&#45;&gt;Node8</title>
<path fill="none" stroke="midnightblue" d="M1501.73,-156.453C1646.08,-156.61 1993.64,-151.839 2099,-104 2133.43,-88.3684 2162.32,-53.2407 2176.87,-33.0489"/>
<polygon fill="midnightblue" stroke="midnightblue" points="1501.7,-152.953 1491.69,-156.434 1501.68,-159.953 1501.7,-152.953"/>
</g>
<!-- Node5&#45;&gt;Node6 -->
<g id="edge5" class="edge"><title>Node5&#45;&gt;Node6</title>
<path fill="none" stroke="midnightblue" d="M291.242,-69.9549C588.658,-31.6754 932.593,-21.6169 1076.9,-18.9426"/>
<polygon fill="midnightblue" stroke="midnightblue" points="290.592,-66.51 281.126,-71.2702 291.494,-73.4516 290.592,-66.51"/>
</g>
<!-- Node7&#45;&gt;Node8 -->
<g id="edge7" class="edge"><title>Node7&#45;&gt;Node8</title>
<path fill="none" stroke="midnightblue" d="M2218.57,-62.7183C2211.64,-52.9016 2203.77,-41.757 2197.62,-33.0492"/>
<polygon fill="midnightblue" stroke="midnightblue" points="2215.72,-64.7573 2224.35,-70.9086 2221.44,-60.7205 2215.72,-64.7573"/>
</g>
<!-- Node21 -->
<g id="node21" class="node"><title>Node21</title>
<g id="a_node21"><a xlink:href="_image_source_file_wic_8cpp.html" target="_top" xlink:title="src/cinder/ImageSourceFile\lWic.cpp">
<polygon fill="white" stroke="black" points="2321.14,-71 2321.14,-103 2458.86,-103 2458.86,-71 2321.14,-71"/>
<text text-anchor="start" x="2329.14" y="-89" font-family="Helvetica,sans-Serif" font-size="10.00">src/cinder/ImageSourceFile</text>
<text text-anchor="middle" x="2390" y="-77" font-family="Helvetica,sans-Serif" font-size="10.00">Wic.cpp</text>
</a>
</g>
</g>
<!-- Node20&#45;&gt;Node21 -->
<g id="edge23" class="edge"><title>Node20&#45;&gt;Node21</title>
<path fill="none" stroke="midnightblue" d="M2390,-130.617C2390,-121.338 2390,-111.141 2390,-103.049"/>
<polygon fill="midnightblue" stroke="midnightblue" points="2386.5,-130.909 2390,-140.909 2393.5,-130.909 2386.5,-130.909"/>
</g>
<!-- Node23 -->
<g id="node23" class="node"><title>Node23</title>
<g id="a_node23"><a xlink:href="_image_source_png_8cpp.html" target="_top" xlink:title="src/cinder/ImageSourcePng.cpp">
<polygon fill="white" stroke="black" points="2476.85,-77 2476.85,-97 2635.15,-97 2635.15,-77 2476.85,-77"/>
<text text-anchor="middle" x="2556" y="-83" font-family="Helvetica,sans-Serif" font-size="10.00">src/cinder/ImageSourcePng.cpp</text>
</a>
</g>
</g>
<!-- Node22&#45;&gt;Node23 -->
<g id="edge25" class="edge"><title>Node22&#45;&gt;Node23</title>
<path fill="none" stroke="midnightblue" d="M2550.98,-130.668C2552.37,-118.865 2553.93,-105.57 2554.94,-97.0035"/>
<polygon fill="midnightblue" stroke="midnightblue" points="2547.47,-130.568 2549.78,-140.909 2554.42,-131.386 2547.47,-130.568"/>
</g>
<!-- Node25 -->
<g id="node25" class="node"><title>Node25</title>
<g id="a_node25"><a xlink:href="_image_target_file_wic_8cpp.html" target="_top" xlink:title="src/cinder/ImageTargetFile\lWic.cpp">
<polygon fill="white" stroke="black" points="2653.09,-71 2653.09,-103 2786.91,-103 2786.91,-71 2653.09,-71"/>
<text text-anchor="start" x="2661.09" y="-89" font-family="Helvetica,sans-Serif" font-size="10.00">src/cinder/ImageTargetFile</text>
<text text-anchor="middle" x="2720" y="-77" font-family="Helvetica,sans-Serif" font-size="10.00">Wic.cpp</text>
</a>
</g>
</g>
<!-- Node24&#45;&gt;Node25 -->
<g id="edge28" class="edge"><title>Node24&#45;&gt;Node25</title>
<path fill="none" stroke="midnightblue" d="M2709.9,-130.92C2712.1,-121.56 2714.53,-111.229 2716.46,-103.049"/>
<polygon fill="midnightblue" stroke="midnightblue" points="2706.43,-130.373 2707.55,-140.909 2713.25,-131.976 2706.43,-130.373"/>
</g>
<!-- Node27 -->
<g id="node27" class="node"><title>Node27</title>
<g id="a_node27"><a xlink:href="_movie_writer_8cpp.html" target="_top" xlink:title="src/cinder/qtime/MovieWriter.cpp">
<polygon fill="white" stroke="black" points="2804.57,-77 2804.57,-97 2965.43,-97 2965.43,-77 2804.57,-77"/>
<text text-anchor="middle" x="2885" y="-83" font-family="Helvetica,sans-Serif" font-size="10.00">src/cinder/qtime/MovieWriter.cpp</text>
</a>
</g>
</g>
<!-- Node26&#45;&gt;Node27 -->
<g id="edge30" class="edge"><title>Node26&#45;&gt;Node27</title>
<path fill="none" stroke="midnightblue" d="M2857.76,-132.105C2865.26,-119.958 2873.93,-105.919 2879.44,-97.0035"/>
<polygon fill="midnightblue" stroke="midnightblue" points="2854.6,-130.561 2852.32,-140.909 2860.55,-134.24 2854.6,-130.561"/>
</g>
<!-- Node28&#45;&gt;Node27 -->
<g id="edge32" class="edge"><title>Node28&#45;&gt;Node27</title>
<path fill="none" stroke="midnightblue" d="M2940.07,-134.228C2925.06,-121.628 2906.97,-106.444 2895.72,-97.0035"/>
<polygon fill="midnightblue" stroke="midnightblue" points="2938.11,-137.159 2948.02,-140.909 2942.61,-131.798 2938.11,-137.159"/>
</g>
<!-- Node29 -->
<g id="node29" class="node"><title>Node29</title>
<g id="a_node29"><a xlink:href="_quick_time_8cpp.html" target="_top" xlink:title="src/cinder/qtime/QuickTime.cpp">
<polygon fill="white" stroke="black" points="2983.16,-77 2983.16,-97 3138.84,-97 3138.84,-77 2983.16,-77"/>
<text text-anchor="middle" x="3061" y="-83" font-family="Helvetica,sans-Serif" font-size="10.00">src/cinder/qtime/QuickTime.cpp</text>
</a>
</g>
</g>
<!-- Node28&#45;&gt;Node29 -->
<g id="edge33" class="edge"><title>Node28&#45;&gt;Node29</title>
<path fill="none" stroke="midnightblue" d="M2995.44,-134.925C3013.23,-122.192 3034.99,-106.618 3048.42,-97.0035"/>
<polygon fill="midnightblue" stroke="midnightblue" points="2993.18,-132.242 2987.08,-140.909 2997.25,-137.934 2993.18,-132.242"/>
</g>
<!-- Node30 -->
<g id="node30" class="node"><title>Node30</title>
<g id="a_node30"><a xlink:href="_quick_time_utils_8cpp.html" target="_top" xlink:title="src/cinder/qtime/QuickTime\lUtils.cpp">
<polygon fill="white" stroke="black" points="3156.61,-71 3156.61,-103 3293.39,-103 3293.39,-71 3156.61,-71"/>
<text text-anchor="start" x="3164.61" y="-89" font-family="Helvetica,sans-Serif" font-size="10.00">src/cinder/qtime/QuickTime</text>
<text text-anchor="middle" x="3225" y="-77" font-family="Helvetica,sans-Serif" font-size="10.00">Utils.cpp</text>
</a>
</g>
</g>
<!-- Node28&#45;&gt;Node30 -->
<g id="edge34" class="edge"><title>Node28&#45;&gt;Node30</title>
<path fill="none" stroke="midnightblue" d="M3028.66,-139.55C3071.07,-128.415 3126.65,-113.821 3167.85,-103.004"/>
<polygon fill="midnightblue" stroke="midnightblue" points="3027.51,-136.232 3018.72,-142.157 3029.29,-143.003 3027.51,-136.232"/>
</g>
</g>
</svg>
        <g id="navigator" transform="translate(0 0)" fill="#404254">
                <rect fill="#f2f5e9" fill-opacity="0.5" stroke="#606060" stroke-width=".5" x="0" y="0" width="60" height="60"/>
                <use id="zoomplus" xlink:href="#zoomPlus" x="17" y="9" onmousedown="handleZoom(evt,'in')"/>
                <use id="zoomminus" xlink:href="#zoomMin" x="42" y="9" onmousedown="handleZoom(evt,'out')"/>
                <use id="reset" xlink:href="#resetDef" x="30" y="36" onmousedown="handleReset()"/>
                <g id="arrowUp" xlink:href="#dirArrow" transform="translate(30 24)" onmousedown="handlePan(0,-1)">
                  <use xlink:href="#rim" fill="#404040">
                        <set attributeName="fill" to="#808080" begin="arrowUp.mouseover" end="arrowUp.mouseout"/>
                  </use>
                  <path fill="none" stroke="white" stroke-width="1.5" d="M0,-3.0v7 M-2.5,-0.5L0,-3.0L2.5,-0.5"/>
                </g>
                <g id="arrowRight" xlink:href="#dirArrow" transform="rotate(90) translate(36 -43)" onmousedown="handlePan(1,0)">
                  <use xlink:href="#rim" fill="#404040">
                        <set attributeName="fill" to="#808080" begin="arrowRight.mouseover" end="arrowRight.mouseout"/>
                  </use>
                  <path fill="none" stroke="white" stroke-width="1.5" d="M0,-3.0v7 M-2.5,-0.5L0,-3.0L2.5,-0.5"/>
                </g>
                <g id="arrowDown" xlink:href="#dirArrow" transform="rotate(180) translate(-30 -48)" onmousedown="handlePan(0,1)">
                  <use xlink:href="#rim" fill="#404040">
                        <set attributeName="fill" to="#808080" begin="arrowDown.mouseover" end="arrowDown.mouseout"/>
                  </use>
                  <path fill="none" stroke="white" stroke-width="1.5" d="M0,-3.0v7 M-2.5,-0.5L0,-3.0L2.5,-0.5"/>
                </g>
                <g id="arrowLeft" xlink:href="#dirArrow" transform="rotate(270) translate(-36 17)" onmousedown="handlePan(-1,0)">
                  <use xlink:href="#rim" fill="#404040">
                        <set attributeName="fill" to="#808080" begin="arrowLeft.mouseover" end="arrowLeft.mouseout"/>
                  </use>
                  <path fill="none" stroke="white" stroke-width="1.5" d="M0,-3.0v7 M-2.5,-0.5L0,-3.0L2.5,-0.5"/>
                </g>
        </g>
        <svg viewBox="0 0 15 15" width="100%" height="30px" preserveAspectRatio="xMaxYMin meet">
         <g id="arrow_out" transform="scale(0.3 0.3)">
          <a xlink:href="_image_io_8h__dep__incl_org.svg" target="_base">
           <rect id="button" ry="5" rx="5" y="6" x="6" height="38" width="38"
                fill="#f2f5e9" fill-opacity="0.5" stroke="#606060" stroke-width="1.0"/>
           <path id="arrow"
             d="M 11.500037,31.436501 C 11.940474,20.09759 22.043105,11.32322 32.158766,21.979434 L 37.068811,17.246167 C 37.068811,17.246167 37.088388,32 37.088388,32 L 22.160133,31.978069 C 22.160133,31.978069 26.997745,27.140456 26.997745,27.140456 C 18.528582,18.264221 13.291696,25.230495 11.500037,31.436501 z"
             style="fill:#404040;"/>
          </a>
         </g>
        </svg>
</svg>
