<?xml version="1.0" encoding="UTF-8" standalone="no"?>
<!DOCTYPE svg PUBLIC "-//W3C//DTD SVG 1.1//EN"
 "http://www.w3.org/Graphics/SVG/1.1/DTD/svg11.dtd">
<!-- Generated by graphviz version 2.30.1 (20140712.1814)
 -->
<!-- Title: src/cinder/ImageSourceFileWic.cpp Pages: 1 -->
<svg width="2126pt" height="564pt"
 viewBox="0.00 0.00 2126.00 564.00" xmlns="http://www.w3.org/2000/svg" xmlns:xlink="http://www.w3.org/1999/xlink">
<g id="graph0" class="graph" transform="scale(1 1) rotate(0) translate(4 560)">
<title>src/cinder/ImageSourceFileWic.cpp</title>
<polygon fill="white" stroke="white" points="-4,5 -4,-560 2123,-560 2123,5 -4,5"/>
<!-- Node1 -->
<g id="node1" class="node"><title>Node1</title>
<polygon fill="#bfbfbf" stroke="black" points="1787.14,-523 1787.14,-555 1924.86,-555 1924.86,-523 1787.14,-523"/>
<text text-anchor="start" x="1795.14" y="-541" font-family="Helvetica,sans-Serif" font-size="10.00">src/cinder/ImageSourceFile</text>
<text text-anchor="middle" x="1856" y="-529" font-family="Helvetica,sans-Serif" font-size="10.00">Wic.cpp</text>
</g>
<!-- Node2 -->
<g id="node2" class="node"><title>Node2</title>
<g id="a_node2"><a xlink:href="_image_source_file_wic_8h.html" target="_top" xlink:title="cinder/ImageSourceFileWic.h">
<polygon fill="white" stroke="black" points="1196.7,-465 1196.7,-485 1343.3,-485 1343.3,-465 1196.7,-465"/>
<text text-anchor="middle" x="1270" y="-471" font-family="Helvetica,sans-Serif" font-size="10.00">cinder/ImageSourceFileWic.h</text>
</a>
</g>
</g>
<!-- Node1&#45;&gt;Node2 -->
<g id="edge1" class="edge"><title>Node1&#45;&gt;Node2</title>
<path fill="none" stroke="midnightblue" d="M1787.06,-530.705C1679.02,-519.275 1470.17,-497.178 1353.68,-484.854"/>
<polygon fill="midnightblue" stroke="midnightblue" points="1354.05,-481.373 1343.74,-483.802 1353.31,-488.334 1354.05,-481.373"/>
</g>
<!-- Node39 -->
<g id="node39" class="node"><title>Node39</title>
<g id="a_node39"><a xlink:href="_utilities_8h.html" target="_top" xlink:title="cinder/Utilities.h">
<polygon fill="white" stroke="black" points="1752.71,-349 1752.71,-369 1839.29,-369 1839.29,-349 1752.71,-349"/>
<text text-anchor="middle" x="1796" y="-355" font-family="Helvetica,sans-Serif" font-size="10.00">cinder/Utilities.h</text>
</a>
</g>
</g>
<!-- Node1&#45;&gt;Node39 -->
<g id="edge72" class="edge"><title>Node1&#45;&gt;Node39</title>
<path fill="none" stroke="midnightblue" d="M1786.99,-525.401C1765.04,-517.782 1743.09,-505.57 1730,-486 1704.99,-448.615 1748.98,-400.638 1776.45,-376.071"/>
<polygon fill="midnightblue" stroke="midnightblue" points="1779.08,-378.427 1784.35,-369.236 1774.5,-373.134 1779.08,-378.427"/>
</g>
<!-- Node41 -->
<g id="node41" class="node"><title>Node41</title>
<polygon fill="white" stroke="#bfbfbf" points="1739.43,-465 1739.43,-485 1866.57,-485 1866.57,-465 1739.43,-465"/>
<text text-anchor="middle" x="1803" y="-471" font-family="Helvetica,sans-Serif" font-size="10.00">cinder/msw/CinderMsw.h</text>
</g>
<!-- Node1&#45;&gt;Node41 -->
<g id="edge79" class="edge"><title>Node1&#45;&gt;Node41</title>
<path fill="none" stroke="midnightblue" d="M1843.17,-522.992C1835.48,-513.992 1825.67,-502.516 1817.67,-493.157"/>
<polygon fill="midnightblue" stroke="midnightblue" points="1820.1,-490.617 1810.94,-485.29 1814.78,-495.166 1820.1,-490.617"/>
</g>
<!-- Node42 -->
<g id="node42" class="node"><title>Node42</title>
<polygon fill="white" stroke="#bfbfbf" points="1885.05,-465 1885.05,-485 1934.95,-485 1934.95,-465 1885.05,-465"/>
<text text-anchor="middle" x="1910" y="-471" font-family="Helvetica,sans-Serif" font-size="10.00">D2D1.h</text>
</g>
<!-- Node1&#45;&gt;Node42 -->
<g id="edge80" class="edge"><title>Node1&#45;&gt;Node42</title>
<path fill="none" stroke="midnightblue" d="M1869.07,-522.992C1876.99,-513.9 1887.11,-502.281 1895.31,-492.872"/>
<polygon fill="midnightblue" stroke="midnightblue" points="1897.98,-495.13 1901.91,-485.29 1892.7,-490.533 1897.98,-495.13"/>
</g>
<!-- Node43 -->
<g id="node43" class="node"><title>Node43</title>
<polygon fill="white" stroke="#bfbfbf" points="1952.99,-465 1952.99,-485 2019.01,-485 2019.01,-465 1952.99,-465"/>
<text text-anchor="middle" x="1986" y="-471" font-family="Helvetica,sans-Serif" font-size="10.00">wincodec.h</text>
</g>
<!-- Node1&#45;&gt;Node43 -->
<g id="edge81" class="edge"><title>Node1&#45;&gt;Node43</title>
<path fill="none" stroke="midnightblue" d="M1887.47,-522.992C1908.88,-512.782 1936.97,-499.385 1957.67,-489.509"/>
<polygon fill="midnightblue" stroke="midnightblue" points="1959.38,-492.573 1966.9,-485.109 1956.37,-486.254 1959.38,-492.573"/>
</g>
<!-- Node44 -->
<g id="node44" class="node"><title>Node44</title>
<polygon fill="white" stroke="#bfbfbf" points="2037.2,-465 2037.2,-485 2118.8,-485 2118.8,-465 2037.2,-465"/>
<text text-anchor="middle" x="2078" y="-471" font-family="Helvetica,sans-Serif" font-size="10.00">wincodecsdk.h</text>
</g>
<!-- Node1&#45;&gt;Node44 -->
<g id="edge82" class="edge"><title>Node1&#45;&gt;Node44</title>
<path fill="none" stroke="midnightblue" d="M1909.74,-522.992C1948.56,-512.149 2000.26,-497.711 2036.06,-487.714"/>
<polygon fill="midnightblue" stroke="midnightblue" points="2037.02,-491.079 2045.71,-485.018 2035.14,-484.337 2037.02,-491.079"/>
</g>
<!-- Node3 -->
<g id="node3" class="node"><title>Node3</title>
<g id="a_node3"><a xlink:href="_cinder_8h.html" target="_top" xlink:title="cinder/Cinder.h">
<polygon fill="white" stroke="black" points="712.367,-59 712.367,-79 795.633,-79 795.633,-59 712.367,-59"/>
<text text-anchor="middle" x="754" y="-65" font-family="Helvetica,sans-Serif" font-size="10.00">cinder/Cinder.h</text>
</a>
</g>
</g>
<!-- Node2&#45;&gt;Node3 -->
<g id="edge2" class="edge"><title>Node2&#45;&gt;Node3</title>
<path fill="none" stroke="midnightblue" d="M1196.36,-474.312C945.682,-474.412 141,-466.444 141,-360 141,-360 141,-360 141,-242 141,-165.277 190.097,-149.746 259,-116 335.966,-78.3055 591.409,-71.4118 702.101,-70.2155"/>
<polygon fill="midnightblue" stroke="midnightblue" points="702.384,-73.713 712.35,-70.1167 702.317,-66.7134 702.384,-73.713"/>
</g>
<!-- Node7 -->
<g id="node7" class="node"><title>Node7</title>
<g id="a_node7"><a xlink:href="_image_io_8h.html" target="_top" xlink:title="cinder/ImageIO.h">
<polygon fill="white" stroke="black" points="906.648,-407 906.648,-427 999.352,-427 999.352,-407 906.648,-407"/>
<text text-anchor="middle" x="953" y="-413" font-family="Helvetica,sans-Serif" font-size="10.00">cinder/ImageIO.h</text>
</a>
</g>
</g>
<!-- Node2&#45;&gt;Node7 -->
<g id="edge6" class="edge"><title>Node2&#45;&gt;Node7</title>
<path fill="none" stroke="midnightblue" d="M1218.72,-464.94C1161.4,-454.816 1068.88,-438.47 1009.52,-427.984"/>
<polygon fill="midnightblue" stroke="midnightblue" points="1010.02,-424.519 999.563,-426.226 1008.8,-431.412 1010.02,-424.519"/>
</g>
<!-- Node12 -->
<g id="node12" class="node"><title>Node12</title>
<g id="a_node12"><a xlink:href="_exception_8h.html" target="_top" xlink:title="cinder/Exception.h">
<polygon fill="white" stroke="black" points="1707.86,-117 1707.86,-137 1806.14,-137 1806.14,-117 1707.86,-117"/>
<text text-anchor="middle" x="1757" y="-123" font-family="Helvetica,sans-Serif" font-size="10.00">cinder/Exception.h</text>
</a>
</g>
</g>
<!-- Node2&#45;&gt;Node12 -->
<g id="edge71" class="edge"><title>Node2&#45;&gt;Node12</title>
<path fill="none" stroke="midnightblue" d="M1330.56,-464.95C1422.83,-449.435 1588,-414.103 1588,-360 1588,-360 1588,-360 1588,-242 1588,-184.931 1655.05,-154.526 1704.68,-139.837"/>
<polygon fill="midnightblue" stroke="midnightblue" points="1705.68,-143.192 1714.35,-137.105 1703.78,-136.455 1705.68,-143.192"/>
</g>
<!-- Node4 -->
<g id="node4" class="node"><title>Node4</title>
<polygon fill="white" stroke="#bfbfbf" points="643.549,-1 643.549,-21 688.451,-21 688.451,-1 643.549,-1"/>
<text text-anchor="middle" x="666" y="-7" font-family="Helvetica,sans-Serif" font-size="10.00">cstdint</text>
</g>
<!-- Node3&#45;&gt;Node4 -->
<g id="edge3" class="edge"><title>Node3&#45;&gt;Node4</title>
<path fill="none" stroke="midnightblue" d="M739.469,-58.7527C725.757,-50.0272 704.979,-36.8051 689.015,-26.6458"/>
<polygon fill="midnightblue" stroke="midnightblue" points="690.577,-23.4912 680.261,-21.0752 686.819,-29.3968 690.577,-23.4912"/>
</g>
<!-- Node5 -->
<g id="node5" class="node"><title>Node5</title>
<polygon fill="white" stroke="#bfbfbf" points="706.53,-1 706.53,-21 801.47,-21 801.47,-1 706.53,-1"/>
<text text-anchor="middle" x="754" y="-7" font-family="Helvetica,sans-Serif" font-size="10.00">boost/version.hpp</text>
</g>
<!-- Node3&#45;&gt;Node5 -->
<g id="edge4" class="edge"><title>Node3&#45;&gt;Node5</title>
<path fill="none" stroke="midnightblue" d="M754,-58.7527C754,-51.2504 754,-40.4238 754,-31.0781"/>
<polygon fill="midnightblue" stroke="midnightblue" points="757.5,-31.0752 754,-21.0752 750.5,-31.0752 757.5,-31.0752"/>
</g>
<!-- Node6 -->
<g id="node6" class="node"><title>Node6</title>
<polygon fill="white" stroke="#bfbfbf" points="819.621,-1 819.621,-21 952.379,-21 952.379,-1 819.621,-1"/>
<text text-anchor="middle" x="886" y="-7" font-family="Helvetica,sans-Serif" font-size="10.00">boost/checked_delete.hpp</text>
</g>
<!-- Node3&#45;&gt;Node6 -->
<g id="edge5" class="edge"><title>Node3&#45;&gt;Node6</title>
<path fill="none" stroke="midnightblue" d="M775.502,-58.878C797.172,-49.6848 830.821,-35.4095 855.295,-25.0263"/>
<polygon fill="midnightblue" stroke="midnightblue" points="856.668,-28.2457 864.507,-21.1181 853.935,-21.8016 856.668,-28.2457"/>
</g>
<!-- Node7&#45;&gt;Node3 -->
<g id="edge7" class="edge"><title>Node7&#45;&gt;Node3</title>
<path fill="none" stroke="midnightblue" d="M906.359,-412.717C834.609,-407.129 693.074,-393.978 575,-370 483.463,-351.411 455.366,-356.049 373,-312 302.645,-274.375 269.557,-268.383 236,-196 210.158,-140.258 317.336,-116.25 318,-116 387.135,-89.9484 602.138,-76.9554 702.024,-72.1968"/>
<polygon fill="midnightblue" stroke="midnightblue" points="702.359,-75.6851 712.185,-71.7223 702.033,-68.6927 702.359,-75.6851"/>
</g>
<!-- Node8 -->
<g id="node8" class="node"><title>Node8</title>
<g id="a_node8"><a xlink:href="_data_source_8h.html" target="_top" xlink:title="cinder/DataSource.h">
<polygon fill="white" stroke="black" points="1022.42,-291 1022.42,-311 1129.58,-311 1129.58,-291 1022.42,-291"/>
<text text-anchor="middle" x="1076" y="-297" font-family="Helvetica,sans-Serif" font-size="10.00">cinder/DataSource.h</text>
</a>
</g>
</g>
<!-- Node7&#45;&gt;Node8 -->
<g id="edge8" class="edge"><title>Node7&#45;&gt;Node8</title>
<path fill="none" stroke="midnightblue" d="M963.066,-406.671C983.981,-387.285 1032.37,-342.442 1058.5,-318.22"/>
<polygon fill="midnightblue" stroke="midnightblue" points="1061.18,-320.504 1066.14,-311.139 1056.43,-315.37 1061.18,-320.504"/>
</g>
<!-- Node21 -->
<g id="node21" class="node"><title>Node21</title>
<g id="a_node21"><a xlink:href="_data_target_8h.html" target="_top" xlink:title="cinder/DataTarget.h">
<polygon fill="white" stroke="black" points="901.365,-291 901.365,-311 1004.64,-311 1004.64,-291 901.365,-291"/>
<text text-anchor="middle" x="953" y="-297" font-family="Helvetica,sans-Serif" font-size="10.00">cinder/DataTarget.h</text>
</a>
</g>
</g>
<!-- Node7&#45;&gt;Node21 -->
<g id="edge31" class="edge"><title>Node7&#45;&gt;Node21</title>
<path fill="none" stroke="midnightblue" d="M953,-406.671C953,-388.041 953,-345.898 953,-321.143"/>
<polygon fill="midnightblue" stroke="midnightblue" points="956.5,-321.139 953,-311.139 949.5,-321.139 956.5,-321.139"/>
</g>
<!-- Node22 -->
<g id="node22" class="node"><title>Node22</title>
<g id="a_node22"><a xlink:href="_surface_8h.html" target="_top" xlink:title="cinder/Surface.h">
<polygon fill="white" stroke="black" points="583.591,-349 583.591,-369 672.409,-369 672.409,-349 583.591,-349"/>
<text text-anchor="middle" x="628" y="-355" font-family="Helvetica,sans-Serif" font-size="10.00">cinder/Surface.h</text>
</a>
</g>
</g>
<!-- Node7&#45;&gt;Node22 -->
<g id="edge36" class="edge"><title>Node7&#45;&gt;Node22</title>
<path fill="none" stroke="midnightblue" d="M906.435,-407.977C847.329,-397.792 745.524,-380.25 682.756,-369.435"/>
<polygon fill="midnightblue" stroke="midnightblue" points="683.1,-365.943 672.65,-367.694 681.911,-372.841 683.1,-365.943"/>
</g>
<!-- Node7&#45;&gt;Node12 -->
<g id="edge67" class="edge"><title>Node7&#45;&gt;Node12</title>
<path fill="none" stroke="midnightblue" d="M999.534,-413.546C1110.98,-406.401 1384,-380.851 1384,-302 1384,-302 1384,-302 1384,-242 1384,-209.193 1597.76,-160.726 1701.64,-139.11"/>
<polygon fill="midnightblue" stroke="midnightblue" points="1702.55,-142.495 1711.64,-137.042 1701.13,-135.64 1702.55,-142.495"/>
</g>
<!-- Node13 -->
<g id="node13" class="node"><title>Node13</title>
<polygon fill="white" stroke="#bfbfbf" points="1811.38,-59 1811.38,-79 1854.62,-79 1854.62,-59 1811.38,-59"/>
<text text-anchor="middle" x="1833" y="-65" font-family="Helvetica,sans-Serif" font-size="10.00">vector</text>
</g>
<!-- Node7&#45;&gt;Node13 -->
<g id="edge68" class="edge"><title>Node7&#45;&gt;Node13</title>
<path fill="none" stroke="midnightblue" d="M999.555,-415.306C1072.5,-413.133 1217.53,-404.42 1335,-370 1562.38,-303.373 1664.24,-320.793 1815,-138 1826.27,-124.336 1830.55,-104.33 1832.14,-89.5521"/>
<polygon fill="midnightblue" stroke="midnightblue" points="1835.64,-89.6985 1832.9,-79.4627 1828.66,-89.1697 1835.64,-89.6985"/>
</g>
<!-- Node38 -->
<g id="node38" class="node"><title>Node38</title>
<polygon fill="white" stroke="#bfbfbf" points="169.273,-349 169.273,-369 204.727,-369 204.727,-349 169.273,-349"/>
<text text-anchor="middle" x="187" y="-355" font-family="Helvetica,sans-Serif" font-size="10.00">map</text>
</g>
<!-- Node7&#45;&gt;Node38 -->
<g id="edge69" class="edge"><title>Node7&#45;&gt;Node38</title>
<path fill="none" stroke="midnightblue" d="M906.21,-414.538C766.159,-409.928 351.774,-394.536 219,-370 217.533,-369.729 216.04,-369.412 214.539,-369.061"/>
<polygon fill="midnightblue" stroke="midnightblue" points="215.319,-365.646 204.749,-366.377 213.468,-372.397 215.319,-365.646"/>
</g>
<!-- Node33 -->
<g id="node33" class="node"><title>Node33</title>
<polygon fill="white" stroke="#bfbfbf" points="616.608,-175 616.608,-195 655.392,-195 655.392,-175 616.608,-175"/>
<text text-anchor="middle" x="636" y="-181" font-family="Helvetica,sans-Serif" font-size="10.00">utility</text>
</g>
<!-- Node7&#45;&gt;Node33 -->
<g id="edge70" class="edge"><title>Node7&#45;&gt;Node33</title>
<path fill="none" stroke="midnightblue" d="M944.222,-406.722C923.21,-384.809 867.831,-328.776 815,-290 764.465,-252.909 699.702,-218.084 663.555,-199.655"/>
<polygon fill="midnightblue" stroke="midnightblue" points="665.084,-196.506 654.581,-195.117 661.926,-202.753 665.084,-196.506"/>
</g>
<!-- Node8&#45;&gt;Node3 -->
<g id="edge9" class="edge"><title>Node8&#45;&gt;Node3</title>
<path fill="none" stroke="midnightblue" d="M1049.52,-290.92C1027.25,-282.751 994.982,-269.648 969,-254 886.009,-204.019 803.305,-121.864 769.686,-86.7561"/>
<polygon fill="midnightblue" stroke="midnightblue" points="771.995,-84.1044 762.572,-79.2604 766.918,-88.9232 771.995,-84.1044"/>
</g>
<!-- Node9 -->
<g id="node9" class="node"><title>Node9</title>
<g id="a_node9"><a xlink:href="_url_8h.html" target="_top" xlink:title="cinder/Url.h">
<polygon fill="white" stroke="black" points="978.436,-233 978.436,-253 1045.56,-253 1045.56,-233 978.436,-233"/>
<text text-anchor="middle" x="1012" y="-239" font-family="Helvetica,sans-Serif" font-size="10.00">cinder/Url.h</text>
</a>
</g>
</g>
<!-- Node8&#45;&gt;Node9 -->
<g id="edge10" class="edge"><title>Node8&#45;&gt;Node9</title>
<path fill="none" stroke="midnightblue" d="M1065.43,-290.753C1055.83,-282.353 1041.47,-269.787 1030.05,-259.798"/>
<polygon fill="midnightblue" stroke="midnightblue" points="1032.2,-257.026 1022.37,-253.075 1027.59,-262.294 1032.2,-257.026"/>
</g>
<!-- Node11 -->
<g id="node11" class="node"><title>Node11</title>
<g id="a_node11"><a xlink:href="_buffer_8h.html" target="_top" xlink:title="cinder/Buffer.h">
<polygon fill="white" stroke="black" points="1072.84,-117 1072.84,-137 1153.16,-137 1153.16,-117 1072.84,-117"/>
<text text-anchor="middle" x="1113" y="-123" font-family="Helvetica,sans-Serif" font-size="10.00">cinder/Buffer.h</text>
</a>
</g>
</g>
<!-- Node8&#45;&gt;Node11 -->
<g id="edge28" class="edge"><title>Node8&#45;&gt;Node11</title>
<path fill="none" stroke="midnightblue" d="M1078.55,-290.875C1081.1,-281.622 1085.05,-266.871 1088,-254 1096.65,-216.3 1105.05,-171.85 1109.58,-147.1"/>
<polygon fill="midnightblue" stroke="midnightblue" points="1113.03,-147.673 1111.37,-137.209 1106.14,-146.426 1113.03,-147.673"/>
</g>
<!-- Node10 -->
<g id="node10" class="node"><title>Node10</title>
<g id="a_node10"><a xlink:href="_stream_8h.html" target="_top" xlink:title="cinder/Stream.h">
<polygon fill="white" stroke="black" points="1139.71,-175 1139.71,-195 1226.29,-195 1226.29,-175 1139.71,-175"/>
<text text-anchor="middle" x="1183" y="-181" font-family="Helvetica,sans-Serif" font-size="10.00">cinder/Stream.h</text>
</a>
</g>
</g>
<!-- Node8&#45;&gt;Node10 -->
<g id="edge29" class="edge"><title>Node8&#45;&gt;Node10</title>
<path fill="none" stroke="midnightblue" d="M1086.71,-290.864C1097.1,-281.842 1113.13,-267.479 1126,-254 1141.86,-237.393 1158.57,-217.071 1169.77,-202.99"/>
<polygon fill="midnightblue" stroke="midnightblue" points="1172.53,-205.14 1175.97,-195.119 1167.04,-200.807 1172.53,-205.14"/>
</g>
<!-- Node15 -->
<g id="node15" class="node"><title>Node15</title>
<g id="a_node15"><a xlink:href="_filesystem_8h.html" target="_top" xlink:title="cinder/Filesystem.h">
<polygon fill="white" stroke="black" points="914.931,-117 914.931,-137 1017.07,-137 1017.07,-117 914.931,-117"/>
<text text-anchor="middle" x="966" y="-123" font-family="Helvetica,sans-Serif" font-size="10.00">cinder/Filesystem.h</text>
</a>
</g>
</g>
<!-- Node8&#45;&gt;Node15 -->
<g id="edge30" class="edge"><title>Node8&#45;&gt;Node15</title>
<path fill="none" stroke="midnightblue" d="M1074.2,-290.74C1071.32,-277.207 1064.86,-251.519 1054,-232 1034.7,-197.301 1002.87,-163.389 983.245,-144.153"/>
<polygon fill="midnightblue" stroke="midnightblue" points="985.523,-141.488 975.892,-137.074 980.669,-146.531 985.523,-141.488"/>
</g>
<!-- Node9&#45;&gt;Node3 -->
<g id="edge11" class="edge"><title>Node9&#45;&gt;Node3</title>
<path fill="none" stroke="midnightblue" d="M998.447,-232.746C967.714,-211.788 890.322,-159.163 825,-116 808.917,-105.373 790.662,-93.5512 776.691,-84.5534"/>
<polygon fill="midnightblue" stroke="midnightblue" points="778.498,-81.5542 768.193,-79.0893 774.711,-87.4419 778.498,-81.5542"/>
</g>
<!-- Node9&#45;&gt;Node10 -->
<g id="edge12" class="edge"><title>Node9&#45;&gt;Node10</title>
<path fill="none" stroke="midnightblue" d="M1039.85,-232.878C1068.63,-223.453 1113.72,-208.688 1145.59,-198.25"/>
<polygon fill="midnightblue" stroke="midnightblue" points="1147.03,-201.464 1155.44,-195.025 1144.85,-194.811 1147.03,-201.464"/>
</g>
<!-- Node20 -->
<g id="node20" class="node"><title>Node20</title>
<polygon fill="white" stroke="#bfbfbf" points="610.828,-117 610.828,-137 665.172,-137 665.172,-117 610.828,-117"/>
<text text-anchor="middle" x="638" y="-123" font-family="Helvetica,sans-Serif" font-size="10.00">iostream</text>
</g>
<!-- Node9&#45;&gt;Node20 -->
<g id="edge27" class="edge"><title>Node9&#45;&gt;Node20</title>
<path fill="none" stroke="midnightblue" d="M982.34,-232.959C914.769,-212.363 749.505,-161.988 675.227,-139.347"/>
<polygon fill="midnightblue" stroke="midnightblue" points="675.955,-135.91 665.369,-136.343 673.914,-142.606 675.955,-135.91"/>
</g>
<!-- Node10&#45;&gt;Node3 -->
<g id="edge13" class="edge"><title>Node10&#45;&gt;Node3</title>
<path fill="none" stroke="midnightblue" d="M1183.12,-174.816C1182.76,-159.914 1179.7,-130.66 1162,-116 1148.45,-104.779 913.146,-83.5069 806.177,-74.3602"/>
<polygon fill="midnightblue" stroke="midnightblue" points="806.191,-70.8488 795.93,-73.4876 805.597,-77.8236 806.191,-70.8488"/>
</g>
<!-- Node10&#45;&gt;Node11 -->
<g id="edge14" class="edge"><title>Node10&#45;&gt;Node11</title>
<path fill="none" stroke="midnightblue" d="M1171.44,-174.753C1160.84,-166.272 1144.93,-153.543 1132.38,-143.507"/>
<polygon fill="midnightblue" stroke="midnightblue" points="1134.34,-140.589 1124.34,-137.075 1129.97,-146.055 1134.34,-140.589"/>
</g>
<!-- Node10&#45;&gt;Node12 -->
<g id="edge16" class="edge"><title>Node10&#45;&gt;Node12</title>
<path fill="none" stroke="midnightblue" d="M1226.51,-181.08C1314.84,-174.934 1521.41,-159.441 1694,-138 1695.27,-137.843 1696.55,-137.679 1697.84,-137.51"/>
<polygon fill="midnightblue" stroke="midnightblue" points="1698.44,-140.961 1707.86,-136.128 1697.48,-134.027 1698.44,-140.961"/>
</g>
<!-- Node10&#45;&gt;Node15 -->
<g id="edge20" class="edge"><title>Node10&#45;&gt;Node15</title>
<path fill="none" stroke="midnightblue" d="M1147.65,-174.878C1110.34,-165.249 1051.43,-150.046 1010.87,-139.578"/>
<polygon fill="midnightblue" stroke="midnightblue" points="1011.53,-136.135 1000.97,-137.025 1009.78,-142.913 1011.53,-136.135"/>
</g>
<!-- Node17 -->
<g id="node17" class="node"><title>Node17</title>
<polygon fill="white" stroke="#bfbfbf" points="1532.29,-117 1532.29,-137 1651.71,-137 1651.71,-117 1532.29,-117"/>
<text text-anchor="middle" x="1592" y="-123" font-family="Helvetica,sans-Serif" font-size="10.00">boost/noncopyable.hpp</text>
</g>
<!-- Node10&#45;&gt;Node17 -->
<g id="edge23" class="edge"><title>Node10&#45;&gt;Node17</title>
<path fill="none" stroke="midnightblue" d="M1226.49,-178.25C1289.28,-169.919 1409.23,-153.892 1521.98,-138.133"/>
<polygon fill="midnightblue" stroke="midnightblue" points="1522.75,-141.559 1532.17,-136.707 1521.78,-134.627 1522.75,-141.559"/>
</g>
<!-- Node14 -->
<g id="node14" class="node"><title>Node14</title>
<polygon fill="white" stroke="#bfbfbf" points="1697.77,-59 1697.77,-79 1738.23,-79 1738.23,-59 1697.77,-59"/>
<text text-anchor="middle" x="1718" y="-65" font-family="Helvetica,sans-Serif" font-size="10.00">string</text>
</g>
<!-- Node10&#45;&gt;Node14 -->
<g id="edge24" class="edge"><title>Node10&#45;&gt;Node14</title>
<path fill="none" stroke="midnightblue" d="M1226.53,-181.665C1336.98,-175.477 1622.05,-157.775 1660,-138 1681.2,-126.955 1697.88,-104.584 1707.81,-88.5144"/>
<polygon fill="midnightblue" stroke="midnightblue" points="1711.07,-89.8787 1713.1,-79.4808 1705.03,-86.3414 1711.07,-89.8787"/>
</g>
<!-- Node18 -->
<g id="node18" class="node"><title>Node18</title>
<polygon fill="white" stroke="#bfbfbf" points="1208.57,-117 1208.57,-137 1357.43,-137 1357.43,-117 1208.57,-117"/>
<text text-anchor="middle" x="1283" y="-123" font-family="Helvetica,sans-Serif" font-size="10.00">boost/iostreams/concepts.hpp</text>
</g>
<!-- Node10&#45;&gt;Node18 -->
<g id="edge25" class="edge"><title>Node10&#45;&gt;Node18</title>
<path fill="none" stroke="midnightblue" d="M1199.51,-174.753C1215.39,-165.864 1239.59,-152.309 1257.86,-142.079"/>
<polygon fill="midnightblue" stroke="midnightblue" points="1259.78,-145.015 1266.79,-137.075 1256.36,-138.907 1259.78,-145.015"/>
</g>
<!-- Node19 -->
<g id="node19" class="node"><title>Node19</title>
<polygon fill="white" stroke="#bfbfbf" points="1375.31,-117 1375.31,-137 1514.69,-137 1514.69,-117 1375.31,-117"/>
<text text-anchor="middle" x="1445" y="-123" font-family="Helvetica,sans-Serif" font-size="10.00">boost/iostreams/stream.hpp</text>
</g>
<!-- Node10&#45;&gt;Node19 -->
<g id="edge26" class="edge"><title>Node10&#45;&gt;Node19</title>
<path fill="none" stroke="midnightblue" d="M1225.39,-174.94C1271.05,-165.181 1343.75,-149.642 1392.87,-139.141"/>
<polygon fill="midnightblue" stroke="midnightblue" points="1393.63,-142.56 1402.67,-137.047 1392.16,-135.714 1393.63,-142.56"/>
</g>
<!-- Node11&#45;&gt;Node3 -->
<g id="edge15" class="edge"><title>Node11&#45;&gt;Node3</title>
<path fill="none" stroke="midnightblue" d="M1072.52,-119.685C1007.06,-109.475 878.063,-89.3524 805.934,-78.1011"/>
<polygon fill="midnightblue" stroke="midnightblue" points="806.139,-74.5908 795.719,-76.5076 805.06,-81.5072 806.139,-74.5908"/>
</g>
<!-- Node12&#45;&gt;Node3 -->
<g id="edge17" class="edge"><title>Node12&#45;&gt;Node3</title>
<path fill="none" stroke="midnightblue" d="M1707.7,-120.386C1692.43,-118.789 1675.53,-117.169 1660,-116 1324.13,-90.7198 1239.27,-99.2784 903,-80 870.726,-78.1498 834.544,-75.7296 805.917,-73.7336"/>
<polygon fill="midnightblue" stroke="midnightblue" points="805.954,-70.2277 795.733,-73.0193 805.464,-77.2105 805.954,-70.2277"/>
</g>
<!-- Node12&#45;&gt;Node13 -->
<g id="edge18" class="edge"><title>Node12&#45;&gt;Node13</title>
<path fill="none" stroke="midnightblue" d="M1769.55,-116.753C1781.17,-108.19 1798.67,-95.2978 1812.35,-85.2186"/>
<polygon fill="midnightblue" stroke="midnightblue" points="1814.71,-87.8249 1820.68,-79.0752 1810.56,-82.1895 1814.71,-87.8249"/>
</g>
<!-- Node12&#45;&gt;Node14 -->
<g id="edge19" class="edge"><title>Node12&#45;&gt;Node14</title>
<path fill="none" stroke="midnightblue" d="M1750.56,-116.753C1745.05,-108.843 1736.97,-97.2372 1730.24,-87.5683"/>
<polygon fill="midnightblue" stroke="midnightblue" points="1732.91,-85.281 1724.32,-79.0752 1727.16,-89.2815 1732.91,-85.281"/>
</g>
<!-- Node15&#45;&gt;Node3 -->
<g id="edge21" class="edge"><title>Node15&#45;&gt;Node3</title>
<path fill="none" stroke="midnightblue" d="M931.467,-116.878C895.093,-107.27 837.704,-92.1104 798.084,-81.6449"/>
<polygon fill="midnightblue" stroke="midnightblue" points="798.73,-78.1954 788.167,-79.0253 796.942,-84.9632 798.73,-78.1954"/>
</g>
<!-- Node16 -->
<g id="node16" class="node"><title>Node16</title>
<polygon fill="white" stroke="#bfbfbf" points="912.421,-59 912.421,-79 1019.58,-79 1019.58,-59 912.421,-59"/>
<text text-anchor="middle" x="966" y="-65" font-family="Helvetica,sans-Serif" font-size="10.00">boost/filesystem.hpp</text>
</g>
<!-- Node15&#45;&gt;Node16 -->
<g id="edge22" class="edge"><title>Node15&#45;&gt;Node16</title>
<path fill="none" stroke="midnightblue" d="M966,-116.753C966,-109.25 966,-98.4238 966,-89.0781"/>
<polygon fill="midnightblue" stroke="midnightblue" points="969.5,-89.0752 966,-79.0752 962.5,-89.0752 969.5,-89.0752"/>
</g>
<!-- Node21&#45;&gt;Node3 -->
<g id="edge32" class="edge"><title>Node21&#45;&gt;Node3</title>
<path fill="none" stroke="midnightblue" d="M924.346,-290.856C904.477,-283.398 878.387,-271.259 860,-254 808.113,-205.298 774.207,-125.427 760.667,-89.0809"/>
<polygon fill="midnightblue" stroke="midnightblue" points="763.815,-87.4939 757.121,-79.2813 757.232,-89.8756 763.815,-87.4939"/>
</g>
<!-- Node21&#45;&gt;Node9 -->
<g id="edge33" class="edge"><title>Node21&#45;&gt;Node9</title>
<path fill="none" stroke="midnightblue" d="M962.743,-290.753C971.506,-282.435 984.575,-270.031 995.049,-260.089"/>
<polygon fill="midnightblue" stroke="midnightblue" points="997.595,-262.498 1002.44,-253.075 992.776,-257.421 997.595,-262.498"/>
</g>
<!-- Node21&#45;&gt;Node10 -->
<g id="edge34" class="edge"><title>Node21&#45;&gt;Node10</title>
<path fill="none" stroke="midnightblue" d="M952.304,-290.597C951.773,-275.918 953.069,-247.626 969,-232 991.348,-210.081 1073.56,-197.323 1129.33,-191.012"/>
<polygon fill="midnightblue" stroke="midnightblue" points="1129.85,-194.476 1139.41,-189.908 1129.09,-187.517 1129.85,-194.476"/>
</g>
<!-- Node21&#45;&gt;Node14 -->
<g id="edge35" class="edge"><title>Node21&#45;&gt;Node14</title>
<path fill="none" stroke="midnightblue" d="M950.907,-290.793C948.3,-277.327 945.085,-251.721 953,-232 966.29,-198.889 1031.7,-131.159 1064,-116 1120.89,-89.3011 1566.3,-74.4346 1687.59,-70.8541"/>
<polygon fill="midnightblue" stroke="midnightblue" points="1687.77,-74.3504 1697.67,-70.5607 1687.57,-67.3533 1687.77,-74.3504"/>
</g>
<!-- Node22&#45;&gt;Node3 -->
<g id="edge37" class="edge"><title>Node22&#45;&gt;Node3</title>
<path fill="none" stroke="midnightblue" d="M632.05,-348.744C649.897,-307.951 721.717,-143.789 745.961,-88.3749"/>
<polygon fill="midnightblue" stroke="midnightblue" points="749.227,-89.6425 750.028,-79.078 742.814,-86.8367 749.227,-89.6425"/>
</g>
<!-- Node23 -->
<g id="node23" class="node"><title>Node23</title>
<g id="a_node23"><a xlink:href="_area_8h.html" target="_top" xlink:title="cinder/Area.h">
<polygon fill="white" stroke="black" points="513.261,-233 513.261,-253 588.739,-253 588.739,-233 513.261,-233"/>
<text text-anchor="middle" x="551" y="-239" font-family="Helvetica,sans-Serif" font-size="10.00">cinder/Area.h</text>
</a>
</g>
</g>
<!-- Node22&#45;&gt;Node23 -->
<g id="edge38" class="edge"><title>Node22&#45;&gt;Node23</title>
<path fill="none" stroke="midnightblue" d="M589.13,-348.946C569.59,-342.217 547.641,-330.836 536,-312 526.601,-296.793 533.066,-276.465 540.203,-262.006"/>
<polygon fill="midnightblue" stroke="midnightblue" points="543.361,-263.526 545.065,-253.069 537.212,-260.181 543.361,-263.526"/>
</g>
<!-- Node34 -->
<g id="node34" class="node"><title>Node34</title>
<g id="a_node34"><a xlink:href="_channel_8h.html" target="_top" xlink:title="cinder/Channel.h">
<polygon fill="white" stroke="black" points="545.197,-291 545.197,-311 636.803,-311 636.803,-291 545.197,-291"/>
<text text-anchor="middle" x="591" y="-297" font-family="Helvetica,sans-Serif" font-size="10.00">cinder/Channel.h</text>
</a>
</g>
</g>
<!-- Node22&#45;&gt;Node34 -->
<g id="edge55" class="edge"><title>Node22&#45;&gt;Node34</title>
<path fill="none" stroke="midnightblue" d="M621.89,-348.753C616.664,-340.843 608.996,-329.237 602.608,-319.568"/>
<polygon fill="midnightblue" stroke="midnightblue" points="605.429,-317.489 596.996,-311.075 599.589,-321.348 605.429,-317.489"/>
</g>
<!-- Node35 -->
<g id="node35" class="node"><title>Node35</title>
<g id="a_node35"><a xlink:href="_chan_traits_8h.html" target="_top" xlink:title="cinder/ChanTraits.h">
<polygon fill="white" stroke="black" points="244.553,-175 244.553,-195 347.447,-195 347.447,-175 244.553,-175"/>
<text text-anchor="middle" x="296" y="-181" font-family="Helvetica,sans-Serif" font-size="10.00">cinder/ChanTraits.h</text>
</a>
</g>
</g>
<!-- Node22&#45;&gt;Node35 -->
<g id="edge58" class="edge"><title>Node22&#45;&gt;Node35</title>
<path fill="none" stroke="midnightblue" d="M583.538,-354.072C519.042,-346.116 399.353,-322.532 327,-254 313.053,-240.79 304.869,-220.113 300.447,-205.026"/>
<polygon fill="midnightblue" stroke="midnightblue" points="303.795,-203.994 297.864,-195.215 297.026,-205.777 303.795,-203.994"/>
</g>
<!-- Node36 -->
<g id="node36" class="node"><title>Node36</title>
<g id="a_node36"><a xlink:href="_color_8h.html" target="_top" xlink:title="cinder/Color.h">
<polygon fill="white" stroke="black" points="336.148,-233 336.148,-253 413.852,-253 413.852,-233 336.148,-233"/>
<text text-anchor="middle" x="375" y="-239" font-family="Helvetica,sans-Serif" font-size="10.00">cinder/Color.h</text>
</a>
</g>
</g>
<!-- Node22&#45;&gt;Node36 -->
<g id="edge60" class="edge"><title>Node22&#45;&gt;Node36</title>
<path fill="none" stroke="midnightblue" d="M607.724,-348.864C563.11,-328.761 456.286,-280.627 404.348,-257.224"/>
<polygon fill="midnightblue" stroke="midnightblue" points="405.577,-253.939 395.022,-253.022 402.701,-260.321 405.577,-253.939"/>
</g>
<!-- Node22&#45;&gt;Node15 -->
<g id="edge65" class="edge"><title>Node22&#45;&gt;Node15</title>
<path fill="none" stroke="midnightblue" d="M672.693,-356.841C713.504,-353.669 773.607,-343.455 815,-312 847.481,-287.318 835.193,-264.385 860,-232 886.552,-197.337 924.366,-163.019 946.919,-143.762"/>
<polygon fill="midnightblue" stroke="midnightblue" points="949.372,-146.271 954.761,-137.149 944.86,-140.92 949.372,-146.271"/>
</g>
<!-- Node37 -->
<g id="node37" class="node"><title>Node37</title>
<polygon fill="white" stroke="#bfbfbf" points="693.357,-291 693.357,-311 806.643,-311 806.643,-291 693.357,-291"/>
<text text-anchor="middle" x="750" y="-297" font-family="Helvetica,sans-Serif" font-size="10.00">boost/logic/tribool.hpp</text>
</g>
<!-- Node22&#45;&gt;Node37 -->
<g id="edge66" class="edge"><title>Node22&#45;&gt;Node37</title>
<path fill="none" stroke="midnightblue" d="M647.873,-348.878C667.724,-339.766 698.451,-325.662 721.019,-315.303"/>
<polygon fill="midnightblue" stroke="midnightblue" points="722.507,-318.471 730.136,-311.118 719.587,-312.109 722.507,-318.471"/>
</g>
<!-- Node23&#45;&gt;Node3 -->
<g id="edge39" class="edge"><title>Node23&#45;&gt;Node3</title>
<path fill="none" stroke="midnightblue" d="M550.811,-232.844C550.84,-219.441 552.066,-193.913 560,-174 571.781,-144.434 576.078,-134.466 602,-116 631.584,-94.9261 670.973,-83.36 702.241,-77.0969"/>
<polygon fill="midnightblue" stroke="midnightblue" points="702.905,-80.5335 712.085,-75.2444 701.611,-73.6543 702.905,-80.5335"/>
</g>
<!-- Node24 -->
<g id="node24" class="node"><title>Node24</title>
<g id="a_node24"><a xlink:href="_vector_8h.html" target="_top" xlink:title="cinder/Vector.h">
<polygon fill="white" stroke="black" points="402.919,-175 402.919,-195 485.081,-195 485.081,-175 402.919,-175"/>
<text text-anchor="middle" x="444" y="-181" font-family="Helvetica,sans-Serif" font-size="10.00">cinder/Vector.h</text>
</a>
</g>
</g>
<!-- Node23&#45;&gt;Node24 -->
<g id="edge40" class="edge"><title>Node23&#45;&gt;Node24</title>
<path fill="none" stroke="midnightblue" d="M533.331,-232.753C516.192,-223.783 489.972,-210.06 470.365,-199.799"/>
<polygon fill="midnightblue" stroke="midnightblue" points="471.823,-196.611 461.34,-195.075 468.577,-202.813 471.823,-196.611"/>
</g>
<!-- Node23&#45;&gt;Node20 -->
<g id="edge52" class="edge"><title>Node23&#45;&gt;Node20</title>
<path fill="none" stroke="midnightblue" d="M552.447,-232.821C555.006,-218.937 561.398,-192.28 575,-174 584.628,-161.06 598.932,-150.205 611.479,-142.295"/>
<polygon fill="midnightblue" stroke="midnightblue" points="613.428,-145.207 620.211,-137.067 609.833,-139.2 613.428,-145.207"/>
</g>
<!-- Node23&#45;&gt;Node33 -->
<g id="edge53" class="edge"><title>Node23&#45;&gt;Node33</title>
<path fill="none" stroke="midnightblue" d="M565.036,-232.753C578.28,-224.027 598.349,-210.805 613.77,-200.646"/>
<polygon fill="midnightblue" stroke="midnightblue" points="615.8,-203.5 622.225,-195.075 611.949,-197.654 615.8,-203.5"/>
</g>
<!-- Node23&#45;&gt;Node13 -->
<g id="edge54" class="edge"><title>Node23&#45;&gt;Node13</title>
<path fill="none" stroke="midnightblue" d="M555.918,-232.792C564.412,-217.855 583.318,-188.551 608,-174 724.234,-105.474 772.001,-131.818 906,-116 1277.54,-72.1405 1374.05,-109.625 1747,-80 1764.95,-78.5745 1784.92,-76.2941 1801.1,-74.2707"/>
<polygon fill="midnightblue" stroke="midnightblue" points="1801.65,-77.7291 1811.13,-72.9897 1800.76,-70.7855 1801.65,-77.7291"/>
</g>
<!-- Node25 -->
<g id="node25" class="node"><title>Node25</title>
<polygon fill="white" stroke="#bfbfbf" points="222.384,-59 222.384,-79 265.616,-79 265.616,-59 222.384,-59"/>
<text text-anchor="middle" x="244" y="-65" font-family="Helvetica,sans-Serif" font-size="10.00">cmath</text>
</g>
<!-- Node24&#45;&gt;Node25 -->
<g id="edge41" class="edge"><title>Node24&#45;&gt;Node25</title>
<path fill="none" stroke="midnightblue" d="M427.971,-174.864C393.143,-155.012 310.357,-107.823 268.757,-84.1114"/>
<polygon fill="midnightblue" stroke="midnightblue" points="270.248,-80.933 259.827,-79.0217 266.782,-87.0145 270.248,-80.933"/>
</g>
<!-- Node26 -->
<g id="node26" class="node"><title>Node26</title>
<polygon fill="white" stroke="#bfbfbf" points="443.273,-117 443.273,-137 488.727,-137 488.727,-117 443.273,-117"/>
<text text-anchor="middle" x="466" y="-123" font-family="Helvetica,sans-Serif" font-size="10.00">cstring</text>
</g>
<!-- Node24&#45;&gt;Node26 -->
<g id="edge42" class="edge"><title>Node24&#45;&gt;Node26</title>
<path fill="none" stroke="midnightblue" d="M447.633,-174.753C450.644,-167.087 455.019,-155.952 458.744,-146.471"/>
<polygon fill="midnightblue" stroke="midnightblue" points="462.036,-147.663 462.435,-137.075 455.521,-145.103 462.036,-147.663"/>
</g>
<!-- Node24&#45;&gt;Node20 -->
<g id="edge43" class="edge"><title>Node24&#45;&gt;Node20</title>
<path fill="none" stroke="midnightblue" d="M475.601,-174.878C509.95,-164.963 564.78,-149.136 601.084,-138.656"/>
<polygon fill="midnightblue" stroke="midnightblue" points="602.163,-141.988 610.8,-135.852 600.222,-135.262 602.163,-141.988"/>
</g>
<!-- Node27 -->
<g id="node27" class="node"><title>Node27</title>
<polygon fill="white" stroke="#bfbfbf" points="506.884,-117 506.884,-137 555.116,-137 555.116,-117 506.884,-117"/>
<text text-anchor="middle" x="531" y="-123" font-family="Helvetica,sans-Serif" font-size="10.00">cassert</text>
</g>
<!-- Node24&#45;&gt;Node27 -->
<g id="edge44" class="edge"><title>Node24&#45;&gt;Node27</title>
<path fill="none" stroke="midnightblue" d="M458.366,-174.753C471.922,-166.027 492.464,-152.805 508.247,-142.646"/>
<polygon fill="midnightblue" stroke="midnightblue" points="510.387,-145.431 516.901,-137.075 506.598,-139.545 510.387,-145.431"/>
</g>
<!-- Node28 -->
<g id="node28" class="node"><title>Node28</title>
<polygon fill="white" stroke="#bfbfbf" points="386.613,-117 386.613,-137 425.387,-137 425.387,-117 386.613,-117"/>
<text text-anchor="middle" x="406" y="-123" font-family="Helvetica,sans-Serif" font-size="10.00">limits</text>
</g>
<!-- Node24&#45;&gt;Node28 -->
<g id="edge45" class="edge"><title>Node24&#45;&gt;Node28</title>
<path fill="none" stroke="midnightblue" d="M437.725,-174.753C432.358,-166.843 424.482,-155.237 417.921,-145.568"/>
<polygon fill="midnightblue" stroke="midnightblue" points="420.669,-143.385 412.158,-137.075 414.877,-147.315 420.669,-143.385"/>
</g>
<!-- Node29 -->
<g id="node29" class="node"><title>Node29</title>
<g id="a_node29"><a xlink:href="_cinder_math_8h.html" target="_top" xlink:title="cinder/CinderMath.h">
<polygon fill="white" stroke="black" points="44.978,-117 44.978,-137 151.022,-137 151.022,-117 44.978,-117"/>
<text text-anchor="middle" x="98" y="-123" font-family="Helvetica,sans-Serif" font-size="10.00">cinder/CinderMath.h</text>
</a>
</g>
</g>
<!-- Node24&#45;&gt;Node29 -->
<g id="edge46" class="edge"><title>Node24&#45;&gt;Node29</title>
<path fill="none" stroke="midnightblue" d="M402.608,-177.301C342.684,-167.602 231.278,-149.571 161.083,-138.21"/>
<polygon fill="midnightblue" stroke="midnightblue" points="161.467,-134.727 151.036,-136.584 160.348,-141.637 161.467,-134.727"/>
</g>
<!-- Node29&#45;&gt;Node3 -->
<g id="edge47" class="edge"><title>Node29&#45;&gt;Node3</title>
<path fill="none" stroke="midnightblue" d="M151.349,-117.692C155.961,-117.079 160.559,-116.504 165,-116 362.798,-93.5431 599.224,-78.6974 702.016,-72.8299"/>
<polygon fill="midnightblue" stroke="midnightblue" points="702.34,-76.3172 712.127,-72.2572 701.945,-69.3284 702.34,-76.3172"/>
</g>
<!-- Node29&#45;&gt;Node25 -->
<g id="edge48" class="edge"><title>Node29&#45;&gt;Node25</title>
<path fill="none" stroke="midnightblue" d="M121.782,-116.878C146.538,-107.383 185.429,-92.4655 212.674,-82.0153"/>
<polygon fill="midnightblue" stroke="midnightblue" points="214.054,-85.2348 222.137,-78.3857 211.547,-78.6991 214.054,-85.2348"/>
</g>
<!-- Node30 -->
<g id="node30" class="node"><title>Node30</title>
<polygon fill="white" stroke="#bfbfbf" points="76.1133,-59 76.1133,-79 119.887,-79 119.887,-59 76.1133,-59"/>
<text text-anchor="middle" x="98" y="-65" font-family="Helvetica,sans-Serif" font-size="10.00">climits</text>
</g>
<!-- Node29&#45;&gt;Node30 -->
<g id="edge49" class="edge"><title>Node29&#45;&gt;Node30</title>
<path fill="none" stroke="midnightblue" d="M98,-116.753C98,-109.25 98,-98.4238 98,-89.0781"/>
<polygon fill="midnightblue" stroke="midnightblue" points="101.5,-89.0752 98,-79.0752 94.5001,-89.0752 101.5,-89.0752"/>
</g>
<!-- Node31 -->
<g id="node31" class="node"><title>Node31</title>
<polygon fill="white" stroke="#bfbfbf" points="138.049,-59 138.049,-79 177.951,-79 177.951,-59 138.049,-59"/>
<text text-anchor="middle" x="158" y="-65" font-family="Helvetica,sans-Serif" font-size="10.00">cfloat</text>
</g>
<!-- Node29&#45;&gt;Node31 -->
<g id="edge50" class="edge"><title>Node29&#45;&gt;Node31</title>
<path fill="none" stroke="midnightblue" d="M107.908,-116.753C116.82,-108.435 130.11,-96.031 140.762,-86.0893"/>
<polygon fill="midnightblue" stroke="midnightblue" points="143.354,-88.4571 148.277,-79.0752 138.578,-83.3397 143.354,-88.4571"/>
</g>
<!-- Node32 -->
<g id="node32" class="node"><title>Node32</title>
<polygon fill="white" stroke="#bfbfbf" points="-0.403809,-59 -0.403809,-79 58.4038,-79 58.4038,-59 -0.403809,-59"/>
<text text-anchor="middle" x="29" y="-65" font-family="Helvetica,sans-Serif" font-size="10.00">functional</text>
</g>
<!-- Node29&#45;&gt;Node32 -->
<g id="edge51" class="edge"><title>Node29&#45;&gt;Node32</title>
<path fill="none" stroke="midnightblue" d="M86.6061,-116.753C76.1564,-108.272 60.4726,-95.543 48.1073,-85.5073"/>
<polygon fill="midnightblue" stroke="midnightblue" points="50.1521,-82.6593 40.1819,-79.0752 45.7409,-88.0945 50.1521,-82.6593"/>
</g>
<!-- Node34&#45;&gt;Node3 -->
<g id="edge56" class="edge"><title>Node34&#45;&gt;Node3</title>
<path fill="none" stroke="midnightblue" d="M597.469,-290.794C616.402,-263.862 673.363,-182.912 721,-116 727.769,-106.492 735.359,-95.907 741.552,-87.2899"/>
<polygon fill="midnightblue" stroke="midnightblue" points="744.409,-89.3121 747.406,-79.1502 738.726,-85.2247 744.409,-89.3121"/>
</g>
<!-- Node34&#45;&gt;Node23 -->
<g id="edge57" class="edge"><title>Node34&#45;&gt;Node23</title>
<path fill="none" stroke="midnightblue" d="M584.395,-290.753C578.687,-282.761 570.284,-270.998 563.336,-261.27"/>
<polygon fill="midnightblue" stroke="midnightblue" points="566.143,-259.178 557.482,-253.075 560.447,-263.247 566.143,-259.178"/>
</g>
<!-- Node35&#45;&gt;Node3 -->
<g id="edge59" class="edge"><title>Node35&#45;&gt;Node3</title>
<path fill="none" stroke="midnightblue" d="M299.747,-174.593C306.356,-159.369 321.637,-129.664 345,-116 404.438,-81.2388 606.19,-72.7455 702.289,-70.6706"/>
<polygon fill="midnightblue" stroke="midnightblue" points="702.433,-74.1685 712.361,-70.4684 702.293,-67.1699 702.433,-74.1685"/>
</g>
<!-- Node36&#45;&gt;Node3 -->
<g id="edge61" class="edge"><title>Node36&#45;&gt;Node3</title>
<path fill="none" stroke="midnightblue" d="M371.723,-232.947C364.072,-210.039 347.872,-149.233 378,-116 399.41,-92.383 604.07,-78.1534 702.12,-72.6388"/>
<polygon fill="midnightblue" stroke="midnightblue" points="702.325,-76.1329 712.117,-72.0861 701.939,-69.1436 702.325,-76.1329"/>
</g>
<!-- Node36&#45;&gt;Node35 -->
<g id="edge62" class="edge"><title>Node36&#45;&gt;Node35</title>
<path fill="none" stroke="midnightblue" d="M361.955,-232.753C349.761,-224.109 331.341,-211.052 317.064,-200.931"/>
<polygon fill="midnightblue" stroke="midnightblue" points="318.985,-198.003 308.803,-195.075 314.937,-203.714 318.985,-198.003"/>
</g>
<!-- Node36&#45;&gt;Node24 -->
<g id="edge63" class="edge"><title>Node36&#45;&gt;Node24</title>
<path fill="none" stroke="midnightblue" d="M386.394,-232.753C396.844,-224.272 412.527,-211.543 424.893,-201.507"/>
<polygon fill="midnightblue" stroke="midnightblue" points="427.259,-204.095 432.818,-195.075 422.848,-198.659 427.259,-204.095"/>
</g>
<!-- Node36&#45;&gt;Node29 -->
<g id="edge64" class="edge"><title>Node36&#45;&gt;Node29</title>
<path fill="none" stroke="midnightblue" d="M343.637,-232.977C315.168,-224.469 272.225,-210.836 236,-196 195.76,-179.52 150.889,-156.499 123.552,-141.922"/>
<polygon fill="midnightblue" stroke="midnightblue" points="125.116,-138.789 114.65,-137.143 121.805,-144.957 125.116,-138.789"/>
</g>
<!-- Node39&#45;&gt;Node14 -->
<g id="edge73" class="edge"><title>Node39&#45;&gt;Node14</title>
<path fill="none" stroke="midnightblue" d="M1809.7,-348.916C1821.35,-340.562 1837.76,-327.194 1848,-312 1865.91,-285.421 1872,-276.049 1872,-244 1872,-244 1872,-244 1872,-184 1872,-151.951 1870.65,-138.671 1848,-116 1821.17,-89.152 1777.72,-77.9156 1748.52,-73.2512"/>
<polygon fill="midnightblue" stroke="midnightblue" points="1748.86,-69.7641 1738.46,-71.8134 1747.87,-76.6937 1748.86,-69.7641"/>
</g>
<!-- Node39&#45;&gt;Node13 -->
<g id="edge74" class="edge"><title>Node39&#45;&gt;Node13</title>
<path fill="none" stroke="midnightblue" d="M1830.11,-348.932C1874.93,-334.713 1948,-302.55 1948,-244 1948,-244 1948,-244 1948,-184 1948,-151.951 1945.16,-140.073 1924,-116 1908.28,-98.1096 1883.94,-86.3182 1864.4,-79.1567"/>
<polygon fill="midnightblue" stroke="midnightblue" points="1865.27,-75.758 1854.68,-75.8259 1863,-82.3797 1865.27,-75.758"/>
</g>
<!-- Node39&#45;&gt;Node3 -->
<g id="edge75" class="edge"><title>Node39&#45;&gt;Node3</title>
<path fill="none" stroke="midnightblue" d="M1801.28,-348.887C1811.73,-329.992 1834,-284.89 1834,-244 1834,-244 1834,-244 1834,-184 1834,-152.62 1839.62,-135.459 1815,-116 1775.22,-84.5562 953.634,-82.698 903,-80 870.719,-78.2799 834.537,-75.8632 805.911,-73.8364"/>
<polygon fill="midnightblue" stroke="midnightblue" points="805.952,-70.3305 795.728,-73.1093 805.454,-77.3127 805.952,-70.3305"/>
</g>
<!-- Node39&#45;&gt;Node9 -->
<g id="edge76" class="edge"><title>Node39&#45;&gt;Node9</title>
<path fill="none" stroke="midnightblue" d="M1796.49,-348.74C1796.73,-333.729 1794.74,-304.322 1777,-290 1720.83,-244.655 1210.16,-243.133 1055.91,-243.721"/>
<polygon fill="midnightblue" stroke="midnightblue" points="1055.84,-240.221 1045.86,-243.764 1055.87,-247.221 1055.84,-240.221"/>
</g>
<!-- Node39&#45;&gt;Node8 -->
<g id="edge77" class="edge"><title>Node39&#45;&gt;Node8</title>
<path fill="none" stroke="midnightblue" d="M1752.58,-354.623C1630.48,-345.126 1283.64,-318.15 1139.76,-306.959"/>
<polygon fill="midnightblue" stroke="midnightblue" points="1140,-303.467 1129.76,-306.181 1139.46,-310.446 1140,-303.467"/>
</g>
<!-- Node40 -->
<g id="node40" class="node"><title>Node40</title>
<polygon fill="white" stroke="#bfbfbf" points="1653.8,-291 1653.8,-311 1768.2,-311 1768.2,-291 1653.8,-291"/>
<text text-anchor="middle" x="1711" y="-297" font-family="Helvetica,sans-Serif" font-size="10.00">boost/lexical_cast.hpp</text>
</g>
<!-- Node39&#45;&gt;Node40 -->
<g id="edge78" class="edge"><title>Node39&#45;&gt;Node40</title>
<path fill="none" stroke="midnightblue" d="M1781.96,-348.753C1768.72,-340.027 1748.65,-326.805 1733.23,-316.646"/>
<polygon fill="midnightblue" stroke="midnightblue" points="1735.05,-313.654 1724.77,-311.075 1731.2,-319.5 1735.05,-313.654"/>
</g>
</g>
</svg>
