<?xml version="1.0" encoding="UTF-8" standalone="no"?>
<!DOCTYPE svg PUBLIC "-//W3C//DTD SVG 1.1//EN"
 "http://www.w3.org/Graphics/SVG/1.1/DTD/svg11.dtd">
<!-- Generated by graphviz version 2.30.1 (20140712.1814)
 -->
<!-- Title: include/cinder/ImageTargetFileWic.h Pages: 1 -->
<svg width="144pt" height="112pt"
 viewBox="0.00 0.00 144.00 112.00" xmlns="http://www.w3.org/2000/svg" xmlns:xlink="http://www.w3.org/1999/xlink">
<g id="graph0" class="graph" transform="scale(1 1) rotate(0) translate(4 108)">
<title>include/cinder/ImageTargetFileWic.h</title>
<polygon fill="white" stroke="white" points="-4,5 -4,-108 141,-108 141,5 -4,5"/>
<!-- Node1 -->
<g id="node1" class="node"><title>Node1</title>
<polygon fill="#bfbfbf" stroke="black" points="-0.0341797,-71 -0.0341797,-103 136.034,-103 136.034,-71 -0.0341797,-71"/>
<text text-anchor="start" x="7.96582" y="-89" font-family="Helvetica,sans-Serif" font-size="10.00">include/cinder/ImageTarget</text>
<text text-anchor="middle" x="68" y="-77" font-family="Helvetica,sans-Serif" font-size="10.00">FileWic.h</text>
</g>
<!-- Node2 -->
<g id="node2" class="node"><title>Node2</title>
<g id="a_node2"><a xlink:href="_image_target_file_wic_8cpp.html" target="_top" xlink:title="src/cinder/ImageTargetFile\lWic.cpp">
<polygon fill="white" stroke="black" points="1.08887,-1 1.08887,-33 134.911,-33 134.911,-1 1.08887,-1"/>
<text text-anchor="start" x="9.08887" y="-19" font-family="Helvetica,sans-Serif" font-size="10.00">src/cinder/ImageTargetFile</text>
<text text-anchor="middle" x="68" y="-7" font-family="Helvetica,sans-Serif" font-size="10.00">Wic.cpp</text>
</a>
</g>
</g>
<!-- Node1&#45;&gt;Node2 -->
<g id="edge1" class="edge"><title>Node1&#45;&gt;Node2</title>
<path fill="none" stroke="midnightblue" d="M68,-60.6174C68,-51.3378 68,-41.1413 68,-33.0492"/>
<polygon fill="midnightblue" stroke="midnightblue" points="64.5001,-60.9086 68,-70.9086 71.5001,-60.9086 64.5001,-60.9086"/>
</g>
</g>
</svg>
