<?xml version="1.0" encoding="UTF-8" standalone="no"?>
<!DOCTYPE svg PUBLIC "-//W3C//DTD SVG 1.1//EN"
 "http://www.w3.org/Graphics/SVG/1.1/DTD/svg11.dtd">
<!-- Generated by graphviz version 2.30.1 (20140712.1814)
 -->
<!-- Title: src/cinder/ImageIo.cpp Pages: 1 -->
<!--zoomable 506 -->
<svg id="main" version="1.1" xmlns="http://www.w3.org/2000/svg" xmlns:xlink="http://www.w3.org/1999/xlink" xml:space="preserve" onload="init(evt)">
<style type="text/css"><![CDATA[
.edge:hover path { stroke: red; }
.edge:hover polygon { stroke: red; fill: red; }
]]></style>
<script type="text/javascript"><![CDATA[
var edges = document.getElementsByTagName('g');
if (edges && edges.length) {
  for (var i=0;i<edges.length;i++) {
    if (edges[i].id.substr(0,4)=='edge') {
      edges[i].setAttribute('class','edge');
    }
  }
}
]]></script>
        <defs>
                <circle id="rim" cx="0" cy="0" r="7"/>
                <circle id="rim2" cx="0" cy="0" r="3.5"/>
                <g id="zoomPlus">
                        <use xlink:href="#rim" fill="#404040">
                                <set attributeName="fill" to="#808080" begin="zoomplus.mouseover" end="zoomplus.mouseout"/>
                        </use>
                        <path d="M-4,0h8M0,-4v8" fill="none" stroke="white" stroke-width="1.5" pointer-events="none"/>
                </g>
                <g id="zoomMin">
                        <use xlink:href="#rim" fill="#404040">
                                <set attributeName="fill" to="#808080" begin="zoomminus.mouseover" end="zoomminus.mouseout"/>
                        </use>
                        <path d="M-4,0h8" fill="none" stroke="white" stroke-width="1.5" pointer-events="none"/>
                </g>
                <g id="dirArrow">
                        <path fill="none" stroke="white" stroke-width="1.5" d="M0,-3.0v7 M-2.5,-0.5L0,-3.0L2.5,-0.5"/>
                </g>
               <g id="resetDef">
                       <use xlink:href="#rim2" fill="#404040">
                               <set attributeName="fill" to="#808080" begin="reset.mouseover" end="reset.mouseout"/>
                       </use>
               </g>
        </defs>

<script type="text/javascript">
var viewWidth = 1869;
var viewHeight = 506;
var sectionId = 'dynsection-0';
</script>
<script xlink:href="svgpan.js"/>
<svg id="graph" class="graph">
<g id="viewport">
<title>src/cinder/ImageIo.cpp</title>
<polygon fill="white" stroke="white" points="-4,5 -4,-502 1866,-502 1866,5 -4,5"/>
<!-- Node1 -->
<g id="node1" class="node"><title>Node1</title>
<polygon fill="#bfbfbf" stroke="black" points="1392.42,-477 1392.42,-497 1509.58,-497 1509.58,-477 1392.42,-477"/>
<text text-anchor="middle" x="1451" y="-483" font-family="Helvetica,sans-Serif" font-size="10.00">src/cinder/ImageIo.cpp</text>
</g>
<!-- Node2 -->
<g id="node2" class="node"><title>Node2</title>
<g id="a_node2"><a xlink:href="_image_io_8h.html" target="_top" xlink:title="cinder/ImageIo.h">
<polygon fill="white" stroke="black" points="955.756,-413 955.756,-433 1046.24,-433 1046.24,-413 955.756,-413"/>
<text text-anchor="middle" x="1001" y="-419" font-family="Helvetica,sans-Serif" font-size="10.00">cinder/ImageIo.h</text>
</a>
</g>
</g>
<!-- Node1&#45;&gt;Node2 -->
<g id="edge1" class="edge"><title>Node1&#45;&gt;Node2</title>
<path fill="none" stroke="midnightblue" d="M1392.17,-477.895C1304.72,-465.846 1141.6,-443.371 1056.26,-431.613"/>
<polygon fill="midnightblue" stroke="midnightblue" points="1056.63,-428.132 1046.25,-430.234 1055.68,-435.066 1056.63,-428.132"/>
</g>
<!-- Node38 -->
<g id="node38" class="node"><title>Node38</title>
<g id="a_node38"><a xlink:href="_utilities_8h.html" target="_top" xlink:title="cinder/Utilities.h">
<polygon fill="white" stroke="black" points="1642.71,-349 1642.71,-369 1729.29,-369 1729.29,-349 1642.71,-349"/>
<text text-anchor="middle" x="1686" y="-355" font-family="Helvetica,sans-Serif" font-size="10.00">cinder/Utilities.h</text>
</a>
</g>
</g>
<!-- Node1&#45;&gt;Node38 -->
<g id="edge69" class="edge"><title>Node1&#45;&gt;Node38</title>
<path fill="none" stroke="midnightblue" d="M1435.26,-476.956C1423.1,-468.98 1407.17,-456.124 1400,-440 1393.86,-426.193 1390.18,-417.485 1400,-406 1433.48,-366.848 1578.18,-378.451 1629,-370 1630.09,-369.819 1631.19,-369.635 1632.3,-369.448"/>
<polygon fill="midnightblue" stroke="midnightblue" points="1633.17,-372.85 1642.44,-367.723 1632,-365.949 1633.17,-372.85"/>
</g>
<!-- Node40 -->
<g id="node40" class="node"><title>Node40</title>
<polygon fill="white" stroke="#bfbfbf" points="1408.62,-413 1408.62,-433 1493.38,-433 1493.38,-413 1408.62,-413"/>
<text text-anchor="middle" x="1451" y="-419" font-family="Helvetica,sans-Serif" font-size="10.00">boost/utility.hpp</text>
</g>
<!-- Node1&#45;&gt;Node40 -->
<g id="edge76" class="edge"><title>Node1&#45;&gt;Node40</title>
<path fill="none" stroke="midnightblue" d="M1451,-476.852C1451,-468.06 1451,-454.498 1451,-443.313"/>
<polygon fill="midnightblue" stroke="midnightblue" points="1454.5,-443.186 1451,-433.186 1447.5,-443.186 1454.5,-443.186"/>
</g>
<!-- Node41 -->
<g id="node41" class="node"><title>Node41</title>
<polygon fill="white" stroke="#bfbfbf" points="1511.31,-407 1511.31,-439 1610.69,-439 1610.69,-407 1511.31,-407"/>
<text text-anchor="start" x="1519.31" y="-425" font-family="Helvetica,sans-Serif" font-size="10.00">boost/type_traits/is</text>
<text text-anchor="middle" x="1561" y="-413" font-family="Helvetica,sans-Serif" font-size="10.00">_same.hpp</text>
</g>
<!-- Node1&#45;&gt;Node41 -->
<g id="edge77" class="edge"><title>Node1&#45;&gt;Node41</title>
<path fill="none" stroke="midnightblue" d="M1467.23,-476.852C1482.4,-468.302 1505.57,-455.242 1525.08,-444.243"/>
<polygon fill="midnightblue" stroke="midnightblue" points="1527.04,-447.158 1534.03,-439.199 1523.6,-441.06 1527.04,-447.158"/>
</g>
<!-- Node42 -->
<g id="node42" class="node"><title>Node42</title>
<polygon fill="white" stroke="#bfbfbf" points="1628.55,-413 1628.55,-433 1673.45,-433 1673.45,-413 1628.55,-413"/>
<text text-anchor="middle" x="1651" y="-419" font-family="Helvetica,sans-Serif" font-size="10.00">cctype</text>
</g>
<!-- Node1&#45;&gt;Node42 -->
<g id="edge78" class="edge"><title>Node1&#45;&gt;Node42</title>
<path fill="none" stroke="midnightblue" d="M1492.81,-476.968C1527.25,-468.957 1577.06,-456.048 1619,-440 1621.07,-439.206 1623.19,-438.322 1625.3,-437.389"/>
<polygon fill="midnightblue" stroke="midnightblue" points="1626.8,-440.551 1634.34,-433.104 1623.8,-434.226 1626.8,-440.551"/>
</g>
<!-- Node3 -->
<g id="node3" class="node"><title>Node3</title>
<g id="a_node3"><a xlink:href="_cinder_8h.html" target="_top" xlink:title="cinder/Cinder.h">
<polygon fill="white" stroke="black" points="682.367,-59 682.367,-79 765.633,-79 765.633,-59 682.367,-59"/>
<text text-anchor="middle" x="724" y="-65" font-family="Helvetica,sans-Serif" font-size="10.00">cinder/Cinder.h</text>
</a>
</g>
</g>
<!-- Node2&#45;&gt;Node3 -->
<g id="edge2" class="edge"><title>Node2&#45;&gt;Node3</title>
<path fill="none" stroke="midnightblue" d="M972.772,-412.885C931.273,-398.11 853.874,-365.115 809,-312 751.227,-243.617 731.773,-133.397 726.083,-89.2201"/>
<polygon fill="midnightblue" stroke="midnightblue" points="729.528,-88.5517 724.869,-79.036 722.577,-89.3798 729.528,-88.5517"/>
</g>
<!-- Node7 -->
<g id="node7" class="node"><title>Node7</title>
<g id="a_node7"><a xlink:href="_data_source_8h.html" target="_top" xlink:title="cinder/DataSource.h">
<polygon fill="white" stroke="black" points="978.419,-291 978.419,-311 1085.58,-311 1085.58,-291 978.419,-291"/>
<text text-anchor="middle" x="1032" y="-297" font-family="Helvetica,sans-Serif" font-size="10.00">cinder/DataSource.h</text>
</a>
</g>
</g>
<!-- Node2&#45;&gt;Node7 -->
<g id="edge6" class="edge"><title>Node2&#45;&gt;Node7</title>
<path fill="none" stroke="midnightblue" d="M1003.33,-412.883C1006.9,-398.913 1013.95,-371.37 1020,-348 1022.3,-339.111 1024.87,-329.261 1027.04,-320.963"/>
<polygon fill="midnightblue" stroke="midnightblue" points="1030.45,-321.722 1029.6,-311.161 1023.68,-319.95 1030.45,-321.722"/>
</g>
<!-- Node20 -->
<g id="node20" class="node"><title>Node20</title>
<g id="a_node20"><a xlink:href="_data_target_8h.html" target="_top" xlink:title="cinder/DataTarget.h">
<polygon fill="white" stroke="black" points="818.365,-291 818.365,-311 921.635,-311 921.635,-291 818.365,-291"/>
<text text-anchor="middle" x="870" y="-297" font-family="Helvetica,sans-Serif" font-size="10.00">cinder/DataTarget.h</text>
</a>
</g>
</g>
<!-- Node2&#45;&gt;Node20 -->
<g id="edge29" class="edge"><title>Node2&#45;&gt;Node20</title>
<path fill="none" stroke="midnightblue" d="M991.154,-412.98C969.058,-392.74 915.283,-343.48 887.404,-317.943"/>
<polygon fill="midnightblue" stroke="midnightblue" points="889.699,-315.298 879.961,-311.124 884.97,-320.46 889.699,-315.298"/>
</g>
<!-- Node21 -->
<g id="node21" class="node"><title>Node21</title>
<g id="a_node21"><a xlink:href="_surface_8h.html" target="_top" xlink:title="cinder/Surface.h">
<polygon fill="white" stroke="black" points="435.591,-349 435.591,-369 524.409,-369 524.409,-349 435.591,-349"/>
<text text-anchor="middle" x="480" y="-355" font-family="Helvetica,sans-Serif" font-size="10.00">cinder/Surface.h</text>
</a>
</g>
</g>
<!-- Node2&#45;&gt;Node21 -->
<g id="edge34" class="edge"><title>Node2&#45;&gt;Node21</title>
<path fill="none" stroke="midnightblue" d="M955.676,-416.606C860.056,-405.227 638.009,-378.803 534.694,-366.509"/>
<polygon fill="midnightblue" stroke="midnightblue" points="534.823,-362.999 524.479,-365.293 533.995,-369.95 534.823,-362.999"/>
</g>
<!-- Node11 -->
<g id="node11" class="node"><title>Node11</title>
<g id="a_node11"><a xlink:href="_exception_8h.html" target="_top" xlink:title="cinder/Exception.h">
<polygon fill="white" stroke="black" points="1620.86,-117 1620.86,-137 1719.14,-137 1719.14,-117 1620.86,-117"/>
<text text-anchor="middle" x="1670" y="-123" font-family="Helvetica,sans-Serif" font-size="10.00">cinder/Exception.h</text>
</a>
</g>
</g>
<!-- Node2&#45;&gt;Node11 -->
<g id="edge65" class="edge"><title>Node2&#45;&gt;Node11</title>
<path fill="none" stroke="midnightblue" d="M1046.44,-420.363C1166.68,-414.805 1484,-391.644 1484,-302 1484,-302 1484,-302 1484,-242 1484,-181.565 1556.26,-152.178 1610.71,-138.615"/>
<polygon fill="midnightblue" stroke="midnightblue" points="1611.72,-141.972 1620.64,-136.263 1610.11,-135.16 1611.72,-141.972"/>
</g>
<!-- Node12 -->
<g id="node12" class="node"><title>Node12</title>
<polygon fill="white" stroke="#bfbfbf" points="1724.38,-59 1724.38,-79 1767.62,-79 1767.62,-59 1724.38,-59"/>
<text text-anchor="middle" x="1746" y="-65" font-family="Helvetica,sans-Serif" font-size="10.00">vector</text>
</g>
<!-- Node2&#45;&gt;Node12 -->
<g id="edge66" class="edge"><title>Node2&#45;&gt;Node12</title>
<path fill="none" stroke="midnightblue" d="M1046.54,-419.724C1143.5,-414.37 1367.19,-399.176 1437,-370 1589.61,-306.216 1637.6,-276.514 1728,-138 1737.59,-123.314 1742.08,-103.705 1744.18,-89.3193"/>
<polygon fill="midnightblue" stroke="midnightblue" points="1747.69,-89.4399 1745.4,-79.0952 1740.74,-88.6092 1747.69,-89.4399"/>
</g>
<!-- Node37 -->
<g id="node37" class="node"><title>Node37</title>
<polygon fill="white" stroke="#bfbfbf" points="1029.27,-349 1029.27,-369 1064.73,-369 1064.73,-349 1029.27,-349"/>
<text text-anchor="middle" x="1047" y="-355" font-family="Helvetica,sans-Serif" font-size="10.00">map</text>
</g>
<!-- Node2&#45;&gt;Node37 -->
<g id="edge67" class="edge"><title>Node2&#45;&gt;Node37</title>
<path fill="none" stroke="midnightblue" d="M1007.79,-412.852C1014.72,-403.511 1025.64,-388.784 1034.2,-377.246"/>
<polygon fill="midnightblue" stroke="midnightblue" points="1037.04,-379.302 1040.18,-369.186 1031.42,-375.131 1037.04,-379.302"/>
</g>
<!-- Node32 -->
<g id="node32" class="node"><title>Node32</title>
<polygon fill="white" stroke="#bfbfbf" points="629.608,-175 629.608,-195 668.392,-195 668.392,-175 629.608,-175"/>
<text text-anchor="middle" x="649" y="-181" font-family="Helvetica,sans-Serif" font-size="10.00">utility</text>
</g>
<!-- Node2&#45;&gt;Node32 -->
<g id="edge68" class="edge"><title>Node2&#45;&gt;Node32</title>
<path fill="none" stroke="midnightblue" d="M955.46,-422.791C903.108,-421.485 816.846,-412.314 758,-370 699.012,-327.584 666.516,-242.503 654.478,-204.766"/>
<polygon fill="midnightblue" stroke="midnightblue" points="657.78,-203.597 651.505,-195.061 651.087,-205.648 657.78,-203.597"/>
</g>
<!-- Node4 -->
<g id="node4" class="node"><title>Node4</title>
<polygon fill="white" stroke="#bfbfbf" points="613.549,-1 613.549,-21 658.451,-21 658.451,-1 613.549,-1"/>
<text text-anchor="middle" x="636" y="-7" font-family="Helvetica,sans-Serif" font-size="10.00">cstdint</text>
</g>
<!-- Node3&#45;&gt;Node4 -->
<g id="edge3" class="edge"><title>Node3&#45;&gt;Node4</title>
<path fill="none" stroke="midnightblue" d="M709.469,-58.7527C695.757,-50.0272 674.979,-36.8051 659.015,-26.6458"/>
<polygon fill="midnightblue" stroke="midnightblue" points="660.577,-23.4912 650.261,-21.0752 656.819,-29.3968 660.577,-23.4912"/>
</g>
<!-- Node5 -->
<g id="node5" class="node"><title>Node5</title>
<polygon fill="white" stroke="#bfbfbf" points="676.53,-1 676.53,-21 771.47,-21 771.47,-1 676.53,-1"/>
<text text-anchor="middle" x="724" y="-7" font-family="Helvetica,sans-Serif" font-size="10.00">boost/version.hpp</text>
</g>
<!-- Node3&#45;&gt;Node5 -->
<g id="edge4" class="edge"><title>Node3&#45;&gt;Node5</title>
<path fill="none" stroke="midnightblue" d="M724,-58.7527C724,-51.2504 724,-40.4238 724,-31.0781"/>
<polygon fill="midnightblue" stroke="midnightblue" points="727.5,-31.0752 724,-21.0752 720.5,-31.0752 727.5,-31.0752"/>
</g>
<!-- Node6 -->
<g id="node6" class="node"><title>Node6</title>
<polygon fill="white" stroke="#bfbfbf" points="789.621,-1 789.621,-21 922.379,-21 922.379,-1 789.621,-1"/>
<text text-anchor="middle" x="856" y="-7" font-family="Helvetica,sans-Serif" font-size="10.00">boost/checked_delete.hpp</text>
</g>
<!-- Node3&#45;&gt;Node6 -->
<g id="edge5" class="edge"><title>Node3&#45;&gt;Node6</title>
<path fill="none" stroke="midnightblue" d="M745.502,-58.878C767.172,-49.6848 800.821,-35.4095 825.295,-25.0263"/>
<polygon fill="midnightblue" stroke="midnightblue" points="826.668,-28.2457 834.507,-21.1181 823.935,-21.8016 826.668,-28.2457"/>
</g>
<!-- Node7&#45;&gt;Node3 -->
<g id="edge7" class="edge"><title>Node7&#45;&gt;Node3</title>
<path fill="none" stroke="midnightblue" d="M1021.89,-290.897C1006.94,-277.561 977.923,-252.114 952,-232 894.811,-187.627 877.986,-179.955 819,-138 793.459,-119.834 764.138,-98.822 744.907,-85.0192"/>
<polygon fill="midnightblue" stroke="midnightblue" points="746.748,-82.0327 736.584,-79.0436 742.666,-87.719 746.748,-82.0327"/>
</g>
<!-- Node8 -->
<g id="node8" class="node"><title>Node8</title>
<g id="a_node8"><a xlink:href="_url_8h.html" target="_top" xlink:title="cinder/Url.h">
<polygon fill="white" stroke="black" points="876.436,-233 876.436,-253 943.564,-253 943.564,-233 876.436,-233"/>
<text text-anchor="middle" x="910" y="-239" font-family="Helvetica,sans-Serif" font-size="10.00">cinder/Url.h</text>
</a>
</g>
</g>
<!-- Node7&#45;&gt;Node8 -->
<g id="edge8" class="edge"><title>Node7&#45;&gt;Node8</title>
<path fill="none" stroke="midnightblue" d="M1012.13,-290.878C992.276,-281.766 961.549,-267.662 938.981,-257.303"/>
<polygon fill="midnightblue" stroke="midnightblue" points="940.413,-254.109 929.864,-253.118 937.493,-260.471 940.413,-254.109"/>
</g>
<!-- Node10 -->
<g id="node10" class="node"><title>Node10</title>
<g id="a_node10"><a xlink:href="_buffer_8h.html" target="_top" xlink:title="cinder/Buffer.h">
<polygon fill="white" stroke="black" points="1484.84,-117 1484.84,-137 1565.16,-137 1565.16,-117 1484.84,-117"/>
<text text-anchor="middle" x="1525" y="-123" font-family="Helvetica,sans-Serif" font-size="10.00">cinder/Buffer.h</text>
</a>
</g>
</g>
<!-- Node7&#45;&gt;Node10 -->
<g id="edge26" class="edge"><title>Node7&#45;&gt;Node10</title>
<path fill="none" stroke="midnightblue" d="M1057.81,-290.995C1139.91,-262.351 1395.16,-173.298 1489.49,-140.388"/>
<polygon fill="midnightblue" stroke="midnightblue" points="1490.86,-143.618 1499.15,-137.02 1488.55,-137.009 1490.86,-143.618"/>
</g>
<!-- Node9 -->
<g id="node9" class="node"><title>Node9</title>
<g id="a_node9"><a xlink:href="_stream_8h.html" target="_top" xlink:title="cinder/Stream.h">
<polygon fill="white" stroke="black" points="1054.71,-175 1054.71,-195 1141.29,-195 1141.29,-175 1054.71,-175"/>
<text text-anchor="middle" x="1098" y="-181" font-family="Helvetica,sans-Serif" font-size="10.00">cinder/Stream.h</text>
</a>
</g>
</g>
<!-- Node7&#45;&gt;Node9 -->
<g id="edge27" class="edge"><title>Node7&#45;&gt;Node9</title>
<path fill="none" stroke="midnightblue" d="M1041.65,-290.907C1050.51,-282.141 1063.51,-268.157 1072,-254 1081.33,-238.455 1088.37,-218.982 1092.75,-204.863"/>
<polygon fill="midnightblue" stroke="midnightblue" points="1096.11,-205.845 1095.58,-195.263 1089.4,-203.865 1096.11,-205.845"/>
</g>
<!-- Node14 -->
<g id="node14" class="node"><title>Node14</title>
<g id="a_node14"><a xlink:href="_filesystem_8h.html" target="_top" xlink:title="cinder/Filesystem.h">
<polygon fill="white" stroke="black" points="827.931,-117 827.931,-137 930.069,-137 930.069,-117 827.931,-117"/>
<text text-anchor="middle" x="879" y="-123" font-family="Helvetica,sans-Serif" font-size="10.00">cinder/Filesystem.h</text>
</a>
</g>
</g>
<!-- Node7&#45;&gt;Node14 -->
<g id="edge28" class="edge"><title>Node7&#45;&gt;Node14</title>
<path fill="none" stroke="midnightblue" d="M1026.6,-290.779C1018.52,-277.297 1002.47,-251.669 986,-232 957.683,-198.188 919.706,-163.352 897.442,-143.808"/>
<polygon fill="midnightblue" stroke="midnightblue" points="899.573,-141.023 889.731,-137.1 894.979,-146.304 899.573,-141.023"/>
</g>
<!-- Node8&#45;&gt;Node3 -->
<g id="edge9" class="edge"><title>Node8&#45;&gt;Node3</title>
<path fill="none" stroke="midnightblue" d="M897.924,-232.753C875.213,-215.174 824.927,-175.349 786,-138 768.816,-121.513 750.623,-101.171 738.422,-87.0529"/>
<polygon fill="midnightblue" stroke="midnightblue" points="740.824,-84.4772 731.662,-79.157 735.507,-89.0296 740.824,-84.4772"/>
</g>
<!-- Node8&#45;&gt;Node9 -->
<g id="edge10" class="edge"><title>Node8&#45;&gt;Node9</title>
<path fill="none" stroke="midnightblue" d="M940.624,-232.878C972.537,-223.372 1022.69,-208.432 1057.78,-197.98"/>
<polygon fill="midnightblue" stroke="midnightblue" points="1059.12,-201.234 1067.7,-195.025 1057.12,-194.526 1059.12,-201.234"/>
</g>
<!-- Node19 -->
<g id="node19" class="node"><title>Node19</title>
<polygon fill="white" stroke="#bfbfbf" points="565.828,-117 565.828,-137 620.172,-137 620.172,-117 565.828,-117"/>
<text text-anchor="middle" x="593" y="-123" font-family="Helvetica,sans-Serif" font-size="10.00">iostream</text>
</g>
<!-- Node8&#45;&gt;Node19 -->
<g id="edge25" class="edge"><title>Node8&#45;&gt;Node19</title>
<path fill="none" stroke="midnightblue" d="M884.861,-232.959C828.564,-212.714 692.265,-163.698 627.841,-140.53"/>
<polygon fill="midnightblue" stroke="midnightblue" points="628.736,-137.132 618.142,-137.042 626.368,-143.719 628.736,-137.132"/>
</g>
<!-- Node9&#45;&gt;Node3 -->
<g id="edge11" class="edge"><title>Node9&#45;&gt;Node3</title>
<path fill="none" stroke="midnightblue" d="M1079.84,-174.856C1050.76,-160.533 991.651,-132.718 939,-116 884.322,-98.6384 819.742,-85.8075 775.732,-78.1716"/>
<polygon fill="midnightblue" stroke="midnightblue" points="776.283,-74.715 765.836,-76.482 775.105,-81.6152 776.283,-74.715"/>
</g>
<!-- Node9&#45;&gt;Node10 -->
<g id="edge12" class="edge"><title>Node9&#45;&gt;Node10</title>
<path fill="none" stroke="midnightblue" d="M1141.4,-179.787C1209.92,-172.901 1347.51,-158.112 1474.74,-137.93"/>
<polygon fill="midnightblue" stroke="midnightblue" points="1475.34,-141.378 1484.66,-136.342 1474.23,-134.466 1475.34,-141.378"/>
</g>
<!-- Node9&#45;&gt;Node11 -->
<g id="edge14" class="edge"><title>Node9&#45;&gt;Node11</title>
<path fill="none" stroke="midnightblue" d="M1141.34,-181.071C1229.32,-174.909 1435.08,-159.388 1607,-138 1608.27,-137.842 1609.55,-137.679 1610.84,-137.51"/>
<polygon fill="midnightblue" stroke="midnightblue" points="1611.44,-140.96 1620.86,-136.127 1610.48,-134.026 1611.44,-140.96"/>
</g>
<!-- Node9&#45;&gt;Node14 -->
<g id="edge18" class="edge"><title>Node9&#45;&gt;Node14</title>
<path fill="none" stroke="midnightblue" d="M1062.33,-174.878C1024.59,-165.229 964.964,-149.982 924.019,-139.512"/>
<polygon fill="midnightblue" stroke="midnightblue" points="924.851,-136.112 914.295,-137.025 923.117,-142.894 924.851,-136.112"/>
</g>
<!-- Node16 -->
<g id="node16" class="node"><title>Node16</title>
<polygon fill="white" stroke="#bfbfbf" points="1347.29,-117 1347.29,-137 1466.71,-137 1466.71,-117 1347.29,-117"/>
<text text-anchor="middle" x="1407" y="-123" font-family="Helvetica,sans-Serif" font-size="10.00">boost/noncopyable.hpp</text>
</g>
<!-- Node9&#45;&gt;Node16 -->
<g id="edge21" class="edge"><title>Node9&#45;&gt;Node16</title>
<path fill="none" stroke="midnightblue" d="M1141.62,-176.095C1195.32,-166.362 1286.81,-149.783 1347.08,-138.86"/>
<polygon fill="midnightblue" stroke="midnightblue" points="1348,-142.25 1357.21,-137.023 1346.75,-135.362 1348,-142.25"/>
</g>
<!-- Node13 -->
<g id="node13" class="node"><title>Node13</title>
<polygon fill="white" stroke="#bfbfbf" points="1610.77,-59 1610.77,-79 1651.23,-79 1651.23,-59 1610.77,-59"/>
<text text-anchor="middle" x="1631" y="-65" font-family="Helvetica,sans-Serif" font-size="10.00">string</text>
</g>
<!-- Node9&#45;&gt;Node13 -->
<g id="edge22" class="edge"><title>Node9&#45;&gt;Node13</title>
<path fill="none" stroke="midnightblue" d="M1141.55,-183.948C1244.45,-183.17 1499.53,-177.22 1574,-138 1594.99,-126.943 1611.36,-104.574 1621.07,-88.5084"/>
<polygon fill="midnightblue" stroke="midnightblue" points="1624.31,-89.8956 1626.23,-79.4774 1618.23,-86.4203 1624.31,-89.8956"/>
</g>
<!-- Node17 -->
<g id="node17" class="node"><title>Node17</title>
<polygon fill="white" stroke="#bfbfbf" points="1023.57,-117 1023.57,-137 1172.43,-137 1172.43,-117 1023.57,-117"/>
<text text-anchor="middle" x="1098" y="-123" font-family="Helvetica,sans-Serif" font-size="10.00">boost/iostreams/concepts.hpp</text>
</g>
<!-- Node9&#45;&gt;Node17 -->
<g id="edge23" class="edge"><title>Node9&#45;&gt;Node17</title>
<path fill="none" stroke="midnightblue" d="M1098,-174.753C1098,-167.25 1098,-156.424 1098,-147.078"/>
<polygon fill="midnightblue" stroke="midnightblue" points="1101.5,-147.075 1098,-137.075 1094.5,-147.075 1101.5,-147.075"/>
</g>
<!-- Node18 -->
<g id="node18" class="node"><title>Node18</title>
<polygon fill="white" stroke="#bfbfbf" points="1190.31,-117 1190.31,-137 1329.69,-137 1329.69,-117 1190.31,-117"/>
<text text-anchor="middle" x="1260" y="-123" font-family="Helvetica,sans-Serif" font-size="10.00">boost/iostreams/stream.hpp</text>
</g>
<!-- Node9&#45;&gt;Node18 -->
<g id="edge24" class="edge"><title>Node9&#45;&gt;Node18</title>
<path fill="none" stroke="midnightblue" d="M1124.39,-174.878C1151.53,-165.494 1194,-150.815 1224.17,-140.386"/>
<polygon fill="midnightblue" stroke="midnightblue" points="1225.58,-143.6 1233.89,-137.025 1223.3,-136.985 1225.58,-143.6"/>
</g>
<!-- Node10&#45;&gt;Node3 -->
<g id="edge13" class="edge"><title>Node10&#45;&gt;Node3</title>
<path fill="none" stroke="midnightblue" d="M1484.69,-117.425C1481.42,-116.886 1478.16,-116.4 1475,-116 1184,-79.1431 1108.35,-103.857 816,-80 803.112,-78.9483 789.234,-77.5695 776.263,-76.1732"/>
<polygon fill="midnightblue" stroke="midnightblue" points="776.413,-72.6687 766.091,-75.0555 775.649,-79.6268 776.413,-72.6687"/>
</g>
<!-- Node11&#45;&gt;Node3 -->
<g id="edge15" class="edge"><title>Node11&#45;&gt;Node3</title>
<path fill="none" stroke="midnightblue" d="M1620.72,-120.328C1605.73,-118.749 1589.21,-117.152 1574,-116 1237.7,-90.5184 1152.25,-106.235 816,-80 803.108,-78.9942 789.229,-77.6324 776.258,-76.2378"/>
<polygon fill="midnightblue" stroke="midnightblue" points="776.409,-72.7334 766.086,-75.1186 775.643,-79.6914 776.409,-72.7334"/>
</g>
<!-- Node11&#45;&gt;Node12 -->
<g id="edge16" class="edge"><title>Node11&#45;&gt;Node12</title>
<path fill="none" stroke="midnightblue" d="M1682.55,-116.753C1694.17,-108.19 1711.67,-95.2978 1725.35,-85.2186"/>
<polygon fill="midnightblue" stroke="midnightblue" points="1727.71,-87.8249 1733.68,-79.0752 1723.56,-82.1895 1727.71,-87.8249"/>
</g>
<!-- Node11&#45;&gt;Node13 -->
<g id="edge17" class="edge"><title>Node11&#45;&gt;Node13</title>
<path fill="none" stroke="midnightblue" d="M1663.56,-116.753C1658.05,-108.843 1649.97,-97.2372 1643.24,-87.5683"/>
<polygon fill="midnightblue" stroke="midnightblue" points="1645.91,-85.281 1637.32,-79.0752 1640.16,-89.2815 1645.91,-85.281"/>
</g>
<!-- Node14&#45;&gt;Node3 -->
<g id="edge19" class="edge"><title>Node14&#45;&gt;Node3</title>
<path fill="none" stroke="midnightblue" d="M853.752,-116.878C827.892,-107.535 787.503,-92.943 758.659,-82.522"/>
<polygon fill="midnightblue" stroke="midnightblue" points="759.575,-79.1316 748.981,-79.0253 757.196,-85.7151 759.575,-79.1316"/>
</g>
<!-- Node15 -->
<g id="node15" class="node"><title>Node15</title>
<polygon fill="white" stroke="#bfbfbf" points="825.421,-59 825.421,-79 932.579,-79 932.579,-59 825.421,-59"/>
<text text-anchor="middle" x="879" y="-65" font-family="Helvetica,sans-Serif" font-size="10.00">boost/filesystem.hpp</text>
</g>
<!-- Node14&#45;&gt;Node15 -->
<g id="edge20" class="edge"><title>Node14&#45;&gt;Node15</title>
<path fill="none" stroke="midnightblue" d="M879,-116.753C879,-109.25 879,-98.4238 879,-89.0781"/>
<polygon fill="midnightblue" stroke="midnightblue" points="882.5,-89.0752 879,-79.0752 875.5,-89.0752 882.5,-89.0752"/>
</g>
<!-- Node20&#45;&gt;Node3 -->
<g id="edge30" class="edge"><title>Node20&#45;&gt;Node3</title>
<path fill="none" stroke="midnightblue" d="M862.264,-290.7C854.77,-281.557 843.217,-267.107 834,-254 798.961,-204.172 791.795,-190.558 761,-138 751.268,-121.39 740.843,-102.08 733.548,-88.2903"/>
<polygon fill="midnightblue" stroke="midnightblue" points="736.595,-86.565 728.843,-79.3428 730.399,-89.8227 736.595,-86.565"/>
</g>
<!-- Node20&#45;&gt;Node8 -->
<g id="edge31" class="edge"><title>Node20&#45;&gt;Node8</title>
<path fill="none" stroke="midnightblue" d="M876.605,-290.753C882.313,-282.761 890.716,-270.998 897.664,-261.27"/>
<polygon fill="midnightblue" stroke="midnightblue" points="900.553,-263.247 903.518,-253.075 894.857,-259.178 900.553,-263.247"/>
</g>
<!-- Node20&#45;&gt;Node9 -->
<g id="edge32" class="edge"><title>Node20&#45;&gt;Node9</title>
<path fill="none" stroke="midnightblue" d="M888.273,-290.864C928.311,-270.844 1023.95,-223.027 1070.97,-199.517"/>
<polygon fill="midnightblue" stroke="midnightblue" points="1072.58,-202.624 1079.96,-195.022 1069.45,-196.363 1072.58,-202.624"/>
</g>
<!-- Node20&#45;&gt;Node13 -->
<g id="edge33" class="edge"><title>Node20&#45;&gt;Node13</title>
<path fill="none" stroke="midnightblue" d="M866.902,-290.636C862.956,-276.974 857.69,-251.125 867,-232 903.578,-156.855 937.071,-146.195 1015,-116 1123.64,-73.9049 1491.64,-70.1291 1600.45,-69.9497"/>
<polygon fill="midnightblue" stroke="midnightblue" points="1600.73,-73.4497 1610.73,-69.9426 1600.72,-66.4497 1600.73,-73.4497"/>
</g>
<!-- Node21&#45;&gt;Node3 -->
<g id="edge35" class="edge"><title>Node21&#45;&gt;Node3</title>
<path fill="none" stroke="midnightblue" d="M435.449,-351.567C347.931,-337.674 162,-301.402 162,-244 162,-244 162,-244 162,-184 162,-80.5431 532.421,-69.9319 671.805,-69.6012"/>
<polygon fill="midnightblue" stroke="midnightblue" points="672.22,-73.101 682.218,-69.5948 672.216,-66.101 672.22,-73.101"/>
</g>
<!-- Node22 -->
<g id="node22" class="node"><title>Node22</title>
<g id="a_node22"><a xlink:href="_area_8h.html" target="_top" xlink:title="cinder/Area.h">
<polygon fill="white" stroke="black" points="526.261,-233 526.261,-253 601.739,-253 601.739,-233 526.261,-233"/>
<text text-anchor="middle" x="564" y="-239" font-family="Helvetica,sans-Serif" font-size="10.00">cinder/Area.h</text>
</a>
</g>
</g>
<!-- Node21&#45;&gt;Node22 -->
<g id="edge36" class="edge"><title>Node21&#45;&gt;Node22</title>
<path fill="none" stroke="midnightblue" d="M524.479,-354.211C552.602,-349.247 586.941,-337.888 605,-312 617.089,-294.669 600.003,-273.714 584.345,-259.687"/>
<polygon fill="midnightblue" stroke="midnightblue" points="586.353,-256.803 576.449,-253.04 581.844,-262.158 586.353,-256.803"/>
</g>
<!-- Node33 -->
<g id="node33" class="node"><title>Node33</title>
<g id="a_node33"><a xlink:href="_channel_8h.html" target="_top" xlink:title="cinder/Channel.h">
<polygon fill="white" stroke="black" points="374.197,-291 374.197,-311 465.803,-311 465.803,-291 374.197,-291"/>
<text text-anchor="middle" x="420" y="-297" font-family="Helvetica,sans-Serif" font-size="10.00">cinder/Channel.h</text>
</a>
</g>
</g>
<!-- Node21&#45;&gt;Node33 -->
<g id="edge53" class="edge"><title>Node21&#45;&gt;Node33</title>
<path fill="none" stroke="midnightblue" d="M470.092,-348.753C461.18,-340.435 447.89,-328.031 437.238,-318.089"/>
<polygon fill="midnightblue" stroke="midnightblue" points="439.422,-315.34 429.723,-311.075 434.646,-320.457 439.422,-315.34"/>
</g>
<!-- Node34 -->
<g id="node34" class="node"><title>Node34</title>
<g id="a_node34"><a xlink:href="_chan_traits_8h.html" target="_top" xlink:title="cinder/ChanTraits.h">
<polygon fill="white" stroke="black" points="294.553,-175 294.553,-195 397.447,-195 397.447,-175 294.553,-175"/>
<text text-anchor="middle" x="346" y="-181" font-family="Helvetica,sans-Serif" font-size="10.00">cinder/ChanTraits.h</text>
</a>
</g>
</g>
<!-- Node21&#45;&gt;Node34 -->
<g id="edge56" class="edge"><title>Node21&#45;&gt;Node34</title>
<path fill="none" stroke="midnightblue" d="M435.319,-351.181C410.842,-345.074 382.092,-333.574 365,-312 340.479,-281.048 340.916,-232.001 343.428,-205.141"/>
<polygon fill="midnightblue" stroke="midnightblue" points="346.917,-205.436 344.565,-195.106 339.961,-204.648 346.917,-205.436"/>
</g>
<!-- Node35 -->
<g id="node35" class="node"><title>Node35</title>
<g id="a_node35"><a xlink:href="_color_8h.html" target="_top" xlink:title="cinder/Color.h">
<polygon fill="white" stroke="black" points="240.148,-233 240.148,-253 317.852,-253 317.852,-233 240.148,-233"/>
<text text-anchor="middle" x="279" y="-239" font-family="Helvetica,sans-Serif" font-size="10.00">cinder/Color.h</text>
</a>
</g>
</g>
<!-- Node21&#45;&gt;Node35 -->
<g id="edge58" class="edge"><title>Node21&#45;&gt;Node35</title>
<path fill="none" stroke="midnightblue" d="M435.46,-351.423C404.341,-345.175 362.983,-333.426 332,-312 313.418,-299.15 298.324,-277.814 289.064,-262.466"/>
<polygon fill="midnightblue" stroke="midnightblue" points="291.865,-260.315 283.844,-253.394 285.798,-263.807 291.865,-260.315"/>
</g>
<!-- Node21&#45;&gt;Node14 -->
<g id="edge63" class="edge"><title>Node21&#45;&gt;Node14</title>
<path fill="none" stroke="midnightblue" d="M518.627,-348.943C547.919,-341.264 588.685,-328.811 622,-312 719.421,-262.842 820.563,-179.031 860.863,-144.063"/>
<polygon fill="midnightblue" stroke="midnightblue" points="863.29,-146.59 868.516,-137.373 858.683,-141.32 863.29,-146.59"/>
</g>
<!-- Node36 -->
<g id="node36" class="node"><title>Node36</title>
<polygon fill="white" stroke="#bfbfbf" points="483.357,-291 483.357,-311 596.643,-311 596.643,-291 483.357,-291"/>
<text text-anchor="middle" x="540" y="-297" font-family="Helvetica,sans-Serif" font-size="10.00">boost/logic/tribool.hpp</text>
</g>
<!-- Node21&#45;&gt;Node36 -->
<g id="edge64" class="edge"><title>Node21&#45;&gt;Node36</title>
<path fill="none" stroke="midnightblue" d="M489.908,-348.753C498.82,-340.435 512.11,-328.031 522.762,-318.089"/>
<polygon fill="midnightblue" stroke="midnightblue" points="525.354,-320.457 530.277,-311.075 520.578,-315.34 525.354,-320.457"/>
</g>
<!-- Node22&#45;&gt;Node3 -->
<g id="edge37" class="edge"><title>Node22&#45;&gt;Node3</title>
<path fill="none" stroke="midnightblue" d="M559.898,-232.916C550.442,-210.455 529.916,-151.553 557,-116 571.033,-97.5795 628.618,-84.6745 672.278,-77.3153"/>
<polygon fill="midnightblue" stroke="midnightblue" points="672.894,-80.7612 682.2,-75.6966 671.767,-73.8525 672.894,-80.7612"/>
</g>
<!-- Node23 -->
<g id="node23" class="node"><title>Node23</title>
<g id="a_node23"><a xlink:href="_vector_8h.html" target="_top" xlink:title="cinder/Vector.h">
<polygon fill="white" stroke="black" points="415.919,-175 415.919,-195 498.081,-195 498.081,-175 415.919,-175"/>
<text text-anchor="middle" x="457" y="-181" font-family="Helvetica,sans-Serif" font-size="10.00">cinder/Vector.h</text>
</a>
</g>
</g>
<!-- Node22&#45;&gt;Node23 -->
<g id="edge38" class="edge"><title>Node22&#45;&gt;Node23</title>
<path fill="none" stroke="midnightblue" d="M546.331,-232.753C529.192,-223.783 502.972,-210.06 483.365,-199.799"/>
<polygon fill="midnightblue" stroke="midnightblue" points="484.823,-196.611 474.34,-195.075 481.577,-202.813 484.823,-196.611"/>
</g>
<!-- Node22&#45;&gt;Node19 -->
<g id="edge50" class="edge"><title>Node22&#45;&gt;Node19</title>
<path fill="none" stroke="midnightblue" d="M566.373,-232.671C571.112,-214.041 581.833,-171.898 588.13,-147.143"/>
<polygon fill="midnightblue" stroke="midnightblue" points="591.602,-147.694 590.675,-137.139 584.818,-145.968 591.602,-147.694"/>
</g>
<!-- Node22&#45;&gt;Node32 -->
<g id="edge51" class="edge"><title>Node22&#45;&gt;Node32</title>
<path fill="none" stroke="midnightblue" d="M578.036,-232.753C591.28,-224.027 611.349,-210.805 626.77,-200.646"/>
<polygon fill="midnightblue" stroke="midnightblue" points="628.8,-203.5 635.225,-195.075 624.949,-197.654 628.8,-203.5"/>
</g>
<!-- Node22&#45;&gt;Node12 -->
<g id="edge52" class="edge"><title>Node22&#45;&gt;Node12</title>
<path fill="none" stroke="midnightblue" d="M569.36,-232.57C578.209,-217.854 597.277,-189.511 621,-174 697.749,-123.819 728.531,-130.959 819,-116 1188.11,-54.9674 1287.05,-109.625 1660,-80 1677.95,-78.5745 1697.92,-76.2941 1714.1,-74.2707"/>
<polygon fill="midnightblue" stroke="midnightblue" points="1714.65,-77.7291 1724.13,-72.9897 1713.76,-70.7855 1714.65,-77.7291"/>
</g>
<!-- Node24 -->
<g id="node24" class="node"><title>Node24</title>
<polygon fill="white" stroke="#bfbfbf" points="205.384,-59 205.384,-79 248.616,-79 248.616,-59 205.384,-59"/>
<text text-anchor="middle" x="227" y="-65" font-family="Helvetica,sans-Serif" font-size="10.00">cmath</text>
</g>
<!-- Node23&#45;&gt;Node24 -->
<g id="edge39" class="edge"><title>Node23&#45;&gt;Node24</title>
<path fill="none" stroke="midnightblue" d="M427.189,-174.945C401.591,-166.702 364.024,-153.48 333,-138 301.813,-122.439 268.365,-99.8908 247.564,-85.0906"/>
<polygon fill="midnightblue" stroke="midnightblue" points="249.37,-82.078 239.209,-79.077 245.28,-87.7594 249.37,-82.078"/>
</g>
<!-- Node25 -->
<g id="node25" class="node"><title>Node25</title>
<polygon fill="white" stroke="#bfbfbf" points="398.273,-117 398.273,-137 443.727,-137 443.727,-117 398.273,-117"/>
<text text-anchor="middle" x="421" y="-123" font-family="Helvetica,sans-Serif" font-size="10.00">cstring</text>
</g>
<!-- Node23&#45;&gt;Node25 -->
<g id="edge40" class="edge"><title>Node23&#45;&gt;Node25</title>
<path fill="none" stroke="midnightblue" d="M451.055,-174.753C445.97,-166.843 438.51,-155.237 432.294,-145.568"/>
<polygon fill="midnightblue" stroke="midnightblue" points="435.186,-143.594 426.834,-137.075 429.298,-147.38 435.186,-143.594"/>
</g>
<!-- Node23&#45;&gt;Node19 -->
<g id="edge41" class="edge"><title>Node23&#45;&gt;Node19</title>
<path fill="none" stroke="midnightblue" d="M479.153,-174.878C501.48,-165.685 536.148,-151.409 561.365,-141.026"/>
<polygon fill="midnightblue" stroke="midnightblue" points="562.942,-144.162 570.856,-137.118 560.277,-137.689 562.942,-144.162"/>
</g>
<!-- Node26 -->
<g id="node26" class="node"><title>Node26</title>
<polygon fill="white" stroke="#bfbfbf" points="461.884,-117 461.884,-137 510.116,-137 510.116,-117 461.884,-117"/>
<text text-anchor="middle" x="486" y="-123" font-family="Helvetica,sans-Serif" font-size="10.00">cassert</text>
</g>
<!-- Node23&#45;&gt;Node26 -->
<g id="edge42" class="edge"><title>Node23&#45;&gt;Node26</title>
<path fill="none" stroke="midnightblue" d="M461.789,-174.753C465.801,-167.006 471.648,-155.714 476.591,-146.169"/>
<polygon fill="midnightblue" stroke="midnightblue" points="479.81,-147.565 481.3,-137.075 473.594,-144.346 479.81,-147.565"/>
</g>
<!-- Node27 -->
<g id="node27" class="node"><title>Node27</title>
<polygon fill="white" stroke="#bfbfbf" points="341.613,-117 341.613,-137 380.387,-137 380.387,-117 341.613,-117"/>
<text text-anchor="middle" x="361" y="-123" font-family="Helvetica,sans-Serif" font-size="10.00">limits</text>
</g>
<!-- Node23&#45;&gt;Node27 -->
<g id="edge43" class="edge"><title>Node23&#45;&gt;Node27</title>
<path fill="none" stroke="midnightblue" d="M441.148,-174.753C426.05,-165.946 403.099,-152.558 385.62,-142.362"/>
<polygon fill="midnightblue" stroke="midnightblue" points="386.959,-139.091 376.557,-137.075 383.432,-145.137 386.959,-139.091"/>
</g>
<!-- Node28 -->
<g id="node28" class="node"><title>Node28</title>
<g id="a_node28"><a xlink:href="_cinder_math_8h.html" target="_top" xlink:title="cinder/CinderMath.h">
<polygon fill="white" stroke="black" points="27.978,-117 27.978,-137 134.022,-137 134.022,-117 27.978,-117"/>
<text text-anchor="middle" x="81" y="-123" font-family="Helvetica,sans-Serif" font-size="10.00">cinder/CinderMath.h</text>
</a>
</g>
</g>
<!-- Node23&#45;&gt;Node28 -->
<g id="edge44" class="edge"><title>Node23&#45;&gt;Node28</title>
<path fill="none" stroke="midnightblue" d="M415.838,-175.735C412.514,-175.126 409.203,-174.54 406,-174 315.324,-158.704 209.83,-144.414 144.226,-135.94"/>
<polygon fill="midnightblue" stroke="midnightblue" points="144.413,-132.435 134.048,-134.63 143.52,-139.378 144.413,-132.435"/>
</g>
<!-- Node28&#45;&gt;Node3 -->
<g id="edge45" class="edge"><title>Node28&#45;&gt;Node3</title>
<path fill="none" stroke="midnightblue" d="M134.35,-117.701C138.962,-117.086 143.56,-116.508 148,-116 340.764,-93.9437 571.026,-78.9588 672.105,-72.9496"/>
<polygon fill="midnightblue" stroke="midnightblue" points="672.567,-76.4285 682.343,-72.3454 672.154,-69.4406 672.567,-76.4285"/>
</g>
<!-- Node28&#45;&gt;Node24 -->
<g id="edge46" class="edge"><title>Node28&#45;&gt;Node24</title>
<path fill="none" stroke="midnightblue" d="M104.782,-116.878C129.538,-107.383 168.429,-92.4655 195.674,-82.0153"/>
<polygon fill="midnightblue" stroke="midnightblue" points="197.054,-85.2348 205.137,-78.3857 194.547,-78.6991 197.054,-85.2348"/>
</g>
<!-- Node29 -->
<g id="node29" class="node"><title>Node29</title>
<polygon fill="white" stroke="#bfbfbf" points="-0.886719,-59 -0.886719,-79 42.8867,-79 42.8867,-59 -0.886719,-59"/>
<text text-anchor="middle" x="21" y="-65" font-family="Helvetica,sans-Serif" font-size="10.00">climits</text>
</g>
<!-- Node28&#45;&gt;Node29 -->
<g id="edge47" class="edge"><title>Node28&#45;&gt;Node29</title>
<path fill="none" stroke="midnightblue" d="M71.0922,-116.753C62.1803,-108.435 48.8903,-96.031 38.2385,-86.0893"/>
<polygon fill="midnightblue" stroke="midnightblue" points="40.4221,-83.3397 30.7234,-79.0752 35.6459,-88.4571 40.4221,-83.3397"/>
</g>
<!-- Node30 -->
<g id="node30" class="node"><title>Node30</title>
<polygon fill="white" stroke="#bfbfbf" points="61.0493,-59 61.0493,-79 100.951,-79 100.951,-59 61.0493,-59"/>
<text text-anchor="middle" x="81" y="-65" font-family="Helvetica,sans-Serif" font-size="10.00">cfloat</text>
</g>
<!-- Node28&#45;&gt;Node30 -->
<g id="edge48" class="edge"><title>Node28&#45;&gt;Node30</title>
<path fill="none" stroke="midnightblue" d="M81,-116.753C81,-109.25 81,-98.4238 81,-89.0781"/>
<polygon fill="midnightblue" stroke="midnightblue" points="84.5001,-89.0752 81,-79.0752 77.5001,-89.0752 84.5001,-89.0752"/>
</g>
<!-- Node31 -->
<g id="node31" class="node"><title>Node31</title>
<polygon fill="white" stroke="#bfbfbf" points="118.596,-59 118.596,-79 177.404,-79 177.404,-59 118.596,-59"/>
<text text-anchor="middle" x="148" y="-65" font-family="Helvetica,sans-Serif" font-size="10.00">functional</text>
</g>
<!-- Node28&#45;&gt;Node31 -->
<g id="edge49" class="edge"><title>Node28&#45;&gt;Node31</title>
<path fill="none" stroke="midnightblue" d="M92.0637,-116.753C102.21,-108.272 117.44,-95.543 129.447,-85.5073"/>
<polygon fill="midnightblue" stroke="midnightblue" points="131.714,-88.1738 137.142,-79.0752 127.225,-82.8028 131.714,-88.1738"/>
</g>
<!-- Node33&#45;&gt;Node3 -->
<g id="edge54" class="edge"><title>Node33&#45;&gt;Node3</title>
<path fill="none" stroke="midnightblue" d="M374.12,-295.282C323.994,-289.068 248.475,-276.238 231,-254 193.494,-206.27 163.846,-203.375 298,-116 358.504,-76.5936 572.216,-70.5003 671.982,-69.8567"/>
<polygon fill="midnightblue" stroke="midnightblue" points="672.151,-73.356 682.134,-69.8076 672.117,-66.3561 672.151,-73.356"/>
</g>
<!-- Node33&#45;&gt;Node22 -->
<g id="edge55" class="edge"><title>Node33&#45;&gt;Node22</title>
<path fill="none" stroke="midnightblue" d="M443.457,-290.878C467.305,-281.603 504.455,-267.156 531.21,-256.752"/>
<polygon fill="midnightblue" stroke="midnightblue" points="532.502,-260.005 540.553,-253.118 529.965,-253.481 532.502,-260.005"/>
</g>
<!-- Node34&#45;&gt;Node3 -->
<g id="edge57" class="edge"><title>Node34&#45;&gt;Node3</title>
<path fill="none" stroke="midnightblue" d="M340.006,-174.811C331.449,-160.425 318.304,-132.526 333,-116 355.175,-91.0629 571.064,-77.4028 672.207,-72.3265"/>
<polygon fill="midnightblue" stroke="midnightblue" points="672.393,-75.8217 682.209,-71.8338 672.049,-68.8301 672.393,-75.8217"/>
</g>
<!-- Node35&#45;&gt;Node3 -->
<g id="edge59" class="edge"><title>Node35&#45;&gt;Node3</title>
<path fill="none" stroke="midnightblue" d="M278.749,-232.712C278.662,-208.113 282.327,-141.42 323,-116 380.062,-80.3376 577.19,-72.2943 672.115,-70.5012"/>
<polygon fill="midnightblue" stroke="midnightblue" points="672.409,-73.9967 682.347,-70.3247 672.288,-66.9977 672.409,-73.9967"/>
</g>
<!-- Node35&#45;&gt;Node34 -->
<g id="edge60" class="edge"><title>Node35&#45;&gt;Node34</title>
<path fill="none" stroke="midnightblue" d="M290.064,-232.753C300.21,-224.272 315.44,-211.543 327.447,-201.507"/>
<polygon fill="midnightblue" stroke="midnightblue" points="329.714,-204.174 335.142,-195.075 325.225,-198.803 329.714,-204.174"/>
</g>
<!-- Node35&#45;&gt;Node23 -->
<g id="edge61" class="edge"><title>Node35&#45;&gt;Node23</title>
<path fill="none" stroke="midnightblue" d="M307.995,-232.878C338.081,-223.413 385.292,-208.56 418.493,-198.115"/>
<polygon fill="midnightblue" stroke="midnightblue" points="419.824,-201.365 428.312,-195.025 417.723,-194.688 419.824,-201.365"/>
</g>
<!-- Node35&#45;&gt;Node28 -->
<g id="edge62" class="edge"><title>Node35&#45;&gt;Node28</title>
<path fill="none" stroke="midnightblue" d="M263.132,-232.864C228.652,-213.012 146.693,-165.823 105.509,-142.111"/>
<polygon fill="midnightblue" stroke="midnightblue" points="107.082,-138.978 96.6692,-137.022 103.589,-145.045 107.082,-138.978"/>
</g>
<!-- Node38&#45;&gt;Node13 -->
<g id="edge70" class="edge"><title>Node38&#45;&gt;Node13</title>
<path fill="none" stroke="midnightblue" d="M1729.53,-353.189C1755.82,-347.788 1787.37,-336.325 1804,-312 1809.52,-303.928 1805.18,-299.706 1804,-290 1794.37,-210.924 1814.51,-175.015 1761,-116 1735.36,-87.7248 1691.24,-76.8268 1661.6,-72.6282"/>
<polygon fill="midnightblue" stroke="midnightblue" points="1661.75,-69.1201 1651.4,-71.3648 1660.89,-76.0671 1661.75,-69.1201"/>
</g>
<!-- Node38&#45;&gt;Node12 -->
<g id="edge71" class="edge"><title>Node38&#45;&gt;Node12</title>
<path fill="none" stroke="midnightblue" d="M1729.57,-351.009C1757.79,-344.688 1793.98,-333.02 1820,-312 1847.45,-289.825 1861,-279.291 1861,-244 1861,-244 1861,-244 1861,-184 1861,-151.951 1858.16,-140.073 1837,-116 1821.28,-98.1096 1796.94,-86.3182 1777.4,-79.1567"/>
<polygon fill="midnightblue" stroke="midnightblue" points="1778.27,-75.758 1767.68,-75.8259 1776,-82.3797 1778.27,-75.758"/>
</g>
<!-- Node38&#45;&gt;Node3 -->
<g id="edge72" class="edge"><title>Node38&#45;&gt;Node3</title>
<path fill="none" stroke="midnightblue" d="M1681.84,-348.791C1676.47,-335.746 1668.23,-311.121 1672,-290 1686.26,-210.022 1784.3,-174.567 1728,-116 1692.86,-79.4451 866.568,-83.7418 816,-80 803.104,-79.0458 789.224,-77.7031 776.252,-76.3106"/>
<polygon fill="midnightblue" stroke="midnightblue" points="776.404,-72.8062 766.08,-75.1896 775.637,-79.7641 776.404,-72.8062"/>
</g>
<!-- Node38&#45;&gt;Node8 -->
<g id="edge73" class="edge"><title>Node38&#45;&gt;Node8</title>
<path fill="none" stroke="midnightblue" d="M1642.62,-357.156C1496.68,-354.052 1029.25,-341.858 969,-312 947.197,-301.195 930.092,-278.382 920.034,-262.163"/>
<polygon fill="midnightblue" stroke="midnightblue" points="922.785,-259.935 914.704,-253.083 916.748,-263.479 922.785,-259.935"/>
</g>
<!-- Node38&#45;&gt;Node7 -->
<g id="edge74" class="edge"><title>Node38&#45;&gt;Node7</title>
<path fill="none" stroke="midnightblue" d="M1642.58,-354.282C1529.97,-344.64 1228.1,-318.792 1095.71,-307.455"/>
<polygon fill="midnightblue" stroke="midnightblue" points="1095.98,-303.966 1085.72,-306.6 1095.38,-310.94 1095.98,-303.966"/>
</g>
<!-- Node39 -->
<g id="node39" class="node"><title>Node39</title>
<polygon fill="white" stroke="#bfbfbf" points="1680.8,-291 1680.8,-311 1795.2,-311 1795.2,-291 1680.8,-291"/>
<text text-anchor="middle" x="1738" y="-297" font-family="Helvetica,sans-Serif" font-size="10.00">boost/lexical_cast.hpp</text>
</g>
<!-- Node38&#45;&gt;Node39 -->
<g id="edge75" class="edge"><title>Node38&#45;&gt;Node39</title>
<path fill="none" stroke="midnightblue" d="M1694.59,-348.753C1702.16,-340.598 1713.38,-328.516 1722.51,-318.677"/>
<polygon fill="midnightblue" stroke="midnightblue" points="1725.33,-320.785 1729.57,-311.075 1720.2,-316.022 1725.33,-320.785"/>
</g>
</g>
</svg>
        <g id="navigator" transform="translate(0 0)" fill="#404254">
                <rect fill="#f2f5e9" fill-opacity="0.5" stroke="#606060" stroke-width=".5" x="0" y="0" width="60" height="60"/>
                <use id="zoomplus" xlink:href="#zoomPlus" x="17" y="9" onmousedown="handleZoom(evt,'in')"/>
                <use id="zoomminus" xlink:href="#zoomMin" x="42" y="9" onmousedown="handleZoom(evt,'out')"/>
                <use id="reset" xlink:href="#resetDef" x="30" y="36" onmousedown="handleReset()"/>
                <g id="arrowUp" xlink:href="#dirArrow" transform="translate(30 24)" onmousedown="handlePan(0,-1)">
                  <use xlink:href="#rim" fill="#404040">
                        <set attributeName="fill" to="#808080" begin="arrowUp.mouseover" end="arrowUp.mouseout"/>
                  </use>
                  <path fill="none" stroke="white" stroke-width="1.5" d="M0,-3.0v7 M-2.5,-0.5L0,-3.0L2.5,-0.5"/>
                </g>
                <g id="arrowRight" xlink:href="#dirArrow" transform="rotate(90) translate(36 -43)" onmousedown="handlePan(1,0)">
                  <use xlink:href="#rim" fill="#404040">
                        <set attributeName="fill" to="#808080" begin="arrowRight.mouseover" end="arrowRight.mouseout"/>
                  </use>
                  <path fill="none" stroke="white" stroke-width="1.5" d="M0,-3.0v7 M-2.5,-0.5L0,-3.0L2.5,-0.5"/>
                </g>
                <g id="arrowDown" xlink:href="#dirArrow" transform="rotate(180) translate(-30 -48)" onmousedown="handlePan(0,1)">
                  <use xlink:href="#rim" fill="#404040">
                        <set attributeName="fill" to="#808080" begin="arrowDown.mouseover" end="arrowDown.mouseout"/>
                  </use>
                  <path fill="none" stroke="white" stroke-width="1.5" d="M0,-3.0v7 M-2.5,-0.5L0,-3.0L2.5,-0.5"/>
                </g>
                <g id="arrowLeft" xlink:href="#dirArrow" transform="rotate(270) translate(-36 17)" onmousedown="handlePan(-1,0)">
                  <use xlink:href="#rim" fill="#404040">
                        <set attributeName="fill" to="#808080" begin="arrowLeft.mouseover" end="arrowLeft.mouseout"/>
                  </use>
                  <path fill="none" stroke="white" stroke-width="1.5" d="M0,-3.0v7 M-2.5,-0.5L0,-3.0L2.5,-0.5"/>
                </g>
        </g>
        <svg viewBox="0 0 15 15" width="100%" height="30px" preserveAspectRatio="xMaxYMin meet">
         <g id="arrow_out" transform="scale(0.3 0.3)">
          <a xlink:href="_image_io_8cpp__incl_org.svg" target="_base">
           <rect id="button" ry="5" rx="5" y="6" x="6" height="38" width="38"
                fill="#f2f5e9" fill-opacity="0.5" stroke="#606060" stroke-width="1.0"/>
           <path id="arrow"
             d="M 11.500037,31.436501 C 11.940474,20.09759 22.043105,11.32322 32.158766,21.979434 L 37.068811,17.246167 C 37.068811,17.246167 37.088388,32 37.088388,32 L 22.160133,31.978069 C 22.160133,31.978069 26.997745,27.140456 26.997745,27.140456 C 18.528582,18.264221 13.291696,25.230495 11.500037,31.436501 z"
             style="fill:#404040;"/>
          </a>
         </g>
        </svg>
</svg>
