<?xml version="1.0" encoding="UTF-8" standalone="no"?>
<!DOCTYPE svg PUBLIC "-//W3C//DTD SVG 1.1//EN"
 "http://www.w3.org/Graphics/SVG/1.1/DTD/svg11.dtd">
<!-- Generated by graphviz version 2.30.1 (20140712.1814)
 -->
<!-- Title: src/cinder/ImageSourcePng.cpp Pages: 1 -->
<!--zoomable 552 -->
<svg id="main" version="1.1" xmlns="http://www.w3.org/2000/svg" xmlns:xlink="http://www.w3.org/1999/xlink" xml:space="preserve" onload="init(evt)">
<style type="text/css"><![CDATA[
.edge:hover path { stroke: red; }
.edge:hover polygon { stroke: red; fill: red; }
]]></style>
<script type="text/javascript"><![CDATA[
var edges = document.getElementsByTagName('g');
if (edges && edges.length) {
  for (var i=0;i<edges.length;i++) {
    if (edges[i].id.substr(0,4)=='edge') {
      edges[i].setAttribute('class','edge');
    }
  }
}
]]></script>
        <defs>
                <circle id="rim" cx="0" cy="0" r="7"/>
                <circle id="rim2" cx="0" cy="0" r="3.5"/>
                <g id="zoomPlus">
                        <use xlink:href="#rim" fill="#404040">
                                <set attributeName="fill" to="#808080" begin="zoomplus.mouseover" end="zoomplus.mouseout"/>
                        </use>
                        <path d="M-4,0h8M0,-4v8" fill="none" stroke="white" stroke-width="1.5" pointer-events="none"/>
                </g>
                <g id="zoomMin">
                        <use xlink:href="#rim" fill="#404040">
                                <set attributeName="fill" to="#808080" begin="zoomminus.mouseover" end="zoomminus.mouseout"/>
                        </use>
                        <path d="M-4,0h8" fill="none" stroke="white" stroke-width="1.5" pointer-events="none"/>
                </g>
                <g id="dirArrow">
                        <path fill="none" stroke="white" stroke-width="1.5" d="M0,-3.0v7 M-2.5,-0.5L0,-3.0L2.5,-0.5"/>
                </g>
               <g id="resetDef">
                       <use xlink:href="#rim2" fill="#404040">
                               <set attributeName="fill" to="#808080" begin="reset.mouseover" end="reset.mouseout"/>
                       </use>
               </g>
        </defs>

<script type="text/javascript">
var viewWidth = 1779;
var viewHeight = 552;
var sectionId = 'dynsection-0';
</script>
<script xlink:href="svgpan.js"/>
<svg id="graph" class="graph">
<g id="viewport">
<title>src/cinder/ImageSourcePng.cpp</title>
<polygon fill="white" stroke="white" points="-4,5 -4,-548 1776.16,-548 1776.16,5 -4,5"/>
<!-- Node1 -->
<g id="node1" class="node"><title>Node1</title>
<polygon fill="#bfbfbf" stroke="black" points="952.853,-523 952.853,-543 1111.15,-543 1111.15,-523 952.853,-523"/>
<text text-anchor="middle" x="1032" y="-529" font-family="Helvetica,sans-Serif" font-size="10.00">src/cinder/ImageSourcePng.cpp</text>
</g>
<!-- Node2 -->
<g id="node2" class="node"><title>Node2</title>
<g id="a_node2"><a xlink:href="_image_source_png_8h.html" target="_top" xlink:title="cinder/ImageSourcePng.h">
<polygon fill="white" stroke="black" points="914.188,-465 914.188,-485 1045.81,-485 1045.81,-465 914.188,-465"/>
<text text-anchor="middle" x="980" y="-471" font-family="Helvetica,sans-Serif" font-size="10.00">cinder/ImageSourcePng.h</text>
</a>
</g>
</g>
<!-- Node1&#45;&gt;Node2 -->
<g id="edge1" class="edge"><title>Node1&#45;&gt;Node2</title>
<path fill="none" stroke="midnightblue" d="M1023.41,-522.753C1015.84,-514.598 1004.62,-502.516 995.486,-492.677"/>
<polygon fill="midnightblue" stroke="midnightblue" points="997.796,-490.022 988.427,-485.075 992.667,-494.785 997.796,-490.022"/>
</g>
<!-- Node39 -->
<g id="node39" class="node"><title>Node39</title>
<polygon fill="white" stroke="#bfbfbf" points="1063.49,-465 1063.49,-485 1104.51,-485 1104.51,-465 1063.49,-465"/>
<text text-anchor="middle" x="1084" y="-471" font-family="Helvetica,sans-Serif" font-size="10.00">png.h</text>
</g>
<!-- Node1&#45;&gt;Node39 -->
<g id="edge72" class="edge"><title>Node1&#45;&gt;Node39</title>
<path fill="none" stroke="midnightblue" d="M1040.59,-522.753C1048.16,-514.598 1059.38,-502.516 1068.51,-492.677"/>
<polygon fill="midnightblue" stroke="midnightblue" points="1071.33,-494.785 1075.57,-485.075 1066.2,-490.022 1071.33,-494.785"/>
</g>
<!-- Node3 -->
<g id="node3" class="node"><title>Node3</title>
<g id="a_node3"><a xlink:href="_cinder_8h.html" target="_top" xlink:title="cinder/Cinder.h">
<polygon fill="white" stroke="black" points="645.367,-59 645.367,-79 728.633,-79 728.633,-59 645.367,-59"/>
<text text-anchor="middle" x="687" y="-65" font-family="Helvetica,sans-Serif" font-size="10.00">cinder/Cinder.h</text>
</a>
</g>
</g>
<!-- Node2&#45;&gt;Node3 -->
<g id="edge2" class="edge"><title>Node2&#45;&gt;Node3</title>
<path fill="none" stroke="midnightblue" d="M913.898,-472.131C713.116,-465.586 124,-439.6 124,-360 124,-360 124,-360 124,-242 124,-171.866 157.838,-150.321 219,-116 289.109,-76.6579 528.324,-70.6238 634.964,-69.9335"/>
<polygon fill="midnightblue" stroke="midnightblue" points="635.183,-73.4325 645.165,-69.8812 635.147,-66.4326 635.183,-73.4325"/>
</g>
<!-- Node7 -->
<g id="node7" class="node"><title>Node7</title>
<g id="a_node7"><a xlink:href="_image_io_8h.html" target="_top" xlink:title="cinder/ImageIo.h">
<polygon fill="white" stroke="black" points="934.756,-407 934.756,-427 1025.24,-427 1025.24,-407 934.756,-407"/>
<text text-anchor="middle" x="980" y="-413" font-family="Helvetica,sans-Serif" font-size="10.00">cinder/ImageIo.h</text>
</a>
</g>
</g>
<!-- Node2&#45;&gt;Node7 -->
<g id="edge6" class="edge"><title>Node2&#45;&gt;Node7</title>
<path fill="none" stroke="midnightblue" d="M980,-464.753C980,-457.25 980,-446.424 980,-437.078"/>
<polygon fill="midnightblue" stroke="midnightblue" points="983.5,-437.075 980,-427.075 976.5,-437.075 983.5,-437.075"/>
</g>
<!-- Node12 -->
<g id="node12" class="node"><title>Node12</title>
<g id="a_node12"><a xlink:href="_exception_8h.html" target="_top" xlink:title="cinder/Exception.h">
<polygon fill="white" stroke="black" points="1660.86,-117 1660.86,-137 1759.14,-137 1759.14,-117 1660.86,-117"/>
<text text-anchor="middle" x="1710" y="-123" font-family="Helvetica,sans-Serif" font-size="10.00">cinder/Exception.h</text>
</a>
</g>
</g>
<!-- Node2&#45;&gt;Node12 -->
<g id="edge71" class="edge"><title>Node2&#45;&gt;Node12</title>
<path fill="none" stroke="midnightblue" d="M1045.9,-465.093C1232.15,-439.811 1749,-368.852 1749,-360 1749,-360 1749,-360 1749,-242 1749,-206.446 1731.81,-167.851 1720.25,-145.925"/>
<polygon fill="midnightblue" stroke="midnightblue" points="1723.29,-144.188 1715.42,-137.095 1717.15,-147.548 1723.29,-144.188"/>
</g>
<!-- Node4 -->
<g id="node4" class="node"><title>Node4</title>
<polygon fill="white" stroke="#bfbfbf" points="576.549,-1 576.549,-21 621.451,-21 621.451,-1 576.549,-1"/>
<text text-anchor="middle" x="599" y="-7" font-family="Helvetica,sans-Serif" font-size="10.00">cstdint</text>
</g>
<!-- Node3&#45;&gt;Node4 -->
<g id="edge3" class="edge"><title>Node3&#45;&gt;Node4</title>
<path fill="none" stroke="midnightblue" d="M672.469,-58.7527C658.757,-50.0272 637.979,-36.8051 622.015,-26.6458"/>
<polygon fill="midnightblue" stroke="midnightblue" points="623.577,-23.4912 613.261,-21.0752 619.819,-29.3968 623.577,-23.4912"/>
</g>
<!-- Node5 -->
<g id="node5" class="node"><title>Node5</title>
<polygon fill="white" stroke="#bfbfbf" points="639.53,-1 639.53,-21 734.47,-21 734.47,-1 639.53,-1"/>
<text text-anchor="middle" x="687" y="-7" font-family="Helvetica,sans-Serif" font-size="10.00">boost/version.hpp</text>
</g>
<!-- Node3&#45;&gt;Node5 -->
<g id="edge4" class="edge"><title>Node3&#45;&gt;Node5</title>
<path fill="none" stroke="midnightblue" d="M687,-58.7527C687,-51.2504 687,-40.4238 687,-31.0781"/>
<polygon fill="midnightblue" stroke="midnightblue" points="690.5,-31.0752 687,-21.0752 683.5,-31.0752 690.5,-31.0752"/>
</g>
<!-- Node6 -->
<g id="node6" class="node"><title>Node6</title>
<polygon fill="white" stroke="#bfbfbf" points="752.621,-1 752.621,-21 885.379,-21 885.379,-1 752.621,-1"/>
<text text-anchor="middle" x="819" y="-7" font-family="Helvetica,sans-Serif" font-size="10.00">boost/checked_delete.hpp</text>
</g>
<!-- Node3&#45;&gt;Node6 -->
<g id="edge5" class="edge"><title>Node3&#45;&gt;Node6</title>
<path fill="none" stroke="midnightblue" d="M708.502,-58.878C730.172,-49.6848 763.821,-35.4095 788.295,-25.0263"/>
<polygon fill="midnightblue" stroke="midnightblue" points="789.668,-28.2457 797.507,-21.1181 786.935,-21.8016 789.668,-28.2457"/>
</g>
<!-- Node7&#45;&gt;Node3 -->
<g id="edge7" class="edge"><title>Node7&#45;&gt;Node3</title>
<path fill="none" stroke="midnightblue" d="M934.692,-414.19C768.221,-406.949 200,-376.757 200,-302 200,-302 200,-302 200,-184 200,-143.101 225.53,-134.51 262,-116 326.077,-83.4777 536.396,-73.8365 635.047,-71.0693"/>
<polygon fill="midnightblue" stroke="midnightblue" points="635.187,-74.5669 645.09,-70.8007 635,-67.5694 635.187,-74.5669"/>
</g>
<!-- Node8 -->
<g id="node8" class="node"><title>Node8</title>
<g id="a_node8"><a xlink:href="_data_source_8h.html" target="_top" xlink:title="cinder/DataSource.h">
<polygon fill="white" stroke="black" points="1053.42,-291 1053.42,-311 1160.58,-311 1160.58,-291 1053.42,-291"/>
<text text-anchor="middle" x="1107" y="-297" font-family="Helvetica,sans-Serif" font-size="10.00">cinder/DataSource.h</text>
</a>
</g>
</g>
<!-- Node7&#45;&gt;Node8 -->
<g id="edge8" class="edge"><title>Node7&#45;&gt;Node8</title>
<path fill="none" stroke="midnightblue" d="M983.084,-406.996C988.312,-392.864 1000.12,-365.307 1018,-348 1032.97,-333.506 1053.43,-322.503 1070.95,-314.898"/>
<polygon fill="midnightblue" stroke="midnightblue" points="1072.42,-318.076 1080.33,-311.022 1069.75,-311.607 1072.42,-318.076"/>
</g>
<!-- Node21 -->
<g id="node21" class="node"><title>Node21</title>
<g id="a_node21"><a xlink:href="_data_target_8h.html" target="_top" xlink:title="cinder/DataTarget.h">
<polygon fill="white" stroke="black" points="909.365,-291 909.365,-311 1012.64,-311 1012.64,-291 909.365,-291"/>
<text text-anchor="middle" x="961" y="-297" font-family="Helvetica,sans-Serif" font-size="10.00">cinder/DataTarget.h</text>
</a>
</g>
</g>
<!-- Node7&#45;&gt;Node21 -->
<g id="edge31" class="edge"><title>Node7&#45;&gt;Node21</title>
<path fill="none" stroke="midnightblue" d="M978.445,-406.671C975.34,-388.041 968.316,-345.898 964.19,-321.143"/>
<polygon fill="midnightblue" stroke="midnightblue" points="967.62,-320.428 962.523,-311.139 960.715,-321.579 967.62,-320.428"/>
</g>
<!-- Node22 -->
<g id="node22" class="node"><title>Node22</title>
<g id="a_node22"><a xlink:href="_surface_8h.html" target="_top" xlink:title="cinder/Surface.h">
<polygon fill="white" stroke="black" points="587.591,-349 587.591,-369 676.409,-369 676.409,-349 587.591,-349"/>
<text text-anchor="middle" x="632" y="-355" font-family="Helvetica,sans-Serif" font-size="10.00">cinder/Surface.h</text>
</a>
</g>
</g>
<!-- Node7&#45;&gt;Node22 -->
<g id="edge36" class="edge"><title>Node7&#45;&gt;Node22</title>
<path fill="none" stroke="midnightblue" d="M934.505,-408.679C870.805,-398.428 755.188,-379.823 686.822,-368.822"/>
<polygon fill="midnightblue" stroke="midnightblue" points="687.109,-365.323 676.68,-367.19 685.997,-372.234 687.109,-365.323"/>
</g>
<!-- Node7&#45;&gt;Node12 -->
<g id="edge67" class="edge"><title>Node7&#45;&gt;Node12</title>
<path fill="none" stroke="midnightblue" d="M1025.48,-416.205C1157.25,-415.587 1530,-404.757 1530,-302 1530,-302 1530,-302 1530,-242 1530,-183.445 1598.82,-153.717 1651.36,-139.553"/>
<polygon fill="midnightblue" stroke="midnightblue" points="1652.47,-142.881 1661.29,-137.005 1650.73,-136.1 1652.47,-142.881"/>
</g>
<!-- Node13 -->
<g id="node13" class="node"><title>Node13</title>
<polygon fill="white" stroke="#bfbfbf" points="1688.38,-59 1688.38,-79 1731.62,-79 1731.62,-59 1688.38,-59"/>
<text text-anchor="middle" x="1710" y="-65" font-family="Helvetica,sans-Serif" font-size="10.00">vector</text>
</g>
<!-- Node7&#45;&gt;Node13 -->
<g id="edge68" class="edge"><title>Node7&#45;&gt;Node13</title>
<path fill="none" stroke="midnightblue" d="M1025.59,-415.384C1134.75,-413.355 1408.26,-404.843 1492,-370 1639.95,-308.439 1700.34,-283.262 1768,-138 1772.13,-129.137 1772.25,-124.804 1768,-116 1761.58,-102.721 1749.27,-92.1046 1737.63,-84.4311"/>
<polygon fill="midnightblue" stroke="midnightblue" points="1739.33,-81.3676 1728.97,-79.1416 1735.68,-87.3413 1739.33,-81.3676"/>
</g>
<!-- Node38 -->
<g id="node38" class="node"><title>Node38</title>
<polygon fill="white" stroke="#bfbfbf" points="1027.27,-349 1027.27,-369 1062.73,-369 1062.73,-349 1027.27,-349"/>
<text text-anchor="middle" x="1045" y="-355" font-family="Helvetica,sans-Serif" font-size="10.00">map</text>
</g>
<!-- Node7&#45;&gt;Node38 -->
<g id="edge69" class="edge"><title>Node7&#45;&gt;Node38</title>
<path fill="none" stroke="midnightblue" d="M990.733,-406.753C1000.48,-398.353 1015.07,-385.787 1026.66,-375.798"/>
<polygon fill="midnightblue" stroke="midnightblue" points="1029.17,-378.254 1034.47,-369.075 1024.61,-372.951 1029.17,-378.254"/>
</g>
<!-- Node33 -->
<g id="node33" class="node"><title>Node33</title>
<polygon fill="white" stroke="#bfbfbf" points="748.608,-175 748.608,-195 787.392,-195 787.392,-175 748.608,-175"/>
<text text-anchor="middle" x="768" y="-181" font-family="Helvetica,sans-Serif" font-size="10.00">utility</text>
</g>
<!-- Node7&#45;&gt;Node33 -->
<g id="edge70" class="edge"><title>Node7&#45;&gt;Node33</title>
<path fill="none" stroke="midnightblue" d="M971.689,-406.984C939.835,-372.425 825.224,-248.083 783.408,-202.716"/>
<polygon fill="midnightblue" stroke="midnightblue" points="785.835,-200.185 776.484,-195.204 780.688,-204.929 785.835,-200.185"/>
</g>
<!-- Node8&#45;&gt;Node3 -->
<g id="edge9" class="edge"><title>Node8&#45;&gt;Node3</title>
<path fill="none" stroke="midnightblue" d="M1091.26,-290.837C1075.62,-281.676 1051.01,-267.105 1030,-254 982.307,-224.247 868.435,-140.823 818,-116 789.426,-101.937 755.453,-90.1371 729.265,-82.0104"/>
<polygon fill="midnightblue" stroke="midnightblue" points="730.223,-78.6434 719.637,-79.0786 728.184,-85.3399 730.223,-78.6434"/>
</g>
<!-- Node9 -->
<g id="node9" class="node"><title>Node9</title>
<g id="a_node9"><a xlink:href="_url_8h.html" target="_top" xlink:title="cinder/Url.h">
<polygon fill="white" stroke="black" points="881.436,-233 881.436,-253 948.564,-253 948.564,-233 881.436,-233"/>
<text text-anchor="middle" x="915" y="-239" font-family="Helvetica,sans-Serif" font-size="10.00">cinder/Url.h</text>
</a>
</g>
</g>
<!-- Node8&#45;&gt;Node9 -->
<g id="edge10" class="edge"><title>Node8&#45;&gt;Node9</title>
<path fill="none" stroke="midnightblue" d="M1075.72,-290.878C1042.99,-281.331 991.469,-266.303 955.613,-255.845"/>
<polygon fill="midnightblue" stroke="midnightblue" points="956.524,-252.465 945.944,-253.025 954.564,-259.185 956.524,-252.465"/>
</g>
<!-- Node11 -->
<g id="node11" class="node"><title>Node11</title>
<g id="a_node11"><a xlink:href="_buffer_8h.html" target="_top" xlink:title="cinder/Buffer.h">
<polygon fill="white" stroke="black" points="866.844,-117 866.844,-137 947.156,-137 947.156,-117 866.844,-117"/>
<text text-anchor="middle" x="907" y="-123" font-family="Helvetica,sans-Serif" font-size="10.00">cinder/Buffer.h</text>
</a>
</g>
</g>
<!-- Node8&#45;&gt;Node11 -->
<g id="edge28" class="edge"><title>Node8&#45;&gt;Node11</title>
<path fill="none" stroke="midnightblue" d="M1097.39,-290.869C1075.03,-269.727 1017.55,-216.012 967,-174 954.291,-163.437 939.569,-152.137 927.89,-143.38"/>
<polygon fill="midnightblue" stroke="midnightblue" points="929.746,-140.399 919.634,-137.234 925.565,-146.014 929.746,-140.399"/>
</g>
<!-- Node10 -->
<g id="node10" class="node"><title>Node10</title>
<g id="a_node10"><a xlink:href="_stream_8h.html" target="_top" xlink:title="cinder/Stream.h">
<polygon fill="white" stroke="black" points="1157.71,-175 1157.71,-195 1244.29,-195 1244.29,-175 1157.71,-175"/>
<text text-anchor="middle" x="1201" y="-181" font-family="Helvetica,sans-Serif" font-size="10.00">cinder/Stream.h</text>
</a>
</g>
</g>
<!-- Node8&#45;&gt;Node10 -->
<g id="edge29" class="edge"><title>Node8&#45;&gt;Node10</title>
<path fill="none" stroke="midnightblue" d="M1114.69,-290.671C1130.47,-271.537 1166.7,-227.602 1186.84,-203.175"/>
<polygon fill="midnightblue" stroke="midnightblue" points="1189.8,-205.081 1193.46,-195.139 1184.4,-200.628 1189.8,-205.081"/>
</g>
<!-- Node15 -->
<g id="node15" class="node"><title>Node15</title>
<g id="a_node15"><a xlink:href="_filesystem_8h.html" target="_top" xlink:title="cinder/Filesystem.h">
<polygon fill="white" stroke="black" points="1464.93,-117 1464.93,-137 1567.07,-137 1567.07,-117 1464.93,-117"/>
<text text-anchor="middle" x="1516" y="-123" font-family="Helvetica,sans-Serif" font-size="10.00">cinder/Filesystem.h</text>
</a>
</g>
</g>
<!-- Node8&#45;&gt;Node15 -->
<g id="edge30" class="edge"><title>Node8&#45;&gt;Node15</title>
<path fill="none" stroke="midnightblue" d="M1128.41,-290.995C1196.03,-262.558 1405.23,-174.583 1484.82,-141.11"/>
<polygon fill="midnightblue" stroke="midnightblue" points="1486.44,-144.227 1494.3,-137.124 1483.73,-137.774 1486.44,-144.227"/>
</g>
<!-- Node9&#45;&gt;Node3 -->
<g id="edge11" class="edge"><title>Node9&#45;&gt;Node3</title>
<path fill="none" stroke="midnightblue" d="M910.045,-232.801C902.236,-218.891 885.985,-192.2 867,-174 822.687,-131.519 757.801,-99.5785 719.239,-82.9244"/>
<polygon fill="midnightblue" stroke="midnightblue" points="720.605,-79.7016 710.031,-79.0225 717.873,-86.1468 720.605,-79.7016"/>
</g>
<!-- Node9&#45;&gt;Node10 -->
<g id="edge12" class="edge"><title>Node9&#45;&gt;Node10</title>
<path fill="none" stroke="midnightblue" d="M948.649,-235.411C997.681,-225.811 1089.26,-207.879 1147.57,-196.462"/>
<polygon fill="midnightblue" stroke="midnightblue" points="1148.56,-199.835 1157.7,-194.479 1147.21,-192.965 1148.56,-199.835"/>
</g>
<!-- Node20 -->
<g id="node20" class="node"><title>Node20</title>
<polygon fill="white" stroke="#bfbfbf" points="604.828,-117 604.828,-137 659.172,-137 659.172,-117 604.828,-117"/>
<text text-anchor="middle" x="632" y="-123" font-family="Helvetica,sans-Serif" font-size="10.00">iostream</text>
</g>
<!-- Node9&#45;&gt;Node20 -->
<g id="edge27" class="edge"><title>Node9&#45;&gt;Node20</title>
<path fill="none" stroke="midnightblue" d="M901.64,-232.899C880.194,-218.635 836.389,-190.901 796,-174 753.973,-156.414 703.134,-143.335 669.311,-135.707"/>
<polygon fill="midnightblue" stroke="midnightblue" points="669.908,-132.255 659.388,-133.516 668.398,-139.09 669.908,-132.255"/>
</g>
<!-- Node10&#45;&gt;Node3 -->
<g id="edge13" class="edge"><title>Node10&#45;&gt;Node3</title>
<path fill="none" stroke="midnightblue" d="M1157.39,-175.935C1105.83,-166.117 1023.33,-149.433 994,-138 975.818,-130.912 974.351,-122.638 956,-116 883.379,-89.7313 794.185,-78.2654 738.961,-73.4013"/>
<polygon fill="midnightblue" stroke="midnightblue" points="738.978,-69.8906 728.72,-72.541 738.392,-76.866 738.978,-69.8906"/>
</g>
<!-- Node10&#45;&gt;Node11 -->
<g id="edge14" class="edge"><title>Node10&#45;&gt;Node11</title>
<path fill="none" stroke="midnightblue" d="M1157.62,-175.737C1104.24,-165.569 1013.77,-148.336 957.366,-137.594"/>
<polygon fill="midnightblue" stroke="midnightblue" points="957.727,-134.099 947.249,-135.666 956.417,-140.976 957.727,-134.099"/>
</g>
<!-- Node10&#45;&gt;Node12 -->
<g id="edge16" class="edge"><title>Node10&#45;&gt;Node12</title>
<path fill="none" stroke="midnightblue" d="M1244.4,-179.225C1335.6,-169.191 1547.27,-145.904 1650.81,-134.512"/>
<polygon fill="midnightblue" stroke="midnightblue" points="1651.23,-137.987 1660.79,-133.414 1650.47,-131.029 1651.23,-137.987"/>
</g>
<!-- Node10&#45;&gt;Node15 -->
<g id="edge20" class="edge"><title>Node10&#45;&gt;Node15</title>
<path fill="none" stroke="midnightblue" d="M1244.47,-176.272C1299.15,-166.552 1393.34,-149.806 1455.15,-138.817"/>
<polygon fill="midnightblue" stroke="midnightblue" points="1455.93,-142.234 1465.16,-137.037 1454.71,-135.342 1455.93,-142.234"/>
</g>
<!-- Node17 -->
<g id="node17" class="node"><title>Node17</title>
<polygon fill="white" stroke="#bfbfbf" points="1003.29,-117 1003.29,-137 1122.71,-137 1122.71,-117 1003.29,-117"/>
<text text-anchor="middle" x="1063" y="-123" font-family="Helvetica,sans-Serif" font-size="10.00">boost/noncopyable.hpp</text>
</g>
<!-- Node10&#45;&gt;Node17 -->
<g id="edge23" class="edge"><title>Node10&#45;&gt;Node17</title>
<path fill="none" stroke="midnightblue" d="M1178.52,-174.878C1155.77,-165.644 1120.38,-151.283 1094.76,-140.889"/>
<polygon fill="midnightblue" stroke="midnightblue" points="1096.05,-137.635 1085.47,-137.118 1093.42,-144.121 1096.05,-137.635"/>
</g>
<!-- Node14 -->
<g id="node14" class="node"><title>Node14</title>
<polygon fill="white" stroke="#bfbfbf" points="1612.77,-59 1612.77,-79 1653.23,-79 1653.23,-59 1612.77,-59"/>
<text text-anchor="middle" x="1633" y="-65" font-family="Helvetica,sans-Serif" font-size="10.00">string</text>
</g>
<!-- Node10&#45;&gt;Node14 -->
<g id="edge24" class="edge"><title>Node10&#45;&gt;Node14</title>
<path fill="none" stroke="midnightblue" d="M1244.49,-182.635C1330.67,-179.292 1519.66,-168.605 1576,-138 1596.85,-126.674 1613.25,-104.36 1623,-88.3804"/>
<polygon fill="midnightblue" stroke="midnightblue" points="1626.21,-89.8128 1628.19,-79.4045 1620.15,-86.3064 1626.21,-89.8128"/>
</g>
<!-- Node18 -->
<g id="node18" class="node"><title>Node18</title>
<polygon fill="white" stroke="#bfbfbf" points="1140.57,-117 1140.57,-137 1289.43,-137 1289.43,-117 1140.57,-117"/>
<text text-anchor="middle" x="1215" y="-123" font-family="Helvetica,sans-Serif" font-size="10.00">boost/iostreams/concepts.hpp</text>
</g>
<!-- Node10&#45;&gt;Node18 -->
<g id="edge25" class="edge"><title>Node10&#45;&gt;Node18</title>
<path fill="none" stroke="midnightblue" d="M1203.31,-174.753C1205.19,-167.25 1207.89,-156.424 1210.23,-147.078"/>
<polygon fill="midnightblue" stroke="midnightblue" points="1213.7,-147.626 1212.73,-137.075 1206.91,-145.928 1213.7,-147.626"/>
</g>
<!-- Node19 -->
<g id="node19" class="node"><title>Node19</title>
<polygon fill="white" stroke="#bfbfbf" points="1307.31,-117 1307.31,-137 1446.69,-137 1446.69,-117 1307.31,-117"/>
<text text-anchor="middle" x="1377" y="-123" font-family="Helvetica,sans-Serif" font-size="10.00">boost/iostreams/stream.hpp</text>
</g>
<!-- Node10&#45;&gt;Node19 -->
<g id="edge26" class="edge"><title>Node10&#45;&gt;Node19</title>
<path fill="none" stroke="midnightblue" d="M1229.67,-174.878C1259.42,-165.413 1306.1,-150.56 1338.93,-140.115"/>
<polygon fill="midnightblue" stroke="midnightblue" points="1340.17,-143.393 1348.63,-137.025 1338.04,-136.722 1340.17,-143.393"/>
</g>
<!-- Node11&#45;&gt;Node3 -->
<g id="edge15" class="edge"><title>Node11&#45;&gt;Node3</title>
<path fill="none" stroke="midnightblue" d="M871.164,-116.878C833.257,-107.229 773.356,-91.9816 732.225,-81.5118"/>
<polygon fill="midnightblue" stroke="midnightblue" points="733.011,-78.1003 722.457,-79.0253 731.284,-84.884 733.011,-78.1003"/>
</g>
<!-- Node12&#45;&gt;Node3 -->
<g id="edge17" class="edge"><title>Node12&#45;&gt;Node3</title>
<path fill="none" stroke="midnightblue" d="M1660.7,-122.051C1635.39,-120.092 1604.06,-117.772 1576,-116 1258.07,-95.9139 875.757,-78.3507 738.87,-72.2701"/>
<polygon fill="midnightblue" stroke="midnightblue" points="738.822,-68.7646 728.677,-71.8184 738.512,-75.7578 738.822,-68.7646"/>
</g>
<!-- Node12&#45;&gt;Node13 -->
<g id="edge18" class="edge"><title>Node12&#45;&gt;Node13</title>
<path fill="none" stroke="midnightblue" d="M1710,-116.753C1710,-109.25 1710,-98.4238 1710,-89.0781"/>
<polygon fill="midnightblue" stroke="midnightblue" points="1713.5,-89.0752 1710,-79.0752 1706.5,-89.0752 1713.5,-89.0752"/>
</g>
<!-- Node12&#45;&gt;Node14 -->
<g id="edge19" class="edge"><title>Node12&#45;&gt;Node14</title>
<path fill="none" stroke="midnightblue" d="M1697.29,-116.753C1685.51,-108.19 1667.78,-95.2978 1653.93,-85.2186"/>
<polygon fill="midnightblue" stroke="midnightblue" points="1655.62,-82.1264 1645.48,-79.0752 1651.51,-87.7875 1655.62,-82.1264"/>
</g>
<!-- Node15&#45;&gt;Node3 -->
<g id="edge21" class="edge"><title>Node15&#45;&gt;Node3</title>
<path fill="none" stroke="midnightblue" d="M1464.8,-117.215C1461.49,-116.768 1458.2,-116.357 1455,-116 1186.7,-86.0537 863.352,-74.7204 739.104,-71.276"/>
<polygon fill="midnightblue" stroke="midnightblue" points="738.845,-67.7678 728.753,-70.9947 738.655,-74.7652 738.845,-67.7678"/>
</g>
<!-- Node16 -->
<g id="node16" class="node"><title>Node16</title>
<polygon fill="white" stroke="#bfbfbf" points="1462.42,-59 1462.42,-79 1569.58,-79 1569.58,-59 1462.42,-59"/>
<text text-anchor="middle" x="1516" y="-65" font-family="Helvetica,sans-Serif" font-size="10.00">boost/filesystem.hpp</text>
</g>
<!-- Node15&#45;&gt;Node16 -->
<g id="edge22" class="edge"><title>Node15&#45;&gt;Node16</title>
<path fill="none" stroke="midnightblue" d="M1516,-116.753C1516,-109.25 1516,-98.4238 1516,-89.0781"/>
<polygon fill="midnightblue" stroke="midnightblue" points="1519.5,-89.0752 1516,-79.0752 1512.5,-89.0752 1519.5,-89.0752"/>
</g>
<!-- Node21&#45;&gt;Node3 -->
<g id="edge32" class="edge"><title>Node21&#45;&gt;Node3</title>
<path fill="none" stroke="midnightblue" d="M938.591,-290.929C919.833,-282.765 892.863,-269.665 872,-254 832.782,-224.554 830.64,-208.716 796,-174 764.219,-142.15 725.932,-106.144 704.233,-85.9494"/>
<polygon fill="midnightblue" stroke="midnightblue" points="706.486,-83.2654 696.777,-79.0252 701.723,-88.3948 706.486,-83.2654"/>
</g>
<!-- Node21&#45;&gt;Node9 -->
<g id="edge33" class="edge"><title>Node21&#45;&gt;Node9</title>
<path fill="none" stroke="midnightblue" d="M953.404,-290.753C946.773,-282.68 936.979,-270.757 928.942,-260.973"/>
<polygon fill="midnightblue" stroke="midnightblue" points="931.507,-258.581 922.455,-253.075 926.098,-263.024 931.507,-258.581"/>
</g>
<!-- Node21&#45;&gt;Node10 -->
<g id="edge34" class="edge"><title>Node21&#45;&gt;Node10</title>
<path fill="none" stroke="midnightblue" d="M974.989,-290.826C996.522,-276.947 1039.35,-250.297 1078,-232 1105.71,-218.881 1138.25,-206.852 1162.89,-198.388"/>
<polygon fill="midnightblue" stroke="midnightblue" points="1164.25,-201.623 1172.6,-195.099 1162,-194.994 1164.25,-201.623"/>
</g>
<!-- Node21&#45;&gt;Node14 -->
<g id="edge35" class="edge"><title>Node21&#45;&gt;Node14</title>
<path fill="none" stroke="midnightblue" d="M1006.27,-290.97C1144.79,-263.012 1556.34,-177.399 1603,-138 1617.6,-125.674 1625.34,-104.859 1629.28,-89.4982"/>
<polygon fill="midnightblue" stroke="midnightblue" points="1632.76,-89.9985 1631.52,-79.4761 1625.93,-88.473 1632.76,-89.9985"/>
</g>
<!-- Node22&#45;&gt;Node3 -->
<g id="edge37" class="edge"><title>Node22&#45;&gt;Node3</title>
<path fill="none" stroke="midnightblue" d="M587.569,-354.591C484.528,-345.465 238,-316.099 238,-244 238,-244 238,-244 238,-184 238,-137.673 274.647,-134.772 317,-116 372.786,-91.2746 547.084,-78.0185 635.077,-72.7488"/>
<polygon fill="midnightblue" stroke="midnightblue" points="635.333,-76.2399 645.11,-72.1602 634.923,-69.2519 635.333,-76.2399"/>
</g>
<!-- Node23 -->
<g id="node23" class="node"><title>Node23</title>
<g id="a_node23"><a xlink:href="_area_8h.html" target="_top" xlink:title="cinder/Area.h">
<polygon fill="white" stroke="black" points="645.261,-233 645.261,-253 720.739,-253 720.739,-233 645.261,-233"/>
<text text-anchor="middle" x="683" y="-239" font-family="Helvetica,sans-Serif" font-size="10.00">cinder/Area.h</text>
</a>
</g>
</g>
<!-- Node22&#45;&gt;Node23 -->
<g id="edge38" class="edge"><title>Node22&#45;&gt;Node23</title>
<path fill="none" stroke="midnightblue" d="M676.479,-354.211C704.602,-349.247 738.941,-337.888 757,-312 772.38,-289.951 742.441,-269.811 716.163,-257.268"/>
<polygon fill="midnightblue" stroke="midnightblue" points="717.291,-253.937 706.738,-253.002 714.405,-260.315 717.291,-253.937"/>
</g>
<!-- Node34 -->
<g id="node34" class="node"><title>Node34</title>
<g id="a_node34"><a xlink:href="_channel_8h.html" target="_top" xlink:title="cinder/Channel.h">
<polygon fill="white" stroke="black" points="526.197,-291 526.197,-311 617.803,-311 617.803,-291 526.197,-291"/>
<text text-anchor="middle" x="572" y="-297" font-family="Helvetica,sans-Serif" font-size="10.00">cinder/Channel.h</text>
</a>
</g>
</g>
<!-- Node22&#45;&gt;Node34 -->
<g id="edge55" class="edge"><title>Node22&#45;&gt;Node34</title>
<path fill="none" stroke="midnightblue" d="M622.092,-348.753C613.18,-340.435 599.89,-328.031 589.238,-318.089"/>
<polygon fill="midnightblue" stroke="midnightblue" points="591.422,-315.34 581.723,-311.075 586.646,-320.457 591.422,-315.34"/>
</g>
<!-- Node35 -->
<g id="node35" class="node"><title>Node35</title>
<g id="a_node35"><a xlink:href="_chan_traits_8h.html" target="_top" xlink:title="cinder/ChanTraits.h">
<polygon fill="white" stroke="black" points="446.553,-175 446.553,-195 549.447,-195 549.447,-175 446.553,-175"/>
<text text-anchor="middle" x="498" y="-181" font-family="Helvetica,sans-Serif" font-size="10.00">cinder/ChanTraits.h</text>
</a>
</g>
</g>
<!-- Node22&#45;&gt;Node35 -->
<g id="edge58" class="edge"><title>Node22&#45;&gt;Node35</title>
<path fill="none" stroke="midnightblue" d="M587.319,-351.181C562.842,-345.074 534.092,-333.574 517,-312 492.479,-281.048 492.916,-232.001 495.428,-205.141"/>
<polygon fill="midnightblue" stroke="midnightblue" points="498.917,-205.436 496.565,-195.106 491.961,-204.648 498.917,-205.436"/>
</g>
<!-- Node36 -->
<g id="node36" class="node"><title>Node36</title>
<g id="a_node36"><a xlink:href="_color_8h.html" target="_top" xlink:title="cinder/Color.h">
<polygon fill="white" stroke="black" points="348.148,-233 348.148,-253 425.852,-253 425.852,-233 348.148,-233"/>
<text text-anchor="middle" x="387" y="-239" font-family="Helvetica,sans-Serif" font-size="10.00">cinder/Color.h</text>
</a>
</g>
</g>
<!-- Node22&#45;&gt;Node36 -->
<g id="edge60" class="edge"><title>Node22&#45;&gt;Node36</title>
<path fill="none" stroke="midnightblue" d="M591.137,-348.936C560.671,-341.323 518.539,-328.957 484,-312 454.543,-297.538 424.123,-274.687 405.384,-259.522"/>
<polygon fill="midnightblue" stroke="midnightblue" points="407.588,-256.803 397.642,-253.154 403.141,-262.209 407.588,-256.803"/>
</g>
<!-- Node22&#45;&gt;Node15 -->
<g id="edge65" class="edge"><title>Node22&#45;&gt;Node15</title>
<path fill="none" stroke="midnightblue" d="M676.473,-356.414C787.93,-352.085 1076.84,-338.573 1169,-312 1302.51,-273.504 1443.32,-179.717 1495.23,-143.047"/>
<polygon fill="midnightblue" stroke="midnightblue" points="1497.49,-145.738 1503.6,-137.084 1493.42,-140.037 1497.49,-145.738"/>
</g>
<!-- Node37 -->
<g id="node37" class="node"><title>Node37</title>
<polygon fill="white" stroke="#bfbfbf" points="635.357,-291 635.357,-311 748.643,-311 748.643,-291 635.357,-291"/>
<text text-anchor="middle" x="692" y="-297" font-family="Helvetica,sans-Serif" font-size="10.00">boost/logic/tribool.hpp</text>
</g>
<!-- Node22&#45;&gt;Node37 -->
<g id="edge66" class="edge"><title>Node22&#45;&gt;Node37</title>
<path fill="none" stroke="midnightblue" d="M641.908,-348.753C650.82,-340.435 664.11,-328.031 674.762,-318.089"/>
<polygon fill="midnightblue" stroke="midnightblue" points="677.354,-320.457 682.277,-311.075 672.578,-315.34 677.354,-320.457"/>
</g>
<!-- Node23&#45;&gt;Node3 -->
<g id="edge39" class="edge"><title>Node23&#45;&gt;Node3</title>
<path fill="none" stroke="midnightblue" d="M683.215,-232.753C683.842,-205.804 685.677,-126.908 686.54,-89.7664"/>
<polygon fill="midnightblue" stroke="midnightblue" points="690.05,-89.3719 686.784,-79.2932 683.052,-89.2091 690.05,-89.3719"/>
</g>
<!-- Node24 -->
<g id="node24" class="node"><title>Node24</title>
<g id="a_node24"><a xlink:href="_vector_8h.html" target="_top" xlink:title="cinder/Vector.h">
<polygon fill="white" stroke="black" points="345.919,-175 345.919,-195 428.081,-195 428.081,-175 345.919,-175"/>
<text text-anchor="middle" x="387" y="-181" font-family="Helvetica,sans-Serif" font-size="10.00">cinder/Vector.h</text>
</a>
</g>
</g>
<!-- Node23&#45;&gt;Node24 -->
<g id="edge40" class="edge"><title>Node23&#45;&gt;Node24</title>
<path fill="none" stroke="midnightblue" d="M645.208,-235.002C599.043,-226.431 518.288,-211.371 438.429,-196.07"/>
<polygon fill="midnightblue" stroke="midnightblue" points="438.671,-192.553 428.19,-194.106 437.352,-199.427 438.671,-192.553"/>
</g>
<!-- Node23&#45;&gt;Node20 -->
<g id="edge52" class="edge"><title>Node23&#45;&gt;Node20</title>
<path fill="none" stroke="midnightblue" d="M678.826,-232.671C670.417,-213.873 651.298,-171.136 640.266,-146.478"/>
<polygon fill="midnightblue" stroke="midnightblue" points="643.367,-144.838 636.089,-137.139 636.978,-147.697 643.367,-144.838"/>
</g>
<!-- Node23&#45;&gt;Node33 -->
<g id="edge53" class="edge"><title>Node23&#45;&gt;Node33</title>
<path fill="none" stroke="midnightblue" d="M697.036,-232.753C710.28,-224.027 730.349,-210.805 745.77,-200.646"/>
<polygon fill="midnightblue" stroke="midnightblue" points="747.8,-203.5 754.225,-195.075 743.949,-197.654 747.8,-203.5"/>
</g>
<!-- Node23&#45;&gt;Node13 -->
<g id="edge54" class="edge"><title>Node23&#45;&gt;Node13</title>
<path fill="none" stroke="midnightblue" d="M689.004,-232.576C698.436,-218.371 717.938,-191.3 740,-174 785.985,-137.94 801.391,-130.503 858,-116 1031.25,-71.615 1484.55,-102.31 1662,-80 1667.25,-79.34 1672.78,-78.411 1678.14,-77.3825"/>
<polygon fill="midnightblue" stroke="midnightblue" points="1679.05,-80.7695 1688.14,-75.3266 1677.64,-73.913 1679.05,-80.7695"/>
</g>
<!-- Node25 -->
<g id="node25" class="node"><title>Node25</title>
<polygon fill="white" stroke="#bfbfbf" points="224.384,-59 224.384,-79 267.616,-79 267.616,-59 224.384,-59"/>
<text text-anchor="middle" x="246" y="-65" font-family="Helvetica,sans-Serif" font-size="10.00">cmath</text>
</g>
<!-- Node24&#45;&gt;Node25 -->
<g id="edge41" class="edge"><title>Node24&#45;&gt;Node25</title>
<path fill="none" stroke="midnightblue" d="M375.461,-174.671C351.277,-155.118 295.058,-109.664 265.29,-85.596"/>
<polygon fill="midnightblue" stroke="midnightblue" points="267.281,-82.7049 257.304,-79.1394 262.88,-88.1484 267.281,-82.7049"/>
</g>
<!-- Node26 -->
<g id="node26" class="node"><title>Node26</title>
<polygon fill="white" stroke="#bfbfbf" points="342.273,-117 342.273,-137 387.727,-137 387.727,-117 342.273,-117"/>
<text text-anchor="middle" x="365" y="-123" font-family="Helvetica,sans-Serif" font-size="10.00">cstring</text>
</g>
<!-- Node24&#45;&gt;Node26 -->
<g id="edge42" class="edge"><title>Node24&#45;&gt;Node26</title>
<path fill="none" stroke="midnightblue" d="M383.367,-174.753C380.356,-167.087 375.981,-155.952 372.256,-146.471"/>
<polygon fill="midnightblue" stroke="midnightblue" points="375.479,-145.103 368.565,-137.075 368.964,-147.663 375.479,-145.103"/>
</g>
<!-- Node24&#45;&gt;Node20 -->
<g id="edge43" class="edge"><title>Node24&#45;&gt;Node20</title>
<path fill="none" stroke="midnightblue" d="M426.636,-174.94C472.998,-164.343 549.172,-146.932 594.565,-136.557"/>
<polygon fill="midnightblue" stroke="midnightblue" points="595.615,-139.907 604.584,-134.267 594.056,-133.083 595.615,-139.907"/>
</g>
<!-- Node27 -->
<g id="node27" class="node"><title>Node27</title>
<polygon fill="white" stroke="#bfbfbf" points="405.884,-117 405.884,-137 454.116,-137 454.116,-117 405.884,-117"/>
<text text-anchor="middle" x="430" y="-123" font-family="Helvetica,sans-Serif" font-size="10.00">cassert</text>
</g>
<!-- Node24&#45;&gt;Node27 -->
<g id="edge44" class="edge"><title>Node24&#45;&gt;Node27</title>
<path fill="none" stroke="midnightblue" d="M394.101,-174.753C400.237,-166.761 409.27,-154.998 416.739,-145.27"/>
<polygon fill="midnightblue" stroke="midnightblue" points="419.717,-147.138 423.032,-137.075 414.165,-142.875 419.717,-147.138"/>
</g>
<!-- Node28 -->
<g id="node28" class="node"><title>Node28</title>
<polygon fill="white" stroke="#bfbfbf" points="472.613,-117 472.613,-137 511.387,-137 511.387,-117 472.613,-117"/>
<text text-anchor="middle" x="492" y="-123" font-family="Helvetica,sans-Serif" font-size="10.00">limits</text>
</g>
<!-- Node24&#45;&gt;Node28 -->
<g id="edge45" class="edge"><title>Node24&#45;&gt;Node28</title>
<path fill="none" stroke="midnightblue" d="M404.339,-174.753C421.158,-165.783 446.887,-152.06 466.128,-141.799"/>
<polygon fill="midnightblue" stroke="midnightblue" points="467.808,-144.869 474.984,-137.075 464.513,-138.693 467.808,-144.869"/>
</g>
<!-- Node29 -->
<g id="node29" class="node"><title>Node29</title>
<g id="a_node29"><a xlink:href="_cinder_math_8h.html" target="_top" xlink:title="cinder/CinderMath.h">
<polygon fill="white" stroke="black" points="27.978,-117 27.978,-137 134.022,-137 134.022,-117 27.978,-117"/>
<text text-anchor="middle" x="81" y="-123" font-family="Helvetica,sans-Serif" font-size="10.00">cinder/CinderMath.h</text>
</a>
</g>
</g>
<!-- Node24&#45;&gt;Node29 -->
<g id="edge46" class="edge"><title>Node24&#45;&gt;Node29</title>
<path fill="none" stroke="midnightblue" d="M345.731,-176.448C292.836,-166.767 200.766,-149.918 140.352,-138.862"/>
<polygon fill="midnightblue" stroke="midnightblue" points="140.665,-135.361 130.199,-137.004 139.405,-142.247 140.665,-135.361"/>
</g>
<!-- Node29&#45;&gt;Node3 -->
<g id="edge47" class="edge"><title>Node29&#45;&gt;Node3</title>
<path fill="none" stroke="midnightblue" d="M134.353,-117.727C138.964,-117.106 143.561,-116.52 148,-116 326.423,-95.0923 539.133,-79.7472 635.281,-73.3247"/>
<polygon fill="midnightblue" stroke="midnightblue" points="635.573,-76.8131 645.32,-72.6583 635.11,-69.8284 635.573,-76.8131"/>
</g>
<!-- Node29&#45;&gt;Node25 -->
<g id="edge48" class="edge"><title>Node29&#45;&gt;Node25</title>
<path fill="none" stroke="midnightblue" d="M107.877,-116.878C137.003,-106.993 183.44,-91.2323 214.319,-80.7523"/>
<polygon fill="midnightblue" stroke="midnightblue" points="215.803,-83.945 224.147,-77.4167 213.553,-77.3163 215.803,-83.945"/>
</g>
<!-- Node30 -->
<g id="node30" class="node"><title>Node30</title>
<polygon fill="white" stroke="#bfbfbf" points="-0.886719,-59 -0.886719,-79 42.8867,-79 42.8867,-59 -0.886719,-59"/>
<text text-anchor="middle" x="21" y="-65" font-family="Helvetica,sans-Serif" font-size="10.00">climits</text>
</g>
<!-- Node29&#45;&gt;Node30 -->
<g id="edge49" class="edge"><title>Node29&#45;&gt;Node30</title>
<path fill="none" stroke="midnightblue" d="M71.0922,-116.753C62.1803,-108.435 48.8903,-96.031 38.2385,-86.0893"/>
<polygon fill="midnightblue" stroke="midnightblue" points="40.4221,-83.3397 30.7234,-79.0752 35.6459,-88.4571 40.4221,-83.3397"/>
</g>
<!-- Node31 -->
<g id="node31" class="node"><title>Node31</title>
<polygon fill="white" stroke="#bfbfbf" points="61.0493,-59 61.0493,-79 100.951,-79 100.951,-59 61.0493,-59"/>
<text text-anchor="middle" x="81" y="-65" font-family="Helvetica,sans-Serif" font-size="10.00">cfloat</text>
</g>
<!-- Node29&#45;&gt;Node31 -->
<g id="edge50" class="edge"><title>Node29&#45;&gt;Node31</title>
<path fill="none" stroke="midnightblue" d="M81,-116.753C81,-109.25 81,-98.4238 81,-89.0781"/>
<polygon fill="midnightblue" stroke="midnightblue" points="84.5001,-89.0752 81,-79.0752 77.5001,-89.0752 84.5001,-89.0752"/>
</g>
<!-- Node32 -->
<g id="node32" class="node"><title>Node32</title>
<polygon fill="white" stroke="#bfbfbf" points="118.596,-59 118.596,-79 177.404,-79 177.404,-59 118.596,-59"/>
<text text-anchor="middle" x="148" y="-65" font-family="Helvetica,sans-Serif" font-size="10.00">functional</text>
</g>
<!-- Node29&#45;&gt;Node32 -->
<g id="edge51" class="edge"><title>Node29&#45;&gt;Node32</title>
<path fill="none" stroke="midnightblue" d="M92.0637,-116.753C102.21,-108.272 117.44,-95.543 129.447,-85.5073"/>
<polygon fill="midnightblue" stroke="midnightblue" points="131.714,-88.1738 137.142,-79.0752 127.225,-82.8028 131.714,-88.1738"/>
</g>
<!-- Node34&#45;&gt;Node3 -->
<g id="edge56" class="edge"><title>Node34&#45;&gt;Node3</title>
<path fill="none" stroke="midnightblue" d="M570.447,-290.91C566.062,-262.19 556.341,-171.997 596,-116 606.948,-100.543 624.641,-89.9704 641.529,-82.9002"/>
<polygon fill="midnightblue" stroke="midnightblue" points="643.246,-85.9896 651.322,-79.1316 640.732,-79.4567 643.246,-85.9896"/>
</g>
<!-- Node34&#45;&gt;Node23 -->
<g id="edge57" class="edge"><title>Node34&#45;&gt;Node23</title>
<path fill="none" stroke="midnightblue" d="M590.329,-290.753C608.19,-281.742 635.557,-267.935 655.926,-257.659"/>
<polygon fill="midnightblue" stroke="midnightblue" points="657.66,-260.704 665.012,-253.075 654.507,-254.455 657.66,-260.704"/>
</g>
<!-- Node35&#45;&gt;Node3 -->
<g id="edge59" class="edge"><title>Node35&#45;&gt;Node3</title>
<path fill="none" stroke="midnightblue" d="M504.574,-174.806C515.297,-160.415 537.891,-132.508 563,-116 586.439,-100.59 615.747,-89.4118 639.984,-81.936"/>
<polygon fill="midnightblue" stroke="midnightblue" points="641.094,-85.2574 649.684,-79.0555 639.101,-78.547 641.094,-85.2574"/>
</g>
<!-- Node36&#45;&gt;Node3 -->
<g id="edge61" class="edge"><title>Node36&#45;&gt;Node3</title>
<path fill="none" stroke="midnightblue" d="M371.849,-232.748C360.091,-224.651 344.561,-211.735 337,-196 321.581,-163.912 309.505,-142.746 333,-116 352.614,-93.6729 541.566,-78.9795 635.09,-73.0148"/>
<polygon fill="midnightblue" stroke="midnightblue" points="635.431,-76.5004 645.192,-72.3808 634.992,-69.5141 635.431,-76.5004"/>
</g>
<!-- Node36&#45;&gt;Node35 -->
<g id="edge62" class="edge"><title>Node36&#45;&gt;Node35</title>
<path fill="none" stroke="midnightblue" d="M405.329,-232.753C423.19,-223.742 450.557,-209.935 470.926,-199.659"/>
<polygon fill="midnightblue" stroke="midnightblue" points="472.66,-202.704 480.012,-195.075 469.507,-196.455 472.66,-202.704"/>
</g>
<!-- Node36&#45;&gt;Node24 -->
<g id="edge63" class="edge"><title>Node36&#45;&gt;Node24</title>
<path fill="none" stroke="midnightblue" d="M387,-232.753C387,-225.25 387,-214.424 387,-205.078"/>
<polygon fill="midnightblue" stroke="midnightblue" points="390.5,-205.075 387,-195.075 383.5,-205.075 390.5,-205.075"/>
</g>
<!-- Node36&#45;&gt;Node29 -->
<g id="edge64" class="edge"><title>Node36&#45;&gt;Node29</title>
<path fill="none" stroke="midnightblue" d="M362.733,-232.959C308.502,-212.756 177.362,-163.899 115.017,-140.673"/>
<polygon fill="midnightblue" stroke="midnightblue" points="115.862,-137.253 105.27,-137.042 113.419,-143.813 115.862,-137.253"/>
</g>
</g>
</svg>
        <g id="navigator" transform="translate(0 0)" fill="#404254">
                <rect fill="#f2f5e9" fill-opacity="0.5" stroke="#606060" stroke-width=".5" x="0" y="0" width="60" height="60"/>
                <use id="zoomplus" xlink:href="#zoomPlus" x="17" y="9" onmousedown="handleZoom(evt,'in')"/>
                <use id="zoomminus" xlink:href="#zoomMin" x="42" y="9" onmousedown="handleZoom(evt,'out')"/>
                <use id="reset" xlink:href="#resetDef" x="30" y="36" onmousedown="handleReset()"/>
                <g id="arrowUp" xlink:href="#dirArrow" transform="translate(30 24)" onmousedown="handlePan(0,-1)">
                  <use xlink:href="#rim" fill="#404040">
                        <set attributeName="fill" to="#808080" begin="arrowUp.mouseover" end="arrowUp.mouseout"/>
                  </use>
                  <path fill="none" stroke="white" stroke-width="1.5" d="M0,-3.0v7 M-2.5,-0.5L0,-3.0L2.5,-0.5"/>
                </g>
                <g id="arrowRight" xlink:href="#dirArrow" transform="rotate(90) translate(36 -43)" onmousedown="handlePan(1,0)">
                  <use xlink:href="#rim" fill="#404040">
                        <set attributeName="fill" to="#808080" begin="arrowRight.mouseover" end="arrowRight.mouseout"/>
                  </use>
                  <path fill="none" stroke="white" stroke-width="1.5" d="M0,-3.0v7 M-2.5,-0.5L0,-3.0L2.5,-0.5"/>
                </g>
                <g id="arrowDown" xlink:href="#dirArrow" transform="rotate(180) translate(-30 -48)" onmousedown="handlePan(0,1)">
                  <use xlink:href="#rim" fill="#404040">
                        <set attributeName="fill" to="#808080" begin="arrowDown.mouseover" end="arrowDown.mouseout"/>
                  </use>
                  <path fill="none" stroke="white" stroke-width="1.5" d="M0,-3.0v7 M-2.5,-0.5L0,-3.0L2.5,-0.5"/>
                </g>
                <g id="arrowLeft" xlink:href="#dirArrow" transform="rotate(270) translate(-36 17)" onmousedown="handlePan(-1,0)">
                  <use xlink:href="#rim" fill="#404040">
                        <set attributeName="fill" to="#808080" begin="arrowLeft.mouseover" end="arrowLeft.mouseout"/>
                  </use>
                  <path fill="none" stroke="white" stroke-width="1.5" d="M0,-3.0v7 M-2.5,-0.5L0,-3.0L2.5,-0.5"/>
                </g>
        </g>
        <svg viewBox="0 0 15 15" width="100%" height="30px" preserveAspectRatio="xMaxYMin meet">
         <g id="arrow_out" transform="scale(0.3 0.3)">
          <a xlink:href="_image_source_png_8cpp__incl_org.svg" target="_base">
           <rect id="button" ry="5" rx="5" y="6" x="6" height="38" width="38"
                fill="#f2f5e9" fill-opacity="0.5" stroke="#606060" stroke-width="1.0"/>
           <path id="arrow"
             d="M 11.500037,31.436501 C 11.940474,20.09759 22.043105,11.32322 32.158766,21.979434 L 37.068811,17.246167 C 37.068811,17.246167 37.088388,32 37.088388,32 L 22.160133,31.978069 C 22.160133,31.978069 26.997745,27.140456 26.997745,27.140456 C 18.528582,18.264221 13.291696,25.230495 11.500037,31.436501 z"
             style="fill:#404040;"/>
          </a>
         </g>
        </svg>
</svg>
