<?xml version="1.0" encoding="UTF-8" standalone="no"?>
<!DOCTYPE svg PUBLIC "-//W3C//DTD SVG 1.1//EN"
 "http://www.w3.org/Graphics/SVG/1.1/DTD/svg11.dtd">
<!-- Generated by graphviz version 2.30.1 (20140712.1814)
 -->
<!-- Title: include/cinder/audio/InputNode.h Pages: 1 -->
<!--zoomable 332 -->
<svg id="main" version="1.1" xmlns="http://www.w3.org/2000/svg" xmlns:xlink="http://www.w3.org/1999/xlink" xml:space="preserve" onload="init(evt)">
<style type="text/css"><![CDATA[
.edge:hover path { stroke: red; }
.edge:hover polygon { stroke: red; fill: red; }
]]></style>
<script type="text/javascript"><![CDATA[
var edges = document.getElementsByTagName('g');
if (edges && edges.length) {
  for (var i=0;i<edges.length;i++) {
    if (edges[i].id.substr(0,4)=='edge') {
      edges[i].setAttribute('class','edge');
    }
  }
}
]]></script>
        <defs>
                <circle id="rim" cx="0" cy="0" r="7"/>
                <circle id="rim2" cx="0" cy="0" r="3.5"/>
                <g id="zoomPlus">
                        <use xlink:href="#rim" fill="#404040">
                                <set attributeName="fill" to="#808080" begin="zoomplus.mouseover" end="zoomplus.mouseout"/>
                        </use>
                        <path d="M-4,0h8M0,-4v8" fill="none" stroke="white" stroke-width="1.5" pointer-events="none"/>
                </g>
                <g id="zoomMin">
                        <use xlink:href="#rim" fill="#404040">
                                <set attributeName="fill" to="#808080" begin="zoomminus.mouseover" end="zoomminus.mouseout"/>
                        </use>
                        <path d="M-4,0h8" fill="none" stroke="white" stroke-width="1.5" pointer-events="none"/>
                </g>
                <g id="dirArrow">
                        <path fill="none" stroke="white" stroke-width="1.5" d="M0,-3.0v7 M-2.5,-0.5L0,-3.0L2.5,-0.5"/>
                </g>
               <g id="resetDef">
                       <use xlink:href="#rim2" fill="#404040">
                               <set attributeName="fill" to="#808080" begin="reset.mouseover" end="reset.mouseout"/>
                       </use>
               </g>
        </defs>

<script type="text/javascript">
var viewWidth = 985;
var viewHeight = 332;
var sectionId = 'dynsection-0';
</script>
<script xlink:href="svgpan.js"/>
<svg id="graph" class="graph">
<g id="viewport">
<title>include/cinder/audio/InputNode.h</title>
<polygon fill="white" stroke="white" points="-4,5 -4,-328 982,-328 982,5 -4,5"/>
<!-- Node1 -->
<g id="node1" class="node"><title>Node1</title>
<polygon fill="#bfbfbf" stroke="black" points="508.525,-291 508.525,-323 613.475,-323 613.475,-291 508.525,-291"/>
<text text-anchor="start" x="516.525" y="-309" font-family="Helvetica,sans-Serif" font-size="10.00">include/cinder/audio</text>
<text text-anchor="middle" x="561" y="-297" font-family="Helvetica,sans-Serif" font-size="10.00">/InputNode.h</text>
</g>
<!-- Node2 -->
<g id="node2" class="node"><title>Node2</title>
<g id="a_node2"><a xlink:href="_node_8h.html" target="_top" xlink:title="cinder/audio/Node.h">
<polygon fill="white" stroke="black" points="590.247,-233 590.247,-253 695.753,-253 695.753,-233 590.247,-233"/>
<text text-anchor="middle" x="643" y="-239" font-family="Helvetica,sans-Serif" font-size="10.00">cinder/audio/Node.h</text>
</a>
</g>
</g>
<!-- Node1&#45;&gt;Node2 -->
<g id="edge1" class="edge"><title>Node1&#45;&gt;Node2</title>
<path fill="none" stroke="midnightblue" d="M580.85,-290.992C593.482,-281.441 609.802,-269.101 622.548,-259.463"/>
<polygon fill="midnightblue" stroke="midnightblue" points="624.847,-262.113 630.713,-253.29 620.625,-256.53 624.847,-262.113"/>
</g>
<!-- Node22 -->
<g id="node22" class="node"><title>Node22</title>
<g id="a_node22"><a xlink:href="_param_8h.html" target="_top" xlink:title="cinder/audio/Param.h">
<polygon fill="white" stroke="black" points="214.473,-233 214.473,-253 325.527,-253 325.527,-233 214.473,-233"/>
<text text-anchor="middle" x="270" y="-239" font-family="Helvetica,sans-Serif" font-size="10.00">cinder/audio/Param.h</text>
</a>
</g>
</g>
<!-- Node1&#45;&gt;Node22 -->
<g id="edge24" class="edge"><title>Node1&#45;&gt;Node22</title>
<path fill="none" stroke="midnightblue" d="M508.302,-294.772C455.525,-283.528 374.789,-266.326 322.192,-255.12"/>
<polygon fill="midnightblue" stroke="midnightblue" points="322.898,-251.692 312.388,-253.031 321.439,-258.538 322.898,-251.692"/>
</g>
<!-- Node25 -->
<g id="node25" class="node"><title>Node25</title>
<g id="a_node25"><a xlink:href="_device_8h.html" target="_top" xlink:title="cinder/audio/Device.h">
<polygon fill="white" stroke="black" points="504.917,-175 504.917,-195 617.083,-195 617.083,-175 504.917,-175"/>
<text text-anchor="middle" x="561" y="-181" font-family="Helvetica,sans-Serif" font-size="10.00">cinder/audio/Device.h</text>
</a>
</g>
</g>
<!-- Node1&#45;&gt;Node25 -->
<g id="edge29" class="edge"><title>Node1&#45;&gt;Node25</title>
<path fill="none" stroke="midnightblue" d="M561,-290.802C561,-269.123 561,-229.313 561,-205.49"/>
<polygon fill="midnightblue" stroke="midnightblue" points="564.5,-205.229 561,-195.229 557.5,-205.229 564.5,-205.229"/>
</g>
<!-- Node3 -->
<g id="node3" class="node"><title>Node3</title>
<g id="a_node3"><a xlink:href="audio_2_buffer_8h.html" target="_top" xlink:title="cinder/audio/Buffer.h">
<polygon fill="white" stroke="black" points="311.221,-175 311.221,-195 418.779,-195 418.779,-175 311.221,-175"/>
<text text-anchor="middle" x="365" y="-181" font-family="Helvetica,sans-Serif" font-size="10.00">cinder/audio/Buffer.h</text>
</a>
</g>
</g>
<!-- Node2&#45;&gt;Node3 -->
<g id="edge2" class="edge"><title>Node2&#45;&gt;Node3</title>
<path fill="none" stroke="midnightblue" d="M598.026,-232.94C549.475,-223.16 472.113,-207.577 419.983,-197.076"/>
<polygon fill="midnightblue" stroke="midnightblue" points="420.404,-193.59 409.91,-195.047 419.022,-200.452 420.404,-193.59"/>
</g>
<!-- Node11 -->
<g id="node11" class="node"><title>Node11</title>
<g id="a_node11"><a xlink:href="audio_2_exception_8h.html" target="_top" xlink:title="cinder/audio/Exception.h">
<polygon fill="white" stroke="black" points="673.242,-175 673.242,-195 798.758,-195 798.758,-175 673.242,-175"/>
<text text-anchor="middle" x="736" y="-181" font-family="Helvetica,sans-Serif" font-size="10.00">cinder/audio/Exception.h</text>
</a>
</g>
</g>
<!-- Node2&#45;&gt;Node11 -->
<g id="edge10" class="edge"><title>Node2&#45;&gt;Node11</title>
<path fill="none" stroke="midnightblue" d="M658.357,-232.753C672.983,-223.946 695.217,-210.558 712.149,-200.362"/>
<polygon fill="midnightblue" stroke="midnightblue" points="714.167,-203.232 720.929,-195.075 710.556,-197.235 714.167,-203.232"/>
</g>
<!-- Node18 -->
<g id="node18" class="node"><title>Node18</title>
<polygon fill="white" stroke="#bfbfbf" points="599.291,-117 599.291,-137 718.709,-137 718.709,-117 599.291,-117"/>
<text text-anchor="middle" x="659" y="-123" font-family="Helvetica,sans-Serif" font-size="10.00">boost/noncopyable.hpp</text>
</g>
<!-- Node2&#45;&gt;Node18 -->
<g id="edge19" class="edge"><title>Node2&#45;&gt;Node18</title>
<path fill="none" stroke="midnightblue" d="M644.309,-232.671C646.924,-214.041 652.839,-171.898 656.313,-147.143"/>
<polygon fill="midnightblue" stroke="midnightblue" points="659.793,-147.529 657.717,-137.139 652.861,-146.556 659.793,-147.529"/>
</g>
<!-- Node19 -->
<g id="node19" class="node"><title>Node19</title>
<polygon fill="white" stroke="#bfbfbf" points="816.357,-175 816.357,-195 929.643,-195 929.643,-175 816.357,-175"/>
<text text-anchor="middle" x="873" y="-181" font-family="Helvetica,sans-Serif" font-size="10.00">boost/logic/tribool.hpp</text>
</g>
<!-- Node2&#45;&gt;Node19 -->
<g id="edge20" class="edge"><title>Node2&#45;&gt;Node19</title>
<path fill="none" stroke="midnightblue" d="M680.209,-232.94C719.875,-223.283 782.785,-207.965 825.883,-197.472"/>
<polygon fill="midnightblue" stroke="midnightblue" points="826.956,-200.813 835.844,-195.047 825.3,-194.012 826.956,-200.813"/>
</g>
<!-- Node8 -->
<g id="node8" class="node"><title>Node8</title>
<polygon fill="white" stroke="#bfbfbf" points="342.943,-117 342.943,-137 395.057,-137 395.057,-117 342.943,-117"/>
<text text-anchor="middle" x="369" y="-123" font-family="Helvetica,sans-Serif" font-size="10.00">memory</text>
</g>
<!-- Node2&#45;&gt;Node8 -->
<g id="edge21" class="edge"><title>Node2&#45;&gt;Node8</title>
<path fill="none" stroke="midnightblue" d="M607.587,-232.939C577.391,-224.737 533.109,-211.577 496,-196 458.579,-180.292 417.571,-157.176 392.559,-142.355"/>
<polygon fill="midnightblue" stroke="midnightblue" points="394.175,-139.243 383.796,-137.113 390.581,-145.25 394.175,-139.243"/>
</g>
<!-- Node20 -->
<g id="node20" class="node"><title>Node20</title>
<polygon fill="white" stroke="#bfbfbf" points="247.273,-175 247.273,-195 292.727,-195 292.727,-175 247.273,-175"/>
<text text-anchor="middle" x="270" y="-181" font-family="Helvetica,sans-Serif" font-size="10.00">atomic</text>
</g>
<!-- Node2&#45;&gt;Node20 -->
<g id="edge22" class="edge"><title>Node2&#45;&gt;Node20</title>
<path fill="none" stroke="midnightblue" d="M590.231,-237.667C524.842,-231.681 409.964,-219.157 302.945,-195.891"/>
<polygon fill="midnightblue" stroke="midnightblue" points="303.466,-192.421 292.947,-193.68 301.955,-199.256 303.466,-192.421"/>
</g>
<!-- Node21 -->
<g id="node21" class="node"><title>Node21</title>
<polygon fill="white" stroke="#bfbfbf" points="947.33,-175 947.33,-195 976.67,-195 976.67,-175 947.33,-175"/>
<text text-anchor="middle" x="962" y="-181" font-family="Helvetica,sans-Serif" font-size="10.00">set</text>
</g>
<!-- Node2&#45;&gt;Node21 -->
<g id="edge23" class="edge"><title>Node2&#45;&gt;Node21</title>
<path fill="none" stroke="midnightblue" d="M695.769,-237.623C753.333,-231.997 848.102,-220.243 937.473,-195.558"/>
<polygon fill="midnightblue" stroke="midnightblue" points="938.545,-198.893 947.218,-192.808 936.644,-192.156 938.545,-198.893"/>
</g>
<!-- Node4 -->
<g id="node4" class="node"><title>Node4</title>
<g id="a_node4"><a xlink:href="_cinder_assert_8h.html" target="_top" xlink:title="cinder/CinderAssert.h">
<polygon fill="white" stroke="black" points="72.9238,-117 72.9238,-137 185.076,-137 185.076,-117 72.9238,-117"/>
<text text-anchor="middle" x="129" y="-123" font-family="Helvetica,sans-Serif" font-size="10.00">cinder/CinderAssert.h</text>
</a>
</g>
</g>
<!-- Node3&#45;&gt;Node4 -->
<g id="edge3" class="edge"><title>Node3&#45;&gt;Node4</title>
<path fill="none" stroke="midnightblue" d="M326.82,-174.94C286.034,-165.262 221.296,-149.901 177.066,-139.406"/>
<polygon fill="midnightblue" stroke="midnightblue" points="177.663,-135.95 167.125,-137.047 176.047,-142.761 177.663,-135.95"/>
</g>
<!-- Node7 -->
<g id="node7" class="node"><title>Node7</title>
<polygon fill="white" stroke="#bfbfbf" points="636.384,-59 636.384,-79 679.616,-79 679.616,-59 636.384,-59"/>
<text text-anchor="middle" x="658" y="-65" font-family="Helvetica,sans-Serif" font-size="10.00">vector</text>
</g>
<!-- Node3&#45;&gt;Node7 -->
<g id="edge6" class="edge"><title>Node3&#45;&gt;Node7</title>
<path fill="none" stroke="midnightblue" d="M399.199,-174.933C429.706,-166.494 475.386,-152.991 514,-138 556.143,-121.639 603.199,-98.4361 631.698,-83.8064"/>
<polygon fill="midnightblue" stroke="midnightblue" points="633.341,-86.897 640.618,-79.196 630.127,-80.6786 633.341,-86.897"/>
</g>
<!-- Node3&#45;&gt;Node8 -->
<g id="edge7" class="edge"><title>Node3&#45;&gt;Node8</title>
<path fill="none" stroke="midnightblue" d="M365.661,-174.753C366.196,-167.25 366.97,-156.424 367.637,-147.078"/>
<polygon fill="midnightblue" stroke="midnightblue" points="371.13,-147.299 368.352,-137.075 364.148,-146.8 371.13,-147.299"/>
</g>
<!-- Node9 -->
<g id="node9" class="node"><title>Node9</title>
<polygon fill="white" stroke="#bfbfbf" points="242.828,-117 242.828,-137 287.172,-137 287.172,-117 242.828,-117"/>
<text text-anchor="middle" x="265" y="-123" font-family="Helvetica,sans-Serif" font-size="10.00">cstdlib</text>
</g>
<!-- Node3&#45;&gt;Node9 -->
<g id="edge8" class="edge"><title>Node3&#45;&gt;Node9</title>
<path fill="none" stroke="midnightblue" d="M348.487,-174.753C332.614,-165.864 308.409,-152.309 290.142,-142.079"/>
<polygon fill="midnightblue" stroke="midnightblue" points="291.641,-138.907 281.206,-137.075 288.221,-145.015 291.641,-138.907"/>
</g>
<!-- Node10 -->
<g id="node10" class="node"><title>Node10</title>
<polygon fill="white" stroke="#bfbfbf" points="286.436,-59 286.436,-79 343.564,-79 343.564,-59 286.436,-59"/>
<text text-anchor="middle" x="315" y="-65" font-family="Helvetica,sans-Serif" font-size="10.00">algorithm</text>
</g>
<!-- Node3&#45;&gt;Node10 -->
<g id="edge9" class="edge"><title>Node3&#45;&gt;Node10</title>
<path fill="none" stroke="midnightblue" d="M357.389,-174.67C350.433,-165.737 340.3,-151.639 334,-138 326.699,-122.195 321.651,-102.996 318.603,-89.0344"/>
<polygon fill="midnightblue" stroke="midnightblue" points="322.01,-88.2243 316.583,-79.125 315.151,-89.6226 322.01,-88.2243"/>
</g>
<!-- Node5 -->
<g id="node5" class="node"><title>Node5</title>
<g id="a_node5"><a xlink:href="_current_function_8h.html" target="_top" xlink:title="cinder/CurrentFunction.h">
<polygon fill="white" stroke="black" points="65.9731,-59 65.9731,-79 192.027,-79 192.027,-59 65.9731,-59"/>
<text text-anchor="middle" x="129" y="-65" font-family="Helvetica,sans-Serif" font-size="10.00">cinder/CurrentFunction.h</text>
</a>
</g>
</g>
<!-- Node4&#45;&gt;Node5 -->
<g id="edge4" class="edge"><title>Node4&#45;&gt;Node5</title>
<path fill="none" stroke="midnightblue" d="M129,-116.753C129,-109.25 129,-98.4238 129,-89.0781"/>
<polygon fill="midnightblue" stroke="midnightblue" points="132.5,-89.0752 129,-79.0752 125.5,-89.0752 132.5,-89.0752"/>
</g>
<!-- Node6 -->
<g id="node6" class="node"><title>Node6</title>
<polygon fill="white" stroke="#bfbfbf" points="-0.115723,-59 -0.115723,-79 48.1157,-79 48.1157,-59 -0.115723,-59"/>
<text text-anchor="middle" x="24" y="-65" font-family="Helvetica,sans-Serif" font-size="10.00">cassert</text>
</g>
<!-- Node4&#45;&gt;Node6 -->
<g id="edge5" class="edge"><title>Node4&#45;&gt;Node6</title>
<path fill="none" stroke="midnightblue" d="M111.661,-116.753C94.8423,-107.783 69.1127,-94.0601 49.8724,-83.7986"/>
<polygon fill="midnightblue" stroke="midnightblue" points="51.4866,-80.6929 41.016,-79.0752 48.1924,-86.8694 51.4866,-80.6929"/>
</g>
<!-- Node12 -->
<g id="node12" class="node"><title>Node12</title>
<g id="a_node12"><a xlink:href="_exception_8h.html" target="_top" xlink:title="cinder/Exception.h">
<polygon fill="white" stroke="black" points="736.865,-117 736.865,-137 835.135,-137 835.135,-117 736.865,-117"/>
<text text-anchor="middle" x="786" y="-123" font-family="Helvetica,sans-Serif" font-size="10.00">cinder/Exception.h</text>
</a>
</g>
</g>
<!-- Node11&#45;&gt;Node12 -->
<g id="edge11" class="edge"><title>Node11&#45;&gt;Node12</title>
<path fill="none" stroke="midnightblue" d="M744.256,-174.753C751.537,-166.598 762.325,-154.516 771.11,-144.677"/>
<polygon fill="midnightblue" stroke="midnightblue" points="773.848,-146.866 777.897,-137.075 768.626,-142.204 773.848,-146.866"/>
</g>
<!-- Node17 -->
<g id="node17" class="node"><title>Node17</title>
<polygon fill="white" stroke="#bfbfbf" points="842.773,-59 842.773,-79 883.227,-79 883.227,-59 842.773,-59"/>
<text text-anchor="middle" x="863" y="-65" font-family="Helvetica,sans-Serif" font-size="10.00">string</text>
</g>
<!-- Node11&#45;&gt;Node17 -->
<g id="edge18" class="edge"><title>Node11&#45;&gt;Node17</title>
<path fill="none" stroke="midnightblue" d="M782.305,-174.992C818.889,-166.824 865.62,-153.682 877,-138 887.468,-123.574 881.171,-103.125 873.985,-88.4244"/>
<polygon fill="midnightblue" stroke="midnightblue" points="876.894,-86.4458 869.063,-79.3102 870.735,-89.7722 876.894,-86.4458"/>
</g>
<!-- Node13 -->
<g id="node13" class="node"><title>Node13</title>
<g id="a_node13"><a xlink:href="_cinder_8h.html" target="_top" xlink:title="cinder/Cinder.h">
<polygon fill="white" stroke="black" points="535.367,-59 535.367,-79 618.633,-79 618.633,-59 535.367,-59"/>
<text text-anchor="middle" x="577" y="-65" font-family="Helvetica,sans-Serif" font-size="10.00">cinder/Cinder.h</text>
</a>
</g>
</g>
<!-- Node12&#45;&gt;Node13 -->
<g id="edge12" class="edge"><title>Node12&#45;&gt;Node13</title>
<path fill="none" stroke="midnightblue" d="M751.955,-116.878C716.172,-107.29 659.759,-92.1748 620.709,-81.7116"/>
<polygon fill="midnightblue" stroke="midnightblue" points="621.249,-78.2328 610.684,-79.0253 619.437,-84.9943 621.249,-78.2328"/>
</g>
<!-- Node12&#45;&gt;Node7 -->
<g id="edge16" class="edge"><title>Node12&#45;&gt;Node7</title>
<path fill="none" stroke="midnightblue" d="M765.15,-116.878C744.23,-107.725 711.796,-93.5357 688.09,-83.1643"/>
<polygon fill="midnightblue" stroke="midnightblue" points="689.406,-79.9198 678.841,-79.1181 686.6,-86.3329 689.406,-79.9198"/>
</g>
<!-- Node12&#45;&gt;Node17 -->
<g id="edge17" class="edge"><title>Node12&#45;&gt;Node17</title>
<path fill="none" stroke="midnightblue" d="M798.715,-116.753C810.488,-108.19 828.216,-95.2978 842.074,-85.2186"/>
<polygon fill="midnightblue" stroke="midnightblue" points="844.493,-87.7875 850.522,-79.0752 840.376,-82.1264 844.493,-87.7875"/>
</g>
<!-- Node14 -->
<g id="node14" class="node"><title>Node14</title>
<polygon fill="white" stroke="#bfbfbf" points="466.549,-1 466.549,-21 511.451,-21 511.451,-1 466.549,-1"/>
<text text-anchor="middle" x="489" y="-7" font-family="Helvetica,sans-Serif" font-size="10.00">cstdint</text>
</g>
<!-- Node13&#45;&gt;Node14 -->
<g id="edge13" class="edge"><title>Node13&#45;&gt;Node14</title>
<path fill="none" stroke="midnightblue" d="M562.469,-58.7527C548.757,-50.0272 527.979,-36.8051 512.015,-26.6458"/>
<polygon fill="midnightblue" stroke="midnightblue" points="513.577,-23.4912 503.261,-21.0752 509.819,-29.3968 513.577,-23.4912"/>
</g>
<!-- Node15 -->
<g id="node15" class="node"><title>Node15</title>
<polygon fill="white" stroke="#bfbfbf" points="529.53,-1 529.53,-21 624.47,-21 624.47,-1 529.53,-1"/>
<text text-anchor="middle" x="577" y="-7" font-family="Helvetica,sans-Serif" font-size="10.00">boost/version.hpp</text>
</g>
<!-- Node13&#45;&gt;Node15 -->
<g id="edge14" class="edge"><title>Node13&#45;&gt;Node15</title>
<path fill="none" stroke="midnightblue" d="M577,-58.7527C577,-51.2504 577,-40.4238 577,-31.0781"/>
<polygon fill="midnightblue" stroke="midnightblue" points="580.5,-31.0752 577,-21.0752 573.5,-31.0752 580.5,-31.0752"/>
</g>
<!-- Node16 -->
<g id="node16" class="node"><title>Node16</title>
<polygon fill="white" stroke="#bfbfbf" points="642.621,-1 642.621,-21 775.379,-21 775.379,-1 642.621,-1"/>
<text text-anchor="middle" x="709" y="-7" font-family="Helvetica,sans-Serif" font-size="10.00">boost/checked_delete.hpp</text>
</g>
<!-- Node13&#45;&gt;Node16 -->
<g id="edge15" class="edge"><title>Node13&#45;&gt;Node16</title>
<path fill="none" stroke="midnightblue" d="M598.502,-58.878C620.172,-49.6848 653.821,-35.4095 678.295,-25.0263"/>
<polygon fill="midnightblue" stroke="midnightblue" points="679.668,-28.2457 687.507,-21.1181 676.935,-21.8016 679.668,-28.2457"/>
</g>
<!-- Node22&#45;&gt;Node3 -->
<g id="edge25" class="edge"><title>Node22&#45;&gt;Node3</title>
<path fill="none" stroke="midnightblue" d="M285.687,-232.753C300.628,-223.946 323.34,-210.558 340.636,-200.362"/>
<polygon fill="midnightblue" stroke="midnightblue" points="342.767,-203.169 349.605,-195.075 339.213,-197.138 342.767,-203.169"/>
</g>
<!-- Node23 -->
<g id="node23" class="node"><title>Node23</title>
<polygon fill="white" stroke="#bfbfbf" points="157.5,-175 157.5,-195 186.5,-195 186.5,-175 157.5,-175"/>
<text text-anchor="middle" x="171.611" y="-181" font-family="Helvetica,sans-Serif" font-size="10.00">list</text>
</g>
<!-- Node22&#45;&gt;Node23 -->
<g id="edge26" class="edge"><title>Node22&#45;&gt;Node23</title>
<path fill="none" stroke="midnightblue" d="M253.817,-232.753C237.892,-223.652 213.407,-209.661 195.37,-199.354"/>
<polygon fill="midnightblue" stroke="midnightblue" points="197.024,-196.269 186.605,-194.346 193.551,-202.346 197.024,-196.269"/>
</g>
<!-- Node22&#45;&gt;Node20 -->
<g id="edge27" class="edge"><title>Node22&#45;&gt;Node20</title>
<path fill="none" stroke="midnightblue" d="M270,-232.753C270,-225.25 270,-214.424 270,-205.078"/>
<polygon fill="midnightblue" stroke="midnightblue" points="273.5,-205.075 270,-195.075 266.5,-205.075 273.5,-205.075"/>
</g>
<!-- Node24 -->
<g id="node24" class="node"><title>Node24</title>
<polygon fill="white" stroke="#bfbfbf" points="209.596,-59 209.596,-79 268.404,-79 268.404,-59 209.596,-59"/>
<text text-anchor="middle" x="239" y="-65" font-family="Helvetica,sans-Serif" font-size="10.00">functional</text>
</g>
<!-- Node22&#45;&gt;Node24 -->
<g id="edge28" class="edge"><title>Node22&#45;&gt;Node24</title>
<path fill="none" stroke="midnightblue" d="M261.472,-232.98C253.818,-224.266 243.037,-210.316 238,-196 225.344,-160.031 230.386,-114.63 234.893,-89.3163"/>
<polygon fill="midnightblue" stroke="midnightblue" points="238.386,-89.6896 236.86,-79.2051 231.515,-88.3524 238.386,-89.6896"/>
</g>
<!-- Node26 -->
<g id="node26" class="node"><title>Node26</title>
<g id="a_node26"><a xlink:href="_function_8h.html" target="_top" xlink:title="cinder/Function.h">
<polygon fill="white" stroke="black" points="412.646,-117 412.646,-137 505.354,-137 505.354,-117 412.646,-117"/>
<text text-anchor="middle" x="459" y="-123" font-family="Helvetica,sans-Serif" font-size="10.00">cinder/Function.h</text>
</a>
</g>
</g>
<!-- Node25&#45;&gt;Node26 -->
<g id="edge30" class="edge"><title>Node25&#45;&gt;Node26</title>
<path fill="none" stroke="midnightblue" d="M544.157,-174.753C527.892,-165.823 503.051,-152.185 484.388,-141.939"/>
<polygon fill="midnightblue" stroke="midnightblue" points="485.98,-138.82 475.53,-137.075 482.611,-144.956 485.98,-138.82"/>
</g>
<!-- Node25&#45;&gt;Node8 -->
<g id="edge37" class="edge"><title>Node25&#45;&gt;Node8</title>
<path fill="none" stroke="midnightblue" d="M529.725,-174.878C495.535,-164.906 440.845,-148.955 404.921,-138.477"/>
<polygon fill="midnightblue" stroke="midnightblue" points="405.899,-135.117 395.319,-135.676 403.939,-141.837 405.899,-135.117"/>
</g>
<!-- Node25&#45;&gt;Node17 -->
<g id="edge38" class="edge"><title>Node25&#45;&gt;Node17</title>
<path fill="none" stroke="midnightblue" d="M617.25,-178.121C694.915,-169.516 827.351,-152.892 844,-138 857.675,-125.769 861.854,-104.596 862.967,-89.1177"/>
<polygon fill="midnightblue" stroke="midnightblue" points="866.466,-89.1818 863.327,-79.0629 859.471,-88.9311 866.466,-89.1818"/>
</g>
<!-- Node25&#45;&gt;Node7 -->
<g id="edge39" class="edge"><title>Node25&#45;&gt;Node7</title>
<path fill="none" stroke="midnightblue" d="M563.143,-174.757C566.751,-160.788 575.139,-134.021 590,-116 600.831,-102.866 616.357,-91.9747 629.839,-84.0921"/>
<polygon fill="midnightblue" stroke="midnightblue" points="631.729,-87.0463 638.764,-79.125 628.324,-80.9297 631.729,-87.0463"/>
</g>
<!-- Node25&#45;&gt;Node18 -->
<g id="edge40" class="edge"><title>Node25&#45;&gt;Node18</title>
<path fill="none" stroke="midnightblue" d="M577.183,-174.753C592.738,-165.864 616.459,-152.309 634.361,-142.079"/>
<polygon fill="midnightblue" stroke="midnightblue" points="636.172,-145.075 643.118,-137.075 632.699,-138.998 636.172,-145.075"/>
</g>
<!-- Node26&#45;&gt;Node13 -->
<g id="edge31" class="edge"><title>Node26&#45;&gt;Node13</title>
<path fill="none" stroke="midnightblue" d="M478.221,-116.878C497.336,-107.807 526.876,-93.7876 548.676,-83.4418"/>
<polygon fill="midnightblue" stroke="midnightblue" points="550.253,-86.5676 557.787,-79.1181 547.252,-80.2436 550.253,-86.5676"/>
</g>
<!-- Node26&#45;&gt;Node10 -->
<g id="edge32" class="edge"><title>Node26&#45;&gt;Node10</title>
<path fill="none" stroke="midnightblue" d="M435.543,-116.878C411.695,-107.603 374.545,-93.1564 347.79,-82.7515"/>
<polygon fill="midnightblue" stroke="midnightblue" points="349.035,-79.4806 338.447,-79.1181 346.498,-86.0046 349.035,-79.4806"/>
</g>
<!-- Node26&#45;&gt;Node7 -->
<g id="edge33" class="edge"><title>Node26&#45;&gt;Node7</title>
<path fill="none" stroke="midnightblue" d="M493.879,-116.937C525.952,-108.496 575.035,-95.3069 626.687,-79.9998"/>
<polygon fill="midnightblue" stroke="midnightblue" points="627.774,-83.328 636.358,-77.1176 625.775,-76.6195 627.774,-83.328"/>
</g>
<!-- Node27 -->
<g id="node27" class="node"><title>Node27</title>
<polygon fill="white" stroke="#bfbfbf" points="478.608,-59 478.608,-79 517.392,-79 517.392,-59 478.608,-59"/>
<text text-anchor="middle" x="498" y="-65" font-family="Helvetica,sans-Serif" font-size="10.00">utility</text>
</g>
<!-- Node26&#45;&gt;Node27 -->
<g id="edge34" class="edge"><title>Node26&#45;&gt;Node27</title>
<path fill="none" stroke="midnightblue" d="M465.44,-116.753C470.949,-108.843 479.031,-97.2372 485.765,-87.5683"/>
<polygon fill="midnightblue" stroke="midnightblue" points="488.837,-89.2815 491.68,-79.0752 483.093,-85.281 488.837,-89.2815"/>
</g>
<!-- Node28 -->
<g id="node28" class="node"><title>Node28</title>
<polygon fill="white" stroke="#bfbfbf" points="361.303,-59 361.303,-79 460.697,-79 460.697,-59 361.303,-59"/>
<text text-anchor="middle" x="411" y="-65" font-family="Helvetica,sans-Serif" font-size="10.00">boost/signals2.hpp</text>
</g>
<!-- Node26&#45;&gt;Node28 -->
<g id="edge35" class="edge"><title>Node26&#45;&gt;Node28</title>
<path fill="none" stroke="midnightblue" d="M451.074,-116.753C444.084,-108.598 433.728,-96.5158 425.294,-86.6769"/>
<polygon fill="midnightblue" stroke="midnightblue" points="427.944,-84.39 418.779,-79.0752 422.629,-88.9456 427.944,-84.39"/>
</g>
<!-- Node26&#45;&gt;Node24 -->
<g id="edge36" class="edge"><title>Node26&#45;&gt;Node24</title>
<path fill="none" stroke="midnightblue" d="M422.716,-116.94C388.045,-108.258 334.047,-94.6734 278.474,-80.3648"/>
<polygon fill="midnightblue" stroke="midnightblue" points="279.008,-76.8881 268.451,-77.7806 277.261,-83.6665 279.008,-76.8881"/>
</g>
</g>
</svg>
        <g id="navigator" transform="translate(0 0)" fill="#404254">
                <rect fill="#f2f5e9" fill-opacity="0.5" stroke="#606060" stroke-width=".5" x="0" y="0" width="60" height="60"/>
                <use id="zoomplus" xlink:href="#zoomPlus" x="17" y="9" onmousedown="handleZoom(evt,'in')"/>
                <use id="zoomminus" xlink:href="#zoomMin" x="42" y="9" onmousedown="handleZoom(evt,'out')"/>
                <use id="reset" xlink:href="#resetDef" x="30" y="36" onmousedown="handleReset()"/>
                <g id="arrowUp" xlink:href="#dirArrow" transform="translate(30 24)" onmousedown="handlePan(0,-1)">
                  <use xlink:href="#rim" fill="#404040">
                        <set attributeName="fill" to="#808080" begin="arrowUp.mouseover" end="arrowUp.mouseout"/>
                  </use>
                  <path fill="none" stroke="white" stroke-width="1.5" d="M0,-3.0v7 M-2.5,-0.5L0,-3.0L2.5,-0.5"/>
                </g>
                <g id="arrowRight" xlink:href="#dirArrow" transform="rotate(90) translate(36 -43)" onmousedown="handlePan(1,0)">
                  <use xlink:href="#rim" fill="#404040">
                        <set attributeName="fill" to="#808080" begin="arrowRight.mouseover" end="arrowRight.mouseout"/>
                  </use>
                  <path fill="none" stroke="white" stroke-width="1.5" d="M0,-3.0v7 M-2.5,-0.5L0,-3.0L2.5,-0.5"/>
                </g>
                <g id="arrowDown" xlink:href="#dirArrow" transform="rotate(180) translate(-30 -48)" onmousedown="handlePan(0,1)">
                  <use xlink:href="#rim" fill="#404040">
                        <set attributeName="fill" to="#808080" begin="arrowDown.mouseover" end="arrowDown.mouseout"/>
                  </use>
                  <path fill="none" stroke="white" stroke-width="1.5" d="M0,-3.0v7 M-2.5,-0.5L0,-3.0L2.5,-0.5"/>
                </g>
                <g id="arrowLeft" xlink:href="#dirArrow" transform="rotate(270) translate(-36 17)" onmousedown="handlePan(-1,0)">
                  <use xlink:href="#rim" fill="#404040">
                        <set attributeName="fill" to="#808080" begin="arrowLeft.mouseover" end="arrowLeft.mouseout"/>
                  </use>
                  <path fill="none" stroke="white" stroke-width="1.5" d="M0,-3.0v7 M-2.5,-0.5L0,-3.0L2.5,-0.5"/>
                </g>
        </g>
        <svg viewBox="0 0 15 15" width="100%" height="30px" preserveAspectRatio="xMaxYMin meet">
         <g id="arrow_out" transform="scale(0.3 0.3)">
          <a xlink:href="_input_node_8h__incl_org.svg" target="_base">
           <rect id="button" ry="5" rx="5" y="6" x="6" height="38" width="38"
                fill="#f2f5e9" fill-opacity="0.5" stroke="#606060" stroke-width="1.0"/>
           <path id="arrow"
             d="M 11.500037,31.436501 C 11.940474,20.09759 22.043105,11.32322 32.158766,21.979434 L 37.068811,17.246167 C 37.068811,17.246167 37.088388,32 37.088388,32 L 22.160133,31.978069 C 22.160133,31.978069 26.997745,27.140456 26.997745,27.140456 C 18.528582,18.264221 13.291696,25.230495 11.500037,31.436501 z"
             style="fill:#404040;"/>
          </a>
         </g>
        </svg>
</svg>
