<?xml version="1.0" encoding="UTF-8" standalone="no"?>
<!DOCTYPE svg PUBLIC "-//W3C//DTD SVG 1.1//EN"
 "http://www.w3.org/Graphics/SVG/1.1/DTD/svg11.dtd">
<!-- Generated by graphviz version 2.30.1 (20140712.1814)
 -->
<!-- Title: include/cinder/audio/InputNode.h Pages: 1 -->
<svg width="2068pt" height="252pt"
 viewBox="0.00 0.00 2068.00 252.00" xmlns="http://www.w3.org/2000/svg" xmlns:xlink="http://www.w3.org/1999/xlink">
<g id="graph0" class="graph" transform="scale(1 1) rotate(0) translate(4 248)">
<title>include/cinder/audio/InputNode.h</title>
<polygon fill="white" stroke="white" points="-4,5 -4,-248 2065,-248 2065,5 -4,5"/>
<!-- Node1 -->
<g id="node1" class="node"><title>Node1</title>
<polygon fill="#bfbfbf" stroke="black" points="1149.52,-211 1149.52,-243 1254.48,-243 1254.48,-211 1149.52,-211"/>
<text text-anchor="start" x="1157.52" y="-229" font-family="Helvetica,sans-Serif" font-size="10.00">include/cinder/audio</text>
<text text-anchor="middle" x="1202" y="-217" font-family="Helvetica,sans-Serif" font-size="10.00">/InputNode.h</text>
</g>
<!-- Node2 -->
<g id="node2" class="node"><title>Node2</title>
<g id="a_node2"><a xlink:href="_context_8h.html" target="_top" xlink:title="include/cinder/audio\l/Context.h">
<polygon fill="white" stroke="black" points="945.525,-141 945.525,-173 1050.48,-173 1050.48,-141 945.525,-141"/>
<text text-anchor="start" x="953.525" y="-159" font-family="Helvetica,sans-Serif" font-size="10.00">include/cinder/audio</text>
<text text-anchor="middle" x="998" y="-147" font-family="Helvetica,sans-Serif" font-size="10.00">/Context.h</text>
</a>
</g>
</g>
<!-- Node1&#45;&gt;Node2 -->
<g id="edge1" class="edge"><title>Node1&#45;&gt;Node2</title>
<path fill="none" stroke="midnightblue" d="M1147.17,-207.724C1114.65,-196.885 1073.93,-183.312 1043.26,-173.086"/>
<polygon fill="midnightblue" stroke="midnightblue" points="1146.39,-211.151 1156.98,-210.993 1148.6,-204.51 1146.39,-211.151"/>
</g>
<!-- Node18 -->
<g id="node18" class="node"><title>Node18</title>
<g id="a_node18"><a xlink:href="_gen_node_8h.html" target="_top" xlink:title="include/cinder/audio\l/GenNode.h">
<polygon fill="white" stroke="black" points="525.525,-141 525.525,-173 630.475,-173 630.475,-141 525.525,-141"/>
<text text-anchor="start" x="533.525" y="-159" font-family="Helvetica,sans-Serif" font-size="10.00">include/cinder/audio</text>
<text text-anchor="middle" x="578" y="-147" font-family="Helvetica,sans-Serif" font-size="10.00">/GenNode.h</text>
</a>
</g>
</g>
<!-- Node1&#45;&gt;Node18 -->
<g id="edge17" class="edge"><title>Node1&#45;&gt;Node18</title>
<path fill="none" stroke="midnightblue" d="M1139.32,-219.169C1016.3,-205.763 745.274,-176.229 630.743,-163.748"/>
<polygon fill="midnightblue" stroke="midnightblue" points="1139.02,-222.657 1149.34,-220.261 1139.77,-215.698 1139.02,-222.657"/>
</g>
<!-- Node19 -->
<g id="node19" class="node"><title>Node19</title>
<g id="a_node19"><a xlink:href="_sample_player_node_8h.html" target="_top" xlink:title="include/cinder/audio\l/SamplePlayerNode.h">
<polygon fill="white" stroke="black" points="1804.36,-141 1804.36,-173 1917.64,-173 1917.64,-141 1804.36,-141"/>
<text text-anchor="start" x="1812.36" y="-159" font-family="Helvetica,sans-Serif" font-size="10.00">include/cinder/audio</text>
<text text-anchor="middle" x="1861" y="-147" font-family="Helvetica,sans-Serif" font-size="10.00">/SamplePlayerNode.h</text>
</a>
</g>
</g>
<!-- Node1&#45;&gt;Node19 -->
<g id="edge19" class="edge"><title>Node1&#45;&gt;Node19</title>
<path fill="none" stroke="midnightblue" d="M1264.55,-219.545C1392.29,-206.365 1681.38,-176.534 1804.15,-163.867"/>
<polygon fill="midnightblue" stroke="midnightblue" points="1264.13,-216.071 1254.54,-220.579 1264.84,-223.034 1264.13,-216.071"/>
</g>
<!-- Node20 -->
<g id="node20" class="node"><title>Node20</title>
<g id="a_node20"><a xlink:href="_voice_8h.html" target="_top" xlink:title="include/cinder/audio\l/Voice.h">
<polygon fill="white" stroke="black" points="1954.52,-71 1954.52,-103 2059.48,-103 2059.48,-71 1954.52,-71"/>
<text text-anchor="start" x="1962.52" y="-89" font-family="Helvetica,sans-Serif" font-size="10.00">include/cinder/audio</text>
<text text-anchor="middle" x="2007" y="-77" font-family="Helvetica,sans-Serif" font-size="10.00">/Voice.h</text>
</a>
</g>
</g>
<!-- Node1&#45;&gt;Node20 -->
<g id="edge23" class="edge"><title>Node1&#45;&gt;Node20</title>
<path fill="none" stroke="midnightblue" d="M1265.05,-224.086C1430.27,-218.705 1867.11,-201.979 1926,-174 1958.79,-158.422 1984.96,-123.274 1997.99,-103.064"/>
<polygon fill="midnightblue" stroke="midnightblue" points="1264.45,-220.604 1254.57,-224.424 1264.68,-227.6 1264.45,-220.604"/>
</g>
<!-- Node8 -->
<g id="node8" class="node"><title>Node8</title>
<g id="a_node8"><a xlink:href="_context_8cpp.html" target="_top" xlink:title="src/cinder/audio/Context.cpp">
<polygon fill="white" stroke="black" points="-0.366699,-77 -0.366699,-97 142.367,-97 142.367,-77 -0.366699,-77"/>
<text text-anchor="middle" x="71" y="-83" font-family="Helvetica,sans-Serif" font-size="10.00">src/cinder/audio/Context.cpp</text>
</a>
</g>
</g>
<!-- Node1&#45;&gt;Node8 -->
<g id="edge24" class="edge"><title>Node1&#45;&gt;Node8</title>
<path fill="none" stroke="midnightblue" d="M1139.19,-223.612C1018.29,-218.491 745.026,-204.361 517,-174 352.834,-152.141 313.534,-135.796 151,-104 139.602,-101.77 127.297,-99.3273 115.837,-97.0365"/>
<polygon fill="midnightblue" stroke="midnightblue" points="1139.23,-227.117 1149.37,-224.037 1139.52,-220.123 1139.23,-227.117"/>
</g>
<!-- Node11 -->
<g id="node11" class="node"><title>Node11</title>
<g id="a_node11"><a xlink:href="_input_node_8cpp.html" target="_top" xlink:title="src/cinder/audio/InputNode.cpp">
<polygon fill="white" stroke="black" points="1612.79,-77 1612.79,-97 1767.21,-97 1767.21,-77 1612.79,-77"/>
<text text-anchor="middle" x="1690" y="-83" font-family="Helvetica,sans-Serif" font-size="10.00">src/cinder/audio/InputNode.cpp</text>
</a>
</g>
</g>
<!-- Node1&#45;&gt;Node11 -->
<g id="edge25" class="edge"><title>Node1&#45;&gt;Node11</title>
<path fill="none" stroke="midnightblue" d="M1264.53,-208.316C1369.7,-178.578 1578.26,-119.597 1657.99,-97.052"/>
<polygon fill="midnightblue" stroke="midnightblue" points="1263.36,-205.011 1254.69,-211.1 1265.26,-211.747 1263.36,-205.011"/>
</g>
<!-- Node3 -->
<g id="node3" class="node"><title>Node3</title>
<g id="a_node3"><a xlink:href="_context_audio_unit_8h.html" target="_top" xlink:title="include/cinder/audio\l/cocoa/ContextAudioUnit.h">
<polygon fill="white" stroke="black" points="790.798,-71 790.798,-103 925.202,-103 925.202,-71 790.798,-71"/>
<text text-anchor="start" x="798.798" y="-89" font-family="Helvetica,sans-Serif" font-size="10.00">include/cinder/audio</text>
<text text-anchor="middle" x="858" y="-77" font-family="Helvetica,sans-Serif" font-size="10.00">/cocoa/ContextAudioUnit.h</text>
</a>
</g>
</g>
<!-- Node2&#45;&gt;Node3 -->
<g id="edge2" class="edge"><title>Node2&#45;&gt;Node3</title>
<path fill="none" stroke="midnightblue" d="M957.87,-136.508C935.969,-125.87 909.266,-112.9 888.984,-103.049"/>
<polygon fill="midnightblue" stroke="midnightblue" points="956.405,-139.688 966.929,-140.909 959.464,-133.391 956.405,-139.688"/>
</g>
<!-- Node5 -->
<g id="node5" class="node"><title>Node5</title>
<g id="a_node5"><a xlink:href="_monitor_node_8h.html" target="_top" xlink:title="include/cinder/audio\l/MonitorNode.h">
<polygon fill="white" stroke="black" points="667.525,-71 667.525,-103 772.475,-103 772.475,-71 667.525,-71"/>
<text text-anchor="start" x="675.525" y="-89" font-family="Helvetica,sans-Serif" font-size="10.00">include/cinder/audio</text>
<text text-anchor="middle" x="720" y="-77" font-family="Helvetica,sans-Serif" font-size="10.00">/MonitorNode.h</text>
</a>
</g>
</g>
<!-- Node2&#45;&gt;Node5 -->
<g id="edge4" class="edge"><title>Node2&#45;&gt;Node5</title>
<path fill="none" stroke="midnightblue" d="M935.332,-141.199C892.182,-130.937 833.56,-116.858 782,-104 778.98,-103.247 775.879,-102.467 772.75,-101.675"/>
<polygon fill="midnightblue" stroke="midnightblue" points="934.585,-144.618 945.124,-143.525 936.203,-137.808 934.585,-144.618"/>
</g>
<!-- Node7 -->
<g id="node7" class="node"><title>Node7</title>
<g id="a_node7"><a xlink:href="_channel_router_node_8cpp.html" target="_top" xlink:title="src/cinder/audio/Channel\lRouterNode.cpp">
<polygon fill="white" stroke="black" points="980.69,-71 980.69,-103 1107.31,-103 1107.31,-71 980.69,-71"/>
<text text-anchor="start" x="988.69" y="-89" font-family="Helvetica,sans-Serif" font-size="10.00">src/cinder/audio/Channel</text>
<text text-anchor="middle" x="1044" y="-77" font-family="Helvetica,sans-Serif" font-size="10.00">RouterNode.cpp</text>
</a>
</g>
</g>
<!-- Node2&#45;&gt;Node7 -->
<g id="edge6" class="edge"><title>Node2&#45;&gt;Node7</title>
<path fill="none" stroke="midnightblue" d="M1013.95,-132.42C1020.54,-122.677 1027.99,-111.669 1033.82,-103.049"/>
<polygon fill="midnightblue" stroke="midnightblue" points="1010.91,-130.665 1008.21,-140.909 1016.71,-134.587 1010.91,-130.665"/>
</g>
<!-- Node2&#45;&gt;Node8 -->
<g id="edge7" class="edge"><title>Node2&#45;&gt;Node8</title>
<path fill="none" stroke="midnightblue" d="M935.264,-153.259C766.04,-145.688 302.76,-123.741 151,-104 137.797,-102.283 123.504,-99.6691 110.701,-97.0493"/>
<polygon fill="midnightblue" stroke="midnightblue" points="935.115,-156.756 945.262,-153.705 935.427,-149.763 935.115,-156.756"/>
</g>
<!-- Node9 -->
<g id="node9" class="node"><title>Node9</title>
<g id="a_node9"><a xlink:href="_device_8cpp.html" target="_top" xlink:title="src/cinder/audio/Device.cpp">
<polygon fill="white" stroke="black" points="1125.58,-77 1125.58,-97 1264.42,-97 1264.42,-77 1125.58,-77"/>
<text text-anchor="middle" x="1195" y="-83" font-family="Helvetica,sans-Serif" font-size="10.00">src/cinder/audio/Device.cpp</text>
</a>
</g>
</g>
<!-- Node2&#45;&gt;Node9 -->
<g id="edge8" class="edge"><title>Node2&#45;&gt;Node9</title>
<path fill="none" stroke="midnightblue" d="M1051.63,-137.487C1089.71,-124.344 1139.16,-107.274 1168.92,-97.0035"/>
<polygon fill="midnightblue" stroke="midnightblue" points="1050.03,-134.337 1041.72,-140.909 1052.32,-140.954 1050.03,-134.337"/>
</g>
<!-- Node10 -->
<g id="node10" class="node"><title>Node10</title>
<g id="a_node10"><a xlink:href="_gen_node_8cpp.html" target="_top" xlink:title="src/cinder/audio/GenNode.cpp">
<polygon fill="white" stroke="black" points="160.461,-77 160.461,-97 311.539,-97 311.539,-77 160.461,-77"/>
<text text-anchor="middle" x="236" y="-83" font-family="Helvetica,sans-Serif" font-size="10.00">src/cinder/audio/GenNode.cpp</text>
</a>
</g>
</g>
<!-- Node2&#45;&gt;Node10 -->
<g id="edge9" class="edge"><title>Node2&#45;&gt;Node10</title>
<path fill="none" stroke="midnightblue" d="M935.381,-153.537C815.497,-148.304 545.424,-134.018 320,-104 306.462,-102.197 291.805,-99.6237 278.583,-97.0664"/>
<polygon fill="midnightblue" stroke="midnightblue" points="935.335,-157.038 945.476,-153.972 935.636,-150.045 935.335,-157.038"/>
</g>
<!-- Node2&#45;&gt;Node11 -->
<g id="edge10" class="edge"><title>Node2&#45;&gt;Node11</title>
<path fill="none" stroke="midnightblue" d="M1061.17,-152.631C1171.62,-146.284 1406.84,-130.734 1604,-104 1617.69,-102.143 1632.52,-99.5846 1645.94,-97.058"/>
<polygon fill="midnightblue" stroke="midnightblue" points="1060.67,-149.154 1050.88,-153.217 1061.06,-156.143 1060.67,-149.154"/>
</g>
<!-- Node12 -->
<g id="node12" class="node"><title>Node12</title>
<g id="a_node12"><a xlink:href="_node_8cpp.html" target="_top" xlink:title="src/cinder/audio/Node.cpp">
<polygon fill="white" stroke="black" points="1282.91,-77 1282.91,-97 1415.09,-97 1415.09,-77 1282.91,-77"/>
<text text-anchor="middle" x="1349" y="-83" font-family="Helvetica,sans-Serif" font-size="10.00">src/cinder/audio/Node.cpp</text>
</a>
</g>
</g>
<!-- Node2&#45;&gt;Node12 -->
<g id="edge11" class="edge"><title>Node2&#45;&gt;Node12</title>
<path fill="none" stroke="midnightblue" d="M1060.61,-144.542C1116.39,-134.241 1200.22,-118.54 1273,-104 1283.97,-101.807 1295.82,-99.3547 1306.82,-97.041"/>
<polygon fill="midnightblue" stroke="midnightblue" points="1059.73,-141.145 1050.53,-146.401 1060.99,-148.029 1059.73,-141.145"/>
</g>
<!-- Node13 -->
<g id="node13" class="node"><title>Node13</title>
<g id="a_node13"><a xlink:href="_output_node_8cpp.html" target="_top" xlink:title="src/cinder/audio/OutputNode.cpp">
<polygon fill="white" stroke="black" points="1432.9,-77 1432.9,-97 1595.1,-97 1595.1,-77 1432.9,-77"/>
<text text-anchor="middle" x="1514" y="-83" font-family="Helvetica,sans-Serif" font-size="10.00">src/cinder/audio/OutputNode.cpp</text>
</a>
</g>
</g>
<!-- Node2&#45;&gt;Node13 -->
<g id="edge12" class="edge"><title>Node2&#45;&gt;Node13</title>
<path fill="none" stroke="midnightblue" d="M1060.64,-149.434C1143.83,-140.468 1295.26,-123.286 1424,-104 1437.65,-101.954 1452.42,-99.4513 1465.97,-97.0379"/>
<polygon fill="midnightblue" stroke="midnightblue" points="1060.16,-145.965 1050.59,-150.513 1060.91,-152.925 1060.16,-145.965"/>
</g>
<!-- Node14 -->
<g id="node14" class="node"><title>Node14</title>
<g id="a_node14"><a xlink:href="_param_8cpp.html" target="_top" xlink:title="src/cinder/audio/Param.cpp">
<polygon fill="white" stroke="black" points="329.138,-77 329.138,-97 466.862,-97 466.862,-77 329.138,-77"/>
<text text-anchor="middle" x="398" y="-83" font-family="Helvetica,sans-Serif" font-size="10.00">src/cinder/audio/Param.cpp</text>
</a>
</g>
</g>
<!-- Node2&#45;&gt;Node14 -->
<g id="edge13" class="edge"><title>Node2&#45;&gt;Node14</title>
<path fill="none" stroke="midnightblue" d="M935.102,-151.837C836.764,-144.856 640.794,-129.042 476,-104 463.563,-102.11 450.112,-99.5421 437.94,-97.0169"/>
<polygon fill="midnightblue" stroke="midnightblue" points="934.949,-155.335 945.169,-152.545 935.44,-148.352 934.949,-155.335"/>
</g>
<!-- Node15 -->
<g id="node15" class="node"><title>Node15</title>
<g id="a_node15"><a xlink:href="_sample_player_node_8cpp.html" target="_top" xlink:title="src/cinder/audio/SamplePlayer\lNode.cpp">
<polygon fill="white" stroke="black" points="1785.19,-71 1785.19,-103 1936.81,-103 1936.81,-71 1785.19,-71"/>
<text text-anchor="start" x="1793.19" y="-89" font-family="Helvetica,sans-Serif" font-size="10.00">src/cinder/audio/SamplePlayer</text>
<text text-anchor="middle" x="1861" y="-77" font-family="Helvetica,sans-Serif" font-size="10.00">Node.cpp</text>
</a>
</g>
</g>
<!-- Node2&#45;&gt;Node15 -->
<g id="edge14" class="edge"><title>Node2&#45;&gt;Node15</title>
<path fill="none" stroke="midnightblue" d="M1060.94,-154.339C1193.61,-150.279 1511.56,-137.604 1776,-104 1778.98,-103.621 1782.01,-103.204 1785.07,-102.757"/>
<polygon fill="midnightblue" stroke="midnightblue" points="1060.46,-150.852 1050.57,-154.65 1060.67,-157.848 1060.46,-150.852"/>
</g>
<!-- Node16 -->
<g id="node16" class="node"><title>Node16</title>
<g id="a_node16"><a xlink:href="_sample_recorder_node_8cpp.html" target="_top" xlink:title="src/cinder/audio/SampleRecorder\lNode.cpp">
<polygon fill="white" stroke="black" points="484.798,-71 484.798,-103 649.202,-103 649.202,-71 484.798,-71"/>
<text text-anchor="start" x="492.798" y="-89" font-family="Helvetica,sans-Serif" font-size="10.00">src/cinder/audio/SampleRecorder</text>
<text text-anchor="middle" x="567" y="-77" font-family="Helvetica,sans-Serif" font-size="10.00">Node.cpp</text>
</a>
</g>
</g>
<!-- Node2&#45;&gt;Node16 -->
<g id="edge15" class="edge"><title>Node2&#45;&gt;Node16</title>
<path fill="none" stroke="midnightblue" d="M935.26,-146.76C867.171,-136.642 755.274,-119.754 659,-104 655.8,-103.476 652.539,-102.937 649.245,-102.387"/>
<polygon fill="midnightblue" stroke="midnightblue" points="934.986,-150.257 945.392,-148.263 936.014,-143.333 934.986,-150.257"/>
</g>
<!-- Node17 -->
<g id="node17" class="node"><title>Node17</title>
<g id="a_node17"><a xlink:href="_voice_8cpp.html" target="_top" xlink:title="src/cinder/audio/Voice.cpp">
<polygon fill="white" stroke="black" points="1436.63,-7 1436.63,-27 1569.37,-27 1569.37,-7 1436.63,-7"/>
<text text-anchor="middle" x="1503" y="-13" font-family="Helvetica,sans-Serif" font-size="10.00">src/cinder/audio/Voice.cpp</text>
</a>
</g>
</g>
<!-- Node2&#45;&gt;Node17 -->
<g id="edge16" class="edge"><title>Node2&#45;&gt;Node17</title>
<path fill="none" stroke="midnightblue" d="M979.861,-132.313C967.678,-113.343 956.442,-87.1565 972,-70 1002.67,-36.1853 1300.95,-23.6142 1436.53,-19.6205"/>
<polygon fill="midnightblue" stroke="midnightblue" points="977.079,-134.445 985.618,-140.718 982.855,-130.49 977.079,-134.445"/>
</g>
<!-- Node4 -->
<g id="node4" class="node"><title>Node4</title>
<g id="a_node4"><a xlink:href="_context_audio_unit_8cpp.html" target="_top" xlink:title="src/cinder/audio/cocoa\l/ContextAudioUnit.cpp">
<polygon fill="white" stroke="black" points="799.973,-1 799.973,-33 916.027,-33 916.027,-1 799.973,-1"/>
<text text-anchor="start" x="807.973" y="-19" font-family="Helvetica,sans-Serif" font-size="10.00">src/cinder/audio/cocoa</text>
<text text-anchor="middle" x="858" y="-7" font-family="Helvetica,sans-Serif" font-size="10.00">/ContextAudioUnit.cpp</text>
</a>
</g>
</g>
<!-- Node3&#45;&gt;Node4 -->
<g id="edge3" class="edge"><title>Node3&#45;&gt;Node4</title>
<path fill="none" stroke="midnightblue" d="M858,-60.6174C858,-51.3378 858,-41.1413 858,-33.0492"/>
<polygon fill="midnightblue" stroke="midnightblue" points="854.5,-60.9086 858,-70.9086 861.5,-60.9086 854.5,-60.9086"/>
</g>
<!-- Node6 -->
<g id="node6" class="node"><title>Node6</title>
<g id="a_node6"><a xlink:href="_monitor_node_8cpp.html" target="_top" xlink:title="src/cinder/audio/Monitor\lNode.cpp">
<polygon fill="white" stroke="black" points="658.643,-1 658.643,-33 781.357,-33 781.357,-1 658.643,-1"/>
<text text-anchor="start" x="666.643" y="-19" font-family="Helvetica,sans-Serif" font-size="10.00">src/cinder/audio/Monitor</text>
<text text-anchor="middle" x="720" y="-7" font-family="Helvetica,sans-Serif" font-size="10.00">Node.cpp</text>
</a>
</g>
</g>
<!-- Node5&#45;&gt;Node6 -->
<g id="edge5" class="edge"><title>Node5&#45;&gt;Node6</title>
<path fill="none" stroke="midnightblue" d="M720,-60.6174C720,-51.3378 720,-41.1413 720,-33.0492"/>
<polygon fill="midnightblue" stroke="midnightblue" points="716.5,-60.9086 720,-70.9086 723.5,-60.9086 716.5,-60.9086"/>
</g>
<!-- Node18&#45;&gt;Node10 -->
<g id="edge18" class="edge"><title>Node18&#45;&gt;Node10</title>
<path fill="none" stroke="midnightblue" d="M515.201,-143.514C447.499,-130.052 341.392,-108.955 281.365,-97.0199"/>
<polygon fill="midnightblue" stroke="midnightblue" points="514.821,-147.007 525.312,-145.524 516.187,-140.141 514.821,-147.007"/>
</g>
<!-- Node19&#45;&gt;Node20 -->
<g id="edge20" class="edge"><title>Node19&#45;&gt;Node20</title>
<path fill="none" stroke="midnightblue" d="M1902.54,-136.651C1925.44,-125.986 1953.44,-112.944 1974.69,-103.049"/>
<polygon fill="midnightblue" stroke="midnightblue" points="1900.99,-133.514 1893.4,-140.909 1903.94,-139.859 1900.99,-133.514"/>
</g>
<!-- Node19&#45;&gt;Node15 -->
<g id="edge22" class="edge"><title>Node19&#45;&gt;Node15</title>
<path fill="none" stroke="midnightblue" d="M1861,-130.617C1861,-121.338 1861,-111.141 1861,-103.049"/>
<polygon fill="midnightblue" stroke="midnightblue" points="1857.5,-130.909 1861,-140.909 1864.5,-130.909 1857.5,-130.909"/>
</g>
<!-- Node20&#45;&gt;Node17 -->
<g id="edge21" class="edge"><title>Node20&#45;&gt;Node17</title>
<path fill="none" stroke="midnightblue" d="M1944.38,-70.0445C1805.74,-44.6226 1654.56,-30.0241 1569.69,-23.0136"/>
<polygon fill="midnightblue" stroke="midnightblue" points="1943.87,-73.5092 1954.34,-71.8936 1945.15,-66.6269 1943.87,-73.5092"/>
</g>
</g>
</svg>
