<?xml version="1.0" encoding="UTF-8" standalone="no"?>
<!DOCTYPE svg PUBLIC "-//W3C//DTD SVG 1.1//EN"
 "http://www.w3.org/Graphics/SVG/1.1/DTD/svg11.dtd">
<!-- Generated by graphviz version 2.30.1 (20140712.1814)
 -->
<!-- Title: src/cinder/Json.cpp Pages: 1 -->
<!--zoomable 494 -->
<svg id="main" version="1.1" xmlns="http://www.w3.org/2000/svg" xmlns:xlink="http://www.w3.org/1999/xlink" xml:space="preserve" onload="init(evt)">
<style type="text/css"><![CDATA[
.edge:hover path { stroke: red; }
.edge:hover polygon { stroke: red; fill: red; }
]]></style>
<script type="text/javascript"><![CDATA[
var edges = document.getElementsByTagName('g');
if (edges && edges.length) {
  for (var i=0;i<edges.length;i++) {
    if (edges[i].id.substr(0,4)=='edge') {
      edges[i].setAttribute('class','edge');
    }
  }
}
]]></script>
        <defs>
                <circle id="rim" cx="0" cy="0" r="7"/>
                <circle id="rim2" cx="0" cy="0" r="3.5"/>
                <g id="zoomPlus">
                        <use xlink:href="#rim" fill="#404040">
                                <set attributeName="fill" to="#808080" begin="zoomplus.mouseover" end="zoomplus.mouseout"/>
                        </use>
                        <path d="M-4,0h8M0,-4v8" fill="none" stroke="white" stroke-width="1.5" pointer-events="none"/>
                </g>
                <g id="zoomMin">
                        <use xlink:href="#rim" fill="#404040">
                                <set attributeName="fill" to="#808080" begin="zoomminus.mouseover" end="zoomminus.mouseout"/>
                        </use>
                        <path d="M-4,0h8" fill="none" stroke="white" stroke-width="1.5" pointer-events="none"/>
                </g>
                <g id="dirArrow">
                        <path fill="none" stroke="white" stroke-width="1.5" d="M0,-3.0v7 M-2.5,-0.5L0,-3.0L2.5,-0.5"/>
                </g>
               <g id="resetDef">
                       <use xlink:href="#rim2" fill="#404040">
                               <set attributeName="fill" to="#808080" begin="reset.mouseover" end="reset.mouseout"/>
                       </use>
               </g>
        </defs>

<script type="text/javascript">
var viewWidth = 1146;
var viewHeight = 494;
var sectionId = 'dynsection-0';
</script>
<script xlink:href="svgpan.js"/>
<svg id="graph" class="graph">
<g id="viewport">
<title>src/cinder/Json.cpp</title>
<polygon fill="white" stroke="white" points="-4,5 -4,-490 1143,-490 1143,5 -4,5"/>
<!-- Node1 -->
<g id="node1" class="node"><title>Node1</title>
<polygon fill="#bfbfbf" stroke="black" points="796.926,-465 796.926,-485 899.074,-485 899.074,-465 796.926,-465"/>
<text text-anchor="middle" x="848" y="-471" font-family="Helvetica,sans-Serif" font-size="10.00">src/cinder/Json.cpp</text>
</g>
<!-- Node2 -->
<g id="node2" class="node"><title>Node2</title>
<polygon fill="white" stroke="#bfbfbf" points="574.468,-407 574.468,-427 705.532,-427 705.532,-407 574.468,-407"/>
<text text-anchor="middle" x="640" y="-413" font-family="Helvetica,sans-Serif" font-size="10.00">boost/algorithm/string.hpp</text>
</g>
<!-- Node1&#45;&gt;Node2 -->
<g id="edge1" class="edge"><title>Node1&#45;&gt;Node2</title>
<path fill="none" stroke="midnightblue" d="M814.118,-464.878C778.507,-455.29 722.363,-440.175 683.5,-429.712"/>
<polygon fill="midnightblue" stroke="midnightblue" points="684.089,-426.245 673.523,-427.025 682.269,-433.005 684.089,-426.245"/>
</g>
<!-- Node3 -->
<g id="node3" class="node"><title>Node3</title>
<polygon fill="white" stroke="#bfbfbf" points="723.096,-407 723.096,-427 786.904,-427 786.904,-407 723.096,-407"/>
<text text-anchor="middle" x="755" y="-413" font-family="Helvetica,sans-Serif" font-size="10.00">json/json.h</text>
</g>
<!-- Node1&#45;&gt;Node3 -->
<g id="edge2" class="edge"><title>Node1&#45;&gt;Node3</title>
<path fill="none" stroke="midnightblue" d="M832.643,-464.753C818.017,-455.946 795.783,-442.558 778.851,-432.362"/>
<polygon fill="midnightblue" stroke="midnightblue" points="780.444,-429.235 770.071,-427.075 776.833,-435.232 780.444,-429.235"/>
</g>
<!-- Node4 -->
<g id="node4" class="node"><title>Node4</title>
<g id="a_node4"><a xlink:href="_json_8h.html" target="_top" xlink:title="cinder/Json.h">
<polygon fill="white" stroke="black" points="843.261,-407 843.261,-427 918.739,-427 918.739,-407 843.261,-407"/>
<text text-anchor="middle" x="881" y="-413" font-family="Helvetica,sans-Serif" font-size="10.00">cinder/Json.h</text>
</a>
</g>
</g>
<!-- Node1&#45;&gt;Node4 -->
<g id="edge3" class="edge"><title>Node1&#45;&gt;Node4</title>
<path fill="none" stroke="midnightblue" d="M853.449,-464.753C858.063,-456.924 864.809,-445.476 870.471,-435.868"/>
<polygon fill="midnightblue" stroke="midnightblue" points="873.591,-437.468 875.652,-427.075 867.56,-433.914 873.591,-437.468"/>
</g>
<!-- Node11 -->
<g id="node11" class="node"><title>Node11</title>
<g id="a_node11"><a xlink:href="_stream_8h.html" target="_top" xlink:title="cinder/Stream.h">
<polygon fill="white" stroke="black" points="534.707,-175 534.707,-195 621.293,-195 621.293,-175 534.707,-175"/>
<text text-anchor="middle" x="578" y="-181" font-family="Helvetica,sans-Serif" font-size="10.00">cinder/Stream.h</text>
</a>
</g>
</g>
<!-- Node1&#45;&gt;Node11 -->
<g id="edge45" class="edge"><title>Node1&#45;&gt;Node11</title>
<path fill="none" stroke="midnightblue" d="M878.3,-464.861C895.881,-457.825 916.559,-446.162 927,-428 947.566,-392.226 884.631,-350.32 882,-348 797.87,-273.814 673.835,-221.375 613.528,-198.638"/>
<polygon fill="midnightblue" stroke="midnightblue" points="614.659,-195.325 604.066,-195.119 612.218,-201.886 614.659,-195.325"/>
</g>
<!-- Node23 -->
<g id="node23" class="node"><title>Node23</title>
<g id="a_node23"><a xlink:href="_utilities_8h.html" target="_top" xlink:title="cinder/Utilities.h">
<polygon fill="white" stroke="black" points="610.709,-349 610.709,-369 697.291,-369 697.291,-349 610.709,-349"/>
<text text-anchor="middle" x="654" y="-355" font-family="Helvetica,sans-Serif" font-size="10.00">cinder/Utilities.h</text>
</a>
</g>
</g>
<!-- Node1&#45;&gt;Node23 -->
<g id="edge46" class="edge"><title>Node1&#45;&gt;Node23</title>
<path fill="none" stroke="midnightblue" d="M843.13,-464.644C835.059,-450.03 817.541,-421.823 795,-406 769.004,-387.752 735.324,-376.409 707.4,-369.554"/>
<polygon fill="midnightblue" stroke="midnightblue" points="707.93,-366.084 697.397,-367.227 706.344,-372.902 707.93,-366.084"/>
</g>
<!-- Node26 -->
<g id="node26" class="node"><title>Node26</title>
<polygon fill="white" stroke="#bfbfbf" points="994.828,-407 994.828,-427 1039.17,-427 1039.17,-407 994.828,-407"/>
<text text-anchor="middle" x="1017" y="-413" font-family="Helvetica,sans-Serif" font-size="10.00">cstdlib</text>
</g>
<!-- Node1&#45;&gt;Node26 -->
<g id="edge47" class="edge"><title>Node1&#45;&gt;Node26</title>
<path fill="none" stroke="midnightblue" d="M875.529,-464.878C905.49,-454.95 953.338,-439.095 984.963,-428.616"/>
<polygon fill="midnightblue" stroke="midnightblue" points="986.226,-431.885 994.617,-425.417 984.024,-425.24 986.226,-431.885"/>
</g>
<!-- Node5 -->
<g id="node5" class="node"><title>Node5</title>
<g id="a_node5"><a xlink:href="_data_source_8h.html" target="_top" xlink:title="cinder/DataSource.h">
<polygon fill="white" stroke="black" points="337.419,-291 337.419,-311 444.581,-311 444.581,-291 337.419,-291"/>
<text text-anchor="middle" x="391" y="-297" font-family="Helvetica,sans-Serif" font-size="10.00">cinder/DataSource.h</text>
</a>
</g>
</g>
<!-- Node4&#45;&gt;Node5 -->
<g id="edge4" class="edge"><title>Node4&#45;&gt;Node5</title>
<path fill="none" stroke="midnightblue" d="M843.188,-411.576C789.21,-404.851 687.167,-390.624 602,-370 538.243,-354.561 465.85,-329.536 424.584,-314.535"/>
<polygon fill="midnightblue" stroke="midnightblue" points="425.627,-311.19 415.033,-311.039 423.221,-317.763 425.627,-311.19"/>
</g>
<!-- Node22 -->
<g id="node22" class="node"><title>Node22</title>
<g id="a_node22"><a xlink:href="_data_target_8h.html" target="_top" xlink:title="cinder/DataTarget.h">
<polygon fill="white" stroke="black" points="672.365,-291 672.365,-311 775.635,-311 775.635,-291 672.365,-291"/>
<text text-anchor="middle" x="724" y="-297" font-family="Helvetica,sans-Serif" font-size="10.00">cinder/DataTarget.h</text>
</a>
</g>
</g>
<!-- Node4&#45;&gt;Node22 -->
<g id="edge30" class="edge"><title>Node4&#45;&gt;Node22</title>
<path fill="none" stroke="midnightblue" d="M881.027,-406.766C880.563,-392.318 877.55,-364.336 862,-348 842.16,-327.157 812.643,-315.756 785.993,-309.52"/>
<polygon fill="midnightblue" stroke="midnightblue" points="786.456,-306.04 775.946,-307.374 784.994,-312.885 786.456,-306.04"/>
</g>
<!-- Node13 -->
<g id="node13" class="node"><title>Node13</title>
<g id="a_node13"><a xlink:href="_exception_8h.html" target="_top" xlink:title="cinder/Exception.h">
<polygon fill="white" stroke="black" points="859.865,-117 859.865,-137 958.135,-137 958.135,-117 859.865,-117"/>
<text text-anchor="middle" x="909" y="-123" font-family="Helvetica,sans-Serif" font-size="10.00">cinder/Exception.h</text>
</a>
</g>
</g>
<!-- Node4&#45;&gt;Node13 -->
<g id="edge35" class="edge"><title>Node4&#45;&gt;Node13</title>
<path fill="none" stroke="midnightblue" d="M881.9,-406.744C885.849,-366.12 901.694,-203.152 907.146,-147.072"/>
<polygon fill="midnightblue" stroke="midnightblue" points="910.633,-147.37 908.117,-137.078 903.666,-146.692 910.633,-147.37"/>
</g>
<!-- Node4&#45;&gt;Node23 -->
<g id="edge36" class="edge"><title>Node4&#45;&gt;Node23</title>
<path fill="none" stroke="midnightblue" d="M844.276,-406.94C805.128,-397.283 743.038,-381.965 700.502,-371.472"/>
<polygon fill="midnightblue" stroke="midnightblue" points="701.218,-368.044 690.671,-369.047 699.542,-374.84 701.218,-368.044"/>
</g>
<!-- Node15 -->
<g id="node15" class="node"><title>Node15</title>
<polygon fill="white" stroke="#bfbfbf" points="1003.77,-59 1003.77,-79 1044.23,-79 1044.23,-59 1003.77,-59"/>
<text text-anchor="middle" x="1024" y="-65" font-family="Helvetica,sans-Serif" font-size="10.00">string</text>
</g>
<!-- Node4&#45;&gt;Node15 -->
<g id="edge43" class="edge"><title>Node4&#45;&gt;Node15</title>
<path fill="none" stroke="midnightblue" d="M918.921,-407.51C990.41,-390.401 1138,-349.346 1138,-302 1138,-302 1138,-302 1138,-184 1138,-136.157 1087.18,-101.38 1053.4,-83.5501"/>
<polygon fill="midnightblue" stroke="midnightblue" points="1054.88,-80.3778 1044.38,-78.9737 1051.71,-86.6201 1054.88,-80.3778"/>
</g>
<!-- Node25 -->
<g id="node25" class="node"><title>Node25</title>
<polygon fill="white" stroke="#bfbfbf" points="734.579,-349 734.579,-369 853.421,-369 853.421,-349 734.579,-349"/>
<text text-anchor="middle" x="794" y="-355" font-family="Helvetica,sans-Serif" font-size="10.00">boost/container/list.hpp</text>
</g>
<!-- Node4&#45;&gt;Node25 -->
<g id="edge44" class="edge"><title>Node4&#45;&gt;Node25</title>
<path fill="none" stroke="midnightblue" d="M866.634,-406.753C853.078,-398.027 832.536,-384.805 816.753,-374.646"/>
<polygon fill="midnightblue" stroke="midnightblue" points="818.402,-371.545 808.099,-369.075 814.613,-377.431 818.402,-371.545"/>
</g>
<!-- Node6 -->
<g id="node6" class="node"><title>Node6</title>
<g id="a_node6"><a xlink:href="_cinder_8h.html" target="_top" xlink:title="cinder/Cinder.h">
<polygon fill="white" stroke="black" points="106.367,-59 106.367,-79 189.633,-79 189.633,-59 106.367,-59"/>
<text text-anchor="middle" x="148" y="-65" font-family="Helvetica,sans-Serif" font-size="10.00">cinder/Cinder.h</text>
</a>
</g>
</g>
<!-- Node5&#45;&gt;Node6 -->
<g id="edge5" class="edge"><title>Node5&#45;&gt;Node6</title>
<path fill="none" stroke="midnightblue" d="M349.298,-290.988C294.957,-277.614 199.091,-248.287 133,-196 101.667,-171.211 74.926,-152.121 92,-116 98.1518,-102.985 109.991,-92.4158 121.204,-84.7052"/>
<polygon fill="midnightblue" stroke="midnightblue" points="123.386,-87.465 129.943,-79.1423 119.627,-81.56 123.386,-87.465"/>
</g>
<!-- Node10 -->
<g id="node10" class="node"><title>Node10</title>
<g id="a_node10"><a xlink:href="_url_8h.html" target="_top" xlink:title="cinder/Url.h">
<polygon fill="white" stroke="black" points="357.436,-233 357.436,-253 424.564,-253 424.564,-233 357.436,-233"/>
<text text-anchor="middle" x="391" y="-239" font-family="Helvetica,sans-Serif" font-size="10.00">cinder/Url.h</text>
</a>
</g>
</g>
<!-- Node5&#45;&gt;Node10 -->
<g id="edge9" class="edge"><title>Node5&#45;&gt;Node10</title>
<path fill="none" stroke="midnightblue" d="M391,-290.753C391,-283.25 391,-272.424 391,-263.078"/>
<polygon fill="midnightblue" stroke="midnightblue" points="394.5,-263.075 391,-253.075 387.5,-263.075 394.5,-263.075"/>
</g>
<!-- Node12 -->
<g id="node12" class="node"><title>Node12</title>
<g id="a_node12"><a xlink:href="_buffer_8h.html" target="_top" xlink:title="cinder/Buffer.h">
<polygon fill="white" stroke="black" points="141.844,-117 141.844,-137 222.156,-137 222.156,-117 141.844,-117"/>
<text text-anchor="middle" x="182" y="-123" font-family="Helvetica,sans-Serif" font-size="10.00">cinder/Buffer.h</text>
</a>
</g>
</g>
<!-- Node5&#45;&gt;Node12 -->
<g id="edge27" class="edge"><title>Node5&#45;&gt;Node12</title>
<path fill="none" stroke="midnightblue" d="M380.058,-290.995C346.348,-263.253 243.785,-178.847 201.029,-143.661"/>
<polygon fill="midnightblue" stroke="midnightblue" points="203.032,-140.776 193.086,-137.124 198.584,-146.181 203.032,-140.776"/>
</g>
<!-- Node5&#45;&gt;Node11 -->
<g id="edge28" class="edge"><title>Node5&#45;&gt;Node11</title>
<path fill="none" stroke="midnightblue" d="M405.987,-290.864C438.483,-271.053 515.631,-224.022 554.606,-200.261"/>
<polygon fill="midnightblue" stroke="midnightblue" points="556.485,-203.215 563.201,-195.022 552.841,-197.239 556.485,-203.215"/>
</g>
<!-- Node16 -->
<g id="node16" class="node"><title>Node16</title>
<g id="a_node16"><a xlink:href="_filesystem_8h.html" target="_top" xlink:title="cinder/Filesystem.h">
<polygon fill="white" stroke="black" points="277.931,-117 277.931,-137 380.069,-137 380.069,-117 277.931,-117"/>
<text text-anchor="middle" x="329" y="-123" font-family="Helvetica,sans-Serif" font-size="10.00">cinder/Filesystem.h</text>
</a>
</g>
</g>
<!-- Node5&#45;&gt;Node16 -->
<g id="edge29" class="edge"><title>Node5&#45;&gt;Node16</title>
<path fill="none" stroke="midnightblue" d="M379.06,-290.799C369.04,-282.37 355.238,-268.957 348,-254 331.12,-219.117 328.445,-172.977 328.438,-147.318"/>
<polygon fill="midnightblue" stroke="midnightblue" points="331.941,-147.132 328.581,-137.084 324.942,-147.034 331.941,-147.132"/>
</g>
<!-- Node7 -->
<g id="node7" class="node"><title>Node7</title>
<polygon fill="white" stroke="#bfbfbf" points="37.5493,-1 37.5493,-21 82.4507,-21 82.4507,-1 37.5493,-1"/>
<text text-anchor="middle" x="60" y="-7" font-family="Helvetica,sans-Serif" font-size="10.00">cstdint</text>
</g>
<!-- Node6&#45;&gt;Node7 -->
<g id="edge6" class="edge"><title>Node6&#45;&gt;Node7</title>
<path fill="none" stroke="midnightblue" d="M133.469,-58.7527C119.757,-50.0272 98.9794,-36.8051 83.0148,-26.6458"/>
<polygon fill="midnightblue" stroke="midnightblue" points="84.5767,-23.4912 74.261,-21.0752 80.8186,-29.3968 84.5767,-23.4912"/>
</g>
<!-- Node8 -->
<g id="node8" class="node"><title>Node8</title>
<polygon fill="white" stroke="#bfbfbf" points="100.53,-1 100.53,-21 195.47,-21 195.47,-1 100.53,-1"/>
<text text-anchor="middle" x="148" y="-7" font-family="Helvetica,sans-Serif" font-size="10.00">boost/version.hpp</text>
</g>
<!-- Node6&#45;&gt;Node8 -->
<g id="edge7" class="edge"><title>Node6&#45;&gt;Node8</title>
<path fill="none" stroke="midnightblue" d="M148,-58.7527C148,-51.2504 148,-40.4238 148,-31.0781"/>
<polygon fill="midnightblue" stroke="midnightblue" points="151.5,-31.0752 148,-21.0752 144.5,-31.0752 151.5,-31.0752"/>
</g>
<!-- Node9 -->
<g id="node9" class="node"><title>Node9</title>
<polygon fill="white" stroke="#bfbfbf" points="213.621,-1 213.621,-21 346.379,-21 346.379,-1 213.621,-1"/>
<text text-anchor="middle" x="280" y="-7" font-family="Helvetica,sans-Serif" font-size="10.00">boost/checked_delete.hpp</text>
</g>
<!-- Node6&#45;&gt;Node9 -->
<g id="edge8" class="edge"><title>Node6&#45;&gt;Node9</title>
<path fill="none" stroke="midnightblue" d="M169.502,-58.878C191.172,-49.6848 224.821,-35.4095 249.295,-25.0263"/>
<polygon fill="midnightblue" stroke="midnightblue" points="250.668,-28.2457 258.507,-21.1181 247.935,-21.8016 250.668,-28.2457"/>
</g>
<!-- Node10&#45;&gt;Node6 -->
<g id="edge10" class="edge"><title>Node10&#45;&gt;Node6</title>
<path fill="none" stroke="midnightblue" d="M357.149,-241.562C294.05,-238.689 159.483,-222.427 100,-138 87.1971,-119.828 107.112,-98.9423 125.048,-85.1652"/>
<polygon fill="midnightblue" stroke="midnightblue" points="127.494,-87.7153 133.541,-79.016 123.389,-82.0452 127.494,-87.7153"/>
</g>
<!-- Node10&#45;&gt;Node11 -->
<g id="edge11" class="edge"><title>Node10&#45;&gt;Node11</title>
<path fill="none" stroke="midnightblue" d="M421.461,-232.878C453.205,-223.372 503.094,-208.432 537.996,-197.98"/>
<polygon fill="midnightblue" stroke="midnightblue" points="539.286,-201.247 547.862,-195.025 537.278,-194.541 539.286,-201.247"/>
</g>
<!-- Node21 -->
<g id="node21" class="node"><title>Node21</title>
<polygon fill="white" stroke="#bfbfbf" points="363.828,-175 363.828,-195 418.172,-195 418.172,-175 363.828,-175"/>
<text text-anchor="middle" x="391" y="-181" font-family="Helvetica,sans-Serif" font-size="10.00">iostream</text>
</g>
<!-- Node10&#45;&gt;Node21 -->
<g id="edge26" class="edge"><title>Node10&#45;&gt;Node21</title>
<path fill="none" stroke="midnightblue" d="M391,-232.753C391,-225.25 391,-214.424 391,-205.078"/>
<polygon fill="midnightblue" stroke="midnightblue" points="394.5,-205.075 391,-195.075 387.5,-205.075 394.5,-205.075"/>
</g>
<!-- Node11&#45;&gt;Node6 -->
<g id="edge12" class="edge"><title>Node11&#45;&gt;Node6</title>
<path fill="none" stroke="midnightblue" d="M534.655,-179.58C461.597,-171.791 317.191,-154.846 269,-138 250.578,-131.56 247.98,-125.619 231,-116 211.828,-105.139 190.033,-93.0701 173.589,-84.0207"/>
<polygon fill="midnightblue" stroke="midnightblue" points="175.036,-80.8219 164.586,-79.0733 171.664,-86.9566 175.036,-80.8219"/>
</g>
<!-- Node11&#45;&gt;Node12 -->
<g id="edge13" class="edge"><title>Node11&#45;&gt;Node12</title>
<path fill="none" stroke="midnightblue" d="M534.44,-178.841C469.355,-170.974 342.931,-155.082 236,-138 234.755,-137.801 233.495,-137.596 232.225,-137.386"/>
<polygon fill="midnightblue" stroke="midnightblue" points="232.807,-133.935 222.36,-135.699 231.627,-140.835 232.807,-133.935"/>
</g>
<!-- Node11&#45;&gt;Node13 -->
<g id="edge15" class="edge"><title>Node11&#45;&gt;Node13</title>
<path fill="none" stroke="midnightblue" d="M621.341,-176.675C673.025,-167.939 762.314,-152.844 849.657,-138.058"/>
<polygon fill="midnightblue" stroke="midnightblue" points="850.469,-141.47 859.745,-136.35 849.301,-134.568 850.469,-141.47"/>
</g>
<!-- Node11&#45;&gt;Node16 -->
<g id="edge19" class="edge"><title>Node11&#45;&gt;Node16</title>
<path fill="none" stroke="midnightblue" d="M537.717,-174.94C494.503,-165.222 425.804,-149.771 379.126,-139.273"/>
<polygon fill="midnightblue" stroke="midnightblue" points="379.749,-135.826 369.225,-137.047 378.213,-142.656 379.749,-135.826"/>
</g>
<!-- Node18 -->
<g id="node18" class="node"><title>Node18</title>
<polygon fill="white" stroke="#bfbfbf" points="555.291,-117 555.291,-137 674.709,-137 674.709,-117 555.291,-117"/>
<text text-anchor="middle" x="615" y="-123" font-family="Helvetica,sans-Serif" font-size="10.00">boost/noncopyable.hpp</text>
</g>
<!-- Node11&#45;&gt;Node18 -->
<g id="edge22" class="edge"><title>Node11&#45;&gt;Node18</title>
<path fill="none" stroke="midnightblue" d="M584.11,-174.753C589.336,-166.843 597.004,-155.237 603.392,-145.568"/>
<polygon fill="midnightblue" stroke="midnightblue" points="606.411,-147.348 609.004,-137.075 600.571,-143.489 606.411,-147.348"/>
</g>
<!-- Node11&#45;&gt;Node15 -->
<g id="edge23" class="edge"><title>Node11&#45;&gt;Node15</title>
<path fill="none" stroke="midnightblue" d="M621.409,-182.86C709.983,-179.894 908.144,-169.806 967,-138 987.875,-126.719 1004.26,-104.396 1014.01,-88.402"/>
<polygon fill="midnightblue" stroke="midnightblue" points="1017.23,-89.8268 1019.2,-79.4168 1011.17,-86.3257 1017.23,-89.8268"/>
</g>
<!-- Node19 -->
<g id="node19" class="node"><title>Node19</title>
<polygon fill="white" stroke="#bfbfbf" points="692.574,-117 692.574,-137 841.426,-137 841.426,-117 692.574,-117"/>
<text text-anchor="middle" x="767" y="-123" font-family="Helvetica,sans-Serif" font-size="10.00">boost/iostreams/concepts.hpp</text>
</g>
<!-- Node11&#45;&gt;Node19 -->
<g id="edge24" class="edge"><title>Node11&#45;&gt;Node19</title>
<path fill="none" stroke="midnightblue" d="M608.787,-174.878C640.87,-165.372 691.293,-150.432 726.568,-139.98"/>
<polygon fill="midnightblue" stroke="midnightblue" points="727.946,-143.222 736.54,-137.025 725.957,-136.51 727.946,-143.222"/>
</g>
<!-- Node20 -->
<g id="node20" class="node"><title>Node20</title>
<polygon fill="white" stroke="#bfbfbf" points="398.306,-117 398.306,-137 537.694,-137 537.694,-117 398.306,-117"/>
<text text-anchor="middle" x="468" y="-123" font-family="Helvetica,sans-Serif" font-size="10.00">boost/iostreams/stream.hpp</text>
</g>
<!-- Node11&#45;&gt;Node20 -->
<g id="edge25" class="edge"><title>Node11&#45;&gt;Node20</title>
<path fill="none" stroke="midnightblue" d="M559.836,-174.753C542.136,-165.742 515.016,-151.935 494.83,-141.659"/>
<polygon fill="midnightblue" stroke="midnightblue" points="496.326,-138.493 485.826,-137.075 493.15,-144.731 496.326,-138.493"/>
</g>
<!-- Node12&#45;&gt;Node6 -->
<g id="edge14" class="edge"><title>Node12&#45;&gt;Node6</title>
<path fill="none" stroke="midnightblue" d="M176.386,-116.753C171.633,-108.924 164.682,-97.4761 158.848,-87.8679"/>
<polygon fill="midnightblue" stroke="midnightblue" points="161.692,-85.8066 153.51,-79.0752 155.708,-89.4395 161.692,-85.8066"/>
</g>
<!-- Node13&#45;&gt;Node6 -->
<g id="edge16" class="edge"><title>Node13&#45;&gt;Node6</title>
<path fill="none" stroke="midnightblue" d="M859.8,-117.259C856.489,-116.795 853.199,-116.369 850,-116 591.661,-86.2298 525.355,-98.9809 266,-80 244.337,-78.4146 220.457,-76.4346 199.879,-74.6557"/>
<polygon fill="midnightblue" stroke="midnightblue" points="200.025,-71.1552 189.759,-73.7741 199.417,-78.1288 200.025,-71.1552"/>
</g>
<!-- Node14 -->
<g id="node14" class="node"><title>Node14</title>
<polygon fill="white" stroke="#bfbfbf" points="914.384,-59 914.384,-79 957.616,-79 957.616,-59 914.384,-59"/>
<text text-anchor="middle" x="936" y="-65" font-family="Helvetica,sans-Serif" font-size="10.00">vector</text>
</g>
<!-- Node13&#45;&gt;Node14 -->
<g id="edge17" class="edge"><title>Node13&#45;&gt;Node14</title>
<path fill="none" stroke="midnightblue" d="M913.459,-116.753C917.194,-109.006 922.638,-97.7142 927.24,-88.1688"/>
<polygon fill="midnightblue" stroke="midnightblue" points="930.434,-89.603 931.624,-79.0752 924.129,-86.5628 930.434,-89.603"/>
</g>
<!-- Node13&#45;&gt;Node15 -->
<g id="edge18" class="edge"><title>Node13&#45;&gt;Node15</title>
<path fill="none" stroke="midnightblue" d="M927.733,-116.878C946.277,-107.847 974.893,-93.9132 996.11,-83.5812"/>
<polygon fill="midnightblue" stroke="midnightblue" points="997.817,-86.643 1005.28,-79.1181 994.752,-80.3495 997.817,-86.643"/>
</g>
<!-- Node16&#45;&gt;Node6 -->
<g id="edge20" class="edge"><title>Node16&#45;&gt;Node6</title>
<path fill="none" stroke="midnightblue" d="M299.516,-116.878C268.923,-107.413 220.917,-92.5598 187.156,-82.1146"/>
<polygon fill="midnightblue" stroke="midnightblue" points="187.759,-78.6374 177.171,-79.0253 185.69,-85.3247 187.759,-78.6374"/>
</g>
<!-- Node17 -->
<g id="node17" class="node"><title>Node17</title>
<polygon fill="white" stroke="#bfbfbf" points="275.421,-59 275.421,-79 382.579,-79 382.579,-59 275.421,-59"/>
<text text-anchor="middle" x="329" y="-65" font-family="Helvetica,sans-Serif" font-size="10.00">boost/filesystem.hpp</text>
</g>
<!-- Node16&#45;&gt;Node17 -->
<g id="edge21" class="edge"><title>Node16&#45;&gt;Node17</title>
<path fill="none" stroke="midnightblue" d="M329,-116.753C329,-109.25 329,-98.4238 329,-89.0781"/>
<polygon fill="midnightblue" stroke="midnightblue" points="332.5,-89.0752 329,-79.0752 325.5,-89.0752 332.5,-89.0752"/>
</g>
<!-- Node22&#45;&gt;Node6 -->
<g id="edge31" class="edge"><title>Node22&#45;&gt;Node6</title>
<path fill="none" stroke="midnightblue" d="M704.586,-290.919C648.051,-264.61 483.947,-189.243 427,-174 363.417,-156.981 176.623,-187.29 133,-138 120.907,-124.336 128.288,-103.145 136.384,-88.0542"/>
<polygon fill="midnightblue" stroke="midnightblue" points="139.562,-89.5533 141.609,-79.1581 133.527,-86.0079 139.562,-89.5533"/>
</g>
<!-- Node22&#45;&gt;Node10 -->
<g id="edge32" class="edge"><title>Node22&#45;&gt;Node10</title>
<path fill="none" stroke="midnightblue" d="M672.334,-291.311C607.229,-280.363 496.452,-261.734 435.127,-251.421"/>
<polygon fill="midnightblue" stroke="midnightblue" points="435.441,-247.924 424.999,-249.717 434.28,-254.828 435.441,-247.924"/>
</g>
<!-- Node22&#45;&gt;Node11 -->
<g id="edge33" class="edge"><title>Node22&#45;&gt;Node11</title>
<path fill="none" stroke="midnightblue" d="M712.299,-290.864C687.311,-271.352 628.505,-225.436 597.663,-201.353"/>
<polygon fill="midnightblue" stroke="midnightblue" points="599.793,-198.576 589.757,-195.18 595.485,-204.093 599.793,-198.576"/>
</g>
<!-- Node22&#45;&gt;Node15 -->
<g id="edge34" class="edge"><title>Node22&#45;&gt;Node15</title>
<path fill="none" stroke="midnightblue" d="M749.459,-290.868C801.888,-270.889 922.934,-218.549 994,-138 1006.38,-123.967 1014.36,-104.009 1018.96,-89.3439"/>
<polygon fill="midnightblue" stroke="midnightblue" points="1022.43,-89.924 1021.82,-79.3465 1015.7,-87.9933 1022.43,-89.924"/>
</g>
<!-- Node23&#45;&gt;Node15 -->
<g id="edge37" class="edge"><title>Node23&#45;&gt;Node15</title>
<path fill="none" stroke="midnightblue" d="M697.576,-351.489C809.802,-334.132 1100,-285.259 1100,-244 1100,-244 1100,-244 1100,-184 1100,-143.325 1066.09,-106.124 1043.57,-85.9052"/>
<polygon fill="midnightblue" stroke="midnightblue" points="1045.73,-83.1429 1035.88,-79.2493 1041.15,-88.4378 1045.73,-83.1429"/>
</g>
<!-- Node23&#45;&gt;Node14 -->
<g id="edge38" class="edge"><title>Node23&#45;&gt;Node14</title>
<path fill="none" stroke="midnightblue" d="M687.066,-348.999C713.964,-341.047 752.49,-328.205 784,-312 824.021,-291.418 833.604,-284.166 867,-254 917.512,-208.373 943.294,-201.807 967,-138 973.598,-120.241 962.584,-100.619 951.903,-87.0357"/>
<polygon fill="midnightblue" stroke="midnightblue" points="954.265,-84.4113 945.12,-79.0622 948.934,-88.9469 954.265,-84.4113"/>
</g>
<!-- Node23&#45;&gt;Node6 -->
<g id="edge39" class="edge"><title>Node23&#45;&gt;Node6</title>
<path fill="none" stroke="midnightblue" d="M610.583,-355.042C464.515,-344.518 0,-306.165 0,-244 0,-244 0,-244 0,-184 0,-130.177 62.1917,-98.2302 105.945,-82.4145"/>
<polygon fill="midnightblue" stroke="midnightblue" points="107.215,-85.6785 115.521,-79.1003 104.926,-79.0634 107.215,-85.6785"/>
</g>
<!-- Node23&#45;&gt;Node10 -->
<g id="edge40" class="edge"><title>Node23&#45;&gt;Node10</title>
<path fill="none" stroke="midnightblue" d="M652.841,-348.898C650.453,-334.115 643.549,-305.027 625,-290 610.373,-278.15 498.421,-259.92 434.815,-250.356"/>
<polygon fill="midnightblue" stroke="midnightblue" points="435.074,-246.856 424.667,-248.842 434.041,-253.779 435.074,-246.856"/>
</g>
<!-- Node23&#45;&gt;Node5 -->
<g id="edge41" class="edge"><title>Node23&#45;&gt;Node5</title>
<path fill="none" stroke="midnightblue" d="M611.452,-348.94C565.617,-339.181 492.638,-323.642 443.325,-313.141"/>
<polygon fill="midnightblue" stroke="midnightblue" points="443.996,-309.706 433.487,-311.047 442.538,-316.553 443.996,-309.706"/>
</g>
<!-- Node24 -->
<g id="node24" class="node"><title>Node24</title>
<polygon fill="white" stroke="#bfbfbf" points="501.803,-291 501.803,-311 616.197,-311 616.197,-291 501.803,-291"/>
<text text-anchor="middle" x="559" y="-297" font-family="Helvetica,sans-Serif" font-size="10.00">boost/lexical_cast.hpp</text>
</g>
<!-- Node23&#45;&gt;Node24 -->
<g id="edge42" class="edge"><title>Node23&#45;&gt;Node24</title>
<path fill="none" stroke="midnightblue" d="M638.313,-348.753C623.372,-339.946 600.66,-326.558 583.364,-316.362"/>
<polygon fill="midnightblue" stroke="midnightblue" points="584.787,-313.138 574.395,-311.075 581.233,-319.169 584.787,-313.138"/>
</g>
</g>
</svg>
        <g id="navigator" transform="translate(0 0)" fill="#404254">
                <rect fill="#f2f5e9" fill-opacity="0.5" stroke="#606060" stroke-width=".5" x="0" y="0" width="60" height="60"/>
                <use id="zoomplus" xlink:href="#zoomPlus" x="17" y="9" onmousedown="handleZoom(evt,'in')"/>
                <use id="zoomminus" xlink:href="#zoomMin" x="42" y="9" onmousedown="handleZoom(evt,'out')"/>
                <use id="reset" xlink:href="#resetDef" x="30" y="36" onmousedown="handleReset()"/>
                <g id="arrowUp" xlink:href="#dirArrow" transform="translate(30 24)" onmousedown="handlePan(0,-1)">
                  <use xlink:href="#rim" fill="#404040">
                        <set attributeName="fill" to="#808080" begin="arrowUp.mouseover" end="arrowUp.mouseout"/>
                  </use>
                  <path fill="none" stroke="white" stroke-width="1.5" d="M0,-3.0v7 M-2.5,-0.5L0,-3.0L2.5,-0.5"/>
                </g>
                <g id="arrowRight" xlink:href="#dirArrow" transform="rotate(90) translate(36 -43)" onmousedown="handlePan(1,0)">
                  <use xlink:href="#rim" fill="#404040">
                        <set attributeName="fill" to="#808080" begin="arrowRight.mouseover" end="arrowRight.mouseout"/>
                  </use>
                  <path fill="none" stroke="white" stroke-width="1.5" d="M0,-3.0v7 M-2.5,-0.5L0,-3.0L2.5,-0.5"/>
                </g>
                <g id="arrowDown" xlink:href="#dirArrow" transform="rotate(180) translate(-30 -48)" onmousedown="handlePan(0,1)">
                  <use xlink:href="#rim" fill="#404040">
                        <set attributeName="fill" to="#808080" begin="arrowDown.mouseover" end="arrowDown.mouseout"/>
                  </use>
                  <path fill="none" stroke="white" stroke-width="1.5" d="M0,-3.0v7 M-2.5,-0.5L0,-3.0L2.5,-0.5"/>
                </g>
                <g id="arrowLeft" xlink:href="#dirArrow" transform="rotate(270) translate(-36 17)" onmousedown="handlePan(-1,0)">
                  <use xlink:href="#rim" fill="#404040">
                        <set attributeName="fill" to="#808080" begin="arrowLeft.mouseover" end="arrowLeft.mouseout"/>
                  </use>
                  <path fill="none" stroke="white" stroke-width="1.5" d="M0,-3.0v7 M-2.5,-0.5L0,-3.0L2.5,-0.5"/>
                </g>
        </g>
        <svg viewBox="0 0 15 15" width="100%" height="30px" preserveAspectRatio="xMaxYMin meet">
         <g id="arrow_out" transform="scale(0.3 0.3)">
          <a xlink:href="_json_8cpp__incl_org.svg" target="_base">
           <rect id="button" ry="5" rx="5" y="6" x="6" height="38" width="38"
                fill="#f2f5e9" fill-opacity="0.5" stroke="#606060" stroke-width="1.0"/>
           <path id="arrow"
             d="M 11.500037,31.436501 C 11.940474,20.09759 22.043105,11.32322 32.158766,21.979434 L 37.068811,17.246167 C 37.068811,17.246167 37.088388,32 37.088388,32 L 22.160133,31.978069 C 22.160133,31.978069 26.997745,27.140456 26.997745,27.140456 C 18.528582,18.264221 13.291696,25.230495 11.500037,31.436501 z"
             style="fill:#404040;"/>
          </a>
         </g>
        </svg>
</svg>
