<?xml version="1.0" encoding="UTF-8" standalone="no"?>
<!DOCTYPE svg PUBLIC "-//W3C//DTD SVG 1.1//EN"
 "http://www.w3.org/Graphics/SVG/1.1/DTD/svg11.dtd">
<!-- Generated by graphviz version 2.30.1 (20140712.1814)
 -->
<!-- Title: include/cinder/MatrixAffine2.h Pages: 1 -->
<svg width="548pt" height="262pt"
 viewBox="0.00 0.00 548.00 262.00" xmlns="http://www.w3.org/2000/svg" xmlns:xlink="http://www.w3.org/1999/xlink">
<g id="graph0" class="graph" transform="scale(1 1) rotate(0) translate(4 258)">
<title>include/cinder/MatrixAffine2.h</title>
<polygon fill="white" stroke="white" points="-4,5 -4,-258 545,-258 545,5 -4,5"/>
<!-- Node1 -->
<g id="node1" class="node"><title>Node1</title>
<polygon fill="#bfbfbf" stroke="black" points="190.412,-233 190.412,-253 337.588,-253 337.588,-233 190.412,-233"/>
<text text-anchor="middle" x="264" y="-239" font-family="Helvetica,sans-Serif" font-size="10.00">include/cinder/MatrixAffine2.h</text>
</g>
<!-- Node2 -->
<g id="node2" class="node"><title>Node2</title>
<g id="a_node2"><a xlink:href="_cinder_8h.html" target="_top" xlink:title="cinder/Cinder.h">
<polygon fill="white" stroke="black" points="68.3672,-59 68.3672,-79 151.633,-79 151.633,-59 68.3672,-59"/>
<text text-anchor="middle" x="110" y="-65" font-family="Helvetica,sans-Serif" font-size="10.00">cinder/Cinder.h</text>
</a>
</g>
</g>
<!-- Node1&#45;&gt;Node2 -->
<g id="edge1" class="edge"><title>Node1&#45;&gt;Node2</title>
<path fill="none" stroke="midnightblue" d="M245.67,-232.909C216.479,-217.482 159.607,-183.376 129,-138 119.156,-123.406 114.377,-103.787 112.079,-89.373"/>
<polygon fill="midnightblue" stroke="midnightblue" points="115.504,-88.5768 110.718,-79.1247 108.565,-89.4985 115.504,-88.5768"/>
</g>
<!-- Node6 -->
<g id="node6" class="node"><title>Node6</title>
<g id="a_node6"><a xlink:href="_cinder_math_8h.html" target="_top" xlink:title="cinder/CinderMath.h">
<polygon fill="white" stroke="black" points="137.978,-117 137.978,-137 244.022,-137 244.022,-117 137.978,-117"/>
<text text-anchor="middle" x="191" y="-123" font-family="Helvetica,sans-Serif" font-size="10.00">cinder/CinderMath.h</text>
</a>
</g>
</g>
<!-- Node1&#45;&gt;Node6 -->
<g id="edge5" class="edge"><title>Node1&#45;&gt;Node6</title>
<path fill="none" stroke="midnightblue" d="M258.026,-232.671C245.881,-213.705 218.133,-170.371 202.412,-145.822"/>
<polygon fill="midnightblue" stroke="midnightblue" points="205.193,-143.673 196.852,-137.139 199.298,-147.448 205.193,-143.673"/>
</g>
<!-- Node11 -->
<g id="node11" class="node"><title>Node11</title>
<g id="a_node11"><a xlink:href="_vector_8h.html" target="_top" xlink:title="cinder/Vector.h">
<polygon fill="white" stroke="black" points="281.919,-175 281.919,-195 364.081,-195 364.081,-175 281.919,-175"/>
<text text-anchor="middle" x="323" y="-181" font-family="Helvetica,sans-Serif" font-size="10.00">cinder/Vector.h</text>
</a>
</g>
</g>
<!-- Node1&#45;&gt;Node11 -->
<g id="edge11" class="edge"><title>Node1&#45;&gt;Node11</title>
<path fill="none" stroke="midnightblue" d="M273.743,-232.753C282.506,-224.435 295.575,-212.031 306.049,-202.089"/>
<polygon fill="midnightblue" stroke="midnightblue" points="308.595,-204.498 313.439,-195.075 303.776,-199.421 308.595,-204.498"/>
</g>
<!-- Node16 -->
<g id="node16" class="node"><title>Node16</title>
<polygon fill="white" stroke="#bfbfbf" points="382.49,-175 382.49,-195 433.51,-195 433.51,-175 382.49,-175"/>
<text text-anchor="middle" x="408" y="-181" font-family="Helvetica,sans-Serif" font-size="10.00">iomanip</text>
</g>
<!-- Node1&#45;&gt;Node16 -->
<g id="edge18" class="edge"><title>Node1&#45;&gt;Node16</title>
<path fill="none" stroke="midnightblue" d="M287.457,-232.878C311.305,-223.603 348.455,-209.156 375.21,-198.752"/>
<polygon fill="midnightblue" stroke="midnightblue" points="376.502,-202.005 384.553,-195.118 373.965,-195.481 376.502,-202.005"/>
</g>
<!-- Node3 -->
<g id="node3" class="node"><title>Node3</title>
<polygon fill="white" stroke="#bfbfbf" points="-0.450684,-1 -0.450684,-21 44.4507,-21 44.4507,-1 -0.450684,-1"/>
<text text-anchor="middle" x="22" y="-7" font-family="Helvetica,sans-Serif" font-size="10.00">cstdint</text>
</g>
<!-- Node2&#45;&gt;Node3 -->
<g id="edge2" class="edge"><title>Node2&#45;&gt;Node3</title>
<path fill="none" stroke="midnightblue" d="M95.4686,-58.7527C81.757,-50.0272 60.9794,-36.8051 45.0148,-26.6458"/>
<polygon fill="midnightblue" stroke="midnightblue" points="46.5767,-23.4912 36.261,-21.0752 42.8186,-29.3968 46.5767,-23.4912"/>
</g>
<!-- Node4 -->
<g id="node4" class="node"><title>Node4</title>
<polygon fill="white" stroke="#bfbfbf" points="62.5298,-1 62.5298,-21 157.47,-21 157.47,-1 62.5298,-1"/>
<text text-anchor="middle" x="110" y="-7" font-family="Helvetica,sans-Serif" font-size="10.00">boost/version.hpp</text>
</g>
<!-- Node2&#45;&gt;Node4 -->
<g id="edge3" class="edge"><title>Node2&#45;&gt;Node4</title>
<path fill="none" stroke="midnightblue" d="M110,-58.7527C110,-51.2504 110,-40.4238 110,-31.0781"/>
<polygon fill="midnightblue" stroke="midnightblue" points="113.5,-31.0752 110,-21.0752 106.5,-31.0752 113.5,-31.0752"/>
</g>
<!-- Node5 -->
<g id="node5" class="node"><title>Node5</title>
<polygon fill="white" stroke="#bfbfbf" points="175.621,-1 175.621,-21 308.379,-21 308.379,-1 175.621,-1"/>
<text text-anchor="middle" x="242" y="-7" font-family="Helvetica,sans-Serif" font-size="10.00">boost/checked_delete.hpp</text>
</g>
<!-- Node2&#45;&gt;Node5 -->
<g id="edge4" class="edge"><title>Node2&#45;&gt;Node5</title>
<path fill="none" stroke="midnightblue" d="M131.502,-58.878C153.172,-49.6848 186.821,-35.4095 211.295,-25.0263"/>
<polygon fill="midnightblue" stroke="midnightblue" points="212.668,-28.2457 220.507,-21.1181 209.935,-21.8016 212.668,-28.2457"/>
</g>
<!-- Node6&#45;&gt;Node2 -->
<g id="edge6" class="edge"><title>Node6&#45;&gt;Node2</title>
<path fill="none" stroke="midnightblue" d="M177.624,-116.753C165.122,-108.109 146.236,-95.0518 131.597,-84.9314"/>
<polygon fill="midnightblue" stroke="midnightblue" points="133.343,-81.8831 123.127,-79.0752 129.362,-87.641 133.343,-81.8831"/>
</g>
<!-- Node7 -->
<g id="node7" class="node"><title>Node7</title>
<polygon fill="white" stroke="#bfbfbf" points="405.384,-59 405.384,-79 448.616,-79 448.616,-59 405.384,-59"/>
<text text-anchor="middle" x="427" y="-65" font-family="Helvetica,sans-Serif" font-size="10.00">cmath</text>
</g>
<!-- Node6&#45;&gt;Node7 -->
<g id="edge7" class="edge"><title>Node6&#45;&gt;Node7</title>
<path fill="none" stroke="midnightblue" d="M229.18,-116.94C275.338,-105.988 352.173,-87.7555 395.242,-77.5359"/>
<polygon fill="midnightblue" stroke="midnightblue" points="396.248,-80.8943 405.17,-75.18 394.632,-74.0834 396.248,-80.8943"/>
</g>
<!-- Node8 -->
<g id="node8" class="node"><title>Node8</title>
<polygon fill="white" stroke="#bfbfbf" points="304.113,-59 304.113,-79 347.887,-79 347.887,-59 304.113,-59"/>
<text text-anchor="middle" x="326" y="-65" font-family="Helvetica,sans-Serif" font-size="10.00">climits</text>
</g>
<!-- Node6&#45;&gt;Node8 -->
<g id="edge8" class="edge"><title>Node6&#45;&gt;Node8</title>
<path fill="none" stroke="midnightblue" d="M212.991,-116.878C235.153,-107.685 269.566,-93.4095 294.597,-83.0263"/>
<polygon fill="midnightblue" stroke="midnightblue" points="296.123,-86.1826 304.019,-79.1181 293.441,-79.7168 296.123,-86.1826"/>
</g>
<!-- Node9 -->
<g id="node9" class="node"><title>Node9</title>
<polygon fill="white" stroke="#bfbfbf" points="170.049,-59 170.049,-79 209.951,-79 209.951,-59 170.049,-59"/>
<text text-anchor="middle" x="190" y="-65" font-family="Helvetica,sans-Serif" font-size="10.00">cfloat</text>
</g>
<!-- Node6&#45;&gt;Node9 -->
<g id="edge9" class="edge"><title>Node6&#45;&gt;Node9</title>
<path fill="none" stroke="midnightblue" d="M190.835,-116.753C190.701,-109.25 190.508,-98.4238 190.341,-89.0781"/>
<polygon fill="midnightblue" stroke="midnightblue" points="193.84,-89.0111 190.162,-79.0752 186.841,-89.1361 193.84,-89.0111"/>
</g>
<!-- Node10 -->
<g id="node10" class="node"><title>Node10</title>
<polygon fill="white" stroke="#bfbfbf" points="227.596,-59 227.596,-79 286.404,-79 286.404,-59 227.596,-59"/>
<text text-anchor="middle" x="257" y="-65" font-family="Helvetica,sans-Serif" font-size="10.00">functional</text>
</g>
<!-- Node6&#45;&gt;Node10 -->
<g id="edge10" class="edge"><title>Node6&#45;&gt;Node10</title>
<path fill="none" stroke="midnightblue" d="M201.899,-116.753C211.798,-108.353 226.608,-95.7874 238.381,-85.7976"/>
<polygon fill="midnightblue" stroke="midnightblue" points="240.944,-88.2138 246.304,-79.0752 236.415,-82.8762 240.944,-88.2138"/>
</g>
<!-- Node11&#45;&gt;Node7 -->
<g id="edge12" class="edge"><title>Node11&#45;&gt;Node7</title>
<path fill="none" stroke="midnightblue" d="M361.548,-174.95C394.367,-166.372 437.78,-152.651 448,-138 458.554,-122.871 449.655,-102.26 440.404,-87.7075"/>
<polygon fill="midnightblue" stroke="midnightblue" points="443.043,-85.3697 434.475,-79.1376 437.286,-89.3525 443.043,-85.3697"/>
</g>
<!-- Node12 -->
<g id="node12" class="node"><title>Node12</title>
<polygon fill="white" stroke="#bfbfbf" points="495.273,-117 495.273,-137 540.727,-137 540.727,-117 495.273,-117"/>
<text text-anchor="middle" x="518" y="-123" font-family="Helvetica,sans-Serif" font-size="10.00">cstring</text>
</g>
<!-- Node11&#45;&gt;Node12 -->
<g id="edge13" class="edge"><title>Node11&#45;&gt;Node12</title>
<path fill="none" stroke="midnightblue" d="M354.764,-174.878C390.77,-164.538 449.164,-147.768 485.48,-137.339"/>
<polygon fill="midnightblue" stroke="midnightblue" points="486.455,-140.701 495.1,-134.576 484.523,-133.973 486.455,-140.701"/>
</g>
<!-- Node13 -->
<g id="node13" class="node"><title>Node13</title>
<polygon fill="white" stroke="#bfbfbf" points="261.828,-117 261.828,-137 316.172,-137 316.172,-117 261.828,-117"/>
<text text-anchor="middle" x="289" y="-123" font-family="Helvetica,sans-Serif" font-size="10.00">iostream</text>
</g>
<!-- Node11&#45;&gt;Node13 -->
<g id="edge14" class="edge"><title>Node11&#45;&gt;Node13</title>
<path fill="none" stroke="midnightblue" d="M317.386,-174.753C312.633,-166.924 305.682,-155.476 299.848,-145.868"/>
<polygon fill="midnightblue" stroke="midnightblue" points="302.692,-143.807 294.51,-137.075 296.708,-147.44 302.692,-143.807"/>
</g>
<!-- Node14 -->
<g id="node14" class="node"><title>Node14</title>
<polygon fill="white" stroke="#bfbfbf" points="333.884,-117 333.884,-137 382.116,-137 382.116,-117 333.884,-117"/>
<text text-anchor="middle" x="358" y="-123" font-family="Helvetica,sans-Serif" font-size="10.00">cassert</text>
</g>
<!-- Node11&#45;&gt;Node14 -->
<g id="edge15" class="edge"><title>Node11&#45;&gt;Node14</title>
<path fill="none" stroke="midnightblue" d="M328.78,-174.753C333.723,-166.843 340.977,-155.237 347.02,-145.568"/>
<polygon fill="midnightblue" stroke="midnightblue" points="349.996,-147.41 352.328,-137.075 344.06,-143.7 349.996,-147.41"/>
</g>
<!-- Node15 -->
<g id="node15" class="node"><title>Node15</title>
<polygon fill="white" stroke="#bfbfbf" points="400.613,-117 400.613,-137 439.387,-137 439.387,-117 400.613,-117"/>
<text text-anchor="middle" x="420" y="-123" font-family="Helvetica,sans-Serif" font-size="10.00">limits</text>
</g>
<!-- Node11&#45;&gt;Node15 -->
<g id="edge16" class="edge"><title>Node11&#45;&gt;Node15</title>
<path fill="none" stroke="midnightblue" d="M339.018,-174.753C354.414,-165.864 377.893,-152.309 395.613,-142.079"/>
<polygon fill="midnightblue" stroke="midnightblue" points="397.37,-145.106 404.28,-137.075 393.87,-139.044 397.37,-145.106"/>
</g>
<!-- Node11&#45;&gt;Node6 -->
<g id="edge17" class="edge"><title>Node11&#45;&gt;Node6</title>
<path fill="none" stroke="midnightblue" d="M301.498,-174.878C279.828,-165.685 246.179,-151.409 221.705,-141.026"/>
<polygon fill="midnightblue" stroke="midnightblue" points="223.065,-137.802 212.493,-137.118 220.332,-144.246 223.065,-137.802"/>
</g>
</g>
</svg>
