<?xml version="1.0" encoding="UTF-8" standalone="no"?>
<!DOCTYPE svg PUBLIC "-//W3C//DTD SVG 1.1//EN"
 "http://www.w3.org/Graphics/SVG/1.1/DTD/svg11.dtd">
<!-- Generated by graphviz version 2.30.1 (20140712.1814)
 -->
<!-- Title: include/cinder/Matrix44.h Pages: 1 -->
<svg width="571pt" height="320pt"
 viewBox="0.00 0.00 570.57 320.00" xmlns="http://www.w3.org/2000/svg" xmlns:xlink="http://www.w3.org/1999/xlink">
<g id="graph0" class="graph" transform="scale(1 1) rotate(0) translate(4 316)">
<title>include/cinder/Matrix44.h</title>
<polygon fill="white" stroke="white" points="-4,5 -4,-316 567.565,-316 567.565,5 -4,5"/>
<!-- Node1 -->
<g id="node1" class="node"><title>Node1</title>
<polygon fill="#bfbfbf" stroke="black" points="233.982,-291 233.982,-311 361.149,-311 361.149,-291 233.982,-291"/>
<text text-anchor="middle" x="297.565" y="-297" font-family="Helvetica,sans-Serif" font-size="10.00">include/cinder/Matrix44.h</text>
</g>
<!-- Node2 -->
<g id="node2" class="node"><title>Node2</title>
<g id="a_node2"><a xlink:href="_cinder_8h.html" target="_top" xlink:title="cinder/Cinder.h">
<polygon fill="white" stroke="black" points="222.932,-59 222.932,-79 306.198,-79 306.198,-59 222.932,-59"/>
<text text-anchor="middle" x="264.565" y="-65" font-family="Helvetica,sans-Serif" font-size="10.00">cinder/Cinder.h</text>
</a>
</g>
</g>
<!-- Node1&#45;&gt;Node2 -->
<g id="edge1" class="edge"><title>Node1&#45;&gt;Node2</title>
<path fill="none" stroke="midnightblue" d="M233.858,-291.496C194.94,-284.717 144.881,-273.101 103.565,-254 41.7804,-225.435 15.3287,-205.044 3.56512,-138 1.87531,-128.369 -2.72021,-123.49 3.56512,-116 29.7283,-84.8225 144.383,-74.768 212.723,-71.5314"/>
<polygon fill="midnightblue" stroke="midnightblue" points="213.027,-75.0215 222.863,-71.0849 212.719,-68.0282 213.027,-75.0215"/>
</g>
<!-- Node6 -->
<g id="node6" class="node"><title>Node6</title>
<g id="a_node6"><a xlink:href="_cinder_math_8h.html" target="_top" xlink:title="cinder/CinderMath.h">
<polygon fill="white" stroke="black" points="421.543,-117 421.543,-137 527.587,-137 527.587,-117 421.543,-117"/>
<text text-anchor="middle" x="474.565" y="-123" font-family="Helvetica,sans-Serif" font-size="10.00">cinder/CinderMath.h</text>
</a>
</g>
</g>
<!-- Node1&#45;&gt;Node6 -->
<g id="edge5" class="edge"><title>Node1&#45;&gt;Node6</title>
<path fill="none" stroke="midnightblue" d="M361.328,-294.142C414.172,-287.812 483.312,-275.6 500.565,-254 525.892,-222.292 502.173,-172.125 486.268,-145.672"/>
<polygon fill="midnightblue" stroke="midnightblue" points="489.152,-143.682 480.868,-137.077 483.225,-147.407 489.152,-143.682"/>
</g>
<!-- Node11 -->
<g id="node11" class="node"><title>Node11</title>
<g id="a_node11"><a xlink:href="_vector_8h.html" target="_top" xlink:title="cinder/Vector.h">
<polygon fill="white" stroke="black" points="142.484,-175 142.484,-195 224.646,-195 224.646,-175 142.484,-175"/>
<text text-anchor="middle" x="183.565" y="-181" font-family="Helvetica,sans-Serif" font-size="10.00">cinder/Vector.h</text>
</a>
</g>
</g>
<!-- Node1&#45;&gt;Node11 -->
<g id="edge11" class="edge"><title>Node1&#45;&gt;Node11</title>
<path fill="none" stroke="midnightblue" d="M233.802,-292.625C186.131,-285.645 126.687,-273.318 111.565,-254 95.141,-233.019 124.985,-212.522 151.1,-199.61"/>
<polygon fill="midnightblue" stroke="midnightblue" points="152.899,-202.632 160.46,-195.21 149.921,-196.297 152.899,-202.632"/>
</g>
<!-- Node16 -->
<g id="node16" class="node"><title>Node16</title>
<g id="a_node16"><a xlink:href="_matrix22_8h.html" target="_top" xlink:title="cinder/Matrix22.h">
<polygon fill="white" stroke="black" points="399.216,-233 399.216,-253 491.915,-253 491.915,-233 399.216,-233"/>
<text text-anchor="middle" x="445.565" y="-239" font-family="Helvetica,sans-Serif" font-size="10.00">cinder/Matrix22.h</text>
</a>
</g>
</g>
<!-- Node1&#45;&gt;Node16 -->
<g id="edge18" class="edge"><title>Node1&#45;&gt;Node16</title>
<path fill="none" stroke="midnightblue" d="M321.673,-290.878C346.185,-281.603 384.366,-267.156 411.865,-256.752"/>
<polygon fill="midnightblue" stroke="midnightblue" points="413.353,-259.931 421.467,-253.118 410.876,-253.384 413.353,-259.931"/>
</g>
<!-- Node18 -->
<g id="node18" class="node"><title>Node18</title>
<g id="a_node18"><a xlink:href="_matrix33_8h.html" target="_top" xlink:title="cinder/Matrix33.h">
<polygon fill="white" stroke="black" points="251.216,-233 251.216,-253 343.915,-253 343.915,-233 251.216,-233"/>
<text text-anchor="middle" x="297.565" y="-239" font-family="Helvetica,sans-Serif" font-size="10.00">cinder/Matrix33.h</text>
</a>
</g>
</g>
<!-- Node1&#45;&gt;Node18 -->
<g id="edge23" class="edge"><title>Node1&#45;&gt;Node18</title>
<path fill="none" stroke="midnightblue" d="M297.565,-290.753C297.565,-283.25 297.565,-272.424 297.565,-263.078"/>
<polygon fill="midnightblue" stroke="midnightblue" points="301.065,-263.075 297.565,-253.075 294.065,-263.075 301.065,-263.075"/>
</g>
<!-- Node19 -->
<g id="node19" class="node"><title>Node19</title>
<g id="a_node19"><a xlink:href="_matrix_affine2_8h.html" target="_top" xlink:title="cinder/MatrixAffine2.h">
<polygon fill="white" stroke="black" points="120.211,-233 120.211,-253 232.92,-253 232.92,-233 120.211,-233"/>
<text text-anchor="middle" x="176.565" y="-239" font-family="Helvetica,sans-Serif" font-size="10.00">cinder/MatrixAffine2.h</text>
</a>
</g>
</g>
<!-- Node1&#45;&gt;Node19 -->
<g id="edge28" class="edge"><title>Node1&#45;&gt;Node19</title>
<path fill="none" stroke="midnightblue" d="M277.855,-290.878C258.255,-281.807 227.963,-267.788 205.609,-257.442"/>
<polygon fill="midnightblue" stroke="midnightblue" points="206.812,-254.142 196.267,-253.118 203.872,-260.495 206.812,-254.142"/>
</g>
<!-- Node17 -->
<g id="node17" class="node"><title>Node17</title>
<polygon fill="white" stroke="#bfbfbf" points="357.055,-175 357.055,-195 408.075,-195 408.075,-175 357.055,-175"/>
<text text-anchor="middle" x="382.565" y="-181" font-family="Helvetica,sans-Serif" font-size="10.00">iomanip</text>
</g>
<!-- Node1&#45;&gt;Node17 -->
<g id="edge33" class="edge"><title>Node1&#45;&gt;Node17</title>
<path fill="none" stroke="midnightblue" d="M311.79,-290.88C323.934,-282.503 341.192,-269.121 352.565,-254 363.814,-239.044 371.946,-219.209 376.882,-204.824"/>
<polygon fill="midnightblue" stroke="midnightblue" points="380.294,-205.648 380.033,-195.056 373.632,-203.499 380.294,-205.648"/>
</g>
<!-- Node3 -->
<g id="node3" class="node"><title>Node3</title>
<polygon fill="white" stroke="#bfbfbf" points="154.114,-1 154.114,-21 199.016,-21 199.016,-1 154.114,-1"/>
<text text-anchor="middle" x="176.565" y="-7" font-family="Helvetica,sans-Serif" font-size="10.00">cstdint</text>
</g>
<!-- Node2&#45;&gt;Node3 -->
<g id="edge2" class="edge"><title>Node2&#45;&gt;Node3</title>
<path fill="none" stroke="midnightblue" d="M250.034,-58.7527C236.322,-50.0272 215.545,-36.8051 199.58,-26.6458"/>
<polygon fill="midnightblue" stroke="midnightblue" points="201.142,-23.4912 190.826,-21.0752 197.384,-29.3968 201.142,-23.4912"/>
</g>
<!-- Node4 -->
<g id="node4" class="node"><title>Node4</title>
<polygon fill="white" stroke="#bfbfbf" points="217.095,-1 217.095,-21 312.035,-21 312.035,-1 217.095,-1"/>
<text text-anchor="middle" x="264.565" y="-7" font-family="Helvetica,sans-Serif" font-size="10.00">boost/version.hpp</text>
</g>
<!-- Node2&#45;&gt;Node4 -->
<g id="edge3" class="edge"><title>Node2&#45;&gt;Node4</title>
<path fill="none" stroke="midnightblue" d="M264.565,-58.7527C264.565,-51.2504 264.565,-40.4238 264.565,-31.0781"/>
<polygon fill="midnightblue" stroke="midnightblue" points="268.065,-31.0752 264.565,-21.0752 261.065,-31.0752 268.065,-31.0752"/>
</g>
<!-- Node5 -->
<g id="node5" class="node"><title>Node5</title>
<polygon fill="white" stroke="#bfbfbf" points="330.186,-1 330.186,-21 462.944,-21 462.944,-1 330.186,-1"/>
<text text-anchor="middle" x="396.565" y="-7" font-family="Helvetica,sans-Serif" font-size="10.00">boost/checked_delete.hpp</text>
</g>
<!-- Node2&#45;&gt;Node5 -->
<g id="edge4" class="edge"><title>Node2&#45;&gt;Node5</title>
<path fill="none" stroke="midnightblue" d="M286.067,-58.878C307.737,-49.6848 341.386,-35.4095 365.86,-25.0263"/>
<polygon fill="midnightblue" stroke="midnightblue" points="367.234,-28.2457 375.072,-21.1181 364.5,-21.8016 367.234,-28.2457"/>
</g>
<!-- Node6&#45;&gt;Node2 -->
<g id="edge6" class="edge"><title>Node6&#45;&gt;Node2</title>
<path fill="none" stroke="midnightblue" d="M440.358,-116.878C404.327,-107.27 347.479,-92.1104 308.233,-81.6449"/>
<polygon fill="midnightblue" stroke="midnightblue" points="308.974,-78.2202 298.41,-79.0253 307.171,-84.9838 308.974,-78.2202"/>
</g>
<!-- Node7 -->
<g id="node7" class="node"><title>Node7</title>
<polygon fill="white" stroke="#bfbfbf" points="323.949,-59 323.949,-79 367.181,-79 367.181,-59 323.949,-59"/>
<text text-anchor="middle" x="345.565" y="-65" font-family="Helvetica,sans-Serif" font-size="10.00">cmath</text>
</g>
<!-- Node6&#45;&gt;Node7 -->
<g id="edge7" class="edge"><title>Node6&#45;&gt;Node7</title>
<path fill="none" stroke="midnightblue" d="M453.552,-116.878C432.468,-107.725 399.781,-93.5357 375.89,-83.1643"/>
<polygon fill="midnightblue" stroke="midnightblue" points="377.136,-79.8897 366.569,-79.1181 374.349,-86.3108 377.136,-79.8897"/>
</g>
<!-- Node8 -->
<g id="node8" class="node"><title>Node8</title>
<polygon fill="white" stroke="#bfbfbf" points="461.678,-59 461.678,-79 505.452,-79 505.452,-59 461.678,-59"/>
<text text-anchor="middle" x="483.565" y="-65" font-family="Helvetica,sans-Serif" font-size="10.00">climits</text>
</g>
<!-- Node6&#45;&gt;Node8 -->
<g id="edge8" class="edge"><title>Node6&#45;&gt;Node8</title>
<path fill="none" stroke="midnightblue" d="M476.051,-116.753C477.257,-109.25 478.997,-98.4238 480.499,-89.0781"/>
<polygon fill="midnightblue" stroke="midnightblue" points="483.975,-89.5039 482.107,-79.0752 477.064,-88.3931 483.975,-89.5039"/>
</g>
<!-- Node9 -->
<g id="node9" class="node"><title>Node9</title>
<polygon fill="white" stroke="#bfbfbf" points="523.614,-59 523.614,-79 563.516,-79 563.516,-59 523.614,-59"/>
<text text-anchor="middle" x="543.565" y="-65" font-family="Helvetica,sans-Serif" font-size="10.00">cfloat</text>
</g>
<!-- Node6&#45;&gt;Node9 -->
<g id="edge9" class="edge"><title>Node6&#45;&gt;Node9</title>
<path fill="none" stroke="midnightblue" d="M485.959,-116.753C496.409,-108.272 512.093,-95.543 524.458,-85.5073"/>
<polygon fill="midnightblue" stroke="midnightblue" points="526.824,-88.0945 532.383,-79.0752 522.413,-82.6593 526.824,-88.0945"/>
</g>
<!-- Node10 -->
<g id="node10" class="node"><title>Node10</title>
<polygon fill="white" stroke="#bfbfbf" points="385.161,-59 385.161,-79 443.969,-79 443.969,-59 385.161,-59"/>
<text text-anchor="middle" x="414.565" y="-65" font-family="Helvetica,sans-Serif" font-size="10.00">functional</text>
</g>
<!-- Node6&#45;&gt;Node10 -->
<g id="edge10" class="edge"><title>Node6&#45;&gt;Node10</title>
<path fill="none" stroke="midnightblue" d="M464.657,-116.753C455.745,-108.435 442.455,-96.031 431.804,-86.0893"/>
<polygon fill="midnightblue" stroke="midnightblue" points="433.987,-83.3397 424.289,-79.0752 429.211,-88.4571 433.987,-83.3397"/>
</g>
<!-- Node11&#45;&gt;Node7 -->
<g id="edge12" class="edge"><title>Node11&#45;&gt;Node7</title>
<path fill="none" stroke="midnightblue" d="M205.922,-174.926C225.007,-166.672 252.747,-153.443 274.565,-138 295.959,-122.858 317.234,-101.414 330.835,-86.677"/>
<polygon fill="midnightblue" stroke="midnightblue" points="333.432,-89.0228 337.553,-79.2623 328.245,-84.3226 333.432,-89.0228"/>
</g>
<!-- Node12 -->
<g id="node12" class="node"><title>Node12</title>
<polygon fill="white" stroke="#bfbfbf" points="220.839,-117 220.839,-137 266.292,-137 266.292,-117 220.839,-117"/>
<text text-anchor="middle" x="243.565" y="-123" font-family="Helvetica,sans-Serif" font-size="10.00">cstring</text>
</g>
<!-- Node11&#45;&gt;Node12 -->
<g id="edge13" class="edge"><title>Node11&#45;&gt;Node12</title>
<path fill="none" stroke="midnightblue" d="M193.473,-174.753C202.385,-166.435 215.675,-154.031 226.327,-144.089"/>
<polygon fill="midnightblue" stroke="midnightblue" points="228.919,-146.457 233.842,-137.075 224.143,-141.34 228.919,-146.457"/>
</g>
<!-- Node13 -->
<g id="node13" class="node"><title>Node13</title>
<polygon fill="white" stroke="#bfbfbf" points="25.3928,-117 25.3928,-137 79.7375,-137 79.7375,-117 25.3928,-117"/>
<text text-anchor="middle" x="52.5651" y="-123" font-family="Helvetica,sans-Serif" font-size="10.00">iostream</text>
</g>
<!-- Node11&#45;&gt;Node13 -->
<g id="edge14" class="edge"><title>Node11&#45;&gt;Node13</title>
<path fill="none" stroke="midnightblue" d="M162.226,-174.878C140.816,-165.725 107.622,-151.536 83.3602,-141.164"/>
<polygon fill="midnightblue" stroke="midnightblue" points="84.4658,-137.831 73.895,-137.118 81.7143,-144.267 84.4658,-137.831"/>
</g>
<!-- Node14 -->
<g id="node14" class="node"><title>Node14</title>
<polygon fill="white" stroke="#bfbfbf" points="97.4494,-117 97.4494,-137 145.681,-137 145.681,-117 97.4494,-117"/>
<text text-anchor="middle" x="121.565" y="-123" font-family="Helvetica,sans-Serif" font-size="10.00">cassert</text>
</g>
<!-- Node11&#45;&gt;Node14 -->
<g id="edge15" class="edge"><title>Node11&#45;&gt;Node14</title>
<path fill="none" stroke="midnightblue" d="M173.327,-174.753C164.028,-166.353 150.115,-153.787 139.055,-143.798"/>
<polygon fill="midnightblue" stroke="midnightblue" points="141.38,-141.181 131.613,-137.075 136.688,-146.375 141.38,-141.181"/>
</g>
<!-- Node15 -->
<g id="node15" class="node"><title>Node15</title>
<polygon fill="white" stroke="#bfbfbf" points="164.178,-117 164.178,-137 202.952,-137 202.952,-117 164.178,-117"/>
<text text-anchor="middle" x="183.565" y="-123" font-family="Helvetica,sans-Serif" font-size="10.00">limits</text>
</g>
<!-- Node11&#45;&gt;Node15 -->
<g id="edge16" class="edge"><title>Node11&#45;&gt;Node15</title>
<path fill="none" stroke="midnightblue" d="M183.565,-174.753C183.565,-167.25 183.565,-156.424 183.565,-147.078"/>
<polygon fill="midnightblue" stroke="midnightblue" points="187.065,-147.075 183.565,-137.075 180.065,-147.075 187.065,-147.075"/>
</g>
<!-- Node11&#45;&gt;Node6 -->
<g id="edge17" class="edge"><title>Node11&#45;&gt;Node6</title>
<path fill="none" stroke="midnightblue" d="M224.949,-176.036C275.426,-166.322 361.011,-149.852 417.661,-138.951"/>
<polygon fill="midnightblue" stroke="midnightblue" points="418.38,-142.376 427.539,-137.05 417.057,-135.503 418.38,-142.376"/>
</g>
<!-- Node16&#45;&gt;Node2 -->
<g id="edge19" class="edge"><title>Node16&#45;&gt;Node2</title>
<path fill="none" stroke="midnightblue" d="M443.41,-232.766C439.787,-218.811 431.378,-192.061 416.565,-174 382.422,-132.372 327.437,-100.513 293.796,-83.5804"/>
<polygon fill="midnightblue" stroke="midnightblue" points="295.017,-80.2803 284.499,-79.0074 291.927,-86.5617 295.017,-80.2803"/>
</g>
<!-- Node16&#45;&gt;Node6 -->
<g id="edge20" class="edge"><title>Node16&#45;&gt;Node6</title>
<path fill="none" stroke="midnightblue" d="M447.938,-232.671C452.678,-214.041 463.398,-171.898 469.695,-147.143"/>
<polygon fill="midnightblue" stroke="midnightblue" points="473.167,-147.694 472.24,-137.139 466.383,-145.968 473.167,-147.694"/>
</g>
<!-- Node16&#45;&gt;Node11 -->
<g id="edge21" class="edge"><title>Node16&#45;&gt;Node11</title>
<path fill="none" stroke="midnightblue" d="M403.179,-232.94C357.247,-223.123 283.953,-207.457 234.819,-196.955"/>
<polygon fill="midnightblue" stroke="midnightblue" points="235.536,-193.529 225.025,-194.862 234.073,-200.375 235.536,-193.529"/>
</g>
<!-- Node16&#45;&gt;Node17 -->
<g id="edge22" class="edge"><title>Node16&#45;&gt;Node17</title>
<path fill="none" stroke="midnightblue" d="M435.162,-232.753C425.713,-224.353 411.576,-211.787 400.337,-201.798"/>
<polygon fill="midnightblue" stroke="midnightblue" points="402.574,-199.103 392.775,-195.075 397.924,-204.335 402.574,-199.103"/>
</g>
<!-- Node18&#45;&gt;Node2 -->
<g id="edge24" class="edge"><title>Node18&#45;&gt;Node2</title>
<path fill="none" stroke="midnightblue" d="M295.996,-232.81C292.417,-211.984 283.283,-159.61 274.565,-116 272.783,-107.084 270.661,-97.2305 268.831,-88.9376"/>
<polygon fill="midnightblue" stroke="midnightblue" points="272.24,-88.1436 266.648,-79.1452 265.408,-89.6673 272.24,-88.1436"/>
</g>
<!-- Node18&#45;&gt;Node6 -->
<g id="edge25" class="edge"><title>Node18&#45;&gt;Node6</title>
<path fill="none" stroke="midnightblue" d="M302.082,-232.721C309.59,-218.212 325.973,-190.148 347.565,-174 369.187,-157.829 397.049,-146.9 421.165,-139.767"/>
<polygon fill="midnightblue" stroke="midnightblue" points="422.214,-143.108 430.893,-137.032 420.319,-136.37 422.214,-143.108"/>
</g>
<!-- Node18&#45;&gt;Node11 -->
<g id="edge26" class="edge"><title>Node18&#45;&gt;Node11</title>
<path fill="none" stroke="midnightblue" d="M278.995,-232.878C260.612,-223.847 232.246,-209.913 211.213,-199.581"/>
<polygon fill="midnightblue" stroke="midnightblue" points="212.646,-196.386 202.127,-195.118 209.559,-202.669 212.646,-196.386"/>
</g>
<!-- Node18&#45;&gt;Node17 -->
<g id="edge27" class="edge"><title>Node18&#45;&gt;Node17</title>
<path fill="none" stroke="midnightblue" d="M311.601,-232.753C324.845,-224.027 344.915,-210.805 360.335,-200.646"/>
<polygon fill="midnightblue" stroke="midnightblue" points="362.365,-203.5 368.79,-195.075 358.514,-197.654 362.365,-203.5"/>
</g>
<!-- Node19&#45;&gt;Node2 -->
<g id="edge29" class="edge"><title>Node19&#45;&gt;Node2</title>
<path fill="none" stroke="midnightblue" d="M146.132,-232.977C88.3912,-214.371 -27.5181,-169.012 16.5651,-116 41.0158,-86.5971 147.539,-75.903 212.766,-72.0757"/>
<polygon fill="midnightblue" stroke="midnightblue" points="213.069,-75.5643 222.861,-71.5185 212.683,-68.575 213.069,-75.5643"/>
</g>
<!-- Node19&#45;&gt;Node6 -->
<g id="edge30" class="edge"><title>Node19&#45;&gt;Node6</title>
<path fill="none" stroke="midnightblue" d="M194.193,-232.791C221.288,-218.868 275.025,-192.159 322.565,-174 357.969,-160.476 399.178,-148.213 429.749,-139.756"/>
<polygon fill="midnightblue" stroke="midnightblue" points="430.963,-143.052 439.685,-137.037 429.116,-136.301 430.963,-143.052"/>
</g>
<!-- Node19&#45;&gt;Node11 -->
<g id="edge31" class="edge"><title>Node19&#45;&gt;Node11</title>
<path fill="none" stroke="midnightblue" d="M177.721,-232.753C178.659,-225.25 180.012,-214.424 181.18,-205.078"/>
<polygon fill="midnightblue" stroke="midnightblue" points="184.663,-205.432 182.431,-195.075 177.717,-204.564 184.663,-205.432"/>
</g>
<!-- Node19&#45;&gt;Node17 -->
<g id="edge32" class="edge"><title>Node19&#45;&gt;Node17</title>
<path fill="none" stroke="midnightblue" d="M210.121,-232.878C247.797,-222.636 308.678,-206.086 347.113,-195.638"/>
<polygon fill="midnightblue" stroke="midnightblue" points="348.115,-198.992 356.846,-192.992 346.278,-192.237 348.115,-198.992"/>
</g>
</g>
</svg>
