<?xml version="1.0" encoding="UTF-8" standalone="no"?>
<!DOCTYPE svg PUBLIC "-//W3C//DTD SVG 1.1//EN"
 "http://www.w3.org/Graphics/SVG/1.1/DTD/svg11.dtd">
<!-- Generated by graphviz version 2.30.1 (20140712.1814)
 -->
<!-- Title: include/cinder/Matrix.h Pages: 1 -->
<!--zoomable 436 -->
<svg id="main" version="1.1" xmlns="http://www.w3.org/2000/svg" xmlns:xlink="http://www.w3.org/1999/xlink" xml:space="preserve" onload="init(evt)">
<style type="text/css"><![CDATA[
.edge:hover path { stroke: red; }
.edge:hover polygon { stroke: red; fill: red; }
]]></style>
<script type="text/javascript"><![CDATA[
var edges = document.getElementsByTagName('g');
if (edges && edges.length) {
  for (var i=0;i<edges.length;i++) {
    if (edges[i].id.substr(0,4)=='edge') {
      edges[i].setAttribute('class','edge');
    }
  }
}
]]></script>
        <defs>
                <circle id="rim" cx="0" cy="0" r="7"/>
                <circle id="rim2" cx="0" cy="0" r="3.5"/>
                <g id="zoomPlus">
                        <use xlink:href="#rim" fill="#404040">
                                <set attributeName="fill" to="#808080" begin="zoomplus.mouseover" end="zoomplus.mouseout"/>
                        </use>
                        <path d="M-4,0h8M0,-4v8" fill="none" stroke="white" stroke-width="1.5" pointer-events="none"/>
                </g>
                <g id="zoomMin">
                        <use xlink:href="#rim" fill="#404040">
                                <set attributeName="fill" to="#808080" begin="zoomminus.mouseover" end="zoomminus.mouseout"/>
                        </use>
                        <path d="M-4,0h8" fill="none" stroke="white" stroke-width="1.5" pointer-events="none"/>
                </g>
                <g id="dirArrow">
                        <path fill="none" stroke="white" stroke-width="1.5" d="M0,-3.0v7 M-2.5,-0.5L0,-3.0L2.5,-0.5"/>
                </g>
               <g id="resetDef">
                       <use xlink:href="#rim2" fill="#404040">
                               <set attributeName="fill" to="#808080" begin="reset.mouseover" end="reset.mouseout"/>
                       </use>
               </g>
        </defs>

<script type="text/javascript">
var viewWidth = 681;
var viewHeight = 436;
var sectionId = 'dynsection-0';
</script>
<script xlink:href="svgpan.js"/>
<svg id="graph" class="graph">
<g id="viewport">
<title>include/cinder/Matrix.h</title>
<polygon fill="white" stroke="white" points="-4,5 -4,-432 678,-432 678,5 -4,5"/>
<!-- Node1 -->
<g id="node1" class="node"><title>Node1</title>
<polygon fill="#bfbfbf" stroke="black" points="242.978,-407 242.978,-427 359.022,-427 359.022,-407 242.978,-407"/>
<text text-anchor="middle" x="301" y="-413" font-family="Helvetica,sans-Serif" font-size="10.00">include/cinder/Matrix.h</text>
</g>
<!-- Node2 -->
<g id="node2" class="node"><title>Node2</title>
<g id="a_node2"><a xlink:href="_cinder_8h.html" target="_top" xlink:title="cinder/Cinder.h">
<polygon fill="white" stroke="black" points="433.367,-59 433.367,-79 516.633,-79 516.633,-59 433.367,-59"/>
<text text-anchor="middle" x="475" y="-65" font-family="Helvetica,sans-Serif" font-size="10.00">cinder/Cinder.h</text>
</a>
</g>
</g>
<!-- Node1&#45;&gt;Node2 -->
<g id="edge1" class="edge"><title>Node1&#45;&gt;Node2</title>
<path fill="none" stroke="midnightblue" d="M358.22,-406.989C447.793,-391.247 611,-355.257 611,-302 611,-302 611,-302 611,-184 611,-132.199 552.334,-99.2663 512.064,-82.7625"/>
<polygon fill="midnightblue" stroke="midnightblue" points="513.109,-79.4126 502.522,-79.0139 510.55,-85.9279 513.109,-79.4126"/>
</g>
<!-- Node6 -->
<g id="node6" class="node"><title>Node6</title>
<g id="a_node6"><a xlink:href="_cinder_math_8h.html" target="_top" xlink:title="cinder/CinderMath.h">
<polygon fill="white" stroke="black" points="27.978,-117 27.978,-137 134.022,-137 134.022,-117 27.978,-117"/>
<text text-anchor="middle" x="81" y="-123" font-family="Helvetica,sans-Serif" font-size="10.00">cinder/CinderMath.h</text>
</a>
</g>
</g>
<!-- Node1&#45;&gt;Node6 -->
<g id="edge5" class="edge"><title>Node1&#45;&gt;Node6</title>
<path fill="none" stroke="midnightblue" d="M242.962,-415.92C163.884,-412.407 32,-392.919 32,-302 32,-302 32,-302 32,-242 32,-205.407 53.5732,-167.184 68.0908,-145.605"/>
<polygon fill="midnightblue" stroke="midnightblue" points="71.1206,-147.38 73.9795,-137.178 65.3826,-143.37 71.1206,-147.38"/>
</g>
<!-- Node11 -->
<g id="node11" class="node"><title>Node11</title>
<g id="a_node11"><a xlink:href="_matrix22_8h.html" target="_top" xlink:title="cinder/Matrix22.h">
<polygon fill="white" stroke="black" points="97.6504,-233 97.6504,-253 190.35,-253 190.35,-233 97.6504,-233"/>
<text text-anchor="middle" x="144" y="-239" font-family="Helvetica,sans-Serif" font-size="10.00">cinder/Matrix22.h</text>
</a>
</g>
</g>
<!-- Node1&#45;&gt;Node11 -->
<g id="edge11" class="edge"><title>Node1&#45;&gt;Node11</title>
<path fill="none" stroke="midnightblue" d="M242.971,-410.936C214.397,-405.35 181.896,-393.787 162,-370 136.694,-339.745 137.927,-290.423 140.992,-263.333"/>
<polygon fill="midnightblue" stroke="midnightblue" points="144.49,-263.58 142.346,-253.204 137.552,-262.652 144.49,-263.58"/>
</g>
<!-- Node18 -->
<g id="node18" class="node"><title>Node18</title>
<g id="a_node18"><a xlink:href="_matrix_affine2_8h.html" target="_top" xlink:title="cinder/MatrixAffine2.h">
<polygon fill="white" stroke="black" points="393.646,-233 393.646,-253 506.354,-253 506.354,-233 393.646,-233"/>
<text text-anchor="middle" x="450" y="-239" font-family="Helvetica,sans-Serif" font-size="10.00">cinder/MatrixAffine2.h</text>
</a>
</g>
</g>
<!-- Node1&#45;&gt;Node18 -->
<g id="edge22" class="edge"><title>Node1&#45;&gt;Node18</title>
<path fill="none" stroke="midnightblue" d="M313.512,-406.884C325.151,-398.103 342.655,-384.107 356,-370 389.593,-334.487 422.195,-286.986 438.747,-261.658"/>
<polygon fill="midnightblue" stroke="midnightblue" points="441.785,-263.406 444.274,-253.108 435.906,-259.606 441.785,-263.406"/>
</g>
<!-- Node19 -->
<g id="node19" class="node"><title>Node19</title>
<g id="a_node19"><a xlink:href="_matrix33_8h.html" target="_top" xlink:title="cinder/Matrix33.h">
<polygon fill="white" stroke="black" points="245.65,-233 245.65,-253 338.35,-253 338.35,-233 245.65,-233"/>
<text text-anchor="middle" x="292" y="-239" font-family="Helvetica,sans-Serif" font-size="10.00">cinder/Matrix33.h</text>
</a>
</g>
</g>
<!-- Node1&#45;&gt;Node19 -->
<g id="edge27" class="edge"><title>Node1&#45;&gt;Node19</title>
<path fill="none" stroke="midnightblue" d="M309.353,-406.926C327.643,-385.906 368.055,-332.427 348,-290 341.848,-276.985 330.009,-266.416 318.796,-258.705"/>
<polygon fill="midnightblue" stroke="midnightblue" points="320.373,-255.56 310.057,-253.142 316.614,-261.465 320.373,-255.56"/>
</g>
<!-- Node20 -->
<g id="node20" class="node"><title>Node20</title>
<g id="a_node20"><a xlink:href="_matrix44_8h.html" target="_top" xlink:title="cinder/Matrix44.h">
<polygon fill="white" stroke="black" points="246.65,-291 246.65,-311 339.35,-311 339.35,-291 246.65,-291"/>
<text text-anchor="middle" x="293" y="-297" font-family="Helvetica,sans-Serif" font-size="10.00">cinder/Matrix44.h</text>
</a>
</g>
</g>
<!-- Node1&#45;&gt;Node20 -->
<g id="edge32" class="edge"><title>Node1&#45;&gt;Node20</title>
<path fill="none" stroke="midnightblue" d="M300.345,-406.671C299.038,-388.041 296.081,-345.898 294.343,-321.143"/>
<polygon fill="midnightblue" stroke="midnightblue" points="297.833,-320.87 293.641,-311.139 290.85,-321.36 297.833,-320.87"/>
</g>
<!-- Node21 -->
<g id="node21" class="node"><title>Node21</title>
<g id="a_node21"><a xlink:href="_matrix_algo_8h.html" target="_top" xlink:title="cinder/MatrixAlgo.h">
<polygon fill="white" stroke="black" points="171.205,-349 171.205,-369 272.795,-369 272.795,-349 171.205,-349"/>
<text text-anchor="middle" x="222" y="-355" font-family="Helvetica,sans-Serif" font-size="10.00">cinder/MatrixAlgo.h</text>
</a>
</g>
</g>
<!-- Node1&#45;&gt;Node21 -->
<g id="edge40" class="edge"><title>Node1&#45;&gt;Node21</title>
<path fill="none" stroke="midnightblue" d="M287.955,-406.753C275.761,-398.109 257.341,-385.052 243.064,-374.931"/>
<polygon fill="midnightblue" stroke="midnightblue" points="244.985,-372.003 234.803,-369.075 240.937,-377.714 244.985,-372.003"/>
</g>
<!-- Node3 -->
<g id="node3" class="node"><title>Node3</title>
<polygon fill="white" stroke="#bfbfbf" points="364.549,-1 364.549,-21 409.451,-21 409.451,-1 364.549,-1"/>
<text text-anchor="middle" x="387" y="-7" font-family="Helvetica,sans-Serif" font-size="10.00">cstdint</text>
</g>
<!-- Node2&#45;&gt;Node3 -->
<g id="edge2" class="edge"><title>Node2&#45;&gt;Node3</title>
<path fill="none" stroke="midnightblue" d="M460.469,-58.7527C446.757,-50.0272 425.979,-36.8051 410.015,-26.6458"/>
<polygon fill="midnightblue" stroke="midnightblue" points="411.577,-23.4912 401.261,-21.0752 407.819,-29.3968 411.577,-23.4912"/>
</g>
<!-- Node4 -->
<g id="node4" class="node"><title>Node4</title>
<polygon fill="white" stroke="#bfbfbf" points="427.53,-1 427.53,-21 522.47,-21 522.47,-1 427.53,-1"/>
<text text-anchor="middle" x="475" y="-7" font-family="Helvetica,sans-Serif" font-size="10.00">boost/version.hpp</text>
</g>
<!-- Node2&#45;&gt;Node4 -->
<g id="edge3" class="edge"><title>Node2&#45;&gt;Node4</title>
<path fill="none" stroke="midnightblue" d="M475,-58.7527C475,-51.2504 475,-40.4238 475,-31.0781"/>
<polygon fill="midnightblue" stroke="midnightblue" points="478.5,-31.0752 475,-21.0752 471.5,-31.0752 478.5,-31.0752"/>
</g>
<!-- Node5 -->
<g id="node5" class="node"><title>Node5</title>
<polygon fill="white" stroke="#bfbfbf" points="540.621,-1 540.621,-21 673.379,-21 673.379,-1 540.621,-1"/>
<text text-anchor="middle" x="607" y="-7" font-family="Helvetica,sans-Serif" font-size="10.00">boost/checked_delete.hpp</text>
</g>
<!-- Node2&#45;&gt;Node5 -->
<g id="edge4" class="edge"><title>Node2&#45;&gt;Node5</title>
<path fill="none" stroke="midnightblue" d="M496.502,-58.878C518.172,-49.6848 551.821,-35.4095 576.295,-25.0263"/>
<polygon fill="midnightblue" stroke="midnightblue" points="577.668,-28.2457 585.507,-21.1181 574.935,-21.8016 577.668,-28.2457"/>
</g>
<!-- Node6&#45;&gt;Node2 -->
<g id="edge6" class="edge"><title>Node6&#45;&gt;Node2</title>
<path fill="none" stroke="midnightblue" d="M134.024,-118.044C138.75,-117.348 143.461,-116.658 148,-116 245.209,-101.908 358.772,-86.0745 423.255,-77.1424"/>
<polygon fill="midnightblue" stroke="midnightblue" points="423.747,-80.6077 433.173,-75.7694 422.787,-73.6738 423.747,-80.6077"/>
</g>
<!-- Node7 -->
<g id="node7" class="node"><title>Node7</title>
<polygon fill="white" stroke="#bfbfbf" points="313.384,-59 313.384,-79 356.616,-79 356.616,-59 313.384,-59"/>
<text text-anchor="middle" x="335" y="-65" font-family="Helvetica,sans-Serif" font-size="10.00">cmath</text>
</g>
<!-- Node6&#45;&gt;Node7 -->
<g id="edge7" class="edge"><title>Node6&#45;&gt;Node7</title>
<path fill="none" stroke="midnightblue" d="M122.092,-116.94C172.632,-105.798 257.344,-87.1211 303.197,-77.0116"/>
<polygon fill="midnightblue" stroke="midnightblue" points="304.159,-80.3838 313.171,-74.8128 302.652,-73.5479 304.159,-80.3838"/>
</g>
<!-- Node8 -->
<g id="node8" class="node"><title>Node8</title>
<polygon fill="white" stroke="#bfbfbf" points="-0.886719,-59 -0.886719,-79 42.8867,-79 42.8867,-59 -0.886719,-59"/>
<text text-anchor="middle" x="21" y="-65" font-family="Helvetica,sans-Serif" font-size="10.00">climits</text>
</g>
<!-- Node6&#45;&gt;Node8 -->
<g id="edge8" class="edge"><title>Node6&#45;&gt;Node8</title>
<path fill="none" stroke="midnightblue" d="M71.0922,-116.753C62.1803,-108.435 48.8903,-96.031 38.2385,-86.0893"/>
<polygon fill="midnightblue" stroke="midnightblue" points="40.4221,-83.3397 30.7234,-79.0752 35.6459,-88.4571 40.4221,-83.3397"/>
</g>
<!-- Node9 -->
<g id="node9" class="node"><title>Node9</title>
<polygon fill="white" stroke="#bfbfbf" points="61.0493,-59 61.0493,-79 100.951,-79 100.951,-59 61.0493,-59"/>
<text text-anchor="middle" x="81" y="-65" font-family="Helvetica,sans-Serif" font-size="10.00">cfloat</text>
</g>
<!-- Node6&#45;&gt;Node9 -->
<g id="edge9" class="edge"><title>Node6&#45;&gt;Node9</title>
<path fill="none" stroke="midnightblue" d="M81,-116.753C81,-109.25 81,-98.4238 81,-89.0781"/>
<polygon fill="midnightblue" stroke="midnightblue" points="84.5001,-89.0752 81,-79.0752 77.5001,-89.0752 84.5001,-89.0752"/>
</g>
<!-- Node10 -->
<g id="node10" class="node"><title>Node10</title>
<polygon fill="white" stroke="#bfbfbf" points="118.596,-59 118.596,-79 177.404,-79 177.404,-59 118.596,-59"/>
<text text-anchor="middle" x="148" y="-65" font-family="Helvetica,sans-Serif" font-size="10.00">functional</text>
</g>
<!-- Node6&#45;&gt;Node10 -->
<g id="edge10" class="edge"><title>Node6&#45;&gt;Node10</title>
<path fill="none" stroke="midnightblue" d="M92.0637,-116.753C102.21,-108.272 117.44,-95.543 129.447,-85.5073"/>
<polygon fill="midnightblue" stroke="midnightblue" points="131.714,-88.1738 137.142,-79.0752 127.225,-82.8028 131.714,-88.1738"/>
</g>
<!-- Node11&#45;&gt;Node2 -->
<g id="edge12" class="edge"><title>Node11&#45;&gt;Node2</title>
<path fill="none" stroke="midnightblue" d="M145.514,-232.814C150.078,-208.466 166.193,-142.343 210,-116 245.041,-94.9283 356.158,-81.1591 422.865,-74.5626"/>
<polygon fill="midnightblue" stroke="midnightblue" points="423.554,-78.0123 433.171,-73.5655 422.88,-71.0449 423.554,-78.0123"/>
</g>
<!-- Node11&#45;&gt;Node6 -->
<g id="edge13" class="edge"><title>Node11&#45;&gt;Node6</title>
<path fill="none" stroke="midnightblue" d="M138.844,-232.671C128.41,-213.789 104.627,-170.754 91.0296,-146.149"/>
<polygon fill="midnightblue" stroke="midnightblue" points="93.951,-144.199 86.0507,-137.139 87.8243,-147.585 93.951,-144.199"/>
</g>
<!-- Node12 -->
<g id="node12" class="node"><title>Node12</title>
<g id="a_node12"><a xlink:href="_vector_8h.html" target="_top" xlink:title="cinder/Vector.h">
<polygon fill="white" stroke="black" points="357.919,-175 357.919,-195 440.081,-195 440.081,-175 357.919,-175"/>
<text text-anchor="middle" x="399" y="-181" font-family="Helvetica,sans-Serif" font-size="10.00">cinder/Vector.h</text>
</a>
</g>
</g>
<!-- Node11&#45;&gt;Node12 -->
<g id="edge14" class="edge"><title>Node11&#45;&gt;Node12</title>
<path fill="none" stroke="midnightblue" d="M185.254,-232.94C229.602,-223.201 300.158,-207.706 347.967,-197.207"/>
<polygon fill="midnightblue" stroke="midnightblue" points="348.789,-200.61 357.806,-195.047 347.288,-193.773 348.789,-200.61"/>
</g>
<!-- Node17 -->
<g id="node17" class="node"><title>Node17</title>
<polygon fill="white" stroke="#bfbfbf" points="174.49,-175 174.49,-195 225.51,-195 225.51,-175 174.49,-175"/>
<text text-anchor="middle" x="200" y="-181" font-family="Helvetica,sans-Serif" font-size="10.00">iomanip</text>
</g>
<!-- Node11&#45;&gt;Node17 -->
<g id="edge21" class="edge"><title>Node11&#45;&gt;Node17</title>
<path fill="none" stroke="midnightblue" d="M153.247,-232.753C161.484,-224.516 173.726,-212.274 183.618,-202.382"/>
<polygon fill="midnightblue" stroke="midnightblue" points="186.329,-204.621 190.925,-195.075 181.379,-199.671 186.329,-204.621"/>
</g>
<!-- Node12&#45;&gt;Node7 -->
<g id="edge15" class="edge"><title>Node12&#45;&gt;Node7</title>
<path fill="none" stroke="midnightblue" d="M424.856,-174.966C454.369,-163.204 496.332,-141.154 478,-116 452.706,-81.2924 400.78,-72.2029 366.953,-70.1347"/>
<polygon fill="midnightblue" stroke="midnightblue" points="366.805,-66.625 356.662,-69.6863 366.5,-73.6184 366.805,-66.625"/>
</g>
<!-- Node13 -->
<g id="node13" class="node"><title>Node13</title>
<polygon fill="white" stroke="#bfbfbf" points="228.273,-117 228.273,-137 273.727,-137 273.727,-117 228.273,-117"/>
<text text-anchor="middle" x="251" y="-123" font-family="Helvetica,sans-Serif" font-size="10.00">cstring</text>
</g>
<!-- Node12&#45;&gt;Node13 -->
<g id="edge16" class="edge"><title>Node12&#45;&gt;Node13</title>
<path fill="none" stroke="midnightblue" d="M374.892,-174.878C350.089,-165.493 311.288,-150.812 283.723,-140.382"/>
<polygon fill="midnightblue" stroke="midnightblue" points="284.714,-137.015 274.122,-136.749 282.237,-143.562 284.714,-137.015"/>
</g>
<!-- Node14 -->
<g id="node14" class="node"><title>Node14</title>
<polygon fill="white" stroke="#bfbfbf" points="291.828,-117 291.828,-137 346.172,-137 346.172,-117 291.828,-117"/>
<text text-anchor="middle" x="319" y="-123" font-family="Helvetica,sans-Serif" font-size="10.00">iostream</text>
</g>
<!-- Node12&#45;&gt;Node14 -->
<g id="edge17" class="edge"><title>Node12&#45;&gt;Node14</title>
<path fill="none" stroke="midnightblue" d="M385.79,-174.753C373.441,-166.109 354.788,-153.052 340.331,-142.931"/>
<polygon fill="midnightblue" stroke="midnightblue" points="342.164,-139.943 331.965,-137.075 338.15,-145.677 342.164,-139.943"/>
</g>
<!-- Node15 -->
<g id="node15" class="node"><title>Node15</title>
<polygon fill="white" stroke="#bfbfbf" points="363.884,-117 363.884,-137 412.116,-137 412.116,-117 363.884,-117"/>
<text text-anchor="middle" x="388" y="-123" font-family="Helvetica,sans-Serif" font-size="10.00">cassert</text>
</g>
<!-- Node12&#45;&gt;Node15 -->
<g id="edge18" class="edge"><title>Node12&#45;&gt;Node15</title>
<path fill="none" stroke="midnightblue" d="M397.184,-174.753C395.71,-167.25 393.583,-156.424 391.747,-147.078"/>
<polygon fill="midnightblue" stroke="midnightblue" points="395.145,-146.213 389.783,-137.075 388.276,-147.562 395.145,-146.213"/>
</g>
<!-- Node16 -->
<g id="node16" class="node"><title>Node16</title>
<polygon fill="white" stroke="#bfbfbf" points="430.613,-117 430.613,-137 469.387,-137 469.387,-117 430.613,-117"/>
<text text-anchor="middle" x="450" y="-123" font-family="Helvetica,sans-Serif" font-size="10.00">limits</text>
</g>
<!-- Node12&#45;&gt;Node16 -->
<g id="edge19" class="edge"><title>Node12&#45;&gt;Node16</title>
<path fill="none" stroke="midnightblue" d="M407.422,-174.753C414.848,-166.598 425.852,-154.516 434.812,-144.677"/>
<polygon fill="midnightblue" stroke="midnightblue" points="437.589,-146.825 441.735,-137.075 432.414,-142.112 437.589,-146.825"/>
</g>
<!-- Node12&#45;&gt;Node6 -->
<g id="edge20" class="edge"><title>Node12&#45;&gt;Node6</title>
<path fill="none" stroke="midnightblue" d="M357.86,-176.489C353.186,-175.645 348.491,-174.801 344,-174 275.408,-161.766 196.694,-148.04 143.392,-138.792"/>
<polygon fill="midnightblue" stroke="midnightblue" points="143.864,-135.321 133.413,-137.061 142.668,-142.218 143.864,-135.321"/>
</g>
<!-- Node18&#45;&gt;Node2 -->
<g id="edge23" class="edge"><title>Node18&#45;&gt;Node2</title>
<path fill="none" stroke="midnightblue" d="M455.436,-232.96C465.634,-215.411 487.301,-175.181 495,-138 496.983,-128.425 496.991,-125.573 495,-116 493.008,-106.423 488.914,-96.3942 484.945,-88.1538"/>
<polygon fill="midnightblue" stroke="midnightblue" points="487.998,-86.437 480.317,-79.1399 481.771,-89.6344 487.998,-86.437"/>
</g>
<!-- Node18&#45;&gt;Node6 -->
<g id="edge24" class="edge"><title>Node18&#45;&gt;Node6</title>
<path fill="none" stroke="midnightblue" d="M426.832,-232.926C391.275,-219.179 320.961,-192.698 260,-174 216.539,-160.669 166.358,-148.005 130.206,-139.352"/>
<polygon fill="midnightblue" stroke="midnightblue" points="130.937,-135.928 120.399,-137.02 129.318,-142.738 130.937,-135.928"/>
</g>
<!-- Node18&#45;&gt;Node12 -->
<g id="edge25" class="edge"><title>Node18&#45;&gt;Node12</title>
<path fill="none" stroke="midnightblue" d="M441.578,-232.753C434.152,-224.598 423.148,-212.516 414.188,-202.677"/>
<polygon fill="midnightblue" stroke="midnightblue" points="416.586,-200.112 407.265,-195.075 411.411,-204.825 416.586,-200.112"/>
</g>
<!-- Node18&#45;&gt;Node17 -->
<g id="edge26" class="edge"><title>Node18&#45;&gt;Node17</title>
<path fill="none" stroke="midnightblue" d="M409.555,-232.94C361.376,-222.148 281.648,-204.289 235.674,-193.991"/>
<polygon fill="midnightblue" stroke="midnightblue" points="236.374,-190.561 225.851,-191.791 234.844,-197.392 236.374,-190.561"/>
</g>
<!-- Node19&#45;&gt;Node2 -->
<g id="edge28" class="edge"><title>Node19&#45;&gt;Node2</title>
<path fill="none" stroke="midnightblue" d="M289.103,-232.996C284.428,-219.339 274.277,-192.975 260,-174 241.02,-148.775 198.748,-140.216 219,-116 231.977,-100.483 352.21,-84.1513 423.193,-75.7478"/>
<polygon fill="midnightblue" stroke="midnightblue" points="423.765,-79.2049 433.29,-74.5665 422.951,-72.2524 423.765,-79.2049"/>
</g>
<!-- Node19&#45;&gt;Node6 -->
<g id="edge29" class="edge"><title>Node19&#45;&gt;Node6</title>
<path fill="none" stroke="midnightblue" d="M286.49,-232.592C277.411,-217.908 257.908,-189.606 234,-174 207.094,-156.436 173.21,-145.349 144.172,-138.473"/>
<polygon fill="midnightblue" stroke="midnightblue" points="144.647,-134.993 134.122,-136.213 143.111,-141.822 144.647,-134.993"/>
</g>
<!-- Node19&#45;&gt;Node12 -->
<g id="edge30" class="edge"><title>Node19&#45;&gt;Node12</title>
<path fill="none" stroke="midnightblue" d="M309.669,-232.753C326.808,-223.783 353.028,-210.06 372.635,-199.799"/>
<polygon fill="midnightblue" stroke="midnightblue" points="374.423,-202.813 381.66,-195.075 371.177,-196.611 374.423,-202.813"/>
</g>
<!-- Node19&#45;&gt;Node17 -->
<g id="edge31" class="edge"><title>Node19&#45;&gt;Node17</title>
<path fill="none" stroke="midnightblue" d="M276.808,-232.753C262.339,-223.946 240.345,-210.558 223.594,-200.362"/>
<polygon fill="midnightblue" stroke="midnightblue" points="225.271,-197.285 214.909,-195.075 221.631,-203.264 225.271,-197.285"/>
</g>
<!-- Node20&#45;&gt;Node2 -->
<g id="edge33" class="edge"><title>Node20&#45;&gt;Node2</title>
<path fill="none" stroke="midnightblue" d="M339.582,-297.08C398.047,-292.331 493.32,-280.633 515,-254 528.388,-237.554 573.569,-291.921 510,-116 506.102,-105.213 498.708,-94.8887 491.717,-86.7641"/>
<polygon fill="midnightblue" stroke="midnightblue" points="494.082,-84.165 484.74,-79.1666 488.926,-88.8996 494.082,-84.165"/>
</g>
<!-- Node20&#45;&gt;Node6 -->
<g id="edge34" class="edge"><title>Node20&#45;&gt;Node6</title>
<path fill="none" stroke="midnightblue" d="M246.182,-295.863C192.415,-290.06 109.027,-277.479 89,-254 63.4959,-224.099 69.7926,-174.276 75.8554,-147.103"/>
<polygon fill="midnightblue" stroke="midnightblue" points="79.2835,-147.819 78.2643,-137.273 72.4847,-146.153 79.2835,-147.819"/>
</g>
<!-- Node20&#45;&gt;Node12 -->
<g id="edge35" class="edge"><title>Node20&#45;&gt;Node12</title>
<path fill="none" stroke="midnightblue" d="M305.229,-290.807C316.618,-281.971 333.778,-267.938 347,-254 362.103,-238.079 377.083,-217.902 387.057,-203.675"/>
<polygon fill="midnightblue" stroke="midnightblue" points="390.044,-205.509 392.84,-195.29 384.282,-201.535 390.044,-205.509"/>
</g>
<!-- Node20&#45;&gt;Node11 -->
<g id="edge36" class="edge"><title>Node20&#45;&gt;Node11</title>
<path fill="none" stroke="midnightblue" d="M268.729,-290.878C244.052,-281.603 205.613,-267.156 177.928,-256.752"/>
<polygon fill="midnightblue" stroke="midnightblue" points="178.853,-253.36 168.261,-253.118 176.39,-259.913 178.853,-253.36"/>
</g>
<!-- Node20&#45;&gt;Node19 -->
<g id="edge37" class="edge"><title>Node20&#45;&gt;Node19</title>
<path fill="none" stroke="midnightblue" d="M292.835,-290.753C292.701,-283.25 292.508,-272.424 292.341,-263.078"/>
<polygon fill="midnightblue" stroke="midnightblue" points="295.84,-263.011 292.162,-253.075 288.841,-263.136 295.84,-263.011"/>
</g>
<!-- Node20&#45;&gt;Node18 -->
<g id="edge38" class="edge"><title>Node20&#45;&gt;Node18</title>
<path fill="none" stroke="midnightblue" d="M318.574,-290.878C344.882,-281.494 386.035,-266.815 415.276,-256.386"/>
<polygon fill="midnightblue" stroke="midnightblue" points="416.454,-259.682 424.697,-253.025 414.102,-253.088 416.454,-259.682"/>
</g>
<!-- Node20&#45;&gt;Node17 -->
<g id="edge39" class="edge"><title>Node20&#45;&gt;Node17</title>
<path fill="none" stroke="midnightblue" d="M278.815,-290.691C266.642,-282.194 249.184,-268.741 237,-254 224.46,-238.828 214.158,-218.761 207.638,-204.364"/>
<polygon fill="midnightblue" stroke="midnightblue" points="210.779,-202.809 203.581,-195.035 204.36,-205.601 210.779,-202.809"/>
</g>
<!-- Node21&#45;&gt;Node11 -->
<g id="edge41" class="edge"><title>Node21&#45;&gt;Node11</title>
<path fill="none" stroke="midnightblue" d="M215.617,-348.671C202.583,-329.621 172.728,-285.987 155.972,-261.497"/>
<polygon fill="midnightblue" stroke="midnightblue" points="158.789,-259.416 150.253,-253.139 153.012,-263.369 158.789,-259.416"/>
</g>
<!-- Node21&#45;&gt;Node19 -->
<g id="edge42" class="edge"><title>Node21&#45;&gt;Node19</title>
<path fill="none" stroke="midnightblue" d="M222.354,-348.962C223.263,-335.261 226.497,-308.839 238,-290 245.596,-277.559 257.711,-266.789 268.543,-258.805"/>
<polygon fill="midnightblue" stroke="midnightblue" points="270.641,-261.609 276.844,-253.019 266.638,-255.866 270.641,-261.609"/>
</g>
<!-- Node21&#45;&gt;Node20 -->
<g id="edge43" class="edge"><title>Node21&#45;&gt;Node20</title>
<path fill="none" stroke="midnightblue" d="M233.724,-348.753C244.477,-340.272 260.615,-327.543 273.339,-317.507"/>
<polygon fill="midnightblue" stroke="midnightblue" points="275.81,-320.016 281.494,-311.075 271.475,-314.52 275.81,-320.016"/>
</g>
</g>
</svg>
        <g id="navigator" transform="translate(0 0)" fill="#404254">
                <rect fill="#f2f5e9" fill-opacity="0.5" stroke="#606060" stroke-width=".5" x="0" y="0" width="60" height="60"/>
                <use id="zoomplus" xlink:href="#zoomPlus" x="17" y="9" onmousedown="handleZoom(evt,'in')"/>
                <use id="zoomminus" xlink:href="#zoomMin" x="42" y="9" onmousedown="handleZoom(evt,'out')"/>
                <use id="reset" xlink:href="#resetDef" x="30" y="36" onmousedown="handleReset()"/>
                <g id="arrowUp" xlink:href="#dirArrow" transform="translate(30 24)" onmousedown="handlePan(0,-1)">
                  <use xlink:href="#rim" fill="#404040">
                        <set attributeName="fill" to="#808080" begin="arrowUp.mouseover" end="arrowUp.mouseout"/>
                  </use>
                  <path fill="none" stroke="white" stroke-width="1.5" d="M0,-3.0v7 M-2.5,-0.5L0,-3.0L2.5,-0.5"/>
                </g>
                <g id="arrowRight" xlink:href="#dirArrow" transform="rotate(90) translate(36 -43)" onmousedown="handlePan(1,0)">
                  <use xlink:href="#rim" fill="#404040">
                        <set attributeName="fill" to="#808080" begin="arrowRight.mouseover" end="arrowRight.mouseout"/>
                  </use>
                  <path fill="none" stroke="white" stroke-width="1.5" d="M0,-3.0v7 M-2.5,-0.5L0,-3.0L2.5,-0.5"/>
                </g>
                <g id="arrowDown" xlink:href="#dirArrow" transform="rotate(180) translate(-30 -48)" onmousedown="handlePan(0,1)">
                  <use xlink:href="#rim" fill="#404040">
                        <set attributeName="fill" to="#808080" begin="arrowDown.mouseover" end="arrowDown.mouseout"/>
                  </use>
                  <path fill="none" stroke="white" stroke-width="1.5" d="M0,-3.0v7 M-2.5,-0.5L0,-3.0L2.5,-0.5"/>
                </g>
                <g id="arrowLeft" xlink:href="#dirArrow" transform="rotate(270) translate(-36 17)" onmousedown="handlePan(-1,0)">
                  <use xlink:href="#rim" fill="#404040">
                        <set attributeName="fill" to="#808080" begin="arrowLeft.mouseover" end="arrowLeft.mouseout"/>
                  </use>
                  <path fill="none" stroke="white" stroke-width="1.5" d="M0,-3.0v7 M-2.5,-0.5L0,-3.0L2.5,-0.5"/>
                </g>
        </g>
        <svg viewBox="0 0 15 15" width="100%" height="30px" preserveAspectRatio="xMaxYMin meet">
         <g id="arrow_out" transform="scale(0.3 0.3)">
          <a xlink:href="_matrix_8h__incl_org.svg" target="_base">
           <rect id="button" ry="5" rx="5" y="6" x="6" height="38" width="38"
                fill="#f2f5e9" fill-opacity="0.5" stroke="#606060" stroke-width="1.0"/>
           <path id="arrow"
             d="M 11.500037,31.436501 C 11.940474,20.09759 22.043105,11.32322 32.158766,21.979434 L 37.068811,17.246167 C 37.068811,17.246167 37.088388,32 37.088388,32 L 22.160133,31.978069 C 22.160133,31.978069 26.997745,27.140456 26.997745,27.140456 C 18.528582,18.264221 13.291696,25.230495 11.500037,31.436501 z"
             style="fill:#404040;"/>
          </a>
         </g>
        </svg>
</svg>
