<?xml version="1.0" encoding="UTF-8" standalone="no"?>
<!DOCTYPE svg PUBLIC "-//W3C//DTD SVG 1.1//EN"
 "http://www.w3.org/Graphics/SVG/1.1/DTD/svg11.dtd">
<!-- Generated by graphviz version 2.30.1 (20140712.1814)
 -->
<!-- Title: include/cinder/gl/Material.h Pages: 1 -->
<svg width="283pt" height="158pt"
 viewBox="0.00 0.00 283.00 158.00" xmlns="http://www.w3.org/2000/svg" xmlns:xlink="http://www.w3.org/1999/xlink">
<g id="graph0" class="graph" transform="scale(1 1) rotate(0) translate(4 154)">
<title>include/cinder/gl/Material.h</title>
<polygon fill="white" stroke="white" points="-4,5 -4,-154 280,-154 280,5 -4,5"/>
<!-- Node1 -->
<g id="node1" class="node"><title>Node1</title>
<polygon fill="#bfbfbf" stroke="black" points="72.5249,-129 72.5249,-149 207.475,-149 207.475,-129 72.5249,-129"/>
<text text-anchor="middle" x="140" y="-135" font-family="Helvetica,sans-Serif" font-size="10.00">include/cinder/gl/Material.h</text>
</g>
<!-- Node2 -->
<g id="node2" class="node"><title>Node2</title>
<g id="a_node2"><a xlink:href="_display_list_8h.html" target="_top" xlink:title="include/cinder/gl/Display\lList.h">
<polygon fill="white" stroke="black" points="7.08398,-59 7.08398,-91 130.916,-91 130.916,-59 7.08398,-59"/>
<text text-anchor="start" x="15.084" y="-77" font-family="Helvetica,sans-Serif" font-size="10.00">include/cinder/gl/Display</text>
<text text-anchor="middle" x="69" y="-65" font-family="Helvetica,sans-Serif" font-size="10.00">List.h</text>
</a>
</g>
</g>
<!-- Node1&#45;&gt;Node2 -->
<g id="edge1" class="edge"><title>Node1&#45;&gt;Node2</title>
<path fill="none" stroke="midnightblue" d="M121.853,-122.153C110.956,-112.638 97.1669,-100.596 86.4055,-91.1992"/>
<polygon fill="midnightblue" stroke="midnightblue" points="119.689,-124.91 129.524,-128.852 124.293,-119.638 119.689,-124.91"/>
</g>
<!-- Node4 -->
<g id="node4" class="node"><title>Node4</title>
<g id="a_node4"><a xlink:href="_material_8cpp.html" target="_top" xlink:title="src/cinder/gl/Material.cpp">
<polygon fill="white" stroke="black" points="148.424,-65 148.424,-85 275.576,-85 275.576,-65 148.424,-65"/>
<text text-anchor="middle" x="212" y="-71" font-family="Helvetica,sans-Serif" font-size="10.00">src/cinder/gl/Material.cpp</text>
</a>
</g>
</g>
<!-- Node1&#45;&gt;Node4 -->
<g id="edge3" class="edge"><title>Node1&#45;&gt;Node4</title>
<path fill="none" stroke="midnightblue" d="M158.416,-122.142C172.011,-110.435 190.042,-94.9082 201.333,-85.1858"/>
<polygon fill="midnightblue" stroke="midnightblue" points="155.918,-119.674 150.624,-128.852 160.485,-124.979 155.918,-119.674"/>
</g>
<!-- Node3 -->
<g id="node3" class="node"><title>Node3</title>
<g id="a_node3"><a xlink:href="_display_list_8cpp.html" target="_top" xlink:title="src/cinder/gl/DisplayList.cpp">
<polygon fill="white" stroke="black" points="-0.967773,-1 -0.967773,-21 138.968,-21 138.968,-1 -0.967773,-1"/>
<text text-anchor="middle" x="69" y="-7" font-family="Helvetica,sans-Serif" font-size="10.00">src/cinder/gl/DisplayList.cpp</text>
</a>
</g>
</g>
<!-- Node2&#45;&gt;Node3 -->
<g id="edge2" class="edge"><title>Node2&#45;&gt;Node3</title>
<path fill="none" stroke="midnightblue" d="M69,-48.922C69,-39.1719 69,-28.6099 69,-21.2904"/>
<polygon fill="midnightblue" stroke="midnightblue" points="65.5001,-48.9915 69,-58.9915 72.5001,-48.9916 65.5001,-48.9915"/>
</g>
</g>
</svg>
