<?xml version="1.0" encoding="UTF-8" standalone="no"?>
<!DOCTYPE svg PUBLIC "-//W3C//DTD SVG 1.1//EN"
 "http://www.w3.org/Graphics/SVG/1.1/DTD/svg11.dtd">
<!-- Generated by graphviz version 2.30.1 (20140712.1814)
 -->
<!-- Title: include/cinder/audio/MonitorNode.h Pages: 1 -->
<svg width="130pt" height="112pt"
 viewBox="0.00 0.00 130.00 112.00" xmlns="http://www.w3.org/2000/svg" xmlns:xlink="http://www.w3.org/1999/xlink">
<g id="graph0" class="graph" transform="scale(1 1) rotate(0) translate(4 108)">
<title>include/cinder/audio/MonitorNode.h</title>
<polygon fill="white" stroke="white" points="-4,5 -4,-108 127,-108 127,5 -4,5"/>
<!-- Node1 -->
<g id="node1" class="node"><title>Node1</title>
<polygon fill="#bfbfbf" stroke="black" points="8.5249,-71 8.5249,-103 113.475,-103 113.475,-71 8.5249,-71"/>
<text text-anchor="start" x="16.5249" y="-89" font-family="Helvetica,sans-Serif" font-size="10.00">include/cinder/audio</text>
<text text-anchor="middle" x="61" y="-77" font-family="Helvetica,sans-Serif" font-size="10.00">/MonitorNode.h</text>
</g>
<!-- Node2 -->
<g id="node2" class="node"><title>Node2</title>
<g id="a_node2"><a xlink:href="_monitor_node_8cpp.html" target="_top" xlink:title="src/cinder/audio/Monitor\lNode.cpp">
<polygon fill="white" stroke="black" points="-0.356934,-1 -0.356934,-33 122.357,-33 122.357,-1 -0.356934,-1"/>
<text text-anchor="start" x="7.64307" y="-19" font-family="Helvetica,sans-Serif" font-size="10.00">src/cinder/audio/Monitor</text>
<text text-anchor="middle" x="61" y="-7" font-family="Helvetica,sans-Serif" font-size="10.00">Node.cpp</text>
</a>
</g>
</g>
<!-- Node1&#45;&gt;Node2 -->
<g id="edge1" class="edge"><title>Node1&#45;&gt;Node2</title>
<path fill="none" stroke="midnightblue" d="M61,-60.6174C61,-51.3378 61,-41.1413 61,-33.0492"/>
<polygon fill="midnightblue" stroke="midnightblue" points="57.5001,-60.9086 61,-70.9086 64.5001,-60.9086 57.5001,-60.9086"/>
</g>
</g>
</svg>
