<?xml version="1.0" encoding="UTF-8" standalone="no"?>
<!DOCTYPE svg PUBLIC "-//W3C//DTD SVG 1.1//EN"
 "http://www.w3.org/Graphics/SVG/1.1/DTD/svg11.dtd">
<!-- Generated by graphviz version 2.30.1 (20140712.1814)
 -->
<!-- Title: include/cinder/audio/MonitorNode.h Pages: 1 -->
<!--zoomable 460 -->
<svg id="main" version="1.1" xmlns="http://www.w3.org/2000/svg" xmlns:xlink="http://www.w3.org/1999/xlink" xml:space="preserve" onload="init(evt)">
<style type="text/css"><![CDATA[
.edge:hover path { stroke: red; }
.edge:hover polygon { stroke: red; fill: red; }
]]></style>
<script type="text/javascript"><![CDATA[
var edges = document.getElementsByTagName('g');
if (edges && edges.length) {
  for (var i=0;i<edges.length;i++) {
    if (edges[i].id.substr(0,4)=='edge') {
      edges[i].setAttribute('class','edge');
    }
  }
}
]]></script>
        <defs>
                <circle id="rim" cx="0" cy="0" r="7"/>
                <circle id="rim2" cx="0" cy="0" r="3.5"/>
                <g id="zoomPlus">
                        <use xlink:href="#rim" fill="#404040">
                                <set attributeName="fill" to="#808080" begin="zoomplus.mouseover" end="zoomplus.mouseout"/>
                        </use>
                        <path d="M-4,0h8M0,-4v8" fill="none" stroke="white" stroke-width="1.5" pointer-events="none"/>
                </g>
                <g id="zoomMin">
                        <use xlink:href="#rim" fill="#404040">
                                <set attributeName="fill" to="#808080" begin="zoomminus.mouseover" end="zoomminus.mouseout"/>
                        </use>
                        <path d="M-4,0h8" fill="none" stroke="white" stroke-width="1.5" pointer-events="none"/>
                </g>
                <g id="dirArrow">
                        <path fill="none" stroke="white" stroke-width="1.5" d="M0,-3.0v7 M-2.5,-0.5L0,-3.0L2.5,-0.5"/>
                </g>
               <g id="resetDef">
                       <use xlink:href="#rim2" fill="#404040">
                               <set attributeName="fill" to="#808080" begin="reset.mouseover" end="reset.mouseout"/>
                       </use>
               </g>
        </defs>

<script type="text/javascript">
var viewWidth = 1640;
var viewHeight = 460;
var sectionId = 'dynsection-0';
</script>
<script xlink:href="svgpan.js"/>
<svg id="graph" class="graph">
<g id="viewport">
<title>include/cinder/audio/MonitorNode.h</title>
<polygon fill="white" stroke="white" points="-4,5 -4,-456 1637.46,-456 1637.46,5 -4,5"/>
<!-- Node1 -->
<g id="node1" class="node"><title>Node1</title>
<polygon fill="#bfbfbf" stroke="black" points="839.157,-419 839.157,-451 944.107,-451 944.107,-419 839.157,-419"/>
<text text-anchor="start" x="847.157" y="-437" font-family="Helvetica,sans-Serif" font-size="10.00">include/cinder/audio</text>
<text text-anchor="middle" x="891.632" y="-425" font-family="Helvetica,sans-Serif" font-size="10.00">/MonitorNode.h</text>
</g>
<!-- Node2 -->
<g id="node2" class="node"><title>Node2</title>
<g id="a_node2"><a xlink:href="_context_8h.html" target="_top" xlink:title="cinder/audio/Context.h">
<polygon fill="white" stroke="black" points="517.6,-361 517.6,-381 633.664,-381 633.664,-361 517.6,-361"/>
<text text-anchor="middle" x="575.632" y="-367" font-family="Helvetica,sans-Serif" font-size="10.00">cinder/audio/Context.h</text>
</a>
</g>
</g>
<!-- Node1&#45;&gt;Node2 -->
<g id="edge1" class="edge"><title>Node1&#45;&gt;Node2</title>
<path fill="none" stroke="midnightblue" d="M839.097,-423.692C781.694,-412.43 690.113,-394.461 631.447,-382.951"/>
<polygon fill="midnightblue" stroke="midnightblue" points="632.096,-379.512 621.609,-381.021 630.748,-386.381 632.096,-379.512"/>
</g>
<!-- Node33 -->
<g id="node33" class="node"><title>Node33</title>
<g id="a_node33"><a xlink:href="_dsp_8h.html" target="_top" xlink:title="cinder/audio/dsp/Dsp.h">
<polygon fill="white" stroke="black" points="929.49,-233 929.49,-253 1047.77,-253 1047.77,-233 929.49,-233"/>
<text text-anchor="middle" x="988.632" y="-239" font-family="Helvetica,sans-Serif" font-size="10.00">cinder/audio/dsp/Dsp.h</text>
</a>
</g>
</g>
<!-- Node1&#45;&gt;Node33 -->
<g id="edge49" class="edge"><title>Node1&#45;&gt;Node33</title>
<path fill="none" stroke="midnightblue" d="M887.442,-418.639C880.737,-390.573 870.812,-330.201 896.632,-290 906.716,-274.3 923.896,-263.753 940.699,-256.767"/>
<polygon fill="midnightblue" stroke="midnightblue" points="942.382,-259.872 950.492,-253.054 939.9,-253.327 942.382,-259.872"/>
</g>
<!-- Node35 -->
<g id="node35" class="node"><title>Node35</title>
<g id="a_node35"><a xlink:href="_ring_buffer_8h.html" target="_top" xlink:title="cinder/audio/dsp/RingBuffer.h">
<polygon fill="white" stroke="black" points="1066.12,-233 1066.12,-253 1213.14,-253 1213.14,-233 1066.12,-233"/>
<text text-anchor="middle" x="1139.63" y="-239" font-family="Helvetica,sans-Serif" font-size="10.00">cinder/audio/dsp/RingBuffer.h</text>
</a>
</g>
</g>
<!-- Node1&#45;&gt;Node35 -->
<g id="edge55" class="edge"><title>Node1&#45;&gt;Node35</title>
<path fill="none" stroke="midnightblue" d="M893.612,-418.911C898.273,-385.718 910.966,-307.891 929.632,-290 940.197,-279.874 1016.63,-264.89 1074.27,-254.802"/>
<polygon fill="midnightblue" stroke="midnightblue" points="1075.17,-258.197 1084.43,-253.039 1073.97,-251.3 1075.17,-258.197"/>
</g>
<!-- Node36 -->
<g id="node36" class="node"><title>Node36</title>
<g id="a_node36"><a xlink:href="_thread_8h.html" target="_top" xlink:title="cinder/Thread.h">
<polygon fill="white" stroke="black" points="1225.61,-361 1225.61,-381 1311.65,-381 1311.65,-361 1225.61,-361"/>
<text text-anchor="middle" x="1268.63" y="-367" font-family="Helvetica,sans-Serif" font-size="10.00">cinder/Thread.h</text>
</a>
</g>
</g>
<!-- Node1&#45;&gt;Node36 -->
<g id="edge58" class="edge"><title>Node1&#45;&gt;Node36</title>
<path fill="none" stroke="midnightblue" d="M944.449,-425.314C1016.11,-413.529 1143.42,-392.592 1215.33,-380.766"/>
<polygon fill="midnightblue" stroke="midnightblue" points="1216.22,-384.166 1225.52,-379.09 1215.09,-377.259 1216.22,-384.166"/>
</g>
<!-- Node3 -->
<g id="node3" class="node"><title>Node3</title>
<g id="a_node3"><a xlink:href="_node_8h.html" target="_top" xlink:title="cinder/audio/Node.h">
<polygon fill="white" stroke="black" points="531.879,-233 531.879,-253 637.386,-253 637.386,-233 531.879,-233"/>
<text text-anchor="middle" x="584.632" y="-239" font-family="Helvetica,sans-Serif" font-size="10.00">cinder/audio/Node.h</text>
</a>
</g>
</g>
<!-- Node2&#45;&gt;Node3 -->
<g id="edge2" class="edge"><title>Node2&#45;&gt;Node3</title>
<path fill="none" stroke="midnightblue" d="M543.005,-360.95C524.737,-354.027 503.503,-342.453 492.632,-324 484.962,-310.98 484.688,-302.854 492.632,-290 502.364,-274.254 519.298,-263.718 536.006,-256.754"/>
<polygon fill="midnightblue" stroke="midnightblue" points="537.653,-259.873 545.762,-253.054 535.171,-253.328 537.653,-259.873"/>
</g>
<!-- Node23 -->
<g id="node23" class="node"><title>Node23</title>
<g id="a_node23"><a xlink:href="_input_node_8h.html" target="_top" xlink:title="cinder/audio/InputNode.h">
<polygon fill="white" stroke="black" points="562.758,-297 562.758,-317 690.506,-317 690.506,-297 562.758,-297"/>
<text text-anchor="middle" x="626.632" y="-303" font-family="Helvetica,sans-Serif" font-size="10.00">cinder/audio/InputNode.h</text>
</a>
</g>
</g>
<!-- Node2&#45;&gt;Node23 -->
<g id="edge25" class="edge"><title>Node2&#45;&gt;Node23</title>
<path fill="none" stroke="midnightblue" d="M583.157,-360.852C590.841,-351.511 602.955,-336.784 612.446,-325.246"/>
<polygon fill="midnightblue" stroke="midnightblue" points="615.426,-327.132 619.076,-317.186 610.02,-322.685 615.426,-327.132"/>
</g>
<!-- Node31 -->
<g id="node31" class="node"><title>Node31</title>
<g id="a_node31"><a xlink:href="_output_node_8h.html" target="_top" xlink:title="cinder/audio/OutputNode.h">
<polygon fill="white" stroke="black" points="309.869,-297 309.869,-317 445.395,-317 445.395,-297 309.869,-297"/>
<text text-anchor="middle" x="377.632" y="-303" font-family="Helvetica,sans-Serif" font-size="10.00">cinder/audio/OutputNode.h</text>
</a>
</g>
</g>
<!-- Node2&#45;&gt;Node31 -->
<g id="edge44" class="edge"><title>Node2&#45;&gt;Node31</title>
<path fill="none" stroke="midnightblue" d="M546.841,-360.985C512.381,-350.194 454.539,-332.082 416.23,-320.086"/>
<polygon fill="midnightblue" stroke="midnightblue" points="417.047,-316.674 406.458,-317.026 414.955,-323.355 417.047,-316.674"/>
</g>
<!-- Node32 -->
<g id="node32" class="node"><title>Node32</title>
<polygon fill="white" stroke="#bfbfbf" points="502.017,-297 502.017,-317 545.248,-317 545.248,-297 502.017,-297"/>
<text text-anchor="middle" x="523.632" y="-303" font-family="Helvetica,sans-Serif" font-size="10.00">mutex</text>
</g>
<!-- Node2&#45;&gt;Node32 -->
<g id="edge47" class="edge"><title>Node2&#45;&gt;Node32</title>
<path fill="none" stroke="midnightblue" d="M567.959,-360.852C560.048,-351.419 547.531,-336.495 537.812,-324.907"/>
<polygon fill="midnightblue" stroke="midnightblue" points="540.444,-322.599 531.336,-317.186 535.081,-327.097 540.444,-322.599"/>
</g>
<!-- Node22 -->
<g id="node22" class="node"><title>Node22</title>
<polygon fill="white" stroke="#bfbfbf" points="656.962,-175 656.962,-195 686.302,-195 686.302,-175 656.962,-175"/>
<text text-anchor="middle" x="671.632" y="-181" font-family="Helvetica,sans-Serif" font-size="10.00">set</text>
</g>
<!-- Node2&#45;&gt;Node22 -->
<g id="edge48" class="edge"><title>Node2&#45;&gt;Node22</title>
<path fill="none" stroke="midnightblue" d="M633.828,-362.872C658.035,-356.713 683.884,-345.262 698.632,-324 724.272,-287.036 699.01,-231.784 682.842,-203.724"/>
<polygon fill="midnightblue" stroke="midnightblue" points="685.753,-201.774 677.6,-195.008 679.754,-205.381 685.753,-201.774"/>
</g>
<!-- Node4 -->
<g id="node4" class="node"><title>Node4</title>
<g id="a_node4"><a xlink:href="audio_2_buffer_8h.html" target="_top" xlink:title="cinder/audio/Buffer.h">
<polygon fill="white" stroke="black" points="742.853,-175 742.853,-195 850.411,-195 850.411,-175 742.853,-175"/>
<text text-anchor="middle" x="796.632" y="-181" font-family="Helvetica,sans-Serif" font-size="10.00">cinder/audio/Buffer.h</text>
</a>
</g>
</g>
<!-- Node3&#45;&gt;Node4 -->
<g id="edge3" class="edge"><title>Node3&#45;&gt;Node4</title>
<path fill="none" stroke="midnightblue" d="M619.166,-232.878C655.539,-223.27 712.928,-208.11 752.548,-197.645"/>
<polygon fill="midnightblue" stroke="midnightblue" points="753.691,-200.963 762.465,-195.025 751.903,-194.195 753.691,-200.963"/>
</g>
<!-- Node12 -->
<g id="node12" class="node"><title>Node12</title>
<g id="a_node12"><a xlink:href="audio_2_exception_8h.html" target="_top" xlink:title="cinder/audio/Exception.h">
<polygon fill="white" stroke="black" points="156.874,-175 156.874,-195 282.391,-195 282.391,-175 156.874,-175"/>
<text text-anchor="middle" x="219.632" y="-181" font-family="Helvetica,sans-Serif" font-size="10.00">cinder/audio/Exception.h</text>
</a>
</g>
</g>
<!-- Node3&#45;&gt;Node12 -->
<g id="edge11" class="edge"><title>Node3&#45;&gt;Node12</title>
<path fill="none" stroke="midnightblue" d="M531.558,-233.857C467.391,-224.012 359.243,-207.42 288.652,-196.589"/>
<polygon fill="midnightblue" stroke="midnightblue" points="288.934,-193.092 278.519,-195.035 287.872,-200.011 288.934,-193.092"/>
</g>
<!-- Node19 -->
<g id="node19" class="node"><title>Node19</title>
<polygon fill="white" stroke="#bfbfbf" points="19.9233,-175 19.9233,-195 139.341,-195 139.341,-175 19.9233,-175"/>
<text text-anchor="middle" x="79.6322" y="-181" font-family="Helvetica,sans-Serif" font-size="10.00">boost/noncopyable.hpp</text>
</g>
<!-- Node3&#45;&gt;Node19 -->
<g id="edge20" class="edge"><title>Node3&#45;&gt;Node19</title>
<path fill="none" stroke="midnightblue" d="M531.746,-237.141C451.414,-229.605 293.573,-214.188 149.995,-196.263"/>
<polygon fill="midnightblue" stroke="midnightblue" points="150.042,-192.741 139.684,-194.968 149.17,-199.687 150.042,-192.741"/>
</g>
<!-- Node20 -->
<g id="node20" class="node"><title>Node20</title>
<polygon fill="white" stroke="#bfbfbf" points="486.99,-175 486.99,-195 600.275,-195 600.275,-175 486.99,-175"/>
<text text-anchor="middle" x="543.632" y="-181" font-family="Helvetica,sans-Serif" font-size="10.00">boost/logic/tribool.hpp</text>
</g>
<!-- Node3&#45;&gt;Node20 -->
<g id="edge21" class="edge"><title>Node3&#45;&gt;Node20</title>
<path fill="none" stroke="midnightblue" d="M577.862,-232.753C572.011,-224.761 563.398,-212.998 556.276,-203.27"/>
<polygon fill="midnightblue" stroke="midnightblue" points="559.008,-201.076 550.277,-195.075 553.36,-205.211 559.008,-201.076"/>
</g>
<!-- Node9 -->
<g id="node9" class="node"><title>Node9</title>
<polygon fill="white" stroke="#bfbfbf" points="740.576,-117 740.576,-137 792.689,-137 792.689,-117 740.576,-117"/>
<text text-anchor="middle" x="766.632" y="-123" font-family="Helvetica,sans-Serif" font-size="10.00">memory</text>
</g>
<!-- Node3&#45;&gt;Node9 -->
<g id="edge22" class="edge"><title>Node3&#45;&gt;Node9</title>
<path fill="none" stroke="midnightblue" d="M590.965,-232.835C601.303,-218.482 623.129,-190.627 647.632,-174 661.588,-164.53 701.05,-150.049 730.734,-139.87"/>
<polygon fill="midnightblue" stroke="midnightblue" points="732.031,-143.126 740.375,-136.596 729.781,-136.497 732.031,-143.126"/>
</g>
<!-- Node21 -->
<g id="node21" class="node"><title>Node21</title>
<polygon fill="white" stroke="#bfbfbf" points="914.906,-175 914.906,-195 960.359,-195 960.359,-175 914.906,-175"/>
<text text-anchor="middle" x="937.632" y="-181" font-family="Helvetica,sans-Serif" font-size="10.00">atomic</text>
</g>
<!-- Node3&#45;&gt;Node21 -->
<g id="edge23" class="edge"><title>Node3&#45;&gt;Node21</title>
<path fill="none" stroke="midnightblue" d="M637.65,-237.039C699.624,-230.655 805.335,-217.952 904.77,-195.892"/>
<polygon fill="midnightblue" stroke="midnightblue" points="905.695,-199.271 914.68,-193.657 904.155,-192.443 905.695,-199.271"/>
</g>
<!-- Node3&#45;&gt;Node22 -->
<g id="edge24" class="edge"><title>Node3&#45;&gt;Node22</title>
<path fill="none" stroke="midnightblue" d="M598.999,-232.753C612.554,-224.027 633.096,-210.805 648.879,-200.646"/>
<polygon fill="midnightblue" stroke="midnightblue" points="651.019,-203.431 657.533,-195.075 647.23,-197.545 651.019,-203.431"/>
</g>
<!-- Node5 -->
<g id="node5" class="node"><title>Node5</title>
<g id="a_node5"><a xlink:href="_cinder_assert_8h.html" target="_top" xlink:title="cinder/CinderAssert.h">
<polygon fill="white" stroke="black" points="1070.56,-117 1070.56,-137 1182.71,-137 1182.71,-117 1070.56,-117"/>
<text text-anchor="middle" x="1126.63" y="-123" font-family="Helvetica,sans-Serif" font-size="10.00">cinder/CinderAssert.h</text>
</a>
</g>
</g>
<!-- Node4&#45;&gt;Node5 -->
<g id="edge4" class="edge"><title>Node4&#45;&gt;Node5</title>
<path fill="none" stroke="midnightblue" d="M850.019,-174.94C908.338,-165.044 1001.68,-149.205 1063.56,-138.703"/>
<polygon fill="midnightblue" stroke="midnightblue" points="1064.32,-142.124 1073.6,-137 1063.15,-135.223 1064.32,-142.124"/>
</g>
<!-- Node8 -->
<g id="node8" class="node"><title>Node8</title>
<polygon fill="white" stroke="#bfbfbf" points="501.017,-59 501.017,-79 544.248,-79 544.248,-59 501.017,-59"/>
<text text-anchor="middle" x="522.632" y="-65" font-family="Helvetica,sans-Serif" font-size="10.00">vector</text>
</g>
<!-- Node4&#45;&gt;Node8 -->
<g id="edge7" class="edge"><title>Node4&#45;&gt;Node8</title>
<path fill="none" stroke="midnightblue" d="M800.941,-174.83C806.977,-160.47 815.725,-132.607 801.632,-116 770.264,-79.0369 621.232,-71.7281 554.762,-70.3179"/>
<polygon fill="midnightblue" stroke="midnightblue" points="554.525,-66.8132 544.464,-70.1331 554.399,-73.8121 554.525,-66.8132"/>
</g>
<!-- Node4&#45;&gt;Node9 -->
<g id="edge8" class="edge"><title>Node4&#45;&gt;Node9</title>
<path fill="none" stroke="midnightblue" d="M791.678,-174.753C787.528,-167.006 781.479,-155.714 776.365,-146.169"/>
<polygon fill="midnightblue" stroke="midnightblue" points="779.301,-144.237 771.494,-137.075 773.131,-147.543 779.301,-144.237"/>
</g>
<!-- Node10 -->
<g id="node10" class="node"><title>Node10</title>
<polygon fill="white" stroke="#bfbfbf" points="848.46,-117 848.46,-137 892.805,-137 892.805,-117 848.46,-117"/>
<text text-anchor="middle" x="870.632" y="-123" font-family="Helvetica,sans-Serif" font-size="10.00">cstdlib</text>
</g>
<!-- Node4&#45;&gt;Node10 -->
<g id="edge9" class="edge"><title>Node4&#45;&gt;Node10</title>
<path fill="none" stroke="midnightblue" d="M808.852,-174.753C820.166,-166.19 837.203,-153.298 850.522,-143.219"/>
<polygon fill="midnightblue" stroke="midnightblue" points="852.778,-145.901 858.64,-137.075 848.554,-140.319 852.778,-145.901"/>
</g>
<!-- Node11 -->
<g id="node11" class="node"><title>Node11</title>
<polygon fill="white" stroke="#bfbfbf" points="665.068,-117 665.068,-137 722.196,-137 722.196,-117 665.068,-117"/>
<text text-anchor="middle" x="693.632" y="-123" font-family="Helvetica,sans-Serif" font-size="10.00">algorithm</text>
</g>
<!-- Node4&#45;&gt;Node11 -->
<g id="edge10" class="edge"><title>Node4&#45;&gt;Node11</title>
<path fill="none" stroke="midnightblue" d="M779.624,-174.753C763.2,-165.823 738.115,-152.185 719.27,-141.939"/>
<polygon fill="midnightblue" stroke="midnightblue" points="720.781,-138.777 710.324,-137.075 717.438,-144.927 720.781,-138.777"/>
</g>
<!-- Node6 -->
<g id="node6" class="node"><title>Node6</title>
<g id="a_node6"><a xlink:href="_current_function_8h.html" target="_top" xlink:title="cinder/CurrentFunction.h">
<polygon fill="white" stroke="black" points="1010.61,-59 1010.61,-79 1136.66,-79 1136.66,-59 1010.61,-59"/>
<text text-anchor="middle" x="1073.63" y="-65" font-family="Helvetica,sans-Serif" font-size="10.00">cinder/CurrentFunction.h</text>
</a>
</g>
</g>
<!-- Node5&#45;&gt;Node6 -->
<g id="edge5" class="edge"><title>Node5&#45;&gt;Node6</title>
<path fill="none" stroke="midnightblue" d="M1117.88,-116.753C1110.09,-108.516 1098.5,-96.2738 1089.14,-86.3824"/>
<polygon fill="midnightblue" stroke="midnightblue" points="1091.64,-83.9323 1082.22,-79.0752 1086.55,-88.744 1091.64,-83.9323"/>
</g>
<!-- Node7 -->
<g id="node7" class="node"><title>Node7</title>
<polygon fill="white" stroke="#bfbfbf" points="1154.52,-59 1154.52,-79 1202.75,-79 1202.75,-59 1154.52,-59"/>
<text text-anchor="middle" x="1178.63" y="-65" font-family="Helvetica,sans-Serif" font-size="10.00">cassert</text>
</g>
<!-- Node5&#45;&gt;Node7 -->
<g id="edge6" class="edge"><title>Node5&#45;&gt;Node7</title>
<path fill="none" stroke="midnightblue" d="M1135.22,-116.753C1142.79,-108.598 1154.01,-96.5158 1163.15,-86.6769"/>
<polygon fill="midnightblue" stroke="midnightblue" points="1165.97,-88.7847 1170.21,-79.0752 1160.84,-84.0216 1165.97,-88.7847"/>
</g>
<!-- Node13 -->
<g id="node13" class="node"><title>Node13</title>
<g id="a_node13"><a xlink:href="_exception_8h.html" target="_top" xlink:title="cinder/Exception.h">
<polygon fill="white" stroke="black" points="184.497,-117 184.497,-137 282.767,-137 282.767,-117 184.497,-117"/>
<text text-anchor="middle" x="233.632" y="-123" font-family="Helvetica,sans-Serif" font-size="10.00">cinder/Exception.h</text>
</a>
</g>
</g>
<!-- Node12&#45;&gt;Node13 -->
<g id="edge12" class="edge"><title>Node12&#45;&gt;Node13</title>
<path fill="none" stroke="midnightblue" d="M221.944,-174.753C223.82,-167.25 226.526,-156.424 228.863,-147.078"/>
<polygon fill="midnightblue" stroke="midnightblue" points="232.334,-147.626 231.363,-137.075 225.543,-145.928 232.334,-147.626"/>
</g>
<!-- Node18 -->
<g id="node18" class="node"><title>Node18</title>
<polygon fill="white" stroke="#bfbfbf" points="136.406,-59 136.406,-79 176.859,-79 176.859,-59 136.406,-59"/>
<text text-anchor="middle" x="156.632" y="-65" font-family="Helvetica,sans-Serif" font-size="10.00">string</text>
</g>
<!-- Node12&#45;&gt;Node18 -->
<g id="edge19" class="edge"><title>Node12&#45;&gt;Node18</title>
<path fill="none" stroke="midnightblue" d="M208.255,-174.954C198.268,-166.43 184.056,-152.788 175.632,-138 167.015,-122.873 162.111,-103.6 159.453,-89.4373"/>
<polygon fill="midnightblue" stroke="midnightblue" points="162.868,-88.6417 157.774,-79.3521 155.963,-89.791 162.868,-88.6417"/>
</g>
<!-- Node14 -->
<g id="node14" class="node"><title>Node14</title>
<g id="a_node14"><a xlink:href="_cinder_8h.html" target="_top" xlink:title="cinder/Cinder.h">
<polygon fill="white" stroke="black" points="761.999,-59 761.999,-79 845.265,-79 845.265,-59 761.999,-59"/>
<text text-anchor="middle" x="803.632" y="-65" font-family="Helvetica,sans-Serif" font-size="10.00">cinder/Cinder.h</text>
</a>
</g>
</g>
<!-- Node13&#45;&gt;Node14 -->
<g id="edge13" class="edge"><title>Node13&#45;&gt;Node14</title>
<path fill="none" stroke="midnightblue" d="M282.957,-120.795C297.944,-119.231 314.46,-117.526 329.632,-116 482.988,-100.572 664.351,-83.2201 751.608,-74.9278"/>
<polygon fill="midnightblue" stroke="midnightblue" points="752.15,-78.3922 761.774,-73.9622 751.488,-71.4236 752.15,-78.3922"/>
</g>
<!-- Node13&#45;&gt;Node8 -->
<g id="edge17" class="edge"><title>Node13&#45;&gt;Node8</title>
<path fill="none" stroke="midnightblue" d="M280.386,-116.94C339.447,-105.496 439.521,-86.1046 490.584,-76.2099"/>
<polygon fill="midnightblue" stroke="midnightblue" points="491.553,-79.5874 500.705,-74.2489 490.221,-72.7153 491.553,-79.5874"/>
</g>
<!-- Node13&#45;&gt;Node18 -->
<g id="edge18" class="edge"><title>Node13&#45;&gt;Node18</title>
<path fill="none" stroke="midnightblue" d="M220.917,-116.753C209.144,-108.19 191.417,-95.2978 177.558,-85.2186"/>
<polygon fill="midnightblue" stroke="midnightblue" points="179.257,-82.1264 169.111,-79.0752 175.139,-87.7875 179.257,-82.1264"/>
</g>
<!-- Node15 -->
<g id="node15" class="node"><title>Node15</title>
<polygon fill="white" stroke="#bfbfbf" points="693.182,-1 693.182,-21 738.083,-21 738.083,-1 693.182,-1"/>
<text text-anchor="middle" x="715.632" y="-7" font-family="Helvetica,sans-Serif" font-size="10.00">cstdint</text>
</g>
<!-- Node14&#45;&gt;Node15 -->
<g id="edge14" class="edge"><title>Node14&#45;&gt;Node15</title>
<path fill="none" stroke="midnightblue" d="M789.101,-58.7527C775.389,-50.0272 754.612,-36.8051 738.647,-26.6458"/>
<polygon fill="midnightblue" stroke="midnightblue" points="740.209,-23.4912 729.893,-21.0752 736.451,-29.3968 740.209,-23.4912"/>
</g>
<!-- Node16 -->
<g id="node16" class="node"><title>Node16</title>
<polygon fill="white" stroke="#bfbfbf" points="756.162,-1 756.162,-21 851.102,-21 851.102,-1 756.162,-1"/>
<text text-anchor="middle" x="803.632" y="-7" font-family="Helvetica,sans-Serif" font-size="10.00">boost/version.hpp</text>
</g>
<!-- Node14&#45;&gt;Node16 -->
<g id="edge15" class="edge"><title>Node14&#45;&gt;Node16</title>
<path fill="none" stroke="midnightblue" d="M803.632,-58.7527C803.632,-51.2504 803.632,-40.4238 803.632,-31.0781"/>
<polygon fill="midnightblue" stroke="midnightblue" points="807.132,-31.0752 803.632,-21.0752 800.132,-31.0752 807.132,-31.0752"/>
</g>
<!-- Node17 -->
<g id="node17" class="node"><title>Node17</title>
<polygon fill="white" stroke="#bfbfbf" points="869.253,-1 869.253,-21 1002.01,-21 1002.01,-1 869.253,-1"/>
<text text-anchor="middle" x="935.632" y="-7" font-family="Helvetica,sans-Serif" font-size="10.00">boost/checked_delete.hpp</text>
</g>
<!-- Node14&#45;&gt;Node17 -->
<g id="edge16" class="edge"><title>Node14&#45;&gt;Node17</title>
<path fill="none" stroke="midnightblue" d="M825.134,-58.878C846.804,-49.6848 880.453,-35.4095 904.927,-25.0263"/>
<polygon fill="midnightblue" stroke="midnightblue" points="906.301,-28.2457 914.14,-21.1181 903.567,-21.8016 906.301,-28.2457"/>
</g>
<!-- Node23&#45;&gt;Node3 -->
<g id="edge26" class="edge"><title>Node23&#45;&gt;Node3</title>
<path fill="none" stroke="midnightblue" d="M620.435,-296.852C614.169,-287.602 604.326,-273.072 596.545,-261.586"/>
<polygon fill="midnightblue" stroke="midnightblue" points="599.361,-259.502 590.855,-253.186 593.566,-263.428 599.361,-259.502"/>
</g>
<!-- Node24 -->
<g id="node24" class="node"><title>Node24</title>
<g id="a_node24"><a xlink:href="_param_8h.html" target="_top" xlink:title="cinder/audio/Param.h">
<polygon fill="white" stroke="black" points="747.105,-233 747.105,-253 858.159,-253 858.159,-233 747.105,-233"/>
<text text-anchor="middle" x="802.632" y="-239" font-family="Helvetica,sans-Serif" font-size="10.00">cinder/audio/Param.h</text>
</a>
</g>
</g>
<!-- Node23&#45;&gt;Node24 -->
<g id="edge27" class="edge"><title>Node23&#45;&gt;Node24</title>
<path fill="none" stroke="midnightblue" d="M652.224,-296.985C682.595,-286.286 733.397,-268.39 767.45,-256.394"/>
<polygon fill="midnightblue" stroke="midnightblue" points="768.74,-259.65 777.009,-253.026 766.415,-253.048 768.74,-259.65"/>
</g>
<!-- Node27 -->
<g id="node27" class="node"><title>Node27</title>
<g id="a_node27"><a xlink:href="_device_8h.html" target="_top" xlink:title="cinder/audio/Device.h">
<polygon fill="white" stroke="black" points="321.549,-233 321.549,-253 433.716,-253 433.716,-233 321.549,-233"/>
<text text-anchor="middle" x="377.632" y="-239" font-family="Helvetica,sans-Serif" font-size="10.00">cinder/audio/Device.h</text>
</a>
</g>
</g>
<!-- Node23&#45;&gt;Node27 -->
<g id="edge32" class="edge"><title>Node23&#45;&gt;Node27</title>
<path fill="none" stroke="midnightblue" d="M590.425,-296.985C546.352,-286.01 471.863,-267.463 423.733,-255.479"/>
<polygon fill="midnightblue" stroke="midnightblue" points="424.432,-252.046 413.883,-253.026 422.741,-258.839 424.432,-252.046"/>
</g>
<!-- Node24&#45;&gt;Node4 -->
<g id="edge28" class="edge"><title>Node24&#45;&gt;Node4</title>
<path fill="none" stroke="midnightblue" d="M801.641,-232.753C800.838,-225.25 799.678,-214.424 798.676,-205.078"/>
<polygon fill="midnightblue" stroke="midnightblue" points="802.15,-204.645 797.605,-195.075 795.19,-205.391 802.15,-204.645"/>
</g>
<!-- Node25 -->
<g id="node25" class="node"><title>Node25</title>
<polygon fill="white" stroke="#bfbfbf" points="868.132,-175 868.132,-195 897.132,-195 897.132,-175 868.132,-175"/>
<text text-anchor="middle" x="882.243" y="-181" font-family="Helvetica,sans-Serif" font-size="10.00">list</text>
</g>
<!-- Node24&#45;&gt;Node25 -->
<g id="edge29" class="edge"><title>Node24&#45;&gt;Node25</title>
<path fill="none" stroke="midnightblue" d="M815.843,-232.753C828.191,-224.109 846.844,-211.052 861.302,-200.931"/>
<polygon fill="midnightblue" stroke="midnightblue" points="863.482,-203.677 869.668,-195.075 859.468,-197.943 863.482,-203.677"/>
</g>
<!-- Node24&#45;&gt;Node21 -->
<g id="edge30" class="edge"><title>Node24&#45;&gt;Node21</title>
<path fill="none" stroke="midnightblue" d="M824.623,-232.878C846.785,-223.685 881.199,-209.409 906.23,-199.026"/>
<polygon fill="midnightblue" stroke="midnightblue" points="907.755,-202.183 915.651,-195.118 905.073,-195.717 907.755,-202.183"/>
</g>
<!-- Node26 -->
<g id="node26" class="node"><title>Node26</title>
<polygon fill="white" stroke="#bfbfbf" points="588.228,-117 588.228,-137 647.036,-137 647.036,-117 588.228,-117"/>
<text text-anchor="middle" x="617.632" y="-123" font-family="Helvetica,sans-Serif" font-size="10.00">functional</text>
</g>
<!-- Node24&#45;&gt;Node26 -->
<g id="edge31" class="edge"><title>Node24&#45;&gt;Node26</title>
<path fill="none" stroke="midnightblue" d="M788.373,-232.873C767.772,-219.721 728.44,-194.738 694.632,-174 677.045,-163.212 657.036,-151.268 641.823,-142.255"/>
<polygon fill="midnightblue" stroke="midnightblue" points="643.425,-139.136 633.036,-137.059 639.862,-145.162 643.425,-139.136"/>
</g>
<!-- Node28 -->
<g id="node28" class="node"><title>Node28</title>
<g id="a_node28"><a xlink:href="_function_8h.html" target="_top" xlink:title="cinder/Function.h">
<polygon fill="white" stroke="black" points="338.278,-175 338.278,-195 430.987,-195 430.987,-175 338.278,-175"/>
<text text-anchor="middle" x="384.632" y="-181" font-family="Helvetica,sans-Serif" font-size="10.00">cinder/Function.h</text>
</a>
</g>
</g>
<!-- Node27&#45;&gt;Node28 -->
<g id="edge33" class="edge"><title>Node27&#45;&gt;Node28</title>
<path fill="none" stroke="midnightblue" d="M378.788,-232.753C379.726,-225.25 381.079,-214.424 382.247,-205.078"/>
<polygon fill="midnightblue" stroke="midnightblue" points="385.73,-205.432 383.498,-195.075 378.784,-204.564 385.73,-205.432"/>
</g>
<!-- Node27&#45;&gt;Node9 -->
<g id="edge40" class="edge"><title>Node27&#45;&gt;Node9</title>
<path fill="none" stroke="midnightblue" d="M389.733,-232.739C411.984,-215.887 458.836,-181.274 477.632,-174 583.554,-133.007 619.46,-161.248 730.632,-138 730.731,-137.979 730.831,-137.958 730.93,-137.937"/>
<polygon fill="midnightblue" stroke="midnightblue" points="731.449,-141.411 740.383,-135.715 729.847,-134.597 731.449,-141.411"/>
</g>
<!-- Node27&#45;&gt;Node18 -->
<g id="edge41" class="edge"><title>Node27&#45;&gt;Node18</title>
<path fill="none" stroke="midnightblue" d="M321.44,-238.987C223.704,-233.168 30.841,-218.9 10.6322,-196 -32.122,-147.552 72.5578,-100.544 126.68,-80.3376"/>
<polygon fill="midnightblue" stroke="midnightblue" points="127.956,-83.5978 136.15,-76.8822 125.556,-77.0218 127.956,-83.5978"/>
</g>
<!-- Node27&#45;&gt;Node8 -->
<g id="edge42" class="edge"><title>Node27&#45;&gt;Node8</title>
<path fill="none" stroke="midnightblue" d="M362.791,-232.736C351.332,-224.631 336.337,-211.712 329.632,-196 315.677,-163.298 307.597,-143.904 329.632,-116 349.371,-91.0037 441.307,-78.1167 490.831,-72.8879"/>
<polygon fill="midnightblue" stroke="midnightblue" points="491.406,-76.3477 501.003,-71.8588 490.701,-69.3833 491.406,-76.3477"/>
</g>
<!-- Node27&#45;&gt;Node19 -->
<g id="edge43" class="edge"><title>Node27&#45;&gt;Node19</title>
<path fill="none" stroke="midnightblue" d="M329.422,-232.94C277.162,-223.12 193.76,-207.447 137.874,-196.945"/>
<polygon fill="midnightblue" stroke="midnightblue" points="138.247,-193.454 127.773,-195.047 136.955,-200.333 138.247,-193.454"/>
</g>
<!-- Node28&#45;&gt;Node14 -->
<g id="edge34" class="edge"><title>Node28&#45;&gt;Node14</title>
<path fill="none" stroke="midnightblue" d="M413.541,-174.942C441.768,-165.978 485.863,-151.657 523.632,-138 548.779,-128.907 553.996,-123.606 579.632,-116 637.662,-98.7818 706.026,-85.7563 751.83,-78.0369"/>
<polygon fill="midnightblue" stroke="midnightblue" points="752.53,-81.4686 761.821,-76.3769 751.382,-74.5633 752.53,-81.4686"/>
</g>
<!-- Node28&#45;&gt;Node11 -->
<g id="edge35" class="edge"><title>Node28&#45;&gt;Node11</title>
<path fill="none" stroke="midnightblue" d="M431.004,-176.239C497.812,-165.044 616.614,-145.08 655.135,-137.794"/>
<polygon fill="midnightblue" stroke="midnightblue" points="655.944,-141.201 665.064,-135.81 654.572,-134.337 655.944,-141.201"/>
</g>
<!-- Node28&#45;&gt;Node8 -->
<g id="edge36" class="edge"><title>Node28&#45;&gt;Node8</title>
<path fill="none" stroke="midnightblue" d="M431.107,-176.098C455.479,-169.691 484.048,-158.249 502.632,-138 514.833,-124.707 519.618,-104.334 521.481,-89.352"/>
<polygon fill="midnightblue" stroke="midnightblue" points="524.988,-89.4287 522.409,-79.1525 518.017,-88.794 524.988,-89.4287"/>
</g>
<!-- Node29 -->
<g id="node29" class="node"><title>Node29</title>
<polygon fill="white" stroke="#bfbfbf" points="338.241,-117 338.241,-137 377.024,-137 377.024,-117 338.241,-117"/>
<text text-anchor="middle" x="357.632" y="-123" font-family="Helvetica,sans-Serif" font-size="10.00">utility</text>
</g>
<!-- Node28&#45;&gt;Node29 -->
<g id="edge37" class="edge"><title>Node28&#45;&gt;Node29</title>
<path fill="none" stroke="midnightblue" d="M380.174,-174.753C376.439,-167.006 370.994,-155.714 366.392,-146.169"/>
<polygon fill="midnightblue" stroke="midnightblue" points="369.504,-144.563 362.008,-137.075 363.198,-147.603 369.504,-144.563"/>
</g>
<!-- Node30 -->
<g id="node30" class="node"><title>Node30</title>
<polygon fill="white" stroke="#bfbfbf" points="394.935,-117 394.935,-137 494.329,-137 494.329,-117 394.935,-117"/>
<text text-anchor="middle" x="444.632" y="-123" font-family="Helvetica,sans-Serif" font-size="10.00">boost/signals2.hpp</text>
</g>
<!-- Node28&#45;&gt;Node30 -->
<g id="edge38" class="edge"><title>Node28&#45;&gt;Node30</title>
<path fill="none" stroke="midnightblue" d="M394.54,-174.753C403.452,-166.435 416.742,-154.031 427.394,-144.089"/>
<polygon fill="midnightblue" stroke="midnightblue" points="429.986,-146.457 434.909,-137.075 425.21,-141.34 429.986,-146.457"/>
</g>
<!-- Node28&#45;&gt;Node26 -->
<g id="edge39" class="edge"><title>Node28&#45;&gt;Node26</title>
<path fill="none" stroke="midnightblue" d="M422.327,-174.94C465.133,-164.652 534.662,-147.941 578.183,-137.481"/>
<polygon fill="midnightblue" stroke="midnightblue" points="579.216,-140.833 588.121,-135.093 577.58,-134.027 579.216,-140.833"/>
</g>
<!-- Node31&#45;&gt;Node3 -->
<g id="edge45" class="edge"><title>Node31&#45;&gt;Node3</title>
<path fill="none" stroke="midnightblue" d="M407.732,-296.985C443.912,-286.148 504.745,-267.928 544.791,-255.933"/>
<polygon fill="midnightblue" stroke="midnightblue" points="545.921,-259.248 554.496,-253.026 543.913,-252.543 545.921,-259.248"/>
</g>
<!-- Node31&#45;&gt;Node27 -->
<g id="edge46" class="edge"><title>Node31&#45;&gt;Node27</title>
<path fill="none" stroke="midnightblue" d="M377.632,-296.852C377.632,-288.06 377.632,-274.498 377.632,-263.313"/>
<polygon fill="midnightblue" stroke="midnightblue" points="381.132,-263.186 377.632,-253.186 374.132,-263.186 381.132,-263.186"/>
</g>
<!-- Node33&#45;&gt;Node5 -->
<g id="edge50" class="edge"><title>Node33&#45;&gt;Node5</title>
<path fill="none" stroke="midnightblue" d="M1039.24,-232.974C1062.65,-226.382 1089.09,-215.115 1106.63,-196 1118.83,-182.707 1123.62,-162.334 1125.48,-147.352"/>
<polygon fill="midnightblue" stroke="midnightblue" points="1128.99,-147.429 1126.41,-137.153 1122.02,-146.794 1128.99,-147.429"/>
</g>
<!-- Node33&#45;&gt;Node14 -->
<g id="edge51" class="edge"><title>Node33&#45;&gt;Node14</title>
<path fill="none" stroke="midnightblue" d="M993.59,-232.866C1005.1,-210.288 1030.58,-151.143 1002.63,-116 984.579,-93.2981 908.334,-80.8259 855.643,-74.7799"/>
<polygon fill="midnightblue" stroke="midnightblue" points="855.766,-71.2724 845.443,-73.6553 854.999,-78.2302 855.766,-71.2724"/>
</g>
<!-- Node33&#45;&gt;Node21 -->
<g id="edge52" class="edge"><title>Node33&#45;&gt;Node21</title>
<path fill="none" stroke="midnightblue" d="M980.211,-232.753C972.784,-224.598 961.781,-212.516 952.82,-202.677"/>
<polygon fill="midnightblue" stroke="midnightblue" points="955.218,-200.112 945.897,-195.075 950.043,-204.825 955.218,-200.112"/>
</g>
<!-- Node33&#45;&gt;Node8 -->
<g id="edge53" class="edge"><title>Node33&#45;&gt;Node8</title>
<path fill="none" stroke="midnightblue" d="M987.622,-232.961C985.746,-219.259 980.749,-192.835 968.632,-174 947.324,-140.877 937.64,-131.957 901.632,-116 839.705,-88.5565 635.08,-75.6127 555.086,-71.5089"/>
<polygon fill="midnightblue" stroke="midnightblue" points="554.815,-67.9911 544.653,-70.9879 554.466,-74.9824 554.815,-67.9911"/>
</g>
<!-- Node34 -->
<g id="node34" class="node"><title>Node34</title>
<polygon fill="white" stroke="#bfbfbf" points="1055.02,-175 1055.02,-195 1098.25,-195 1098.25,-175 1055.02,-175"/>
<text text-anchor="middle" x="1076.63" y="-181" font-family="Helvetica,sans-Serif" font-size="10.00">cmath</text>
</g>
<!-- Node33&#45;&gt;Node34 -->
<g id="edge54" class="edge"><title>Node33&#45;&gt;Node34</title>
<path fill="none" stroke="midnightblue" d="M1003.16,-232.753C1016.88,-224.027 1037.65,-210.805 1053.62,-200.646"/>
<polygon fill="midnightblue" stroke="midnightblue" points="1055.81,-203.397 1062.37,-195.075 1052.06,-197.491 1055.81,-203.397"/>
</g>
<!-- Node35&#45;&gt;Node5 -->
<g id="edge56" class="edge"><title>Node35&#45;&gt;Node5</title>
<path fill="none" stroke="midnightblue" d="M1140.72,-232.698C1142.03,-219.542 1143.73,-194.787 1140.63,-174 1139.28,-164.929 1136.51,-155.172 1133.79,-146.989"/>
<polygon fill="midnightblue" stroke="midnightblue" points="1137.01,-145.581 1130.36,-137.327 1130.41,-147.921 1137.01,-145.581"/>
</g>
<!-- Node35&#45;&gt;Node21 -->
<g id="edge57" class="edge"><title>Node35&#45;&gt;Node21</title>
<path fill="none" stroke="midnightblue" d="M1106.73,-232.878C1069.12,-222.453 1007.94,-205.492 970.397,-195.083"/>
<polygon fill="midnightblue" stroke="midnightblue" points="971.044,-191.631 960.473,-192.332 969.174,-198.376 971.044,-191.631"/>
</g>
<!-- Node36&#45;&gt;Node14 -->
<g id="edge59" class="edge"><title>Node36&#45;&gt;Node14</title>
<path fill="none" stroke="midnightblue" d="M1311.79,-370.027C1393.7,-369.166 1567.37,-362.693 1610.63,-324 1637.95,-299.566 1630.63,-280.65 1630.63,-244 1630.63,-244 1630.63,-244 1630.63,-184 1630.63,-144.702 1036.89,-90.1535 855.58,-74.4127"/>
<polygon fill="midnightblue" stroke="midnightblue" points="855.759,-70.9152 845.495,-73.5402 855.156,-77.8891 855.759,-70.9152"/>
</g>
<!-- Node37 -->
<g id="node37" class="node"><title>Node37</title>
<polygon fill="white" stroke="#bfbfbf" points="1481.1,-297 1481.1,-317 1602.17,-317 1602.17,-297 1481.1,-297"/>
<text text-anchor="middle" x="1541.63" y="-303" font-family="Helvetica,sans-Serif" font-size="10.00">boost/thread/mutex.hpp</text>
</g>
<!-- Node36&#45;&gt;Node37 -->
<g id="edge60" class="edge"><title>Node36&#45;&gt;Node37</title>
<path fill="none" stroke="midnightblue" d="M1308.7,-360.945C1349.65,-351.684 1415.08,-336.871 1471.63,-324 1478.25,-322.494 1485.21,-320.906 1492.08,-319.338"/>
<polygon fill="midnightblue" stroke="midnightblue" points="1493.05,-322.706 1502.02,-317.067 1491.5,-315.882 1493.05,-322.706"/>
</g>
<!-- Node38 -->
<g id="node38" class="node"><title>Node38</title>
<polygon fill="white" stroke="#bfbfbf" points="938.162,-291 938.162,-323 1053.1,-323 1053.1,-291 938.162,-291"/>
<text text-anchor="start" x="946.162" y="-309" font-family="Helvetica,sans-Serif" font-size="10.00">boost/thread/recursive</text>
<text text-anchor="middle" x="995.632" y="-297" font-family="Helvetica,sans-Serif" font-size="10.00">_mutex.hpp</text>
</g>
<!-- Node36&#45;&gt;Node38 -->
<g id="edge61" class="edge"><title>Node36&#45;&gt;Node38</title>
<path fill="none" stroke="midnightblue" d="M1227.16,-360.928C1187.65,-352.241 1126.22,-338.628 1063.45,-324.17"/>
<polygon fill="midnightblue" stroke="midnightblue" points="1063.89,-320.682 1053.36,-321.843 1062.32,-327.503 1063.89,-320.682"/>
</g>
<!-- Node39 -->
<g id="node39" class="node"><title>Node39</title>
<polygon fill="white" stroke="#bfbfbf" points="1071.54,-297 1071.54,-317 1193.73,-317 1193.73,-297 1071.54,-297"/>
<text text-anchor="middle" x="1132.63" y="-303" font-family="Helvetica,sans-Serif" font-size="10.00">boost/thread/thread.hpp</text>
</g>
<!-- Node36&#45;&gt;Node39 -->
<g id="edge62" class="edge"><title>Node36&#45;&gt;Node39</title>
<path fill="none" stroke="midnightblue" d="M1248.86,-360.985C1225.99,-350.561 1188.14,-333.307 1161.88,-321.332"/>
<polygon fill="midnightblue" stroke="midnightblue" points="1162.98,-317.99 1152.43,-317.026 1160.08,-324.359 1162.98,-317.99"/>
</g>
<!-- Node40 -->
<g id="node40" class="node"><title>Node40</title>
<polygon fill="white" stroke="#bfbfbf" points="1211.43,-291 1211.43,-323 1325.83,-323 1325.83,-291 1211.43,-291"/>
<text text-anchor="start" x="1219.43" y="-309" font-family="Helvetica,sans-Serif" font-size="10.00">boost/thread/condition</text>
<text text-anchor="middle" x="1268.63" y="-297" font-family="Helvetica,sans-Serif" font-size="10.00">_variable.hpp</text>
</g>
<!-- Node36&#45;&gt;Node40 -->
<g id="edge63" class="edge"><title>Node36&#45;&gt;Node40</title>
<path fill="none" stroke="midnightblue" d="M1268.63,-360.852C1268.63,-353.629 1268.63,-343.185 1268.63,-333.486"/>
<polygon fill="midnightblue" stroke="midnightblue" points="1272.13,-333.44 1268.63,-323.44 1265.13,-333.44 1272.13,-333.44"/>
</g>
<!-- Node41 -->
<g id="node41" class="node"><title>Node41</title>
<polygon fill="white" stroke="#bfbfbf" points="1343.93,-297 1343.93,-317 1463.34,-317 1463.34,-297 1343.93,-297"/>
<text text-anchor="middle" x="1403.63" y="-303" font-family="Helvetica,sans-Serif" font-size="10.00">boost/thread/future.hpp</text>
</g>
<!-- Node36&#45;&gt;Node41 -->
<g id="edge64" class="edge"><title>Node36&#45;&gt;Node41</title>
<path fill="none" stroke="midnightblue" d="M1288.26,-360.985C1310.96,-350.561 1348.53,-333.307 1374.6,-321.332"/>
<polygon fill="midnightblue" stroke="midnightblue" points="1376.35,-324.38 1383.98,-317.026 1373.43,-318.019 1376.35,-324.38"/>
</g>
</g>
</svg>
        <g id="navigator" transform="translate(0 0)" fill="#404254">
                <rect fill="#f2f5e9" fill-opacity="0.5" stroke="#606060" stroke-width=".5" x="0" y="0" width="60" height="60"/>
                <use id="zoomplus" xlink:href="#zoomPlus" x="17" y="9" onmousedown="handleZoom(evt,'in')"/>
                <use id="zoomminus" xlink:href="#zoomMin" x="42" y="9" onmousedown="handleZoom(evt,'out')"/>
                <use id="reset" xlink:href="#resetDef" x="30" y="36" onmousedown="handleReset()"/>
                <g id="arrowUp" xlink:href="#dirArrow" transform="translate(30 24)" onmousedown="handlePan(0,-1)">
                  <use xlink:href="#rim" fill="#404040">
                        <set attributeName="fill" to="#808080" begin="arrowUp.mouseover" end="arrowUp.mouseout"/>
                  </use>
                  <path fill="none" stroke="white" stroke-width="1.5" d="M0,-3.0v7 M-2.5,-0.5L0,-3.0L2.5,-0.5"/>
                </g>
                <g id="arrowRight" xlink:href="#dirArrow" transform="rotate(90) translate(36 -43)" onmousedown="handlePan(1,0)">
                  <use xlink:href="#rim" fill="#404040">
                        <set attributeName="fill" to="#808080" begin="arrowRight.mouseover" end="arrowRight.mouseout"/>
                  </use>
                  <path fill="none" stroke="white" stroke-width="1.5" d="M0,-3.0v7 M-2.5,-0.5L0,-3.0L2.5,-0.5"/>
                </g>
                <g id="arrowDown" xlink:href="#dirArrow" transform="rotate(180) translate(-30 -48)" onmousedown="handlePan(0,1)">
                  <use xlink:href="#rim" fill="#404040">
                        <set attributeName="fill" to="#808080" begin="arrowDown.mouseover" end="arrowDown.mouseout"/>
                  </use>
                  <path fill="none" stroke="white" stroke-width="1.5" d="M0,-3.0v7 M-2.5,-0.5L0,-3.0L2.5,-0.5"/>
                </g>
                <g id="arrowLeft" xlink:href="#dirArrow" transform="rotate(270) translate(-36 17)" onmousedown="handlePan(-1,0)">
                  <use xlink:href="#rim" fill="#404040">
                        <set attributeName="fill" to="#808080" begin="arrowLeft.mouseover" end="arrowLeft.mouseout"/>
                  </use>
                  <path fill="none" stroke="white" stroke-width="1.5" d="M0,-3.0v7 M-2.5,-0.5L0,-3.0L2.5,-0.5"/>
                </g>
        </g>
        <svg viewBox="0 0 15 15" width="100%" height="30px" preserveAspectRatio="xMaxYMin meet">
         <g id="arrow_out" transform="scale(0.3 0.3)">
          <a xlink:href="_monitor_node_8h__incl_org.svg" target="_base">
           <rect id="button" ry="5" rx="5" y="6" x="6" height="38" width="38"
                fill="#f2f5e9" fill-opacity="0.5" stroke="#606060" stroke-width="1.0"/>
           <path id="arrow"
             d="M 11.500037,31.436501 C 11.940474,20.09759 22.043105,11.32322 32.158766,21.979434 L 37.068811,17.246167 C 37.068811,17.246167 37.088388,32 37.088388,32 L 22.160133,31.978069 C 22.160133,31.978069 26.997745,27.140456 26.997745,27.140456 C 18.528582,18.264221 13.291696,25.230495 11.500037,31.436501 z"
             style="fill:#404040;"/>
          </a>
         </g>
        </svg>
</svg>
