<?xml version="1.0" encoding="UTF-8" standalone="no"?>
<!DOCTYPE svg PUBLIC "-//W3C//DTD SVG 1.1//EN"
 "http://www.w3.org/Graphics/SVG/1.1/DTD/svg11.dtd">
<!-- Generated by graphviz version 2.30.1 (20140712.1814)
 -->
<!-- Title: include/cinder/app/MouseEvent.h Pages: 1 -->
<!--zoomable 274 -->
<svg id="main" version="1.1" xmlns="http://www.w3.org/2000/svg" xmlns:xlink="http://www.w3.org/1999/xlink" xml:space="preserve" onload="init(evt)">
<style type="text/css"><![CDATA[
.edge:hover path { stroke: red; }
.edge:hover polygon { stroke: red; fill: red; }
]]></style>
<script type="text/javascript"><![CDATA[
var edges = document.getElementsByTagName('g');
if (edges && edges.length) {
  for (var i=0;i<edges.length;i++) {
    if (edges[i].id.substr(0,4)=='edge') {
      edges[i].setAttribute('class','edge');
    }
  }
}
]]></script>
        <defs>
                <circle id="rim" cx="0" cy="0" r="7"/>
                <circle id="rim2" cx="0" cy="0" r="3.5"/>
                <g id="zoomPlus">
                        <use xlink:href="#rim" fill="#404040">
                                <set attributeName="fill" to="#808080" begin="zoomplus.mouseover" end="zoomplus.mouseout"/>
                        </use>
                        <path d="M-4,0h8M0,-4v8" fill="none" stroke="white" stroke-width="1.5" pointer-events="none"/>
                </g>
                <g id="zoomMin">
                        <use xlink:href="#rim" fill="#404040">
                                <set attributeName="fill" to="#808080" begin="zoomminus.mouseover" end="zoomminus.mouseout"/>
                        </use>
                        <path d="M-4,0h8" fill="none" stroke="white" stroke-width="1.5" pointer-events="none"/>
                </g>
                <g id="dirArrow">
                        <path fill="none" stroke="white" stroke-width="1.5" d="M0,-3.0v7 M-2.5,-0.5L0,-3.0L2.5,-0.5"/>
                </g>
               <g id="resetDef">
                       <use xlink:href="#rim2" fill="#404040">
                               <set attributeName="fill" to="#808080" begin="reset.mouseover" end="reset.mouseout"/>
                       </use>
               </g>
        </defs>

<script type="text/javascript">
var viewWidth = 771;
var viewHeight = 274;
var sectionId = 'dynsection-0';
</script>
<script xlink:href="svgpan.js"/>
<svg id="graph" class="graph">
<g id="viewport">
<title>include/cinder/app/MouseEvent.h</title>
<polygon fill="white" stroke="white" points="-4,5 -4,-270 768,-270 768,5 -4,5"/>
<!-- Node1 -->
<g id="node1" class="node"><title>Node1</title>
<polygon fill="#bfbfbf" stroke="black" points="283.417,-233 283.417,-265 380.583,-265 380.583,-233 283.417,-233"/>
<text text-anchor="start" x="291.417" y="-251" font-family="Helvetica,sans-Serif" font-size="10.00">include/cinder/app</text>
<text text-anchor="middle" x="332" y="-239" font-family="Helvetica,sans-Serif" font-size="10.00">/MouseEvent.h</text>
</g>
<!-- Node2 -->
<g id="node2" class="node"><title>Node2</title>
<g id="a_node2"><a xlink:href="_cinder_8h.html" target="_top" xlink:title="cinder/Cinder.h">
<polygon fill="white" stroke="black" points="309.367,-59 309.367,-79 392.633,-79 392.633,-59 309.367,-59"/>
<text text-anchor="middle" x="351" y="-65" font-family="Helvetica,sans-Serif" font-size="10.00">cinder/Cinder.h</text>
</a>
</g>
</g>
<!-- Node1&#45;&gt;Node2 -->
<g id="edge1" class="edge"><title>Node1&#45;&gt;Node2</title>
<path fill="none" stroke="midnightblue" d="M333.62,-232.824C337.07,-200.506 345.136,-124.937 348.942,-89.277"/>
<polygon fill="midnightblue" stroke="midnightblue" points="352.436,-89.5219 350.017,-79.2068 345.476,-88.7788 352.436,-89.5219"/>
</g>
<!-- Node6 -->
<g id="node6" class="node"><title>Node6</title>
<g id="a_node6"><a xlink:href="_event_8h.html" target="_top" xlink:title="cinder/app/Event.h">
<polygon fill="white" stroke="black" points="204.306,-175 204.306,-195 303.694,-195 303.694,-175 204.306,-175"/>
<text text-anchor="middle" x="254" y="-181" font-family="Helvetica,sans-Serif" font-size="10.00">cinder/app/Event.h</text>
</a>
</g>
</g>
<!-- Node1&#45;&gt;Node6 -->
<g id="edge5" class="edge"><title>Node1&#45;&gt;Node6</title>
<path fill="none" stroke="midnightblue" d="M313.118,-232.992C301.218,-223.533 285.877,-211.338 273.805,-201.742"/>
<polygon fill="midnightblue" stroke="midnightblue" points="275.694,-198.773 265.688,-195.29 271.338,-204.253 275.694,-198.773"/>
</g>
<!-- Node13 -->
<g id="node13" class="node"><title>Node13</title>
<g id="a_node13"><a xlink:href="_vector_8h.html" target="_top" xlink:title="cinder/Vector.h">
<polygon fill="white" stroke="black" points="476.919,-175 476.919,-195 559.081,-195 559.081,-175 476.919,-175"/>
<text text-anchor="middle" x="518" y="-181" font-family="Helvetica,sans-Serif" font-size="10.00">cinder/Vector.h</text>
</a>
</g>
</g>
<!-- Node1&#45;&gt;Node13 -->
<g id="edge14" class="edge"><title>Node1&#45;&gt;Node13</title>
<path fill="none" stroke="midnightblue" d="M377.025,-232.992C408.998,-222.334 451.389,-208.204 481.309,-198.23"/>
<polygon fill="midnightblue" stroke="midnightblue" points="482.565,-201.501 490.945,-195.018 480.351,-194.86 482.565,-201.501"/>
</g>
<!-- Node3 -->
<g id="node3" class="node"><title>Node3</title>
<polygon fill="white" stroke="#bfbfbf" points="240.549,-1 240.549,-21 285.451,-21 285.451,-1 240.549,-1"/>
<text text-anchor="middle" x="263" y="-7" font-family="Helvetica,sans-Serif" font-size="10.00">cstdint</text>
</g>
<!-- Node2&#45;&gt;Node3 -->
<g id="edge2" class="edge"><title>Node2&#45;&gt;Node3</title>
<path fill="none" stroke="midnightblue" d="M336.469,-58.7527C322.757,-50.0272 301.979,-36.8051 286.015,-26.6458"/>
<polygon fill="midnightblue" stroke="midnightblue" points="287.577,-23.4912 277.261,-21.0752 283.819,-29.3968 287.577,-23.4912"/>
</g>
<!-- Node4 -->
<g id="node4" class="node"><title>Node4</title>
<polygon fill="white" stroke="#bfbfbf" points="303.53,-1 303.53,-21 398.47,-21 398.47,-1 303.53,-1"/>
<text text-anchor="middle" x="351" y="-7" font-family="Helvetica,sans-Serif" font-size="10.00">boost/version.hpp</text>
</g>
<!-- Node2&#45;&gt;Node4 -->
<g id="edge3" class="edge"><title>Node2&#45;&gt;Node4</title>
<path fill="none" stroke="midnightblue" d="M351,-58.7527C351,-51.2504 351,-40.4238 351,-31.0781"/>
<polygon fill="midnightblue" stroke="midnightblue" points="354.5,-31.0752 351,-21.0752 347.5,-31.0752 354.5,-31.0752"/>
</g>
<!-- Node5 -->
<g id="node5" class="node"><title>Node5</title>
<polygon fill="white" stroke="#bfbfbf" points="416.621,-1 416.621,-21 549.379,-21 549.379,-1 416.621,-1"/>
<text text-anchor="middle" x="483" y="-7" font-family="Helvetica,sans-Serif" font-size="10.00">boost/checked_delete.hpp</text>
</g>
<!-- Node2&#45;&gt;Node5 -->
<g id="edge4" class="edge"><title>Node2&#45;&gt;Node5</title>
<path fill="none" stroke="midnightblue" d="M372.502,-58.878C394.172,-49.6848 427.821,-35.4095 452.295,-25.0263"/>
<polygon fill="midnightblue" stroke="midnightblue" points="453.668,-28.2457 461.507,-21.1181 450.935,-21.8016 453.668,-28.2457"/>
</g>
<!-- Node6&#45;&gt;Node2 -->
<g id="edge6" class="edge"><title>Node6&#45;&gt;Node2</title>
<path fill="none" stroke="midnightblue" d="M261.938,-174.671C278.29,-155.453 315.93,-111.217 336.659,-86.8542"/>
<polygon fill="midnightblue" stroke="midnightblue" points="339.409,-89.0236 343.224,-79.1394 334.077,-84.4874 339.409,-89.0236"/>
</g>
<!-- Node7 -->
<g id="node7" class="node"><title>Node7</title>
<g id="a_node7"><a xlink:href="_function_8h.html" target="_top" xlink:title="cinder/Function.h">
<polygon fill="white" stroke="black" points="173.646,-117 173.646,-137 266.354,-137 266.354,-117 173.646,-117"/>
<text text-anchor="middle" x="220" y="-123" font-family="Helvetica,sans-Serif" font-size="10.00">cinder/Function.h</text>
</a>
</g>
</g>
<!-- Node6&#45;&gt;Node7 -->
<g id="edge7" class="edge"><title>Node6&#45;&gt;Node7</title>
<path fill="none" stroke="midnightblue" d="M248.386,-174.753C243.633,-166.924 236.682,-155.476 230.848,-145.868"/>
<polygon fill="midnightblue" stroke="midnightblue" points="233.692,-143.807 225.51,-137.075 227.708,-147.44 233.692,-143.807"/>
</g>
<!-- Node7&#45;&gt;Node2 -->
<g id="edge8" class="edge"><title>Node7&#45;&gt;Node2</title>
<path fill="none" stroke="midnightblue" d="M241.339,-116.878C262.749,-107.725 295.943,-93.5357 320.205,-83.1643"/>
<polygon fill="midnightblue" stroke="midnightblue" points="321.851,-86.2672 329.67,-79.1181 319.099,-79.8306 321.851,-86.2672"/>
</g>
<!-- Node8 -->
<g id="node8" class="node"><title>Node8</title>
<polygon fill="white" stroke="#bfbfbf" points="173.436,-59 173.436,-79 230.564,-79 230.564,-59 173.436,-59"/>
<text text-anchor="middle" x="202" y="-65" font-family="Helvetica,sans-Serif" font-size="10.00">algorithm</text>
</g>
<!-- Node7&#45;&gt;Node8 -->
<g id="edge9" class="edge"><title>Node7&#45;&gt;Node8</title>
<path fill="none" stroke="midnightblue" d="M217.028,-116.753C214.59,-109.169 211.06,-98.1881 208.034,-88.7739"/>
<polygon fill="midnightblue" stroke="midnightblue" points="211.309,-87.5244 204.917,-79.0752 204.645,-89.6665 211.309,-87.5244"/>
</g>
<!-- Node9 -->
<g id="node9" class="node"><title>Node9</title>
<polygon fill="white" stroke="#bfbfbf" points="248.384,-59 248.384,-79 291.616,-79 291.616,-59 248.384,-59"/>
<text text-anchor="middle" x="270" y="-65" font-family="Helvetica,sans-Serif" font-size="10.00">vector</text>
</g>
<!-- Node7&#45;&gt;Node9 -->
<g id="edge10" class="edge"><title>Node7&#45;&gt;Node9</title>
<path fill="none" stroke="midnightblue" d="M228.256,-116.753C235.537,-108.598 246.325,-96.5158 255.11,-86.6769"/>
<polygon fill="midnightblue" stroke="midnightblue" points="257.848,-88.8657 261.897,-79.0752 252.626,-84.2035 257.848,-88.8657"/>
</g>
<!-- Node10 -->
<g id="node10" class="node"><title>Node10</title>
<polygon fill="white" stroke="#bfbfbf" points="-0.391602,-59 -0.391602,-79 38.3916,-79 38.3916,-59 -0.391602,-59"/>
<text text-anchor="middle" x="19" y="-65" font-family="Helvetica,sans-Serif" font-size="10.00">utility</text>
</g>
<!-- Node7&#45;&gt;Node10 -->
<g id="edge11" class="edge"><title>Node7&#45;&gt;Node10</title>
<path fill="none" stroke="midnightblue" d="M182.284,-116.932C149.127,-108.748 99.4016,-95.9585 48.1052,-80.1824"/>
<polygon fill="midnightblue" stroke="midnightblue" points="49.1006,-76.8266 38.5124,-77.2023 47.0239,-83.5115 49.1006,-76.8266"/>
</g>
<!-- Node11 -->
<g id="node11" class="node"><title>Node11</title>
<polygon fill="white" stroke="#bfbfbf" points="56.3032,-59 56.3032,-79 155.697,-79 155.697,-59 56.3032,-59"/>
<text text-anchor="middle" x="106" y="-65" font-family="Helvetica,sans-Serif" font-size="10.00">boost/signals2.hpp</text>
</g>
<!-- Node7&#45;&gt;Node11 -->
<g id="edge12" class="edge"><title>Node7&#45;&gt;Node11</title>
<path fill="none" stroke="midnightblue" d="M201.43,-116.878C183.047,-107.847 154.68,-93.9132 133.647,-83.5812"/>
<polygon fill="midnightblue" stroke="midnightblue" points="135.081,-80.3857 124.562,-79.1181 131.994,-86.6686 135.081,-80.3857"/>
</g>
<!-- Node12 -->
<g id="node12" class="node"><title>Node12</title>
<polygon fill="white" stroke="#bfbfbf" points="435.596,-59 435.596,-79 494.404,-79 494.404,-59 435.596,-59"/>
<text text-anchor="middle" x="465" y="-65" font-family="Helvetica,sans-Serif" font-size="10.00">functional</text>
</g>
<!-- Node7&#45;&gt;Node12 -->
<g id="edge13" class="edge"><title>Node7&#45;&gt;Node12</title>
<path fill="none" stroke="midnightblue" d="M259.636,-116.94C305.34,-106.494 380.016,-89.4249 425.615,-79.0024"/>
<polygon fill="midnightblue" stroke="midnightblue" points="426.468,-82.3977 435.436,-76.7574 424.908,-75.5737 426.468,-82.3977"/>
</g>
<!-- Node14 -->
<g id="node14" class="node"><title>Node14</title>
<polygon fill="white" stroke="#bfbfbf" points="662.384,-59 662.384,-79 705.616,-79 705.616,-59 662.384,-59"/>
<text text-anchor="middle" x="684" y="-65" font-family="Helvetica,sans-Serif" font-size="10.00">cmath</text>
</g>
<!-- Node13&#45;&gt;Node14 -->
<g id="edge15" class="edge"><title>Node13&#45;&gt;Node14</title>
<path fill="none" stroke="midnightblue" d="M559.226,-182.682C593.772,-179.293 641.836,-168.846 670,-138 681.916,-124.949 684.775,-104.541 685.043,-89.4845"/>
<polygon fill="midnightblue" stroke="midnightblue" points="688.537,-89.1568 684.849,-79.2245 681.539,-89.2888 688.537,-89.1568"/>
</g>
<!-- Node15 -->
<g id="node15" class="node"><title>Node15</title>
<polygon fill="white" stroke="#bfbfbf" points="717.273,-117 717.273,-137 762.727,-137 762.727,-117 717.273,-117"/>
<text text-anchor="middle" x="740" y="-123" font-family="Helvetica,sans-Serif" font-size="10.00">cstring</text>
</g>
<!-- Node13&#45;&gt;Node15 -->
<g id="edge16" class="edge"><title>Node13&#45;&gt;Node15</title>
<path fill="none" stroke="midnightblue" d="M555.262,-174.97C592.663,-165.85 651.903,-151.256 703,-138 704.268,-137.671 705.56,-137.334 706.864,-136.991"/>
<polygon fill="midnightblue" stroke="midnightblue" points="708.163,-140.267 716.927,-134.313 706.363,-133.502 708.163,-140.267"/>
</g>
<!-- Node16 -->
<g id="node16" class="node"><title>Node16</title>
<polygon fill="white" stroke="#bfbfbf" points="359.828,-117 359.828,-137 414.172,-137 414.172,-117 359.828,-117"/>
<text text-anchor="middle" x="387" y="-123" font-family="Helvetica,sans-Serif" font-size="10.00">iostream</text>
</g>
<!-- Node13&#45;&gt;Node16 -->
<g id="edge17" class="edge"><title>Node13&#45;&gt;Node16</title>
<path fill="none" stroke="midnightblue" d="M496.661,-174.878C475.251,-165.725 442.057,-151.536 417.795,-141.164"/>
<polygon fill="midnightblue" stroke="midnightblue" points="418.901,-137.831 408.33,-137.118 416.149,-144.267 418.901,-137.831"/>
</g>
<!-- Node17 -->
<g id="node17" class="node"><title>Node17</title>
<polygon fill="white" stroke="#bfbfbf" points="431.884,-117 431.884,-137 480.116,-137 480.116,-117 431.884,-117"/>
<text text-anchor="middle" x="456" y="-123" font-family="Helvetica,sans-Serif" font-size="10.00">cassert</text>
</g>
<!-- Node13&#45;&gt;Node17 -->
<g id="edge18" class="edge"><title>Node13&#45;&gt;Node17</title>
<path fill="none" stroke="midnightblue" d="M507.762,-174.753C498.463,-166.353 484.55,-153.787 473.49,-143.798"/>
<polygon fill="midnightblue" stroke="midnightblue" points="475.815,-141.181 466.048,-137.075 471.123,-146.375 475.815,-141.181"/>
</g>
<!-- Node18 -->
<g id="node18" class="node"><title>Node18</title>
<polygon fill="white" stroke="#bfbfbf" points="498.613,-117 498.613,-137 537.387,-137 537.387,-117 498.613,-117"/>
<text text-anchor="middle" x="518" y="-123" font-family="Helvetica,sans-Serif" font-size="10.00">limits</text>
</g>
<!-- Node13&#45;&gt;Node18 -->
<g id="edge19" class="edge"><title>Node13&#45;&gt;Node18</title>
<path fill="none" stroke="midnightblue" d="M518,-174.753C518,-167.25 518,-156.424 518,-147.078"/>
<polygon fill="midnightblue" stroke="midnightblue" points="521.5,-147.075 518,-137.075 514.5,-147.075 521.5,-147.075"/>
</g>
<!-- Node19 -->
<g id="node19" class="node"><title>Node19</title>
<g id="a_node19"><a xlink:href="_cinder_math_8h.html" target="_top" xlink:title="cinder/CinderMath.h">
<polygon fill="white" stroke="black" points="554.978,-117 554.978,-137 661.022,-137 661.022,-117 554.978,-117"/>
<text text-anchor="middle" x="608" y="-123" font-family="Helvetica,sans-Serif" font-size="10.00">cinder/CinderMath.h</text>
</a>
</g>
</g>
<!-- Node13&#45;&gt;Node19 -->
<g id="edge20" class="edge"><title>Node13&#45;&gt;Node19</title>
<path fill="none" stroke="midnightblue" d="M532.862,-174.753C547.016,-165.946 568.533,-152.558 584.919,-142.362"/>
<polygon fill="midnightblue" stroke="midnightblue" points="586.773,-145.33 593.415,-137.075 583.075,-139.387 586.773,-145.33"/>
</g>
<!-- Node19&#45;&gt;Node2 -->
<g id="edge21" class="edge"><title>Node19&#45;&gt;Node2</title>
<path fill="none" stroke="midnightblue" d="M566.423,-116.94C521.727,-107.201 450.617,-91.7065 402.434,-81.2073"/>
<polygon fill="midnightblue" stroke="midnightblue" points="403.033,-77.7559 392.517,-79.0466 401.543,-84.5955 403.033,-77.7559"/>
</g>
<!-- Node19&#45;&gt;Node14 -->
<g id="edge22" class="edge"><title>Node19&#45;&gt;Node14</title>
<path fill="none" stroke="midnightblue" d="M620.55,-116.753C632.17,-108.19 649.667,-95.2978 663.346,-85.2186"/>
<polygon fill="midnightblue" stroke="midnightblue" points="665.709,-87.8249 671.684,-79.0752 661.557,-82.1895 665.709,-87.8249"/>
</g>
<!-- Node20 -->
<g id="node20" class="node"><title>Node20</title>
<polygon fill="white" stroke="#bfbfbf" points="595.113,-59 595.113,-79 638.887,-79 638.887,-59 595.113,-59"/>
<text text-anchor="middle" x="617" y="-65" font-family="Helvetica,sans-Serif" font-size="10.00">climits</text>
</g>
<!-- Node19&#45;&gt;Node20 -->
<g id="edge23" class="edge"><title>Node19&#45;&gt;Node20</title>
<path fill="none" stroke="midnightblue" d="M609.486,-116.753C610.692,-109.25 612.432,-98.4238 613.934,-89.0781"/>
<polygon fill="midnightblue" stroke="midnightblue" points="617.41,-89.5039 615.541,-79.0752 610.499,-88.3931 617.41,-89.5039"/>
</g>
<!-- Node21 -->
<g id="node21" class="node"><title>Node21</title>
<polygon fill="white" stroke="#bfbfbf" points="537.049,-59 537.049,-79 576.951,-79 576.951,-59 537.049,-59"/>
<text text-anchor="middle" x="557" y="-65" font-family="Helvetica,sans-Serif" font-size="10.00">cfloat</text>
</g>
<!-- Node19&#45;&gt;Node21 -->
<g id="edge24" class="edge"><title>Node19&#45;&gt;Node21</title>
<path fill="none" stroke="midnightblue" d="M599.578,-116.753C592.152,-108.598 581.148,-96.5158 572.188,-86.6769"/>
<polygon fill="midnightblue" stroke="midnightblue" points="574.586,-84.112 565.265,-79.0752 569.411,-88.8253 574.586,-84.112"/>
</g>
<!-- Node19&#45;&gt;Node12 -->
<g id="edge25" class="edge"><title>Node19&#45;&gt;Node12</title>
<path fill="none" stroke="midnightblue" d="M584.706,-116.878C561.127,-107.644 524.455,-93.283 497.912,-82.8887"/>
<polygon fill="midnightblue" stroke="midnightblue" points="498.871,-79.5056 488.284,-79.1181 496.319,-86.0236 498.871,-79.5056"/>
</g>
</g>
</svg>
        <g id="navigator" transform="translate(0 0)" fill="#404254">
                <rect fill="#f2f5e9" fill-opacity="0.5" stroke="#606060" stroke-width=".5" x="0" y="0" width="60" height="60"/>
                <use id="zoomplus" xlink:href="#zoomPlus" x="17" y="9" onmousedown="handleZoom(evt,'in')"/>
                <use id="zoomminus" xlink:href="#zoomMin" x="42" y="9" onmousedown="handleZoom(evt,'out')"/>
                <use id="reset" xlink:href="#resetDef" x="30" y="36" onmousedown="handleReset()"/>
                <g id="arrowUp" xlink:href="#dirArrow" transform="translate(30 24)" onmousedown="handlePan(0,-1)">
                  <use xlink:href="#rim" fill="#404040">
                        <set attributeName="fill" to="#808080" begin="arrowUp.mouseover" end="arrowUp.mouseout"/>
                  </use>
                  <path fill="none" stroke="white" stroke-width="1.5" d="M0,-3.0v7 M-2.5,-0.5L0,-3.0L2.5,-0.5"/>
                </g>
                <g id="arrowRight" xlink:href="#dirArrow" transform="rotate(90) translate(36 -43)" onmousedown="handlePan(1,0)">
                  <use xlink:href="#rim" fill="#404040">
                        <set attributeName="fill" to="#808080" begin="arrowRight.mouseover" end="arrowRight.mouseout"/>
                  </use>
                  <path fill="none" stroke="white" stroke-width="1.5" d="M0,-3.0v7 M-2.5,-0.5L0,-3.0L2.5,-0.5"/>
                </g>
                <g id="arrowDown" xlink:href="#dirArrow" transform="rotate(180) translate(-30 -48)" onmousedown="handlePan(0,1)">
                  <use xlink:href="#rim" fill="#404040">
                        <set attributeName="fill" to="#808080" begin="arrowDown.mouseover" end="arrowDown.mouseout"/>
                  </use>
                  <path fill="none" stroke="white" stroke-width="1.5" d="M0,-3.0v7 M-2.5,-0.5L0,-3.0L2.5,-0.5"/>
                </g>
                <g id="arrowLeft" xlink:href="#dirArrow" transform="rotate(270) translate(-36 17)" onmousedown="handlePan(-1,0)">
                  <use xlink:href="#rim" fill="#404040">
                        <set attributeName="fill" to="#808080" begin="arrowLeft.mouseover" end="arrowLeft.mouseout"/>
                  </use>
                  <path fill="none" stroke="white" stroke-width="1.5" d="M0,-3.0v7 M-2.5,-0.5L0,-3.0L2.5,-0.5"/>
                </g>
        </g>
        <svg viewBox="0 0 15 15" width="100%" height="30px" preserveAspectRatio="xMaxYMin meet">
         <g id="arrow_out" transform="scale(0.3 0.3)">
          <a xlink:href="_mouse_event_8h__incl_org.svg" target="_base">
           <rect id="button" ry="5" rx="5" y="6" x="6" height="38" width="38"
                fill="#f2f5e9" fill-opacity="0.5" stroke="#606060" stroke-width="1.0"/>
           <path id="arrow"
             d="M 11.500037,31.436501 C 11.940474,20.09759 22.043105,11.32322 32.158766,21.979434 L 37.068811,17.246167 C 37.068811,17.246167 37.088388,32 37.088388,32 L 22.160133,31.978069 C 22.160133,31.978069 26.997745,27.140456 26.997745,27.140456 C 18.528582,18.264221 13.291696,25.230495 11.500037,31.436501 z"
             style="fill:#404040;"/>
          </a>
         </g>
        </svg>
</svg>
