<?xml version="1.0" encoding="UTF-8" standalone="no"?>
<!DOCTYPE svg PUBLIC "-//W3C//DTD SVG 1.1//EN"
 "http://www.w3.org/Graphics/SVG/1.1/DTD/svg11.dtd">
<!-- Generated by graphviz version 2.30.1 (20140712.1814)
 -->
<!-- Title: include/cinder/audio/NodeEffects.h Pages: 1 -->
<svg width="1071pt" height="448pt"
 viewBox="0.00 0.00 1070.52 448.00" xmlns="http://www.w3.org/2000/svg" xmlns:xlink="http://www.w3.org/1999/xlink">
<g id="graph0" class="graph" transform="scale(1 1) rotate(0) translate(4 444)">
<title>include/cinder/audio/NodeEffects.h</title>
<polygon fill="white" stroke="white" points="-4,5 -4,-444 1067.52,-444 1067.52,5 -4,5"/>
<!-- Node1 -->
<g id="node1" class="node"><title>Node1</title>
<polygon fill="#bfbfbf" stroke="black" points="441.525,-407 441.525,-439 546.475,-439 546.475,-407 441.525,-407"/>
<text text-anchor="start" x="449.525" y="-425" font-family="Helvetica,sans-Serif" font-size="10.00">include/cinder/audio</text>
<text text-anchor="middle" x="494" y="-413" font-family="Helvetica,sans-Serif" font-size="10.00">/NodeEffects.h</text>
</g>
<!-- Node2 -->
<g id="node2" class="node"><title>Node2</title>
<g id="a_node2"><a xlink:href="_gain_node_8h.html" target="_top" xlink:title="cinder/audio/GainNode.h">
<polygon fill="white" stroke="black" points="521.685,-349 521.685,-369 648.315,-369 648.315,-349 521.685,-349"/>
<text text-anchor="middle" x="585" y="-355" font-family="Helvetica,sans-Serif" font-size="10.00">cinder/audio/GainNode.h</text>
</a>
</g>
</g>
<!-- Node1&#45;&gt;Node2 -->
<g id="edge1" class="edge"><title>Node1&#45;&gt;Node2</title>
<path fill="none" stroke="midnightblue" d="M516.029,-406.992C530.268,-397.29 548.73,-384.711 562.97,-375.009"/>
<polygon fill="midnightblue" stroke="midnightblue" points="565.337,-377.632 571.631,-369.109 561.396,-371.847 565.337,-377.632"/>
</g>
<!-- Node3 -->
<g id="node3" class="node"><title>Node3</title>
<g id="a_node3"><a xlink:href="_node_math_8h.html" target="_top" xlink:title="cinder/audio/NodeMath.h">
<polygon fill="white" stroke="black" points="521.131,-291 521.131,-311 648.869,-311 648.869,-291 521.131,-291"/>
<text text-anchor="middle" x="585" y="-297" font-family="Helvetica,sans-Serif" font-size="10.00">cinder/audio/NodeMath.h</text>
</a>
</g>
</g>
<!-- Node1&#45;&gt;Node3 -->
<g id="edge37" class="edge"><title>Node1&#45;&gt;Node3</title>
<path fill="none" stroke="midnightblue" d="M494.68,-406.73C496.083,-390.723 500.319,-365.51 513,-348 523.135,-334.006 538.954,-323.223 553.185,-315.627"/>
<polygon fill="midnightblue" stroke="midnightblue" points="554.86,-318.702 562.233,-311.093 551.724,-312.444 554.86,-318.702"/>
</g>
<!-- Node31 -->
<g id="node31" class="node"><title>Node31</title>
<g id="a_node31"><a xlink:href="_delay_node_8h.html" target="_top" xlink:title="cinder/audio/DelayNode.h">
<polygon fill="white" stroke="black" points="230.463,-291 230.463,-311 361.537,-311 361.537,-291 230.463,-291"/>
<text text-anchor="middle" x="296" y="-297" font-family="Helvetica,sans-Serif" font-size="10.00">cinder/audio/DelayNode.h</text>
</a>
</g>
</g>
<!-- Node1&#45;&gt;Node31 -->
<g id="edge38" class="edge"><title>Node1&#45;&gt;Node31</title>
<path fill="none" stroke="midnightblue" d="M468.923,-406.802C430.551,-383.546 357.754,-339.427 320.023,-316.56"/>
<polygon fill="midnightblue" stroke="midnightblue" points="321.594,-313.419 311.228,-311.229 317.966,-319.406 321.594,-313.419"/>
</g>
<!-- Node32 -->
<g id="node32" class="node"><title>Node32</title>
<g id="a_node32"><a xlink:href="_pan_node_8h.html" target="_top" xlink:title="cinder/audio/PanNode.h">
<polygon fill="white" stroke="black" points="379.35,-291 379.35,-311 502.65,-311 502.65,-291 379.35,-291"/>
<text text-anchor="middle" x="441" y="-297" font-family="Helvetica,sans-Serif" font-size="10.00">cinder/audio/PanNode.h</text>
</a>
</g>
</g>
<!-- Node1&#45;&gt;Node32 -->
<g id="edge41" class="edge"><title>Node1&#45;&gt;Node32</title>
<path fill="none" stroke="midnightblue" d="M487.288,-406.802C477.582,-384.827 459.649,-344.224 449.182,-320.525"/>
<polygon fill="midnightblue" stroke="midnightblue" points="452.318,-318.963 445.076,-311.229 445.915,-321.791 452.318,-318.963"/>
</g>
<!-- Node33 -->
<g id="node33" class="node"><title>Node33</title>
<g id="a_node33"><a xlink:href="_filter_node_8h.html" target="_top" xlink:title="cinder/audio/FilterNode.h">
<polygon fill="white" stroke="black" points="667.136,-291 667.136,-311 794.864,-311 794.864,-291 667.136,-291"/>
<text text-anchor="middle" x="731" y="-297" font-family="Helvetica,sans-Serif" font-size="10.00">cinder/audio/FilterNode.h</text>
</a>
</g>
</g>
<!-- Node1&#45;&gt;Node33 -->
<g id="edge44" class="edge"><title>Node1&#45;&gt;Node33</title>
<path fill="none" stroke="midnightblue" d="M546.692,-411.351C579.852,-403.195 622.706,-389.909 657,-370 680.426,-356.4 702.654,-334.287 716.522,-318.987"/>
<polygon fill="midnightblue" stroke="midnightblue" points="719.326,-321.099 723.321,-311.286 714.079,-316.467 719.326,-321.099"/>
</g>
<!-- Node2&#45;&gt;Node3 -->
<g id="edge2" class="edge"><title>Node2&#45;&gt;Node3</title>
<path fill="none" stroke="midnightblue" d="M585,-348.753C585,-341.25 585,-330.424 585,-321.078"/>
<polygon fill="midnightblue" stroke="midnightblue" points="588.5,-321.075 585,-311.075 581.5,-321.075 588.5,-321.075"/>
</g>
<!-- Node4 -->
<g id="node4" class="node"><title>Node4</title>
<g id="a_node4"><a xlink:href="_node_8h.html" target="_top" xlink:title="cinder/audio/Node.h">
<polygon fill="white" stroke="black" points="536.247,-233 536.247,-253 641.753,-253 641.753,-233 536.247,-233"/>
<text text-anchor="middle" x="589" y="-239" font-family="Helvetica,sans-Serif" font-size="10.00">cinder/audio/Node.h</text>
</a>
</g>
</g>
<!-- Node3&#45;&gt;Node4 -->
<g id="edge3" class="edge"><title>Node3&#45;&gt;Node4</title>
<path fill="none" stroke="midnightblue" d="M585.661,-290.753C586.196,-283.25 586.97,-272.424 587.637,-263.078"/>
<polygon fill="midnightblue" stroke="midnightblue" points="591.13,-263.299 588.352,-253.075 584.148,-262.8 591.13,-263.299"/>
</g>
<!-- Node24 -->
<g id="node24" class="node"><title>Node24</title>
<g id="a_node24"><a xlink:href="_param_8h.html" target="_top" xlink:title="cinder/audio/Param.h">
<polygon fill="white" stroke="black" points="240.473,-233 240.473,-253 351.527,-253 351.527,-233 240.473,-233"/>
<text text-anchor="middle" x="296" y="-239" font-family="Helvetica,sans-Serif" font-size="10.00">cinder/audio/Param.h</text>
</a>
</g>
</g>
<!-- Node3&#45;&gt;Node24 -->
<g id="edge26" class="edge"><title>Node3&#45;&gt;Node24</title>
<path fill="none" stroke="midnightblue" d="M538.246,-290.94C487.669,-281.14 407.016,-265.512 352.821,-255.01"/>
<polygon fill="midnightblue" stroke="midnightblue" points="353.17,-251.513 342.687,-253.047 351.838,-258.385 353.17,-251.513"/>
</g>
<!-- Node27 -->
<g id="node27" class="node"><title>Node27</title>
<g id="a_node27"><a xlink:href="_cinder_math_8h.html" target="_top" xlink:title="cinder/CinderMath.h">
<polygon fill="white" stroke="black" points="104.978,-175 104.978,-195 211.022,-195 211.022,-175 104.978,-175"/>
<text text-anchor="middle" x="158" y="-181" font-family="Helvetica,sans-Serif" font-size="10.00">cinder/CinderMath.h</text>
</a>
</g>
</g>
<!-- Node3&#45;&gt;Node27 -->
<g id="edge31" class="edge"><title>Node3&#45;&gt;Node27</title>
<path fill="none" stroke="midnightblue" d="M557.117,-290.889C514.772,-277.209 431.601,-250.948 360,-232 309.996,-218.767 252.425,-205.885 211.57,-197.136"/>
<polygon fill="midnightblue" stroke="midnightblue" points="212.068,-193.663 201.558,-195.003 210.609,-200.51 212.068,-193.663"/>
</g>
<!-- Node5 -->
<g id="node5" class="node"><title>Node5</title>
<g id="a_node5"><a xlink:href="audio_2_buffer_8h.html" target="_top" xlink:title="cinder/audio/Buffer.h">
<polygon fill="white" stroke="black" points="938.221,-175 938.221,-195 1045.78,-195 1045.78,-175 938.221,-175"/>
<text text-anchor="middle" x="992" y="-181" font-family="Helvetica,sans-Serif" font-size="10.00">cinder/audio/Buffer.h</text>
</a>
</g>
</g>
<!-- Node4&#45;&gt;Node5 -->
<g id="edge4" class="edge"><title>Node4&#45;&gt;Node5</title>
<path fill="none" stroke="midnightblue" d="M642.018,-234.002C646.745,-233.314 651.458,-232.638 656,-232 773.997,-215.415 806.206,-213.678 927.965,-196.12"/>
<polygon fill="midnightblue" stroke="midnightblue" points="928.663,-199.555 938.058,-194.658 927.659,-192.628 928.663,-199.555"/>
</g>
<!-- Node13 -->
<g id="node13" class="node"><title>Node13</title>
<g id="a_node13"><a xlink:href="audio_2_exception_8h.html" target="_top" xlink:title="cinder/audio/Exception.h">
<polygon fill="white" stroke="black" points="617.242,-175 617.242,-195 742.758,-195 742.758,-175 617.242,-175"/>
<text text-anchor="middle" x="680" y="-181" font-family="Helvetica,sans-Serif" font-size="10.00">cinder/audio/Exception.h</text>
</a>
</g>
</g>
<!-- Node4&#45;&gt;Node13 -->
<g id="edge12" class="edge"><title>Node4&#45;&gt;Node13</title>
<path fill="none" stroke="midnightblue" d="M604.027,-232.753C618.338,-223.946 640.094,-210.558 656.662,-200.362"/>
<polygon fill="midnightblue" stroke="midnightblue" points="658.571,-203.297 665.253,-195.075 654.902,-197.335 658.571,-203.297"/>
</g>
<!-- Node20 -->
<g id="node20" class="node"><title>Node20</title>
<polygon fill="white" stroke="#bfbfbf" points="305.291,-175 305.291,-195 424.709,-195 424.709,-175 305.291,-175"/>
<text text-anchor="middle" x="365" y="-181" font-family="Helvetica,sans-Serif" font-size="10.00">boost/noncopyable.hpp</text>
</g>
<!-- Node4&#45;&gt;Node20 -->
<g id="edge21" class="edge"><title>Node4&#45;&gt;Node20</title>
<path fill="none" stroke="midnightblue" d="M552.512,-232.878C513.916,-223.229 452.926,-207.982 411.047,-197.512"/>
<polygon fill="midnightblue" stroke="midnightblue" points="411.652,-194.055 401.101,-195.025 409.954,-200.846 411.652,-194.055"/>
</g>
<!-- Node21 -->
<g id="node21" class="node"><title>Node21</title>
<polygon fill="white" stroke="#bfbfbf" points="760.357,-175 760.357,-195 873.643,-195 873.643,-175 760.357,-175"/>
<text text-anchor="middle" x="817" y="-181" font-family="Helvetica,sans-Serif" font-size="10.00">boost/logic/tribool.hpp</text>
</g>
<!-- Node4&#45;&gt;Node21 -->
<g id="edge22" class="edge"><title>Node4&#45;&gt;Node21</title>
<path fill="none" stroke="midnightblue" d="M625.886,-232.94C665.206,-223.283 727.569,-207.965 770.293,-197.472"/>
<polygon fill="midnightblue" stroke="midnightblue" points="771.291,-200.831 780.167,-195.047 769.621,-194.033 771.291,-200.831"/>
</g>
<!-- Node10 -->
<g id="node10" class="node"><title>Node10</title>
<polygon fill="white" stroke="#bfbfbf" points="611.943,-117 611.943,-137 664.057,-137 664.057,-117 611.943,-117"/>
<text text-anchor="middle" x="638" y="-123" font-family="Helvetica,sans-Serif" font-size="10.00">memory</text>
</g>
<!-- Node4&#45;&gt;Node10 -->
<g id="edge23" class="edge"><title>Node4&#45;&gt;Node10</title>
<path fill="none" stroke="midnightblue" d="M590.623,-232.893C593.203,-219.552 598.899,-194.099 608,-174 612.563,-163.922 619.153,-153.53 624.995,-145.179"/>
<polygon fill="midnightblue" stroke="midnightblue" points="627.868,-147.178 630.909,-137.029 622.203,-143.067 627.868,-147.178"/>
</g>
<!-- Node22 -->
<g id="node22" class="node"><title>Node22</title>
<polygon fill="white" stroke="#bfbfbf" points="295.273,-117 295.273,-137 340.727,-137 340.727,-117 295.273,-117"/>
<text text-anchor="middle" x="318" y="-123" font-family="Helvetica,sans-Serif" font-size="10.00">atomic</text>
</g>
<!-- Node4&#45;&gt;Node22 -->
<g id="edge24" class="edge"><title>Node4&#45;&gt;Node22</title>
<path fill="none" stroke="midnightblue" d="M536.16,-237.402C456.024,-229.889 311.395,-214 296,-196 283.845,-181.788 293.628,-160.74 303.73,-145.832"/>
<polygon fill="midnightblue" stroke="midnightblue" points="306.779,-147.593 309.869,-137.459 301.133,-143.454 306.779,-147.593"/>
</g>
<!-- Node23 -->
<g id="node23" class="node"><title>Node23</title>
<polygon fill="white" stroke="#bfbfbf" points="891.33,-175 891.33,-195 920.67,-195 920.67,-175 891.33,-175"/>
<text text-anchor="middle" x="906" y="-181" font-family="Helvetica,sans-Serif" font-size="10.00">set</text>
</g>
<!-- Node4&#45;&gt;Node23 -->
<g id="edge25" class="edge"><title>Node4&#45;&gt;Node23</title>
<path fill="none" stroke="midnightblue" d="M641.796,-234.045C714.938,-222.981 841.824,-203.618 881.458,-195.179"/>
<polygon fill="midnightblue" stroke="midnightblue" points="882.328,-198.57 891.218,-192.806 880.674,-191.768 882.328,-198.57"/>
</g>
<!-- Node6 -->
<g id="node6" class="node"><title>Node6</title>
<g id="a_node6"><a xlink:href="_cinder_assert_8h.html" target="_top" xlink:title="cinder/CinderAssert.h">
<polygon fill="white" stroke="black" points="719.924,-117 719.924,-137 832.076,-137 832.076,-117 719.924,-117"/>
<text text-anchor="middle" x="776" y="-123" font-family="Helvetica,sans-Serif" font-size="10.00">cinder/CinderAssert.h</text>
</a>
</g>
</g>
<!-- Node5&#45;&gt;Node6 -->
<g id="edge5" class="edge"><title>Node5&#45;&gt;Node6</title>
<path fill="none" stroke="midnightblue" d="M956.815,-174.878C919.676,-165.249 861.035,-150.046 820.659,-139.578"/>
<polygon fill="midnightblue" stroke="midnightblue" points="821.37,-136.147 810.812,-137.025 819.613,-142.923 821.37,-136.147"/>
</g>
<!-- Node9 -->
<g id="node9" class="node"><title>Node9</title>
<polygon fill="white" stroke="#bfbfbf" points="974.384,-59 974.384,-79 1017.62,-79 1017.62,-59 974.384,-59"/>
<text text-anchor="middle" x="996" y="-65" font-family="Helvetica,sans-Serif" font-size="10.00">vector</text>
</g>
<!-- Node5&#45;&gt;Node9 -->
<g id="edge8" class="edge"><title>Node5&#45;&gt;Node9</title>
<path fill="none" stroke="midnightblue" d="M998.865,-174.717C1004.99,-165.818 1013.51,-151.742 1017,-138 1021.36,-120.848 1014.27,-101.602 1007.17,-87.9745"/>
<polygon fill="midnightblue" stroke="midnightblue" points="1010.15,-86.1263 1002.17,-79.155 1004.06,-89.58 1010.15,-86.1263"/>
</g>
<!-- Node5&#45;&gt;Node10 -->
<g id="edge9" class="edge"><title>Node5&#45;&gt;Node10</title>
<path fill="none" stroke="midnightblue" d="M938.044,-175.433C934.984,-174.948 931.953,-174.468 929,-174 837.166,-159.453 729.021,-142.371 674.036,-133.689"/>
<polygon fill="midnightblue" stroke="midnightblue" points="674.51,-130.22 664.086,-132.118 673.418,-137.135 674.51,-130.22"/>
</g>
<!-- Node11 -->
<g id="node11" class="node"><title>Node11</title>
<polygon fill="white" stroke="#bfbfbf" points="963.828,-117 963.828,-137 1008.17,-137 1008.17,-117 963.828,-117"/>
<text text-anchor="middle" x="986" y="-123" font-family="Helvetica,sans-Serif" font-size="10.00">cstdlib</text>
</g>
<!-- Node5&#45;&gt;Node11 -->
<g id="edge10" class="edge"><title>Node5&#45;&gt;Node11</title>
<path fill="none" stroke="midnightblue" d="M991.009,-174.753C990.205,-167.25 989.045,-156.424 988.044,-147.078"/>
<polygon fill="midnightblue" stroke="midnightblue" points="991.518,-146.645 986.972,-137.075 984.558,-147.391 991.518,-146.645"/>
</g>
<!-- Node12 -->
<g id="node12" class="node"><title>Node12</title>
<polygon fill="white" stroke="#bfbfbf" points="888.436,-117 888.436,-137 945.564,-137 945.564,-117 888.436,-117"/>
<text text-anchor="middle" x="917" y="-123" font-family="Helvetica,sans-Serif" font-size="10.00">algorithm</text>
</g>
<!-- Node5&#45;&gt;Node12 -->
<g id="edge11" class="edge"><title>Node5&#45;&gt;Node12</title>
<path fill="none" stroke="midnightblue" d="M979.615,-174.753C968.148,-166.19 950.881,-153.298 937.382,-143.219"/>
<polygon fill="midnightblue" stroke="midnightblue" points="939.261,-140.254 929.154,-137.075 935.073,-145.863 939.261,-140.254"/>
</g>
<!-- Node7 -->
<g id="node7" class="node"><title>Node7</title>
<g id="a_node7"><a xlink:href="_current_function_8h.html" target="_top" xlink:title="cinder/CurrentFunction.h">
<polygon fill="white" stroke="black" points="751.973,-59 751.973,-79 878.027,-79 878.027,-59 751.973,-59"/>
<text text-anchor="middle" x="815" y="-65" font-family="Helvetica,sans-Serif" font-size="10.00">cinder/CurrentFunction.h</text>
</a>
</g>
</g>
<!-- Node6&#45;&gt;Node7 -->
<g id="edge6" class="edge"><title>Node6&#45;&gt;Node7</title>
<path fill="none" stroke="midnightblue" d="M782.44,-116.753C787.949,-108.843 796.031,-97.2372 802.765,-87.5683"/>
<polygon fill="midnightblue" stroke="midnightblue" points="805.837,-89.2815 808.68,-79.0752 800.093,-85.281 805.837,-89.2815"/>
</g>
<!-- Node8 -->
<g id="node8" class="node"><title>Node8</title>
<polygon fill="white" stroke="#bfbfbf" points="685.884,-59 685.884,-79 734.116,-79 734.116,-59 685.884,-59"/>
<text text-anchor="middle" x="710" y="-65" font-family="Helvetica,sans-Serif" font-size="10.00">cassert</text>
</g>
<!-- Node6&#45;&gt;Node8 -->
<g id="edge7" class="edge"><title>Node6&#45;&gt;Node8</title>
<path fill="none" stroke="midnightblue" d="M765.101,-116.753C755.202,-108.353 740.392,-95.7874 728.619,-85.7976"/>
<polygon fill="midnightblue" stroke="midnightblue" points="730.585,-82.8762 720.696,-79.0752 726.056,-88.2138 730.585,-82.8762"/>
</g>
<!-- Node14 -->
<g id="node14" class="node"><title>Node14</title>
<g id="a_node14"><a xlink:href="_exception_8h.html" target="_top" xlink:title="cinder/Exception.h">
<polygon fill="white" stroke="black" points="495.865,-117 495.865,-137 594.135,-137 594.135,-117 495.865,-117"/>
<text text-anchor="middle" x="545" y="-123" font-family="Helvetica,sans-Serif" font-size="10.00">cinder/Exception.h</text>
</a>
</g>
</g>
<!-- Node13&#45;&gt;Node14 -->
<g id="edge13" class="edge"><title>Node13&#45;&gt;Node14</title>
<path fill="none" stroke="midnightblue" d="M658.009,-174.878C635.847,-165.685 601.434,-151.409 576.403,-141.026"/>
<polygon fill="midnightblue" stroke="midnightblue" points="577.559,-137.717 566.981,-137.118 574.877,-144.183 577.559,-137.717"/>
</g>
<!-- Node19 -->
<g id="node19" class="node"><title>Node19</title>
<polygon fill="white" stroke="#bfbfbf" points="597.773,-59 597.773,-79 638.227,-79 638.227,-59 597.773,-59"/>
<text text-anchor="middle" x="618" y="-65" font-family="Helvetica,sans-Serif" font-size="10.00">string</text>
</g>
<!-- Node13&#45;&gt;Node19 -->
<g id="edge20" class="edge"><title>Node13&#45;&gt;Node19</title>
<path fill="none" stroke="midnightblue" d="M681.166,-174.567C682.412,-160.819 683.024,-134.864 673,-116 666.225,-103.25 654.298,-92.6098 643.279,-84.7858"/>
<polygon fill="midnightblue" stroke="midnightblue" points="645.02,-81.7405 634.752,-79.1281 641.15,-87.5734 645.02,-81.7405"/>
</g>
<!-- Node15 -->
<g id="node15" class="node"><title>Node15</title>
<g id="a_node15"><a xlink:href="_cinder_8h.html" target="_top" xlink:title="cinder/Cinder.h">
<polygon fill="white" stroke="black" points="426.367,-59 426.367,-79 509.633,-79 509.633,-59 426.367,-59"/>
<text text-anchor="middle" x="468" y="-65" font-family="Helvetica,sans-Serif" font-size="10.00">cinder/Cinder.h</text>
</a>
</g>
</g>
<!-- Node14&#45;&gt;Node15 -->
<g id="edge14" class="edge"><title>Node14&#45;&gt;Node15</title>
<path fill="none" stroke="midnightblue" d="M532.285,-116.753C520.512,-108.19 502.784,-95.2978 488.926,-85.2186"/>
<polygon fill="midnightblue" stroke="midnightblue" points="490.624,-82.1264 480.478,-79.0752 486.507,-87.7875 490.624,-82.1264"/>
</g>
<!-- Node14&#45;&gt;Node9 -->
<g id="edge18" class="edge"><title>Node14&#45;&gt;Node9</title>
<path fill="none" stroke="midnightblue" d="M594.332,-117.307C597.262,-116.849 600.168,-116.41 603,-116 736.635,-96.6734 896.741,-79.9068 963.889,-73.1626"/>
<polygon fill="midnightblue" stroke="midnightblue" points="964.616,-76.6075 974.218,-72.1307 963.92,-69.6421 964.616,-76.6075"/>
</g>
<!-- Node14&#45;&gt;Node19 -->
<g id="edge19" class="edge"><title>Node14&#45;&gt;Node19</title>
<path fill="none" stroke="midnightblue" d="M557.054,-116.753C568.216,-108.19 585.023,-95.2978 598.161,-85.2186"/>
<polygon fill="midnightblue" stroke="midnightblue" points="600.366,-87.9388 606.17,-79.0752 596.105,-82.3848 600.366,-87.9388"/>
</g>
<!-- Node16 -->
<g id="node16" class="node"><title>Node16</title>
<polygon fill="white" stroke="#bfbfbf" points="357.549,-1 357.549,-21 402.451,-21 402.451,-1 357.549,-1"/>
<text text-anchor="middle" x="380" y="-7" font-family="Helvetica,sans-Serif" font-size="10.00">cstdint</text>
</g>
<!-- Node15&#45;&gt;Node16 -->
<g id="edge15" class="edge"><title>Node15&#45;&gt;Node16</title>
<path fill="none" stroke="midnightblue" d="M453.469,-58.7527C439.757,-50.0272 418.979,-36.8051 403.015,-26.6458"/>
<polygon fill="midnightblue" stroke="midnightblue" points="404.577,-23.4912 394.261,-21.0752 400.819,-29.3968 404.577,-23.4912"/>
</g>
<!-- Node17 -->
<g id="node17" class="node"><title>Node17</title>
<polygon fill="white" stroke="#bfbfbf" points="420.53,-1 420.53,-21 515.47,-21 515.47,-1 420.53,-1"/>
<text text-anchor="middle" x="468" y="-7" font-family="Helvetica,sans-Serif" font-size="10.00">boost/version.hpp</text>
</g>
<!-- Node15&#45;&gt;Node17 -->
<g id="edge16" class="edge"><title>Node15&#45;&gt;Node17</title>
<path fill="none" stroke="midnightblue" d="M468,-58.7527C468,-51.2504 468,-40.4238 468,-31.0781"/>
<polygon fill="midnightblue" stroke="midnightblue" points="471.5,-31.0752 468,-21.0752 464.5,-31.0752 471.5,-31.0752"/>
</g>
<!-- Node18 -->
<g id="node18" class="node"><title>Node18</title>
<polygon fill="white" stroke="#bfbfbf" points="533.621,-1 533.621,-21 666.379,-21 666.379,-1 533.621,-1"/>
<text text-anchor="middle" x="600" y="-7" font-family="Helvetica,sans-Serif" font-size="10.00">boost/checked_delete.hpp</text>
</g>
<!-- Node15&#45;&gt;Node18 -->
<g id="edge17" class="edge"><title>Node15&#45;&gt;Node18</title>
<path fill="none" stroke="midnightblue" d="M489.502,-58.878C511.172,-49.6848 544.821,-35.4095 569.295,-25.0263"/>
<polygon fill="midnightblue" stroke="midnightblue" points="570.668,-28.2457 578.507,-21.1181 567.935,-21.8016 570.668,-28.2457"/>
</g>
<!-- Node24&#45;&gt;Node5 -->
<g id="edge27" class="edge"><title>Node24&#45;&gt;Node5</title>
<path fill="none" stroke="midnightblue" d="M351.609,-239.548C460.299,-234.41 708.709,-220.971 927.995,-196.025"/>
<polygon fill="midnightblue" stroke="midnightblue" points="928.55,-199.484 938.085,-194.866 927.751,-192.53 928.55,-199.484"/>
</g>
<!-- Node25 -->
<g id="node25" class="node"><title>Node25</title>
<polygon fill="white" stroke="#bfbfbf" points="57.5,-175 57.5,-195 86.5,-195 86.5,-175 57.5,-175"/>
<text text-anchor="middle" x="71.6108" y="-181" font-family="Helvetica,sans-Serif" font-size="10.00">list</text>
</g>
<!-- Node24&#45;&gt;Node25 -->
<g id="edge28" class="edge"><title>Node24&#45;&gt;Node25</title>
<path fill="none" stroke="midnightblue" d="M246.056,-232.947C205.211,-224.965 146.21,-212.108 96,-196 95.9033,-195.969 95.8064,-195.938 95.7094,-195.906"/>
<polygon fill="midnightblue" stroke="midnightblue" points="97.1697,-192.715 86.5764,-192.533 94.7446,-199.281 97.1697,-192.715"/>
</g>
<!-- Node24&#45;&gt;Node22 -->
<g id="edge29" class="edge"><title>Node24&#45;&gt;Node22</title>
<path fill="none" stroke="midnightblue" d="M285.922,-232.802C272.928,-219.77 253.112,-195.161 263,-174 269.071,-161.008 280.816,-150.394 291.899,-142.648"/>
<polygon fill="midnightblue" stroke="midnightblue" points="294.034,-145.435 300.524,-137.06 290.228,-139.56 294.034,-145.435"/>
</g>
<!-- Node26 -->
<g id="node26" class="node"><title>Node26</title>
<polygon fill="white" stroke="#bfbfbf" points="-0.403809,-117 -0.403809,-137 58.4038,-137 58.4038,-117 -0.403809,-117"/>
<text text-anchor="middle" x="29" y="-123" font-family="Helvetica,sans-Serif" font-size="10.00">functional</text>
</g>
<!-- Node24&#45;&gt;Node26 -->
<g id="edge30" class="edge"><title>Node24&#45;&gt;Node26</title>
<path fill="none" stroke="midnightblue" d="M240.423,-238.442C176.111,-233.199 75.5055,-221.159 48,-196 34.4625,-183.618 30.2599,-162.47 29.1043,-147.039"/>
<polygon fill="midnightblue" stroke="midnightblue" points="32.6006,-146.876 28.7114,-137.021 25.606,-147.15 32.6006,-146.876"/>
</g>
<!-- Node27&#45;&gt;Node15 -->
<g id="edge32" class="edge"><title>Node27&#45;&gt;Node15</title>
<path fill="none" stroke="midnightblue" d="M164.188,-174.782C174.756,-159.83 197.8,-130.506 225,-116 285.254,-83.8652 364.431,-73.9042 415.762,-70.9685"/>
<polygon fill="midnightblue" stroke="midnightblue" points="416.148,-74.4536 425.96,-70.4568 415.797,-67.4624 416.148,-74.4536"/>
</g>
<!-- Node28 -->
<g id="node28" class="node"><title>Node28</title>
<polygon fill="white" stroke="#bfbfbf" points="234.384,-117 234.384,-137 277.616,-137 277.616,-117 234.384,-117"/>
<text text-anchor="middle" x="256" y="-123" font-family="Helvetica,sans-Serif" font-size="10.00">cmath</text>
</g>
<!-- Node27&#45;&gt;Node28 -->
<g id="edge33" class="edge"><title>Node27&#45;&gt;Node28</title>
<path fill="none" stroke="midnightblue" d="M174.183,-174.753C189.738,-165.864 213.459,-152.309 231.361,-142.079"/>
<polygon fill="midnightblue" stroke="midnightblue" points="233.172,-145.075 240.118,-137.075 229.699,-138.998 233.172,-145.075"/>
</g>
<!-- Node29 -->
<g id="node29" class="node"><title>Node29</title>
<polygon fill="white" stroke="#bfbfbf" points="76.1133,-117 76.1133,-137 119.887,-137 119.887,-117 76.1133,-117"/>
<text text-anchor="middle" x="98" y="-123" font-family="Helvetica,sans-Serif" font-size="10.00">climits</text>
</g>
<!-- Node27&#45;&gt;Node29 -->
<g id="edge34" class="edge"><title>Node27&#45;&gt;Node29</title>
<path fill="none" stroke="midnightblue" d="M148.092,-174.753C139.18,-166.435 125.89,-154.031 115.238,-144.089"/>
<polygon fill="midnightblue" stroke="midnightblue" points="117.422,-141.34 107.723,-137.075 112.646,-146.457 117.422,-141.34"/>
</g>
<!-- Node30 -->
<g id="node30" class="node"><title>Node30</title>
<polygon fill="white" stroke="#bfbfbf" points="138.049,-117 138.049,-137 177.951,-137 177.951,-117 138.049,-117"/>
<text text-anchor="middle" x="158" y="-123" font-family="Helvetica,sans-Serif" font-size="10.00">cfloat</text>
</g>
<!-- Node27&#45;&gt;Node30 -->
<g id="edge35" class="edge"><title>Node27&#45;&gt;Node30</title>
<path fill="none" stroke="midnightblue" d="M158,-174.753C158,-167.25 158,-156.424 158,-147.078"/>
<polygon fill="midnightblue" stroke="midnightblue" points="161.5,-147.075 158,-137.075 154.5,-147.075 161.5,-147.075"/>
</g>
<!-- Node27&#45;&gt;Node26 -->
<g id="edge36" class="edge"><title>Node27&#45;&gt;Node26</title>
<path fill="none" stroke="midnightblue" d="M136.987,-174.878C115.903,-165.725 83.2162,-151.536 59.325,-141.164"/>
<polygon fill="midnightblue" stroke="midnightblue" points="60.5709,-137.89 50.0042,-137.118 57.7834,-144.311 60.5709,-137.89"/>
</g>
<!-- Node31&#45;&gt;Node4 -->
<g id="edge39" class="edge"><title>Node31&#45;&gt;Node4</title>
<path fill="none" stroke="midnightblue" d="M343.401,-290.94C394.785,-281.12 476.788,-265.447 531.735,-254.945"/>
<polygon fill="midnightblue" stroke="midnightblue" points="532.502,-258.362 541.667,-253.047 531.188,-251.486 532.502,-258.362"/>
</g>
<!-- Node31&#45;&gt;Node24 -->
<g id="edge40" class="edge"><title>Node31&#45;&gt;Node24</title>
<path fill="none" stroke="midnightblue" d="M296,-290.753C296,-283.25 296,-272.424 296,-263.078"/>
<polygon fill="midnightblue" stroke="midnightblue" points="299.5,-263.075 296,-253.075 292.5,-263.075 299.5,-263.075"/>
</g>
<!-- Node32&#45;&gt;Node4 -->
<g id="edge42" class="edge"><title>Node32&#45;&gt;Node4</title>
<path fill="none" stroke="midnightblue" d="M465.108,-290.878C489.62,-281.603 527.801,-267.156 555.3,-256.752"/>
<polygon fill="midnightblue" stroke="midnightblue" points="556.788,-259.931 564.902,-253.118 554.311,-253.384 556.788,-259.931"/>
</g>
<!-- Node32&#45;&gt;Node24 -->
<g id="edge43" class="edge"><title>Node32&#45;&gt;Node24</title>
<path fill="none" stroke="midnightblue" d="M417.381,-290.878C393.366,-281.603 355.959,-267.156 329.017,-256.752"/>
<polygon fill="midnightblue" stroke="midnightblue" points="330.199,-253.456 319.609,-253.118 327.677,-259.986 330.199,-253.456"/>
</g>
<!-- Node33&#45;&gt;Node4 -->
<g id="edge45" class="edge"><title>Node33&#45;&gt;Node4</title>
<path fill="none" stroke="midnightblue" d="M707.869,-290.878C684.455,-281.644 648.039,-267.283 621.682,-256.889"/>
<polygon fill="midnightblue" stroke="midnightblue" points="622.708,-253.531 612.121,-253.118 620.14,-260.043 622.708,-253.531"/>
</g>
<!-- Node34 -->
<g id="node34" class="node"><title>Node34</title>
<g id="a_node34"><a xlink:href="_biquad_8h.html" target="_top" xlink:title="cinder/audio/dsp/Biquad.h">
<polygon fill="white" stroke="black" points="665.18,-233 665.18,-253 796.82,-253 796.82,-233 665.18,-233"/>
<text text-anchor="middle" x="731" y="-239" font-family="Helvetica,sans-Serif" font-size="10.00">cinder/audio/dsp/Biquad.h</text>
</a>
</g>
</g>
<!-- Node33&#45;&gt;Node34 -->
<g id="edge46" class="edge"><title>Node33&#45;&gt;Node34</title>
<path fill="none" stroke="midnightblue" d="M731,-290.753C731,-283.25 731,-272.424 731,-263.078"/>
<polygon fill="midnightblue" stroke="midnightblue" points="734.5,-263.075 731,-253.075 727.5,-263.075 734.5,-263.075"/>
</g>
<!-- Node33&#45;&gt;Node9 -->
<g id="edge54" class="edge"><title>Node33&#45;&gt;Node9</title>
<path fill="none" stroke="midnightblue" d="M794.894,-300.13C870.853,-296.415 994.766,-277.301 1054,-196 1079.96,-160.37 1039.13,-111.267 1013.76,-86.1791"/>
<polygon fill="midnightblue" stroke="midnightblue" points="1016.12,-83.5914 1006.48,-79.2058 1011.28,-88.6486 1016.12,-83.5914"/>
</g>
<!-- Node35 -->
<g id="node35" class="node"><title>Node35</title>
<g id="a_node35"><a xlink:href="_dsp_8h.html" target="_top" xlink:title="cinder/audio/dsp/Dsp.h">
<polygon fill="white" stroke="black" points="442.857,-175 442.857,-195 561.143,-195 561.143,-175 442.857,-175"/>
<text text-anchor="middle" x="502" y="-181" font-family="Helvetica,sans-Serif" font-size="10.00">cinder/audio/dsp/Dsp.h</text>
</a>
</g>
</g>
<!-- Node34&#45;&gt;Node35 -->
<g id="edge47" class="edge"><title>Node34&#45;&gt;Node35</title>
<path fill="none" stroke="midnightblue" d="M693.953,-232.94C654.459,-223.283 591.823,-207.965 548.912,-197.472"/>
<polygon fill="midnightblue" stroke="midnightblue" points="549.539,-194.022 538.994,-195.047 547.876,-200.822 549.539,-194.022"/>
</g>
<!-- Node34&#45;&gt;Node5 -->
<g id="edge53" class="edge"><title>Node34&#45;&gt;Node5</title>
<path fill="none" stroke="midnightblue" d="M773.224,-232.94C818.616,-223.201 890.832,-207.706 939.766,-197.207"/>
<polygon fill="midnightblue" stroke="midnightblue" points="940.793,-200.567 949.836,-195.047 939.325,-193.722 940.793,-200.567"/>
</g>
<!-- Node35&#45;&gt;Node6 -->
<g id="edge48" class="edge"><title>Node35&#45;&gt;Node6</title>
<path fill="none" stroke="midnightblue" d="M546.327,-174.94C594.18,-165.16 670.428,-149.577 721.808,-139.076"/>
<polygon fill="midnightblue" stroke="midnightblue" points="722.64,-142.478 731.736,-137.047 721.238,-135.62 722.64,-142.478"/>
</g>
<!-- Node35&#45;&gt;Node15 -->
<g id="edge49" class="edge"><title>Node35&#45;&gt;Node15</title>
<path fill="none" stroke="midnightblue" d="M498.896,-174.872C495.779,-165.617 490.893,-150.864 487,-138 482.014,-121.522 476.78,-102.656 473.071,-88.9828"/>
<polygon fill="midnightblue" stroke="midnightblue" points="476.436,-88.0214 470.457,-79.2753 469.677,-89.8414 476.436,-88.0214"/>
</g>
<!-- Node35&#45;&gt;Node22 -->
<g id="edge50" class="edge"><title>Node35&#45;&gt;Node22</title>
<path fill="none" stroke="midnightblue" d="M472.028,-174.878C438.661,-164.723 384.92,-148.367 350.547,-137.906"/>
<polygon fill="midnightblue" stroke="midnightblue" points="351.558,-134.555 340.972,-134.992 349.52,-141.252 351.558,-134.555"/>
</g>
<!-- Node35&#45;&gt;Node9 -->
<g id="edge51" class="edge"><title>Node35&#45;&gt;Node9</title>
<path fill="none" stroke="midnightblue" d="M561.229,-177.231C651.332,-166.741 815.152,-146.849 841,-138 859.463,-131.679 861.425,-124.483 879,-116 907.206,-102.385 940.554,-89.5801 964.416,-80.9549"/>
<polygon fill="midnightblue" stroke="midnightblue" points="965.779,-84.1845 974.019,-77.5241 963.424,-77.5925 965.779,-84.1845"/>
</g>
<!-- Node35&#45;&gt;Node28 -->
<g id="edge52" class="edge"><title>Node35&#45;&gt;Node28</title>
<path fill="none" stroke="midnightblue" d="M451.86,-174.972C410.072,-167.077 348.839,-154.651 287.681,-138.267"/>
<polygon fill="midnightblue" stroke="midnightblue" points="288.436,-134.846 277.869,-135.604 286.603,-141.601 288.436,-134.846"/>
</g>
</g>
</svg>
