<?xml version="1.0" encoding="UTF-8" standalone="no"?>
<!DOCTYPE svg PUBLIC "-//W3C//DTD SVG 1.1//EN"
 "http://www.w3.org/Graphics/SVG/1.1/DTD/svg11.dtd">
<!-- Generated by graphviz version 2.30.1 (20140712.1814)
 -->
<!-- Title: src/cinder/audio/NodeMath.cpp Pages: 1 -->
<!--zoomable 378 -->
<svg id="main" version="1.1" xmlns="http://www.w3.org/2000/svg" xmlns:xlink="http://www.w3.org/1999/xlink" xml:space="preserve" onload="init(evt)">
<style type="text/css"><![CDATA[
.edge:hover path { stroke: red; }
.edge:hover polygon { stroke: red; fill: red; }
]]></style>
<script type="text/javascript"><![CDATA[
var edges = document.getElementsByTagName('g');
if (edges && edges.length) {
  for (var i=0;i<edges.length;i++) {
    if (edges[i].id.substr(0,4)=='edge') {
      edges[i].setAttribute('class','edge');
    }
  }
}
]]></script>
        <defs>
                <circle id="rim" cx="0" cy="0" r="7"/>
                <circle id="rim2" cx="0" cy="0" r="3.5"/>
                <g id="zoomPlus">
                        <use xlink:href="#rim" fill="#404040">
                                <set attributeName="fill" to="#808080" begin="zoomplus.mouseover" end="zoomplus.mouseout"/>
                        </use>
                        <path d="M-4,0h8M0,-4v8" fill="none" stroke="white" stroke-width="1.5" pointer-events="none"/>
                </g>
                <g id="zoomMin">
                        <use xlink:href="#rim" fill="#404040">
                                <set attributeName="fill" to="#808080" begin="zoomminus.mouseover" end="zoomminus.mouseout"/>
                        </use>
                        <path d="M-4,0h8" fill="none" stroke="white" stroke-width="1.5" pointer-events="none"/>
                </g>
                <g id="dirArrow">
                        <path fill="none" stroke="white" stroke-width="1.5" d="M0,-3.0v7 M-2.5,-0.5L0,-3.0L2.5,-0.5"/>
                </g>
               <g id="resetDef">
                       <use xlink:href="#rim2" fill="#404040">
                               <set attributeName="fill" to="#808080" begin="reset.mouseover" end="reset.mouseout"/>
                       </use>
               </g>
        </defs>

<script type="text/javascript">
var viewWidth = 1084;
var viewHeight = 378;
var sectionId = 'dynsection-0';
</script>
<script xlink:href="svgpan.js"/>
<svg id="graph" class="graph">
<g id="viewport">
<title>src/cinder/audio/NodeMath.cpp</title>
<polygon fill="white" stroke="white" points="-4,5 -4,-374 1081,-374 1081,5 -4,5"/>
<!-- Node1 -->
<g id="node1" class="node"><title>Node1</title>
<polygon fill="#bfbfbf" stroke="black" points="133.796,-349 133.796,-369 288.204,-369 288.204,-349 133.796,-349"/>
<text text-anchor="middle" x="211" y="-355" font-family="Helvetica,sans-Serif" font-size="10.00">src/cinder/audio/NodeMath.cpp</text>
</g>
<!-- Node2 -->
<g id="node2" class="node"><title>Node2</title>
<g id="a_node2"><a xlink:href="_node_math_8h.html" target="_top" xlink:title="cinder/audio/NodeMath.h">
<polygon fill="white" stroke="black" points="287.131,-291 287.131,-311 414.869,-311 414.869,-291 287.131,-291"/>
<text text-anchor="middle" x="351" y="-297" font-family="Helvetica,sans-Serif" font-size="10.00">cinder/audio/NodeMath.h</text>
</a>
</g>
</g>
<!-- Node1&#45;&gt;Node2 -->
<g id="edge1" class="edge"><title>Node1&#45;&gt;Node2</title>
<path fill="none" stroke="midnightblue" d="M233.805,-348.878C256.89,-339.644 292.792,-325.283 318.778,-314.889"/>
<polygon fill="midnightblue" stroke="midnightblue" points="320.22,-318.082 328.205,-311.118 317.62,-311.582 320.22,-318.082"/>
</g>
<!-- Node30 -->
<g id="node30" class="node"><title>Node30</title>
<g id="a_node30"><a xlink:href="_dsp_8h.html" target="_top" xlink:title="cinder/audio/dsp/Dsp.h">
<polygon fill="white" stroke="black" points="-0.142578,-233 -0.142578,-253 118.143,-253 118.143,-233 -0.142578,-233"/>
<text text-anchor="middle" x="59" y="-239" font-family="Helvetica,sans-Serif" font-size="10.00">cinder/audio/dsp/Dsp.h</text>
</a>
</g>
</g>
<!-- Node1&#45;&gt;Node30 -->
<g id="edge36" class="edge"><title>Node1&#45;&gt;Node30</title>
<path fill="none" stroke="midnightblue" d="M198.818,-348.864C172.803,-329.352 111.581,-283.436 79.471,-259.353"/>
<polygon fill="midnightblue" stroke="midnightblue" points="81.3399,-256.38 71.2399,-253.18 77.1399,-261.98 81.3399,-256.38"/>
</g>
<!-- Node26 -->
<g id="node26" class="node"><title>Node26</title>
<g id="a_node26"><a xlink:href="_cinder_math_8h.html" target="_top" xlink:title="cinder/CinderMath.h">
<polygon fill="white" stroke="black" points="157.978,-233 157.978,-253 264.022,-253 264.022,-233 157.978,-233"/>
<text text-anchor="middle" x="211" y="-239" font-family="Helvetica,sans-Serif" font-size="10.00">cinder/CinderMath.h</text>
</a>
</g>
</g>
<!-- Node1&#45;&gt;Node26 -->
<g id="edge42" class="edge"><title>Node1&#45;&gt;Node26</title>
<path fill="none" stroke="midnightblue" d="M211,-348.671C211,-330.041 211,-287.898 211,-263.143"/>
<polygon fill="midnightblue" stroke="midnightblue" points="214.5,-263.139 211,-253.139 207.5,-263.139 214.5,-263.139"/>
</g>
<!-- Node3 -->
<g id="node3" class="node"><title>Node3</title>
<g id="a_node3"><a xlink:href="_node_8h.html" target="_top" xlink:title="cinder/audio/Node.h">
<polygon fill="white" stroke="black" points="599.247,-233 599.247,-253 704.753,-253 704.753,-233 599.247,-233"/>
<text text-anchor="middle" x="652" y="-239" font-family="Helvetica,sans-Serif" font-size="10.00">cinder/audio/Node.h</text>
</a>
</g>
</g>
<!-- Node2&#45;&gt;Node3 -->
<g id="edge2" class="edge"><title>Node2&#45;&gt;Node3</title>
<path fill="none" stroke="midnightblue" d="M399.695,-290.94C452.591,-281.099 537.073,-265.382 593.523,-254.879"/>
<polygon fill="midnightblue" stroke="midnightblue" points="594.183,-258.317 603.375,-253.047 592.903,-251.435 594.183,-258.317"/>
</g>
<!-- Node23 -->
<g id="node23" class="node"><title>Node23</title>
<g id="a_node23"><a xlink:href="_param_8h.html" target="_top" xlink:title="cinder/audio/Param.h">
<polygon fill="white" stroke="black" points="320.473,-233 320.473,-253 431.527,-253 431.527,-233 320.473,-233"/>
<text text-anchor="middle" x="376" y="-239" font-family="Helvetica,sans-Serif" font-size="10.00">cinder/audio/Param.h</text>
</a>
</g>
</g>
<!-- Node2&#45;&gt;Node23 -->
<g id="edge25" class="edge"><title>Node2&#45;&gt;Node23</title>
<path fill="none" stroke="midnightblue" d="M355.128,-290.753C358.55,-283.087 363.522,-271.952 367.754,-262.471"/>
<polygon fill="midnightblue" stroke="midnightblue" points="371.068,-263.633 371.949,-253.075 364.676,-260.78 371.068,-263.633"/>
</g>
<!-- Node2&#45;&gt;Node26 -->
<g id="edge30" class="edge"><title>Node2&#45;&gt;Node26</title>
<path fill="none" stroke="midnightblue" d="M328.195,-290.878C305.11,-281.644 269.208,-267.283 243.222,-256.889"/>
<polygon fill="midnightblue" stroke="midnightblue" points="244.38,-253.582 233.795,-253.118 241.78,-260.082 244.38,-253.582"/>
</g>
<!-- Node4 -->
<g id="node4" class="node"><title>Node4</title>
<g id="a_node4"><a xlink:href="audio_2_buffer_8h.html" target="_top" xlink:title="cinder/audio/Buffer.h">
<polygon fill="white" stroke="black" points="472.221,-175 472.221,-195 579.779,-195 579.779,-175 472.221,-175"/>
<text text-anchor="middle" x="526" y="-181" font-family="Helvetica,sans-Serif" font-size="10.00">cinder/audio/Buffer.h</text>
</a>
</g>
</g>
<!-- Node3&#45;&gt;Node4 -->
<g id="edge3" class="edge"><title>Node3&#45;&gt;Node4</title>
<path fill="none" stroke="midnightblue" d="M631.475,-232.878C610.974,-223.766 579.239,-209.662 555.931,-199.303"/>
<polygon fill="midnightblue" stroke="midnightblue" points="557.075,-195.981 546.516,-195.118 554.232,-202.378 557.075,-195.981"/>
</g>
<!-- Node12 -->
<g id="node12" class="node"><title>Node12</title>
<g id="a_node12"><a xlink:href="audio_2_exception_8h.html" target="_top" xlink:title="cinder/audio/Exception.h">
<polygon fill="white" stroke="black" points="951.242,-175 951.242,-195 1076.76,-195 1076.76,-175 951.242,-175"/>
<text text-anchor="middle" x="1014" y="-181" font-family="Helvetica,sans-Serif" font-size="10.00">cinder/audio/Exception.h</text>
</a>
</g>
</g>
<!-- Node3&#45;&gt;Node12 -->
<g id="edge11" class="edge"><title>Node3&#45;&gt;Node12</title>
<path fill="none" stroke="midnightblue" d="M705.026,-233.797C768.76,-223.938 875.838,-207.373 945.704,-196.565"/>
<polygon fill="midnightblue" stroke="midnightblue" points="946.385,-200.002 955.732,-195.014 945.315,-193.084 946.385,-200.002"/>
</g>
<!-- Node19 -->
<g id="node19" class="node"><title>Node19</title>
<polygon fill="white" stroke="#bfbfbf" points="636.291,-175 636.291,-195 755.709,-195 755.709,-175 636.291,-175"/>
<text text-anchor="middle" x="696" y="-181" font-family="Helvetica,sans-Serif" font-size="10.00">boost/noncopyable.hpp</text>
</g>
<!-- Node3&#45;&gt;Node19 -->
<g id="edge20" class="edge"><title>Node3&#45;&gt;Node19</title>
<path fill="none" stroke="midnightblue" d="M659.266,-232.753C665.609,-224.68 674.977,-212.757 682.664,-202.973"/>
<polygon fill="midnightblue" stroke="midnightblue" points="685.443,-205.101 688.869,-195.075 679.939,-200.776 685.443,-205.101"/>
</g>
<!-- Node20 -->
<g id="node20" class="node"><title>Node20</title>
<polygon fill="white" stroke="#bfbfbf" points="773.357,-175 773.357,-195 886.643,-195 886.643,-175 773.357,-175"/>
<text text-anchor="middle" x="830" y="-181" font-family="Helvetica,sans-Serif" font-size="10.00">boost/logic/tribool.hpp</text>
</g>
<!-- Node3&#45;&gt;Node20 -->
<g id="edge21" class="edge"><title>Node3&#45;&gt;Node20</title>
<path fill="none" stroke="midnightblue" d="M680.995,-232.878C711.081,-223.413 758.292,-208.56 791.493,-198.115"/>
<polygon fill="midnightblue" stroke="midnightblue" points="792.824,-201.365 801.312,-195.025 790.723,-194.688 792.824,-201.365"/>
</g>
<!-- Node9 -->
<g id="node9" class="node"><title>Node9</title>
<polygon fill="white" stroke="#bfbfbf" points="587.943,-117 587.943,-137 640.057,-137 640.057,-117 587.943,-117"/>
<text text-anchor="middle" x="614" y="-123" font-family="Helvetica,sans-Serif" font-size="10.00">memory</text>
</g>
<!-- Node3&#45;&gt;Node9 -->
<g id="edge22" class="edge"><title>Node3&#45;&gt;Node9</title>
<path fill="none" stroke="midnightblue" d="M645.94,-232.883C640.225,-223.876 631.835,-209.523 627,-196 621.31,-180.084 617.948,-161.135 616.074,-147.288"/>
<polygon fill="midnightblue" stroke="midnightblue" points="619.509,-146.541 614.831,-137.035 612.56,-147.383 619.509,-146.541"/>
</g>
<!-- Node21 -->
<g id="node21" class="node"><title>Node21</title>
<polygon fill="white" stroke="#bfbfbf" points="408.273,-175 408.273,-195 453.727,-195 453.727,-175 408.273,-175"/>
<text text-anchor="middle" x="431" y="-181" font-family="Helvetica,sans-Serif" font-size="10.00">atomic</text>
</g>
<!-- Node3&#45;&gt;Node21 -->
<g id="edge23" class="edge"><title>Node3&#45;&gt;Node21</title>
<path fill="none" stroke="midnightblue" d="M611.619,-232.962C575.319,-224.662 520.347,-211.659 463.839,-196.111"/>
<polygon fill="midnightblue" stroke="midnightblue" points="464.591,-192.687 454.02,-193.387 462.72,-199.433 464.591,-192.687"/>
</g>
<!-- Node22 -->
<g id="node22" class="node"><title>Node22</title>
<polygon fill="white" stroke="#bfbfbf" points="904.33,-175 904.33,-195 933.67,-195 933.67,-175 904.33,-175"/>
<text text-anchor="middle" x="919" y="-181" font-family="Helvetica,sans-Serif" font-size="10.00">set</text>
</g>
<!-- Node3&#45;&gt;Node22 -->
<g id="edge24" class="edge"><title>Node3&#45;&gt;Node22</title>
<path fill="none" stroke="midnightblue" d="M704.896,-235.222C752.401,-228.413 824.041,-216.359 894.294,-195.703"/>
<polygon fill="midnightblue" stroke="midnightblue" points="895.624,-198.958 904.196,-192.73 893.612,-192.253 895.624,-198.958"/>
</g>
<!-- Node5 -->
<g id="node5" class="node"><title>Node5</title>
<g id="a_node5"><a xlink:href="_cinder_assert_8h.html" target="_top" xlink:title="cinder/CinderAssert.h">
<polygon fill="white" stroke="black" points="161.924,-117 161.924,-137 274.076,-137 274.076,-117 161.924,-117"/>
<text text-anchor="middle" x="218" y="-123" font-family="Helvetica,sans-Serif" font-size="10.00">cinder/CinderAssert.h</text>
</a>
</g>
</g>
<!-- Node4&#45;&gt;Node5 -->
<g id="edge4" class="edge"><title>Node4&#45;&gt;Node5</title>
<path fill="none" stroke="midnightblue" d="M476.172,-174.94C421.966,-165.085 335.343,-149.335 277.58,-138.833"/>
<polygon fill="midnightblue" stroke="midnightblue" points="277.966,-135.346 267.501,-137 276.714,-142.233 277.966,-135.346"/>
</g>
<!-- Node8 -->
<g id="node8" class="node"><title>Node8</title>
<polygon fill="white" stroke="#bfbfbf" points="402.384,-59 402.384,-79 445.616,-79 445.616,-59 402.384,-59"/>
<text text-anchor="middle" x="424" y="-65" font-family="Helvetica,sans-Serif" font-size="10.00">vector</text>
</g>
<!-- Node4&#45;&gt;Node8 -->
<g id="edge7" class="edge"><title>Node4&#45;&gt;Node8</title>
<path fill="none" stroke="midnightblue" d="M496.289,-174.88C477.764,-167.71 454.886,-155.897 441,-138 430.181,-124.056 426.164,-104.087 424.715,-89.3941"/>
<polygon fill="midnightblue" stroke="midnightblue" points="428.204,-89.1154 424.037,-79.3745 421.22,-89.5881 428.204,-89.1154"/>
</g>
<!-- Node4&#45;&gt;Node9 -->
<g id="edge8" class="edge"><title>Node4&#45;&gt;Node9</title>
<path fill="none" stroke="midnightblue" d="M540.531,-174.753C554.243,-166.027 575.021,-152.805 590.985,-142.646"/>
<polygon fill="midnightblue" stroke="midnightblue" points="593.181,-145.397 599.739,-137.075 589.423,-139.491 593.181,-145.397"/>
</g>
<!-- Node10 -->
<g id="node10" class="node"><title>Node10</title>
<polygon fill="white" stroke="#bfbfbf" points="525.828,-117 525.828,-137 570.172,-137 570.172,-117 525.828,-117"/>
<text text-anchor="middle" x="548" y="-123" font-family="Helvetica,sans-Serif" font-size="10.00">cstdlib</text>
</g>
<!-- Node4&#45;&gt;Node10 -->
<g id="edge9" class="edge"><title>Node4&#45;&gt;Node10</title>
<path fill="none" stroke="midnightblue" d="M529.633,-174.753C532.644,-167.087 537.019,-155.952 540.744,-146.471"/>
<polygon fill="midnightblue" stroke="midnightblue" points="544.036,-147.663 544.435,-137.075 537.521,-145.103 544.036,-147.663"/>
</g>
<!-- Node11 -->
<g id="node11" class="node"><title>Node11</title>
<polygon fill="white" stroke="#bfbfbf" points="450.436,-117 450.436,-137 507.564,-137 507.564,-117 450.436,-117"/>
<text text-anchor="middle" x="479" y="-123" font-family="Helvetica,sans-Serif" font-size="10.00">algorithm</text>
</g>
<!-- Node4&#45;&gt;Node11 -->
<g id="edge10" class="edge"><title>Node4&#45;&gt;Node11</title>
<path fill="none" stroke="midnightblue" d="M518.239,-174.753C511.463,-166.68 501.457,-154.757 493.245,-144.973"/>
<polygon fill="midnightblue" stroke="midnightblue" points="495.726,-142.485 486.617,-137.075 490.365,-146.985 495.726,-142.485"/>
</g>
<!-- Node6 -->
<g id="node6" class="node"><title>Node6</title>
<g id="a_node6"><a xlink:href="_current_function_8h.html" target="_top" xlink:title="cinder/CurrentFunction.h">
<polygon fill="white" stroke="black" points="257.973,-59 257.973,-79 384.027,-79 384.027,-59 257.973,-59"/>
<text text-anchor="middle" x="321" y="-65" font-family="Helvetica,sans-Serif" font-size="10.00">cinder/CurrentFunction.h</text>
</a>
</g>
</g>
<!-- Node5&#45;&gt;Node6 -->
<g id="edge5" class="edge"><title>Node5&#45;&gt;Node6</title>
<path fill="none" stroke="midnightblue" d="M235.008,-116.753C251.432,-107.823 276.517,-94.1848 295.363,-83.9388"/>
<polygon fill="midnightblue" stroke="midnightblue" points="297.194,-86.9267 304.308,-79.0752 293.851,-80.7769 297.194,-86.9267"/>
</g>
<!-- Node7 -->
<g id="node7" class="node"><title>Node7</title>
<polygon fill="white" stroke="#bfbfbf" points="191.884,-59 191.884,-79 240.116,-79 240.116,-59 191.884,-59"/>
<text text-anchor="middle" x="216" y="-65" font-family="Helvetica,sans-Serif" font-size="10.00">cassert</text>
</g>
<!-- Node5&#45;&gt;Node7 -->
<g id="edge6" class="edge"><title>Node5&#45;&gt;Node7</title>
<path fill="none" stroke="midnightblue" d="M217.67,-116.753C217.402,-109.25 217.015,-98.4238 216.681,-89.0781"/>
<polygon fill="midnightblue" stroke="midnightblue" points="220.179,-88.9439 216.324,-79.0752 213.183,-89.1938 220.179,-88.9439"/>
</g>
<!-- Node13 -->
<g id="node13" class="node"><title>Node13</title>
<g id="a_node13"><a xlink:href="_exception_8h.html" target="_top" xlink:title="cinder/Exception.h">
<polygon fill="white" stroke="black" points="772.865,-117 772.865,-137 871.135,-137 871.135,-117 772.865,-117"/>
<text text-anchor="middle" x="822" y="-123" font-family="Helvetica,sans-Serif" font-size="10.00">cinder/Exception.h</text>
</a>
</g>
</g>
<!-- Node12&#45;&gt;Node13 -->
<g id="edge12" class="edge"><title>Node12&#45;&gt;Node13</title>
<path fill="none" stroke="midnightblue" d="M982.725,-174.878C949.992,-165.331 898.469,-150.303 862.613,-139.845"/>
<polygon fill="midnightblue" stroke="midnightblue" points="863.524,-136.465 852.944,-137.025 861.564,-143.185 863.524,-136.465"/>
</g>
<!-- Node18 -->
<g id="node18" class="node"><title>Node18</title>
<polygon fill="white" stroke="#bfbfbf" points="868.773,-59 868.773,-79 909.227,-79 909.227,-59 868.773,-59"/>
<text text-anchor="middle" x="889" y="-65" font-family="Helvetica,sans-Serif" font-size="10.00">string</text>
</g>
<!-- Node12&#45;&gt;Node18 -->
<g id="edge19" class="edge"><title>Node12&#45;&gt;Node18</title>
<path fill="none" stroke="midnightblue" d="M1003.77,-174.671C982.423,-155.202 932.918,-110.053 906.442,-85.9071"/>
<polygon fill="midnightblue" stroke="midnightblue" points="908.768,-83.2919 899.021,-79.1394 904.051,-88.464 908.768,-83.2919"/>
</g>
<!-- Node14 -->
<g id="node14" class="node"><title>Node14</title>
<g id="a_node14"><a xlink:href="_cinder_8h.html" target="_top" xlink:title="cinder/Cinder.h">
<polygon fill="white" stroke="black" points="90.3672,-59 90.3672,-79 173.633,-79 173.633,-59 90.3672,-59"/>
<text text-anchor="middle" x="132" y="-65" font-family="Helvetica,sans-Serif" font-size="10.00">cinder/Cinder.h</text>
</a>
</g>
</g>
<!-- Node13&#45;&gt;Node14 -->
<g id="edge13" class="edge"><title>Node13&#45;&gt;Node14</title>
<path fill="none" stroke="midnightblue" d="M772.804,-123.237C647.041,-116.053 315.097,-96.297 183.89,-79.9241"/>
<polygon fill="midnightblue" stroke="midnightblue" points="184.047,-76.4153 173.68,-78.6017 183.148,-83.3573 184.047,-76.4153"/>
</g>
<!-- Node13&#45;&gt;Node8 -->
<g id="edge17" class="edge"><title>Node13&#45;&gt;Node8</title>
<path fill="none" stroke="midnightblue" d="M772.798,-119.077C690.08,-107.438 525.401,-84.2675 456.01,-74.5039"/>
<polygon fill="midnightblue" stroke="midnightblue" points="456.108,-70.9833 445.718,-73.0558 455.133,-77.915 456.108,-70.9833"/>
</g>
<!-- Node13&#45;&gt;Node18 -->
<g id="edge18" class="edge"><title>Node13&#45;&gt;Node18</title>
<path fill="none" stroke="midnightblue" d="M833.064,-116.753C843.21,-108.272 858.44,-95.543 870.447,-85.5073"/>
<polygon fill="midnightblue" stroke="midnightblue" points="872.714,-88.1738 878.142,-79.0752 868.225,-82.8028 872.714,-88.1738"/>
</g>
<!-- Node15 -->
<g id="node15" class="node"><title>Node15</title>
<polygon fill="white" stroke="#bfbfbf" points="21.5493,-1 21.5493,-21 66.4507,-21 66.4507,-1 21.5493,-1"/>
<text text-anchor="middle" x="44" y="-7" font-family="Helvetica,sans-Serif" font-size="10.00">cstdint</text>
</g>
<!-- Node14&#45;&gt;Node15 -->
<g id="edge14" class="edge"><title>Node14&#45;&gt;Node15</title>
<path fill="none" stroke="midnightblue" d="M117.469,-58.7527C103.757,-50.0272 82.9794,-36.8051 67.0148,-26.6458"/>
<polygon fill="midnightblue" stroke="midnightblue" points="68.5767,-23.4912 58.261,-21.0752 64.8186,-29.3968 68.5767,-23.4912"/>
</g>
<!-- Node16 -->
<g id="node16" class="node"><title>Node16</title>
<polygon fill="white" stroke="#bfbfbf" points="84.5298,-1 84.5298,-21 179.47,-21 179.47,-1 84.5298,-1"/>
<text text-anchor="middle" x="132" y="-7" font-family="Helvetica,sans-Serif" font-size="10.00">boost/version.hpp</text>
</g>
<!-- Node14&#45;&gt;Node16 -->
<g id="edge15" class="edge"><title>Node14&#45;&gt;Node16</title>
<path fill="none" stroke="midnightblue" d="M132,-58.7527C132,-51.2504 132,-40.4238 132,-31.0781"/>
<polygon fill="midnightblue" stroke="midnightblue" points="135.5,-31.0752 132,-21.0752 128.5,-31.0752 135.5,-31.0752"/>
</g>
<!-- Node17 -->
<g id="node17" class="node"><title>Node17</title>
<polygon fill="white" stroke="#bfbfbf" points="197.621,-1 197.621,-21 330.379,-21 330.379,-1 197.621,-1"/>
<text text-anchor="middle" x="264" y="-7" font-family="Helvetica,sans-Serif" font-size="10.00">boost/checked_delete.hpp</text>
</g>
<!-- Node14&#45;&gt;Node17 -->
<g id="edge16" class="edge"><title>Node14&#45;&gt;Node17</title>
<path fill="none" stroke="midnightblue" d="M153.502,-58.878C175.172,-49.6848 208.821,-35.4095 233.295,-25.0263"/>
<polygon fill="midnightblue" stroke="midnightblue" points="234.668,-28.2457 242.507,-21.1181 231.935,-21.8016 234.668,-28.2457"/>
</g>
<!-- Node23&#45;&gt;Node4 -->
<g id="edge26" class="edge"><title>Node23&#45;&gt;Node4</title>
<path fill="none" stroke="midnightblue" d="M400.434,-232.878C425.277,-223.603 463.974,-209.156 491.844,-198.752"/>
<polygon fill="midnightblue" stroke="midnightblue" points="493.432,-201.895 501.577,-195.118 490.984,-195.337 493.432,-201.895"/>
</g>
<!-- Node24 -->
<g id="node24" class="node"><title>Node24</title>
<polygon fill="white" stroke="#bfbfbf" points="361.5,-175 361.5,-195 390.5,-195 390.5,-175 361.5,-175"/>
<text text-anchor="middle" x="375.611" y="-181" font-family="Helvetica,sans-Serif" font-size="10.00">list</text>
</g>
<!-- Node23&#45;&gt;Node24 -->
<g id="edge27" class="edge"><title>Node23&#45;&gt;Node24</title>
<path fill="none" stroke="midnightblue" d="M376,-232.753C376,-225.25 376,-214.424 376,-205.078"/>
<polygon fill="midnightblue" stroke="midnightblue" points="379.5,-205.075 376,-195.075 372.5,-205.075 379.5,-205.075"/>
</g>
<!-- Node23&#45;&gt;Node21 -->
<g id="edge28" class="edge"><title>Node23&#45;&gt;Node21</title>
<path fill="none" stroke="midnightblue" d="M385.082,-232.753C393.171,-224.516 405.195,-212.274 414.91,-202.382"/>
<polygon fill="midnightblue" stroke="midnightblue" points="417.577,-204.662 422.087,-195.075 412.583,-199.757 417.577,-204.662"/>
</g>
<!-- Node25 -->
<g id="node25" class="node"><title>Node25</title>
<polygon fill="white" stroke="#bfbfbf" points="284.596,-175 284.596,-195 343.404,-195 343.404,-175 284.596,-175"/>
<text text-anchor="middle" x="314" y="-181" font-family="Helvetica,sans-Serif" font-size="10.00">functional</text>
</g>
<!-- Node23&#45;&gt;Node25 -->
<g id="edge29" class="edge"><title>Node23&#45;&gt;Node25</title>
<path fill="none" stroke="midnightblue" d="M365.762,-232.753C356.463,-224.353 342.55,-211.787 331.49,-201.798"/>
<polygon fill="midnightblue" stroke="midnightblue" points="333.815,-199.181 324.048,-195.075 329.123,-204.375 333.815,-199.181"/>
</g>
<!-- Node26&#45;&gt;Node14 -->
<g id="edge31" class="edge"><title>Node26&#45;&gt;Node14</title>
<path fill="none" stroke="midnightblue" d="M195.131,-232.99C182.487,-224.951 165.396,-211.991 156,-196 136.149,-162.217 132.249,-115.347 131.75,-89.3414"/>
<polygon fill="midnightblue" stroke="midnightblue" points="135.25,-89.2635 131.711,-79.277 128.25,-89.2904 135.25,-89.2635"/>
</g>
<!-- Node27 -->
<g id="node27" class="node"><title>Node27</title>
<polygon fill="white" stroke="#bfbfbf" points="65.3843,-175 65.3843,-195 108.616,-195 108.616,-175 65.3843,-175"/>
<text text-anchor="middle" x="87" y="-181" font-family="Helvetica,sans-Serif" font-size="10.00">cmath</text>
</g>
<!-- Node26&#45;&gt;Node27 -->
<g id="edge32" class="edge"><title>Node26&#45;&gt;Node27</title>
<path fill="none" stroke="midnightblue" d="M190.801,-232.878C170.625,-223.766 139.394,-209.662 116.456,-199.303"/>
<polygon fill="midnightblue" stroke="midnightblue" points="117.744,-196.044 107.19,-195.118 114.863,-202.424 117.744,-196.044"/>
</g>
<!-- Node28 -->
<g id="node28" class="node"><title>Node28</title>
<polygon fill="white" stroke="#bfbfbf" points="165.113,-175 165.113,-195 208.887,-195 208.887,-175 165.113,-175"/>
<text text-anchor="middle" x="187" y="-181" font-family="Helvetica,sans-Serif" font-size="10.00">climits</text>
</g>
<!-- Node26&#45;&gt;Node28 -->
<g id="edge33" class="edge"><title>Node26&#45;&gt;Node28</title>
<path fill="none" stroke="midnightblue" d="M207.037,-232.753C203.752,-225.087 198.979,-213.952 194.916,-204.471"/>
<polygon fill="midnightblue" stroke="midnightblue" points="198.046,-202.888 190.889,-195.075 191.612,-205.645 198.046,-202.888"/>
</g>
<!-- Node29 -->
<g id="node29" class="node"><title>Node29</title>
<polygon fill="white" stroke="#bfbfbf" points="227.049,-175 227.049,-195 266.951,-195 266.951,-175 227.049,-175"/>
<text text-anchor="middle" x="247" y="-181" font-family="Helvetica,sans-Serif" font-size="10.00">cfloat</text>
</g>
<!-- Node26&#45;&gt;Node29 -->
<g id="edge34" class="edge"><title>Node26&#45;&gt;Node29</title>
<path fill="none" stroke="midnightblue" d="M216.945,-232.753C222.03,-224.843 229.49,-213.237 235.706,-203.568"/>
<polygon fill="midnightblue" stroke="midnightblue" points="238.702,-205.38 241.166,-195.075 232.814,-201.594 238.702,-205.38"/>
</g>
<!-- Node26&#45;&gt;Node25 -->
<g id="edge35" class="edge"><title>Node26&#45;&gt;Node25</title>
<path fill="none" stroke="midnightblue" d="M228.008,-232.753C244.432,-223.823 269.517,-210.185 288.363,-199.939"/>
<polygon fill="midnightblue" stroke="midnightblue" points="290.194,-202.927 297.308,-195.075 286.851,-196.777 290.194,-202.927"/>
</g>
<!-- Node30&#45;&gt;Node5 -->
<g id="edge37" class="edge"><title>Node30&#45;&gt;Node5</title>
<path fill="none" stroke="midnightblue" d="M47.6769,-232.792C32.2037,-219.101 7.99413,-192.958 23,-174 38.9554,-153.843 101.498,-141.627 151.509,-134.902"/>
<polygon fill="midnightblue" stroke="midnightblue" points="152.18,-138.345 161.648,-133.59 151.281,-131.403 152.18,-138.345"/>
</g>
<!-- Node30&#45;&gt;Node14 -->
<g id="edge38" class="edge"><title>Node30&#45;&gt;Node14</title>
<path fill="none" stroke="midnightblue" d="M45.8247,-232.843C29.4605,-220.251 4.86179,-196.576 15,-174 33.4848,-132.837 77.2062,-101.322 105.654,-84.2546"/>
<polygon fill="midnightblue" stroke="midnightblue" points="107.416,-87.2788 114.302,-79.227 103.898,-81.2271 107.416,-87.2788"/>
</g>
<!-- Node30&#45;&gt;Node21 -->
<g id="edge39" class="edge"><title>Node30&#45;&gt;Node21</title>
<path fill="none" stroke="midnightblue" d="M118.304,-235.198C196.856,-225.99 332.238,-209.38 398.099,-195.826"/>
<polygon fill="midnightblue" stroke="midnightblue" points="399.016,-199.209 408.053,-193.679 397.54,-192.367 399.016,-199.209"/>
</g>
<!-- Node30&#45;&gt;Node8 -->
<g id="edge40" class="edge"><title>Node30&#45;&gt;Node8</title>
<path fill="none" stroke="midnightblue" d="M55.0709,-232.813C49.6076,-218.43 41.8805,-190.535 56,-174 89.1666,-135.159 234.257,-153.256 283,-138 326.154,-124.494 372.774,-99.8197 400.125,-84.1998"/>
<polygon fill="midnightblue" stroke="midnightblue" points="402.059,-87.1249 408.959,-79.0855 398.551,-81.0669 402.059,-87.1249"/>
</g>
<!-- Node30&#45;&gt;Node27 -->
<g id="edge41" class="edge"><title>Node30&#45;&gt;Node27</title>
<path fill="none" stroke="midnightblue" d="M63.6236,-232.753C67.4971,-225.006 73.1429,-213.714 77.9156,-204.169"/>
<polygon fill="midnightblue" stroke="midnightblue" points="81.1207,-205.585 82.4624,-195.075 74.8597,-202.454 81.1207,-205.585"/>
</g>
</g>
</svg>
        <g id="navigator" transform="translate(0 0)" fill="#404254">
                <rect fill="#f2f5e9" fill-opacity="0.5" stroke="#606060" stroke-width=".5" x="0" y="0" width="60" height="60"/>
                <use id="zoomplus" xlink:href="#zoomPlus" x="17" y="9" onmousedown="handleZoom(evt,'in')"/>
                <use id="zoomminus" xlink:href="#zoomMin" x="42" y="9" onmousedown="handleZoom(evt,'out')"/>
                <use id="reset" xlink:href="#resetDef" x="30" y="36" onmousedown="handleReset()"/>
                <g id="arrowUp" xlink:href="#dirArrow" transform="translate(30 24)" onmousedown="handlePan(0,-1)">
                  <use xlink:href="#rim" fill="#404040">
                        <set attributeName="fill" to="#808080" begin="arrowUp.mouseover" end="arrowUp.mouseout"/>
                  </use>
                  <path fill="none" stroke="white" stroke-width="1.5" d="M0,-3.0v7 M-2.5,-0.5L0,-3.0L2.5,-0.5"/>
                </g>
                <g id="arrowRight" xlink:href="#dirArrow" transform="rotate(90) translate(36 -43)" onmousedown="handlePan(1,0)">
                  <use xlink:href="#rim" fill="#404040">
                        <set attributeName="fill" to="#808080" begin="arrowRight.mouseover" end="arrowRight.mouseout"/>
                  </use>
                  <path fill="none" stroke="white" stroke-width="1.5" d="M0,-3.0v7 M-2.5,-0.5L0,-3.0L2.5,-0.5"/>
                </g>
                <g id="arrowDown" xlink:href="#dirArrow" transform="rotate(180) translate(-30 -48)" onmousedown="handlePan(0,1)">
                  <use xlink:href="#rim" fill="#404040">
                        <set attributeName="fill" to="#808080" begin="arrowDown.mouseover" end="arrowDown.mouseout"/>
                  </use>
                  <path fill="none" stroke="white" stroke-width="1.5" d="M0,-3.0v7 M-2.5,-0.5L0,-3.0L2.5,-0.5"/>
                </g>
                <g id="arrowLeft" xlink:href="#dirArrow" transform="rotate(270) translate(-36 17)" onmousedown="handlePan(-1,0)">
                  <use xlink:href="#rim" fill="#404040">
                        <set attributeName="fill" to="#808080" begin="arrowLeft.mouseover" end="arrowLeft.mouseout"/>
                  </use>
                  <path fill="none" stroke="white" stroke-width="1.5" d="M0,-3.0v7 M-2.5,-0.5L0,-3.0L2.5,-0.5"/>
                </g>
        </g>
        <svg viewBox="0 0 15 15" width="100%" height="30px" preserveAspectRatio="xMaxYMin meet">
         <g id="arrow_out" transform="scale(0.3 0.3)">
          <a xlink:href="_node_math_8cpp__incl_org.svg" target="_base">
           <rect id="button" ry="5" rx="5" y="6" x="6" height="38" width="38"
                fill="#f2f5e9" fill-opacity="0.5" stroke="#606060" stroke-width="1.0"/>
           <path id="arrow"
             d="M 11.500037,31.436501 C 11.940474,20.09759 22.043105,11.32322 32.158766,21.979434 L 37.068811,17.246167 C 37.068811,17.246167 37.088388,32 37.088388,32 L 22.160133,31.978069 C 22.160133,31.978069 26.997745,27.140456 26.997745,27.140456 C 18.528582,18.264221 13.291696,25.230495 11.500037,31.436501 z"
             style="fill:#404040;"/>
          </a>
         </g>
        </svg>
</svg>
