<?xml version="1.0" encoding="UTF-8" standalone="no"?>
<!DOCTYPE svg PUBLIC "-//W3C//DTD SVG 1.1//EN"
 "http://www.w3.org/Graphics/SVG/1.1/DTD/svg11.dtd">
<!-- Generated by graphviz version 2.30.1 (20140712.1814)
 -->
<!-- Title: include/cinder/audio/Node.h Pages: 1 -->
<svg width="822pt" height="274pt"
 viewBox="0.00 0.00 822.00 274.00" xmlns="http://www.w3.org/2000/svg" xmlns:xlink="http://www.w3.org/1999/xlink">
<g id="graph0" class="graph" transform="scale(1 1) rotate(0) translate(4 270)">
<title>include/cinder/audio/Node.h</title>
<polygon fill="white" stroke="white" points="-4,5 -4,-270 819,-270 819,5 -4,5"/>
<!-- Node1 -->
<g id="node1" class="node"><title>Node1</title>
<polygon fill="#bfbfbf" stroke="black" points="461.525,-233 461.525,-265 566.475,-265 566.475,-233 461.525,-233"/>
<text text-anchor="start" x="469.525" y="-251" font-family="Helvetica,sans-Serif" font-size="10.00">include/cinder/audio</text>
<text text-anchor="middle" x="514" y="-239" font-family="Helvetica,sans-Serif" font-size="10.00">/Node.h</text>
</g>
<!-- Node2 -->
<g id="node2" class="node"><title>Node2</title>
<g id="a_node2"><a xlink:href="audio_2_buffer_8h.html" target="_top" xlink:title="cinder/audio/Buffer.h">
<polygon fill="white" stroke="black" points="290.221,-175 290.221,-195 397.779,-195 397.779,-175 290.221,-175"/>
<text text-anchor="middle" x="344" y="-181" font-family="Helvetica,sans-Serif" font-size="10.00">cinder/audio/Buffer.h</text>
</a>
</g>
</g>
<!-- Node1&#45;&gt;Node2 -->
<g id="edge1" class="edge"><title>Node1&#45;&gt;Node2</title>
<path fill="none" stroke="midnightblue" d="M472.848,-232.992C443.967,-222.459 405.786,-208.534 378.499,-198.582"/>
<polygon fill="midnightblue" stroke="midnightblue" points="379.57,-195.247 368.976,-195.109 377.171,-201.823 379.57,-195.247"/>
</g>
<!-- Node10 -->
<g id="node10" class="node"><title>Node10</title>
<g id="a_node10"><a xlink:href="audio_2_exception_8h.html" target="_top" xlink:title="cinder/audio/Exception.h">
<polygon fill="white" stroke="black" points="44.2417,-175 44.2417,-195 169.758,-195 169.758,-175 44.2417,-175"/>
<text text-anchor="middle" x="107" y="-181" font-family="Helvetica,sans-Serif" font-size="10.00">cinder/audio/Exception.h</text>
</a>
</g>
</g>
<!-- Node1&#45;&gt;Node10 -->
<g id="edge9" class="edge"><title>Node1&#45;&gt;Node10</title>
<path fill="none" stroke="midnightblue" d="M461.209,-239.958C388.398,-228.866 257.025,-208.854 176.359,-196.566"/>
<polygon fill="midnightblue" stroke="midnightblue" points="176.709,-193.079 166.296,-195.033 175.655,-199.999 176.709,-193.079"/>
</g>
<!-- Node17 -->
<g id="node17" class="node"><title>Node17</title>
<polygon fill="white" stroke="#bfbfbf" points="454.291,-175 454.291,-195 573.709,-195 573.709,-175 454.291,-175"/>
<text text-anchor="middle" x="514" y="-181" font-family="Helvetica,sans-Serif" font-size="10.00">boost/noncopyable.hpp</text>
</g>
<!-- Node1&#45;&gt;Node17 -->
<g id="edge18" class="edge"><title>Node1&#45;&gt;Node17</title>
<path fill="none" stroke="midnightblue" d="M514,-232.992C514,-224.726 514,-214.373 514,-205.489"/>
<polygon fill="midnightblue" stroke="midnightblue" points="517.5,-205.29 514,-195.29 510.5,-205.29 517.5,-205.29"/>
</g>
<!-- Node18 -->
<g id="node18" class="node"><title>Node18</title>
<polygon fill="white" stroke="#bfbfbf" points="591.357,-175 591.357,-195 704.643,-195 704.643,-175 591.357,-175"/>
<text text-anchor="middle" x="648" y="-181" font-family="Helvetica,sans-Serif" font-size="10.00">boost/logic/tribool.hpp</text>
</g>
<!-- Node1&#45;&gt;Node18 -->
<g id="edge19" class="edge"><title>Node1&#45;&gt;Node18</title>
<path fill="none" stroke="midnightblue" d="M546.438,-232.992C568.604,-222.736 597.719,-209.264 619.091,-199.376"/>
<polygon fill="midnightblue" stroke="midnightblue" points="620.707,-202.484 628.313,-195.109 617.768,-196.132 620.707,-202.484"/>
</g>
<!-- Node7 -->
<g id="node7" class="node"><title>Node7</title>
<polygon fill="white" stroke="#bfbfbf" points="479.943,-117 479.943,-137 532.057,-137 532.057,-117 479.943,-117"/>
<text text-anchor="middle" x="506" y="-123" font-family="Helvetica,sans-Serif" font-size="10.00">memory</text>
</g>
<!-- Node1&#45;&gt;Node7 -->
<g id="edge20" class="edge"><title>Node1&#45;&gt;Node7</title>
<path fill="none" stroke="midnightblue" d="M482.71,-232.988C468.434,-224.334 452.964,-211.975 445,-196 434.336,-174.611 457.366,-154.84 478.115,-142.194"/>
<polygon fill="midnightblue" stroke="midnightblue" points="480.126,-145.076 487.061,-137.066 476.645,-139.003 480.126,-145.076"/>
</g>
<!-- Node19 -->
<g id="node19" class="node"><title>Node19</title>
<polygon fill="white" stroke="#bfbfbf" points="722.273,-175 722.273,-195 767.727,-195 767.727,-175 722.273,-175"/>
<text text-anchor="middle" x="745" y="-181" font-family="Helvetica,sans-Serif" font-size="10.00">atomic</text>
</g>
<!-- Node1&#45;&gt;Node19 -->
<g id="edge21" class="edge"><title>Node1&#45;&gt;Node19</title>
<path fill="none" stroke="midnightblue" d="M566.558,-234.988C604.507,-225.428 657.192,-211.821 712.063,-196.18"/>
<polygon fill="midnightblue" stroke="midnightblue" points="713.319,-199.461 721.967,-193.341 711.39,-192.732 713.319,-199.461"/>
</g>
<!-- Node20 -->
<g id="node20" class="node"><title>Node20</title>
<polygon fill="white" stroke="#bfbfbf" points="785.33,-175 785.33,-195 814.67,-195 814.67,-175 785.33,-175"/>
<text text-anchor="middle" x="800" y="-181" font-family="Helvetica,sans-Serif" font-size="10.00">set</text>
</g>
<!-- Node1&#45;&gt;Node20 -->
<g id="edge22" class="edge"><title>Node1&#45;&gt;Node20</title>
<path fill="none" stroke="midnightblue" d="M566.952,-240.658C618.225,-232.845 698.128,-218.81 775.304,-195.722"/>
<polygon fill="midnightblue" stroke="midnightblue" points="776.644,-198.972 785.189,-192.709 774.603,-192.276 776.644,-198.972"/>
</g>
<!-- Node3 -->
<g id="node3" class="node"><title>Node3</title>
<g id="a_node3"><a xlink:href="_cinder_assert_8h.html" target="_top" xlink:title="cinder/CinderAssert.h">
<polygon fill="white" stroke="black" points="287.924,-117 287.924,-137 400.076,-137 400.076,-117 287.924,-117"/>
<text text-anchor="middle" x="344" y="-123" font-family="Helvetica,sans-Serif" font-size="10.00">cinder/CinderAssert.h</text>
</a>
</g>
</g>
<!-- Node2&#45;&gt;Node3 -->
<g id="edge2" class="edge"><title>Node2&#45;&gt;Node3</title>
<path fill="none" stroke="midnightblue" d="M344,-174.753C344,-167.25 344,-156.424 344,-147.078"/>
<polygon fill="midnightblue" stroke="midnightblue" points="347.5,-147.075 344,-137.075 340.5,-147.075 347.5,-147.075"/>
</g>
<!-- Node6 -->
<g id="node6" class="node"><title>Node6</title>
<polygon fill="white" stroke="#bfbfbf" points="203.384,-59 203.384,-79 246.616,-79 246.616,-59 203.384,-59"/>
<text text-anchor="middle" x="225" y="-65" font-family="Helvetica,sans-Serif" font-size="10.00">vector</text>
</g>
<!-- Node2&#45;&gt;Node6 -->
<g id="edge5" class="edge"><title>Node2&#45;&gt;Node6</title>
<path fill="none" stroke="midnightblue" d="M328.631,-174.88C314.845,-166.307 294.465,-152.633 279,-138 262.652,-122.531 247.006,-101.977 236.803,-87.5306"/>
<polygon fill="midnightblue" stroke="midnightblue" points="239.496,-85.2712 230.932,-79.0338 233.737,-89.2505 239.496,-85.2712"/>
</g>
<!-- Node2&#45;&gt;Node7 -->
<g id="edge6" class="edge"><title>Node2&#45;&gt;Node7</title>
<path fill="none" stroke="midnightblue" d="M370.389,-174.878C397.535,-165.494 439.998,-150.815 470.17,-140.386"/>
<polygon fill="midnightblue" stroke="midnightblue" points="471.583,-143.6 479.891,-137.025 469.296,-136.985 471.583,-143.6"/>
</g>
<!-- Node8 -->
<g id="node8" class="node"><title>Node8</title>
<polygon fill="white" stroke="#bfbfbf" points="417.828,-117 417.828,-137 462.172,-137 462.172,-117 417.828,-117"/>
<text text-anchor="middle" x="440" y="-123" font-family="Helvetica,sans-Serif" font-size="10.00">cstdlib</text>
</g>
<!-- Node2&#45;&gt;Node8 -->
<g id="edge7" class="edge"><title>Node2&#45;&gt;Node8</title>
<path fill="none" stroke="midnightblue" d="M359.852,-174.753C374.95,-165.946 397.901,-152.558 415.38,-142.362"/>
<polygon fill="midnightblue" stroke="midnightblue" points="417.568,-145.137 424.443,-137.075 414.041,-139.091 417.568,-145.137"/>
</g>
<!-- Node9 -->
<g id="node9" class="node"><title>Node9</title>
<polygon fill="white" stroke="#bfbfbf" points="174.436,-117 174.436,-137 231.564,-137 231.564,-117 174.436,-117"/>
<text text-anchor="middle" x="203" y="-123" font-family="Helvetica,sans-Serif" font-size="10.00">algorithm</text>
</g>
<!-- Node2&#45;&gt;Node9 -->
<g id="edge8" class="edge"><title>Node2&#45;&gt;Node9</title>
<path fill="none" stroke="midnightblue" d="M321.032,-174.878C297.782,-165.644 261.623,-151.283 235.452,-140.889"/>
<polygon fill="midnightblue" stroke="midnightblue" points="236.544,-137.556 225.958,-137.118 233.96,-144.062 236.544,-137.556"/>
</g>
<!-- Node4 -->
<g id="node4" class="node"><title>Node4</title>
<g id="a_node4"><a xlink:href="_current_function_8h.html" target="_top" xlink:title="cinder/CurrentFunction.h">
<polygon fill="white" stroke="black" points="357.973,-59 357.973,-79 484.027,-79 484.027,-59 357.973,-59"/>
<text text-anchor="middle" x="421" y="-65" font-family="Helvetica,sans-Serif" font-size="10.00">cinder/CurrentFunction.h</text>
</a>
</g>
</g>
<!-- Node3&#45;&gt;Node4 -->
<g id="edge3" class="edge"><title>Node3&#45;&gt;Node4</title>
<path fill="none" stroke="midnightblue" d="M356.715,-116.753C368.488,-108.19 386.216,-95.2978 400.074,-85.2186"/>
<polygon fill="midnightblue" stroke="midnightblue" points="402.493,-87.7875 408.522,-79.0752 398.376,-82.1264 402.493,-87.7875"/>
</g>
<!-- Node5 -->
<g id="node5" class="node"><title>Node5</title>
<polygon fill="white" stroke="#bfbfbf" points="291.884,-59 291.884,-79 340.116,-79 340.116,-59 291.884,-59"/>
<text text-anchor="middle" x="316" y="-65" font-family="Helvetica,sans-Serif" font-size="10.00">cassert</text>
</g>
<!-- Node3&#45;&gt;Node5 -->
<g id="edge4" class="edge"><title>Node3&#45;&gt;Node5</title>
<path fill="none" stroke="midnightblue" d="M339.376,-116.753C335.503,-109.006 329.857,-97.7142 325.084,-88.1688"/>
<polygon fill="midnightblue" stroke="midnightblue" points="328.14,-86.4542 320.538,-79.0752 321.879,-89.5847 328.14,-86.4542"/>
</g>
<!-- Node11 -->
<g id="node11" class="node"><title>Node11</title>
<g id="a_node11"><a xlink:href="_exception_8h.html" target="_top" xlink:title="cinder/Exception.h">
<polygon fill="white" stroke="black" points="57.8647,-117 57.8647,-137 156.135,-137 156.135,-117 57.8647,-117"/>
<text text-anchor="middle" x="107" y="-123" font-family="Helvetica,sans-Serif" font-size="10.00">cinder/Exception.h</text>
</a>
</g>
</g>
<!-- Node10&#45;&gt;Node11 -->
<g id="edge10" class="edge"><title>Node10&#45;&gt;Node11</title>
<path fill="none" stroke="midnightblue" d="M107,-174.753C107,-167.25 107,-156.424 107,-147.078"/>
<polygon fill="midnightblue" stroke="midnightblue" points="110.5,-147.075 107,-137.075 103.5,-147.075 110.5,-147.075"/>
</g>
<!-- Node16 -->
<g id="node16" class="node"><title>Node16</title>
<polygon fill="white" stroke="#bfbfbf" points="9.77344,-59 9.77344,-79 50.2266,-79 50.2266,-59 9.77344,-59"/>
<text text-anchor="middle" x="30" y="-65" font-family="Helvetica,sans-Serif" font-size="10.00">string</text>
</g>
<!-- Node10&#45;&gt;Node16 -->
<g id="edge17" class="edge"><title>Node10&#45;&gt;Node16</title>
<path fill="none" stroke="midnightblue" d="M90.626,-174.969C77.5058,-166.917 59.5961,-153.951 49,-138 39.2594,-123.337 34.4681,-103.726 32.1385,-89.333"/>
<polygon fill="midnightblue" stroke="midnightblue" points="35.5633,-88.5413 30.7505,-79.1027 28.6268,-89.4825 35.5633,-88.5413"/>
</g>
<!-- Node12 -->
<g id="node12" class="node"><title>Node12</title>
<g id="a_node12"><a xlink:href="_cinder_8h.html" target="_top" xlink:title="cinder/Cinder.h">
<polygon fill="white" stroke="black" points="68.3672,-59 68.3672,-79 151.633,-79 151.633,-59 68.3672,-59"/>
<text text-anchor="middle" x="110" y="-65" font-family="Helvetica,sans-Serif" font-size="10.00">cinder/Cinder.h</text>
</a>
</g>
</g>
<!-- Node11&#45;&gt;Node12 -->
<g id="edge11" class="edge"><title>Node11&#45;&gt;Node12</title>
<path fill="none" stroke="midnightblue" d="M107.495,-116.753C107.897,-109.25 108.477,-98.4238 108.978,-89.0781"/>
<polygon fill="midnightblue" stroke="midnightblue" points="112.474,-89.2481 109.514,-79.0752 105.484,-88.8736 112.474,-89.2481"/>
</g>
<!-- Node11&#45;&gt;Node6 -->
<g id="edge15" class="edge"><title>Node11&#45;&gt;Node6</title>
<path fill="none" stroke="midnightblue" d="M126.221,-116.878C145.336,-107.807 174.876,-93.7876 196.676,-83.4418"/>
<polygon fill="midnightblue" stroke="midnightblue" points="198.253,-86.5676 205.787,-79.1181 195.252,-80.2436 198.253,-86.5676"/>
</g>
<!-- Node11&#45;&gt;Node16 -->
<g id="edge16" class="edge"><title>Node11&#45;&gt;Node16</title>
<path fill="none" stroke="midnightblue" d="M94.285,-116.753C82.5117,-108.19 64.7844,-95.2978 50.9256,-85.2186"/>
<polygon fill="midnightblue" stroke="midnightblue" points="52.6244,-82.1264 42.4784,-79.0752 48.5072,-87.7875 52.6244,-82.1264"/>
</g>
<!-- Node13 -->
<g id="node13" class="node"><title>Node13</title>
<polygon fill="white" stroke="#bfbfbf" points="-0.450684,-1 -0.450684,-21 44.4507,-21 44.4507,-1 -0.450684,-1"/>
<text text-anchor="middle" x="22" y="-7" font-family="Helvetica,sans-Serif" font-size="10.00">cstdint</text>
</g>
<!-- Node12&#45;&gt;Node13 -->
<g id="edge12" class="edge"><title>Node12&#45;&gt;Node13</title>
<path fill="none" stroke="midnightblue" d="M95.4686,-58.7527C81.757,-50.0272 60.9794,-36.8051 45.0148,-26.6458"/>
<polygon fill="midnightblue" stroke="midnightblue" points="46.5767,-23.4912 36.261,-21.0752 42.8186,-29.3968 46.5767,-23.4912"/>
</g>
<!-- Node14 -->
<g id="node14" class="node"><title>Node14</title>
<polygon fill="white" stroke="#bfbfbf" points="62.5298,-1 62.5298,-21 157.47,-21 157.47,-1 62.5298,-1"/>
<text text-anchor="middle" x="110" y="-7" font-family="Helvetica,sans-Serif" font-size="10.00">boost/version.hpp</text>
</g>
<!-- Node12&#45;&gt;Node14 -->
<g id="edge13" class="edge"><title>Node12&#45;&gt;Node14</title>
<path fill="none" stroke="midnightblue" d="M110,-58.7527C110,-51.2504 110,-40.4238 110,-31.0781"/>
<polygon fill="midnightblue" stroke="midnightblue" points="113.5,-31.0752 110,-21.0752 106.5,-31.0752 113.5,-31.0752"/>
</g>
<!-- Node15 -->
<g id="node15" class="node"><title>Node15</title>
<polygon fill="white" stroke="#bfbfbf" points="175.621,-1 175.621,-21 308.379,-21 308.379,-1 175.621,-1"/>
<text text-anchor="middle" x="242" y="-7" font-family="Helvetica,sans-Serif" font-size="10.00">boost/checked_delete.hpp</text>
</g>
<!-- Node12&#45;&gt;Node15 -->
<g id="edge14" class="edge"><title>Node12&#45;&gt;Node15</title>
<path fill="none" stroke="midnightblue" d="M131.502,-58.878C153.172,-49.6848 186.821,-35.4095 211.295,-25.0263"/>
<polygon fill="midnightblue" stroke="midnightblue" points="212.668,-28.2457 220.507,-21.1181 209.935,-21.8016 212.668,-28.2457"/>
</g>
</g>
</svg>
