<?xml version="1.0" encoding="UTF-8" standalone="no"?>
<!DOCTYPE svg PUBLIC "-//W3C//DTD SVG 1.1//EN"
 "http://www.w3.org/Graphics/SVG/1.1/DTD/svg11.dtd">
<!-- Generated by graphviz version 2.30.1 (20140712.1814)
 -->
<!-- Title: include/cinder/audio/OutputNode.h Pages: 1 -->
<!--zoomable 252 -->
<svg id="main" version="1.1" xmlns="http://www.w3.org/2000/svg" xmlns:xlink="http://www.w3.org/1999/xlink" xml:space="preserve" onload="init(evt)">
<style type="text/css"><![CDATA[
.edge:hover path { stroke: red; }
.edge:hover polygon { stroke: red; fill: red; }
]]></style>
<script type="text/javascript"><![CDATA[
var edges = document.getElementsByTagName('g');
if (edges && edges.length) {
  for (var i=0;i<edges.length;i++) {
    if (edges[i].id.substr(0,4)=='edge') {
      edges[i].setAttribute('class','edge');
    }
  }
}
]]></script>
        <defs>
                <circle id="rim" cx="0" cy="0" r="7"/>
                <circle id="rim2" cx="0" cy="0" r="3.5"/>
                <g id="zoomPlus">
                        <use xlink:href="#rim" fill="#404040">
                                <set attributeName="fill" to="#808080" begin="zoomplus.mouseover" end="zoomplus.mouseout"/>
                        </use>
                        <path d="M-4,0h8M0,-4v8" fill="none" stroke="white" stroke-width="1.5" pointer-events="none"/>
                </g>
                <g id="zoomMin">
                        <use xlink:href="#rim" fill="#404040">
                                <set attributeName="fill" to="#808080" begin="zoomminus.mouseover" end="zoomminus.mouseout"/>
                        </use>
                        <path d="M-4,0h8" fill="none" stroke="white" stroke-width="1.5" pointer-events="none"/>
                </g>
                <g id="dirArrow">
                        <path fill="none" stroke="white" stroke-width="1.5" d="M0,-3.0v7 M-2.5,-0.5L0,-3.0L2.5,-0.5"/>
                </g>
               <g id="resetDef">
                       <use xlink:href="#rim2" fill="#404040">
                               <set attributeName="fill" to="#808080" begin="reset.mouseover" end="reset.mouseout"/>
                       </use>
               </g>
        </defs>

<script type="text/javascript">
var viewWidth = 2059;
var viewHeight = 252;
var sectionId = 'dynsection-1';
</script>
<script xlink:href="svgpan.js"/>
<svg id="graph" class="graph">
<g id="viewport">
<title>include/cinder/audio/OutputNode.h</title>
<polygon fill="white" stroke="white" points="-4,5 -4,-248 2056,-248 2056,5 -4,5"/>
<!-- Node1 -->
<g id="node1" class="node"><title>Node1</title>
<polygon fill="#bfbfbf" stroke="black" points="1278.52,-211 1278.52,-243 1383.48,-243 1383.48,-211 1278.52,-211"/>
<text text-anchor="start" x="1286.52" y="-229" font-family="Helvetica,sans-Serif" font-size="10.00">include/cinder/audio</text>
<text text-anchor="middle" x="1331" y="-217" font-family="Helvetica,sans-Serif" font-size="10.00">/OutputNode.h</text>
</g>
<!-- Node2 -->
<g id="node2" class="node"><title>Node2</title>
<g id="a_node2"><a xlink:href="_context_8h.html" target="_top" xlink:title="include/cinder/audio\l/Context.h">
<polygon fill="white" stroke="black" points="1012.52,-141 1012.52,-173 1117.48,-173 1117.48,-141 1012.52,-141"/>
<text text-anchor="start" x="1020.52" y="-159" font-family="Helvetica,sans-Serif" font-size="10.00">include/cinder/audio</text>
<text text-anchor="middle" x="1065" y="-147" font-family="Helvetica,sans-Serif" font-size="10.00">/Context.h</text>
</a>
</g>
</g>
<!-- Node1&#45;&gt;Node2 -->
<g id="edge1" class="edge"><title>Node1&#45;&gt;Node2</title>
<path fill="none" stroke="midnightblue" d="M1268.63,-210.057C1222.84,-198.349 1161.3,-182.618 1117.9,-171.523"/>
<polygon fill="midnightblue" stroke="midnightblue" points="1267.89,-213.48 1278.45,-212.565 1269.63,-206.698 1267.89,-213.48"/>
</g>
<!-- Node13 -->
<g id="node13" class="node"><title>Node13</title>
<g id="a_node13"><a xlink:href="_output_node_8cpp.html" target="_top" xlink:title="src/cinder/audio/OutputNode.cpp">
<polygon fill="white" stroke="black" points="1888.9,-77 1888.9,-97 2051.1,-97 2051.1,-77 1888.9,-77"/>
<text text-anchor="middle" x="1970" y="-83" font-family="Helvetica,sans-Serif" font-size="10.00">src/cinder/audio/OutputNode.cpp</text>
</a>
</g>
</g>
<!-- Node1&#45;&gt;Node13 -->
<g id="edge17" class="edge"><title>Node1&#45;&gt;Node13</title>
<path fill="none" stroke="midnightblue" d="M1393.35,-212.534C1522.99,-184.537 1818.64,-120.688 1928.17,-97.0337"/>
<polygon fill="midnightblue" stroke="midnightblue" points="1392.6,-209.116 1383.56,-214.648 1394.08,-215.958 1392.6,-209.116"/>
</g>
<!-- Node3 -->
<g id="node3" class="node"><title>Node3</title>
<g id="a_node3"><a xlink:href="_context_audio_unit_8h.html" target="_top" xlink:title="include/cinder/audio\l/cocoa/ContextAudioUnit.h">
<polygon fill="white" stroke="black" points="-0.20166,-71 -0.20166,-103 134.202,-103 134.202,-71 -0.20166,-71"/>
<text text-anchor="start" x="7.79834" y="-89" font-family="Helvetica,sans-Serif" font-size="10.00">include/cinder/audio</text>
<text text-anchor="middle" x="67" y="-77" font-family="Helvetica,sans-Serif" font-size="10.00">/cocoa/ContextAudioUnit.h</text>
</a>
</g>
</g>
<!-- Node2&#45;&gt;Node3 -->
<g id="edge2" class="edge"><title>Node2&#45;&gt;Node3</title>
<path fill="none" stroke="midnightblue" d="M1001.95,-155.658C852.38,-154.147 464.595,-146.122 144,-104 140.886,-103.591 137.711,-103.126 134.509,-102.619"/>
<polygon fill="midnightblue" stroke="midnightblue" points="1002.27,-159.161 1012.3,-155.756 1002.34,-152.161 1002.27,-159.161"/>
</g>
<!-- Node5 -->
<g id="node5" class="node"><title>Node5</title>
<g id="a_node5"><a xlink:href="_monitor_node_8h.html" target="_top" xlink:title="include/cinder/audio\l/MonitorNode.h">
<polygon fill="white" stroke="black" points="152.525,-71 152.525,-103 257.475,-103 257.475,-71 152.525,-71"/>
<text text-anchor="start" x="160.525" y="-89" font-family="Helvetica,sans-Serif" font-size="10.00">include/cinder/audio</text>
<text text-anchor="middle" x="205" y="-77" font-family="Helvetica,sans-Serif" font-size="10.00">/MonitorNode.h</text>
</a>
</g>
</g>
<!-- Node2&#45;&gt;Node5 -->
<g id="edge4" class="edge"><title>Node2&#45;&gt;Node5</title>
<path fill="none" stroke="midnightblue" d="M1002.16,-155.894C866.849,-154.794 538.223,-147.44 267,-104 263.927,-103.508 260.784,-102.932 257.623,-102.296"/>
<polygon fill="midnightblue" stroke="midnightblue" points="1002.31,-159.395 1012.34,-155.968 1002.36,-152.395 1002.31,-159.395"/>
</g>
<!-- Node7 -->
<g id="node7" class="node"><title>Node7</title>
<g id="a_node7"><a xlink:href="_channel_router_node_8cpp.html" target="_top" xlink:title="src/cinder/audio/Channel\lRouterNode.cpp">
<polygon fill="white" stroke="black" points="275.69,-71 275.69,-103 402.31,-103 402.31,-71 275.69,-71"/>
<text text-anchor="start" x="283.69" y="-89" font-family="Helvetica,sans-Serif" font-size="10.00">src/cinder/audio/Channel</text>
<text text-anchor="middle" x="339" y="-77" font-family="Helvetica,sans-Serif" font-size="10.00">RouterNode.cpp</text>
</a>
</g>
</g>
<!-- Node2&#45;&gt;Node7 -->
<g id="edge6" class="edge"><title>Node2&#45;&gt;Node7</title>
<path fill="none" stroke="midnightblue" d="M1002.06,-153.841C885.22,-149.202 627.113,-135.987 412,-104 408.92,-103.542 405.776,-103.029 402.607,-102.476"/>
<polygon fill="midnightblue" stroke="midnightblue" points="1002.12,-157.346 1012.25,-154.238 1002.39,-150.351 1002.12,-157.346"/>
</g>
<!-- Node8 -->
<g id="node8" class="node"><title>Node8</title>
<g id="a_node8"><a xlink:href="_context_8cpp.html" target="_top" xlink:title="src/cinder/audio/Context.cpp">
<polygon fill="white" stroke="black" points="420.633,-77 420.633,-97 563.367,-97 563.367,-77 420.633,-77"/>
<text text-anchor="middle" x="492" y="-83" font-family="Helvetica,sans-Serif" font-size="10.00">src/cinder/audio/Context.cpp</text>
</a>
</g>
</g>
<!-- Node2&#45;&gt;Node8 -->
<g id="edge7" class="edge"><title>Node2&#45;&gt;Node8</title>
<path fill="none" stroke="midnightblue" d="M1002.21,-151.179C908.462,-143.572 726.482,-127.222 573,-104 560.244,-102.07 546.446,-99.5196 533.915,-97.0234"/>
<polygon fill="midnightblue" stroke="midnightblue" points="1002.13,-154.684 1012.38,-151.998 1002.69,-147.707 1002.13,-154.684"/>
</g>
<!-- Node9 -->
<g id="node9" class="node"><title>Node9</title>
<g id="a_node9"><a xlink:href="_device_8cpp.html" target="_top" xlink:title="src/cinder/audio/Device.cpp">
<polygon fill="white" stroke="black" points="581.582,-77 581.582,-97 720.418,-97 720.418,-77 581.582,-77"/>
<text text-anchor="middle" x="651" y="-83" font-family="Helvetica,sans-Serif" font-size="10.00">src/cinder/audio/Device.cpp</text>
</a>
</g>
</g>
<!-- Node2&#45;&gt;Node9 -->
<g id="edge8" class="edge"><title>Node2&#45;&gt;Node9</title>
<path fill="none" stroke="midnightblue" d="M1002.43,-147.248C934.835,-137.576 824.046,-121.093 729,-104 717.299,-101.896 704.657,-99.3997 693.027,-97.0125"/>
<polygon fill="midnightblue" stroke="midnightblue" points="1002.09,-150.735 1012.49,-148.682 1003.08,-143.805 1002.09,-150.735"/>
</g>
<!-- Node10 -->
<g id="node10" class="node"><title>Node10</title>
<g id="a_node10"><a xlink:href="_gen_node_8cpp.html" target="_top" xlink:title="src/cinder/audio/GenNode.cpp">
<polygon fill="white" stroke="black" points="738.461,-77 738.461,-97 889.539,-97 889.539,-77 738.461,-77"/>
<text text-anchor="middle" x="814" y="-83" font-family="Helvetica,sans-Serif" font-size="10.00">src/cinder/audio/GenNode.cpp</text>
</a>
</g>
</g>
<!-- Node2&#45;&gt;Node10 -->
<g id="edge9" class="edge"><title>Node2&#45;&gt;Node10</title>
<path fill="none" stroke="midnightblue" d="M1002.49,-139.064C953.348,-125.752 886.814,-107.727 847.353,-97.0359"/>
<polygon fill="midnightblue" stroke="midnightblue" points="1001.81,-142.508 1012.38,-141.745 1003.65,-135.752 1001.81,-142.508"/>
</g>
<!-- Node11 -->
<g id="node11" class="node"><title>Node11</title>
<g id="a_node11"><a xlink:href="_input_node_8cpp.html" target="_top" xlink:title="src/cinder/audio/InputNode.cpp">
<polygon fill="white" stroke="black" points="907.791,-77 907.791,-97 1062.21,-97 1062.21,-77 907.791,-77"/>
<text text-anchor="middle" x="985" y="-83" font-family="Helvetica,sans-Serif" font-size="10.00">src/cinder/audio/InputNode.cpp</text>
</a>
</g>
</g>
<!-- Node2&#45;&gt;Node11 -->
<g id="edge10" class="edge"><title>Node2&#45;&gt;Node11</title>
<path fill="none" stroke="midnightblue" d="M1039.39,-134.228C1024.56,-121.628 1006.7,-106.444 995.592,-97.0035"/>
<polygon fill="midnightblue" stroke="midnightblue" points="1037.36,-137.099 1047.25,-140.909 1041.89,-131.765 1037.36,-137.099"/>
</g>
<!-- Node12 -->
<g id="node12" class="node"><title>Node12</title>
<g id="a_node12"><a xlink:href="_node_8cpp.html" target="_top" xlink:title="src/cinder/audio/Node.cpp">
<polygon fill="white" stroke="black" points="1079.91,-77 1079.91,-97 1212.09,-97 1212.09,-77 1079.91,-77"/>
<text text-anchor="middle" x="1146" y="-83" font-family="Helvetica,sans-Serif" font-size="10.00">src/cinder/audio/Node.cpp</text>
</a>
</g>
</g>
<!-- Node2&#45;&gt;Node12 -->
<g id="edge11" class="edge"><title>Node2&#45;&gt;Node12</title>
<path fill="none" stroke="midnightblue" d="M1090.93,-134.228C1105.94,-121.628 1124.03,-106.444 1135.28,-97.0035"/>
<polygon fill="midnightblue" stroke="midnightblue" points="1088.39,-131.798 1082.98,-140.909 1092.89,-137.159 1088.39,-131.798"/>
</g>
<!-- Node2&#45;&gt;Node13 -->
<g id="edge12" class="edge"><title>Node2&#45;&gt;Node13</title>
<path fill="none" stroke="midnightblue" d="M1127.94,-154.39C1265.04,-150.356 1600.82,-137.615 1880,-104 1894.65,-102.236 1910.54,-99.6417 1924.82,-97.0536"/>
<polygon fill="midnightblue" stroke="midnightblue" points="1127.52,-150.9 1117.63,-154.688 1127.73,-157.897 1127.52,-150.9"/>
</g>
<!-- Node14 -->
<g id="node14" class="node"><title>Node14</title>
<g id="a_node14"><a xlink:href="_param_8cpp.html" target="_top" xlink:title="src/cinder/audio/Param.cpp">
<polygon fill="white" stroke="black" points="1230.14,-77 1230.14,-97 1367.86,-97 1367.86,-77 1230.14,-77"/>
<text text-anchor="middle" x="1299" y="-83" font-family="Helvetica,sans-Serif" font-size="10.00">src/cinder/audio/Param.cpp</text>
</a>
</g>
</g>
<!-- Node2&#45;&gt;Node14 -->
<g id="edge13" class="edge"><title>Node2&#45;&gt;Node14</title>
<path fill="none" stroke="midnightblue" d="M1126.4,-138.156C1171.89,-124.938 1231.98,-107.475 1267.94,-97.0266"/>
<polygon fill="midnightblue" stroke="midnightblue" points="1125.27,-134.841 1116.64,-140.993 1127.22,-141.563 1125.27,-134.841"/>
</g>
<!-- Node15 -->
<g id="node15" class="node"><title>Node15</title>
<g id="a_node15"><a xlink:href="_sample_player_node_8cpp.html" target="_top" xlink:title="src/cinder/audio/SamplePlayer\lNode.cpp">
<polygon fill="white" stroke="black" points="1386.19,-71 1386.19,-103 1537.81,-103 1537.81,-71 1386.19,-71"/>
<text text-anchor="start" x="1394.19" y="-89" font-family="Helvetica,sans-Serif" font-size="10.00">src/cinder/audio/SamplePlayer</text>
<text text-anchor="middle" x="1462" y="-77" font-family="Helvetica,sans-Serif" font-size="10.00">Node.cpp</text>
</a>
</g>
</g>
<!-- Node2&#45;&gt;Node15 -->
<g id="edge14" class="edge"><title>Node2&#45;&gt;Node15</title>
<path fill="none" stroke="midnightblue" d="M1127.75,-145.854C1190.6,-135.609 1290.08,-119.174 1376,-104 1379.29,-103.419 1382.65,-102.82 1386.04,-102.209"/>
<polygon fill="midnightblue" stroke="midnightblue" points="1126.91,-142.444 1117.6,-147.506 1128.03,-149.353 1126.91,-142.444"/>
</g>
<!-- Node16 -->
<g id="node16" class="node"><title>Node16</title>
<g id="a_node16"><a xlink:href="_sample_recorder_node_8cpp.html" target="_top" xlink:title="src/cinder/audio/SampleRecorder\lNode.cpp">
<polygon fill="white" stroke="black" points="1555.8,-71 1555.8,-103 1720.2,-103 1720.2,-71 1555.8,-71"/>
<text text-anchor="start" x="1563.8" y="-89" font-family="Helvetica,sans-Serif" font-size="10.00">src/cinder/audio/SampleRecorder</text>
<text text-anchor="middle" x="1638" y="-77" font-family="Helvetica,sans-Serif" font-size="10.00">Node.cpp</text>
</a>
</g>
</g>
<!-- Node2&#45;&gt;Node16 -->
<g id="edge15" class="edge"><title>Node2&#45;&gt;Node16</title>
<path fill="none" stroke="midnightblue" d="M1127.79,-150.515C1219.78,-142.184 1396.49,-125.06 1546,-104 1549.21,-103.548 1552.48,-103.068 1555.78,-102.569"/>
<polygon fill="midnightblue" stroke="midnightblue" points="1127.45,-147.031 1117.81,-151.414 1128.08,-154.003 1127.45,-147.031"/>
</g>
<!-- Node17 -->
<g id="node17" class="node"><title>Node17</title>
<g id="a_node17"><a xlink:href="_voice_8cpp.html" target="_top" xlink:title="src/cinder/audio/Voice.cpp">
<polygon fill="white" stroke="black" points="1738.63,-77 1738.63,-97 1871.37,-97 1871.37,-77 1738.63,-77"/>
<text text-anchor="middle" x="1805" y="-83" font-family="Helvetica,sans-Serif" font-size="10.00">src/cinder/audio/Voice.cpp</text>
</a>
</g>
</g>
<!-- Node2&#45;&gt;Node17 -->
<g id="edge16" class="edge"><title>Node2&#45;&gt;Node17</title>
<path fill="none" stroke="midnightblue" d="M1128.08,-153.779C1246.41,-149.01 1509.58,-135.554 1729,-104 1741.41,-102.215 1754.84,-99.6154 1766.9,-97.0286"/>
<polygon fill="midnightblue" stroke="midnightblue" points="1127.62,-150.294 1117.76,-154.187 1127.89,-157.289 1127.62,-150.294"/>
</g>
<!-- Node4 -->
<g id="node4" class="node"><title>Node4</title>
<g id="a_node4"><a xlink:href="_context_audio_unit_8cpp.html" target="_top" xlink:title="src/cinder/audio/cocoa\l/ContextAudioUnit.cpp">
<polygon fill="white" stroke="black" points="8.97314,-1 8.97314,-33 125.027,-33 125.027,-1 8.97314,-1"/>
<text text-anchor="start" x="16.9731" y="-19" font-family="Helvetica,sans-Serif" font-size="10.00">src/cinder/audio/cocoa</text>
<text text-anchor="middle" x="67" y="-7" font-family="Helvetica,sans-Serif" font-size="10.00">/ContextAudioUnit.cpp</text>
</a>
</g>
</g>
<!-- Node3&#45;&gt;Node4 -->
<g id="edge3" class="edge"><title>Node3&#45;&gt;Node4</title>
<path fill="none" stroke="midnightblue" d="M67,-60.6174C67,-51.3378 67,-41.1413 67,-33.0492"/>
<polygon fill="midnightblue" stroke="midnightblue" points="63.5001,-60.9086 67,-70.9086 70.5001,-60.9086 63.5001,-60.9086"/>
</g>
<!-- Node6 -->
<g id="node6" class="node"><title>Node6</title>
<g id="a_node6"><a xlink:href="_monitor_node_8cpp.html" target="_top" xlink:title="src/cinder/audio/Monitor\lNode.cpp">
<polygon fill="white" stroke="black" points="143.643,-1 143.643,-33 266.357,-33 266.357,-1 143.643,-1"/>
<text text-anchor="start" x="151.643" y="-19" font-family="Helvetica,sans-Serif" font-size="10.00">src/cinder/audio/Monitor</text>
<text text-anchor="middle" x="205" y="-7" font-family="Helvetica,sans-Serif" font-size="10.00">Node.cpp</text>
</a>
</g>
</g>
<!-- Node5&#45;&gt;Node6 -->
<g id="edge5" class="edge"><title>Node5&#45;&gt;Node6</title>
<path fill="none" stroke="midnightblue" d="M205,-60.6174C205,-51.3378 205,-41.1413 205,-33.0492"/>
<polygon fill="midnightblue" stroke="midnightblue" points="201.5,-60.9086 205,-70.9086 208.5,-60.9086 201.5,-60.9086"/>
</g>
</g>
</svg>
        <g id="navigator" transform="translate(0 0)" fill="#404254">
                <rect fill="#f2f5e9" fill-opacity="0.5" stroke="#606060" stroke-width=".5" x="0" y="0" width="60" height="60"/>
                <use id="zoomplus" xlink:href="#zoomPlus" x="17" y="9" onmousedown="handleZoom(evt,'in')"/>
                <use id="zoomminus" xlink:href="#zoomMin" x="42" y="9" onmousedown="handleZoom(evt,'out')"/>
                <use id="reset" xlink:href="#resetDef" x="30" y="36" onmousedown="handleReset()"/>
                <g id="arrowUp" xlink:href="#dirArrow" transform="translate(30 24)" onmousedown="handlePan(0,-1)">
                  <use xlink:href="#rim" fill="#404040">
                        <set attributeName="fill" to="#808080" begin="arrowUp.mouseover" end="arrowUp.mouseout"/>
                  </use>
                  <path fill="none" stroke="white" stroke-width="1.5" d="M0,-3.0v7 M-2.5,-0.5L0,-3.0L2.5,-0.5"/>
                </g>
                <g id="arrowRight" xlink:href="#dirArrow" transform="rotate(90) translate(36 -43)" onmousedown="handlePan(1,0)">
                  <use xlink:href="#rim" fill="#404040">
                        <set attributeName="fill" to="#808080" begin="arrowRight.mouseover" end="arrowRight.mouseout"/>
                  </use>
                  <path fill="none" stroke="white" stroke-width="1.5" d="M0,-3.0v7 M-2.5,-0.5L0,-3.0L2.5,-0.5"/>
                </g>
                <g id="arrowDown" xlink:href="#dirArrow" transform="rotate(180) translate(-30 -48)" onmousedown="handlePan(0,1)">
                  <use xlink:href="#rim" fill="#404040">
                        <set attributeName="fill" to="#808080" begin="arrowDown.mouseover" end="arrowDown.mouseout"/>
                  </use>
                  <path fill="none" stroke="white" stroke-width="1.5" d="M0,-3.0v7 M-2.5,-0.5L0,-3.0L2.5,-0.5"/>
                </g>
                <g id="arrowLeft" xlink:href="#dirArrow" transform="rotate(270) translate(-36 17)" onmousedown="handlePan(-1,0)">
                  <use xlink:href="#rim" fill="#404040">
                        <set attributeName="fill" to="#808080" begin="arrowLeft.mouseover" end="arrowLeft.mouseout"/>
                  </use>
                  <path fill="none" stroke="white" stroke-width="1.5" d="M0,-3.0v7 M-2.5,-0.5L0,-3.0L2.5,-0.5"/>
                </g>
        </g>
        <svg viewBox="0 0 15 15" width="100%" height="30px" preserveAspectRatio="xMaxYMin meet">
         <g id="arrow_out" transform="scale(0.3 0.3)">
          <a xlink:href="_output_node_8h__dep__incl_org.svg" target="_base">
           <rect id="button" ry="5" rx="5" y="6" x="6" height="38" width="38"
                fill="#f2f5e9" fill-opacity="0.5" stroke="#606060" stroke-width="1.0"/>
           <path id="arrow"
             d="M 11.500037,31.436501 C 11.940474,20.09759 22.043105,11.32322 32.158766,21.979434 L 37.068811,17.246167 C 37.068811,17.246167 37.088388,32 37.088388,32 L 22.160133,31.978069 C 22.160133,31.978069 26.997745,27.140456 26.997745,27.140456 C 18.528582,18.264221 13.291696,25.230495 11.500037,31.436501 z"
             style="fill:#404040;"/>
          </a>
         </g>
        </svg>
</svg>
