<?xml version="1.0" encoding="UTF-8" standalone="no"?>
<!DOCTYPE svg PUBLIC "-//W3C//DTD SVG 1.1//EN"
 "http://www.w3.org/Graphics/SVG/1.1/DTD/svg11.dtd">
<!-- Generated by graphviz version 2.30.1 (20140712.1814)
 -->
<!-- Title: src/cinder/audio/PanNode.cpp Pages: 1 -->
<svg width="1131pt" height="378pt"
 viewBox="0.00 0.00 1131.00 378.00" xmlns="http://www.w3.org/2000/svg" xmlns:xlink="http://www.w3.org/1999/xlink">
<g id="graph0" class="graph" transform="scale(1 1) rotate(0) translate(4 374)">
<title>src/cinder/audio/PanNode.cpp</title>
<polygon fill="white" stroke="white" points="-4,5 -4,-374 1128,-374 1128,5 -4,5"/>
<!-- Node1 -->
<g id="node1" class="node"><title>Node1</title>
<polygon fill="#bfbfbf" stroke="black" points="705.015,-349 705.015,-369 854.985,-369 854.985,-349 705.015,-349"/>
<text text-anchor="middle" x="780" y="-355" font-family="Helvetica,sans-Serif" font-size="10.00">src/cinder/audio/PanNode.cpp</text>
</g>
<!-- Node2 -->
<g id="node2" class="node"><title>Node2</title>
<g id="a_node2"><a xlink:href="_pan_node_8h.html" target="_top" xlink:title="cinder/audio/PanNode.h">
<polygon fill="white" stroke="black" points="580.35,-291 580.35,-311 703.65,-311 703.65,-291 580.35,-291"/>
<text text-anchor="middle" x="642" y="-297" font-family="Helvetica,sans-Serif" font-size="10.00">cinder/audio/PanNode.h</text>
</a>
</g>
</g>
<!-- Node1&#45;&gt;Node2 -->
<g id="edge1" class="edge"><title>Node1&#45;&gt;Node2</title>
<path fill="none" stroke="midnightblue" d="M757.521,-348.878C734.766,-339.644 699.376,-325.283 673.761,-314.889"/>
<polygon fill="midnightblue" stroke="midnightblue" points="675.052,-311.635 664.47,-311.118 672.42,-318.121 675.052,-311.635"/>
</g>
<!-- Node26 -->
<g id="node26" class="node"><title>Node26</title>
<g id="a_node26"><a xlink:href="_dsp_8h.html" target="_top" xlink:title="cinder/audio/dsp/Dsp.h">
<polygon fill="white" stroke="black" points="720.857,-233 720.857,-253 839.143,-253 839.143,-233 720.857,-233"/>
<text text-anchor="middle" x="780" y="-239" font-family="Helvetica,sans-Serif" font-size="10.00">cinder/audio/dsp/Dsp.h</text>
</a>
</g>
</g>
<!-- Node1&#45;&gt;Node26 -->
<g id="edge30" class="edge"><title>Node1&#45;&gt;Node26</title>
<path fill="none" stroke="midnightblue" d="M780,-348.671C780,-330.041 780,-287.898 780,-263.143"/>
<polygon fill="midnightblue" stroke="midnightblue" points="783.5,-263.139 780,-253.139 776.5,-263.139 783.5,-263.139"/>
</g>
<!-- Node28 -->
<g id="node28" class="node"><title>Node28</title>
<g id="a_node28"><a xlink:href="_cinder_math_8h.html" target="_top" xlink:title="cinder/CinderMath.h">
<polygon fill="white" stroke="black" points="915.978,-233 915.978,-253 1022.02,-253 1022.02,-233 915.978,-233"/>
<text text-anchor="middle" x="969" y="-239" font-family="Helvetica,sans-Serif" font-size="10.00">cinder/CinderMath.h</text>
</a>
</g>
</g>
<!-- Node1&#45;&gt;Node28 -->
<g id="edge36" class="edge"><title>Node1&#45;&gt;Node28</title>
<path fill="none" stroke="midnightblue" d="M795.147,-348.864C827.99,-329.053 905.964,-282.022 945.356,-258.261"/>
<polygon fill="midnightblue" stroke="midnightblue" points="947.288,-261.184 954.043,-253.022 943.672,-255.19 947.288,-261.184"/>
</g>
<!-- Node3 -->
<g id="node3" class="node"><title>Node3</title>
<g id="a_node3"><a xlink:href="_node_8h.html" target="_top" xlink:title="cinder/audio/Node.h">
<polygon fill="white" stroke="black" points="302.247,-233 302.247,-253 407.753,-253 407.753,-233 302.247,-233"/>
<text text-anchor="middle" x="355" y="-239" font-family="Helvetica,sans-Serif" font-size="10.00">cinder/audio/Node.h</text>
</a>
</g>
</g>
<!-- Node2&#45;&gt;Node3 -->
<g id="edge2" class="edge"><title>Node2&#45;&gt;Node3</title>
<path fill="none" stroke="midnightblue" d="M595.57,-290.94C545.343,-281.14 465.248,-265.512 411.427,-255.01"/>
<polygon fill="midnightblue" stroke="midnightblue" points="411.849,-251.527 401.364,-253.047 410.508,-258.397 411.849,-251.527"/>
</g>
<!-- Node23 -->
<g id="node23" class="node"><title>Node23</title>
<g id="a_node23"><a xlink:href="_param_8h.html" target="_top" xlink:title="cinder/audio/Param.h">
<polygon fill="white" stroke="black" points="586.473,-233 586.473,-253 697.527,-253 697.527,-233 586.473,-233"/>
<text text-anchor="middle" x="642" y="-239" font-family="Helvetica,sans-Serif" font-size="10.00">cinder/audio/Param.h</text>
</a>
</g>
</g>
<!-- Node2&#45;&gt;Node23 -->
<g id="edge25" class="edge"><title>Node2&#45;&gt;Node23</title>
<path fill="none" stroke="midnightblue" d="M642,-290.753C642,-283.25 642,-272.424 642,-263.078"/>
<polygon fill="midnightblue" stroke="midnightblue" points="645.5,-263.075 642,-253.075 638.5,-263.075 645.5,-263.075"/>
</g>
<!-- Node4 -->
<g id="node4" class="node"><title>Node4</title>
<g id="a_node4"><a xlink:href="audio_2_buffer_8h.html" target="_top" xlink:title="cinder/audio/Buffer.h">
<polygon fill="white" stroke="black" points="496.221,-175 496.221,-195 603.779,-195 603.779,-175 496.221,-175"/>
<text text-anchor="middle" x="550" y="-181" font-family="Helvetica,sans-Serif" font-size="10.00">cinder/audio/Buffer.h</text>
</a>
</g>
</g>
<!-- Node3&#45;&gt;Node4 -->
<g id="edge3" class="edge"><title>Node3&#45;&gt;Node4</title>
<path fill="none" stroke="midnightblue" d="M386.764,-232.878C420.008,-223.331 472.337,-208.303 508.753,-197.845"/>
<polygon fill="midnightblue" stroke="midnightblue" points="509.927,-201.15 518.573,-195.025 507.995,-194.422 509.927,-201.15"/>
</g>
<!-- Node12 -->
<g id="node12" class="node"><title>Node12</title>
<g id="a_node12"><a xlink:href="audio_2_exception_8h.html" target="_top" xlink:title="cinder/audio/Exception.h">
<polygon fill="white" stroke="black" points="-0.758301,-175 -0.758301,-195 124.758,-195 124.758,-175 -0.758301,-175"/>
<text text-anchor="middle" x="62" y="-181" font-family="Helvetica,sans-Serif" font-size="10.00">cinder/audio/Exception.h</text>
</a>
</g>
</g>
<!-- Node3&#45;&gt;Node12 -->
<g id="edge11" class="edge"><title>Node3&#45;&gt;Node12</title>
<path fill="none" stroke="midnightblue" d="M307.599,-232.94C256.215,-223.12 174.212,-207.447 119.265,-196.945"/>
<polygon fill="midnightblue" stroke="midnightblue" points="119.812,-193.486 109.333,-195.047 118.498,-200.362 119.812,-193.486"/>
</g>
<!-- Node19 -->
<g id="node19" class="node"><title>Node19</title>
<polygon fill="white" stroke="#bfbfbf" points="228.291,-175 228.291,-195 347.709,-195 347.709,-175 228.291,-175"/>
<text text-anchor="middle" x="288" y="-181" font-family="Helvetica,sans-Serif" font-size="10.00">boost/noncopyable.hpp</text>
</g>
<!-- Node3&#45;&gt;Node19 -->
<g id="edge20" class="edge"><title>Node3&#45;&gt;Node19</title>
<path fill="none" stroke="midnightblue" d="M343.936,-232.753C333.79,-224.272 318.56,-211.543 306.553,-201.507"/>
<polygon fill="midnightblue" stroke="midnightblue" points="308.775,-198.803 298.858,-195.075 304.286,-204.174 308.775,-198.803"/>
</g>
<!-- Node20 -->
<g id="node20" class="node"><title>Node20</title>
<polygon fill="white" stroke="#bfbfbf" points="365.357,-175 365.357,-195 478.643,-195 478.643,-175 365.357,-175"/>
<text text-anchor="middle" x="422" y="-181" font-family="Helvetica,sans-Serif" font-size="10.00">boost/logic/tribool.hpp</text>
</g>
<!-- Node3&#45;&gt;Node20 -->
<g id="edge21" class="edge"><title>Node3&#45;&gt;Node20</title>
<path fill="none" stroke="midnightblue" d="M366.064,-232.753C376.21,-224.272 391.44,-211.543 403.447,-201.507"/>
<polygon fill="midnightblue" stroke="midnightblue" points="405.714,-204.174 411.142,-195.075 401.225,-198.803 405.714,-204.174"/>
</g>
<!-- Node9 -->
<g id="node9" class="node"><title>Node9</title>
<polygon fill="white" stroke="#bfbfbf" points="386.943,-117 386.943,-137 439.057,-137 439.057,-117 386.943,-117"/>
<text text-anchor="middle" x="413" y="-123" font-family="Helvetica,sans-Serif" font-size="10.00">memory</text>
</g>
<!-- Node3&#45;&gt;Node9 -->
<g id="edge22" class="edge"><title>Node3&#45;&gt;Node9</title>
<path fill="none" stroke="midnightblue" d="M301.825,-234.631C253.228,-225.64 192.641,-207.34 219,-174 238.291,-149.601 326.106,-136.789 376.727,-131.32"/>
<polygon fill="midnightblue" stroke="midnightblue" points="377.341,-134.775 386.927,-130.263 376.619,-127.812 377.341,-134.775"/>
</g>
<!-- Node21 -->
<g id="node21" class="node"><title>Node21</title>
<polygon fill="white" stroke="#bfbfbf" points="668.273,-175 668.273,-195 713.727,-195 713.727,-175 668.273,-175"/>
<text text-anchor="middle" x="691" y="-181" font-family="Helvetica,sans-Serif" font-size="10.00">atomic</text>
</g>
<!-- Node3&#45;&gt;Node21 -->
<g id="edge23" class="edge"><title>Node3&#45;&gt;Node21</title>
<path fill="none" stroke="midnightblue" d="M407.91,-236.477C466.84,-229.774 565.008,-216.965 658.173,-195.902"/>
<polygon fill="midnightblue" stroke="midnightblue" points="659.081,-199.285 668.043,-193.635 657.513,-192.463 659.081,-199.285"/>
</g>
<!-- Node22 -->
<g id="node22" class="node"><title>Node22</title>
<polygon fill="white" stroke="#bfbfbf" points="142.33,-175 142.33,-195 171.67,-195 171.67,-175 142.33,-175"/>
<text text-anchor="middle" x="157" y="-181" font-family="Helvetica,sans-Serif" font-size="10.00">set</text>
</g>
<!-- Node3&#45;&gt;Node22 -->
<g id="edge24" class="edge"><title>Node3&#45;&gt;Node22</title>
<path fill="none" stroke="midnightblue" d="M319.195,-232.99C284.85,-224.174 231.623,-210.058 186,-196 184.537,-195.549 183.036,-195.073 181.526,-194.584"/>
<polygon fill="midnightblue" stroke="midnightblue" points="182.285,-191.147 171.691,-191.277 180.054,-197.782 182.285,-191.147"/>
</g>
<!-- Node5 -->
<g id="node5" class="node"><title>Node5</title>
<g id="a_node5"><a xlink:href="_cinder_assert_8h.html" target="_top" xlink:title="cinder/CinderAssert.h">
<polygon fill="white" stroke="black" points="738.924,-117 738.924,-137 851.076,-137 851.076,-117 738.924,-117"/>
<text text-anchor="middle" x="795" y="-123" font-family="Helvetica,sans-Serif" font-size="10.00">cinder/CinderAssert.h</text>
</a>
</g>
</g>
<!-- Node4&#45;&gt;Node5 -->
<g id="edge4" class="edge"><title>Node4&#45;&gt;Node5</title>
<path fill="none" stroke="midnightblue" d="M589.636,-174.94C632.067,-165.242 699.467,-149.836 745.39,-139.339"/>
<polygon fill="midnightblue" stroke="midnightblue" points="746.453,-142.687 755.421,-137.047 744.893,-135.863 746.453,-142.687"/>
</g>
<!-- Node8 -->
<g id="node8" class="node"><title>Node8</title>
<polygon fill="white" stroke="#bfbfbf" points="471.384,-59 471.384,-79 514.616,-79 514.616,-59 471.384,-59"/>
<text text-anchor="middle" x="493" y="-65" font-family="Helvetica,sans-Serif" font-size="10.00">vector</text>
</g>
<!-- Node4&#45;&gt;Node8 -->
<g id="edge7" class="edge"><title>Node4&#45;&gt;Node8</title>
<path fill="none" stroke="midnightblue" d="M540.56,-174.983C531.957,-166.271 519.483,-152.322 512,-138 503.938,-122.569 498.973,-103.329 496.151,-89.257"/>
<polygon fill="midnightblue" stroke="midnightblue" points="499.563,-88.4613 494.328,-79.2504 492.677,-89.7158 499.563,-88.4613"/>
</g>
<!-- Node4&#45;&gt;Node9 -->
<g id="edge8" class="edge"><title>Node4&#45;&gt;Node9</title>
<path fill="none" stroke="midnightblue" d="M527.684,-174.878C505.193,-165.685 470.27,-151.409 444.868,-141.026"/>
<polygon fill="midnightblue" stroke="midnightblue" points="445.888,-137.662 435.307,-137.118 443.239,-144.142 445.888,-137.662"/>
</g>
<!-- Node10 -->
<g id="node10" class="node"><title>Node10</title>
<polygon fill="white" stroke="#bfbfbf" points="596.828,-117 596.828,-137 641.172,-137 641.172,-117 596.828,-117"/>
<text text-anchor="middle" x="619" y="-123" font-family="Helvetica,sans-Serif" font-size="10.00">cstdlib</text>
</g>
<!-- Node4&#45;&gt;Node10 -->
<g id="edge9" class="edge"><title>Node4&#45;&gt;Node10</title>
<path fill="none" stroke="midnightblue" d="M561.394,-174.753C571.844,-166.272 587.527,-153.543 599.893,-143.507"/>
<polygon fill="midnightblue" stroke="midnightblue" points="602.259,-146.095 607.818,-137.075 597.848,-140.659 602.259,-146.095"/>
</g>
<!-- Node11 -->
<g id="node11" class="node"><title>Node11</title>
<polygon fill="white" stroke="#bfbfbf" points="521.436,-117 521.436,-137 578.564,-137 578.564,-117 521.436,-117"/>
<text text-anchor="middle" x="550" y="-123" font-family="Helvetica,sans-Serif" font-size="10.00">algorithm</text>
</g>
<!-- Node4&#45;&gt;Node11 -->
<g id="edge10" class="edge"><title>Node4&#45;&gt;Node11</title>
<path fill="none" stroke="midnightblue" d="M550,-174.753C550,-167.25 550,-156.424 550,-147.078"/>
<polygon fill="midnightblue" stroke="midnightblue" points="553.5,-147.075 550,-137.075 546.5,-147.075 553.5,-147.075"/>
</g>
<!-- Node6 -->
<g id="node6" class="node"><title>Node6</title>
<g id="a_node6"><a xlink:href="_current_function_8h.html" target="_top" xlink:title="cinder/CurrentFunction.h">
<polygon fill="white" stroke="black" points="731.973,-59 731.973,-79 858.027,-79 858.027,-59 731.973,-59"/>
<text text-anchor="middle" x="795" y="-65" font-family="Helvetica,sans-Serif" font-size="10.00">cinder/CurrentFunction.h</text>
</a>
</g>
</g>
<!-- Node5&#45;&gt;Node6 -->
<g id="edge5" class="edge"><title>Node5&#45;&gt;Node6</title>
<path fill="none" stroke="midnightblue" d="M795,-116.753C795,-109.25 795,-98.4238 795,-89.0781"/>
<polygon fill="midnightblue" stroke="midnightblue" points="798.5,-89.0752 795,-79.0752 791.5,-89.0752 798.5,-89.0752"/>
</g>
<!-- Node7 -->
<g id="node7" class="node"><title>Node7</title>
<polygon fill="white" stroke="#bfbfbf" points="665.884,-59 665.884,-79 714.116,-79 714.116,-59 665.884,-59"/>
<text text-anchor="middle" x="690" y="-65" font-family="Helvetica,sans-Serif" font-size="10.00">cassert</text>
</g>
<!-- Node5&#45;&gt;Node7 -->
<g id="edge6" class="edge"><title>Node5&#45;&gt;Node7</title>
<path fill="none" stroke="midnightblue" d="M777.661,-116.753C760.842,-107.783 735.113,-94.0601 715.872,-83.7986"/>
<polygon fill="midnightblue" stroke="midnightblue" points="717.487,-80.6929 707.016,-79.0752 714.192,-86.8694 717.487,-80.6929"/>
</g>
<!-- Node13 -->
<g id="node13" class="node"><title>Node13</title>
<g id="a_node13"><a xlink:href="_exception_8h.html" target="_top" xlink:title="cinder/Exception.h">
<polygon fill="white" stroke="black" points="218.865,-117 218.865,-137 317.135,-137 317.135,-117 218.865,-117"/>
<text text-anchor="middle" x="268" y="-123" font-family="Helvetica,sans-Serif" font-size="10.00">cinder/Exception.h</text>
</a>
</g>
</g>
<!-- Node12&#45;&gt;Node13 -->
<g id="edge12" class="edge"><title>Node12&#45;&gt;Node13</title>
<path fill="none" stroke="midnightblue" d="M95.5559,-174.878C130.825,-165.29 186.428,-150.175 224.918,-139.712"/>
<polygon fill="midnightblue" stroke="midnightblue" points="226.068,-143.026 234.8,-137.025 224.232,-136.271 226.068,-143.026"/>
</g>
<!-- Node18 -->
<g id="node18" class="node"><title>Node18</title>
<polygon fill="white" stroke="#bfbfbf" points="157.773,-59 157.773,-79 198.227,-79 198.227,-59 157.773,-59"/>
<text text-anchor="middle" x="178" y="-65" font-family="Helvetica,sans-Serif" font-size="10.00">string</text>
</g>
<!-- Node12&#45;&gt;Node18 -->
<g id="edge19" class="edge"><title>Node12&#45;&gt;Node18</title>
<path fill="none" stroke="midnightblue" d="M71.4928,-174.671C91.2183,-155.285 136.849,-110.442 161.495,-86.2205"/>
<polygon fill="midnightblue" stroke="midnightblue" points="164.021,-88.645 168.7,-79.1394 159.115,-83.6524 164.021,-88.645"/>
</g>
<!-- Node14 -->
<g id="node14" class="node"><title>Node14</title>
<g id="a_node14"><a xlink:href="_cinder_8h.html" target="_top" xlink:title="cinder/Cinder.h">
<polygon fill="white" stroke="black" points="876.367,-59 876.367,-79 959.633,-79 959.633,-59 876.367,-59"/>
<text text-anchor="middle" x="918" y="-65" font-family="Helvetica,sans-Serif" font-size="10.00">cinder/Cinder.h</text>
</a>
</g>
</g>
<!-- Node13&#45;&gt;Node14 -->
<g id="edge13" class="edge"><title>Node13&#45;&gt;Node14</title>
<path fill="none" stroke="midnightblue" d="M317.266,-121.339C336.243,-119.592 358.124,-117.635 378,-116 591.9,-98.4049 649.292,-108.695 866.204,-79.9494"/>
<polygon fill="midnightblue" stroke="midnightblue" points="866.872,-83.3913 876.319,-78.5961 865.943,-76.4531 866.872,-83.3913"/>
</g>
<!-- Node13&#45;&gt;Node8 -->
<g id="edge17" class="edge"><title>Node13&#45;&gt;Node8</title>
<path fill="none" stroke="midnightblue" d="M304.4,-116.94C347.97,-106.096 420.209,-88.1169 461.489,-77.8427"/>
<polygon fill="midnightblue" stroke="midnightblue" points="462.422,-81.2173 471.281,-75.4057 460.731,-74.4246 462.422,-81.2173"/>
</g>
<!-- Node13&#45;&gt;Node18 -->
<g id="edge18" class="edge"><title>Node13&#45;&gt;Node18</title>
<path fill="none" stroke="midnightblue" d="M253.138,-116.753C238.984,-107.946 217.467,-94.5575 201.081,-84.3617"/>
<polygon fill="midnightblue" stroke="midnightblue" points="202.925,-81.3866 192.585,-79.0752 199.227,-87.33 202.925,-81.3866"/>
</g>
<!-- Node15 -->
<g id="node15" class="node"><title>Node15</title>
<polygon fill="white" stroke="#bfbfbf" points="807.549,-1 807.549,-21 852.451,-21 852.451,-1 807.549,-1"/>
<text text-anchor="middle" x="830" y="-7" font-family="Helvetica,sans-Serif" font-size="10.00">cstdint</text>
</g>
<!-- Node14&#45;&gt;Node15 -->
<g id="edge14" class="edge"><title>Node14&#45;&gt;Node15</title>
<path fill="none" stroke="midnightblue" d="M903.469,-58.7527C889.757,-50.0272 868.979,-36.8051 853.015,-26.6458"/>
<polygon fill="midnightblue" stroke="midnightblue" points="854.577,-23.4912 844.261,-21.0752 850.819,-29.3968 854.577,-23.4912"/>
</g>
<!-- Node16 -->
<g id="node16" class="node"><title>Node16</title>
<polygon fill="white" stroke="#bfbfbf" points="870.53,-1 870.53,-21 965.47,-21 965.47,-1 870.53,-1"/>
<text text-anchor="middle" x="918" y="-7" font-family="Helvetica,sans-Serif" font-size="10.00">boost/version.hpp</text>
</g>
<!-- Node14&#45;&gt;Node16 -->
<g id="edge15" class="edge"><title>Node14&#45;&gt;Node16</title>
<path fill="none" stroke="midnightblue" d="M918,-58.7527C918,-51.2504 918,-40.4238 918,-31.0781"/>
<polygon fill="midnightblue" stroke="midnightblue" points="921.5,-31.0752 918,-21.0752 914.5,-31.0752 921.5,-31.0752"/>
</g>
<!-- Node17 -->
<g id="node17" class="node"><title>Node17</title>
<polygon fill="white" stroke="#bfbfbf" points="983.621,-1 983.621,-21 1116.38,-21 1116.38,-1 983.621,-1"/>
<text text-anchor="middle" x="1050" y="-7" font-family="Helvetica,sans-Serif" font-size="10.00">boost/checked_delete.hpp</text>
</g>
<!-- Node14&#45;&gt;Node17 -->
<g id="edge16" class="edge"><title>Node14&#45;&gt;Node17</title>
<path fill="none" stroke="midnightblue" d="M939.502,-58.878C961.172,-49.6848 994.821,-35.4095 1019.3,-25.0263"/>
<polygon fill="midnightblue" stroke="midnightblue" points="1020.67,-28.2457 1028.51,-21.1181 1017.93,-21.8016 1020.67,-28.2457"/>
</g>
<!-- Node23&#45;&gt;Node4 -->
<g id="edge26" class="edge"><title>Node23&#45;&gt;Node4</title>
<path fill="none" stroke="midnightblue" d="M626.808,-232.753C612.339,-223.946 590.345,-210.558 573.594,-200.362"/>
<polygon fill="midnightblue" stroke="midnightblue" points="575.271,-197.285 564.909,-195.075 571.631,-203.264 575.271,-197.285"/>
</g>
<!-- Node24 -->
<g id="node24" class="node"><title>Node24</title>
<polygon fill="white" stroke="#bfbfbf" points="621.5,-175 621.5,-195 650.5,-195 650.5,-175 621.5,-175"/>
<text text-anchor="middle" x="635.611" y="-181" font-family="Helvetica,sans-Serif" font-size="10.00">list</text>
</g>
<!-- Node23&#45;&gt;Node24 -->
<g id="edge27" class="edge"><title>Node23&#45;&gt;Node24</title>
<path fill="none" stroke="midnightblue" d="M641.009,-232.753C640.205,-225.25 639.045,-214.424 638.044,-205.078"/>
<polygon fill="midnightblue" stroke="midnightblue" points="641.518,-204.645 636.972,-195.075 634.558,-205.391 641.518,-204.645"/>
</g>
<!-- Node23&#45;&gt;Node21 -->
<g id="edge28" class="edge"><title>Node23&#45;&gt;Node21</title>
<path fill="none" stroke="midnightblue" d="M650.091,-232.753C657.227,-224.598 667.799,-212.516 676.408,-202.677"/>
<polygon fill="midnightblue" stroke="midnightblue" points="679.108,-204.906 683.059,-195.075 673.84,-200.296 679.108,-204.906"/>
</g>
<!-- Node25 -->
<g id="node25" class="node"><title>Node25</title>
<polygon fill="white" stroke="#bfbfbf" points="807.596,-175 807.596,-195 866.404,-195 866.404,-175 807.596,-175"/>
<text text-anchor="middle" x="837" y="-181" font-family="Helvetica,sans-Serif" font-size="10.00">functional</text>
</g>
<!-- Node23&#45;&gt;Node25 -->
<g id="edge29" class="edge"><title>Node23&#45;&gt;Node25</title>
<path fill="none" stroke="midnightblue" d="M673.764,-232.878C707.6,-223.161 761.206,-207.766 797.682,-197.291"/>
<polygon fill="midnightblue" stroke="midnightblue" points="798.84,-200.6 807.485,-194.476 796.908,-193.872 798.84,-200.6"/>
</g>
<!-- Node26&#45;&gt;Node5 -->
<g id="edge31" class="edge"><title>Node26&#45;&gt;Node5</title>
<path fill="none" stroke="midnightblue" d="M781.228,-232.671C783.679,-214.041 789.224,-171.898 792.481,-147.143"/>
<polygon fill="midnightblue" stroke="midnightblue" points="795.963,-147.511 793.797,-137.139 789.023,-146.597 795.963,-147.511"/>
</g>
<!-- Node26&#45;&gt;Node14 -->
<g id="edge32" class="edge"><title>Node26&#45;&gt;Node14</title>
<path fill="none" stroke="midnightblue" d="M813.533,-232.988C833.839,-225.956 858.85,-214.253 875,-196 902.34,-165.101 912.459,-116.033 916.08,-89.1558"/>
<polygon fill="midnightblue" stroke="midnightblue" points="919.569,-89.4545 917.266,-79.1132 912.618,-88.6339 919.569,-89.4545"/>
</g>
<!-- Node26&#45;&gt;Node21 -->
<g id="edge33" class="edge"><title>Node26&#45;&gt;Node21</title>
<path fill="none" stroke="midnightblue" d="M765.303,-232.753C751.436,-224.027 730.422,-210.805 714.276,-200.646"/>
<polygon fill="midnightblue" stroke="midnightblue" points="715.751,-197.438 705.423,-195.075 712.023,-203.363 715.751,-197.438"/>
</g>
<!-- Node26&#45;&gt;Node8 -->
<g id="edge34" class="edge"><title>Node26&#45;&gt;Node8</title>
<path fill="none" stroke="midnightblue" d="M773.627,-232.89C756.593,-209.302 707.384,-145.989 650,-116 609.341,-94.7516 557.49,-82.0043 524.755,-75.4893"/>
<polygon fill="midnightblue" stroke="midnightblue" points="525.317,-72.0334 514.837,-73.5902 524.001,-78.9085 525.317,-72.0334"/>
</g>
<!-- Node27 -->
<g id="node27" class="node"><title>Node27</title>
<polygon fill="white" stroke="#bfbfbf" points="922.384,-175 922.384,-195 965.616,-195 965.616,-175 922.384,-175"/>
<text text-anchor="middle" x="944" y="-181" font-family="Helvetica,sans-Serif" font-size="10.00">cmath</text>
</g>
<!-- Node26&#45;&gt;Node27 -->
<g id="edge35" class="edge"><title>Node26&#45;&gt;Node27</title>
<path fill="none" stroke="midnightblue" d="M806.714,-232.878C835.663,-222.993 881.82,-207.232 912.511,-196.752"/>
<polygon fill="midnightblue" stroke="midnightblue" points="913.947,-199.96 922.28,-193.417 911.685,-193.336 913.947,-199.96"/>
</g>
<!-- Node28&#45;&gt;Node14 -->
<g id="edge37" class="edge"><title>Node28&#45;&gt;Node14</title>
<path fill="none" stroke="midnightblue" d="M971.544,-232.599C974.722,-219.326 979.151,-194.431 974,-174 965.691,-141.041 944.666,-107.164 930.874,-87.3744"/>
<polygon fill="midnightblue" stroke="midnightblue" points="933.612,-85.1858 924.945,-79.0916 927.92,-89.2603 933.612,-85.1858"/>
</g>
<!-- Node28&#45;&gt;Node27 -->
<g id="edge38" class="edge"><title>Node28&#45;&gt;Node27</title>
<path fill="none" stroke="midnightblue" d="M964.872,-232.753C961.45,-225.087 956.478,-213.952 952.246,-204.471"/>
<polygon fill="midnightblue" stroke="midnightblue" points="955.324,-202.78 948.051,-195.075 948.932,-205.633 955.324,-202.78"/>
</g>
<!-- Node29 -->
<g id="node29" class="node"><title>Node29</title>
<polygon fill="white" stroke="#bfbfbf" points="1022.11,-175 1022.11,-195 1065.89,-195 1065.89,-175 1022.11,-175"/>
<text text-anchor="middle" x="1044" y="-181" font-family="Helvetica,sans-Serif" font-size="10.00">climits</text>
</g>
<!-- Node28&#45;&gt;Node29 -->
<g id="edge39" class="edge"><title>Node28&#45;&gt;Node29</title>
<path fill="none" stroke="midnightblue" d="M981.385,-232.753C992.852,-224.19 1010.12,-211.298 1023.62,-201.219"/>
<polygon fill="midnightblue" stroke="midnightblue" points="1025.93,-203.863 1031.85,-195.075 1021.74,-198.254 1025.93,-203.863"/>
</g>
<!-- Node30 -->
<g id="node30" class="node"><title>Node30</title>
<polygon fill="white" stroke="#bfbfbf" points="1084.05,-175 1084.05,-195 1123.95,-195 1123.95,-175 1084.05,-175"/>
<text text-anchor="middle" x="1104" y="-181" font-family="Helvetica,sans-Serif" font-size="10.00">cfloat</text>
</g>
<!-- Node28&#45;&gt;Node30 -->
<g id="edge40" class="edge"><title>Node28&#45;&gt;Node30</title>
<path fill="none" stroke="midnightblue" d="M990.991,-232.878C1013.68,-223.466 1049.21,-208.727 1074.37,-198.291"/>
<polygon fill="midnightblue" stroke="midnightblue" points="1075.89,-201.45 1083.78,-194.386 1073.21,-194.984 1075.89,-201.45"/>
</g>
<!-- Node28&#45;&gt;Node25 -->
<g id="edge41" class="edge"><title>Node28&#45;&gt;Node25</title>
<path fill="none" stroke="midnightblue" d="M947.498,-232.878C925.828,-223.685 892.179,-209.409 867.705,-199.026"/>
<polygon fill="midnightblue" stroke="midnightblue" points="869.065,-195.802 858.493,-195.118 866.332,-202.246 869.065,-195.802"/>
</g>
</g>
</svg>
