<?xml version="1.0" encoding="UTF-8" standalone="no"?>
<!DOCTYPE svg PUBLIC "-//W3C//DTD SVG 1.1//EN"
 "http://www.w3.org/Graphics/SVG/1.1/DTD/svg11.dtd">
<!-- Generated by graphviz version 2.30.1 (20140712.1814)
 -->
<!-- Title: include/cinder/audio/Param.h Pages: 1 -->
<svg width="525pt" height="216pt"
 viewBox="0.00 0.00 525.00 216.00" xmlns="http://www.w3.org/2000/svg" xmlns:xlink="http://www.w3.org/1999/xlink">
<g id="graph0" class="graph" transform="scale(1 1) rotate(0) translate(4 212)">
<title>include/cinder/audio/Param.h</title>
<polygon fill="white" stroke="white" points="-4,5 -4,-212 522,-212 522,5 -4,5"/>
<!-- Node1 -->
<g id="node1" class="node"><title>Node1</title>
<polygon fill="#bfbfbf" stroke="black" points="337.525,-175 337.525,-207 442.475,-207 442.475,-175 337.525,-175"/>
<text text-anchor="start" x="345.525" y="-193" font-family="Helvetica,sans-Serif" font-size="10.00">include/cinder/audio</text>
<text text-anchor="middle" x="390" y="-181" font-family="Helvetica,sans-Serif" font-size="10.00">/Param.h</text>
</g>
<!-- Node2 -->
<g id="node2" class="node"><title>Node2</title>
<g id="a_node2"><a xlink:href="audio_2_buffer_8h.html" target="_top" xlink:title="cinder/audio/Buffer.h">
<polygon fill="white" stroke="black" points="223.221,-117 223.221,-137 330.779,-137 330.779,-117 223.221,-117"/>
<text text-anchor="middle" x="277" y="-123" font-family="Helvetica,sans-Serif" font-size="10.00">cinder/audio/Buffer.h</text>
</a>
</g>
</g>
<!-- Node1&#45;&gt;Node2 -->
<g id="edge1" class="edge"><title>Node1&#45;&gt;Node2</title>
<path fill="none" stroke="midnightblue" d="M362.646,-174.992C344.459,-165.013 320.724,-151.99 302.853,-142.185"/>
<polygon fill="midnightblue" stroke="midnightblue" points="304.052,-138.851 293.601,-137.109 300.685,-144.988 304.052,-138.851"/>
</g>
<!-- Node10 -->
<g id="node10" class="node"><title>Node10</title>
<polygon fill="white" stroke="#bfbfbf" points="348.5,-117 348.5,-137 377.5,-137 377.5,-117 348.5,-117"/>
<text text-anchor="middle" x="362.611" y="-123" font-family="Helvetica,sans-Serif" font-size="10.00">list</text>
</g>
<!-- Node1&#45;&gt;Node10 -->
<g id="edge9" class="edge"><title>Node1&#45;&gt;Node10</title>
<path fill="none" stroke="midnightblue" d="M383.464,-174.992C379.745,-166.451 375.054,-155.68 371.102,-146.606"/>
<polygon fill="midnightblue" stroke="midnightblue" points="374.247,-145.061 367.046,-137.29 367.83,-147.856 374.247,-145.061"/>
</g>
<!-- Node11 -->
<g id="node11" class="node"><title>Node11</title>
<polygon fill="white" stroke="#bfbfbf" points="395.273,-117 395.273,-137 440.727,-137 440.727,-117 395.273,-117"/>
<text text-anchor="middle" x="418" y="-123" font-family="Helvetica,sans-Serif" font-size="10.00">atomic</text>
</g>
<!-- Node1&#45;&gt;Node11 -->
<g id="edge10" class="edge"><title>Node1&#45;&gt;Node11</title>
<path fill="none" stroke="midnightblue" d="M396.778,-174.992C400.635,-166.451 405.499,-155.68 409.597,-146.606"/>
<polygon fill="midnightblue" stroke="midnightblue" points="412.878,-147.845 413.804,-137.29 406.499,-144.964 412.878,-147.845"/>
</g>
<!-- Node12 -->
<g id="node12" class="node"><title>Node12</title>
<polygon fill="white" stroke="#bfbfbf" points="458.596,-117 458.596,-137 517.404,-137 517.404,-117 458.596,-117"/>
<text text-anchor="middle" x="488" y="-123" font-family="Helvetica,sans-Serif" font-size="10.00">functional</text>
</g>
<!-- Node1&#45;&gt;Node12 -->
<g id="edge11" class="edge"><title>Node1&#45;&gt;Node12</title>
<path fill="none" stroke="midnightblue" d="M413.723,-174.992C429.35,-165.105 449.7,-152.231 465.147,-142.458"/>
<polygon fill="midnightblue" stroke="midnightblue" points="467.023,-145.413 473.602,-137.109 463.28,-139.497 467.023,-145.413"/>
</g>
<!-- Node3 -->
<g id="node3" class="node"><title>Node3</title>
<g id="a_node3"><a xlink:href="_cinder_assert_8h.html" target="_top" xlink:title="cinder/CinderAssert.h">
<polygon fill="white" stroke="black" points="58.9238,-59 58.9238,-79 171.076,-79 171.076,-59 58.9238,-59"/>
<text text-anchor="middle" x="115" y="-65" font-family="Helvetica,sans-Serif" font-size="10.00">cinder/CinderAssert.h</text>
</a>
</g>
</g>
<!-- Node2&#45;&gt;Node3 -->
<g id="edge2" class="edge"><title>Node2&#45;&gt;Node3</title>
<path fill="none" stroke="midnightblue" d="M250.611,-116.878C223.465,-107.494 181.002,-92.8155 150.83,-82.3857"/>
<polygon fill="midnightblue" stroke="midnightblue" points="151.704,-78.9845 141.109,-79.0253 149.417,-85.6004 151.704,-78.9845"/>
</g>
<!-- Node6 -->
<g id="node6" class="node"><title>Node6</title>
<polygon fill="white" stroke="#bfbfbf" points="189.384,-59 189.384,-79 232.616,-79 232.616,-59 189.384,-59"/>
<text text-anchor="middle" x="211" y="-65" font-family="Helvetica,sans-Serif" font-size="10.00">vector</text>
</g>
<!-- Node2&#45;&gt;Node6 -->
<g id="edge5" class="edge"><title>Node2&#45;&gt;Node6</title>
<path fill="none" stroke="midnightblue" d="M266.101,-116.753C256.202,-108.353 241.392,-95.7874 229.619,-85.7976"/>
<polygon fill="midnightblue" stroke="midnightblue" points="231.585,-82.8762 221.696,-79.0752 227.056,-88.2138 231.585,-82.8762"/>
</g>
<!-- Node7 -->
<g id="node7" class="node"><title>Node7</title>
<polygon fill="white" stroke="#bfbfbf" points="250.943,-59 250.943,-79 303.057,-79 303.057,-59 250.943,-59"/>
<text text-anchor="middle" x="277" y="-65" font-family="Helvetica,sans-Serif" font-size="10.00">memory</text>
</g>
<!-- Node2&#45;&gt;Node7 -->
<g id="edge6" class="edge"><title>Node2&#45;&gt;Node7</title>
<path fill="none" stroke="midnightblue" d="M277,-116.753C277,-109.25 277,-98.4238 277,-89.0781"/>
<polygon fill="midnightblue" stroke="midnightblue" points="280.5,-89.0752 277,-79.0752 273.5,-89.0752 280.5,-89.0752"/>
</g>
<!-- Node8 -->
<g id="node8" class="node"><title>Node8</title>
<polygon fill="white" stroke="#bfbfbf" points="320.828,-59 320.828,-79 365.172,-79 365.172,-59 320.828,-59"/>
<text text-anchor="middle" x="343" y="-65" font-family="Helvetica,sans-Serif" font-size="10.00">cstdlib</text>
</g>
<!-- Node2&#45;&gt;Node8 -->
<g id="edge7" class="edge"><title>Node2&#45;&gt;Node8</title>
<path fill="none" stroke="midnightblue" d="M287.899,-116.753C297.798,-108.353 312.608,-95.7874 324.381,-85.7976"/>
<polygon fill="midnightblue" stroke="midnightblue" points="326.944,-88.2138 332.304,-79.0752 322.415,-82.8762 326.944,-88.2138"/>
</g>
<!-- Node9 -->
<g id="node9" class="node"><title>Node9</title>
<polygon fill="white" stroke="#bfbfbf" points="383.436,-59 383.436,-79 440.564,-79 440.564,-59 383.436,-59"/>
<text text-anchor="middle" x="412" y="-65" font-family="Helvetica,sans-Serif" font-size="10.00">algorithm</text>
</g>
<!-- Node2&#45;&gt;Node9 -->
<g id="edge8" class="edge"><title>Node2&#45;&gt;Node9</title>
<path fill="none" stroke="midnightblue" d="M298.991,-116.878C321.153,-107.685 355.566,-93.4095 380.597,-83.0263"/>
<polygon fill="midnightblue" stroke="midnightblue" points="382.123,-86.1826 390.019,-79.1181 379.441,-79.7168 382.123,-86.1826"/>
</g>
<!-- Node4 -->
<g id="node4" class="node"><title>Node4</title>
<g id="a_node4"><a xlink:href="_current_function_8h.html" target="_top" xlink:title="cinder/CurrentFunction.h">
<polygon fill="white" stroke="black" points="-0.0268555,-1 -0.0268555,-21 126.027,-21 126.027,-1 -0.0268555,-1"/>
<text text-anchor="middle" x="63" y="-7" font-family="Helvetica,sans-Serif" font-size="10.00">cinder/CurrentFunction.h</text>
</a>
</g>
</g>
<!-- Node3&#45;&gt;Node4 -->
<g id="edge3" class="edge"><title>Node3&#45;&gt;Node4</title>
<path fill="none" stroke="midnightblue" d="M106.413,-58.7527C98.841,-50.598 87.6218,-38.5158 78.4856,-28.6769"/>
<polygon fill="midnightblue" stroke="midnightblue" points="80.7963,-26.0216 71.427,-21.0752 75.6667,-30.7847 80.7963,-26.0216"/>
</g>
<!-- Node5 -->
<g id="node5" class="node"><title>Node5</title>
<polygon fill="white" stroke="#bfbfbf" points="143.884,-1 143.884,-21 192.116,-21 192.116,-1 143.884,-1"/>
<text text-anchor="middle" x="168" y="-7" font-family="Helvetica,sans-Serif" font-size="10.00">cassert</text>
</g>
<!-- Node3&#45;&gt;Node5 -->
<g id="edge4" class="edge"><title>Node3&#45;&gt;Node5</title>
<path fill="none" stroke="midnightblue" d="M123.752,-58.7527C131.547,-50.5165 143.134,-38.2738 152.495,-28.3824"/>
<polygon fill="midnightblue" stroke="midnightblue" points="155.079,-30.744 159.411,-21.0752 149.995,-25.9323 155.079,-30.744"/>
</g>
</g>
</svg>
