<?xml version="1.0" encoding="UTF-8" standalone="no"?>
<!DOCTYPE svg PUBLIC "-//W3C//DTD SVG 1.1//EN"
 "http://www.w3.org/Graphics/SVG/1.1/DTD/svg11.dtd">
<!-- Generated by graphviz version 2.30.1 (20140712.1814)
 -->
<!-- Title: include/cinder/params/Params.h Pages: 1 -->
<!--zoomable 564 -->
<svg id="main" version="1.1" xmlns="http://www.w3.org/2000/svg" xmlns:xlink="http://www.w3.org/1999/xlink" xml:space="preserve" onload="init(evt)">
<style type="text/css"><![CDATA[
.edge:hover path { stroke: red; }
.edge:hover polygon { stroke: red; fill: red; }
]]></style>
<script type="text/javascript"><![CDATA[
var edges = document.getElementsByTagName('g');
if (edges && edges.length) {
  for (var i=0;i<edges.length;i++) {
    if (edges[i].id.substr(0,4)=='edge') {
      edges[i].setAttribute('class','edge');
    }
  }
}
]]></script>
        <defs>
                <circle id="rim" cx="0" cy="0" r="7"/>
                <circle id="rim2" cx="0" cy="0" r="3.5"/>
                <g id="zoomPlus">
                        <use xlink:href="#rim" fill="#404040">
                                <set attributeName="fill" to="#808080" begin="zoomplus.mouseover" end="zoomplus.mouseout"/>
                        </use>
                        <path d="M-4,0h8M0,-4v8" fill="none" stroke="white" stroke-width="1.5" pointer-events="none"/>
                </g>
                <g id="zoomMin">
                        <use xlink:href="#rim" fill="#404040">
                                <set attributeName="fill" to="#808080" begin="zoomminus.mouseover" end="zoomminus.mouseout"/>
                        </use>
                        <path d="M-4,0h8" fill="none" stroke="white" stroke-width="1.5" pointer-events="none"/>
                </g>
                <g id="dirArrow">
                        <path fill="none" stroke="white" stroke-width="1.5" d="M0,-3.0v7 M-2.5,-0.5L0,-3.0L2.5,-0.5"/>
                </g>
               <g id="resetDef">
                       <use xlink:href="#rim2" fill="#404040">
                               <set attributeName="fill" to="#808080" begin="reset.mouseover" end="reset.mouseout"/>
                       </use>
               </g>
        </defs>

<script type="text/javascript">
var viewWidth = 1088;
var viewHeight = 564;
var sectionId = 'dynsection-0';
</script>
<script xlink:href="svgpan.js"/>
<svg id="graph" class="graph">
<g id="viewport">
<title>include/cinder/params/Params.h</title>
<polygon fill="white" stroke="white" points="-4,5 -4,-560 1085,-560 1085,5 -4,5"/>
<!-- Node1 -->
<g id="node1" class="node"><title>Node1</title>
<polygon fill="#bfbfbf" stroke="black" points="782.086,-523 782.086,-555 895.914,-555 895.914,-523 782.086,-523"/>
<text text-anchor="start" x="790.086" y="-541" font-family="Helvetica,sans-Serif" font-size="10.00">include/cinder/params</text>
<text text-anchor="middle" x="839" y="-529" font-family="Helvetica,sans-Serif" font-size="10.00">/Params.h</text>
</g>
<!-- Node2 -->
<g id="node2" class="node"><title>Node2</title>
<g id="a_node2"><a xlink:href="_color_8h.html" target="_top" xlink:title="cinder/Color.h">
<polygon fill="white" stroke="black" points="54.1479,-233 54.1479,-253 131.852,-253 131.852,-233 54.1479,-233"/>
<text text-anchor="middle" x="93" y="-239" font-family="Helvetica,sans-Serif" font-size="10.00">cinder/Color.h</text>
</a>
</g>
</g>
<!-- Node1&#45;&gt;Node2 -->
<g id="edge1" class="edge"><title>Node1&#45;&gt;Node2</title>
<path fill="none" stroke="midnightblue" d="M781.944,-534.644C609.905,-523.77 108,-486.203 108,-418 108,-418 108,-418 108,-358 108,-324.358 101.499,-285.605 97.0571,-263.05"/>
<polygon fill="midnightblue" stroke="midnightblue" points="100.456,-262.204 95.023,-253.108 93.5985,-263.607 100.456,-262.204"/>
</g>
<!-- Node18 -->
<g id="node18" class="node"><title>Node18</title>
<g id="a_node18"><a xlink:href="_quaternion_8h.html" target="_top" xlink:title="cinder/Quaternion.h">
<polygon fill="white" stroke="black" points="584.084,-465 584.084,-485 687.916,-485 687.916,-465 584.084,-465"/>
<text text-anchor="middle" x="636" y="-471" font-family="Helvetica,sans-Serif" font-size="10.00">cinder/Quaternion.h</text>
</a>
</g>
</g>
<!-- Node1&#45;&gt;Node18 -->
<g id="edge21" class="edge"><title>Node1&#45;&gt;Node18</title>
<path fill="none" stroke="midnightblue" d="M789.859,-522.992C754.661,-512.241 707.894,-497.958 675.196,-487.971"/>
<polygon fill="midnightblue" stroke="midnightblue" points="676.114,-484.592 665.528,-485.018 674.07,-491.287 676.114,-484.592"/>
</g>
<!-- Node26 -->
<g id="node26" class="node"><title>Node26</title>
<g id="a_node26"><a xlink:href="_function_8h.html" target="_top" xlink:title="cinder/Function.h">
<polygon fill="white" stroke="black" points="768.646,-117 768.646,-137 861.354,-137 861.354,-117 768.646,-117"/>
<text text-anchor="middle" x="815" y="-123" font-family="Helvetica,sans-Serif" font-size="10.00">cinder/Function.h</text>
</a>
</g>
</g>
<!-- Node1&#45;&gt;Node26 -->
<g id="edge54" class="edge"><title>Node1&#45;&gt;Node26</title>
<path fill="none" stroke="midnightblue" d="M833.91,-522.663C826.865,-500.033 815,-456.243 815,-418 815,-418 815,-418 815,-242 815,-208.798 815,-170.157 815,-147.462"/>
<polygon fill="midnightblue" stroke="midnightblue" points="818.5,-147.162 815,-137.162 811.5,-147.162 818.5,-147.162"/>
</g>
<!-- Node31 -->
<g id="node31" class="node"><title>Node31</title>
<polygon fill="white" stroke="#bfbfbf" points="842.773,-465 842.773,-485 883.227,-485 883.227,-465 842.773,-465"/>
<text text-anchor="middle" x="863" y="-471" font-family="Helvetica,sans-Serif" font-size="10.00">string</text>
</g>
<!-- Node1&#45;&gt;Node31 -->
<g id="edge61" class="edge"><title>Node1&#45;&gt;Node31</title>
<path fill="none" stroke="midnightblue" d="M844.81,-522.992C848.08,-514.543 852.196,-503.912 855.684,-494.899"/>
<polygon fill="midnightblue" stroke="midnightblue" points="859.058,-495.88 859.404,-485.29 852.53,-493.353 859.058,-495.88"/>
</g>
<!-- Node32 -->
<g id="node32" class="node"><title>Node32</title>
<polygon fill="white" stroke="#bfbfbf" points="901.273,-465 901.273,-485 936.727,-485 936.727,-465 901.273,-465"/>
<text text-anchor="middle" x="919" y="-471" font-family="Helvetica,sans-Serif" font-size="10.00">map</text>
</g>
<!-- Node1&#45;&gt;Node32 -->
<g id="edge62" class="edge"><title>Node1&#45;&gt;Node32</title>
<path fill="none" stroke="midnightblue" d="M858.366,-522.992C870.689,-513.441 886.611,-501.101 899.047,-491.463"/>
<polygon fill="midnightblue" stroke="midnightblue" points="901.252,-494.183 907.012,-485.29 896.964,-488.65 901.252,-494.183"/>
</g>
<!-- Node33 -->
<g id="node33" class="node"><title>Node33</title>
<polygon fill="white" stroke="#bfbfbf" points="954.943,-465 954.943,-485 1007.06,-485 1007.06,-465 954.943,-465"/>
<text text-anchor="middle" x="981" y="-471" font-family="Helvetica,sans-Serif" font-size="10.00">memory</text>
</g>
<!-- Node1&#45;&gt;Node33 -->
<g id="edge63" class="edge"><title>Node1&#45;&gt;Node33</title>
<path fill="none" stroke="midnightblue" d="M873.374,-522.992C896.969,-512.689 927.996,-499.143 950.671,-489.242"/>
<polygon fill="midnightblue" stroke="midnightblue" points="952.374,-492.318 960.138,-485.109 949.573,-485.903 952.374,-492.318"/>
</g>
<!-- Node3 -->
<g id="node3" class="node"><title>Node3</title>
<g id="a_node3"><a xlink:href="_cinder_8h.html" target="_top" xlink:title="cinder/Cinder.h">
<polygon fill="white" stroke="black" points="202.367,-59 202.367,-79 285.633,-79 285.633,-59 202.367,-59"/>
<text text-anchor="middle" x="244" y="-65" font-family="Helvetica,sans-Serif" font-size="10.00">cinder/Cinder.h</text>
</a>
</g>
</g>
<!-- Node2&#45;&gt;Node3 -->
<g id="edge2" class="edge"><title>Node2&#45;&gt;Node3</title>
<path fill="none" stroke="midnightblue" d="M96.6171,-232.654C106.82,-206.647 136.237,-134.152 154,-116 168.394,-101.291 188.489,-90.4049 206.04,-82.9257"/>
<polygon fill="midnightblue" stroke="midnightblue" points="207.512,-86.1059 215.477,-79.1186 204.893,-79.6143 207.512,-86.1059"/>
</g>
<!-- Node7 -->
<g id="node7" class="node"><title>Node7</title>
<g id="a_node7"><a xlink:href="_chan_traits_8h.html" target="_top" xlink:title="cinder/ChanTraits.h">
<polygon fill="white" stroke="black" points="-0.447266,-175 -0.447266,-195 102.447,-195 102.447,-175 -0.447266,-175"/>
<text text-anchor="middle" x="51" y="-181" font-family="Helvetica,sans-Serif" font-size="10.00">cinder/ChanTraits.h</text>
</a>
</g>
</g>
<!-- Node2&#45;&gt;Node7 -->
<g id="edge6" class="edge"><title>Node2&#45;&gt;Node7</title>
<path fill="none" stroke="midnightblue" d="M86.0646,-232.753C80.0708,-224.761 71.2482,-212.998 63.9524,-203.27"/>
<polygon fill="midnightblue" stroke="midnightblue" points="66.6064,-200.975 57.8064,-195.075 61.0064,-205.175 66.6064,-200.975"/>
</g>
<!-- Node8 -->
<g id="node8" class="node"><title>Node8</title>
<g id="a_node8"><a xlink:href="_vector_8h.html" target="_top" xlink:title="cinder/Vector.h">
<polygon fill="white" stroke="black" points="314.919,-175 314.919,-195 397.081,-195 397.081,-175 314.919,-175"/>
<text text-anchor="middle" x="356" y="-181" font-family="Helvetica,sans-Serif" font-size="10.00">cinder/Vector.h</text>
</a>
</g>
</g>
<!-- Node2&#45;&gt;Node8 -->
<g id="edge8" class="edge"><title>Node2&#45;&gt;Node8</title>
<path fill="none" stroke="midnightblue" d="M132.09,-233.677C177.873,-223.928 253.877,-207.745 304.451,-196.976"/>
<polygon fill="midnightblue" stroke="midnightblue" points="305.471,-200.338 314.523,-194.832 304.013,-193.491 305.471,-200.338"/>
</g>
<!-- Node14 -->
<g id="node14" class="node"><title>Node14</title>
<g id="a_node14"><a xlink:href="_cinder_math_8h.html" target="_top" xlink:title="cinder/CinderMath.h">
<polygon fill="white" stroke="black" points="643.978,-117 643.978,-137 750.022,-137 750.022,-117 643.978,-117"/>
<text text-anchor="middle" x="697" y="-123" font-family="Helvetica,sans-Serif" font-size="10.00">cinder/CinderMath.h</text>
</a>
</g>
</g>
<!-- Node2&#45;&gt;Node14 -->
<g id="edge20" class="edge"><title>Node2&#45;&gt;Node14</title>
<path fill="none" stroke="midnightblue" d="M116.239,-232.952C154.967,-218.246 235.431,-189.267 306,-174 419.962,-149.344 555.666,-137.122 633.53,-131.711"/>
<polygon fill="midnightblue" stroke="midnightblue" points="633.921,-135.193 643.661,-131.023 633.447,-128.209 633.921,-135.193"/>
</g>
<!-- Node4 -->
<g id="node4" class="node"><title>Node4</title>
<polygon fill="white" stroke="#bfbfbf" points="133.549,-1 133.549,-21 178.451,-21 178.451,-1 133.549,-1"/>
<text text-anchor="middle" x="156" y="-7" font-family="Helvetica,sans-Serif" font-size="10.00">cstdint</text>
</g>
<!-- Node3&#45;&gt;Node4 -->
<g id="edge3" class="edge"><title>Node3&#45;&gt;Node4</title>
<path fill="none" stroke="midnightblue" d="M229.469,-58.7527C215.757,-50.0272 194.979,-36.8051 179.015,-26.6458"/>
<polygon fill="midnightblue" stroke="midnightblue" points="180.577,-23.4912 170.261,-21.0752 176.819,-29.3968 180.577,-23.4912"/>
</g>
<!-- Node5 -->
<g id="node5" class="node"><title>Node5</title>
<polygon fill="white" stroke="#bfbfbf" points="196.53,-1 196.53,-21 291.47,-21 291.47,-1 196.53,-1"/>
<text text-anchor="middle" x="244" y="-7" font-family="Helvetica,sans-Serif" font-size="10.00">boost/version.hpp</text>
</g>
<!-- Node3&#45;&gt;Node5 -->
<g id="edge4" class="edge"><title>Node3&#45;&gt;Node5</title>
<path fill="none" stroke="midnightblue" d="M244,-58.7527C244,-51.2504 244,-40.4238 244,-31.0781"/>
<polygon fill="midnightblue" stroke="midnightblue" points="247.5,-31.0752 244,-21.0752 240.5,-31.0752 247.5,-31.0752"/>
</g>
<!-- Node6 -->
<g id="node6" class="node"><title>Node6</title>
<polygon fill="white" stroke="#bfbfbf" points="309.621,-1 309.621,-21 442.379,-21 442.379,-1 309.621,-1"/>
<text text-anchor="middle" x="376" y="-7" font-family="Helvetica,sans-Serif" font-size="10.00">boost/checked_delete.hpp</text>
</g>
<!-- Node3&#45;&gt;Node6 -->
<g id="edge5" class="edge"><title>Node3&#45;&gt;Node6</title>
<path fill="none" stroke="midnightblue" d="M265.502,-58.878C287.172,-49.6848 320.821,-35.4095 345.295,-25.0263"/>
<polygon fill="midnightblue" stroke="midnightblue" points="346.668,-28.2457 354.507,-21.1181 343.935,-21.8016 346.668,-28.2457"/>
</g>
<!-- Node7&#45;&gt;Node3 -->
<g id="edge7" class="edge"><title>Node7&#45;&gt;Node3</title>
<path fill="none" stroke="midnightblue" d="M57.5541,-174.776C68.2496,-160.342 90.8065,-132.379 116,-116 140.031,-100.376 170.052,-89.2265 194.979,-81.8209"/>
<polygon fill="midnightblue" stroke="midnightblue" points="195.957,-85.1815 204.61,-79.0679 194.033,-78.451 195.957,-85.1815"/>
</g>
<!-- Node9 -->
<g id="node9" class="node"><title>Node9</title>
<polygon fill="white" stroke="#bfbfbf" points="522.384,-59 522.384,-79 565.616,-79 565.616,-59 522.384,-59"/>
<text text-anchor="middle" x="544" y="-65" font-family="Helvetica,sans-Serif" font-size="10.00">cmath</text>
</g>
<!-- Node8&#45;&gt;Node9 -->
<g id="edge9" class="edge"><title>Node8&#45;&gt;Node9</title>
<path fill="none" stroke="midnightblue" d="M395.841,-174.951C441.662,-164.227 511.797,-146.717 521,-138 534.397,-125.311 539.991,-104.553 542.326,-89.3045"/>
<polygon fill="midnightblue" stroke="midnightblue" points="545.802,-89.7143 543.516,-79.3691 538.852,-88.882 545.802,-89.7143"/>
</g>
<!-- Node10 -->
<g id="node10" class="node"><title>Node10</title>
<polygon fill="white" stroke="#bfbfbf" points="328.273,-117 328.273,-137 373.727,-137 373.727,-117 328.273,-117"/>
<text text-anchor="middle" x="351" y="-123" font-family="Helvetica,sans-Serif" font-size="10.00">cstring</text>
</g>
<!-- Node8&#45;&gt;Node10 -->
<g id="edge10" class="edge"><title>Node8&#45;&gt;Node10</title>
<path fill="none" stroke="midnightblue" d="M355.174,-174.753C354.505,-167.25 353.538,-156.424 352.703,-147.078"/>
<polygon fill="midnightblue" stroke="midnightblue" points="356.186,-146.724 351.81,-137.075 349.214,-147.347 356.186,-146.724"/>
</g>
<!-- Node11 -->
<g id="node11" class="node"><title>Node11</title>
<polygon fill="white" stroke="#bfbfbf" points="391.828,-117 391.828,-137 446.172,-137 446.172,-117 391.828,-117"/>
<text text-anchor="middle" x="419" y="-123" font-family="Helvetica,sans-Serif" font-size="10.00">iostream</text>
</g>
<!-- Node8&#45;&gt;Node11 -->
<g id="edge11" class="edge"><title>Node8&#45;&gt;Node11</title>
<path fill="none" stroke="midnightblue" d="M366.403,-174.753C375.852,-166.353 389.989,-153.787 401.228,-143.798"/>
<polygon fill="midnightblue" stroke="midnightblue" points="403.642,-146.335 408.79,-137.075 398.991,-141.103 403.642,-146.335"/>
</g>
<!-- Node12 -->
<g id="node12" class="node"><title>Node12</title>
<polygon fill="white" stroke="#bfbfbf" points="463.884,-117 463.884,-137 512.116,-137 512.116,-117 463.884,-117"/>
<text text-anchor="middle" x="488" y="-123" font-family="Helvetica,sans-Serif" font-size="10.00">cassert</text>
</g>
<!-- Node8&#45;&gt;Node12 -->
<g id="edge12" class="edge"><title>Node8&#45;&gt;Node12</title>
<path fill="none" stroke="midnightblue" d="M377.502,-174.878C399.172,-165.685 432.821,-151.409 457.295,-141.026"/>
<polygon fill="midnightblue" stroke="midnightblue" points="458.668,-144.246 466.507,-137.118 455.935,-137.802 458.668,-144.246"/>
</g>
<!-- Node13 -->
<g id="node13" class="node"><title>Node13</title>
<polygon fill="white" stroke="#bfbfbf" points="271.613,-117 271.613,-137 310.387,-137 310.387,-117 271.613,-117"/>
<text text-anchor="middle" x="291" y="-123" font-family="Helvetica,sans-Serif" font-size="10.00">limits</text>
</g>
<!-- Node8&#45;&gt;Node13 -->
<g id="edge13" class="edge"><title>Node8&#45;&gt;Node13</title>
<path fill="none" stroke="midnightblue" d="M345.267,-174.753C335.517,-166.353 320.932,-153.787 309.336,-143.798"/>
<polygon fill="midnightblue" stroke="midnightblue" points="311.394,-140.951 301.534,-137.075 306.825,-146.254 311.394,-140.951"/>
</g>
<!-- Node8&#45;&gt;Node14 -->
<g id="edge14" class="edge"><title>Node8&#45;&gt;Node14</title>
<path fill="none" stroke="midnightblue" d="M397.129,-176.427C401.805,-175.595 406.504,-174.77 411,-174 487.571,-160.883 575.87,-146.846 633.863,-137.777"/>
<polygon fill="midnightblue" stroke="midnightblue" points="634.631,-141.199 643.972,-136.198 633.551,-134.283 634.631,-141.199"/>
</g>
<!-- Node14&#45;&gt;Node3 -->
<g id="edge15" class="edge"><title>Node14&#45;&gt;Node3</title>
<path fill="none" stroke="midnightblue" d="M643.627,-117.889C639.02,-117.233 634.429,-116.594 630,-116 510.537,-99.9702 369.887,-83.9177 295.758,-75.6762"/>
<polygon fill="midnightblue" stroke="midnightblue" points="296.074,-72.1899 285.749,-74.566 295.302,-79.1472 296.074,-72.1899"/>
</g>
<!-- Node14&#45;&gt;Node9 -->
<g id="edge16" class="edge"><title>Node14&#45;&gt;Node9</title>
<path fill="none" stroke="midnightblue" d="M672.077,-116.878C645.718,-107.23 604.066,-91.9848 575.461,-81.5152"/>
<polygon fill="midnightblue" stroke="midnightblue" points="576.528,-78.1785 565.934,-78.0281 574.122,-84.7521 576.528,-78.1785"/>
</g>
<!-- Node15 -->
<g id="node15" class="node"><title>Node15</title>
<polygon fill="white" stroke="#bfbfbf" points="592.113,-59 592.113,-79 635.887,-79 635.887,-59 592.113,-59"/>
<text text-anchor="middle" x="614" y="-65" font-family="Helvetica,sans-Serif" font-size="10.00">climits</text>
</g>
<!-- Node14&#45;&gt;Node15 -->
<g id="edge17" class="edge"><title>Node14&#45;&gt;Node15</title>
<path fill="none" stroke="midnightblue" d="M683.294,-116.753C670.483,-108.109 651.13,-95.0518 636.13,-84.9314"/>
<polygon fill="midnightblue" stroke="midnightblue" points="637.698,-81.7669 627.451,-79.0752 633.783,-87.5696 637.698,-81.7669"/>
</g>
<!-- Node16 -->
<g id="node16" class="node"><title>Node16</title>
<polygon fill="white" stroke="#bfbfbf" points="654.049,-59 654.049,-79 693.951,-79 693.951,-59 654.049,-59"/>
<text text-anchor="middle" x="674" y="-65" font-family="Helvetica,sans-Serif" font-size="10.00">cfloat</text>
</g>
<!-- Node14&#45;&gt;Node16 -->
<g id="edge18" class="edge"><title>Node14&#45;&gt;Node16</title>
<path fill="none" stroke="midnightblue" d="M693.202,-116.753C690.054,-109.087 685.48,-97.9515 681.586,-88.4708"/>
<polygon fill="midnightblue" stroke="midnightblue" points="684.764,-86.9957 677.727,-79.0752 678.289,-89.6551 684.764,-86.9957"/>
</g>
<!-- Node17 -->
<g id="node17" class="node"><title>Node17</title>
<polygon fill="white" stroke="#bfbfbf" points="711.596,-59 711.596,-79 770.404,-79 770.404,-59 711.596,-59"/>
<text text-anchor="middle" x="741" y="-65" font-family="Helvetica,sans-Serif" font-size="10.00">functional</text>
</g>
<!-- Node14&#45;&gt;Node17 -->
<g id="edge19" class="edge"><title>Node14&#45;&gt;Node17</title>
<path fill="none" stroke="midnightblue" d="M704.266,-116.753C710.609,-108.68 719.977,-96.7571 727.664,-86.9727"/>
<polygon fill="midnightblue" stroke="midnightblue" points="730.443,-89.1008 733.869,-79.0752 724.939,-84.776 730.443,-89.1008"/>
</g>
<!-- Node18&#45;&gt;Node14 -->
<g id="edge22" class="edge"><title>Node18&#45;&gt;Node14</title>
<path fill="none" stroke="midnightblue" d="M665.558,-464.928C706.904,-450.188 777,-416.82 777,-360 777,-360 777,-360 777,-242 777,-200.473 740.992,-163.355 717.291,-143.421"/>
<polygon fill="midnightblue" stroke="midnightblue" points="719.473,-140.685 709.5,-137.108 715.066,-146.123 719.473,-140.685"/>
</g>
<!-- Node18&#45;&gt;Node8 -->
<g id="edge23" class="edge"><title>Node18&#45;&gt;Node8</title>
<path fill="none" stroke="midnightblue" d="M583.698,-472.474C460.046,-467.448 160,-446.357 160,-360 160,-360 160,-360 160,-300 160,-232.971 246.713,-204.674 304.786,-193.24"/>
<polygon fill="midnightblue" stroke="midnightblue" points="305.72,-196.626 314.912,-191.358 304.441,-189.744 305.72,-196.626"/>
</g>
<!-- Node19 -->
<g id="node19" class="node"><title>Node19</title>
<g id="a_node19"><a xlink:href="_matrix_8h.html" target="_top" xlink:title="cinder/Matrix.h">
<polygon fill="white" stroke="black" points="495.212,-407 495.212,-427 576.788,-427 576.788,-407 495.212,-407"/>
<text text-anchor="middle" x="536" y="-413" font-family="Helvetica,sans-Serif" font-size="10.00">cinder/Matrix.h</text>
</a>
</g>
</g>
<!-- Node18&#45;&gt;Node19 -->
<g id="edge24" class="edge"><title>Node18&#45;&gt;Node19</title>
<path fill="none" stroke="midnightblue" d="M619.487,-464.753C603.614,-455.864 579.409,-442.309 561.142,-432.079"/>
<polygon fill="midnightblue" stroke="midnightblue" points="562.641,-428.907 552.206,-427.075 559.221,-435.015 562.641,-428.907"/>
</g>
<!-- Node19&#45;&gt;Node3 -->
<g id="edge25" class="edge"><title>Node19&#45;&gt;Node3</title>
<path fill="none" stroke="midnightblue" d="M495.151,-410.225C422.247,-397.386 272.199,-358.839 217,-254 188.101,-199.113 217.786,-122.975 234.399,-88.3977"/>
<polygon fill="midnightblue" stroke="midnightblue" points="237.72,-89.581 239.055,-79.0707 231.457,-86.4542 237.72,-89.581"/>
</g>
<!-- Node19&#45;&gt;Node14 -->
<g id="edge26" class="edge"><title>Node19&#45;&gt;Node14</title>
<path fill="none" stroke="midnightblue" d="M577.08,-411.371C636.397,-402.149 739,-375.565 739,-302 739,-302 739,-302 739,-242 739,-206.15 720.486,-167.651 708.042,-145.824"/>
<polygon fill="midnightblue" stroke="midnightblue" points="710.946,-143.86 702.84,-137.038 704.923,-147.427 710.946,-143.86"/>
</g>
<!-- Node20 -->
<g id="node20" class="node"><title>Node20</title>
<g id="a_node20"><a xlink:href="_matrix22_8h.html" target="_top" xlink:title="cinder/Matrix22.h">
<polygon fill="white" stroke="black" points="356.65,-233 356.65,-253 449.35,-253 449.35,-233 356.65,-233"/>
<text text-anchor="middle" x="403" y="-239" font-family="Helvetica,sans-Serif" font-size="10.00">cinder/Matrix22.h</text>
</a>
</g>
</g>
<!-- Node19&#45;&gt;Node20 -->
<g id="edge27" class="edge"><title>Node19&#45;&gt;Node20</title>
<path fill="none" stroke="midnightblue" d="M497.294,-406.896C476.329,-400.061 451.596,-388.595 436,-370 410.062,-339.074 404.251,-290.016 403.11,-263.148"/>
<polygon fill="midnightblue" stroke="midnightblue" points="406.608,-263.02 402.862,-253.109 399.611,-263.193 406.608,-263.02"/>
</g>
<!-- Node22 -->
<g id="node22" class="node"><title>Node22</title>
<g id="a_node22"><a xlink:href="_matrix_affine2_8h.html" target="_top" xlink:title="cinder/MatrixAffine2.h">
<polygon fill="white" stroke="black" points="225.646,-233 225.646,-253 338.354,-253 338.354,-233 225.646,-233"/>
<text text-anchor="middle" x="282" y="-239" font-family="Helvetica,sans-Serif" font-size="10.00">cinder/MatrixAffine2.h</text>
</a>
</g>
</g>
<!-- Node19&#45;&gt;Node22 -->
<g id="edge32" class="edge"><title>Node19&#45;&gt;Node22</title>
<path fill="none" stroke="midnightblue" d="M503.965,-406.943C479.567,-399.228 445.736,-386.729 419,-370 368.573,-338.448 319.831,-287.124 296.424,-260.776"/>
<polygon fill="midnightblue" stroke="midnightblue" points="298.968,-258.369 289.744,-253.156 293.704,-262.983 298.968,-258.369"/>
</g>
<!-- Node23 -->
<g id="node23" class="node"><title>Node23</title>
<g id="a_node23"><a xlink:href="_matrix33_8h.html" target="_top" xlink:title="cinder/Matrix33.h">
<polygon fill="white" stroke="black" points="580.65,-233 580.65,-253 673.35,-253 673.35,-233 580.65,-233"/>
<text text-anchor="middle" x="627" y="-239" font-family="Helvetica,sans-Serif" font-size="10.00">cinder/Matrix33.h</text>
</a>
</g>
</g>
<!-- Node19&#45;&gt;Node23 -->
<g id="edge37" class="edge"><title>Node19&#45;&gt;Node23</title>
<path fill="none" stroke="midnightblue" d="M543.911,-406.937C551.486,-397.969 562.926,-383.645 571,-370 592.44,-333.767 610.852,-287.849 620.277,-262.655"/>
<polygon fill="midnightblue" stroke="midnightblue" points="623.582,-263.808 623.749,-253.215 617.013,-261.392 623.582,-263.808"/>
</g>
<!-- Node24 -->
<g id="node24" class="node"><title>Node24</title>
<g id="a_node24"><a xlink:href="_matrix44_8h.html" target="_top" xlink:title="cinder/Matrix44.h">
<polygon fill="white" stroke="black" points="468.65,-291 468.65,-311 561.35,-311 561.35,-291 468.65,-291"/>
<text text-anchor="middle" x="515" y="-297" font-family="Helvetica,sans-Serif" font-size="10.00">cinder/Matrix44.h</text>
</a>
</g>
</g>
<!-- Node19&#45;&gt;Node24 -->
<g id="edge42" class="edge"><title>Node19&#45;&gt;Node24</title>
<path fill="none" stroke="midnightblue" d="M542.345,-406.6C550.472,-393.329 562.643,-368.436 555,-348 550.774,-336.7 542.38,-326.342 534.367,-318.328"/>
<polygon fill="midnightblue" stroke="midnightblue" points="536.356,-315.397 526.651,-311.147 531.587,-320.522 536.356,-315.397"/>
</g>
<!-- Node25 -->
<g id="node25" class="node"><title>Node25</title>
<g id="a_node25"><a xlink:href="_matrix_algo_8h.html" target="_top" xlink:title="cinder/MatrixAlgo.h">
<polygon fill="white" stroke="black" points="445.205,-349 445.205,-369 546.795,-369 546.795,-349 445.205,-349"/>
<text text-anchor="middle" x="496" y="-355" font-family="Helvetica,sans-Serif" font-size="10.00">cinder/MatrixAlgo.h</text>
</a>
</g>
</g>
<!-- Node19&#45;&gt;Node25 -->
<g id="edge50" class="edge"><title>Node19&#45;&gt;Node25</title>
<path fill="none" stroke="midnightblue" d="M529.395,-406.753C523.687,-398.761 515.284,-386.998 508.336,-377.27"/>
<polygon fill="midnightblue" stroke="midnightblue" points="511.143,-375.178 502.482,-369.075 505.447,-379.247 511.143,-375.178"/>
</g>
<!-- Node20&#45;&gt;Node3 -->
<g id="edge28" class="edge"><title>Node20&#45;&gt;Node3</title>
<path fill="none" stroke="midnightblue" d="M375.023,-232.915C354.446,-225.291 326.592,-212.92 306,-196 281.207,-175.628 277.108,-166.822 263,-138 255.346,-122.363 250.336,-103.146 247.393,-89.1344"/>
<polygon fill="midnightblue" stroke="midnightblue" points="250.803,-88.3329 245.465,-79.1813 243.931,-89.6645 250.803,-88.3329"/>
</g>
<!-- Node20&#45;&gt;Node14 -->
<g id="edge29" class="edge"><title>Node20&#45;&gt;Node14</title>
<path fill="none" stroke="midnightblue" d="M410.727,-232.885C423.808,-218.081 451.851,-188.965 482,-174 529.739,-150.304 589.359,-138.772 633.7,-133.185"/>
<polygon fill="midnightblue" stroke="midnightblue" points="634.255,-136.643 643.77,-131.984 633.426,-129.693 634.255,-136.643"/>
</g>
<!-- Node20&#45;&gt;Node8 -->
<g id="edge30" class="edge"><title>Node20&#45;&gt;Node8</title>
<path fill="none" stroke="midnightblue" d="M395.239,-232.753C388.463,-224.68 378.457,-212.757 370.245,-202.973"/>
<polygon fill="midnightblue" stroke="midnightblue" points="372.726,-200.485 363.617,-195.075 367.365,-204.985 372.726,-200.485"/>
</g>
<!-- Node21 -->
<g id="node21" class="node"><title>Node21</title>
<polygon fill="white" stroke="#bfbfbf" points="491.49,-175 491.49,-195 542.51,-195 542.51,-175 491.49,-175"/>
<text text-anchor="middle" x="517" y="-181" font-family="Helvetica,sans-Serif" font-size="10.00">iomanip</text>
</g>
<!-- Node20&#45;&gt;Node21 -->
<g id="edge31" class="edge"><title>Node20&#45;&gt;Node21</title>
<path fill="none" stroke="midnightblue" d="M421.57,-232.878C439.953,-223.847 468.32,-209.913 489.353,-199.581"/>
<polygon fill="midnightblue" stroke="midnightblue" points="491.006,-202.669 498.438,-195.118 487.919,-196.386 491.006,-202.669"/>
</g>
<!-- Node22&#45;&gt;Node3 -->
<g id="edge33" class="edge"><title>Node22&#45;&gt;Node3</title>
<path fill="none" stroke="midnightblue" d="M275.545,-232.823C263.702,-215.361 238.905,-175.722 230,-138 226.072,-121.361 230.795,-102.284 235.788,-88.5796"/>
<polygon fill="midnightblue" stroke="midnightblue" points="239.045,-89.8603 239.52,-79.2761 232.549,-87.254 239.045,-89.8603"/>
</g>
<!-- Node22&#45;&gt;Node14 -->
<g id="edge34" class="edge"><title>Node22&#45;&gt;Node14</title>
<path fill="none" stroke="midnightblue" d="M310.093,-232.999C335.567,-224.506 373.924,-210.883 406,-196 424.052,-187.624 426.286,-180.769 445,-174 506.947,-151.592 581.576,-139.715 633.47,-133.684"/>
<polygon fill="midnightblue" stroke="midnightblue" points="633.988,-137.148 643.536,-132.554 633.208,-130.191 633.988,-137.148"/>
</g>
<!-- Node22&#45;&gt;Node8 -->
<g id="edge35" class="edge"><title>Node22&#45;&gt;Node8</title>
<path fill="none" stroke="midnightblue" d="M294.22,-232.753C305.534,-224.19 322.571,-211.298 335.89,-201.219"/>
<polygon fill="midnightblue" stroke="midnightblue" points="338.146,-203.901 344.008,-195.075 333.922,-198.319 338.146,-203.901"/>
</g>
<!-- Node22&#45;&gt;Node21 -->
<g id="edge36" class="edge"><title>Node22&#45;&gt;Node21</title>
<path fill="none" stroke="midnightblue" d="M320.018,-232.94C364.635,-222.308 438.036,-204.817 481.524,-194.454"/>
<polygon fill="midnightblue" stroke="midnightblue" points="482.46,-197.829 491.376,-192.106 480.837,-191.02 482.46,-197.829"/>
</g>
<!-- Node23&#45;&gt;Node3 -->
<g id="edge38" class="edge"><title>Node23&#45;&gt;Node3</title>
<path fill="none" stroke="midnightblue" d="M627.555,-232.97C628.45,-209.574 627.295,-146.685 592,-116 548.855,-78.4904 382.025,-71.2538 295.984,-70.0641"/>
<polygon fill="midnightblue" stroke="midnightblue" points="295.945,-66.5635 285.905,-69.9473 295.864,-73.563 295.945,-66.5635"/>
</g>
<!-- Node23&#45;&gt;Node14 -->
<g id="edge39" class="edge"><title>Node23&#45;&gt;Node14</title>
<path fill="none" stroke="midnightblue" d="M632.728,-232.671C644.374,-213.705 670.983,-170.371 686.057,-145.822"/>
<polygon fill="midnightblue" stroke="midnightblue" points="689.138,-147.493 691.388,-137.139 683.173,-143.83 689.138,-147.493"/>
</g>
<!-- Node23&#45;&gt;Node8 -->
<g id="edge40" class="edge"><title>Node23&#45;&gt;Node8</title>
<path fill="none" stroke="midnightblue" d="M583.158,-232.94C534.987,-222.986 457.722,-207.02 406.908,-196.52"/>
<polygon fill="midnightblue" stroke="midnightblue" points="407.616,-193.092 397.115,-194.496 406.2,-199.947 407.616,-193.092"/>
</g>
<!-- Node23&#45;&gt;Node21 -->
<g id="edge41" class="edge"><title>Node23&#45;&gt;Node21</title>
<path fill="none" stroke="midnightblue" d="M608.836,-232.753C591.136,-223.742 564.016,-209.935 543.83,-199.659"/>
<polygon fill="midnightblue" stroke="midnightblue" points="545.326,-196.493 534.826,-195.075 542.15,-202.731 545.326,-196.493"/>
</g>
<!-- Node24&#45;&gt;Node3 -->
<g id="edge43" class="edge"><title>Node24&#45;&gt;Node3</title>
<path fill="none" stroke="midnightblue" d="M519.356,-290.812C527.528,-273.009 544.884,-232.365 551,-196 557.298,-158.553 551.706,-138.341 521,-116 485.99,-90.5268 366.201,-78.2568 296.14,-73.1316"/>
<polygon fill="midnightblue" stroke="midnightblue" points="295.984,-69.6119 285.762,-72.398 295.49,-76.5945 295.984,-69.6119"/>
</g>
<!-- Node24&#45;&gt;Node14 -->
<g id="edge44" class="edge"><title>Node24&#45;&gt;Node14</title>
<path fill="none" stroke="midnightblue" d="M561.633,-293.07C605.383,-285.566 666.362,-272.184 682,-254 707.639,-224.186 704.816,-174.69 700.758,-147.454"/>
<polygon fill="midnightblue" stroke="midnightblue" points="704.152,-146.537 699.022,-137.267 697.251,-147.712 704.152,-146.537"/>
</g>
<!-- Node24&#45;&gt;Node8 -->
<g id="edge45" class="edge"><title>Node24&#45;&gt;Node8</title>
<path fill="none" stroke="midnightblue" d="M509.371,-290.951C500.154,-276.758 480.591,-249.118 458,-232 438.84,-217.482 414.369,-206.251 394.199,-198.521"/>
<polygon fill="midnightblue" stroke="midnightblue" points="395.278,-195.189 384.685,-195.009 392.854,-201.756 395.278,-195.189"/>
</g>
<!-- Node24&#45;&gt;Node20 -->
<g id="edge46" class="edge"><title>Node24&#45;&gt;Node20</title>
<path fill="none" stroke="midnightblue" d="M496.505,-290.753C478.484,-281.742 450.871,-267.935 430.318,-257.659"/>
<polygon fill="midnightblue" stroke="midnightblue" points="431.66,-254.417 421.15,-253.075 428.529,-260.678 431.66,-254.417"/>
</g>
<!-- Node24&#45;&gt;Node23 -->
<g id="edge47" class="edge"><title>Node24&#45;&gt;Node23</title>
<path fill="none" stroke="midnightblue" d="M533.495,-290.753C551.516,-281.742 579.129,-267.935 599.682,-257.659"/>
<polygon fill="midnightblue" stroke="midnightblue" points="601.471,-260.678 608.85,-253.075 598.34,-254.417 601.471,-260.678"/>
</g>
<!-- Node24&#45;&gt;Node22 -->
<g id="edge48" class="edge"><title>Node24&#45;&gt;Node22</title>
<path fill="none" stroke="midnightblue" d="M477.306,-290.94C437.038,-281.262 373.123,-265.901 329.455,-255.406"/>
<polygon fill="midnightblue" stroke="midnightblue" points="330.181,-251.98 319.64,-253.047 328.545,-258.787 330.181,-251.98"/>
</g>
<!-- Node24&#45;&gt;Node21 -->
<g id="edge49" class="edge"><title>Node24&#45;&gt;Node21</title>
<path fill="none" stroke="midnightblue" d="M515.164,-290.671C515.491,-272.041 516.23,-229.898 516.664,-205.143"/>
<polygon fill="midnightblue" stroke="midnightblue" points="520.164,-205.199 516.84,-195.139 513.165,-205.076 520.164,-205.199"/>
</g>
<!-- Node25&#45;&gt;Node20 -->
<g id="edge51" class="edge"><title>Node25&#45;&gt;Node20</title>
<path fill="none" stroke="midnightblue" d="M488.389,-348.671C472.78,-329.537 436.939,-285.602 417.011,-261.175"/>
<polygon fill="midnightblue" stroke="midnightblue" points="419.489,-258.676 410.456,-253.139 414.065,-263.101 419.489,-258.676"/>
</g>
<!-- Node25&#45;&gt;Node23 -->
<g id="edge52" class="edge"><title>Node25&#45;&gt;Node23</title>
<path fill="none" stroke="midnightblue" d="M514.117,-348.854C529.801,-340.46 552.633,-327.069 570,-312 587.536,-296.784 604.181,-275.914 614.906,-261.323"/>
<polygon fill="midnightblue" stroke="midnightblue" points="617.781,-263.319 620.773,-253.155 612.096,-259.234 617.781,-263.319"/>
</g>
<!-- Node25&#45;&gt;Node24 -->
<g id="edge53" class="edge"><title>Node25&#45;&gt;Node24</title>
<path fill="none" stroke="midnightblue" d="M499.137,-348.753C501.711,-341.169 505.436,-330.188 508.63,-320.774"/>
<polygon fill="midnightblue" stroke="midnightblue" points="512.022,-321.67 511.921,-311.075 505.393,-319.42 512.022,-321.67"/>
</g>
<!-- Node26&#45;&gt;Node3 -->
<g id="edge55" class="edge"><title>Node26&#45;&gt;Node3</title>
<path fill="none" stroke="midnightblue" d="M768.601,-117.392C765.357,-116.889 762.132,-116.419 759,-116 590.269,-93.4433 388.912,-79.0628 295.86,-73.1232"/>
<polygon fill="midnightblue" stroke="midnightblue" points="296.06,-69.629 285.859,-72.4909 295.619,-76.6151 296.06,-69.629"/>
</g>
<!-- Node27 -->
<g id="node27" class="node"><title>Node27</title>
<polygon fill="white" stroke="#bfbfbf" points="1023.44,-59 1023.44,-79 1080.56,-79 1080.56,-59 1023.44,-59"/>
<text text-anchor="middle" x="1052" y="-65" font-family="Helvetica,sans-Serif" font-size="10.00">algorithm</text>
</g>
<!-- Node26&#45;&gt;Node27 -->
<g id="edge56" class="edge"><title>Node26&#45;&gt;Node27</title>
<path fill="none" stroke="midnightblue" d="M855.866,-116.932C894.109,-108.362 953.07,-94.9329 1013.66,-80.0315"/>
<polygon fill="midnightblue" stroke="midnightblue" points="1014.52,-83.423 1023.39,-77.6278 1012.84,-76.6272 1014.52,-83.423"/>
</g>
<!-- Node28 -->
<g id="node28" class="node"><title>Node28</title>
<polygon fill="white" stroke="#bfbfbf" points="788.384,-59 788.384,-79 831.616,-79 831.616,-59 788.384,-59"/>
<text text-anchor="middle" x="810" y="-65" font-family="Helvetica,sans-Serif" font-size="10.00">vector</text>
</g>
<!-- Node26&#45;&gt;Node28 -->
<g id="edge57" class="edge"><title>Node26&#45;&gt;Node28</title>
<path fill="none" stroke="midnightblue" d="M814.174,-116.753C813.505,-109.25 812.538,-98.4238 811.703,-89.0781"/>
<polygon fill="midnightblue" stroke="midnightblue" points="815.186,-88.7243 810.81,-79.0752 808.214,-89.3469 815.186,-88.7243"/>
</g>
<!-- Node29 -->
<g id="node29" class="node"><title>Node29</title>
<polygon fill="white" stroke="#bfbfbf" points="849.608,-59 849.608,-79 888.392,-79 888.392,-59 849.608,-59"/>
<text text-anchor="middle" x="869" y="-65" font-family="Helvetica,sans-Serif" font-size="10.00">utility</text>
</g>
<!-- Node26&#45;&gt;Node29 -->
<g id="edge58" class="edge"><title>Node26&#45;&gt;Node29</title>
<path fill="none" stroke="midnightblue" d="M823.917,-116.753C831.859,-108.516 843.665,-96.2738 853.203,-86.3824"/>
<polygon fill="midnightblue" stroke="midnightblue" points="855.827,-88.7031 860.249,-79.0752 850.788,-83.8442 855.827,-88.7031"/>
</g>
<!-- Node30 -->
<g id="node30" class="node"><title>Node30</title>
<polygon fill="white" stroke="#bfbfbf" points="906.303,-59 906.303,-79 1005.7,-79 1005.7,-59 906.303,-59"/>
<text text-anchor="middle" x="956" y="-65" font-family="Helvetica,sans-Serif" font-size="10.00">boost/signals2.hpp</text>
</g>
<!-- Node26&#45;&gt;Node30 -->
<g id="edge59" class="edge"><title>Node26&#45;&gt;Node30</title>
<path fill="none" stroke="midnightblue" d="M837.968,-116.878C861.218,-107.644 897.377,-93.283 923.548,-82.8887"/>
<polygon fill="midnightblue" stroke="midnightblue" points="925.04,-86.0622 933.042,-79.1181 922.456,-79.5565 925.04,-86.0622"/>
</g>
<!-- Node26&#45;&gt;Node17 -->
<g id="edge60" class="edge"><title>Node26&#45;&gt;Node17</title>
<path fill="none" stroke="midnightblue" d="M802.78,-116.753C791.466,-108.19 774.429,-95.2978 761.11,-85.2186"/>
<polygon fill="midnightblue" stroke="midnightblue" points="763.078,-82.3187 752.992,-79.0752 758.854,-87.9006 763.078,-82.3187"/>
</g>
</g>
</svg>
        <g id="navigator" transform="translate(0 0)" fill="#404254">
                <rect fill="#f2f5e9" fill-opacity="0.5" stroke="#606060" stroke-width=".5" x="0" y="0" width="60" height="60"/>
                <use id="zoomplus" xlink:href="#zoomPlus" x="17" y="9" onmousedown="handleZoom(evt,'in')"/>
                <use id="zoomminus" xlink:href="#zoomMin" x="42" y="9" onmousedown="handleZoom(evt,'out')"/>
                <use id="reset" xlink:href="#resetDef" x="30" y="36" onmousedown="handleReset()"/>
                <g id="arrowUp" xlink:href="#dirArrow" transform="translate(30 24)" onmousedown="handlePan(0,-1)">
                  <use xlink:href="#rim" fill="#404040">
                        <set attributeName="fill" to="#808080" begin="arrowUp.mouseover" end="arrowUp.mouseout"/>
                  </use>
                  <path fill="none" stroke="white" stroke-width="1.5" d="M0,-3.0v7 M-2.5,-0.5L0,-3.0L2.5,-0.5"/>
                </g>
                <g id="arrowRight" xlink:href="#dirArrow" transform="rotate(90) translate(36 -43)" onmousedown="handlePan(1,0)">
                  <use xlink:href="#rim" fill="#404040">
                        <set attributeName="fill" to="#808080" begin="arrowRight.mouseover" end="arrowRight.mouseout"/>
                  </use>
                  <path fill="none" stroke="white" stroke-width="1.5" d="M0,-3.0v7 M-2.5,-0.5L0,-3.0L2.5,-0.5"/>
                </g>
                <g id="arrowDown" xlink:href="#dirArrow" transform="rotate(180) translate(-30 -48)" onmousedown="handlePan(0,1)">
                  <use xlink:href="#rim" fill="#404040">
                        <set attributeName="fill" to="#808080" begin="arrowDown.mouseover" end="arrowDown.mouseout"/>
                  </use>
                  <path fill="none" stroke="white" stroke-width="1.5" d="M0,-3.0v7 M-2.5,-0.5L0,-3.0L2.5,-0.5"/>
                </g>
                <g id="arrowLeft" xlink:href="#dirArrow" transform="rotate(270) translate(-36 17)" onmousedown="handlePan(-1,0)">
                  <use xlink:href="#rim" fill="#404040">
                        <set attributeName="fill" to="#808080" begin="arrowLeft.mouseover" end="arrowLeft.mouseout"/>
                  </use>
                  <path fill="none" stroke="white" stroke-width="1.5" d="M0,-3.0v7 M-2.5,-0.5L0,-3.0L2.5,-0.5"/>
                </g>
        </g>
        <svg viewBox="0 0 15 15" width="100%" height="30px" preserveAspectRatio="xMaxYMin meet">
         <g id="arrow_out" transform="scale(0.3 0.3)">
          <a xlink:href="_params_8h__incl_org.svg" target="_base">
           <rect id="button" ry="5" rx="5" y="6" x="6" height="38" width="38"
                fill="#f2f5e9" fill-opacity="0.5" stroke="#606060" stroke-width="1.0"/>
           <path id="arrow"
             d="M 11.500037,31.436501 C 11.940474,20.09759 22.043105,11.32322 32.158766,21.979434 L 37.068811,17.246167 C 37.068811,17.246167 37.088388,32 37.088388,32 L 22.160133,31.978069 C 22.160133,31.978069 26.997745,27.140456 26.997745,27.140456 C 18.528582,18.264221 13.291696,25.230495 11.500037,31.436501 z"
             style="fill:#404040;"/>
          </a>
         </g>
        </svg>
</svg>
