<?xml version="1.0" encoding="UTF-8" standalone="no"?>
<!DOCTYPE svg PUBLIC "-//W3C//DTD SVG 1.1//EN"
 "http://www.w3.org/Graphics/SVG/1.1/DTD/svg11.dtd">
<!-- Generated by graphviz version 2.30.1 (20140712.1814)
 -->
<!-- Title: include/cinder/audio/Param.h Pages: 1 -->
<svg width="2653pt" height="322pt"
 viewBox="0.00 0.00 2653.00 322.00" xmlns="http://www.w3.org/2000/svg" xmlns:xlink="http://www.w3.org/1999/xlink">
<g id="graph0" class="graph" transform="scale(1 1) rotate(0) translate(4 318)">
<title>include/cinder/audio/Param.h</title>
<polygon fill="white" stroke="white" points="-4,5 -4,-318 2650,-318 2650,5 -4,5"/>
<!-- Node1 -->
<g id="node1" class="node"><title>Node1</title>
<polygon fill="#bfbfbf" stroke="black" points="455.525,-281 455.525,-313 560.475,-313 560.475,-281 455.525,-281"/>
<text text-anchor="start" x="463.525" y="-299" font-family="Helvetica,sans-Serif" font-size="10.00">include/cinder/audio</text>
<text text-anchor="middle" x="508" y="-287" font-family="Helvetica,sans-Serif" font-size="10.00">/Param.h</text>
</g>
<!-- Node2 -->
<g id="node2" class="node"><title>Node2</title>
<g id="a_node2"><a xlink:href="_delay_node_8h.html" target="_top" xlink:title="include/cinder/audio\l/DelayNode.h">
<polygon fill="white" stroke="black" points="455.525,-141 455.525,-173 560.475,-173 560.475,-141 455.525,-141"/>
<text text-anchor="start" x="463.525" y="-159" font-family="Helvetica,sans-Serif" font-size="10.00">include/cinder/audio</text>
<text text-anchor="middle" x="508" y="-147" font-family="Helvetica,sans-Serif" font-size="10.00">/DelayNode.h</text>
</a>
</g>
</g>
<!-- Node1&#45;&gt;Node2 -->
<g id="edge1" class="edge"><title>Node1&#45;&gt;Node2</title>
<path fill="none" stroke="midnightblue" d="M508,-270.939C508,-242.354 508,-196.539 508,-173.013"/>
<polygon fill="midnightblue" stroke="midnightblue" points="504.5,-270.969 508,-280.969 511.5,-270.969 504.5,-270.969"/>
</g>
<!-- Node6 -->
<g id="node6" class="node"><title>Node6</title>
<g id="a_node6"><a xlink:href="_input_node_8h.html" target="_top" xlink:title="include/cinder/audio\l/InputNode.h">
<polygon fill="white" stroke="black" points="1502.52,-211 1502.52,-243 1607.48,-243 1607.48,-211 1502.52,-211"/>
<text text-anchor="start" x="1510.52" y="-229" font-family="Helvetica,sans-Serif" font-size="10.00">include/cinder/audio</text>
<text text-anchor="middle" x="1555" y="-217" font-family="Helvetica,sans-Serif" font-size="10.00">/InputNode.h</text>
</a>
</g>
</g>
<!-- Node1&#45;&gt;Node6 -->
<g id="edge5" class="edge"><title>Node1&#45;&gt;Node6</title>
<path fill="none" stroke="midnightblue" d="M570.728,-291.926C760.526,-279.599 1326.4,-242.847 1502.26,-231.426"/>
<polygon fill="midnightblue" stroke="midnightblue" points="570.391,-288.44 560.638,-292.581 570.844,-295.426 570.391,-288.44"/>
</g>
<!-- Node25 -->
<g id="node25" class="node"><title>Node25</title>
<g id="a_node25"><a xlink:href="_node_math_8h.html" target="_top" xlink:title="include/cinder/audio\l/NodeMath.h">
<polygon fill="white" stroke="black" points="132.525,-211 132.525,-243 237.475,-243 237.475,-211 132.525,-211"/>
<text text-anchor="start" x="140.525" y="-229" font-family="Helvetica,sans-Serif" font-size="10.00">include/cinder/audio</text>
<text text-anchor="middle" x="185" y="-217" font-family="Helvetica,sans-Serif" font-size="10.00">/NodeMath.h</text>
</a>
</g>
</g>
<!-- Node1&#45;&gt;Node25 -->
<g id="edge31" class="edge"><title>Node1&#45;&gt;Node25</title>
<path fill="none" stroke="midnightblue" d="M445.581,-282.859C385.125,-270.132 294.479,-251.048 237.592,-239.072"/>
<polygon fill="midnightblue" stroke="midnightblue" points="444.879,-286.288 455.386,-284.923 446.321,-279.438 444.879,-286.288"/>
</g>
<!-- Node28 -->
<g id="node28" class="node"><title>Node28</title>
<g id="a_node28"><a xlink:href="_pan_node_8h.html" target="_top" xlink:title="include/cinder/audio\l/PanNode.h">
<polygon fill="white" stroke="black" points="332.525,-141 332.525,-173 437.475,-173 437.475,-141 332.525,-141"/>
<text text-anchor="start" x="340.525" y="-159" font-family="Helvetica,sans-Serif" font-size="10.00">include/cinder/audio</text>
<text text-anchor="middle" x="385" y="-147" font-family="Helvetica,sans-Serif" font-size="10.00">/PanNode.h</text>
</a>
</g>
</g>
<!-- Node1&#45;&gt;Node28 -->
<g id="edge37" class="edge"><title>Node1&#45;&gt;Node28</title>
<path fill="none" stroke="midnightblue" d="M487.651,-273.169C462.357,-244.791 419.904,-197.161 398.381,-173.013"/>
<polygon fill="midnightblue" stroke="midnightblue" points="485.336,-275.833 494.603,-280.969 490.562,-271.175 485.336,-275.833"/>
</g>
<!-- Node18 -->
<g id="node18" class="node"><title>Node18</title>
<g id="a_node18"><a xlink:href="_param_8cpp.html" target="_top" xlink:title="src/cinder/audio/Param.cpp">
<polygon fill="white" stroke="black" points="2508.14,-77 2508.14,-97 2645.86,-97 2645.86,-77 2508.14,-77"/>
<text text-anchor="middle" x="2577" y="-83" font-family="Helvetica,sans-Serif" font-size="10.00">src/cinder/audio/Param.cpp</text>
</a>
</g>
</g>
<!-- Node1&#45;&gt;Node18 -->
<g id="edge41" class="edge"><title>Node1&#45;&gt;Node18</title>
<path fill="none" stroke="midnightblue" d="M571.058,-296.275C796.768,-296.255 1584.88,-287.528 2222,-174 2342.8,-152.474 2483.81,-114.355 2545.45,-97.0259"/>
<polygon fill="midnightblue" stroke="midnightblue" points="570.739,-292.775 560.737,-296.27 570.736,-299.775 570.739,-292.775"/>
</g>
<!-- Node3 -->
<g id="node3" class="node"><title>Node3</title>
<g id="a_node3"><a xlink:href="_node_effects_8h.html" target="_top" xlink:title="include/cinder/audio\l/NodeEffects.h">
<polygon fill="white" stroke="black" points="79.5249,-71 79.5249,-103 184.475,-103 184.475,-71 79.5249,-71"/>
<text text-anchor="start" x="87.5249" y="-89" font-family="Helvetica,sans-Serif" font-size="10.00">include/cinder/audio</text>
<text text-anchor="middle" x="132" y="-77" font-family="Helvetica,sans-Serif" font-size="10.00">/NodeEffects.h</text>
</a>
</g>
</g>
<!-- Node2&#45;&gt;Node3 -->
<g id="edge2" class="edge"><title>Node2&#45;&gt;Node3</title>
<path fill="none" stroke="midnightblue" d="M445.285,-140.003C332.838,-118.242 301.184,-125.81 193,-104 190.21,-103.437 187.357,-102.824 184.483,-102.176"/>
<polygon fill="midnightblue" stroke="midnightblue" points="444.839,-143.482 455.327,-141.982 446.192,-136.614 444.839,-143.482"/>
</g>
<!-- Node4 -->
<g id="node4" class="node"><title>Node4</title>
<g id="a_node4"><a xlink:href="_delay_node_8cpp.html" target="_top" xlink:title="src/cinder/audio/DelayNode.cpp">
<polygon fill="white" stroke="black" points="408.128,-77 408.128,-97 565.872,-97 565.872,-77 408.128,-77"/>
<text text-anchor="middle" x="487" y="-83" font-family="Helvetica,sans-Serif" font-size="10.00">src/cinder/audio/DelayNode.cpp</text>
</a>
</g>
</g>
<!-- Node2&#45;&gt;Node4 -->
<g id="edge3" class="edge"><title>Node2&#45;&gt;Node4</title>
<path fill="none" stroke="midnightblue" d="M500.288,-131.029C496.616,-119.137 492.453,-105.657 489.781,-97.0035"/>
<polygon fill="midnightblue" stroke="midnightblue" points="497.044,-132.387 503.339,-140.909 503.733,-130.321 497.044,-132.387"/>
</g>
<!-- Node5 -->
<g id="node5" class="node"><title>Node5</title>
<g id="a_node5"><a xlink:href="_node_8cpp.html" target="_top" xlink:title="src/cinder/audio/Node.cpp">
<polygon fill="white" stroke="black" points="583.912,-77 583.912,-97 716.088,-97 716.088,-77 583.912,-77"/>
<text text-anchor="middle" x="650" y="-83" font-family="Helvetica,sans-Serif" font-size="10.00">src/cinder/audio/Node.cpp</text>
</a>
</g>
</g>
<!-- Node2&#45;&gt;Node5 -->
<g id="edge4" class="edge"><title>Node2&#45;&gt;Node5</title>
<path fill="none" stroke="midnightblue" d="M548.778,-136.473C575.917,-123.476 610.299,-107.012 631.198,-97.0035"/>
<polygon fill="midnightblue" stroke="midnightblue" points="547.022,-133.433 539.514,-140.909 550.045,-139.746 547.022,-133.433"/>
</g>
<!-- Node7 -->
<g id="node7" class="node"><title>Node7</title>
<g id="a_node7"><a xlink:href="_context_8h.html" target="_top" xlink:title="include/cinder/audio\l/Context.h">
<polygon fill="white" stroke="black" points="1502.52,-141 1502.52,-173 1607.48,-173 1607.48,-141 1502.52,-141"/>
<text text-anchor="start" x="1510.52" y="-159" font-family="Helvetica,sans-Serif" font-size="10.00">include/cinder/audio</text>
<text text-anchor="middle" x="1555" y="-147" font-family="Helvetica,sans-Serif" font-size="10.00">/Context.h</text>
</a>
</g>
</g>
<!-- Node6&#45;&gt;Node7 -->
<g id="edge6" class="edge"><title>Node6&#45;&gt;Node7</title>
<path fill="none" stroke="midnightblue" d="M1555,-200.617C1555,-191.338 1555,-181.141 1555,-173.049"/>
<polygon fill="midnightblue" stroke="midnightblue" points="1551.5,-200.909 1555,-210.909 1558.5,-200.909 1551.5,-200.909"/>
</g>
<!-- Node22 -->
<g id="node22" class="node"><title>Node22</title>
<g id="a_node22"><a xlink:href="_gen_node_8h.html" target="_top" xlink:title="include/cinder/audio\l/GenNode.h">
<polygon fill="white" stroke="black" points="2036.52,-141 2036.52,-173 2141.48,-173 2141.48,-141 2036.52,-141"/>
<text text-anchor="start" x="2044.52" y="-159" font-family="Helvetica,sans-Serif" font-size="10.00">include/cinder/audio</text>
<text text-anchor="middle" x="2089" y="-147" font-family="Helvetica,sans-Serif" font-size="10.00">/GenNode.h</text>
</a>
</g>
</g>
<!-- Node6&#45;&gt;Node22 -->
<g id="edge22" class="edge"><title>Node6&#45;&gt;Node22</title>
<path fill="none" stroke="midnightblue" d="M1617.6,-218.029C1723.78,-204.507 1937.31,-177.317 2036.34,-164.706"/>
<polygon fill="midnightblue" stroke="midnightblue" points="1617.14,-214.559 1607.66,-219.294 1618.03,-221.502 1617.14,-214.559"/>
</g>
<!-- Node23 -->
<g id="node23" class="node"><title>Node23</title>
<g id="a_node23"><a xlink:href="_sample_player_node_8h.html" target="_top" xlink:title="include/cinder/audio\l/SamplePlayerNode.h">
<polygon fill="white" stroke="black" points="876.362,-141 876.362,-173 989.638,-173 989.638,-141 876.362,-141"/>
<text text-anchor="start" x="884.362" y="-159" font-family="Helvetica,sans-Serif" font-size="10.00">include/cinder/audio</text>
<text text-anchor="middle" x="933" y="-147" font-family="Helvetica,sans-Serif" font-size="10.00">/SamplePlayerNode.h</text>
</a>
</g>
</g>
<!-- Node6&#45;&gt;Node23 -->
<g id="edge24" class="edge"><title>Node6&#45;&gt;Node23</title>
<path fill="none" stroke="midnightblue" d="M1492.28,-219.144C1371.12,-205.898 1106.57,-176.976 990.047,-164.237"/>
<polygon fill="midnightblue" stroke="midnightblue" points="1492.18,-222.653 1502.5,-220.261 1492.94,-215.695 1492.18,-222.653"/>
</g>
<!-- Node24 -->
<g id="node24" class="node"><title>Node24</title>
<g id="a_node24"><a xlink:href="_voice_8h.html" target="_top" xlink:title="include/cinder/audio\l/Voice.h">
<polygon fill="white" stroke="black" points="734.525,-71 734.525,-103 839.475,-103 839.475,-71 734.525,-71"/>
<text text-anchor="start" x="742.525" y="-89" font-family="Helvetica,sans-Serif" font-size="10.00">include/cinder/audio</text>
<text text-anchor="middle" x="787" y="-77" font-family="Helvetica,sans-Serif" font-size="10.00">/Voice.h</text>
</a>
</g>
</g>
<!-- Node6&#45;&gt;Node24 -->
<g id="edge28" class="edge"><title>Node6&#45;&gt;Node24</title>
<path fill="none" stroke="midnightblue" d="M1492.26,-223.863C1333.14,-218.075 922.517,-200.714 867,-174 834.476,-158.35 808.683,-123.229 795.861,-103.044"/>
<polygon fill="midnightblue" stroke="midnightblue" points="1492.25,-227.364 1502.37,-224.227 1492.5,-220.369 1492.25,-227.364"/>
</g>
<!-- Node13 -->
<g id="node13" class="node"><title>Node13</title>
<g id="a_node13"><a xlink:href="_context_8cpp.html" target="_top" xlink:title="src/cinder/audio/Context.cpp">
<polygon fill="white" stroke="black" points="2005.63,-77 2005.63,-97 2148.37,-97 2148.37,-77 2005.63,-77"/>
<text text-anchor="middle" x="2077" y="-83" font-family="Helvetica,sans-Serif" font-size="10.00">src/cinder/audio/Context.cpp</text>
</a>
</g>
</g>
<!-- Node6&#45;&gt;Node13 -->
<g id="edge29" class="edge"><title>Node6&#45;&gt;Node13</title>
<path fill="none" stroke="midnightblue" d="M1617.66,-209.436C1728.72,-180.073 1956.56,-119.841 2042.85,-97.0273"/>
<polygon fill="midnightblue" stroke="midnightblue" points="1616.7,-206.069 1607.92,-212.008 1618.49,-212.836 1616.7,-206.069"/>
</g>
<!-- Node16 -->
<g id="node16" class="node"><title>Node16</title>
<g id="a_node16"><a xlink:href="_input_node_8cpp.html" target="_top" xlink:title="src/cinder/audio/InputNode.cpp">
<polygon fill="white" stroke="black" points="2335.79,-77 2335.79,-97 2490.21,-97 2490.21,-77 2335.79,-77"/>
<text text-anchor="middle" x="2413" y="-83" font-family="Helvetica,sans-Serif" font-size="10.00">src/cinder/audio/InputNode.cpp</text>
</a>
</g>
</g>
<!-- Node6&#45;&gt;Node16 -->
<g id="edge30" class="edge"><title>Node6&#45;&gt;Node16</title>
<path fill="none" stroke="midnightblue" d="M1617.9,-225.212C1727.21,-222.8 1958.82,-213.073 2150,-174 2241.78,-155.242 2346.33,-115.162 2390.95,-97.1266"/>
<polygon fill="midnightblue" stroke="midnightblue" points="1617.63,-221.717 1607.71,-225.423 1617.78,-228.715 1617.63,-221.717"/>
</g>
<!-- Node8 -->
<g id="node8" class="node"><title>Node8</title>
<g id="a_node8"><a xlink:href="_context_audio_unit_8h.html" target="_top" xlink:title="include/cinder/audio\l/cocoa/ContextAudioUnit.h">
<polygon fill="white" stroke="black" points="1064.8,-71 1064.8,-103 1199.2,-103 1199.2,-71 1064.8,-71"/>
<text text-anchor="start" x="1072.8" y="-89" font-family="Helvetica,sans-Serif" font-size="10.00">include/cinder/audio</text>
<text text-anchor="middle" x="1132" y="-77" font-family="Helvetica,sans-Serif" font-size="10.00">/cocoa/ContextAudioUnit.h</text>
</a>
</g>
</g>
<!-- Node7&#45;&gt;Node8 -->
<g id="edge7" class="edge"><title>Node7&#45;&gt;Node8</title>
<path fill="none" stroke="midnightblue" d="M1492.06,-147.614C1422.59,-138.108 1307.54,-121.628 1209,-104 1205.91,-103.447 1202.75,-102.864 1199.56,-102.261"/>
<polygon fill="midnightblue" stroke="midnightblue" points="1492.01,-151.139 1502.39,-149.022 1492.95,-144.203 1492.01,-151.139"/>
</g>
<!-- Node10 -->
<g id="node10" class="node"><title>Node10</title>
<g id="a_node10"><a xlink:href="_monitor_node_8h.html" target="_top" xlink:title="include/cinder/audio\l/MonitorNode.h">
<polygon fill="white" stroke="black" points="1217.52,-71 1217.52,-103 1322.48,-103 1322.48,-71 1217.52,-71"/>
<text text-anchor="start" x="1225.52" y="-89" font-family="Helvetica,sans-Serif" font-size="10.00">include/cinder/audio</text>
<text text-anchor="middle" x="1270" y="-77" font-family="Helvetica,sans-Serif" font-size="10.00">/MonitorNode.h</text>
</a>
</g>
</g>
<!-- Node7&#45;&gt;Node10 -->
<g id="edge9" class="edge"><title>Node7&#45;&gt;Node10</title>
<path fill="none" stroke="midnightblue" d="M1492.35,-141.804C1447.6,-131.564 1386.02,-117.266 1332,-104 1328.98,-103.258 1325.87,-102.486 1322.74,-101.701"/>
<polygon fill="midnightblue" stroke="midnightblue" points="1491.67,-145.24 1502.2,-144.055 1493.23,-138.415 1491.67,-145.24"/>
</g>
<!-- Node12 -->
<g id="node12" class="node"><title>Node12</title>
<g id="a_node12"><a xlink:href="_channel_router_node_8cpp.html" target="_top" xlink:title="src/cinder/audio/Channel\lRouterNode.cpp">
<polygon fill="white" stroke="black" points="1340.69,-71 1340.69,-103 1467.31,-103 1467.31,-71 1340.69,-71"/>
<text text-anchor="start" x="1348.69" y="-89" font-family="Helvetica,sans-Serif" font-size="10.00">src/cinder/audio/Channel</text>
<text text-anchor="middle" x="1404" y="-77" font-family="Helvetica,sans-Serif" font-size="10.00">RouterNode.cpp</text>
</a>
</g>
</g>
<!-- Node7&#45;&gt;Node12 -->
<g id="edge11" class="edge"><title>Node7&#45;&gt;Node12</title>
<path fill="none" stroke="midnightblue" d="M1512.35,-136.793C1488.61,-126.102 1459.49,-112.988 1437.42,-103.049"/>
<polygon fill="midnightblue" stroke="midnightblue" points="1510.93,-139.994 1521.49,-140.909 1513.81,-133.611 1510.93,-139.994"/>
</g>
<!-- Node7&#45;&gt;Node13 -->
<g id="edge12" class="edge"><title>Node7&#45;&gt;Node13</title>
<path fill="none" stroke="midnightblue" d="M1617.88,-150.136C1703.62,-141.787 1861.9,-125.118 1996,-104 2008.6,-102.015 2022.23,-99.4769 2034.65,-97.0095"/>
<polygon fill="midnightblue" stroke="midnightblue" points="1617.41,-146.666 1607.79,-151.113 1618.08,-153.633 1617.41,-146.666"/>
</g>
<!-- Node14 -->
<g id="node14" class="node"><title>Node14</title>
<g id="a_node14"><a xlink:href="_device_8cpp.html" target="_top" xlink:title="src/cinder/audio/Device.cpp">
<polygon fill="white" stroke="black" points="1485.58,-77 1485.58,-97 1624.42,-97 1624.42,-77 1485.58,-77"/>
<text text-anchor="middle" x="1555" y="-83" font-family="Helvetica,sans-Serif" font-size="10.00">src/cinder/audio/Device.cpp</text>
</a>
</g>
</g>
<!-- Node7&#45;&gt;Node14 -->
<g id="edge13" class="edge"><title>Node7&#45;&gt;Node14</title>
<path fill="none" stroke="midnightblue" d="M1555,-130.668C1555,-118.865 1555,-105.57 1555,-97.0035"/>
<polygon fill="midnightblue" stroke="midnightblue" points="1551.5,-130.909 1555,-140.909 1558.5,-130.909 1551.5,-130.909"/>
</g>
<!-- Node15 -->
<g id="node15" class="node"><title>Node15</title>
<g id="a_node15"><a xlink:href="_gen_node_8cpp.html" target="_top" xlink:title="src/cinder/audio/GenNode.cpp">
<polygon fill="white" stroke="black" points="2166.46,-77 2166.46,-97 2317.54,-97 2317.54,-77 2166.46,-77"/>
<text text-anchor="middle" x="2242" y="-83" font-family="Helvetica,sans-Serif" font-size="10.00">src/cinder/audio/GenNode.cpp</text>
</a>
</g>
</g>
<!-- Node7&#45;&gt;Node15 -->
<g id="edge14" class="edge"><title>Node7&#45;&gt;Node15</title>
<path fill="none" stroke="midnightblue" d="M1617.76,-152.649C1727.49,-146.33 1961.17,-130.821 2157,-104 2170.54,-102.146 2185.19,-99.5881 2198.46,-97.0613"/>
<polygon fill="midnightblue" stroke="midnightblue" points="1617.32,-149.169 1607.54,-153.232 1617.72,-156.157 1617.32,-149.169"/>
</g>
<!-- Node7&#45;&gt;Node16 -->
<g id="edge15" class="edge"><title>Node7&#45;&gt;Node16</title>
<path fill="none" stroke="midnightblue" d="M1617.85,-154.2C1749.6,-149.891 2064.19,-136.794 2326,-104 2340.17,-102.225 2355.53,-99.6279 2369.34,-97.0405"/>
<polygon fill="midnightblue" stroke="midnightblue" points="1617.43,-150.711 1607.55,-154.531 1617.66,-157.708 1617.43,-150.711"/>
</g>
<!-- Node7&#45;&gt;Node5 -->
<g id="edge16" class="edge"><title>Node7&#45;&gt;Node5</title>
<path fill="none" stroke="midnightblue" d="M1492.34,-155.162C1353.63,-152.632 1010.39,-142.647 726,-104 713.441,-102.293 699.858,-99.6826 687.696,-97.0621"/>
<polygon fill="midnightblue" stroke="midnightblue" points="1492.3,-158.662 1502.36,-155.339 1492.43,-151.663 1492.3,-158.662"/>
</g>
<!-- Node17 -->
<g id="node17" class="node"><title>Node17</title>
<g id="a_node17"><a xlink:href="_output_node_8cpp.html" target="_top" xlink:title="src/cinder/audio/OutputNode.cpp">
<polygon fill="white" stroke="black" points="1642.9,-77 1642.9,-97 1805.1,-97 1805.1,-77 1642.9,-77"/>
<text text-anchor="middle" x="1724" y="-83" font-family="Helvetica,sans-Serif" font-size="10.00">src/cinder/audio/OutputNode.cpp</text>
</a>
</g>
</g>
<!-- Node7&#45;&gt;Node17 -->
<g id="edge17" class="edge"><title>Node7&#45;&gt;Node17</title>
<path fill="none" stroke="midnightblue" d="M1601.85,-137.15C1634.4,-124.054 1676.32,-107.187 1701.62,-97.0035"/>
<polygon fill="midnightblue" stroke="midnightblue" points="1600.48,-133.929 1592.51,-140.909 1603.09,-140.423 1600.48,-133.929"/>
</g>
<!-- Node7&#45;&gt;Node18 -->
<g id="edge18" class="edge"><title>Node7&#45;&gt;Node18</title>
<path fill="none" stroke="midnightblue" d="M1617.85,-153.749C1800.27,-147.021 2327.74,-126.159 2499,-104 2512.02,-102.315 2526.12,-99.677 2538.71,-97.0256"/>
<polygon fill="midnightblue" stroke="midnightblue" points="1617.48,-150.26 1607.62,-154.124 1617.74,-157.255 1617.48,-150.26"/>
</g>
<!-- Node19 -->
<g id="node19" class="node"><title>Node19</title>
<g id="a_node19"><a xlink:href="_sample_player_node_8cpp.html" target="_top" xlink:title="src/cinder/audio/SamplePlayer\lNode.cpp">
<polygon fill="white" stroke="black" points="857.19,-71 857.19,-103 1008.81,-103 1008.81,-71 857.19,-71"/>
<text text-anchor="start" x="865.19" y="-89" font-family="Helvetica,sans-Serif" font-size="10.00">src/cinder/audio/SamplePlayer</text>
<text text-anchor="middle" x="933" y="-77" font-family="Helvetica,sans-Serif" font-size="10.00">Node.cpp</text>
</a>
</g>
</g>
<!-- Node7&#45;&gt;Node19 -->
<g id="edge19" class="edge"><title>Node7&#45;&gt;Node19</title>
<path fill="none" stroke="midnightblue" d="M1492.16,-151.464C1392.43,-143.905 1191.93,-127.235 1023,-104 1018.44,-103.373 1013.76,-102.683 1009.04,-101.951"/>
<polygon fill="midnightblue" stroke="midnightblue" points="1492.13,-154.972 1502.36,-152.232 1492.65,-147.991 1492.13,-154.972"/>
</g>
<!-- Node20 -->
<g id="node20" class="node"><title>Node20</title>
<g id="a_node20"><a xlink:href="_sample_recorder_node_8cpp.html" target="_top" xlink:title="src/cinder/audio/SampleRecorder\lNode.cpp">
<polygon fill="white" stroke="black" points="1822.8,-71 1822.8,-103 1987.2,-103 1987.2,-71 1822.8,-71"/>
<text text-anchor="start" x="1830.8" y="-89" font-family="Helvetica,sans-Serif" font-size="10.00">src/cinder/audio/SampleRecorder</text>
<text text-anchor="middle" x="1905" y="-77" font-family="Helvetica,sans-Serif" font-size="10.00">Node.cpp</text>
</a>
</g>
</g>
<!-- Node7&#45;&gt;Node20 -->
<g id="edge20" class="edge"><title>Node7&#45;&gt;Node20</title>
<path fill="none" stroke="midnightblue" d="M1617.68,-143.822C1676.49,-132.396 1764.62,-115.274 1827.75,-103.008"/>
<polygon fill="midnightblue" stroke="midnightblue" points="1616.93,-140.403 1607.78,-145.746 1618.26,-147.275 1616.93,-140.403"/>
</g>
<!-- Node21 -->
<g id="node21" class="node"><title>Node21</title>
<g id="a_node21"><a xlink:href="_voice_8cpp.html" target="_top" xlink:title="src/cinder/audio/Voice.cpp">
<polygon fill="white" stroke="black" points="516.631,-7 516.631,-27 649.369,-27 649.369,-7 516.631,-7"/>
<text text-anchor="middle" x="583" y="-13" font-family="Helvetica,sans-Serif" font-size="10.00">src/cinder/audio/Voice.cpp</text>
</a>
</g>
</g>
<!-- Node7&#45;&gt;Node21 -->
<g id="edge21" class="edge"><title>Node7&#45;&gt;Node21</title>
<path fill="none" stroke="midnightblue" d="M1492.21,-154.159C1376.14,-149.989 1132.85,-137.44 1056,-104 1034.91,-94.8249 1038.01,-79.3373 1017,-70 952.766,-41.4588 754.234,-26.9948 649.405,-21.18"/>
<polygon fill="midnightblue" stroke="midnightblue" points="1492.25,-157.663 1502.36,-154.514 1492.49,-150.667 1492.25,-157.663"/>
</g>
<!-- Node9 -->
<g id="node9" class="node"><title>Node9</title>
<g id="a_node9"><a xlink:href="_context_audio_unit_8cpp.html" target="_top" xlink:title="src/cinder/audio/cocoa\l/ContextAudioUnit.cpp">
<polygon fill="white" stroke="black" points="1073.97,-1 1073.97,-33 1190.03,-33 1190.03,-1 1073.97,-1"/>
<text text-anchor="start" x="1081.97" y="-19" font-family="Helvetica,sans-Serif" font-size="10.00">src/cinder/audio/cocoa</text>
<text text-anchor="middle" x="1132" y="-7" font-family="Helvetica,sans-Serif" font-size="10.00">/ContextAudioUnit.cpp</text>
</a>
</g>
</g>
<!-- Node8&#45;&gt;Node9 -->
<g id="edge8" class="edge"><title>Node8&#45;&gt;Node9</title>
<path fill="none" stroke="midnightblue" d="M1132,-60.6174C1132,-51.3378 1132,-41.1413 1132,-33.0492"/>
<polygon fill="midnightblue" stroke="midnightblue" points="1128.5,-60.9086 1132,-70.9086 1135.5,-60.9086 1128.5,-60.9086"/>
</g>
<!-- Node11 -->
<g id="node11" class="node"><title>Node11</title>
<g id="a_node11"><a xlink:href="_monitor_node_8cpp.html" target="_top" xlink:title="src/cinder/audio/Monitor\lNode.cpp">
<polygon fill="white" stroke="black" points="1208.64,-1 1208.64,-33 1331.36,-33 1331.36,-1 1208.64,-1"/>
<text text-anchor="start" x="1216.64" y="-19" font-family="Helvetica,sans-Serif" font-size="10.00">src/cinder/audio/Monitor</text>
<text text-anchor="middle" x="1270" y="-7" font-family="Helvetica,sans-Serif" font-size="10.00">Node.cpp</text>
</a>
</g>
</g>
<!-- Node10&#45;&gt;Node11 -->
<g id="edge10" class="edge"><title>Node10&#45;&gt;Node11</title>
<path fill="none" stroke="midnightblue" d="M1270,-60.6174C1270,-51.3378 1270,-41.1413 1270,-33.0492"/>
<polygon fill="midnightblue" stroke="midnightblue" points="1266.5,-60.9086 1270,-70.9086 1273.5,-60.9086 1266.5,-60.9086"/>
</g>
<!-- Node22&#45;&gt;Node15 -->
<g id="edge23" class="edge"><title>Node22&#45;&gt;Node15</title>
<path fill="none" stroke="midnightblue" d="M2132.17,-136.812C2161.53,-123.765 2199.03,-107.099 2221.74,-97.0035"/>
<polygon fill="midnightblue" stroke="midnightblue" points="2130.67,-133.649 2122.96,-140.909 2133.52,-140.045 2130.67,-133.649"/>
</g>
<!-- Node23&#45;&gt;Node24 -->
<g id="edge25" class="edge"><title>Node23&#45;&gt;Node24</title>
<path fill="none" stroke="midnightblue" d="M891.456,-136.651C868.559,-125.986 840.557,-112.944 819.312,-103.049"/>
<polygon fill="midnightblue" stroke="midnightblue" points="890.055,-139.859 900.598,-140.909 893.011,-133.514 890.055,-139.859"/>
</g>
<!-- Node23&#45;&gt;Node19 -->
<g id="edge27" class="edge"><title>Node23&#45;&gt;Node19</title>
<path fill="none" stroke="midnightblue" d="M933,-130.617C933,-121.338 933,-111.141 933,-103.049"/>
<polygon fill="midnightblue" stroke="midnightblue" points="929.5,-130.909 933,-140.909 936.5,-130.909 929.5,-130.909"/>
</g>
<!-- Node24&#45;&gt;Node21 -->
<g id="edge26" class="edge"><title>Node24&#45;&gt;Node21</title>
<path fill="none" stroke="midnightblue" d="M732.468,-67.8228C692.937,-54.6456 641.162,-37.3873 610.08,-27.0266"/>
<polygon fill="midnightblue" stroke="midnightblue" points="731.385,-71.151 741.979,-70.9929 733.599,-64.5102 731.385,-71.151"/>
</g>
<!-- Node26 -->
<g id="node26" class="node"><title>Node26</title>
<g id="a_node26"><a xlink:href="_gain_node_8h.html" target="_top" xlink:title="include/cinder/audio\l/GainNode.h">
<polygon fill="white" stroke="black" points="-0.475098,-141 -0.475098,-173 104.475,-173 104.475,-141 -0.475098,-141"/>
<text text-anchor="start" x="7.5249" y="-159" font-family="Helvetica,sans-Serif" font-size="10.00">include/cinder/audio</text>
<text text-anchor="middle" x="52" y="-147" font-family="Helvetica,sans-Serif" font-size="10.00">/GainNode.h</text>
</a>
</g>
</g>
<!-- Node25&#45;&gt;Node26 -->
<g id="edge32" class="edge"><title>Node25&#45;&gt;Node26</title>
<path fill="none" stroke="midnightblue" d="M146.318,-206.223C125.618,-195.639 100.53,-182.813 81.4345,-173.049"/>
<polygon fill="midnightblue" stroke="midnightblue" points="144.986,-209.473 155.483,-210.909 148.173,-203.24 144.986,-209.473"/>
</g>
<!-- Node25&#45;&gt;Node3 -->
<g id="edge35" class="edge"><title>Node25&#45;&gt;Node3</title>
<path fill="none" stroke="midnightblue" d="M167.074,-202.539C161.219,-193.941 155.16,-183.888 151,-174 141.038,-150.322 135.968,-120.684 133.66,-103.106"/>
<polygon fill="midnightblue" stroke="midnightblue" points="164.37,-204.776 173.014,-210.904 170.078,-200.724 164.37,-204.776"/>
</g>
<!-- Node27 -->
<g id="node27" class="node"><title>Node27</title>
<g id="a_node27"><a xlink:href="_node_math_8cpp.html" target="_top" xlink:title="src/cinder/audio/NodeMath.cpp">
<polygon fill="white" stroke="black" points="159.796,-147 159.796,-167 314.204,-167 314.204,-147 159.796,-147"/>
<text text-anchor="middle" x="237" y="-153" font-family="Helvetica,sans-Serif" font-size="10.00">src/cinder/audio/NodeMath.cpp</text>
</a>
</g>
</g>
<!-- Node25&#45;&gt;Node27 -->
<g id="edge36" class="edge"><title>Node25&#45;&gt;Node27</title>
<path fill="none" stroke="midnightblue" d="M202.728,-202.817C212.139,-190.511 223.163,-176.094 230.115,-167.004"/>
<polygon fill="midnightblue" stroke="midnightblue" points="199.835,-200.839 196.54,-210.909 205.395,-205.091 199.835,-200.839"/>
</g>
<!-- Node26&#45;&gt;Node3 -->
<g id="edge33" class="edge"><title>Node26&#45;&gt;Node3</title>
<path fill="none" stroke="midnightblue" d="M77.6529,-134.195C89.6076,-124.034 103.533,-112.197 114.295,-103.049"/>
<polygon fill="midnightblue" stroke="midnightblue" points="75.1072,-131.765 69.7546,-140.909 79.6408,-137.099 75.1072,-131.765"/>
</g>
<!-- Node26&#45;&gt;Node21 -->
<g id="edge34" class="edge"><title>Node26&#45;&gt;Node21</title>
<path fill="none" stroke="midnightblue" d="M50.2667,-130.893C50.404,-111.316 54.135,-85.0106 71,-70 103.64,-40.949 385.373,-25.9323 516.446,-20.4651"/>
<polygon fill="midnightblue" stroke="midnightblue" points="46.7692,-131.046 50.4995,-140.962 53.7673,-130.884 46.7692,-131.046"/>
</g>
<!-- Node28&#45;&gt;Node3 -->
<g id="edge38" class="edge"><title>Node28&#45;&gt;Node3</title>
<path fill="none" stroke="midnightblue" d="M322.351,-139.162C280.009,-127.781 224.731,-112.924 184.661,-102.154"/>
<polygon fill="midnightblue" stroke="midnightblue" points="321.705,-142.612 332.271,-141.828 323.522,-135.852 321.705,-142.612"/>
</g>
<!-- Node29 -->
<g id="node29" class="node"><title>Node29</title>
<g id="a_node29"><a xlink:href="_pan_node_8cpp.html" target="_top" xlink:title="src/cinder/audio/PanNode.cpp">
<polygon fill="white" stroke="black" points="202.015,-77 202.015,-97 351.985,-97 351.985,-77 202.015,-77"/>
<text text-anchor="middle" x="277" y="-83" font-family="Helvetica,sans-Serif" font-size="10.00">src/cinder/audio/PanNode.cpp</text>
</a>
</g>
</g>
<!-- Node28&#45;&gt;Node29 -->
<g id="edge39" class="edge"><title>Node28&#45;&gt;Node29</title>
<path fill="none" stroke="midnightblue" d="M352.352,-135.444C331.982,-122.618 306.779,-106.75 291.3,-97.0035"/>
<polygon fill="midnightblue" stroke="midnightblue" points="350.704,-138.542 361.031,-140.909 354.434,-132.619 350.704,-138.542"/>
</g>
<!-- Node28&#45;&gt;Node21 -->
<g id="edge40" class="edge"><title>Node28&#45;&gt;Node21</title>
<path fill="none" stroke="midnightblue" d="M382.382,-130.863C381.837,-111.888 384.37,-86.4017 399,-70 428.278,-37.1764 476.54,-24.4003 516.291,-19.7123"/>
<polygon fill="midnightblue" stroke="midnightblue" points="378.891,-131.121 382.967,-140.9 385.879,-130.713 378.891,-131.121"/>
</g>
</g>
</svg>
