<?xml version="1.0" encoding="UTF-8" standalone="no"?>
<!DOCTYPE svg PUBLIC "-//W3C//DTD SVG 1.1//EN"
 "http://www.w3.org/Graphics/SVG/1.1/DTD/svg11.dtd">
<!-- Generated by graphviz version 2.30.1 (20140712.1814)
 -->
<!-- Title: include/cinder/Path2d.h Pages: 1 -->
<!--zoomable 378 -->
<svg id="main" version="1.1" xmlns="http://www.w3.org/2000/svg" xmlns:xlink="http://www.w3.org/1999/xlink" xml:space="preserve" onload="init(evt)">
<style type="text/css"><![CDATA[
.edge:hover path { stroke: red; }
.edge:hover polygon { stroke: red; fill: red; }
]]></style>
<script type="text/javascript"><![CDATA[
var edges = document.getElementsByTagName('g');
if (edges && edges.length) {
  for (var i=0;i<edges.length;i++) {
    if (edges[i].id.substr(0,4)=='edge') {
      edges[i].setAttribute('class','edge');
    }
  }
}
]]></script>
        <defs>
                <circle id="rim" cx="0" cy="0" r="7"/>
                <circle id="rim2" cx="0" cy="0" r="3.5"/>
                <g id="zoomPlus">
                        <use xlink:href="#rim" fill="#404040">
                                <set attributeName="fill" to="#808080" begin="zoomplus.mouseover" end="zoomplus.mouseout"/>
                        </use>
                        <path d="M-4,0h8M0,-4v8" fill="none" stroke="white" stroke-width="1.5" pointer-events="none"/>
                </g>
                <g id="zoomMin">
                        <use xlink:href="#rim" fill="#404040">
                                <set attributeName="fill" to="#808080" begin="zoomminus.mouseover" end="zoomminus.mouseout"/>
                        </use>
                        <path d="M-4,0h8" fill="none" stroke="white" stroke-width="1.5" pointer-events="none"/>
                </g>
                <g id="dirArrow">
                        <path fill="none" stroke="white" stroke-width="1.5" d="M0,-3.0v7 M-2.5,-0.5L0,-3.0L2.5,-0.5"/>
                </g>
               <g id="resetDef">
                       <use xlink:href="#rim2" fill="#404040">
                               <set attributeName="fill" to="#808080" begin="reset.mouseover" end="reset.mouseout"/>
                       </use>
               </g>
        </defs>

<script type="text/javascript">
var viewWidth = 706;
var viewHeight = 378;
var sectionId = 'dynsection-0';
</script>
<script xlink:href="svgpan.js"/>
<svg id="graph" class="graph">
<g id="viewport">
<title>include/cinder/Path2d.h</title>
<polygon fill="white" stroke="white" points="-4,5 -4,-374 703,-374 703,5 -4,5"/>
<!-- Node1 -->
<g id="node1" class="node"><title>Node1</title>
<polygon fill="#bfbfbf" stroke="black" points="331.742,-349 331.742,-369 452.258,-369 452.258,-349 331.742,-349"/>
<text text-anchor="middle" x="392" y="-355" font-family="Helvetica,sans-Serif" font-size="10.00">include/cinder/Path2d.h</text>
</g>
<!-- Node2 -->
<g id="node2" class="node"><title>Node2</title>
<g id="a_node2"><a xlink:href="_vector_8h.html" target="_top" xlink:title="cinder/Vector.h">
<polygon fill="white" stroke="black" points="288.919,-175 288.919,-195 371.081,-195 371.081,-175 288.919,-175"/>
<text text-anchor="middle" x="330" y="-181" font-family="Helvetica,sans-Serif" font-size="10.00">cinder/Vector.h</text>
</a>
</g>
</g>
<!-- Node1&#45;&gt;Node2 -->
<g id="edge1" class="edge"><title>Node1&#45;&gt;Node2</title>
<path fill="none" stroke="midnightblue" d="M375.032,-348.942C348.265,-333.559 297.206,-299.516 277,-254 273.033,-245.063 272.942,-240.896 277,-232 282.866,-219.143 294.296,-208.493 305.045,-200.69"/>
<polygon fill="midnightblue" stroke="midnightblue" points="307.067,-203.548 313.4,-195.054 303.152,-197.745 307.067,-203.548"/>
</g>
<!-- Node16 -->
<g id="node16" class="node"><title>Node16</title>
<g id="a_node16"><a xlink:href="_b_spline_8h.html" target="_top" xlink:title="cinder/BSpline.h">
<polygon fill="white" stroke="black" points="285.589,-233 285.589,-253 374.411,-253 374.411,-233 285.589,-233"/>
<text text-anchor="middle" x="330" y="-239" font-family="Helvetica,sans-Serif" font-size="10.00">cinder/BSpline.h</text>
</a>
</g>
</g>
<!-- Node1&#45;&gt;Node16 -->
<g id="edge16" class="edge"><title>Node1&#45;&gt;Node16</title>
<path fill="none" stroke="midnightblue" d="M386.926,-348.671C376.657,-329.789 353.252,-286.754 339.87,-262.149"/>
<polygon fill="midnightblue" stroke="midnightblue" points="342.823,-260.252 334.971,-253.139 336.674,-263.596 342.823,-260.252"/>
</g>
<!-- Node18 -->
<g id="node18" class="node"><title>Node18</title>
<g id="a_node18"><a xlink:href="_rect_8h.html" target="_top" xlink:title="cinder/Rect.h">
<polygon fill="white" stroke="black" points="397.542,-291 397.542,-311 472.458,-311 472.458,-291 397.542,-291"/>
<text text-anchor="middle" x="435" y="-297" font-family="Helvetica,sans-Serif" font-size="10.00">cinder/Rect.h</text>
</a>
</g>
</g>
<!-- Node1&#45;&gt;Node18 -->
<g id="edge19" class="edge"><title>Node1&#45;&gt;Node18</title>
<path fill="none" stroke="midnightblue" d="M399.101,-348.753C405.237,-340.761 414.27,-328.998 421.739,-319.27"/>
<polygon fill="midnightblue" stroke="midnightblue" points="424.717,-321.138 428.032,-311.075 419.165,-316.875 424.717,-321.138"/>
</g>
<!-- Node21 -->
<g id="node21" class="node"><title>Node21</title>
<g id="a_node21"><a xlink:href="_exception_8h.html" target="_top" xlink:title="cinder/Exception.h">
<polygon fill="white" stroke="black" points="599.865,-233 599.865,-253 698.135,-253 698.135,-233 599.865,-233"/>
<text text-anchor="middle" x="649" y="-239" font-family="Helvetica,sans-Serif" font-size="10.00">cinder/Exception.h</text>
</a>
</g>
</g>
<!-- Node1&#45;&gt;Node21 -->
<g id="edge28" class="edge"><title>Node1&#45;&gt;Node21</title>
<path fill="none" stroke="midnightblue" d="M452.675,-352.853C492.745,-347.308 545.19,-335.812 586,-312 607.613,-299.389 626.212,-277.013 637.486,-261.385"/>
<polygon fill="midnightblue" stroke="midnightblue" points="640.417,-263.299 643.244,-253.088 634.667,-259.308 640.417,-263.299"/>
</g>
<!-- Node23 -->
<g id="node23" class="node"><title>Node23</title>
<g id="a_node23"><a xlink:href="_matrix_affine2_8h.html" target="_top" xlink:title="cinder/MatrixAffine2.h">
<polygon fill="white" stroke="black" points="117.646,-233 117.646,-253 230.354,-253 230.354,-233 117.646,-233"/>
<text text-anchor="middle" x="174" y="-239" font-family="Helvetica,sans-Serif" font-size="10.00">cinder/MatrixAffine2.h</text>
</a>
</g>
</g>
<!-- Node1&#45;&gt;Node23 -->
<g id="edge32" class="edge"><title>Node1&#45;&gt;Node23</title>
<path fill="none" stroke="midnightblue" d="M343.3,-348.927C313.219,-341.894 274.65,-330.211 244,-312 221.387,-298.564 200.457,-276.415 187.485,-261.063"/>
<polygon fill="midnightblue" stroke="midnightblue" points="190.188,-258.84 181.137,-253.332 184.778,-263.282 190.188,-258.84"/>
</g>
<!-- Node17 -->
<g id="node17" class="node"><title>Node17</title>
<polygon fill="white" stroke="#bfbfbf" points="543.384,-175 543.384,-195 586.616,-195 586.616,-175 543.384,-175"/>
<text text-anchor="middle" x="565" y="-181" font-family="Helvetica,sans-Serif" font-size="10.00">vector</text>
</g>
<!-- Node1&#45;&gt;Node17 -->
<g id="edge37" class="edge"><title>Node1&#45;&gt;Node17</title>
<path fill="none" stroke="midnightblue" d="M414.341,-348.837C433.057,-340.619 460.005,-327.488 481,-312 510.085,-290.545 518.274,-284.284 538,-254 547.944,-238.733 555.221,-219.227 559.698,-205.024"/>
<polygon fill="midnightblue" stroke="midnightblue" points="563.078,-205.938 562.573,-195.356 556.368,-203.943 563.078,-205.938"/>
</g>
<!-- Node3 -->
<g id="node3" class="node"><title>Node3</title>
<polygon fill="white" stroke="#bfbfbf" points="196.384,-59 196.384,-79 239.616,-79 239.616,-59 196.384,-59"/>
<text text-anchor="middle" x="218" y="-65" font-family="Helvetica,sans-Serif" font-size="10.00">cmath</text>
</g>
<!-- Node2&#45;&gt;Node3 -->
<g id="edge2" class="edge"><title>Node2&#45;&gt;Node3</title>
<path fill="none" stroke="midnightblue" d="M296.357,-174.964C276.423,-167.966 252.171,-156.308 237,-138 225.657,-124.311 221.068,-104.308 219.221,-89.538"/>
<polygon fill="midnightblue" stroke="midnightblue" points="222.694,-89.0848 218.277,-79.4548 215.725,-89.7376 222.694,-89.0848"/>
</g>
<!-- Node4 -->
<g id="node4" class="node"><title>Node4</title>
<polygon fill="white" stroke="#bfbfbf" points="369.273,-117 369.273,-137 414.727,-137 414.727,-117 369.273,-117"/>
<text text-anchor="middle" x="392" y="-123" font-family="Helvetica,sans-Serif" font-size="10.00">cstring</text>
</g>
<!-- Node2&#45;&gt;Node4 -->
<g id="edge3" class="edge"><title>Node2&#45;&gt;Node4</title>
<path fill="none" stroke="midnightblue" d="M340.238,-174.753C349.537,-166.353 363.45,-153.787 374.51,-143.798"/>
<polygon fill="midnightblue" stroke="midnightblue" points="376.877,-146.375 381.952,-137.075 372.185,-141.181 376.877,-146.375"/>
</g>
<!-- Node5 -->
<g id="node5" class="node"><title>Node5</title>
<polygon fill="white" stroke="#bfbfbf" points="432.828,-117 432.828,-137 487.172,-137 487.172,-117 432.828,-117"/>
<text text-anchor="middle" x="460" y="-123" font-family="Helvetica,sans-Serif" font-size="10.00">iostream</text>
</g>
<!-- Node2&#45;&gt;Node5 -->
<g id="edge4" class="edge"><title>Node2&#45;&gt;Node5</title>
<path fill="none" stroke="midnightblue" d="M351.176,-174.878C372.423,-165.725 405.364,-151.536 429.44,-141.164"/>
<polygon fill="midnightblue" stroke="midnightblue" points="431.034,-144.289 438.833,-137.118 428.264,-137.86 431.034,-144.289"/>
</g>
<!-- Node6 -->
<g id="node6" class="node"><title>Node6</title>
<polygon fill="white" stroke="#bfbfbf" points="245.884,-117 245.884,-137 294.116,-137 294.116,-117 245.884,-117"/>
<text text-anchor="middle" x="270" y="-123" font-family="Helvetica,sans-Serif" font-size="10.00">cassert</text>
</g>
<!-- Node2&#45;&gt;Node6 -->
<g id="edge5" class="edge"><title>Node2&#45;&gt;Node6</title>
<path fill="none" stroke="midnightblue" d="M320.092,-174.753C311.18,-166.435 297.89,-154.031 287.238,-144.089"/>
<polygon fill="midnightblue" stroke="midnightblue" points="289.422,-141.34 279.723,-137.075 284.646,-146.457 289.422,-141.34"/>
</g>
<!-- Node7 -->
<g id="node7" class="node"><title>Node7</title>
<polygon fill="white" stroke="#bfbfbf" points="312.613,-117 312.613,-137 351.387,-137 351.387,-117 312.613,-117"/>
<text text-anchor="middle" x="332" y="-123" font-family="Helvetica,sans-Serif" font-size="10.00">limits</text>
</g>
<!-- Node2&#45;&gt;Node7 -->
<g id="edge6" class="edge"><title>Node2&#45;&gt;Node7</title>
<path fill="none" stroke="midnightblue" d="M330.33,-174.753C330.598,-167.25 330.985,-156.424 331.319,-147.078"/>
<polygon fill="midnightblue" stroke="midnightblue" points="334.817,-147.194 331.676,-137.075 327.821,-146.944 334.817,-147.194"/>
</g>
<!-- Node8 -->
<g id="node8" class="node"><title>Node8</title>
<g id="a_node8"><a xlink:href="_cinder_math_8h.html" target="_top" xlink:title="cinder/CinderMath.h">
<polygon fill="white" stroke="black" points="45.978,-117 45.978,-137 152.022,-137 152.022,-117 45.978,-117"/>
<text text-anchor="middle" x="99" y="-123" font-family="Helvetica,sans-Serif" font-size="10.00">cinder/CinderMath.h</text>
</a>
</g>
</g>
<!-- Node2&#45;&gt;Node8 -->
<g id="edge7" class="edge"><title>Node2&#45;&gt;Node8</title>
<path fill="none" stroke="midnightblue" d="M292.629,-174.94C252.707,-165.262 189.341,-149.901 146.048,-139.406"/>
<polygon fill="midnightblue" stroke="midnightblue" points="146.86,-136.001 136.317,-137.047 145.211,-142.804 146.86,-136.001"/>
</g>
<!-- Node9 -->
<g id="node9" class="node"><title>Node9</title>
<g id="a_node9"><a xlink:href="_cinder_8h.html" target="_top" xlink:title="cinder/Cinder.h">
<polygon fill="white" stroke="black" points="365.367,-59 365.367,-79 448.633,-79 448.633,-59 365.367,-59"/>
<text text-anchor="middle" x="407" y="-65" font-family="Helvetica,sans-Serif" font-size="10.00">cinder/Cinder.h</text>
</a>
</g>
</g>
<!-- Node8&#45;&gt;Node9 -->
<g id="edge8" class="edge"><title>Node8&#45;&gt;Node9</title>
<path fill="none" stroke="midnightblue" d="M148.828,-116.94C205.524,-106.632 297.682,-89.876 355.19,-79.4201"/>
<polygon fill="midnightblue" stroke="midnightblue" points="355.946,-82.8401 365.158,-77.6076 354.693,-75.953 355.946,-82.8401"/>
</g>
<!-- Node8&#45;&gt;Node3 -->
<g id="edge12" class="edge"><title>Node8&#45;&gt;Node3</title>
<path fill="none" stroke="midnightblue" d="M118.384,-116.878C137.661,-107.807 167.451,-93.7876 189.436,-83.4418"/>
<polygon fill="midnightblue" stroke="midnightblue" points="191.066,-86.543 198.624,-79.1181 188.086,-80.2093 191.066,-86.543"/>
</g>
<!-- Node13 -->
<g id="node13" class="node"><title>Node13</title>
<polygon fill="white" stroke="#bfbfbf" points="76.1133,-59 76.1133,-79 119.887,-79 119.887,-59 76.1133,-59"/>
<text text-anchor="middle" x="98" y="-65" font-family="Helvetica,sans-Serif" font-size="10.00">climits</text>
</g>
<!-- Node8&#45;&gt;Node13 -->
<g id="edge13" class="edge"><title>Node8&#45;&gt;Node13</title>
<path fill="none" stroke="midnightblue" d="M98.8349,-116.753C98.7009,-109.25 98.5076,-98.4238 98.3407,-89.0781"/>
<polygon fill="midnightblue" stroke="midnightblue" points="101.84,-89.0111 98.1621,-79.0752 94.8413,-89.1361 101.84,-89.0111"/>
</g>
<!-- Node14 -->
<g id="node14" class="node"><title>Node14</title>
<polygon fill="white" stroke="#bfbfbf" points="138.049,-59 138.049,-79 177.951,-79 177.951,-59 138.049,-59"/>
<text text-anchor="middle" x="158" y="-65" font-family="Helvetica,sans-Serif" font-size="10.00">cfloat</text>
</g>
<!-- Node8&#45;&gt;Node14 -->
<g id="edge14" class="edge"><title>Node8&#45;&gt;Node14</title>
<path fill="none" stroke="midnightblue" d="M108.743,-116.753C117.506,-108.435 130.575,-96.031 141.049,-86.0893"/>
<polygon fill="midnightblue" stroke="midnightblue" points="143.595,-88.4981 148.439,-79.0752 138.776,-83.4209 143.595,-88.4981"/>
</g>
<!-- Node15 -->
<g id="node15" class="node"><title>Node15</title>
<polygon fill="white" stroke="#bfbfbf" points="-0.403809,-59 -0.403809,-79 58.4038,-79 58.4038,-59 -0.403809,-59"/>
<text text-anchor="middle" x="29" y="-65" font-family="Helvetica,sans-Serif" font-size="10.00">functional</text>
</g>
<!-- Node8&#45;&gt;Node15 -->
<g id="edge15" class="edge"><title>Node8&#45;&gt;Node15</title>
<path fill="none" stroke="midnightblue" d="M87.4409,-116.753C76.8398,-108.272 60.9287,-95.543 48.3842,-85.5073"/>
<polygon fill="midnightblue" stroke="midnightblue" points="50.3391,-82.5891 40.344,-79.0752 45.9663,-88.0552 50.3391,-82.5891"/>
</g>
<!-- Node10 -->
<g id="node10" class="node"><title>Node10</title>
<polygon fill="white" stroke="#bfbfbf" points="296.549,-1 296.549,-21 341.451,-21 341.451,-1 296.549,-1"/>
<text text-anchor="middle" x="319" y="-7" font-family="Helvetica,sans-Serif" font-size="10.00">cstdint</text>
</g>
<!-- Node9&#45;&gt;Node10 -->
<g id="edge9" class="edge"><title>Node9&#45;&gt;Node10</title>
<path fill="none" stroke="midnightblue" d="M392.469,-58.7527C378.757,-50.0272 357.979,-36.8051 342.015,-26.6458"/>
<polygon fill="midnightblue" stroke="midnightblue" points="343.577,-23.4912 333.261,-21.0752 339.819,-29.3968 343.577,-23.4912"/>
</g>
<!-- Node11 -->
<g id="node11" class="node"><title>Node11</title>
<polygon fill="white" stroke="#bfbfbf" points="359.53,-1 359.53,-21 454.47,-21 454.47,-1 359.53,-1"/>
<text text-anchor="middle" x="407" y="-7" font-family="Helvetica,sans-Serif" font-size="10.00">boost/version.hpp</text>
</g>
<!-- Node9&#45;&gt;Node11 -->
<g id="edge10" class="edge"><title>Node9&#45;&gt;Node11</title>
<path fill="none" stroke="midnightblue" d="M407,-58.7527C407,-51.2504 407,-40.4238 407,-31.0781"/>
<polygon fill="midnightblue" stroke="midnightblue" points="410.5,-31.0752 407,-21.0752 403.5,-31.0752 410.5,-31.0752"/>
</g>
<!-- Node12 -->
<g id="node12" class="node"><title>Node12</title>
<polygon fill="white" stroke="#bfbfbf" points="472.621,-1 472.621,-21 605.379,-21 605.379,-1 472.621,-1"/>
<text text-anchor="middle" x="539" y="-7" font-family="Helvetica,sans-Serif" font-size="10.00">boost/checked_delete.hpp</text>
</g>
<!-- Node9&#45;&gt;Node12 -->
<g id="edge11" class="edge"><title>Node9&#45;&gt;Node12</title>
<path fill="none" stroke="midnightblue" d="M428.502,-58.878C450.172,-49.6848 483.821,-35.4095 508.295,-25.0263"/>
<polygon fill="midnightblue" stroke="midnightblue" points="509.668,-28.2457 517.507,-21.1181 506.935,-21.8016 509.668,-28.2457"/>
</g>
<!-- Node16&#45;&gt;Node17 -->
<g id="edge17" class="edge"><title>Node16&#45;&gt;Node17</title>
<path fill="none" stroke="midnightblue" d="M368.018,-232.94C413.981,-221.988 490.49,-203.756 533.376,-193.536"/>
<polygon fill="midnightblue" stroke="midnightblue" points="534.346,-196.903 543.263,-191.18 532.724,-190.093 534.346,-196.903"/>
</g>
<!-- Node16&#45;&gt;Node2 -->
<g id="edge18" class="edge"><title>Node16&#45;&gt;Node2</title>
<path fill="none" stroke="midnightblue" d="M330,-232.753C330,-225.25 330,-214.424 330,-205.078"/>
<polygon fill="midnightblue" stroke="midnightblue" points="333.5,-205.075 330,-195.075 326.5,-205.075 333.5,-205.075"/>
</g>
<!-- Node18&#45;&gt;Node2 -->
<g id="edge20" class="edge"><title>Node18&#45;&gt;Node2</title>
<path fill="none" stroke="midnightblue" d="M428.816,-290.733C419.586,-277.192 401.321,-251.493 383,-232 372.83,-221.18 360.332,-210.237 350.026,-201.739"/>
<polygon fill="midnightblue" stroke="midnightblue" points="351.96,-198.802 341.985,-195.234 347.558,-204.244 351.96,-198.802"/>
</g>
<!-- Node19 -->
<g id="node19" class="node"><title>Node19</title>
<g id="a_node19"><a xlink:href="_area_8h.html" target="_top" xlink:title="cinder/Area.h">
<polygon fill="white" stroke="black" points="430.261,-233 430.261,-253 505.739,-253 505.739,-233 430.261,-233"/>
<text text-anchor="middle" x="468" y="-239" font-family="Helvetica,sans-Serif" font-size="10.00">cinder/Area.h</text>
</a>
</g>
</g>
<!-- Node18&#45;&gt;Node19 -->
<g id="edge21" class="edge"><title>Node18&#45;&gt;Node19</title>
<path fill="none" stroke="midnightblue" d="M440.449,-290.753C445.063,-282.924 451.809,-271.476 457.471,-261.868"/>
<polygon fill="midnightblue" stroke="midnightblue" points="460.591,-263.468 462.652,-253.075 454.56,-259.914 460.591,-263.468"/>
</g>
<!-- Node18&#45;&gt;Node17 -->
<g id="edge27" class="edge"><title>Node18&#45;&gt;Node17</title>
<path fill="none" stroke="midnightblue" d="M455.609,-290.849C472.472,-282.726 496.336,-269.722 514,-254 530.457,-239.352 545.065,-218.662 554.383,-203.959"/>
<polygon fill="midnightblue" stroke="midnightblue" points="557.459,-205.638 559.708,-195.285 551.493,-201.975 557.459,-205.638"/>
</g>
<!-- Node19&#45;&gt;Node9 -->
<g id="edge22" class="edge"><title>Node19&#45;&gt;Node9</title>
<path fill="none" stroke="midnightblue" d="M475.677,-232.855C482.526,-224.053 492.062,-210.043 496,-196 505.6,-161.765 514.49,-146.37 496,-116 486.473,-100.352 469.72,-89.7934 453.299,-82.7852"/>
<polygon fill="midnightblue" stroke="midnightblue" points="454.315,-79.4248 443.726,-79.0575 451.775,-85.9477 454.315,-79.4248"/>
</g>
<!-- Node19&#45;&gt;Node2 -->
<g id="edge23" class="edge"><title>Node19&#45;&gt;Node2</title>
<path fill="none" stroke="midnightblue" d="M445.521,-232.878C422.766,-223.644 387.376,-209.283 361.761,-198.889"/>
<polygon fill="midnightblue" stroke="midnightblue" points="363.052,-195.635 352.47,-195.118 360.42,-202.121 363.052,-195.635"/>
</g>
<!-- Node19&#45;&gt;Node5 -->
<g id="edge24" class="edge"><title>Node19&#45;&gt;Node5</title>
<path fill="none" stroke="midnightblue" d="M460.323,-232.855C453.474,-224.053 443.938,-210.043 440,-196 435.241,-179.029 442.068,-159.761 449.007,-146.08"/>
<polygon fill="midnightblue" stroke="midnightblue" points="452.132,-147.661 453.914,-137.218 446.008,-144.27 452.132,-147.661"/>
</g>
<!-- Node20 -->
<g id="node20" class="node"><title>Node20</title>
<polygon fill="white" stroke="#bfbfbf" points="448.608,-175 448.608,-195 487.392,-195 487.392,-175 448.608,-175"/>
<text text-anchor="middle" x="468" y="-181" font-family="Helvetica,sans-Serif" font-size="10.00">utility</text>
</g>
<!-- Node19&#45;&gt;Node20 -->
<g id="edge25" class="edge"><title>Node19&#45;&gt;Node20</title>
<path fill="none" stroke="midnightblue" d="M468,-232.753C468,-225.25 468,-214.424 468,-205.078"/>
<polygon fill="midnightblue" stroke="midnightblue" points="471.5,-205.075 468,-195.075 464.5,-205.075 471.5,-205.075"/>
</g>
<!-- Node19&#45;&gt;Node17 -->
<g id="edge26" class="edge"><title>Node19&#45;&gt;Node17</title>
<path fill="none" stroke="midnightblue" d="M484.018,-232.753C499.414,-223.864 522.893,-210.309 540.613,-200.079"/>
<polygon fill="midnightblue" stroke="midnightblue" points="542.37,-203.106 549.28,-195.075 538.87,-197.044 542.37,-203.106"/>
</g>
<!-- Node21&#45;&gt;Node9 -->
<g id="edge29" class="edge"><title>Node21&#45;&gt;Node9</title>
<path fill="none" stroke="midnightblue" d="M643.041,-232.995C633.753,-219.337 614.821,-192.971 595,-174 563.273,-143.634 553.221,-137.63 515,-116 491.621,-102.769 463.685,-90.9682 442.083,-82.632"/>
<polygon fill="midnightblue" stroke="midnightblue" points="443.234,-79.3253 432.642,-79.0531 440.752,-85.8707 443.234,-79.3253"/>
</g>
<!-- Node21&#45;&gt;Node17 -->
<g id="edge30" class="edge"><title>Node21&#45;&gt;Node17</title>
<path fill="none" stroke="midnightblue" d="M635.129,-232.753C622.041,-224.027 602.208,-210.805 586.969,-200.646"/>
<polygon fill="midnightblue" stroke="midnightblue" points="588.875,-197.71 578.613,-195.075 584.992,-203.534 588.875,-197.71"/>
</g>
<!-- Node22 -->
<g id="node22" class="node"><title>Node22</title>
<polygon fill="white" stroke="#bfbfbf" points="642.773,-175 642.773,-195 683.227,-195 683.227,-175 642.773,-175"/>
<text text-anchor="middle" x="663" y="-181" font-family="Helvetica,sans-Serif" font-size="10.00">string</text>
</g>
<!-- Node21&#45;&gt;Node22 -->
<g id="edge31" class="edge"><title>Node21&#45;&gt;Node22</title>
<path fill="none" stroke="midnightblue" d="M651.312,-232.753C653.187,-225.25 655.894,-214.424 658.23,-205.078"/>
<polygon fill="midnightblue" stroke="midnightblue" points="661.701,-205.626 660.731,-195.075 654.91,-203.928 661.701,-205.626"/>
</g>
<!-- Node23&#45;&gt;Node9 -->
<g id="edge33" class="edge"><title>Node23&#45;&gt;Node9</title>
<path fill="none" stroke="midnightblue" d="M175.885,-232.77C181.14,-209.447 198.195,-147.748 237,-116 270.42,-88.6581 318.701,-77.4839 355.278,-72.9602"/>
<polygon fill="midnightblue" stroke="midnightblue" points="355.709,-76.434 365.262,-71.8528 354.937,-69.4767 355.709,-76.434"/>
</g>
<!-- Node23&#45;&gt;Node8 -->
<g id="edge34" class="edge"><title>Node23&#45;&gt;Node8</title>
<path fill="none" stroke="midnightblue" d="M167.862,-232.671C155.33,-213.621 126.623,-169.987 110.511,-145.497"/>
<polygon fill="midnightblue" stroke="midnightblue" points="113.433,-143.57 105.013,-137.139 107.585,-147.417 113.433,-143.57"/>
</g>
<!-- Node23&#45;&gt;Node2 -->
<g id="edge35" class="edge"><title>Node23&#45;&gt;Node2</title>
<path fill="none" stroke="midnightblue" d="M199.411,-232.878C225.438,-223.535 266.087,-208.943 295.117,-198.522"/>
<polygon fill="midnightblue" stroke="midnightblue" points="296.629,-201.698 304.858,-195.025 294.264,-195.11 296.629,-201.698"/>
</g>
<!-- Node24 -->
<g id="node24" class="node"><title>Node24</title>
<polygon fill="white" stroke="#bfbfbf" points="62.4902,-175 62.4902,-195 113.51,-195 113.51,-175 62.4902,-175"/>
<text text-anchor="middle" x="88" y="-181" font-family="Helvetica,sans-Serif" font-size="10.00">iomanip</text>
</g>
<!-- Node23&#45;&gt;Node24 -->
<g id="edge36" class="edge"><title>Node23&#45;&gt;Node24</title>
<path fill="none" stroke="midnightblue" d="M159.799,-232.753C146.399,-224.027 126.093,-210.805 110.492,-200.646"/>
<polygon fill="midnightblue" stroke="midnightblue" points="112.227,-197.599 101.937,-195.075 108.407,-203.465 112.227,-197.599"/>
</g>
</g>
</svg>
        <g id="navigator" transform="translate(0 0)" fill="#404254">
                <rect fill="#f2f5e9" fill-opacity="0.5" stroke="#606060" stroke-width=".5" x="0" y="0" width="60" height="60"/>
                <use id="zoomplus" xlink:href="#zoomPlus" x="17" y="9" onmousedown="handleZoom(evt,'in')"/>
                <use id="zoomminus" xlink:href="#zoomMin" x="42" y="9" onmousedown="handleZoom(evt,'out')"/>
                <use id="reset" xlink:href="#resetDef" x="30" y="36" onmousedown="handleReset()"/>
                <g id="arrowUp" xlink:href="#dirArrow" transform="translate(30 24)" onmousedown="handlePan(0,-1)">
                  <use xlink:href="#rim" fill="#404040">
                        <set attributeName="fill" to="#808080" begin="arrowUp.mouseover" end="arrowUp.mouseout"/>
                  </use>
                  <path fill="none" stroke="white" stroke-width="1.5" d="M0,-3.0v7 M-2.5,-0.5L0,-3.0L2.5,-0.5"/>
                </g>
                <g id="arrowRight" xlink:href="#dirArrow" transform="rotate(90) translate(36 -43)" onmousedown="handlePan(1,0)">
                  <use xlink:href="#rim" fill="#404040">
                        <set attributeName="fill" to="#808080" begin="arrowRight.mouseover" end="arrowRight.mouseout"/>
                  </use>
                  <path fill="none" stroke="white" stroke-width="1.5" d="M0,-3.0v7 M-2.5,-0.5L0,-3.0L2.5,-0.5"/>
                </g>
                <g id="arrowDown" xlink:href="#dirArrow" transform="rotate(180) translate(-30 -48)" onmousedown="handlePan(0,1)">
                  <use xlink:href="#rim" fill="#404040">
                        <set attributeName="fill" to="#808080" begin="arrowDown.mouseover" end="arrowDown.mouseout"/>
                  </use>
                  <path fill="none" stroke="white" stroke-width="1.5" d="M0,-3.0v7 M-2.5,-0.5L0,-3.0L2.5,-0.5"/>
                </g>
                <g id="arrowLeft" xlink:href="#dirArrow" transform="rotate(270) translate(-36 17)" onmousedown="handlePan(-1,0)">
                  <use xlink:href="#rim" fill="#404040">
                        <set attributeName="fill" to="#808080" begin="arrowLeft.mouseover" end="arrowLeft.mouseout"/>
                  </use>
                  <path fill="none" stroke="white" stroke-width="1.5" d="M0,-3.0v7 M-2.5,-0.5L0,-3.0L2.5,-0.5"/>
                </g>
        </g>
        <svg viewBox="0 0 15 15" width="100%" height="30px" preserveAspectRatio="xMaxYMin meet">
         <g id="arrow_out" transform="scale(0.3 0.3)">
          <a xlink:href="_path2d_8h__incl_org.svg" target="_base">
           <rect id="button" ry="5" rx="5" y="6" x="6" height="38" width="38"
                fill="#f2f5e9" fill-opacity="0.5" stroke="#606060" stroke-width="1.0"/>
           <path id="arrow"
             d="M 11.500037,31.436501 C 11.940474,20.09759 22.043105,11.32322 32.158766,21.979434 L 37.068811,17.246167 C 37.068811,17.246167 37.088388,32 37.088388,32 L 22.160133,31.978069 C 22.160133,31.978069 26.997745,27.140456 26.997745,27.140456 C 18.528582,18.264221 13.291696,25.230495 11.500037,31.436501 z"
             style="fill:#404040;"/>
          </a>
         </g>
        </svg>
</svg>
