<?xml version="1.0" encoding="UTF-8" standalone="no"?>
<!DOCTYPE svg PUBLIC "-//W3C//DTD SVG 1.1//EN"
 "http://www.w3.org/Graphics/SVG/1.1/DTD/svg11.dtd">
<!-- Generated by graphviz version 2.30.1 (20140712.1814)
 -->
<!-- Title: include/cinder/Perlin.h Pages: 1 -->
<svg width="488pt" height="262pt"
 viewBox="0.00 0.00 488.00 262.00" xmlns="http://www.w3.org/2000/svg" xmlns:xlink="http://www.w3.org/1999/xlink">
<g id="graph0" class="graph" transform="scale(1 1) rotate(0) translate(4 258)">
<title>include/cinder/Perlin.h</title>
<polygon fill="white" stroke="white" points="-4,5 -4,-258 485,-258 485,5 -4,5"/>
<!-- Node1 -->
<g id="node1" class="node"><title>Node1</title>
<polygon fill="#bfbfbf" stroke="black" points="74.8057,-233 74.8057,-253 189.194,-253 189.194,-233 74.8057,-233"/>
<text text-anchor="middle" x="132" y="-239" font-family="Helvetica,sans-Serif" font-size="10.00">include/cinder/Perlin.h</text>
</g>
<!-- Node2 -->
<g id="node2" class="node"><title>Node2</title>
<g id="a_node2"><a xlink:href="_cinder_8h.html" target="_top" xlink:title="cinder/Cinder.h">
<polygon fill="white" stroke="black" points="68.3672,-59 68.3672,-79 151.633,-79 151.633,-59 68.3672,-59"/>
<text text-anchor="middle" x="110" y="-65" font-family="Helvetica,sans-Serif" font-size="10.00">cinder/Cinder.h</text>
</a>
</g>
</g>
<!-- Node1&#45;&gt;Node2 -->
<g id="edge1" class="edge"><title>Node1&#45;&gt;Node2</title>
<path fill="none" stroke="midnightblue" d="M122.207,-232.852C105.016,-216.041 69.9989,-178.249 57,-138 53.9949,-128.695 52.9418,-124.896 57,-116 62.8655,-103.143 74.2964,-92.4928 85.0452,-84.6898"/>
<polygon fill="midnightblue" stroke="midnightblue" points="87.0667,-87.548 93.3999,-79.0544 83.1523,-81.7447 87.0667,-87.548"/>
</g>
<!-- Node6 -->
<g id="node6" class="node"><title>Node6</title>
<g id="a_node6"><a xlink:href="_vector_8h.html" target="_top" xlink:title="cinder/Vector.h">
<polygon fill="white" stroke="black" points="184.919,-175 184.919,-195 267.081,-195 267.081,-175 184.919,-175"/>
<text text-anchor="middle" x="226" y="-181" font-family="Helvetica,sans-Serif" font-size="10.00">cinder/Vector.h</text>
</a>
</g>
</g>
<!-- Node1&#45;&gt;Node6 -->
<g id="edge5" class="edge"><title>Node1&#45;&gt;Node6</title>
<path fill="none" stroke="midnightblue" d="M147.522,-232.753C162.306,-223.946 184.778,-210.558 201.893,-200.362"/>
<polygon fill="midnightblue" stroke="midnightblue" points="203.967,-203.2 210.767,-195.075 200.384,-197.186 203.967,-203.2"/>
</g>
<!-- Node3 -->
<g id="node3" class="node"><title>Node3</title>
<polygon fill="white" stroke="#bfbfbf" points="-0.450684,-1 -0.450684,-21 44.4507,-21 44.4507,-1 -0.450684,-1"/>
<text text-anchor="middle" x="22" y="-7" font-family="Helvetica,sans-Serif" font-size="10.00">cstdint</text>
</g>
<!-- Node2&#45;&gt;Node3 -->
<g id="edge2" class="edge"><title>Node2&#45;&gt;Node3</title>
<path fill="none" stroke="midnightblue" d="M95.4686,-58.7527C81.757,-50.0272 60.9794,-36.8051 45.0148,-26.6458"/>
<polygon fill="midnightblue" stroke="midnightblue" points="46.5767,-23.4912 36.261,-21.0752 42.8186,-29.3968 46.5767,-23.4912"/>
</g>
<!-- Node4 -->
<g id="node4" class="node"><title>Node4</title>
<polygon fill="white" stroke="#bfbfbf" points="62.5298,-1 62.5298,-21 157.47,-21 157.47,-1 62.5298,-1"/>
<text text-anchor="middle" x="110" y="-7" font-family="Helvetica,sans-Serif" font-size="10.00">boost/version.hpp</text>
</g>
<!-- Node2&#45;&gt;Node4 -->
<g id="edge3" class="edge"><title>Node2&#45;&gt;Node4</title>
<path fill="none" stroke="midnightblue" d="M110,-58.7527C110,-51.2504 110,-40.4238 110,-31.0781"/>
<polygon fill="midnightblue" stroke="midnightblue" points="113.5,-31.0752 110,-21.0752 106.5,-31.0752 113.5,-31.0752"/>
</g>
<!-- Node5 -->
<g id="node5" class="node"><title>Node5</title>
<polygon fill="white" stroke="#bfbfbf" points="175.621,-1 175.621,-21 308.379,-21 308.379,-1 175.621,-1"/>
<text text-anchor="middle" x="242" y="-7" font-family="Helvetica,sans-Serif" font-size="10.00">boost/checked_delete.hpp</text>
</g>
<!-- Node2&#45;&gt;Node5 -->
<g id="edge4" class="edge"><title>Node2&#45;&gt;Node5</title>
<path fill="none" stroke="midnightblue" d="M131.502,-58.878C153.172,-49.6848 186.821,-35.4095 211.295,-25.0263"/>
<polygon fill="midnightblue" stroke="midnightblue" points="212.668,-28.2457 220.507,-21.1181 209.935,-21.8016 212.668,-28.2457"/>
</g>
<!-- Node7 -->
<g id="node7" class="node"><title>Node7</title>
<polygon fill="white" stroke="#bfbfbf" points="437.384,-59 437.384,-79 480.616,-79 480.616,-59 437.384,-59"/>
<text text-anchor="middle" x="459" y="-65" font-family="Helvetica,sans-Serif" font-size="10.00">cmath</text>
</g>
<!-- Node6&#45;&gt;Node7 -->
<g id="edge6" class="edge"><title>Node6&#45;&gt;Node7</title>
<path fill="none" stroke="midnightblue" d="M267.097,-180.197C322.057,-174.289 415.439,-161.113 440,-138 453.217,-125.562 457.501,-104.765 458.764,-89.4385"/>
<polygon fill="midnightblue" stroke="midnightblue" points="462.26,-89.5966 459.234,-79.4431 455.268,-89.2676 462.26,-89.5966"/>
</g>
<!-- Node8 -->
<g id="node8" class="node"><title>Node8</title>
<polygon fill="white" stroke="#bfbfbf" points="66.2734,-117 66.2734,-137 111.727,-137 111.727,-117 66.2734,-117"/>
<text text-anchor="middle" x="89" y="-123" font-family="Helvetica,sans-Serif" font-size="10.00">cstring</text>
</g>
<!-- Node6&#45;&gt;Node8 -->
<g id="edge7" class="edge"><title>Node6&#45;&gt;Node8</title>
<path fill="none" stroke="midnightblue" d="M203.684,-174.878C181.193,-165.685 146.27,-151.409 120.868,-141.026"/>
<polygon fill="midnightblue" stroke="midnightblue" points="121.888,-137.662 111.307,-137.118 119.239,-144.142 121.888,-137.662"/>
</g>
<!-- Node9 -->
<g id="node9" class="node"><title>Node9</title>
<polygon fill="white" stroke="#bfbfbf" points="129.828,-117 129.828,-137 184.172,-137 184.172,-117 129.828,-117"/>
<text text-anchor="middle" x="157" y="-123" font-family="Helvetica,sans-Serif" font-size="10.00">iostream</text>
</g>
<!-- Node6&#45;&gt;Node9 -->
<g id="edge8" class="edge"><title>Node6&#45;&gt;Node9</title>
<path fill="none" stroke="midnightblue" d="M214.606,-174.753C204.156,-166.272 188.473,-153.543 176.107,-143.507"/>
<polygon fill="midnightblue" stroke="midnightblue" points="178.152,-140.659 168.182,-137.075 173.741,-146.095 178.152,-140.659"/>
</g>
<!-- Node10 -->
<g id="node10" class="node"><title>Node10</title>
<polygon fill="white" stroke="#bfbfbf" points="201.884,-117 201.884,-137 250.116,-137 250.116,-117 201.884,-117"/>
<text text-anchor="middle" x="226" y="-123" font-family="Helvetica,sans-Serif" font-size="10.00">cassert</text>
</g>
<!-- Node6&#45;&gt;Node10 -->
<g id="edge9" class="edge"><title>Node6&#45;&gt;Node10</title>
<path fill="none" stroke="midnightblue" d="M226,-174.753C226,-167.25 226,-156.424 226,-147.078"/>
<polygon fill="midnightblue" stroke="midnightblue" points="229.5,-147.075 226,-137.075 222.5,-147.075 229.5,-147.075"/>
</g>
<!-- Node11 -->
<g id="node11" class="node"><title>Node11</title>
<polygon fill="white" stroke="#bfbfbf" points="268.613,-117 268.613,-137 307.387,-137 307.387,-117 268.613,-117"/>
<text text-anchor="middle" x="288" y="-123" font-family="Helvetica,sans-Serif" font-size="10.00">limits</text>
</g>
<!-- Node6&#45;&gt;Node11 -->
<g id="edge10" class="edge"><title>Node6&#45;&gt;Node11</title>
<path fill="none" stroke="midnightblue" d="M236.238,-174.753C245.537,-166.353 259.45,-153.787 270.51,-143.798"/>
<polygon fill="midnightblue" stroke="midnightblue" points="272.877,-146.375 277.952,-137.075 268.185,-141.181 272.877,-146.375"/>
</g>
<!-- Node12 -->
<g id="node12" class="node"><title>Node12</title>
<g id="a_node12"><a xlink:href="_cinder_math_8h.html" target="_top" xlink:title="cinder/CinderMath.h">
<polygon fill="white" stroke="black" points="324.978,-117 324.978,-137 431.022,-137 431.022,-117 324.978,-117"/>
<text text-anchor="middle" x="378" y="-123" font-family="Helvetica,sans-Serif" font-size="10.00">cinder/CinderMath.h</text>
</a>
</g>
</g>
<!-- Node6&#45;&gt;Node12 -->
<g id="edge11" class="edge"><title>Node6&#45;&gt;Node12</title>
<path fill="none" stroke="midnightblue" d="M250.76,-174.878C276.044,-165.563 315.491,-151.03 343.76,-140.615"/>
<polygon fill="midnightblue" stroke="midnightblue" points="345.077,-143.859 353.251,-137.118 342.657,-137.291 345.077,-143.859"/>
</g>
<!-- Node12&#45;&gt;Node2 -->
<g id="edge12" class="edge"><title>Node12&#45;&gt;Node2</title>
<path fill="none" stroke="midnightblue" d="M334.643,-116.94C287.521,-107.094 212.244,-91.3645 161.984,-80.8623"/>
<polygon fill="midnightblue" stroke="midnightblue" points="162.474,-77.3892 151.969,-78.7697 161.042,-84.2412 162.474,-77.3892"/>
</g>
<!-- Node12&#45;&gt;Node7 -->
<g id="edge13" class="edge"><title>Node12&#45;&gt;Node7</title>
<path fill="none" stroke="midnightblue" d="M391.376,-116.753C403.878,-108.109 422.764,-95.0518 437.403,-84.9314"/>
<polygon fill="midnightblue" stroke="midnightblue" points="439.638,-87.641 445.873,-79.0752 435.657,-81.8831 439.638,-87.641"/>
</g>
<!-- Node13 -->
<g id="node13" class="node"><title>Node13</title>
<polygon fill="white" stroke="#bfbfbf" points="375.113,-59 375.113,-79 418.887,-79 418.887,-59 375.113,-59"/>
<text text-anchor="middle" x="397" y="-65" font-family="Helvetica,sans-Serif" font-size="10.00">climits</text>
</g>
<!-- Node12&#45;&gt;Node13 -->
<g id="edge14" class="edge"><title>Node12&#45;&gt;Node13</title>
<path fill="none" stroke="midnightblue" d="M381.137,-116.753C383.711,-109.169 387.436,-98.1881 390.63,-88.7739"/>
<polygon fill="midnightblue" stroke="midnightblue" points="394.022,-89.6695 393.921,-79.0752 387.393,-87.4204 394.022,-89.6695"/>
</g>
<!-- Node14 -->
<g id="node14" class="node"><title>Node14</title>
<polygon fill="white" stroke="#bfbfbf" points="241.049,-59 241.049,-79 280.951,-79 280.951,-59 241.049,-59"/>
<text text-anchor="middle" x="261" y="-65" font-family="Helvetica,sans-Serif" font-size="10.00">cfloat</text>
</g>
<!-- Node12&#45;&gt;Node14 -->
<g id="edge15" class="edge"><title>Node12&#45;&gt;Node14</title>
<path fill="none" stroke="midnightblue" d="M358.942,-116.878C339.989,-107.807 310.699,-93.7876 289.084,-83.4418"/>
<polygon fill="midnightblue" stroke="midnightblue" points="290.581,-80.2784 280.05,-79.1181 287.559,-86.5925 290.581,-80.2784"/>
</g>
<!-- Node15 -->
<g id="node15" class="node"><title>Node15</title>
<polygon fill="white" stroke="#bfbfbf" points="298.596,-59 298.596,-79 357.404,-79 357.404,-59 298.596,-59"/>
<text text-anchor="middle" x="328" y="-65" font-family="Helvetica,sans-Serif" font-size="10.00">functional</text>
</g>
<!-- Node12&#45;&gt;Node15 -->
<g id="edge16" class="edge"><title>Node12&#45;&gt;Node15</title>
<path fill="none" stroke="midnightblue" d="M369.744,-116.753C362.463,-108.598 351.675,-96.5158 342.89,-86.6769"/>
<polygon fill="midnightblue" stroke="midnightblue" points="345.374,-84.2035 336.103,-79.0752 340.152,-88.8657 345.374,-84.2035"/>
</g>
</g>
</svg>
