<?xml version="1.0" encoding="UTF-8" standalone="no"?>
<!DOCTYPE svg PUBLIC "-//W3C//DTD SVG 1.1//EN"
 "http://www.w3.org/Graphics/SVG/1.1/DTD/svg11.dtd">
<!-- Generated by graphviz version 2.30.1 (20140712.1814)
 -->
<!-- Title: include/cinder/Plane.h Pages: 1 -->
<svg width="257pt" height="146pt"
 viewBox="0.00 0.00 257.00 146.00" xmlns="http://www.w3.org/2000/svg" xmlns:xlink="http://www.w3.org/1999/xlink">
<g id="graph0" class="graph" transform="scale(1 1) rotate(0) translate(4 142)">
<title>include/cinder/Plane.h</title>
<polygon fill="white" stroke="white" points="-4,5 -4,-142 254,-142 254,5 -4,5"/>
<!-- Node1 -->
<g id="node1" class="node"><title>Node1</title>
<polygon fill="#bfbfbf" stroke="black" points="71.8008,-117 71.8008,-137 186.199,-137 186.199,-117 71.8008,-117"/>
<text text-anchor="middle" x="129" y="-123" font-family="Helvetica,sans-Serif" font-size="10.00">include/cinder/Plane.h</text>
</g>
<!-- Node2 -->
<g id="node2" class="node"><title>Node2</title>
<g id="a_node2"><a xlink:href="_frustum_8h.html" target="_top" xlink:title="include/cinder/Frustum.h">
<polygon fill="white" stroke="black" points="-0.746094,-59 -0.746094,-79 124.746,-79 124.746,-59 -0.746094,-59"/>
<text text-anchor="middle" x="62" y="-65" font-family="Helvetica,sans-Serif" font-size="10.00">include/cinder/Frustum.h</text>
</a>
</g>
</g>
<!-- Node1&#45;&gt;Node2 -->
<g id="edge1" class="edge"><title>Node1&#45;&gt;Node2</title>
<path fill="none" stroke="midnightblue" d="M110.202,-110.288C98.1514,-100.216 82.9352,-87.4981 72.8578,-79.0752"/>
<polygon fill="midnightblue" stroke="midnightblue" points="108.019,-113.025 117.936,-116.753 112.508,-107.654 108.019,-113.025"/>
</g>
<!-- Node4 -->
<g id="node4" class="node"><title>Node4</title>
<g id="a_node4"><a xlink:href="_plane_8cpp.html" target="_top" xlink:title="src/cinder/Plane.cpp">
<polygon fill="white" stroke="black" points="142.7,-59 142.7,-79 249.3,-79 249.3,-59 142.7,-59"/>
<text text-anchor="middle" x="196" y="-65" font-family="Helvetica,sans-Serif" font-size="10.00">src/cinder/Plane.cpp</text>
</a>
</g>
</g>
<!-- Node1&#45;&gt;Node4 -->
<g id="edge3" class="edge"><title>Node1&#45;&gt;Node4</title>
<path fill="none" stroke="midnightblue" d="M147.798,-110.288C159.849,-100.216 175.065,-87.4981 185.142,-79.0752"/>
<polygon fill="midnightblue" stroke="midnightblue" points="145.492,-107.654 140.064,-116.753 149.981,-113.025 145.492,-107.654"/>
</g>
<!-- Node3 -->
<g id="node3" class="node"><title>Node3</title>
<g id="a_node3"><a xlink:href="_frustum_8cpp.html" target="_top" xlink:title="src/cinder/Frustum.cpp">
<polygon fill="white" stroke="black" points="3.15283,-1 3.15283,-21 120.847,-21 120.847,-1 3.15283,-1"/>
<text text-anchor="middle" x="62" y="-7" font-family="Helvetica,sans-Serif" font-size="10.00">src/cinder/Frustum.cpp</text>
</a>
</g>
</g>
<!-- Node2&#45;&gt;Node3 -->
<g id="edge2" class="edge"><title>Node2&#45;&gt;Node3</title>
<path fill="none" stroke="midnightblue" d="M62,-48.7065C62,-39.3384 62,-28.5262 62,-21.0752"/>
<polygon fill="midnightblue" stroke="midnightblue" points="58.5001,-48.7527 62,-58.7527 65.5001,-48.7528 58.5001,-48.7527"/>
</g>
</g>
</svg>
