<?xml version="1.0" encoding="UTF-8" standalone="no"?>
<!DOCTYPE svg PUBLIC "-//W3C//DTD SVG 1.1//EN"
 "http://www.w3.org/Graphics/SVG/1.1/DTD/svg11.dtd">
<!-- Generated by graphviz version 2.30.1 (20140712.1814)
 -->
<!-- Title: include/cinder/dx/PlatformHelpers.h Pages: 1 -->
<svg width="138pt" height="112pt"
 viewBox="0.00 0.00 138.00 112.00" xmlns="http://www.w3.org/2000/svg" xmlns:xlink="http://www.w3.org/1999/xlink">
<g id="graph0" class="graph" transform="scale(1 1) rotate(0) translate(4 108)">
<title>include/cinder/dx/PlatformHelpers.h</title>
<polygon fill="white" stroke="white" points="-4,5 -4,-108 135,-108 135,5 -4,5"/>
<!-- Node1 -->
<g id="node1" class="node"><title>Node1</title>
<polygon fill="#bfbfbf" stroke="black" points="-0.526855,-71 -0.526855,-103 130.527,-103 130.527,-71 -0.526855,-71"/>
<text text-anchor="start" x="7.47314" y="-89" font-family="Helvetica,sans-Serif" font-size="10.00">include/cinder/dx/Platform</text>
<text text-anchor="middle" x="65" y="-77" font-family="Helvetica,sans-Serif" font-size="10.00">Helpers.h</text>
</g>
<!-- Node2 -->
<g id="node2" class="node"><title>Node2</title>
<g id="a_node2"><a xlink:href="_d_d_s_texture_loader_8cpp.html" target="_top" xlink:title="src/cinder/dx/DDSTexture\lLoader.cpp">
<polygon fill="white" stroke="black" points="0.31543,-1 0.31543,-33 129.685,-33 129.685,-1 0.31543,-1"/>
<text text-anchor="start" x="8.31543" y="-19" font-family="Helvetica,sans-Serif" font-size="10.00">src/cinder/dx/DDSTexture</text>
<text text-anchor="middle" x="65" y="-7" font-family="Helvetica,sans-Serif" font-size="10.00">Loader.cpp</text>
</a>
</g>
</g>
<!-- Node1&#45;&gt;Node2 -->
<g id="edge1" class="edge"><title>Node1&#45;&gt;Node2</title>
<path fill="none" stroke="midnightblue" d="M65,-60.6174C65,-51.3378 65,-41.1413 65,-33.0492"/>
<polygon fill="midnightblue" stroke="midnightblue" points="61.5001,-60.9086 65,-70.9086 68.5001,-60.9086 61.5001,-60.9086"/>
</g>
</g>
</svg>
