<?xml version="1.0" encoding="UTF-8" standalone="no"?>
<!DOCTYPE svg PUBLIC "-//W3C//DTD SVG 1.1//EN"
 "http://www.w3.org/Graphics/SVG/1.1/DTD/svg11.dtd">
<!-- Generated by graphviz version 2.30.1 (20140712.1814)
 -->
<!-- Title: src/cinder/Plane.cpp Pages: 1 -->
<svg width="484pt" height="320pt"
 viewBox="0.00 0.00 484.00 320.00" xmlns="http://www.w3.org/2000/svg" xmlns:xlink="http://www.w3.org/1999/xlink">
<g id="graph0" class="graph" transform="scale(1 1) rotate(0) translate(4 316)">
<title>src/cinder/Plane.cpp</title>
<polygon fill="white" stroke="white" points="-4,5 -4,-316 481,-316 481,5 -4,5"/>
<!-- Node1 -->
<g id="node1" class="node"><title>Node1</title>
<polygon fill="#bfbfbf" stroke="black" points="35.6997,-291 35.6997,-311 142.3,-311 142.3,-291 35.6997,-291"/>
<text text-anchor="middle" x="89" y="-297" font-family="Helvetica,sans-Serif" font-size="10.00">src/cinder/Plane.cpp</text>
</g>
<!-- Node2 -->
<g id="node2" class="node"><title>Node2</title>
<g id="a_node2"><a xlink:href="_plane_8h.html" target="_top" xlink:title="cinder/Plane.h">
<polygon fill="white" stroke="black" points="49.0347,-233 49.0347,-253 128.965,-253 128.965,-233 49.0347,-233"/>
<text text-anchor="middle" x="89" y="-239" font-family="Helvetica,sans-Serif" font-size="10.00">cinder/Plane.h</text>
</a>
</g>
</g>
<!-- Node1&#45;&gt;Node2 -->
<g id="edge1" class="edge"><title>Node1&#45;&gt;Node2</title>
<path fill="none" stroke="midnightblue" d="M89,-290.753C89,-283.25 89,-272.424 89,-263.078"/>
<polygon fill="midnightblue" stroke="midnightblue" points="92.5001,-263.075 89,-253.075 85.5001,-263.075 92.5001,-263.075"/>
</g>
<!-- Node3 -->
<g id="node3" class="node"><title>Node3</title>
<g id="a_node3"><a xlink:href="_vector_8h.html" target="_top" xlink:title="cinder/Vector.h">
<polygon fill="white" stroke="black" points="91.9189,-175 91.9189,-195 174.081,-195 174.081,-175 91.9189,-175"/>
<text text-anchor="middle" x="133" y="-181" font-family="Helvetica,sans-Serif" font-size="10.00">cinder/Vector.h</text>
</a>
</g>
</g>
<!-- Node2&#45;&gt;Node3 -->
<g id="edge2" class="edge"><title>Node2&#45;&gt;Node3</title>
<path fill="none" stroke="midnightblue" d="M96.2657,-232.753C102.609,-224.68 111.977,-212.757 119.664,-202.973"/>
<polygon fill="midnightblue" stroke="midnightblue" points="122.443,-205.101 125.869,-195.075 116.939,-200.776 122.443,-205.101"/>
</g>
<!-- Node6 -->
<g id="node6" class="node"><title>Node6</title>
<polygon fill="white" stroke="#bfbfbf" points="-0.172363,-117 -0.172363,-137 54.1724,-137 54.1724,-117 -0.172363,-117"/>
<text text-anchor="middle" x="27" y="-123" font-family="Helvetica,sans-Serif" font-size="10.00">iostream</text>
</g>
<!-- Node2&#45;&gt;Node6 -->
<g id="edge17" class="edge"><title>Node2&#45;&gt;Node6</title>
<path fill="none" stroke="midnightblue" d="M83.9263,-232.671C73.6572,-213.789 50.2524,-170.754 36.8704,-146.149"/>
<polygon fill="midnightblue" stroke="midnightblue" points="39.823,-144.252 31.9705,-137.139 33.6736,-147.596 39.823,-144.252"/>
</g>
<!-- Node4 -->
<g id="node4" class="node"><title>Node4</title>
<polygon fill="white" stroke="#bfbfbf" points="113.384,-59 113.384,-79 156.616,-79 156.616,-59 113.384,-59"/>
<text text-anchor="middle" x="135" y="-65" font-family="Helvetica,sans-Serif" font-size="10.00">cmath</text>
</g>
<!-- Node3&#45;&gt;Node4 -->
<g id="edge3" class="edge"><title>Node3&#45;&gt;Node4</title>
<path fill="none" stroke="midnightblue" d="M123.473,-174.618C111.634,-161.772 93.8145,-137.81 101,-116 104.552,-105.219 111.709,-94.8958 118.545,-86.77"/>
<polygon fill="midnightblue" stroke="midnightblue" points="121.297,-88.9442 125.388,-79.1707 116.095,-84.2602 121.297,-88.9442"/>
</g>
<!-- Node5 -->
<g id="node5" class="node"><title>Node5</title>
<polygon fill="white" stroke="#bfbfbf" points="110.273,-117 110.273,-137 155.727,-137 155.727,-117 110.273,-117"/>
<text text-anchor="middle" x="133" y="-123" font-family="Helvetica,sans-Serif" font-size="10.00">cstring</text>
</g>
<!-- Node3&#45;&gt;Node5 -->
<g id="edge4" class="edge"><title>Node3&#45;&gt;Node5</title>
<path fill="none" stroke="midnightblue" d="M133,-174.753C133,-167.25 133,-156.424 133,-147.078"/>
<polygon fill="midnightblue" stroke="midnightblue" points="136.5,-147.075 133,-137.075 129.5,-147.075 136.5,-147.075"/>
</g>
<!-- Node3&#45;&gt;Node6 -->
<g id="edge5" class="edge"><title>Node3&#45;&gt;Node6</title>
<path fill="none" stroke="midnightblue" d="M115.496,-174.753C98.517,-165.783 72.5423,-152.06 53.1188,-141.799"/>
<polygon fill="midnightblue" stroke="midnightblue" points="54.6549,-138.652 44.178,-137.075 51.385,-144.841 54.6549,-138.652"/>
</g>
<!-- Node7 -->
<g id="node7" class="node"><title>Node7</title>
<polygon fill="white" stroke="#bfbfbf" points="173.884,-117 173.884,-137 222.116,-137 222.116,-117 173.884,-117"/>
<text text-anchor="middle" x="198" y="-123" font-family="Helvetica,sans-Serif" font-size="10.00">cassert</text>
</g>
<!-- Node3&#45;&gt;Node7 -->
<g id="edge6" class="edge"><title>Node3&#45;&gt;Node7</title>
<path fill="none" stroke="midnightblue" d="M143.733,-174.753C153.483,-166.353 168.068,-153.787 179.664,-143.798"/>
<polygon fill="midnightblue" stroke="midnightblue" points="182.175,-146.254 187.466,-137.075 177.606,-140.951 182.175,-146.254"/>
</g>
<!-- Node8 -->
<g id="node8" class="node"><title>Node8</title>
<polygon fill="white" stroke="#bfbfbf" points="240.613,-117 240.613,-137 279.387,-137 279.387,-117 240.613,-117"/>
<text text-anchor="middle" x="260" y="-123" font-family="Helvetica,sans-Serif" font-size="10.00">limits</text>
</g>
<!-- Node3&#45;&gt;Node8 -->
<g id="edge7" class="edge"><title>Node3&#45;&gt;Node8</title>
<path fill="none" stroke="midnightblue" d="M153.687,-174.878C174.815,-165.562 207.777,-151.027 231.397,-140.612"/>
<polygon fill="midnightblue" stroke="midnightblue" points="232.834,-143.804 240.572,-136.567 230.01,-137.399 232.834,-143.804"/>
</g>
<!-- Node9 -->
<g id="node9" class="node"><title>Node9</title>
<g id="a_node9"><a xlink:href="_cinder_math_8h.html" target="_top" xlink:title="cinder/CinderMath.h">
<polygon fill="white" stroke="black" points="296.978,-117 296.978,-137 403.022,-137 403.022,-117 296.978,-117"/>
<text text-anchor="middle" x="350" y="-123" font-family="Helvetica,sans-Serif" font-size="10.00">cinder/CinderMath.h</text>
</a>
</g>
</g>
<!-- Node3&#45;&gt;Node9 -->
<g id="edge8" class="edge"><title>Node3&#45;&gt;Node9</title>
<path fill="none" stroke="midnightblue" d="M168.348,-174.878C205.658,-165.249 264.572,-150.046 305.134,-139.578"/>
<polygon fill="midnightblue" stroke="midnightblue" points="306.219,-142.913 315.027,-137.025 304.47,-136.135 306.219,-142.913"/>
</g>
<!-- Node10 -->
<g id="node10" class="node"><title>Node10</title>
<g id="a_node10"><a xlink:href="_cinder_8h.html" target="_top" xlink:title="cinder/Cinder.h">
<polygon fill="white" stroke="black" points="196.367,-59 196.367,-79 279.633,-79 279.633,-59 196.367,-59"/>
<text text-anchor="middle" x="238" y="-65" font-family="Helvetica,sans-Serif" font-size="10.00">cinder/Cinder.h</text>
</a>
</g>
</g>
<!-- Node9&#45;&gt;Node10 -->
<g id="edge9" class="edge"><title>Node9&#45;&gt;Node10</title>
<path fill="none" stroke="midnightblue" d="M331.505,-116.753C313.484,-107.742 285.871,-93.9353 265.318,-83.6589"/>
<polygon fill="midnightblue" stroke="midnightblue" points="266.66,-80.4169 256.15,-79.0752 263.529,-86.6779 266.66,-80.4169"/>
</g>
<!-- Node9&#45;&gt;Node4 -->
<g id="edge13" class="edge"><title>Node9&#45;&gt;Node4</title>
<path fill="none" stroke="midnightblue" d="M314.978,-116.878C273.908,-106.181 206.419,-88.6022 166.796,-78.2817"/>
<polygon fill="midnightblue" stroke="midnightblue" points="167.439,-74.8325 156.88,-75.6989 165.675,-81.6065 167.439,-74.8325"/>
</g>
<!-- Node14 -->
<g id="node14" class="node"><title>Node14</title>
<polygon fill="white" stroke="#bfbfbf" points="298.113,-59 298.113,-79 341.887,-79 341.887,-59 298.113,-59"/>
<text text-anchor="middle" x="320" y="-65" font-family="Helvetica,sans-Serif" font-size="10.00">climits</text>
</g>
<!-- Node9&#45;&gt;Node14 -->
<g id="edge14" class="edge"><title>Node9&#45;&gt;Node14</title>
<path fill="none" stroke="midnightblue" d="M345.046,-116.753C340.896,-109.006 334.847,-97.7142 329.733,-88.1688"/>
<polygon fill="midnightblue" stroke="midnightblue" points="332.669,-86.2372 324.862,-79.0752 326.499,-89.5428 332.669,-86.2372"/>
</g>
<!-- Node15 -->
<g id="node15" class="node"><title>Node15</title>
<polygon fill="white" stroke="#bfbfbf" points="360.049,-59 360.049,-79 399.951,-79 399.951,-59 360.049,-59"/>
<text text-anchor="middle" x="380" y="-65" font-family="Helvetica,sans-Serif" font-size="10.00">cfloat</text>
</g>
<!-- Node9&#45;&gt;Node15 -->
<g id="edge15" class="edge"><title>Node9&#45;&gt;Node15</title>
<path fill="none" stroke="midnightblue" d="M354.954,-116.753C359.104,-109.006 365.153,-97.7142 370.267,-88.1688"/>
<polygon fill="midnightblue" stroke="midnightblue" points="373.501,-89.5428 375.138,-79.0752 367.331,-86.2372 373.501,-89.5428"/>
</g>
<!-- Node16 -->
<g id="node16" class="node"><title>Node16</title>
<polygon fill="white" stroke="#bfbfbf" points="417.596,-59 417.596,-79 476.404,-79 476.404,-59 417.596,-59"/>
<text text-anchor="middle" x="447" y="-65" font-family="Helvetica,sans-Serif" font-size="10.00">functional</text>
</g>
<!-- Node9&#45;&gt;Node16 -->
<g id="edge16" class="edge"><title>Node9&#45;&gt;Node16</title>
<path fill="none" stroke="midnightblue" d="M366.018,-116.753C381.414,-107.864 404.893,-94.3092 422.613,-84.0793"/>
<polygon fill="midnightblue" stroke="midnightblue" points="424.37,-87.1062 431.28,-79.0752 420.87,-81.0439 424.37,-87.1062"/>
</g>
<!-- Node11 -->
<g id="node11" class="node"><title>Node11</title>
<polygon fill="white" stroke="#bfbfbf" points="127.549,-1 127.549,-21 172.451,-21 172.451,-1 127.549,-1"/>
<text text-anchor="middle" x="150" y="-7" font-family="Helvetica,sans-Serif" font-size="10.00">cstdint</text>
</g>
<!-- Node10&#45;&gt;Node11 -->
<g id="edge10" class="edge"><title>Node10&#45;&gt;Node11</title>
<path fill="none" stroke="midnightblue" d="M223.469,-58.7527C209.757,-50.0272 188.979,-36.8051 173.015,-26.6458"/>
<polygon fill="midnightblue" stroke="midnightblue" points="174.577,-23.4912 164.261,-21.0752 170.819,-29.3968 174.577,-23.4912"/>
</g>
<!-- Node12 -->
<g id="node12" class="node"><title>Node12</title>
<polygon fill="white" stroke="#bfbfbf" points="190.53,-1 190.53,-21 285.47,-21 285.47,-1 190.53,-1"/>
<text text-anchor="middle" x="238" y="-7" font-family="Helvetica,sans-Serif" font-size="10.00">boost/version.hpp</text>
</g>
<!-- Node10&#45;&gt;Node12 -->
<g id="edge11" class="edge"><title>Node10&#45;&gt;Node12</title>
<path fill="none" stroke="midnightblue" d="M238,-58.7527C238,-51.2504 238,-40.4238 238,-31.0781"/>
<polygon fill="midnightblue" stroke="midnightblue" points="241.5,-31.0752 238,-21.0752 234.5,-31.0752 241.5,-31.0752"/>
</g>
<!-- Node13 -->
<g id="node13" class="node"><title>Node13</title>
<polygon fill="white" stroke="#bfbfbf" points="303.621,-1 303.621,-21 436.379,-21 436.379,-1 303.621,-1"/>
<text text-anchor="middle" x="370" y="-7" font-family="Helvetica,sans-Serif" font-size="10.00">boost/checked_delete.hpp</text>
</g>
<!-- Node10&#45;&gt;Node13 -->
<g id="edge12" class="edge"><title>Node10&#45;&gt;Node13</title>
<path fill="none" stroke="midnightblue" d="M259.502,-58.878C281.172,-49.6848 314.821,-35.4095 339.295,-25.0263"/>
<polygon fill="midnightblue" stroke="midnightblue" points="340.668,-28.2457 348.507,-21.1181 337.935,-21.8016 340.668,-28.2457"/>
</g>
</g>
</svg>
