<?xml version="1.0" encoding="UTF-8" standalone="no"?>
<!DOCTYPE svg PUBLIC "-//W3C//DTD SVG 1.1//EN"
 "http://www.w3.org/Graphics/SVG/1.1/DTD/svg11.dtd">
<!-- Generated by graphviz version 2.30.1 (20140712.1814)
 -->
<!-- Title: include/cinder/dx/PlatformHelpers.h Pages: 1 -->
<svg width="138pt" height="100pt"
 viewBox="0.00 0.00 138.00 100.00" xmlns="http://www.w3.org/2000/svg" xmlns:xlink="http://www.w3.org/1999/xlink">
<g id="graph0" class="graph" transform="scale(1 1) rotate(0) translate(4 96)">
<title>include/cinder/dx/PlatformHelpers.h</title>
<polygon fill="white" stroke="white" points="-4,5 -4,-96 135,-96 135,5 -4,5"/>
<!-- Node1 -->
<g id="node1" class="node"><title>Node1</title>
<polygon fill="#bfbfbf" stroke="black" points="-0.526855,-59 -0.526855,-91 130.527,-91 130.527,-59 -0.526855,-59"/>
<text text-anchor="start" x="7.47314" y="-77" font-family="Helvetica,sans-Serif" font-size="10.00">include/cinder/dx/Platform</text>
<text text-anchor="middle" x="65" y="-65" font-family="Helvetica,sans-Serif" font-size="10.00">Helpers.h</text>
</g>
<!-- Node2 -->
<g id="node2" class="node"><title>Node2</title>
<polygon fill="white" stroke="#bfbfbf" points="1.59619,-1 1.59619,-21 60.4038,-21 60.4038,-1 1.59619,-1"/>
<text text-anchor="middle" x="31" y="-7" font-family="Helvetica,sans-Serif" font-size="10.00">exception</text>
</g>
<!-- Node1&#45;&gt;Node2 -->
<g id="edge1" class="edge"><title>Node1&#45;&gt;Node2</title>
<path fill="none" stroke="midnightblue" d="M56.7695,-58.9915C52.0356,-50.359 46.0523,-39.4483 41.0429,-30.3136"/>
<polygon fill="midnightblue" stroke="midnightblue" points="43.972,-28.3756 36.0947,-21.2904 37.8343,-31.7415 43.972,-28.3756"/>
</g>
<!-- Node3 -->
<g id="node3" class="node"><title>Node3</title>
<polygon fill="white" stroke="#bfbfbf" points="78.3843,-1 78.3843,-21 121.616,-21 121.616,-1 78.3843,-1"/>
<text text-anchor="middle" x="100" y="-7" font-family="Helvetica,sans-Serif" font-size="10.00">mutex</text>
</g>
<!-- Node1&#45;&gt;Node3 -->
<g id="edge2" class="edge"><title>Node1&#45;&gt;Node3</title>
<path fill="none" stroke="midnightblue" d="M73.4725,-58.9915C78.3975,-50.2672 84.6362,-39.2159 89.8259,-30.0227"/>
<polygon fill="midnightblue" stroke="midnightblue" points="92.8873,-31.7193 94.7554,-21.2904 86.7915,-28.2781 92.8873,-31.7193"/>
</g>
</g>
</svg>
