<?xml version="1.0" encoding="UTF-8" standalone="no"?>
<!DOCTYPE svg PUBLIC "-//W3C//DTD SVG 1.1//EN"
 "http://www.w3.org/Graphics/SVG/1.1/DTD/svg11.dtd">
<!-- Generated by graphviz version 2.30.1 (20140712.1814)
 -->
<!-- Title: include/cinder/qtime/QuickTimeUtils.h Pages: 1 -->
<svg width="1989pt" height="506pt"
 viewBox="0.00 0.00 1989.00 506.00" xmlns="http://www.w3.org/2000/svg" xmlns:xlink="http://www.w3.org/1999/xlink">
<g id="graph0" class="graph" transform="scale(1 1) rotate(0) translate(4 502)">
<title>include/cinder/qtime/QuickTimeUtils.h</title>
<polygon fill="white" stroke="white" points="-4,5 -4,-502 1986,-502 1986,5 -4,5"/>
<!-- Node1 -->
<g id="node1" class="node"><title>Node1</title>
<polygon fill="#bfbfbf" stroke="black" points="1575.53,-465 1575.53,-497 1680.47,-497 1680.47,-465 1575.53,-465"/>
<text text-anchor="start" x="1583.53" y="-483" font-family="Helvetica,sans-Serif" font-size="10.00">include/cinder/qtime</text>
<text text-anchor="middle" x="1628" y="-471" font-family="Helvetica,sans-Serif" font-size="10.00">/QuickTimeUtils.h</text>
</g>
<!-- Node2 -->
<g id="node2" class="node"><title>Node2</title>
<g id="a_node2"><a xlink:href="_cinder_8h.html" target="_top" xlink:title="cinder/Cinder.h">
<polygon fill="white" stroke="black" points="783.367,-59 783.367,-79 866.633,-79 866.633,-59 783.367,-59"/>
<text text-anchor="middle" x="825" y="-65" font-family="Helvetica,sans-Serif" font-size="10.00">cinder/Cinder.h</text>
</a>
</g>
</g>
<!-- Node1&#45;&gt;Node2 -->
<g id="edge1" class="edge"><title>Node1&#45;&gt;Node2</title>
<path fill="none" stroke="midnightblue" d="M1575.29,-478.439C1315.41,-470.406 183,-431.311 183,-360 183,-360 183,-360 183,-184 183,-145.954 201.573,-134.169 235,-116 281.627,-90.6555 637.32,-76.2573 772.812,-71.6455"/>
<polygon fill="midnightblue" stroke="midnightblue" points="773.067,-75.139 782.944,-71.3049 772.832,-68.1429 773.067,-75.139"/>
</g>
<!-- Node6 -->
<g id="node6" class="node"><title>Node6</title>
<g id="a_node6"><a xlink:href="_url_8h.html" target="_top" xlink:title="cinder/Url.h">
<polygon fill="white" stroke="black" points="1409.44,-291 1409.44,-311 1476.56,-311 1476.56,-291 1409.44,-291"/>
<text text-anchor="middle" x="1443" y="-297" font-family="Helvetica,sans-Serif" font-size="10.00">cinder/Url.h</text>
</a>
</g>
</g>
<!-- Node1&#45;&gt;Node6 -->
<g id="edge5" class="edge"><title>Node1&#45;&gt;Node6</title>
<path fill="none" stroke="midnightblue" d="M1630.52,-464.778C1634.07,-437.713 1637.19,-380.973 1608,-348 1599.8,-338.743 1532.63,-322.102 1486.56,-311.576"/>
<polygon fill="midnightblue" stroke="midnightblue" points="1487.32,-308.159 1476.79,-309.363 1485.77,-314.986 1487.32,-308.159"/>
</g>
<!-- Node18 -->
<g id="node18" class="node"><title>Node18</title>
<g id="a_node18"><a xlink:href="_surface_8h.html" target="_top" xlink:title="cinder/Surface.h">
<polygon fill="white" stroke="black" points="528.591,-349 528.591,-369 617.409,-369 617.409,-349 528.591,-349"/>
<text text-anchor="middle" x="573" y="-355" font-family="Helvetica,sans-Serif" font-size="10.00">cinder/Surface.h</text>
</a>
</g>
</g>
<!-- Node1&#45;&gt;Node18 -->
<g id="edge23" class="edge"><title>Node1&#45;&gt;Node18</title>
<path fill="none" stroke="midnightblue" d="M1575.32,-474.008C1395.93,-453.603 809.862,-386.942 627.599,-366.21"/>
<polygon fill="midnightblue" stroke="midnightblue" points="627.779,-362.708 617.447,-365.056 626.987,-369.663 627.779,-362.708"/>
</g>
<!-- Node34 -->
<g id="node34" class="node"><title>Node34</title>
<g id="a_node34"><a xlink:href="_image_io_8h.html" target="_top" xlink:title="cinder/ImageIo.h">
<polygon fill="white" stroke="black" points="1490.76,-407 1490.76,-427 1581.24,-427 1581.24,-407 1490.76,-407"/>
<text text-anchor="middle" x="1536" y="-413" font-family="Helvetica,sans-Serif" font-size="10.00">cinder/ImageIo.h</text>
</a>
</g>
</g>
<!-- Node1&#45;&gt;Node34 -->
<g id="edge54" class="edge"><title>Node1&#45;&gt;Node34</title>
<path fill="none" stroke="midnightblue" d="M1605.73,-464.992C1591.2,-455.198 1572.31,-442.471 1557.86,-432.733"/>
<polygon fill="midnightblue" stroke="midnightblue" points="1559.76,-429.795 1549.52,-427.109 1555.85,-435.6 1559.76,-429.795"/>
</g>
<!-- Node11 -->
<g id="node11" class="node"><title>Node11</title>
<polygon fill="white" stroke="#bfbfbf" points="1643.77,-117 1643.77,-137 1684.23,-137 1684.23,-117 1643.77,-117"/>
<text text-anchor="middle" x="1664" y="-123" font-family="Helvetica,sans-Serif" font-size="10.00">string</text>
</g>
<!-- Node1&#45;&gt;Node11 -->
<g id="edge72" class="edge"><title>Node1&#45;&gt;Node11</title>
<path fill="none" stroke="midnightblue" d="M1661.28,-464.938C1695.24,-447.52 1745.98,-415.315 1768,-370 1808.4,-286.888 1720.21,-184.197 1681.27,-144.625"/>
<polygon fill="midnightblue" stroke="midnightblue" points="1683.54,-141.944 1673.99,-137.372 1678.61,-146.906 1683.54,-141.944"/>
</g>
<!-- Node38 -->
<g id="node38" class="node"><title>Node38</title>
<polygon fill="white" stroke="#bfbfbf" points="1853.94,-407 1853.94,-427 1906.06,-427 1906.06,-407 1853.94,-407"/>
<text text-anchor="middle" x="1880" y="-413" font-family="Helvetica,sans-Serif" font-size="10.00">QTML.h</text>
</g>
<!-- Node1&#45;&gt;Node38 -->
<g id="edge73" class="edge"><title>Node1&#45;&gt;Node38</title>
<path fill="none" stroke="midnightblue" d="M1680.73,-467.136C1723.63,-456.652 1785.74,-441.437 1840,-428 1841.25,-427.69 1842.52,-427.375 1843.81,-427.056"/>
<polygon fill="midnightblue" stroke="midnightblue" points="1844.9,-430.392 1853.75,-424.579 1843.2,-423.599 1844.9,-430.392"/>
</g>
<!-- Node39 -->
<g id="node39" class="node"><title>Node39</title>
<polygon fill="white" stroke="#bfbfbf" points="1923.99,-407 1923.99,-427 1980.01,-427 1980.01,-407 1923.99,-407"/>
<text text-anchor="middle" x="1952" y="-413" font-family="Helvetica,sans-Serif" font-size="10.00">Movies.h</text>
</g>
<!-- Node1&#45;&gt;Node39 -->
<g id="edge74" class="edge"><title>Node1&#45;&gt;Node39</title>
<path fill="none" stroke="midnightblue" d="M1680.64,-471.836C1736.32,-462.894 1826.9,-447.474 1914,-428.088"/>
<polygon fill="midnightblue" stroke="midnightblue" points="1914.79,-431.498 1923.78,-425.891 1913.26,-424.668 1914.79,-431.498"/>
</g>
<!-- Node3 -->
<g id="node3" class="node"><title>Node3</title>
<polygon fill="white" stroke="#bfbfbf" points="714.549,-1 714.549,-21 759.451,-21 759.451,-1 714.549,-1"/>
<text text-anchor="middle" x="737" y="-7" font-family="Helvetica,sans-Serif" font-size="10.00">cstdint</text>
</g>
<!-- Node2&#45;&gt;Node3 -->
<g id="edge2" class="edge"><title>Node2&#45;&gt;Node3</title>
<path fill="none" stroke="midnightblue" d="M810.469,-58.7527C796.757,-50.0272 775.979,-36.8051 760.015,-26.6458"/>
<polygon fill="midnightblue" stroke="midnightblue" points="761.577,-23.4912 751.261,-21.0752 757.819,-29.3968 761.577,-23.4912"/>
</g>
<!-- Node4 -->
<g id="node4" class="node"><title>Node4</title>
<polygon fill="white" stroke="#bfbfbf" points="777.53,-1 777.53,-21 872.47,-21 872.47,-1 777.53,-1"/>
<text text-anchor="middle" x="825" y="-7" font-family="Helvetica,sans-Serif" font-size="10.00">boost/version.hpp</text>
</g>
<!-- Node2&#45;&gt;Node4 -->
<g id="edge3" class="edge"><title>Node2&#45;&gt;Node4</title>
<path fill="none" stroke="midnightblue" d="M825,-58.7527C825,-51.2504 825,-40.4238 825,-31.0781"/>
<polygon fill="midnightblue" stroke="midnightblue" points="828.5,-31.0752 825,-21.0752 821.5,-31.0752 828.5,-31.0752"/>
</g>
<!-- Node5 -->
<g id="node5" class="node"><title>Node5</title>
<polygon fill="white" stroke="#bfbfbf" points="890.621,-1 890.621,-21 1023.38,-21 1023.38,-1 890.621,-1"/>
<text text-anchor="middle" x="957" y="-7" font-family="Helvetica,sans-Serif" font-size="10.00">boost/checked_delete.hpp</text>
</g>
<!-- Node2&#45;&gt;Node5 -->
<g id="edge4" class="edge"><title>Node2&#45;&gt;Node5</title>
<path fill="none" stroke="midnightblue" d="M846.502,-58.878C868.172,-49.6848 901.821,-35.4095 926.295,-25.0263"/>
<polygon fill="midnightblue" stroke="midnightblue" points="927.668,-28.2457 935.507,-21.1181 924.935,-21.8016 927.668,-28.2457"/>
</g>
<!-- Node6&#45;&gt;Node2 -->
<g id="edge6" class="edge"><title>Node6&#45;&gt;Node2</title>
<path fill="none" stroke="midnightblue" d="M1476.32,-290.991C1560.45,-266.779 1769.49,-196.648 1693,-116 1664.81,-86.278 1059.85,-73.8806 876.933,-70.8028"/>
<polygon fill="midnightblue" stroke="midnightblue" points="876.821,-67.3006 866.764,-70.6341 876.705,-74.2996 876.821,-67.3006"/>
</g>
<!-- Node7 -->
<g id="node7" class="node"><title>Node7</title>
<g id="a_node7"><a xlink:href="_stream_8h.html" target="_top" xlink:title="cinder/Stream.h">
<polygon fill="white" stroke="black" points="1319.71,-233 1319.71,-253 1406.29,-253 1406.29,-233 1319.71,-233"/>
<text text-anchor="middle" x="1363" y="-239" font-family="Helvetica,sans-Serif" font-size="10.00">cinder/Stream.h</text>
</a>
</g>
</g>
<!-- Node6&#45;&gt;Node7 -->
<g id="edge7" class="edge"><title>Node6&#45;&gt;Node7</title>
<path fill="none" stroke="midnightblue" d="M1429.79,-290.753C1417.44,-282.109 1398.79,-269.052 1384.33,-258.931"/>
<polygon fill="midnightblue" stroke="midnightblue" points="1386.16,-255.943 1375.96,-253.075 1382.15,-261.677 1386.16,-255.943"/>
</g>
<!-- Node17 -->
<g id="node17" class="node"><title>Node17</title>
<polygon fill="white" stroke="#bfbfbf" points="586.828,-117 586.828,-137 641.172,-137 641.172,-117 586.828,-117"/>
<text text-anchor="middle" x="614" y="-123" font-family="Helvetica,sans-Serif" font-size="10.00">iostream</text>
</g>
<!-- Node6&#45;&gt;Node17 -->
<g id="edge22" class="edge"><title>Node6&#45;&gt;Node17</title>
<path fill="none" stroke="midnightblue" d="M1409.23,-299.418C1306.47,-296.719 989.606,-281.524 745,-196 726.578,-189.559 724.2,-183.22 707,-174 685.64,-162.55 661.043,-150.429 642.512,-141.505"/>
<polygon fill="midnightblue" stroke="midnightblue" points="643.955,-138.315 633.424,-137.151 640.93,-144.628 643.955,-138.315"/>
</g>
<!-- Node7&#45;&gt;Node2 -->
<g id="edge8" class="edge"><title>Node7&#45;&gt;Node2</title>
<path fill="none" stroke="midnightblue" d="M1406.45,-241.989C1482.51,-240.533 1627.25,-230.522 1578,-174 1531.76,-120.94 1039.75,-84.0954 876.963,-73.2842"/>
<polygon fill="midnightblue" stroke="midnightblue" points="876.934,-69.7748 866.725,-72.6099 876.474,-76.7597 876.934,-69.7748"/>
</g>
<!-- Node8 -->
<g id="node8" class="node"><title>Node8</title>
<g id="a_node8"><a xlink:href="_buffer_8h.html" target="_top" xlink:title="cinder/Buffer.h">
<polygon fill="white" stroke="black" points="911.844,-175 911.844,-195 992.156,-195 992.156,-175 911.844,-175"/>
<text text-anchor="middle" x="952" y="-181" font-family="Helvetica,sans-Serif" font-size="10.00">cinder/Buffer.h</text>
</a>
</g>
</g>
<!-- Node7&#45;&gt;Node8 -->
<g id="edge9" class="edge"><title>Node7&#45;&gt;Node8</title>
<path fill="none" stroke="midnightblue" d="M1319.66,-237.555C1253.45,-230.531 1122.93,-215.773 1002.47,-196.147"/>
<polygon fill="midnightblue" stroke="midnightblue" points="1002.77,-192.65 992.332,-194.48 1001.63,-199.557 1002.77,-192.65"/>
</g>
<!-- Node9 -->
<g id="node9" class="node"><title>Node9</title>
<g id="a_node9"><a xlink:href="_exception_8h.html" target="_top" xlink:title="cinder/Exception.h">
<polygon fill="white" stroke="black" points="1009.86,-175 1009.86,-195 1108.14,-195 1108.14,-175 1009.86,-175"/>
<text text-anchor="middle" x="1059" y="-181" font-family="Helvetica,sans-Serif" font-size="10.00">cinder/Exception.h</text>
</a>
</g>
</g>
<!-- Node7&#45;&gt;Node9 -->
<g id="edge11" class="edge"><title>Node7&#45;&gt;Node9</title>
<path fill="none" stroke="midnightblue" d="M1319.44,-233.977C1266.52,-224.228 1177,-207.737 1117.94,-196.858"/>
<polygon fill="midnightblue" stroke="midnightblue" points="1118.48,-193.399 1108.01,-195.029 1117.21,-200.283 1118.48,-193.399"/>
</g>
<!-- Node12 -->
<g id="node12" class="node"><title>Node12</title>
<g id="a_node12"><a xlink:href="_filesystem_8h.html" target="_top" xlink:title="cinder/Filesystem.h">
<polygon fill="white" stroke="black" points="753.931,-175 753.931,-195 856.069,-195 856.069,-175 753.931,-175"/>
<text text-anchor="middle" x="805" y="-181" font-family="Helvetica,sans-Serif" font-size="10.00">cinder/Filesystem.h</text>
</a>
</g>
</g>
<!-- Node7&#45;&gt;Node12 -->
<g id="edge15" class="edge"><title>Node7&#45;&gt;Node12</title>
<path fill="none" stroke="midnightblue" d="M1319.55,-237.685C1237.93,-229.572 1056.12,-211.468 903,-196 891.102,-194.798 878.393,-193.507 866.203,-192.264"/>
<polygon fill="midnightblue" stroke="midnightblue" points="866.418,-188.768 856.115,-191.236 865.708,-195.732 866.418,-188.768"/>
</g>
<!-- Node14 -->
<g id="node14" class="node"><title>Node14</title>
<polygon fill="white" stroke="#bfbfbf" points="1450.29,-175 1450.29,-195 1569.71,-195 1569.71,-175 1450.29,-175"/>
<text text-anchor="middle" x="1510" y="-181" font-family="Helvetica,sans-Serif" font-size="10.00">boost/noncopyable.hpp</text>
</g>
<!-- Node7&#45;&gt;Node14 -->
<g id="edge18" class="edge"><title>Node7&#45;&gt;Node14</title>
<path fill="none" stroke="midnightblue" d="M1386.95,-232.878C1411.29,-223.603 1449.21,-209.156 1476.53,-198.752"/>
<polygon fill="midnightblue" stroke="midnightblue" points="1477.97,-201.949 1486.06,-195.118 1475.47,-195.407 1477.97,-201.949"/>
</g>
<!-- Node7&#45;&gt;Node11 -->
<g id="edge19" class="edge"><title>Node7&#45;&gt;Node11</title>
<path fill="none" stroke="midnightblue" d="M1406.37,-237.771C1468.27,-231.106 1578.18,-216.748 1612,-196 1631.33,-184.142 1646.09,-162.263 1654.86,-146.521"/>
<polygon fill="midnightblue" stroke="midnightblue" points="1658.19,-147.709 1659.75,-137.23 1651.99,-144.451 1658.19,-147.709"/>
</g>
<!-- Node15 -->
<g id="node15" class="node"><title>Node15</title>
<polygon fill="white" stroke="#bfbfbf" points="1126.57,-175 1126.57,-195 1275.43,-195 1275.43,-175 1126.57,-175"/>
<text text-anchor="middle" x="1201" y="-181" font-family="Helvetica,sans-Serif" font-size="10.00">boost/iostreams/concepts.hpp</text>
</g>
<!-- Node7&#45;&gt;Node15 -->
<g id="edge20" class="edge"><title>Node7&#45;&gt;Node15</title>
<path fill="none" stroke="midnightblue" d="M1336.61,-232.878C1309.47,-223.494 1267,-208.815 1236.83,-198.386"/>
<polygon fill="midnightblue" stroke="midnightblue" points="1237.7,-194.985 1227.11,-195.025 1235.42,-201.6 1237.7,-194.985"/>
</g>
<!-- Node16 -->
<g id="node16" class="node"><title>Node16</title>
<polygon fill="white" stroke="#bfbfbf" points="1293.31,-175 1293.31,-195 1432.69,-195 1432.69,-175 1293.31,-175"/>
<text text-anchor="middle" x="1363" y="-181" font-family="Helvetica,sans-Serif" font-size="10.00">boost/iostreams/stream.hpp</text>
</g>
<!-- Node7&#45;&gt;Node16 -->
<g id="edge21" class="edge"><title>Node7&#45;&gt;Node16</title>
<path fill="none" stroke="midnightblue" d="M1363,-232.753C1363,-225.25 1363,-214.424 1363,-205.078"/>
<polygon fill="midnightblue" stroke="midnightblue" points="1366.5,-205.075 1363,-195.075 1359.5,-205.075 1366.5,-205.075"/>
</g>
<!-- Node8&#45;&gt;Node2 -->
<g id="edge10" class="edge"><title>Node8&#45;&gt;Node2</title>
<path fill="none" stroke="midnightblue" d="M946.193,-174.831C937.103,-160.959 918.428,-134.317 898,-116 884.094,-103.531 866.416,-92.2955 851.94,-84.0503"/>
<polygon fill="midnightblue" stroke="midnightblue" points="853.405,-80.8611 842.961,-79.0809 850.016,-86.9857 853.405,-80.8611"/>
</g>
<!-- Node9&#45;&gt;Node2 -->
<g id="edge12" class="edge"><title>Node9&#45;&gt;Node2</title>
<path fill="none" stroke="midnightblue" d="M1040.88,-174.877C1014.7,-161.728 964.762,-136.75 922,-116 899.049,-104.863 872.911,-92.4853 853.555,-83.3772"/>
<polygon fill="midnightblue" stroke="midnightblue" points="854.912,-80.1479 844.373,-79.0625 851.935,-86.4833 854.912,-80.1479"/>
</g>
<!-- Node10 -->
<g id="node10" class="node"><title>Node10</title>
<polygon fill="white" stroke="#bfbfbf" points="1037.38,-117 1037.38,-137 1080.62,-137 1080.62,-117 1037.38,-117"/>
<text text-anchor="middle" x="1059" y="-123" font-family="Helvetica,sans-Serif" font-size="10.00">vector</text>
</g>
<!-- Node9&#45;&gt;Node10 -->
<g id="edge13" class="edge"><title>Node9&#45;&gt;Node10</title>
<path fill="none" stroke="midnightblue" d="M1059,-174.753C1059,-167.25 1059,-156.424 1059,-147.078"/>
<polygon fill="midnightblue" stroke="midnightblue" points="1062.5,-147.075 1059,-137.075 1055.5,-147.075 1062.5,-147.075"/>
</g>
<!-- Node9&#45;&gt;Node11 -->
<g id="edge14" class="edge"><title>Node9&#45;&gt;Node11</title>
<path fill="none" stroke="midnightblue" d="M1108.21,-175.342C1111.52,-174.858 1114.8,-174.405 1118,-174 1313.74,-149.211 1550.71,-134.395 1633.61,-129.663"/>
<polygon fill="midnightblue" stroke="midnightblue" points="1633.82,-133.157 1643.61,-129.099 1633.43,-126.168 1633.82,-133.157"/>
</g>
<!-- Node12&#45;&gt;Node2 -->
<g id="edge16" class="edge"><title>Node12&#45;&gt;Node2</title>
<path fill="none" stroke="midnightblue" d="M806.637,-174.671C809.905,-156.041 817.299,-113.898 821.642,-89.1428"/>
<polygon fill="midnightblue" stroke="midnightblue" points="825.116,-89.5938 823.397,-79.1394 818.221,-88.3841 825.116,-89.5938"/>
</g>
<!-- Node13 -->
<g id="node13" class="node"><title>Node13</title>
<polygon fill="white" stroke="#bfbfbf" points="689.421,-117 689.421,-137 796.579,-137 796.579,-117 689.421,-117"/>
<text text-anchor="middle" x="743" y="-123" font-family="Helvetica,sans-Serif" font-size="10.00">boost/filesystem.hpp</text>
</g>
<!-- Node12&#45;&gt;Node13 -->
<g id="edge17" class="edge"><title>Node12&#45;&gt;Node13</title>
<path fill="none" stroke="midnightblue" d="M794.762,-174.753C785.463,-166.353 771.55,-153.787 760.49,-143.798"/>
<polygon fill="midnightblue" stroke="midnightblue" points="762.815,-141.181 753.048,-137.075 758.123,-146.375 762.815,-141.181"/>
</g>
<!-- Node18&#45;&gt;Node2 -->
<g id="edge24" class="edge"><title>Node18&#45;&gt;Node2</title>
<path fill="none" stroke="midnightblue" d="M528.419,-353.068C433.701,-341.348 221,-307.915 221,-244 221,-244 221,-244 221,-184 221,-147.007 236.884,-134.36 269,-116 312.135,-91.3404 643.329,-76.6588 773.09,-71.8025"/>
<polygon fill="midnightblue" stroke="midnightblue" points="773.316,-75.2966 783.18,-71.4296 773.057,-68.3014 773.316,-75.2966"/>
</g>
<!-- Node19 -->
<g id="node19" class="node"><title>Node19</title>
<g id="a_node19"><a xlink:href="_area_8h.html" target="_top" xlink:title="cinder/Area.h">
<polygon fill="white" stroke="black" points="546.261,-233 546.261,-253 621.739,-253 621.739,-233 546.261,-233"/>
<text text-anchor="middle" x="584" y="-239" font-family="Helvetica,sans-Serif" font-size="10.00">cinder/Area.h</text>
</a>
</g>
</g>
<!-- Node18&#45;&gt;Node19 -->
<g id="edge25" class="edge"><title>Node18&#45;&gt;Node19</title>
<path fill="none" stroke="midnightblue" d="M573.9,-348.671C575.698,-330.041 579.764,-287.898 582.153,-263.143"/>
<polygon fill="midnightblue" stroke="midnightblue" points="585.641,-263.429 583.118,-253.139 578.674,-262.757 585.641,-263.429"/>
</g>
<!-- Node30 -->
<g id="node30" class="node"><title>Node30</title>
<g id="a_node30"><a xlink:href="_channel_8h.html" target="_top" xlink:title="cinder/Channel.h">
<polygon fill="white" stroke="black" points="453.197,-291 453.197,-311 544.803,-311 544.803,-291 453.197,-291"/>
<text text-anchor="middle" x="499" y="-297" font-family="Helvetica,sans-Serif" font-size="10.00">cinder/Channel.h</text>
</a>
</g>
</g>
<!-- Node18&#45;&gt;Node30 -->
<g id="edge42" class="edge"><title>Node18&#45;&gt;Node30</title>
<path fill="none" stroke="midnightblue" d="M560.78,-348.753C549.466,-340.19 532.429,-327.298 519.11,-317.219"/>
<polygon fill="midnightblue" stroke="midnightblue" points="521.078,-314.319 510.992,-311.075 516.854,-319.901 521.078,-314.319"/>
</g>
<!-- Node31 -->
<g id="node31" class="node"><title>Node31</title>
<g id="a_node31"><a xlink:href="_chan_traits_8h.html" target="_top" xlink:title="cinder/ChanTraits.h">
<polygon fill="white" stroke="black" points="248.553,-175 248.553,-195 351.447,-195 351.447,-175 248.553,-175"/>
<text text-anchor="middle" x="300" y="-181" font-family="Helvetica,sans-Serif" font-size="10.00">cinder/ChanTraits.h</text>
</a>
</g>
</g>
<!-- Node18&#45;&gt;Node31 -->
<g id="edge45" class="edge"><title>Node18&#45;&gt;Node31</title>
<path fill="none" stroke="midnightblue" d="M528.428,-349.875C497.609,-342.945 456.472,-331.018 424,-312 375.223,-283.432 332.447,-230.752 312.286,-203.441"/>
<polygon fill="midnightblue" stroke="midnightblue" points="315.037,-201.273 306.339,-195.224 309.366,-205.377 315.037,-201.273"/>
</g>
<!-- Node32 -->
<g id="node32" class="node"><title>Node32</title>
<g id="a_node32"><a xlink:href="_color_8h.html" target="_top" xlink:title="cinder/Color.h">
<polygon fill="white" stroke="black" points="372.148,-233 372.148,-253 449.852,-253 449.852,-233 372.148,-233"/>
<text text-anchor="middle" x="411" y="-239" font-family="Helvetica,sans-Serif" font-size="10.00">cinder/Color.h</text>
</a>
</g>
</g>
<!-- Node18&#45;&gt;Node32 -->
<g id="edge47" class="edge"><title>Node18&#45;&gt;Node32</title>
<path fill="none" stroke="midnightblue" d="M528.586,-350.964C501.448,-344.698 467.549,-333.107 444,-312 429.532,-299.032 420.761,-278.318 415.936,-263.156"/>
<polygon fill="midnightblue" stroke="midnightblue" points="419.225,-261.929 413.096,-253.287 412.498,-263.865 419.225,-261.929"/>
</g>
<!-- Node18&#45;&gt;Node12 -->
<g id="edge52" class="edge"><title>Node18&#45;&gt;Node12</title>
<path fill="none" stroke="midnightblue" d="M617.705,-352.545C649.636,-346.801 692.217,-335.194 723,-312 760.724,-283.576 786.092,-232.37 797.72,-204.798"/>
<polygon fill="midnightblue" stroke="midnightblue" points="801.107,-205.759 801.621,-195.176 794.62,-203.128 801.107,-205.759"/>
</g>
<!-- Node33 -->
<g id="node33" class="node"><title>Node33</title>
<polygon fill="white" stroke="#bfbfbf" points="601.357,-291 601.357,-311 714.643,-311 714.643,-291 601.357,-291"/>
<text text-anchor="middle" x="658" y="-297" font-family="Helvetica,sans-Serif" font-size="10.00">boost/logic/tribool.hpp</text>
</g>
<!-- Node18&#45;&gt;Node33 -->
<g id="edge53" class="edge"><title>Node18&#45;&gt;Node33</title>
<path fill="none" stroke="midnightblue" d="M587.036,-348.753C600.28,-340.027 620.349,-326.805 635.77,-316.646"/>
<polygon fill="midnightblue" stroke="midnightblue" points="637.8,-319.5 644.225,-311.075 633.949,-313.654 637.8,-319.5"/>
</g>
<!-- Node19&#45;&gt;Node2 -->
<g id="edge26" class="edge"><title>Node19&#45;&gt;Node2</title>
<path fill="none" stroke="midnightblue" d="M579.824,-232.769C570.211,-209.97 549.448,-150.361 578,-116 602.312,-86.7426 708.153,-75.9995 773.142,-72.1235"/>
<polygon fill="midnightblue" stroke="midnightblue" points="773.415,-75.6138 783.203,-71.5586 773.023,-68.6248 773.415,-75.6138"/>
</g>
<!-- Node20 -->
<g id="node20" class="node"><title>Node20</title>
<g id="a_node20"><a xlink:href="_vector_8h.html" target="_top" xlink:title="cinder/Vector.h">
<polygon fill="white" stroke="black" points="369.919,-175 369.919,-195 452.081,-195 452.081,-175 369.919,-175"/>
<text text-anchor="middle" x="411" y="-181" font-family="Helvetica,sans-Serif" font-size="10.00">cinder/Vector.h</text>
</a>
</g>
</g>
<!-- Node19&#45;&gt;Node20 -->
<g id="edge27" class="edge"><title>Node19&#45;&gt;Node20</title>
<path fill="none" stroke="midnightblue" d="M555.82,-232.878C526.578,-223.413 480.694,-208.56 448.425,-198.115"/>
<polygon fill="midnightblue" stroke="midnightblue" points="449.474,-194.775 438.882,-195.025 447.318,-201.435 449.474,-194.775"/>
</g>
<!-- Node19&#45;&gt;Node17 -->
<g id="edge39" class="edge"><title>Node19&#45;&gt;Node17</title>
<path fill="none" stroke="midnightblue" d="M586.455,-232.671C591.358,-214.041 602.448,-171.898 608.962,-147.143"/>
<polygon fill="midnightblue" stroke="midnightblue" points="612.435,-147.701 611.595,-137.139 605.665,-145.919 612.435,-147.701"/>
</g>
<!-- Node29 -->
<g id="node29" class="node"><title>Node29</title>
<polygon fill="white" stroke="#bfbfbf" points="659.608,-175 659.608,-195 698.392,-195 698.392,-175 659.608,-175"/>
<text text-anchor="middle" x="679" y="-181" font-family="Helvetica,sans-Serif" font-size="10.00">utility</text>
</g>
<!-- Node19&#45;&gt;Node29 -->
<g id="edge40" class="edge"><title>Node19&#45;&gt;Node29</title>
<path fill="none" stroke="midnightblue" d="M599.687,-232.753C614.628,-223.946 637.34,-210.558 654.636,-200.362"/>
<polygon fill="midnightblue" stroke="midnightblue" points="656.767,-203.169 663.605,-195.075 653.213,-197.138 656.767,-203.169"/>
</g>
<!-- Node19&#45;&gt;Node10 -->
<g id="edge41" class="edge"><title>Node19&#45;&gt;Node10</title>
<path fill="none" stroke="midnightblue" d="M590.07,-232.551C600.47,-217.268 623.277,-187.479 651,-174 717.328,-141.752 943.007,-131.582 1027.09,-128.868"/>
<polygon fill="midnightblue" stroke="midnightblue" points="1027.41,-132.36 1037.3,-128.553 1027.2,-125.363 1027.41,-132.36"/>
</g>
<!-- Node21 -->
<g id="node21" class="node"><title>Node21</title>
<polygon fill="white" stroke="#bfbfbf" points="-0.615723,-59 -0.615723,-79 42.6157,-79 42.6157,-59 -0.615723,-59"/>
<text text-anchor="middle" x="21" y="-65" font-family="Helvetica,sans-Serif" font-size="10.00">cmath</text>
</g>
<!-- Node20&#45;&gt;Node21 -->
<g id="edge28" class="edge"><title>Node20&#45;&gt;Node21</title>
<path fill="none" stroke="midnightblue" d="M369.855,-175.633C366.526,-175.048 363.21,-174.494 360,-174 289.274,-163.106 94.4923,-184.383 40,-138 26.0293,-126.108 21.9001,-104.878 20.8801,-89.2933"/>
<polygon fill="midnightblue" stroke="midnightblue" points="24.3748,-89.0535 20.5906,-79.1575 17.3776,-89.2534 24.3748,-89.0535"/>
</g>
<!-- Node22 -->
<g id="node22" class="node"><title>Node22</title>
<polygon fill="white" stroke="#bfbfbf" points="343.273,-117 343.273,-137 388.727,-137 388.727,-117 343.273,-117"/>
<text text-anchor="middle" x="366" y="-123" font-family="Helvetica,sans-Serif" font-size="10.00">cstring</text>
</g>
<!-- Node20&#45;&gt;Node22 -->
<g id="edge29" class="edge"><title>Node20&#45;&gt;Node22</title>
<path fill="none" stroke="midnightblue" d="M403.569,-174.753C397.082,-166.68 387.501,-154.757 379.639,-144.973"/>
<polygon fill="midnightblue" stroke="midnightblue" points="382.285,-142.678 373.293,-137.075 376.828,-147.063 382.285,-142.678"/>
</g>
<!-- Node20&#45;&gt;Node17 -->
<g id="edge30" class="edge"><title>Node20&#45;&gt;Node17</title>
<path fill="none" stroke="midnightblue" d="M444.067,-174.878C480.576,-164.807 539.196,-148.636 577.152,-138.165"/>
<polygon fill="midnightblue" stroke="midnightblue" points="578.093,-141.536 586.802,-135.503 576.231,-134.788 578.093,-141.536"/>
</g>
<!-- Node23 -->
<g id="node23" class="node"><title>Node23</title>
<polygon fill="white" stroke="#bfbfbf" points="406.884,-117 406.884,-137 455.116,-137 455.116,-117 406.884,-117"/>
<text text-anchor="middle" x="431" y="-123" font-family="Helvetica,sans-Serif" font-size="10.00">cassert</text>
</g>
<!-- Node20&#45;&gt;Node23 -->
<g id="edge31" class="edge"><title>Node20&#45;&gt;Node23</title>
<path fill="none" stroke="midnightblue" d="M414.303,-174.753C417.011,-167.169 420.933,-156.188 424.295,-146.774"/>
<polygon fill="midnightblue" stroke="midnightblue" points="427.692,-147.67 427.759,-137.075 421.099,-145.315 427.692,-147.67"/>
</g>
<!-- Node24 -->
<g id="node24" class="node"><title>Node24</title>
<polygon fill="white" stroke="#bfbfbf" points="286.613,-117 286.613,-137 325.387,-137 325.387,-117 286.613,-117"/>
<text text-anchor="middle" x="306" y="-123" font-family="Helvetica,sans-Serif" font-size="10.00">limits</text>
</g>
<!-- Node20&#45;&gt;Node24 -->
<g id="edge32" class="edge"><title>Node20&#45;&gt;Node24</title>
<path fill="none" stroke="midnightblue" d="M393.661,-174.753C376.842,-165.783 351.113,-152.06 331.872,-141.799"/>
<polygon fill="midnightblue" stroke="midnightblue" points="333.487,-138.693 323.016,-137.075 330.192,-144.869 333.487,-138.693"/>
</g>
<!-- Node25 -->
<g id="node25" class="node"><title>Node25</title>
<g id="a_node25"><a xlink:href="_cinder_math_8h.html" target="_top" xlink:title="cinder/CinderMath.h">
<polygon fill="white" stroke="black" points="48.978,-117 48.978,-137 155.022,-137 155.022,-117 48.978,-117"/>
<text text-anchor="middle" x="102" y="-123" font-family="Helvetica,sans-Serif" font-size="10.00">cinder/CinderMath.h</text>
</a>
</g>
</g>
<!-- Node20&#45;&gt;Node25 -->
<g id="edge33" class="edge"><title>Node20&#45;&gt;Node25</title>
<path fill="none" stroke="midnightblue" d="M369.816,-175.862C366.496,-175.225 363.193,-174.598 360,-174 293.337,-161.523 216.833,-147.98 164.55,-138.843"/>
<polygon fill="midnightblue" stroke="midnightblue" points="164.879,-135.347 154.426,-137.075 163.676,-142.243 164.879,-135.347"/>
</g>
<!-- Node25&#45;&gt;Node2 -->
<g id="edge34" class="edge"><title>Node25&#45;&gt;Node2</title>
<path fill="none" stroke="midnightblue" d="M155.345,-117.654C159.958,-117.049 164.557,-116.487 169,-116 393.01,-91.4668 661.565,-77.4189 772.804,-72.272"/>
<polygon fill="midnightblue" stroke="midnightblue" points="773.242,-75.7557 783.071,-71.8016 772.922,-68.763 773.242,-75.7557"/>
</g>
<!-- Node25&#45;&gt;Node21 -->
<g id="edge35" class="edge"><title>Node25&#45;&gt;Node21</title>
<path fill="none" stroke="midnightblue" d="M88.6245,-116.753C76.1216,-108.109 57.2357,-95.0518 42.5972,-84.9314"/>
<polygon fill="midnightblue" stroke="midnightblue" points="44.3426,-81.8831 34.1266,-79.0752 40.3618,-87.641 44.3426,-81.8831"/>
</g>
<!-- Node26 -->
<g id="node26" class="node"><title>Node26</title>
<polygon fill="white" stroke="#bfbfbf" points="61.1133,-59 61.1133,-79 104.887,-79 104.887,-59 61.1133,-59"/>
<text text-anchor="middle" x="83" y="-65" font-family="Helvetica,sans-Serif" font-size="10.00">climits</text>
</g>
<!-- Node25&#45;&gt;Node26 -->
<g id="edge36" class="edge"><title>Node25&#45;&gt;Node26</title>
<path fill="none" stroke="midnightblue" d="M98.8625,-116.753C96.2894,-109.169 92.5638,-98.1881 89.3697,-88.7739"/>
<polygon fill="midnightblue" stroke="midnightblue" points="92.6065,-87.4204 86.0791,-79.0752 85.9777,-89.6695 92.6065,-87.4204"/>
</g>
<!-- Node27 -->
<g id="node27" class="node"><title>Node27</title>
<polygon fill="white" stroke="#bfbfbf" points="123.049,-59 123.049,-79 162.951,-79 162.951,-59 123.049,-59"/>
<text text-anchor="middle" x="143" y="-65" font-family="Helvetica,sans-Serif" font-size="10.00">cfloat</text>
</g>
<!-- Node25&#45;&gt;Node27 -->
<g id="edge37" class="edge"><title>Node25&#45;&gt;Node27</title>
<path fill="none" stroke="midnightblue" d="M108.77,-116.753C114.621,-108.761 123.234,-96.9975 130.356,-87.2698"/>
<polygon fill="midnightblue" stroke="midnightblue" points="133.272,-89.2114 136.356,-79.0752 127.624,-85.0762 133.272,-89.2114"/>
</g>
<!-- Node28 -->
<g id="node28" class="node"><title>Node28</title>
<polygon fill="white" stroke="#bfbfbf" points="180.596,-59 180.596,-79 239.404,-79 239.404,-59 180.596,-59"/>
<text text-anchor="middle" x="210" y="-65" font-family="Helvetica,sans-Serif" font-size="10.00">functional</text>
</g>
<!-- Node25&#45;&gt;Node28 -->
<g id="edge38" class="edge"><title>Node25&#45;&gt;Node28</title>
<path fill="none" stroke="midnightblue" d="M119.834,-116.753C137.134,-107.783 163.598,-94.0601 183.388,-83.7986"/>
<polygon fill="midnightblue" stroke="midnightblue" points="185.231,-86.7856 192.498,-79.0752 182.009,-80.5713 185.231,-86.7856"/>
</g>
<!-- Node30&#45;&gt;Node2 -->
<g id="edge43" class="edge"><title>Node30&#45;&gt;Node2</title>
<path fill="none" stroke="midnightblue" d="M499.191,-290.976C500.351,-260.863 508.422,-163.083 564,-116 594.783,-89.9221 705.871,-77.9862 772.795,-73.0544"/>
<polygon fill="midnightblue" stroke="midnightblue" points="773.41,-76.5198 783.137,-72.322 772.915,-69.5372 773.41,-76.5198"/>
</g>
<!-- Node30&#45;&gt;Node19 -->
<g id="edge44" class="edge"><title>Node30&#45;&gt;Node19</title>
<path fill="none" stroke="midnightblue" d="M513.036,-290.753C526.28,-282.027 546.349,-268.805 561.77,-258.646"/>
<polygon fill="midnightblue" stroke="midnightblue" points="563.8,-261.5 570.225,-253.075 559.949,-255.654 563.8,-261.5"/>
</g>
<!-- Node31&#45;&gt;Node2 -->
<g id="edge46" class="edge"><title>Node31&#45;&gt;Node2</title>
<path fill="none" stroke="midnightblue" d="M292.091,-174.877C280.673,-160.583 262.547,-132.807 278,-116 311.089,-80.012 642.559,-72.1622 772.826,-70.4639"/>
<polygon fill="midnightblue" stroke="midnightblue" points="773.001,-73.9621 782.957,-70.339 772.914,-66.9626 773.001,-73.9621"/>
</g>
<!-- Node32&#45;&gt;Node2 -->
<g id="edge48" class="edge"><title>Node32&#45;&gt;Node2</title>
<path fill="none" stroke="midnightblue" d="M423.085,-232.668C433.867,-223.952 449.657,-210.188 461,-196 486.612,-163.965 473.064,-139.033 507,-116 549.35,-87.2555 694.391,-76.0839 773.135,-72.0619"/>
<polygon fill="midnightblue" stroke="midnightblue" points="773.508,-75.5479 783.325,-71.5624 773.165,-68.5563 773.508,-75.5479"/>
</g>
<!-- Node32&#45;&gt;Node31 -->
<g id="edge49" class="edge"><title>Node32&#45;&gt;Node31</title>
<path fill="none" stroke="midnightblue" d="M392.671,-232.753C374.81,-223.742 347.443,-209.935 327.074,-199.659"/>
<polygon fill="midnightblue" stroke="midnightblue" points="328.493,-196.455 317.988,-195.075 325.34,-202.704 328.493,-196.455"/>
</g>
<!-- Node32&#45;&gt;Node20 -->
<g id="edge50" class="edge"><title>Node32&#45;&gt;Node20</title>
<path fill="none" stroke="midnightblue" d="M411,-232.753C411,-225.25 411,-214.424 411,-205.078"/>
<polygon fill="midnightblue" stroke="midnightblue" points="414.5,-205.075 411,-195.075 407.5,-205.075 414.5,-205.075"/>
</g>
<!-- Node32&#45;&gt;Node25 -->
<g id="edge51" class="edge"><title>Node32&#45;&gt;Node25</title>
<path fill="none" stroke="midnightblue" d="M371.95,-233.784C336.842,-225.862 284.16,-212.638 240,-196 199.085,-180.585 154.069,-157.079 126.926,-142.133"/>
<polygon fill="midnightblue" stroke="midnightblue" points="128.548,-139.03 118.107,-137.231 125.147,-145.149 128.548,-139.03"/>
</g>
<!-- Node34&#45;&gt;Node2 -->
<g id="edge55" class="edge"><title>Node34&#45;&gt;Node2</title>
<path fill="none" stroke="midnightblue" d="M1581.31,-416.288C1630.75,-414.602 1710.52,-405.858 1768,-370 1827.73,-332.739 1864,-314.402 1864,-244 1864,-244 1864,-244 1864,-184 1864,-119.582 1798.09,-133.145 1736,-116 1572.46,-70.8469 1044.51,-69.0535 876.706,-69.6689"/>
<polygon fill="midnightblue" stroke="midnightblue" points="876.632,-66.169 866.646,-69.7103 876.661,-73.169 876.632,-66.169"/>
</g>
<!-- Node35 -->
<g id="node35" class="node"><title>Node35</title>
<g id="a_node35"><a xlink:href="_data_source_8h.html" target="_top" xlink:title="cinder/DataSource.h">
<polygon fill="white" stroke="black" points="1081.42,-349 1081.42,-369 1188.58,-369 1188.58,-349 1081.42,-349"/>
<text text-anchor="middle" x="1135" y="-355" font-family="Helvetica,sans-Serif" font-size="10.00">cinder/DataSource.h</text>
</a>
</g>
</g>
<!-- Node34&#45;&gt;Node35 -->
<g id="edge56" class="edge"><title>Node34&#45;&gt;Node35</title>
<path fill="none" stroke="midnightblue" d="M1490.39,-409.631C1418.93,-399.651 1280.36,-380.299 1198.96,-368.933"/>
<polygon fill="midnightblue" stroke="midnightblue" points="1199.23,-365.436 1188.84,-367.519 1198.26,-372.369 1199.23,-365.436"/>
</g>
<!-- Node36 -->
<g id="node36" class="node"><title>Node36</title>
<g id="a_node36"><a xlink:href="_data_target_8h.html" target="_top" xlink:title="cinder/DataTarget.h">
<polygon fill="white" stroke="black" points="1656.36,-349 1656.36,-369 1759.64,-369 1759.64,-349 1656.36,-349"/>
<text text-anchor="middle" x="1708" y="-355" font-family="Helvetica,sans-Serif" font-size="10.00">cinder/DataTarget.h</text>
</a>
</g>
</g>
<!-- Node34&#45;&gt;Node36 -->
<g id="edge62" class="edge"><title>Node34&#45;&gt;Node36</title>
<path fill="none" stroke="midnightblue" d="M1564.02,-406.878C1592.96,-397.453 1638.32,-382.688 1670.38,-372.25"/>
<polygon fill="midnightblue" stroke="midnightblue" points="1671.85,-375.449 1680.28,-369.025 1669.69,-368.793 1671.85,-375.449"/>
</g>
<!-- Node34&#45;&gt;Node18 -->
<g id="edge67" class="edge"><title>Node34&#45;&gt;Node18</title>
<path fill="none" stroke="midnightblue" d="M1490.52,-413.355C1331.41,-404.103 800.045,-373.203 627.569,-363.173"/>
<polygon fill="midnightblue" stroke="midnightblue" points="627.641,-359.672 617.455,-362.585 627.235,-366.66 627.641,-359.672"/>
</g>
<!-- Node34&#45;&gt;Node9 -->
<g id="edge68" class="edge"><title>Node34&#45;&gt;Node9</title>
<path fill="none" stroke="midnightblue" d="M1517.3,-406.984C1443.84,-371.56 1174.74,-241.805 1086.92,-199.462"/>
<polygon fill="midnightblue" stroke="midnightblue" points="1088.36,-196.269 1077.83,-195.079 1085.32,-202.574 1088.36,-196.269"/>
</g>
<!-- Node34&#45;&gt;Node10 -->
<g id="edge69" class="edge"><title>Node34&#45;&gt;Node10</title>
<path fill="none" stroke="midnightblue" d="M1538.41,-406.992C1549.48,-365.224 1594.19,-191.694 1578,-174 1545.04,-137.995 1198.73,-130.004 1090.88,-128.383"/>
<polygon fill="midnightblue" stroke="midnightblue" points="1090.68,-124.88 1080.64,-128.237 1090.58,-131.879 1090.68,-124.88"/>
</g>
<!-- Node37 -->
<g id="node37" class="node"><title>Node37</title>
<polygon fill="white" stroke="#bfbfbf" points="1564.27,-349 1564.27,-369 1599.73,-369 1599.73,-349 1564.27,-349"/>
<text text-anchor="middle" x="1582" y="-355" font-family="Helvetica,sans-Serif" font-size="10.00">map</text>
</g>
<!-- Node34&#45;&gt;Node37 -->
<g id="edge70" class="edge"><title>Node34&#45;&gt;Node37</title>
<path fill="none" stroke="midnightblue" d="M1543.6,-406.753C1550.23,-398.68 1560.02,-386.757 1568.06,-376.973"/>
<polygon fill="midnightblue" stroke="midnightblue" points="1570.9,-379.024 1574.55,-369.075 1565.49,-374.581 1570.9,-379.024"/>
</g>
<!-- Node34&#45;&gt;Node29 -->
<g id="edge71" class="edge"><title>Node34&#45;&gt;Node29</title>
<path fill="none" stroke="midnightblue" d="M1490.57,-413.783C1407.13,-409.204 1224.07,-396.806 1072,-370 969.451,-351.923 938.777,-357.265 845,-312 784.204,-282.654 723.849,-229.154 695.587,-202.296"/>
<polygon fill="midnightblue" stroke="midnightblue" points="697.818,-199.585 688.187,-195.171 692.963,-204.628 697.818,-199.585"/>
</g>
<!-- Node35&#45;&gt;Node2 -->
<g id="edge57" class="edge"><title>Node35&#45;&gt;Node2</title>
<path fill="none" stroke="midnightblue" d="M1096.33,-348.94C1025.92,-331.312 884,-290.066 884,-244 884,-244 884,-244 884,-184 884,-146.002 857.827,-108.048 840.345,-86.9367"/>
<polygon fill="midnightblue" stroke="midnightblue" points="842.879,-84.515 833.706,-79.2136 837.571,-89.0783 842.879,-84.515"/>
</g>
<!-- Node35&#45;&gt;Node6 -->
<g id="edge58" class="edge"><title>Node35&#45;&gt;Node6</title>
<path fill="none" stroke="midnightblue" d="M1184.83,-348.94C1244.29,-338.129 1342.76,-320.225 1399.36,-309.935"/>
<polygon fill="midnightblue" stroke="midnightblue" points="1400.2,-313.339 1409.42,-308.106 1398.95,-306.452 1400.2,-313.339"/>
</g>
<!-- Node35&#45;&gt;Node8 -->
<g id="edge59" class="edge"><title>Node35&#45;&gt;Node8</title>
<path fill="none" stroke="midnightblue" d="M1125.42,-348.995C1096.16,-321.491 1007.64,-238.291 969.637,-202.577"/>
<polygon fill="midnightblue" stroke="midnightblue" points="971.614,-199.632 961.93,-195.333 966.82,-204.732 971.614,-199.632"/>
</g>
<!-- Node35&#45;&gt;Node7 -->
<g id="edge60" class="edge"><title>Node35&#45;&gt;Node7</title>
<path fill="none" stroke="midnightblue" d="M1153.27,-348.864C1193.31,-328.844 1288.95,-281.027 1335.97,-257.517"/>
<polygon fill="midnightblue" stroke="midnightblue" points="1337.58,-260.624 1344.96,-253.022 1334.45,-254.363 1337.58,-260.624"/>
</g>
<!-- Node35&#45;&gt;Node12 -->
<g id="edge61" class="edge"><title>Node35&#45;&gt;Node12</title>
<path fill="none" stroke="midnightblue" d="M1081.22,-354.288C1013.72,-348.687 902.796,-336.073 870,-312 833.915,-285.512 816.296,-233.072 809.118,-204.918"/>
<polygon fill="midnightblue" stroke="midnightblue" points="812.505,-204.031 806.792,-195.108 805.693,-205.646 812.505,-204.031"/>
</g>
<!-- Node36&#45;&gt;Node2 -->
<g id="edge63" class="edge"><title>Node36&#45;&gt;Node2</title>
<path fill="none" stroke="midnightblue" d="M1712.1,-348.967C1727.48,-313.58 1777.67,-183.046 1714,-116 1685.05,-85.5123 1062.81,-73.6163 876.962,-70.7355"/>
<polygon fill="midnightblue" stroke="midnightblue" points="876.948,-67.235 866.896,-70.5817 876.841,-74.2342 876.948,-67.235"/>
</g>
<!-- Node36&#45;&gt;Node6 -->
<g id="edge64" class="edge"><title>Node36&#45;&gt;Node6</title>
<path fill="none" stroke="midnightblue" d="M1665.13,-348.94C1616.03,-338.565 1536.03,-321.659 1486.62,-311.218"/>
<polygon fill="midnightblue" stroke="midnightblue" points="1487.07,-307.736 1476.56,-309.093 1485.62,-314.585 1487.07,-307.736"/>
</g>
<!-- Node36&#45;&gt;Node7 -->
<g id="edge65" class="edge"><title>Node36&#45;&gt;Node7</title>
<path fill="none" stroke="midnightblue" d="M1680.64,-348.959C1619.12,-328.631 1469.81,-279.294 1400.06,-256.245"/>
<polygon fill="midnightblue" stroke="midnightblue" points="1400.96,-252.856 1390.36,-253.042 1398.76,-259.502 1400.96,-252.856"/>
</g>
<!-- Node36&#45;&gt;Node11 -->
<g id="edge66" class="edge"><title>Node36&#45;&gt;Node11</title>
<path fill="none" stroke="midnightblue" d="M1706.28,-348.984C1699.77,-314.998 1676.66,-194.186 1667.64,-147.04"/>
<polygon fill="midnightblue" stroke="midnightblue" points="1671.08,-146.368 1665.76,-137.204 1664.2,-147.683 1671.08,-146.368"/>
</g>
</g>
</svg>
