<?xml version="1.0" encoding="UTF-8" standalone="no"?>
<!DOCTYPE svg PUBLIC "-//W3C//DTD SVG 1.1//EN"
 "http://www.w3.org/Graphics/SVG/1.1/DTD/svg11.dtd">
<!-- Generated by graphviz version 2.30.1 (20140712.1814)
 -->
<!-- Title: include/cinder/qtime/QuickTimeUtils.h Pages: 1 -->
<svg width="496pt" height="112pt"
 viewBox="0.00 0.00 496.00 112.00" xmlns="http://www.w3.org/2000/svg" xmlns:xlink="http://www.w3.org/1999/xlink">
<g id="graph0" class="graph" transform="scale(1 1) rotate(0) translate(4 108)">
<title>include/cinder/qtime/QuickTimeUtils.h</title>
<polygon fill="white" stroke="white" points="-4,5 -4,-108 493,-108 493,5 -4,5"/>
<!-- Node1 -->
<g id="node1" class="node"><title>Node1</title>
<polygon fill="#bfbfbf" stroke="black" points="203.532,-71 203.532,-103 308.468,-103 308.468,-71 203.532,-71"/>
<text text-anchor="start" x="211.532" y="-89" font-family="Helvetica,sans-Serif" font-size="10.00">include/cinder/qtime</text>
<text text-anchor="middle" x="256" y="-77" font-family="Helvetica,sans-Serif" font-size="10.00">/QuickTimeUtils.h</text>
</g>
<!-- Node2 -->
<g id="node2" class="node"><title>Node2</title>
<g id="a_node2"><a xlink:href="_movie_writer_8cpp.html" target="_top" xlink:title="src/cinder/qtime/MovieWriter.cpp">
<polygon fill="white" stroke="black" points="-0.434082,-7 -0.434082,-27 160.434,-27 160.434,-7 -0.434082,-7"/>
<text text-anchor="middle" x="80" y="-13" font-family="Helvetica,sans-Serif" font-size="10.00">src/cinder/qtime/MovieWriter.cpp</text>
</a>
</g>
</g>
<!-- Node1&#45;&gt;Node2 -->
<g id="edge1" class="edge"><title>Node1&#45;&gt;Node2</title>
<path fill="none" stroke="midnightblue" d="M207.213,-67.1504C173.315,-54.0536 129.659,-37.1866 103.303,-27.0035"/>
<polygon fill="midnightblue" stroke="midnightblue" points="206.35,-70.5693 216.94,-70.9086 208.873,-64.0397 206.35,-70.5693"/>
</g>
<!-- Node3 -->
<g id="node3" class="node"><title>Node3</title>
<g id="a_node3"><a xlink:href="_quick_time_8cpp.html" target="_top" xlink:title="src/cinder/qtime/QuickTime.cpp">
<polygon fill="white" stroke="black" points="178.164,-7 178.164,-27 333.836,-27 333.836,-7 178.164,-7"/>
<text text-anchor="middle" x="256" y="-13" font-family="Helvetica,sans-Serif" font-size="10.00">src/cinder/qtime/QuickTime.cpp</text>
</a>
</g>
</g>
<!-- Node1&#45;&gt;Node3 -->
<g id="edge2" class="edge"><title>Node1&#45;&gt;Node3</title>
<path fill="none" stroke="midnightblue" d="M256,-60.6678C256,-48.8652 256,-35.5695 256,-27.0035"/>
<polygon fill="midnightblue" stroke="midnightblue" points="252.5,-60.9086 256,-70.9086 259.5,-60.9086 252.5,-60.9086"/>
</g>
<!-- Node4 -->
<g id="node4" class="node"><title>Node4</title>
<g id="a_node4"><a xlink:href="_quick_time_utils_8cpp.html" target="_top" xlink:title="src/cinder/qtime/QuickTime\lUtils.cpp">
<polygon fill="white" stroke="black" points="351.614,-1 351.614,-33 488.386,-33 488.386,-1 351.614,-1"/>
<text text-anchor="start" x="359.614" y="-19" font-family="Helvetica,sans-Serif" font-size="10.00">src/cinder/qtime/QuickTime</text>
<text text-anchor="middle" x="420" y="-7" font-family="Helvetica,sans-Serif" font-size="10.00">Utils.cpp</text>
</a>
</g>
</g>
<!-- Node1&#45;&gt;Node4 -->
<g id="edge3" class="edge"><title>Node1&#45;&gt;Node4</title>
<path fill="none" stroke="midnightblue" d="M301.641,-67.0759C327.546,-56.3347 359.522,-43.0764 383.705,-33.0492"/>
<polygon fill="midnightblue" stroke="midnightblue" points="300.294,-63.8453 292.397,-70.9086 302.975,-70.3115 300.294,-63.8453"/>
</g>
</g>
</svg>
