<?xml version="1.0" encoding="UTF-8" standalone="no"?>
<!DOCTYPE svg PUBLIC "-//W3C//DTD SVG 1.1//EN"
 "http://www.w3.org/Graphics/SVG/1.1/DTD/svg11.dtd">
<!-- Generated by graphviz version 2.30.1 (20140712.1814)
 -->
<!-- Title: include/cinder/Rect.h Pages: 1 -->
<svg width="614pt" height="320pt"
 viewBox="0.00 0.00 613.74 320.00" xmlns="http://www.w3.org/2000/svg" xmlns:xlink="http://www.w3.org/1999/xlink">
<g id="graph0" class="graph" transform="scale(1 1) rotate(0) translate(4 316)">
<title>include/cinder/Rect.h</title>
<polygon fill="white" stroke="white" points="-4,5 -4,-316 610.742,-316 610.742,5 -4,5"/>
<!-- Node1 -->
<g id="node1" class="node"><title>Node1</title>
<polygon fill="#bfbfbf" stroke="black" points="352.05,-291 352.05,-311 461.434,-311 461.434,-291 352.05,-291"/>
<text text-anchor="middle" x="406.742" y="-297" font-family="Helvetica,sans-Serif" font-size="10.00">include/cinder/Rect.h</text>
</g>
<!-- Node2 -->
<g id="node2" class="node"><title>Node2</title>
<g id="a_node2"><a xlink:href="_vector_8h.html" target="_top" xlink:title="cinder/Vector.h">
<polygon fill="white" stroke="black" points="166.661,-175 166.661,-195 248.823,-195 248.823,-175 166.661,-175"/>
<text text-anchor="middle" x="207.742" y="-181" font-family="Helvetica,sans-Serif" font-size="10.00">cinder/Vector.h</text>
</a>
</g>
</g>
<!-- Node1&#45;&gt;Node2 -->
<g id="edge1" class="edge"><title>Node1&#45;&gt;Node2</title>
<path fill="none" stroke="midnightblue" d="M390.793,-290.864C356.139,-271.012 273.767,-223.823 232.375,-200.111"/>
<polygon fill="midnightblue" stroke="midnightblue" points="233.907,-196.956 223.49,-195.022 230.427,-203.029 233.907,-196.956"/>
</g>
<!-- Node16 -->
<g id="node16" class="node"><title>Node16</title>
<g id="a_node16"><a xlink:href="_area_8h.html" target="_top" xlink:title="cinder/Area.h">
<polygon fill="white" stroke="black" points="369.003,-233 369.003,-253 444.48,-253 444.48,-233 369.003,-233"/>
<text text-anchor="middle" x="406.742" y="-239" font-family="Helvetica,sans-Serif" font-size="10.00">cinder/Area.h</text>
</a>
</g>
</g>
<!-- Node1&#45;&gt;Node16 -->
<g id="edge16" class="edge"><title>Node1&#45;&gt;Node16</title>
<path fill="none" stroke="midnightblue" d="M406.742,-290.753C406.742,-283.25 406.742,-272.424 406.742,-263.078"/>
<polygon fill="midnightblue" stroke="midnightblue" points="410.242,-263.075 406.742,-253.075 403.242,-263.075 410.242,-263.075"/>
</g>
<!-- Node18 -->
<g id="node18" class="node"><title>Node18</title>
<polygon fill="white" stroke="#bfbfbf" points="491.126,-175 491.126,-195 534.357,-195 534.357,-175 491.126,-175"/>
<text text-anchor="middle" x="512.742" y="-181" font-family="Helvetica,sans-Serif" font-size="10.00">vector</text>
</g>
<!-- Node1&#45;&gt;Node18 -->
<g id="edge22" class="edge"><title>Node1&#45;&gt;Node18</title>
<path fill="none" stroke="midnightblue" d="M416.432,-290.656C425.865,-281.48 440.523,-267.006 452.742,-254 468.632,-237.085 486.116,-217.104 498.09,-203.196"/>
<polygon fill="midnightblue" stroke="midnightblue" points="500.919,-205.273 504.77,-195.403 495.604,-200.718 500.919,-205.273"/>
</g>
<!-- Node3 -->
<g id="node3" class="node"><title>Node3</title>
<polygon fill="white" stroke="#bfbfbf" points="36.1259,-59 36.1259,-79 79.3574,-79 79.3574,-59 36.1259,-59"/>
<text text-anchor="middle" x="57.7416" y="-65" font-family="Helvetica,sans-Serif" font-size="10.00">cmath</text>
</g>
<!-- Node2&#45;&gt;Node3 -->
<g id="edge2" class="edge"><title>Node2&#45;&gt;Node3</title>
<path fill="none" stroke="midnightblue" d="M166.474,-180.61C113.095,-175.271 24.5881,-162.847 4.74163,-138 -9.82408,-119.764 13.0159,-98.5159 33.0987,-84.6899"/>
<polygon fill="midnightblue" stroke="midnightblue" points="35.2424,-87.4703 41.7032,-79.0733 31.4161,-81.6086 35.2424,-87.4703"/>
</g>
<!-- Node4 -->
<g id="node4" class="node"><title>Node4</title>
<polygon fill="white" stroke="#bfbfbf" points="14.0151,-117 14.0151,-137 59.4682,-137 59.4682,-117 14.0151,-117"/>
<text text-anchor="middle" x="36.7416" y="-123" font-family="Helvetica,sans-Serif" font-size="10.00">cstring</text>
</g>
<!-- Node2&#45;&gt;Node4 -->
<g id="edge3" class="edge"><title>Node2&#45;&gt;Node4</title>
<path fill="none" stroke="midnightblue" d="M179.887,-174.878C149.657,-164.978 101.43,-149.184 69.4288,-138.705"/>
<polygon fill="midnightblue" stroke="midnightblue" points="70.245,-135.289 59.6523,-135.503 68.0664,-141.941 70.245,-135.289"/>
</g>
<!-- Node5 -->
<g id="node5" class="node"><title>Node5</title>
<polygon fill="white" stroke="#bfbfbf" points="324.569,-117 324.569,-137 378.914,-137 378.914,-117 324.569,-117"/>
<text text-anchor="middle" x="351.742" y="-123" font-family="Helvetica,sans-Serif" font-size="10.00">iostream</text>
</g>
<!-- Node2&#45;&gt;Node5 -->
<g id="edge4" class="edge"><title>Node2&#45;&gt;Node5</title>
<path fill="none" stroke="midnightblue" d="M231.198,-174.878C255.047,-165.603 292.197,-151.156 318.952,-140.752"/>
<polygon fill="midnightblue" stroke="midnightblue" points="320.244,-144.005 328.295,-137.118 317.706,-137.481 320.244,-144.005"/>
</g>
<!-- Node6 -->
<g id="node6" class="node"><title>Node6</title>
<polygon fill="white" stroke="#bfbfbf" points="77.6259,-117 77.6259,-137 125.857,-137 125.857,-117 77.6259,-117"/>
<text text-anchor="middle" x="101.742" y="-123" font-family="Helvetica,sans-Serif" font-size="10.00">cassert</text>
</g>
<!-- Node2&#45;&gt;Node6 -->
<g id="edge5" class="edge"><title>Node2&#45;&gt;Node6</title>
<path fill="none" stroke="midnightblue" d="M190.238,-174.753C173.259,-165.783 147.284,-152.06 127.86,-141.799"/>
<polygon fill="midnightblue" stroke="midnightblue" points="129.397,-138.652 118.92,-137.075 126.127,-144.841 129.397,-138.652"/>
</g>
<!-- Node7 -->
<g id="node7" class="node"><title>Node7</title>
<polygon fill="white" stroke="#bfbfbf" points="144.355,-117 144.355,-137 183.128,-137 183.128,-117 144.355,-117"/>
<text text-anchor="middle" x="163.742" y="-123" font-family="Helvetica,sans-Serif" font-size="10.00">limits</text>
</g>
<!-- Node2&#45;&gt;Node7 -->
<g id="edge6" class="edge"><title>Node2&#45;&gt;Node7</title>
<path fill="none" stroke="midnightblue" d="M200.476,-174.753C194.133,-166.68 184.765,-154.757 177.077,-144.973"/>
<polygon fill="midnightblue" stroke="midnightblue" points="179.803,-142.776 170.872,-137.075 174.298,-147.101 179.803,-142.776"/>
</g>
<!-- Node8 -->
<g id="node8" class="node"><title>Node8</title>
<g id="a_node8"><a xlink:href="_cinder_math_8h.html" target="_top" xlink:title="cinder/CinderMath.h">
<polygon fill="white" stroke="black" points="200.72,-117 200.72,-137 306.764,-137 306.764,-117 200.72,-117"/>
<text text-anchor="middle" x="253.742" y="-123" font-family="Helvetica,sans-Serif" font-size="10.00">cinder/CinderMath.h</text>
</a>
</g>
</g>
<!-- Node2&#45;&gt;Node8 -->
<g id="edge7" class="edge"><title>Node2&#45;&gt;Node8</title>
<path fill="none" stroke="midnightblue" d="M215.338,-174.753C221.969,-166.68 231.763,-154.757 239.8,-144.973"/>
<polygon fill="midnightblue" stroke="midnightblue" points="242.644,-147.024 246.287,-137.075 237.235,-142.581 242.644,-147.024"/>
</g>
<!-- Node9 -->
<g id="node9" class="node"><title>Node9</title>
<g id="a_node9"><a xlink:href="_cinder_8h.html" target="_top" xlink:title="cinder/Cinder.h">
<polygon fill="white" stroke="black" points="365.109,-59 365.109,-79 448.374,-79 448.374,-59 365.109,-59"/>
<text text-anchor="middle" x="406.742" y="-65" font-family="Helvetica,sans-Serif" font-size="10.00">cinder/Cinder.h</text>
</a>
</g>
</g>
<!-- Node8&#45;&gt;Node9 -->
<g id="edge8" class="edge"><title>Node8&#45;&gt;Node9</title>
<path fill="none" stroke="midnightblue" d="M278.664,-116.878C304.191,-107.535 344.058,-92.943 372.53,-82.522"/>
<polygon fill="midnightblue" stroke="midnightblue" points="373.895,-85.7493 382.083,-79.0253 371.489,-79.1757 373.895,-85.7493"/>
</g>
<!-- Node8&#45;&gt;Node3 -->
<g id="edge12" class="edge"><title>Node8&#45;&gt;Node3</title>
<path fill="none" stroke="midnightblue" d="M221.815,-116.878C185.384,-106.469 126.15,-89.5454 89.7046,-79.1323"/>
<polygon fill="midnightblue" stroke="midnightblue" points="90.1983,-75.6334 79.6216,-76.2514 88.2753,-82.364 90.1983,-75.6334"/>
</g>
<!-- Node13 -->
<g id="node13" class="node"><title>Node13</title>
<polygon fill="white" stroke="#bfbfbf" points="168.855,-59 168.855,-79 212.628,-79 212.628,-59 168.855,-59"/>
<text text-anchor="middle" x="190.742" y="-65" font-family="Helvetica,sans-Serif" font-size="10.00">climits</text>
</g>
<!-- Node8&#45;&gt;Node13 -->
<g id="edge13" class="edge"><title>Node8&#45;&gt;Node13</title>
<path fill="none" stroke="midnightblue" d="M243.338,-116.753C233.889,-108.353 219.752,-95.7874 208.514,-85.7976"/>
<polygon fill="midnightblue" stroke="midnightblue" points="210.751,-83.1029 200.951,-79.0752 206.1,-88.3348 210.751,-83.1029"/>
</g>
<!-- Node14 -->
<g id="node14" class="node"><title>Node14</title>
<polygon fill="white" stroke="#bfbfbf" points="230.791,-59 230.791,-79 270.692,-79 270.692,-59 230.791,-59"/>
<text text-anchor="middle" x="250.742" y="-65" font-family="Helvetica,sans-Serif" font-size="10.00">cfloat</text>
</g>
<!-- Node8&#45;&gt;Node14 -->
<g id="edge14" class="edge"><title>Node8&#45;&gt;Node14</title>
<path fill="none" stroke="midnightblue" d="M253.246,-116.753C252.844,-109.25 252.264,-98.4238 251.764,-89.0781"/>
<polygon fill="midnightblue" stroke="midnightblue" points="255.258,-88.8736 251.228,-79.0752 248.268,-89.2481 255.258,-88.8736"/>
</g>
<!-- Node15 -->
<g id="node15" class="node"><title>Node15</title>
<polygon fill="white" stroke="#bfbfbf" points="288.338,-59 288.338,-79 347.145,-79 347.145,-59 288.338,-59"/>
<text text-anchor="middle" x="317.742" y="-65" font-family="Helvetica,sans-Serif" font-size="10.00">functional</text>
</g>
<!-- Node8&#45;&gt;Node15 -->
<g id="edge15" class="edge"><title>Node8&#45;&gt;Node15</title>
<path fill="none" stroke="midnightblue" d="M264.31,-116.753C273.909,-108.353 288.27,-95.7874 299.687,-85.7976"/>
<polygon fill="midnightblue" stroke="midnightblue" points="302.149,-88.2943 307.37,-79.0752 297.539,-83.0262 302.149,-88.2943"/>
</g>
<!-- Node10 -->
<g id="node10" class="node"><title>Node10</title>
<polygon fill="white" stroke="#bfbfbf" points="296.291,-1 296.291,-21 341.192,-21 341.192,-1 296.291,-1"/>
<text text-anchor="middle" x="318.742" y="-7" font-family="Helvetica,sans-Serif" font-size="10.00">cstdint</text>
</g>
<!-- Node9&#45;&gt;Node10 -->
<g id="edge9" class="edge"><title>Node9&#45;&gt;Node10</title>
<path fill="none" stroke="midnightblue" d="M392.21,-58.7527C378.499,-50.0272 357.721,-36.8051 341.756,-26.6458"/>
<polygon fill="midnightblue" stroke="midnightblue" points="343.318,-23.4912 333.003,-21.0752 339.56,-29.3968 343.318,-23.4912"/>
</g>
<!-- Node11 -->
<g id="node11" class="node"><title>Node11</title>
<polygon fill="white" stroke="#bfbfbf" points="359.271,-1 359.271,-21 454.212,-21 454.212,-1 359.271,-1"/>
<text text-anchor="middle" x="406.742" y="-7" font-family="Helvetica,sans-Serif" font-size="10.00">boost/version.hpp</text>
</g>
<!-- Node9&#45;&gt;Node11 -->
<g id="edge10" class="edge"><title>Node9&#45;&gt;Node11</title>
<path fill="none" stroke="midnightblue" d="M406.742,-58.7527C406.742,-51.2504 406.742,-40.4238 406.742,-31.0781"/>
<polygon fill="midnightblue" stroke="midnightblue" points="410.242,-31.0752 406.742,-21.0752 403.242,-31.0752 410.242,-31.0752"/>
</g>
<!-- Node12 -->
<g id="node12" class="node"><title>Node12</title>
<polygon fill="white" stroke="#bfbfbf" points="472.363,-1 472.363,-21 605.121,-21 605.121,-1 472.363,-1"/>
<text text-anchor="middle" x="538.742" y="-7" font-family="Helvetica,sans-Serif" font-size="10.00">boost/checked_delete.hpp</text>
</g>
<!-- Node9&#45;&gt;Node12 -->
<g id="edge11" class="edge"><title>Node9&#45;&gt;Node12</title>
<path fill="none" stroke="midnightblue" d="M428.243,-58.878C449.913,-49.6848 483.562,-35.4095 508.037,-25.0263"/>
<polygon fill="midnightblue" stroke="midnightblue" points="509.41,-28.2457 517.249,-21.1181 506.676,-21.8016 509.41,-28.2457"/>
</g>
<!-- Node16&#45;&gt;Node9 -->
<g id="edge17" class="edge"><title>Node16&#45;&gt;Node9</title>
<path fill="none" stroke="midnightblue" d="M406.742,-232.753C406.742,-205.804 406.742,-126.908 406.742,-89.7664"/>
<polygon fill="midnightblue" stroke="midnightblue" points="410.242,-89.2932 406.742,-79.2932 403.242,-89.2932 410.242,-89.2932"/>
</g>
<!-- Node16&#45;&gt;Node2 -->
<g id="edge18" class="edge"><title>Node16&#45;&gt;Node2</title>
<path fill="none" stroke="midnightblue" d="M374.326,-232.878C340.4,-223.331 286.998,-208.303 249.835,-197.845"/>
<polygon fill="midnightblue" stroke="midnightblue" points="250.388,-194.365 239.814,-195.025 248.492,-201.103 250.388,-194.365"/>
</g>
<!-- Node16&#45;&gt;Node5 -->
<g id="edge19" class="edge"><title>Node16&#45;&gt;Node5</title>
<path fill="none" stroke="midnightblue" d="M402.241,-232.671C393.131,-213.789 372.369,-170.754 360.498,-146.149"/>
<polygon fill="midnightblue" stroke="midnightblue" points="363.649,-144.625 356.151,-137.139 357.344,-147.667 363.649,-144.625"/>
</g>
<!-- Node17 -->
<g id="node17" class="node"><title>Node17</title>
<polygon fill="white" stroke="#bfbfbf" points="434.35,-175 434.35,-195 473.133,-195 473.133,-175 434.35,-175"/>
<text text-anchor="middle" x="453.742" y="-181" font-family="Helvetica,sans-Serif" font-size="10.00">utility</text>
</g>
<!-- Node16&#45;&gt;Node17 -->
<g id="edge20" class="edge"><title>Node16&#45;&gt;Node17</title>
<path fill="none" stroke="midnightblue" d="M414.503,-232.753C421.278,-224.68 431.285,-212.757 439.497,-202.973"/>
<polygon fill="midnightblue" stroke="midnightblue" points="442.377,-204.985 446.125,-195.075 437.015,-200.485 442.377,-204.985"/>
</g>
<!-- Node16&#45;&gt;Node18 -->
<g id="edge21" class="edge"><title>Node16&#45;&gt;Node18</title>
<path fill="none" stroke="midnightblue" d="M424.245,-232.753C441.225,-223.783 467.199,-210.06 486.623,-199.799"/>
<polygon fill="midnightblue" stroke="midnightblue" points="488.357,-202.841 495.564,-195.075 485.087,-196.652 488.357,-202.841"/>
</g>
</g>
</svg>
