<?xml version="1.0" encoding="UTF-8" standalone="no"?>
<!DOCTYPE svg PUBLIC "-//W3C//DTD SVG 1.1//EN"
 "http://www.w3.org/Graphics/SVG/1.1/DTD/svg11.dtd">
<!-- Generated by graphviz version 2.30.1 (20140712.1814)
 -->
<!-- Title: include/cinder/app/RendererDx.h Pages: 1 -->
<svg width="1077pt" height="182pt"
 viewBox="0.00 0.00 1077.00 182.00" xmlns="http://www.w3.org/2000/svg" xmlns:xlink="http://www.w3.org/1999/xlink">
<g id="graph0" class="graph" transform="scale(1 1) rotate(0) translate(4 178)">
<title>include/cinder/app/RendererDx.h</title>
<polygon fill="white" stroke="white" points="-4,5 -4,-178 1074,-178 1074,5 -4,5"/>
<!-- Node1 -->
<g id="node1" class="node"><title>Node1</title>
<polygon fill="#bfbfbf" stroke="black" points="309.417,-141 309.417,-173 406.583,-173 406.583,-141 309.417,-141"/>
<text text-anchor="start" x="317.417" y="-159" font-family="Helvetica,sans-Serif" font-size="10.00">include/cinder/app</text>
<text text-anchor="middle" x="358" y="-147" font-family="Helvetica,sans-Serif" font-size="10.00">/RendererDx.h</text>
</g>
<!-- Node2 -->
<g id="node2" class="node"><title>Node2</title>
<g id="a_node2"><a xlink:href="_app_impl_msw_renderer_dx_8h.html" target="_top" xlink:title="include/cinder/app\l/AppImplMswRendererDx.h">
<polygon fill="white" stroke="black" points="389.867,-71 389.867,-103 528.133,-103 528.133,-71 389.867,-71"/>
<text text-anchor="start" x="397.867" y="-89" font-family="Helvetica,sans-Serif" font-size="10.00">include/cinder/app</text>
<text text-anchor="middle" x="459" y="-77" font-family="Helvetica,sans-Serif" font-size="10.00">/AppImplMswRendererDx.h</text>
</a>
</g>
</g>
<!-- Node1&#45;&gt;Node2 -->
<g id="edge1" class="edge"><title>Node1&#45;&gt;Node2</title>
<path fill="none" stroke="midnightblue" d="M389.087,-135.07C404.462,-124.719 422.669,-112.461 436.647,-103.049"/>
<polygon fill="midnightblue" stroke="midnightblue" points="386.756,-132.42 380.415,-140.909 390.665,-138.227 386.756,-132.42"/>
</g>
<!-- Node4 -->
<g id="node4" class="node"><title>Node4</title>
<g id="a_node4"><a xlink:href="_renderer_dx_8cpp.html" target="_top" xlink:title="src/cinder/app/RendererDx.cpp">
<polygon fill="white" stroke="black" points="-0.199219,-7 -0.199219,-27 154.199,-27 154.199,-7 -0.199219,-7"/>
<text text-anchor="middle" x="77" y="-13" font-family="Helvetica,sans-Serif" font-size="10.00">src/cinder/app/RendererDx.cpp</text>
</a>
</g>
</g>
<!-- Node1&#45;&gt;Node4 -->
<g id="edge9" class="edge"><title>Node1&#45;&gt;Node4</title>
<path fill="none" stroke="midnightblue" d="M318.364,-136.534C256.818,-106.309 140.664,-49.2654 95.562,-27.1159"/>
<polygon fill="midnightblue" stroke="midnightblue" points="316.874,-139.702 327.393,-140.969 319.96,-133.419 316.874,-139.702"/>
</g>
<!-- Node3 -->
<g id="node3" class="node"><title>Node3</title>
<g id="a_node3"><a xlink:href="_app_impl_msw_renderer_dx_8cpp.html" target="_top" xlink:title="src/cinder/app/AppImplMsw\lRendererDx.cpp">
<polygon fill="white" stroke="black" points="172.589,-1 172.589,-33 311.411,-33 311.411,-1 172.589,-1"/>
<text text-anchor="start" x="180.589" y="-19" font-family="Helvetica,sans-Serif" font-size="10.00">src/cinder/app/AppImplMsw</text>
<text text-anchor="middle" x="242" y="-7" font-family="Helvetica,sans-Serif" font-size="10.00">RendererDx.cpp</text>
</a>
</g>
</g>
<!-- Node2&#45;&gt;Node3 -->
<g id="edge2" class="edge"><title>Node2&#45;&gt;Node3</title>
<path fill="none" stroke="midnightblue" d="M401.124,-67.8636C366.461,-57.0017 322.915,-43.3557 290.142,-33.0861"/>
<polygon fill="midnightblue" stroke="midnightblue" points="400.521,-71.3425 411.11,-70.9929 402.614,-64.6627 400.521,-71.3425"/>
</g>
<!-- Node2&#45;&gt;Node4 -->
<g id="edge3" class="edge"><title>Node2&#45;&gt;Node4</title>
<path fill="none" stroke="midnightblue" d="M379.768,-72.1974C320.36,-61.8084 237.058,-47.1567 164,-34 151.606,-31.768 138.226,-29.3243 125.763,-27.0335"/>
<polygon fill="midnightblue" stroke="midnightblue" points="379.379,-75.6823 389.832,-73.9565 380.584,-68.7869 379.379,-75.6823"/>
</g>
<!-- Node5 -->
<g id="node5" class="node"><title>Node5</title>
<g id="a_node5"><a xlink:href="dx_8cpp.html" target="_top" xlink:title="src/cinder/dx/dx.cpp">
<polygon fill="white" stroke="black" points="329.537,-7 329.537,-27 434.463,-27 434.463,-7 329.537,-7"/>
<text text-anchor="middle" x="382" y="-13" font-family="Helvetica,sans-Serif" font-size="10.00">src/cinder/dx/dx.cpp</text>
</a>
</g>
</g>
<!-- Node2&#45;&gt;Node5 -->
<g id="edge4" class="edge"><title>Node2&#45;&gt;Node5</title>
<path fill="none" stroke="midnightblue" d="M434.346,-64.2276C420.079,-51.6279 402.885,-36.4436 392.195,-27.0035"/>
<polygon fill="midnightblue" stroke="midnightblue" points="432.099,-66.9126 441.911,-70.9086 436.732,-61.6657 432.099,-66.9126"/>
</g>
<!-- Node6 -->
<g id="node6" class="node"><title>Node6</title>
<g id="a_node6"><a xlink:href="_dx_render_target_8cpp.html" target="_top" xlink:title="src/cinder/dx/DxRenderTarget.cpp">
<polygon fill="white" stroke="black" points="452.412,-7 452.412,-27 619.588,-27 619.588,-7 452.412,-7"/>
<text text-anchor="middle" x="536" y="-13" font-family="Helvetica,sans-Serif" font-size="10.00">src/cinder/dx/DxRenderTarget.cpp</text>
</a>
</g>
</g>
<!-- Node2&#45;&gt;Node6 -->
<g id="edge5" class="edge"><title>Node2&#45;&gt;Node6</title>
<path fill="none" stroke="midnightblue" d="M483.654,-64.2276C497.921,-51.6279 515.115,-36.4436 525.805,-27.0035"/>
<polygon fill="midnightblue" stroke="midnightblue" points="481.268,-61.6657 476.089,-70.9086 485.901,-66.9126 481.268,-61.6657"/>
</g>
<!-- Node7 -->
<g id="node7" class="node"><title>Node7</title>
<g id="a_node7"><a xlink:href="_dx_texture_8cpp.html" target="_top" xlink:title="src/cinder/dx/DxTexture.cpp">
<polygon fill="white" stroke="black" points="637.311,-7 637.311,-27 776.689,-27 776.689,-7 637.311,-7"/>
<text text-anchor="middle" x="707" y="-13" font-family="Helvetica,sans-Serif" font-size="10.00">src/cinder/dx/DxTexture.cpp</text>
</a>
</g>
</g>
<!-- Node2&#45;&gt;Node7 -->
<g id="edge6" class="edge"><title>Node2&#45;&gt;Node7</title>
<path fill="none" stroke="midnightblue" d="M523.472,-68.3223C571.751,-55.0845 635.814,-37.5187 674.08,-27.0266"/>
<polygon fill="midnightblue" stroke="midnightblue" points="522.45,-64.9731 513.732,-70.9929 524.301,-71.7239 522.45,-64.9731"/>
</g>
<!-- Node8 -->
<g id="node8" class="node"><title>Node8</title>
<g id="a_node8"><a xlink:href="_dx_vbo_8cpp.html" target="_top" xlink:title="src/cinder/dx/DxVbo.cpp">
<polygon fill="white" stroke="black" points="794.811,-7 794.811,-27 919.189,-27 919.189,-7 794.811,-7"/>
<text text-anchor="middle" x="857" y="-13" font-family="Helvetica,sans-Serif" font-size="10.00">src/cinder/dx/DxVbo.cpp</text>
</a>
</g>
</g>
<!-- Node2&#45;&gt;Node8 -->
<g id="edge7" class="edge"><title>Node2&#45;&gt;Node8</title>
<path fill="none" stroke="midnightblue" d="M538.155,-74.743C604.317,-65.0061 701.061,-50.0058 785,-34 795.817,-31.9373 807.492,-29.4548 818.228,-27.0674"/>
<polygon fill="midnightblue" stroke="midnightblue" points="537.6,-71.2869 528.214,-76.2004 538.616,-78.2129 537.6,-71.2869"/>
</g>
<!-- Node9 -->
<g id="node9" class="node"><title>Node9</title>
<g id="a_node9"><a xlink:href="_hlsl_prog_8cpp.html" target="_top" xlink:title="src/cinder/dx/HlslProg.cpp">
<polygon fill="white" stroke="black" points="936.924,-7 936.924,-27 1069.08,-27 1069.08,-7 936.924,-7"/>
<text text-anchor="middle" x="1003" y="-13" font-family="Helvetica,sans-Serif" font-size="10.00">src/cinder/dx/HlslProg.cpp</text>
</a>
</g>
</g>
<!-- Node2&#45;&gt;Node9 -->
<g id="edge8" class="edge"><title>Node2&#45;&gt;Node9</title>
<path fill="none" stroke="midnightblue" d="M538.668,-79.6064C632.241,-71.5336 791.977,-55.9936 928,-34 939.829,-32.0874 952.61,-29.5421 964.212,-27.0453"/>
<polygon fill="midnightblue" stroke="midnightblue" points="538.093,-76.1427 528.428,-80.4827 538.69,-83.1172 538.093,-76.1427"/>
</g>
</g>
</svg>
