<?xml version="1.0" encoding="UTF-8" standalone="no"?>
<!DOCTYPE svg PUBLIC "-//W3C//DTD SVG 1.1//EN"
 "http://www.w3.org/Graphics/SVG/1.1/DTD/svg11.dtd">
<!-- Generated by graphviz version 2.30.1 (20140712.1814)
 -->
<!-- Title: src/cinder/ip/Resize.cpp Pages: 1 -->
<!--zoomable 506 -->
<svg id="main" version="1.1" xmlns="http://www.w3.org/2000/svg" xmlns:xlink="http://www.w3.org/1999/xlink" xml:space="preserve" onload="init(evt)">
<style type="text/css"><![CDATA[
.edge:hover path { stroke: red; }
.edge:hover polygon { stroke: red; fill: red; }
]]></style>
<script type="text/javascript"><![CDATA[
var edges = document.getElementsByTagName('g');
if (edges && edges.length) {
  for (var i=0;i<edges.length;i++) {
    if (edges[i].id.substr(0,4)=='edge') {
      edges[i].setAttribute('class','edge');
    }
  }
}
]]></script>
        <defs>
                <circle id="rim" cx="0" cy="0" r="7"/>
                <circle id="rim2" cx="0" cy="0" r="3.5"/>
                <g id="zoomPlus">
                        <use xlink:href="#rim" fill="#404040">
                                <set attributeName="fill" to="#808080" begin="zoomplus.mouseover" end="zoomplus.mouseout"/>
                        </use>
                        <path d="M-4,0h8M0,-4v8" fill="none" stroke="white" stroke-width="1.5" pointer-events="none"/>
                </g>
                <g id="zoomMin">
                        <use xlink:href="#rim" fill="#404040">
                                <set attributeName="fill" to="#808080" begin="zoomminus.mouseover" end="zoomminus.mouseout"/>
                        </use>
                        <path d="M-4,0h8" fill="none" stroke="white" stroke-width="1.5" pointer-events="none"/>
                </g>
                <g id="dirArrow">
                        <path fill="none" stroke="white" stroke-width="1.5" d="M0,-3.0v7 M-2.5,-0.5L0,-3.0L2.5,-0.5"/>
                </g>
               <g id="resetDef">
                       <use xlink:href="#rim2" fill="#404040">
                               <set attributeName="fill" to="#808080" begin="reset.mouseover" end="reset.mouseout"/>
                       </use>
               </g>
        </defs>

<script type="text/javascript">
var viewWidth = 1061;
var viewHeight = 506;
var sectionId = 'dynsection-0';
</script>
<script xlink:href="svgpan.js"/>
<svg id="graph" class="graph">
<g id="viewport">
<title>src/cinder/ip/Resize.cpp</title>
<polygon fill="white" stroke="white" points="-4,5 -4,-502 1058,-502 1058,5 -4,5"/>
<!-- Node1 -->
<g id="node1" class="node"><title>Node1</title>
<polygon fill="#bfbfbf" stroke="black" points="631.924,-477 631.924,-497 754.076,-497 754.076,-477 631.924,-477"/>
<text text-anchor="middle" x="693" y="-483" font-family="Helvetica,sans-Serif" font-size="10.00">src/cinder/ip/Resize.cpp</text>
</g>
<!-- Node2 -->
<g id="node2" class="node"><title>Node2</title>
<g id="a_node2"><a xlink:href="_surface_8h.html" target="_top" xlink:title="cinder/Surface.h">
<polygon fill="white" stroke="black" points="325.591,-349 325.591,-369 414.409,-369 414.409,-349 325.591,-349"/>
<text text-anchor="middle" x="370" y="-355" font-family="Helvetica,sans-Serif" font-size="10.00">cinder/Surface.h</text>
</a>
</g>
</g>
<!-- Node1&#45;&gt;Node2 -->
<g id="edge1" class="edge"><title>Node1&#45;&gt;Node2</title>
<path fill="none" stroke="midnightblue" d="M631.921,-483.072C582.696,-478.642 512.887,-467.575 458,-440 427.419,-424.637 399.548,-395.631 383.697,-377.089"/>
<polygon fill="midnightblue" stroke="midnightblue" points="386.192,-374.615 377.108,-369.163 380.809,-379.09 386.192,-374.615"/>
</g>
<!-- Node26 -->
<g id="node26" class="node"><title>Node26</title>
<g id="a_node26"><a xlink:href="_resize_8h.html" target="_top" xlink:title="cinder/ip/Resize.h">
<polygon fill="white" stroke="black" points="467.259,-413 467.259,-433 562.741,-433 562.741,-413 467.259,-413"/>
<text text-anchor="middle" x="515" y="-419" font-family="Helvetica,sans-Serif" font-size="10.00">cinder/ip/Resize.h</text>
</a>
</g>
</g>
<!-- Node1&#45;&gt;Node26 -->
<g id="edge37" class="edge"><title>Node1&#45;&gt;Node26</title>
<path fill="none" stroke="midnightblue" d="M667.117,-476.985C636.402,-466.286 585.022,-448.39 550.582,-436.394"/>
<polygon fill="midnightblue" stroke="midnightblue" points="551.509,-433.01 540.914,-433.026 549.206,-439.621 551.509,-433.01"/>
</g>
<!-- Node27 -->
<g id="node27" class="node"><title>Node27</title>
<g id="a_node27"><a xlink:href="_filter_8h.html" target="_top" xlink:title="cinder/Filter.h">
<polygon fill="white" stroke="black" points="537.985,-349 537.985,-369 614.015,-369 614.015,-349 537.985,-349"/>
<text text-anchor="middle" x="576" y="-355" font-family="Helvetica,sans-Serif" font-size="10.00">cinder/Filter.h</text>
</a>
</g>
</g>
<!-- Node1&#45;&gt;Node27 -->
<g id="edge45" class="edge"><title>Node1&#45;&gt;Node27</title>
<path fill="none" stroke="midnightblue" d="M676.744,-476.894C662.747,-468.526 642.563,-455.149 628,-440 609.959,-421.232 594.472,-395.358 585.201,-378.176"/>
<polygon fill="midnightblue" stroke="midnightblue" points="588.231,-376.416 580.489,-369.183 582.03,-379.665 588.231,-376.416"/>
</g>
<!-- Node28 -->
<g id="node28" class="node"><title>Node28</title>
<g id="a_node28"><a xlink:href="_rect_8h.html" target="_top" xlink:title="cinder/Rect.h">
<polygon fill="white" stroke="black" points="604.542,-291 604.542,-311 679.458,-311 679.458,-291 604.542,-291"/>
<text text-anchor="middle" x="642" y="-297" font-family="Helvetica,sans-Serif" font-size="10.00">cinder/Rect.h</text>
</a>
</g>
</g>
<!-- Node1&#45;&gt;Node28 -->
<g id="edge46" class="edge"><title>Node1&#45;&gt;Node28</title>
<path fill="none" stroke="midnightblue" d="M684.693,-476.898C677.196,-468.126 666.521,-454.137 661,-440 645.296,-399.788 642.255,-348.56 641.852,-321.229"/>
<polygon fill="midnightblue" stroke="midnightblue" points="645.352,-321.066 641.812,-311.08 638.352,-321.094 645.352,-321.066"/>
</g>
<!-- Node21 -->
<g id="node21" class="node"><title>Node21</title>
<g id="a_node21"><a xlink:href="_chan_traits_8h.html" target="_top" xlink:title="cinder/ChanTraits.h">
<polygon fill="white" stroke="black" points="-0.447266,-175 -0.447266,-195 102.447,-195 102.447,-175 -0.447266,-175"/>
<text text-anchor="middle" x="51" y="-181" font-family="Helvetica,sans-Serif" font-size="10.00">cinder/ChanTraits.h</text>
</a>
</g>
</g>
<!-- Node1&#45;&gt;Node21 -->
<g id="edge47" class="edge"><title>Node1&#45;&gt;Node21</title>
<path fill="none" stroke="midnightblue" d="M631.856,-481.243C463.232,-467.311 4,-423.537 4,-360 4,-360 4,-360 4,-300 4,-263.636 24.6927,-225.338 38.6177,-203.683"/>
<polygon fill="midnightblue" stroke="midnightblue" points="41.6243,-205.483 44.266,-195.223 35.8026,-201.596 41.6243,-205.483"/>
</g>
<!-- Node29 -->
<g id="node29" class="node"><title>Node29</title>
<polygon fill="white" stroke="#bfbfbf" points="669.714,-413 669.714,-433 716.286,-433 716.286,-413 669.714,-413"/>
<text text-anchor="middle" x="693" y="-419" font-family="Helvetica,sans-Serif" font-size="10.00">math.h</text>
</g>
<!-- Node1&#45;&gt;Node29 -->
<g id="edge48" class="edge"><title>Node1&#45;&gt;Node29</title>
<path fill="none" stroke="midnightblue" d="M693,-476.852C693,-468.06 693,-454.498 693,-443.313"/>
<polygon fill="midnightblue" stroke="midnightblue" points="696.5,-443.186 693,-433.186 689.5,-443.186 696.5,-443.186"/>
</g>
<!-- Node19 -->
<g id="node19" class="node"><title>Node19</title>
<polygon fill="white" stroke="#bfbfbf" points="719.384,-175 719.384,-195 762.616,-195 762.616,-175 719.384,-175"/>
<text text-anchor="middle" x="741" y="-181" font-family="Helvetica,sans-Serif" font-size="10.00">vector</text>
</g>
<!-- Node1&#45;&gt;Node19 -->
<g id="edge49" class="edge"><title>Node1&#45;&gt;Node19</title>
<path fill="none" stroke="midnightblue" d="M700.998,-476.768C708.277,-467.905 718.805,-453.854 725,-440 739.918,-406.639 744,-396.545 744,-360 744,-360 744,-360 744,-300 744,-266.786 742.712,-228.149 741.824,-205.458"/>
<polygon fill="midnightblue" stroke="midnightblue" points="745.308,-205.009 741.405,-195.16 738.314,-205.294 745.308,-205.009"/>
</g>
<!-- Node13 -->
<g id="node13" class="node"><title>Node13</title>
<polygon fill="white" stroke="#bfbfbf" points="807.613,-117 807.613,-137 846.387,-137 846.387,-117 807.613,-117"/>
<text text-anchor="middle" x="827" y="-123" font-family="Helvetica,sans-Serif" font-size="10.00">limits</text>
</g>
<!-- Node1&#45;&gt;Node13 -->
<g id="edge50" class="edge"><title>Node1&#45;&gt;Node13</title>
<path fill="none" stroke="midnightblue" d="M707.488,-476.79C719.299,-468.543 735.523,-455.397 745,-440 805.73,-341.341 821.855,-198.412 825.809,-147.172"/>
<polygon fill="midnightblue" stroke="midnightblue" points="829.301,-147.399 826.511,-137.178 822.318,-146.908 829.301,-147.399"/>
</g>
<!-- Node30 -->
<g id="node30" class="node"><title>Node30</title>
<polygon fill="white" stroke="#bfbfbf" points="810.33,-413 810.33,-433 859.67,-433 859.67,-413 810.33,-413"/>
<text text-anchor="middle" x="835" y="-419" font-family="Helvetica,sans-Serif" font-size="10.00">fstream</text>
</g>
<!-- Node1&#45;&gt;Node30 -->
<g id="edge51" class="edge"><title>Node1&#45;&gt;Node30</title>
<path fill="none" stroke="midnightblue" d="M713.648,-476.985C737.626,-466.516 777.388,-449.154 804.827,-437.174"/>
<polygon fill="midnightblue" stroke="midnightblue" points="806.563,-440.235 814.327,-433.026 803.762,-433.82 806.563,-440.235"/>
</g>
<!-- Node31 -->
<g id="node31" class="node"><title>Node31</title>
<polygon fill="white" stroke="#bfbfbf" points="877.436,-413 877.436,-433 934.564,-433 934.564,-413 877.436,-413"/>
<text text-anchor="middle" x="906" y="-419" font-family="Helvetica,sans-Serif" font-size="10.00">algorithm</text>
</g>
<!-- Node1&#45;&gt;Node31 -->
<g id="edge52" class="edge"><title>Node1&#45;&gt;Node31</title>
<path fill="none" stroke="midnightblue" d="M734.15,-476.922C769.925,-468.619 822.942,-455.322 868,-440 870.796,-439.049 873.677,-437.99 876.544,-436.881"/>
<polygon fill="midnightblue" stroke="midnightblue" points="878.139,-440.011 886.089,-433.008 875.507,-433.524 878.139,-440.011"/>
</g>
<!-- Node32 -->
<g id="node32" class="node"><title>Node32</title>
<polygon fill="white" stroke="#bfbfbf" points="952.2,-407 952.2,-439 1053.8,-439 1053.8,-407 952.2,-407"/>
<text text-anchor="start" x="960.2" y="-425" font-family="Helvetica,sans-Serif" font-size="10.00">boost/preprocessor</text>
<text text-anchor="middle" x="1003" y="-413" font-family="Helvetica,sans-Serif" font-size="10.00">/seq.hpp</text>
</g>
<!-- Node1&#45;&gt;Node32 -->
<g id="edge53" class="edge"><title>Node1&#45;&gt;Node32</title>
<path fill="none" stroke="midnightblue" d="M749.356,-476.933C797.91,-468.826 870.07,-456.078 941.877,-440.158"/>
<polygon fill="midnightblue" stroke="midnightblue" points="943.01,-443.491 952.004,-437.891 941.481,-436.66 943.01,-443.491"/>
</g>
<!-- Node3 -->
<g id="node3" class="node"><title>Node3</title>
<g id="a_node3"><a xlink:href="_cinder_8h.html" target="_top" xlink:title="cinder/Cinder.h">
<polygon fill="white" stroke="black" points="298.367,-59 298.367,-79 381.633,-79 381.633,-59 298.367,-59"/>
<text text-anchor="middle" x="340" y="-65" font-family="Helvetica,sans-Serif" font-size="10.00">cinder/Cinder.h</text>
</a>
</g>
</g>
<!-- Node2&#45;&gt;Node3 -->
<g id="edge2" class="edge"><title>Node2&#45;&gt;Node3</title>
<path fill="none" stroke="midnightblue" d="M331.084,-348.985C302.375,-341.431 262.923,-329.117 231,-312 212.586,-302.127 166.145,-272.786 157,-254 118.629,-175.173 244.324,-109.87 306.836,-83.0764"/>
<polygon fill="midnightblue" stroke="midnightblue" points="308.424,-86.206 316.292,-79.1106 305.717,-79.7508 308.424,-86.206"/>
</g>
<!-- Node7 -->
<g id="node7" class="node"><title>Node7</title>
<g id="a_node7"><a xlink:href="_area_8h.html" target="_top" xlink:title="cinder/Area.h">
<polygon fill="white" stroke="black" points="537.261,-233 537.261,-253 612.739,-253 612.739,-233 537.261,-233"/>
<text text-anchor="middle" x="575" y="-239" font-family="Helvetica,sans-Serif" font-size="10.00">cinder/Area.h</text>
</a>
</g>
</g>
<!-- Node2&#45;&gt;Node7 -->
<g id="edge6" class="edge"><title>Node2&#45;&gt;Node7</title>
<path fill="none" stroke="midnightblue" d="M406.093,-348.995C432.659,-341.445 469.039,-329.133 498,-312 521.831,-297.902 545.076,-275.895 559.682,-260.756"/>
<polygon fill="midnightblue" stroke="midnightblue" points="562.543,-262.823 566.856,-253.146 557.45,-258.021 562.543,-262.823"/>
</g>
<!-- Node20 -->
<g id="node20" class="node"><title>Node20</title>
<g id="a_node20"><a xlink:href="_channel_8h.html" target="_top" xlink:title="cinder/Channel.h">
<polygon fill="white" stroke="black" points="398.197,-291 398.197,-311 489.803,-311 489.803,-291 398.197,-291"/>
<text text-anchor="middle" x="444" y="-297" font-family="Helvetica,sans-Serif" font-size="10.00">cinder/Channel.h</text>
</a>
</g>
</g>
<!-- Node2&#45;&gt;Node20 -->
<g id="edge23" class="edge"><title>Node2&#45;&gt;Node20</title>
<path fill="none" stroke="midnightblue" d="M382.22,-348.753C393.534,-340.19 410.571,-327.298 423.89,-317.219"/>
<polygon fill="midnightblue" stroke="midnightblue" points="426.146,-319.901 432.008,-311.075 421.922,-314.319 426.146,-319.901"/>
</g>
<!-- Node2&#45;&gt;Node21 -->
<g id="edge26" class="edge"><title>Node2&#45;&gt;Node21</title>
<path fill="none" stroke="midnightblue" d="M325.38,-357.905C248.536,-356.72 96.0707,-349.562 61,-312 34.0178,-283.101 40.0629,-232.467 46.0109,-205.007"/>
<polygon fill="midnightblue" stroke="midnightblue" points="49.4595,-205.634 48.3773,-195.095 42.6509,-204.009 49.4595,-205.634"/>
</g>
<!-- Node22 -->
<g id="node22" class="node"><title>Node22</title>
<g id="a_node22"><a xlink:href="_color_8h.html" target="_top" xlink:title="cinder/Color.h">
<polygon fill="white" stroke="black" points="368.148,-233 368.148,-253 445.852,-253 445.852,-233 368.148,-233"/>
<text text-anchor="middle" x="407" y="-239" font-family="Helvetica,sans-Serif" font-size="10.00">cinder/Color.h</text>
</a>
</g>
</g>
<!-- Node2&#45;&gt;Node22 -->
<g id="edge28" class="edge"><title>Node2&#45;&gt;Node22</title>
<path fill="none" stroke="midnightblue" d="M372.29,-348.671C375.597,-335.485 382.08,-310.692 389,-290 392.06,-280.85 395.906,-270.859 399.258,-262.532"/>
<polygon fill="midnightblue" stroke="midnightblue" points="402.584,-263.645 403.141,-253.065 396.108,-260.989 402.584,-263.645"/>
</g>
<!-- Node23 -->
<g id="node23" class="node"><title>Node23</title>
<g id="a_node23"><a xlink:href="_filesystem_8h.html" target="_top" xlink:title="cinder/Filesystem.h">
<polygon fill="white" stroke="black" points="239.931,-291 239.931,-311 342.069,-311 342.069,-291 239.931,-291"/>
<text text-anchor="middle" x="291" y="-297" font-family="Helvetica,sans-Serif" font-size="10.00">cinder/Filesystem.h</text>
</a>
</g>
</g>
<!-- Node2&#45;&gt;Node23 -->
<g id="edge33" class="edge"><title>Node2&#45;&gt;Node23</title>
<path fill="none" stroke="midnightblue" d="M356.955,-348.753C344.761,-340.109 326.341,-327.052 312.064,-316.931"/>
<polygon fill="midnightblue" stroke="midnightblue" points="313.985,-314.003 303.803,-311.075 309.937,-319.714 313.985,-314.003"/>
</g>
<!-- Node25 -->
<g id="node25" class="node"><title>Node25</title>
<polygon fill="white" stroke="#bfbfbf" points="70.3574,-291 70.3574,-311 183.643,-311 183.643,-291 70.3574,-291"/>
<text text-anchor="middle" x="127" y="-297" font-family="Helvetica,sans-Serif" font-size="10.00">boost/logic/tribool.hpp</text>
</g>
<!-- Node2&#45;&gt;Node25 -->
<g id="edge36" class="edge"><title>Node2&#45;&gt;Node25</title>
<path fill="none" stroke="midnightblue" d="M330.688,-348.94C288.603,-339.242 221.753,-323.836 176.205,-313.339"/>
<polygon fill="midnightblue" stroke="midnightblue" points="176.786,-309.882 166.256,-311.047 175.214,-316.703 176.786,-309.882"/>
</g>
<!-- Node4 -->
<g id="node4" class="node"><title>Node4</title>
<polygon fill="white" stroke="#bfbfbf" points="229.549,-1 229.549,-21 274.451,-21 274.451,-1 229.549,-1"/>
<text text-anchor="middle" x="252" y="-7" font-family="Helvetica,sans-Serif" font-size="10.00">cstdint</text>
</g>
<!-- Node3&#45;&gt;Node4 -->
<g id="edge3" class="edge"><title>Node3&#45;&gt;Node4</title>
<path fill="none" stroke="midnightblue" d="M325.469,-58.7527C311.757,-50.0272 290.979,-36.8051 275.015,-26.6458"/>
<polygon fill="midnightblue" stroke="midnightblue" points="276.577,-23.4912 266.261,-21.0752 272.819,-29.3968 276.577,-23.4912"/>
</g>
<!-- Node5 -->
<g id="node5" class="node"><title>Node5</title>
<polygon fill="white" stroke="#bfbfbf" points="292.53,-1 292.53,-21 387.47,-21 387.47,-1 292.53,-1"/>
<text text-anchor="middle" x="340" y="-7" font-family="Helvetica,sans-Serif" font-size="10.00">boost/version.hpp</text>
</g>
<!-- Node3&#45;&gt;Node5 -->
<g id="edge4" class="edge"><title>Node3&#45;&gt;Node5</title>
<path fill="none" stroke="midnightblue" d="M340,-58.7527C340,-51.2504 340,-40.4238 340,-31.0781"/>
<polygon fill="midnightblue" stroke="midnightblue" points="343.5,-31.0752 340,-21.0752 336.5,-31.0752 343.5,-31.0752"/>
</g>
<!-- Node6 -->
<g id="node6" class="node"><title>Node6</title>
<polygon fill="white" stroke="#bfbfbf" points="405.621,-1 405.621,-21 538.379,-21 538.379,-1 405.621,-1"/>
<text text-anchor="middle" x="472" y="-7" font-family="Helvetica,sans-Serif" font-size="10.00">boost/checked_delete.hpp</text>
</g>
<!-- Node3&#45;&gt;Node6 -->
<g id="edge5" class="edge"><title>Node3&#45;&gt;Node6</title>
<path fill="none" stroke="midnightblue" d="M361.502,-58.878C383.172,-49.6848 416.821,-35.4095 441.295,-25.0263"/>
<polygon fill="midnightblue" stroke="midnightblue" points="442.668,-28.2457 450.507,-21.1181 439.935,-21.8016 442.668,-28.2457"/>
</g>
<!-- Node7&#45;&gt;Node3 -->
<g id="edge7" class="edge"><title>Node7&#45;&gt;Node3</title>
<path fill="none" stroke="midnightblue" d="M562.696,-232.995C524.635,-205.137 408.507,-120.141 360.798,-85.2225"/>
<polygon fill="midnightblue" stroke="midnightblue" points="362.602,-82.2056 352.465,-79.1237 358.468,-87.8542 362.602,-82.2056"/>
</g>
<!-- Node8 -->
<g id="node8" class="node"><title>Node8</title>
<g id="a_node8"><a xlink:href="_vector_8h.html" target="_top" xlink:title="cinder/Vector.h">
<polygon fill="white" stroke="black" points="618.919,-175 618.919,-195 701.081,-195 701.081,-175 618.919,-175"/>
<text text-anchor="middle" x="660" y="-181" font-family="Helvetica,sans-Serif" font-size="10.00">cinder/Vector.h</text>
</a>
</g>
</g>
<!-- Node7&#45;&gt;Node8 -->
<g id="edge8" class="edge"><title>Node7&#45;&gt;Node8</title>
<path fill="none" stroke="midnightblue" d="M589.036,-232.753C602.28,-224.027 622.349,-210.805 637.77,-200.646"/>
<polygon fill="midnightblue" stroke="midnightblue" points="639.8,-203.5 646.225,-195.075 635.949,-197.654 639.8,-203.5"/>
</g>
<!-- Node11 -->
<g id="node11" class="node"><title>Node11</title>
<polygon fill="white" stroke="#bfbfbf" points="567.828,-117 567.828,-137 622.172,-137 622.172,-117 567.828,-117"/>
<text text-anchor="middle" x="595" y="-123" font-family="Helvetica,sans-Serif" font-size="10.00">iostream</text>
</g>
<!-- Node7&#45;&gt;Node11 -->
<g id="edge20" class="edge"><title>Node7&#45;&gt;Node11</title>
<path fill="none" stroke="midnightblue" d="M576.637,-232.671C579.905,-214.041 587.299,-171.898 591.642,-147.143"/>
<polygon fill="midnightblue" stroke="midnightblue" points="595.116,-147.594 593.397,-137.139 588.221,-146.384 595.116,-147.594"/>
</g>
<!-- Node18 -->
<g id="node18" class="node"><title>Node18</title>
<polygon fill="white" stroke="#bfbfbf" points="524.608,-175 524.608,-195 563.392,-195 563.392,-175 524.608,-175"/>
<text text-anchor="middle" x="544" y="-181" font-family="Helvetica,sans-Serif" font-size="10.00">utility</text>
</g>
<!-- Node7&#45;&gt;Node18 -->
<g id="edge21" class="edge"><title>Node7&#45;&gt;Node18</title>
<path fill="none" stroke="midnightblue" d="M569.881,-232.753C565.547,-224.924 559.21,-213.476 553.891,-203.868"/>
<polygon fill="midnightblue" stroke="midnightblue" points="556.929,-202.129 549.024,-195.075 550.805,-205.519 556.929,-202.129"/>
</g>
<!-- Node7&#45;&gt;Node19 -->
<g id="edge22" class="edge"><title>Node7&#45;&gt;Node19</title>
<path fill="none" stroke="midnightblue" d="M602.04,-232.878C631.552,-222.922 678.733,-207.006 709.794,-196.527"/>
<polygon fill="midnightblue" stroke="midnightblue" points="710.913,-199.844 719.269,-193.331 708.675,-193.211 710.913,-199.844"/>
</g>
<!-- Node9 -->
<g id="node9" class="node"><title>Node9</title>
<polygon fill="white" stroke="#bfbfbf" points="682.384,-59 682.384,-79 725.616,-79 725.616,-59 682.384,-59"/>
<text text-anchor="middle" x="704" y="-65" font-family="Helvetica,sans-Serif" font-size="10.00">cmath</text>
</g>
<!-- Node8&#45;&gt;Node9 -->
<g id="edge9" class="edge"><title>Node8&#45;&gt;Node9</title>
<path fill="none" stroke="midnightblue" d="M701.264,-176.331C722.996,-169.97 747.812,-158.498 761,-138 773.779,-118.139 750.808,-97.6779 730.324,-84.459"/>
<polygon fill="midnightblue" stroke="midnightblue" points="731.878,-81.3073 721.518,-79.0917 728.235,-87.2847 731.878,-81.3073"/>
</g>
<!-- Node10 -->
<g id="node10" class="node"><title>Node10</title>
<polygon fill="white" stroke="#bfbfbf" points="640.273,-117 640.273,-137 685.727,-137 685.727,-117 640.273,-117"/>
<text text-anchor="middle" x="663" y="-123" font-family="Helvetica,sans-Serif" font-size="10.00">cstring</text>
</g>
<!-- Node8&#45;&gt;Node10 -->
<g id="edge10" class="edge"><title>Node8&#45;&gt;Node10</title>
<path fill="none" stroke="midnightblue" d="M660.495,-174.753C660.897,-167.25 661.477,-156.424 661.978,-147.078"/>
<polygon fill="midnightblue" stroke="midnightblue" points="665.474,-147.248 662.514,-137.075 658.484,-146.874 665.474,-147.248"/>
</g>
<!-- Node8&#45;&gt;Node11 -->
<g id="edge11" class="edge"><title>Node8&#45;&gt;Node11</title>
<path fill="none" stroke="midnightblue" d="M649.267,-174.753C639.517,-166.353 624.932,-153.787 613.336,-143.798"/>
<polygon fill="midnightblue" stroke="midnightblue" points="615.394,-140.951 605.534,-137.075 610.825,-146.254 615.394,-140.951"/>
</g>
<!-- Node12 -->
<g id="node12" class="node"><title>Node12</title>
<polygon fill="white" stroke="#bfbfbf" points="703.884,-117 703.884,-137 752.116,-137 752.116,-117 703.884,-117"/>
<text text-anchor="middle" x="728" y="-123" font-family="Helvetica,sans-Serif" font-size="10.00">cassert</text>
</g>
<!-- Node8&#45;&gt;Node12 -->
<g id="edge12" class="edge"><title>Node8&#45;&gt;Node12</title>
<path fill="none" stroke="midnightblue" d="M671.229,-174.753C681.527,-166.272 696.984,-153.543 709.17,-143.507"/>
<polygon fill="midnightblue" stroke="midnightblue" points="711.486,-146.134 716.98,-137.075 707.036,-140.731 711.486,-146.134"/>
</g>
<!-- Node8&#45;&gt;Node13 -->
<g id="edge13" class="edge"><title>Node8&#45;&gt;Node13</title>
<path fill="none" stroke="midnightblue" d="M687.203,-174.878C717.429,-164.742 766.077,-148.429 797.281,-137.966"/>
<polygon fill="midnightblue" stroke="midnightblue" points="798.775,-141.156 807.143,-134.659 796.549,-134.52 798.775,-141.156"/>
</g>
<!-- Node14 -->
<g id="node14" class="node"><title>Node14</title>
<g id="a_node14"><a xlink:href="_cinder_math_8h.html" target="_top" xlink:title="cinder/CinderMath.h">
<polygon fill="white" stroke="black" points="443.978,-117 443.978,-137 550.022,-137 550.022,-117 443.978,-117"/>
<text text-anchor="middle" x="497" y="-123" font-family="Helvetica,sans-Serif" font-size="10.00">cinder/CinderMath.h</text>
</a>
</g>
</g>
<!-- Node8&#45;&gt;Node14 -->
<g id="edge14" class="edge"><title>Node8&#45;&gt;Node14</title>
<path fill="none" stroke="midnightblue" d="M633.448,-174.878C606.135,-165.494 563.409,-150.815 533.051,-140.386"/>
<polygon fill="midnightblue" stroke="midnightblue" points="533.865,-136.964 523.27,-137.025 531.59,-143.585 533.865,-136.964"/>
</g>
<!-- Node14&#45;&gt;Node3 -->
<g id="edge15" class="edge"><title>Node14&#45;&gt;Node3</title>
<path fill="none" stroke="midnightblue" d="M471.426,-116.878C445.118,-107.494 403.965,-92.8155 374.724,-82.3857"/>
<polygon fill="midnightblue" stroke="midnightblue" points="375.898,-79.0884 365.303,-79.0253 373.546,-85.6815 375.898,-79.0884"/>
</g>
<!-- Node14&#45;&gt;Node9 -->
<g id="edge16" class="edge"><title>Node14&#45;&gt;Node9</title>
<path fill="none" stroke="midnightblue" d="M530.719,-116.878C569.883,-106.283 633.999,-88.9374 672.287,-78.5794"/>
<polygon fill="midnightblue" stroke="midnightblue" points="673.62,-81.8447 682.359,-75.8546 671.792,-75.0876 673.62,-81.8447"/>
</g>
<!-- Node15 -->
<g id="node15" class="node"><title>Node15</title>
<polygon fill="white" stroke="#bfbfbf" points="544.113,-59 544.113,-79 587.887,-79 587.887,-59 544.113,-59"/>
<text text-anchor="middle" x="566" y="-65" font-family="Helvetica,sans-Serif" font-size="10.00">climits</text>
</g>
<!-- Node14&#45;&gt;Node15 -->
<g id="edge17" class="edge"><title>Node14&#45;&gt;Node15</title>
<path fill="none" stroke="midnightblue" d="M508.394,-116.753C518.844,-108.272 534.527,-95.543 546.893,-85.5073"/>
<polygon fill="midnightblue" stroke="midnightblue" points="549.259,-88.0945 554.818,-79.0752 544.848,-82.6593 549.259,-88.0945"/>
</g>
<!-- Node16 -->
<g id="node16" class="node"><title>Node16</title>
<polygon fill="white" stroke="#bfbfbf" points="410.049,-59 410.049,-79 449.951,-79 449.951,-59 410.049,-59"/>
<text text-anchor="middle" x="430" y="-65" font-family="Helvetica,sans-Serif" font-size="10.00">cfloat</text>
</g>
<!-- Node14&#45;&gt;Node16 -->
<g id="edge18" class="edge"><title>Node14&#45;&gt;Node16</title>
<path fill="none" stroke="midnightblue" d="M485.936,-116.753C475.79,-108.272 460.56,-95.543 448.553,-85.5073"/>
<polygon fill="midnightblue" stroke="midnightblue" points="450.775,-82.8028 440.858,-79.0752 446.286,-88.1738 450.775,-82.8028"/>
</g>
<!-- Node17 -->
<g id="node17" class="node"><title>Node17</title>
<polygon fill="white" stroke="#bfbfbf" points="467.596,-59 467.596,-79 526.404,-79 526.404,-59 467.596,-59"/>
<text text-anchor="middle" x="497" y="-65" font-family="Helvetica,sans-Serif" font-size="10.00">functional</text>
</g>
<!-- Node14&#45;&gt;Node17 -->
<g id="edge19" class="edge"><title>Node14&#45;&gt;Node17</title>
<path fill="none" stroke="midnightblue" d="M497,-116.753C497,-109.25 497,-98.4238 497,-89.0781"/>
<polygon fill="midnightblue" stroke="midnightblue" points="500.5,-89.0752 497,-79.0752 493.5,-89.0752 500.5,-89.0752"/>
</g>
<!-- Node20&#45;&gt;Node3 -->
<g id="edge24" class="edge"><title>Node20&#45;&gt;Node3</title>
<path fill="none" stroke="midnightblue" d="M411.726,-290.883C393.179,-283.896 371.208,-272.279 359,-254 324.72,-202.671 331.204,-124.701 336.565,-89.0247"/>
<polygon fill="midnightblue" stroke="midnightblue" points="340.041,-89.451 338.213,-79.0152 333.134,-88.3137 340.041,-89.451"/>
</g>
<!-- Node20&#45;&gt;Node7 -->
<g id="edge25" class="edge"><title>Node20&#45;&gt;Node7</title>
<path fill="none" stroke="midnightblue" d="M465.339,-290.878C486.749,-281.725 519.943,-267.536 544.205,-257.164"/>
<polygon fill="midnightblue" stroke="midnightblue" points="545.851,-260.267 553.67,-253.118 543.099,-253.831 545.851,-260.267"/>
</g>
<!-- Node21&#45;&gt;Node3 -->
<g id="edge27" class="edge"><title>Node21&#45;&gt;Node3</title>
<path fill="none" stroke="midnightblue" d="M57.9794,-174.864C69.8359,-160.031 95.4232,-130.873 124,-116 175.746,-89.0677 242.281,-77.9003 287.747,-73.2719"/>
<polygon fill="midnightblue" stroke="midnightblue" points="288.346,-76.731 297.972,-72.305 287.687,-69.7621 288.346,-76.731"/>
</g>
<!-- Node22&#45;&gt;Node3 -->
<g id="edge29" class="edge"><title>Node22&#45;&gt;Node3</title>
<path fill="none" stroke="midnightblue" d="M403.398,-232.753C392.81,-205.571 361.634,-125.538 347.328,-88.8111"/>
<polygon fill="midnightblue" stroke="midnightblue" points="350.511,-87.3408 343.62,-79.2932 343.988,-89.8816 350.511,-87.3408"/>
</g>
<!-- Node22&#45;&gt;Node21 -->
<g id="edge30" class="edge"><title>Node22&#45;&gt;Node21</title>
<path fill="none" stroke="midnightblue" d="M367.883,-235.847C306.211,-226.146 185.869,-207.215 112.535,-195.68"/>
<polygon fill="midnightblue" stroke="midnightblue" points="112.933,-192.199 102.51,-194.103 111.845,-199.114 112.933,-192.199"/>
</g>
<!-- Node22&#45;&gt;Node8 -->
<g id="edge31" class="edge"><title>Node22&#45;&gt;Node8</title>
<path fill="none" stroke="midnightblue" d="M445.977,-233.373C489.845,-223.663 561.258,-207.856 609.4,-197.2"/>
<polygon fill="midnightblue" stroke="midnightblue" points="610.295,-200.587 619.302,-195.008 608.782,-193.752 610.295,-200.587"/>
</g>
<!-- Node22&#45;&gt;Node14 -->
<g id="edge32" class="edge"><title>Node22&#45;&gt;Node14</title>
<path fill="none" stroke="midnightblue" d="M414.365,-232.671C429.471,-213.537 464.156,-169.602 483.441,-145.175"/>
<polygon fill="midnightblue" stroke="midnightblue" points="486.335,-147.157 489.785,-137.139 480.841,-142.819 486.335,-147.157"/>
</g>
<!-- Node23&#45;&gt;Node3 -->
<g id="edge34" class="edge"><title>Node23&#45;&gt;Node3</title>
<path fill="none" stroke="midnightblue" d="M292.401,-290.734C296.574,-263.643 309.655,-182.301 326,-116 328.223,-106.983 331.158,-97.1159 333.766,-88.8404"/>
<polygon fill="midnightblue" stroke="midnightblue" points="337.174,-89.6755 336.919,-79.0837 330.513,-87.5228 337.174,-89.6755"/>
</g>
<!-- Node24 -->
<g id="node24" class="node"><title>Node24</title>
<polygon fill="white" stroke="#bfbfbf" points="166.421,-233 166.421,-253 273.579,-253 273.579,-233 166.421,-233"/>
<text text-anchor="middle" x="220" y="-239" font-family="Helvetica,sans-Serif" font-size="10.00">boost/filesystem.hpp</text>
</g>
<!-- Node23&#45;&gt;Node24 -->
<g id="edge35" class="edge"><title>Node23&#45;&gt;Node24</title>
<path fill="none" stroke="midnightblue" d="M279.276,-290.753C268.523,-282.272 252.385,-269.543 239.661,-259.507"/>
<polygon fill="midnightblue" stroke="midnightblue" points="241.525,-256.52 231.506,-253.075 237.19,-262.016 241.525,-256.52"/>
</g>
<!-- Node26&#45;&gt;Node2 -->
<g id="edge38" class="edge"><title>Node26&#45;&gt;Node2</title>
<path fill="none" stroke="midnightblue" d="M493.916,-412.985C469.324,-402.47 428.472,-385.002 400.442,-373.017"/>
<polygon fill="midnightblue" stroke="midnightblue" points="401.68,-369.74 391.11,-369.026 398.928,-376.176 401.68,-369.74"/>
</g>
<!-- Node26&#45;&gt;Node27 -->
<g id="edge39" class="edge"><title>Node26&#45;&gt;Node27</title>
<path fill="none" stroke="midnightblue" d="M524.001,-412.852C533.371,-403.327 548.251,-388.204 559.697,-376.571"/>
<polygon fill="midnightblue" stroke="midnightblue" points="562.444,-378.769 566.962,-369.186 557.454,-373.86 562.444,-378.769"/>
</g>
<!-- Node26&#45;&gt;Node28 -->
<g id="edge41" class="edge"><title>Node26&#45;&gt;Node28</title>
<path fill="none" stroke="midnightblue" d="M514.114,-412.65C513.189,-397.359 513.602,-366.825 529,-348 545.238,-328.148 571.394,-316.785 594.454,-310.321"/>
<polygon fill="midnightblue" stroke="midnightblue" points="595.627,-313.634 604.446,-307.762 593.89,-306.853 595.627,-313.634"/>
</g>
<!-- Node27&#45;&gt;Node14 -->
<g id="edge40" class="edge"><title>Node27&#45;&gt;Node14</title>
<path fill="none" stroke="midnightblue" d="M571.014,-348.786C561.525,-330.94 540.684,-290.223 528,-254 515.023,-216.94 505.346,-171.934 500.491,-146.983"/>
<polygon fill="midnightblue" stroke="midnightblue" points="503.906,-146.204 498.606,-137.031 497.029,-147.508 503.906,-146.204"/>
</g>
<!-- Node28&#45;&gt;Node8 -->
<g id="edge42" class="edge"><title>Node28&#45;&gt;Node8</title>
<path fill="none" stroke="midnightblue" d="M643.473,-290.671C646.415,-272.041 653.069,-229.898 656.977,-205.143"/>
<polygon fill="midnightblue" stroke="midnightblue" points="660.454,-205.563 658.557,-195.139 653.54,-204.471 660.454,-205.563"/>
</g>
<!-- Node28&#45;&gt;Node7 -->
<g id="edge43" class="edge"><title>Node28&#45;&gt;Node7</title>
<path fill="none" stroke="midnightblue" d="M630.936,-290.753C620.79,-282.272 605.56,-269.543 593.553,-259.507"/>
<polygon fill="midnightblue" stroke="midnightblue" points="595.775,-256.803 585.858,-253.075 591.286,-262.174 595.775,-256.803"/>
</g>
<!-- Node28&#45;&gt;Node19 -->
<g id="edge44" class="edge"><title>Node28&#45;&gt;Node19</title>
<path fill="none" stroke="midnightblue" d="M650.102,-290.671C666.791,-271.453 705.207,-227.217 726.363,-202.854"/>
<polygon fill="midnightblue" stroke="midnightblue" points="729.149,-204.985 733.063,-195.139 723.864,-200.395 729.149,-204.985"/>
</g>
</g>
</svg>
        <g id="navigator" transform="translate(0 0)" fill="#404254">
                <rect fill="#f2f5e9" fill-opacity="0.5" stroke="#606060" stroke-width=".5" x="0" y="0" width="60" height="60"/>
                <use id="zoomplus" xlink:href="#zoomPlus" x="17" y="9" onmousedown="handleZoom(evt,'in')"/>
                <use id="zoomminus" xlink:href="#zoomMin" x="42" y="9" onmousedown="handleZoom(evt,'out')"/>
                <use id="reset" xlink:href="#resetDef" x="30" y="36" onmousedown="handleReset()"/>
                <g id="arrowUp" xlink:href="#dirArrow" transform="translate(30 24)" onmousedown="handlePan(0,-1)">
                  <use xlink:href="#rim" fill="#404040">
                        <set attributeName="fill" to="#808080" begin="arrowUp.mouseover" end="arrowUp.mouseout"/>
                  </use>
                  <path fill="none" stroke="white" stroke-width="1.5" d="M0,-3.0v7 M-2.5,-0.5L0,-3.0L2.5,-0.5"/>
                </g>
                <g id="arrowRight" xlink:href="#dirArrow" transform="rotate(90) translate(36 -43)" onmousedown="handlePan(1,0)">
                  <use xlink:href="#rim" fill="#404040">
                        <set attributeName="fill" to="#808080" begin="arrowRight.mouseover" end="arrowRight.mouseout"/>
                  </use>
                  <path fill="none" stroke="white" stroke-width="1.5" d="M0,-3.0v7 M-2.5,-0.5L0,-3.0L2.5,-0.5"/>
                </g>
                <g id="arrowDown" xlink:href="#dirArrow" transform="rotate(180) translate(-30 -48)" onmousedown="handlePan(0,1)">
                  <use xlink:href="#rim" fill="#404040">
                        <set attributeName="fill" to="#808080" begin="arrowDown.mouseover" end="arrowDown.mouseout"/>
                  </use>
                  <path fill="none" stroke="white" stroke-width="1.5" d="M0,-3.0v7 M-2.5,-0.5L0,-3.0L2.5,-0.5"/>
                </g>
                <g id="arrowLeft" xlink:href="#dirArrow" transform="rotate(270) translate(-36 17)" onmousedown="handlePan(-1,0)">
                  <use xlink:href="#rim" fill="#404040">
                        <set attributeName="fill" to="#808080" begin="arrowLeft.mouseover" end="arrowLeft.mouseout"/>
                  </use>
                  <path fill="none" stroke="white" stroke-width="1.5" d="M0,-3.0v7 M-2.5,-0.5L0,-3.0L2.5,-0.5"/>
                </g>
        </g>
        <svg viewBox="0 0 15 15" width="100%" height="30px" preserveAspectRatio="xMaxYMin meet">
         <g id="arrow_out" transform="scale(0.3 0.3)">
          <a xlink:href="_resize_8cpp__incl_org.svg" target="_base">
           <rect id="button" ry="5" rx="5" y="6" x="6" height="38" width="38"
                fill="#f2f5e9" fill-opacity="0.5" stroke="#606060" stroke-width="1.0"/>
           <path id="arrow"
             d="M 11.500037,31.436501 C 11.940474,20.09759 22.043105,11.32322 32.158766,21.979434 L 37.068811,17.246167 C 37.068811,17.246167 37.088388,32 37.088388,32 L 22.160133,31.978069 C 22.160133,31.978069 26.997745,27.140456 26.997745,27.140456 C 18.528582,18.264221 13.291696,25.230495 11.500037,31.436501 z"
             style="fill:#404040;"/>
          </a>
         </g>
        </svg>
</svg>
