<?xml version="1.0" encoding="UTF-8" standalone="no"?>
<!DOCTYPE svg PUBLIC "-//W3C//DTD SVG 1.1//EN"
 "http://www.w3.org/Graphics/SVG/1.1/DTD/svg11.dtd">
<!-- Generated by graphviz version 2.30.1 (20140712.1814)
 -->
<!-- Title: include/cinder/ip/Resize.h Pages: 1 -->
<!--zoomable 436 -->
<svg id="main" version="1.1" xmlns="http://www.w3.org/2000/svg" xmlns:xlink="http://www.w3.org/1999/xlink" xml:space="preserve" onload="init(evt)">
<style type="text/css"><![CDATA[
.edge:hover path { stroke: red; }
.edge:hover polygon { stroke: red; fill: red; }
]]></style>
<script type="text/javascript"><![CDATA[
var edges = document.getElementsByTagName('g');
if (edges && edges.length) {
  for (var i=0;i<edges.length;i++) {
    if (edges[i].id.substr(0,4)=='edge') {
      edges[i].setAttribute('class','edge');
    }
  }
}
]]></script>
        <defs>
                <circle id="rim" cx="0" cy="0" r="7"/>
                <circle id="rim2" cx="0" cy="0" r="3.5"/>
                <g id="zoomPlus">
                        <use xlink:href="#rim" fill="#404040">
                                <set attributeName="fill" to="#808080" begin="zoomplus.mouseover" end="zoomplus.mouseout"/>
                        </use>
                        <path d="M-4,0h8M0,-4v8" fill="none" stroke="white" stroke-width="1.5" pointer-events="none"/>
                </g>
                <g id="zoomMin">
                        <use xlink:href="#rim" fill="#404040">
                                <set attributeName="fill" to="#808080" begin="zoomminus.mouseover" end="zoomminus.mouseout"/>
                        </use>
                        <path d="M-4,0h8" fill="none" stroke="white" stroke-width="1.5" pointer-events="none"/>
                </g>
                <g id="dirArrow">
                        <path fill="none" stroke="white" stroke-width="1.5" d="M0,-3.0v7 M-2.5,-0.5L0,-3.0L2.5,-0.5"/>
                </g>
               <g id="resetDef">
                       <use xlink:href="#rim2" fill="#404040">
                               <set attributeName="fill" to="#808080" begin="reset.mouseover" end="reset.mouseout"/>
                       </use>
               </g>
        </defs>

<script type="text/javascript">
var viewWidth = 838;
var viewHeight = 436;
var sectionId = 'dynsection-0';
</script>
<script xlink:href="svgpan.js"/>
<svg id="graph" class="graph">
<g id="viewport">
<title>include/cinder/ip/Resize.h</title>
<polygon fill="white" stroke="white" points="-4,5 -4,-432 835,-432 835,5 -4,5"/>
<!-- Node1 -->
<g id="node1" class="node"><title>Node1</title>
<polygon fill="#bfbfbf" stroke="black" points="520.025,-407 520.025,-427 649.975,-427 649.975,-407 520.025,-407"/>
<text text-anchor="middle" x="585" y="-413" font-family="Helvetica,sans-Serif" font-size="10.00">include/cinder/ip/Resize.h</text>
</g>
<!-- Node2 -->
<g id="node2" class="node"><title>Node2</title>
<g id="a_node2"><a xlink:href="_surface_8h.html" target="_top" xlink:title="cinder/Surface.h">
<polygon fill="white" stroke="black" points="232.591,-349 232.591,-369 321.409,-369 321.409,-349 232.591,-349"/>
<text text-anchor="middle" x="277" y="-355" font-family="Helvetica,sans-Serif" font-size="10.00">cinder/Surface.h</text>
</a>
</g>
</g>
<!-- Node1&#45;&gt;Node2 -->
<g id="edge1" class="edge"><title>Node1&#45;&gt;Node2</title>
<path fill="none" stroke="midnightblue" d="M535.172,-406.94C479.44,-396.807 389.44,-380.444 331.772,-369.959"/>
<polygon fill="midnightblue" stroke="midnightblue" points="332.214,-366.482 321.749,-368.136 330.962,-373.369 332.214,-366.482"/>
</g>
<!-- Node26 -->
<g id="node26" class="node"><title>Node26</title>
<g id="a_node26"><a xlink:href="_filter_8h.html" target="_top" xlink:title="cinder/Filter.h">
<polygon fill="white" stroke="black" points="633.985,-349 633.985,-369 710.015,-369 710.015,-349 633.985,-349"/>
<text text-anchor="middle" x="672" y="-355" font-family="Helvetica,sans-Serif" font-size="10.00">cinder/Filter.h</text>
</a>
</g>
</g>
<!-- Node1&#45;&gt;Node26 -->
<g id="edge37" class="edge"><title>Node1&#45;&gt;Node26</title>
<path fill="none" stroke="midnightblue" d="M599.366,-406.753C612.922,-398.027 633.464,-384.805 649.247,-374.646"/>
<polygon fill="midnightblue" stroke="midnightblue" points="651.387,-377.431 657.901,-369.075 647.598,-371.545 651.387,-377.431"/>
</g>
<!-- Node27 -->
<g id="node27" class="node"><title>Node27</title>
<g id="a_node27"><a xlink:href="_rect_8h.html" target="_top" xlink:title="cinder/Rect.h">
<polygon fill="white" stroke="black" points="547.542,-291 547.542,-311 622.458,-311 622.458,-291 547.542,-291"/>
<text text-anchor="middle" x="585" y="-297" font-family="Helvetica,sans-Serif" font-size="10.00">cinder/Rect.h</text>
</a>
</g>
</g>
<!-- Node1&#45;&gt;Node27 -->
<g id="edge39" class="edge"><title>Node1&#45;&gt;Node27</title>
<path fill="none" stroke="midnightblue" d="M585,-406.671C585,-388.041 585,-345.898 585,-321.143"/>
<polygon fill="midnightblue" stroke="midnightblue" points="588.5,-321.139 585,-311.139 581.5,-321.139 588.5,-321.139"/>
</g>
<!-- Node3 -->
<g id="node3" class="node"><title>Node3</title>
<g id="a_node3"><a xlink:href="_cinder_8h.html" target="_top" xlink:title="cinder/Cinder.h">
<polygon fill="white" stroke="black" points="198.367,-59 198.367,-79 281.633,-79 281.633,-59 198.367,-59"/>
<text text-anchor="middle" x="240" y="-65" font-family="Helvetica,sans-Serif" font-size="10.00">cinder/Cinder.h</text>
</a>
</g>
</g>
<!-- Node2&#45;&gt;Node3 -->
<g id="edge2" class="edge"><title>Node2&#45;&gt;Node3</title>
<path fill="none" stroke="midnightblue" d="M232.495,-358.894C154.194,-357.898 0,-343.327 0,-244 0,-244 0,-244 0,-184 0,-101.344 117.584,-78.546 188.145,-72.3066"/>
<polygon fill="midnightblue" stroke="midnightblue" points="188.507,-75.7889 198.195,-71.501 187.947,-68.8113 188.507,-75.7889"/>
</g>
<!-- Node7 -->
<g id="node7" class="node"><title>Node7</title>
<g id="a_node7"><a xlink:href="_area_8h.html" target="_top" xlink:title="cinder/Area.h">
<polygon fill="white" stroke="black" points="368.261,-233 368.261,-253 443.739,-253 443.739,-233 368.261,-233"/>
<text text-anchor="middle" x="406" y="-239" font-family="Helvetica,sans-Serif" font-size="10.00">cinder/Area.h</text>
</a>
</g>
</g>
<!-- Node2&#45;&gt;Node7 -->
<g id="edge6" class="edge"><title>Node2&#45;&gt;Node7</title>
<path fill="none" stroke="midnightblue" d="M304.688,-348.952C324.211,-341.479 349.987,-329.279 368,-312 382.45,-298.138 392.897,-277.564 399.137,-262.679"/>
<polygon fill="midnightblue" stroke="midnightblue" points="402.532,-263.61 402.935,-253.023 396.017,-261.048 402.532,-263.61"/>
</g>
<!-- Node20 -->
<g id="node20" class="node"><title>Node20</title>
<g id="a_node20"><a xlink:href="_channel_8h.html" target="_top" xlink:title="cinder/Channel.h">
<polygon fill="white" stroke="black" points="268.197,-291 268.197,-311 359.803,-311 359.803,-291 268.197,-291"/>
<text text-anchor="middle" x="314" y="-297" font-family="Helvetica,sans-Serif" font-size="10.00">cinder/Channel.h</text>
</a>
</g>
</g>
<!-- Node2&#45;&gt;Node20 -->
<g id="edge23" class="edge"><title>Node2&#45;&gt;Node20</title>
<path fill="none" stroke="midnightblue" d="M283.11,-348.753C288.336,-340.843 296.004,-329.237 302.392,-319.568"/>
<polygon fill="midnightblue" stroke="midnightblue" points="305.411,-321.348 308.004,-311.075 299.571,-317.489 305.411,-321.348"/>
</g>
<!-- Node21 -->
<g id="node21" class="node"><title>Node21</title>
<g id="a_node21"><a xlink:href="_chan_traits_8h.html" target="_top" xlink:title="cinder/ChanTraits.h">
<polygon fill="white" stroke="black" points="109.553,-175 109.553,-195 212.447,-195 212.447,-175 109.553,-175"/>
<text text-anchor="middle" x="161" y="-181" font-family="Helvetica,sans-Serif" font-size="10.00">cinder/ChanTraits.h</text>
</a>
</g>
</g>
<!-- Node2&#45;&gt;Node21 -->
<g id="edge26" class="edge"><title>Node2&#45;&gt;Node21</title>
<path fill="none" stroke="midnightblue" d="M270.763,-348.753C252.274,-321.338 197.527,-240.161 173.055,-203.875"/>
<polygon fill="midnightblue" stroke="midnightblue" points="175.761,-201.627 167.267,-195.293 169.957,-205.541 175.761,-201.627"/>
</g>
<!-- Node22 -->
<g id="node22" class="node"><title>Node22</title>
<g id="a_node22"><a xlink:href="_color_8h.html" target="_top" xlink:title="cinder/Color.h">
<polygon fill="white" stroke="black" points="268.148,-233 268.148,-253 345.852,-253 345.852,-233 268.148,-233"/>
<text text-anchor="middle" x="307" y="-239" font-family="Helvetica,sans-Serif" font-size="10.00">cinder/Color.h</text>
</a>
</g>
</g>
<!-- Node2&#45;&gt;Node22 -->
<g id="edge28" class="edge"><title>Node2&#45;&gt;Node22</title>
<path fill="none" stroke="midnightblue" d="M270.901,-348.925C262.776,-335.623 250.372,-310.218 259,-290 264.186,-277.848 274.331,-267.366 283.963,-259.491"/>
<polygon fill="midnightblue" stroke="midnightblue" points="286.314,-262.101 292.159,-253.264 282.079,-256.527 286.314,-262.101"/>
</g>
<!-- Node23 -->
<g id="node23" class="node"><title>Node23</title>
<g id="a_node23"><a xlink:href="_filesystem_8h.html" target="_top" xlink:title="cinder/Filesystem.h">
<polygon fill="white" stroke="black" points="68.9312,-291 68.9312,-311 171.069,-311 171.069,-291 68.9312,-291"/>
<text text-anchor="middle" x="120" y="-297" font-family="Helvetica,sans-Serif" font-size="10.00">cinder/Filesystem.h</text>
</a>
</g>
</g>
<!-- Node2&#45;&gt;Node23 -->
<g id="edge33" class="edge"><title>Node2&#45;&gt;Node23</title>
<path fill="none" stroke="midnightblue" d="M251.426,-348.878C225.118,-339.494 183.965,-324.815 154.724,-314.386"/>
<polygon fill="midnightblue" stroke="midnightblue" points="155.898,-311.088 145.303,-311.025 153.546,-317.682 155.898,-311.088"/>
</g>
<!-- Node25 -->
<g id="node25" class="node"><title>Node25</title>
<polygon fill="white" stroke="#bfbfbf" points="416.357,-291 416.357,-311 529.643,-311 529.643,-291 416.357,-291"/>
<text text-anchor="middle" x="473" y="-297" font-family="Helvetica,sans-Serif" font-size="10.00">boost/logic/tribool.hpp</text>
</g>
<!-- Node2&#45;&gt;Node25 -->
<g id="edge36" class="edge"><title>Node2&#45;&gt;Node25</title>
<path fill="none" stroke="midnightblue" d="M308.927,-348.878C342.341,-339.331 394.938,-324.303 431.541,-313.845"/>
<polygon fill="midnightblue" stroke="midnightblue" points="432.758,-317.138 441.411,-311.025 430.835,-310.407 432.758,-317.138"/>
</g>
<!-- Node4 -->
<g id="node4" class="node"><title>Node4</title>
<polygon fill="white" stroke="#bfbfbf" points="129.549,-1 129.549,-21 174.451,-21 174.451,-1 129.549,-1"/>
<text text-anchor="middle" x="152" y="-7" font-family="Helvetica,sans-Serif" font-size="10.00">cstdint</text>
</g>
<!-- Node3&#45;&gt;Node4 -->
<g id="edge3" class="edge"><title>Node3&#45;&gt;Node4</title>
<path fill="none" stroke="midnightblue" d="M225.469,-58.7527C211.757,-50.0272 190.979,-36.8051 175.015,-26.6458"/>
<polygon fill="midnightblue" stroke="midnightblue" points="176.577,-23.4912 166.261,-21.0752 172.819,-29.3968 176.577,-23.4912"/>
</g>
<!-- Node5 -->
<g id="node5" class="node"><title>Node5</title>
<polygon fill="white" stroke="#bfbfbf" points="192.53,-1 192.53,-21 287.47,-21 287.47,-1 192.53,-1"/>
<text text-anchor="middle" x="240" y="-7" font-family="Helvetica,sans-Serif" font-size="10.00">boost/version.hpp</text>
</g>
<!-- Node3&#45;&gt;Node5 -->
<g id="edge4" class="edge"><title>Node3&#45;&gt;Node5</title>
<path fill="none" stroke="midnightblue" d="M240,-58.7527C240,-51.2504 240,-40.4238 240,-31.0781"/>
<polygon fill="midnightblue" stroke="midnightblue" points="243.5,-31.0752 240,-21.0752 236.5,-31.0752 243.5,-31.0752"/>
</g>
<!-- Node6 -->
<g id="node6" class="node"><title>Node6</title>
<polygon fill="white" stroke="#bfbfbf" points="305.621,-1 305.621,-21 438.379,-21 438.379,-1 305.621,-1"/>
<text text-anchor="middle" x="372" y="-7" font-family="Helvetica,sans-Serif" font-size="10.00">boost/checked_delete.hpp</text>
</g>
<!-- Node3&#45;&gt;Node6 -->
<g id="edge5" class="edge"><title>Node3&#45;&gt;Node6</title>
<path fill="none" stroke="midnightblue" d="M261.502,-58.878C283.172,-49.6848 316.821,-35.4095 341.295,-25.0263"/>
<polygon fill="midnightblue" stroke="midnightblue" points="342.668,-28.2457 350.507,-21.1181 339.935,-21.8016 342.668,-28.2457"/>
</g>
<!-- Node7&#45;&gt;Node3 -->
<g id="edge7" class="edge"><title>Node7&#45;&gt;Node3</title>
<path fill="none" stroke="midnightblue" d="M399.587,-232.818C390.041,-219.383 371.255,-193.815 353,-174 322.108,-140.469 282.067,-105.33 258.883,-85.6927"/>
<polygon fill="midnightblue" stroke="midnightblue" points="261.059,-82.9489 251.153,-79.1908 256.553,-88.3061 261.059,-82.9489"/>
</g>
<!-- Node8 -->
<g id="node8" class="node"><title>Node8</title>
<g id="a_node8"><a xlink:href="_vector_8h.html" target="_top" xlink:title="cinder/Vector.h">
<polygon fill="white" stroke="black" points="437.919,-175 437.919,-195 520.081,-195 520.081,-175 437.919,-175"/>
<text text-anchor="middle" x="479" y="-181" font-family="Helvetica,sans-Serif" font-size="10.00">cinder/Vector.h</text>
</a>
</g>
</g>
<!-- Node7&#45;&gt;Node8 -->
<g id="edge8" class="edge"><title>Node7&#45;&gt;Node8</title>
<path fill="none" stroke="midnightblue" d="M418.054,-232.753C429.216,-224.19 446.023,-211.298 459.161,-201.219"/>
<polygon fill="midnightblue" stroke="midnightblue" points="461.366,-203.939 467.17,-195.075 457.105,-198.385 461.366,-203.939"/>
</g>
<!-- Node11 -->
<g id="node11" class="node"><title>Node11</title>
<polygon fill="white" stroke="#bfbfbf" points="343.828,-117 343.828,-137 398.172,-137 398.172,-117 343.828,-117"/>
<text text-anchor="middle" x="371" y="-123" font-family="Helvetica,sans-Serif" font-size="10.00">iostream</text>
</g>
<!-- Node7&#45;&gt;Node11 -->
<g id="edge20" class="edge"><title>Node7&#45;&gt;Node11</title>
<path fill="none" stroke="midnightblue" d="M403.368,-232.735C399.622,-219.624 392.486,-194.922 386,-174 383.202,-164.974 379.966,-154.997 377.218,-146.649"/>
<polygon fill="midnightblue" stroke="midnightblue" points="380.535,-145.531 374.067,-137.139 373.89,-147.732 380.535,-145.531"/>
</g>
<!-- Node18 -->
<g id="node18" class="node"><title>Node18</title>
<polygon fill="white" stroke="#bfbfbf" points="305.608,-175 305.608,-195 344.392,-195 344.392,-175 305.608,-175"/>
<text text-anchor="middle" x="325" y="-181" font-family="Helvetica,sans-Serif" font-size="10.00">utility</text>
</g>
<!-- Node7&#45;&gt;Node18 -->
<g id="edge21" class="edge"><title>Node7&#45;&gt;Node18</title>
<path fill="none" stroke="midnightblue" d="M392.624,-232.753C380.122,-224.109 361.236,-211.052 346.597,-200.931"/>
<polygon fill="midnightblue" stroke="midnightblue" points="348.343,-197.883 338.127,-195.075 344.362,-203.641 348.343,-197.883"/>
</g>
<!-- Node19 -->
<g id="node19" class="node"><title>Node19</title>
<polygon fill="white" stroke="#bfbfbf" points="576.384,-175 576.384,-195 619.616,-195 619.616,-175 576.384,-175"/>
<text text-anchor="middle" x="598" y="-181" font-family="Helvetica,sans-Serif" font-size="10.00">vector</text>
</g>
<!-- Node7&#45;&gt;Node19 -->
<g id="edge22" class="edge"><title>Node7&#45;&gt;Node19</title>
<path fill="none" stroke="midnightblue" d="M437.275,-232.878C472.866,-222.497 530.673,-205.637 566.399,-195.217"/>
<polygon fill="midnightblue" stroke="midnightblue" points="567.67,-198.492 576.29,-192.332 565.71,-191.772 567.67,-198.492"/>
</g>
<!-- Node9 -->
<g id="node9" class="node"><title>Node9</title>
<polygon fill="white" stroke="#bfbfbf" points="591.384,-59 591.384,-79 634.616,-79 634.616,-59 591.384,-59"/>
<text text-anchor="middle" x="613" y="-65" font-family="Helvetica,sans-Serif" font-size="10.00">cmath</text>
</g>
<!-- Node8&#45;&gt;Node9 -->
<g id="edge9" class="edge"><title>Node8&#45;&gt;Node9</title>
<path fill="none" stroke="midnightblue" d="M520.183,-177.018C544.832,-170.783 574.97,-159.205 594,-138 606.004,-124.624 610.49,-104.263 612.132,-89.3063"/>
<polygon fill="midnightblue" stroke="midnightblue" points="615.638,-89.3656 612.911,-79.1277 608.658,-88.8314 615.638,-89.3656"/>
</g>
<!-- Node10 -->
<g id="node10" class="node"><title>Node10</title>
<polygon fill="white" stroke="#bfbfbf" points="416.273,-117 416.273,-137 461.727,-137 461.727,-117 416.273,-117"/>
<text text-anchor="middle" x="439" y="-123" font-family="Helvetica,sans-Serif" font-size="10.00">cstring</text>
</g>
<!-- Node8&#45;&gt;Node10 -->
<g id="edge10" class="edge"><title>Node8&#45;&gt;Node10</title>
<path fill="none" stroke="midnightblue" d="M472.395,-174.753C466.687,-166.761 458.284,-154.998 451.336,-145.27"/>
<polygon fill="midnightblue" stroke="midnightblue" points="454.143,-143.178 445.482,-137.075 448.447,-147.247 454.143,-143.178"/>
</g>
<!-- Node8&#45;&gt;Node11 -->
<g id="edge11" class="edge"><title>Node8&#45;&gt;Node11</title>
<path fill="none" stroke="midnightblue" d="M461.166,-174.753C443.866,-165.783 417.402,-152.06 397.612,-141.799"/>
<polygon fill="midnightblue" stroke="midnightblue" points="398.991,-138.571 388.502,-137.075 395.769,-144.786 398.991,-138.571"/>
</g>
<!-- Node12 -->
<g id="node12" class="node"><title>Node12</title>
<polygon fill="white" stroke="#bfbfbf" points="479.884,-117 479.884,-137 528.116,-137 528.116,-117 479.884,-117"/>
<text text-anchor="middle" x="504" y="-123" font-family="Helvetica,sans-Serif" font-size="10.00">cassert</text>
</g>
<!-- Node8&#45;&gt;Node12 -->
<g id="edge12" class="edge"><title>Node8&#45;&gt;Node12</title>
<path fill="none" stroke="midnightblue" d="M483.128,-174.753C486.55,-167.087 491.522,-155.952 495.754,-146.471"/>
<polygon fill="midnightblue" stroke="midnightblue" points="499.068,-147.633 499.949,-137.075 492.676,-144.78 499.068,-147.633"/>
</g>
<!-- Node13 -->
<g id="node13" class="node"><title>Node13</title>
<polygon fill="white" stroke="#bfbfbf" points="546.613,-117 546.613,-137 585.387,-137 585.387,-117 546.613,-117"/>
<text text-anchor="middle" x="566" y="-123" font-family="Helvetica,sans-Serif" font-size="10.00">limits</text>
</g>
<!-- Node8&#45;&gt;Node13 -->
<g id="edge13" class="edge"><title>Node8&#45;&gt;Node13</title>
<path fill="none" stroke="midnightblue" d="M493.366,-174.753C506.922,-166.027 527.464,-152.805 543.247,-142.646"/>
<polygon fill="midnightblue" stroke="midnightblue" points="545.387,-145.431 551.901,-137.075 541.598,-139.545 545.387,-145.431"/>
</g>
<!-- Node14 -->
<g id="node14" class="node"><title>Node14</title>
<g id="a_node14"><a xlink:href="_cinder_math_8h.html" target="_top" xlink:title="cinder/CinderMath.h">
<polygon fill="white" stroke="black" points="640.978,-117 640.978,-137 747.022,-137 747.022,-117 640.978,-117"/>
<text text-anchor="middle" x="694" y="-123" font-family="Helvetica,sans-Serif" font-size="10.00">cinder/CinderMath.h</text>
</a>
</g>
</g>
<!-- Node8&#45;&gt;Node14 -->
<g id="edge14" class="edge"><title>Node8&#45;&gt;Node14</title>
<path fill="none" stroke="midnightblue" d="M514.022,-174.878C550.989,-165.249 609.359,-150.046 649.548,-139.578"/>
<polygon fill="midnightblue" stroke="midnightblue" points="650.554,-142.933 659.349,-137.025 648.79,-136.159 650.554,-142.933"/>
</g>
<!-- Node14&#45;&gt;Node3 -->
<g id="edge15" class="edge"><title>Node14&#45;&gt;Node3</title>
<path fill="none" stroke="midnightblue" d="M640.585,-119.411C552.741,-108.576 378.873,-87.1297 291.977,-76.4113"/>
<polygon fill="midnightblue" stroke="midnightblue" points="292.176,-72.9094 281.823,-75.1588 291.319,-79.8568 292.176,-72.9094"/>
</g>
<!-- Node14&#45;&gt;Node9 -->
<g id="edge16" class="edge"><title>Node14&#45;&gt;Node9</title>
<path fill="none" stroke="midnightblue" d="M680.624,-116.753C668.122,-108.109 649.236,-95.0518 634.597,-84.9314"/>
<polygon fill="midnightblue" stroke="midnightblue" points="636.343,-81.8831 626.127,-79.0752 632.362,-87.641 636.343,-81.8831"/>
</g>
<!-- Node15 -->
<g id="node15" class="node"><title>Node15</title>
<polygon fill="white" stroke="#bfbfbf" points="729.113,-59 729.113,-79 772.887,-79 772.887,-59 729.113,-59"/>
<text text-anchor="middle" x="751" y="-65" font-family="Helvetica,sans-Serif" font-size="10.00">climits</text>
</g>
<!-- Node14&#45;&gt;Node15 -->
<g id="edge17" class="edge"><title>Node14&#45;&gt;Node15</title>
<path fill="none" stroke="midnightblue" d="M703.412,-116.753C711.879,-108.435 724.504,-96.031 734.623,-86.0893"/>
<polygon fill="midnightblue" stroke="midnightblue" points="737.082,-88.5801 741.763,-79.0752 732.176,-83.5868 737.082,-88.5801"/>
</g>
<!-- Node16 -->
<g id="node16" class="node"><title>Node16</title>
<polygon fill="white" stroke="#bfbfbf" points="791.049,-59 791.049,-79 830.951,-79 830.951,-59 791.049,-59"/>
<text text-anchor="middle" x="811" y="-65" font-family="Helvetica,sans-Serif" font-size="10.00">cfloat</text>
</g>
<!-- Node14&#45;&gt;Node16 -->
<g id="edge18" class="edge"><title>Node14&#45;&gt;Node16</title>
<path fill="none" stroke="midnightblue" d="M713.058,-116.878C732.011,-107.807 761.301,-93.7876 782.916,-83.4418"/>
<polygon fill="midnightblue" stroke="midnightblue" points="784.441,-86.5925 791.95,-79.1181 781.419,-80.2784 784.441,-86.5925"/>
</g>
<!-- Node17 -->
<g id="node17" class="node"><title>Node17</title>
<polygon fill="white" stroke="#bfbfbf" points="652.596,-59 652.596,-79 711.404,-79 711.404,-59 652.596,-59"/>
<text text-anchor="middle" x="682" y="-65" font-family="Helvetica,sans-Serif" font-size="10.00">functional</text>
</g>
<!-- Node14&#45;&gt;Node17 -->
<g id="edge19" class="edge"><title>Node14&#45;&gt;Node17</title>
<path fill="none" stroke="midnightblue" d="M692.018,-116.753C690.411,-109.25 688.091,-98.4238 686.088,-89.0781"/>
<polygon fill="midnightblue" stroke="midnightblue" points="689.462,-88.1198 683.945,-79.0752 682.618,-89.5866 689.462,-88.1198"/>
</g>
<!-- Node20&#45;&gt;Node3 -->
<g id="edge24" class="edge"><title>Node20&#45;&gt;Node3</title>
<path fill="none" stroke="midnightblue" d="M297.249,-290.871C284.449,-282.927 267.589,-270.158 259,-254 230.289,-199.989 233.783,-124.493 237.454,-89.3805"/>
<polygon fill="midnightblue" stroke="midnightblue" points="240.969,-89.4503 238.659,-79.1105 234.017,-88.6344 240.969,-89.4503"/>
</g>
<!-- Node20&#45;&gt;Node7 -->
<g id="edge25" class="edge"><title>Node20&#45;&gt;Node7</title>
<path fill="none" stroke="midnightblue" d="M329.192,-290.753C343.661,-281.946 365.655,-268.558 382.406,-258.362"/>
<polygon fill="midnightblue" stroke="midnightblue" points="384.369,-261.264 391.091,-253.075 380.729,-255.285 384.369,-261.264"/>
</g>
<!-- Node21&#45;&gt;Node3 -->
<g id="edge27" class="edge"><title>Node21&#45;&gt;Node3</title>
<path fill="none" stroke="midnightblue" d="M167.465,-174.671C180.666,-155.621 210.903,-111.987 227.875,-87.4971"/>
<polygon fill="midnightblue" stroke="midnightblue" points="230.847,-89.3523 233.667,-79.1394 225.094,-85.3652 230.847,-89.3523"/>
</g>
<!-- Node22&#45;&gt;Node3 -->
<g id="edge29" class="edge"><title>Node22&#45;&gt;Node3</title>
<path fill="none" stroke="midnightblue" d="M303.398,-232.753C292.81,-205.571 261.634,-125.538 247.328,-88.8111"/>
<polygon fill="midnightblue" stroke="midnightblue" points="250.511,-87.3408 243.62,-79.2932 243.988,-89.8816 250.511,-87.3408"/>
</g>
<!-- Node22&#45;&gt;Node21 -->
<g id="edge30" class="edge"><title>Node22&#45;&gt;Node21</title>
<path fill="none" stroke="midnightblue" d="M283.218,-232.878C259.038,-223.603 221.372,-209.156 194.245,-198.752"/>
<polygon fill="midnightblue" stroke="midnightblue" points="195.362,-195.432 184.772,-195.118 192.855,-201.967 195.362,-195.432"/>
</g>
<!-- Node22&#45;&gt;Node8 -->
<g id="edge31" class="edge"><title>Node22&#45;&gt;Node8</title>
<path fill="none" stroke="midnightblue" d="M335.018,-232.878C363.964,-223.453 409.316,-208.688 441.375,-198.25"/>
<polygon fill="midnightblue" stroke="midnightblue" points="442.854,-201.449 451.279,-195.025 440.687,-194.793 442.854,-201.449"/>
</g>
<!-- Node22&#45;&gt;Node14 -->
<g id="edge32" class="edge"><title>Node22&#45;&gt;Node14</title>
<path fill="none" stroke="midnightblue" d="M346.296,-234.196C407.741,-221.945 520.473,-199.254 529,-196 547.233,-189.042 549.312,-182.244 567,-174 595.615,-160.663 629.257,-148.631 654.725,-140.221"/>
<polygon fill="midnightblue" stroke="midnightblue" points="655.979,-143.494 664.404,-137.069 653.811,-136.838 655.979,-143.494"/>
</g>
<!-- Node23&#45;&gt;Node3 -->
<g id="edge34" class="edge"><title>Node23&#45;&gt;Node3</title>
<path fill="none" stroke="midnightblue" d="M98.8292,-290.958C84.1414,-283.423 65.7103,-271.145 57,-254 52.5713,-245.283 53.8825,-241.267 57,-232 81.9444,-157.847 165.89,-106.472 210.905,-83.531"/>
<polygon fill="midnightblue" stroke="midnightblue" points="212.487,-86.6535 219.885,-79.0693 209.372,-80.3847 212.487,-86.6535"/>
</g>
<!-- Node24 -->
<g id="node24" class="node"><title>Node24</title>
<polygon fill="white" stroke="#bfbfbf" points="66.4214,-233 66.4214,-253 173.579,-253 173.579,-233 66.4214,-233"/>
<text text-anchor="middle" x="120" y="-239" font-family="Helvetica,sans-Serif" font-size="10.00">boost/filesystem.hpp</text>
</g>
<!-- Node23&#45;&gt;Node24 -->
<g id="edge35" class="edge"><title>Node23&#45;&gt;Node24</title>
<path fill="none" stroke="midnightblue" d="M120,-290.753C120,-283.25 120,-272.424 120,-263.078"/>
<polygon fill="midnightblue" stroke="midnightblue" points="123.5,-263.075 120,-253.075 116.5,-263.075 123.5,-263.075"/>
</g>
<!-- Node26&#45;&gt;Node14 -->
<g id="edge38" class="edge"><title>Node26&#45;&gt;Node14</title>
<path fill="none" stroke="midnightblue" d="M672.862,-348.984C676.106,-315.07 687.62,-194.695 692.15,-147.339"/>
<polygon fill="midnightblue" stroke="midnightblue" points="695.651,-147.492 693.12,-137.204 688.683,-146.825 695.651,-147.492"/>
</g>
<!-- Node27&#45;&gt;Node8 -->
<g id="edge40" class="edge"><title>Node27&#45;&gt;Node8</title>
<path fill="none" stroke="midnightblue" d="M576.326,-290.671C558.379,-271.369 516.965,-226.83 494.376,-202.536"/>
<polygon fill="midnightblue" stroke="midnightblue" points="496.871,-200.079 487.498,-195.139 491.744,-204.846 496.871,-200.079"/>
</g>
<!-- Node27&#45;&gt;Node7 -->
<g id="edge41" class="edge"><title>Node27&#45;&gt;Node7</title>
<path fill="none" stroke="midnightblue" d="M555.842,-290.878C525.587,-281.413 478.111,-266.56 444.723,-256.115"/>
<polygon fill="midnightblue" stroke="midnightblue" points="445.438,-252.671 434.849,-253.025 443.348,-259.352 445.438,-252.671"/>
</g>
<!-- Node27&#45;&gt;Node19 -->
<g id="edge42" class="edge"><title>Node27&#45;&gt;Node19</title>
<path fill="none" stroke="midnightblue" d="M586.064,-290.671C588.188,-272.041 592.994,-229.898 595.817,-205.143"/>
<polygon fill="midnightblue" stroke="midnightblue" points="599.302,-205.472 596.958,-195.139 592.347,-204.678 599.302,-205.472"/>
</g>
</g>
</svg>
        <g id="navigator" transform="translate(0 0)" fill="#404254">
                <rect fill="#f2f5e9" fill-opacity="0.5" stroke="#606060" stroke-width=".5" x="0" y="0" width="60" height="60"/>
                <use id="zoomplus" xlink:href="#zoomPlus" x="17" y="9" onmousedown="handleZoom(evt,'in')"/>
                <use id="zoomminus" xlink:href="#zoomMin" x="42" y="9" onmousedown="handleZoom(evt,'out')"/>
                <use id="reset" xlink:href="#resetDef" x="30" y="36" onmousedown="handleReset()"/>
                <g id="arrowUp" xlink:href="#dirArrow" transform="translate(30 24)" onmousedown="handlePan(0,-1)">
                  <use xlink:href="#rim" fill="#404040">
                        <set attributeName="fill" to="#808080" begin="arrowUp.mouseover" end="arrowUp.mouseout"/>
                  </use>
                  <path fill="none" stroke="white" stroke-width="1.5" d="M0,-3.0v7 M-2.5,-0.5L0,-3.0L2.5,-0.5"/>
                </g>
                <g id="arrowRight" xlink:href="#dirArrow" transform="rotate(90) translate(36 -43)" onmousedown="handlePan(1,0)">
                  <use xlink:href="#rim" fill="#404040">
                        <set attributeName="fill" to="#808080" begin="arrowRight.mouseover" end="arrowRight.mouseout"/>
                  </use>
                  <path fill="none" stroke="white" stroke-width="1.5" d="M0,-3.0v7 M-2.5,-0.5L0,-3.0L2.5,-0.5"/>
                </g>
                <g id="arrowDown" xlink:href="#dirArrow" transform="rotate(180) translate(-30 -48)" onmousedown="handlePan(0,1)">
                  <use xlink:href="#rim" fill="#404040">
                        <set attributeName="fill" to="#808080" begin="arrowDown.mouseover" end="arrowDown.mouseout"/>
                  </use>
                  <path fill="none" stroke="white" stroke-width="1.5" d="M0,-3.0v7 M-2.5,-0.5L0,-3.0L2.5,-0.5"/>
                </g>
                <g id="arrowLeft" xlink:href="#dirArrow" transform="rotate(270) translate(-36 17)" onmousedown="handlePan(-1,0)">
                  <use xlink:href="#rim" fill="#404040">
                        <set attributeName="fill" to="#808080" begin="arrowLeft.mouseover" end="arrowLeft.mouseout"/>
                  </use>
                  <path fill="none" stroke="white" stroke-width="1.5" d="M0,-3.0v7 M-2.5,-0.5L0,-3.0L2.5,-0.5"/>
                </g>
        </g>
        <svg viewBox="0 0 15 15" width="100%" height="30px" preserveAspectRatio="xMaxYMin meet">
         <g id="arrow_out" transform="scale(0.3 0.3)">
          <a xlink:href="_resize_8h__incl_org.svg" target="_base">
           <rect id="button" ry="5" rx="5" y="6" x="6" height="38" width="38"
                fill="#f2f5e9" fill-opacity="0.5" stroke="#606060" stroke-width="1.0"/>
           <path id="arrow"
             d="M 11.500037,31.436501 C 11.940474,20.09759 22.043105,11.32322 32.158766,21.979434 L 37.068811,17.246167 C 37.068811,17.246167 37.088388,32 37.088388,32 L 22.160133,31.978069 C 22.160133,31.978069 26.997745,27.140456 26.997745,27.140456 C 18.528582,18.264221 13.291696,25.230495 11.500037,31.436501 z"
             style="fill:#404040;"/>
          </a>
         </g>
        </svg>
</svg>
