<?xml version="1.0" encoding="UTF-8" standalone="no"?>
<!DOCTYPE svg PUBLIC "-//W3C//DTD SVG 1.1//EN"
 "http://www.w3.org/Graphics/SVG/1.1/DTD/svg11.dtd">
<!-- Generated by graphviz version 2.30.1 (20140712.1814)
 -->
<!-- Title: include/cinder/audio/dsp/RingBuffer.h Pages: 1 -->
<!--zoomable 240 -->
<svg id="main" version="1.1" xmlns="http://www.w3.org/2000/svg" xmlns:xlink="http://www.w3.org/1999/xlink" xml:space="preserve" onload="init(evt)">
<style type="text/css"><![CDATA[
.edge:hover path { stroke: red; }
.edge:hover polygon { stroke: red; fill: red; }
]]></style>
<script type="text/javascript"><![CDATA[
var edges = document.getElementsByTagName('g');
if (edges && edges.length) {
  for (var i=0;i<edges.length;i++) {
    if (edges[i].id.substr(0,4)=='edge') {
      edges[i].setAttribute('class','edge');
    }
  }
}
]]></script>
        <defs>
                <circle id="rim" cx="0" cy="0" r="7"/>
                <circle id="rim2" cx="0" cy="0" r="3.5"/>
                <g id="zoomPlus">
                        <use xlink:href="#rim" fill="#404040">
                                <set attributeName="fill" to="#808080" begin="zoomplus.mouseover" end="zoomplus.mouseout"/>
                        </use>
                        <path d="M-4,0h8M0,-4v8" fill="none" stroke="white" stroke-width="1.5" pointer-events="none"/>
                </g>
                <g id="zoomMin">
                        <use xlink:href="#rim" fill="#404040">
                                <set attributeName="fill" to="#808080" begin="zoomminus.mouseover" end="zoomminus.mouseout"/>
                        </use>
                        <path d="M-4,0h8" fill="none" stroke="white" stroke-width="1.5" pointer-events="none"/>
                </g>
                <g id="dirArrow">
                        <path fill="none" stroke="white" stroke-width="1.5" d="M0,-3.0v7 M-2.5,-0.5L0,-3.0L2.5,-0.5"/>
                </g>
               <g id="resetDef">
                       <use xlink:href="#rim2" fill="#404040">
                               <set attributeName="fill" to="#808080" begin="reset.mouseover" end="reset.mouseout"/>
                       </use>
               </g>
        </defs>

<script type="text/javascript">
var viewWidth = 590;
var viewHeight = 240;
var sectionId = 'dynsection-1';
</script>
<script xlink:href="svgpan.js"/>
<svg id="graph" class="graph">
<g id="viewport">
<title>include/cinder/audio/dsp/RingBuffer.h</title>
<polygon fill="white" stroke="white" points="-4,5 -4,-236 587,-236 587,5 -4,5"/>
<!-- Node1 -->
<g id="node1" class="node"><title>Node1</title>
<polygon fill="#bfbfbf" stroke="black" points="192.525,-199 192.525,-231 297.475,-231 297.475,-199 192.525,-199"/>
<text text-anchor="start" x="200.525" y="-217" font-family="Helvetica,sans-Serif" font-size="10.00">include/cinder/audio</text>
<text text-anchor="middle" x="245" y="-205" font-family="Helvetica,sans-Serif" font-size="10.00">/dsp/RingBuffer.h</text>
</g>
<!-- Node2 -->
<g id="node2" class="node"><title>Node2</title>
<g id="a_node2"><a xlink:href="_context_audio_unit_8h.html" target="_top" xlink:title="include/cinder/audio\l/cocoa/ContextAudioUnit.h">
<polygon fill="white" stroke="black" points="-0.20166,-129 -0.20166,-161 134.202,-161 134.202,-129 -0.20166,-129"/>
<text text-anchor="start" x="7.79834" y="-147" font-family="Helvetica,sans-Serif" font-size="10.00">include/cinder/audio</text>
<text text-anchor="middle" x="67" y="-135" font-family="Helvetica,sans-Serif" font-size="10.00">/cocoa/ContextAudioUnit.h</text>
</a>
</g>
</g>
<!-- Node1&#45;&gt;Node2 -->
<g id="edge1" class="edge"><title>Node1&#45;&gt;Node2</title>
<path fill="none" stroke="midnightblue" d="M195.833,-195.217C167.651,-184.451 132.756,-171.12 106.394,-161.049"/>
<polygon fill="midnightblue" stroke="midnightblue" points="194.905,-198.609 205.496,-198.909 197.404,-192.07 194.905,-198.609"/>
</g>
<!-- Node4 -->
<g id="node4" class="node"><title>Node4</title>
<g id="a_node4"><a xlink:href="_monitor_node_8h.html" target="_top" xlink:title="include/cinder/audio\l/MonitorNode.h">
<polygon fill="white" stroke="black" points="152.525,-129 152.525,-161 257.475,-161 257.475,-129 152.525,-129"/>
<text text-anchor="start" x="160.525" y="-147" font-family="Helvetica,sans-Serif" font-size="10.00">include/cinder/audio</text>
<text text-anchor="middle" x="205" y="-135" font-family="Helvetica,sans-Serif" font-size="10.00">/MonitorNode.h</text>
</a>
</g>
</g>
<!-- Node1&#45;&gt;Node4 -->
<g id="edge3" class="edge"><title>Node1&#45;&gt;Node4</title>
<path fill="none" stroke="midnightblue" d="M230.954,-190.122C225.266,-180.452 218.871,-169.581 213.852,-161.049"/>
<polygon fill="midnightblue" stroke="midnightblue" points="228.036,-192.064 236.123,-198.909 234.069,-188.515 228.036,-192.064"/>
</g>
<!-- Node6 -->
<g id="node6" class="node"><title>Node6</title>
<g id="a_node6"><a xlink:href="_sample_player_node_8h.html" target="_top" xlink:title="include/cinder/audio\l/SamplePlayerNode.h">
<polygon fill="white" stroke="black" points="313.362,-129 313.362,-161 426.638,-161 426.638,-129 313.362,-129"/>
<text text-anchor="start" x="321.362" y="-147" font-family="Helvetica,sans-Serif" font-size="10.00">include/cinder/audio</text>
<text text-anchor="middle" x="370" y="-135" font-family="Helvetica,sans-Serif" font-size="10.00">/SamplePlayerNode.h</text>
</a>
</g>
</g>
<!-- Node1&#45;&gt;Node6 -->
<g id="edge5" class="edge"><title>Node1&#45;&gt;Node6</title>
<path fill="none" stroke="midnightblue" d="M281.618,-194.08C301.023,-183.524 324.47,-170.769 342.336,-161.049"/>
<polygon fill="midnightblue" stroke="midnightblue" points="279.853,-191.055 272.742,-198.909 283.198,-197.204 279.853,-191.055"/>
</g>
<!-- Node5 -->
<g id="node5" class="node"><title>Node5</title>
<g id="a_node5"><a xlink:href="_monitor_node_8cpp.html" target="_top" xlink:title="src/cinder/audio/Monitor\lNode.cpp">
<polygon fill="white" stroke="black" points="151.643,-59 151.643,-91 274.357,-91 274.357,-59 151.643,-59"/>
<text text-anchor="start" x="159.643" y="-77" font-family="Helvetica,sans-Serif" font-size="10.00">src/cinder/audio/Monitor</text>
<text text-anchor="middle" x="213" y="-65" font-family="Helvetica,sans-Serif" font-size="10.00">Node.cpp</text>
</a>
</g>
</g>
<!-- Node1&#45;&gt;Node5 -->
<g id="edge9" class="edge"><title>Node1&#45;&gt;Node5</title>
<path fill="none" stroke="midnightblue" d="M258.853,-189.905C267.088,-172.297 274.433,-148.088 266,-128 259.713,-113.024 246.776,-100.193 235.257,-91.0236"/>
<polygon fill="midnightblue" stroke="midnightblue" points="255.674,-188.437 254.281,-198.94 261.92,-191.598 255.674,-188.437"/>
</g>
<!-- Node3 -->
<g id="node3" class="node"><title>Node3</title>
<g id="a_node3"><a xlink:href="_context_audio_unit_8cpp.html" target="_top" xlink:title="src/cinder/audio/cocoa\l/ContextAudioUnit.cpp">
<polygon fill="white" stroke="black" points="8.97314,-59 8.97314,-91 125.027,-91 125.027,-59 8.97314,-59"/>
<text text-anchor="start" x="16.9731" y="-77" font-family="Helvetica,sans-Serif" font-size="10.00">src/cinder/audio/cocoa</text>
<text text-anchor="middle" x="67" y="-65" font-family="Helvetica,sans-Serif" font-size="10.00">/ContextAudioUnit.cpp</text>
</a>
</g>
</g>
<!-- Node2&#45;&gt;Node3 -->
<g id="edge2" class="edge"><title>Node2&#45;&gt;Node3</title>
<path fill="none" stroke="midnightblue" d="M67,-118.617C67,-109.338 67,-99.1413 67,-91.0492"/>
<polygon fill="midnightblue" stroke="midnightblue" points="63.5001,-118.909 67,-128.909 70.5001,-118.909 63.5001,-118.909"/>
</g>
<!-- Node4&#45;&gt;Node5 -->
<g id="edge4" class="edge"><title>Node4&#45;&gt;Node5</title>
<path fill="none" stroke="midnightblue" d="M207.951,-118.92C209.052,-109.56 210.267,-99.2293 211.23,-91.0492"/>
<polygon fill="midnightblue" stroke="midnightblue" points="204.468,-118.568 206.775,-128.909 211.42,-119.386 204.468,-118.568"/>
</g>
<!-- Node7 -->
<g id="node7" class="node"><title>Node7</title>
<g id="a_node7"><a xlink:href="_voice_8h.html" target="_top" xlink:title="include/cinder/audio\l/Voice.h">
<polygon fill="white" stroke="black" points="308.525,-59 308.525,-91 413.475,-91 413.475,-59 308.525,-59"/>
<text text-anchor="start" x="316.525" y="-77" font-family="Helvetica,sans-Serif" font-size="10.00">include/cinder/audio</text>
<text text-anchor="middle" x="361" y="-65" font-family="Helvetica,sans-Serif" font-size="10.00">/Voice.h</text>
</a>
</g>
</g>
<!-- Node6&#45;&gt;Node7 -->
<g id="edge6" class="edge"><title>Node6&#45;&gt;Node7</title>
<path fill="none" stroke="midnightblue" d="M366.681,-118.92C365.442,-109.56 364.074,-99.2293 362.992,-91.0492"/>
<polygon fill="midnightblue" stroke="midnightblue" points="363.221,-119.454 368.003,-128.909 370.16,-118.536 363.221,-119.454"/>
</g>
<!-- Node9 -->
<g id="node9" class="node"><title>Node9</title>
<g id="a_node9"><a xlink:href="_sample_player_node_8cpp.html" target="_top" xlink:title="src/cinder/audio/SamplePlayer\lNode.cpp">
<polygon fill="white" stroke="black" points="431.19,-59 431.19,-91 582.81,-91 582.81,-59 431.19,-59"/>
<text text-anchor="start" x="439.19" y="-77" font-family="Helvetica,sans-Serif" font-size="10.00">src/cinder/audio/SamplePlayer</text>
<text text-anchor="middle" x="507" y="-65" font-family="Helvetica,sans-Serif" font-size="10.00">Node.cpp</text>
</a>
</g>
</g>
<!-- Node6&#45;&gt;Node9 -->
<g id="edge8" class="edge"><title>Node6&#45;&gt;Node9</title>
<path fill="none" stroke="midnightblue" d="M409.557,-124.366C430.935,-113.755 456.921,-100.857 476.68,-91.0492"/>
<polygon fill="midnightblue" stroke="midnightblue" points="407.806,-121.328 400.405,-128.909 410.918,-127.598 407.806,-121.328"/>
</g>
<!-- Node8 -->
<g id="node8" class="node"><title>Node8</title>
<g id="a_node8"><a xlink:href="_voice_8cpp.html" target="_top" xlink:title="src/cinder/audio/Voice.cpp">
<polygon fill="white" stroke="black" points="294.631,-1 294.631,-21 427.369,-21 427.369,-1 294.631,-1"/>
<text text-anchor="middle" x="361" y="-7" font-family="Helvetica,sans-Serif" font-size="10.00">src/cinder/audio/Voice.cpp</text>
</a>
</g>
</g>
<!-- Node7&#45;&gt;Node8 -->
<g id="edge7" class="edge"><title>Node7&#45;&gt;Node8</title>
<path fill="none" stroke="midnightblue" d="M361,-48.922C361,-39.1719 361,-28.6099 361,-21.2904"/>
<polygon fill="midnightblue" stroke="midnightblue" points="357.5,-48.9915 361,-58.9915 364.5,-48.9916 357.5,-48.9915"/>
</g>
</g>
</svg>
        <g id="navigator" transform="translate(0 0)" fill="#404254">
                <rect fill="#f2f5e9" fill-opacity="0.5" stroke="#606060" stroke-width=".5" x="0" y="0" width="60" height="60"/>
                <use id="zoomplus" xlink:href="#zoomPlus" x="17" y="9" onmousedown="handleZoom(evt,'in')"/>
                <use id="zoomminus" xlink:href="#zoomMin" x="42" y="9" onmousedown="handleZoom(evt,'out')"/>
                <use id="reset" xlink:href="#resetDef" x="30" y="36" onmousedown="handleReset()"/>
                <g id="arrowUp" xlink:href="#dirArrow" transform="translate(30 24)" onmousedown="handlePan(0,-1)">
                  <use xlink:href="#rim" fill="#404040">
                        <set attributeName="fill" to="#808080" begin="arrowUp.mouseover" end="arrowUp.mouseout"/>
                  </use>
                  <path fill="none" stroke="white" stroke-width="1.5" d="M0,-3.0v7 M-2.5,-0.5L0,-3.0L2.5,-0.5"/>
                </g>
                <g id="arrowRight" xlink:href="#dirArrow" transform="rotate(90) translate(36 -43)" onmousedown="handlePan(1,0)">
                  <use xlink:href="#rim" fill="#404040">
                        <set attributeName="fill" to="#808080" begin="arrowRight.mouseover" end="arrowRight.mouseout"/>
                  </use>
                  <path fill="none" stroke="white" stroke-width="1.5" d="M0,-3.0v7 M-2.5,-0.5L0,-3.0L2.5,-0.5"/>
                </g>
                <g id="arrowDown" xlink:href="#dirArrow" transform="rotate(180) translate(-30 -48)" onmousedown="handlePan(0,1)">
                  <use xlink:href="#rim" fill="#404040">
                        <set attributeName="fill" to="#808080" begin="arrowDown.mouseover" end="arrowDown.mouseout"/>
                  </use>
                  <path fill="none" stroke="white" stroke-width="1.5" d="M0,-3.0v7 M-2.5,-0.5L0,-3.0L2.5,-0.5"/>
                </g>
                <g id="arrowLeft" xlink:href="#dirArrow" transform="rotate(270) translate(-36 17)" onmousedown="handlePan(-1,0)">
                  <use xlink:href="#rim" fill="#404040">
                        <set attributeName="fill" to="#808080" begin="arrowLeft.mouseover" end="arrowLeft.mouseout"/>
                  </use>
                  <path fill="none" stroke="white" stroke-width="1.5" d="M0,-3.0v7 M-2.5,-0.5L0,-3.0L2.5,-0.5"/>
                </g>
        </g>
        <svg viewBox="0 0 15 15" width="100%" height="30px" preserveAspectRatio="xMaxYMin meet">
         <g id="arrow_out" transform="scale(0.3 0.3)">
          <a xlink:href="_ring_buffer_8h__dep__incl_org.svg" target="_base">
           <rect id="button" ry="5" rx="5" y="6" x="6" height="38" width="38"
                fill="#f2f5e9" fill-opacity="0.5" stroke="#606060" stroke-width="1.0"/>
           <path id="arrow"
             d="M 11.500037,31.436501 C 11.940474,20.09759 22.043105,11.32322 32.158766,21.979434 L 37.068811,17.246167 C 37.068811,17.246167 37.088388,32 37.088388,32 L 22.160133,31.978069 C 22.160133,31.978069 26.997745,27.140456 26.997745,27.140456 C 18.528582,18.264221 13.291696,25.230495 11.500037,31.436501 z"
             style="fill:#404040;"/>
          </a>
         </g>
        </svg>
</svg>
