<?xml version="1.0" encoding="UTF-8" standalone="no"?>
<!DOCTYPE svg PUBLIC "-//W3C//DTD SVG 1.1//EN"
 "http://www.w3.org/Graphics/SVG/1.1/DTD/svg11.dtd">
<!-- Generated by graphviz version 2.30.1 (20140712.1814)
 -->
<!-- Title: include/cinder/audio/SampleType.h Pages: 1 -->
<svg width="464pt" height="252pt"
 viewBox="0.00 0.00 464.00 252.00" xmlns="http://www.w3.org/2000/svg" xmlns:xlink="http://www.w3.org/1999/xlink">
<g id="graph0" class="graph" transform="scale(1 1) rotate(0) translate(4 248)">
<title>include/cinder/audio/SampleType.h</title>
<polygon fill="white" stroke="white" points="-4,5 -4,-248 461,-248 461,5 -4,5"/>
<!-- Node1 -->
<g id="node1" class="node"><title>Node1</title>
<polygon fill="#bfbfbf" stroke="black" points="112.525,-211 112.525,-243 217.475,-243 217.475,-211 112.525,-211"/>
<text text-anchor="start" x="120.525" y="-229" font-family="Helvetica,sans-Serif" font-size="10.00">include/cinder/audio</text>
<text text-anchor="middle" x="165" y="-217" font-family="Helvetica,sans-Serif" font-size="10.00">/SampleType.h</text>
</g>
<!-- Node2 -->
<g id="node2" class="node"><title>Node2</title>
<g id="a_node2"><a xlink:href="_sample_recorder_node_8h.html" target="_top" xlink:title="include/cinder/audio\l/SampleRecorderNode.h">
<polygon fill="white" stroke="black" points="31.9707,-141 31.9707,-173 158.029,-173 158.029,-141 31.9707,-141"/>
<text text-anchor="start" x="39.9707" y="-159" font-family="Helvetica,sans-Serif" font-size="10.00">include/cinder/audio</text>
<text text-anchor="middle" x="95" y="-147" font-family="Helvetica,sans-Serif" font-size="10.00">/SampleRecorderNode.h</text>
</a>
</g>
</g>
<!-- Node1&#45;&gt;Node2 -->
<g id="edge1" class="edge"><title>Node1&#45;&gt;Node2</title>
<path fill="none" stroke="midnightblue" d="M142.251,-203.901C131.859,-193.806 119.818,-182.109 110.492,-173.049"/>
<polygon fill="midnightblue" stroke="midnightblue" points="139.853,-206.451 149.465,-210.909 144.731,-201.43 139.853,-206.451"/>
</g>
<!-- Node4 -->
<g id="node4" class="node"><title>Node4</title>
<g id="a_node4"><a xlink:href="_target_8h.html" target="_top" xlink:title="include/cinder/audio\l/Target.h">
<polygon fill="white" stroke="black" points="182.525,-141 182.525,-173 287.475,-173 287.475,-141 182.525,-141"/>
<text text-anchor="start" x="190.525" y="-159" font-family="Helvetica,sans-Serif" font-size="10.00">include/cinder/audio</text>
<text text-anchor="middle" x="235" y="-147" font-family="Helvetica,sans-Serif" font-size="10.00">/Target.h</text>
</a>
</g>
</g>
<!-- Node1&#45;&gt;Node4 -->
<g id="edge3" class="edge"><title>Node1&#45;&gt;Node4</title>
<path fill="none" stroke="midnightblue" d="M187.749,-203.901C198.141,-193.806 210.182,-182.109 219.508,-173.049"/>
<polygon fill="midnightblue" stroke="midnightblue" points="185.269,-201.43 180.535,-210.909 190.147,-206.451 185.269,-201.43"/>
</g>
<!-- Node3 -->
<g id="node3" class="node"><title>Node3</title>
<g id="a_node3"><a xlink:href="_sample_recorder_node_8cpp.html" target="_top" xlink:title="src/cinder/audio/SampleRecorder\lNode.cpp">
<polygon fill="white" stroke="black" points="-0.20166,-71 -0.20166,-103 164.202,-103 164.202,-71 -0.20166,-71"/>
<text text-anchor="start" x="7.79834" y="-89" font-family="Helvetica,sans-Serif" font-size="10.00">src/cinder/audio/SampleRecorder</text>
<text text-anchor="middle" x="82" y="-77" font-family="Helvetica,sans-Serif" font-size="10.00">Node.cpp</text>
</a>
</g>
</g>
<!-- Node2&#45;&gt;Node3 -->
<g id="edge2" class="edge"><title>Node2&#45;&gt;Node3</title>
<path fill="none" stroke="midnightblue" d="M90.2052,-130.92C88.4158,-121.56 86.4409,-111.229 84.8771,-103.049"/>
<polygon fill="midnightblue" stroke="midnightblue" points="86.7993,-131.744 92.1149,-140.909 93.6748,-130.429 86.7993,-131.744"/>
</g>
<!-- Node5 -->
<g id="node5" class="node"><title>Node5</title>
<g id="a_node5"><a xlink:href="_file_core_audio_8h.html" target="_top" xlink:title="include/cinder/audio\l/cocoa/FileCoreAudio.h">
<polygon fill="white" stroke="black" points="182.027,-71 182.027,-103 301.973,-103 301.973,-71 182.027,-71"/>
<text text-anchor="start" x="190.027" y="-89" font-family="Helvetica,sans-Serif" font-size="10.00">include/cinder/audio</text>
<text text-anchor="middle" x="242" y="-77" font-family="Helvetica,sans-Serif" font-size="10.00">/cocoa/FileCoreAudio.h</text>
</a>
</g>
</g>
<!-- Node4&#45;&gt;Node5 -->
<g id="edge4" class="edge"><title>Node4&#45;&gt;Node5</title>
<path fill="none" stroke="midnightblue" d="M237.582,-130.92C238.545,-121.56 239.609,-111.229 240.451,-103.049"/>
<polygon fill="midnightblue" stroke="midnightblue" points="234.096,-130.603 236.554,-140.909 241.059,-131.32 234.096,-130.603"/>
</g>
<!-- Node4&#45;&gt;Node3 -->
<g id="edge6" class="edge"><title>Node4&#45;&gt;Node3</title>
<path fill="none" stroke="midnightblue" d="M191.783,-136.793C167.73,-126.102 138.224,-112.988 115.861,-103.049"/>
<polygon fill="midnightblue" stroke="midnightblue" points="190.485,-140.045 201.044,-140.909 193.328,-133.649 190.485,-140.045"/>
</g>
<!-- Node7 -->
<g id="node7" class="node"><title>Node7</title>
<g id="a_node7"><a xlink:href="_target_8cpp.html" target="_top" xlink:title="src/cinder/audio/Target.cpp">
<polygon fill="white" stroke="black" points="319.968,-77 319.968,-97 456.032,-97 456.032,-77 319.968,-77"/>
<text text-anchor="middle" x="388" y="-83" font-family="Helvetica,sans-Serif" font-size="10.00">src/cinder/audio/Target.cpp</text>
</a>
</g>
</g>
<!-- Node4&#45;&gt;Node7 -->
<g id="edge7" class="edge"><title>Node4&#45;&gt;Node7</title>
<path fill="none" stroke="midnightblue" d="M278.172,-136.812C307.53,-123.765 345.027,-107.099 367.742,-97.0035"/>
<polygon fill="midnightblue" stroke="midnightblue" points="276.672,-133.649 268.956,-140.909 279.515,-140.045 276.672,-133.649"/>
</g>
<!-- Node6 -->
<g id="node6" class="node"><title>Node6</title>
<g id="a_node6"><a xlink:href="_file_core_audio_8cpp.html" target="_top" xlink:title="src/cinder/audio/cocoa\l/FileCoreAudio.cpp">
<polygon fill="white" stroke="black" points="183.973,-1 183.973,-33 300.027,-33 300.027,-1 183.973,-1"/>
<text text-anchor="start" x="191.973" y="-19" font-family="Helvetica,sans-Serif" font-size="10.00">src/cinder/audio/cocoa</text>
<text text-anchor="middle" x="242" y="-7" font-family="Helvetica,sans-Serif" font-size="10.00">/FileCoreAudio.cpp</text>
</a>
</g>
</g>
<!-- Node5&#45;&gt;Node6 -->
<g id="edge5" class="edge"><title>Node5&#45;&gt;Node6</title>
<path fill="none" stroke="midnightblue" d="M242,-60.6174C242,-51.3378 242,-41.1413 242,-33.0492"/>
<polygon fill="midnightblue" stroke="midnightblue" points="238.5,-60.9086 242,-70.9086 245.5,-60.9086 238.5,-60.9086"/>
</g>
</g>
</svg>
