<?xml version="1.0" encoding="UTF-8" standalone="no"?>
<!DOCTYPE svg PUBLIC "-//W3C//DTD SVG 1.1//EN"
 "http://www.w3.org/Graphics/SVG/1.1/DTD/svg11.dtd">
<!-- Generated by graphviz version 2.30.1 (20140712.1814)
 -->
<!-- Title: include/cinder/audio/SampleRecorderNode.h Pages: 1 -->
<svg width="172pt" height="112pt"
 viewBox="0.00 0.00 172.00 112.00" xmlns="http://www.w3.org/2000/svg" xmlns:xlink="http://www.w3.org/1999/xlink">
<g id="graph0" class="graph" transform="scale(1 1) rotate(0) translate(4 108)">
<title>include/cinder/audio/SampleRecorderNode.h</title>
<polygon fill="white" stroke="white" points="-4,5 -4,-108 169,-108 169,5 -4,5"/>
<!-- Node1 -->
<g id="node1" class="node"><title>Node1</title>
<polygon fill="#bfbfbf" stroke="black" points="18.9707,-71 18.9707,-103 145.029,-103 145.029,-71 18.9707,-71"/>
<text text-anchor="start" x="26.9707" y="-89" font-family="Helvetica,sans-Serif" font-size="10.00">include/cinder/audio</text>
<text text-anchor="middle" x="82" y="-77" font-family="Helvetica,sans-Serif" font-size="10.00">/SampleRecorderNode.h</text>
</g>
<!-- Node2 -->
<g id="node2" class="node"><title>Node2</title>
<g id="a_node2"><a xlink:href="_sample_recorder_node_8cpp.html" target="_top" xlink:title="src/cinder/audio/SampleRecorder\lNode.cpp">
<polygon fill="white" stroke="black" points="-0.20166,-1 -0.20166,-33 164.202,-33 164.202,-1 -0.20166,-1"/>
<text text-anchor="start" x="7.79834" y="-19" font-family="Helvetica,sans-Serif" font-size="10.00">src/cinder/audio/SampleRecorder</text>
<text text-anchor="middle" x="82" y="-7" font-family="Helvetica,sans-Serif" font-size="10.00">Node.cpp</text>
</a>
</g>
</g>
<!-- Node1&#45;&gt;Node2 -->
<g id="edge1" class="edge"><title>Node1&#45;&gt;Node2</title>
<path fill="none" stroke="midnightblue" d="M82,-60.6174C82,-51.3378 82,-41.1413 82,-33.0492"/>
<polygon fill="midnightblue" stroke="midnightblue" points="78.5001,-60.9086 82,-70.9086 85.5001,-60.9086 78.5001,-60.9086"/>
</g>
</g>
</svg>
