<?xml version="1.0" encoding="UTF-8" standalone="no"?>
<!DOCTYPE svg PUBLIC "-//W3C//DTD SVG 1.1//EN"
 "http://www.w3.org/Graphics/SVG/1.1/DTD/svg11.dtd">
<!-- Generated by graphviz version 2.30.1 (20140712.1814)
 -->
<!-- Title: include/cinder/audio/SamplePlayerNode.h Pages: 1 -->
<svg width="1588pt" height="448pt"
 viewBox="0.00 0.00 1588.00 448.00" xmlns="http://www.w3.org/2000/svg" xmlns:xlink="http://www.w3.org/1999/xlink">
<g id="graph0" class="graph" transform="scale(1 1) rotate(0) translate(4 444)">
<title>include/cinder/audio/SamplePlayerNode.h</title>
<polygon fill="white" stroke="white" points="-4,5 -4,-444 1585,-444 1585,5 -4,5"/>
<!-- Node1 -->
<g id="node1" class="node"><title>Node1</title>
<polygon fill="#bfbfbf" stroke="black" points="451.362,-407 451.362,-439 564.638,-439 564.638,-407 451.362,-407"/>
<text text-anchor="start" x="459.362" y="-425" font-family="Helvetica,sans-Serif" font-size="10.00">include/cinder/audio</text>
<text text-anchor="middle" x="508" y="-413" font-family="Helvetica,sans-Serif" font-size="10.00">/SamplePlayerNode.h</text>
</g>
<!-- Node2 -->
<g id="node2" class="node"><title>Node2</title>
<g id="a_node2"><a xlink:href="_input_node_8h.html" target="_top" xlink:title="cinder/audio/InputNode.h">
<polygon fill="white" stroke="black" points="219.126,-291 219.126,-311 346.874,-311 346.874,-291 219.126,-291"/>
<text text-anchor="middle" x="283" y="-297" font-family="Helvetica,sans-Serif" font-size="10.00">cinder/audio/InputNode.h</text>
</a>
</g>
</g>
<!-- Node1&#45;&gt;Node2 -->
<g id="edge1" class="edge"><title>Node1&#45;&gt;Node2</title>
<path fill="none" stroke="midnightblue" d="M451.016,-407.327C422.822,-398.726 388.936,-386.312 361,-370 336.914,-355.936 313.356,-333.921 298.543,-318.772"/>
<polygon fill="midnightblue" stroke="midnightblue" points="300.704,-315.968 291.265,-311.156 295.643,-320.804 300.704,-315.968"/>
</g>
<!-- Node30 -->
<g id="node30" class="node"><title>Node30</title>
<g id="a_node30"><a xlink:href="_source_8h.html" target="_top" xlink:title="cinder/audio/Source.h">
<polygon fill="white" stroke="black" points="403.357,-349 403.357,-369 516.643,-369 516.643,-349 403.357,-349"/>
<text text-anchor="middle" x="460" y="-355" font-family="Helvetica,sans-Serif" font-size="10.00">cinder/audio/Source.h</text>
</a>
</g>
</g>
<!-- Node1&#45;&gt;Node30 -->
<g id="edge42" class="edge"><title>Node1&#45;&gt;Node30</title>
<path fill="none" stroke="midnightblue" d="M496.381,-406.992C489.484,-398.084 480.709,-386.75 473.505,-377.445"/>
<polygon fill="midnightblue" stroke="midnightblue" points="476.082,-375.055 467.193,-369.29 470.547,-379.34 476.082,-375.055"/>
</g>
<!-- Node40 -->
<g id="node40" class="node"><title>Node40</title>
<g id="a_node40"><a xlink:href="_ring_buffer_8h.html" target="_top" xlink:title="cinder/audio/dsp/RingBuffer.h">
<polygon fill="white" stroke="black" points="564.487,-233 564.487,-253 711.513,-253 711.513,-233 564.487,-233"/>
<text text-anchor="middle" x="638" y="-239" font-family="Helvetica,sans-Serif" font-size="10.00">cinder/audio/dsp/RingBuffer.h</text>
</a>
</g>
</g>
<!-- Node1&#45;&gt;Node40 -->
<g id="edge65" class="edge"><title>Node1&#45;&gt;Node40</title>
<path fill="none" stroke="midnightblue" d="M451.263,-408.303C413.947,-396.356 375.202,-376.446 394,-348 429.984,-293.546 500.92,-267.51 557.073,-255.116"/>
<polygon fill="midnightblue" stroke="midnightblue" points="557.95,-258.509 567.017,-253.028 556.511,-251.658 557.95,-258.509"/>
</g>
<!-- Node41 -->
<g id="node41" class="node"><title>Node41</title>
<polygon fill="white" stroke="#bfbfbf" points="534.823,-349 534.823,-369 579.177,-369 579.177,-349 534.823,-349"/>
<text text-anchor="middle" x="557" y="-355" font-family="Helvetica,sans-Serif" font-size="10.00">thread</text>
</g>
<!-- Node1&#45;&gt;Node41 -->
<g id="edge68" class="edge"><title>Node1&#45;&gt;Node41</title>
<path fill="none" stroke="midnightblue" d="M519.862,-406.992C526.974,-397.992 536.044,-386.516 543.44,-377.157"/>
<polygon fill="midnightblue" stroke="midnightblue" points="546.203,-379.306 549.658,-369.29 540.711,-374.966 546.203,-379.306"/>
</g>
<!-- Node42 -->
<g id="node42" class="node"><title>Node42</title>
<polygon fill="white" stroke="#bfbfbf" points="597.384,-349 597.384,-369 640.616,-369 640.616,-349 597.384,-349"/>
<text text-anchor="middle" x="619" y="-355" font-family="Helvetica,sans-Serif" font-size="10.00">mutex</text>
</g>
<!-- Node1&#45;&gt;Node42 -->
<g id="edge69" class="edge"><title>Node1&#45;&gt;Node42</title>
<path fill="none" stroke="midnightblue" d="M534.87,-406.992C552.735,-397.013 576.05,-383.99 593.604,-374.185"/>
<polygon fill="midnightblue" stroke="midnightblue" points="595.669,-377.041 602.692,-369.109 592.255,-370.93 595.669,-377.041"/>
</g>
<!-- Node43 -->
<g id="node43" class="node"><title>Node43</title>
<polygon fill="white" stroke="#bfbfbf" points="658.695,-349 658.695,-369 755.305,-369 755.305,-349 658.695,-349"/>
<text text-anchor="middle" x="707" y="-355" font-family="Helvetica,sans-Serif" font-size="10.00">condition_variable</text>
</g>
<!-- Node1&#45;&gt;Node43 -->
<g id="edge70" class="edge"><title>Node1&#45;&gt;Node43</title>
<path fill="none" stroke="midnightblue" d="M556.172,-406.992C590.529,-396.288 636.128,-382.081 668.161,-372.1"/>
<polygon fill="midnightblue" stroke="midnightblue" points="669.547,-375.335 678.054,-369.018 667.465,-368.651 669.547,-375.335"/>
</g>
<!-- Node3 -->
<g id="node3" class="node"><title>Node3</title>
<g id="a_node3"><a xlink:href="_node_8h.html" target="_top" xlink:title="cinder/audio/Node.h">
<polygon fill="white" stroke="black" points="441.247,-233 441.247,-253 546.753,-253 546.753,-233 441.247,-233"/>
<text text-anchor="middle" x="494" y="-239" font-family="Helvetica,sans-Serif" font-size="10.00">cinder/audio/Node.h</text>
</a>
</g>
</g>
<!-- Node2&#45;&gt;Node3 -->
<g id="edge2" class="edge"><title>Node2&#45;&gt;Node3</title>
<path fill="none" stroke="midnightblue" d="M317.37,-290.878C353.573,-281.27 410.691,-266.11 450.124,-255.645"/>
<polygon fill="midnightblue" stroke="midnightblue" points="451.226,-258.973 459.994,-253.025 449.431,-252.208 451.226,-258.973"/>
</g>
<!-- Node23 -->
<g id="node23" class="node"><title>Node23</title>
<g id="a_node23"><a xlink:href="_param_8h.html" target="_top" xlink:title="cinder/audio/Param.h">
<polygon fill="white" stroke="black" points="227.473,-233 227.473,-253 338.527,-253 338.527,-233 227.473,-233"/>
<text text-anchor="middle" x="283" y="-239" font-family="Helvetica,sans-Serif" font-size="10.00">cinder/audio/Param.h</text>
</a>
</g>
</g>
<!-- Node2&#45;&gt;Node23 -->
<g id="edge25" class="edge"><title>Node2&#45;&gt;Node23</title>
<path fill="none" stroke="midnightblue" d="M283,-290.753C283,-283.25 283,-272.424 283,-263.078"/>
<polygon fill="midnightblue" stroke="midnightblue" points="286.5,-263.075 283,-253.075 279.5,-263.075 286.5,-263.075"/>
</g>
<!-- Node26 -->
<g id="node26" class="node"><title>Node26</title>
<g id="a_node26"><a xlink:href="_device_8h.html" target="_top" xlink:title="cinder/audio/Device.h">
<polygon fill="white" stroke="black" points="118.917,-175 118.917,-195 231.083,-195 231.083,-175 118.917,-175"/>
<text text-anchor="middle" x="175" y="-181" font-family="Helvetica,sans-Serif" font-size="10.00">cinder/audio/Device.h</text>
</a>
</g>
</g>
<!-- Node2&#45;&gt;Node26 -->
<g id="edge30" class="edge"><title>Node2&#45;&gt;Node26</title>
<path fill="none" stroke="midnightblue" d="M266.697,-290.939C252.67,-282.599 232.468,-269.24 218,-254 203.779,-239.02 191.64,-218.657 183.922,-204.128"/>
<polygon fill="midnightblue" stroke="midnightblue" points="186.991,-202.441 179.314,-195.139 180.762,-205.635 186.991,-202.441"/>
</g>
<!-- Node4 -->
<g id="node4" class="node"><title>Node4</title>
<g id="a_node4"><a xlink:href="audio_2_buffer_8h.html" target="_top" xlink:title="cinder/audio/Buffer.h">
<polygon fill="white" stroke="black" points="287.221,-175 287.221,-195 394.779,-195 394.779,-175 287.221,-175"/>
<text text-anchor="middle" x="341" y="-181" font-family="Helvetica,sans-Serif" font-size="10.00">cinder/audio/Buffer.h</text>
</a>
</g>
</g>
<!-- Node3&#45;&gt;Node4 -->
<g id="edge3" class="edge"><title>Node3&#45;&gt;Node4</title>
<path fill="none" stroke="midnightblue" d="M469.077,-232.878C443.551,-223.535 403.684,-208.943 375.212,-198.522"/>
<polygon fill="midnightblue" stroke="midnightblue" points="376.252,-195.176 365.658,-195.025 373.846,-201.749 376.252,-195.176"/>
</g>
<!-- Node12 -->
<g id="node12" class="node"><title>Node12</title>
<g id="a_node12"><a xlink:href="audio_2_exception_8h.html" target="_top" xlink:title="cinder/audio/Exception.h">
<polygon fill="white" stroke="black" points="768.242,-175 768.242,-195 893.758,-195 893.758,-175 768.242,-175"/>
<text text-anchor="middle" x="831" y="-181" font-family="Helvetica,sans-Serif" font-size="10.00">cinder/audio/Exception.h</text>
</a>
</g>
</g>
<!-- Node3&#45;&gt;Node12 -->
<g id="edge11" class="edge"><title>Node3&#45;&gt;Node12</title>
<path fill="none" stroke="midnightblue" d="M547.027,-233.188C606.497,-223.306 702.942,-207.28 766.671,-196.69"/>
<polygon fill="midnightblue" stroke="midnightblue" points="767.317,-200.13 776.608,-195.038 766.169,-193.225 767.317,-200.13"/>
</g>
<!-- Node19 -->
<g id="node19" class="node"><title>Node19</title>
<polygon fill="white" stroke="#bfbfbf" points="609.291,-117 609.291,-137 728.709,-137 728.709,-117 609.291,-117"/>
<text text-anchor="middle" x="669" y="-123" font-family="Helvetica,sans-Serif" font-size="10.00">boost/noncopyable.hpp</text>
</g>
<!-- Node3&#45;&gt;Node19 -->
<g id="edge20" class="edge"><title>Node3&#45;&gt;Node19</title>
<path fill="none" stroke="midnightblue" d="M538.463,-232.946C576.915,-224.315 628.67,-210.513 644,-196 657.524,-183.197 663.767,-162.457 666.628,-147.244"/>
<polygon fill="midnightblue" stroke="midnightblue" points="670.09,-147.754 668.168,-137.335 663.173,-146.679 670.09,-147.754"/>
</g>
<!-- Node20 -->
<g id="node20" class="node"><title>Node20</title>
<polygon fill="white" stroke="#bfbfbf" points="412.357,-175 412.357,-195 525.643,-195 525.643,-175 412.357,-175"/>
<text text-anchor="middle" x="469" y="-181" font-family="Helvetica,sans-Serif" font-size="10.00">boost/logic/tribool.hpp</text>
</g>
<!-- Node3&#45;&gt;Node20 -->
<g id="edge21" class="edge"><title>Node3&#45;&gt;Node20</title>
<path fill="none" stroke="midnightblue" d="M489.872,-232.753C486.45,-225.087 481.478,-213.952 477.246,-204.471"/>
<polygon fill="midnightblue" stroke="midnightblue" points="480.324,-202.78 473.051,-195.075 473.932,-205.633 480.324,-202.78"/>
</g>
<!-- Node9 -->
<g id="node9" class="node"><title>Node9</title>
<polygon fill="white" stroke="#bfbfbf" points="232.943,-117 232.943,-137 285.057,-137 285.057,-117 232.943,-117"/>
<text text-anchor="middle" x="259" y="-123" font-family="Helvetica,sans-Serif" font-size="10.00">memory</text>
</g>
<!-- Node3&#45;&gt;Node9 -->
<g id="edge22" class="edge"><title>Node3&#45;&gt;Node9</title>
<path fill="none" stroke="midnightblue" d="M441.028,-236.991C384.879,-230.622 301.161,-217.754 278,-196 264.771,-183.575 260.489,-162.776 259.23,-147.445"/>
<polygon fill="midnightblue" stroke="midnightblue" points="262.725,-147.272 258.762,-137.447 255.733,-147.599 262.725,-147.272"/>
</g>
<!-- Node21 -->
<g id="node21" class="node"><title>Node21</title>
<polygon fill="white" stroke="#bfbfbf" points="590.273,-175 590.273,-195 635.727,-195 635.727,-175 590.273,-175"/>
<text text-anchor="middle" x="613" y="-181" font-family="Helvetica,sans-Serif" font-size="10.00">atomic</text>
</g>
<!-- Node3&#45;&gt;Node21 -->
<g id="edge23" class="edge"><title>Node3&#45;&gt;Node21</title>
<path fill="none" stroke="midnightblue" d="M513.384,-232.878C532.661,-223.807 562.451,-209.788 584.436,-199.442"/>
<polygon fill="midnightblue" stroke="midnightblue" points="586.066,-202.543 593.624,-195.118 583.086,-196.209 586.066,-202.543"/>
</g>
<!-- Node22 -->
<g id="node22" class="node"><title>Node22</title>
<polygon fill="white" stroke="#bfbfbf" points="543.33,-175 543.33,-195 572.67,-195 572.67,-175 543.33,-175"/>
<text text-anchor="middle" x="558" y="-181" font-family="Helvetica,sans-Serif" font-size="10.00">set</text>
</g>
<!-- Node3&#45;&gt;Node22 -->
<g id="edge24" class="edge"><title>Node3&#45;&gt;Node22</title>
<path fill="none" stroke="midnightblue" d="M504.568,-232.753C514.168,-224.353 528.529,-211.787 539.946,-201.798"/>
<polygon fill="midnightblue" stroke="midnightblue" points="542.407,-204.294 547.628,-195.075 537.798,-199.026 542.407,-204.294"/>
</g>
<!-- Node5 -->
<g id="node5" class="node"><title>Node5</title>
<g id="a_node5"><a xlink:href="_cinder_assert_8h.html" target="_top" xlink:title="cinder/CinderAssert.h">
<polygon fill="white" stroke="black" points="478.924,-117 478.924,-137 591.076,-137 591.076,-117 478.924,-117"/>
<text text-anchor="middle" x="535" y="-123" font-family="Helvetica,sans-Serif" font-size="10.00">cinder/CinderAssert.h</text>
</a>
</g>
</g>
<!-- Node4&#45;&gt;Node5 -->
<g id="edge4" class="edge"><title>Node4&#45;&gt;Node5</title>
<path fill="none" stroke="midnightblue" d="M372.601,-174.878C405.675,-165.331 457.735,-150.303 493.964,-139.845"/>
<polygon fill="midnightblue" stroke="midnightblue" points="495.097,-143.161 503.734,-137.025 493.155,-136.436 495.097,-143.161"/>
</g>
<!-- Node8 -->
<g id="node8" class="node"><title>Node8</title>
<polygon fill="white" stroke="#bfbfbf" points="362.384,-59 362.384,-79 405.616,-79 405.616,-59 362.384,-59"/>
<text text-anchor="middle" x="384" y="-65" font-family="Helvetica,sans-Serif" font-size="10.00">vector</text>
</g>
<!-- Node4&#45;&gt;Node8 -->
<g id="edge7" class="edge"><title>Node4&#45;&gt;Node8</title>
<path fill="none" stroke="midnightblue" d="M344.519,-174.671C351.578,-155.957 367.586,-113.517 376.905,-88.8093"/>
<polygon fill="midnightblue" stroke="midnightblue" points="380.298,-89.7312 380.553,-79.1394 373.749,-87.2607 380.298,-89.7312"/>
</g>
<!-- Node4&#45;&gt;Node9 -->
<g id="edge8" class="edge"><title>Node4&#45;&gt;Node9</title>
<path fill="none" stroke="midnightblue" d="M327.459,-174.753C314.802,-166.109 295.683,-153.052 280.864,-142.931"/>
<polygon fill="midnightblue" stroke="midnightblue" points="282.521,-139.825 272.289,-137.075 278.573,-145.605 282.521,-139.825"/>
</g>
<!-- Node10 -->
<g id="node10" class="node"><title>Node10</title>
<polygon fill="white" stroke="#bfbfbf" points="416.828,-117 416.828,-137 461.172,-137 461.172,-117 416.828,-117"/>
<text text-anchor="middle" x="439" y="-123" font-family="Helvetica,sans-Serif" font-size="10.00">cstdlib</text>
</g>
<!-- Node4&#45;&gt;Node10 -->
<g id="edge9" class="edge"><title>Node4&#45;&gt;Node10</title>
<path fill="none" stroke="midnightblue" d="M357.183,-174.753C372.738,-165.864 396.459,-152.309 414.361,-142.079"/>
<polygon fill="midnightblue" stroke="midnightblue" points="416.172,-145.075 423.118,-137.075 412.699,-138.998 416.172,-145.075"/>
</g>
<!-- Node11 -->
<g id="node11" class="node"><title>Node11</title>
<polygon fill="white" stroke="#bfbfbf" points="283.436,-59 283.436,-79 340.564,-79 340.564,-59 283.436,-59"/>
<text text-anchor="middle" x="312" y="-65" font-family="Helvetica,sans-Serif" font-size="10.00">algorithm</text>
</g>
<!-- Node4&#45;&gt;Node11 -->
<g id="edge10" class="edge"><title>Node4&#45;&gt;Node11</title>
<path fill="none" stroke="midnightblue" d="M338.627,-174.671C333.888,-156.041 323.167,-113.898 316.87,-89.1428"/>
<polygon fill="midnightblue" stroke="midnightblue" points="320.182,-87.9678 314.325,-79.1394 313.398,-89.6936 320.182,-87.9678"/>
</g>
<!-- Node6 -->
<g id="node6" class="node"><title>Node6</title>
<g id="a_node6"><a xlink:href="_current_function_8h.html" target="_top" xlink:title="cinder/CurrentFunction.h">
<polygon fill="white" stroke="black" points="447.973,-59 447.973,-79 574.027,-79 574.027,-59 447.973,-59"/>
<text text-anchor="middle" x="511" y="-65" font-family="Helvetica,sans-Serif" font-size="10.00">cinder/CurrentFunction.h</text>
</a>
</g>
</g>
<!-- Node5&#45;&gt;Node6 -->
<g id="edge5" class="edge"><title>Node5&#45;&gt;Node6</title>
<path fill="none" stroke="midnightblue" d="M531.037,-116.753C527.752,-109.087 522.979,-97.9515 518.916,-88.4708"/>
<polygon fill="midnightblue" stroke="midnightblue" points="522.046,-86.8879 514.889,-79.0752 515.612,-89.6454 522.046,-86.8879"/>
</g>
<!-- Node7 -->
<g id="node7" class="node"><title>Node7</title>
<polygon fill="white" stroke="#bfbfbf" points="591.884,-59 591.884,-79 640.116,-79 640.116,-59 591.884,-59"/>
<text text-anchor="middle" x="616" y="-65" font-family="Helvetica,sans-Serif" font-size="10.00">cassert</text>
</g>
<!-- Node5&#45;&gt;Node7 -->
<g id="edge6" class="edge"><title>Node5&#45;&gt;Node7</title>
<path fill="none" stroke="midnightblue" d="M548.376,-116.753C560.878,-108.109 579.764,-95.0518 594.403,-84.9314"/>
<polygon fill="midnightblue" stroke="midnightblue" points="596.638,-87.641 602.873,-79.0752 592.657,-81.8831 596.638,-87.641"/>
</g>
<!-- Node13 -->
<g id="node13" class="node"><title>Node13</title>
<g id="a_node13"><a xlink:href="_exception_8h.html" target="_top" xlink:title="cinder/Exception.h">
<polygon fill="white" stroke="black" points="784.865,-117 784.865,-137 883.135,-137 883.135,-117 784.865,-117"/>
<text text-anchor="middle" x="834" y="-123" font-family="Helvetica,sans-Serif" font-size="10.00">cinder/Exception.h</text>
</a>
</g>
</g>
<!-- Node12&#45;&gt;Node13 -->
<g id="edge12" class="edge"><title>Node12&#45;&gt;Node13</title>
<path fill="none" stroke="midnightblue" d="M831.495,-174.753C831.897,-167.25 832.477,-156.424 832.978,-147.078"/>
<polygon fill="midnightblue" stroke="midnightblue" points="836.474,-147.248 833.514,-137.075 829.484,-146.874 836.474,-147.248"/>
</g>
<!-- Node18 -->
<g id="node18" class="node"><title>Node18</title>
<polygon fill="white" stroke="#bfbfbf" points="774.773,-59 774.773,-79 815.227,-79 815.227,-59 774.773,-59"/>
<text text-anchor="middle" x="795" y="-65" font-family="Helvetica,sans-Serif" font-size="10.00">string</text>
</g>
<!-- Node12&#45;&gt;Node18 -->
<g id="edge19" class="edge"><title>Node12&#45;&gt;Node18</title>
<path fill="none" stroke="midnightblue" d="M813.524,-174.94C800.501,-167.112 783.694,-154.465 776,-138 768.411,-121.759 775.694,-101.881 783.333,-87.8227"/>
<polygon fill="midnightblue" stroke="midnightblue" points="786.396,-89.5196 788.501,-79.1358 780.38,-85.9408 786.396,-89.5196"/>
</g>
<!-- Node14 -->
<g id="node14" class="node"><title>Node14</title>
<g id="a_node14"><a xlink:href="_cinder_8h.html" target="_top" xlink:title="cinder/Cinder.h">
<polygon fill="white" stroke="black" points="975.367,-59 975.367,-79 1058.63,-79 1058.63,-59 975.367,-59"/>
<text text-anchor="middle" x="1017" y="-65" font-family="Helvetica,sans-Serif" font-size="10.00">cinder/Cinder.h</text>
</a>
</g>
</g>
<!-- Node13&#45;&gt;Node14 -->
<g id="edge13" class="edge"><title>Node13&#45;&gt;Node14</title>
<path fill="none" stroke="midnightblue" d="M863.809,-116.878C894.874,-107.372 943.697,-92.4317 977.852,-81.9798"/>
<polygon fill="midnightblue" stroke="midnightblue" points="978.968,-85.2984 987.507,-79.0253 976.92,-78.6047 978.968,-85.2984"/>
</g>
<!-- Node13&#45;&gt;Node8 -->
<g id="edge17" class="edge"><title>Node13&#45;&gt;Node8</title>
<path fill="none" stroke="midnightblue" d="M784.573,-120.644C693.965,-110.758 504.555,-89.7664 439,-80 431.411,-78.8693 423.263,-77.4832 415.626,-76.1073"/>
<polygon fill="midnightblue" stroke="midnightblue" points="416.098,-72.6354 405.629,-74.2624 414.827,-79.5191 416.098,-72.6354"/>
</g>
<!-- Node13&#45;&gt;Node18 -->
<g id="edge18" class="edge"><title>Node13&#45;&gt;Node18</title>
<path fill="none" stroke="midnightblue" d="M827.56,-116.753C822.051,-108.843 813.969,-97.2372 807.235,-87.5683"/>
<polygon fill="midnightblue" stroke="midnightblue" points="809.907,-85.281 801.32,-79.0752 804.163,-89.2815 809.907,-85.281"/>
</g>
<!-- Node15 -->
<g id="node15" class="node"><title>Node15</title>
<polygon fill="white" stroke="#bfbfbf" points="906.549,-1 906.549,-21 951.451,-21 951.451,-1 906.549,-1"/>
<text text-anchor="middle" x="929" y="-7" font-family="Helvetica,sans-Serif" font-size="10.00">cstdint</text>
</g>
<!-- Node14&#45;&gt;Node15 -->
<g id="edge14" class="edge"><title>Node14&#45;&gt;Node15</title>
<path fill="none" stroke="midnightblue" d="M1002.47,-58.7527C988.757,-50.0272 967.979,-36.8051 952.015,-26.6458"/>
<polygon fill="midnightblue" stroke="midnightblue" points="953.577,-23.4912 943.261,-21.0752 949.819,-29.3968 953.577,-23.4912"/>
</g>
<!-- Node16 -->
<g id="node16" class="node"><title>Node16</title>
<polygon fill="white" stroke="#bfbfbf" points="969.53,-1 969.53,-21 1064.47,-21 1064.47,-1 969.53,-1"/>
<text text-anchor="middle" x="1017" y="-7" font-family="Helvetica,sans-Serif" font-size="10.00">boost/version.hpp</text>
</g>
<!-- Node14&#45;&gt;Node16 -->
<g id="edge15" class="edge"><title>Node14&#45;&gt;Node16</title>
<path fill="none" stroke="midnightblue" d="M1017,-58.7527C1017,-51.2504 1017,-40.4238 1017,-31.0781"/>
<polygon fill="midnightblue" stroke="midnightblue" points="1020.5,-31.0752 1017,-21.0752 1013.5,-31.0752 1020.5,-31.0752"/>
</g>
<!-- Node17 -->
<g id="node17" class="node"><title>Node17</title>
<polygon fill="white" stroke="#bfbfbf" points="1082.62,-1 1082.62,-21 1215.38,-21 1215.38,-1 1082.62,-1"/>
<text text-anchor="middle" x="1149" y="-7" font-family="Helvetica,sans-Serif" font-size="10.00">boost/checked_delete.hpp</text>
</g>
<!-- Node14&#45;&gt;Node17 -->
<g id="edge16" class="edge"><title>Node14&#45;&gt;Node17</title>
<path fill="none" stroke="midnightblue" d="M1038.5,-58.878C1060.17,-49.6848 1093.82,-35.4095 1118.3,-25.0263"/>
<polygon fill="midnightblue" stroke="midnightblue" points="1119.67,-28.2457 1127.51,-21.1181 1116.93,-21.8016 1119.67,-28.2457"/>
</g>
<!-- Node23&#45;&gt;Node4 -->
<g id="edge26" class="edge"><title>Node23&#45;&gt;Node4</title>
<path fill="none" stroke="midnightblue" d="M292.578,-232.753C301.192,-224.435 314.039,-212.031 324.336,-202.089"/>
<polygon fill="midnightblue" stroke="midnightblue" points="326.838,-204.539 331.601,-195.075 321.976,-199.503 326.838,-204.539"/>
</g>
<!-- Node24 -->
<g id="node24" class="node"><title>Node24</title>
<polygon fill="white" stroke="#bfbfbf" points="-0.5,-175 -0.5,-195 28.5,-195 28.5,-175 -0.5,-175"/>
<text text-anchor="middle" x="13.6108" y="-181" font-family="Helvetica,sans-Serif" font-size="10.00">list</text>
</g>
<!-- Node23&#45;&gt;Node24 -->
<g id="edge27" class="edge"><title>Node23&#45;&gt;Node24</title>
<path fill="none" stroke="midnightblue" d="M227.204,-233.623C178.234,-225.723 105.307,-212.623 43,-196 41.5206,-195.605 40.0078,-195.173 38.4876,-194.717"/>
<polygon fill="midnightblue" stroke="midnightblue" points="39.2198,-191.274 28.6274,-191.499 37.0479,-197.929 39.2198,-191.274"/>
</g>
<!-- Node23&#45;&gt;Node21 -->
<g id="edge28" class="edge"><title>Node23&#45;&gt;Node21</title>
<path fill="none" stroke="midnightblue" d="M338.671,-235.934C396.776,-229.037 490.612,-216.312 580.26,-195.89"/>
<polygon fill="midnightblue" stroke="midnightblue" points="581.088,-199.291 590.041,-193.626 579.51,-192.471 581.088,-199.291"/>
</g>
<!-- Node25 -->
<g id="node25" class="node"><title>Node25</title>
<polygon fill="white" stroke="#bfbfbf" points="30.5962,-59 30.5962,-79 89.4038,-79 89.4038,-59 30.5962,-59"/>
<text text-anchor="middle" x="60" y="-65" font-family="Helvetica,sans-Serif" font-size="10.00">functional</text>
</g>
<!-- Node23&#45;&gt;Node25 -->
<g id="edge29" class="edge"><title>Node23&#45;&gt;Node25</title>
<path fill="none" stroke="midnightblue" d="M227.176,-238.075C190.708,-233.054 143.765,-221.681 110,-196 76.0847,-170.205 65.1325,-117.872 61.6266,-89.4415"/>
<polygon fill="midnightblue" stroke="midnightblue" points="65.0755,-88.7681 60.5609,-79.1833 58.113,-89.4914 65.0755,-88.7681"/>
</g>
<!-- Node27 -->
<g id="node27" class="node"><title>Node27</title>
<g id="a_node27"><a xlink:href="_function_8h.html" target="_top" xlink:title="cinder/Function.h">
<polygon fill="white" stroke="black" points="84.6455,-117 84.6455,-137 177.354,-137 177.354,-117 84.6455,-117"/>
<text text-anchor="middle" x="131" y="-123" font-family="Helvetica,sans-Serif" font-size="10.00">cinder/Function.h</text>
</a>
</g>
</g>
<!-- Node26&#45;&gt;Node27 -->
<g id="edge31" class="edge"><title>Node26&#45;&gt;Node27</title>
<path fill="none" stroke="midnightblue" d="M167.734,-174.753C161.391,-166.68 152.023,-154.757 144.336,-144.973"/>
<polygon fill="midnightblue" stroke="midnightblue" points="147.061,-142.776 138.131,-137.075 141.557,-147.101 147.061,-142.776"/>
</g>
<!-- Node26&#45;&gt;Node9 -->
<g id="edge38" class="edge"><title>Node26&#45;&gt;Node9</title>
<path fill="none" stroke="midnightblue" d="M188.871,-174.753C201.959,-166.027 221.792,-152.805 237.031,-142.646"/>
<polygon fill="midnightblue" stroke="midnightblue" points="239.008,-145.534 245.387,-137.075 235.125,-139.71 239.008,-145.534"/>
</g>
<!-- Node26&#45;&gt;Node18 -->
<g id="edge39" class="edge"><title>Node26&#45;&gt;Node18</title>
<path fill="none" stroke="midnightblue" d="M200.853,-174.922C243.476,-160.305 331.408,-131.616 408,-116 539.253,-89.2388 698.951,-76.3579 764.599,-71.8937"/>
<polygon fill="midnightblue" stroke="midnightblue" points="764.921,-75.3801 774.667,-71.2255 764.458,-68.3955 764.921,-75.3801"/>
</g>
<!-- Node26&#45;&gt;Node8 -->
<g id="edge40" class="edge"><title>Node26&#45;&gt;Node8</title>
<path fill="none" stroke="midnightblue" d="M179.251,-174.545C186.37,-159.796 202.103,-131.408 224,-116 224.338,-115.762 306.013,-92.3411 352.523,-79.0154"/>
<polygon fill="midnightblue" stroke="midnightblue" points="353.498,-82.377 362.147,-76.2583 351.57,-75.6477 353.498,-82.377"/>
</g>
<!-- Node26&#45;&gt;Node19 -->
<g id="edge41" class="edge"><title>Node26&#45;&gt;Node19</title>
<path fill="none" stroke="midnightblue" d="M231.107,-178.579C310.59,-170.754 460.771,-155.44 599.231,-138.059"/>
<polygon fill="midnightblue" stroke="midnightblue" points="599.696,-141.529 609.179,-136.805 598.819,-134.584 599.696,-141.529"/>
</g>
<!-- Node27&#45;&gt;Node14 -->
<g id="edge32" class="edge"><title>Node27&#45;&gt;Node14</title>
<path fill="none" stroke="midnightblue" d="M177.792,-120.514C192.56,-118.905 208.949,-117.245 224,-116 368.929,-104.012 813.284,-80.5554 965.339,-72.6634"/>
<polygon fill="midnightblue" stroke="midnightblue" points="965.545,-76.1575 975.35,-72.1443 965.182,-69.1669 965.545,-76.1575"/>
</g>
<!-- Node27&#45;&gt;Node11 -->
<g id="edge33" class="edge"><title>Node27&#45;&gt;Node11</title>
<path fill="none" stroke="midnightblue" d="M160.484,-116.878C191.259,-107.356 239.654,-92.3833 273.444,-81.9291"/>
<polygon fill="midnightblue" stroke="midnightblue" points="274.907,-85.1402 283.425,-78.8408 272.838,-78.4529 274.907,-85.1402"/>
</g>
<!-- Node27&#45;&gt;Node8 -->
<g id="edge34" class="edge"><title>Node27&#45;&gt;Node8</title>
<path fill="none" stroke="midnightblue" d="M177.57,-117.159C221.856,-108.52 290.245,-94.5733 349,-80 350.073,-79.7338 351.164,-79.4572 352.263,-79.1729"/>
<polygon fill="midnightblue" stroke="midnightblue" points="353.48,-82.4696 362.219,-76.4793 351.652,-75.7125 353.48,-82.4696"/>
</g>
<!-- Node28 -->
<g id="node28" class="node"><title>Node28</title>
<polygon fill="white" stroke="#bfbfbf" points="108.608,-59 108.608,-79 147.392,-79 147.392,-59 108.608,-59"/>
<text text-anchor="middle" x="128" y="-65" font-family="Helvetica,sans-Serif" font-size="10.00">utility</text>
</g>
<!-- Node27&#45;&gt;Node28 -->
<g id="edge35" class="edge"><title>Node27&#45;&gt;Node28</title>
<path fill="none" stroke="midnightblue" d="M130.505,-116.753C130.103,-109.25 129.523,-98.4238 129.022,-89.0781"/>
<polygon fill="midnightblue" stroke="midnightblue" points="132.516,-88.8736 128.486,-79.0752 125.526,-89.2481 132.516,-88.8736"/>
</g>
<!-- Node29 -->
<g id="node29" class="node"><title>Node29</title>
<polygon fill="white" stroke="#bfbfbf" points="165.303,-59 165.303,-79 264.697,-79 264.697,-59 165.303,-59"/>
<text text-anchor="middle" x="215" y="-65" font-family="Helvetica,sans-Serif" font-size="10.00">boost/signals2.hpp</text>
</g>
<!-- Node27&#45;&gt;Node29 -->
<g id="edge36" class="edge"><title>Node27&#45;&gt;Node29</title>
<path fill="none" stroke="midnightblue" d="M144.871,-116.753C157.959,-108.027 177.792,-94.8051 193.031,-84.6458"/>
<polygon fill="midnightblue" stroke="midnightblue" points="195.008,-87.5344 201.387,-79.0752 191.125,-81.7101 195.008,-87.5344"/>
</g>
<!-- Node27&#45;&gt;Node25 -->
<g id="edge37" class="edge"><title>Node27&#45;&gt;Node25</title>
<path fill="none" stroke="midnightblue" d="M119.276,-116.753C108.523,-108.272 92.3848,-95.543 79.6611,-85.5073"/>
<polygon fill="midnightblue" stroke="midnightblue" points="81.5252,-82.52 71.506,-79.0752 77.1902,-88.0162 81.5252,-82.52"/>
</g>
<!-- Node30&#45;&gt;Node4 -->
<g id="edge43" class="edge"><title>Node30&#45;&gt;Node4</title>
<path fill="none" stroke="midnightblue" d="M453.602,-348.753C434.635,-321.338 378.472,-240.161 353.367,-203.875"/>
<polygon fill="midnightblue" stroke="midnightblue" points="355.998,-201.525 347.43,-195.293 350.241,-205.508 355.998,-201.525"/>
</g>
<!-- Node31 -->
<g id="node31" class="node"><title>Node31</title>
<g id="a_node31"><a xlink:href="_data_source_8h.html" target="_top" xlink:title="cinder/DataSource.h">
<polygon fill="white" stroke="black" points="998.419,-291 998.419,-311 1105.58,-311 1105.58,-291 998.419,-291"/>
<text text-anchor="middle" x="1052" y="-297" font-family="Helvetica,sans-Serif" font-size="10.00">cinder/DataSource.h</text>
</a>
</g>
</g>
<!-- Node30&#45;&gt;Node31 -->
<g id="edge44" class="edge"><title>Node30&#45;&gt;Node31</title>
<path fill="none" stroke="midnightblue" d="M516.851,-349.153C519.943,-348.745 523.008,-348.357 526,-348 692.151,-328.168 888.793,-313.23 987.965,-306.29"/>
<polygon fill="midnightblue" stroke="midnightblue" points="988.389,-309.769 998.122,-305.584 987.903,-302.786 988.389,-309.769"/>
</g>
<!-- Node30&#45;&gt;Node19 -->
<g id="edge64" class="edge"><title>Node30&#45;&gt;Node19</title>
<path fill="none" stroke="midnightblue" d="M495.719,-348.996C560.667,-331.824 693.835,-292.647 720,-254 744.011,-218.535 708.347,-170.03 685.551,-144.797"/>
<polygon fill="midnightblue" stroke="midnightblue" points="687.809,-142.089 678.418,-137.185 682.701,-146.875 687.809,-142.089"/>
</g>
<!-- Node31&#45;&gt;Node14 -->
<g id="edge45" class="edge"><title>Node31&#45;&gt;Node14</title>
<path fill="none" stroke="midnightblue" d="M1045.16,-290.786C1028,-267.023 983.386,-201.097 968,-138 965.684,-128.501 964.116,-124.973 968,-116 973.359,-103.619 983.873,-93.0378 993.792,-85.1567"/>
<polygon fill="midnightblue" stroke="midnightblue" points="995.899,-87.9517 1001.86,-79.1914 991.737,-82.3236 995.899,-87.9517"/>
</g>
<!-- Node32 -->
<g id="node32" class="node"><title>Node32</title>
<g id="a_node32"><a xlink:href="_url_8h.html" target="_top" xlink:title="cinder/Url.h">
<polygon fill="white" stroke="black" points="1121.44,-233 1121.44,-253 1188.56,-253 1188.56,-233 1121.44,-233"/>
<text text-anchor="middle" x="1155" y="-239" font-family="Helvetica,sans-Serif" font-size="10.00">cinder/Url.h</text>
</a>
</g>
</g>
<!-- Node31&#45;&gt;Node32 -->
<g id="edge46" class="edge"><title>Node31&#45;&gt;Node32</title>
<path fill="none" stroke="midnightblue" d="M1069.01,-290.753C1085.43,-281.823 1110.52,-268.185 1129.36,-257.939"/>
<polygon fill="midnightblue" stroke="midnightblue" points="1131.19,-260.927 1138.31,-253.075 1127.85,-254.777 1131.19,-260.927"/>
</g>
<!-- Node34 -->
<g id="node34" class="node"><title>Node34</title>
<g id="a_node34"><a xlink:href="_buffer_8h.html" target="_top" xlink:title="cinder/Buffer.h">
<polygon fill="white" stroke="black" points="976.844,-117 976.844,-137 1057.16,-137 1057.16,-117 976.844,-117"/>
<text text-anchor="middle" x="1017" y="-123" font-family="Helvetica,sans-Serif" font-size="10.00">cinder/Buffer.h</text>
</a>
</g>
</g>
<!-- Node31&#45;&gt;Node34 -->
<g id="edge61" class="edge"><title>Node31&#45;&gt;Node34</title>
<path fill="none" stroke="midnightblue" d="M1050.12,-290.753C1044.61,-263.688 1028.44,-184.224 1020.92,-147.286"/>
<polygon fill="midnightblue" stroke="midnightblue" points="1024.31,-146.394 1018.89,-137.293 1017.46,-147.79 1024.31,-146.394"/>
</g>
<!-- Node33 -->
<g id="node33" class="node"><title>Node33</title>
<g id="a_node33"><a xlink:href="_stream_8h.html" target="_top" xlink:title="cinder/Stream.h">
<polygon fill="white" stroke="black" points="1044.71,-175 1044.71,-195 1131.29,-195 1131.29,-175 1044.71,-175"/>
<text text-anchor="middle" x="1088" y="-181" font-family="Helvetica,sans-Serif" font-size="10.00">cinder/Stream.h</text>
</a>
</g>
</g>
<!-- Node31&#45;&gt;Node33 -->
<g id="edge62" class="edge"><title>Node31&#45;&gt;Node33</title>
<path fill="none" stroke="midnightblue" d="M1054.95,-290.671C1060.86,-271.957 1074.26,-229.517 1082.06,-204.809"/>
<polygon fill="midnightblue" stroke="midnightblue" points="1085.44,-205.729 1085.11,-195.139 1078.76,-203.621 1085.44,-205.729"/>
</g>
<!-- Node35 -->
<g id="node35" class="node"><title>Node35</title>
<g id="a_node35"><a xlink:href="_filesystem_8h.html" target="_top" xlink:title="cinder/Filesystem.h">
<polygon fill="white" stroke="black" points="1474.93,-117 1474.93,-137 1577.07,-137 1577.07,-117 1474.93,-117"/>
<text text-anchor="middle" x="1526" y="-123" font-family="Helvetica,sans-Serif" font-size="10.00">cinder/Filesystem.h</text>
</a>
</g>
</g>
<!-- Node31&#45;&gt;Node35 -->
<g id="edge63" class="edge"><title>Node31&#45;&gt;Node35</title>
<path fill="none" stroke="midnightblue" d="M1103.42,-290.965C1176.89,-276.882 1315.06,-246.003 1424,-196 1455.17,-181.693 1487.52,-158.452 1507.21,-143.194"/>
<polygon fill="midnightblue" stroke="midnightblue" points="1509.38,-145.937 1515.07,-137 1505.05,-140.438 1509.38,-145.937"/>
</g>
<!-- Node32&#45;&gt;Node14 -->
<g id="edge47" class="edge"><title>Node32&#45;&gt;Node14</title>
<path fill="none" stroke="midnightblue" d="M1188.78,-238.806C1276.54,-229.294 1500.12,-196.641 1428,-116 1404.43,-89.6496 1173.89,-76.618 1068.77,-72.0077"/>
<polygon fill="midnightblue" stroke="midnightblue" points="1068.84,-68.5076 1058.69,-71.575 1068.53,-75.5011 1068.84,-68.5076"/>
</g>
<!-- Node32&#45;&gt;Node33 -->
<g id="edge48" class="edge"><title>Node32&#45;&gt;Node33</title>
<path fill="none" stroke="midnightblue" d="M1143.94,-232.753C1133.79,-224.272 1118.56,-211.543 1106.55,-201.507"/>
<polygon fill="midnightblue" stroke="midnightblue" points="1108.78,-198.803 1098.86,-195.075 1104.29,-204.174 1108.78,-198.803"/>
</g>
<!-- Node39 -->
<g id="node39" class="node"><title>Node39</title>
<polygon fill="white" stroke="#bfbfbf" points="1148.83,-175 1148.83,-195 1203.17,-195 1203.17,-175 1148.83,-175"/>
<text text-anchor="middle" x="1176" y="-181" font-family="Helvetica,sans-Serif" font-size="10.00">iostream</text>
</g>
<!-- Node32&#45;&gt;Node39 -->
<g id="edge60" class="edge"><title>Node32&#45;&gt;Node39</title>
<path fill="none" stroke="midnightblue" d="M1158.47,-232.753C1161.34,-225.087 1165.52,-213.952 1169.07,-204.471"/>
<polygon fill="midnightblue" stroke="midnightblue" points="1172.36,-205.667 1172.6,-195.075 1165.81,-203.21 1172.36,-205.667"/>
</g>
<!-- Node33&#45;&gt;Node14 -->
<g id="edge49" class="edge"><title>Node33&#45;&gt;Node14</title>
<path fill="none" stroke="midnightblue" d="M1131.32,-174.97C1166.51,-166.65 1212.05,-153.303 1223,-138 1228.69,-130.049 1229.11,-123.63 1223,-116 1204.06,-92.359 1123.65,-80.0672 1069.08,-74.3262"/>
<polygon fill="midnightblue" stroke="midnightblue" points="1069.17,-70.818 1058.87,-73.2965 1068.47,-77.7827 1069.17,-70.818"/>
</g>
<!-- Node33&#45;&gt;Node34 -->
<g id="edge50" class="edge"><title>Node33&#45;&gt;Node34</title>
<path fill="none" stroke="midnightblue" d="M1076.28,-174.753C1065.52,-166.272 1049.38,-153.543 1036.66,-143.507"/>
<polygon fill="midnightblue" stroke="midnightblue" points="1038.53,-140.52 1028.51,-137.075 1034.19,-146.016 1038.53,-140.52"/>
</g>
<!-- Node33&#45;&gt;Node13 -->
<g id="edge52" class="edge"><title>Node33&#45;&gt;Node13</title>
<path fill="none" stroke="midnightblue" d="M1046.91,-174.94C1002.73,-165.201 932.454,-149.706 884.833,-139.207"/>
<polygon fill="midnightblue" stroke="midnightblue" points="885.552,-135.782 875.033,-137.047 884.045,-142.618 885.552,-135.782"/>
</g>
<!-- Node33&#45;&gt;Node35 -->
<g id="edge53" class="edge"><title>Node33&#45;&gt;Node35</title>
<path fill="none" stroke="midnightblue" d="M1131.37,-175.419C1134.29,-174.917 1137.18,-174.438 1140,-174 1201.06,-164.503 1372.3,-145.053 1464.83,-134.75"/>
<polygon fill="midnightblue" stroke="midnightblue" points="1465.34,-138.215 1474.89,-133.631 1464.57,-131.258 1465.34,-138.215"/>
</g>
<!-- Node33&#45;&gt;Node19 -->
<g id="edge56" class="edge"><title>Node33&#45;&gt;Node19</title>
<path fill="none" stroke="midnightblue" d="M1044.35,-178.165C971.863,-168.478 826.068,-148.992 739.057,-137.363"/>
<polygon fill="midnightblue" stroke="midnightblue" points="739.381,-133.876 729.006,-136.02 738.454,-140.814 739.381,-133.876"/>
</g>
<!-- Node33&#45;&gt;Node18 -->
<g id="edge57" class="edge"><title>Node33&#45;&gt;Node18</title>
<path fill="none" stroke="midnightblue" d="M1064.07,-174.895C1039.83,-165.658 1001.28,-150.919 968,-138 917.755,-118.495 859.437,-95.498 824.965,-81.8667"/>
<polygon fill="midnightblue" stroke="midnightblue" points="826.07,-78.5403 815.484,-78.1162 823.495,-85.0494 826.07,-78.5403"/>
</g>
<!-- Node37 -->
<g id="node37" class="node"><title>Node37</title>
<polygon fill="white" stroke="#bfbfbf" points="1270.57,-117 1270.57,-137 1419.43,-137 1419.43,-117 1270.57,-117"/>
<text text-anchor="middle" x="1345" y="-123" font-family="Helvetica,sans-Serif" font-size="10.00">boost/iostreams/concepts.hpp</text>
</g>
<!-- Node33&#45;&gt;Node37 -->
<g id="edge58" class="edge"><title>Node33&#45;&gt;Node37</title>
<path fill="none" stroke="midnightblue" d="M1129.58,-174.94C1174.27,-165.201 1245.38,-149.706 1293.57,-139.207"/>
<polygon fill="midnightblue" stroke="midnightblue" points="1294.46,-142.595 1303.48,-137.047 1292.97,-135.756 1294.46,-142.595"/>
</g>
<!-- Node38 -->
<g id="node38" class="node"><title>Node38</title>
<polygon fill="white" stroke="#bfbfbf" points="1075.31,-117 1075.31,-137 1214.69,-137 1214.69,-117 1075.31,-117"/>
<text text-anchor="middle" x="1145" y="-123" font-family="Helvetica,sans-Serif" font-size="10.00">boost/iostreams/stream.hpp</text>
</g>
<!-- Node33&#45;&gt;Node38 -->
<g id="edge59" class="edge"><title>Node33&#45;&gt;Node38</title>
<path fill="none" stroke="midnightblue" d="M1097.41,-174.753C1105.88,-166.435 1118.5,-154.031 1128.62,-144.089"/>
<polygon fill="midnightblue" stroke="midnightblue" points="1131.08,-146.58 1135.76,-137.075 1126.18,-141.587 1131.08,-146.58"/>
</g>
<!-- Node34&#45;&gt;Node14 -->
<g id="edge51" class="edge"><title>Node34&#45;&gt;Node14</title>
<path fill="none" stroke="midnightblue" d="M1017,-116.753C1017,-109.25 1017,-98.4238 1017,-89.0781"/>
<polygon fill="midnightblue" stroke="midnightblue" points="1020.5,-89.0752 1017,-79.0752 1013.5,-89.0752 1020.5,-89.0752"/>
</g>
<!-- Node35&#45;&gt;Node14 -->
<g id="edge54" class="edge"><title>Node35&#45;&gt;Node14</title>
<path fill="none" stroke="midnightblue" d="M1474.59,-117.85C1470,-117.195 1465.42,-116.568 1461,-116 1319.48,-97.7938 1151.85,-81.9808 1068.88,-74.5366"/>
<polygon fill="midnightblue" stroke="midnightblue" points="1068.98,-71.0316 1058.7,-73.6278 1068.35,-78.0038 1068.98,-71.0316"/>
</g>
<!-- Node36 -->
<g id="node36" class="node"><title>Node36</title>
<polygon fill="white" stroke="#bfbfbf" points="1472.42,-59 1472.42,-79 1579.58,-79 1579.58,-59 1472.42,-59"/>
<text text-anchor="middle" x="1526" y="-65" font-family="Helvetica,sans-Serif" font-size="10.00">boost/filesystem.hpp</text>
</g>
<!-- Node35&#45;&gt;Node36 -->
<g id="edge55" class="edge"><title>Node35&#45;&gt;Node36</title>
<path fill="none" stroke="midnightblue" d="M1526,-116.753C1526,-109.25 1526,-98.4238 1526,-89.0781"/>
<polygon fill="midnightblue" stroke="midnightblue" points="1529.5,-89.0752 1526,-79.0752 1522.5,-89.0752 1529.5,-89.0752"/>
</g>
<!-- Node40&#45;&gt;Node5 -->
<g id="edge66" class="edge"><title>Node40&#45;&gt;Node5</title>
<path fill="none" stroke="midnightblue" d="M642.203,-232.745C647.861,-218.761 655.924,-191.974 644,-174 633.122,-157.603 615.121,-147.036 596.852,-140.232"/>
<polygon fill="midnightblue" stroke="midnightblue" points="597.904,-136.893 587.31,-137.006 595.662,-143.525 597.904,-136.893"/>
</g>
<!-- Node40&#45;&gt;Node21 -->
<g id="edge67" class="edge"><title>Node40&#45;&gt;Node21</title>
<path fill="none" stroke="midnightblue" d="M633.872,-232.753C630.45,-225.087 625.478,-213.952 621.246,-204.471"/>
<polygon fill="midnightblue" stroke="midnightblue" points="624.324,-202.78 617.051,-195.075 617.932,-205.633 624.324,-202.78"/>
</g>
</g>
</svg>
