<?xml version="1.0" encoding="UTF-8" standalone="no"?>
<!DOCTYPE svg PUBLIC "-//W3C//DTD SVG 1.1//EN"
 "http://www.w3.org/Graphics/SVG/1.1/DTD/svg11.dtd">
<!-- Generated by graphviz version 2.30.1 (20140712.1814)
 -->
<!-- Title: include/cinder/audio/SampleRecorderNode.h Pages: 1 -->
<!--zoomable 332 -->
<svg id="main" version="1.1" xmlns="http://www.w3.org/2000/svg" xmlns:xlink="http://www.w3.org/1999/xlink" xml:space="preserve" onload="init(evt)">
<style type="text/css"><![CDATA[
.edge:hover path { stroke: red; }
.edge:hover polygon { stroke: red; fill: red; }
]]></style>
<script type="text/javascript"><![CDATA[
var edges = document.getElementsByTagName('g');
if (edges && edges.length) {
  for (var i=0;i<edges.length;i++) {
    if (edges[i].id.substr(0,4)=='edge') {
      edges[i].setAttribute('class','edge');
    }
  }
}
]]></script>
        <defs>
                <circle id="rim" cx="0" cy="0" r="7"/>
                <circle id="rim2" cx="0" cy="0" r="3.5"/>
                <g id="zoomPlus">
                        <use xlink:href="#rim" fill="#404040">
                                <set attributeName="fill" to="#808080" begin="zoomplus.mouseover" end="zoomplus.mouseout"/>
                        </use>
                        <path d="M-4,0h8M0,-4v8" fill="none" stroke="white" stroke-width="1.5" pointer-events="none"/>
                </g>
                <g id="zoomMin">
                        <use xlink:href="#rim" fill="#404040">
                                <set attributeName="fill" to="#808080" begin="zoomminus.mouseover" end="zoomminus.mouseout"/>
                        </use>
                        <path d="M-4,0h8" fill="none" stroke="white" stroke-width="1.5" pointer-events="none"/>
                </g>
                <g id="dirArrow">
                        <path fill="none" stroke="white" stroke-width="1.5" d="M0,-3.0v7 M-2.5,-0.5L0,-3.0L2.5,-0.5"/>
                </g>
               <g id="resetDef">
                       <use xlink:href="#rim2" fill="#404040">
                               <set attributeName="fill" to="#808080" begin="reset.mouseover" end="reset.mouseout"/>
                       </use>
               </g>
        </defs>

<script type="text/javascript">
var viewWidth = 978;
var viewHeight = 332;
var sectionId = 'dynsection-0';
</script>
<script xlink:href="svgpan.js"/>
<svg id="graph" class="graph">
<g id="viewport">
<title>include/cinder/audio/SampleRecorderNode.h</title>
<polygon fill="white" stroke="white" points="-4,5 -4,-328 975,-328 975,5 -4,5"/>
<!-- Node1 -->
<g id="node1" class="node"><title>Node1</title>
<polygon fill="#bfbfbf" stroke="black" points="484.971,-291 484.971,-323 611.029,-323 611.029,-291 484.971,-291"/>
<text text-anchor="start" x="492.971" y="-309" font-family="Helvetica,sans-Serif" font-size="10.00">include/cinder/audio</text>
<text text-anchor="middle" x="548" y="-297" font-family="Helvetica,sans-Serif" font-size="10.00">/SampleRecorderNode.h</text>
</g>
<!-- Node2 -->
<g id="node2" class="node"><title>Node2</title>
<g id="a_node2"><a xlink:href="_node_8h.html" target="_top" xlink:title="cinder/audio/Node.h">
<polygon fill="white" stroke="black" points="495.247,-233 495.247,-253 600.753,-253 600.753,-233 495.247,-233"/>
<text text-anchor="middle" x="548" y="-239" font-family="Helvetica,sans-Serif" font-size="10.00">cinder/audio/Node.h</text>
</a>
</g>
</g>
<!-- Node1&#45;&gt;Node2 -->
<g id="edge1" class="edge"><title>Node1&#45;&gt;Node2</title>
<path fill="none" stroke="midnightblue" d="M548,-290.992C548,-282.726 548,-272.373 548,-263.489"/>
<polygon fill="midnightblue" stroke="midnightblue" points="551.5,-263.29 548,-253.29 544.5,-263.29 551.5,-263.29"/>
</g>
<!-- Node22 -->
<g id="node22" class="node"><title>Node22</title>
<g id="a_node22"><a xlink:href="_sample_type_8h.html" target="_top" xlink:title="cinder/audio/SampleType.h">
<polygon fill="white" stroke="black" points="618.404,-233 618.404,-253 755.596,-253 755.596,-233 618.404,-233"/>
<text text-anchor="middle" x="687" y="-239" font-family="Helvetica,sans-Serif" font-size="10.00">cinder/audio/SampleType.h</text>
</a>
</g>
</g>
<!-- Node1&#45;&gt;Node22 -->
<g id="edge24" class="edge"><title>Node1&#45;&gt;Node22</title>
<path fill="none" stroke="midnightblue" d="M581.648,-290.992C604.745,-280.689 635.115,-267.143 657.312,-257.242"/>
<polygon fill="midnightblue" stroke="midnightblue" points="658.872,-260.379 666.579,-253.109 656.02,-253.986 658.872,-260.379"/>
</g>
<!-- Node23 -->
<g id="node23" class="node"><title>Node23</title>
<g id="a_node23"><a xlink:href="_filesystem_8h.html" target="_top" xlink:title="cinder/Filesystem.h">
<polygon fill="white" stroke="black" points="83.9312,-233 83.9312,-253 186.069,-253 186.069,-233 83.9312,-233"/>
<text text-anchor="middle" x="135" y="-239" font-family="Helvetica,sans-Serif" font-size="10.00">cinder/Filesystem.h</text>
</a>
</g>
</g>
<!-- Node1&#45;&gt;Node23 -->
<g id="edge25" class="edge"><title>Node1&#45;&gt;Node23</title>
<path fill="none" stroke="midnightblue" d="M484.825,-296.516C406.432,-284.748 273.663,-264.816 196.198,-253.187"/>
<polygon fill="midnightblue" stroke="midnightblue" points="196.517,-249.696 186.108,-251.672 195.478,-256.618 196.517,-249.696"/>
</g>
<!-- Node3 -->
<g id="node3" class="node"><title>Node3</title>
<g id="a_node3"><a xlink:href="audio_2_buffer_8h.html" target="_top" xlink:title="cinder/audio/Buffer.h">
<polygon fill="white" stroke="black" points="723.221,-175 723.221,-195 830.779,-195 830.779,-175 723.221,-175"/>
<text text-anchor="middle" x="777" y="-181" font-family="Helvetica,sans-Serif" font-size="10.00">cinder/audio/Buffer.h</text>
</a>
</g>
</g>
<!-- Node2&#45;&gt;Node3 -->
<g id="edge2" class="edge"><title>Node2&#45;&gt;Node3</title>
<path fill="none" stroke="midnightblue" d="M585.047,-232.94C624.541,-223.283 687.177,-207.965 730.088,-197.472"/>
<polygon fill="midnightblue" stroke="midnightblue" points="731.124,-200.822 740.006,-195.047 729.461,-194.022 731.124,-200.822"/>
</g>
<!-- Node11 -->
<g id="node11" class="node"><title>Node11</title>
<g id="a_node11"><a xlink:href="audio_2_exception_8h.html" target="_top" xlink:title="cinder/audio/Exception.h">
<polygon fill="white" stroke="black" points="163.242,-175 163.242,-195 288.758,-195 288.758,-175 163.242,-175"/>
<text text-anchor="middle" x="226" y="-181" font-family="Helvetica,sans-Serif" font-size="10.00">cinder/audio/Exception.h</text>
</a>
</g>
</g>
<!-- Node2&#45;&gt;Node11 -->
<g id="edge10" class="edge"><title>Node2&#45;&gt;Node11</title>
<path fill="none" stroke="midnightblue" d="M495.907,-232.94C439.119,-223.064 348.301,-207.27 287.914,-196.768"/>
<polygon fill="midnightblue" stroke="midnightblue" points="288.203,-193.265 277.751,-195 287.004,-200.162 288.203,-193.265"/>
</g>
<!-- Node18 -->
<g id="node18" class="node"><title>Node18</title>
<polygon fill="white" stroke="#bfbfbf" points="306.291,-175 306.291,-195 425.709,-195 425.709,-175 306.291,-175"/>
<text text-anchor="middle" x="366" y="-181" font-family="Helvetica,sans-Serif" font-size="10.00">boost/noncopyable.hpp</text>
</g>
<!-- Node2&#45;&gt;Node18 -->
<g id="edge19" class="edge"><title>Node2&#45;&gt;Node18</title>
<path fill="none" stroke="midnightblue" d="M518.353,-232.878C487.458,-223.372 438.903,-208.432 404.934,-197.98"/>
<polygon fill="midnightblue" stroke="midnightblue" points="405.919,-194.621 395.332,-195.025 403.861,-201.311 405.919,-194.621"/>
</g>
<!-- Node19 -->
<g id="node19" class="node"><title>Node19</title>
<polygon fill="white" stroke="#bfbfbf" points="443.357,-175 443.357,-195 556.643,-195 556.643,-175 443.357,-175"/>
<text text-anchor="middle" x="500" y="-181" font-family="Helvetica,sans-Serif" font-size="10.00">boost/logic/tribool.hpp</text>
</g>
<!-- Node2&#45;&gt;Node19 -->
<g id="edge20" class="edge"><title>Node2&#45;&gt;Node19</title>
<path fill="none" stroke="midnightblue" d="M540.074,-232.753C533.084,-224.598 522.728,-212.516 514.294,-202.677"/>
<polygon fill="midnightblue" stroke="midnightblue" points="516.944,-200.39 507.779,-195.075 511.629,-204.946 516.944,-200.39"/>
</g>
<!-- Node8 -->
<g id="node8" class="node"><title>Node8</title>
<polygon fill="white" stroke="#bfbfbf" points="612.943,-117 612.943,-137 665.057,-137 665.057,-117 612.943,-117"/>
<text text-anchor="middle" x="639" y="-123" font-family="Helvetica,sans-Serif" font-size="10.00">memory</text>
</g>
<!-- Node2&#45;&gt;Node8 -->
<g id="edge21" class="edge"><title>Node2&#45;&gt;Node8</title>
<path fill="none" stroke="midnightblue" d="M587.48,-232.952C620.779,-224.427 664.632,-210.783 675,-196 686.649,-179.391 671.806,-158.555 657.804,-144.354"/>
<polygon fill="midnightblue" stroke="midnightblue" points="659.947,-141.563 650.285,-137.216 655.128,-146.64 659.947,-141.563"/>
</g>
<!-- Node20 -->
<g id="node20" class="node"><title>Node20</title>
<polygon fill="white" stroke="#bfbfbf" points="574.273,-175 574.273,-195 619.727,-195 619.727,-175 574.273,-175"/>
<text text-anchor="middle" x="597" y="-181" font-family="Helvetica,sans-Serif" font-size="10.00">atomic</text>
</g>
<!-- Node2&#45;&gt;Node20 -->
<g id="edge22" class="edge"><title>Node2&#45;&gt;Node20</title>
<path fill="none" stroke="midnightblue" d="M556.091,-232.753C563.227,-224.598 573.799,-212.516 582.408,-202.677"/>
<polygon fill="midnightblue" stroke="midnightblue" points="585.108,-204.906 589.059,-195.075 579.84,-200.296 585.108,-204.906"/>
</g>
<!-- Node21 -->
<g id="node21" class="node"><title>Node21</title>
<polygon fill="white" stroke="#bfbfbf" points="637.33,-175 637.33,-195 666.67,-195 666.67,-175 637.33,-175"/>
<text text-anchor="middle" x="652" y="-181" font-family="Helvetica,sans-Serif" font-size="10.00">set</text>
</g>
<!-- Node2&#45;&gt;Node21 -->
<g id="edge23" class="edge"><title>Node2&#45;&gt;Node21</title>
<path fill="none" stroke="midnightblue" d="M565.173,-232.753C582.349,-223.504 608.906,-209.205 628.128,-198.854"/>
<polygon fill="midnightblue" stroke="midnightblue" points="630.016,-201.813 637.162,-193.99 626.697,-195.649 630.016,-201.813"/>
</g>
<!-- Node4 -->
<g id="node4" class="node"><title>Node4</title>
<g id="a_node4"><a xlink:href="_cinder_assert_8h.html" target="_top" xlink:title="cinder/CinderAssert.h">
<polygon fill="white" stroke="black" points="720.924,-117 720.924,-137 833.076,-137 833.076,-117 720.924,-117"/>
<text text-anchor="middle" x="777" y="-123" font-family="Helvetica,sans-Serif" font-size="10.00">cinder/CinderAssert.h</text>
</a>
</g>
</g>
<!-- Node3&#45;&gt;Node4 -->
<g id="edge3" class="edge"><title>Node3&#45;&gt;Node4</title>
<path fill="none" stroke="midnightblue" d="M777,-174.753C777,-167.25 777,-156.424 777,-147.078"/>
<polygon fill="midnightblue" stroke="midnightblue" points="780.5,-147.075 777,-137.075 773.5,-147.075 780.5,-147.075"/>
</g>
<!-- Node7 -->
<g id="node7" class="node"><title>Node7</title>
<polygon fill="white" stroke="#bfbfbf" points="487.384,-59 487.384,-79 530.616,-79 530.616,-59 487.384,-59"/>
<text text-anchor="middle" x="509" y="-65" font-family="Helvetica,sans-Serif" font-size="10.00">vector</text>
</g>
<!-- Node3&#45;&gt;Node7 -->
<g id="edge6" class="edge"><title>Node3&#45;&gt;Node7</title>
<path fill="none" stroke="midnightblue" d="M764.416,-174.975C741.296,-158.516 692.717,-124.532 674,-116 629.737,-95.8231 574.672,-82.65 540.681,-75.7681"/>
<polygon fill="midnightblue" stroke="midnightblue" points="541.332,-72.3291 530.845,-73.8336 539.981,-79.1976 541.332,-72.3291"/>
</g>
<!-- Node3&#45;&gt;Node8 -->
<g id="edge7" class="edge"><title>Node3&#45;&gt;Node8</title>
<path fill="none" stroke="midnightblue" d="M754.521,-174.878C731.766,-165.644 696.376,-151.283 670.761,-140.889"/>
<polygon fill="midnightblue" stroke="midnightblue" points="672.052,-137.635 661.47,-137.118 669.42,-144.121 672.052,-137.635"/>
</g>
<!-- Node9 -->
<g id="node9" class="node"><title>Node9</title>
<polygon fill="white" stroke="#bfbfbf" points="850.828,-117 850.828,-137 895.172,-137 895.172,-117 850.828,-117"/>
<text text-anchor="middle" x="873" y="-123" font-family="Helvetica,sans-Serif" font-size="10.00">cstdlib</text>
</g>
<!-- Node3&#45;&gt;Node9 -->
<g id="edge8" class="edge"><title>Node3&#45;&gt;Node9</title>
<path fill="none" stroke="midnightblue" d="M792.852,-174.753C807.95,-165.946 830.901,-152.558 848.38,-142.362"/>
<polygon fill="midnightblue" stroke="midnightblue" points="850.568,-145.137 857.443,-137.075 847.041,-139.091 850.568,-145.137"/>
</g>
<!-- Node10 -->
<g id="node10" class="node"><title>Node10</title>
<polygon fill="white" stroke="#bfbfbf" points="913.436,-117 913.436,-137 970.564,-137 970.564,-117 913.436,-117"/>
<text text-anchor="middle" x="942" y="-123" font-family="Helvetica,sans-Serif" font-size="10.00">algorithm</text>
</g>
<!-- Node3&#45;&gt;Node10 -->
<g id="edge9" class="edge"><title>Node3&#45;&gt;Node10</title>
<path fill="none" stroke="midnightblue" d="M803.877,-174.878C831.646,-165.453 875.152,-150.688 905.907,-140.25"/>
<polygon fill="midnightblue" stroke="midnightblue" points="907.063,-143.554 915.408,-137.025 904.813,-136.925 907.063,-143.554"/>
</g>
<!-- Node5 -->
<g id="node5" class="node"><title>Node5</title>
<g id="a_node5"><a xlink:href="_current_function_8h.html" target="_top" xlink:title="cinder/CurrentFunction.h">
<polygon fill="white" stroke="black" points="765.973,-59 765.973,-79 892.027,-79 892.027,-59 765.973,-59"/>
<text text-anchor="middle" x="829" y="-65" font-family="Helvetica,sans-Serif" font-size="10.00">cinder/CurrentFunction.h</text>
</a>
</g>
</g>
<!-- Node4&#45;&gt;Node5 -->
<g id="edge4" class="edge"><title>Node4&#45;&gt;Node5</title>
<path fill="none" stroke="midnightblue" d="M785.587,-116.753C793.159,-108.598 804.378,-96.5158 813.514,-86.6769"/>
<polygon fill="midnightblue" stroke="midnightblue" points="816.333,-88.7847 820.573,-79.0752 811.204,-84.0216 816.333,-88.7847"/>
</g>
<!-- Node6 -->
<g id="node6" class="node"><title>Node6</title>
<polygon fill="white" stroke="#bfbfbf" points="699.884,-59 699.884,-79 748.116,-79 748.116,-59 699.884,-59"/>
<text text-anchor="middle" x="724" y="-65" font-family="Helvetica,sans-Serif" font-size="10.00">cassert</text>
</g>
<!-- Node4&#45;&gt;Node6 -->
<g id="edge5" class="edge"><title>Node4&#45;&gt;Node6</title>
<path fill="none" stroke="midnightblue" d="M768.248,-116.753C760.453,-108.516 748.866,-96.2738 739.505,-86.3824"/>
<polygon fill="midnightblue" stroke="midnightblue" points="742.005,-83.9323 732.589,-79.0752 736.921,-88.744 742.005,-83.9323"/>
</g>
<!-- Node12 -->
<g id="node12" class="node"><title>Node12</title>
<g id="a_node12"><a xlink:href="_exception_8h.html" target="_top" xlink:title="cinder/Exception.h">
<polygon fill="white" stroke="black" points="227.865,-117 227.865,-137 326.135,-137 326.135,-117 227.865,-117"/>
<text text-anchor="middle" x="277" y="-123" font-family="Helvetica,sans-Serif" font-size="10.00">cinder/Exception.h</text>
</a>
</g>
</g>
<!-- Node11&#45;&gt;Node12 -->
<g id="edge11" class="edge"><title>Node11&#45;&gt;Node12</title>
<path fill="none" stroke="midnightblue" d="M234.422,-174.753C241.848,-166.598 252.852,-154.516 261.812,-144.677"/>
<polygon fill="midnightblue" stroke="midnightblue" points="264.589,-146.825 268.735,-137.075 259.414,-142.112 264.589,-146.825"/>
</g>
<!-- Node17 -->
<g id="node17" class="node"><title>Node17</title>
<polygon fill="white" stroke="#bfbfbf" points="225.773,-59 225.773,-79 266.227,-79 266.227,-59 225.773,-59"/>
<text text-anchor="middle" x="246" y="-65" font-family="Helvetica,sans-Serif" font-size="10.00">string</text>
</g>
<!-- Node11&#45;&gt;Node17 -->
<g id="edge18" class="edge"><title>Node11&#45;&gt;Node17</title>
<path fill="none" stroke="midnightblue" d="M222.903,-174.586C219.008,-161.298 213.459,-136.385 219,-116 221.753,-105.872 227.361,-95.6947 232.756,-87.4976"/>
<polygon fill="midnightblue" stroke="midnightblue" points="235.707,-89.3862 238.593,-79.1922 229.98,-85.361 235.707,-89.3862"/>
</g>
<!-- Node13 -->
<g id="node13" class="node"><title>Node13</title>
<g id="a_node13"><a xlink:href="_cinder_8h.html" target="_top" xlink:title="cinder/Cinder.h">
<polygon fill="white" stroke="black" points="109.367,-59 109.367,-79 192.633,-79 192.633,-59 109.367,-59"/>
<text text-anchor="middle" x="151" y="-65" font-family="Helvetica,sans-Serif" font-size="10.00">cinder/Cinder.h</text>
</a>
</g>
</g>
<!-- Node12&#45;&gt;Node13 -->
<g id="edge12" class="edge"><title>Node12&#45;&gt;Node13</title>
<path fill="none" stroke="midnightblue" d="M256.475,-116.878C235.974,-107.766 204.239,-93.6617 180.931,-83.3028"/>
<polygon fill="midnightblue" stroke="midnightblue" points="182.075,-79.9812 171.516,-79.1181 179.232,-86.3779 182.075,-79.9812"/>
</g>
<!-- Node12&#45;&gt;Node7 -->
<g id="edge16" class="edge"><title>Node12&#45;&gt;Node7</title>
<path fill="none" stroke="midnightblue" d="M314.533,-116.94C359.79,-106.016 435.047,-87.8507 477.448,-77.6161"/>
<polygon fill="midnightblue" stroke="midnightblue" points="478.331,-81.0035 487.23,-75.2548 476.688,-74.199 478.331,-81.0035"/>
</g>
<!-- Node12&#45;&gt;Node17 -->
<g id="edge17" class="edge"><title>Node12&#45;&gt;Node17</title>
<path fill="none" stroke="midnightblue" d="M271.881,-116.753C267.547,-108.924 261.21,-97.4761 255.891,-87.8679"/>
<polygon fill="midnightblue" stroke="midnightblue" points="258.929,-86.129 251.024,-79.0752 252.805,-89.5193 258.929,-86.129"/>
</g>
<!-- Node14 -->
<g id="node14" class="node"><title>Node14</title>
<polygon fill="white" stroke="#bfbfbf" points="40.5493,-1 40.5493,-21 85.4507,-21 85.4507,-1 40.5493,-1"/>
<text text-anchor="middle" x="63" y="-7" font-family="Helvetica,sans-Serif" font-size="10.00">cstdint</text>
</g>
<!-- Node13&#45;&gt;Node14 -->
<g id="edge13" class="edge"><title>Node13&#45;&gt;Node14</title>
<path fill="none" stroke="midnightblue" d="M136.469,-58.7527C122.757,-50.0272 101.979,-36.8051 86.0148,-26.6458"/>
<polygon fill="midnightblue" stroke="midnightblue" points="87.5767,-23.4912 77.261,-21.0752 83.8186,-29.3968 87.5767,-23.4912"/>
</g>
<!-- Node15 -->
<g id="node15" class="node"><title>Node15</title>
<polygon fill="white" stroke="#bfbfbf" points="103.53,-1 103.53,-21 198.47,-21 198.47,-1 103.53,-1"/>
<text text-anchor="middle" x="151" y="-7" font-family="Helvetica,sans-Serif" font-size="10.00">boost/version.hpp</text>
</g>
<!-- Node13&#45;&gt;Node15 -->
<g id="edge14" class="edge"><title>Node13&#45;&gt;Node15</title>
<path fill="none" stroke="midnightblue" d="M151,-58.7527C151,-51.2504 151,-40.4238 151,-31.0781"/>
<polygon fill="midnightblue" stroke="midnightblue" points="154.5,-31.0752 151,-21.0752 147.5,-31.0752 154.5,-31.0752"/>
</g>
<!-- Node16 -->
<g id="node16" class="node"><title>Node16</title>
<polygon fill="white" stroke="#bfbfbf" points="216.621,-1 216.621,-21 349.379,-21 349.379,-1 216.621,-1"/>
<text text-anchor="middle" x="283" y="-7" font-family="Helvetica,sans-Serif" font-size="10.00">boost/checked_delete.hpp</text>
</g>
<!-- Node13&#45;&gt;Node16 -->
<g id="edge15" class="edge"><title>Node13&#45;&gt;Node16</title>
<path fill="none" stroke="midnightblue" d="M172.502,-58.878C194.172,-49.6848 227.821,-35.4095 252.295,-25.0263"/>
<polygon fill="midnightblue" stroke="midnightblue" points="253.668,-28.2457 261.507,-21.1181 250.935,-21.8016 253.668,-28.2457"/>
</g>
<!-- Node23&#45;&gt;Node13 -->
<g id="edge26" class="edge"><title>Node23&#45;&gt;Node13</title>
<path fill="none" stroke="midnightblue" d="M135.86,-232.753C138.378,-205.688 145.77,-126.224 149.206,-89.2864"/>
<polygon fill="midnightblue" stroke="midnightblue" points="152.694,-89.5744 150.136,-79.2932 145.724,-88.926 152.694,-89.5744"/>
</g>
<!-- Node24 -->
<g id="node24" class="node"><title>Node24</title>
<polygon fill="white" stroke="#bfbfbf" points="-0.578613,-175 -0.578613,-195 106.579,-195 106.579,-175 -0.578613,-175"/>
<text text-anchor="middle" x="53" y="-181" font-family="Helvetica,sans-Serif" font-size="10.00">boost/filesystem.hpp</text>
</g>
<!-- Node23&#45;&gt;Node24 -->
<g id="edge27" class="edge"><title>Node23&#45;&gt;Node24</title>
<path fill="none" stroke="midnightblue" d="M121.459,-232.753C108.802,-224.109 89.683,-211.052 74.8638,-200.931"/>
<polygon fill="midnightblue" stroke="midnightblue" points="76.5206,-197.825 66.2887,-195.075 72.5728,-203.605 76.5206,-197.825"/>
</g>
</g>
</svg>
        <g id="navigator" transform="translate(0 0)" fill="#404254">
                <rect fill="#f2f5e9" fill-opacity="0.5" stroke="#606060" stroke-width=".5" x="0" y="0" width="60" height="60"/>
                <use id="zoomplus" xlink:href="#zoomPlus" x="17" y="9" onmousedown="handleZoom(evt,'in')"/>
                <use id="zoomminus" xlink:href="#zoomMin" x="42" y="9" onmousedown="handleZoom(evt,'out')"/>
                <use id="reset" xlink:href="#resetDef" x="30" y="36" onmousedown="handleReset()"/>
                <g id="arrowUp" xlink:href="#dirArrow" transform="translate(30 24)" onmousedown="handlePan(0,-1)">
                  <use xlink:href="#rim" fill="#404040">
                        <set attributeName="fill" to="#808080" begin="arrowUp.mouseover" end="arrowUp.mouseout"/>
                  </use>
                  <path fill="none" stroke="white" stroke-width="1.5" d="M0,-3.0v7 M-2.5,-0.5L0,-3.0L2.5,-0.5"/>
                </g>
                <g id="arrowRight" xlink:href="#dirArrow" transform="rotate(90) translate(36 -43)" onmousedown="handlePan(1,0)">
                  <use xlink:href="#rim" fill="#404040">
                        <set attributeName="fill" to="#808080" begin="arrowRight.mouseover" end="arrowRight.mouseout"/>
                  </use>
                  <path fill="none" stroke="white" stroke-width="1.5" d="M0,-3.0v7 M-2.5,-0.5L0,-3.0L2.5,-0.5"/>
                </g>
                <g id="arrowDown" xlink:href="#dirArrow" transform="rotate(180) translate(-30 -48)" onmousedown="handlePan(0,1)">
                  <use xlink:href="#rim" fill="#404040">
                        <set attributeName="fill" to="#808080" begin="arrowDown.mouseover" end="arrowDown.mouseout"/>
                  </use>
                  <path fill="none" stroke="white" stroke-width="1.5" d="M0,-3.0v7 M-2.5,-0.5L0,-3.0L2.5,-0.5"/>
                </g>
                <g id="arrowLeft" xlink:href="#dirArrow" transform="rotate(270) translate(-36 17)" onmousedown="handlePan(-1,0)">
                  <use xlink:href="#rim" fill="#404040">
                        <set attributeName="fill" to="#808080" begin="arrowLeft.mouseover" end="arrowLeft.mouseout"/>
                  </use>
                  <path fill="none" stroke="white" stroke-width="1.5" d="M0,-3.0v7 M-2.5,-0.5L0,-3.0L2.5,-0.5"/>
                </g>
        </g>
        <svg viewBox="0 0 15 15" width="100%" height="30px" preserveAspectRatio="xMaxYMin meet">
         <g id="arrow_out" transform="scale(0.3 0.3)">
          <a xlink:href="_sample_recorder_node_8h__incl_org.svg" target="_base">
           <rect id="button" ry="5" rx="5" y="6" x="6" height="38" width="38"
                fill="#f2f5e9" fill-opacity="0.5" stroke="#606060" stroke-width="1.0"/>
           <path id="arrow"
             d="M 11.500037,31.436501 C 11.940474,20.09759 22.043105,11.32322 32.158766,21.979434 L 37.068811,17.246167 C 37.068811,17.246167 37.088388,32 37.088388,32 L 22.160133,31.978069 C 22.160133,31.978069 26.997745,27.140456 26.997745,27.140456 C 18.528582,18.264221 13.291696,25.230495 11.500037,31.436501 z"
             style="fill:#404040;"/>
          </a>
         </g>
        </svg>
</svg>
