<?xml version="1.0" encoding="UTF-8" standalone="no"?>
<!DOCTYPE svg PUBLIC "-//W3C//DTD SVG 1.1//EN"
 "http://www.w3.org/Graphics/SVG/1.1/DTD/svg11.dtd">
<!-- Generated by graphviz version 2.30.1 (20140712.1814)
 -->
<!-- Title: include/cinder/Shape2d.h Pages: 1 -->
<svg width="806pt" height="436pt"
 viewBox="0.00 0.00 806.00 436.00" xmlns="http://www.w3.org/2000/svg" xmlns:xlink="http://www.w3.org/1999/xlink">
<g id="graph0" class="graph" transform="scale(1 1) rotate(0) translate(4 432)">
<title>include/cinder/Shape2d.h</title>
<polygon fill="white" stroke="white" points="-4,5 -4,-432 803,-432 803,5 -4,5"/>
<!-- Node1 -->
<g id="node1" class="node"><title>Node1</title>
<polygon fill="#bfbfbf" stroke="black" points="273.569,-407 273.569,-427 402.431,-427 402.431,-407 273.569,-407"/>
<text text-anchor="middle" x="338" y="-413" font-family="Helvetica,sans-Serif" font-size="10.00">include/cinder/Shape2d.h</text>
</g>
<!-- Node2 -->
<g id="node2" class="node"><title>Node2</title>
<g id="a_node2"><a xlink:href="_vector_8h.html" target="_top" xlink:title="cinder/Vector.h">
<polygon fill="white" stroke="black" points="212.919,-175 212.919,-195 295.081,-195 295.081,-175 212.919,-175"/>
<text text-anchor="middle" x="254" y="-181" font-family="Helvetica,sans-Serif" font-size="10.00">cinder/Vector.h</text>
</a>
</g>
</g>
<!-- Node1&#45;&gt;Node2 -->
<g id="edge1" class="edge"><title>Node1&#45;&gt;Node2</title>
<path fill="none" stroke="midnightblue" d="M302.694,-406.888C260.264,-393.819 191.035,-365.236 161,-312 136.718,-268.96 193.796,-223.521 228.945,-200.786"/>
<polygon fill="midnightblue" stroke="midnightblue" points="231.156,-203.53 237.769,-195.252 227.437,-197.6 231.156,-203.53"/>
</g>
<!-- Node16 -->
<g id="node16" class="node"><title>Node16</title>
<g id="a_node16"><a xlink:href="_rect_8h.html" target="_top" xlink:title="cinder/Rect.h">
<polygon fill="white" stroke="black" points="169.542,-291 169.542,-311 244.458,-311 244.458,-291 169.542,-291"/>
<text text-anchor="middle" x="207" y="-297" font-family="Helvetica,sans-Serif" font-size="10.00">cinder/Rect.h</text>
</a>
</g>
</g>
<!-- Node1&#45;&gt;Node16 -->
<g id="edge16" class="edge"><title>Node1&#45;&gt;Node16</title>
<path fill="none" stroke="midnightblue" d="M327.28,-406.671C304.907,-387.202 253.026,-342.053 225.279,-317.907"/>
<polygon fill="midnightblue" stroke="midnightblue" points="227.344,-315.064 217.502,-311.139 222.748,-320.344 227.344,-315.064"/>
</g>
<!-- Node20 -->
<g id="node20" class="node"><title>Node20</title>
<g id="a_node20"><a xlink:href="_path2d_8h.html" target="_top" xlink:title="cinder/Path2d.h">
<polygon fill="white" stroke="black" points="294.976,-349 294.976,-369 381.024,-369 381.024,-349 294.976,-349"/>
<text text-anchor="middle" x="338" y="-355" font-family="Helvetica,sans-Serif" font-size="10.00">cinder/Path2d.h</text>
</a>
</g>
</g>
<!-- Node1&#45;&gt;Node20 -->
<g id="edge25" class="edge"><title>Node1&#45;&gt;Node20</title>
<path fill="none" stroke="midnightblue" d="M338,-406.753C338,-399.25 338,-388.424 338,-379.078"/>
<polygon fill="midnightblue" stroke="midnightblue" points="341.5,-379.075 338,-369.075 334.5,-379.075 341.5,-379.075"/>
</g>
<!-- Node24 -->
<g id="node24" class="node"><title>Node24</title>
<g id="a_node24"><a xlink:href="_matrix_affine2_8h.html" target="_top" xlink:title="cinder/MatrixAffine2.h">
<polygon fill="white" stroke="black" points="465.646,-233 465.646,-253 578.354,-253 578.354,-233 465.646,-233"/>
<text text-anchor="middle" x="522" y="-239" font-family="Helvetica,sans-Serif" font-size="10.00">cinder/MatrixAffine2.h</text>
</a>
</g>
</g>
<!-- Node1&#45;&gt;Node24 -->
<g id="edge41" class="edge"><title>Node1&#45;&gt;Node24</title>
<path fill="none" stroke="midnightblue" d="M402.672,-409.55C431.317,-403.547 463.354,-392.032 485,-370 513.661,-340.829 520.323,-290.676 521.743,-263.267"/>
<polygon fill="midnightblue" stroke="midnightblue" points="525.249,-263.15 522.08,-253.04 518.253,-262.92 525.249,-263.15"/>
</g>
<!-- Node19 -->
<g id="node19" class="node"><title>Node19</title>
<polygon fill="white" stroke="#bfbfbf" points="346.384,-175 346.384,-195 389.616,-195 389.616,-175 346.384,-175"/>
<text text-anchor="middle" x="368" y="-181" font-family="Helvetica,sans-Serif" font-size="10.00">vector</text>
</g>
<!-- Node1&#45;&gt;Node19 -->
<g id="edge42" class="edge"><title>Node1&#45;&gt;Node19</title>
<path fill="none" stroke="midnightblue" d="M353.821,-406.927C366.085,-398.933 382.255,-386.07 390,-370 416.654,-314.697 412.576,-291.111 396,-232 393.139,-221.797 387.322,-211.611 381.729,-203.428"/>
<polygon fill="midnightblue" stroke="midnightblue" points="384.402,-201.155 375.677,-195.145 378.75,-205.284 384.402,-201.155"/>
</g>
<!-- Node3 -->
<g id="node3" class="node"><title>Node3</title>
<polygon fill="white" stroke="#bfbfbf" points="300.384,-59 300.384,-79 343.616,-79 343.616,-59 300.384,-59"/>
<text text-anchor="middle" x="322" y="-65" font-family="Helvetica,sans-Serif" font-size="10.00">cmath</text>
</g>
<!-- Node2&#45;&gt;Node3 -->
<g id="edge2" class="edge"><title>Node2&#45;&gt;Node3</title>
<path fill="none" stroke="midnightblue" d="M290.726,-174.942C309.865,-168.155 331.603,-156.719 343,-138 352.487,-122.417 344.044,-102.188 335.198,-87.8563"/>
<polygon fill="midnightblue" stroke="midnightblue" points="337.996,-85.7441 329.512,-79.3983 332.187,-89.6499 337.996,-85.7441"/>
</g>
<!-- Node4 -->
<g id="node4" class="node"><title>Node4</title>
<polygon fill="white" stroke="#bfbfbf" points="289.273,-117 289.273,-137 334.727,-137 334.727,-117 289.273,-117"/>
<text text-anchor="middle" x="312" y="-123" font-family="Helvetica,sans-Serif" font-size="10.00">cstring</text>
</g>
<!-- Node2&#45;&gt;Node4 -->
<g id="edge3" class="edge"><title>Node2&#45;&gt;Node4</title>
<path fill="none" stroke="midnightblue" d="M263.578,-174.753C272.192,-166.435 285.039,-154.031 295.336,-144.089"/>
<polygon fill="midnightblue" stroke="midnightblue" points="297.838,-146.539 302.601,-137.075 292.976,-141.503 297.838,-146.539"/>
</g>
<!-- Node5 -->
<g id="node5" class="node"><title>Node5</title>
<polygon fill="white" stroke="#bfbfbf" points="93.8276,-117 93.8276,-137 148.172,-137 148.172,-117 93.8276,-117"/>
<text text-anchor="middle" x="121" y="-123" font-family="Helvetica,sans-Serif" font-size="10.00">iostream</text>
</g>
<!-- Node2&#45;&gt;Node5 -->
<g id="edge4" class="edge"><title>Node2&#45;&gt;Node5</title>
<path fill="none" stroke="midnightblue" d="M232.335,-174.878C210.501,-165.685 176.597,-151.409 151.937,-141.026"/>
<polygon fill="midnightblue" stroke="midnightblue" points="153.23,-137.773 142.655,-137.118 150.514,-144.224 153.23,-137.773"/>
</g>
<!-- Node6 -->
<g id="node6" class="node"><title>Node6</title>
<polygon fill="white" stroke="#bfbfbf" points="165.884,-117 165.884,-137 214.116,-137 214.116,-117 165.884,-117"/>
<text text-anchor="middle" x="190" y="-123" font-family="Helvetica,sans-Serif" font-size="10.00">cassert</text>
</g>
<!-- Node2&#45;&gt;Node6 -->
<g id="edge5" class="edge"><title>Node2&#45;&gt;Node6</title>
<path fill="none" stroke="midnightblue" d="M243.432,-174.753C233.832,-166.353 219.471,-153.787 208.054,-143.798"/>
<polygon fill="midnightblue" stroke="midnightblue" points="210.202,-141.026 200.372,-137.075 205.593,-146.294 210.202,-141.026"/>
</g>
<!-- Node7 -->
<g id="node7" class="node"><title>Node7</title>
<polygon fill="white" stroke="#bfbfbf" points="232.613,-117 232.613,-137 271.387,-137 271.387,-117 232.613,-117"/>
<text text-anchor="middle" x="252" y="-123" font-family="Helvetica,sans-Serif" font-size="10.00">limits</text>
</g>
<!-- Node2&#45;&gt;Node7 -->
<g id="edge6" class="edge"><title>Node2&#45;&gt;Node7</title>
<path fill="none" stroke="midnightblue" d="M253.67,-174.753C253.402,-167.25 253.015,-156.424 252.681,-147.078"/>
<polygon fill="midnightblue" stroke="midnightblue" points="256.179,-146.944 252.324,-137.075 249.183,-147.194 256.179,-146.944"/>
</g>
<!-- Node8 -->
<g id="node8" class="node"><title>Node8</title>
<g id="a_node8"><a xlink:href="_cinder_math_8h.html" target="_top" xlink:title="cinder/CinderMath.h">
<polygon fill="white" stroke="black" points="390.978,-117 390.978,-137 497.022,-137 497.022,-117 390.978,-117"/>
<text text-anchor="middle" x="444" y="-123" font-family="Helvetica,sans-Serif" font-size="10.00">cinder/CinderMath.h</text>
</a>
</g>
</g>
<!-- Node2&#45;&gt;Node8 -->
<g id="edge7" class="edge"><title>Node2&#45;&gt;Node8</title>
<path fill="none" stroke="midnightblue" d="M284.95,-174.878C317.203,-165.372 367.893,-150.432 403.354,-139.98"/>
<polygon fill="midnightblue" stroke="midnightblue" points="404.776,-143.21 413.378,-137.025 402.797,-136.495 404.776,-143.21"/>
</g>
<!-- Node9 -->
<g id="node9" class="node"><title>Node9</title>
<g id="a_node9"><a xlink:href="_cinder_8h.html" target="_top" xlink:title="cinder/Cinder.h">
<polygon fill="white" stroke="black" points="558.367,-59 558.367,-79 641.633,-79 641.633,-59 558.367,-59"/>
<text text-anchor="middle" x="600" y="-65" font-family="Helvetica,sans-Serif" font-size="10.00">cinder/Cinder.h</text>
</a>
</g>
</g>
<!-- Node8&#45;&gt;Node9 -->
<g id="edge8" class="edge"><title>Node8&#45;&gt;Node9</title>
<path fill="none" stroke="midnightblue" d="M469.411,-116.878C495.438,-107.535 536.087,-92.943 565.117,-82.522"/>
<polygon fill="midnightblue" stroke="midnightblue" points="566.629,-85.6982 574.858,-79.0253 564.264,-79.1098 566.629,-85.6982"/>
</g>
<!-- Node8&#45;&gt;Node3 -->
<g id="edge12" class="edge"><title>Node8&#45;&gt;Node3</title>
<path fill="none" stroke="midnightblue" d="M424.127,-116.878C404.276,-107.766 373.549,-93.6617 350.981,-83.3028"/>
<polygon fill="midnightblue" stroke="midnightblue" points="352.413,-80.1089 341.864,-79.1181 349.493,-86.4707 352.413,-80.1089"/>
</g>
<!-- Node13 -->
<g id="node13" class="node"><title>Node13</title>
<polygon fill="white" stroke="#bfbfbf" points="362.113,-59 362.113,-79 405.887,-79 405.887,-59 362.113,-59"/>
<text text-anchor="middle" x="384" y="-65" font-family="Helvetica,sans-Serif" font-size="10.00">climits</text>
</g>
<!-- Node8&#45;&gt;Node13 -->
<g id="edge13" class="edge"><title>Node8&#45;&gt;Node13</title>
<path fill="none" stroke="midnightblue" d="M434.092,-116.753C425.18,-108.435 411.89,-96.031 401.238,-86.0893"/>
<polygon fill="midnightblue" stroke="midnightblue" points="403.422,-83.3397 393.723,-79.0752 398.646,-88.4571 403.422,-83.3397"/>
</g>
<!-- Node14 -->
<g id="node14" class="node"><title>Node14</title>
<polygon fill="white" stroke="#bfbfbf" points="424.049,-59 424.049,-79 463.951,-79 463.951,-59 424.049,-59"/>
<text text-anchor="middle" x="444" y="-65" font-family="Helvetica,sans-Serif" font-size="10.00">cfloat</text>
</g>
<!-- Node8&#45;&gt;Node14 -->
<g id="edge14" class="edge"><title>Node8&#45;&gt;Node14</title>
<path fill="none" stroke="midnightblue" d="M444,-116.753C444,-109.25 444,-98.4238 444,-89.0781"/>
<polygon fill="midnightblue" stroke="midnightblue" points="447.5,-89.0752 444,-79.0752 440.5,-89.0752 447.5,-89.0752"/>
</g>
<!-- Node15 -->
<g id="node15" class="node"><title>Node15</title>
<polygon fill="white" stroke="#bfbfbf" points="481.596,-59 481.596,-79 540.404,-79 540.404,-59 481.596,-59"/>
<text text-anchor="middle" x="511" y="-65" font-family="Helvetica,sans-Serif" font-size="10.00">functional</text>
</g>
<!-- Node8&#45;&gt;Node15 -->
<g id="edge15" class="edge"><title>Node8&#45;&gt;Node15</title>
<path fill="none" stroke="midnightblue" d="M455.064,-116.753C465.21,-108.272 480.44,-95.543 492.447,-85.5073"/>
<polygon fill="midnightblue" stroke="midnightblue" points="494.714,-88.1738 500.142,-79.0752 490.225,-82.8028 494.714,-88.1738"/>
</g>
<!-- Node10 -->
<g id="node10" class="node"><title>Node10</title>
<polygon fill="white" stroke="#bfbfbf" points="489.549,-1 489.549,-21 534.451,-21 534.451,-1 489.549,-1"/>
<text text-anchor="middle" x="512" y="-7" font-family="Helvetica,sans-Serif" font-size="10.00">cstdint</text>
</g>
<!-- Node9&#45;&gt;Node10 -->
<g id="edge9" class="edge"><title>Node9&#45;&gt;Node10</title>
<path fill="none" stroke="midnightblue" d="M585.469,-58.7527C571.757,-50.0272 550.979,-36.8051 535.015,-26.6458"/>
<polygon fill="midnightblue" stroke="midnightblue" points="536.577,-23.4912 526.261,-21.0752 532.819,-29.3968 536.577,-23.4912"/>
</g>
<!-- Node11 -->
<g id="node11" class="node"><title>Node11</title>
<polygon fill="white" stroke="#bfbfbf" points="552.53,-1 552.53,-21 647.47,-21 647.47,-1 552.53,-1"/>
<text text-anchor="middle" x="600" y="-7" font-family="Helvetica,sans-Serif" font-size="10.00">boost/version.hpp</text>
</g>
<!-- Node9&#45;&gt;Node11 -->
<g id="edge10" class="edge"><title>Node9&#45;&gt;Node11</title>
<path fill="none" stroke="midnightblue" d="M600,-58.7527C600,-51.2504 600,-40.4238 600,-31.0781"/>
<polygon fill="midnightblue" stroke="midnightblue" points="603.5,-31.0752 600,-21.0752 596.5,-31.0752 603.5,-31.0752"/>
</g>
<!-- Node12 -->
<g id="node12" class="node"><title>Node12</title>
<polygon fill="white" stroke="#bfbfbf" points="665.621,-1 665.621,-21 798.379,-21 798.379,-1 665.621,-1"/>
<text text-anchor="middle" x="732" y="-7" font-family="Helvetica,sans-Serif" font-size="10.00">boost/checked_delete.hpp</text>
</g>
<!-- Node9&#45;&gt;Node12 -->
<g id="edge11" class="edge"><title>Node9&#45;&gt;Node12</title>
<path fill="none" stroke="midnightblue" d="M621.502,-58.878C643.172,-49.6848 676.821,-35.4095 701.295,-25.0263"/>
<polygon fill="midnightblue" stroke="midnightblue" points="702.668,-28.2457 710.507,-21.1181 699.935,-21.8016 702.668,-28.2457"/>
</g>
<!-- Node16&#45;&gt;Node2 -->
<g id="edge17" class="edge"><title>Node16&#45;&gt;Node2</title>
<path fill="none" stroke="midnightblue" d="M204.104,-290.729C200.408,-277.183 195.453,-251.478 204,-232 209.48,-219.511 220.21,-208.92 230.329,-201.06"/>
<polygon fill="midnightblue" stroke="midnightblue" points="232.499,-203.81 238.557,-195.118 228.401,-198.135 232.499,-203.81"/>
</g>
<!-- Node17 -->
<g id="node17" class="node"><title>Node17</title>
<g id="a_node17"><a xlink:href="_area_8h.html" target="_top" xlink:title="cinder/Area.h">
<polygon fill="white" stroke="black" points="38.2612,-233 38.2612,-253 113.739,-253 113.739,-233 38.2612,-233"/>
<text text-anchor="middle" x="76" y="-239" font-family="Helvetica,sans-Serif" font-size="10.00">cinder/Area.h</text>
</a>
</g>
</g>
<!-- Node16&#45;&gt;Node17 -->
<g id="edge18" class="edge"><title>Node16&#45;&gt;Node17</title>
<path fill="none" stroke="midnightblue" d="M185.661,-290.878C164.251,-281.725 131.057,-267.536 106.795,-257.164"/>
<polygon fill="midnightblue" stroke="midnightblue" points="107.901,-253.831 97.3298,-253.118 105.149,-260.267 107.901,-253.831"/>
</g>
<!-- Node16&#45;&gt;Node19 -->
<g id="edge24" class="edge"><title>Node16&#45;&gt;Node19</title>
<path fill="none" stroke="midnightblue" d="M214.572,-290.68C226.358,-276.61 250.311,-249.714 275,-232 294.193,-218.229 318.127,-206.496 336.908,-198.326"/>
<polygon fill="midnightblue" stroke="midnightblue" points="338.365,-201.51 346.207,-194.387 335.634,-195.065 338.365,-201.51"/>
</g>
<!-- Node17&#45;&gt;Node9 -->
<g id="edge19" class="edge"><title>Node17&#45;&gt;Node9</title>
<path fill="none" stroke="midnightblue" d="M73.1558,-232.787C66.6012,-209.503 53.3074,-147.887 85,-116 119.815,-80.971 464.64,-86.3877 548.305,-79.6234"/>
<polygon fill="midnightblue" stroke="midnightblue" points="548.733,-83.0978 558.317,-78.5826 548.009,-76.1353 548.733,-83.0978"/>
</g>
<!-- Node17&#45;&gt;Node2 -->
<g id="edge20" class="edge"><title>Node17&#45;&gt;Node2</title>
<path fill="none" stroke="midnightblue" d="M104.995,-232.878C135.081,-223.413 182.292,-208.56 215.493,-198.115"/>
<polygon fill="midnightblue" stroke="midnightblue" points="216.824,-201.365 225.312,-195.025 214.723,-194.688 216.824,-201.365"/>
</g>
<!-- Node17&#45;&gt;Node5 -->
<g id="edge21" class="edge"><title>Node17&#45;&gt;Node5</title>
<path fill="none" stroke="midnightblue" d="M79.6825,-232.671C87.1028,-213.873 103.972,-171.136 113.706,-146.478"/>
<polygon fill="midnightblue" stroke="midnightblue" points="116.976,-147.726 117.392,-137.139 110.465,-145.156 116.976,-147.726"/>
</g>
<!-- Node18 -->
<g id="node18" class="node"><title>Node18</title>
<polygon fill="white" stroke="#bfbfbf" points="-0.391602,-175 -0.391602,-195 38.3916,-195 38.3916,-175 -0.391602,-175"/>
<text text-anchor="middle" x="19" y="-181" font-family="Helvetica,sans-Serif" font-size="10.00">utility</text>
</g>
<!-- Node17&#45;&gt;Node18 -->
<g id="edge22" class="edge"><title>Node17&#45;&gt;Node18</title>
<path fill="none" stroke="midnightblue" d="M66.5876,-232.753C58.1213,-224.435 45.4958,-212.031 35.3766,-202.089"/>
<polygon fill="midnightblue" stroke="midnightblue" points="37.8235,-199.587 28.2372,-195.075 32.9178,-204.58 37.8235,-199.587"/>
</g>
<!-- Node17&#45;&gt;Node19 -->
<g id="edge23" class="edge"><title>Node17&#45;&gt;Node19</title>
<path fill="none" stroke="midnightblue" d="M113.875,-234.736C171.886,-223.611 281.714,-202.548 335.989,-192.139"/>
<polygon fill="midnightblue" stroke="midnightblue" points="336.91,-195.526 346.072,-190.205 335.591,-188.652 336.91,-195.526"/>
</g>
<!-- Node20&#45;&gt;Node2 -->
<g id="edge26" class="edge"><title>Node20&#45;&gt;Node2</title>
<path fill="none" stroke="midnightblue" d="M331.464,-348.957C319.023,-331.404 291.691,-291.167 275,-254 267.811,-237.991 262.135,-218.815 258.506,-204.913"/>
<polygon fill="midnightblue" stroke="midnightblue" points="261.863,-203.911 256.045,-195.057 255.072,-205.607 261.863,-203.911"/>
</g>
<!-- Node21 -->
<g id="node21" class="node"><title>Node21</title>
<g id="a_node21"><a xlink:href="_b_spline_8h.html" target="_top" xlink:title="cinder/BSpline.h">
<polygon fill="white" stroke="black" points="283.589,-233 283.589,-253 372.411,-253 372.411,-233 283.589,-233"/>
<text text-anchor="middle" x="328" y="-239" font-family="Helvetica,sans-Serif" font-size="10.00">cinder/BSpline.h</text>
</a>
</g>
</g>
<!-- Node20&#45;&gt;Node21 -->
<g id="edge27" class="edge"><title>Node20&#45;&gt;Node21</title>
<path fill="none" stroke="midnightblue" d="M337.182,-348.671C335.547,-330.041 331.851,-287.898 329.679,-263.143"/>
<polygon fill="midnightblue" stroke="midnightblue" points="333.162,-262.795 328.802,-253.139 326.189,-263.407 333.162,-262.795"/>
</g>
<!-- Node20&#45;&gt;Node16 -->
<g id="edge30" class="edge"><title>Node20&#45;&gt;Node16</title>
<path fill="none" stroke="midnightblue" d="M316.661,-348.878C295.251,-339.725 262.057,-325.536 237.795,-315.164"/>
<polygon fill="midnightblue" stroke="midnightblue" points="238.901,-311.831 228.33,-311.118 236.149,-318.267 238.901,-311.831"/>
</g>
<!-- Node22 -->
<g id="node22" class="node"><title>Node22</title>
<g id="a_node22"><a xlink:href="_exception_8h.html" target="_top" xlink:title="cinder/Exception.h">
<polygon fill="white" stroke="black" points="595.865,-233 595.865,-253 694.135,-253 694.135,-233 595.865,-233"/>
<text text-anchor="middle" x="645" y="-239" font-family="Helvetica,sans-Serif" font-size="10.00">cinder/Exception.h</text>
</a>
</g>
</g>
<!-- Node20&#45;&gt;Node22 -->
<g id="edge31" class="edge"><title>Node20&#45;&gt;Node22</title>
<path fill="none" stroke="midnightblue" d="M362.346,-348.959C416.867,-328.714 548.866,-279.698 611.258,-256.53"/>
<polygon fill="midnightblue" stroke="midnightblue" points="612.495,-259.804 620.651,-253.042 610.058,-253.242 612.495,-259.804"/>
</g>
<!-- Node20&#45;&gt;Node24 -->
<g id="edge35" class="edge"><title>Node20&#45;&gt;Node24</title>
<path fill="none" stroke="midnightblue" d="M347.291,-348.683C361.683,-334.618 390.673,-307.728 419,-290 440.4,-276.607 466.364,-265.039 486.87,-256.853"/>
<polygon fill="midnightblue" stroke="midnightblue" points="488.411,-260.009 496.455,-253.113 485.866,-253.488 488.411,-260.009"/>
</g>
<!-- Node20&#45;&gt;Node19 -->
<g id="edge40" class="edge"><title>Node20&#45;&gt;Node19</title>
<path fill="none" stroke="midnightblue" d="M343.196,-348.925C352.945,-331.315 373.655,-290.986 381,-254 384.288,-237.442 380.055,-218.584 375.564,-204.934"/>
<polygon fill="midnightblue" stroke="midnightblue" points="378.749,-203.451 372.046,-195.247 372.17,-205.841 378.749,-203.451"/>
</g>
<!-- Node21&#45;&gt;Node19 -->
<g id="edge28" class="edge"><title>Node21&#45;&gt;Node19</title>
<path fill="none" stroke="midnightblue" d="M334.605,-232.753C340.313,-224.761 348.716,-212.998 355.664,-203.27"/>
<polygon fill="midnightblue" stroke="midnightblue" points="358.553,-205.247 361.518,-195.075 352.857,-201.178 358.553,-205.247"/>
</g>
<!-- Node21&#45;&gt;Node2 -->
<g id="edge29" class="edge"><title>Node21&#45;&gt;Node2</title>
<path fill="none" stroke="midnightblue" d="M315.78,-232.753C304.466,-224.19 287.429,-211.298 274.11,-201.219"/>
<polygon fill="midnightblue" stroke="midnightblue" points="276.078,-198.319 265.992,-195.075 271.854,-203.901 276.078,-198.319"/>
</g>
<!-- Node22&#45;&gt;Node9 -->
<g id="edge32" class="edge"><title>Node22&#45;&gt;Node9</title>
<path fill="none" stroke="midnightblue" d="M652.87,-232.919C663.055,-220.026 678.742,-195.581 672,-174 661.114,-139.152 634.002,-105.705 616.33,-86.5356"/>
<polygon fill="midnightblue" stroke="midnightblue" points="618.828,-84.0831 609.409,-79.232 613.747,-88.8981 618.828,-84.0831"/>
</g>
<!-- Node22&#45;&gt;Node19 -->
<g id="edge33" class="edge"><title>Node22&#45;&gt;Node19</title>
<path fill="none" stroke="midnightblue" d="M600.187,-232.94C543.982,-221.578 449.027,-202.381 399.771,-192.423"/>
<polygon fill="midnightblue" stroke="midnightblue" points="400.196,-188.938 389.701,-190.387 398.809,-195.799 400.196,-188.938"/>
</g>
<!-- Node23 -->
<g id="node23" class="node"><title>Node23</title>
<polygon fill="white" stroke="#bfbfbf" points="622.773,-175 622.773,-195 663.227,-195 663.227,-175 622.773,-175"/>
<text text-anchor="middle" x="643" y="-181" font-family="Helvetica,sans-Serif" font-size="10.00">string</text>
</g>
<!-- Node22&#45;&gt;Node23 -->
<g id="edge34" class="edge"><title>Node22&#45;&gt;Node23</title>
<path fill="none" stroke="midnightblue" d="M644.67,-232.753C644.402,-225.25 644.015,-214.424 643.681,-205.078"/>
<polygon fill="midnightblue" stroke="midnightblue" points="647.179,-204.944 643.324,-195.075 640.183,-205.194 647.179,-204.944"/>
</g>
<!-- Node24&#45;&gt;Node9 -->
<g id="edge36" class="edge"><title>Node24&#45;&gt;Node9</title>
<path fill="none" stroke="midnightblue" d="M524.468,-232.566C528.08,-219.254 535.33,-194.313 544,-174 557.352,-142.718 576.909,-108.316 589.027,-87.967"/>
<polygon fill="midnightblue" stroke="midnightblue" points="592.157,-89.5539 594.318,-79.1818 586.16,-85.9424 592.157,-89.5539"/>
</g>
<!-- Node24&#45;&gt;Node8 -->
<g id="edge37" class="edge"><title>Node24&#45;&gt;Node8</title>
<path fill="none" stroke="midnightblue" d="M515.617,-232.671C502.583,-213.621 472.728,-169.987 455.972,-145.497"/>
<polygon fill="midnightblue" stroke="midnightblue" points="458.789,-143.416 450.253,-137.139 453.012,-147.369 458.789,-143.416"/>
</g>
<!-- Node24&#45;&gt;Node2 -->
<g id="edge38" class="edge"><title>Node24&#45;&gt;Node2</title>
<path fill="none" stroke="midnightblue" d="M478.643,-232.94C431.244,-223.036 355.358,-207.179 305.099,-196.677"/>
<polygon fill="midnightblue" stroke="midnightblue" points="305.599,-193.206 295.094,-194.587 304.167,-200.058 305.599,-193.206"/>
</g>
<!-- Node25 -->
<g id="node25" class="node"><title>Node25</title>
<polygon fill="white" stroke="#bfbfbf" points="553.49,-175 553.49,-195 604.51,-195 604.51,-175 553.49,-175"/>
<text text-anchor="middle" x="579" y="-181" font-family="Helvetica,sans-Serif" font-size="10.00">iomanip</text>
</g>
<!-- Node24&#45;&gt;Node25 -->
<g id="edge39" class="edge"><title>Node24&#45;&gt;Node25</title>
<path fill="none" stroke="midnightblue" d="M531.412,-232.753C539.879,-224.435 552.504,-212.031 562.623,-202.089"/>
<polygon fill="midnightblue" stroke="midnightblue" points="565.082,-204.58 569.763,-195.075 560.176,-199.587 565.082,-204.58"/>
</g>
</g>
</svg>
