<?xml version="1.0" encoding="UTF-8" standalone="no"?>
<!DOCTYPE svg PUBLIC "-//W3C//DTD SVG 1.1//EN"
 "http://www.w3.org/Graphics/SVG/1.1/DTD/svg11.dtd">
<!-- Generated by graphviz version 2.30.1 (20140712.1814)
 -->
<!-- Title: include/cinder/audio/Source.h Pages: 1 -->
<!--zoomable 240 -->
<svg id="main" version="1.1" xmlns="http://www.w3.org/2000/svg" xmlns:xlink="http://www.w3.org/1999/xlink" xml:space="preserve" onload="init(evt)">
<style type="text/css"><![CDATA[
.edge:hover path { stroke: red; }
.edge:hover polygon { stroke: red; fill: red; }
]]></style>
<script type="text/javascript"><![CDATA[
var edges = document.getElementsByTagName('g');
if (edges && edges.length) {
  for (var i=0;i<edges.length;i++) {
    if (edges[i].id.substr(0,4)=='edge') {
      edges[i].setAttribute('class','edge');
    }
  }
}
]]></script>
        <defs>
                <circle id="rim" cx="0" cy="0" r="7"/>
                <circle id="rim2" cx="0" cy="0" r="3.5"/>
                <g id="zoomPlus">
                        <use xlink:href="#rim" fill="#404040">
                                <set attributeName="fill" to="#808080" begin="zoomplus.mouseover" end="zoomplus.mouseout"/>
                        </use>
                        <path d="M-4,0h8M0,-4v8" fill="none" stroke="white" stroke-width="1.5" pointer-events="none"/>
                </g>
                <g id="zoomMin">
                        <use xlink:href="#rim" fill="#404040">
                                <set attributeName="fill" to="#808080" begin="zoomminus.mouseover" end="zoomminus.mouseout"/>
                        </use>
                        <path d="M-4,0h8" fill="none" stroke="white" stroke-width="1.5" pointer-events="none"/>
                </g>
                <g id="dirArrow">
                        <path fill="none" stroke="white" stroke-width="1.5" d="M0,-3.0v7 M-2.5,-0.5L0,-3.0L2.5,-0.5"/>
                </g>
               <g id="resetDef">
                       <use xlink:href="#rim2" fill="#404040">
                               <set attributeName="fill" to="#808080" begin="reset.mouseover" end="reset.mouseout"/>
                       </use>
               </g>
        </defs>

<script type="text/javascript">
var viewWidth = 715;
var viewHeight = 240;
var sectionId = 'dynsection-1';
</script>
<script xlink:href="svgpan.js"/>
<svg id="graph" class="graph">
<g id="viewport">
<title>include/cinder/audio/Source.h</title>
<polygon fill="white" stroke="white" points="-4,5 -4,-236 712,-236 712,5 -4,5"/>
<!-- Node1 -->
<g id="node1" class="node"><title>Node1</title>
<polygon fill="#bfbfbf" stroke="black" points="297.525,-199 297.525,-231 402.475,-231 402.475,-199 297.525,-199"/>
<text text-anchor="start" x="305.525" y="-217" font-family="Helvetica,sans-Serif" font-size="10.00">include/cinder/audio</text>
<text text-anchor="middle" x="350" y="-205" font-family="Helvetica,sans-Serif" font-size="10.00">/Source.h</text>
</g>
<!-- Node2 -->
<g id="node2" class="node"><title>Node2</title>
<g id="a_node2"><a xlink:href="_file_core_audio_8h.html" target="_top" xlink:title="include/cinder/audio\l/cocoa/FileCoreAudio.h">
<polygon fill="white" stroke="black" points="41.0273,-129 41.0273,-161 160.973,-161 160.973,-129 41.0273,-129"/>
<text text-anchor="start" x="49.0273" y="-147" font-family="Helvetica,sans-Serif" font-size="10.00">include/cinder/audio</text>
<text text-anchor="middle" x="101" y="-135" font-family="Helvetica,sans-Serif" font-size="10.00">/cocoa/FileCoreAudio.h</text>
</a>
</g>
</g>
<!-- Node1&#45;&gt;Node2 -->
<g id="edge1" class="edge"><title>Node1&#45;&gt;Node2</title>
<path fill="none" stroke="midnightblue" d="M287.74,-196.997C247.262,-185.943 194.967,-171.662 156.018,-161.025"/>
<polygon fill="midnightblue" stroke="midnightblue" points="286.929,-200.404 297.498,-199.662 288.773,-193.651 286.929,-200.404"/>
</g>
<!-- Node4 -->
<g id="node4" class="node"><title>Node4</title>
<g id="a_node4"><a xlink:href="_file_ogg_vorbis_8h.html" target="_top" xlink:title="include/cinder/audio\l/FileOggVorbis.h">
<polygon fill="white" stroke="black" points="217.525,-129 217.525,-161 322.475,-161 322.475,-129 217.525,-129"/>
<text text-anchor="start" x="225.525" y="-147" font-family="Helvetica,sans-Serif" font-size="10.00">include/cinder/audio</text>
<text text-anchor="middle" x="270" y="-135" font-family="Helvetica,sans-Serif" font-size="10.00">/FileOggVorbis.h</text>
</a>
</g>
</g>
<!-- Node1&#45;&gt;Node4 -->
<g id="edge3" class="edge"><title>Node1&#45;&gt;Node4</title>
<path fill="none" stroke="midnightblue" d="M324.347,-192.195C312.392,-182.034 298.467,-170.197 287.705,-161.049"/>
<polygon fill="midnightblue" stroke="midnightblue" points="322.359,-195.099 332.245,-198.909 326.893,-189.765 322.359,-195.099"/>
</g>
<!-- Node7 -->
<g id="node7" class="node"><title>Node7</title>
<g id="a_node7"><a xlink:href="_sample_player_node_8h.html" target="_top" xlink:title="include/cinder/audio\l/SamplePlayerNode.h">
<polygon fill="white" stroke="black" points="429.362,-129 429.362,-161 542.638,-161 542.638,-129 429.362,-129"/>
<text text-anchor="start" x="437.362" y="-147" font-family="Helvetica,sans-Serif" font-size="10.00">include/cinder/audio</text>
<text text-anchor="middle" x="486" y="-135" font-family="Helvetica,sans-Serif" font-size="10.00">/SamplePlayerNode.h</text>
</a>
</g>
</g>
<!-- Node1&#45;&gt;Node7 -->
<g id="edge6" class="edge"><title>Node1&#45;&gt;Node7</title>
<path fill="none" stroke="midnightblue" d="M389.269,-194.366C410.491,-183.755 436.287,-170.857 455.902,-161.049"/>
<polygon fill="midnightblue" stroke="midnightblue" points="387.562,-191.306 380.183,-198.909 390.692,-197.567 387.562,-191.306"/>
</g>
<!-- Node8 -->
<g id="node8" class="node"><title>Node8</title>
<g id="a_node8"><a xlink:href="_voice_8h.html" target="_top" xlink:title="include/cinder/audio\l/Voice.h">
<polygon fill="white" stroke="black" points="433.525,-59 433.525,-91 538.475,-91 538.475,-59 433.525,-59"/>
<text text-anchor="start" x="441.525" y="-77" font-family="Helvetica,sans-Serif" font-size="10.00">include/cinder/audio</text>
<text text-anchor="middle" x="486" y="-65" font-family="Helvetica,sans-Serif" font-size="10.00">/Voice.h</text>
</a>
</g>
</g>
<!-- Node1&#45;&gt;Node8 -->
<g id="edge10" class="edge"><title>Node1&#45;&gt;Node8</title>
<path fill="none" stroke="midnightblue" d="M366.782,-190.647C380.226,-172.651 400.073,-147.613 420,-128 433.827,-114.391 451.101,-100.887 464.509,-91.0521"/>
<polygon fill="midnightblue" stroke="midnightblue" points="363.843,-188.736 360.725,-198.861 369.477,-192.89 363.843,-188.736"/>
</g>
<!-- Node6 -->
<g id="node6" class="node"><title>Node6</title>
<g id="a_node6"><a xlink:href="_source_8cpp.html" target="_top" xlink:title="src/cinder/audio/Source.cpp">
<polygon fill="white" stroke="black" points="276.022,-65 276.022,-85 415.978,-85 415.978,-65 276.022,-65"/>
<text text-anchor="middle" x="346" y="-71" font-family="Helvetica,sans-Serif" font-size="10.00">src/cinder/audio/Source.cpp</text>
</a>
</g>
</g>
<!-- Node1&#45;&gt;Node6 -->
<g id="edge11" class="edge"><title>Node1&#45;&gt;Node6</title>
<path fill="none" stroke="midnightblue" d="M349.272,-188.889C348.37,-157.754 346.876,-106.234 346.269,-85.2865"/>
<polygon fill="midnightblue" stroke="midnightblue" points="345.776,-189.075 349.564,-198.969 352.773,-188.872 345.776,-189.075"/>
</g>
<!-- Node3 -->
<g id="node3" class="node"><title>Node3</title>
<g id="a_node3"><a xlink:href="_file_core_audio_8cpp.html" target="_top" xlink:title="src/cinder/audio/cocoa\l/FileCoreAudio.cpp">
<polygon fill="white" stroke="black" points="-0.0268555,-59 -0.0268555,-91 116.027,-91 116.027,-59 -0.0268555,-59"/>
<text text-anchor="start" x="7.97314" y="-77" font-family="Helvetica,sans-Serif" font-size="10.00">src/cinder/audio/cocoa</text>
<text text-anchor="middle" x="58" y="-65" font-family="Helvetica,sans-Serif" font-size="10.00">/FileCoreAudio.cpp</text>
</a>
</g>
</g>
<!-- Node2&#45;&gt;Node3 -->
<g id="edge2" class="edge"><title>Node2&#45;&gt;Node3</title>
<path fill="none" stroke="midnightblue" d="M86.0894,-120.42C79.9279,-110.677 72.9672,-99.6691 67.5164,-91.0492"/>
<polygon fill="midnightblue" stroke="midnightblue" points="83.1541,-122.327 91.4569,-128.909 89.0704,-118.586 83.1541,-122.327"/>
</g>
<!-- Node5 -->
<g id="node5" class="node"><title>Node5</title>
<g id="a_node5"><a xlink:href="_file_ogg_vorbis_8cpp.html" target="_top" xlink:title="src/cinder/audio/FileOgg\lVorbis.cpp">
<polygon fill="white" stroke="black" points="133.808,-59 133.808,-91 258.192,-91 258.192,-59 133.808,-59"/>
<text text-anchor="start" x="141.808" y="-77" font-family="Helvetica,sans-Serif" font-size="10.00">src/cinder/audio/FileOgg</text>
<text text-anchor="middle" x="196" y="-65" font-family="Helvetica,sans-Serif" font-size="10.00">Vorbis.cpp</text>
</a>
</g>
</g>
<!-- Node4&#45;&gt;Node5 -->
<g id="edge4" class="edge"><title>Node4&#45;&gt;Node5</title>
<path fill="none" stroke="midnightblue" d="M245.952,-121.901C234.966,-111.806 222.236,-100.109 212.377,-91.0492"/>
<polygon fill="midnightblue" stroke="midnightblue" points="243.846,-124.719 253.577,-128.909 248.582,-119.565 243.846,-124.719"/>
</g>
<!-- Node4&#45;&gt;Node6 -->
<g id="edge5" class="edge"><title>Node4&#45;&gt;Node6</title>
<path fill="none" stroke="midnightblue" d="M294.334,-122.228C308.416,-109.628 325.387,-94.4436 335.937,-85.0035"/>
<polygon fill="midnightblue" stroke="midnightblue" points="291.986,-119.632 286.867,-128.909 296.653,-124.849 291.986,-119.632"/>
</g>
<!-- Node7&#45;&gt;Node8 -->
<g id="edge7" class="edge"><title>Node7&#45;&gt;Node8</title>
<path fill="none" stroke="midnightblue" d="M486,-118.617C486,-109.338 486,-99.1413 486,-91.0492"/>
<polygon fill="midnightblue" stroke="midnightblue" points="482.5,-118.909 486,-128.909 489.5,-118.909 482.5,-118.909"/>
</g>
<!-- Node10 -->
<g id="node10" class="node"><title>Node10</title>
<g id="a_node10"><a xlink:href="_sample_player_node_8cpp.html" target="_top" xlink:title="src/cinder/audio/SamplePlayer\lNode.cpp">
<polygon fill="white" stroke="black" points="556.19,-59 556.19,-91 707.81,-91 707.81,-59 556.19,-59"/>
<text text-anchor="start" x="564.19" y="-77" font-family="Helvetica,sans-Serif" font-size="10.00">src/cinder/audio/SamplePlayer</text>
<text text-anchor="middle" x="632" y="-65" font-family="Helvetica,sans-Serif" font-size="10.00">Node.cpp</text>
</a>
</g>
</g>
<!-- Node7&#45;&gt;Node10 -->
<g id="edge9" class="edge"><title>Node7&#45;&gt;Node10</title>
<path fill="none" stroke="midnightblue" d="M527.544,-124.651C550.441,-113.986 578.443,-100.944 599.688,-91.0492"/>
<polygon fill="midnightblue" stroke="midnightblue" points="525.989,-121.514 518.402,-128.909 528.945,-127.859 525.989,-121.514"/>
</g>
<!-- Node9 -->
<g id="node9" class="node"><title>Node9</title>
<g id="a_node9"><a xlink:href="_voice_8cpp.html" target="_top" xlink:title="src/cinder/audio/Voice.cpp">
<polygon fill="white" stroke="black" points="419.631,-1 419.631,-21 552.369,-21 552.369,-1 419.631,-1"/>
<text text-anchor="middle" x="486" y="-7" font-family="Helvetica,sans-Serif" font-size="10.00">src/cinder/audio/Voice.cpp</text>
</a>
</g>
</g>
<!-- Node8&#45;&gt;Node9 -->
<g id="edge8" class="edge"><title>Node8&#45;&gt;Node9</title>
<path fill="none" stroke="midnightblue" d="M486,-48.922C486,-39.1719 486,-28.6099 486,-21.2904"/>
<polygon fill="midnightblue" stroke="midnightblue" points="482.5,-48.9915 486,-58.9915 489.5,-48.9916 482.5,-48.9915"/>
</g>
</g>
</svg>
        <g id="navigator" transform="translate(0 0)" fill="#404254">
                <rect fill="#f2f5e9" fill-opacity="0.5" stroke="#606060" stroke-width=".5" x="0" y="0" width="60" height="60"/>
                <use id="zoomplus" xlink:href="#zoomPlus" x="17" y="9" onmousedown="handleZoom(evt,'in')"/>
                <use id="zoomminus" xlink:href="#zoomMin" x="42" y="9" onmousedown="handleZoom(evt,'out')"/>
                <use id="reset" xlink:href="#resetDef" x="30" y="36" onmousedown="handleReset()"/>
                <g id="arrowUp" xlink:href="#dirArrow" transform="translate(30 24)" onmousedown="handlePan(0,-1)">
                  <use xlink:href="#rim" fill="#404040">
                        <set attributeName="fill" to="#808080" begin="arrowUp.mouseover" end="arrowUp.mouseout"/>
                  </use>
                  <path fill="none" stroke="white" stroke-width="1.5" d="M0,-3.0v7 M-2.5,-0.5L0,-3.0L2.5,-0.5"/>
                </g>
                <g id="arrowRight" xlink:href="#dirArrow" transform="rotate(90) translate(36 -43)" onmousedown="handlePan(1,0)">
                  <use xlink:href="#rim" fill="#404040">
                        <set attributeName="fill" to="#808080" begin="arrowRight.mouseover" end="arrowRight.mouseout"/>
                  </use>
                  <path fill="none" stroke="white" stroke-width="1.5" d="M0,-3.0v7 M-2.5,-0.5L0,-3.0L2.5,-0.5"/>
                </g>
                <g id="arrowDown" xlink:href="#dirArrow" transform="rotate(180) translate(-30 -48)" onmousedown="handlePan(0,1)">
                  <use xlink:href="#rim" fill="#404040">
                        <set attributeName="fill" to="#808080" begin="arrowDown.mouseover" end="arrowDown.mouseout"/>
                  </use>
                  <path fill="none" stroke="white" stroke-width="1.5" d="M0,-3.0v7 M-2.5,-0.5L0,-3.0L2.5,-0.5"/>
                </g>
                <g id="arrowLeft" xlink:href="#dirArrow" transform="rotate(270) translate(-36 17)" onmousedown="handlePan(-1,0)">
                  <use xlink:href="#rim" fill="#404040">
                        <set attributeName="fill" to="#808080" begin="arrowLeft.mouseover" end="arrowLeft.mouseout"/>
                  </use>
                  <path fill="none" stroke="white" stroke-width="1.5" d="M0,-3.0v7 M-2.5,-0.5L0,-3.0L2.5,-0.5"/>
                </g>
        </g>
        <svg viewBox="0 0 15 15" width="100%" height="30px" preserveAspectRatio="xMaxYMin meet">
         <g id="arrow_out" transform="scale(0.3 0.3)">
          <a xlink:href="_source_8h__dep__incl_org.svg" target="_base">
           <rect id="button" ry="5" rx="5" y="6" x="6" height="38" width="38"
                fill="#f2f5e9" fill-opacity="0.5" stroke="#606060" stroke-width="1.0"/>
           <path id="arrow"
             d="M 11.500037,31.436501 C 11.940474,20.09759 22.043105,11.32322 32.158766,21.979434 L 37.068811,17.246167 C 37.068811,17.246167 37.088388,32 37.088388,32 L 22.160133,31.978069 C 22.160133,31.978069 26.997745,27.140456 26.997745,27.140456 C 18.528582,18.264221 13.291696,25.230495 11.500037,31.436501 z"
             style="fill:#404040;"/>
          </a>
         </g>
        </svg>
</svg>
