<?xml version="1.0" encoding="UTF-8" standalone="no"?>
<!DOCTYPE svg PUBLIC "-//W3C//DTD SVG 1.1//EN"
 "http://www.w3.org/Graphics/SVG/1.1/DTD/svg11.dtd">
<!-- Generated by graphviz version 2.30.1 (20140712.1814)
 -->
<!-- Title: include/cinder/Sphere.h Pages: 1 -->
<svg width="638pt" height="146pt"
 viewBox="0.00 0.00 638.00 146.00" xmlns="http://www.w3.org/2000/svg" xmlns:xlink="http://www.w3.org/1999/xlink">
<g id="graph0" class="graph" transform="scale(1 1) rotate(0) translate(4 142)">
<title>include/cinder/Sphere.h</title>
<polygon fill="white" stroke="white" points="-4,5 -4,-142 635,-142 635,5 -4,5"/>
<!-- Node1 -->
<g id="node1" class="node"><title>Node1</title>
<polygon fill="#bfbfbf" stroke="black" points="269.466,-117 269.466,-137 390.534,-137 390.534,-117 269.466,-117"/>
<text text-anchor="middle" x="330" y="-123" font-family="Helvetica,sans-Serif" font-size="10.00">include/cinder/Sphere.h</text>
</g>
<!-- Node2 -->
<g id="node2" class="node"><title>Node2</title>
<g id="a_node2"><a xlink:href="_frustum_8h.html" target="_top" xlink:title="include/cinder/Frustum.h">
<polygon fill="white" stroke="black" points="-0.746094,-59 -0.746094,-79 124.746,-79 124.746,-59 -0.746094,-59"/>
<text text-anchor="middle" x="62" y="-65" font-family="Helvetica,sans-Serif" font-size="10.00">include/cinder/Frustum.h</text>
</a>
</g>
</g>
<!-- Node1&#45;&gt;Node2 -->
<g id="edge1" class="edge"><title>Node1&#45;&gt;Node2</title>
<path fill="none" stroke="midnightblue" d="M276.613,-114.845C226.341,-104.34 151.977,-88.8011 105.294,-79.0466"/>
<polygon fill="midnightblue" stroke="midnightblue" points="276.139,-118.321 286.643,-116.94 277.571,-111.469 276.139,-118.321"/>
</g>
<!-- Node4 -->
<g id="node4" class="node"><title>Node4</title>
<g id="a_node4"><a xlink:href="_camera_8cpp.html" target="_top" xlink:title="src/cinder/Camera.cpp">
<polygon fill="white" stroke="black" points="142.705,-59 142.705,-79 259.295,-79 259.295,-59 142.705,-59"/>
<text text-anchor="middle" x="201" y="-65" font-family="Helvetica,sans-Serif" font-size="10.00">src/cinder/Camera.cpp</text>
</a>
</g>
</g>
<!-- Node1&#45;&gt;Node4 -->
<g id="edge3" class="edge"><title>Node1&#45;&gt;Node4</title>
<path fill="none" stroke="midnightblue" d="M299.665,-112.831C275.771,-102.459 243.084,-88.2692 222.004,-79.1181"/>
<polygon fill="midnightblue" stroke="midnightblue" points="298.42,-116.106 308.987,-116.878 301.208,-109.685 298.42,-116.106"/>
</g>
<!-- Node5 -->
<g id="node5" class="node"><title>Node5</title>
<g id="a_node5"><a xlink:href="dx_8cpp.html" target="_top" xlink:title="src/cinder/dx/dx.cpp">
<polygon fill="white" stroke="black" points="277.537,-59 277.537,-79 382.463,-79 382.463,-59 277.537,-59"/>
<text text-anchor="middle" x="330" y="-65" font-family="Helvetica,sans-Serif" font-size="10.00">src/cinder/dx/dx.cpp</text>
</a>
</g>
</g>
<!-- Node1&#45;&gt;Node5 -->
<g id="edge4" class="edge"><title>Node1&#45;&gt;Node5</title>
<path fill="none" stroke="midnightblue" d="M330,-106.707C330,-97.3384 330,-86.5262 330,-79.0752"/>
<polygon fill="midnightblue" stroke="midnightblue" points="326.5,-106.753 330,-116.753 333.5,-106.753 326.5,-106.753"/>
</g>
<!-- Node6 -->
<g id="node6" class="node"><title>Node6</title>
<g id="a_node6"><a xlink:href="gl_8cpp.html" target="_top" xlink:title="src/cinder/gl/gl.cpp">
<polygon fill="white" stroke="black" points="400.315,-59 400.315,-79 499.685,-79 499.685,-59 400.315,-59"/>
<text text-anchor="middle" x="450" y="-65" font-family="Helvetica,sans-Serif" font-size="10.00">src/cinder/gl/gl.cpp</text>
</a>
</g>
</g>
<!-- Node1&#45;&gt;Node6 -->
<g id="edge5" class="edge"><title>Node1&#45;&gt;Node6</title>
<path fill="none" stroke="midnightblue" d="M358.813,-112.554C380.985,-102.207 411.026,-88.1879 430.461,-79.1181"/>
<polygon fill="midnightblue" stroke="midnightblue" points="357.129,-109.477 349.547,-116.878 360.089,-115.821 357.129,-109.477"/>
</g>
<!-- Node7 -->
<g id="node7" class="node"><title>Node7</title>
<g id="a_node7"><a xlink:href="_sphere_8cpp.html" target="_top" xlink:title="src/cinder/Sphere.cpp">
<polygon fill="white" stroke="black" points="517.365,-59 517.365,-79 630.635,-79 630.635,-59 517.365,-59"/>
<text text-anchor="middle" x="574" y="-65" font-family="Helvetica,sans-Serif" font-size="10.00">src/cinder/Sphere.cpp</text>
</a>
</g>
</g>
<!-- Node1&#45;&gt;Node7 -->
<g id="edge6" class="edge"><title>Node1&#45;&gt;Node7</title>
<path fill="none" stroke="midnightblue" d="M379.469,-114.647C425.223,-104.145 492.347,-88.74 534.583,-79.0466"/>
<polygon fill="midnightblue" stroke="midnightblue" points="378.438,-111.292 369.474,-116.94 380.004,-118.115 378.438,-111.292"/>
</g>
<!-- Node3 -->
<g id="node3" class="node"><title>Node3</title>
<g id="a_node3"><a xlink:href="_frustum_8cpp.html" target="_top" xlink:title="src/cinder/Frustum.cpp">
<polygon fill="white" stroke="black" points="3.15283,-1 3.15283,-21 120.847,-21 120.847,-1 3.15283,-1"/>
<text text-anchor="middle" x="62" y="-7" font-family="Helvetica,sans-Serif" font-size="10.00">src/cinder/Frustum.cpp</text>
</a>
</g>
</g>
<!-- Node2&#45;&gt;Node3 -->
<g id="edge2" class="edge"><title>Node2&#45;&gt;Node3</title>
<path fill="none" stroke="midnightblue" d="M62,-48.7065C62,-39.3384 62,-28.5262 62,-21.0752"/>
<polygon fill="midnightblue" stroke="midnightblue" points="58.5001,-48.7527 62,-58.7527 65.5001,-48.7528 58.5001,-48.7527"/>
</g>
</g>
</svg>
