<?xml version="1.0" encoding="UTF-8" standalone="no"?>
<!DOCTYPE svg PUBLIC "-//W3C//DTD SVG 1.1//EN"
 "http://www.w3.org/Graphics/SVG/1.1/DTD/svg11.dtd">
<!-- Generated by graphviz version 2.30.1 (20140712.1814)
 -->
<!-- Title: src/cinder/Surface.cpp Pages: 1 -->
<!--zoomable 506 -->
<svg id="main" version="1.1" xmlns="http://www.w3.org/2000/svg" xmlns:xlink="http://www.w3.org/1999/xlink" xml:space="preserve" onload="init(evt)">
<style type="text/css"><![CDATA[
.edge:hover path { stroke: red; }
.edge:hover polygon { stroke: red; fill: red; }
]]></style>
<script type="text/javascript"><![CDATA[
var edges = document.getElementsByTagName('g');
if (edges && edges.length) {
  for (var i=0;i<edges.length;i++) {
    if (edges[i].id.substr(0,4)=='edge') {
      edges[i].setAttribute('class','edge');
    }
  }
}
]]></script>
        <defs>
                <circle id="rim" cx="0" cy="0" r="7"/>
                <circle id="rim2" cx="0" cy="0" r="3.5"/>
                <g id="zoomPlus">
                        <use xlink:href="#rim" fill="#404040">
                                <set attributeName="fill" to="#808080" begin="zoomplus.mouseover" end="zoomplus.mouseout"/>
                        </use>
                        <path d="M-4,0h8M0,-4v8" fill="none" stroke="white" stroke-width="1.5" pointer-events="none"/>
                </g>
                <g id="zoomMin">
                        <use xlink:href="#rim" fill="#404040">
                                <set attributeName="fill" to="#808080" begin="zoomminus.mouseover" end="zoomminus.mouseout"/>
                        </use>
                        <path d="M-4,0h8" fill="none" stroke="white" stroke-width="1.5" pointer-events="none"/>
                </g>
                <g id="dirArrow">
                        <path fill="none" stroke="white" stroke-width="1.5" d="M0,-3.0v7 M-2.5,-0.5L0,-3.0L2.5,-0.5"/>
                </g>
               <g id="resetDef">
                       <use xlink:href="#rim2" fill="#404040">
                               <set attributeName="fill" to="#808080" begin="reset.mouseover" end="reset.mouseout"/>
                       </use>
               </g>
        </defs>

<script type="text/javascript">
var viewWidth = 1737;
var viewHeight = 506;
var sectionId = 'dynsection-0';
</script>
<script xlink:href="svgpan.js"/>
<svg id="graph" class="graph">
<g id="viewport">
<title>src/cinder/Surface.cpp</title>
<polygon fill="white" stroke="white" points="-4,5 -4,-502 1734,-502 1734,5 -4,5"/>
<!-- Node1 -->
<g id="node1" class="node"><title>Node1</title>
<polygon fill="#bfbfbf" stroke="black" points="1193.26,-477 1193.26,-497 1308.74,-497 1308.74,-477 1193.26,-477"/>
<text text-anchor="middle" x="1251" y="-483" font-family="Helvetica,sans-Serif" font-size="10.00">src/cinder/Surface.cpp</text>
</g>
<!-- Node2 -->
<g id="node2" class="node"><title>Node2</title>
<g id="a_node2"><a xlink:href="_surface_8h.html" target="_top" xlink:title="cinder/Surface.h">
<polygon fill="white" stroke="black" points="1118.59,-349 1118.59,-369 1207.41,-369 1207.41,-349 1118.59,-349"/>
<text text-anchor="middle" x="1163" y="-355" font-family="Helvetica,sans-Serif" font-size="10.00">cinder/Surface.h</text>
</a>
</g>
</g>
<!-- Node1&#45;&gt;Node2 -->
<g id="edge1" class="edge"><title>Node1&#45;&gt;Node2</title>
<path fill="none" stroke="midnightblue" d="M1239.23,-476.726C1228.77,-468.048 1213.55,-454.308 1203,-440 1188.81,-420.746 1177.21,-395.7 1170.23,-378.802"/>
<polygon fill="midnightblue" stroke="midnightblue" points="1173.46,-377.444 1166.49,-369.458 1166.96,-380.043 1173.46,-377.444"/>
</g>
<!-- Node26 -->
<g id="node26" class="node"><title>Node26</title>
<g id="a_node26"><a xlink:href="_image_io_8h.html" target="_top" xlink:title="cinder/ImageIo.h">
<polygon fill="white" stroke="black" points="754.756,-413 754.756,-433 845.244,-433 845.244,-413 754.756,-413"/>
<text text-anchor="middle" x="800" y="-419" font-family="Helvetica,sans-Serif" font-size="10.00">cinder/ImageIo.h</text>
</a>
</g>
</g>
<!-- Node1&#45;&gt;Node26 -->
<g id="edge37" class="edge"><title>Node1&#45;&gt;Node26</title>
<path fill="none" stroke="midnightblue" d="M1192.96,-478.022C1105.63,-466.016 941.536,-443.457 855.637,-431.649"/>
<polygon fill="midnightblue" stroke="midnightblue" points="855.943,-428.158 845.56,-430.263 854.99,-435.093 855.943,-428.158"/>
</g>
<!-- Node38 -->
<g id="node38" class="node"><title>Node38</title>
<g id="a_node38"><a xlink:href="_fill_8h.html" target="_top" xlink:title="cinder/ip/Fill.h">
<polygon fill="white" stroke="black" points="1212.16,-413 1212.16,-433 1289.84,-433 1289.84,-413 1212.16,-413"/>
<text text-anchor="middle" x="1251" y="-419" font-family="Helvetica,sans-Serif" font-size="10.00">cinder/ip/Fill.h</text>
</a>
</g>
</g>
<!-- Node1&#45;&gt;Node38 -->
<g id="edge70" class="edge"><title>Node1&#45;&gt;Node38</title>
<path fill="none" stroke="midnightblue" d="M1251,-476.852C1251,-468.06 1251,-454.498 1251,-443.313"/>
<polygon fill="midnightblue" stroke="midnightblue" points="1254.5,-443.186 1251,-433.186 1247.5,-443.186 1254.5,-443.186"/>
</g>
<!-- Node39 -->
<g id="node39" class="node"><title>Node39</title>
<polygon fill="white" stroke="#bfbfbf" points="1308.2,-407 1308.2,-439 1409.8,-439 1409.8,-407 1308.2,-407"/>
<text text-anchor="start" x="1316.2" y="-425" font-family="Helvetica,sans-Serif" font-size="10.00">boost/preprocessor</text>
<text text-anchor="middle" x="1359" y="-413" font-family="Helvetica,sans-Serif" font-size="10.00">/seq.hpp</text>
</g>
<!-- Node1&#45;&gt;Node39 -->
<g id="edge75" class="edge"><title>Node1&#45;&gt;Node39</title>
<path fill="none" stroke="midnightblue" d="M1266.94,-476.852C1281.83,-468.302 1304.58,-455.242 1323.74,-444.243"/>
<polygon fill="midnightblue" stroke="midnightblue" points="1325.59,-447.213 1332.52,-439.199 1322.11,-441.142 1325.59,-447.213"/>
</g>
<!-- Node40 -->
<g id="node40" class="node"><title>Node40</title>
<polygon fill="white" stroke="#bfbfbf" points="1427.31,-407 1427.31,-439 1526.69,-439 1526.69,-407 1427.31,-407"/>
<text text-anchor="start" x="1435.31" y="-425" font-family="Helvetica,sans-Serif" font-size="10.00">boost/type_traits/is</text>
<text text-anchor="middle" x="1477" y="-413" font-family="Helvetica,sans-Serif" font-size="10.00">_same.hpp</text>
</g>
<!-- Node1&#45;&gt;Node40 -->
<g id="edge76" class="edge"><title>Node1&#45;&gt;Node40</title>
<path fill="none" stroke="midnightblue" d="M1283.86,-476.985C1318.73,-467.419 1374.57,-452.1 1417.26,-440.388"/>
<polygon fill="midnightblue" stroke="midnightblue" points="1418.26,-443.743 1426.98,-437.722 1416.41,-436.992 1418.26,-443.743"/>
</g>
<!-- Node3 -->
<g id="node3" class="node"><title>Node3</title>
<g id="a_node3"><a xlink:href="_cinder_8h.html" target="_top" xlink:title="cinder/Cinder.h">
<polygon fill="white" stroke="black" points="963.367,-59 963.367,-79 1046.63,-79 1046.63,-59 963.367,-59"/>
<text text-anchor="middle" x="1005" y="-65" font-family="Helvetica,sans-Serif" font-size="10.00">cinder/Cinder.h</text>
</a>
</g>
</g>
<!-- Node2&#45;&gt;Node3 -->
<g id="edge2" class="edge"><title>Node2&#45;&gt;Node3</title>
<path fill="none" stroke="midnightblue" d="M1158.91,-348.954C1144.14,-316.544 1091.6,-203.506 1038,-116 1031.98,-106.171 1024.55,-95.6951 1018.27,-87.2268"/>
<polygon fill="midnightblue" stroke="midnightblue" points="1021.06,-85.1139 1012.24,-79.2401 1015.47,-89.3306 1021.06,-85.1139"/>
</g>
<!-- Node7 -->
<g id="node7" class="node"><title>Node7</title>
<g id="a_node7"><a xlink:href="_area_8h.html" target="_top" xlink:title="cinder/Area.h">
<polygon fill="white" stroke="black" points="1220.26,-233 1220.26,-253 1295.74,-253 1295.74,-233 1220.26,-233"/>
<text text-anchor="middle" x="1258" y="-239" font-family="Helvetica,sans-Serif" font-size="10.00">cinder/Area.h</text>
</a>
</g>
</g>
<!-- Node2&#45;&gt;Node7 -->
<g id="edge6" class="edge"><title>Node2&#45;&gt;Node7</title>
<path fill="none" stroke="midnightblue" d="M1167.81,-348.641C1175.07,-334.986 1189.7,-309.145 1206,-290 1215.52,-278.814 1227.76,-267.853 1237.98,-259.438"/>
<polygon fill="midnightblue" stroke="midnightblue" points="1240.37,-262.008 1245.97,-253.019 1235.98,-256.549 1240.37,-262.008"/>
</g>
<!-- Node20 -->
<g id="node20" class="node"><title>Node20</title>
<g id="a_node20"><a xlink:href="_channel_8h.html" target="_top" xlink:title="cinder/Channel.h">
<polygon fill="white" stroke="black" points="1286.2,-291 1286.2,-311 1377.8,-311 1377.8,-291 1286.2,-291"/>
<text text-anchor="middle" x="1332" y="-297" font-family="Helvetica,sans-Serif" font-size="10.00">cinder/Channel.h</text>
</a>
</g>
</g>
<!-- Node2&#45;&gt;Node20 -->
<g id="edge23" class="edge"><title>Node2&#45;&gt;Node20</title>
<path fill="none" stroke="midnightblue" d="M1190.53,-348.878C1218.97,-339.453 1263.53,-324.688 1295.03,-314.25"/>
<polygon fill="midnightblue" stroke="midnightblue" points="1296.37,-317.493 1304.76,-311.025 1294.17,-310.848 1296.37,-317.493"/>
</g>
<!-- Node21 -->
<g id="node21" class="node"><title>Node21</title>
<g id="a_node21"><a xlink:href="_chan_traits_8h.html" target="_top" xlink:title="cinder/ChanTraits.h">
<polygon fill="white" stroke="black" points="1127.55,-175 1127.55,-195 1230.45,-195 1230.45,-175 1127.55,-175"/>
<text text-anchor="middle" x="1179" y="-181" font-family="Helvetica,sans-Serif" font-size="10.00">cinder/ChanTraits.h</text>
</a>
</g>
</g>
<!-- Node2&#45;&gt;Node21 -->
<g id="edge26" class="edge"><title>Node2&#45;&gt;Node21</title>
<path fill="none" stroke="midnightblue" d="M1163.86,-348.753C1166.38,-321.688 1173.77,-242.224 1177.21,-205.286"/>
<polygon fill="midnightblue" stroke="midnightblue" points="1180.69,-205.574 1178.14,-195.293 1173.72,-204.926 1180.69,-205.574"/>
</g>
<!-- Node22 -->
<g id="node22" class="node"><title>Node22</title>
<g id="a_node22"><a xlink:href="_color_8h.html" target="_top" xlink:title="cinder/Color.h">
<polygon fill="white" stroke="black" points="1347.15,-233 1347.15,-253 1424.85,-253 1424.85,-233 1347.15,-233"/>
<text text-anchor="middle" x="1386" y="-239" font-family="Helvetica,sans-Serif" font-size="10.00">cinder/Color.h</text>
</a>
</g>
</g>
<!-- Node2&#45;&gt;Node22 -->
<g id="edge28" class="edge"><title>Node2&#45;&gt;Node22</title>
<path fill="none" stroke="midnightblue" d="M1176.69,-348.987C1197.75,-335.32 1239.58,-308.942 1277,-290 1301.63,-277.531 1330.45,-265.475 1352.26,-256.835"/>
<polygon fill="midnightblue" stroke="midnightblue" points="1353.72,-260.023 1361.75,-253.116 1351.16,-253.506 1353.72,-260.023"/>
</g>
<!-- Node23 -->
<g id="node23" class="node"><title>Node23</title>
<g id="a_node23"><a xlink:href="_filesystem_8h.html" target="_top" xlink:title="cinder/Filesystem.h">
<polygon fill="white" stroke="black" points="719.931,-117 719.931,-137 822.069,-137 822.069,-117 719.931,-117"/>
<text text-anchor="middle" x="771" y="-123" font-family="Helvetica,sans-Serif" font-size="10.00">cinder/Filesystem.h</text>
</a>
</g>
</g>
<!-- Node2&#45;&gt;Node23 -->
<g id="edge33" class="edge"><title>Node2&#45;&gt;Node23</title>
<path fill="none" stroke="midnightblue" d="M1118.25,-355.369C1074.31,-351.169 1006.56,-340.271 955,-312 876.486,-268.952 809.252,-182.266 782.896,-145.319"/>
<polygon fill="midnightblue" stroke="midnightblue" points="785.704,-143.227 777.093,-137.054 779.975,-147.249 785.704,-143.227"/>
</g>
<!-- Node25 -->
<g id="node25" class="node"><title>Node25</title>
<polygon fill="white" stroke="#bfbfbf" points="964.357,-291 964.357,-311 1077.64,-311 1077.64,-291 964.357,-291"/>
<text text-anchor="middle" x="1021" y="-297" font-family="Helvetica,sans-Serif" font-size="10.00">boost/logic/tribool.hpp</text>
</g>
<!-- Node2&#45;&gt;Node25 -->
<g id="edge36" class="edge"><title>Node2&#45;&gt;Node25</title>
<path fill="none" stroke="midnightblue" d="M1139.87,-348.878C1116.45,-339.644 1080.04,-325.283 1053.68,-314.889"/>
<polygon fill="midnightblue" stroke="midnightblue" points="1054.71,-311.531 1044.12,-311.118 1052.14,-318.043 1054.71,-311.531"/>
</g>
<!-- Node4 -->
<g id="node4" class="node"><title>Node4</title>
<polygon fill="white" stroke="#bfbfbf" points="894.549,-1 894.549,-21 939.451,-21 939.451,-1 894.549,-1"/>
<text text-anchor="middle" x="917" y="-7" font-family="Helvetica,sans-Serif" font-size="10.00">cstdint</text>
</g>
<!-- Node3&#45;&gt;Node4 -->
<g id="edge3" class="edge"><title>Node3&#45;&gt;Node4</title>
<path fill="none" stroke="midnightblue" d="M990.469,-58.7527C976.757,-50.0272 955.979,-36.8051 940.015,-26.6458"/>
<polygon fill="midnightblue" stroke="midnightblue" points="941.577,-23.4912 931.261,-21.0752 937.819,-29.3968 941.577,-23.4912"/>
</g>
<!-- Node5 -->
<g id="node5" class="node"><title>Node5</title>
<polygon fill="white" stroke="#bfbfbf" points="957.53,-1 957.53,-21 1052.47,-21 1052.47,-1 957.53,-1"/>
<text text-anchor="middle" x="1005" y="-7" font-family="Helvetica,sans-Serif" font-size="10.00">boost/version.hpp</text>
</g>
<!-- Node3&#45;&gt;Node5 -->
<g id="edge4" class="edge"><title>Node3&#45;&gt;Node5</title>
<path fill="none" stroke="midnightblue" d="M1005,-58.7527C1005,-51.2504 1005,-40.4238 1005,-31.0781"/>
<polygon fill="midnightblue" stroke="midnightblue" points="1008.5,-31.0752 1005,-21.0752 1001.5,-31.0752 1008.5,-31.0752"/>
</g>
<!-- Node6 -->
<g id="node6" class="node"><title>Node6</title>
<polygon fill="white" stroke="#bfbfbf" points="1070.62,-1 1070.62,-21 1203.38,-21 1203.38,-1 1070.62,-1"/>
<text text-anchor="middle" x="1137" y="-7" font-family="Helvetica,sans-Serif" font-size="10.00">boost/checked_delete.hpp</text>
</g>
<!-- Node3&#45;&gt;Node6 -->
<g id="edge5" class="edge"><title>Node3&#45;&gt;Node6</title>
<path fill="none" stroke="midnightblue" d="M1026.5,-58.878C1048.17,-49.6848 1081.82,-35.4095 1106.3,-25.0263"/>
<polygon fill="midnightblue" stroke="midnightblue" points="1107.67,-28.2457 1115.51,-21.1181 1104.93,-21.8016 1107.67,-28.2457"/>
</g>
<!-- Node7&#45;&gt;Node3 -->
<g id="edge7" class="edge"><title>Node7&#45;&gt;Node3</title>
<path fill="none" stroke="midnightblue" d="M1257.56,-232.676C1256.45,-218.602 1252.58,-191.7 1239,-174 1223.6,-153.922 1164,-126.556 1141,-116 1110.64,-102.064 1074.78,-90.111 1047.52,-81.8846"/>
<polygon fill="midnightblue" stroke="midnightblue" points="1048.47,-78.516 1037.88,-79.0257 1046.48,-85.2266 1048.47,-78.516"/>
</g>
<!-- Node8 -->
<g id="node8" class="node"><title>Node8</title>
<g id="a_node8"><a xlink:href="_vector_8h.html" target="_top" xlink:title="cinder/Vector.h">
<polygon fill="white" stroke="black" points="1343.92,-175 1343.92,-195 1426.08,-195 1426.08,-175 1343.92,-175"/>
<text text-anchor="middle" x="1385" y="-181" font-family="Helvetica,sans-Serif" font-size="10.00">cinder/Vector.h</text>
</a>
</g>
</g>
<!-- Node7&#45;&gt;Node8 -->
<g id="edge8" class="edge"><title>Node7&#45;&gt;Node8</title>
<path fill="none" stroke="midnightblue" d="M1278.69,-232.878C1299.44,-223.725 1331.62,-209.536 1355.15,-199.164"/>
<polygon fill="midnightblue" stroke="midnightblue" points="1356.58,-202.355 1364.32,-195.118 1353.76,-195.95 1356.58,-202.355"/>
</g>
<!-- Node11 -->
<g id="node11" class="node"><title>Node11</title>
<polygon fill="white" stroke="#bfbfbf" points="1203.83,-117 1203.83,-137 1258.17,-137 1258.17,-117 1203.83,-117"/>
<text text-anchor="middle" x="1231" y="-123" font-family="Helvetica,sans-Serif" font-size="10.00">iostream</text>
</g>
<!-- Node7&#45;&gt;Node11 -->
<g id="edge20" class="edge"><title>Node7&#45;&gt;Node11</title>
<path fill="none" stroke="midnightblue" d="M1263.01,-232.94C1269.66,-219.656 1279.72,-194.274 1272,-174 1267.61,-162.485 1258.87,-152.019 1250.59,-143.99"/>
<polygon fill="midnightblue" stroke="midnightblue" points="1252.7,-141.187 1242.94,-137.084 1248.01,-146.383 1252.7,-141.187"/>
</g>
<!-- Node18 -->
<g id="node18" class="node"><title>Node18</title>
<polygon fill="white" stroke="#bfbfbf" points="995.608,-175 995.608,-195 1034.39,-195 1034.39,-175 995.608,-175"/>
<text text-anchor="middle" x="1015" y="-181" font-family="Helvetica,sans-Serif" font-size="10.00">utility</text>
</g>
<!-- Node7&#45;&gt;Node18 -->
<g id="edge21" class="edge"><title>Node7&#45;&gt;Node18</title>
<path fill="none" stroke="midnightblue" d="M1220.03,-233.25C1171.47,-222.058 1088.39,-202.913 1044.37,-192.769"/>
<polygon fill="midnightblue" stroke="midnightblue" points="1045.11,-189.347 1034.58,-190.512 1043.54,-196.168 1045.11,-189.347"/>
</g>
<!-- Node19 -->
<g id="node19" class="node"><title>Node19</title>
<polygon fill="white" stroke="#bfbfbf" points="93.3843,-59 93.3843,-79 136.616,-79 136.616,-59 93.3843,-59"/>
<text text-anchor="middle" x="115" y="-65" font-family="Helvetica,sans-Serif" font-size="10.00">vector</text>
</g>
<!-- Node7&#45;&gt;Node19 -->
<g id="edge22" class="edge"><title>Node7&#45;&gt;Node19</title>
<path fill="none" stroke="midnightblue" d="M1225.7,-232.961C1197.17,-224.588 1154.67,-211.168 1119,-196 1048.75,-166.128 1040.59,-136.304 967,-116 808.157,-72.1742 281.935,-69.7806 146.835,-69.9052"/>
<polygon fill="midnightblue" stroke="midnightblue" points="146.73,-66.4053 136.735,-69.9201 146.74,-73.4053 146.73,-66.4053"/>
</g>
<!-- Node9 -->
<g id="node9" class="node"><title>Node9</title>
<polygon fill="white" stroke="#bfbfbf" points="1489.38,-59 1489.38,-79 1532.62,-79 1532.62,-59 1489.38,-59"/>
<text text-anchor="middle" x="1511" y="-65" font-family="Helvetica,sans-Serif" font-size="10.00">cmath</text>
</g>
<!-- Node8&#45;&gt;Node9 -->
<g id="edge9" class="edge"><title>Node8&#45;&gt;Node9</title>
<path fill="none" stroke="midnightblue" d="M1401.27,-174.958C1415.87,-166.436 1437.49,-152.795 1454,-138 1471.29,-122.507 1487.98,-101.686 1498.78,-87.1819"/>
<polygon fill="midnightblue" stroke="midnightblue" points="1501.63,-89.2124 1504.7,-79.0711 1495.98,-85.0866 1501.63,-89.2124"/>
</g>
<!-- Node10 -->
<g id="node10" class="node"><title>Node10</title>
<polygon fill="white" stroke="#bfbfbf" points="1276.27,-117 1276.27,-137 1321.73,-137 1321.73,-117 1276.27,-117"/>
<text text-anchor="middle" x="1299" y="-123" font-family="Helvetica,sans-Serif" font-size="10.00">cstring</text>
</g>
<!-- Node8&#45;&gt;Node10 -->
<g id="edge10" class="edge"><title>Node8&#45;&gt;Node10</title>
<path fill="none" stroke="midnightblue" d="M1370.8,-174.753C1357.4,-166.027 1337.09,-152.805 1321.49,-142.646"/>
<polygon fill="midnightblue" stroke="midnightblue" points="1323.23,-139.599 1312.94,-137.075 1319.41,-145.465 1323.23,-139.599"/>
</g>
<!-- Node8&#45;&gt;Node11 -->
<g id="edge11" class="edge"><title>Node8&#45;&gt;Node11</title>
<path fill="none" stroke="midnightblue" d="M1359.91,-174.878C1334.22,-165.535 1294.09,-150.943 1265.44,-140.522"/>
<polygon fill="midnightblue" stroke="midnightblue" points="1266.41,-137.154 1255.82,-137.025 1264.02,-143.732 1266.41,-137.154"/>
</g>
<!-- Node12 -->
<g id="node12" class="node"><title>Node12</title>
<polygon fill="white" stroke="#bfbfbf" points="1339.88,-117 1339.88,-137 1388.12,-137 1388.12,-117 1339.88,-117"/>
<text text-anchor="middle" x="1364" y="-123" font-family="Helvetica,sans-Serif" font-size="10.00">cassert</text>
</g>
<!-- Node8&#45;&gt;Node12 -->
<g id="edge12" class="edge"><title>Node8&#45;&gt;Node12</title>
<path fill="none" stroke="midnightblue" d="M1381.53,-174.753C1378.66,-167.087 1374.48,-155.952 1370.93,-146.471"/>
<polygon fill="midnightblue" stroke="midnightblue" points="1374.19,-145.21 1367.4,-137.075 1367.64,-147.667 1374.19,-145.21"/>
</g>
<!-- Node13 -->
<g id="node13" class="node"><title>Node13</title>
<polygon fill="white" stroke="#bfbfbf" points="1406.61,-117 1406.61,-137 1445.39,-137 1445.39,-117 1406.61,-117"/>
<text text-anchor="middle" x="1426" y="-123" font-family="Helvetica,sans-Serif" font-size="10.00">limits</text>
</g>
<!-- Node8&#45;&gt;Node13 -->
<g id="edge13" class="edge"><title>Node8&#45;&gt;Node13</title>
<path fill="none" stroke="midnightblue" d="M1391.77,-174.753C1397.62,-166.761 1406.23,-154.998 1413.36,-145.27"/>
<polygon fill="midnightblue" stroke="midnightblue" points="1416.27,-147.211 1419.36,-137.075 1410.62,-143.076 1416.27,-147.211"/>
</g>
<!-- Node14 -->
<g id="node14" class="node"><title>Node14</title>
<g id="a_node14"><a xlink:href="_cinder_math_8h.html" target="_top" xlink:title="cinder/CinderMath.h">
<polygon fill="white" stroke="black" points="1576.98,-117 1576.98,-137 1683.02,-137 1683.02,-117 1576.98,-117"/>
<text text-anchor="middle" x="1630" y="-123" font-family="Helvetica,sans-Serif" font-size="10.00">cinder/CinderMath.h</text>
</a>
</g>
</g>
<!-- Node8&#45;&gt;Node14 -->
<g id="edge14" class="edge"><title>Node8&#45;&gt;Node14</title>
<path fill="none" stroke="midnightblue" d="M1424.64,-174.94C1467.07,-165.242 1534.47,-149.836 1580.39,-139.339"/>
<polygon fill="midnightblue" stroke="midnightblue" points="1581.45,-142.687 1590.42,-137.047 1579.89,-135.863 1581.45,-142.687"/>
</g>
<!-- Node14&#45;&gt;Node3 -->
<g id="edge15" class="edge"><title>Node14&#45;&gt;Node3</title>
<path fill="none" stroke="midnightblue" d="M1576.65,-117.713C1572.04,-117.095 1567.44,-116.514 1563,-116 1377.18,-94.4975 1155.41,-79.3289 1056.75,-73.1223"/>
<polygon fill="midnightblue" stroke="midnightblue" points="1056.94,-69.6276 1046.74,-72.4971 1056.5,-76.614 1056.94,-69.6276"/>
</g>
<!-- Node14&#45;&gt;Node9 -->
<g id="edge16" class="edge"><title>Node14&#45;&gt;Node9</title>
<path fill="none" stroke="midnightblue" d="M1610.62,-116.878C1591.34,-107.807 1561.55,-93.7876 1539.56,-83.4418"/>
<polygon fill="midnightblue" stroke="midnightblue" points="1540.91,-80.2093 1530.38,-79.1181 1537.93,-86.543 1540.91,-80.2093"/>
</g>
<!-- Node15 -->
<g id="node15" class="node"><title>Node15</title>
<polygon fill="white" stroke="#bfbfbf" points="1551.11,-59 1551.11,-79 1594.89,-79 1594.89,-59 1551.11,-59"/>
<text text-anchor="middle" x="1573" y="-65" font-family="Helvetica,sans-Serif" font-size="10.00">climits</text>
</g>
<!-- Node14&#45;&gt;Node15 -->
<g id="edge17" class="edge"><title>Node14&#45;&gt;Node15</title>
<path fill="none" stroke="midnightblue" d="M1620.59,-116.753C1612.12,-108.435 1599.5,-96.031 1589.38,-86.0893"/>
<polygon fill="midnightblue" stroke="midnightblue" points="1591.82,-83.5868 1582.24,-79.0752 1586.92,-88.5801 1591.82,-83.5868"/>
</g>
<!-- Node16 -->
<g id="node16" class="node"><title>Node16</title>
<polygon fill="white" stroke="#bfbfbf" points="1613.05,-59 1613.05,-79 1652.95,-79 1652.95,-59 1613.05,-59"/>
<text text-anchor="middle" x="1633" y="-65" font-family="Helvetica,sans-Serif" font-size="10.00">cfloat</text>
</g>
<!-- Node14&#45;&gt;Node16 -->
<g id="edge18" class="edge"><title>Node14&#45;&gt;Node16</title>
<path fill="none" stroke="midnightblue" d="M1630.5,-116.753C1630.9,-109.25 1631.48,-98.4238 1631.98,-89.0781"/>
<polygon fill="midnightblue" stroke="midnightblue" points="1635.47,-89.2481 1632.51,-79.0752 1628.48,-88.8736 1635.47,-89.2481"/>
</g>
<!-- Node17 -->
<g id="node17" class="node"><title>Node17</title>
<polygon fill="white" stroke="#bfbfbf" points="1670.6,-59 1670.6,-79 1729.4,-79 1729.4,-59 1670.6,-59"/>
<text text-anchor="middle" x="1700" y="-65" font-family="Helvetica,sans-Serif" font-size="10.00">functional</text>
</g>
<!-- Node14&#45;&gt;Node17 -->
<g id="edge19" class="edge"><title>Node14&#45;&gt;Node17</title>
<path fill="none" stroke="midnightblue" d="M1641.56,-116.753C1652.16,-108.272 1668.07,-95.543 1680.62,-85.5073"/>
<polygon fill="midnightblue" stroke="midnightblue" points="1683.03,-88.0552 1688.66,-79.0752 1678.66,-82.5891 1683.03,-88.0552"/>
</g>
<!-- Node20&#45;&gt;Node3 -->
<g id="edge24" class="edge"><title>Node20&#45;&gt;Node3</title>
<path fill="none" stroke="midnightblue" d="M1367.03,-290.934C1388.38,-283.88 1414.93,-272.174 1433,-254 1478.02,-208.711 1515.89,-163.311 1473,-116 1445.46,-85.6151 1172.83,-74.5892 1056.82,-71.2518"/>
<polygon fill="midnightblue" stroke="midnightblue" points="1056.85,-67.7513 1046.76,-70.9703 1056.65,-74.7486 1056.85,-67.7513"/>
</g>
<!-- Node20&#45;&gt;Node7 -->
<g id="edge25" class="edge"><title>Node20&#45;&gt;Node7</title>
<path fill="none" stroke="midnightblue" d="M1319.78,-290.753C1308.47,-282.19 1291.43,-269.298 1278.11,-259.219"/>
<polygon fill="midnightblue" stroke="midnightblue" points="1280.08,-256.319 1269.99,-253.075 1275.85,-261.901 1280.08,-256.319"/>
</g>
<!-- Node21&#45;&gt;Node3 -->
<g id="edge27" class="edge"><title>Node21&#45;&gt;Node3</title>
<path fill="none" stroke="midnightblue" d="M1172.34,-174.937C1161.49,-160.724 1138.74,-133.058 1114,-116 1092.88,-101.44 1066.43,-90.1396 1044.88,-82.3827"/>
<polygon fill="midnightblue" stroke="midnightblue" points="1045.95,-79.0497 1035.35,-79.0691 1043.65,-85.661 1045.95,-79.0497"/>
</g>
<!-- Node22&#45;&gt;Node3 -->
<g id="edge29" class="edge"><title>Node22&#45;&gt;Node3</title>
<path fill="none" stroke="midnightblue" d="M1397.88,-232.851C1425.24,-210.737 1487.81,-153.455 1454,-116 1427.81,-86.9879 1169.71,-75.2568 1057.1,-71.4926"/>
<polygon fill="midnightblue" stroke="midnightblue" points="1057.09,-67.9908 1046.99,-71.1631 1056.87,-74.9871 1057.09,-67.9908"/>
</g>
<!-- Node22&#45;&gt;Node21 -->
<g id="edge30" class="edge"><title>Node22&#45;&gt;Node21</title>
<path fill="none" stroke="midnightblue" d="M1352.28,-232.878C1316.84,-223.29 1260.97,-208.175 1222.29,-197.712"/>
<polygon fill="midnightblue" stroke="midnightblue" points="1222.93,-194.258 1212.36,-195.025 1221.1,-201.015 1222.93,-194.258"/>
</g>
<!-- Node22&#45;&gt;Node8 -->
<g id="edge31" class="edge"><title>Node22&#45;&gt;Node8</title>
<path fill="none" stroke="midnightblue" d="M1385.83,-232.753C1385.7,-225.25 1385.51,-214.424 1385.34,-205.078"/>
<polygon fill="midnightblue" stroke="midnightblue" points="1388.84,-205.011 1385.16,-195.075 1381.84,-205.136 1388.84,-205.011"/>
</g>
<!-- Node22&#45;&gt;Node14 -->
<g id="edge32" class="edge"><title>Node22&#45;&gt;Node14</title>
<path fill="none" stroke="midnightblue" d="M1406.17,-232.933C1426.59,-223.725 1459.05,-209.009 1487,-196 1527.08,-177.344 1573.24,-155.292 1602.02,-141.473"/>
<polygon fill="midnightblue" stroke="midnightblue" points="1603.58,-144.605 1611.08,-137.119 1600.55,-138.296 1603.58,-144.605"/>
</g>
<!-- Node23&#45;&gt;Node3 -->
<g id="edge34" class="edge"><title>Node23&#45;&gt;Node3</title>
<path fill="none" stroke="midnightblue" d="M808.856,-116.94C849.297,-107.262 913.486,-91.9007 957.341,-81.4056"/>
<polygon fill="midnightblue" stroke="midnightblue" points="958.287,-84.778 967.198,-79.0466 956.658,-77.9702 958.287,-84.778"/>
</g>
<!-- Node24 -->
<g id="node24" class="node"><title>Node24</title>
<polygon fill="white" stroke="#bfbfbf" points="717.421,-59 717.421,-79 824.579,-79 824.579,-59 717.421,-59"/>
<text text-anchor="middle" x="771" y="-65" font-family="Helvetica,sans-Serif" font-size="10.00">boost/filesystem.hpp</text>
</g>
<!-- Node23&#45;&gt;Node24 -->
<g id="edge35" class="edge"><title>Node23&#45;&gt;Node24</title>
<path fill="none" stroke="midnightblue" d="M771,-116.753C771,-109.25 771,-98.4238 771,-89.0781"/>
<polygon fill="midnightblue" stroke="midnightblue" points="774.5,-89.0752 771,-79.0752 767.5,-89.0752 774.5,-89.0752"/>
</g>
<!-- Node26&#45;&gt;Node3 -->
<g id="edge38" class="edge"><title>Node26&#45;&gt;Node3</title>
<path fill="none" stroke="midnightblue" d="M807.862,-412.915C836.696,-379.112 937.636,-256.456 989,-138 995.853,-122.196 1000.03,-102.997 1002.38,-89.0352"/>
<polygon fill="midnightblue" stroke="midnightblue" points="1005.85,-89.5402 1003.9,-79.1254 998.929,-88.4799 1005.85,-89.5402"/>
</g>
<!-- Node27 -->
<g id="node27" class="node"><title>Node27</title>
<g id="a_node27"><a xlink:href="_data_source_8h.html" target="_top" xlink:title="cinder/DataSource.h">
<polygon fill="white" stroke="black" points="724.419,-291 724.419,-311 831.581,-311 831.581,-291 724.419,-291"/>
<text text-anchor="middle" x="778" y="-297" font-family="Helvetica,sans-Serif" font-size="10.00">cinder/DataSource.h</text>
</a>
</g>
</g>
<!-- Node26&#45;&gt;Node27 -->
<g id="edge39" class="edge"><title>Node26&#45;&gt;Node27</title>
<path fill="none" stroke="midnightblue" d="M798.346,-412.98C794.779,-393.522 786.294,-347.242 781.484,-321.005"/>
<polygon fill="midnightblue" stroke="midnightblue" points="784.919,-320.329 779.673,-311.124 778.034,-321.591 784.919,-320.329"/>
</g>
<!-- Node36 -->
<g id="node36" class="node"><title>Node36</title>
<g id="a_node36"><a xlink:href="_data_target_8h.html" target="_top" xlink:title="cinder/DataTarget.h">
<polygon fill="white" stroke="black" points="553.365,-291 553.365,-311 656.635,-311 656.635,-291 553.365,-291"/>
<text text-anchor="middle" x="605" y="-297" font-family="Helvetica,sans-Serif" font-size="10.00">cinder/DataTarget.h</text>
</a>
</g>
</g>
<!-- Node26&#45;&gt;Node36 -->
<g id="edge60" class="edge"><title>Node26&#45;&gt;Node36</title>
<path fill="none" stroke="midnightblue" d="M795.203,-412.858C786.596,-397.314 767.065,-365.705 742,-348 718.753,-331.579 689.207,-320.679 663.509,-313.63"/>
<polygon fill="midnightblue" stroke="midnightblue" points="664.062,-310.158 653.503,-311.023 662.297,-316.932 664.062,-310.158"/>
</g>
<!-- Node26&#45;&gt;Node2 -->
<g id="edge65" class="edge"><title>Node26&#45;&gt;Node2</title>
<path fill="none" stroke="midnightblue" d="M845.607,-414.21C912.396,-402.803 1036.63,-381.584 1108.26,-369.35"/>
<polygon fill="midnightblue" stroke="midnightblue" points="1109.16,-372.746 1118.43,-367.612 1107.99,-365.846 1109.16,-372.746"/>
</g>
<!-- Node31 -->
<g id="node31" class="node"><title>Node31</title>
<g id="a_node31"><a xlink:href="_exception_8h.html" target="_top" xlink:title="cinder/Exception.h">
<polygon fill="white" stroke="black" points="65.8647,-117 65.8647,-137 164.135,-137 164.135,-117 65.8647,-117"/>
<text text-anchor="middle" x="115" y="-123" font-family="Helvetica,sans-Serif" font-size="10.00">cinder/Exception.h</text>
</a>
</g>
</g>
<!-- Node26&#45;&gt;Node31 -->
<g id="edge66" class="edge"><title>Node26&#45;&gt;Node31</title>
<path fill="none" stroke="midnightblue" d="M754.615,-419.677C590.571,-410.687 38,-374.988 38,-302 38,-302 38,-302 38,-242 38,-201.159 72.356,-164.015 95.1706,-143.85"/>
<polygon fill="midnightblue" stroke="midnightblue" points="97.6212,-146.361 102.969,-137.214 93.0847,-141.03 97.6212,-146.361"/>
</g>
<!-- Node26&#45;&gt;Node19 -->
<g id="edge67" class="edge"><title>Node26&#45;&gt;Node19</title>
<path fill="none" stroke="midnightblue" d="M754.676,-420.878C623.778,-417.259 247.005,-404.09 129,-370 66.7349,-352.013 0,-366.811 0,-302 0,-302 0,-302 0,-184 0,-136.076 50.995,-101.426 85.0689,-83.6233"/>
<polygon fill="midnightblue" stroke="midnightblue" points="86.808,-86.6666 94.1744,-79.0516 83.6671,-80.4108 86.808,-86.6666"/>
</g>
<!-- Node37 -->
<g id="node37" class="node"><title>Node37</title>
<polygon fill="white" stroke="#bfbfbf" points="698.273,-349 698.273,-369 733.727,-369 733.727,-349 698.273,-349"/>
<text text-anchor="middle" x="716" y="-355" font-family="Helvetica,sans-Serif" font-size="10.00">map</text>
</g>
<!-- Node26&#45;&gt;Node37 -->
<g id="edge68" class="edge"><title>Node26&#45;&gt;Node37</title>
<path fill="none" stroke="midnightblue" d="M787.606,-412.852C774.205,-402.961 752.625,-387.033 736.654,-375.244"/>
<polygon fill="midnightblue" stroke="midnightblue" points="738.57,-372.308 728.445,-369.186 734.413,-377.94 738.57,-372.308"/>
</g>
<!-- Node26&#45;&gt;Node18 -->
<g id="edge69" class="edge"><title>Node26&#45;&gt;Node18</title>
<path fill="none" stroke="midnightblue" d="M814.848,-412.875C830.283,-403.096 854.823,-386.712 874,-370 900.553,-346.86 962.091,-283.054 982,-254 992.64,-238.473 1001.72,-218.998 1007.64,-204.873"/>
<polygon fill="midnightblue" stroke="midnightblue" points="1011.02,-205.852 1011.53,-195.269 1004.53,-203.224 1011.02,-205.852"/>
</g>
<!-- Node27&#45;&gt;Node3 -->
<g id="edge40" class="edge"><title>Node27&#45;&gt;Node3</title>
<path fill="none" stroke="midnightblue" d="M791.925,-290.872C825.54,-268.292 912.379,-206.652 967,-138 979.196,-122.671 989.756,-102.92 996.627,-88.6577"/>
<polygon fill="midnightblue" stroke="midnightblue" points="999.897,-89.9268 1000.95,-79.3843 993.552,-86.9698 999.897,-89.9268"/>
</g>
<!-- Node28 -->
<g id="node28" class="node"><title>Node28</title>
<g id="a_node28"><a xlink:href="_url_8h.html" target="_top" xlink:title="cinder/Url.h">
<polygon fill="white" stroke="black" points="682.436,-233 682.436,-253 749.564,-253 749.564,-233 682.436,-233"/>
<text text-anchor="middle" x="716" y="-239" font-family="Helvetica,sans-Serif" font-size="10.00">cinder/Url.h</text>
</a>
</g>
</g>
<!-- Node27&#45;&gt;Node28 -->
<g id="edge41" class="edge"><title>Node27&#45;&gt;Node28</title>
<path fill="none" stroke="midnightblue" d="M767.762,-290.753C758.463,-282.353 744.55,-269.787 733.49,-259.798"/>
<polygon fill="midnightblue" stroke="midnightblue" points="735.815,-257.181 726.048,-253.075 731.123,-262.375 735.815,-257.181"/>
</g>
<!-- Node30 -->
<g id="node30" class="node"><title>Node30</title>
<g id="a_node30"><a xlink:href="_buffer_8h.html" target="_top" xlink:title="cinder/Buffer.h">
<polygon fill="white" stroke="black" points="877.844,-117 877.844,-137 958.156,-137 958.156,-117 877.844,-117"/>
<text text-anchor="middle" x="918" y="-123" font-family="Helvetica,sans-Serif" font-size="10.00">cinder/Buffer.h</text>
</a>
</g>
</g>
<!-- Node27&#45;&gt;Node30 -->
<g id="edge57" class="edge"><title>Node27&#45;&gt;Node30</title>
<path fill="none" stroke="midnightblue" d="M785.527,-290.753C807.936,-263.221 874.479,-181.469 903.826,-145.414"/>
<polygon fill="midnightblue" stroke="midnightblue" points="906.838,-147.258 910.436,-137.293 901.409,-142.839 906.838,-147.258"/>
</g>
<!-- Node29 -->
<g id="node29" class="node"><title>Node29</title>
<g id="a_node29"><a xlink:href="_stream_8h.html" target="_top" xlink:title="cinder/Stream.h">
<polygon fill="white" stroke="black" points="561.707,-175 561.707,-195 648.293,-195 648.293,-175 561.707,-175"/>
<text text-anchor="middle" x="605" y="-181" font-family="Helvetica,sans-Serif" font-size="10.00">cinder/Stream.h</text>
</a>
</g>
</g>
<!-- Node27&#45;&gt;Node29 -->
<g id="edge58" class="edge"><title>Node27&#45;&gt;Node29</title>
<path fill="none" stroke="midnightblue" d="M749.792,-290.896C727.773,-283.044 696.995,-270.386 673,-254 652.024,-239.675 631.963,-218.36 619.138,-203.422"/>
<polygon fill="midnightblue" stroke="midnightblue" points="621.576,-200.882 612.471,-195.465 616.21,-205.378 621.576,-200.882"/>
</g>
<!-- Node27&#45;&gt;Node23 -->
<g id="edge59" class="edge"><title>Node27&#45;&gt;Node23</title>
<path fill="none" stroke="midnightblue" d="M777.624,-290.753C776.522,-263.688 773.288,-184.224 771.785,-147.286"/>
<polygon fill="midnightblue" stroke="midnightblue" points="775.282,-147.143 771.378,-137.293 768.288,-147.427 775.282,-147.143"/>
</g>
<!-- Node28&#45;&gt;Node3 -->
<g id="edge42" class="edge"><title>Node28&#45;&gt;Node3</title>
<path fill="none" stroke="midnightblue" d="M724.78,-232.739C746.921,-209.872 807.651,-150.118 869,-116 896.428,-100.746 929.776,-89.3695 956.585,-81.746"/>
<polygon fill="midnightblue" stroke="midnightblue" points="957.804,-85.0405 966.514,-79.0078 955.943,-78.2925 957.804,-85.0405"/>
</g>
<!-- Node28&#45;&gt;Node29 -->
<g id="edge43" class="edge"><title>Node28&#45;&gt;Node29</title>
<path fill="none" stroke="midnightblue" d="M697.671,-232.753C679.81,-223.742 652.443,-209.935 632.074,-199.659"/>
<polygon fill="midnightblue" stroke="midnightblue" points="633.493,-196.455 622.988,-195.075 630.34,-202.704 633.493,-196.455"/>
</g>
<!-- Node28&#45;&gt;Node11 -->
<g id="edge56" class="edge"><title>Node28&#45;&gt;Node11</title>
<path fill="none" stroke="midnightblue" d="M749.226,-232.984C800.176,-219.313 900.77,-192.929 987,-174 1059.96,-157.984 1145.95,-142.573 1193.89,-134.287"/>
<polygon fill="midnightblue" stroke="midnightblue" points="1194.55,-137.726 1203.81,-132.581 1193.36,-130.827 1194.55,-137.726"/>
</g>
<!-- Node29&#45;&gt;Node3 -->
<g id="edge44" class="edge"><title>Node29&#45;&gt;Node3</title>
<path fill="none" stroke="midnightblue" d="M618.49,-174.902C644.748,-157.257 701.035,-119.783 711,-116 792.044,-85.2361 893.152,-75.0383 953.206,-71.6632"/>
<polygon fill="midnightblue" stroke="midnightblue" points="953.4,-75.1579 963.204,-71.1432 953.036,-68.1673 953.4,-75.1579"/>
</g>
<!-- Node29&#45;&gt;Node30 -->
<g id="edge45" class="edge"><title>Node29&#45;&gt;Node30</title>
<path fill="none" stroke="midnightblue" d="M648.521,-176.213C706.003,-165.929 807.027,-147.855 867.711,-136.997"/>
<polygon fill="midnightblue" stroke="midnightblue" points="868.594,-140.395 877.821,-135.189 867.361,-133.504 868.594,-140.395"/>
</g>
<!-- Node29&#45;&gt;Node31 -->
<g id="edge47" class="edge"><title>Node29&#45;&gt;Node31</title>
<path fill="none" stroke="midnightblue" d="M561.516,-179.03C473.518,-168.973 274.235,-146.198 174.372,-134.785"/>
<polygon fill="midnightblue" stroke="midnightblue" points="174.485,-131.276 164.152,-133.617 173.69,-138.23 174.485,-131.276"/>
</g>
<!-- Node29&#45;&gt;Node23 -->
<g id="edge51" class="edge"><title>Node29&#45;&gt;Node23</title>
<path fill="none" stroke="midnightblue" d="M632.04,-174.878C659.977,-165.453 703.747,-150.688 734.688,-140.25"/>
<polygon fill="midnightblue" stroke="midnightblue" points="735.89,-143.538 744.246,-137.025 733.652,-136.906 735.89,-143.538"/>
</g>
<!-- Node33 -->
<g id="node33" class="node"><title>Node33</title>
<polygon fill="white" stroke="#bfbfbf" points="220.291,-117 220.291,-137 339.709,-137 339.709,-117 220.291,-117"/>
<text text-anchor="middle" x="280" y="-123" font-family="Helvetica,sans-Serif" font-size="10.00">boost/noncopyable.hpp</text>
</g>
<!-- Node29&#45;&gt;Node33 -->
<g id="edge52" class="edge"><title>Node29&#45;&gt;Node33</title>
<path fill="none" stroke="midnightblue" d="M561.506,-176.506C505.191,-166.802 406.665,-149.825 342.384,-138.749"/>
<polygon fill="midnightblue" stroke="midnightblue" points="342.822,-135.273 332.373,-137.024 341.633,-142.172 342.822,-135.273"/>
</g>
<!-- Node32 -->
<g id="node32" class="node"><title>Node32</title>
<polygon fill="white" stroke="#bfbfbf" points="17.7734,-59 17.7734,-79 58.2266,-79 58.2266,-59 17.7734,-59"/>
<text text-anchor="middle" x="38" y="-65" font-family="Helvetica,sans-Serif" font-size="10.00">string</text>
</g>
<!-- Node29&#45;&gt;Node32 -->
<g id="edge53" class="edge"><title>Node29&#45;&gt;Node32</title>
<path fill="none" stroke="midnightblue" d="M561.581,-183.163C438.818,-180.409 95.5785,-169.908 57,-138 42.8626,-126.307 38.7616,-105.043 37.7938,-89.3962"/>
<polygon fill="midnightblue" stroke="midnightblue" points="41.2883,-89.1241 37.5441,-79.2129 34.2904,-89.2957 41.2883,-89.1241"/>
</g>
<!-- Node34 -->
<g id="node34" class="node"><title>Node34</title>
<polygon fill="white" stroke="#bfbfbf" points="357.574,-117 357.574,-137 506.426,-137 506.426,-117 357.574,-117"/>
<text text-anchor="middle" x="432" y="-123" font-family="Helvetica,sans-Serif" font-size="10.00">boost/iostreams/concepts.hpp</text>
</g>
<!-- Node29&#45;&gt;Node34 -->
<g id="edge54" class="edge"><title>Node29&#45;&gt;Node34</title>
<path fill="none" stroke="midnightblue" d="M576.82,-174.878C547.578,-165.413 501.694,-150.56 469.425,-140.115"/>
<polygon fill="midnightblue" stroke="midnightblue" points="470.474,-136.775 459.882,-137.025 468.318,-143.435 470.474,-136.775"/>
</g>
<!-- Node35 -->
<g id="node35" class="node"><title>Node35</title>
<polygon fill="white" stroke="#bfbfbf" points="524.306,-117 524.306,-137 663.694,-137 663.694,-117 524.306,-117"/>
<text text-anchor="middle" x="594" y="-123" font-family="Helvetica,sans-Serif" font-size="10.00">boost/iostreams/stream.hpp</text>
</g>
<!-- Node29&#45;&gt;Node35 -->
<g id="edge55" class="edge"><title>Node29&#45;&gt;Node35</title>
<path fill="none" stroke="midnightblue" d="M603.184,-174.753C601.71,-167.25 599.583,-156.424 597.747,-147.078"/>
<polygon fill="midnightblue" stroke="midnightblue" points="601.145,-146.213 595.783,-137.075 594.276,-147.562 601.145,-146.213"/>
</g>
<!-- Node30&#45;&gt;Node3 -->
<g id="edge46" class="edge"><title>Node30&#45;&gt;Node3</title>
<path fill="none" stroke="midnightblue" d="M932.366,-116.753C945.922,-108.027 966.464,-94.8051 982.247,-84.6458"/>
<polygon fill="midnightblue" stroke="midnightblue" points="984.387,-87.4307 990.901,-79.0752 980.598,-81.5447 984.387,-87.4307"/>
</g>
<!-- Node31&#45;&gt;Node3 -->
<g id="edge48" class="edge"><title>Node31&#45;&gt;Node3</title>
<path fill="none" stroke="midnightblue" d="M164.459,-117.659C169.029,-117.036 173.595,-116.469 178,-116 467.909,-85.1066 541.915,-96.461 833,-80 873.325,-77.7196 918.964,-75.0626 953.092,-73.0608"/>
<polygon fill="midnightblue" stroke="midnightblue" points="953.517,-76.542 963.295,-72.4618 953.107,-69.554 953.517,-76.542"/>
</g>
<!-- Node31&#45;&gt;Node19 -->
<g id="edge49" class="edge"><title>Node31&#45;&gt;Node19</title>
<path fill="none" stroke="midnightblue" d="M115,-116.753C115,-109.25 115,-98.4238 115,-89.0781"/>
<polygon fill="midnightblue" stroke="midnightblue" points="118.5,-89.0752 115,-79.0752 111.5,-89.0752 118.5,-89.0752"/>
</g>
<!-- Node31&#45;&gt;Node32 -->
<g id="edge50" class="edge"><title>Node31&#45;&gt;Node32</title>
<path fill="none" stroke="midnightblue" d="M102.285,-116.753C90.5117,-108.19 72.7844,-95.2978 58.9256,-85.2186"/>
<polygon fill="midnightblue" stroke="midnightblue" points="60.6244,-82.1264 50.4784,-79.0752 56.5072,-87.7875 60.6244,-82.1264"/>
</g>
<!-- Node36&#45;&gt;Node3 -->
<g id="edge61" class="edge"><title>Node36&#45;&gt;Node3</title>
<path fill="none" stroke="midnightblue" d="M553.094,-294.572C423.65,-279.202 104.386,-228.963 211,-116 234.758,-90.8275 798.445,-82.0045 833,-80 873.322,-77.661 918.961,-75.0073 953.089,-73.0216"/>
<polygon fill="midnightblue" stroke="midnightblue" points="953.513,-76.503 963.293,-72.4279 953.106,-69.5148 953.513,-76.503"/>
</g>
<!-- Node36&#45;&gt;Node28 -->
<g id="edge62" class="edge"><title>Node36&#45;&gt;Node28</title>
<path fill="none" stroke="midnightblue" d="M623.329,-290.753C641.19,-281.742 668.557,-267.935 688.926,-257.659"/>
<polygon fill="midnightblue" stroke="midnightblue" points="690.66,-260.704 698.012,-253.075 687.507,-254.455 690.66,-260.704"/>
</g>
<!-- Node36&#45;&gt;Node29 -->
<g id="edge63" class="edge"><title>Node36&#45;&gt;Node29</title>
<path fill="none" stroke="midnightblue" d="M605,-290.671C605,-272.041 605,-229.898 605,-205.143"/>
<polygon fill="midnightblue" stroke="midnightblue" points="608.5,-205.139 605,-195.139 601.5,-205.139 608.5,-205.139"/>
</g>
<!-- Node36&#45;&gt;Node32 -->
<g id="edge64" class="edge"><title>Node36&#45;&gt;Node32</title>
<path fill="none" stroke="midnightblue" d="M553.196,-298.201C486.202,-294.686 366.542,-284.343 269,-254 159.68,-219.993 99.7356,-235.049 39,-138 29.9159,-123.485 30.8037,-103.591 33.2802,-89.0719"/>
<polygon fill="midnightblue" stroke="midnightblue" points="36.7246,-89.6993 35.3448,-79.1947 29.8727,-88.267 36.7246,-89.6993"/>
</g>
<!-- Node38&#45;&gt;Node2 -->
<g id="edge71" class="edge"><title>Node38&#45;&gt;Node2</title>
<path fill="none" stroke="midnightblue" d="M1238.02,-412.852C1223.98,-402.961 1201.37,-387.033 1184.64,-375.244"/>
<polygon fill="midnightblue" stroke="midnightblue" points="1186.23,-372.084 1176.04,-369.186 1182.2,-377.807 1186.23,-372.084"/>
</g>
<!-- Node38&#45;&gt;Node20 -->
<g id="edge72" class="edge"><title>Node38&#45;&gt;Node20</title>
<path fill="none" stroke="midnightblue" d="M1257.09,-412.98C1270.46,-393.174 1302.58,-345.581 1320.11,-319.619"/>
<polygon fill="midnightblue" stroke="midnightblue" points="1323.15,-321.371 1325.84,-311.124 1317.35,-317.455 1323.15,-321.371"/>
</g>
<!-- Node38&#45;&gt;Node7 -->
<g id="edge73" class="edge"><title>Node38&#45;&gt;Node7</title>
<path fill="none" stroke="midnightblue" d="M1251.36,-412.928C1252.44,-385.321 1255.72,-301.88 1257.23,-263.589"/>
<polygon fill="midnightblue" stroke="midnightblue" points="1260.74,-263.397 1257.64,-253.267 1253.75,-263.122 1260.74,-263.397"/>
</g>
<!-- Node38&#45;&gt;Node22 -->
<g id="edge74" class="edge"><title>Node38&#45;&gt;Node22</title>
<path fill="none" stroke="midnightblue" d="M1270.85,-412.967C1302.18,-397.468 1362,-362.519 1386,-312 1393.2,-296.855 1392.41,-277.584 1390.28,-263.427"/>
<polygon fill="midnightblue" stroke="midnightblue" points="1393.67,-262.541 1388.41,-253.346 1386.79,-263.816 1393.67,-262.541"/>
</g>
</g>
</svg>
        <g id="navigator" transform="translate(0 0)" fill="#404254">
                <rect fill="#f2f5e9" fill-opacity="0.5" stroke="#606060" stroke-width=".5" x="0" y="0" width="60" height="60"/>
                <use id="zoomplus" xlink:href="#zoomPlus" x="17" y="9" onmousedown="handleZoom(evt,'in')"/>
                <use id="zoomminus" xlink:href="#zoomMin" x="42" y="9" onmousedown="handleZoom(evt,'out')"/>
                <use id="reset" xlink:href="#resetDef" x="30" y="36" onmousedown="handleReset()"/>
                <g id="arrowUp" xlink:href="#dirArrow" transform="translate(30 24)" onmousedown="handlePan(0,-1)">
                  <use xlink:href="#rim" fill="#404040">
                        <set attributeName="fill" to="#808080" begin="arrowUp.mouseover" end="arrowUp.mouseout"/>
                  </use>
                  <path fill="none" stroke="white" stroke-width="1.5" d="M0,-3.0v7 M-2.5,-0.5L0,-3.0L2.5,-0.5"/>
                </g>
                <g id="arrowRight" xlink:href="#dirArrow" transform="rotate(90) translate(36 -43)" onmousedown="handlePan(1,0)">
                  <use xlink:href="#rim" fill="#404040">
                        <set attributeName="fill" to="#808080" begin="arrowRight.mouseover" end="arrowRight.mouseout"/>
                  </use>
                  <path fill="none" stroke="white" stroke-width="1.5" d="M0,-3.0v7 M-2.5,-0.5L0,-3.0L2.5,-0.5"/>
                </g>
                <g id="arrowDown" xlink:href="#dirArrow" transform="rotate(180) translate(-30 -48)" onmousedown="handlePan(0,1)">
                  <use xlink:href="#rim" fill="#404040">
                        <set attributeName="fill" to="#808080" begin="arrowDown.mouseover" end="arrowDown.mouseout"/>
                  </use>
                  <path fill="none" stroke="white" stroke-width="1.5" d="M0,-3.0v7 M-2.5,-0.5L0,-3.0L2.5,-0.5"/>
                </g>
                <g id="arrowLeft" xlink:href="#dirArrow" transform="rotate(270) translate(-36 17)" onmousedown="handlePan(-1,0)">
                  <use xlink:href="#rim" fill="#404040">
                        <set attributeName="fill" to="#808080" begin="arrowLeft.mouseover" end="arrowLeft.mouseout"/>
                  </use>
                  <path fill="none" stroke="white" stroke-width="1.5" d="M0,-3.0v7 M-2.5,-0.5L0,-3.0L2.5,-0.5"/>
                </g>
        </g>
        <svg viewBox="0 0 15 15" width="100%" height="30px" preserveAspectRatio="xMaxYMin meet">
         <g id="arrow_out" transform="scale(0.3 0.3)">
          <a xlink:href="_surface_8cpp__incl_org.svg" target="_base">
           <rect id="button" ry="5" rx="5" y="6" x="6" height="38" width="38"
                fill="#f2f5e9" fill-opacity="0.5" stroke="#606060" stroke-width="1.0"/>
           <path id="arrow"
             d="M 11.500037,31.436501 C 11.940474,20.09759 22.043105,11.32322 32.158766,21.979434 L 37.068811,17.246167 C 37.068811,17.246167 37.088388,32 37.088388,32 L 22.160133,31.978069 C 22.160133,31.978069 26.997745,27.140456 26.997745,27.140456 C 18.528582,18.264221 13.291696,25.230495 11.500037,31.436501 z"
             style="fill:#404040;"/>
          </a>
         </g>
        </svg>
</svg>
