<?xml version="1.0" encoding="UTF-8" standalone="no"?>
<!DOCTYPE svg PUBLIC "-//W3C//DTD SVG 1.1//EN"
 "http://www.w3.org/Graphics/SVG/1.1/DTD/svg11.dtd">
<!-- Generated by graphviz version 2.30.1 (20140712.1814)
 -->
<!-- Title: include/cinder/System.h Pages: 1 -->
<svg width="272pt" height="88pt"
 viewBox="0.00 0.00 272.00 88.00" xmlns="http://www.w3.org/2000/svg" xmlns:xlink="http://www.w3.org/1999/xlink">
<g id="graph0" class="graph" transform="scale(1 1) rotate(0) translate(4 84)">
<title>include/cinder/System.h</title>
<polygon fill="white" stroke="white" points="-4,5 -4,-84 269,-84 269,5 -4,5"/>
<!-- Node1 -->
<g id="node1" class="node"><title>Node1</title>
<polygon fill="#bfbfbf" stroke="black" points="74.9189,-59 74.9189,-79 197.081,-79 197.081,-59 74.9189,-59"/>
<text text-anchor="middle" x="136" y="-65" font-family="Helvetica,sans-Serif" font-size="10.00">include/cinder/System.h</text>
</g>
<!-- Node2 -->
<g id="node2" class="node"><title>Node2</title>
<g id="a_node2"><a xlink:href="_node_8cpp.html" target="_top" xlink:title="src/cinder/audio/Node.cpp">
<polygon fill="white" stroke="black" points="-0.0883789,-1 -0.0883789,-21 132.088,-21 132.088,-1 -0.0883789,-1"/>
<text text-anchor="middle" x="66" y="-7" font-family="Helvetica,sans-Serif" font-size="10.00">src/cinder/audio/Node.cpp</text>
</a>
</g>
</g>
<!-- Node1&#45;&gt;Node2 -->
<g id="edge1" class="edge"><title>Node1&#45;&gt;Node2</title>
<path fill="none" stroke="midnightblue" d="M116.36,-52.288C103.77,-42.2161 87.8726,-29.4981 77.344,-21.0752"/>
<polygon fill="midnightblue" stroke="midnightblue" points="114.446,-55.2388 124.441,-58.7527 118.819,-49.7727 114.446,-55.2388"/>
</g>
<!-- Node3 -->
<g id="node3" class="node"><title>Node3</title>
<g id="a_node3"><a xlink:href="_system_8cpp.html" target="_top" xlink:title="src/cinder/System.cpp">
<polygon fill="white" stroke="black" points="149.818,-1 149.818,-21 264.182,-21 264.182,-1 149.818,-1"/>
<text text-anchor="middle" x="207" y="-7" font-family="Helvetica,sans-Serif" font-size="10.00">src/cinder/System.cpp</text>
</a>
</g>
</g>
<!-- Node1&#45;&gt;Node3 -->
<g id="edge2" class="edge"><title>Node1&#45;&gt;Node3</title>
<path fill="none" stroke="midnightblue" d="M155.921,-52.288C168.69,-42.2161 184.815,-29.4981 195.494,-21.0752"/>
<polygon fill="midnightblue" stroke="midnightblue" points="153.408,-49.8118 147.724,-58.7527 157.743,-55.3079 153.408,-49.8118"/>
</g>
</g>
</svg>
