<?xml version="1.0" encoding="UTF-8" standalone="no"?>
<!DOCTYPE svg PUBLIC "-//W3C//DTD SVG 1.1//EN"
 "http://www.w3.org/Graphics/SVG/1.1/DTD/svg11.dtd">
<!-- Generated by graphviz version 2.30.1 (20140712.1814)
 -->
<!-- Title: src/cinder/audio/Target.cpp Pages: 1 -->
<svg width="1590pt" height="436pt"
 viewBox="0.00 0.00 1589.96 436.00" xmlns="http://www.w3.org/2000/svg" xmlns:xlink="http://www.w3.org/1999/xlink">
<g id="graph0" class="graph" transform="scale(1 1) rotate(0) translate(4 432)">
<title>src/cinder/audio/Target.cpp</title>
<polygon fill="white" stroke="white" points="-4,5 -4,-432 1586.96,-432 1586.96,5 -4,5"/>
<!-- Node1 -->
<g id="node1" class="node"><title>Node1</title>
<polygon fill="#bfbfbf" stroke="black" points="295.968,-407 295.968,-427 432.032,-427 432.032,-407 295.968,-407"/>
<text text-anchor="middle" x="364" y="-413" font-family="Helvetica,sans-Serif" font-size="10.00">src/cinder/audio/Target.cpp</text>
</g>
<!-- Node2 -->
<g id="node2" class="node"><title>Node2</title>
<g id="a_node2"><a xlink:href="_target_8h.html" target="_top" xlink:title="cinder/audio/Target.h">
<polygon fill="white" stroke="black" points="309.303,-349 309.303,-369 418.697,-369 418.697,-349 309.303,-349"/>
<text text-anchor="middle" x="364" y="-355" font-family="Helvetica,sans-Serif" font-size="10.00">cinder/audio/Target.h</text>
</a>
</g>
</g>
<!-- Node1&#45;&gt;Node2 -->
<g id="edge1" class="edge"><title>Node1&#45;&gt;Node2</title>
<path fill="none" stroke="midnightblue" d="M364,-406.753C364,-399.25 364,-388.424 364,-379.078"/>
<polygon fill="midnightblue" stroke="midnightblue" points="367.5,-379.075 364,-369.075 360.5,-379.075 367.5,-379.075"/>
</g>
<!-- Node4 -->
<g id="node4" class="node"><title>Node4</title>
<g id="a_node4"><a xlink:href="_cinder_assert_8h.html" target="_top" xlink:title="cinder/CinderAssert.h">
<polygon fill="white" stroke="black" points="78.9238,-233 78.9238,-253 191.076,-253 191.076,-233 78.9238,-233"/>
<text text-anchor="middle" x="135" y="-239" font-family="Helvetica,sans-Serif" font-size="10.00">cinder/CinderAssert.h</text>
</a>
</g>
</g>
<!-- Node1&#45;&gt;Node4 -->
<g id="edge36" class="edge"><title>Node1&#45;&gt;Node4</title>
<path fill="none" stroke="midnightblue" d="M316.672,-406.909C266.057,-394.57 187.488,-367.372 146,-312 135.6,-298.12 133.453,-278.142 133.546,-263.43"/>
<polygon fill="midnightblue" stroke="midnightblue" points="137.045,-263.528 133.955,-253.394 130.051,-263.244 137.045,-263.528"/>
</g>
<!-- Node28 -->
<g id="node28" class="node"><title>Node28</title>
<g id="a_node28"><a xlink:href="_utilities_8h.html" target="_top" xlink:title="cinder/Utilities.h">
<polygon fill="white" stroke="black" points="1083.71,-349 1083.71,-369 1170.29,-369 1170.29,-349 1083.71,-349"/>
<text text-anchor="middle" x="1127" y="-355" font-family="Helvetica,sans-Serif" font-size="10.00">cinder/Utilities.h</text>
</a>
</g>
</g>
<!-- Node1&#45;&gt;Node28 -->
<g id="edge37" class="edge"><title>Node1&#45;&gt;Node28</title>
<path fill="none" stroke="midnightblue" d="M432.047,-411.006C581.912,-400.006 937.891,-373.88 1073.38,-363.935"/>
<polygon fill="midnightblue" stroke="midnightblue" points="1073.8,-367.414 1083.52,-363.191 1073.29,-360.433 1073.8,-367.414"/>
</g>
<!-- Node3 -->
<g id="node3" class="node"><title>Node3</title>
<g id="a_node3"><a xlink:href="audio_2_buffer_8h.html" target="_top" xlink:title="cinder/audio/Buffer.h">
<polygon fill="white" stroke="black" points="310.221,-291 310.221,-311 417.779,-311 417.779,-291 310.221,-291"/>
<text text-anchor="middle" x="364" y="-297" font-family="Helvetica,sans-Serif" font-size="10.00">cinder/audio/Buffer.h</text>
</a>
</g>
</g>
<!-- Node2&#45;&gt;Node3 -->
<g id="edge2" class="edge"><title>Node2&#45;&gt;Node3</title>
<path fill="none" stroke="midnightblue" d="M364,-348.753C364,-341.25 364,-330.424 364,-321.078"/>
<polygon fill="midnightblue" stroke="midnightblue" points="367.5,-321.075 364,-311.075 360.5,-321.075 367.5,-321.075"/>
</g>
<!-- Node11 -->
<g id="node11" class="node"><title>Node11</title>
<g id="a_node11"><a xlink:href="_sample_type_8h.html" target="_top" xlink:title="cinder/audio/SampleType.h">
<polygon fill="white" stroke="black" points="155.404,-291 155.404,-311 292.596,-311 292.596,-291 155.404,-291"/>
<text text-anchor="middle" x="224" y="-297" font-family="Helvetica,sans-Serif" font-size="10.00">cinder/audio/SampleType.h</text>
</a>
</g>
</g>
<!-- Node2&#45;&gt;Node11 -->
<g id="edge10" class="edge"><title>Node2&#45;&gt;Node11</title>
<path fill="none" stroke="midnightblue" d="M341.195,-348.878C318.11,-339.644 282.208,-325.283 256.222,-314.889"/>
<polygon fill="midnightblue" stroke="midnightblue" points="257.38,-311.582 246.795,-311.118 254.78,-318.082 257.38,-311.582"/>
</g>
<!-- Node12 -->
<g id="node12" class="node"><title>Node12</title>
<g id="a_node12"><a xlink:href="_data_target_8h.html" target="_top" xlink:title="cinder/DataTarget.h">
<polygon fill="white" stroke="black" points="660.365,-291 660.365,-311 763.635,-311 763.635,-291 660.365,-291"/>
<text text-anchor="middle" x="712" y="-297" font-family="Helvetica,sans-Serif" font-size="10.00">cinder/DataTarget.h</text>
</a>
</g>
</g>
<!-- Node2&#45;&gt;Node12 -->
<g id="edge11" class="edge"><title>Node2&#45;&gt;Node12</title>
<path fill="none" stroke="midnightblue" d="M418.758,-349.188C481.532,-339.087 584.201,-322.565 649.902,-311.993"/>
<polygon fill="midnightblue" stroke="midnightblue" points="650.8,-315.393 660.117,-310.349 649.688,-308.482 650.8,-315.393"/>
</g>
<!-- Node3&#45;&gt;Node4 -->
<g id="edge3" class="edge"><title>Node3&#45;&gt;Node4</title>
<path fill="none" stroke="midnightblue" d="M326.953,-290.94C287.459,-281.283 224.823,-265.965 181.912,-255.472"/>
<polygon fill="midnightblue" stroke="midnightblue" points="182.539,-252.022 171.994,-253.047 180.876,-258.822 182.539,-252.022"/>
</g>
<!-- Node7 -->
<g id="node7" class="node"><title>Node7</title>
<polygon fill="white" stroke="#bfbfbf" points="460.384,-59 460.384,-79 503.616,-79 503.616,-59 460.384,-59"/>
<text text-anchor="middle" x="482" y="-65" font-family="Helvetica,sans-Serif" font-size="10.00">vector</text>
</g>
<!-- Node3&#45;&gt;Node7 -->
<g id="edge6" class="edge"><title>Node3&#45;&gt;Node7</title>
<path fill="none" stroke="midnightblue" d="M319.098,-290.951C282.471,-281.181 239.174,-262.736 255,-232 296.539,-151.324 398.925,-101.945 450.8,-81.2794"/>
<polygon fill="midnightblue" stroke="midnightblue" points="452.116,-84.5232 460.171,-77.6408 449.582,-77.9979 452.116,-84.5232"/>
</g>
<!-- Node8 -->
<g id="node8" class="node"><title>Node8</title>
<polygon fill="white" stroke="#bfbfbf" points="401.943,-233 401.943,-253 454.057,-253 454.057,-233 401.943,-233"/>
<text text-anchor="middle" x="428" y="-239" font-family="Helvetica,sans-Serif" font-size="10.00">memory</text>
</g>
<!-- Node3&#45;&gt;Node8 -->
<g id="edge7" class="edge"><title>Node3&#45;&gt;Node8</title>
<path fill="none" stroke="midnightblue" d="M374.568,-290.753C384.168,-282.353 398.529,-269.787 409.946,-259.798"/>
<polygon fill="midnightblue" stroke="midnightblue" points="412.407,-262.294 417.628,-253.075 407.798,-257.026 412.407,-262.294"/>
</g>
<!-- Node9 -->
<g id="node9" class="node"><title>Node9</title>
<polygon fill="white" stroke="#bfbfbf" points="263.828,-233 263.828,-253 308.172,-253 308.172,-233 263.828,-233"/>
<text text-anchor="middle" x="286" y="-239" font-family="Helvetica,sans-Serif" font-size="10.00">cstdlib</text>
</g>
<!-- Node3&#45;&gt;Node9 -->
<g id="edge8" class="edge"><title>Node3&#45;&gt;Node9</title>
<path fill="none" stroke="midnightblue" d="M351.12,-290.753C339.08,-282.109 320.894,-269.052 306.797,-258.931"/>
<polygon fill="midnightblue" stroke="midnightblue" points="308.805,-256.064 298.64,-253.075 304.722,-261.75 308.805,-256.064"/>
</g>
<!-- Node10 -->
<g id="node10" class="node"><title>Node10</title>
<polygon fill="white" stroke="#bfbfbf" points="326.436,-233 326.436,-253 383.564,-253 383.564,-233 326.436,-233"/>
<text text-anchor="middle" x="355" y="-239" font-family="Helvetica,sans-Serif" font-size="10.00">algorithm</text>
</g>
<!-- Node3&#45;&gt;Node10 -->
<g id="edge9" class="edge"><title>Node3&#45;&gt;Node10</title>
<path fill="none" stroke="midnightblue" d="M362.514,-290.753C361.308,-283.25 359.568,-272.424 358.066,-263.078"/>
<polygon fill="midnightblue" stroke="midnightblue" points="361.501,-262.393 356.459,-253.075 354.59,-263.504 361.501,-262.393"/>
</g>
<!-- Node5 -->
<g id="node5" class="node"><title>Node5</title>
<g id="a_node5"><a xlink:href="_current_function_8h.html" target="_top" xlink:title="cinder/CurrentFunction.h">
<polygon fill="white" stroke="black" points="-0.0268555,-175 -0.0268555,-195 126.027,-195 126.027,-175 -0.0268555,-175"/>
<text text-anchor="middle" x="63" y="-181" font-family="Helvetica,sans-Serif" font-size="10.00">cinder/CurrentFunction.h</text>
</a>
</g>
</g>
<!-- Node4&#45;&gt;Node5 -->
<g id="edge4" class="edge"><title>Node4&#45;&gt;Node5</title>
<path fill="none" stroke="midnightblue" d="M123.111,-232.753C112.102,-224.19 95.5257,-211.298 82.5668,-201.219"/>
<polygon fill="midnightblue" stroke="midnightblue" points="84.7105,-198.452 74.6681,-195.075 80.4128,-203.977 84.7105,-198.452"/>
</g>
<!-- Node6 -->
<g id="node6" class="node"><title>Node6</title>
<polygon fill="white" stroke="#bfbfbf" points="143.884,-175 143.884,-195 192.116,-195 192.116,-175 143.884,-175"/>
<text text-anchor="middle" x="168" y="-181" font-family="Helvetica,sans-Serif" font-size="10.00">cassert</text>
</g>
<!-- Node4&#45;&gt;Node6 -->
<g id="edge5" class="edge"><title>Node4&#45;&gt;Node6</title>
<path fill="none" stroke="midnightblue" d="M140.449,-232.753C145.063,-224.924 151.809,-213.476 157.471,-203.868"/>
<polygon fill="midnightblue" stroke="midnightblue" points="160.591,-205.468 162.652,-195.075 154.56,-201.914 160.591,-205.468"/>
</g>
<!-- Node13 -->
<g id="node13" class="node"><title>Node13</title>
<g id="a_node13"><a xlink:href="_cinder_8h.html" target="_top" xlink:title="cinder/Cinder.h">
<polygon fill="white" stroke="black" points="1309.37,-59 1309.37,-79 1392.63,-79 1392.63,-59 1309.37,-59"/>
<text text-anchor="middle" x="1351" y="-65" font-family="Helvetica,sans-Serif" font-size="10.00">cinder/Cinder.h</text>
</a>
</g>
</g>
<!-- Node12&#45;&gt;Node13 -->
<g id="edge12" class="edge"><title>Node12&#45;&gt;Node13</title>
<path fill="none" stroke="midnightblue" d="M711.597,-290.809C710.81,-260.167 712.85,-160.91 769,-116 809.886,-83.2985 1163.89,-73.4189 1298.95,-70.8242"/>
<polygon fill="midnightblue" stroke="midnightblue" points="1299.12,-74.3218 1309.05,-70.6359 1298.99,-67.323 1299.12,-74.3218"/>
</g>
<!-- Node17 -->
<g id="node17" class="node"><title>Node17</title>
<g id="a_node17"><a xlink:href="_url_8h.html" target="_top" xlink:title="cinder/Url.h">
<polygon fill="white" stroke="black" points="1134.44,-233 1134.44,-253 1201.56,-253 1201.56,-233 1134.44,-233"/>
<text text-anchor="middle" x="1168" y="-239" font-family="Helvetica,sans-Serif" font-size="10.00">cinder/Url.h</text>
</a>
</g>
</g>
<!-- Node12&#45;&gt;Node17 -->
<g id="edge16" class="edge"><title>Node12&#45;&gt;Node17</title>
<path fill="none" stroke="midnightblue" d="M763.865,-293.631C854.396,-282.513 1039.65,-259.762 1124.19,-249.38"/>
<polygon fill="midnightblue" stroke="midnightblue" points="1124.73,-252.84 1134.23,-248.147 1123.88,-245.892 1124.73,-252.84"/>
</g>
<!-- Node18 -->
<g id="node18" class="node"><title>Node18</title>
<g id="a_node18"><a xlink:href="_stream_8h.html" target="_top" xlink:title="cinder/Stream.h">
<polygon fill="white" stroke="black" points="1043.71,-175 1043.71,-195 1130.29,-195 1130.29,-175 1043.71,-175"/>
<text text-anchor="middle" x="1087" y="-181" font-family="Helvetica,sans-Serif" font-size="10.00">cinder/Stream.h</text>
</a>
</g>
</g>
<!-- Node12&#45;&gt;Node18 -->
<g id="edge34" class="edge"><title>Node12&#45;&gt;Node18</title>
<path fill="none" stroke="midnightblue" d="M741.739,-290.959C808.884,-270.547 972.233,-220.889 1047.65,-197.963"/>
<polygon fill="midnightblue" stroke="midnightblue" points="1048.71,-201.299 1057.26,-195.042 1046.67,-194.602 1048.71,-201.299"/>
</g>
<!-- Node21 -->
<g id="node21" class="node"><title>Node21</title>
<polygon fill="white" stroke="#bfbfbf" points="575.773,-59 575.773,-79 616.227,-79 616.227,-59 575.773,-59"/>
<text text-anchor="middle" x="596" y="-65" font-family="Helvetica,sans-Serif" font-size="10.00">string</text>
</g>
<!-- Node12&#45;&gt;Node21 -->
<g id="edge35" class="edge"><title>Node12&#45;&gt;Node21</title>
<path fill="none" stroke="midnightblue" d="M699.874,-290.699C671.675,-268.2 602.176,-207.536 577,-138 571.023,-121.491 577.682,-102.169 584.709,-88.3491"/>
<polygon fill="midnightblue" stroke="midnightblue" points="587.898,-89.8158 589.715,-79.3777 581.786,-86.4049 587.898,-89.8158"/>
</g>
<!-- Node14 -->
<g id="node14" class="node"><title>Node14</title>
<polygon fill="white" stroke="#bfbfbf" points="1240.55,-1 1240.55,-21 1285.45,-21 1285.45,-1 1240.55,-1"/>
<text text-anchor="middle" x="1263" y="-7" font-family="Helvetica,sans-Serif" font-size="10.00">cstdint</text>
</g>
<!-- Node13&#45;&gt;Node14 -->
<g id="edge13" class="edge"><title>Node13&#45;&gt;Node14</title>
<path fill="none" stroke="midnightblue" d="M1336.47,-58.7527C1322.76,-50.0272 1301.98,-36.8051 1286.01,-26.6458"/>
<polygon fill="midnightblue" stroke="midnightblue" points="1287.58,-23.4912 1277.26,-21.0752 1283.82,-29.3968 1287.58,-23.4912"/>
</g>
<!-- Node15 -->
<g id="node15" class="node"><title>Node15</title>
<polygon fill="white" stroke="#bfbfbf" points="1303.53,-1 1303.53,-21 1398.47,-21 1398.47,-1 1303.53,-1"/>
<text text-anchor="middle" x="1351" y="-7" font-family="Helvetica,sans-Serif" font-size="10.00">boost/version.hpp</text>
</g>
<!-- Node13&#45;&gt;Node15 -->
<g id="edge14" class="edge"><title>Node13&#45;&gt;Node15</title>
<path fill="none" stroke="midnightblue" d="M1351,-58.7527C1351,-51.2504 1351,-40.4238 1351,-31.0781"/>
<polygon fill="midnightblue" stroke="midnightblue" points="1354.5,-31.0752 1351,-21.0752 1347.5,-31.0752 1354.5,-31.0752"/>
</g>
<!-- Node16 -->
<g id="node16" class="node"><title>Node16</title>
<polygon fill="white" stroke="#bfbfbf" points="1416.62,-1 1416.62,-21 1549.38,-21 1549.38,-1 1416.62,-1"/>
<text text-anchor="middle" x="1483" y="-7" font-family="Helvetica,sans-Serif" font-size="10.00">boost/checked_delete.hpp</text>
</g>
<!-- Node13&#45;&gt;Node16 -->
<g id="edge15" class="edge"><title>Node13&#45;&gt;Node16</title>
<path fill="none" stroke="midnightblue" d="M1372.5,-58.878C1394.17,-49.6848 1427.82,-35.4095 1452.3,-25.0263"/>
<polygon fill="midnightblue" stroke="midnightblue" points="1453.67,-28.2457 1461.51,-21.1181 1450.93,-21.8016 1453.67,-28.2457"/>
</g>
<!-- Node17&#45;&gt;Node13 -->
<g id="edge17" class="edge"><title>Node17&#45;&gt;Node13</title>
<path fill="none" stroke="midnightblue" d="M1201.6,-235.486C1248.03,-224.478 1330.15,-197.319 1366,-138 1375.25,-122.7 1368.81,-102.386 1361.72,-87.9563"/>
<polygon fill="midnightblue" stroke="midnightblue" points="1364.73,-86.1677 1356.89,-79.0403 1358.57,-89.5006 1364.73,-86.1677"/>
</g>
<!-- Node17&#45;&gt;Node18 -->
<g id="edge18" class="edge"><title>Node17&#45;&gt;Node18</title>
<path fill="none" stroke="midnightblue" d="M1154.62,-232.753C1142.12,-224.109 1123.24,-211.052 1108.6,-200.931"/>
<polygon fill="midnightblue" stroke="midnightblue" points="1110.34,-197.883 1100.13,-195.075 1106.36,-203.641 1110.34,-197.883"/>
</g>
<!-- Node27 -->
<g id="node27" class="node"><title>Node27</title>
<polygon fill="white" stroke="#bfbfbf" points="1147.83,-175 1147.83,-195 1202.17,-195 1202.17,-175 1147.83,-175"/>
<text text-anchor="middle" x="1175" y="-181" font-family="Helvetica,sans-Serif" font-size="10.00">iostream</text>
</g>
<!-- Node17&#45;&gt;Node27 -->
<g id="edge33" class="edge"><title>Node17&#45;&gt;Node27</title>
<path fill="none" stroke="midnightblue" d="M1169.16,-232.753C1170.09,-225.25 1171.45,-214.424 1172.62,-205.078"/>
<polygon fill="midnightblue" stroke="midnightblue" points="1176.1,-205.432 1173.87,-195.075 1169.15,-204.564 1176.1,-205.432"/>
</g>
<!-- Node18&#45;&gt;Node13 -->
<g id="edge19" class="edge"><title>Node18&#45;&gt;Node13</title>
<path fill="none" stroke="midnightblue" d="M1121.28,-174.985C1150.49,-166.813 1193.29,-153.669 1229,-138 1247.22,-130.005 1250.63,-125.712 1268,-116 1287.23,-105.246 1309.02,-93.1728 1325.45,-84.0942"/>
<polygon fill="midnightblue" stroke="midnightblue" points="1327.38,-87.0261 1334.44,-79.1275 1324,-80.8986 1327.38,-87.0261"/>
</g>
<!-- Node19 -->
<g id="node19" class="node"><title>Node19</title>
<g id="a_node19"><a xlink:href="_buffer_8h.html" target="_top" xlink:title="cinder/Buffer.h">
<polygon fill="white" stroke="black" points="1276.84,-117 1276.84,-137 1357.16,-137 1357.16,-117 1276.84,-117"/>
<text text-anchor="middle" x="1317" y="-123" font-family="Helvetica,sans-Serif" font-size="10.00">cinder/Buffer.h</text>
</a>
</g>
</g>
<!-- Node18&#45;&gt;Node19 -->
<g id="edge20" class="edge"><title>Node18&#45;&gt;Node19</title>
<path fill="none" stroke="midnightblue" d="M1124.21,-174.94C1163.87,-165.283 1226.78,-149.965 1269.88,-139.472"/>
<polygon fill="midnightblue" stroke="midnightblue" points="1270.96,-142.813 1279.84,-137.047 1269.3,-136.012 1270.96,-142.813"/>
</g>
<!-- Node20 -->
<g id="node20" class="node"><title>Node20</title>
<g id="a_node20"><a xlink:href="_exception_8h.html" target="_top" xlink:title="cinder/Exception.h">
<polygon fill="white" stroke="black" points="585.865,-117 585.865,-137 684.135,-137 684.135,-117 585.865,-117"/>
<text text-anchor="middle" x="635" y="-123" font-family="Helvetica,sans-Serif" font-size="10.00">cinder/Exception.h</text>
</a>
</g>
</g>
<!-- Node18&#45;&gt;Node20 -->
<g id="edge22" class="edge"><title>Node18&#45;&gt;Node20</title>
<path fill="none" stroke="midnightblue" d="M1043.66,-178.63C962.303,-168.551 786.619,-146.785 694.349,-135.353"/>
<polygon fill="midnightblue" stroke="midnightblue" points="694.688,-131.868 684.334,-134.112 693.827,-138.815 694.688,-131.868"/>
</g>
<!-- Node22 -->
<g id="node22" class="node"><title>Node22</title>
<g id="a_node22"><a xlink:href="_filesystem_8h.html" target="_top" xlink:title="cinder/Filesystem.h">
<polygon fill="white" stroke="black" points="1450.93,-117 1450.93,-137 1553.07,-137 1553.07,-117 1450.93,-117"/>
<text text-anchor="middle" x="1502" y="-123" font-family="Helvetica,sans-Serif" font-size="10.00">cinder/Filesystem.h</text>
</a>
</g>
</g>
<!-- Node18&#45;&gt;Node22 -->
<g id="edge26" class="edge"><title>Node18&#45;&gt;Node22</title>
<path fill="none" stroke="midnightblue" d="M1130.38,-175.444C1133.29,-174.935 1136.19,-174.448 1139,-174 1244.53,-157.183 1368.12,-142.604 1440.46,-134.584"/>
<polygon fill="midnightblue" stroke="midnightblue" points="1441.2,-138.024 1450.76,-133.449 1440.43,-131.066 1441.2,-138.024"/>
</g>
<!-- Node24 -->
<g id="node24" class="node"><title>Node24</title>
<polygon fill="white" stroke="#bfbfbf" points="1101.29,-117 1101.29,-137 1220.71,-137 1220.71,-117 1101.29,-117"/>
<text text-anchor="middle" x="1161" y="-123" font-family="Helvetica,sans-Serif" font-size="10.00">boost/noncopyable.hpp</text>
</g>
<!-- Node18&#45;&gt;Node24 -->
<g id="edge29" class="edge"><title>Node18&#45;&gt;Node24</title>
<path fill="none" stroke="midnightblue" d="M1099.22,-174.753C1110.53,-166.19 1127.57,-153.298 1140.89,-143.219"/>
<polygon fill="midnightblue" stroke="midnightblue" points="1143.15,-145.901 1149.01,-137.075 1138.92,-140.319 1143.15,-145.901"/>
</g>
<!-- Node18&#45;&gt;Node21 -->
<g id="edge30" class="edge"><title>Node18&#45;&gt;Node21</title>
<path fill="none" stroke="midnightblue" d="M1043.68,-180.919C981.881,-175.81 865.249,-163.51 769,-138 716.191,-124.003 657.573,-98.782 623.922,-83.3021"/>
<polygon fill="midnightblue" stroke="midnightblue" points="625.26,-80.0643 614.716,-79.0228 622.309,-86.412 625.26,-80.0643"/>
</g>
<!-- Node25 -->
<g id="node25" class="node"><title>Node25</title>
<polygon fill="white" stroke="#bfbfbf" points="777.574,-117 777.574,-137 926.426,-137 926.426,-117 777.574,-117"/>
<text text-anchor="middle" x="852" y="-123" font-family="Helvetica,sans-Serif" font-size="10.00">boost/iostreams/concepts.hpp</text>
</g>
<!-- Node18&#45;&gt;Node25 -->
<g id="edge31" class="edge"><title>Node18&#45;&gt;Node25</title>
<path fill="none" stroke="midnightblue" d="M1048.98,-174.94C1008.37,-165.262 943.905,-149.901 899.863,-139.406"/>
<polygon fill="midnightblue" stroke="midnightblue" points="900.502,-135.96 889.963,-137.047 898.88,-142.769 900.502,-135.96"/>
</g>
<!-- Node26 -->
<g id="node26" class="node"><title>Node26</title>
<polygon fill="white" stroke="#bfbfbf" points="944.306,-117 944.306,-137 1083.69,-137 1083.69,-117 944.306,-117"/>
<text text-anchor="middle" x="1014" y="-123" font-family="Helvetica,sans-Serif" font-size="10.00">boost/iostreams/stream.hpp</text>
</g>
<!-- Node18&#45;&gt;Node26 -->
<g id="edge32" class="edge"><title>Node18&#45;&gt;Node26</title>
<path fill="none" stroke="midnightblue" d="M1074.95,-174.753C1063.78,-166.19 1046.98,-153.298 1033.84,-143.219"/>
<polygon fill="midnightblue" stroke="midnightblue" points="1035.89,-140.385 1025.83,-137.075 1031.63,-145.939 1035.89,-140.385"/>
</g>
<!-- Node19&#45;&gt;Node13 -->
<g id="edge21" class="edge"><title>Node19&#45;&gt;Node13</title>
<path fill="none" stroke="midnightblue" d="M1322.61,-116.753C1327.37,-108.924 1334.32,-97.4761 1340.15,-87.8679"/>
<polygon fill="midnightblue" stroke="midnightblue" points="1343.29,-89.4395 1345.49,-79.0752 1337.31,-85.8066 1343.29,-89.4395"/>
</g>
<!-- Node20&#45;&gt;Node13 -->
<g id="edge23" class="edge"><title>Node20&#45;&gt;Node13</title>
<path fill="none" stroke="midnightblue" d="M684.467,-117.731C689.035,-117.094 693.599,-116.503 698,-116 920.871,-90.5109 1188.26,-76.9812 1299.02,-72.1216"/>
<polygon fill="midnightblue" stroke="midnightblue" points="1299.41,-75.6084 1309.25,-71.6783 1299.11,-68.6149 1299.41,-75.6084"/>
</g>
<!-- Node20&#45;&gt;Node7 -->
<g id="edge24" class="edge"><title>Node20&#45;&gt;Node7</title>
<path fill="none" stroke="midnightblue" d="M610.077,-116.878C583.718,-107.23 542.066,-91.9848 513.461,-81.5152"/>
<polygon fill="midnightblue" stroke="midnightblue" points="514.528,-78.1785 503.934,-78.0281 512.122,-84.7521 514.528,-78.1785"/>
</g>
<!-- Node20&#45;&gt;Node21 -->
<g id="edge25" class="edge"><title>Node20&#45;&gt;Node21</title>
<path fill="none" stroke="midnightblue" d="M628.56,-116.753C623.051,-108.843 614.969,-97.2372 608.235,-87.5683"/>
<polygon fill="midnightblue" stroke="midnightblue" points="610.907,-85.281 602.32,-79.0752 605.163,-89.2815 610.907,-85.281"/>
</g>
<!-- Node22&#45;&gt;Node13 -->
<g id="edge27" class="edge"><title>Node22&#45;&gt;Node13</title>
<path fill="none" stroke="midnightblue" d="M1477.4,-116.878C1452.29,-107.563 1413.1,-93.0296 1385.02,-82.6149"/>
<polygon fill="midnightblue" stroke="midnightblue" points="1386.18,-79.3138 1375.59,-79.1181 1383.75,-85.8769 1386.18,-79.3138"/>
</g>
<!-- Node23 -->
<g id="node23" class="node"><title>Node23</title>
<polygon fill="white" stroke="#bfbfbf" points="1448.42,-59 1448.42,-79 1555.58,-79 1555.58,-59 1448.42,-59"/>
<text text-anchor="middle" x="1502" y="-65" font-family="Helvetica,sans-Serif" font-size="10.00">boost/filesystem.hpp</text>
</g>
<!-- Node22&#45;&gt;Node23 -->
<g id="edge28" class="edge"><title>Node22&#45;&gt;Node23</title>
<path fill="none" stroke="midnightblue" d="M1502,-116.753C1502,-109.25 1502,-98.4238 1502,-89.0781"/>
<polygon fill="midnightblue" stroke="midnightblue" points="1505.5,-89.0752 1502,-79.0752 1498.5,-89.0752 1505.5,-89.0752"/>
</g>
<!-- Node28&#45;&gt;Node21 -->
<g id="edge38" class="edge"><title>Node28&#45;&gt;Node21</title>
<path fill="none" stroke="midnightblue" d="M1083.51,-355.917C981.909,-350.711 731.51,-335.812 651,-312 588.095,-293.395 520,-309.599 520,-244 520,-244 520,-244 520,-184 520,-143.325 553.91,-106.124 576.428,-85.9052"/>
<polygon fill="midnightblue" stroke="midnightblue" points="578.85,-88.4378 584.125,-79.2493 574.272,-83.1429 578.85,-88.4378"/>
</g>
<!-- Node28&#45;&gt;Node7 -->
<g id="edge39" class="edge"><title>Node28&#45;&gt;Node7</title>
<path fill="none" stroke="midnightblue" d="M1083.63,-358.646C965.22,-359.776 638.956,-358.471 544,-312 507.265,-294.022 482,-284.899 482,-244 482,-244 482,-244 482,-184 482,-150.798 482,-112.157 482,-89.4623"/>
<polygon fill="midnightblue" stroke="midnightblue" points="485.5,-89.1616 482,-79.1617 478.5,-89.1617 485.5,-89.1616"/>
</g>
<!-- Node28&#45;&gt;Node13 -->
<g id="edge40" class="edge"><title>Node28&#45;&gt;Node13</title>
<path fill="none" stroke="midnightblue" d="M1170.53,-356.314C1284.16,-350.735 1581,-328.111 1581,-244 1581,-244 1581,-244 1581,-184 1581,-152.62 1584.82,-137.538 1562,-116 1550.46,-105.106 1461.87,-88.4977 1403.21,-78.501"/>
<polygon fill="midnightblue" stroke="midnightblue" points="1403.43,-74.9893 1392.99,-76.7745 1402.26,-81.8915 1403.43,-74.9893"/>
</g>
<!-- Node28&#45;&gt;Node17 -->
<g id="edge41" class="edge"><title>Node28&#45;&gt;Node17</title>
<path fill="none" stroke="midnightblue" d="M1129.08,-348.597C1132.14,-335.322 1138.33,-310.426 1146,-290 1149.5,-280.691 1154.16,-270.695 1158.29,-262.407"/>
<polygon fill="midnightblue" stroke="midnightblue" points="1161.51,-263.801 1162.96,-253.306 1155.28,-260.608 1161.51,-263.801"/>
</g>
<!-- Node29 -->
<g id="node29" class="node"><title>Node29</title>
<g id="a_node29"><a xlink:href="_data_source_8h.html" target="_top" xlink:title="cinder/DataSource.h">
<polygon fill="white" stroke="black" points="1155.42,-291 1155.42,-311 1262.58,-311 1262.58,-291 1155.42,-291"/>
<text text-anchor="middle" x="1209" y="-297" font-family="Helvetica,sans-Serif" font-size="10.00">cinder/DataSource.h</text>
</a>
</g>
</g>
<!-- Node28&#45;&gt;Node29 -->
<g id="edge42" class="edge"><title>Node28&#45;&gt;Node29</title>
<path fill="none" stroke="midnightblue" d="M1140.54,-348.753C1153.2,-340.109 1172.32,-327.052 1187.14,-316.931"/>
<polygon fill="midnightblue" stroke="midnightblue" points="1189.43,-319.605 1195.71,-311.075 1185.48,-313.825 1189.43,-319.605"/>
</g>
<!-- Node30 -->
<g id="node30" class="node"><title>Node30</title>
<polygon fill="white" stroke="#bfbfbf" points="1280.8,-291 1280.8,-311 1395.2,-311 1395.2,-291 1280.8,-291"/>
<text text-anchor="middle" x="1338" y="-297" font-family="Helvetica,sans-Serif" font-size="10.00">boost/lexical_cast.hpp</text>
</g>
<!-- Node28&#45;&gt;Node30 -->
<g id="edge48" class="edge"><title>Node28&#45;&gt;Node30</title>
<path fill="none" stroke="midnightblue" d="M1161.37,-348.878C1197.57,-339.27 1254.69,-324.11 1294.12,-313.645"/>
<polygon fill="midnightblue" stroke="midnightblue" points="1295.23,-316.973 1303.99,-311.025 1293.43,-310.208 1295.23,-316.973"/>
</g>
<!-- Node29&#45;&gt;Node13 -->
<g id="edge43" class="edge"><title>Node29&#45;&gt;Node13</title>
<path fill="none" stroke="midnightblue" d="M1225.53,-290.983C1262.15,-269.935 1349.4,-213.561 1382,-138 1389.58,-120.44 1378.15,-100.556 1367.09,-86.8476"/>
<polygon fill="midnightblue" stroke="midnightblue" points="1369.63,-84.4341 1360.43,-79.1858 1364.35,-89.028 1369.63,-84.4341"/>
</g>
<!-- Node29&#45;&gt;Node17 -->
<g id="edge44" class="edge"><title>Node29&#45;&gt;Node17</title>
<path fill="none" stroke="midnightblue" d="M1202.23,-290.753C1196.38,-282.761 1187.77,-270.998 1180.64,-261.27"/>
<polygon fill="midnightblue" stroke="midnightblue" points="1183.38,-259.076 1174.64,-253.075 1177.73,-263.211 1183.38,-259.076"/>
</g>
<!-- Node29&#45;&gt;Node19 -->
<g id="edge45" class="edge"><title>Node29&#45;&gt;Node19</title>
<path fill="none" stroke="midnightblue" d="M1214.81,-290.753C1232.02,-263.338 1282.99,-182.161 1305.78,-145.875"/>
<polygon fill="midnightblue" stroke="midnightblue" points="1308.81,-147.623 1311.16,-137.293 1302.88,-143.901 1308.81,-147.623"/>
</g>
<!-- Node29&#45;&gt;Node18 -->
<g id="edge46" class="edge"><title>Node29&#45;&gt;Node18</title>
<path fill="none" stroke="midnightblue" d="M1184.6,-290.97C1166.46,-283.305 1142,-270.857 1125,-254 1110.94,-240.055 1100.53,-219.811 1094.19,-205.038"/>
<polygon fill="midnightblue" stroke="midnightblue" points="1097.3,-203.379 1090.31,-195.417 1090.81,-206 1097.3,-203.379"/>
</g>
<!-- Node29&#45;&gt;Node22 -->
<g id="edge47" class="edge"><title>Node29&#45;&gt;Node22</title>
<path fill="none" stroke="midnightblue" d="M1259.53,-290.95C1324.5,-279.144 1429.9,-259.361 1437,-254 1472.72,-227.024 1490.49,-174.789 1497.79,-146.795"/>
<polygon fill="midnightblue" stroke="midnightblue" points="1501.2,-147.589 1500.16,-137.045 1494.4,-145.935 1501.2,-147.589"/>
</g>
</g>
</svg>
