<?xml version="1.0" encoding="UTF-8" standalone="no"?>
<!DOCTYPE svg PUBLIC "-//W3C//DTD SVG 1.1//EN"
 "http://www.w3.org/Graphics/SVG/1.1/DTD/svg11.dtd">
<!-- Generated by graphviz version 2.30.1 (20140712.1814)
 -->
<!-- Title: include/cinder/audio/Target.h Pages: 1 -->
<svg width="463pt" height="182pt"
 viewBox="0.00 0.00 463.00 182.00" xmlns="http://www.w3.org/2000/svg" xmlns:xlink="http://www.w3.org/1999/xlink">
<g id="graph0" class="graph" transform="scale(1 1) rotate(0) translate(4 178)">
<title>include/cinder/audio/Target.h</title>
<polygon fill="white" stroke="white" points="-4,5 -4,-178 460,-178 460,5 -4,5"/>
<!-- Node1 -->
<g id="node1" class="node"><title>Node1</title>
<polygon fill="#bfbfbf" stroke="black" points="166.525,-141 166.525,-173 271.475,-173 271.475,-141 166.525,-141"/>
<text text-anchor="start" x="174.525" y="-159" font-family="Helvetica,sans-Serif" font-size="10.00">include/cinder/audio</text>
<text text-anchor="middle" x="219" y="-147" font-family="Helvetica,sans-Serif" font-size="10.00">/Target.h</text>
</g>
<!-- Node2 -->
<g id="node2" class="node"><title>Node2</title>
<g id="a_node2"><a xlink:href="_file_core_audio_8h.html" target="_top" xlink:title="include/cinder/audio\l/cocoa/FileCoreAudio.h">
<polygon fill="white" stroke="black" points="-0.972656,-71 -0.972656,-103 118.973,-103 118.973,-71 -0.972656,-71"/>
<text text-anchor="start" x="7.02734" y="-89" font-family="Helvetica,sans-Serif" font-size="10.00">include/cinder/audio</text>
<text text-anchor="middle" x="59" y="-77" font-family="Helvetica,sans-Serif" font-size="10.00">/cocoa/FileCoreAudio.h</text>
</a>
</g>
</g>
<!-- Node1&#45;&gt;Node2 -->
<g id="edge1" class="edge"><title>Node1&#45;&gt;Node2</title>
<path fill="none" stroke="midnightblue" d="M174.14,-136.934C148.926,-126.218 117.9,-113.032 94.4099,-103.049"/>
<polygon fill="midnightblue" stroke="midnightblue" points="172.918,-140.218 183.491,-140.909 175.657,-133.776 172.918,-140.218"/>
</g>
<!-- Node4 -->
<g id="node4" class="node"><title>Node4</title>
<g id="a_node4"><a xlink:href="_sample_recorder_node_8cpp.html" target="_top" xlink:title="src/cinder/audio/SampleRecorder\lNode.cpp">
<polygon fill="white" stroke="black" points="136.798,-71 136.798,-103 301.202,-103 301.202,-71 136.798,-71"/>
<text text-anchor="start" x="144.798" y="-89" font-family="Helvetica,sans-Serif" font-size="10.00">src/cinder/audio/SampleRecorder</text>
<text text-anchor="middle" x="219" y="-77" font-family="Helvetica,sans-Serif" font-size="10.00">Node.cpp</text>
</a>
</g>
</g>
<!-- Node1&#45;&gt;Node4 -->
<g id="edge3" class="edge"><title>Node1&#45;&gt;Node4</title>
<path fill="none" stroke="midnightblue" d="M219,-130.617C219,-121.338 219,-111.141 219,-103.049"/>
<polygon fill="midnightblue" stroke="midnightblue" points="215.5,-130.909 219,-140.909 222.5,-130.909 215.5,-130.909"/>
</g>
<!-- Node5 -->
<g id="node5" class="node"><title>Node5</title>
<g id="a_node5"><a xlink:href="_target_8cpp.html" target="_top" xlink:title="src/cinder/audio/Target.cpp">
<polygon fill="white" stroke="black" points="318.968,-77 318.968,-97 455.032,-97 455.032,-77 318.968,-77"/>
<text text-anchor="middle" x="387" y="-83" font-family="Helvetica,sans-Serif" font-size="10.00">src/cinder/audio/Target.cpp</text>
</a>
</g>
</g>
<!-- Node1&#45;&gt;Node5 -->
<g id="edge4" class="edge"><title>Node1&#45;&gt;Node5</title>
<path fill="none" stroke="midnightblue" d="M265.57,-137.15C297.926,-124.054 339.598,-107.187 364.756,-97.0035"/>
<polygon fill="midnightblue" stroke="midnightblue" points="264.241,-133.912 256.285,-140.909 266.867,-140.401 264.241,-133.912"/>
</g>
<!-- Node3 -->
<g id="node3" class="node"><title>Node3</title>
<g id="a_node3"><a xlink:href="_file_core_audio_8cpp.html" target="_top" xlink:title="src/cinder/audio/cocoa\l/FileCoreAudio.cpp">
<polygon fill="white" stroke="black" points="0.973145,-1 0.973145,-33 117.027,-33 117.027,-1 0.973145,-1"/>
<text text-anchor="start" x="8.97314" y="-19" font-family="Helvetica,sans-Serif" font-size="10.00">src/cinder/audio/cocoa</text>
<text text-anchor="middle" x="59" y="-7" font-family="Helvetica,sans-Serif" font-size="10.00">/FileCoreAudio.cpp</text>
</a>
</g>
</g>
<!-- Node2&#45;&gt;Node3 -->
<g id="edge2" class="edge"><title>Node2&#45;&gt;Node3</title>
<path fill="none" stroke="midnightblue" d="M59,-60.6174C59,-51.3378 59,-41.1413 59,-33.0492"/>
<polygon fill="midnightblue" stroke="midnightblue" points="55.5001,-60.9086 59,-70.9086 62.5001,-60.9086 55.5001,-60.9086"/>
</g>
</g>
</svg>
