<?xml version="1.0" encoding="UTF-8" standalone="no"?>
<!DOCTYPE svg PUBLIC "-//W3C//DTD SVG 1.1//EN"
 "http://www.w3.org/Graphics/SVG/1.1/DTD/svg11.dtd">
<!-- Generated by graphviz version 2.30.1 (20140712.1814)
 -->
<!-- Title: include/cinder/audio/Target.h Pages: 1 -->
<!--zoomable 390 -->
<svg id="main" version="1.1" xmlns="http://www.w3.org/2000/svg" xmlns:xlink="http://www.w3.org/1999/xlink" xml:space="preserve" onload="init(evt)">
<style type="text/css"><![CDATA[
.edge:hover path { stroke: red; }
.edge:hover polygon { stroke: red; fill: red; }
]]></style>
<script type="text/javascript"><![CDATA[
var edges = document.getElementsByTagName('g');
if (edges && edges.length) {
  for (var i=0;i<edges.length;i++) {
    if (edges[i].id.substr(0,4)=='edge') {
      edges[i].setAttribute('class','edge');
    }
  }
}
]]></script>
        <defs>
                <circle id="rim" cx="0" cy="0" r="7"/>
                <circle id="rim2" cx="0" cy="0" r="3.5"/>
                <g id="zoomPlus">
                        <use xlink:href="#rim" fill="#404040">
                                <set attributeName="fill" to="#808080" begin="zoomplus.mouseover" end="zoomplus.mouseout"/>
                        </use>
                        <path d="M-4,0h8M0,-4v8" fill="none" stroke="white" stroke-width="1.5" pointer-events="none"/>
                </g>
                <g id="zoomMin">
                        <use xlink:href="#rim" fill="#404040">
                                <set attributeName="fill" to="#808080" begin="zoomminus.mouseover" end="zoomminus.mouseout"/>
                        </use>
                        <path d="M-4,0h8" fill="none" stroke="white" stroke-width="1.5" pointer-events="none"/>
                </g>
                <g id="dirArrow">
                        <path fill="none" stroke="white" stroke-width="1.5" d="M0,-3.0v7 M-2.5,-0.5L0,-3.0L2.5,-0.5"/>
                </g>
               <g id="resetDef">
                       <use xlink:href="#rim2" fill="#404040">
                               <set attributeName="fill" to="#808080" begin="reset.mouseover" end="reset.mouseout"/>
                       </use>
               </g>
        </defs>

<script type="text/javascript">
var viewWidth = 1351;
var viewHeight = 390;
var sectionId = 'dynsection-0';
</script>
<script xlink:href="svgpan.js"/>
<svg id="graph" class="graph">
<g id="viewport">
<title>include/cinder/audio/Target.h</title>
<polygon fill="white" stroke="white" points="-4,5 -4,-386 1348,-386 1348,5 -4,5"/>
<!-- Node1 -->
<g id="node1" class="node"><title>Node1</title>
<polygon fill="#bfbfbf" stroke="black" points="1074.52,-349 1074.52,-381 1179.48,-381 1179.48,-349 1074.52,-349"/>
<text text-anchor="start" x="1082.52" y="-367" font-family="Helvetica,sans-Serif" font-size="10.00">include/cinder/audio</text>
<text text-anchor="middle" x="1127" y="-355" font-family="Helvetica,sans-Serif" font-size="10.00">/Target.h</text>
</g>
<!-- Node2 -->
<g id="node2" class="node"><title>Node2</title>
<g id="a_node2"><a xlink:href="audio_2_buffer_8h.html" target="_top" xlink:title="cinder/audio/Buffer.h">
<polygon fill="white" stroke="black" points="1073.22,-291 1073.22,-311 1180.78,-311 1180.78,-291 1073.22,-291"/>
<text text-anchor="middle" x="1127" y="-297" font-family="Helvetica,sans-Serif" font-size="10.00">cinder/audio/Buffer.h</text>
</a>
</g>
</g>
<!-- Node1&#45;&gt;Node2 -->
<g id="edge1" class="edge"><title>Node1&#45;&gt;Node2</title>
<path fill="none" stroke="midnightblue" d="M1127,-348.992C1127,-340.726 1127,-330.373 1127,-321.489"/>
<polygon fill="midnightblue" stroke="midnightblue" points="1130.5,-321.29 1127,-311.29 1123.5,-321.29 1130.5,-321.29"/>
</g>
<!-- Node10 -->
<g id="node10" class="node"><title>Node10</title>
<g id="a_node10"><a xlink:href="_sample_type_8h.html" target="_top" xlink:title="cinder/audio/SampleType.h">
<polygon fill="white" stroke="black" points="1198.4,-291 1198.4,-311 1335.6,-311 1335.6,-291 1198.4,-291"/>
<text text-anchor="middle" x="1267" y="-297" font-family="Helvetica,sans-Serif" font-size="10.00">cinder/audio/SampleType.h</text>
</a>
</g>
</g>
<!-- Node1&#45;&gt;Node10 -->
<g id="edge9" class="edge"><title>Node1&#45;&gt;Node10</title>
<path fill="none" stroke="midnightblue" d="M1160.89,-348.992C1184.15,-338.689 1214.74,-325.143 1237.1,-315.242"/>
<polygon fill="midnightblue" stroke="midnightblue" points="1238.71,-318.358 1246.43,-311.109 1235.87,-311.958 1238.71,-318.358"/>
</g>
<!-- Node11 -->
<g id="node11" class="node"><title>Node11</title>
<g id="a_node11"><a xlink:href="_data_target_8h.html" target="_top" xlink:title="cinder/DataTarget.h">
<polygon fill="white" stroke="black" points="713.365,-291 713.365,-311 816.635,-311 816.635,-291 713.365,-291"/>
<text text-anchor="middle" x="765" y="-297" font-family="Helvetica,sans-Serif" font-size="10.00">cinder/DataTarget.h</text>
</a>
</g>
</g>
<!-- Node1&#45;&gt;Node11 -->
<g id="edge10" class="edge"><title>Node1&#45;&gt;Node11</title>
<path fill="none" stroke="midnightblue" d="M1074.36,-354.985C1008.67,-343.733 896.488,-324.52 826.786,-312.582"/>
<polygon fill="midnightblue" stroke="midnightblue" points="827.269,-309.114 816.821,-310.875 826.087,-316.013 827.269,-309.114"/>
</g>
<!-- Node3 -->
<g id="node3" class="node"><title>Node3</title>
<g id="a_node3"><a xlink:href="_cinder_assert_8h.html" target="_top" xlink:title="cinder/CinderAssert.h">
<polygon fill="white" stroke="black" points="1122.92,-233 1122.92,-253 1235.08,-253 1235.08,-233 1122.92,-233"/>
<text text-anchor="middle" x="1179" y="-239" font-family="Helvetica,sans-Serif" font-size="10.00">cinder/CinderAssert.h</text>
</a>
</g>
</g>
<!-- Node2&#45;&gt;Node3 -->
<g id="edge2" class="edge"><title>Node2&#45;&gt;Node3</title>
<path fill="none" stroke="midnightblue" d="M1135.59,-290.753C1143.16,-282.598 1154.38,-270.516 1163.51,-260.677"/>
<polygon fill="midnightblue" stroke="midnightblue" points="1166.33,-262.785 1170.57,-253.075 1161.2,-258.022 1166.33,-262.785"/>
</g>
<!-- Node6 -->
<g id="node6" class="node"><title>Node6</title>
<polygon fill="white" stroke="#bfbfbf" points="1079.38,-59 1079.38,-79 1122.62,-79 1122.62,-59 1079.38,-59"/>
<text text-anchor="middle" x="1101" y="-65" font-family="Helvetica,sans-Serif" font-size="10.00">vector</text>
</g>
<!-- Node2&#45;&gt;Node6 -->
<g id="edge5" class="edge"><title>Node2&#45;&gt;Node6</title>
<path fill="none" stroke="midnightblue" d="M1161.93,-290.951C1192.8,-282.163 1234.38,-268.114 1244,-254 1249.51,-245.92 1245.31,-241.689 1244,-232 1240.41,-205.501 1242.59,-196.413 1228,-174 1201.91,-133.911 1155.44,-101.686 1126.53,-84.2444"/>
<polygon fill="midnightblue" stroke="midnightblue" points="1128.2,-81.1667 1117.81,-79.1099 1124.65,-87.1991 1128.2,-81.1667"/>
</g>
<!-- Node7 -->
<g id="node7" class="node"><title>Node7</title>
<polygon fill="white" stroke="#bfbfbf" points="1290.94,-233 1290.94,-253 1343.06,-253 1343.06,-233 1290.94,-233"/>
<text text-anchor="middle" x="1317" y="-239" font-family="Helvetica,sans-Serif" font-size="10.00">memory</text>
</g>
<!-- Node2&#45;&gt;Node7 -->
<g id="edge6" class="edge"><title>Node2&#45;&gt;Node7</title>
<path fill="none" stroke="midnightblue" d="M1157.95,-290.878C1191.54,-280.977 1245.14,-265.181 1280.69,-254.701"/>
<polygon fill="midnightblue" stroke="midnightblue" points="1282.06,-257.948 1290.66,-251.764 1280.08,-251.234 1282.06,-257.948"/>
</g>
<!-- Node8 -->
<g id="node8" class="node"><title>Node8</title>
<polygon fill="white" stroke="#bfbfbf" points="984.828,-233 984.828,-253 1029.17,-253 1029.17,-233 984.828,-233"/>
<text text-anchor="middle" x="1007" y="-239" font-family="Helvetica,sans-Serif" font-size="10.00">cstdlib</text>
</g>
<!-- Node2&#45;&gt;Node8 -->
<g id="edge7" class="edge"><title>Node2&#45;&gt;Node8</title>
<path fill="none" stroke="midnightblue" d="M1107.45,-290.878C1088.01,-281.807 1057.97,-267.788 1035.8,-257.442"/>
<polygon fill="midnightblue" stroke="midnightblue" points="1037.08,-254.175 1026.54,-253.118 1034.12,-260.519 1037.08,-254.175"/>
</g>
<!-- Node9 -->
<g id="node9" class="node"><title>Node9</title>
<polygon fill="white" stroke="#bfbfbf" points="1047.44,-233 1047.44,-253 1104.56,-253 1104.56,-233 1047.44,-233"/>
<text text-anchor="middle" x="1076" y="-239" font-family="Helvetica,sans-Serif" font-size="10.00">algorithm</text>
</g>
<!-- Node2&#45;&gt;Node9 -->
<g id="edge8" class="edge"><title>Node2&#45;&gt;Node9</title>
<path fill="none" stroke="midnightblue" d="M1118.58,-290.753C1111.15,-282.598 1100.15,-270.516 1091.19,-260.677"/>
<polygon fill="midnightblue" stroke="midnightblue" points="1093.59,-258.112 1084.26,-253.075 1088.41,-262.825 1093.59,-258.112"/>
</g>
<!-- Node4 -->
<g id="node4" class="node"><title>Node4</title>
<g id="a_node4"><a xlink:href="_current_function_8h.html" target="_top" xlink:title="cinder/CurrentFunction.h">
<polygon fill="white" stroke="black" points="1026.97,-175 1026.97,-195 1153.03,-195 1153.03,-175 1026.97,-175"/>
<text text-anchor="middle" x="1090" y="-181" font-family="Helvetica,sans-Serif" font-size="10.00">cinder/CurrentFunction.h</text>
</a>
</g>
</g>
<!-- Node3&#45;&gt;Node4 -->
<g id="edge3" class="edge"><title>Node3&#45;&gt;Node4</title>
<path fill="none" stroke="midnightblue" d="M1164.3,-232.753C1150.44,-224.027 1129.42,-210.805 1113.28,-200.646"/>
<polygon fill="midnightblue" stroke="midnightblue" points="1114.75,-197.438 1104.42,-195.075 1111.02,-203.363 1114.75,-197.438"/>
</g>
<!-- Node5 -->
<g id="node5" class="node"><title>Node5</title>
<polygon fill="white" stroke="#bfbfbf" points="1170.88,-175 1170.88,-195 1219.12,-195 1219.12,-175 1170.88,-175"/>
<text text-anchor="middle" x="1195" y="-181" font-family="Helvetica,sans-Serif" font-size="10.00">cassert</text>
</g>
<!-- Node3&#45;&gt;Node5 -->
<g id="edge4" class="edge"><title>Node3&#45;&gt;Node5</title>
<path fill="none" stroke="midnightblue" d="M1181.64,-232.753C1183.81,-225.169 1186.95,-214.188 1189.64,-204.774"/>
<polygon fill="midnightblue" stroke="midnightblue" points="1193.03,-205.652 1192.41,-195.075 1186.29,-203.729 1193.03,-205.652"/>
</g>
<!-- Node12 -->
<g id="node12" class="node"><title>Node12</title>
<g id="a_node12"><a xlink:href="_cinder_8h.html" target="_top" xlink:title="cinder/Cinder.h">
<polygon fill="white" stroke="black" points="666.367,-59 666.367,-79 749.633,-79 749.633,-59 666.367,-59"/>
<text text-anchor="middle" x="708" y="-65" font-family="Helvetica,sans-Serif" font-size="10.00">cinder/Cinder.h</text>
</a>
</g>
</g>
<!-- Node11&#45;&gt;Node12 -->
<g id="edge11" class="edge"><title>Node11&#45;&gt;Node12</title>
<path fill="none" stroke="midnightblue" d="M763.706,-290.655C759.791,-263.35 747.091,-181.486 727,-116 724.185,-106.823 720.235,-96.9482 716.665,-88.7094"/>
<polygon fill="midnightblue" stroke="midnightblue" points="719.743,-87.0195 712.461,-79.3242 713.355,-89.8812 719.743,-87.0195"/>
</g>
<!-- Node16 -->
<g id="node16" class="node"><title>Node16</title>
<g id="a_node16"><a xlink:href="_url_8h.html" target="_top" xlink:title="cinder/Url.h">
<polygon fill="white" stroke="black" points="653.436,-233 653.436,-253 720.564,-253 720.564,-233 653.436,-233"/>
<text text-anchor="middle" x="687" y="-239" font-family="Helvetica,sans-Serif" font-size="10.00">cinder/Url.h</text>
</a>
</g>
</g>
<!-- Node11&#45;&gt;Node16 -->
<g id="edge15" class="edge"><title>Node11&#45;&gt;Node16</title>
<path fill="none" stroke="midnightblue" d="M752.12,-290.753C740.08,-282.109 721.894,-269.052 707.797,-258.931"/>
<polygon fill="midnightblue" stroke="midnightblue" points="709.805,-256.064 699.64,-253.075 705.722,-261.75 709.805,-256.064"/>
</g>
<!-- Node17 -->
<g id="node17" class="node"><title>Node17</title>
<g id="a_node17"><a xlink:href="_stream_8h.html" target="_top" xlink:title="cinder/Stream.h">
<polygon fill="white" stroke="black" points="540.707,-175 540.707,-195 627.293,-195 627.293,-175 540.707,-175"/>
<text text-anchor="middle" x="584" y="-181" font-family="Helvetica,sans-Serif" font-size="10.00">cinder/Stream.h</text>
</a>
</g>
</g>
<!-- Node11&#45;&gt;Node17 -->
<g id="edge33" class="edge"><title>Node11&#45;&gt;Node17</title>
<path fill="none" stroke="midnightblue" d="M727.828,-290.942C702.668,-283.641 669.499,-271.654 644,-254 624.276,-240.344 606.775,-218.854 595.839,-203.693"/>
<polygon fill="midnightblue" stroke="midnightblue" points="598.507,-201.4 589.916,-195.198 592.764,-205.403 598.507,-201.4"/>
</g>
<!-- Node20 -->
<g id="node20" class="node"><title>Node20</title>
<polygon fill="white" stroke="#bfbfbf" points="859.773,-59 859.773,-79 900.227,-79 900.227,-59 859.773,-59"/>
<text text-anchor="middle" x="880" y="-65" font-family="Helvetica,sans-Serif" font-size="10.00">string</text>
</g>
<!-- Node11&#45;&gt;Node20 -->
<g id="edge34" class="edge"><title>Node11&#45;&gt;Node20</title>
<path fill="none" stroke="midnightblue" d="M781.514,-290.974C818.087,-269.91 905.264,-213.503 938,-138 941.89,-129.029 942.254,-124.804 938,-116 931.583,-102.721 919.266,-92.1046 907.627,-84.4311"/>
<polygon fill="midnightblue" stroke="midnightblue" points="909.326,-81.3676 898.967,-79.1416 905.677,-87.3413 909.326,-81.3676"/>
</g>
<!-- Node13 -->
<g id="node13" class="node"><title>Node13</title>
<polygon fill="white" stroke="#bfbfbf" points="597.549,-1 597.549,-21 642.451,-21 642.451,-1 597.549,-1"/>
<text text-anchor="middle" x="620" y="-7" font-family="Helvetica,sans-Serif" font-size="10.00">cstdint</text>
</g>
<!-- Node12&#45;&gt;Node13 -->
<g id="edge12" class="edge"><title>Node12&#45;&gt;Node13</title>
<path fill="none" stroke="midnightblue" d="M693.469,-58.7527C679.757,-50.0272 658.979,-36.8051 643.015,-26.6458"/>
<polygon fill="midnightblue" stroke="midnightblue" points="644.577,-23.4912 634.261,-21.0752 640.819,-29.3968 644.577,-23.4912"/>
</g>
<!-- Node14 -->
<g id="node14" class="node"><title>Node14</title>
<polygon fill="white" stroke="#bfbfbf" points="660.53,-1 660.53,-21 755.47,-21 755.47,-1 660.53,-1"/>
<text text-anchor="middle" x="708" y="-7" font-family="Helvetica,sans-Serif" font-size="10.00">boost/version.hpp</text>
</g>
<!-- Node12&#45;&gt;Node14 -->
<g id="edge13" class="edge"><title>Node12&#45;&gt;Node14</title>
<path fill="none" stroke="midnightblue" d="M708,-58.7527C708,-51.2504 708,-40.4238 708,-31.0781"/>
<polygon fill="midnightblue" stroke="midnightblue" points="711.5,-31.0752 708,-21.0752 704.5,-31.0752 711.5,-31.0752"/>
</g>
<!-- Node15 -->
<g id="node15" class="node"><title>Node15</title>
<polygon fill="white" stroke="#bfbfbf" points="773.621,-1 773.621,-21 906.379,-21 906.379,-1 773.621,-1"/>
<text text-anchor="middle" x="840" y="-7" font-family="Helvetica,sans-Serif" font-size="10.00">boost/checked_delete.hpp</text>
</g>
<!-- Node12&#45;&gt;Node15 -->
<g id="edge14" class="edge"><title>Node12&#45;&gt;Node15</title>
<path fill="none" stroke="midnightblue" d="M729.502,-58.878C751.172,-49.6848 784.821,-35.4095 809.295,-25.0263"/>
<polygon fill="midnightblue" stroke="midnightblue" points="810.668,-28.2457 818.507,-21.1181 807.935,-21.8016 810.668,-28.2457"/>
</g>
<!-- Node16&#45;&gt;Node12 -->
<g id="edge16" class="edge"><title>Node16&#45;&gt;Node12</title>
<path fill="none" stroke="midnightblue" d="M692.58,-232.897C697.744,-223.9 705.052,-209.554 708,-196 716.062,-158.927 713.2,-114.254 710.516,-89.2952"/>
<polygon fill="midnightblue" stroke="midnightblue" points="713.985,-88.8325 709.335,-79.313 707.034,-89.655 713.985,-88.8325"/>
</g>
<!-- Node16&#45;&gt;Node17 -->
<g id="edge17" class="edge"><title>Node16&#45;&gt;Node17</title>
<path fill="none" stroke="midnightblue" d="M669.992,-232.753C653.568,-223.823 628.483,-210.185 609.637,-199.939"/>
<polygon fill="midnightblue" stroke="midnightblue" points="611.149,-196.777 600.692,-195.075 607.806,-202.927 611.149,-196.777"/>
</g>
<!-- Node26 -->
<g id="node26" class="node"><title>Node26</title>
<polygon fill="white" stroke="#bfbfbf" points="644.828,-175 644.828,-195 699.172,-195 699.172,-175 644.828,-175"/>
<text text-anchor="middle" x="672" y="-181" font-family="Helvetica,sans-Serif" font-size="10.00">iostream</text>
</g>
<!-- Node16&#45;&gt;Node26 -->
<g id="edge32" class="edge"><title>Node16&#45;&gt;Node26</title>
<path fill="none" stroke="midnightblue" d="M684.523,-232.753C682.492,-225.169 679.55,-214.188 677.029,-204.774"/>
<polygon fill="midnightblue" stroke="midnightblue" points="680.399,-203.829 674.431,-195.075 673.637,-205.64 680.399,-203.829"/>
</g>
<!-- Node17&#45;&gt;Node12 -->
<g id="edge18" class="edge"><title>Node17&#45;&gt;Node12</title>
<path fill="none" stroke="midnightblue" d="M609.377,-174.939C627.912,-167.328 652.722,-154.963 670,-138 684.133,-124.125 694.533,-103.87 700.844,-89.0762"/>
<polygon fill="midnightblue" stroke="midnightblue" points="704.236,-90.0225 704.713,-79.4384 697.74,-87.4149 704.236,-90.0225"/>
</g>
<!-- Node18 -->
<g id="node18" class="node"><title>Node18</title>
<g id="a_node18"><a xlink:href="_buffer_8h.html" target="_top" xlink:title="cinder/Buffer.h">
<polygon fill="white" stroke="black" points="580.844,-117 580.844,-137 661.156,-137 661.156,-117 580.844,-117"/>
<text text-anchor="middle" x="621" y="-123" font-family="Helvetica,sans-Serif" font-size="10.00">cinder/Buffer.h</text>
</a>
</g>
</g>
<!-- Node17&#45;&gt;Node18 -->
<g id="edge19" class="edge"><title>Node17&#45;&gt;Node18</title>
<path fill="none" stroke="midnightblue" d="M590.11,-174.753C595.336,-166.843 603.004,-155.237 609.392,-145.568"/>
<polygon fill="midnightblue" stroke="midnightblue" points="612.411,-147.348 615.004,-137.075 606.571,-143.489 612.411,-147.348"/>
</g>
<!-- Node19 -->
<g id="node19" class="node"><title>Node19</title>
<g id="a_node19"><a xlink:href="_exception_8h.html" target="_top" xlink:title="cinder/Exception.h">
<polygon fill="white" stroke="black" points="830.865,-117 830.865,-137 929.135,-137 929.135,-117 830.865,-117"/>
<text text-anchor="middle" x="880" y="-123" font-family="Helvetica,sans-Serif" font-size="10.00">cinder/Exception.h</text>
</a>
</g>
</g>
<!-- Node17&#45;&gt;Node19 -->
<g id="edge21" class="edge"><title>Node17&#45;&gt;Node19</title>
<path fill="none" stroke="midnightblue" d="M627.409,-175.64C630.316,-175.084 633.2,-174.533 636,-174 699.585,-161.892 772.524,-148.162 821.968,-138.879"/>
<polygon fill="midnightblue" stroke="midnightblue" points="822.659,-142.31 831.842,-137.025 821.368,-135.43 822.659,-142.31"/>
</g>
<!-- Node21 -->
<g id="node21" class="node"><title>Node21</title>
<g id="a_node21"><a xlink:href="_filesystem_8h.html" target="_top" xlink:title="cinder/Filesystem.h">
<polygon fill="white" stroke="black" points="136.931,-117 136.931,-137 239.069,-137 239.069,-117 136.931,-117"/>
<text text-anchor="middle" x="188" y="-123" font-family="Helvetica,sans-Serif" font-size="10.00">cinder/Filesystem.h</text>
</a>
</g>
</g>
<!-- Node17&#45;&gt;Node21 -->
<g id="edge25" class="edge"><title>Node17&#45;&gt;Node21</title>
<path fill="none" stroke="midnightblue" d="M540.447,-178.449C478.205,-170.425 359.968,-154.848 249.363,-138.175"/>
<polygon fill="midnightblue" stroke="midnightblue" points="249.783,-134.699 239.371,-136.663 248.735,-141.62 249.783,-134.699"/>
</g>
<!-- Node23 -->
<g id="node23" class="node"><title>Node23</title>
<polygon fill="white" stroke="#bfbfbf" points="-0.708984,-117 -0.708984,-137 118.709,-137 118.709,-117 -0.708984,-117"/>
<text text-anchor="middle" x="59" y="-123" font-family="Helvetica,sans-Serif" font-size="10.00">boost/noncopyable.hpp</text>
</g>
<!-- Node17&#45;&gt;Node23 -->
<g id="edge28" class="edge"><title>Node17&#45;&gt;Node23</title>
<path fill="none" stroke="midnightblue" d="M540.547,-180.249C461.119,-173.256 286.931,-157.284 129.183,-138.1"/>
<polygon fill="midnightblue" stroke="midnightblue" points="129.169,-134.572 118.818,-136.831 128.319,-141.52 129.169,-134.572"/>
</g>
<!-- Node17&#45;&gt;Node20 -->
<g id="edge29" class="edge"><title>Node17&#45;&gt;Node20</title>
<path fill="none" stroke="midnightblue" d="M607.474,-174.959C660.859,-154.399 791.289,-104.166 850.225,-81.4674"/>
<polygon fill="midnightblue" stroke="midnightblue" points="851.633,-84.6757 859.707,-77.8155 849.117,-78.1434 851.633,-84.6757"/>
</g>
<!-- Node24 -->
<g id="node24" class="node"><title>Node24</title>
<polygon fill="white" stroke="#bfbfbf" points="256.574,-117 256.574,-137 405.426,-137 405.426,-117 256.574,-117"/>
<text text-anchor="middle" x="331" y="-123" font-family="Helvetica,sans-Serif" font-size="10.00">boost/iostreams/concepts.hpp</text>
</g>
<!-- Node17&#45;&gt;Node24 -->
<g id="edge30" class="edge"><title>Node17&#45;&gt;Node24</title>
<path fill="none" stroke="midnightblue" d="M543.07,-174.94C499.161,-165.222 429.36,-149.771 381.931,-139.273"/>
<polygon fill="midnightblue" stroke="midnightblue" points="382.391,-135.791 371.871,-137.047 380.878,-142.625 382.391,-135.791"/>
</g>
<!-- Node25 -->
<g id="node25" class="node"><title>Node25</title>
<polygon fill="white" stroke="#bfbfbf" points="423.306,-117 423.306,-137 562.694,-137 562.694,-117 423.306,-117"/>
<text text-anchor="middle" x="493" y="-123" font-family="Helvetica,sans-Serif" font-size="10.00">boost/iostreams/stream.hpp</text>
</g>
<!-- Node17&#45;&gt;Node25 -->
<g id="edge31" class="edge"><title>Node17&#45;&gt;Node25</title>
<path fill="none" stroke="midnightblue" d="M568.973,-174.753C554.662,-165.946 532.906,-152.558 516.338,-142.362"/>
<polygon fill="midnightblue" stroke="midnightblue" points="518.098,-139.335 507.747,-137.075 514.429,-145.297 518.098,-139.335"/>
</g>
<!-- Node18&#45;&gt;Node12 -->
<g id="edge20" class="edge"><title>Node18&#45;&gt;Node12</title>
<path fill="none" stroke="midnightblue" d="M635.366,-116.753C648.922,-108.027 669.464,-94.8051 685.247,-84.6458"/>
<polygon fill="midnightblue" stroke="midnightblue" points="687.387,-87.4307 693.901,-79.0752 683.598,-81.5447 687.387,-87.4307"/>
</g>
<!-- Node19&#45;&gt;Node12 -->
<g id="edge22" class="edge"><title>Node19&#45;&gt;Node12</title>
<path fill="none" stroke="midnightblue" d="M851.982,-116.878C823.036,-107.453 777.684,-92.6878 745.625,-82.2499"/>
<polygon fill="midnightblue" stroke="midnightblue" points="746.313,-78.7932 735.721,-79.0253 744.146,-85.4493 746.313,-78.7932"/>
</g>
<!-- Node19&#45;&gt;Node6 -->
<g id="edge23" class="edge"><title>Node19&#45;&gt;Node6</title>
<path fill="none" stroke="midnightblue" d="M915.999,-116.878C958.53,-106.101 1028.62,-88.3396 1069.22,-78.052"/>
<polygon fill="midnightblue" stroke="midnightblue" points="1070.28,-81.394 1079.12,-75.5448 1068.56,-74.6085 1070.28,-81.394"/>
</g>
<!-- Node19&#45;&gt;Node20 -->
<g id="edge24" class="edge"><title>Node19&#45;&gt;Node20</title>
<path fill="none" stroke="midnightblue" d="M880,-116.753C880,-109.25 880,-98.4238 880,-89.0781"/>
<polygon fill="midnightblue" stroke="midnightblue" points="883.5,-89.0752 880,-79.0752 876.5,-89.0752 883.5,-89.0752"/>
</g>
<!-- Node21&#45;&gt;Node12 -->
<g id="edge26" class="edge"><title>Node21&#45;&gt;Node12</title>
<path fill="none" stroke="midnightblue" d="M239.354,-117.214C242.276,-116.785 245.174,-116.376 248,-116 395.588,-96.3431 570.834,-81.0193 656.15,-74.071"/>
<polygon fill="midnightblue" stroke="midnightblue" points="656.662,-77.5411 666.347,-73.2456 656.097,-70.5639 656.662,-77.5411"/>
</g>
<!-- Node22 -->
<g id="node22" class="node"><title>Node22</title>
<polygon fill="white" stroke="#bfbfbf" points="134.421,-59 134.421,-79 241.579,-79 241.579,-59 134.421,-59"/>
<text text-anchor="middle" x="188" y="-65" font-family="Helvetica,sans-Serif" font-size="10.00">boost/filesystem.hpp</text>
</g>
<!-- Node21&#45;&gt;Node22 -->
<g id="edge27" class="edge"><title>Node21&#45;&gt;Node22</title>
<path fill="none" stroke="midnightblue" d="M188,-116.753C188,-109.25 188,-98.4238 188,-89.0781"/>
<polygon fill="midnightblue" stroke="midnightblue" points="191.5,-89.0752 188,-79.0752 184.5,-89.0752 191.5,-89.0752"/>
</g>
</g>
</svg>
        <g id="navigator" transform="translate(0 0)" fill="#404254">
                <rect fill="#f2f5e9" fill-opacity="0.5" stroke="#606060" stroke-width=".5" x="0" y="0" width="60" height="60"/>
                <use id="zoomplus" xlink:href="#zoomPlus" x="17" y="9" onmousedown="handleZoom(evt,'in')"/>
                <use id="zoomminus" xlink:href="#zoomMin" x="42" y="9" onmousedown="handleZoom(evt,'out')"/>
                <use id="reset" xlink:href="#resetDef" x="30" y="36" onmousedown="handleReset()"/>
                <g id="arrowUp" xlink:href="#dirArrow" transform="translate(30 24)" onmousedown="handlePan(0,-1)">
                  <use xlink:href="#rim" fill="#404040">
                        <set attributeName="fill" to="#808080" begin="arrowUp.mouseover" end="arrowUp.mouseout"/>
                  </use>
                  <path fill="none" stroke="white" stroke-width="1.5" d="M0,-3.0v7 M-2.5,-0.5L0,-3.0L2.5,-0.5"/>
                </g>
                <g id="arrowRight" xlink:href="#dirArrow" transform="rotate(90) translate(36 -43)" onmousedown="handlePan(1,0)">
                  <use xlink:href="#rim" fill="#404040">
                        <set attributeName="fill" to="#808080" begin="arrowRight.mouseover" end="arrowRight.mouseout"/>
                  </use>
                  <path fill="none" stroke="white" stroke-width="1.5" d="M0,-3.0v7 M-2.5,-0.5L0,-3.0L2.5,-0.5"/>
                </g>
                <g id="arrowDown" xlink:href="#dirArrow" transform="rotate(180) translate(-30 -48)" onmousedown="handlePan(0,1)">
                  <use xlink:href="#rim" fill="#404040">
                        <set attributeName="fill" to="#808080" begin="arrowDown.mouseover" end="arrowDown.mouseout"/>
                  </use>
                  <path fill="none" stroke="white" stroke-width="1.5" d="M0,-3.0v7 M-2.5,-0.5L0,-3.0L2.5,-0.5"/>
                </g>
                <g id="arrowLeft" xlink:href="#dirArrow" transform="rotate(270) translate(-36 17)" onmousedown="handlePan(-1,0)">
                  <use xlink:href="#rim" fill="#404040">
                        <set attributeName="fill" to="#808080" begin="arrowLeft.mouseover" end="arrowLeft.mouseout"/>
                  </use>
                  <path fill="none" stroke="white" stroke-width="1.5" d="M0,-3.0v7 M-2.5,-0.5L0,-3.0L2.5,-0.5"/>
                </g>
        </g>
        <svg viewBox="0 0 15 15" width="100%" height="30px" preserveAspectRatio="xMaxYMin meet">
         <g id="arrow_out" transform="scale(0.3 0.3)">
          <a xlink:href="_target_8h__incl_org.svg" target="_base">
           <rect id="button" ry="5" rx="5" y="6" x="6" height="38" width="38"
                fill="#f2f5e9" fill-opacity="0.5" stroke="#606060" stroke-width="1.0"/>
           <path id="arrow"
             d="M 11.500037,31.436501 C 11.940474,20.09759 22.043105,11.32322 32.158766,21.979434 L 37.068811,17.246167 C 37.068811,17.246167 37.088388,32 37.088388,32 L 22.160133,31.978069 C 22.160133,31.978069 26.997745,27.140456 26.997745,27.140456 C 18.528582,18.264221 13.291696,25.230495 11.500037,31.436501 z"
             style="fill:#404040;"/>
          </a>
         </g>
        </svg>
</svg>
