<?xml version="1.0" encoding="UTF-8" standalone="no"?>
<!DOCTYPE svg PUBLIC "-//W3C//DTD SVG 1.1//EN"
 "http://www.w3.org/Graphics/SVG/1.1/DTD/svg11.dtd">
<!-- Generated by graphviz version 2.30.1 (20140712.1814)
 -->
<!-- Title: include/cinder/gl/Texture.h Pages: 1 -->
<svg width="916pt" height="240pt"
 viewBox="0.00 0.00 916.00 240.00" xmlns="http://www.w3.org/2000/svg" xmlns:xlink="http://www.w3.org/1999/xlink">
<g id="graph0" class="graph" transform="scale(1 1) rotate(0) translate(4 236)">
<title>include/cinder/gl/Texture.h</title>
<polygon fill="white" stroke="white" points="-4,5 -4,-236 913,-236 913,5 -4,5"/>
<!-- Node1 -->
<g id="node1" class="node"><title>Node1</title>
<polygon fill="#bfbfbf" stroke="black" points="474.912,-211 474.912,-231 607.088,-231 607.088,-211 474.912,-211"/>
<text text-anchor="middle" x="541" y="-217" font-family="Helvetica,sans-Serif" font-size="10.00">include/cinder/gl/Texture.h</text>
</g>
<!-- Node2 -->
<g id="node2" class="node"><title>Node2</title>
<g id="a_node2"><a xlink:href="_fbo_8h.html" target="_top" xlink:title="include/cinder/gl/Fbo.h">
<polygon fill="white" stroke="black" points="135.692,-147 135.692,-167 252.308,-167 252.308,-147 135.692,-147"/>
<text text-anchor="middle" x="194" y="-153" font-family="Helvetica,sans-Serif" font-size="10.00">include/cinder/gl/Fbo.h</text>
</a>
</g>
</g>
<!-- Node1&#45;&gt;Node2 -->
<g id="edge1" class="edge"><title>Node1&#45;&gt;Node2</title>
<path fill="none" stroke="midnightblue" d="M475.296,-209.284C420.982,-200.291 341.878,-186.883 273,-174 261.446,-171.839 248.968,-169.373 237.417,-167.036"/>
<polygon fill="midnightblue" stroke="midnightblue" points="475.043,-212.79 485.48,-210.967 476.184,-205.884 475.043,-212.79"/>
</g>
<!-- Node6 -->
<g id="node6" class="node"><title>Node6</title>
<g id="a_node6"><a xlink:href="_texture_font_8h.html" target="_top" xlink:title="include/cinder/gl/Texture\lFont.h">
<polygon fill="white" stroke="black" points="282.082,-141 282.082,-173 405.918,-173 405.918,-141 282.082,-141"/>
<text text-anchor="start" x="290.082" y="-159" font-family="Helvetica,sans-Serif" font-size="10.00">include/cinder/gl/Texture</text>
<text text-anchor="middle" x="344" y="-147" font-family="Helvetica,sans-Serif" font-size="10.00">Font.h</text>
</a>
</g>
</g>
<!-- Node1&#45;&gt;Node6 -->
<g id="edge5" class="edge"><title>Node1&#45;&gt;Node6</title>
<path fill="none" stroke="midnightblue" d="M502.567,-207.904C470.871,-197.929 425.753,-183.729 391.743,-173.026"/>
<polygon fill="midnightblue" stroke="midnightblue" points="501.765,-211.321 512.355,-210.985 503.866,-204.644 501.765,-211.321"/>
</g>
<!-- Node8 -->
<g id="node8" class="node"><title>Node8</title>
<g id="a_node8"><a xlink:href="_quick_time_8h.html" target="_top" xlink:title="include/cinder/qtime\l/QuickTime.h">
<polygon fill="white" stroke="black" points="429.532,-141 429.532,-173 534.468,-173 534.468,-141 429.532,-141"/>
<text text-anchor="start" x="437.532" y="-159" font-family="Helvetica,sans-Serif" font-size="10.00">include/cinder/qtime</text>
<text text-anchor="middle" x="482" y="-147" font-family="Helvetica,sans-Serif" font-size="10.00">/QuickTime.h</text>
</a>
</g>
</g>
<!-- Node1&#45;&gt;Node8 -->
<g id="edge7" class="edge"><title>Node1&#45;&gt;Node8</title>
<path fill="none" stroke="midnightblue" d="M525.168,-203.363C516.316,-194.061 505.355,-182.542 496.693,-173.44"/>
<polygon fill="midnightblue" stroke="midnightblue" points="522.865,-206.02 532.294,-210.852 527.936,-201.195 522.865,-206.02"/>
</g>
<!-- Node13 -->
<g id="node13" class="node"><title>Node13</title>
<g id="a_node13"><a xlink:href="_svg_gl_8h.html" target="_top" xlink:title="include/cinder/svg\l/SvgGl.h">
<polygon fill="white" stroke="black" points="551.978,-141 551.978,-173 648.022,-173 648.022,-141 551.978,-141"/>
<text text-anchor="start" x="559.978" y="-159" font-family="Helvetica,sans-Serif" font-size="10.00">include/cinder/svg</text>
<text text-anchor="middle" x="600" y="-147" font-family="Helvetica,sans-Serif" font-size="10.00">/SvgGl.h</text>
</a>
</g>
</g>
<!-- Node1&#45;&gt;Node13 -->
<g id="edge12" class="edge"><title>Node1&#45;&gt;Node13</title>
<path fill="none" stroke="midnightblue" d="M556.832,-203.363C565.684,-194.061 576.645,-182.542 585.307,-173.44"/>
<polygon fill="midnightblue" stroke="midnightblue" points="554.064,-201.195 549.706,-210.852 559.135,-206.02 554.064,-201.195"/>
</g>
<!-- Node14 -->
<g id="node14" class="node"><title>Node14</title>
<g id="a_node14"><a xlink:href="gl_8cpp.html" target="_top" xlink:title="src/cinder/gl/gl.cpp">
<polygon fill="white" stroke="black" points="666.315,-147 666.315,-167 765.685,-167 765.685,-147 666.315,-147"/>
<text text-anchor="middle" x="716" y="-153" font-family="Helvetica,sans-Serif" font-size="10.00">src/cinder/gl/gl.cpp</text>
</a>
</g>
</g>
<!-- Node1&#45;&gt;Node14 -->
<g id="edge13" class="edge"><title>Node1&#45;&gt;Node14</title>
<path fill="none" stroke="midnightblue" d="M575.948,-207.619C609.796,-195.627 660.311,-177.73 690.523,-167.026"/>
<polygon fill="midnightblue" stroke="midnightblue" points="574.704,-204.346 566.447,-210.985 577.041,-210.944 574.704,-204.346"/>
</g>
<!-- Node15 -->
<g id="node15" class="node"><title>Node15</title>
<g id="a_node15"><a xlink:href="_texture_8cpp.html" target="_top" xlink:title="src/cinder/gl/Texture.cpp">
<polygon fill="white" stroke="black" points="783.811,-147 783.811,-167 908.189,-167 908.189,-147 783.811,-147"/>
<text text-anchor="middle" x="846" y="-153" font-family="Helvetica,sans-Serif" font-size="10.00">src/cinder/gl/Texture.cpp</text>
</a>
</g>
</g>
<!-- Node1&#45;&gt;Node15 -->
<g id="edge14" class="edge"><title>Node1&#45;&gt;Node15</title>
<path fill="none" stroke="midnightblue" d="M598.404,-209.061C645.612,-199.97 714.224,-186.541 774,-174 784.402,-171.818 795.627,-169.369 806.048,-167.055"/>
<polygon fill="midnightblue" stroke="midnightblue" points="597.529,-205.665 588.37,-210.99 598.851,-212.539 597.529,-205.665"/>
</g>
<!-- Node3 -->
<g id="node3" class="node"><title>Node3</title>
<g id="a_node3"><a xlink:href="_stereo_auto_focuser_8h.html" target="_top" xlink:title="include/cinder/gl/Stereo\lAutoFocuser.h">
<polygon fill="white" stroke="black" points="0.746582,-71 0.746582,-103 121.253,-103 121.253,-71 0.746582,-71"/>
<text text-anchor="start" x="8.74658" y="-89" font-family="Helvetica,sans-Serif" font-size="10.00">include/cinder/gl/Stereo</text>
<text text-anchor="middle" x="61" y="-77" font-family="Helvetica,sans-Serif" font-size="10.00">AutoFocuser.h</text>
</a>
</g>
</g>
<!-- Node2&#45;&gt;Node3 -->
<g id="edge2" class="edge"><title>Node2&#45;&gt;Node3</title>
<path fill="none" stroke="midnightblue" d="M167.14,-142.267C144.913,-130.903 113.381,-114.781 90.4641,-103.064"/>
<polygon fill="midnightblue" stroke="midnightblue" points="165.842,-145.534 176.339,-146.97 169.028,-139.301 165.842,-145.534"/>
</g>
<!-- Node5 -->
<g id="node5" class="node"><title>Node5</title>
<g id="a_node5"><a xlink:href="_fbo_8cpp.html" target="_top" xlink:title="src/cinder/gl/Fbo.cpp">
<polygon fill="white" stroke="black" points="139.591,-77 139.591,-97 248.409,-97 248.409,-77 139.591,-77"/>
<text text-anchor="middle" x="194" y="-83" font-family="Helvetica,sans-Serif" font-size="10.00">src/cinder/gl/Fbo.cpp</text>
</a>
</g>
</g>
<!-- Node2&#45;&gt;Node5 -->
<g id="edge4" class="edge"><title>Node2&#45;&gt;Node5</title>
<path fill="none" stroke="midnightblue" d="M194,-136.557C194,-123.557 194,-107.057 194,-97.0255"/>
<polygon fill="midnightblue" stroke="midnightblue" points="190.5,-136.829 194,-146.829 197.5,-136.829 190.5,-136.829"/>
</g>
<!-- Node4 -->
<g id="node4" class="node"><title>Node4</title>
<g id="a_node4"><a xlink:href="_stereo_auto_focuser_8cpp.html" target="_top" xlink:title="src/cinder/gl/StereoAuto\lFocuser.cpp">
<polygon fill="white" stroke="black" points="-0.359375,-1 -0.359375,-33 122.359,-33 122.359,-1 -0.359375,-1"/>
<text text-anchor="start" x="7.64062" y="-19" font-family="Helvetica,sans-Serif" font-size="10.00">src/cinder/gl/StereoAuto</text>
<text text-anchor="middle" x="61" y="-7" font-family="Helvetica,sans-Serif" font-size="10.00">Focuser.cpp</text>
</a>
</g>
</g>
<!-- Node3&#45;&gt;Node4 -->
<g id="edge3" class="edge"><title>Node3&#45;&gt;Node4</title>
<path fill="none" stroke="midnightblue" d="M61,-60.6174C61,-51.3378 61,-41.1413 61,-33.0492"/>
<polygon fill="midnightblue" stroke="midnightblue" points="57.5001,-60.9086 61,-70.9086 64.5001,-60.9086 57.5001,-60.9086"/>
</g>
<!-- Node7 -->
<g id="node7" class="node"><title>Node7</title>
<g id="a_node7"><a xlink:href="_texture_font_8cpp.html" target="_top" xlink:title="src/cinder/gl/TextureFont.cpp">
<polygon fill="white" stroke="black" points="266.806,-77 266.806,-97 411.194,-97 411.194,-77 266.806,-77"/>
<text text-anchor="middle" x="339" y="-83" font-family="Helvetica,sans-Serif" font-size="10.00">src/cinder/gl/TextureFont.cpp</text>
</a>
</g>
</g>
<!-- Node6&#45;&gt;Node7 -->
<g id="edge6" class="edge"><title>Node6&#45;&gt;Node7</title>
<path fill="none" stroke="midnightblue" d="M342.137,-130.668C341.27,-118.865 340.292,-105.57 339.662,-97.0035"/>
<polygon fill="midnightblue" stroke="midnightblue" points="338.666,-131.192 342.89,-140.909 345.648,-130.679 338.666,-131.192"/>
</g>
<!-- Node9 -->
<g id="node9" class="node"><title>Node9</title>
<g id="a_node9"><a xlink:href="_movie_writer_8h.html" target="_top" xlink:title="include/cinder/qtime\l/MovieWriter.h">
<polygon fill="white" stroke="black" points="429.532,-71 429.532,-103 534.468,-103 534.468,-71 429.532,-71"/>
<text text-anchor="start" x="437.532" y="-89" font-family="Helvetica,sans-Serif" font-size="10.00">include/cinder/qtime</text>
<text text-anchor="middle" x="482" y="-77" font-family="Helvetica,sans-Serif" font-size="10.00">/MovieWriter.h</text>
</a>
</g>
</g>
<!-- Node8&#45;&gt;Node9 -->
<g id="edge8" class="edge"><title>Node8&#45;&gt;Node9</title>
<path fill="none" stroke="midnightblue" d="M482,-130.617C482,-121.338 482,-111.141 482,-103.049"/>
<polygon fill="midnightblue" stroke="midnightblue" points="478.5,-130.909 482,-140.909 485.5,-130.909 478.5,-130.909"/>
</g>
<!-- Node11 -->
<g id="node11" class="node"><title>Node11</title>
<g id="a_node11"><a xlink:href="_quick_time_8cpp.html" target="_top" xlink:title="src/cinder/qtime/QuickTime.cpp">
<polygon fill="white" stroke="black" points="552.164,-77 552.164,-97 707.836,-97 707.836,-77 552.164,-77"/>
<text text-anchor="middle" x="630" y="-83" font-family="Helvetica,sans-Serif" font-size="10.00">src/cinder/qtime/QuickTime.cpp</text>
</a>
</g>
</g>
<!-- Node8&#45;&gt;Node11 -->
<g id="edge10" class="edge"><title>Node8&#45;&gt;Node11</title>
<path fill="none" stroke="midnightblue" d="M524.131,-136.643C552.473,-123.62 588.526,-107.055 610.404,-97.0035"/>
<polygon fill="midnightblue" stroke="midnightblue" points="522.472,-133.553 514.846,-140.909 525.394,-139.914 522.472,-133.553"/>
</g>
<!-- Node12 -->
<g id="node12" class="node"><title>Node12</title>
<g id="a_node12"><a xlink:href="_quick_time_utils_8cpp.html" target="_top" xlink:title="src/cinder/qtime/QuickTime\lUtils.cpp">
<polygon fill="white" stroke="black" points="725.614,-71 725.614,-103 862.386,-103 862.386,-71 725.614,-71"/>
<text text-anchor="start" x="733.614" y="-89" font-family="Helvetica,sans-Serif" font-size="10.00">src/cinder/qtime/QuickTime</text>
<text text-anchor="middle" x="794" y="-77" font-family="Helvetica,sans-Serif" font-size="10.00">Utils.cpp</text>
</a>
</g>
</g>
<!-- Node8&#45;&gt;Node12 -->
<g id="edge11" class="edge"><title>Node8&#45;&gt;Node12</title>
<path fill="none" stroke="midnightblue" d="M544.389,-139.827C576.278,-132.878 662.862,-115.004 725.434,-102.113"/>
<polygon fill="midnightblue" stroke="midnightblue" points="543.522,-136.434 534.529,-142.036 545.052,-143.265 543.522,-136.434"/>
</g>
<!-- Node10 -->
<g id="node10" class="node"><title>Node10</title>
<g id="a_node10"><a xlink:href="_movie_writer_8cpp.html" target="_top" xlink:title="src/cinder/qtime/MovieWriter.cpp">
<polygon fill="white" stroke="black" points="401.566,-7 401.566,-27 562.434,-27 562.434,-7 401.566,-7"/>
<text text-anchor="middle" x="482" y="-13" font-family="Helvetica,sans-Serif" font-size="10.00">src/cinder/qtime/MovieWriter.cpp</text>
</a>
</g>
</g>
<!-- Node9&#45;&gt;Node10 -->
<g id="edge9" class="edge"><title>Node9&#45;&gt;Node10</title>
<path fill="none" stroke="midnightblue" d="M482,-60.6678C482,-48.8652 482,-35.5695 482,-27.0035"/>
<polygon fill="midnightblue" stroke="midnightblue" points="478.5,-60.9086 482,-70.9086 485.5,-60.9086 478.5,-60.9086"/>
</g>
</g>
</svg>
