<?xml version="1.0" encoding="UTF-8" standalone="no"?>
<!DOCTYPE svg PUBLIC "-//W3C//DTD SVG 1.1//EN"
 "http://www.w3.org/Graphics/SVG/1.1/DTD/svg11.dtd">
<!-- Generated by graphviz version 2.30.1 (20140712.1814)
 -->
<!-- Title: include/cinder/Text.h Pages: 1 -->
<svg width="2140pt" height="552pt"
 viewBox="0.00 0.00 2140.00 552.00" xmlns="http://www.w3.org/2000/svg" xmlns:xlink="http://www.w3.org/1999/xlink">
<g id="graph0" class="graph" transform="scale(1 1) rotate(0) translate(4 548)">
<title>include/cinder/Text.h</title>
<polygon fill="white" stroke="white" points="-4,5 -4,-548 2137,-548 2137,5 -4,5"/>
<!-- Node1 -->
<g id="node1" class="node"><title>Node1</title>
<polygon fill="#bfbfbf" stroke="black" points="1084.42,-523 1084.42,-543 1191.58,-543 1191.58,-523 1084.42,-523"/>
<text text-anchor="middle" x="1138" y="-529" font-family="Helvetica,sans-Serif" font-size="10.00">include/cinder/Text.h</text>
</g>
<!-- Node2 -->
<g id="node2" class="node"><title>Node2</title>
<g id="a_node2"><a xlink:href="_cinder_8h.html" target="_top" xlink:title="cinder/Cinder.h">
<polygon fill="white" stroke="black" points="905.367,-59 905.367,-79 988.633,-79 988.633,-59 905.367,-59"/>
<text text-anchor="middle" x="947" y="-65" font-family="Helvetica,sans-Serif" font-size="10.00">cinder/Cinder.h</text>
</a>
</g>
</g>
<!-- Node1&#45;&gt;Node2 -->
<g id="edge1" class="edge"><title>Node1&#45;&gt;Node2</title>
<path fill="none" stroke="midnightblue" d="M1084.26,-532.33C858.686,-533.017 0,-528.386 0,-418 0,-418 0,-418 0,-184 0,-144.564 21.7059,-133.592 57,-116 131.884,-78.6741 715.675,-71.5839 894.869,-70.2826"/>
<polygon fill="midnightblue" stroke="midnightblue" points="895.114,-73.7811 905.089,-70.2115 895.065,-66.7813 895.114,-73.7811"/>
</g>
<!-- Node6 -->
<g id="node6" class="node"><title>Node6</title>
<g id="a_node6"><a xlink:href="_surface_8h.html" target="_top" xlink:title="cinder/Surface.h">
<polygon fill="white" stroke="black" points="1761.59,-349 1761.59,-369 1850.41,-369 1850.41,-349 1761.59,-349"/>
<text text-anchor="middle" x="1806" y="-355" font-family="Helvetica,sans-Serif" font-size="10.00">cinder/Surface.h</text>
</a>
</g>
</g>
<!-- Node1&#45;&gt;Node6 -->
<g id="edge5" class="edge"><title>Node1&#45;&gt;Node6</title>
<path fill="none" stroke="midnightblue" d="M1191.83,-530.017C1299.26,-525.533 1536.48,-512.848 1613,-486 1650.11,-472.978 1744.03,-405.661 1785.63,-375.111"/>
<polygon fill="midnightblue" stroke="midnightblue" points="1787.93,-377.766 1793.9,-369.015 1783.77,-372.131 1787.93,-377.766"/>
</g>
<!-- Node26 -->
<g id="node26" class="node"><title>Node26</title>
<g id="a_node26"><a xlink:href="_font_8h.html" target="_top" xlink:title="cinder/Font.h">
<polygon fill="white" stroke="black" points="948.818,-465 948.818,-485 1023.18,-485 1023.18,-465 948.818,-465"/>
<text text-anchor="middle" x="986" y="-471" font-family="Helvetica,sans-Serif" font-size="10.00">cinder/Font.h</text>
</a>
</g>
</g>
<!-- Node1&#45;&gt;Node26 -->
<g id="edge38" class="edge"><title>Node1&#45;&gt;Node26</title>
<path fill="none" stroke="midnightblue" d="M1113.24,-522.878C1087.96,-513.563 1048.51,-499.03 1020.24,-488.615"/>
<polygon fill="midnightblue" stroke="midnightblue" points="1021.34,-485.291 1010.75,-485.118 1018.92,-491.859 1021.34,-485.291"/>
</g>
<!-- Node8 -->
<g id="node8" class="node"><title>Node8</title>
<g id="a_node8"><a xlink:href="_vector_8h.html" target="_top" xlink:title="cinder/Vector.h">
<polygon fill="white" stroke="black" points="1468.92,-175 1468.92,-195 1551.08,-195 1551.08,-175 1468.92,-175"/>
<text text-anchor="middle" x="1510" y="-181" font-family="Helvetica,sans-Serif" font-size="10.00">cinder/Vector.h</text>
</a>
</g>
</g>
<!-- Node1&#45;&gt;Node8 -->
<g id="edge85" class="edge"><title>Node1&#45;&gt;Node8</title>
<path fill="none" stroke="midnightblue" d="M1191.78,-529.994C1313.39,-523.995 1599,-501.064 1599,-418 1599,-418 1599,-418 1599,-358 1599,-326.62 1601.3,-316.564 1618,-290 1634.8,-263.276 1677.74,-257.402 1659,-232 1652.71,-223.472 1598.37,-208.166 1557.11,-197.565"/>
<polygon fill="midnightblue" stroke="midnightblue" points="1557.76,-194.119 1547.21,-195.045 1556.03,-200.902 1557.76,-194.119"/>
</g>
<!-- Node19 -->
<g id="node19" class="node"><title>Node19</title>
<polygon fill="white" stroke="#bfbfbf" points="1142.38,-175 1142.38,-195 1185.62,-195 1185.62,-175 1142.38,-175"/>
<text text-anchor="middle" x="1164" y="-181" font-family="Helvetica,sans-Serif" font-size="10.00">vector</text>
</g>
<!-- Node1&#45;&gt;Node19 -->
<g id="edge86" class="edge"><title>Node1&#45;&gt;Node19</title>
<path fill="none" stroke="midnightblue" d="M1138,-522.838C1138,-503.48 1138,-456.99 1138,-418 1138,-418 1138,-418 1138,-300 1138,-265.633 1149.37,-226.864 1157.07,-204.546"/>
<polygon fill="midnightblue" stroke="midnightblue" points="1160.41,-205.597 1160.49,-195.002 1153.82,-203.235 1160.41,-205.597"/>
</g>
<!-- Node42 -->
<g id="node42" class="node"><title>Node42</title>
<polygon fill="white" stroke="#bfbfbf" points="1665.1,-465 1665.1,-485 1708.9,-485 1708.9,-465 1665.1,-465"/>
<text text-anchor="middle" x="1687" y="-471" font-family="Helvetica,sans-Serif" font-size="10.00">deque</text>
</g>
<!-- Node1&#45;&gt;Node42 -->
<g id="edge87" class="edge"><title>Node1&#45;&gt;Node42</title>
<path fill="none" stroke="midnightblue" d="M1191.6,-530.393C1285.41,-526.87 1485.17,-516.208 1651,-486 1652.29,-485.765 1653.61,-485.504 1654.93,-485.223"/>
<polygon fill="midnightblue" stroke="midnightblue" points="1656.16,-488.525 1665.06,-482.775 1654.52,-481.721 1656.16,-488.525"/>
</g>
<!-- Node32 -->
<g id="node32" class="node"><title>Node32</title>
<polygon fill="white" stroke="#bfbfbf" points="989.773,-175 989.773,-195 1030.23,-195 1030.23,-175 989.773,-175"/>
<text text-anchor="middle" x="1010" y="-181" font-family="Helvetica,sans-Serif" font-size="10.00">string</text>
</g>
<!-- Node1&#45;&gt;Node32 -->
<g id="edge88" class="edge"><title>Node1&#45;&gt;Node32</title>
<path fill="none" stroke="midnightblue" d="M1126.12,-522.751C1104.75,-504.96 1062,-463.67 1062,-418 1062,-418 1062,-418 1062,-300 1062,-262.883 1038.9,-224.601 1023.49,-203.196"/>
<polygon fill="midnightblue" stroke="midnightblue" points="1026.24,-201.024 1017.45,-195.108 1020.63,-205.214 1026.24,-201.024"/>
</g>
<!-- Node3 -->
<g id="node3" class="node"><title>Node3</title>
<polygon fill="white" stroke="#bfbfbf" points="836.549,-1 836.549,-21 881.451,-21 881.451,-1 836.549,-1"/>
<text text-anchor="middle" x="859" y="-7" font-family="Helvetica,sans-Serif" font-size="10.00">cstdint</text>
</g>
<!-- Node2&#45;&gt;Node3 -->
<g id="edge2" class="edge"><title>Node2&#45;&gt;Node3</title>
<path fill="none" stroke="midnightblue" d="M932.469,-58.7527C918.757,-50.0272 897.979,-36.8051 882.015,-26.6458"/>
<polygon fill="midnightblue" stroke="midnightblue" points="883.577,-23.4912 873.261,-21.0752 879.819,-29.3968 883.577,-23.4912"/>
</g>
<!-- Node4 -->
<g id="node4" class="node"><title>Node4</title>
<polygon fill="white" stroke="#bfbfbf" points="899.53,-1 899.53,-21 994.47,-21 994.47,-1 899.53,-1"/>
<text text-anchor="middle" x="947" y="-7" font-family="Helvetica,sans-Serif" font-size="10.00">boost/version.hpp</text>
</g>
<!-- Node2&#45;&gt;Node4 -->
<g id="edge3" class="edge"><title>Node2&#45;&gt;Node4</title>
<path fill="none" stroke="midnightblue" d="M947,-58.7527C947,-51.2504 947,-40.4238 947,-31.0781"/>
<polygon fill="midnightblue" stroke="midnightblue" points="950.5,-31.0752 947,-21.0752 943.5,-31.0752 950.5,-31.0752"/>
</g>
<!-- Node5 -->
<g id="node5" class="node"><title>Node5</title>
<polygon fill="white" stroke="#bfbfbf" points="1012.62,-1 1012.62,-21 1145.38,-21 1145.38,-1 1012.62,-1"/>
<text text-anchor="middle" x="1079" y="-7" font-family="Helvetica,sans-Serif" font-size="10.00">boost/checked_delete.hpp</text>
</g>
<!-- Node2&#45;&gt;Node5 -->
<g id="edge4" class="edge"><title>Node2&#45;&gt;Node5</title>
<path fill="none" stroke="midnightblue" d="M968.502,-58.878C990.172,-49.6848 1023.82,-35.4095 1048.3,-25.0263"/>
<polygon fill="midnightblue" stroke="midnightblue" points="1049.67,-28.2457 1057.51,-21.1181 1046.93,-21.8016 1049.67,-28.2457"/>
</g>
<!-- Node6&#45;&gt;Node2 -->
<g id="edge6" class="edge"><title>Node6&#45;&gt;Node2</title>
<path fill="none" stroke="midnightblue" d="M1843.99,-348.998C1863.44,-342.258 1885.41,-330.849 1897,-312 1902.12,-303.671 1900.31,-299.199 1897,-290 1861.1,-190.303 1832.17,-155.89 1734,-116 1666.3,-88.4924 1163.86,-74.8671 999.133,-71.1055"/>
<polygon fill="midnightblue" stroke="midnightblue" points="998.856,-67.5984 988.779,-70.8719 998.698,-74.5967 998.856,-67.5984"/>
</g>
<!-- Node7 -->
<g id="node7" class="node"><title>Node7</title>
<g id="a_node7"><a xlink:href="_area_8h.html" target="_top" xlink:title="cinder/Area.h">
<polygon fill="white" stroke="black" points="1706.26,-233 1706.26,-253 1781.74,-253 1781.74,-233 1706.26,-233"/>
<text text-anchor="middle" x="1744" y="-239" font-family="Helvetica,sans-Serif" font-size="10.00">cinder/Area.h</text>
</a>
</g>
</g>
<!-- Node6&#45;&gt;Node7 -->
<g id="edge7" class="edge"><title>Node6&#45;&gt;Node7</title>
<path fill="none" stroke="midnightblue" d="M1800.93,-348.671C1790.66,-329.789 1767.25,-286.754 1753.87,-262.149"/>
<polygon fill="midnightblue" stroke="midnightblue" points="1756.82,-260.252 1748.97,-253.139 1750.67,-263.596 1756.82,-260.252"/>
</g>
<!-- Node20 -->
<g id="node20" class="node"><title>Node20</title>
<g id="a_node20"><a xlink:href="_channel_8h.html" target="_top" xlink:title="cinder/Channel.h">
<polygon fill="white" stroke="black" points="1797.2,-291 1797.2,-311 1888.8,-311 1888.8,-291 1797.2,-291"/>
<text text-anchor="middle" x="1843" y="-297" font-family="Helvetica,sans-Serif" font-size="10.00">cinder/Channel.h</text>
</a>
</g>
</g>
<!-- Node6&#45;&gt;Node20 -->
<g id="edge24" class="edge"><title>Node6&#45;&gt;Node20</title>
<path fill="none" stroke="midnightblue" d="M1812.11,-348.753C1817.34,-340.843 1825,-329.237 1831.39,-319.568"/>
<polygon fill="midnightblue" stroke="midnightblue" points="1834.41,-321.348 1837,-311.075 1828.57,-317.489 1834.41,-321.348"/>
</g>
<!-- Node21 -->
<g id="node21" class="node"><title>Node21</title>
<g id="a_node21"><a xlink:href="_chan_traits_8h.html" target="_top" xlink:title="cinder/ChanTraits.h">
<polygon fill="white" stroke="black" points="1884.55,-175 1884.55,-195 1987.45,-195 1987.45,-175 1884.55,-175"/>
<text text-anchor="middle" x="1936" y="-181" font-family="Helvetica,sans-Serif" font-size="10.00">cinder/ChanTraits.h</text>
</a>
</g>
</g>
<!-- Node6&#45;&gt;Node21 -->
<g id="edge27" class="edge"><title>Node6&#45;&gt;Node21</title>
<path fill="none" stroke="midnightblue" d="M1850.45,-353.917C1878.38,-348.825 1912.5,-337.432 1931,-312 1953.99,-280.399 1947.35,-231.608 1941.22,-204.963"/>
<polygon fill="midnightblue" stroke="midnightblue" points="1944.55,-203.856 1938.72,-195.014 1937.77,-205.566 1944.55,-203.856"/>
</g>
<!-- Node22 -->
<g id="node22" class="node"><title>Node22</title>
<g id="a_node22"><a xlink:href="_color_8h.html" target="_top" xlink:title="cinder/Color.h">
<polygon fill="white" stroke="black" points="1983.15,-233 1983.15,-253 2060.85,-253 2060.85,-233 1983.15,-233"/>
<text text-anchor="middle" x="2022" y="-239" font-family="Helvetica,sans-Serif" font-size="10.00">cinder/Color.h</text>
</a>
</g>
</g>
<!-- Node6&#45;&gt;Node22 -->
<g id="edge29" class="edge"><title>Node6&#45;&gt;Node22</title>
<path fill="none" stroke="midnightblue" d="M1850.69,-353.086C1885.37,-347.546 1933.37,-335.952 1969,-312 1987.75,-299.395 2002.81,-278.015 2012.02,-262.59"/>
<polygon fill="midnightblue" stroke="midnightblue" points="2015.31,-263.888 2017.2,-253.465 2009.22,-260.43 2015.31,-263.888"/>
</g>
<!-- Node23 -->
<g id="node23" class="node"><title>Node23</title>
<g id="a_node23"><a xlink:href="_filesystem_8h.html" target="_top" xlink:title="cinder/Filesystem.h">
<polygon fill="white" stroke="black" points="201.931,-233 201.931,-253 304.069,-253 304.069,-233 201.931,-233"/>
<text text-anchor="middle" x="253" y="-239" font-family="Helvetica,sans-Serif" font-size="10.00">cinder/Filesystem.h</text>
</a>
</g>
</g>
<!-- Node6&#45;&gt;Node23 -->
<g id="edge34" class="edge"><title>Node6&#45;&gt;Node23</title>
<path fill="none" stroke="midnightblue" d="M1761.29,-356.843C1523.03,-350.643 412.185,-321.285 378,-312 338.045,-301.148 296.832,-275.362 273.132,-258.846"/>
<polygon fill="midnightblue" stroke="midnightblue" points="275.122,-255.966 264.945,-253.02 271.064,-261.67 275.122,-255.966"/>
</g>
<!-- Node25 -->
<g id="node25" class="node"><title>Node25</title>
<polygon fill="white" stroke="#bfbfbf" points="1627.36,-291 1627.36,-311 1740.64,-311 1740.64,-291 1627.36,-291"/>
<text text-anchor="middle" x="1684" y="-297" font-family="Helvetica,sans-Serif" font-size="10.00">boost/logic/tribool.hpp</text>
</g>
<!-- Node6&#45;&gt;Node25 -->
<g id="edge37" class="edge"><title>Node6&#45;&gt;Node25</title>
<path fill="none" stroke="midnightblue" d="M1786.13,-348.878C1766.28,-339.766 1735.55,-325.662 1712.98,-315.303"/>
<polygon fill="midnightblue" stroke="midnightblue" points="1714.41,-312.109 1703.86,-311.118 1711.49,-318.471 1714.41,-312.109"/>
</g>
<!-- Node7&#45;&gt;Node2 -->
<g id="edge8" class="edge"><title>Node7&#45;&gt;Node2</title>
<path fill="none" stroke="midnightblue" d="M1750.63,-232.94C1759.8,-219.211 1773.93,-192.752 1762,-174 1729.34,-122.667 1696.92,-131.17 1638,-116 1517.29,-84.9212 1138.81,-74.01 999.306,-70.9853"/>
<polygon fill="midnightblue" stroke="midnightblue" points="998.971,-67.4775 988.899,-70.7647 998.823,-74.4759 998.971,-67.4775"/>
</g>
<!-- Node7&#45;&gt;Node8 -->
<g id="edge9" class="edge"><title>Node7&#45;&gt;Node8</title>
<path fill="none" stroke="midnightblue" d="M1706.14,-232.94C1665.7,-223.262 1601.51,-207.901 1557.66,-197.406"/>
<polygon fill="midnightblue" stroke="midnightblue" points="1558.34,-193.97 1547.8,-195.047 1556.71,-200.778 1558.34,-193.97"/>
</g>
<!-- Node11 -->
<g id="node11" class="node"><title>Node11</title>
<polygon fill="white" stroke="#bfbfbf" points="1387.83,-117 1387.83,-137 1442.17,-137 1442.17,-117 1387.83,-117"/>
<text text-anchor="middle" x="1415" y="-123" font-family="Helvetica,sans-Serif" font-size="10.00">iostream</text>
</g>
<!-- Node7&#45;&gt;Node11 -->
<g id="edge21" class="edge"><title>Node7&#45;&gt;Node11</title>
<path fill="none" stroke="midnightblue" d="M1731.61,-232.766C1711.27,-218.059 1669.05,-189.41 1629,-174 1557,-146.297 1532.07,-155.659 1452.42,-137.923"/>
<polygon fill="midnightblue" stroke="midnightblue" points="1452.96,-134.455 1442.43,-135.621 1451.39,-141.276 1452.96,-134.455"/>
</g>
<!-- Node18 -->
<g id="node18" class="node"><title>Node18</title>
<polygon fill="white" stroke="#bfbfbf" points="1714.61,-175 1714.61,-195 1753.39,-195 1753.39,-175 1714.61,-175"/>
<text text-anchor="middle" x="1734" y="-181" font-family="Helvetica,sans-Serif" font-size="10.00">utility</text>
</g>
<!-- Node7&#45;&gt;Node18 -->
<g id="edge22" class="edge"><title>Node7&#45;&gt;Node18</title>
<path fill="none" stroke="midnightblue" d="M1742.35,-232.753C1741.01,-225.25 1739.08,-214.424 1737.41,-205.078"/>
<polygon fill="midnightblue" stroke="midnightblue" points="1740.82,-204.304 1735.62,-195.075 1733.93,-205.535 1740.82,-204.304"/>
</g>
<!-- Node7&#45;&gt;Node19 -->
<g id="edge23" class="edge"><title>Node7&#45;&gt;Node19</title>
<path fill="none" stroke="midnightblue" d="M1705.94,-237.321C1691.28,-235.572 1674.37,-233.618 1659,-232 1484.39,-213.618 1274.71,-195.403 1195.96,-188.697"/>
<polygon fill="midnightblue" stroke="midnightblue" points="1195.99,-185.188 1185.73,-187.828 1195.4,-192.162 1195.99,-185.188"/>
</g>
<!-- Node9 -->
<g id="node9" class="node"><title>Node9</title>
<polygon fill="white" stroke="#bfbfbf" points="1882.38,-59 1882.38,-79 1925.62,-79 1925.62,-59 1882.38,-59"/>
<text text-anchor="middle" x="1904" y="-65" font-family="Helvetica,sans-Serif" font-size="10.00">cmath</text>
</g>
<!-- Node8&#45;&gt;Node9 -->
<g id="edge10" class="edge"><title>Node8&#45;&gt;Node9</title>
<path fill="none" stroke="midnightblue" d="M1541.25,-174.959C1614.95,-153.633 1798.99,-100.383 1872.73,-79.049"/>
<polygon fill="midnightblue" stroke="midnightblue" points="1873.74,-82.3987 1882.37,-76.2571 1871.8,-75.6745 1873.74,-82.3987"/>
</g>
<!-- Node10 -->
<g id="node10" class="node"><title>Node10</title>
<polygon fill="white" stroke="#bfbfbf" points="1517.27,-117 1517.27,-137 1562.73,-137 1562.73,-117 1517.27,-117"/>
<text text-anchor="middle" x="1540" y="-123" font-family="Helvetica,sans-Serif" font-size="10.00">cstring</text>
</g>
<!-- Node8&#45;&gt;Node10 -->
<g id="edge11" class="edge"><title>Node8&#45;&gt;Node10</title>
<path fill="none" stroke="midnightblue" d="M1514.95,-174.753C1519.1,-167.006 1525.15,-155.714 1530.27,-146.169"/>
<polygon fill="midnightblue" stroke="midnightblue" points="1533.5,-147.543 1535.14,-137.075 1527.33,-144.237 1533.5,-147.543"/>
</g>
<!-- Node8&#45;&gt;Node11 -->
<g id="edge12" class="edge"><title>Node8&#45;&gt;Node11</title>
<path fill="none" stroke="midnightblue" d="M1494.31,-174.753C1479.37,-165.946 1456.66,-152.558 1439.36,-142.362"/>
<polygon fill="midnightblue" stroke="midnightblue" points="1440.79,-139.138 1430.4,-137.075 1437.23,-145.169 1440.79,-139.138"/>
</g>
<!-- Node12 -->
<g id="node12" class="node"><title>Node12</title>
<polygon fill="white" stroke="#bfbfbf" points="1580.88,-117 1580.88,-137 1629.12,-137 1629.12,-117 1580.88,-117"/>
<text text-anchor="middle" x="1605" y="-123" font-family="Helvetica,sans-Serif" font-size="10.00">cassert</text>
</g>
<!-- Node8&#45;&gt;Node12 -->
<g id="edge13" class="edge"><title>Node8&#45;&gt;Node12</title>
<path fill="none" stroke="midnightblue" d="M1525.69,-174.753C1540.63,-165.946 1563.34,-152.558 1580.64,-142.362"/>
<polygon fill="midnightblue" stroke="midnightblue" points="1582.77,-145.169 1589.6,-137.075 1579.21,-139.138 1582.77,-145.169"/>
</g>
<!-- Node13 -->
<g id="node13" class="node"><title>Node13</title>
<polygon fill="white" stroke="#bfbfbf" points="1460.61,-117 1460.61,-137 1499.39,-137 1499.39,-117 1460.61,-117"/>
<text text-anchor="middle" x="1480" y="-123" font-family="Helvetica,sans-Serif" font-size="10.00">limits</text>
</g>
<!-- Node8&#45;&gt;Node13 -->
<g id="edge14" class="edge"><title>Node8&#45;&gt;Node13</title>
<path fill="none" stroke="midnightblue" d="M1505.05,-174.753C1500.9,-167.006 1494.85,-155.714 1489.73,-146.169"/>
<polygon fill="midnightblue" stroke="midnightblue" points="1492.67,-144.237 1484.86,-137.075 1486.5,-147.543 1492.67,-144.237"/>
</g>
<!-- Node14 -->
<g id="node14" class="node"><title>Node14</title>
<g id="a_node14"><a xlink:href="_cinder_math_8h.html" target="_top" xlink:title="cinder/CinderMath.h">
<polygon fill="white" stroke="black" points="1998.98,-117 1998.98,-137 2105.02,-137 2105.02,-117 1998.98,-117"/>
<text text-anchor="middle" x="2052" y="-123" font-family="Helvetica,sans-Serif" font-size="10.00">cinder/CinderMath.h</text>
</a>
</g>
</g>
<!-- Node8&#45;&gt;Node14 -->
<g id="edge15" class="edge"><title>Node8&#45;&gt;Node14</title>
<path fill="none" stroke="midnightblue" d="M1551.14,-175.419C1554.13,-174.903 1557.11,-174.423 1560,-174 1641.08,-162.135 1875.13,-142.362 1988.69,-133.091"/>
<polygon fill="midnightblue" stroke="midnightblue" points="1989.29,-136.554 1998.97,-132.254 1988.72,-129.578 1989.29,-136.554"/>
</g>
<!-- Node14&#45;&gt;Node2 -->
<g id="edge16" class="edge"><title>Node14&#45;&gt;Node2</title>
<path fill="none" stroke="midnightblue" d="M1998.67,-117.53C1994.05,-116.952 1989.45,-116.429 1985,-116 1608.01,-79.6127 1151.18,-71.9697 999.061,-70.3976"/>
<polygon fill="midnightblue" stroke="midnightblue" points="998.675,-66.8937 988.641,-70.2946 998.605,-73.8933 998.675,-66.8937"/>
</g>
<!-- Node14&#45;&gt;Node9 -->
<g id="edge17" class="edge"><title>Node14&#45;&gt;Node9</title>
<path fill="none" stroke="midnightblue" d="M2027.89,-116.878C2002.65,-107.327 1962.91,-92.2919 1935.27,-81.8335"/>
<polygon fill="midnightblue" stroke="midnightblue" points="1936.28,-78.4716 1925.69,-78.2061 1933.8,-85.0186 1936.28,-78.4716"/>
</g>
<!-- Node15 -->
<g id="node15" class="node"><title>Node15</title>
<polygon fill="white" stroke="#bfbfbf" points="2030.11,-59 2030.11,-79 2073.89,-79 2073.89,-59 2030.11,-59"/>
<text text-anchor="middle" x="2052" y="-65" font-family="Helvetica,sans-Serif" font-size="10.00">climits</text>
</g>
<!-- Node14&#45;&gt;Node15 -->
<g id="edge18" class="edge"><title>Node14&#45;&gt;Node15</title>
<path fill="none" stroke="midnightblue" d="M2052,-116.753C2052,-109.25 2052,-98.4238 2052,-89.0781"/>
<polygon fill="midnightblue" stroke="midnightblue" points="2055.5,-89.0752 2052,-79.0752 2048.5,-89.0752 2055.5,-89.0752"/>
</g>
<!-- Node16 -->
<g id="node16" class="node"><title>Node16</title>
<polygon fill="white" stroke="#bfbfbf" points="2092.05,-59 2092.05,-79 2131.95,-79 2131.95,-59 2092.05,-59"/>
<text text-anchor="middle" x="2112" y="-65" font-family="Helvetica,sans-Serif" font-size="10.00">cfloat</text>
</g>
<!-- Node14&#45;&gt;Node16 -->
<g id="edge19" class="edge"><title>Node14&#45;&gt;Node16</title>
<path fill="none" stroke="midnightblue" d="M2061.91,-116.753C2070.82,-108.435 2084.11,-96.031 2094.76,-86.0893"/>
<polygon fill="midnightblue" stroke="midnightblue" points="2097.35,-88.4571 2102.28,-79.0752 2092.58,-83.3397 2097.35,-88.4571"/>
</g>
<!-- Node17 -->
<g id="node17" class="node"><title>Node17</title>
<polygon fill="white" stroke="#bfbfbf" points="1953.6,-59 1953.6,-79 2012.4,-79 2012.4,-59 1953.6,-59"/>
<text text-anchor="middle" x="1983" y="-65" font-family="Helvetica,sans-Serif" font-size="10.00">functional</text>
</g>
<!-- Node14&#45;&gt;Node17 -->
<g id="edge20" class="edge"><title>Node14&#45;&gt;Node17</title>
<path fill="none" stroke="midnightblue" d="M2040.61,-116.753C2030.16,-108.272 2014.47,-95.543 2002.11,-85.5073"/>
<polygon fill="midnightblue" stroke="midnightblue" points="2004.15,-82.6593 1994.18,-79.0752 1999.74,-88.0945 2004.15,-82.6593"/>
</g>
<!-- Node20&#45;&gt;Node2 -->
<g id="edge25" class="edge"><title>Node20&#45;&gt;Node2</title>
<path fill="none" stroke="midnightblue" d="M1840.11,-290.868C1832.77,-268.795 1811.67,-211.594 1779,-174 1749.48,-140.031 1738.49,-130.822 1696,-116 1567.01,-71.0061 1146.71,-68.8602 998.946,-69.555"/>
<polygon fill="midnightblue" stroke="midnightblue" points="998.767,-66.0558 988.785,-69.6094 998.804,-73.0557 998.767,-66.0558"/>
</g>
<!-- Node20&#45;&gt;Node7 -->
<g id="edge26" class="edge"><title>Node20&#45;&gt;Node7</title>
<path fill="none" stroke="midnightblue" d="M1826.65,-290.753C1810.94,-281.864 1786.98,-268.309 1768.89,-258.079"/>
<polygon fill="midnightblue" stroke="midnightblue" points="1770.47,-254.952 1760.04,-253.075 1767.02,-261.045 1770.47,-254.952"/>
</g>
<!-- Node21&#45;&gt;Node2 -->
<g id="edge28" class="edge"><title>Node21&#45;&gt;Node2</title>
<path fill="none" stroke="midnightblue" d="M1930.59,-174.858C1920.89,-159.455 1898.92,-128.767 1871,-116 1791.7,-79.7412 1182.05,-71.897 998.879,-70.3514"/>
<polygon fill="midnightblue" stroke="midnightblue" points="998.729,-66.8502 988.701,-70.2683 998.672,-73.8499 998.729,-66.8502"/>
</g>
<!-- Node22&#45;&gt;Node2 -->
<g id="edge30" class="edge"><title>Node22&#45;&gt;Node2</title>
<path fill="none" stroke="midnightblue" d="M2020.44,-232.663C2017.67,-218.573 2010.75,-191.649 1996,-174 1964.03,-135.753 1947.68,-130.534 1900,-116 1813.79,-89.7234 1185.39,-74.8785 998.985,-71.0192"/>
<polygon fill="midnightblue" stroke="midnightblue" points="998.963,-67.5181 988.893,-70.8121 998.82,-74.5167 998.963,-67.5181"/>
</g>
<!-- Node22&#45;&gt;Node21 -->
<g id="edge31" class="edge"><title>Node22&#45;&gt;Node21</title>
<path fill="none" stroke="midnightblue" d="M2007.8,-232.753C1994.4,-224.027 1974.09,-210.805 1958.49,-200.646"/>
<polygon fill="midnightblue" stroke="midnightblue" points="1960.23,-197.599 1949.94,-195.075 1956.41,-203.465 1960.23,-197.599"/>
</g>
<!-- Node22&#45;&gt;Node8 -->
<g id="edge32" class="edge"><title>Node22&#45;&gt;Node8</title>
<path fill="none" stroke="midnightblue" d="M1982.9,-239.409C1904.74,-233.948 1723.49,-219.88 1561.31,-196.07"/>
<polygon fill="midnightblue" stroke="midnightblue" points="1561.55,-192.568 1551.14,-194.562 1560.52,-199.492 1561.55,-192.568"/>
</g>
<!-- Node22&#45;&gt;Node14 -->
<g id="edge33" class="edge"><title>Node22&#45;&gt;Node14</title>
<path fill="none" stroke="midnightblue" d="M2024.46,-232.671C2029.36,-214.041 2040.45,-171.898 2046.96,-147.143"/>
<polygon fill="midnightblue" stroke="midnightblue" points="2050.43,-147.701 2049.59,-137.139 2043.67,-145.919 2050.43,-147.701"/>
</g>
<!-- Node23&#45;&gt;Node2 -->
<g id="edge35" class="edge"><title>Node23&#45;&gt;Node2</title>
<path fill="none" stroke="midnightblue" d="M232.217,-232.924C207.486,-220.784 171.384,-197.992 187,-174 221.734,-120.635 256.226,-131.439 318,-116 426.855,-88.7949 764.563,-75.6667 894.923,-71.5127"/>
<polygon fill="midnightblue" stroke="midnightblue" points="895.164,-75.0069 905.049,-71.1948 894.944,-68.0104 895.164,-75.0069"/>
</g>
<!-- Node24 -->
<g id="node24" class="node"><title>Node24</title>
<polygon fill="white" stroke="#bfbfbf" points="196.421,-175 196.421,-195 303.579,-195 303.579,-175 196.421,-175"/>
<text text-anchor="middle" x="250" y="-181" font-family="Helvetica,sans-Serif" font-size="10.00">boost/filesystem.hpp</text>
</g>
<!-- Node23&#45;&gt;Node24 -->
<g id="edge36" class="edge"><title>Node23&#45;&gt;Node24</title>
<path fill="none" stroke="midnightblue" d="M252.505,-232.753C252.103,-225.25 251.523,-214.424 251.022,-205.078"/>
<polygon fill="midnightblue" stroke="midnightblue" points="254.516,-204.874 250.486,-195.075 247.526,-205.248 254.516,-204.874"/>
</g>
<!-- Node26&#45;&gt;Node2 -->
<g id="edge39" class="edge"><title>Node26&#45;&gt;Node2</title>
<path fill="none" stroke="midnightblue" d="M948.545,-473.506C772.75,-470.703 38,-453.401 38,-360 38,-360 38,-360 38,-184 38,-142.497 64.3632,-133.491 102,-116 173.689,-82.6837 722.111,-72.8733 894.982,-70.5935"/>
<polygon fill="midnightblue" stroke="midnightblue" points="895.144,-74.0918 905.099,-70.4631 895.054,-67.0924 895.144,-74.0918"/>
</g>
<!-- Node27 -->
<g id="node27" class="node"><title>Node27</title>
<g id="a_node27"><a xlink:href="_shape2d_8h.html" target="_top" xlink:title="cinder/Shape2d.h">
<polygon fill="white" stroke="black" points="1309.8,-407 1309.8,-427 1404.2,-427 1404.2,-407 1309.8,-407"/>
<text text-anchor="middle" x="1357" y="-413" font-family="Helvetica,sans-Serif" font-size="10.00">cinder/Shape2d.h</text>
</a>
</g>
</g>
<!-- Node26&#45;&gt;Node27 -->
<g id="edge40" class="edge"><title>Node26&#45;&gt;Node27</title>
<path fill="none" stroke="midnightblue" d="M1023.27,-468.374C1088.25,-458.566 1222.67,-438.277 1299.61,-426.663"/>
<polygon fill="midnightblue" stroke="midnightblue" points="1300.25,-430.106 1309.61,-425.153 1299.2,-423.184 1300.25,-430.106"/>
</g>
<!-- Node31 -->
<g id="node31" class="node"><title>Node31</title>
<g id="a_node31"><a xlink:href="_exception_8h.html" target="_top" xlink:title="cinder/Exception.h">
<polygon fill="white" stroke="black" points="897.865,-233 897.865,-253 996.135,-253 996.135,-233 897.865,-233"/>
<text text-anchor="middle" x="947" y="-239" font-family="Helvetica,sans-Serif" font-size="10.00">cinder/Exception.h</text>
</a>
</g>
</g>
<!-- Node26&#45;&gt;Node31 -->
<g id="edge64" class="edge"><title>Node26&#45;&gt;Node31</title>
<path fill="none" stroke="midnightblue" d="M982.774,-464.95C979.608,-455.755 974.853,-441.048 972,-428 959.065,-368.838 951.652,-297.426 948.622,-263.598"/>
<polygon fill="midnightblue" stroke="midnightblue" points="952.078,-262.943 947.731,-253.281 945.104,-263.546 952.078,-262.943"/>
</g>
<!-- Node35 -->
<g id="node35" class="node"><title>Node35</title>
<g id="a_node35"><a xlink:href="_data_source_8h.html" target="_top" xlink:title="cinder/DataSource.h">
<polygon fill="white" stroke="black" points="237.419,-407 237.419,-427 344.581,-427 344.581,-407 237.419,-407"/>
<text text-anchor="middle" x="291" y="-413" font-family="Helvetica,sans-Serif" font-size="10.00">cinder/DataSource.h</text>
</a>
</g>
</g>
<!-- Node26&#45;&gt;Node35 -->
<g id="edge65" class="edge"><title>Node26&#45;&gt;Node35</title>
<path fill="none" stroke="midnightblue" d="M948.634,-470.989C835.719,-461.891 497.097,-434.606 354.939,-423.152"/>
<polygon fill="midnightblue" stroke="midnightblue" points="354.891,-419.637 344.642,-422.322 354.329,-426.614 354.891,-419.637"/>
</g>
<!-- Node26&#45;&gt;Node32 -->
<g id="edge83" class="edge"><title>Node26&#45;&gt;Node32</title>
<path fill="none" stroke="midnightblue" d="M986.839,-464.782C989.578,-434.568 998.462,-335.779 1005,-254 1006.31,-237.591 1007.67,-218.944 1008.64,-205.332"/>
<polygon fill="midnightblue" stroke="midnightblue" points="1012.14,-205.464 1009.36,-195.242 1005.16,-204.97 1012.14,-205.464"/>
</g>
<!-- Node26&#45;&gt;Node19 -->
<g id="edge84" class="edge"><title>Node26&#45;&gt;Node19</title>
<path fill="none" stroke="midnightblue" d="M1006.64,-464.898C1039.5,-448.847 1100,-412.201 1100,-360 1100,-360 1100,-360 1100,-300 1100,-267.951 1107.87,-259.693 1124,-232 1130.3,-221.19 1139.31,-210.554 1147.19,-202.237"/>
<polygon fill="midnightblue" stroke="midnightblue" points="1149.74,-204.626 1154.26,-195.043 1144.75,-199.717 1149.74,-204.626"/>
</g>
<!-- Node27&#45;&gt;Node8 -->
<g id="edge41" class="edge"><title>Node27&#45;&gt;Node8</title>
<path fill="none" stroke="midnightblue" d="M1360.49,-406.923C1370.29,-381.624 1398.26,-310.813 1412,-290 1435.05,-255.093 1470.25,-221.051 1491.6,-201.878"/>
<polygon fill="midnightblue" stroke="midnightblue" points="1494.13,-204.309 1499.3,-195.062 1489.5,-199.065 1494.13,-204.309"/>
</g>
<!-- Node28 -->
<g id="node28" class="node"><title>Node28</title>
<g id="a_node28"><a xlink:href="_rect_8h.html" target="_top" xlink:title="cinder/Rect.h">
<polygon fill="white" stroke="black" points="1420.54,-291 1420.54,-311 1495.46,-311 1495.46,-291 1420.54,-291"/>
<text text-anchor="middle" x="1458" y="-297" font-family="Helvetica,sans-Serif" font-size="10.00">cinder/Rect.h</text>
</a>
</g>
</g>
<!-- Node27&#45;&gt;Node28 -->
<g id="edge42" class="edge"><title>Node27&#45;&gt;Node28</title>
<path fill="none" stroke="midnightblue" d="M1368.28,-406.674C1378.79,-397.743 1394.66,-383.647 1407,-370 1421.62,-353.84 1436.34,-333.699 1446.18,-319.546"/>
<polygon fill="midnightblue" stroke="midnightblue" points="1449.13,-321.439 1451.9,-311.212 1443.35,-317.481 1449.13,-321.439"/>
</g>
<!-- Node29 -->
<g id="node29" class="node"><title>Node29</title>
<g id="a_node29"><a xlink:href="_path2d_8h.html" target="_top" xlink:title="cinder/Path2d.h">
<polygon fill="white" stroke="black" points="1278.98,-349 1278.98,-369 1365.02,-369 1365.02,-349 1278.98,-349"/>
<text text-anchor="middle" x="1322" y="-355" font-family="Helvetica,sans-Serif" font-size="10.00">cinder/Path2d.h</text>
</a>
</g>
</g>
<!-- Node27&#45;&gt;Node29 -->
<g id="edge46" class="edge"><title>Node27&#45;&gt;Node29</title>
<path fill="none" stroke="midnightblue" d="M1351.22,-406.753C1346.28,-398.843 1339.02,-387.237 1332.98,-377.568"/>
<polygon fill="midnightblue" stroke="midnightblue" points="1335.94,-375.7 1327.67,-369.075 1330,-379.41 1335.94,-375.7"/>
</g>
<!-- Node33 -->
<g id="node33" class="node"><title>Node33</title>
<g id="a_node33"><a xlink:href="_matrix_affine2_8h.html" target="_top" xlink:title="cinder/MatrixAffine2.h">
<polygon fill="white" stroke="black" points="1537.65,-233 1537.65,-253 1650.35,-253 1650.35,-233 1537.65,-233"/>
<text text-anchor="middle" x="1594" y="-239" font-family="Helvetica,sans-Serif" font-size="10.00">cinder/MatrixAffine2.h</text>
</a>
</g>
</g>
<!-- Node27&#45;&gt;Node33 -->
<g id="edge62" class="edge"><title>Node27&#45;&gt;Node33</title>
<path fill="none" stroke="midnightblue" d="M1377.48,-406.921C1412.29,-390.898 1484.26,-355.179 1536,-312 1553.96,-297.015 1570.87,-276.105 1581.75,-261.44"/>
<polygon fill="midnightblue" stroke="midnightblue" points="1584.67,-263.377 1587.7,-253.225 1579,-259.272 1584.67,-263.377"/>
</g>
<!-- Node27&#45;&gt;Node19 -->
<g id="edge63" class="edge"><title>Node27&#45;&gt;Node19</title>
<path fill="none" stroke="midnightblue" d="M1331.4,-406.932C1312.68,-399.317 1287.6,-386.95 1270,-370 1218.75,-320.63 1184.52,-241.098 1170.78,-204.96"/>
<polygon fill="midnightblue" stroke="midnightblue" points="1173.93,-203.384 1167.18,-195.219 1167.37,-205.812 1173.93,-203.384"/>
</g>
<!-- Node28&#45;&gt;Node8 -->
<g id="edge43" class="edge"><title>Node28&#45;&gt;Node8</title>
<path fill="none" stroke="midnightblue" d="M1464.38,-290.805C1470.49,-281.74 1479.67,-267.346 1486,-254 1493.62,-237.935 1500.17,-218.765 1504.5,-204.88"/>
<polygon fill="midnightblue" stroke="midnightblue" points="1507.93,-205.623 1507.46,-195.038 1501.23,-203.602 1507.93,-205.623"/>
</g>
<!-- Node28&#45;&gt;Node7 -->
<g id="edge44" class="edge"><title>Node28&#45;&gt;Node7</title>
<path fill="none" stroke="midnightblue" d="M1495.68,-292.621C1547.23,-282.528 1639.75,-264.412 1696.14,-253.371"/>
<polygon fill="midnightblue" stroke="midnightblue" points="1697.09,-256.751 1706.23,-251.395 1695.75,-249.882 1697.09,-256.751"/>
</g>
<!-- Node28&#45;&gt;Node19 -->
<g id="edge45" class="edge"><title>Node28&#45;&gt;Node19</title>
<path fill="none" stroke="midnightblue" d="M1450.04,-290.856C1436.58,-276.012 1407.76,-246.84 1377,-232 1304.7,-197.117 1278.06,-214.754 1200,-196 1198.54,-195.65 1197.05,-195.281 1195.55,-194.9"/>
<polygon fill="midnightblue" stroke="midnightblue" points="1196.2,-191.451 1185.64,-192.276 1194.41,-198.218 1196.2,-191.451"/>
</g>
<!-- Node29&#45;&gt;Node8 -->
<g id="edge47" class="edge"><title>Node29&#45;&gt;Node8</title>
<path fill="none" stroke="midnightblue" d="M1327.1,-348.976C1340.07,-326.65 1376.44,-268.035 1420,-232 1436.66,-218.222 1458.12,-207.052 1475.91,-199.171"/>
<polygon fill="midnightblue" stroke="midnightblue" points="1477.54,-202.281 1485.36,-195.135 1474.79,-195.843 1477.54,-202.281"/>
</g>
<!-- Node30 -->
<g id="node30" class="node"><title>Node30</title>
<g id="a_node30"><a xlink:href="_b_spline_8h.html" target="_top" xlink:title="cinder/BSpline.h">
<polygon fill="white" stroke="black" points="1279.59,-233 1279.59,-253 1368.41,-253 1368.41,-233 1279.59,-233"/>
<text text-anchor="middle" x="1324" y="-239" font-family="Helvetica,sans-Serif" font-size="10.00">cinder/BSpline.h</text>
</a>
</g>
</g>
<!-- Node29&#45;&gt;Node30 -->
<g id="edge48" class="edge"><title>Node29&#45;&gt;Node30</title>
<path fill="none" stroke="midnightblue" d="M1322.16,-348.671C1322.49,-330.041 1323.23,-287.898 1323.66,-263.143"/>
<polygon fill="midnightblue" stroke="midnightblue" points="1327.16,-263.199 1323.84,-253.139 1320.16,-263.076 1327.16,-263.199"/>
</g>
<!-- Node29&#45;&gt;Node28 -->
<g id="edge51" class="edge"><title>Node29&#45;&gt;Node28</title>
<path fill="none" stroke="midnightblue" d="M1344.15,-348.878C1366.48,-339.685 1401.15,-325.409 1426.36,-315.026"/>
<polygon fill="midnightblue" stroke="midnightblue" points="1427.94,-318.162 1435.86,-311.118 1425.28,-311.689 1427.94,-318.162"/>
</g>
<!-- Node29&#45;&gt;Node31 -->
<g id="edge52" class="edge"><title>Node29&#45;&gt;Node31</title>
<path fill="none" stroke="midnightblue" d="M1292.26,-348.959C1225.12,-328.547 1061.77,-278.889 986.352,-255.963"/>
<polygon fill="midnightblue" stroke="midnightblue" points="987.328,-252.602 976.742,-253.042 985.292,-259.299 987.328,-252.602"/>
</g>
<!-- Node29&#45;&gt;Node33 -->
<g id="edge56" class="edge"><title>Node29&#45;&gt;Node33</title>
<path fill="none" stroke="midnightblue" d="M1365.22,-352.065C1403.18,-345.706 1459.19,-333.498 1504,-312 1531.92,-298.606 1559.69,-275.815 1576.84,-260.345"/>
<polygon fill="midnightblue" stroke="midnightblue" points="1579.38,-262.764 1584.36,-253.412 1574.63,-257.617 1579.38,-262.764"/>
</g>
<!-- Node29&#45;&gt;Node19 -->
<g id="edge61" class="edge"><title>Node29&#45;&gt;Node19</title>
<path fill="none" stroke="midnightblue" d="M1313.51,-348.753C1288.11,-321.104 1212.48,-238.775 1179.58,-202.958"/>
<polygon fill="midnightblue" stroke="midnightblue" points="1181.88,-200.29 1172.54,-195.293 1176.72,-205.025 1181.88,-200.29"/>
</g>
<!-- Node30&#45;&gt;Node19 -->
<g id="edge49" class="edge"><title>Node30&#45;&gt;Node19</title>
<path fill="none" stroke="midnightblue" d="M1297.94,-232.878C1269.93,-223.077 1225.42,-207.498 1195.48,-197.019"/>
<polygon fill="midnightblue" stroke="midnightblue" points="1196.53,-193.677 1185.93,-193.676 1194.22,-200.284 1196.53,-193.677"/>
</g>
<!-- Node30&#45;&gt;Node8 -->
<g id="edge50" class="edge"><title>Node30&#45;&gt;Node8</title>
<path fill="none" stroke="midnightblue" d="M1354.3,-232.878C1385.87,-223.372 1435.49,-208.432 1470.21,-197.98"/>
<polygon fill="midnightblue" stroke="midnightblue" points="1471.46,-201.26 1480.02,-195.025 1469.44,-194.557 1471.46,-201.26"/>
</g>
<!-- Node31&#45;&gt;Node2 -->
<g id="edge53" class="edge"><title>Node31&#45;&gt;Node2</title>
<path fill="none" stroke="midnightblue" d="M947,-232.753C947,-205.804 947,-126.908 947,-89.7664"/>
<polygon fill="midnightblue" stroke="midnightblue" points="950.5,-89.2932 947,-79.2932 943.5,-89.2932 950.5,-89.2932"/>
</g>
<!-- Node31&#45;&gt;Node19 -->
<g id="edge54" class="edge"><title>Node31&#45;&gt;Node19</title>
<path fill="none" stroke="midnightblue" d="M982.348,-232.878C1024,-222.129 1092.57,-204.434 1132.48,-194.134"/>
<polygon fill="midnightblue" stroke="midnightblue" points="1133.41,-197.509 1142.22,-191.622 1131.66,-190.732 1133.41,-197.509"/>
</g>
<!-- Node31&#45;&gt;Node32 -->
<g id="edge55" class="edge"><title>Node31&#45;&gt;Node32</title>
<path fill="none" stroke="midnightblue" d="M957.403,-232.753C966.852,-224.353 980.989,-211.787 992.228,-201.798"/>
<polygon fill="midnightblue" stroke="midnightblue" points="994.642,-204.335 999.79,-195.075 989.991,-199.103 994.642,-204.335"/>
</g>
<!-- Node33&#45;&gt;Node2 -->
<g id="edge57" class="edge"><title>Node33&#45;&gt;Node2</title>
<path fill="none" stroke="midnightblue" d="M1560.13,-232.995C1451.5,-204.119 1111.96,-113.852 990.633,-81.5995"/>
<polygon fill="midnightblue" stroke="midnightblue" points="991.492,-78.2064 980.929,-79.0196 989.694,-84.9714 991.492,-78.2064"/>
</g>
<!-- Node33&#45;&gt;Node14 -->
<g id="edge58" class="edge"><title>Node33&#45;&gt;Node14</title>
<path fill="none" stroke="midnightblue" d="M1605.28,-232.925C1624.61,-217.907 1665.88,-188.142 1706,-174 1800.78,-140.588 1917.97,-131.161 1988.75,-128.665"/>
<polygon fill="midnightblue" stroke="midnightblue" points="1988.97,-132.16 1998.85,-128.345 1988.75,-125.164 1988.97,-132.16"/>
</g>
<!-- Node33&#45;&gt;Node8 -->
<g id="edge59" class="edge"><title>Node33&#45;&gt;Node8</title>
<path fill="none" stroke="midnightblue" d="M1580.13,-232.753C1567.04,-224.027 1547.21,-210.805 1531.97,-200.646"/>
<polygon fill="midnightblue" stroke="midnightblue" points="1533.87,-197.71 1523.61,-195.075 1529.99,-203.534 1533.87,-197.71"/>
</g>
<!-- Node34 -->
<g id="node34" class="node"><title>Node34</title>
<polygon fill="white" stroke="#bfbfbf" points="1569.49,-175 1569.49,-195 1620.51,-195 1620.51,-175 1569.49,-175"/>
<text text-anchor="middle" x="1595" y="-181" font-family="Helvetica,sans-Serif" font-size="10.00">iomanip</text>
</g>
<!-- Node33&#45;&gt;Node34 -->
<g id="edge60" class="edge"><title>Node33&#45;&gt;Node34</title>
<path fill="none" stroke="midnightblue" d="M1594.17,-232.753C1594.3,-225.25 1594.49,-214.424 1594.66,-205.078"/>
<polygon fill="midnightblue" stroke="midnightblue" points="1598.16,-205.136 1594.84,-195.075 1591.16,-205.011 1598.16,-205.136"/>
</g>
<!-- Node35&#45;&gt;Node2 -->
<g id="edge66" class="edge"><title>Node35&#45;&gt;Node2</title>
<path fill="none" stroke="midnightblue" d="M237.301,-410.788C173.62,-401.303 76,-374.879 76,-302 76,-302 76,-302 76,-184 76,-124.239 134.83,-133.405 192,-116 323.73,-75.8949 746.311,-70.628 894.806,-70.0344"/>
<polygon fill="midnightblue" stroke="midnightblue" points="895.028,-73.5337 905.016,-69.9993 895.004,-66.5338 895.028,-73.5337"/>
</g>
<!-- Node36 -->
<g id="node36" class="node"><title>Node36</title>
<g id="a_node36"><a xlink:href="_url_8h.html" target="_top" xlink:title="cinder/Url.h">
<polygon fill="white" stroke="black" points="385.436,-349 385.436,-369 452.564,-369 452.564,-349 385.436,-349"/>
<text text-anchor="middle" x="419" y="-355" font-family="Helvetica,sans-Serif" font-size="10.00">cinder/Url.h</text>
</a>
</g>
</g>
<!-- Node35&#45;&gt;Node36 -->
<g id="edge67" class="edge"><title>Node35&#45;&gt;Node36</title>
<path fill="none" stroke="midnightblue" d="M311.85,-406.878C332.77,-397.725 365.204,-383.536 388.91,-373.164"/>
<polygon fill="midnightblue" stroke="midnightblue" points="390.4,-376.333 398.159,-369.118 387.594,-369.92 390.4,-376.333"/>
</g>
<!-- Node38 -->
<g id="node38" class="node"><title>Node38</title>
<g id="a_node38"><a xlink:href="_buffer_8h.html" target="_top" xlink:title="cinder/Buffer.h">
<polygon fill="white" stroke="black" points="103.844,-233 103.844,-253 184.156,-253 184.156,-233 103.844,-233"/>
<text text-anchor="middle" x="144" y="-239" font-family="Helvetica,sans-Serif" font-size="10.00">cinder/Buffer.h</text>
</a>
</g>
</g>
<!-- Node35&#45;&gt;Node38 -->
<g id="edge80" class="edge"><title>Node35&#45;&gt;Node38</title>
<path fill="none" stroke="midnightblue" d="M283.097,-406.753C259.467,-379.104 189.104,-296.775 158.493,-260.958"/>
<polygon fill="midnightblue" stroke="midnightblue" points="161.1,-258.621 151.942,-253.293 155.779,-263.169 161.1,-258.621"/>
</g>
<!-- Node37 -->
<g id="node37" class="node"><title>Node37</title>
<g id="a_node37"><a xlink:href="_stream_8h.html" target="_top" xlink:title="cinder/Stream.h">
<polygon fill="white" stroke="black" points="386.707,-291 386.707,-311 473.293,-311 473.293,-291 386.707,-291"/>
<text text-anchor="middle" x="430" y="-297" font-family="Helvetica,sans-Serif" font-size="10.00">cinder/Stream.h</text>
</a>
</g>
</g>
<!-- Node35&#45;&gt;Node37 -->
<g id="edge81" class="edge"><title>Node35&#45;&gt;Node37</title>
<path fill="none" stroke="midnightblue" d="M302.375,-406.671C326.216,-387.118 381.638,-341.664 410.984,-317.596"/>
<polygon fill="midnightblue" stroke="midnightblue" points="413.344,-320.187 418.856,-311.139 408.905,-314.775 413.344,-320.187"/>
</g>
<!-- Node35&#45;&gt;Node23 -->
<g id="edge82" class="edge"><title>Node35&#45;&gt;Node23</title>
<path fill="none" stroke="midnightblue" d="M288.957,-406.753C282.977,-379.688 265.422,-300.224 257.261,-263.286"/>
<polygon fill="midnightblue" stroke="midnightblue" points="260.628,-262.303 255.053,-253.293 253.793,-263.813 260.628,-262.303"/>
</g>
<!-- Node36&#45;&gt;Node2 -->
<g id="edge68" class="edge"><title>Node36&#45;&gt;Node2</title>
<path fill="none" stroke="midnightblue" d="M405.022,-348.881C380.429,-331.607 332,-291.553 332,-244 332,-244 332,-244 332,-184 332,-126.935 746.65,-86.7217 895,-74.1606"/>
<polygon fill="midnightblue" stroke="midnightblue" points="895.54,-77.6278 905.212,-73.3042 894.954,-70.6523 895.54,-77.6278"/>
</g>
<!-- Node36&#45;&gt;Node37 -->
<g id="edge69" class="edge"><title>Node36&#45;&gt;Node37</title>
<path fill="none" stroke="midnightblue" d="M420.816,-348.753C422.29,-341.25 424.417,-330.424 426.253,-321.078"/>
<polygon fill="midnightblue" stroke="midnightblue" points="429.724,-321.562 428.217,-311.075 422.855,-320.213 429.724,-321.562"/>
</g>
<!-- Node36&#45;&gt;Node11 -->
<g id="edge79" class="edge"><title>Node36&#45;&gt;Node11</title>
<path fill="none" stroke="midnightblue" d="M452.662,-353.496C542.88,-341.108 797.33,-304.095 1005,-254 1090.42,-233.396 1110.01,-221.809 1194,-196 1258.79,-176.091 1334.25,-152.863 1378.13,-139.355"/>
<polygon fill="midnightblue" stroke="midnightblue" points="1379.26,-142.669 1387.78,-136.381 1377.2,-135.979 1379.26,-142.669"/>
</g>
<!-- Node37&#45;&gt;Node2 -->
<g id="edge70" class="edge"><title>Node37&#45;&gt;Node2</title>
<path fill="none" stroke="midnightblue" d="M417.365,-290.825C400.423,-277.399 374.099,-251.842 389,-232 450.791,-149.718 768.482,-95.6961 894.959,-77.1488"/>
<polygon fill="midnightblue" stroke="midnightblue" points="895.769,-80.5681 905.163,-75.6688 894.764,-73.6406 895.769,-80.5681"/>
</g>
<!-- Node37&#45;&gt;Node38 -->
<g id="edge71" class="edge"><title>Node37&#45;&gt;Node38</title>
<path fill="none" stroke="midnightblue" d="M386.294,-291.647C340.764,-282.917 267.088,-268.708 194.183,-254.223"/>
<polygon fill="midnightblue" stroke="midnightblue" points="194.861,-250.79 184.37,-252.271 193.495,-257.655 194.861,-250.79"/>
</g>
<!-- Node37&#45;&gt;Node31 -->
<g id="edge73" class="edge"><title>Node37&#45;&gt;Node31</title>
<path fill="none" stroke="midnightblue" d="M473.603,-296.407C554.61,-289.548 733.749,-273.521 884,-254 885.266,-253.835 886.546,-253.665 887.837,-253.491"/>
<polygon fill="midnightblue" stroke="midnightblue" points="888.446,-256.94 897.858,-252.075 887.467,-250.008 888.446,-256.94"/>
</g>
<!-- Node37&#45;&gt;Node23 -->
<g id="edge74" class="edge"><title>Node37&#45;&gt;Node23</title>
<path fill="none" stroke="midnightblue" d="M401.168,-290.878C371.251,-281.413 324.305,-266.56 291.291,-256.115"/>
<polygon fill="midnightblue" stroke="midnightblue" points="292.116,-252.705 281.526,-253.025 290.005,-259.379 292.116,-252.705"/>
</g>
<!-- Node39 -->
<g id="node39" class="node"><title>Node39</title>
<polygon fill="white" stroke="#bfbfbf" points="398.291,-233 398.291,-253 517.709,-253 517.709,-233 398.291,-233"/>
<text text-anchor="middle" x="458" y="-239" font-family="Helvetica,sans-Serif" font-size="10.00">boost/noncopyable.hpp</text>
</g>
<!-- Node37&#45;&gt;Node39 -->
<g id="edge75" class="edge"><title>Node37&#45;&gt;Node39</title>
<path fill="none" stroke="midnightblue" d="M434.624,-290.753C438.497,-283.006 444.143,-271.714 448.916,-262.169"/>
<polygon fill="midnightblue" stroke="midnightblue" points="452.121,-263.585 453.462,-253.075 445.86,-260.454 452.121,-263.585"/>
</g>
<!-- Node37&#45;&gt;Node32 -->
<g id="edge76" class="edge"><title>Node37&#45;&gt;Node32</title>
<path fill="none" stroke="midnightblue" d="M473.512,-300.921C551.118,-301.329 717.68,-296.583 850,-254 868.944,-247.903 870.981,-240.449 889,-232 919.224,-217.828 955.11,-204.616 979.912,-196.021"/>
<polygon fill="midnightblue" stroke="midnightblue" points="981.163,-199.292 989.489,-192.74 978.894,-192.67 981.163,-199.292"/>
</g>
<!-- Node40 -->
<g id="node40" class="node"><title>Node40</title>
<polygon fill="white" stroke="#bfbfbf" points="535.574,-233 535.574,-253 684.426,-253 684.426,-233 535.574,-233"/>
<text text-anchor="middle" x="610" y="-239" font-family="Helvetica,sans-Serif" font-size="10.00">boost/iostreams/concepts.hpp</text>
</g>
<!-- Node37&#45;&gt;Node40 -->
<g id="edge77" class="edge"><title>Node37&#45;&gt;Node40</title>
<path fill="none" stroke="midnightblue" d="M459.321,-290.878C489.745,-281.413 537.486,-266.56 571.06,-256.115"/>
<polygon fill="midnightblue" stroke="midnightblue" points="572.481,-259.338 580.99,-253.025 570.402,-252.654 572.481,-259.338"/>
</g>
<!-- Node41 -->
<g id="node41" class="node"><title>Node41</title>
<polygon fill="white" stroke="#bfbfbf" points="702.306,-233 702.306,-253 841.694,-253 841.694,-233 702.306,-233"/>
<text text-anchor="middle" x="772" y="-239" font-family="Helvetica,sans-Serif" font-size="10.00">boost/iostreams/stream.hpp</text>
</g>
<!-- Node37&#45;&gt;Node41 -->
<g id="edge78" class="edge"><title>Node37&#45;&gt;Node41</title>
<path fill="none" stroke="midnightblue" d="M473.315,-292.908C532.212,-283.264 638.062,-265.931 706.641,-254.702"/>
<polygon fill="midnightblue" stroke="midnightblue" points="707.593,-258.093 716.896,-253.023 706.462,-251.185 707.593,-258.093"/>
</g>
<!-- Node38&#45;&gt;Node2 -->
<g id="edge72" class="edge"><title>Node38&#45;&gt;Node2</title>
<path fill="none" stroke="midnightblue" d="M146.353,-232.744C153.147,-208.222 175.359,-141.705 222,-116 280.509,-83.7539 738.81,-73.3744 895.037,-70.7546"/>
<polygon fill="midnightblue" stroke="midnightblue" points="895.378,-74.2496 905.319,-70.5861 895.263,-67.2505 895.378,-74.2496"/>
</g>
</g>
</svg>
