<?xml version="1.0" encoding="UTF-8" standalone="no"?>
<!DOCTYPE svg PUBLIC "-//W3C//DTD SVG 1.1//EN"
 "http://www.w3.org/Graphics/SVG/1.1/DTD/svg11.dtd">
<!-- Generated by graphviz version 2.30.1 (20140712.1814)
 -->
<!-- Title: include/cinder/Text.h Pages: 1 -->
<svg width="877pt" height="158pt"
 viewBox="0.00 0.00 877.00 158.00" xmlns="http://www.w3.org/2000/svg" xmlns:xlink="http://www.w3.org/1999/xlink">
<g id="graph0" class="graph" transform="scale(1 1) rotate(0) translate(4 154)">
<title>include/cinder/Text.h</title>
<polygon fill="white" stroke="white" points="-4,5 -4,-154 874,-154 874,5 -4,5"/>
<!-- Node1 -->
<g id="node1" class="node"><title>Node1</title>
<polygon fill="#bfbfbf" stroke="black" points="411.419,-129 411.419,-149 518.581,-149 518.581,-129 411.419,-129"/>
<text text-anchor="middle" x="465" y="-135" font-family="Helvetica,sans-Serif" font-size="10.00">include/cinder/Text.h</text>
</g>
<!-- Node2 -->
<g id="node2" class="node"><title>Node2</title>
<g id="a_node2"><a xlink:href="_dx_texture_font_8h.html" target="_top" xlink:title="include/cinder/dx/DxTexture\lFont.h">
<polygon fill="white" stroke="black" points="58.5815,-59 58.5815,-91 197.418,-91 197.418,-59 58.5815,-59"/>
<text text-anchor="start" x="66.5815" y="-77" font-family="Helvetica,sans-Serif" font-size="10.00">include/cinder/dx/DxTexture</text>
<text text-anchor="middle" x="128" y="-65" font-family="Helvetica,sans-Serif" font-size="10.00">Font.h</text>
</a>
</g>
</g>
<!-- Node1&#45;&gt;Node2 -->
<g id="edge1" class="edge"><title>Node1&#45;&gt;Node2</title>
<path fill="none" stroke="midnightblue" d="M401.935,-127.18C349.653,-118.108 273.414,-104.644 207,-92 203.976,-91.4242 200.888,-90.8292 197.769,-90.2226"/>
<polygon fill="midnightblue" stroke="midnightblue" points="401.612,-130.676 412.062,-128.934 402.807,-123.779 401.612,-130.676"/>
</g>
<!-- Node4 -->
<g id="node4" class="node"><title>Node4</title>
<g id="a_node4"><a xlink:href="_texture_font_8h.html" target="_top" xlink:title="include/cinder/gl/Texture\lFont.h">
<polygon fill="white" stroke="black" points="338.082,-59 338.082,-91 461.918,-91 461.918,-59 338.082,-59"/>
<text text-anchor="start" x="346.082" y="-77" font-family="Helvetica,sans-Serif" font-size="10.00">include/cinder/gl/Texture</text>
<text text-anchor="middle" x="400" y="-65" font-family="Helvetica,sans-Serif" font-size="10.00">Font.h</text>
</a>
</g>
</g>
<!-- Node1&#45;&gt;Node4 -->
<g id="edge3" class="edge"><title>Node1&#45;&gt;Node4</title>
<path fill="none" stroke="midnightblue" d="M448.092,-121.873C438.163,-112.402 425.69,-100.504 415.935,-91.1992"/>
<polygon fill="midnightblue" stroke="midnightblue" points="445.757,-124.482 455.409,-128.852 450.589,-119.417 445.757,-124.482"/>
</g>
<!-- Node6 -->
<g id="node6" class="node"><title>Node6</title>
<g id="a_node6"><a xlink:href="dx_8cpp.html" target="_top" xlink:title="src/cinder/dx/dx.cpp">
<polygon fill="white" stroke="black" points="215.537,-65 215.537,-85 320.463,-85 320.463,-65 215.537,-65"/>
<text text-anchor="middle" x="268" y="-71" font-family="Helvetica,sans-Serif" font-size="10.00">src/cinder/dx/dx.cpp</text>
</a>
</g>
</g>
<!-- Node1&#45;&gt;Node6 -->
<g id="edge5" class="edge"><title>Node1&#45;&gt;Node6</title>
<path fill="none" stroke="midnightblue" d="M426.636,-125.926C388.533,-113.934 330.982,-95.8216 296.68,-85.0262"/>
<polygon fill="midnightblue" stroke="midnightblue" points="425.765,-129.321 436.355,-128.985 427.866,-122.644 425.765,-129.321"/>
</g>
<!-- Node3 -->
<g id="node3" class="node"><title>Node3</title>
<g id="a_node3"><a xlink:href="_dx_texture_font_8cpp.html" target="_top" xlink:title="src/cinder/dx/DxTextureFont.cpp">
<polygon fill="white" stroke="black" points="-0.694336,-1 -0.694336,-21 158.694,-21 158.694,-1 -0.694336,-1"/>
<text text-anchor="middle" x="79" y="-7" font-family="Helvetica,sans-Serif" font-size="10.00">src/cinder/dx/DxTextureFont.cpp</text>
</a>
</g>
</g>
<!-- Node1&#45;&gt;Node3 -->
<g id="edge6" class="edge"><title>Node1&#45;&gt;Node3</title>
<path fill="none" stroke="midnightblue" d="M401.167,-135.525C290.594,-130.575 72.9753,-117.663 50,-92 31.2773,-71.0873 56.3205,-37.1495 70.4779,-21.0403"/>
<polygon fill="midnightblue" stroke="midnightblue" points="401.057,-139.023 411.2,-135.965 401.364,-132.03 401.057,-139.023"/>
</g>
<!-- Node7 -->
<g id="node7" class="node"><title>Node7</title>
<g id="a_node7"><a xlink:href="gl_8cpp.html" target="_top" xlink:title="src/cinder/gl/gl.cpp">
<polygon fill="white" stroke="black" points="480.315,-65 480.315,-85 579.685,-85 579.685,-65 480.315,-65"/>
<text text-anchor="middle" x="530" y="-71" font-family="Helvetica,sans-Serif" font-size="10.00">src/cinder/gl/gl.cpp</text>
</a>
</g>
</g>
<!-- Node1&#45;&gt;Node7 -->
<g id="edge7" class="edge"><title>Node1&#45;&gt;Node7</title>
<path fill="none" stroke="midnightblue" d="M481.974,-121.81C494.206,-110.142 510.273,-94.8165 520.37,-85.1858"/>
<polygon fill="midnightblue" stroke="midnightblue" points="479.411,-119.417 474.591,-128.852 484.243,-124.482 479.411,-119.417"/>
</g>
<!-- Node5 -->
<g id="node5" class="node"><title>Node5</title>
<g id="a_node5"><a xlink:href="_texture_font_8cpp.html" target="_top" xlink:title="src/cinder/gl/TextureFont.cpp">
<polygon fill="white" stroke="black" points="431.806,-1 431.806,-21 576.194,-21 576.194,-1 431.806,-1"/>
<text text-anchor="middle" x="504" y="-7" font-family="Helvetica,sans-Serif" font-size="10.00">src/cinder/gl/TextureFont.cpp</text>
</a>
</g>
</g>
<!-- Node1&#45;&gt;Node5 -->
<g id="edge8" class="edge"><title>Node1&#45;&gt;Node5</title>
<path fill="none" stroke="midnightblue" d="M528.678,-129.392C551.227,-122.935 574.36,-111.663 588,-92 596.613,-79.5836 595.703,-71.0005 588,-58 577.067,-39.5472 555.823,-28.011 537.435,-21.1063"/>
<polygon fill="midnightblue" stroke="midnightblue" points="527.549,-126.068 518.739,-131.953 529.296,-132.847 527.549,-126.068"/>
</g>
<!-- Node8 -->
<g id="node8" class="node"><title>Node8</title>
<g id="a_node8"><a xlink:href="_svg_8cpp.html" target="_top" xlink:title="src/cinder/svg/Svg.cpp">
<polygon fill="white" stroke="black" points="635.702,-65 635.702,-85 752.298,-85 752.298,-65 635.702,-65"/>
<text text-anchor="middle" x="694" y="-71" font-family="Helvetica,sans-Serif" font-size="10.00">src/cinder/svg/Svg.cpp</text>
</a>
</g>
</g>
<!-- Node1&#45;&gt;Node8 -->
<g id="edge9" class="edge"><title>Node1&#45;&gt;Node8</title>
<path fill="none" stroke="midnightblue" d="M508.19,-126.307C552.461,-114.321 620.364,-95.9365 660.661,-85.0262"/>
<polygon fill="midnightblue" stroke="midnightblue" points="507.036,-122.993 498.299,-128.985 508.866,-129.75 507.036,-122.993"/>
</g>
<!-- Node9 -->
<g id="node9" class="node"><title>Node9</title>
<g id="a_node9"><a xlink:href="_text_8cpp.html" target="_top" xlink:title="src/cinder/Text.cpp">
<polygon fill="white" stroke="black" points="770.318,-65 770.318,-85 869.682,-85 869.682,-65 770.318,-65"/>
<text text-anchor="middle" x="820" y="-71" font-family="Helvetica,sans-Serif" font-size="10.00">src/cinder/Text.cpp</text>
</a>
</g>
</g>
<!-- Node1&#45;&gt;Node9 -->
<g id="edge10" class="edge"><title>Node1&#45;&gt;Node9</title>
<path fill="none" stroke="midnightblue" d="M528.913,-130.146C589.116,-122.259 681.657,-108.87 761,-92 770.239,-90.0356 780.185,-87.5033 789.23,-85.0353"/>
<polygon fill="midnightblue" stroke="midnightblue" points="528.265,-126.701 518.799,-131.46 529.166,-133.643 528.265,-126.701"/>
</g>
<!-- Node2&#45;&gt;Node3 -->
<g id="edge2" class="edge"><title>Node2&#45;&gt;Node3</title>
<path fill="none" stroke="midnightblue" d="M109.89,-51.0851C101.732,-40.7629 92.558,-29.155 86.3424,-21.2904"/>
<polygon fill="midnightblue" stroke="midnightblue" points="107.192,-53.3161 116.138,-58.9915 112.684,-48.9757 107.192,-53.3161"/>
</g>
<!-- Node4&#45;&gt;Node5 -->
<g id="edge4" class="edge"><title>Node4&#45;&gt;Node5</title>
<path fill="none" stroke="midnightblue" d="M433.922,-53.7775C452.406,-42.7577 474.372,-29.6626 488.721,-21.1088"/>
<polygon fill="midnightblue" stroke="midnightblue" points="431.973,-50.8645 425.175,-58.9915 435.557,-56.8772 431.973,-50.8645"/>
</g>
</g>
</svg>
