<?xml version="1.0" encoding="UTF-8" standalone="no"?>
<!DOCTYPE svg PUBLIC "-//W3C//DTD SVG 1.1//EN"
 "http://www.w3.org/Graphics/SVG/1.1/DTD/svg11.dtd">
<!-- Generated by graphviz version 2.30.1 (20140712.1814)
 -->
<!-- Title: include/cinder/ip/Threshold.h Pages: 1 -->
<!--zoomable 436 -->
<svg id="main" version="1.1" xmlns="http://www.w3.org/2000/svg" xmlns:xlink="http://www.w3.org/1999/xlink" xml:space="preserve" onload="init(evt)">
<style type="text/css"><![CDATA[
.edge:hover path { stroke: red; }
.edge:hover polygon { stroke: red; fill: red; }
]]></style>
<script type="text/javascript"><![CDATA[
var edges = document.getElementsByTagName('g');
if (edges && edges.length) {
  for (var i=0;i<edges.length;i++) {
    if (edges[i].id.substr(0,4)=='edge') {
      edges[i].setAttribute('class','edge');
    }
  }
}
]]></script>
        <defs>
                <circle id="rim" cx="0" cy="0" r="7"/>
                <circle id="rim2" cx="0" cy="0" r="3.5"/>
                <g id="zoomPlus">
                        <use xlink:href="#rim" fill="#404040">
                                <set attributeName="fill" to="#808080" begin="zoomplus.mouseover" end="zoomplus.mouseout"/>
                        </use>
                        <path d="M-4,0h8M0,-4v8" fill="none" stroke="white" stroke-width="1.5" pointer-events="none"/>
                </g>
                <g id="zoomMin">
                        <use xlink:href="#rim" fill="#404040">
                                <set attributeName="fill" to="#808080" begin="zoomminus.mouseover" end="zoomminus.mouseout"/>
                        </use>
                        <path d="M-4,0h8" fill="none" stroke="white" stroke-width="1.5" pointer-events="none"/>
                </g>
                <g id="dirArrow">
                        <path fill="none" stroke="white" stroke-width="1.5" d="M0,-3.0v7 M-2.5,-0.5L0,-3.0L2.5,-0.5"/>
                </g>
               <g id="resetDef">
                       <use xlink:href="#rim2" fill="#404040">
                               <set attributeName="fill" to="#808080" begin="reset.mouseover" end="reset.mouseout"/>
                       </use>
               </g>
        </defs>

<script type="text/javascript">
var viewWidth = 979;
var viewHeight = 436;
var sectionId = 'dynsection-0';
</script>
<script xlink:href="svgpan.js"/>
<svg id="graph" class="graph">
<g id="viewport">
<title>include/cinder/ip/Threshold.h</title>
<polygon fill="white" stroke="white" points="-4,5 -4,-432 976,-432 976,5 -4,5"/>
<!-- Node1 -->
<g id="node1" class="node"><title>Node1</title>
<polygon fill="#bfbfbf" stroke="black" points="56.0742,-407 56.0742,-427 199.926,-427 199.926,-407 56.0742,-407"/>
<text text-anchor="middle" x="128" y="-413" font-family="Helvetica,sans-Serif" font-size="10.00">include/cinder/ip/Threshold.h</text>
</g>
<!-- Node2 -->
<g id="node2" class="node"><title>Node2</title>
<g id="a_node2"><a xlink:href="_cinder_8h.html" target="_top" xlink:title="cinder/Cinder.h">
<polygon fill="white" stroke="black" points="358.367,-59 358.367,-79 441.633,-79 441.633,-59 358.367,-59"/>
<text text-anchor="middle" x="400" y="-65" font-family="Helvetica,sans-Serif" font-size="10.00">cinder/Cinder.h</text>
</a>
</g>
</g>
<!-- Node1&#45;&gt;Node2 -->
<g id="edge1" class="edge"><title>Node1&#45;&gt;Node2</title>
<path fill="none" stroke="midnightblue" d="M103.016,-406.888C65.7661,-391.502 0,-356.606 0,-302 0,-302 0,-302 0,-184 0,-137.673 36.8236,-135.166 79,-116 125.906,-94.685 269.829,-80.3348 348.062,-73.886"/>
<polygon fill="midnightblue" stroke="midnightblue" points="348.504,-77.3618 358.188,-73.0653 347.938,-70.3847 348.504,-77.3618"/>
</g>
<!-- Node6 -->
<g id="node6" class="node"><title>Node6</title>
<g id="a_node6"><a xlink:href="_surface_8h.html" target="_top" xlink:title="cinder/Surface.h">
<polygon fill="white" stroke="black" points="211.591,-349 211.591,-369 300.409,-369 300.409,-349 211.591,-349"/>
<text text-anchor="middle" x="256" y="-355" font-family="Helvetica,sans-Serif" font-size="10.00">cinder/Surface.h</text>
</a>
</g>
</g>
<!-- Node1&#45;&gt;Node6 -->
<g id="edge5" class="edge"><title>Node1&#45;&gt;Node6</title>
<path fill="none" stroke="midnightblue" d="M148.85,-406.878C169.77,-397.725 202.204,-383.536 225.91,-373.164"/>
<polygon fill="midnightblue" stroke="midnightblue" points="227.4,-376.333 235.159,-369.118 224.594,-369.92 227.4,-376.333"/>
</g>
<!-- Node3 -->
<g id="node3" class="node"><title>Node3</title>
<polygon fill="white" stroke="#bfbfbf" points="289.549,-1 289.549,-21 334.451,-21 334.451,-1 289.549,-1"/>
<text text-anchor="middle" x="312" y="-7" font-family="Helvetica,sans-Serif" font-size="10.00">cstdint</text>
</g>
<!-- Node2&#45;&gt;Node3 -->
<g id="edge2" class="edge"><title>Node2&#45;&gt;Node3</title>
<path fill="none" stroke="midnightblue" d="M385.469,-58.7527C371.757,-50.0272 350.979,-36.8051 335.015,-26.6458"/>
<polygon fill="midnightblue" stroke="midnightblue" points="336.577,-23.4912 326.261,-21.0752 332.819,-29.3968 336.577,-23.4912"/>
</g>
<!-- Node4 -->
<g id="node4" class="node"><title>Node4</title>
<polygon fill="white" stroke="#bfbfbf" points="352.53,-1 352.53,-21 447.47,-21 447.47,-1 352.53,-1"/>
<text text-anchor="middle" x="400" y="-7" font-family="Helvetica,sans-Serif" font-size="10.00">boost/version.hpp</text>
</g>
<!-- Node2&#45;&gt;Node4 -->
<g id="edge3" class="edge"><title>Node2&#45;&gt;Node4</title>
<path fill="none" stroke="midnightblue" d="M400,-58.7527C400,-51.2504 400,-40.4238 400,-31.0781"/>
<polygon fill="midnightblue" stroke="midnightblue" points="403.5,-31.0752 400,-21.0752 396.5,-31.0752 403.5,-31.0752"/>
</g>
<!-- Node5 -->
<g id="node5" class="node"><title>Node5</title>
<polygon fill="white" stroke="#bfbfbf" points="465.621,-1 465.621,-21 598.379,-21 598.379,-1 465.621,-1"/>
<text text-anchor="middle" x="532" y="-7" font-family="Helvetica,sans-Serif" font-size="10.00">boost/checked_delete.hpp</text>
</g>
<!-- Node2&#45;&gt;Node5 -->
<g id="edge4" class="edge"><title>Node2&#45;&gt;Node5</title>
<path fill="none" stroke="midnightblue" d="M421.502,-58.878C443.172,-49.6848 476.821,-35.4095 501.295,-25.0263"/>
<polygon fill="midnightblue" stroke="midnightblue" points="502.668,-28.2457 510.507,-21.1181 499.935,-21.8016 502.668,-28.2457"/>
</g>
<!-- Node6&#45;&gt;Node2 -->
<g id="edge6" class="edge"><title>Node6&#45;&gt;Node2</title>
<path fill="none" stroke="midnightblue" d="M211.471,-356.504C171.916,-353.063 114.424,-342.64 75,-312 47.8335,-290.886 38,-278.406 38,-244 38,-244 38,-244 38,-184 38,-119.805 247.724,-87.2884 347.91,-75.4173"/>
<polygon fill="midnightblue" stroke="midnightblue" points="348.59,-78.862 358.12,-74.2341 347.784,-71.9085 348.59,-78.862"/>
</g>
<!-- Node7 -->
<g id="node7" class="node"><title>Node7</title>
<g id="a_node7"><a xlink:href="_area_8h.html" target="_top" xlink:title="cinder/Area.h">
<polygon fill="white" stroke="black" points="296.261,-233 296.261,-253 371.739,-253 371.739,-233 296.261,-233"/>
<text text-anchor="middle" x="334" y="-239" font-family="Helvetica,sans-Serif" font-size="10.00">cinder/Area.h</text>
</a>
</g>
</g>
<!-- Node6&#45;&gt;Node7 -->
<g id="edge7" class="edge"><title>Node6&#45;&gt;Node7</title>
<path fill="none" stroke="midnightblue" d="M247.913,-348.567C237.164,-334.819 220.862,-308.865 233,-290 244.916,-271.48 266.324,-260.327 286.374,-253.656"/>
<polygon fill="midnightblue" stroke="midnightblue" points="287.501,-256.972 296.06,-250.728 285.475,-250.271 287.501,-256.972"/>
</g>
<!-- Node20 -->
<g id="node20" class="node"><title>Node20</title>
<g id="a_node20"><a xlink:href="_channel_8h.html" target="_top" xlink:title="cinder/Channel.h">
<polygon fill="white" stroke="black" points="373.197,-291 373.197,-311 464.803,-311 464.803,-291 373.197,-291"/>
<text text-anchor="middle" x="419" y="-297" font-family="Helvetica,sans-Serif" font-size="10.00">cinder/Channel.h</text>
</a>
</g>
</g>
<!-- Node6&#45;&gt;Node20 -->
<g id="edge24" class="edge"><title>Node6&#45;&gt;Node20</title>
<path fill="none" stroke="midnightblue" d="M282.552,-348.878C309.865,-339.494 352.591,-324.815 382.949,-314.386"/>
<polygon fill="midnightblue" stroke="midnightblue" points="384.41,-317.585 392.73,-311.025 382.135,-310.964 384.41,-317.585"/>
</g>
<!-- Node21 -->
<g id="node21" class="node"><title>Node21</title>
<g id="a_node21"><a xlink:href="_chan_traits_8h.html" target="_top" xlink:title="cinder/ChanTraits.h">
<polygon fill="white" stroke="black" points="446.553,-175 446.553,-195 549.447,-195 549.447,-175 446.553,-175"/>
<text text-anchor="middle" x="498" y="-181" font-family="Helvetica,sans-Serif" font-size="10.00">cinder/ChanTraits.h</text>
</a>
</g>
</g>
<!-- Node6&#45;&gt;Node21 -->
<g id="edge27" class="edge"><title>Node6&#45;&gt;Node21</title>
<path fill="none" stroke="midnightblue" d="M300.8,-354.253C357.145,-348.599 449.396,-335.913 473,-312 501.102,-283.53 502.097,-233.096 500.174,-205.456"/>
<polygon fill="midnightblue" stroke="midnightblue" points="503.628,-204.78 499.243,-195.136 496.656,-205.41 503.628,-204.78"/>
</g>
<!-- Node22 -->
<g id="node22" class="node"><title>Node22</title>
<g id="a_node22"><a xlink:href="_color_8h.html" target="_top" xlink:title="cinder/Color.h">
<polygon fill="white" stroke="black" points="604.148,-233 604.148,-253 681.852,-253 681.852,-233 604.148,-233"/>
<text text-anchor="middle" x="643" y="-239" font-family="Helvetica,sans-Serif" font-size="10.00">cinder/Color.h</text>
</a>
</g>
</g>
<!-- Node6&#45;&gt;Node22 -->
<g id="edge29" class="edge"><title>Node6&#45;&gt;Node22</title>
<path fill="none" stroke="midnightblue" d="M300.854,-353.811C352.205,-348.115 438.341,-335.787 509,-312 549.737,-298.286 593.545,-274.057 619.595,-258.529"/>
<polygon fill="midnightblue" stroke="midnightblue" points="621.603,-261.405 628.351,-253.237 617.982,-255.414 621.603,-261.405"/>
</g>
<!-- Node23 -->
<g id="node23" class="node"><title>Node23</title>
<g id="a_node23"><a xlink:href="_filesystem_8h.html" target="_top" xlink:title="cinder/Filesystem.h">
<polygon fill="white" stroke="black" points="83.9312,-291 83.9312,-311 186.069,-311 186.069,-291 83.9312,-291"/>
<text text-anchor="middle" x="135" y="-297" font-family="Helvetica,sans-Serif" font-size="10.00">cinder/Filesystem.h</text>
</a>
</g>
</g>
<!-- Node6&#45;&gt;Node23 -->
<g id="edge34" class="edge"><title>Node6&#45;&gt;Node23</title>
<path fill="none" stroke="midnightblue" d="M236.29,-348.878C216.69,-339.807 186.398,-325.788 164.044,-315.442"/>
<polygon fill="midnightblue" stroke="midnightblue" points="165.247,-312.142 154.702,-311.118 162.307,-318.495 165.247,-312.142"/>
</g>
<!-- Node25 -->
<g id="node25" class="node"><title>Node25</title>
<polygon fill="white" stroke="#bfbfbf" points="242.357,-291 242.357,-311 355.643,-311 355.643,-291 242.357,-291"/>
<text text-anchor="middle" x="299" y="-297" font-family="Helvetica,sans-Serif" font-size="10.00">boost/logic/tribool.hpp</text>
</g>
<!-- Node6&#45;&gt;Node25 -->
<g id="edge37" class="edge"><title>Node6&#45;&gt;Node25</title>
<path fill="none" stroke="midnightblue" d="M263.101,-348.753C269.237,-340.761 278.27,-328.998 285.739,-319.27"/>
<polygon fill="midnightblue" stroke="midnightblue" points="288.717,-321.138 292.032,-311.075 283.165,-316.875 288.717,-321.138"/>
</g>
<!-- Node7&#45;&gt;Node2 -->
<g id="edge8" class="edge"><title>Node7&#45;&gt;Node2</title>
<path fill="none" stroke="midnightblue" d="M340.521,-232.868C346.724,-223.85 355.979,-209.489 362,-196 378.234,-159.633 389.978,-114.376 395.82,-89.1948"/>
<polygon fill="midnightblue" stroke="midnightblue" points="399.301,-89.6662 398.084,-79.1416 392.472,-88.1283 399.301,-89.6662"/>
</g>
<!-- Node8 -->
<g id="node8" class="node"><title>Node8</title>
<g id="a_node8"><a xlink:href="_vector_8h.html" target="_top" xlink:title="cinder/Vector.h">
<polygon fill="white" stroke="black" points="601.919,-175 601.919,-195 684.081,-195 684.081,-175 601.919,-175"/>
<text text-anchor="middle" x="643" y="-181" font-family="Helvetica,sans-Serif" font-size="10.00">cinder/Vector.h</text>
</a>
</g>
</g>
<!-- Node7&#45;&gt;Node8 -->
<g id="edge9" class="edge"><title>Node7&#45;&gt;Node8</title>
<path fill="none" stroke="midnightblue" d="M371.889,-235.133C427.152,-225.118 530,-206.479 591.905,-195.26"/>
<polygon fill="midnightblue" stroke="midnightblue" points="592.632,-198.685 601.847,-193.458 591.384,-191.798 592.632,-198.685"/>
</g>
<!-- Node11 -->
<g id="node11" class="node"><title>Node11</title>
<polygon fill="white" stroke="#bfbfbf" points="484.828,-117 484.828,-137 539.172,-137 539.172,-117 484.828,-117"/>
<text text-anchor="middle" x="512" y="-123" font-family="Helvetica,sans-Serif" font-size="10.00">iostream</text>
</g>
<!-- Node7&#45;&gt;Node11 -->
<g id="edge21" class="edge"><title>Node7&#45;&gt;Node11</title>
<path fill="none" stroke="midnightblue" d="M303.684,-232.956C269.823,-221.343 222.416,-199.604 244,-174 273.026,-139.567 407.647,-130.908 474.344,-128.731"/>
<polygon fill="midnightblue" stroke="midnightblue" points="474.546,-132.227 484.439,-128.434 474.34,-125.23 474.546,-132.227"/>
</g>
<!-- Node18 -->
<g id="node18" class="node"><title>Node18</title>
<polygon fill="white" stroke="#bfbfbf" points="314.608,-175 314.608,-195 353.392,-195 353.392,-175 314.608,-175"/>
<text text-anchor="middle" x="334" y="-181" font-family="Helvetica,sans-Serif" font-size="10.00">utility</text>
</g>
<!-- Node7&#45;&gt;Node18 -->
<g id="edge22" class="edge"><title>Node7&#45;&gt;Node18</title>
<path fill="none" stroke="midnightblue" d="M334,-232.753C334,-225.25 334,-214.424 334,-205.078"/>
<polygon fill="midnightblue" stroke="midnightblue" points="337.5,-205.075 334,-195.075 330.5,-205.075 337.5,-205.075"/>
</g>
<!-- Node19 -->
<g id="node19" class="node"><title>Node19</title>
<polygon fill="white" stroke="#bfbfbf" points="253.384,-175 253.384,-195 296.616,-195 296.616,-175 253.384,-175"/>
<text text-anchor="middle" x="275" y="-181" font-family="Helvetica,sans-Serif" font-size="10.00">vector</text>
</g>
<!-- Node7&#45;&gt;Node19 -->
<g id="edge23" class="edge"><title>Node7&#45;&gt;Node19</title>
<path fill="none" stroke="midnightblue" d="M324.257,-232.753C315.494,-224.435 302.425,-212.031 291.951,-202.089"/>
<polygon fill="midnightblue" stroke="midnightblue" points="294.224,-199.421 284.561,-195.075 289.405,-204.498 294.224,-199.421"/>
</g>
<!-- Node9 -->
<g id="node9" class="node"><title>Node9</title>
<polygon fill="white" stroke="#bfbfbf" points="732.384,-59 732.384,-79 775.616,-79 775.616,-59 732.384,-59"/>
<text text-anchor="middle" x="754" y="-65" font-family="Helvetica,sans-Serif" font-size="10.00">cmath</text>
</g>
<!-- Node8&#45;&gt;Node9 -->
<g id="edge10" class="edge"><title>Node8&#45;&gt;Node9</title>
<path fill="none" stroke="midnightblue" d="M675.401,-174.877C694.96,-167.801 718.933,-156.092 734,-138 745.421,-124.286 750.32,-104.286 752.422,-89.5236"/>
<polygon fill="midnightblue" stroke="midnightblue" points="755.916,-89.773 753.545,-79.4468 748.959,-88.9974 755.916,-89.773"/>
</g>
<!-- Node10 -->
<g id="node10" class="node"><title>Node10</title>
<polygon fill="white" stroke="#bfbfbf" points="680.273,-117 680.273,-137 725.727,-137 725.727,-117 680.273,-117"/>
<text text-anchor="middle" x="703" y="-123" font-family="Helvetica,sans-Serif" font-size="10.00">cstring</text>
</g>
<!-- Node8&#45;&gt;Node10 -->
<g id="edge11" class="edge"><title>Node8&#45;&gt;Node10</title>
<path fill="none" stroke="midnightblue" d="M652.908,-174.753C661.82,-166.435 675.11,-154.031 685.762,-144.089"/>
<polygon fill="midnightblue" stroke="midnightblue" points="688.354,-146.457 693.277,-137.075 683.578,-141.34 688.354,-146.457"/>
</g>
<!-- Node8&#45;&gt;Node11 -->
<g id="edge12" class="edge"><title>Node8&#45;&gt;Node11</title>
<path fill="none" stroke="midnightblue" d="M621.661,-174.878C600.251,-165.725 567.057,-151.536 542.795,-141.164"/>
<polygon fill="midnightblue" stroke="midnightblue" points="543.901,-137.831 533.33,-137.118 541.149,-144.267 543.901,-137.831"/>
</g>
<!-- Node12 -->
<g id="node12" class="node"><title>Node12</title>
<polygon fill="white" stroke="#bfbfbf" points="556.884,-117 556.884,-137 605.116,-137 605.116,-117 556.884,-117"/>
<text text-anchor="middle" x="581" y="-123" font-family="Helvetica,sans-Serif" font-size="10.00">cassert</text>
</g>
<!-- Node8&#45;&gt;Node12 -->
<g id="edge13" class="edge"><title>Node8&#45;&gt;Node12</title>
<path fill="none" stroke="midnightblue" d="M632.762,-174.753C623.463,-166.353 609.55,-153.787 598.49,-143.798"/>
<polygon fill="midnightblue" stroke="midnightblue" points="600.815,-141.181 591.048,-137.075 596.123,-146.375 600.815,-141.181"/>
</g>
<!-- Node13 -->
<g id="node13" class="node"><title>Node13</title>
<polygon fill="white" stroke="#bfbfbf" points="623.613,-117 623.613,-137 662.387,-137 662.387,-117 623.613,-117"/>
<text text-anchor="middle" x="643" y="-123" font-family="Helvetica,sans-Serif" font-size="10.00">limits</text>
</g>
<!-- Node8&#45;&gt;Node13 -->
<g id="edge14" class="edge"><title>Node8&#45;&gt;Node13</title>
<path fill="none" stroke="midnightblue" d="M643,-174.753C643,-167.25 643,-156.424 643,-147.078"/>
<polygon fill="midnightblue" stroke="midnightblue" points="646.5,-147.075 643,-137.075 639.5,-147.075 646.5,-147.075"/>
</g>
<!-- Node14 -->
<g id="node14" class="node"><title>Node14</title>
<g id="a_node14"><a xlink:href="_cinder_math_8h.html" target="_top" xlink:title="cinder/CinderMath.h">
<polygon fill="white" stroke="black" points="819.978,-117 819.978,-137 926.022,-137 926.022,-117 819.978,-117"/>
<text text-anchor="middle" x="873" y="-123" font-family="Helvetica,sans-Serif" font-size="10.00">cinder/CinderMath.h</text>
</a>
</g>
</g>
<!-- Node8&#45;&gt;Node14 -->
<g id="edge15" class="edge"><title>Node8&#45;&gt;Node14</title>
<path fill="none" stroke="midnightblue" d="M680.209,-174.94C719.875,-165.283 782.785,-149.965 825.883,-139.472"/>
<polygon fill="midnightblue" stroke="midnightblue" points="826.956,-142.813 835.844,-137.047 825.3,-136.012 826.956,-142.813"/>
</g>
<!-- Node14&#45;&gt;Node2 -->
<g id="edge16" class="edge"><title>Node14&#45;&gt;Node2</title>
<path fill="none" stroke="midnightblue" d="M819.63,-117.861C815.023,-117.211 810.431,-116.582 806,-116 678.949,-99.3264 529.049,-83.2798 451.805,-75.2771"/>
<polygon fill="midnightblue" stroke="midnightblue" points="452.155,-71.7948 441.849,-74.2486 451.436,-78.7577 452.155,-71.7948"/>
</g>
<!-- Node14&#45;&gt;Node9 -->
<g id="edge17" class="edge"><title>Node14&#45;&gt;Node9</title>
<path fill="none" stroke="midnightblue" d="M853.616,-116.878C834.339,-107.807 804.549,-93.7876 782.564,-83.4418"/>
<polygon fill="midnightblue" stroke="midnightblue" points="783.914,-80.2093 773.376,-79.1181 780.934,-86.543 783.914,-80.2093"/>
</g>
<!-- Node15 -->
<g id="node15" class="node"><title>Node15</title>
<polygon fill="white" stroke="#bfbfbf" points="928.113,-59 928.113,-79 971.887,-79 971.887,-59 928.113,-59"/>
<text text-anchor="middle" x="950" y="-65" font-family="Helvetica,sans-Serif" font-size="10.00">climits</text>
</g>
<!-- Node14&#45;&gt;Node15 -->
<g id="edge18" class="edge"><title>Node14&#45;&gt;Node15</title>
<path fill="none" stroke="midnightblue" d="M885.715,-116.753C897.488,-108.19 915.216,-95.2978 929.074,-85.2186"/>
<polygon fill="midnightblue" stroke="midnightblue" points="931.493,-87.7875 937.522,-79.0752 927.376,-82.1264 931.493,-87.7875"/>
</g>
<!-- Node16 -->
<g id="node16" class="node"><title>Node16</title>
<polygon fill="white" stroke="#bfbfbf" points="794.049,-59 794.049,-79 833.951,-79 833.951,-59 794.049,-59"/>
<text text-anchor="middle" x="814" y="-65" font-family="Helvetica,sans-Serif" font-size="10.00">cfloat</text>
</g>
<!-- Node14&#45;&gt;Node16 -->
<g id="edge19" class="edge"><title>Node14&#45;&gt;Node16</title>
<path fill="none" stroke="midnightblue" d="M863.257,-116.753C854.494,-108.435 841.425,-96.031 830.951,-86.0893"/>
<polygon fill="midnightblue" stroke="midnightblue" points="833.224,-83.4209 823.561,-79.0752 828.405,-88.4981 833.224,-83.4209"/>
</g>
<!-- Node17 -->
<g id="node17" class="node"><title>Node17</title>
<polygon fill="white" stroke="#bfbfbf" points="851.596,-59 851.596,-79 910.404,-79 910.404,-59 851.596,-59"/>
<text text-anchor="middle" x="881" y="-65" font-family="Helvetica,sans-Serif" font-size="10.00">functional</text>
</g>
<!-- Node14&#45;&gt;Node17 -->
<g id="edge20" class="edge"><title>Node14&#45;&gt;Node17</title>
<path fill="none" stroke="midnightblue" d="M874.321,-116.753C875.393,-109.25 876.939,-98.4238 878.275,-89.0781"/>
<polygon fill="midnightblue" stroke="midnightblue" points="881.754,-89.4697 879.704,-79.0752 874.824,-88.4797 881.754,-89.4697"/>
</g>
<!-- Node20&#45;&gt;Node2 -->
<g id="edge25" class="edge"><title>Node20&#45;&gt;Node2</title>
<path fill="none" stroke="midnightblue" d="M418.255,-290.984C415.454,-257.07 405.51,-136.695 401.598,-89.3391"/>
<polygon fill="midnightblue" stroke="midnightblue" points="405.072,-88.8818 400.76,-79.2039 398.096,-89.4581 405.072,-88.8818"/>
</g>
<!-- Node20&#45;&gt;Node7 -->
<g id="edge26" class="edge"><title>Node20&#45;&gt;Node7</title>
<path fill="none" stroke="midnightblue" d="M404.964,-290.753C391.72,-282.027 371.651,-268.805 356.23,-258.646"/>
<polygon fill="midnightblue" stroke="midnightblue" points="358.051,-255.654 347.775,-253.075 354.2,-261.5 358.051,-255.654"/>
</g>
<!-- Node21&#45;&gt;Node2 -->
<g id="edge28" class="edge"><title>Node21&#45;&gt;Node2</title>
<path fill="none" stroke="midnightblue" d="M489.98,-174.671C473.46,-155.453 435.432,-111.217 414.489,-86.8542"/>
<polygon fill="midnightblue" stroke="midnightblue" points="417.03,-84.441 407.857,-79.1394 411.721,-89.0042 417.03,-84.441"/>
</g>
<!-- Node22&#45;&gt;Node2 -->
<g id="edge30" class="edge"><title>Node22&#45;&gt;Node2</title>
<path fill="none" stroke="midnightblue" d="M658.475,-232.872C692.834,-211.513 769.728,-156.986 734,-116 698.047,-74.7558 536.479,-69.2191 451.939,-69.2328"/>
<polygon fill="midnightblue" stroke="midnightblue" points="451.768,-65.7331 441.778,-69.2613 451.788,-72.7331 451.768,-65.7331"/>
</g>
<!-- Node22&#45;&gt;Node21 -->
<g id="edge31" class="edge"><title>Node22&#45;&gt;Node21</title>
<path fill="none" stroke="midnightblue" d="M619.381,-232.878C595.366,-223.603 557.959,-209.156 531.017,-198.752"/>
<polygon fill="midnightblue" stroke="midnightblue" points="532.199,-195.456 521.609,-195.118 529.677,-201.986 532.199,-195.456"/>
</g>
<!-- Node22&#45;&gt;Node8 -->
<g id="edge32" class="edge"><title>Node22&#45;&gt;Node8</title>
<path fill="none" stroke="midnightblue" d="M643,-232.753C643,-225.25 643,-214.424 643,-205.078"/>
<polygon fill="midnightblue" stroke="midnightblue" points="646.5,-205.075 643,-195.075 639.5,-205.075 646.5,-205.075"/>
</g>
<!-- Node22&#45;&gt;Node14 -->
<g id="edge33" class="edge"><title>Node22&#45;&gt;Node14</title>
<path fill="none" stroke="midnightblue" d="M682.12,-236.772C716.615,-230.854 767.274,-218.895 806,-196 827.944,-183.027 847.705,-161.095 859.985,-145.653"/>
<polygon fill="midnightblue" stroke="midnightblue" points="862.989,-147.489 866.311,-137.428 857.44,-143.221 862.989,-147.489"/>
</g>
<!-- Node23&#45;&gt;Node2 -->
<g id="edge35" class="edge"><title>Node23&#45;&gt;Node2</title>
<path fill="none" stroke="midnightblue" d="M145.718,-290.711C155.683,-281.808 170.654,-267.73 182,-254 209.169,-221.123 204.501,-203.814 235,-174 276.278,-133.649 335.748,-100.921 370.877,-83.5565"/>
<polygon fill="midnightblue" stroke="midnightblue" points="372.64,-86.5913 380.105,-79.0727 369.581,-80.2952 372.64,-86.5913"/>
</g>
<!-- Node24 -->
<g id="node24" class="node"><title>Node24</title>
<polygon fill="white" stroke="#bfbfbf" points="66.4214,-233 66.4214,-253 173.579,-253 173.579,-233 66.4214,-233"/>
<text text-anchor="middle" x="120" y="-239" font-family="Helvetica,sans-Serif" font-size="10.00">boost/filesystem.hpp</text>
</g>
<!-- Node23&#45;&gt;Node24 -->
<g id="edge36" class="edge"><title>Node23&#45;&gt;Node24</title>
<path fill="none" stroke="midnightblue" d="M132.523,-290.753C130.492,-283.169 127.55,-272.188 125.029,-262.774"/>
<polygon fill="midnightblue" stroke="midnightblue" points="128.399,-261.829 122.431,-253.075 121.637,-263.64 128.399,-261.829"/>
</g>
</g>
</svg>
        <g id="navigator" transform="translate(0 0)" fill="#404254">
                <rect fill="#f2f5e9" fill-opacity="0.5" stroke="#606060" stroke-width=".5" x="0" y="0" width="60" height="60"/>
                <use id="zoomplus" xlink:href="#zoomPlus" x="17" y="9" onmousedown="handleZoom(evt,'in')"/>
                <use id="zoomminus" xlink:href="#zoomMin" x="42" y="9" onmousedown="handleZoom(evt,'out')"/>
                <use id="reset" xlink:href="#resetDef" x="30" y="36" onmousedown="handleReset()"/>
                <g id="arrowUp" xlink:href="#dirArrow" transform="translate(30 24)" onmousedown="handlePan(0,-1)">
                  <use xlink:href="#rim" fill="#404040">
                        <set attributeName="fill" to="#808080" begin="arrowUp.mouseover" end="arrowUp.mouseout"/>
                  </use>
                  <path fill="none" stroke="white" stroke-width="1.5" d="M0,-3.0v7 M-2.5,-0.5L0,-3.0L2.5,-0.5"/>
                </g>
                <g id="arrowRight" xlink:href="#dirArrow" transform="rotate(90) translate(36 -43)" onmousedown="handlePan(1,0)">
                  <use xlink:href="#rim" fill="#404040">
                        <set attributeName="fill" to="#808080" begin="arrowRight.mouseover" end="arrowRight.mouseout"/>
                  </use>
                  <path fill="none" stroke="white" stroke-width="1.5" d="M0,-3.0v7 M-2.5,-0.5L0,-3.0L2.5,-0.5"/>
                </g>
                <g id="arrowDown" xlink:href="#dirArrow" transform="rotate(180) translate(-30 -48)" onmousedown="handlePan(0,1)">
                  <use xlink:href="#rim" fill="#404040">
                        <set attributeName="fill" to="#808080" begin="arrowDown.mouseover" end="arrowDown.mouseout"/>
                  </use>
                  <path fill="none" stroke="white" stroke-width="1.5" d="M0,-3.0v7 M-2.5,-0.5L0,-3.0L2.5,-0.5"/>
                </g>
                <g id="arrowLeft" xlink:href="#dirArrow" transform="rotate(270) translate(-36 17)" onmousedown="handlePan(-1,0)">
                  <use xlink:href="#rim" fill="#404040">
                        <set attributeName="fill" to="#808080" begin="arrowLeft.mouseover" end="arrowLeft.mouseout"/>
                  </use>
                  <path fill="none" stroke="white" stroke-width="1.5" d="M0,-3.0v7 M-2.5,-0.5L0,-3.0L2.5,-0.5"/>
                </g>
        </g>
        <svg viewBox="0 0 15 15" width="100%" height="30px" preserveAspectRatio="xMaxYMin meet">
         <g id="arrow_out" transform="scale(0.3 0.3)">
          <a xlink:href="_threshold_8h__incl_org.svg" target="_base">
           <rect id="button" ry="5" rx="5" y="6" x="6" height="38" width="38"
                fill="#f2f5e9" fill-opacity="0.5" stroke="#606060" stroke-width="1.0"/>
           <path id="arrow"
             d="M 11.500037,31.436501 C 11.940474,20.09759 22.043105,11.32322 32.158766,21.979434 L 37.068811,17.246167 C 37.068811,17.246167 37.088388,32 37.088388,32 L 22.160133,31.978069 C 22.160133,31.978069 26.997745,27.140456 26.997745,27.140456 C 18.528582,18.264221 13.291696,25.230495 11.500037,31.436501 z"
             style="fill:#404040;"/>
          </a>
         </g>
        </svg>
</svg>
