<?xml version="1.0" encoding="UTF-8" standalone="no"?>
<!DOCTYPE svg PUBLIC "-//W3C//DTD SVG 1.1//EN"
 "http://www.w3.org/Graphics/SVG/1.1/DTD/svg11.dtd">
<!-- Generated by graphviz version 2.30.1 (20140712.1814)
 -->
<!-- Title: include/cinder/Thread.h Pages: 1 -->
<svg width="841pt" height="158pt"
 viewBox="0.00 0.00 841.00 158.00" xmlns="http://www.w3.org/2000/svg" xmlns:xlink="http://www.w3.org/1999/xlink">
<g id="graph0" class="graph" transform="scale(1 1) rotate(0) translate(4 154)">
<title>include/cinder/Thread.h</title>
<polygon fill="white" stroke="white" points="-4,5 -4,-154 838,-154 838,5 -4,5"/>
<!-- Node1 -->
<g id="node1" class="node"><title>Node1</title>
<polygon fill="#bfbfbf" stroke="black" points="373.747,-129 373.747,-149 494.253,-149 494.253,-129 373.747,-129"/>
<text text-anchor="middle" x="434" y="-135" font-family="Helvetica,sans-Serif" font-size="10.00">include/cinder/Thread.h</text>
</g>
<!-- Node2 -->
<g id="node2" class="node"><title>Node2</title>
<g id="a_node2"><a xlink:href="_cinder_8h.html" target="_top" xlink:title="cinder/Cinder.h">
<polygon fill="white" stroke="black" points="68.3672,-65 68.3672,-85 151.633,-85 151.633,-65 68.3672,-65"/>
<text text-anchor="middle" x="110" y="-71" font-family="Helvetica,sans-Serif" font-size="10.00">cinder/Cinder.h</text>
</a>
</g>
</g>
<!-- Node1&#45;&gt;Node2 -->
<g id="edge1" class="edge"><title>Node1&#45;&gt;Node2</title>
<path fill="none" stroke="midnightblue" d="M373.633,-130.401C317.777,-122.773 232.657,-109.628 160,-92 155.267,-90.8517 150.331,-89.4856 145.484,-88.0427"/>
<polygon fill="midnightblue" stroke="midnightblue" points="146.339,-84.6433 135.75,-85.0182 144.261,-91.3281 146.339,-84.6433"/>
</g>
<!-- Node6 -->
<g id="node6" class="node"><title>Node6</title>
<polygon fill="white" stroke="#bfbfbf" points="169.466,-65 169.466,-85 290.534,-85 290.534,-65 169.466,-65"/>
<text text-anchor="middle" x="230" y="-71" font-family="Helvetica,sans-Serif" font-size="10.00">boost/thread/mutex.hpp</text>
</g>
<!-- Node1&#45;&gt;Node6 -->
<g id="edge5" class="edge"><title>Node1&#45;&gt;Node6</title>
<path fill="none" stroke="midnightblue" d="M404.337,-128.985C368.757,-118.171 308.984,-100.005 269.515,-88.0095"/>
<polygon fill="midnightblue" stroke="midnightblue" points="270.285,-84.5854 259.699,-85.0262 268.249,-91.2829 270.285,-84.5854"/>
</g>
<!-- Node7 -->
<g id="node7" class="node"><title>Node7</title>
<polygon fill="white" stroke="#bfbfbf" points="308.53,-59 308.53,-91 423.47,-91 423.47,-59 308.53,-59"/>
<text text-anchor="start" x="316.53" y="-77" font-family="Helvetica,sans-Serif" font-size="10.00">boost/thread/recursive</text>
<text text-anchor="middle" x="366" y="-65" font-family="Helvetica,sans-Serif" font-size="10.00">_mutex.hpp</text>
</g>
<!-- Node1&#45;&gt;Node7 -->
<g id="edge6" class="edge"><title>Node1&#45;&gt;Node7</title>
<path fill="none" stroke="midnightblue" d="M423.966,-128.852C415.141,-120.805 401.933,-108.763 390.353,-98.2044"/>
<polygon fill="midnightblue" stroke="midnightblue" points="392.418,-95.3504 382.67,-91.1992 387.701,-100.523 392.418,-95.3504"/>
</g>
<!-- Node8 -->
<g id="node8" class="node"><title>Node8</title>
<polygon fill="white" stroke="#bfbfbf" points="441.904,-65 441.904,-85 564.096,-85 564.096,-65 441.904,-65"/>
<text text-anchor="middle" x="503" y="-71" font-family="Helvetica,sans-Serif" font-size="10.00">boost/thread/thread.hpp</text>
</g>
<!-- Node1&#45;&gt;Node8 -->
<g id="edge7" class="edge"><title>Node1&#45;&gt;Node8</title>
<path fill="none" stroke="midnightblue" d="M444.181,-128.852C454.985,-119.144 472.261,-103.62 485.301,-91.9034"/>
<polygon fill="midnightblue" stroke="midnightblue" points="487.678,-94.473 492.777,-85.1858 482.999,-89.2662 487.678,-94.473"/>
</g>
<!-- Node9 -->
<g id="node9" class="node"><title>Node9</title>
<polygon fill="white" stroke="#bfbfbf" points="581.798,-59 581.798,-91 696.202,-91 696.202,-59 581.798,-59"/>
<text text-anchor="start" x="589.798" y="-77" font-family="Helvetica,sans-Serif" font-size="10.00">boost/thread/condition</text>
<text text-anchor="middle" x="639" y="-65" font-family="Helvetica,sans-Serif" font-size="10.00">_variable.hpp</text>
</g>
<!-- Node1&#45;&gt;Node9 -->
<g id="edge8" class="edge"><title>Node1&#45;&gt;Node9</title>
<path fill="none" stroke="midnightblue" d="M463.809,-128.985C493.982,-119.859 541.471,-105.497 579.398,-94.0258"/>
<polygon fill="midnightblue" stroke="midnightblue" points="580.759,-97.2709 589.318,-91.0258 578.733,-90.5706 580.759,-97.2709"/>
</g>
<!-- Node10 -->
<g id="node10" class="node"><title>Node10</title>
<polygon fill="white" stroke="#bfbfbf" points="714.296,-65 714.296,-85 833.704,-85 833.704,-65 714.296,-65"/>
<text text-anchor="middle" x="774" y="-71" font-family="Helvetica,sans-Serif" font-size="10.00">boost/thread/future.hpp</text>
</g>
<!-- Node1&#45;&gt;Node10 -->
<g id="edge9" class="edge"><title>Node1&#45;&gt;Node10</title>
<path fill="none" stroke="midnightblue" d="M493.397,-128.964C548.428,-120.344 632.477,-106.55 705,-92 712.129,-90.5698 719.645,-88.9468 726.99,-87.2963"/>
<polygon fill="midnightblue" stroke="midnightblue" points="727.877,-90.6838 736.846,-85.0441 726.318,-83.8597 727.877,-90.6838"/>
</g>
<!-- Node3 -->
<g id="node3" class="node"><title>Node3</title>
<polygon fill="white" stroke="#bfbfbf" points="-0.450684,-1 -0.450684,-21 44.4507,-21 44.4507,-1 -0.450684,-1"/>
<text text-anchor="middle" x="22" y="-7" font-family="Helvetica,sans-Serif" font-size="10.00">cstdint</text>
</g>
<!-- Node2&#45;&gt;Node3 -->
<g id="edge2" class="edge"><title>Node2&#45;&gt;Node3</title>
<path fill="none" stroke="midnightblue" d="M97.0153,-64.8517C82.9771,-54.9611 60.3688,-39.0326 43.6371,-27.2443"/>
<polygon fill="midnightblue" stroke="midnightblue" points="45.2287,-24.0842 35.038,-21.1858 41.197,-29.8066 45.2287,-24.0842"/>
</g>
<!-- Node4 -->
<g id="node4" class="node"><title>Node4</title>
<polygon fill="white" stroke="#bfbfbf" points="62.5298,-1 62.5298,-21 157.47,-21 157.47,-1 62.5298,-1"/>
<text text-anchor="middle" x="110" y="-7" font-family="Helvetica,sans-Serif" font-size="10.00">boost/version.hpp</text>
</g>
<!-- Node2&#45;&gt;Node4 -->
<g id="edge3" class="edge"><title>Node2&#45;&gt;Node4</title>
<path fill="none" stroke="midnightblue" d="M110,-64.8517C110,-56.0601 110,-42.4977 110,-31.3131"/>
<polygon fill="midnightblue" stroke="midnightblue" points="113.5,-31.1858 110,-21.1858 106.5,-31.1859 113.5,-31.1858"/>
</g>
<!-- Node5 -->
<g id="node5" class="node"><title>Node5</title>
<polygon fill="white" stroke="#bfbfbf" points="175.621,-1 175.621,-21 308.379,-21 308.379,-1 175.621,-1"/>
<text text-anchor="middle" x="242" y="-7" font-family="Helvetica,sans-Serif" font-size="10.00">boost/checked_delete.hpp</text>
</g>
<!-- Node2&#45;&gt;Node5 -->
<g id="edge4" class="edge"><title>Node2&#45;&gt;Node5</title>
<path fill="none" stroke="midnightblue" d="M129.194,-64.9847C151.385,-54.5615 188.121,-37.3066 213.616,-25.3319"/>
<polygon fill="midnightblue" stroke="midnightblue" points="215.22,-28.4456 222.783,-21.0262 212.244,-22.1097 215.22,-28.4456"/>
</g>
</g>
</svg>
