<?xml version="1.0" encoding="UTF-8" standalone="no"?>
<!DOCTYPE svg PUBLIC "-//W3C//DTD SVG 1.1//EN"
 "http://www.w3.org/Graphics/SVG/1.1/DTD/svg11.dtd">
<!-- Generated by graphviz version 2.30.1 (20140712.1814)
 -->
<!-- Title: src/cinder/Timeline.cpp Pages: 1 -->
<!--zoomable 668 -->
<svg id="main" version="1.1" xmlns="http://www.w3.org/2000/svg" xmlns:xlink="http://www.w3.org/1999/xlink" xml:space="preserve" onload="init(evt)">
<style type="text/css"><![CDATA[
.edge:hover path { stroke: red; }
.edge:hover polygon { stroke: red; fill: red; }
]]></style>
<script type="text/javascript"><![CDATA[
var edges = document.getElementsByTagName('g');
if (edges && edges.length) {
  for (var i=0;i<edges.length;i++) {
    if (edges[i].id.substr(0,4)=='edge') {
      edges[i].setAttribute('class','edge');
    }
  }
}
]]></script>
        <defs>
                <circle id="rim" cx="0" cy="0" r="7"/>
                <circle id="rim2" cx="0" cy="0" r="3.5"/>
                <g id="zoomPlus">
                        <use xlink:href="#rim" fill="#404040">
                                <set attributeName="fill" to="#808080" begin="zoomplus.mouseover" end="zoomplus.mouseout"/>
                        </use>
                        <path d="M-4,0h8M0,-4v8" fill="none" stroke="white" stroke-width="1.5" pointer-events="none"/>
                </g>
                <g id="zoomMin">
                        <use xlink:href="#rim" fill="#404040">
                                <set attributeName="fill" to="#808080" begin="zoomminus.mouseover" end="zoomminus.mouseout"/>
                        </use>
                        <path d="M-4,0h8" fill="none" stroke="white" stroke-width="1.5" pointer-events="none"/>
                </g>
                <g id="dirArrow">
                        <path fill="none" stroke="white" stroke-width="1.5" d="M0,-3.0v7 M-2.5,-0.5L0,-3.0L2.5,-0.5"/>
                </g>
               <g id="resetDef">
                       <use xlink:href="#rim2" fill="#404040">
                               <set attributeName="fill" to="#808080" begin="reset.mouseover" end="reset.mouseout"/>
                       </use>
               </g>
        </defs>

<script type="text/javascript">
var viewWidth = 1014;
var viewHeight = 668;
var sectionId = 'dynsection-0';
</script>
<script xlink:href="svgpan.js"/>
<svg id="graph" class="graph">
<g id="viewport">
<title>src/cinder/Timeline.cpp</title>
<polygon fill="white" stroke="white" points="-4,5 -4,-664 1011,-664 1011,5 -4,5"/>
<!-- Node1 -->
<g id="node1" class="node"><title>Node1</title>
<polygon fill="#bfbfbf" stroke="black" points="733.777,-639 733.777,-659 852.223,-659 852.223,-639 733.777,-639"/>
<text text-anchor="middle" x="793" y="-645" font-family="Helvetica,sans-Serif" font-size="10.00">src/cinder/Timeline.cpp</text>
</g>
<!-- Node2 -->
<g id="node2" class="node"><title>Node2</title>
<g id="a_node2"><a xlink:href="_timeline_8h.html" target="_top" xlink:title="cinder/Timeline.h">
<polygon fill="white" stroke="black" points="608.112,-581 608.112,-601 699.888,-601 699.888,-581 608.112,-581"/>
<text text-anchor="middle" x="654" y="-587" font-family="Helvetica,sans-Serif" font-size="10.00">cinder/Timeline.h</text>
</a>
</g>
</g>
<!-- Node1&#45;&gt;Node2 -->
<g id="edge1" class="edge"><title>Node1&#45;&gt;Node2</title>
<path fill="none" stroke="midnightblue" d="M770.358,-638.878C747.438,-629.644 711.792,-615.283 685.992,-604.889"/>
<polygon fill="midnightblue" stroke="midnightblue" points="687.216,-601.609 676.632,-601.118 684.6,-608.102 687.216,-601.609"/>
</g>
<!-- Node17 -->
<g id="node17" class="node"><title>Node17</title>
<polygon fill="white" stroke="#bfbfbf" points="963.384,-407 963.384,-427 1006.62,-427 1006.62,-407 963.384,-407"/>
<text text-anchor="middle" x="985" y="-413" font-family="Helvetica,sans-Serif" font-size="10.00">vector</text>
</g>
<!-- Node1&#45;&gt;Node17 -->
<g id="edge71" class="edge"><title>Node1&#45;&gt;Node17</title>
<path fill="none" stroke="midnightblue" d="M800.527,-638.984C829.316,-604.496 932.744,-480.598 970.809,-435"/>
<polygon fill="midnightblue" stroke="midnightblue" points="973.595,-437.124 977.317,-427.204 968.221,-432.638 973.595,-437.124"/>
</g>
<!-- Node3 -->
<g id="node3" class="node"><title>Node3</title>
<g id="a_node3"><a xlink:href="_cinder_8h.html" target="_top" xlink:title="cinder/Cinder.h">
<polygon fill="white" stroke="black" points="129.367,-59 129.367,-79 212.633,-79 212.633,-59 129.367,-59"/>
<text text-anchor="middle" x="171" y="-65" font-family="Helvetica,sans-Serif" font-size="10.00">cinder/Cinder.h</text>
</a>
</g>
</g>
<!-- Node2&#45;&gt;Node3 -->
<g id="edge2" class="edge"><title>Node2&#45;&gt;Node3</title>
<path fill="none" stroke="midnightblue" d="M608.012,-586.856C459.148,-576.073 0,-537.805 0,-476 0,-476 0,-476 0,-184 0,-125.964 69.0332,-95.6555 119.375,-81.2687"/>
<polygon fill="midnightblue" stroke="midnightblue" points="120.441,-84.6062 129.169,-78.6002 118.6,-77.8524 120.441,-84.6062"/>
</g>
<!-- Node7 -->
<g id="node7" class="node"><title>Node7</title>
<g id="a_node7"><a xlink:href="_timeline_item_8h.html" target="_top" xlink:title="cinder/TimelineItem.h">
<polygon fill="white" stroke="black" points="90.3877,-465 90.3877,-485 201.612,-485 201.612,-465 90.3877,-465"/>
<text text-anchor="middle" x="146" y="-471" font-family="Helvetica,sans-Serif" font-size="10.00">cinder/TimelineItem.h</text>
</a>
</g>
</g>
<!-- Node2&#45;&gt;Node7 -->
<g id="edge6" class="edge"><title>Node2&#45;&gt;Node7</title>
<path fill="none" stroke="midnightblue" d="M608.061,-583.522C554.813,-575.674 464.564,-561.329 388,-544 315.234,-527.531 231.733,-502.733 184.285,-488.075"/>
<polygon fill="midnightblue" stroke="midnightblue" points="185.029,-484.641 174.441,-485.019 182.954,-491.326 185.029,-484.641"/>
</g>
<!-- Node8 -->
<g id="node8" class="node"><title>Node8</title>
<g id="a_node8"><a xlink:href="_easing_8h.html" target="_top" xlink:title="cinder/Easing.h">
<polygon fill="white" stroke="black" points="730.535,-465 730.535,-485 815.465,-485 815.465,-465 730.535,-465"/>
<text text-anchor="middle" x="773" y="-471" font-family="Helvetica,sans-Serif" font-size="10.00">cinder/Easing.h</text>
</a>
</g>
</g>
<!-- Node2&#45;&gt;Node8 -->
<g id="edge8" class="edge"><title>Node2&#45;&gt;Node8</title>
<path fill="none" stroke="midnightblue" d="M672.265,-580.979C687.725,-572.759 709.877,-559.548 726,-544 741.275,-529.269 754.586,-508.867 763.104,-494.261"/>
<polygon fill="midnightblue" stroke="midnightblue" points="766.341,-495.646 768.202,-485.216 760.243,-492.209 766.341,-495.646"/>
</g>
<!-- Node14 -->
<g id="node14" class="node"><title>Node14</title>
<g id="a_node14"><a xlink:href="_tween_8h.html" target="_top" xlink:title="cinder/Tween.h">
<polygon fill="white" stroke="black" points="489.089,-523 489.089,-543 572.911,-543 572.911,-523 489.089,-523"/>
<text text-anchor="middle" x="531" y="-529" font-family="Helvetica,sans-Serif" font-size="10.00">cinder/Tween.h</text>
</a>
</g>
</g>
<!-- Node2&#45;&gt;Node14 -->
<g id="edge15" class="edge"><title>Node2&#45;&gt;Node14</title>
<path fill="none" stroke="midnightblue" d="M633.964,-580.878C613.951,-571.766 582.971,-557.662 560.219,-547.303"/>
<polygon fill="midnightblue" stroke="midnightblue" points="561.579,-544.076 551.027,-543.118 558.678,-550.447 561.579,-544.076"/>
</g>
<!-- Node15 -->
<g id="node15" class="node"><title>Node15</title>
<g id="a_node15"><a xlink:href="_function_8h.html" target="_top" xlink:title="cinder/Function.h">
<polygon fill="white" stroke="black" points="619.646,-465 619.646,-485 712.354,-485 712.354,-465 619.646,-465"/>
<text text-anchor="middle" x="666" y="-471" font-family="Helvetica,sans-Serif" font-size="10.00">cinder/Function.h</text>
</a>
</g>
</g>
<!-- Node2&#45;&gt;Node15 -->
<g id="edge67" class="edge"><title>Node2&#45;&gt;Node15</title>
<path fill="none" stroke="midnightblue" d="M654.982,-580.671C656.943,-562.041 661.379,-519.898 663.985,-495.143"/>
<polygon fill="midnightblue" stroke="midnightblue" points="667.472,-495.451 665.038,-485.139 660.51,-494.718 667.472,-495.451"/>
</g>
<!-- Node2&#45;&gt;Node17 -->
<g id="edge68" class="edge"><title>Node2&#45;&gt;Node17</title>
<path fill="none" stroke="midnightblue" d="M673.397,-580.883C692.674,-571.758 723.032,-557.213 749,-544 826.355,-504.641 916.527,-455.606 959.587,-431.993"/>
<polygon fill="midnightblue" stroke="midnightblue" points="961.442,-434.967 968.523,-427.086 958.073,-428.831 961.442,-434.967"/>
</g>
<!-- Node33 -->
<g id="node33" class="node"><title>Node33</title>
<polygon fill="white" stroke="#bfbfbf" points="219.5,-465 219.5,-485 248.5,-485 248.5,-465 219.5,-465"/>
<text text-anchor="middle" x="233.611" y="-471" font-family="Helvetica,sans-Serif" font-size="10.00">list</text>
</g>
<!-- Node2&#45;&gt;Node33 -->
<g id="edge69" class="edge"><title>Node2&#45;&gt;Node33</title>
<path fill="none" stroke="midnightblue" d="M616.269,-580.942C546.211,-563.907 391.472,-525.265 263,-486 261.536,-485.552 260.035,-485.079 258.523,-484.592"/>
<polygon fill="midnightblue" stroke="midnightblue" points="259.281,-481.154 248.687,-481.291 257.054,-487.791 259.281,-481.154"/>
</g>
<!-- Node34 -->
<g id="node34" class="node"><title>Node34</title>
<polygon fill="white" stroke="#bfbfbf" points="682.273,-523 682.273,-543 717.727,-543 717.727,-523 682.273,-523"/>
<text text-anchor="middle" x="700" y="-529" font-family="Helvetica,sans-Serif" font-size="10.00">map</text>
</g>
<!-- Node2&#45;&gt;Node34 -->
<g id="edge70" class="edge"><title>Node2&#45;&gt;Node34</title>
<path fill="none" stroke="midnightblue" d="M661.596,-580.753C668.227,-572.68 678.021,-560.757 686.058,-550.973"/>
<polygon fill="midnightblue" stroke="midnightblue" points="688.902,-553.024 692.545,-543.075 683.493,-548.581 688.902,-553.024"/>
</g>
<!-- Node4 -->
<g id="node4" class="node"><title>Node4</title>
<polygon fill="white" stroke="#bfbfbf" points="60.5493,-1 60.5493,-21 105.451,-21 105.451,-1 60.5493,-1"/>
<text text-anchor="middle" x="83" y="-7" font-family="Helvetica,sans-Serif" font-size="10.00">cstdint</text>
</g>
<!-- Node3&#45;&gt;Node4 -->
<g id="edge3" class="edge"><title>Node3&#45;&gt;Node4</title>
<path fill="none" stroke="midnightblue" d="M156.469,-58.7527C142.757,-50.0272 121.979,-36.8051 106.015,-26.6458"/>
<polygon fill="midnightblue" stroke="midnightblue" points="107.577,-23.4912 97.261,-21.0752 103.819,-29.3968 107.577,-23.4912"/>
</g>
<!-- Node5 -->
<g id="node5" class="node"><title>Node5</title>
<polygon fill="white" stroke="#bfbfbf" points="123.53,-1 123.53,-21 218.47,-21 218.47,-1 123.53,-1"/>
<text text-anchor="middle" x="171" y="-7" font-family="Helvetica,sans-Serif" font-size="10.00">boost/version.hpp</text>
</g>
<!-- Node3&#45;&gt;Node5 -->
<g id="edge4" class="edge"><title>Node3&#45;&gt;Node5</title>
<path fill="none" stroke="midnightblue" d="M171,-58.7527C171,-51.2504 171,-40.4238 171,-31.0781"/>
<polygon fill="midnightblue" stroke="midnightblue" points="174.5,-31.0752 171,-21.0752 167.5,-31.0752 174.5,-31.0752"/>
</g>
<!-- Node6 -->
<g id="node6" class="node"><title>Node6</title>
<polygon fill="white" stroke="#bfbfbf" points="236.621,-1 236.621,-21 369.379,-21 369.379,-1 236.621,-1"/>
<text text-anchor="middle" x="303" y="-7" font-family="Helvetica,sans-Serif" font-size="10.00">boost/checked_delete.hpp</text>
</g>
<!-- Node3&#45;&gt;Node6 -->
<g id="edge5" class="edge"><title>Node3&#45;&gt;Node6</title>
<path fill="none" stroke="midnightblue" d="M192.502,-58.878C214.172,-49.6848 247.821,-35.4095 272.295,-25.0263"/>
<polygon fill="midnightblue" stroke="midnightblue" points="273.668,-28.2457 281.507,-21.1181 270.935,-21.8016 273.668,-28.2457"/>
</g>
<!-- Node7&#45;&gt;Node3 -->
<g id="edge7" class="edge"><title>Node7&#45;&gt;Node3</title>
<path fill="none" stroke="midnightblue" d="M127.188,-464.992C96.2451,-448.71 38,-411.254 38,-360 38,-360 38,-360 38,-184 38,-151.951 40.0282,-139.332 62,-116 77.3078,-99.7442 99.2706,-88.9993 119.476,-82.0164"/>
<polygon fill="midnightblue" stroke="midnightblue" points="120.769,-85.2771 129.217,-78.8829 118.625,-78.6134 120.769,-85.2771"/>
</g>
<!-- Node9 -->
<g id="node9" class="node"><title>Node9</title>
<g id="a_node9"><a xlink:href="_cinder_math_8h.html" target="_top" xlink:title="cinder/CinderMath.h">
<polygon fill="white" stroke="black" points="590.978,-117 590.978,-137 697.022,-137 697.022,-117 590.978,-117"/>
<text text-anchor="middle" x="644" y="-123" font-family="Helvetica,sans-Serif" font-size="10.00">cinder/CinderMath.h</text>
</a>
</g>
</g>
<!-- Node8&#45;&gt;Node9 -->
<g id="edge9" class="edge"><title>Node8&#45;&gt;Node9</title>
<path fill="none" stroke="midnightblue" d="M815.718,-466.588C838.02,-460.315 863.426,-448.846 877,-428 882.335,-419.806 878.87,-415.597 877,-406 855.718,-296.801 864.197,-250.055 783,-174 762.273,-154.585 733.162,-143.355 706.933,-136.864"/>
<polygon fill="midnightblue" stroke="midnightblue" points="707.574,-133.42 697.045,-134.601 706.012,-140.243 707.574,-133.42"/>
</g>
<!-- Node9&#45;&gt;Node3 -->
<g id="edge10" class="edge"><title>Node9&#45;&gt;Node3</title>
<path fill="none" stroke="midnightblue" d="M590.63,-117.861C586.023,-117.211 581.431,-116.582 577,-116 449.949,-99.3264 300.049,-83.2798 222.805,-75.2771"/>
<polygon fill="midnightblue" stroke="midnightblue" points="223.155,-71.7948 212.849,-74.2486 222.436,-78.7577 223.155,-71.7948"/>
</g>
<!-- Node10 -->
<g id="node10" class="node"><title>Node10</title>
<polygon fill="white" stroke="#bfbfbf" points="498.384,-59 498.384,-79 541.616,-79 541.616,-59 498.384,-59"/>
<text text-anchor="middle" x="520" y="-65" font-family="Helvetica,sans-Serif" font-size="10.00">cmath</text>
</g>
<!-- Node9&#45;&gt;Node10 -->
<g id="edge11" class="edge"><title>Node9&#45;&gt;Node10</title>
<path fill="none" stroke="midnightblue" d="M623.801,-116.878C603.625,-107.766 572.394,-93.6617 549.456,-83.3028"/>
<polygon fill="midnightblue" stroke="midnightblue" points="550.744,-80.0442 540.19,-79.1181 547.863,-86.4238 550.744,-80.0442"/>
</g>
<!-- Node11 -->
<g id="node11" class="node"><title>Node11</title>
<polygon fill="white" stroke="#bfbfbf" points="652.113,-59 652.113,-79 695.887,-79 695.887,-59 652.113,-59"/>
<text text-anchor="middle" x="674" y="-65" font-family="Helvetica,sans-Serif" font-size="10.00">climits</text>
</g>
<!-- Node9&#45;&gt;Node11 -->
<g id="edge12" class="edge"><title>Node9&#45;&gt;Node11</title>
<path fill="none" stroke="midnightblue" d="M648.954,-116.753C653.104,-109.006 659.153,-97.7142 664.267,-88.1688"/>
<polygon fill="midnightblue" stroke="midnightblue" points="667.501,-89.5428 669.138,-79.0752 661.331,-86.2372 667.501,-89.5428"/>
</g>
<!-- Node12 -->
<g id="node12" class="node"><title>Node12</title>
<polygon fill="white" stroke="#bfbfbf" points="594.049,-59 594.049,-79 633.951,-79 633.951,-59 594.049,-59"/>
<text text-anchor="middle" x="614" y="-65" font-family="Helvetica,sans-Serif" font-size="10.00">cfloat</text>
</g>
<!-- Node9&#45;&gt;Node12 -->
<g id="edge13" class="edge"><title>Node9&#45;&gt;Node12</title>
<path fill="none" stroke="midnightblue" d="M639.046,-116.753C634.896,-109.006 628.847,-97.7142 623.733,-88.1688"/>
<polygon fill="midnightblue" stroke="midnightblue" points="626.669,-86.2372 618.862,-79.0752 620.499,-89.5428 626.669,-86.2372"/>
</g>
<!-- Node13 -->
<g id="node13" class="node"><title>Node13</title>
<polygon fill="white" stroke="#bfbfbf" points="805.596,-59 805.596,-79 864.404,-79 864.404,-59 805.596,-59"/>
<text text-anchor="middle" x="835" y="-65" font-family="Helvetica,sans-Serif" font-size="10.00">functional</text>
</g>
<!-- Node9&#45;&gt;Node13 -->
<g id="edge14" class="edge"><title>Node9&#45;&gt;Node13</title>
<path fill="none" stroke="midnightblue" d="M675.113,-116.878C708.061,-107.218 760.149,-91.9458 795.862,-81.475"/>
<polygon fill="midnightblue" stroke="midnightblue" points="796.86,-84.8298 805.471,-78.6577 794.89,-78.1126 796.86,-84.8298"/>
</g>
<!-- Node14&#45;&gt;Node3 -->
<g id="edge16" class="edge"><title>Node14&#45;&gt;Node3</title>
<path fill="none" stroke="midnightblue" d="M497.543,-522.9C392.466,-493.344 76,-396.486 76,-302 76,-302 76,-302 76,-184 76,-139.831 118.608,-103.692 146.755,-84.6386"/>
<polygon fill="midnightblue" stroke="midnightblue" points="148.844,-87.4549 155.313,-79.0641 145.023,-81.5895 148.844,-87.4549"/>
</g>
<!-- Node14&#45;&gt;Node7 -->
<g id="edge17" class="edge"><title>Node14&#45;&gt;Node7</title>
<path fill="none" stroke="midnightblue" d="M488.911,-526.142C429.465,-517.829 317.237,-501.997 212.001,-486.287"/>
<polygon fill="midnightblue" stroke="midnightblue" points="212.249,-482.786 201.841,-484.768 211.214,-489.709 212.249,-482.786"/>
</g>
<!-- Node14&#45;&gt;Node9 -->
<g id="edge18" class="edge"><title>Node14&#45;&gt;Node9</title>
<path fill="none" stroke="midnightblue" d="M533.041,-522.864C538.676,-499.759 556.639,-438.531 595,-406 635.523,-371.635 664.465,-398.978 709,-370 742.783,-348.018 769,-342.305 769,-302 769,-302 769,-302 769,-242 769,-192.256 714.289,-158.434 677.258,-141.24"/>
<polygon fill="midnightblue" stroke="midnightblue" points="678.365,-137.902 667.806,-137.029 675.516,-144.296 678.365,-137.902"/>
</g>
<!-- Node14&#45;&gt;Node8 -->
<g id="edge19" class="edge"><title>Node14&#45;&gt;Node8</title>
<path fill="none" stroke="midnightblue" d="M570.15,-522.94C612.062,-513.242 678.637,-497.836 723.998,-487.339"/>
<polygon fill="midnightblue" stroke="midnightblue" points="724.952,-490.711 733.906,-485.047 723.374,-483.891 724.952,-490.711"/>
</g>
<!-- Node14&#45;&gt;Node15 -->
<g id="edge20" class="edge"><title>Node14&#45;&gt;Node15</title>
<path fill="none" stroke="midnightblue" d="M552.991,-522.878C575.153,-513.685 609.566,-499.409 634.597,-489.026"/>
<polygon fill="midnightblue" stroke="midnightblue" points="636.123,-492.183 644.019,-485.118 633.441,-485.717 636.123,-492.183"/>
</g>
<!-- Node20 -->
<g id="node20" class="node"><title>Node20</title>
<g id="a_node20"><a xlink:href="_quaternion_8h.html" target="_top" xlink:title="cinder/Quaternion.h">
<polygon fill="white" stroke="black" points="426.084,-465 426.084,-485 529.916,-485 529.916,-465 426.084,-465"/>
<text text-anchor="middle" x="478" y="-471" font-family="Helvetica,sans-Serif" font-size="10.00">cinder/Quaternion.h</text>
</a>
</g>
</g>
<!-- Node14&#45;&gt;Node20 -->
<g id="edge27" class="edge"><title>Node14&#45;&gt;Node20</title>
<path fill="none" stroke="midnightblue" d="M522.248,-522.753C514.453,-514.516 502.866,-502.274 493.505,-492.382"/>
<polygon fill="midnightblue" stroke="midnightblue" points="496.005,-489.932 486.589,-485.075 490.921,-494.744 496.005,-489.932"/>
</g>
<!-- Node14&#45;&gt;Node33 -->
<g id="edge66" class="edge"><title>Node14&#45;&gt;Node33</title>
<path fill="none" stroke="midnightblue" d="M488.777,-526.907C435.596,-520.001 341.653,-506.169 263,-486 261.517,-485.62 260.001,-485.199 258.479,-484.751"/>
<polygon fill="midnightblue" stroke="midnightblue" points="259.204,-481.307 248.613,-481.555 257.048,-487.966 259.204,-481.307"/>
</g>
<!-- Node15&#45;&gt;Node3 -->
<g id="edge21" class="edge"><title>Node15&#45;&gt;Node3</title>
<path fill="none" stroke="midnightblue" d="M654.407,-464.999C638.532,-451.572 613.555,-425.762 628,-406 659.104,-363.446 698.293,-400.893 741,-370 766.787,-351.346 773.189,-342.277 783,-312 811.851,-222.966 789.335,-158.6 706,-116 663.663,-94.358 349.026,-77.9958 222.987,-72.2429"/>
<polygon fill="midnightblue" stroke="midnightblue" points="222.963,-68.7383 212.815,-71.783 222.646,-75.7312 222.963,-68.7383"/>
</g>
<!-- Node16 -->
<g id="node16" class="node"><title>Node16</title>
<polygon fill="white" stroke="#bfbfbf" points="637.436,-407 637.436,-427 694.564,-427 694.564,-407 637.436,-407"/>
<text text-anchor="middle" x="666" y="-413" font-family="Helvetica,sans-Serif" font-size="10.00">algorithm</text>
</g>
<!-- Node15&#45;&gt;Node16 -->
<g id="edge22" class="edge"><title>Node15&#45;&gt;Node16</title>
<path fill="none" stroke="midnightblue" d="M666,-464.753C666,-457.25 666,-446.424 666,-437.078"/>
<polygon fill="midnightblue" stroke="midnightblue" points="669.5,-437.075 666,-427.075 662.5,-437.075 669.5,-437.075"/>
</g>
<!-- Node15&#45;&gt;Node17 -->
<g id="edge23" class="edge"><title>Node15&#45;&gt;Node17</title>
<path fill="none" stroke="midnightblue" d="M712.446,-465.693C715.679,-465.119 718.888,-464.55 722,-464 805.349,-449.269 903.603,-432.149 953.093,-423.543"/>
<polygon fill="midnightblue" stroke="midnightblue" points="953.922,-426.952 963.174,-421.79 952.723,-420.055 953.922,-426.952"/>
</g>
<!-- Node18 -->
<g id="node18" class="node"><title>Node18</title>
<polygon fill="white" stroke="#bfbfbf" points="712.608,-407 712.608,-427 751.392,-427 751.392,-407 712.608,-407"/>
<text text-anchor="middle" x="732" y="-413" font-family="Helvetica,sans-Serif" font-size="10.00">utility</text>
</g>
<!-- Node15&#45;&gt;Node18 -->
<g id="edge24" class="edge"><title>Node15&#45;&gt;Node18</title>
<path fill="none" stroke="midnightblue" d="M676.899,-464.753C686.798,-456.353 701.608,-443.787 713.381,-433.798"/>
<polygon fill="midnightblue" stroke="midnightblue" points="715.944,-436.214 721.304,-427.075 711.415,-430.876 715.944,-436.214"/>
</g>
<!-- Node19 -->
<g id="node19" class="node"><title>Node19</title>
<polygon fill="white" stroke="#bfbfbf" points="769.303,-407 769.303,-427 868.697,-427 868.697,-407 769.303,-407"/>
<text text-anchor="middle" x="819" y="-413" font-family="Helvetica,sans-Serif" font-size="10.00">boost/signals2.hpp</text>
</g>
<!-- Node15&#45;&gt;Node19 -->
<g id="edge25" class="edge"><title>Node15&#45;&gt;Node19</title>
<path fill="none" stroke="midnightblue" d="M690.923,-464.878C716.449,-455.535 756.316,-440.943 784.788,-430.522"/>
<polygon fill="midnightblue" stroke="midnightblue" points="786.154,-433.749 794.342,-427.025 783.748,-427.176 786.154,-433.749"/>
</g>
<!-- Node15&#45;&gt;Node13 -->
<g id="edge26" class="edge"><title>Node15&#45;&gt;Node13</title>
<path fill="none" stroke="midnightblue" d="M712.4,-465.127C772.664,-453.423 870.937,-433.645 877,-428 900.056,-406.534 897,-391.502 897,-360 897,-360 897,-360 897,-184 897,-145.586 869.496,-107.77 851.125,-86.7974"/>
<polygon fill="midnightblue" stroke="midnightblue" points="853.467,-84.1707 844.148,-79.1302 848.29,-88.882 853.467,-84.1707"/>
</g>
<!-- Node20&#45;&gt;Node9 -->
<g id="edge28" class="edge"><title>Node20&#45;&gt;Node9</title>
<path fill="none" stroke="midnightblue" d="M486.973,-464.594C500.895,-450.414 529.02,-423.374 557,-406 633.539,-358.475 731,-392.094 731,-302 731,-302 731,-302 731,-242 731,-199.277 691.909,-162.607 666.133,-143.071"/>
<polygon fill="midnightblue" stroke="midnightblue" points="668.119,-140.188 657.978,-137.119 663.992,-145.842 668.119,-140.188"/>
</g>
<!-- Node21 -->
<g id="node21" class="node"><title>Node21</title>
<g id="a_node21"><a xlink:href="_vector_8h.html" target="_top" xlink:title="cinder/Vector.h">
<polygon fill="white" stroke="black" points="267.919,-175 267.919,-195 350.081,-195 350.081,-175 267.919,-175"/>
<text text-anchor="middle" x="309" y="-181" font-family="Helvetica,sans-Serif" font-size="10.00">cinder/Vector.h</text>
</a>
</g>
</g>
<!-- Node20&#45;&gt;Node21 -->
<g id="edge29" class="edge"><title>Node20&#45;&gt;Node21</title>
<path fill="none" stroke="midnightblue" d="M428.491,-464.973C346.148,-448.536 190,-410.683 190,-360 190,-360 190,-360 190,-300 190,-268.62 188.64,-255.878 209,-232 222.515,-216.15 242.65,-205.458 261.318,-198.405"/>
<polygon fill="midnightblue" stroke="midnightblue" points="262.627,-201.655 270.903,-195.041 260.308,-195.05 262.627,-201.655"/>
</g>
<!-- Node26 -->
<g id="node26" class="node"><title>Node26</title>
<g id="a_node26"><a xlink:href="_matrix_8h.html" target="_top" xlink:title="cinder/Matrix.h">
<polygon fill="white" stroke="black" points="423.212,-407 423.212,-427 504.788,-427 504.788,-407 423.212,-407"/>
<text text-anchor="middle" x="464" y="-413" font-family="Helvetica,sans-Serif" font-size="10.00">cinder/Matrix.h</text>
</a>
</g>
</g>
<!-- Node20&#45;&gt;Node26 -->
<g id="edge36" class="edge"><title>Node20&#45;&gt;Node26</title>
<path fill="none" stroke="midnightblue" d="M475.688,-464.753C473.813,-457.25 471.106,-446.424 468.77,-437.078"/>
<polygon fill="midnightblue" stroke="midnightblue" points="472.09,-435.928 466.269,-427.075 465.299,-437.626 472.09,-435.928"/>
</g>
<!-- Node21&#45;&gt;Node10 -->
<g id="edge30" class="edge"><title>Node21&#45;&gt;Node10</title>
<path fill="none" stroke="midnightblue" d="M350.172,-175.178C390.579,-165.977 448.846,-151.098 468,-138 486.517,-125.338 501.275,-103.968 510.27,-88.5607"/>
<polygon fill="midnightblue" stroke="midnightblue" points="513.535,-89.8898 515.33,-79.4481 507.416,-86.4914 513.535,-89.8898"/>
</g>
<!-- Node22 -->
<g id="node22" class="node"><title>Node22</title>
<polygon fill="white" stroke="#bfbfbf" points="218.273,-117 218.273,-137 263.727,-137 263.727,-117 218.273,-117"/>
<text text-anchor="middle" x="241" y="-123" font-family="Helvetica,sans-Serif" font-size="10.00">cstring</text>
</g>
<!-- Node21&#45;&gt;Node22 -->
<g id="edge31" class="edge"><title>Node21&#45;&gt;Node22</title>
<path fill="none" stroke="midnightblue" d="M297.771,-174.753C287.473,-166.272 272.016,-153.543 259.83,-143.507"/>
<polygon fill="midnightblue" stroke="midnightblue" points="261.964,-140.731 252.02,-137.075 257.514,-146.134 261.964,-140.731"/>
</g>
<!-- Node23 -->
<g id="node23" class="node"><title>Node23</title>
<polygon fill="white" stroke="#bfbfbf" points="281.828,-117 281.828,-137 336.172,-137 336.172,-117 281.828,-117"/>
<text text-anchor="middle" x="309" y="-123" font-family="Helvetica,sans-Serif" font-size="10.00">iostream</text>
</g>
<!-- Node21&#45;&gt;Node23 -->
<g id="edge32" class="edge"><title>Node21&#45;&gt;Node23</title>
<path fill="none" stroke="midnightblue" d="M309,-174.753C309,-167.25 309,-156.424 309,-147.078"/>
<polygon fill="midnightblue" stroke="midnightblue" points="312.5,-147.075 309,-137.075 305.5,-147.075 312.5,-147.075"/>
</g>
<!-- Node24 -->
<g id="node24" class="node"><title>Node24</title>
<polygon fill="white" stroke="#bfbfbf" points="353.884,-117 353.884,-137 402.116,-137 402.116,-117 353.884,-117"/>
<text text-anchor="middle" x="378" y="-123" font-family="Helvetica,sans-Serif" font-size="10.00">cassert</text>
</g>
<!-- Node21&#45;&gt;Node24 -->
<g id="edge33" class="edge"><title>Node21&#45;&gt;Node24</title>
<path fill="none" stroke="midnightblue" d="M320.394,-174.753C330.844,-166.272 346.527,-153.543 358.893,-143.507"/>
<polygon fill="midnightblue" stroke="midnightblue" points="361.259,-146.095 366.818,-137.075 356.848,-140.659 361.259,-146.095"/>
</g>
<!-- Node25 -->
<g id="node25" class="node"><title>Node25</title>
<polygon fill="white" stroke="#bfbfbf" points="420.613,-117 420.613,-137 459.387,-137 459.387,-117 420.613,-117"/>
<text text-anchor="middle" x="440" y="-123" font-family="Helvetica,sans-Serif" font-size="10.00">limits</text>
</g>
<!-- Node21&#45;&gt;Node25 -->
<g id="edge34" class="edge"><title>Node21&#45;&gt;Node25</title>
<path fill="none" stroke="midnightblue" d="M330.339,-174.878C352.259,-165.508 386.531,-150.857 410.922,-140.43"/>
<polygon fill="midnightblue" stroke="midnightblue" points="412.564,-143.535 420.384,-136.386 409.813,-137.098 412.564,-143.535"/>
</g>
<!-- Node21&#45;&gt;Node9 -->
<g id="edge35" class="edge"><title>Node21&#45;&gt;Node9</title>
<path fill="none" stroke="midnightblue" d="M350.132,-176.443C354.807,-175.607 359.505,-174.778 364,-174 438.412,-161.124 524.108,-147.174 580.891,-138.053"/>
<polygon fill="midnightblue" stroke="midnightblue" points="581.478,-141.504 590.798,-136.464 580.369,-134.592 581.478,-141.504"/>
</g>
<!-- Node26&#45;&gt;Node3 -->
<g id="edge37" class="edge"><title>Node26&#45;&gt;Node3</title>
<path fill="none" stroke="midnightblue" d="M423.166,-411.454C330.839,-400.042 114,-366.385 114,-302 114,-302 114,-302 114,-184 114,-146.27 139.286,-108.228 156.175,-87.0265"/>
<polygon fill="midnightblue" stroke="midnightblue" points="158.915,-89.2048 162.589,-79.2673 153.52,-84.7446 158.915,-89.2048"/>
</g>
<!-- Node26&#45;&gt;Node9 -->
<g id="edge38" class="edge"><title>Node26&#45;&gt;Node9</title>
<path fill="none" stroke="midnightblue" d="M497.299,-406.901C560.811,-388.557 693,-345.19 693,-302 693,-302 693,-302 693,-242 693,-205.407 671.427,-167.184 656.909,-145.605"/>
<polygon fill="midnightblue" stroke="midnightblue" points="659.617,-143.37 651.021,-137.178 653.879,-147.38 659.617,-143.37"/>
</g>
<!-- Node27 -->
<g id="node27" class="node"><title>Node27</title>
<g id="a_node27"><a xlink:href="_matrix22_8h.html" target="_top" xlink:title="cinder/Matrix22.h">
<polygon fill="white" stroke="black" points="572.65,-233 572.65,-253 665.35,-253 665.35,-233 572.65,-233"/>
<text text-anchor="middle" x="619" y="-239" font-family="Helvetica,sans-Serif" font-size="10.00">cinder/Matrix22.h</text>
</a>
</g>
</g>
<!-- Node26&#45;&gt;Node27 -->
<g id="edge39" class="edge"><title>Node26&#45;&gt;Node27</title>
<path fill="none" stroke="midnightblue" d="M484.78,-406.979C501.406,-399.015 524.576,-386.167 541,-370 573.858,-337.657 598.937,-288.849 611.025,-262.479"/>
<polygon fill="midnightblue" stroke="midnightblue" points="614.263,-263.813 615.141,-253.255 607.87,-260.961 614.263,-263.813"/>
</g>
<!-- Node29 -->
<g id="node29" class="node"><title>Node29</title>
<g id="a_node29"><a xlink:href="_matrix_affine2_8h.html" target="_top" xlink:title="cinder/MatrixAffine2.h">
<polygon fill="white" stroke="black" points="217.646,-233 217.646,-253 330.354,-253 330.354,-233 217.646,-233"/>
<text text-anchor="middle" x="274" y="-239" font-family="Helvetica,sans-Serif" font-size="10.00">cinder/MatrixAffine2.h</text>
</a>
</g>
</g>
<!-- Node26&#45;&gt;Node29 -->
<g id="edge44" class="edge"><title>Node26&#45;&gt;Node29</title>
<path fill="none" stroke="midnightblue" d="M447.735,-406.972C432.831,-398.359 410.493,-384.569 393,-370 351.222,-335.207 309.134,-286.756 287.988,-261.262"/>
<polygon fill="midnightblue" stroke="midnightblue" points="290.468,-258.768 281.417,-253.262 285.059,-263.211 290.468,-258.768"/>
</g>
<!-- Node30 -->
<g id="node30" class="node"><title>Node30</title>
<g id="a_node30"><a xlink:href="_matrix33_8h.html" target="_top" xlink:title="cinder/Matrix33.h">
<polygon fill="white" stroke="black" points="461.65,-233 461.65,-253 554.35,-253 554.35,-233 461.65,-233"/>
<text text-anchor="middle" x="508" y="-239" font-family="Helvetica,sans-Serif" font-size="10.00">cinder/Matrix33.h</text>
</a>
</g>
</g>
<!-- Node26&#45;&gt;Node30 -->
<g id="edge49" class="edge"><title>Node26&#45;&gt;Node30</title>
<path fill="none" stroke="midnightblue" d="M483.285,-406.941C497.151,-399.26 514.793,-386.806 523,-370 540.163,-334.856 526.306,-287.857 516.2,-262.349"/>
<polygon fill="midnightblue" stroke="midnightblue" points="519.423,-260.984 512.327,-253.116 512.968,-263.692 519.423,-260.984"/>
</g>
<!-- Node31 -->
<g id="node31" class="node"><title>Node31</title>
<g id="a_node31"><a xlink:href="_matrix44_8h.html" target="_top" xlink:title="cinder/Matrix44.h">
<polygon fill="white" stroke="black" points="349.65,-291 349.65,-311 442.35,-311 442.35,-291 349.65,-291"/>
<text text-anchor="middle" x="396" y="-297" font-family="Helvetica,sans-Serif" font-size="10.00">cinder/Matrix44.h</text>
</a>
</g>
</g>
<!-- Node26&#45;&gt;Node31 -->
<g id="edge54" class="edge"><title>Node26&#45;&gt;Node31</title>
<path fill="none" stroke="midnightblue" d="M445.246,-406.887C431.405,-399.106 413.406,-386.546 404,-370 395.564,-355.159 394.075,-335.57 394.394,-321.23"/>
<polygon fill="midnightblue" stroke="midnightblue" points="397.899,-321.219 394.939,-311.046 390.909,-320.845 397.899,-321.219"/>
</g>
<!-- Node32 -->
<g id="node32" class="node"><title>Node32</title>
<g id="a_node32"><a xlink:href="_matrix_algo_8h.html" target="_top" xlink:title="cinder/MatrixAlgo.h">
<polygon fill="white" stroke="black" points="413.205,-349 413.205,-369 514.795,-369 514.795,-349 413.205,-349"/>
<text text-anchor="middle" x="464" y="-355" font-family="Helvetica,sans-Serif" font-size="10.00">cinder/MatrixAlgo.h</text>
</a>
</g>
</g>
<!-- Node26&#45;&gt;Node32 -->
<g id="edge62" class="edge"><title>Node26&#45;&gt;Node32</title>
<path fill="none" stroke="midnightblue" d="M464,-406.753C464,-399.25 464,-388.424 464,-379.078"/>
<polygon fill="midnightblue" stroke="midnightblue" points="467.5,-379.075 464,-369.075 460.5,-379.075 467.5,-379.075"/>
</g>
<!-- Node27&#45;&gt;Node3 -->
<g id="edge40" class="edge"><title>Node27&#45;&gt;Node3</title>
<path fill="none" stroke="midnightblue" d="M613.049,-232.718C597.098,-208.716 550.724,-144.488 494,-116 447.556,-92.6748 301.722,-79.153 222.856,-73.3655"/>
<polygon fill="midnightblue" stroke="midnightblue" points="222.879,-69.8581 212.654,-72.6325 222.377,-76.8401 222.879,-69.8581"/>
</g>
<!-- Node27&#45;&gt;Node9 -->
<g id="edge41" class="edge"><title>Node27&#45;&gt;Node9</title>
<path fill="none" stroke="midnightblue" d="M621.046,-232.671C625.131,-214.041 634.373,-171.898 639.802,-147.143"/>
<polygon fill="midnightblue" stroke="midnightblue" points="643.272,-147.657 641.996,-137.139 636.435,-146.158 643.272,-147.657"/>
</g>
<!-- Node27&#45;&gt;Node21 -->
<g id="edge42" class="edge"><title>Node27&#45;&gt;Node21</title>
<path fill="none" stroke="midnightblue" d="M572.59,-233.616C515.588,-223.319 419.211,-205.909 360.131,-195.237"/>
<polygon fill="midnightblue" stroke="midnightblue" points="360.73,-191.788 350.267,-193.455 359.485,-198.677 360.73,-191.788"/>
</g>
<!-- Node28 -->
<g id="node28" class="node"><title>Node28</title>
<polygon fill="white" stroke="#bfbfbf" points="445.49,-175 445.49,-195 496.51,-195 496.51,-175 445.49,-175"/>
<text text-anchor="middle" x="471" y="-181" font-family="Helvetica,sans-Serif" font-size="10.00">iomanip</text>
</g>
<!-- Node27&#45;&gt;Node28 -->
<g id="edge43" class="edge"><title>Node27&#45;&gt;Node28</title>
<path fill="none" stroke="midnightblue" d="M594.892,-232.878C570.38,-223.603 532.199,-209.156 504.7,-198.752"/>
<polygon fill="midnightblue" stroke="midnightblue" points="505.689,-195.384 495.098,-195.118 503.212,-201.931 505.689,-195.384"/>
</g>
<!-- Node29&#45;&gt;Node3 -->
<g id="edge45" class="edge"><title>Node29&#45;&gt;Node3</title>
<path fill="none" stroke="midnightblue" d="M268.109,-232.911C256.513,-214.946 230.028,-173.554 209,-138 199.139,-121.327 188.417,-102.024 180.884,-88.2534"/>
<polygon fill="midnightblue" stroke="midnightblue" points="183.876,-86.4298 176.021,-79.3209 177.728,-89.7771 183.876,-86.4298"/>
</g>
<!-- Node29&#45;&gt;Node9 -->
<g id="edge46" class="edge"><title>Node29&#45;&gt;Node9</title>
<path fill="none" stroke="midnightblue" d="M290.839,-232.882C324.242,-214.819 396.184,-176.045 402,-174 460.882,-153.298 531.28,-141.25 580.926,-134.717"/>
<polygon fill="midnightblue" stroke="midnightblue" points="581.405,-138.184 590.881,-133.444 580.518,-131.24 581.405,-138.184"/>
</g>
<!-- Node29&#45;&gt;Node21 -->
<g id="edge47" class="edge"><title>Node29&#45;&gt;Node21</title>
<path fill="none" stroke="midnightblue" d="M279.78,-232.753C284.723,-224.843 291.977,-213.237 298.02,-203.568"/>
<polygon fill="midnightblue" stroke="midnightblue" points="300.996,-205.41 303.328,-195.075 295.06,-201.7 300.996,-205.41"/>
</g>
<!-- Node29&#45;&gt;Node28 -->
<g id="edge48" class="edge"><title>Node29&#45;&gt;Node28</title>
<path fill="none" stroke="midnightblue" d="M306.09,-232.878C341.568,-222.793 398.562,-206.591 435.392,-196.122"/>
<polygon fill="midnightblue" stroke="midnightblue" points="436.549,-199.432 445.211,-193.331 434.635,-192.699 436.549,-199.432"/>
</g>
<!-- Node30&#45;&gt;Node3 -->
<g id="edge50" class="edge"><title>Node30&#45;&gt;Node3</title>
<path fill="none" stroke="midnightblue" d="M509.058,-232.942C510.287,-219.661 511.407,-194.283 505,-174 495.79,-144.844 493.604,-132.713 468,-116 428.565,-90.2589 297.078,-77.948 222.959,-72.9259"/>
<polygon fill="midnightblue" stroke="midnightblue" points="223.105,-69.428 212.897,-72.2649 222.646,-76.4129 223.105,-69.428"/>
</g>
<!-- Node30&#45;&gt;Node9 -->
<g id="edge51" class="edge"><title>Node30&#45;&gt;Node9</title>
<path fill="none" stroke="midnightblue" d="M519.129,-232.671C542.456,-213.118 596.682,-167.664 625.394,-143.596"/>
<polygon fill="midnightblue" stroke="midnightblue" points="627.682,-146.246 633.097,-137.139 623.185,-140.881 627.682,-146.246"/>
</g>
<!-- Node30&#45;&gt;Node21 -->
<g id="edge52" class="edge"><title>Node30&#45;&gt;Node21</title>
<path fill="none" stroke="midnightblue" d="M475.584,-232.878C441.659,-223.331 388.256,-208.303 351.094,-197.845"/>
<polygon fill="midnightblue" stroke="midnightblue" points="351.646,-194.365 341.072,-195.025 349.75,-201.103 351.646,-194.365"/>
</g>
<!-- Node30&#45;&gt;Node28 -->
<g id="edge53" class="edge"><title>Node30&#45;&gt;Node28</title>
<path fill="none" stroke="midnightblue" d="M501.89,-232.753C496.664,-224.843 488.996,-213.237 482.608,-203.568"/>
<polygon fill="midnightblue" stroke="midnightblue" points="485.429,-201.489 476.996,-195.075 479.589,-205.348 485.429,-201.489"/>
</g>
<!-- Node31&#45;&gt;Node3 -->
<g id="edge55" class="edge"><title>Node31&#45;&gt;Node3</title>
<path fill="none" stroke="midnightblue" d="M349.609,-294.289C300.725,-287.314 228.192,-273.926 209,-254 165.116,-208.437 165.914,-126.309 168.88,-89.1657"/>
<polygon fill="midnightblue" stroke="midnightblue" points="172.368,-89.4577 169.823,-79.173 165.399,-88.7999 172.368,-89.4577"/>
</g>
<!-- Node31&#45;&gt;Node9 -->
<g id="edge56" class="edge"><title>Node31&#45;&gt;Node9</title>
<path fill="none" stroke="midnightblue" d="M395.995,-290.77C396.513,-267.445 401.272,-205.743 436,-174 456.965,-154.837 527.653,-142.109 580.848,-134.994"/>
<polygon fill="midnightblue" stroke="midnightblue" points="581.432,-138.447 590.897,-133.688 580.529,-131.506 581.432,-138.447"/>
</g>
<!-- Node31&#45;&gt;Node21 -->
<g id="edge57" class="edge"><title>Node31&#45;&gt;Node21</title>
<path fill="none" stroke="midnightblue" d="M388.88,-290.671C374.278,-271.537 340.749,-227.602 322.107,-203.175"/>
<polygon fill="midnightblue" stroke="midnightblue" points="324.824,-200.966 315.975,-195.139 319.259,-205.212 324.824,-200.966"/>
</g>
<!-- Node31&#45;&gt;Node27 -->
<g id="edge58" class="edge"><title>Node31&#45;&gt;Node27</title>
<path fill="none" stroke="midnightblue" d="M432.325,-290.878C470.749,-281.229 531.466,-265.982 573.158,-255.512"/>
<polygon fill="midnightblue" stroke="midnightblue" points="574.214,-258.856 583.06,-253.025 572.509,-252.066 574.214,-258.856"/>
</g>
<!-- Node31&#45;&gt;Node30 -->
<g id="edge59" class="edge"><title>Node31&#45;&gt;Node30</title>
<path fill="none" stroke="midnightblue" d="M414.495,-290.753C432.516,-281.742 460.129,-267.935 480.682,-257.659"/>
<polygon fill="midnightblue" stroke="midnightblue" points="482.471,-260.678 489.85,-253.075 479.34,-254.417 482.471,-260.678"/>
</g>
<!-- Node31&#45;&gt;Node29 -->
<g id="edge60" class="edge"><title>Node31&#45;&gt;Node29</title>
<path fill="none" stroke="midnightblue" d="M376.127,-290.878C356.276,-281.766 325.549,-267.662 302.981,-257.303"/>
<polygon fill="midnightblue" stroke="midnightblue" points="304.413,-254.109 293.864,-253.118 301.493,-260.471 304.413,-254.109"/>
</g>
<!-- Node31&#45;&gt;Node28 -->
<g id="edge61" class="edge"><title>Node31&#45;&gt;Node28</title>
<path fill="none" stroke="midnightblue" d="M402.138,-290.671C414.67,-271.621 443.377,-227.987 459.489,-203.497"/>
<polygon fill="midnightblue" stroke="midnightblue" points="462.415,-205.417 464.987,-195.139 456.567,-201.57 462.415,-205.417"/>
</g>
<!-- Node32&#45;&gt;Node27 -->
<g id="edge63" class="edge"><title>Node32&#45;&gt;Node27</title>
<path fill="none" stroke="midnightblue" d="M476.422,-348.864C502.951,-329.352 565.381,-283.436 598.125,-259.353"/>
<polygon fill="midnightblue" stroke="midnightblue" points="600.536,-261.924 606.519,-253.18 596.389,-256.285 600.536,-261.924"/>
</g>
<!-- Node32&#45;&gt;Node30 -->
<g id="edge64" class="edge"><title>Node32&#45;&gt;Node30</title>
<path fill="none" stroke="midnightblue" d="M467.601,-348.671C474.856,-329.873 491.351,-287.136 500.868,-262.478"/>
<polygon fill="midnightblue" stroke="midnightblue" points="504.137,-263.729 504.473,-253.139 497.606,-261.208 504.137,-263.729"/>
</g>
<!-- Node32&#45;&gt;Node31 -->
<g id="edge65" class="edge"><title>Node32&#45;&gt;Node31</title>
<path fill="none" stroke="midnightblue" d="M452.771,-348.753C442.473,-340.272 427.016,-327.543 414.83,-317.507"/>
<polygon fill="midnightblue" stroke="midnightblue" points="416.964,-314.731 407.02,-311.075 412.514,-320.134 416.964,-314.731"/>
</g>
</g>
</svg>
        <g id="navigator" transform="translate(0 0)" fill="#404254">
                <rect fill="#f2f5e9" fill-opacity="0.5" stroke="#606060" stroke-width=".5" x="0" y="0" width="60" height="60"/>
                <use id="zoomplus" xlink:href="#zoomPlus" x="17" y="9" onmousedown="handleZoom(evt,'in')"/>
                <use id="zoomminus" xlink:href="#zoomMin" x="42" y="9" onmousedown="handleZoom(evt,'out')"/>
                <use id="reset" xlink:href="#resetDef" x="30" y="36" onmousedown="handleReset()"/>
                <g id="arrowUp" xlink:href="#dirArrow" transform="translate(30 24)" onmousedown="handlePan(0,-1)">
                  <use xlink:href="#rim" fill="#404040">
                        <set attributeName="fill" to="#808080" begin="arrowUp.mouseover" end="arrowUp.mouseout"/>
                  </use>
                  <path fill="none" stroke="white" stroke-width="1.5" d="M0,-3.0v7 M-2.5,-0.5L0,-3.0L2.5,-0.5"/>
                </g>
                <g id="arrowRight" xlink:href="#dirArrow" transform="rotate(90) translate(36 -43)" onmousedown="handlePan(1,0)">
                  <use xlink:href="#rim" fill="#404040">
                        <set attributeName="fill" to="#808080" begin="arrowRight.mouseover" end="arrowRight.mouseout"/>
                  </use>
                  <path fill="none" stroke="white" stroke-width="1.5" d="M0,-3.0v7 M-2.5,-0.5L0,-3.0L2.5,-0.5"/>
                </g>
                <g id="arrowDown" xlink:href="#dirArrow" transform="rotate(180) translate(-30 -48)" onmousedown="handlePan(0,1)">
                  <use xlink:href="#rim" fill="#404040">
                        <set attributeName="fill" to="#808080" begin="arrowDown.mouseover" end="arrowDown.mouseout"/>
                  </use>
                  <path fill="none" stroke="white" stroke-width="1.5" d="M0,-3.0v7 M-2.5,-0.5L0,-3.0L2.5,-0.5"/>
                </g>
                <g id="arrowLeft" xlink:href="#dirArrow" transform="rotate(270) translate(-36 17)" onmousedown="handlePan(-1,0)">
                  <use xlink:href="#rim" fill="#404040">
                        <set attributeName="fill" to="#808080" begin="arrowLeft.mouseover" end="arrowLeft.mouseout"/>
                  </use>
                  <path fill="none" stroke="white" stroke-width="1.5" d="M0,-3.0v7 M-2.5,-0.5L0,-3.0L2.5,-0.5"/>
                </g>
        </g>
        <svg viewBox="0 0 15 15" width="100%" height="30px" preserveAspectRatio="xMaxYMin meet">
         <g id="arrow_out" transform="scale(0.3 0.3)">
          <a xlink:href="_timeline_8cpp__incl_org.svg" target="_base">
           <rect id="button" ry="5" rx="5" y="6" x="6" height="38" width="38"
                fill="#f2f5e9" fill-opacity="0.5" stroke="#606060" stroke-width="1.0"/>
           <path id="arrow"
             d="M 11.500037,31.436501 C 11.940474,20.09759 22.043105,11.32322 32.158766,21.979434 L 37.068811,17.246167 C 37.068811,17.246167 37.088388,32 37.088388,32 L 22.160133,31.978069 C 22.160133,31.978069 26.997745,27.140456 26.997745,27.140456 C 18.528582,18.264221 13.291696,25.230495 11.500037,31.436501 z"
             style="fill:#404040;"/>
          </a>
         </g>
        </svg>
</svg>
