<?xml version="1.0" encoding="UTF-8" standalone="no"?>
<!DOCTYPE svg PUBLIC "-//W3C//DTD SVG 1.1//EN"
 "http://www.w3.org/Graphics/SVG/1.1/DTD/svg11.dtd">
<!-- Generated by graphviz version 2.30.1 (20140712.1814)
 -->
<!-- Title: src/cinder/TimelineItem.cpp Pages: 1 -->
<svg width="1031pt" height="668pt"
 viewBox="0.00 0.00 1031.46 668.00" xmlns="http://www.w3.org/2000/svg" xmlns:xlink="http://www.w3.org/1999/xlink">
<g id="graph0" class="graph" transform="scale(1 1) rotate(0) translate(4 664)">
<title>src/cinder/TimelineItem.cpp</title>
<polygon fill="white" stroke="white" points="-4,5 -4,-664 1028.46,-664 1028.46,5 -4,5"/>
<!-- Node1 -->
<g id="node1" class="node"><title>Node1</title>
<polygon fill="#bfbfbf" stroke="black" points="585.053,-639 585.053,-659 722.947,-659 722.947,-639 585.053,-639"/>
<text text-anchor="middle" x="654" y="-645" font-family="Helvetica,sans-Serif" font-size="10.00">src/cinder/TimelineItem.cpp</text>
</g>
<!-- Node2 -->
<g id="node2" class="node"><title>Node2</title>
<g id="a_node2"><a xlink:href="_timeline_item_8h.html" target="_top" xlink:title="cinder/TimelineItem.h">
<polygon fill="white" stroke="black" points="811.388,-465 811.388,-485 922.612,-485 922.612,-465 811.388,-465"/>
<text text-anchor="middle" x="867" y="-471" font-family="Helvetica,sans-Serif" font-size="10.00">cinder/TimelineItem.h</text>
</a>
</g>
</g>
<!-- Node1&#45;&gt;Node2 -->
<g id="edge1" class="edge"><title>Node1&#45;&gt;Node2</title>
<path fill="none" stroke="midnightblue" d="M675.639,-638.891C710.399,-623.438 779.39,-589.298 825,-544 839.559,-529.541 851.312,-509.097 858.643,-494.407"/>
<polygon fill="midnightblue" stroke="midnightblue" points="861.841,-495.832 862.992,-485.3 855.525,-492.815 861.841,-495.832"/>
</g>
<!-- Node7 -->
<g id="node7" class="node"><title>Node7</title>
<g id="a_node7"><a xlink:href="_timeline_8h.html" target="_top" xlink:title="cinder/Timeline.h">
<polygon fill="white" stroke="black" points="608.112,-581 608.112,-601 699.888,-601 699.888,-581 608.112,-581"/>
<text text-anchor="middle" x="654" y="-587" font-family="Helvetica,sans-Serif" font-size="10.00">cinder/Timeline.h</text>
</a>
</g>
</g>
<!-- Node1&#45;&gt;Node7 -->
<g id="edge6" class="edge"><title>Node1&#45;&gt;Node7</title>
<path fill="none" stroke="midnightblue" d="M654,-638.753C654,-631.25 654,-620.424 654,-611.078"/>
<polygon fill="midnightblue" stroke="midnightblue" points="657.5,-611.075 654,-601.075 650.5,-611.075 657.5,-611.075"/>
</g>
<!-- Node9 -->
<g id="node9" class="node"><title>Node9</title>
<g id="a_node9"><a xlink:href="_cinder_math_8h.html" target="_top" xlink:title="cinder/CinderMath.h">
<polygon fill="white" stroke="black" points="176.978,-117 176.978,-137 283.022,-137 283.022,-117 176.978,-117"/>
<text text-anchor="middle" x="230" y="-123" font-family="Helvetica,sans-Serif" font-size="10.00">cinder/CinderMath.h</text>
</a>
</g>
</g>
<!-- Node1&#45;&gt;Node9 -->
<g id="edge72" class="edge"><title>Node1&#45;&gt;Node9</title>
<path fill="none" stroke="midnightblue" d="M584.938,-643.146C416.825,-630.408 0,-592.887 0,-534 0,-534 0,-534 0,-242 0,-167.287 98.6334,-141.539 166.718,-132.666"/>
<polygon fill="midnightblue" stroke="midnightblue" points="167.437,-136.105 176.945,-131.428 166.596,-129.155 167.437,-136.105"/>
</g>
<!-- Node3 -->
<g id="node3" class="node"><title>Node3</title>
<g id="a_node3"><a xlink:href="_cinder_8h.html" target="_top" xlink:title="cinder/Cinder.h">
<polygon fill="white" stroke="black" points="699.367,-59 699.367,-79 782.633,-79 782.633,-59 699.367,-59"/>
<text text-anchor="middle" x="741" y="-65" font-family="Helvetica,sans-Serif" font-size="10.00">cinder/Cinder.h</text>
</a>
</g>
</g>
<!-- Node2&#45;&gt;Node3 -->
<g id="edge2" class="edge"><title>Node2&#45;&gt;Node3</title>
<path fill="none" stroke="midnightblue" d="M922.801,-467.335C950.32,-461.31 982.02,-449.839 1003,-428 1024.82,-405.282 1023,-391.502 1023,-360 1023,-360 1023,-360 1023,-184 1023,-134.941 874.449,-97.0429 792.982,-79.9478"/>
<polygon fill="midnightblue" stroke="midnightblue" points="793.415,-76.4635 782.914,-77.8693 792,-83.3189 793.415,-76.4635"/>
</g>
<!-- Node4 -->
<g id="node4" class="node"><title>Node4</title>
<polygon fill="white" stroke="#bfbfbf" points="630.549,-1 630.549,-21 675.451,-21 675.451,-1 630.549,-1"/>
<text text-anchor="middle" x="653" y="-7" font-family="Helvetica,sans-Serif" font-size="10.00">cstdint</text>
</g>
<!-- Node3&#45;&gt;Node4 -->
<g id="edge3" class="edge"><title>Node3&#45;&gt;Node4</title>
<path fill="none" stroke="midnightblue" d="M726.469,-58.7527C712.757,-50.0272 691.979,-36.8051 676.015,-26.6458"/>
<polygon fill="midnightblue" stroke="midnightblue" points="677.577,-23.4912 667.261,-21.0752 673.819,-29.3968 677.577,-23.4912"/>
</g>
<!-- Node5 -->
<g id="node5" class="node"><title>Node5</title>
<polygon fill="white" stroke="#bfbfbf" points="693.53,-1 693.53,-21 788.47,-21 788.47,-1 693.53,-1"/>
<text text-anchor="middle" x="741" y="-7" font-family="Helvetica,sans-Serif" font-size="10.00">boost/version.hpp</text>
</g>
<!-- Node3&#45;&gt;Node5 -->
<g id="edge4" class="edge"><title>Node3&#45;&gt;Node5</title>
<path fill="none" stroke="midnightblue" d="M741,-58.7527C741,-51.2504 741,-40.4238 741,-31.0781"/>
<polygon fill="midnightblue" stroke="midnightblue" points="744.5,-31.0752 741,-21.0752 737.5,-31.0752 744.5,-31.0752"/>
</g>
<!-- Node6 -->
<g id="node6" class="node"><title>Node6</title>
<polygon fill="white" stroke="#bfbfbf" points="806.621,-1 806.621,-21 939.379,-21 939.379,-1 806.621,-1"/>
<text text-anchor="middle" x="873" y="-7" font-family="Helvetica,sans-Serif" font-size="10.00">boost/checked_delete.hpp</text>
</g>
<!-- Node3&#45;&gt;Node6 -->
<g id="edge5" class="edge"><title>Node3&#45;&gt;Node6</title>
<path fill="none" stroke="midnightblue" d="M762.502,-58.878C784.172,-49.6848 817.821,-35.4095 842.295,-25.0263"/>
<polygon fill="midnightblue" stroke="midnightblue" points="843.668,-28.2457 851.507,-21.1181 840.935,-21.8016 843.668,-28.2457"/>
</g>
<!-- Node7&#45;&gt;Node3 -->
<g id="edge7" class="edge"><title>Node7&#45;&gt;Node3</title>
<path fill="none" stroke="midnightblue" d="M650.89,-580.695C641.936,-552.095 618.905,-463.919 654,-406 716.925,-302.15 874,-365.427 874,-244 874,-244 874,-244 874,-184 874,-132.835 816.556,-99.6833 777.173,-82.9671"/>
<polygon fill="midnightblue" stroke="midnightblue" points="778.177,-79.5971 767.595,-79.0704 775.539,-86.081 778.177,-79.5971"/>
</g>
<!-- Node7&#45;&gt;Node2 -->
<g id="edge8" class="edge"><title>Node7&#45;&gt;Node2</title>
<path fill="none" stroke="midnightblue" d="M699.741,-580.959C728.987,-573.846 766.934,-562.066 797,-544 819.338,-530.578 840.103,-508.737 853.121,-493.439"/>
<polygon fill="midnightblue" stroke="midnightblue" points="856.174,-495.239 859.845,-485.301 850.777,-490.781 856.174,-495.239"/>
</g>
<!-- Node8 -->
<g id="node8" class="node"><title>Node8</title>
<g id="a_node8"><a xlink:href="_easing_8h.html" target="_top" xlink:title="cinder/Easing.h">
<polygon fill="white" stroke="black" points="27.5347,-465 27.5347,-485 112.465,-485 112.465,-465 27.5347,-465"/>
<text text-anchor="middle" x="70" y="-471" font-family="Helvetica,sans-Serif" font-size="10.00">cinder/Easing.h</text>
</a>
</g>
</g>
<!-- Node7&#45;&gt;Node8 -->
<g id="edge9" class="edge"><title>Node7&#45;&gt;Node8</title>
<path fill="none" stroke="midnightblue" d="M607.686,-580.959C500.447,-560.026 235.63,-508.332 122.552,-486.259"/>
<polygon fill="midnightblue" stroke="midnightblue" points="123.223,-482.823 112.737,-484.343 121.881,-489.694 123.223,-482.823"/>
</g>
<!-- Node14 -->
<g id="node14" class="node"><title>Node14</title>
<g id="a_node14"><a xlink:href="_tween_8h.html" target="_top" xlink:title="cinder/Tween.h">
<polygon fill="white" stroke="black" points="474.089,-523 474.089,-543 557.911,-543 557.911,-523 474.089,-523"/>
<text text-anchor="middle" x="516" y="-529" font-family="Helvetica,sans-Serif" font-size="10.00">cinder/Tween.h</text>
</a>
</g>
</g>
<!-- Node7&#45;&gt;Node14 -->
<g id="edge16" class="edge"><title>Node7&#45;&gt;Node14</title>
<path fill="none" stroke="midnightblue" d="M631.521,-580.878C608.766,-571.644 573.376,-557.283 547.761,-546.889"/>
<polygon fill="midnightblue" stroke="midnightblue" points="549.052,-543.635 538.47,-543.118 546.42,-550.121 549.052,-543.635"/>
</g>
<!-- Node15 -->
<g id="node15" class="node"><title>Node15</title>
<g id="a_node15"><a xlink:href="_function_8h.html" target="_top" xlink:title="cinder/Function.h">
<polygon fill="white" stroke="black" points="662.646,-465 662.646,-485 755.354,-485 755.354,-465 662.646,-465"/>
<text text-anchor="middle" x="709" y="-471" font-family="Helvetica,sans-Serif" font-size="10.00">cinder/Function.h</text>
</a>
</g>
</g>
<!-- Node7&#45;&gt;Node15 -->
<g id="edge68" class="edge"><title>Node7&#45;&gt;Node15</title>
<path fill="none" stroke="midnightblue" d="M658.501,-580.671C667.611,-561.789 688.373,-518.754 700.244,-494.149"/>
<polygon fill="midnightblue" stroke="midnightblue" points="703.398,-495.667 704.591,-485.139 697.093,-492.625 703.398,-495.667"/>
</g>
<!-- Node17 -->
<g id="node17" class="node"><title>Node17</title>
<polygon fill="white" stroke="#bfbfbf" points="951.384,-407 951.384,-427 994.616,-427 994.616,-407 951.384,-407"/>
<text text-anchor="middle" x="973" y="-413" font-family="Helvetica,sans-Serif" font-size="10.00">vector</text>
</g>
<!-- Node7&#45;&gt;Node17 -->
<g id="edge69" class="edge"><title>Node7&#45;&gt;Node17</title>
<path fill="none" stroke="midnightblue" d="M679.509,-580.991C698.923,-573.265 725.532,-560.729 745,-544 778.112,-515.546 766.121,-488.873 802,-464 853.033,-428.622 877.084,-444.31 937,-428 938.447,-427.606 939.927,-427.202 941.421,-426.792"/>
<polygon fill="midnightblue" stroke="midnightblue" points="942.599,-430.098 951.308,-424.065 940.737,-423.35 942.599,-430.098"/>
</g>
<!-- Node33 -->
<g id="node33" class="node"><title>Node33</title>
<polygon fill="white" stroke="#bfbfbf" points="577.5,-465 577.5,-485 606.5,-485 606.5,-465 577.5,-465"/>
<text text-anchor="middle" x="591.611" y="-471" font-family="Helvetica,sans-Serif" font-size="10.00">list</text>
</g>
<!-- Node7&#45;&gt;Node33 -->
<g id="edge70" class="edge"><title>Node7&#45;&gt;Node33</title>
<path fill="none" stroke="midnightblue" d="M646.544,-580.887C639.403,-571.883 628.618,-557.532 621,-544 611.97,-527.958 603.954,-508.545 598.652,-494.574"/>
<polygon fill="midnightblue" stroke="midnightblue" points="601.9,-493.267 595.154,-485.098 595.333,-495.692 601.9,-493.267"/>
</g>
<!-- Node34 -->
<g id="node34" class="node"><title>Node34</title>
<polygon fill="white" stroke="#bfbfbf" points="701.273,-523 701.273,-543 736.727,-543 736.727,-523 701.273,-523"/>
<text text-anchor="middle" x="719" y="-529" font-family="Helvetica,sans-Serif" font-size="10.00">map</text>
</g>
<!-- Node7&#45;&gt;Node34 -->
<g id="edge71" class="edge"><title>Node7&#45;&gt;Node34</title>
<path fill="none" stroke="midnightblue" d="M664.733,-580.753C674.483,-572.353 689.068,-559.787 700.664,-549.798"/>
<polygon fill="midnightblue" stroke="midnightblue" points="703.175,-552.254 708.466,-543.075 698.606,-546.951 703.175,-552.254"/>
</g>
<!-- Node8&#45;&gt;Node9 -->
<g id="edge10" class="edge"><title>Node8&#45;&gt;Node9</title>
<path fill="none" stroke="midnightblue" d="M69.5954,-464.84C68.7765,-445.486 67,-399.003 67,-360 67,-360 67,-360 67,-242 67,-209.951 68.1155,-196.438 91,-174 111.359,-154.038 140.563,-142.738 166.952,-136.341"/>
<polygon fill="midnightblue" stroke="midnightblue" points="167.906,-139.715 176.904,-134.122 166.382,-132.883 167.906,-139.715"/>
</g>
<!-- Node9&#45;&gt;Node3 -->
<g id="edge11" class="edge"><title>Node9&#45;&gt;Node3</title>
<path fill="none" stroke="midnightblue" d="M283.24,-120.165C381.772,-109.367 591.391,-86.3955 688.99,-75.6997"/>
<polygon fill="midnightblue" stroke="midnightblue" points="689.643,-79.1493 699.202,-74.5806 688.88,-72.1909 689.643,-79.1493"/>
</g>
<!-- Node10 -->
<g id="node10" class="node"><title>Node10</title>
<polygon fill="white" stroke="#bfbfbf" points="300.384,-59 300.384,-79 343.616,-79 343.616,-59 300.384,-59"/>
<text text-anchor="middle" x="322" y="-65" font-family="Helvetica,sans-Serif" font-size="10.00">cmath</text>
</g>
<!-- Node9&#45;&gt;Node10 -->
<g id="edge12" class="edge"><title>Node9&#45;&gt;Node10</title>
<path fill="none" stroke="midnightblue" d="M245.192,-116.753C259.661,-107.946 281.655,-94.5575 298.406,-84.3617"/>
<polygon fill="midnightblue" stroke="midnightblue" points="300.369,-87.2644 307.091,-79.0752 296.729,-81.285 300.369,-87.2644"/>
</g>
<!-- Node11 -->
<g id="node11" class="node"><title>Node11</title>
<polygon fill="white" stroke="#bfbfbf" points="238.113,-59 238.113,-79 281.887,-79 281.887,-59 238.113,-59"/>
<text text-anchor="middle" x="260" y="-65" font-family="Helvetica,sans-Serif" font-size="10.00">climits</text>
</g>
<!-- Node9&#45;&gt;Node11 -->
<g id="edge13" class="edge"><title>Node9&#45;&gt;Node11</title>
<path fill="none" stroke="midnightblue" d="M234.954,-116.753C239.104,-109.006 245.153,-97.7142 250.267,-88.1688"/>
<polygon fill="midnightblue" stroke="midnightblue" points="253.501,-89.5428 255.138,-79.0752 247.331,-86.2372 253.501,-89.5428"/>
</g>
<!-- Node12 -->
<g id="node12" class="node"><title>Node12</title>
<polygon fill="white" stroke="#bfbfbf" points="180.049,-59 180.049,-79 219.951,-79 219.951,-59 180.049,-59"/>
<text text-anchor="middle" x="200" y="-65" font-family="Helvetica,sans-Serif" font-size="10.00">cfloat</text>
</g>
<!-- Node9&#45;&gt;Node12 -->
<g id="edge14" class="edge"><title>Node9&#45;&gt;Node12</title>
<path fill="none" stroke="midnightblue" d="M225.046,-116.753C220.896,-109.006 214.847,-97.7142 209.733,-88.1688"/>
<polygon fill="midnightblue" stroke="midnightblue" points="212.669,-86.2372 204.862,-79.0752 206.499,-89.5428 212.669,-86.2372"/>
</g>
<!-- Node13 -->
<g id="node13" class="node"><title>Node13</title>
<polygon fill="white" stroke="#bfbfbf" points="103.596,-59 103.596,-79 162.404,-79 162.404,-59 103.596,-59"/>
<text text-anchor="middle" x="133" y="-65" font-family="Helvetica,sans-Serif" font-size="10.00">functional</text>
</g>
<!-- Node9&#45;&gt;Node13 -->
<g id="edge15" class="edge"><title>Node9&#45;&gt;Node13</title>
<path fill="none" stroke="midnightblue" d="M213.982,-116.753C198.586,-107.864 175.107,-94.3092 157.387,-84.0793"/>
<polygon fill="midnightblue" stroke="midnightblue" points="159.13,-81.0439 148.72,-79.0752 155.63,-87.1062 159.13,-81.0439"/>
</g>
<!-- Node14&#45;&gt;Node3 -->
<g id="edge17" class="edge"><title>Node14&#45;&gt;Node3</title>
<path fill="none" stroke="midnightblue" d="M497.892,-522.986C482.901,-514.858 461.747,-501.777 447,-486 359.985,-392.907 278.681,-354.436 314,-232 330.884,-173.472 335.688,-148.829 387,-116 435.974,-84.667 603.311,-74.5533 689.208,-71.386"/>
<polygon fill="midnightblue" stroke="midnightblue" points="689.395,-74.8817 699.266,-71.0332 689.15,-67.886 689.395,-74.8817"/>
</g>
<!-- Node14&#45;&gt;Node2 -->
<g id="edge18" class="edge"><title>Node14&#45;&gt;Node2</title>
<path fill="none" stroke="midnightblue" d="M557.99,-525.301C618.259,-515.685 729.866,-497.879 801.168,-486.503"/>
<polygon fill="midnightblue" stroke="midnightblue" points="802.061,-489.905 811.385,-484.873 800.958,-482.992 802.061,-489.905"/>
</g>
<!-- Node14&#45;&gt;Node9 -->
<g id="edge19" class="edge"><title>Node14&#45;&gt;Node9</title>
<path fill="none" stroke="midnightblue" d="M473.829,-528.674C386.419,-521.462 191.55,-503.611 167,-486 116.287,-449.62 105,-422.412 105,-360 105,-360 105,-360 105,-242 105,-192.256 159.711,-158.434 196.742,-141.24"/>
<polygon fill="midnightblue" stroke="midnightblue" points="198.484,-144.296 206.194,-137.029 195.635,-137.902 198.484,-144.296"/>
</g>
<!-- Node14&#45;&gt;Node8 -->
<g id="edge20" class="edge"><title>Node14&#45;&gt;Node8</title>
<path fill="none" stroke="midnightblue" d="M474.049,-527.876C402.484,-520.658 252.285,-504.706 126,-486 124.925,-485.841 123.84,-485.677 122.746,-485.509"/>
<polygon fill="midnightblue" stroke="midnightblue" points="123.191,-482.035 112.762,-483.905 122.08,-488.947 123.191,-482.035"/>
</g>
<!-- Node14&#45;&gt;Node15 -->
<g id="edge21" class="edge"><title>Node14&#45;&gt;Node15</title>
<path fill="none" stroke="midnightblue" d="M547.438,-522.878C580.341,-513.331 632.133,-498.303 668.176,-487.845"/>
<polygon fill="midnightblue" stroke="midnightblue" points="669.266,-491.173 677.895,-485.025 667.316,-484.451 669.266,-491.173"/>
</g>
<!-- Node20 -->
<g id="node20" class="node"><title>Node20</title>
<g id="a_node20"><a xlink:href="_quaternion_8h.html" target="_top" xlink:title="cinder/Quaternion.h">
<polygon fill="white" stroke="black" points="456.084,-465 456.084,-485 559.916,-485 559.916,-465 456.084,-465"/>
<text text-anchor="middle" x="508" y="-471" font-family="Helvetica,sans-Serif" font-size="10.00">cinder/Quaternion.h</text>
</a>
</g>
</g>
<!-- Node14&#45;&gt;Node20 -->
<g id="edge28" class="edge"><title>Node14&#45;&gt;Node20</title>
<path fill="none" stroke="midnightblue" d="M514.679,-522.753C513.607,-515.25 512.061,-504.424 510.725,-495.078"/>
<polygon fill="midnightblue" stroke="midnightblue" points="514.176,-494.48 509.296,-485.075 507.246,-495.47 514.176,-494.48"/>
</g>
<!-- Node14&#45;&gt;Node33 -->
<g id="edge67" class="edge"><title>Node14&#45;&gt;Node33</title>
<path fill="none" stroke="midnightblue" d="M528.55,-522.753C540.17,-514.19 557.667,-501.298 571.346,-491.219"/>
<polygon fill="midnightblue" stroke="midnightblue" points="573.709,-493.825 579.684,-485.075 569.557,-488.19 573.709,-493.825"/>
</g>
<!-- Node15&#45;&gt;Node3 -->
<g id="edge22" class="edge"><title>Node15&#45;&gt;Node3</title>
<path fill="none" stroke="midnightblue" d="M755.408,-465.521C809.31,-455.285 892.262,-438.181 903,-428 925.86,-406.325 923,-391.502 923,-360 923,-360 923,-360 923,-184 923,-150.009 914.011,-137.881 888,-116 861.249,-93.4973 823.488,-81.9815 792.937,-76.0996"/>
<polygon fill="midnightblue" stroke="midnightblue" points="793.336,-72.6159 782.878,-74.3131 792.112,-79.508 793.336,-72.6159"/>
</g>
<!-- Node16 -->
<g id="node16" class="node"><title>Node16</title>
<polygon fill="white" stroke="#bfbfbf" points="663.436,-407 663.436,-427 720.564,-427 720.564,-407 663.436,-407"/>
<text text-anchor="middle" x="692" y="-413" font-family="Helvetica,sans-Serif" font-size="10.00">algorithm</text>
</g>
<!-- Node15&#45;&gt;Node16 -->
<g id="edge23" class="edge"><title>Node15&#45;&gt;Node16</title>
<path fill="none" stroke="midnightblue" d="M706.193,-464.753C703.891,-457.169 700.557,-446.188 697.699,-436.774"/>
<polygon fill="midnightblue" stroke="midnightblue" points="701.009,-435.627 694.755,-427.075 694.311,-437.661 701.009,-435.627"/>
</g>
<!-- Node15&#45;&gt;Node17 -->
<g id="edge24" class="edge"><title>Node15&#45;&gt;Node17</title>
<path fill="none" stroke="midnightblue" d="M755.502,-465.632C801.729,-457.075 874.559,-442.951 937,-428 938.459,-427.651 939.948,-427.283 941.45,-426.903"/>
<polygon fill="midnightblue" stroke="midnightblue" points="942.59,-430.222 951.363,-424.282 940.801,-423.454 942.59,-430.222"/>
</g>
<!-- Node18 -->
<g id="node18" class="node"><title>Node18</title>
<polygon fill="white" stroke="#bfbfbf" points="738.608,-407 738.608,-427 777.392,-427 777.392,-407 738.608,-407"/>
<text text-anchor="middle" x="758" y="-413" font-family="Helvetica,sans-Serif" font-size="10.00">utility</text>
</g>
<!-- Node15&#45;&gt;Node18 -->
<g id="edge25" class="edge"><title>Node15&#45;&gt;Node18</title>
<path fill="none" stroke="midnightblue" d="M717.091,-464.753C724.227,-456.598 734.799,-444.516 743.408,-434.677"/>
<polygon fill="midnightblue" stroke="midnightblue" points="746.108,-436.906 750.059,-427.075 740.84,-432.296 746.108,-436.906"/>
</g>
<!-- Node19 -->
<g id="node19" class="node"><title>Node19</title>
<polygon fill="white" stroke="#bfbfbf" points="795.303,-407 795.303,-427 894.697,-427 894.697,-407 795.303,-407"/>
<text text-anchor="middle" x="845" y="-413" font-family="Helvetica,sans-Serif" font-size="10.00">boost/signals2.hpp</text>
</g>
<!-- Node15&#45;&gt;Node19 -->
<g id="edge26" class="edge"><title>Node15&#45;&gt;Node19</title>
<path fill="none" stroke="midnightblue" d="M731.153,-464.878C753.48,-455.685 788.148,-441.409 813.365,-431.026"/>
<polygon fill="midnightblue" stroke="midnightblue" points="814.942,-434.162 822.856,-427.118 812.277,-427.689 814.942,-434.162"/>
</g>
<!-- Node15&#45;&gt;Node13 -->
<g id="edge27" class="edge"><title>Node15&#45;&gt;Node13</title>
<path fill="none" stroke="midnightblue" d="M662.559,-467.871C602.598,-459.49 501.922,-443.696 468,-428 299.697,-350.127 269.748,-293.04 168,-138 157.551,-122.078 147.823,-102.65 141.289,-88.6439"/>
<polygon fill="midnightblue" stroke="midnightblue" points="144.288,-86.7854 136.955,-79.138 137.919,-89.6889 144.288,-86.7854"/>
</g>
<!-- Node20&#45;&gt;Node9 -->
<g id="edge29" class="edge"><title>Node20&#45;&gt;Node9</title>
<path fill="none" stroke="midnightblue" d="M455.841,-470.291C380.978,-464.263 247.403,-450.677 205,-428 168.935,-408.713 143,-400.899 143,-360 143,-360 143,-360 143,-300 143,-237.258 189.667,-174.159 214.643,-144.881"/>
<polygon fill="midnightblue" stroke="midnightblue" points="217.386,-147.061 221.34,-137.232 212.119,-142.45 217.386,-147.061"/>
</g>
<!-- Node21 -->
<g id="node21" class="node"><title>Node21</title>
<g id="a_node21"><a xlink:href="_vector_8h.html" target="_top" xlink:title="cinder/Vector.h">
<polygon fill="white" stroke="black" points="560.919,-175 560.919,-195 643.081,-195 643.081,-175 560.919,-175"/>
<text text-anchor="middle" x="602" y="-181" font-family="Helvetica,sans-Serif" font-size="10.00">cinder/Vector.h</text>
</a>
</g>
</g>
<!-- Node20&#45;&gt;Node21 -->
<g id="edge30" class="edge"><title>Node20&#45;&gt;Node21</title>
<path fill="none" stroke="midnightblue" d="M525.342,-464.86C571.814,-439.204 698.487,-361.327 741,-254 756.728,-214.293 699.318,-197.678 653.541,-190.788"/>
<polygon fill="midnightblue" stroke="midnightblue" points="653.776,-187.287 643.391,-189.386 652.818,-194.222 653.776,-187.287"/>
</g>
<!-- Node26 -->
<g id="node26" class="node"><title>Node26</title>
<g id="a_node26"><a xlink:href="_matrix_8h.html" target="_top" xlink:title="cinder/Matrix.h">
<polygon fill="white" stroke="black" points="477.212,-407 477.212,-427 558.788,-427 558.788,-407 477.212,-407"/>
<text text-anchor="middle" x="518" y="-413" font-family="Helvetica,sans-Serif" font-size="10.00">cinder/Matrix.h</text>
</a>
</g>
</g>
<!-- Node20&#45;&gt;Node26 -->
<g id="edge37" class="edge"><title>Node20&#45;&gt;Node26</title>
<path fill="none" stroke="midnightblue" d="M509.651,-464.753C510.991,-457.25 512.924,-446.424 514.593,-437.078"/>
<polygon fill="midnightblue" stroke="midnightblue" points="518.067,-437.535 516.379,-427.075 511.176,-436.304 518.067,-437.535"/>
</g>
<!-- Node21&#45;&gt;Node10 -->
<g id="edge31" class="edge"><title>Node21&#45;&gt;Node10</title>
<path fill="none" stroke="midnightblue" d="M560.831,-176.583C511.732,-167.349 432.915,-151.185 406,-138 379.312,-124.926 353.493,-101.999 337.683,-86.4166"/>
<polygon fill="midnightblue" stroke="midnightblue" points="339.897,-83.6778 330.377,-79.0285 334.92,-88.5999 339.897,-83.6778"/>
</g>
<!-- Node22 -->
<g id="node22" class="node"><title>Node22</title>
<polygon fill="white" stroke="#bfbfbf" points="538.273,-117 538.273,-137 583.727,-137 583.727,-117 538.273,-117"/>
<text text-anchor="middle" x="561" y="-123" font-family="Helvetica,sans-Serif" font-size="10.00">cstring</text>
</g>
<!-- Node21&#45;&gt;Node22 -->
<g id="edge32" class="edge"><title>Node21&#45;&gt;Node22</title>
<path fill="none" stroke="midnightblue" d="M595.23,-174.753C589.379,-166.761 580.766,-154.998 573.644,-145.27"/>
<polygon fill="midnightblue" stroke="midnightblue" points="576.376,-143.076 567.644,-137.075 570.728,-147.211 576.376,-143.076"/>
</g>
<!-- Node23 -->
<g id="node23" class="node"><title>Node23</title>
<polygon fill="white" stroke="#bfbfbf" points="601.828,-117 601.828,-137 656.172,-137 656.172,-117 601.828,-117"/>
<text text-anchor="middle" x="629" y="-123" font-family="Helvetica,sans-Serif" font-size="10.00">iostream</text>
</g>
<!-- Node21&#45;&gt;Node23 -->
<g id="edge33" class="edge"><title>Node21&#45;&gt;Node23</title>
<path fill="none" stroke="midnightblue" d="M606.459,-174.753C610.194,-167.006 615.638,-155.714 620.24,-146.169"/>
<polygon fill="midnightblue" stroke="midnightblue" points="623.434,-147.603 624.624,-137.075 617.129,-144.563 623.434,-147.603"/>
</g>
<!-- Node24 -->
<g id="node24" class="node"><title>Node24</title>
<polygon fill="white" stroke="#bfbfbf" points="414.884,-117 414.884,-137 463.116,-137 463.116,-117 414.884,-117"/>
<text text-anchor="middle" x="439" y="-123" font-family="Helvetica,sans-Serif" font-size="10.00">cassert</text>
</g>
<!-- Node21&#45;&gt;Node24 -->
<g id="edge34" class="edge"><title>Node21&#45;&gt;Node24</title>
<path fill="none" stroke="midnightblue" d="M575.448,-174.878C547.487,-165.271 503.372,-150.116 472.91,-139.65"/>
<polygon fill="midnightblue" stroke="midnightblue" points="473.741,-136.235 463.146,-136.296 471.467,-142.855 473.741,-136.235"/>
</g>
<!-- Node25 -->
<g id="node25" class="node"><title>Node25</title>
<polygon fill="white" stroke="#bfbfbf" points="481.613,-117 481.613,-137 520.387,-137 520.387,-117 481.613,-117"/>
<text text-anchor="middle" x="501" y="-123" font-family="Helvetica,sans-Serif" font-size="10.00">limits</text>
</g>
<!-- Node21&#45;&gt;Node25 -->
<g id="edge35" class="edge"><title>Node21&#45;&gt;Node25</title>
<path fill="none" stroke="midnightblue" d="M585.322,-174.753C569.217,-165.823 544.619,-152.185 526.14,-141.939"/>
<polygon fill="midnightblue" stroke="midnightblue" points="527.811,-138.863 517.368,-137.075 524.416,-144.985 527.811,-138.863"/>
</g>
<!-- Node21&#45;&gt;Node9 -->
<g id="edge36" class="edge"><title>Node21&#45;&gt;Node9</title>
<path fill="none" stroke="midnightblue" d="M560.883,-176.353C556.205,-175.534 551.502,-174.733 547,-174 436.202,-155.956 408.07,-154.286 297,-138 295.724,-137.813 294.434,-137.623 293.134,-137.432"/>
<polygon fill="midnightblue" stroke="midnightblue" points="293.43,-133.938 283.027,-135.94 292.408,-140.863 293.43,-133.938"/>
</g>
<!-- Node26&#45;&gt;Node3 -->
<g id="edge38" class="edge"><title>Node26&#45;&gt;Node3</title>
<path fill="none" stroke="midnightblue" d="M558.922,-412.723C644.809,-403.381 836,-368.592 836,-244 836,-244 836,-244 836,-184 836,-139.831 793.392,-103.692 765.245,-84.6386"/>
<polygon fill="midnightblue" stroke="midnightblue" points="766.977,-81.5895 756.687,-79.0641 763.156,-87.4549 766.977,-81.5895"/>
</g>
<!-- Node26&#45;&gt;Node9 -->
<g id="edge39" class="edge"><title>Node26&#45;&gt;Node9</title>
<path fill="none" stroke="midnightblue" d="M500.57,-406.962C459.472,-385.034 354.797,-325.514 286,-254 264.291,-231.433 258.695,-224.625 246,-196 239.017,-180.254 234.857,-161.048 232.538,-147.069"/>
<polygon fill="midnightblue" stroke="midnightblue" points="235.994,-146.517 231.053,-137.145 229.071,-147.552 235.994,-146.517"/>
</g>
<!-- Node27 -->
<g id="node27" class="node"><title>Node27</title>
<g id="a_node27"><a xlink:href="_matrix22_8h.html" target="_top" xlink:title="cinder/Matrix22.h">
<polygon fill="white" stroke="black" points="453.65,-233 453.65,-253 546.35,-253 546.35,-233 453.65,-233"/>
<text text-anchor="middle" x="500" y="-239" font-family="Helvetica,sans-Serif" font-size="10.00">cinder/Matrix22.h</text>
</a>
</g>
</g>
<!-- Node26&#45;&gt;Node27 -->
<g id="edge40" class="edge"><title>Node26&#45;&gt;Node27</title>
<path fill="none" stroke="midnightblue" d="M503.159,-406.736C491.7,-398.631 476.705,-385.712 470,-370 454.339,-333.301 474.802,-286.94 488.835,-261.944"/>
<polygon fill="midnightblue" stroke="midnightblue" points="491.93,-263.586 493.984,-253.192 485.897,-260.037 491.93,-263.586"/>
</g>
<!-- Node29 -->
<g id="node29" class="node"><title>Node29</title>
<g id="a_node29"><a xlink:href="_matrix_affine2_8h.html" target="_top" xlink:title="cinder/MatrixAffine2.h">
<polygon fill="white" stroke="black" points="322.646,-233 322.646,-253 435.354,-253 435.354,-233 322.646,-233"/>
<text text-anchor="middle" x="379" y="-239" font-family="Helvetica,sans-Serif" font-size="10.00">cinder/MatrixAffine2.h</text>
</a>
</g>
</g>
<!-- Node26&#45;&gt;Node29 -->
<g id="edge45" class="edge"><title>Node26&#45;&gt;Node29</title>
<path fill="none" stroke="midnightblue" d="M504.314,-406.834C492.084,-398.23 474.123,-384.536 461,-370 429.811,-335.453 402.284,-287.896 388.452,-262.218"/>
<polygon fill="midnightblue" stroke="midnightblue" points="391.465,-260.428 383.691,-253.23 385.279,-263.705 391.465,-260.428"/>
</g>
<!-- Node30 -->
<g id="node30" class="node"><title>Node30</title>
<g id="a_node30"><a xlink:href="_matrix33_8h.html" target="_top" xlink:title="cinder/Matrix33.h">
<polygon fill="white" stroke="black" points="639.65,-233 639.65,-253 732.35,-253 732.35,-233 639.65,-233"/>
<text text-anchor="middle" x="686" y="-239" font-family="Helvetica,sans-Serif" font-size="10.00">cinder/Matrix33.h</text>
</a>
</g>
</g>
<!-- Node26&#45;&gt;Node30 -->
<g id="edge50" class="edge"><title>Node26&#45;&gt;Node30</title>
<path fill="none" stroke="midnightblue" d="M541.14,-406.865C559.788,-398.835 586.089,-385.953 606,-370 632.335,-348.9 636.943,-340.508 655,-312 664.958,-296.278 673.489,-276.826 679.066,-262.76"/>
<polygon fill="midnightblue" stroke="midnightblue" points="682.418,-263.795 682.73,-253.205 675.882,-261.289 682.418,-263.795"/>
</g>
<!-- Node31 -->
<g id="node31" class="node"><title>Node31</title>
<g id="a_node31"><a xlink:href="_matrix44_8h.html" target="_top" xlink:title="cinder/Matrix44.h">
<polygon fill="white" stroke="black" points="527.65,-291 527.65,-311 620.35,-311 620.35,-291 527.65,-291"/>
<text text-anchor="middle" x="574" y="-297" font-family="Helvetica,sans-Serif" font-size="10.00">cinder/Matrix44.h</text>
</a>
</g>
</g>
<!-- Node26&#45;&gt;Node31 -->
<g id="edge55" class="edge"><title>Node26&#45;&gt;Node31</title>
<path fill="none" stroke="midnightblue" d="M543.532,-406.881C559.731,-399.609 579.389,-387.678 589,-370 597.364,-354.616 591.461,-334.872 584.759,-320.626"/>
<polygon fill="midnightblue" stroke="midnightblue" points="587.657,-318.614 579.929,-311.366 581.45,-321.851 587.657,-318.614"/>
</g>
<!-- Node32 -->
<g id="node32" class="node"><title>Node32</title>
<g id="a_node32"><a xlink:href="_matrix_algo_8h.html" target="_top" xlink:title="cinder/MatrixAlgo.h">
<polygon fill="white" stroke="black" points="479.205,-349 479.205,-369 580.795,-369 580.795,-349 479.205,-349"/>
<text text-anchor="middle" x="530" y="-355" font-family="Helvetica,sans-Serif" font-size="10.00">cinder/MatrixAlgo.h</text>
</a>
</g>
</g>
<!-- Node26&#45;&gt;Node32 -->
<g id="edge63" class="edge"><title>Node26&#45;&gt;Node32</title>
<path fill="none" stroke="midnightblue" d="M519.982,-406.753C521.589,-399.25 523.909,-388.424 525.912,-379.078"/>
<polygon fill="midnightblue" stroke="midnightblue" points="529.382,-379.587 528.055,-369.075 522.538,-378.12 529.382,-379.587"/>
</g>
<!-- Node27&#45;&gt;Node3 -->
<g id="edge41" class="edge"><title>Node27&#45;&gt;Node3</title>
<path fill="none" stroke="midnightblue" d="M546.405,-236.07C578.474,-230.137 620.806,-218.499 652,-196 672.58,-181.157 711.457,-119.252 730.267,-88.0885"/>
<polygon fill="midnightblue" stroke="midnightblue" points="733.486,-89.5267 735.621,-79.1493 727.48,-85.9301 733.486,-89.5267"/>
</g>
<!-- Node27&#45;&gt;Node9 -->
<g id="edge42" class="edge"><title>Node27&#45;&gt;Node9</title>
<path fill="none" stroke="midnightblue" d="M478.361,-232.864C430.551,-212.677 315.799,-164.226 260.632,-140.934"/>
<polygon fill="midnightblue" stroke="midnightblue" points="261.941,-137.687 251.367,-137.022 259.218,-144.136 261.941,-137.687"/>
</g>
<!-- Node27&#45;&gt;Node21 -->
<g id="edge43" class="edge"><title>Node27&#45;&gt;Node21</title>
<path fill="none" stroke="midnightblue" d="M516.843,-232.753C533.108,-223.823 557.949,-210.185 576.612,-199.939"/>
<polygon fill="midnightblue" stroke="midnightblue" points="578.389,-202.956 585.47,-195.075 575.02,-196.82 578.389,-202.956"/>
</g>
<!-- Node28 -->
<g id="node28" class="node"><title>Node28</title>
<polygon fill="white" stroke="#bfbfbf" points="453.49,-175 453.49,-195 504.51,-195 504.51,-175 453.49,-175"/>
<text text-anchor="middle" x="479" y="-181" font-family="Helvetica,sans-Serif" font-size="10.00">iomanip</text>
</g>
<!-- Node27&#45;&gt;Node28 -->
<g id="edge44" class="edge"><title>Node27&#45;&gt;Node28</title>
<path fill="none" stroke="midnightblue" d="M496.532,-232.753C493.658,-225.087 489.482,-213.952 485.927,-204.471"/>
<polygon fill="midnightblue" stroke="midnightblue" points="489.192,-203.21 482.403,-195.075 482.637,-205.667 489.192,-203.21"/>
</g>
<!-- Node29&#45;&gt;Node3 -->
<g id="edge46" class="edge"><title>Node29&#45;&gt;Node3</title>
<path fill="none" stroke="midnightblue" d="M377.785,-232.705C375.292,-209.228 372.384,-147.197 406,-116 446.12,-78.7676 605.536,-71.3693 689.169,-70.0971"/>
<polygon fill="midnightblue" stroke="midnightblue" points="689.27,-73.5962 699.224,-69.9681 689.18,-66.5968 689.27,-73.5962"/>
</g>
<!-- Node29&#45;&gt;Node9 -->
<g id="edge47" class="edge"><title>Node29&#45;&gt;Node9</title>
<path fill="none" stroke="midnightblue" d="M367.059,-232.864C341.557,-213.352 281.543,-167.436 250.067,-143.353"/>
<polygon fill="midnightblue" stroke="midnightblue" points="252.067,-140.477 241.998,-137.18 247.814,-146.036 252.067,-140.477"/>
</g>
<!-- Node29&#45;&gt;Node21 -->
<g id="edge48" class="edge"><title>Node29&#45;&gt;Node21</title>
<path fill="none" stroke="midnightblue" d="M415.325,-232.878C453.749,-223.229 514.466,-207.982 556.158,-197.512"/>
<polygon fill="midnightblue" stroke="midnightblue" points="557.214,-200.856 566.06,-195.025 555.509,-194.066 557.214,-200.856"/>
</g>
<!-- Node29&#45;&gt;Node28 -->
<g id="edge49" class="edge"><title>Node29&#45;&gt;Node28</title>
<path fill="none" stroke="midnightblue" d="M395.513,-232.753C411.386,-223.864 435.591,-210.309 453.858,-200.079"/>
<polygon fill="midnightblue" stroke="midnightblue" points="455.779,-203.015 462.794,-195.075 452.359,-196.907 455.779,-203.015"/>
</g>
<!-- Node30&#45;&gt;Node3 -->
<g id="edge51" class="edge"><title>Node30&#45;&gt;Node3</title>
<path fill="none" stroke="midnightblue" d="M688.957,-232.753C697.612,-205.688 723.021,-126.224 734.833,-89.2864"/>
<polygon fill="midnightblue" stroke="midnightblue" points="738.316,-89.8841 738.028,-79.2932 731.649,-87.752 738.316,-89.8841"/>
</g>
<!-- Node30&#45;&gt;Node9 -->
<g id="edge52" class="edge"><title>Node30&#45;&gt;Node9</title>
<path fill="none" stroke="midnightblue" d="M654.509,-232.977C626.95,-224.663 586.105,-211.318 552,-196 533.846,-187.846 531.779,-180.587 513,-174 440.22,-148.47 351.868,-136.993 293.456,-131.91"/>
<polygon fill="midnightblue" stroke="midnightblue" points="293.524,-128.404 283.268,-131.062 292.943,-135.38 293.524,-128.404"/>
</g>
<!-- Node30&#45;&gt;Node21 -->
<g id="edge53" class="edge"><title>Node30&#45;&gt;Node21</title>
<path fill="none" stroke="midnightblue" d="M672.129,-232.753C659.041,-224.027 639.208,-210.805 623.969,-200.646"/>
<polygon fill="midnightblue" stroke="midnightblue" points="625.875,-197.71 615.613,-195.075 621.992,-203.534 625.875,-197.71"/>
</g>
<!-- Node30&#45;&gt;Node28 -->
<g id="edge54" class="edge"><title>Node30&#45;&gt;Node28</title>
<path fill="none" stroke="midnightblue" d="M652.281,-232.878C614.317,-222.607 552.906,-205.994 514.303,-195.551"/>
<polygon fill="midnightblue" stroke="midnightblue" points="515.101,-192.141 504.534,-192.908 513.273,-198.898 515.101,-192.141"/>
</g>
<!-- Node31&#45;&gt;Node3 -->
<g id="edge56" class="edge"><title>Node31&#45;&gt;Node3</title>
<path fill="none" stroke="midnightblue" d="M620.689,-293.519C664.831,-286.322 726.421,-273.138 741,-254 778.367,-204.949 759.382,-125.255 747.782,-89.0176"/>
<polygon fill="midnightblue" stroke="midnightblue" points="751,-87.6071 744.49,-79.2487 744.367,-89.8428 751,-87.6071"/>
</g>
<!-- Node31&#45;&gt;Node9 -->
<g id="edge57" class="edge"><title>Node31&#45;&gt;Node9</title>
<path fill="none" stroke="midnightblue" d="M527.449,-296.162C462.408,-290.069 348.437,-276.51 314,-254 273.803,-227.724 248.203,-174.796 236.834,-146.627"/>
<polygon fill="midnightblue" stroke="midnightblue" points="240.042,-145.218 233.173,-137.151 233.512,-147.74 240.042,-145.218"/>
</g>
<!-- Node31&#45;&gt;Node21 -->
<g id="edge58" class="edge"><title>Node31&#45;&gt;Node21</title>
<path fill="none" stroke="midnightblue" d="M577.04,-290.906C580.06,-281.677 584.705,-266.944 588,-254 592.135,-237.757 595.908,-219.095 598.493,-205.435"/>
<polygon fill="midnightblue" stroke="midnightblue" points="601.991,-205.771 600.367,-195.301 595.107,-204.498 601.991,-205.771"/>
</g>
<!-- Node31&#45;&gt;Node27 -->
<g id="edge59" class="edge"><title>Node31&#45;&gt;Node27</title>
<path fill="none" stroke="midnightblue" d="M561.78,-290.753C550.466,-282.19 533.429,-269.298 520.11,-259.219"/>
<polygon fill="midnightblue" stroke="midnightblue" points="522.078,-256.319 511.992,-253.075 517.854,-261.901 522.078,-256.319"/>
</g>
<!-- Node31&#45;&gt;Node30 -->
<g id="edge60" class="edge"><title>Node31&#45;&gt;Node30</title>
<path fill="none" stroke="midnightblue" d="M592.495,-290.753C610.516,-281.742 638.129,-267.935 658.682,-257.659"/>
<polygon fill="midnightblue" stroke="midnightblue" points="660.471,-260.678 667.85,-253.075 657.34,-254.417 660.471,-260.678"/>
</g>
<!-- Node31&#45;&gt;Node29 -->
<g id="edge61" class="edge"><title>Node31&#45;&gt;Node29</title>
<path fill="none" stroke="midnightblue" d="M542.236,-290.878C508.992,-281.331 456.663,-266.303 420.247,-255.845"/>
<polygon fill="midnightblue" stroke="midnightblue" points="421.005,-252.422 410.427,-253.025 419.073,-259.15 421.005,-252.422"/>
</g>
<!-- Node31&#45;&gt;Node28 -->
<g id="edge62" class="edge"><title>Node31&#45;&gt;Node28</title>
<path fill="none" stroke="midnightblue" d="M573.537,-290.693C572.403,-276.641 568.492,-249.767 555,-232 544.109,-217.658 527.342,-206.829 512.325,-199.293"/>
<polygon fill="midnightblue" stroke="midnightblue" points="513.807,-196.122 503.269,-195.023 510.822,-202.454 513.807,-196.122"/>
</g>
<!-- Node32&#45;&gt;Node27 -->
<g id="edge64" class="edge"><title>Node32&#45;&gt;Node27</title>
<path fill="none" stroke="midnightblue" d="M527.545,-348.671C522.642,-330.041 511.552,-287.898 505.038,-263.143"/>
<polygon fill="midnightblue" stroke="midnightblue" points="508.335,-261.919 502.405,-253.139 501.565,-263.701 508.335,-261.919"/>
</g>
<!-- Node32&#45;&gt;Node30 -->
<g id="edge65" class="edge"><title>Node32&#45;&gt;Node30</title>
<path fill="none" stroke="midnightblue" d="M557.396,-348.985C578.327,-341.257 607.191,-328.72 629,-312 647.628,-297.719 664.275,-276.347 674.699,-261.385"/>
<polygon fill="midnightblue" stroke="midnightblue" points="677.653,-263.265 680.348,-253.019 671.852,-259.348 677.653,-263.265"/>
</g>
<!-- Node32&#45;&gt;Node31 -->
<g id="edge66" class="edge"><title>Node32&#45;&gt;Node31</title>
<path fill="none" stroke="midnightblue" d="M537.266,-348.753C543.609,-340.68 552.977,-328.757 560.664,-318.973"/>
<polygon fill="midnightblue" stroke="midnightblue" points="563.443,-321.101 566.869,-311.075 557.939,-316.776 563.443,-321.101"/>
</g>
</g>
</svg>
