<?xml version="1.0" encoding="UTF-8" standalone="no"?>
<!DOCTYPE svg PUBLIC "-//W3C//DTD SVG 1.1//EN"
 "http://www.w3.org/Graphics/SVG/1.1/DTD/svg11.dtd">
<!-- Generated by graphviz version 2.30.1 (20140712.1814)
 -->
<!-- Title: include/cinder/Timeline.h Pages: 1 -->
<svg width="1313pt" height="610pt"
 viewBox="0.00 0.00 1313.00 610.00" xmlns="http://www.w3.org/2000/svg" xmlns:xlink="http://www.w3.org/1999/xlink">
<g id="graph0" class="graph" transform="scale(1 1) rotate(0) translate(4 606)">
<title>include/cinder/Timeline.h</title>
<polygon fill="white" stroke="white" points="-4,5 -4,-606 1310,-606 1310,5 -4,5"/>
<!-- Node1 -->
<g id="node1" class="node"><title>Node1</title>
<polygon fill="#bfbfbf" stroke="black" points="938.878,-581 938.878,-601 1065.12,-601 1065.12,-581 938.878,-581"/>
<text text-anchor="middle" x="1002" y="-587" font-family="Helvetica,sans-Serif" font-size="10.00">include/cinder/Timeline.h</text>
</g>
<!-- Node2 -->
<g id="node2" class="node"><title>Node2</title>
<g id="a_node2"><a xlink:href="_cinder_8h.html" target="_top" xlink:title="cinder/Cinder.h">
<polygon fill="white" stroke="black" points="232.367,-59 232.367,-79 315.633,-79 315.633,-59 232.367,-59"/>
<text text-anchor="middle" x="274" y="-65" font-family="Helvetica,sans-Serif" font-size="10.00">cinder/Cinder.h</text>
</a>
</g>
</g>
<!-- Node1&#45;&gt;Node2 -->
<g id="edge1" class="edge"><title>Node1&#45;&gt;Node2</title>
<path fill="none" stroke="midnightblue" d="M938.542,-588.287C739.242,-582.074 139,-556.665 139,-476 139,-476 139,-476 139,-184 139,-132.422 197.234,-99.4197 237.208,-82.8414"/>
<polygon fill="midnightblue" stroke="midnightblue" points="238.682,-86.0221 246.681,-79.0745 236.095,-79.5175 238.682,-86.0221"/>
</g>
<!-- Node6 -->
<g id="node6" class="node"><title>Node6</title>
<g id="a_node6"><a xlink:href="_timeline_item_8h.html" target="_top" xlink:title="cinder/TimelineItem.h">
<polygon fill="white" stroke="black" points="-0.612305,-465 -0.612305,-485 110.612,-485 110.612,-465 -0.612305,-465"/>
<text text-anchor="middle" x="55" y="-471" font-family="Helvetica,sans-Serif" font-size="10.00">cinder/TimelineItem.h</text>
</a>
</g>
</g>
<!-- Node1&#45;&gt;Node6 -->
<g id="edge5" class="edge"><title>Node1&#45;&gt;Node6</title>
<path fill="none" stroke="midnightblue" d="M938.746,-589.242C749.941,-586.624 198.925,-576.276 125,-544 100.37,-533.246 79.3868,-509.711 66.9879,-493.363"/>
<polygon fill="midnightblue" stroke="midnightblue" points="69.7257,-491.177 61.0141,-485.147 64.064,-495.293 69.7257,-491.177"/>
</g>
<!-- Node7 -->
<g id="node7" class="node"><title>Node7</title>
<g id="a_node7"><a xlink:href="_easing_8h.html" target="_top" xlink:title="cinder/Easing.h">
<polygon fill="white" stroke="black" points="897.535,-465 897.535,-485 982.465,-485 982.465,-465 897.535,-465"/>
<text text-anchor="middle" x="940" y="-471" font-family="Helvetica,sans-Serif" font-size="10.00">cinder/Easing.h</text>
</a>
</g>
</g>
<!-- Node1&#45;&gt;Node7 -->
<g id="edge7" class="edge"><title>Node1&#45;&gt;Node7</title>
<path fill="none" stroke="midnightblue" d="M996.926,-580.671C986.657,-561.789 963.252,-518.754 949.87,-494.149"/>
<polygon fill="midnightblue" stroke="midnightblue" points="952.823,-492.252 944.971,-485.139 946.674,-495.596 952.823,-492.252"/>
</g>
<!-- Node13 -->
<g id="node13" class="node"><title>Node13</title>
<g id="a_node13"><a xlink:href="_tween_8h.html" target="_top" xlink:title="cinder/Tween.h">
<polygon fill="white" stroke="black" points="837.089,-523 837.089,-543 920.911,-543 920.911,-523 837.089,-523"/>
<text text-anchor="middle" x="879" y="-529" font-family="Helvetica,sans-Serif" font-size="10.00">cinder/Tween.h</text>
</a>
</g>
</g>
<!-- Node1&#45;&gt;Node13 -->
<g id="edge14" class="edge"><title>Node1&#45;&gt;Node13</title>
<path fill="none" stroke="midnightblue" d="M981.964,-580.878C961.951,-571.766 930.971,-557.662 908.219,-547.303"/>
<polygon fill="midnightblue" stroke="midnightblue" points="909.579,-544.076 899.027,-543.118 906.678,-550.447 909.579,-544.076"/>
</g>
<!-- Node14 -->
<g id="node14" class="node"><title>Node14</title>
<g id="a_node14"><a xlink:href="_function_8h.html" target="_top" xlink:title="cinder/Function.h">
<polygon fill="white" stroke="black" points="1000.65,-465 1000.65,-485 1093.35,-485 1093.35,-465 1000.65,-465"/>
<text text-anchor="middle" x="1047" y="-471" font-family="Helvetica,sans-Serif" font-size="10.00">cinder/Function.h</text>
</a>
</g>
</g>
<!-- Node1&#45;&gt;Node14 -->
<g id="edge66" class="edge"><title>Node1&#45;&gt;Node14</title>
<path fill="none" stroke="midnightblue" d="M1005.68,-580.671C1013.1,-561.873 1029.97,-519.136 1039.71,-494.478"/>
<polygon fill="midnightblue" stroke="midnightblue" points="1042.98,-495.726 1043.39,-485.139 1036.47,-493.156 1042.98,-495.726"/>
</g>
<!-- Node16 -->
<g id="node16" class="node"><title>Node16</title>
<polygon fill="white" stroke="#bfbfbf" points="1261.38,-407 1261.38,-427 1304.62,-427 1304.62,-407 1261.38,-407"/>
<text text-anchor="middle" x="1283" y="-413" font-family="Helvetica,sans-Serif" font-size="10.00">vector</text>
</g>
<!-- Node1&#45;&gt;Node16 -->
<g id="edge67" class="edge"><title>Node1&#45;&gt;Node16</title>
<path fill="none" stroke="midnightblue" d="M1017.16,-580.866C1032.51,-571.606 1056.93,-556.85 1078,-544 1143.76,-503.892 1221.13,-456.2 1259.28,-432.652"/>
<polygon fill="midnightblue" stroke="midnightblue" points="1261.43,-435.436 1268.1,-427.204 1257.76,-429.48 1261.43,-435.436"/>
</g>
<!-- Node32 -->
<g id="node32" class="node"><title>Node32</title>
<polygon fill="white" stroke="#bfbfbf" points="1111.5,-465 1111.5,-485 1140.5,-485 1140.5,-465 1111.5,-465"/>
<text text-anchor="middle" x="1125.61" y="-471" font-family="Helvetica,sans-Serif" font-size="10.00">list</text>
</g>
<!-- Node1&#45;&gt;Node32 -->
<g id="edge68" class="edge"><title>Node1&#45;&gt;Node32</title>
<path fill="none" stroke="midnightblue" d="M1012.15,-580.671C1033.23,-561.285 1082.01,-516.442 1108.36,-492.22"/>
<polygon fill="midnightblue" stroke="midnightblue" points="1111.07,-494.484 1116.06,-485.139 1106.33,-489.331 1111.07,-494.484"/>
</g>
<!-- Node33 -->
<g id="node33" class="node"><title>Node33</title>
<polygon fill="white" stroke="#bfbfbf" points="1197.27,-523 1197.27,-543 1232.73,-543 1232.73,-523 1197.27,-523"/>
<text text-anchor="middle" x="1215" y="-529" font-family="Helvetica,sans-Serif" font-size="10.00">map</text>
</g>
<!-- Node1&#45;&gt;Node33 -->
<g id="edge69" class="edge"><title>Node1&#45;&gt;Node33</title>
<path fill="none" stroke="midnightblue" d="M1039.95,-580.988C1076.68,-572.116 1133.87,-557.91 1183,-544 1184.44,-543.594 1185.9,-543.169 1187.38,-542.732"/>
<polygon fill="midnightblue" stroke="midnightblue" points="1188.56,-546.033 1197.11,-539.777 1186.53,-539.335 1188.56,-546.033"/>
</g>
<!-- Node3 -->
<g id="node3" class="node"><title>Node3</title>
<polygon fill="white" stroke="#bfbfbf" points="163.549,-1 163.549,-21 208.451,-21 208.451,-1 163.549,-1"/>
<text text-anchor="middle" x="186" y="-7" font-family="Helvetica,sans-Serif" font-size="10.00">cstdint</text>
</g>
<!-- Node2&#45;&gt;Node3 -->
<g id="edge2" class="edge"><title>Node2&#45;&gt;Node3</title>
<path fill="none" stroke="midnightblue" d="M259.469,-58.7527C245.757,-50.0272 224.979,-36.8051 209.015,-26.6458"/>
<polygon fill="midnightblue" stroke="midnightblue" points="210.577,-23.4912 200.261,-21.0752 206.819,-29.3968 210.577,-23.4912"/>
</g>
<!-- Node4 -->
<g id="node4" class="node"><title>Node4</title>
<polygon fill="white" stroke="#bfbfbf" points="226.53,-1 226.53,-21 321.47,-21 321.47,-1 226.53,-1"/>
<text text-anchor="middle" x="274" y="-7" font-family="Helvetica,sans-Serif" font-size="10.00">boost/version.hpp</text>
</g>
<!-- Node2&#45;&gt;Node4 -->
<g id="edge3" class="edge"><title>Node2&#45;&gt;Node4</title>
<path fill="none" stroke="midnightblue" d="M274,-58.7527C274,-51.2504 274,-40.4238 274,-31.0781"/>
<polygon fill="midnightblue" stroke="midnightblue" points="277.5,-31.0752 274,-21.0752 270.5,-31.0752 277.5,-31.0752"/>
</g>
<!-- Node5 -->
<g id="node5" class="node"><title>Node5</title>
<polygon fill="white" stroke="#bfbfbf" points="339.621,-1 339.621,-21 472.379,-21 472.379,-1 339.621,-1"/>
<text text-anchor="middle" x="406" y="-7" font-family="Helvetica,sans-Serif" font-size="10.00">boost/checked_delete.hpp</text>
</g>
<!-- Node2&#45;&gt;Node5 -->
<g id="edge4" class="edge"><title>Node2&#45;&gt;Node5</title>
<path fill="none" stroke="midnightblue" d="M295.502,-58.878C317.172,-49.6848 350.821,-35.4095 375.295,-25.0263"/>
<polygon fill="midnightblue" stroke="midnightblue" points="376.668,-28.2457 384.507,-21.1181 373.935,-21.8016 376.668,-28.2457"/>
</g>
<!-- Node6&#45;&gt;Node2 -->
<g id="edge6" class="edge"><title>Node6&#45;&gt;Node2</title>
<path fill="none" stroke="midnightblue" d="M58.1019,-464.964C64.3799,-445.842 78,-399.775 78,-360 78,-360 78,-360 78,-184 78,-117.342 163.755,-88.989 221.818,-77.4312"/>
<polygon fill="midnightblue" stroke="midnightblue" points="222.772,-80.8134 231.953,-75.5264 221.479,-73.9339 222.772,-80.8134"/>
</g>
<!-- Node8 -->
<g id="node8" class="node"><title>Node8</title>
<g id="a_node8"><a xlink:href="_cinder_math_8h.html" target="_top" xlink:title="cinder/CinderMath.h">
<polygon fill="white" stroke="black" points="702.978,-117 702.978,-137 809.022,-137 809.022,-117 702.978,-117"/>
<text text-anchor="middle" x="756" y="-123" font-family="Helvetica,sans-Serif" font-size="10.00">cinder/CinderMath.h</text>
</a>
</g>
</g>
<!-- Node7&#45;&gt;Node8 -->
<g id="edge8" class="edge"><title>Node7&#45;&gt;Node8</title>
<path fill="none" stroke="midnightblue" d="M935.551,-464.789C926.758,-445.711 908,-400.291 908,-360 908,-360 908,-360 908,-242 908,-209.951 906.598,-196.727 884,-174 866.518,-156.418 841.843,-145.52 818.817,-138.781"/>
<polygon fill="midnightblue" stroke="midnightblue" points="819.643,-135.379 809.076,-136.14 817.812,-142.135 819.643,-135.379"/>
</g>
<!-- Node8&#45;&gt;Node2 -->
<g id="edge9" class="edge"><title>Node8&#45;&gt;Node2</title>
<path fill="none" stroke="midnightblue" d="M702.632,-117.849C698.024,-117.202 693.432,-116.576 689,-116 558.631,-99.0519 404.7,-83.0308 326.019,-75.129"/>
<polygon fill="midnightblue" stroke="midnightblue" points="326.185,-71.6281 315.886,-74.1144 325.487,-78.5933 326.185,-71.6281"/>
</g>
<!-- Node9 -->
<g id="node9" class="node"><title>Node9</title>
<polygon fill="white" stroke="#bfbfbf" points="629.384,-59 629.384,-79 672.616,-79 672.616,-59 629.384,-59"/>
<text text-anchor="middle" x="651" y="-65" font-family="Helvetica,sans-Serif" font-size="10.00">cmath</text>
</g>
<!-- Node8&#45;&gt;Node9 -->
<g id="edge10" class="edge"><title>Node8&#45;&gt;Node9</title>
<path fill="none" stroke="midnightblue" d="M738.661,-116.753C721.842,-107.783 696.113,-94.0601 676.872,-83.7986"/>
<polygon fill="midnightblue" stroke="midnightblue" points="678.487,-80.6929 668.016,-79.0752 675.192,-86.8694 678.487,-80.6929"/>
</g>
<!-- Node10 -->
<g id="node10" class="node"><title>Node10</title>
<polygon fill="white" stroke="#bfbfbf" points="719.113,-59 719.113,-79 762.887,-79 762.887,-59 719.113,-59"/>
<text text-anchor="middle" x="741" y="-65" font-family="Helvetica,sans-Serif" font-size="10.00">climits</text>
</g>
<!-- Node8&#45;&gt;Node10 -->
<g id="edge11" class="edge"><title>Node8&#45;&gt;Node10</title>
<path fill="none" stroke="midnightblue" d="M753.523,-116.753C751.492,-109.169 748.55,-98.1881 746.029,-88.7739"/>
<polygon fill="midnightblue" stroke="midnightblue" points="749.399,-87.8291 743.431,-79.0752 742.637,-89.6403 749.399,-87.8291"/>
</g>
<!-- Node11 -->
<g id="node11" class="node"><title>Node11</title>
<polygon fill="white" stroke="#bfbfbf" points="781.049,-59 781.049,-79 820.951,-79 820.951,-59 781.049,-59"/>
<text text-anchor="middle" x="801" y="-65" font-family="Helvetica,sans-Serif" font-size="10.00">cfloat</text>
</g>
<!-- Node8&#45;&gt;Node11 -->
<g id="edge12" class="edge"><title>Node8&#45;&gt;Node11</title>
<path fill="none" stroke="midnightblue" d="M763.431,-116.753C769.918,-108.68 779.499,-96.7571 787.361,-86.9727"/>
<polygon fill="midnightblue" stroke="midnightblue" points="790.172,-89.0627 793.707,-79.0752 784.715,-84.6779 790.172,-89.0627"/>
</g>
<!-- Node12 -->
<g id="node12" class="node"><title>Node12</title>
<polygon fill="white" stroke="#bfbfbf" points="990.596,-59 990.596,-79 1049.4,-79 1049.4,-59 990.596,-59"/>
<text text-anchor="middle" x="1020" y="-65" font-family="Helvetica,sans-Serif" font-size="10.00">functional</text>
</g>
<!-- Node8&#45;&gt;Node12 -->
<g id="edge13" class="edge"><title>Node8&#45;&gt;Node12</title>
<path fill="none" stroke="midnightblue" d="M798.71,-116.94C848.983,-106.276 931.786,-88.712 980.585,-78.3608"/>
<polygon fill="midnightblue" stroke="midnightblue" points="981.402,-81.7654 990.458,-76.2665 979.949,-74.9178 981.402,-81.7654"/>
</g>
<!-- Node13&#45;&gt;Node2 -->
<g id="edge15" class="edge"><title>Node13&#45;&gt;Node2</title>
<path fill="none" stroke="midnightblue" d="M836.929,-529.643C685.478,-520.605 177,-485.253 177,-418 177,-418 177,-418 177,-184 177,-139.682 220.049,-103.818 248.789,-84.8134"/>
<polygon fill="midnightblue" stroke="midnightblue" points="250.985,-87.5652 257.545,-79.246 247.229,-81.6581 250.985,-87.5652"/>
</g>
<!-- Node13&#45;&gt;Node6 -->
<g id="edge16" class="edge"><title>Node13&#45;&gt;Node6</title>
<path fill="none" stroke="midnightblue" d="M837.005,-529.716C726.552,-523.621 418.812,-506.057 163,-486 149.329,-484.928 134.696,-483.657 120.755,-482.386"/>
<polygon fill="midnightblue" stroke="midnightblue" points="121.029,-478.897 110.75,-481.464 120.387,-485.867 121.029,-478.897"/>
</g>
<!-- Node13&#45;&gt;Node8 -->
<g id="edge17" class="edge"><title>Node13&#45;&gt;Node8</title>
<path fill="none" stroke="midnightblue" d="M877.786,-522.858C875.33,-503.536 870,-457.111 870,-418 870,-418 870,-418 870,-242 870,-194.285 819.448,-159.566 785.671,-141.694"/>
<polygon fill="midnightblue" stroke="midnightblue" points="787.145,-138.516 776.645,-137.102 783.971,-144.756 787.145,-138.516"/>
</g>
<!-- Node13&#45;&gt;Node7 -->
<g id="edge18" class="edge"><title>Node13&#45;&gt;Node7</title>
<path fill="none" stroke="midnightblue" d="M889.073,-522.753C898.133,-514.435 911.645,-502.031 922.474,-492.089"/>
<polygon fill="midnightblue" stroke="midnightblue" points="925.115,-494.416 930.115,-485.075 920.381,-489.26 925.115,-494.416"/>
</g>
<!-- Node13&#45;&gt;Node14 -->
<g id="edge19" class="edge"><title>Node13&#45;&gt;Node14</title>
<path fill="none" stroke="midnightblue" d="M906.366,-522.878C934.64,-513.453 978.937,-498.688 1010.25,-488.25"/>
<polygon fill="midnightblue" stroke="midnightblue" points="1011.54,-491.508 1019.92,-485.025 1009.33,-484.867 1011.54,-491.508"/>
</g>
<!-- Node19 -->
<g id="node19" class="node"><title>Node19</title>
<g id="a_node19"><a xlink:href="_quaternion_8h.html" target="_top" xlink:title="cinder/Quaternion.h">
<polygon fill="white" stroke="black" points="622.084,-465 622.084,-485 725.916,-485 725.916,-465 622.084,-465"/>
<text text-anchor="middle" x="674" y="-471" font-family="Helvetica,sans-Serif" font-size="10.00">cinder/Quaternion.h</text>
</a>
</g>
</g>
<!-- Node13&#45;&gt;Node19 -->
<g id="edge26" class="edge"><title>Node13&#45;&gt;Node19</title>
<path fill="none" stroke="midnightblue" d="M845.607,-522.878C810.509,-513.29 755.176,-498.175 716.873,-487.712"/>
<polygon fill="midnightblue" stroke="midnightblue" points="717.608,-484.284 707.039,-485.025 715.763,-491.037 717.608,-484.284"/>
</g>
<!-- Node13&#45;&gt;Node32 -->
<g id="edge65" class="edge"><title>Node13&#45;&gt;Node32</title>
<path fill="none" stroke="midnightblue" d="M921.113,-525.782C966.405,-518.526 1040.24,-505.045 1102,-486 1102.1,-485.97 1102.19,-485.94 1102.29,-485.909"/>
<polygon fill="midnightblue" stroke="midnightblue" points="1103.24,-489.29 1111.44,-482.588 1100.85,-482.711 1103.24,-489.29"/>
</g>
<!-- Node14&#45;&gt;Node2 -->
<g id="edge20" class="edge"><title>Node14&#45;&gt;Node2</title>
<path fill="none" stroke="midnightblue" d="M1019.67,-464.979C1001.66,-457.695 978.918,-445.712 965,-428 945.612,-403.326 946,-391.38 946,-360 946,-360 946,-360 946,-184 946,-119.582 879.795,-134.195 818,-116 726.652,-89.1038 443.558,-76.0901 326,-71.736"/>
<polygon fill="midnightblue" stroke="midnightblue" points="325.939,-68.2316 315.818,-71.3653 325.684,-75.2269 325.939,-68.2316"/>
</g>
<!-- Node15 -->
<g id="node15" class="node"><title>Node15</title>
<polygon fill="white" stroke="#bfbfbf" points="1186.44,-407 1186.44,-427 1243.56,-427 1243.56,-407 1186.44,-407"/>
<text text-anchor="middle" x="1215" y="-413" font-family="Helvetica,sans-Serif" font-size="10.00">algorithm</text>
</g>
<!-- Node14&#45;&gt;Node15 -->
<g id="edge21" class="edge"><title>Node14&#45;&gt;Node15</title>
<path fill="none" stroke="midnightblue" d="M1074.37,-464.878C1102.64,-455.453 1146.94,-440.688 1178.25,-430.25"/>
<polygon fill="midnightblue" stroke="midnightblue" points="1179.54,-433.508 1187.92,-427.025 1177.33,-426.867 1179.54,-433.508"/>
</g>
<!-- Node14&#45;&gt;Node16 -->
<g id="edge22" class="edge"><title>Node14&#45;&gt;Node16</title>
<path fill="none" stroke="midnightblue" d="M1092.89,-464.954C1132.43,-456.879 1191.21,-444.212 1251.06,-428.078"/>
<polygon fill="midnightblue" stroke="midnightblue" points="1252.33,-431.358 1261.06,-425.351 1250.49,-424.605 1252.33,-431.358"/>
</g>
<!-- Node17 -->
<g id="node17" class="node"><title>Node17</title>
<polygon fill="white" stroke="#bfbfbf" points="973.608,-407 973.608,-427 1012.39,-427 1012.39,-407 973.608,-407"/>
<text text-anchor="middle" x="993" y="-413" font-family="Helvetica,sans-Serif" font-size="10.00">utility</text>
</g>
<!-- Node14&#45;&gt;Node17 -->
<g id="edge23" class="edge"><title>Node14&#45;&gt;Node17</title>
<path fill="none" stroke="midnightblue" d="M1038.08,-464.753C1030.14,-456.516 1018.34,-444.274 1008.8,-434.382"/>
<polygon fill="midnightblue" stroke="midnightblue" points="1011.21,-431.844 1001.75,-427.075 1006.17,-436.703 1011.21,-431.844"/>
</g>
<!-- Node18 -->
<g id="node18" class="node"><title>Node18</title>
<polygon fill="white" stroke="#bfbfbf" points="1030.3,-407 1030.3,-427 1129.7,-427 1129.7,-407 1030.3,-407"/>
<text text-anchor="middle" x="1080" y="-413" font-family="Helvetica,sans-Serif" font-size="10.00">boost/signals2.hpp</text>
</g>
<!-- Node14&#45;&gt;Node18 -->
<g id="edge24" class="edge"><title>Node14&#45;&gt;Node18</title>
<path fill="none" stroke="midnightblue" d="M1052.45,-464.753C1057.06,-456.924 1063.81,-445.476 1069.47,-435.868"/>
<polygon fill="midnightblue" stroke="midnightblue" points="1072.59,-437.468 1074.65,-427.075 1066.56,-433.914 1072.59,-437.468"/>
</g>
<!-- Node14&#45;&gt;Node12 -->
<g id="edge25" class="edge"><title>Node14&#45;&gt;Node12</title>
<path fill="none" stroke="midnightblue" d="M1079.4,-464.877C1098.96,-457.801 1122.93,-446.092 1138,-428 1158.16,-403.793 1158,-391.502 1158,-360 1158,-360 1158,-360 1158,-184 1158,-131.783 1098.55,-99.0002 1057.69,-82.6353"/>
<polygon fill="midnightblue" stroke="midnightblue" points="1058.85,-79.3322 1048.26,-79.0144 1056.34,-85.8669 1058.85,-79.3322"/>
</g>
<!-- Node19&#45;&gt;Node8 -->
<g id="edge27" class="edge"><title>Node19&#45;&gt;Node8</title>
<path fill="none" stroke="midnightblue" d="M711.044,-464.882C757.744,-450.911 832,-419.363 832,-360 832,-360 832,-360 832,-242 832,-201.325 798.09,-164.124 775.572,-143.905"/>
<polygon fill="midnightblue" stroke="midnightblue" points="777.728,-141.143 767.875,-137.249 773.15,-146.438 777.728,-141.143"/>
</g>
<!-- Node20 -->
<g id="node20" class="node"><title>Node20</title>
<g id="a_node20"><a xlink:href="_vector_8h.html" target="_top" xlink:title="cinder/Vector.h">
<polygon fill="white" stroke="black" points="380.919,-175 380.919,-195 463.081,-195 463.081,-175 380.919,-175"/>
<text text-anchor="middle" x="422" y="-181" font-family="Helvetica,sans-Serif" font-size="10.00">cinder/Vector.h</text>
</a>
</g>
</g>
<!-- Node19&#45;&gt;Node20 -->
<g id="edge28" class="edge"><title>Node19&#45;&gt;Node20</title>
<path fill="none" stroke="midnightblue" d="M621.948,-469.474C517.229,-458.929 291,-428.249 291,-360 291,-360 291,-360 291,-300 291,-268.62 289.149,-255.451 310,-232 325.807,-214.222 349.525,-203.173 371.072,-196.378"/>
<polygon fill="midnightblue" stroke="midnightblue" points="372.162,-199.705 380.782,-193.546 370.202,-192.985 372.162,-199.705"/>
</g>
<!-- Node25 -->
<g id="node25" class="node"><title>Node25</title>
<g id="a_node25"><a xlink:href="_matrix_8h.html" target="_top" xlink:title="cinder/Matrix.h">
<polygon fill="white" stroke="black" points="533.212,-407 533.212,-427 614.788,-427 614.788,-407 533.212,-407"/>
<text text-anchor="middle" x="574" y="-413" font-family="Helvetica,sans-Serif" font-size="10.00">cinder/Matrix.h</text>
</a>
</g>
</g>
<!-- Node19&#45;&gt;Node25 -->
<g id="edge35" class="edge"><title>Node19&#45;&gt;Node25</title>
<path fill="none" stroke="midnightblue" d="M657.487,-464.753C641.614,-455.864 617.409,-442.309 599.142,-432.079"/>
<polygon fill="midnightblue" stroke="midnightblue" points="600.641,-428.907 590.206,-427.075 597.221,-435.015 600.641,-428.907"/>
</g>
<!-- Node20&#45;&gt;Node9 -->
<g id="edge29" class="edge"><title>Node20&#45;&gt;Node9</title>
<path fill="none" stroke="midnightblue" d="M463.233,-176.719C495.186,-169.897 539.798,-157.736 575,-138 598.976,-124.558 621.823,-102.411 636.092,-87.0607"/>
<polygon fill="midnightblue" stroke="midnightblue" points="638.973,-89.0931 643.09,-79.3305 633.784,-84.3953 638.973,-89.0931"/>
</g>
<!-- Node21 -->
<g id="node21" class="node"><title>Node21</title>
<polygon fill="white" stroke="#bfbfbf" points="325.273,-117 325.273,-137 370.727,-137 370.727,-117 325.273,-117"/>
<text text-anchor="middle" x="348" y="-123" font-family="Helvetica,sans-Serif" font-size="10.00">cstring</text>
</g>
<!-- Node20&#45;&gt;Node21 -->
<g id="edge30" class="edge"><title>Node20&#45;&gt;Node21</title>
<path fill="none" stroke="midnightblue" d="M409.78,-174.753C398.466,-166.19 381.429,-153.298 368.11,-143.219"/>
<polygon fill="midnightblue" stroke="midnightblue" points="370.078,-140.319 359.992,-137.075 365.854,-145.901 370.078,-140.319"/>
</g>
<!-- Node22 -->
<g id="node22" class="node"><title>Node22</title>
<polygon fill="white" stroke="#bfbfbf" points="388.828,-117 388.828,-137 443.172,-137 443.172,-117 388.828,-117"/>
<text text-anchor="middle" x="416" y="-123" font-family="Helvetica,sans-Serif" font-size="10.00">iostream</text>
</g>
<!-- Node20&#45;&gt;Node22 -->
<g id="edge31" class="edge"><title>Node20&#45;&gt;Node22</title>
<path fill="none" stroke="midnightblue" d="M421.009,-174.753C420.205,-167.25 419.045,-156.424 418.044,-147.078"/>
<polygon fill="midnightblue" stroke="midnightblue" points="421.518,-146.645 416.972,-137.075 414.558,-147.391 421.518,-146.645"/>
</g>
<!-- Node23 -->
<g id="node23" class="node"><title>Node23</title>
<polygon fill="white" stroke="#bfbfbf" points="460.884,-117 460.884,-137 509.116,-137 509.116,-117 460.884,-117"/>
<text text-anchor="middle" x="485" y="-123" font-family="Helvetica,sans-Serif" font-size="10.00">cassert</text>
</g>
<!-- Node20&#45;&gt;Node23 -->
<g id="edge32" class="edge"><title>Node20&#45;&gt;Node23</title>
<path fill="none" stroke="midnightblue" d="M432.403,-174.753C441.852,-166.353 455.989,-153.787 467.228,-143.798"/>
<polygon fill="midnightblue" stroke="midnightblue" points="469.642,-146.335 474.79,-137.075 464.991,-141.103 469.642,-146.335"/>
</g>
<!-- Node24 -->
<g id="node24" class="node"><title>Node24</title>
<polygon fill="white" stroke="#bfbfbf" points="527.613,-117 527.613,-137 566.387,-137 566.387,-117 527.613,-117"/>
<text text-anchor="middle" x="547" y="-123" font-family="Helvetica,sans-Serif" font-size="10.00">limits</text>
</g>
<!-- Node20&#45;&gt;Node24 -->
<g id="edge33" class="edge"><title>Node20&#45;&gt;Node24</title>
<path fill="none" stroke="midnightblue" d="M442.362,-174.878C462.943,-165.658 494.935,-151.325 518.128,-140.934"/>
<polygon fill="midnightblue" stroke="midnightblue" points="519.776,-144.032 527.471,-136.749 516.914,-137.643 519.776,-144.032"/>
</g>
<!-- Node20&#45;&gt;Node8 -->
<g id="edge34" class="edge"><title>Node20&#45;&gt;Node8</title>
<path fill="none" stroke="midnightblue" d="M463.132,-176.445C467.808,-175.609 472.506,-174.779 477,-174 551.035,-161.167 636.276,-147.236 692.857,-138.107"/>
<polygon fill="midnightblue" stroke="midnightblue" points="693.414,-141.562 702.73,-136.516 692.3,-134.652 693.414,-141.562"/>
</g>
<!-- Node25&#45;&gt;Node2 -->
<g id="edge36" class="edge"><title>Node25&#45;&gt;Node2</title>
<path fill="none" stroke="midnightblue" d="M533.206,-407.785C502.906,-400.606 461.246,-388.41 428,-370 358.499,-331.514 337.25,-319.299 292,-254 256.863,-203.295 264.34,-125.011 270.249,-89.1409"/>
<polygon fill="midnightblue" stroke="midnightblue" points="273.735,-89.5349 272.057,-79.0737 266.845,-88.2978 273.735,-89.5349"/>
</g>
<!-- Node25&#45;&gt;Node8 -->
<g id="edge37" class="edge"><title>Node25&#45;&gt;Node8</title>
<path fill="none" stroke="midnightblue" d="M614.865,-412.98C678.487,-405.808 794,-381.798 794,-302 794,-302 794,-302 794,-242 794,-206.541 777.249,-167.914 765.99,-145.957"/>
<polygon fill="midnightblue" stroke="midnightblue" points="769.071,-144.296 761.284,-137.113 762.892,-147.585 769.071,-144.296"/>
</g>
<!-- Node26 -->
<g id="node26" class="node"><title>Node26</title>
<g id="a_node26"><a xlink:href="_matrix22_8h.html" target="_top" xlink:title="cinder/Matrix22.h">
<polygon fill="white" stroke="black" points="318.65,-233 318.65,-253 411.35,-253 411.35,-233 318.65,-233"/>
<text text-anchor="middle" x="365" y="-239" font-family="Helvetica,sans-Serif" font-size="10.00">cinder/Matrix22.h</text>
</a>
</g>
</g>
<!-- Node25&#45;&gt;Node26 -->
<g id="edge38" class="edge"><title>Node25&#45;&gt;Node26</title>
<path fill="none" stroke="midnightblue" d="M545.983,-406.869C523.26,-398.841 490.872,-385.961 465,-370 431.193,-349.144 421.11,-343.569 397,-312 385.515,-296.961 376.772,-277.137 371.351,-262.777"/>
<polygon fill="midnightblue" stroke="midnightblue" points="374.528,-261.266 367.863,-253.03 367.937,-263.625 374.528,-261.266"/>
</g>
<!-- Node28 -->
<g id="node28" class="node"><title>Node28</title>
<g id="a_node28"><a xlink:href="_matrix_affine2_8h.html" target="_top" xlink:title="cinder/MatrixAffine2.h">
<polygon fill="white" stroke="black" points="504.646,-233 504.646,-253 617.354,-253 617.354,-233 504.646,-233"/>
<text text-anchor="middle" x="561" y="-239" font-family="Helvetica,sans-Serif" font-size="10.00">cinder/MatrixAffine2.h</text>
</a>
</g>
</g>
<!-- Node25&#45;&gt;Node28 -->
<g id="edge43" class="edge"><title>Node25&#45;&gt;Node28</title>
<path fill="none" stroke="midnightblue" d="M579.317,-406.86C584.236,-397.836 591.198,-383.471 594,-370 602.058,-331.257 583.678,-286.603 571.241,-262.224"/>
<polygon fill="midnightblue" stroke="midnightblue" points="574.164,-260.268 566.368,-253.094 567.989,-263.564 574.164,-260.268"/>
</g>
<!-- Node29 -->
<g id="node29" class="node"><title>Node29</title>
<g id="a_node29"><a xlink:href="_matrix33_8h.html" target="_top" xlink:title="cinder/Matrix33.h">
<polygon fill="white" stroke="black" points="635.65,-233 635.65,-253 728.35,-253 728.35,-233 635.65,-233"/>
<text text-anchor="middle" x="682" y="-239" font-family="Helvetica,sans-Serif" font-size="10.00">cinder/Matrix33.h</text>
</a>
</g>
</g>
<!-- Node25&#45;&gt;Node29 -->
<g id="edge48" class="edge"><title>Node25&#45;&gt;Node29</title>
<path fill="none" stroke="midnightblue" d="M581.595,-406.739C588.937,-397.624 600.208,-383.194 609,-370 633.765,-332.833 659.114,-286.96 672.447,-262.096"/>
<polygon fill="midnightblue" stroke="midnightblue" points="675.63,-263.565 677.241,-253.093 669.452,-260.275 675.63,-263.565"/>
</g>
<!-- Node30 -->
<g id="node30" class="node"><title>Node30</title>
<g id="a_node30"><a xlink:href="_matrix44_8h.html" target="_top" xlink:title="cinder/Matrix44.h">
<polygon fill="white" stroke="black" points="432.65,-291 432.65,-311 525.35,-311 525.35,-291 432.65,-291"/>
<text text-anchor="middle" x="479" y="-297" font-family="Helvetica,sans-Serif" font-size="10.00">cinder/Matrix44.h</text>
</a>
</g>
</g>
<!-- Node25&#45;&gt;Node30 -->
<g id="edge53" class="edge"><title>Node25&#45;&gt;Node30</title>
<path fill="none" stroke="midnightblue" d="M533.024,-407.958C511.836,-401.498 487.793,-390.051 475,-370 465.775,-355.541 468.286,-335.64 472.197,-321.104"/>
<polygon fill="midnightblue" stroke="midnightblue" points="475.645,-321.801 475.289,-311.212 468.964,-319.713 475.645,-321.801"/>
</g>
<!-- Node31 -->
<g id="node31" class="node"><title>Node31</title>
<g id="a_node31"><a xlink:href="_matrix_algo_8h.html" target="_top" xlink:title="cinder/MatrixAlgo.h">
<polygon fill="white" stroke="black" points="484.205,-349 484.205,-369 585.795,-369 585.795,-349 484.205,-349"/>
<text text-anchor="middle" x="535" y="-355" font-family="Helvetica,sans-Serif" font-size="10.00">cinder/MatrixAlgo.h</text>
</a>
</g>
</g>
<!-- Node25&#45;&gt;Node31 -->
<g id="edge61" class="edge"><title>Node25&#45;&gt;Node31</title>
<path fill="none" stroke="midnightblue" d="M567.56,-406.753C562.051,-398.843 553.969,-387.237 547.235,-377.568"/>
<polygon fill="midnightblue" stroke="midnightblue" points="549.907,-375.281 541.32,-369.075 544.163,-379.282 549.907,-375.281"/>
</g>
<!-- Node26&#45;&gt;Node2 -->
<g id="edge39" class="edge"><title>Node26&#45;&gt;Node2</title>
<path fill="none" stroke="midnightblue" d="M360.107,-232.753C345.665,-205.454 303.02,-124.85 283.703,-88.3406"/>
<polygon fill="midnightblue" stroke="midnightblue" points="286.687,-86.4955 278.917,-79.2932 280.5,-89.7691 286.687,-86.4955"/>
</g>
<!-- Node26&#45;&gt;Node8 -->
<g id="edge40" class="edge"><title>Node26&#45;&gt;Node8</title>
<path fill="none" stroke="midnightblue" d="M388.322,-232.907C410.244,-224.141 443.811,-210.156 472,-196 489.439,-187.242 491.701,-180.78 510,-174 569.842,-151.828 641.997,-139.956 692.635,-133.863"/>
<polygon fill="midnightblue" stroke="midnightblue" points="693.254,-137.315 702.784,-132.684 692.447,-130.361 693.254,-137.315"/>
</g>
<!-- Node26&#45;&gt;Node20 -->
<g id="edge41" class="edge"><title>Node26&#45;&gt;Node20</title>
<path fill="none" stroke="midnightblue" d="M374.412,-232.753C382.879,-224.435 395.504,-212.031 405.623,-202.089"/>
<polygon fill="midnightblue" stroke="midnightblue" points="408.082,-204.58 412.763,-195.075 403.176,-199.587 408.082,-204.58"/>
</g>
<!-- Node27 -->
<g id="node27" class="node"><title>Node27</title>
<polygon fill="white" stroke="#bfbfbf" points="519.49,-175 519.49,-195 570.51,-195 570.51,-175 519.49,-175"/>
<text text-anchor="middle" x="545" y="-181" font-family="Helvetica,sans-Serif" font-size="10.00">iomanip</text>
</g>
<!-- Node26&#45;&gt;Node27 -->
<g id="edge42" class="edge"><title>Node26&#45;&gt;Node27</title>
<path fill="none" stroke="midnightblue" d="M394.321,-232.878C425.828,-223.076 475.908,-207.495 509.591,-197.016"/>
<polygon fill="midnightblue" stroke="midnightblue" points="510.971,-200.252 519.48,-193.94 508.891,-193.568 510.971,-200.252"/>
</g>
<!-- Node28&#45;&gt;Node2 -->
<g id="edge44" class="edge"><title>Node28&#45;&gt;Node2</title>
<path fill="none" stroke="midnightblue" d="M566.084,-232.943C578.197,-210.025 605.557,-149.197 575,-116 542.346,-80.5237 403.391,-72.2494 326.211,-70.4237"/>
<polygon fill="midnightblue" stroke="midnightblue" points="325.819,-66.9149 315.748,-70.2067 325.674,-73.9133 325.819,-66.9149"/>
</g>
<!-- Node28&#45;&gt;Node8 -->
<g id="edge45" class="edge"><title>Node28&#45;&gt;Node8</title>
<path fill="none" stroke="midnightblue" d="M576.628,-232.864C610.585,-213.012 691.302,-165.823 731.862,-142.111"/>
<polygon fill="midnightblue" stroke="midnightblue" points="733.702,-145.09 740.568,-137.022 730.169,-139.047 733.702,-145.09"/>
</g>
<!-- Node28&#45;&gt;Node20 -->
<g id="edge46" class="edge"><title>Node28&#45;&gt;Node20</title>
<path fill="none" stroke="midnightblue" d="M538.358,-232.878C515.438,-223.644 479.792,-209.283 453.992,-198.889"/>
<polygon fill="midnightblue" stroke="midnightblue" points="455.216,-195.609 444.632,-195.118 452.6,-202.102 455.216,-195.609"/>
</g>
<!-- Node28&#45;&gt;Node27 -->
<g id="edge47" class="edge"><title>Node28&#45;&gt;Node27</title>
<path fill="none" stroke="midnightblue" d="M558.358,-232.753C556.191,-225.169 553.054,-214.188 550.364,-204.774"/>
<polygon fill="midnightblue" stroke="midnightblue" points="553.706,-203.729 547.593,-195.075 546.975,-205.652 553.706,-203.729"/>
</g>
<!-- Node29&#45;&gt;Node2 -->
<g id="edge49" class="edge"><title>Node29&#45;&gt;Node2</title>
<path fill="none" stroke="midnightblue" d="M678.668,-232.757C669.521,-208.849 641.558,-144.828 595,-116 551.081,-88.8056 405.179,-76.9617 326.073,-72.4347"/>
<polygon fill="midnightblue" stroke="midnightblue" points="326.016,-68.9263 315.837,-71.8685 325.629,-75.9156 326.016,-68.9263"/>
</g>
<!-- Node29&#45;&gt;Node8 -->
<g id="edge50" class="edge"><title>Node29&#45;&gt;Node8</title>
<path fill="none" stroke="midnightblue" d="M688.056,-232.671C700.367,-213.705 728.496,-170.371 744.431,-145.822"/>
<polygon fill="midnightblue" stroke="midnightblue" points="747.558,-147.433 750.067,-137.139 741.687,-143.622 747.558,-147.433"/>
</g>
<!-- Node29&#45;&gt;Node20 -->
<g id="edge51" class="edge"><title>Node29&#45;&gt;Node20</title>
<path fill="none" stroke="midnightblue" d="M639.938,-232.94C594.451,-223.143 521.925,-207.522 473.168,-197.021"/>
<polygon fill="midnightblue" stroke="midnightblue" points="473.656,-193.546 463.143,-194.862 472.182,-200.389 473.656,-193.546"/>
</g>
<!-- Node29&#45;&gt;Node27 -->
<g id="edge52" class="edge"><title>Node29&#45;&gt;Node27</title>
<path fill="none" stroke="midnightblue" d="M659.684,-232.878C637.193,-223.685 602.27,-209.409 576.868,-199.026"/>
<polygon fill="midnightblue" stroke="midnightblue" points="577.888,-195.662 567.307,-195.118 575.239,-202.142 577.888,-195.662"/>
</g>
<!-- Node30&#45;&gt;Node2 -->
<g id="edge54" class="edge"><title>Node30&#45;&gt;Node2</title>
<path fill="none" stroke="midnightblue" d="M432.429,-300.076C394.096,-297.519 341.165,-287.512 310,-254 267.196,-207.973 268.483,-126.691 271.7,-89.5288"/>
<polygon fill="midnightblue" stroke="midnightblue" points="275.229,-89.4166 272.759,-79.1139 268.265,-88.7086 275.229,-89.4166"/>
</g>
<!-- Node30&#45;&gt;Node8 -->
<g id="edge55" class="edge"><title>Node30&#45;&gt;Node8</title>
<path fill="none" stroke="midnightblue" d="M525.611,-298.034C591.844,-294.222 708.356,-283.421 737,-254 764.805,-225.441 762.883,-174.668 759.305,-147.097"/>
<polygon fill="midnightblue" stroke="midnightblue" points="762.756,-146.508 757.805,-137.141 755.834,-147.551 762.756,-146.508"/>
</g>
<!-- Node30&#45;&gt;Node20 -->
<g id="edge56" class="edge"><title>Node30&#45;&gt;Node20</title>
<path fill="none" stroke="midnightblue" d="M474.335,-290.671C464.894,-271.789 443.377,-228.754 431.074,-204.149"/>
<polygon fill="midnightblue" stroke="midnightblue" points="434.172,-202.518 426.57,-195.139 427.911,-205.649 434.172,-202.518"/>
</g>
<!-- Node30&#45;&gt;Node26 -->
<g id="edge57" class="edge"><title>Node30&#45;&gt;Node26</title>
<path fill="none" stroke="midnightblue" d="M460.43,-290.878C442.047,-281.847 413.68,-267.913 392.647,-257.581"/>
<polygon fill="midnightblue" stroke="midnightblue" points="394.081,-254.386 383.562,-253.118 390.994,-260.669 394.081,-254.386"/>
</g>
<!-- Node30&#45;&gt;Node29 -->
<g id="edge58" class="edge"><title>Node30&#45;&gt;Node29</title>
<path fill="none" stroke="midnightblue" d="M512.067,-290.878C546.823,-281.29 601.616,-266.175 639.545,-255.712"/>
<polygon fill="midnightblue" stroke="midnightblue" points="640.574,-259.059 649.283,-253.025 638.713,-252.311 640.574,-259.059"/>
</g>
<!-- Node30&#45;&gt;Node28 -->
<g id="edge59" class="edge"><title>Node30&#45;&gt;Node28</title>
<path fill="none" stroke="midnightblue" d="M492.541,-290.753C505.198,-282.109 524.317,-269.052 539.136,-258.931"/>
<polygon fill="midnightblue" stroke="midnightblue" points="541.427,-261.605 547.711,-253.075 537.479,-255.825 541.427,-261.605"/>
</g>
<!-- Node30&#45;&gt;Node27 -->
<g id="edge60" class="edge"><title>Node30&#45;&gt;Node27</title>
<path fill="none" stroke="midnightblue" d="M479.673,-290.573C481.01,-276.833 484.908,-250.888 496,-232 502.946,-220.171 513.846,-209.506 523.604,-201.43"/>
<polygon fill="midnightblue" stroke="midnightblue" points="526.048,-203.961 531.756,-195.035 521.728,-198.453 526.048,-203.961"/>
</g>
<!-- Node31&#45;&gt;Node26 -->
<g id="edge62" class="edge"><title>Node31&#45;&gt;Node26</title>
<path fill="none" stroke="midnightblue" d="M502.371,-348.903C479.111,-341.405 447.861,-329.198 424,-312 404.679,-298.075 387.456,-276.636 376.678,-261.561"/>
<polygon fill="midnightblue" stroke="midnightblue" points="379.407,-259.353 370.839,-253.121 373.65,-263.336 379.407,-259.353"/>
</g>
<!-- Node31&#45;&gt;Node29 -->
<g id="edge63" class="edge"><title>Node31&#45;&gt;Node29</title>
<path fill="none" stroke="midnightblue" d="M546.781,-348.864C571.94,-329.352 631.149,-283.436 662.202,-259.353"/>
<polygon fill="midnightblue" stroke="midnightblue" points="664.405,-262.074 670.163,-253.18 660.116,-256.542 664.405,-262.074"/>
</g>
<!-- Node31&#45;&gt;Node30 -->
<g id="edge64" class="edge"><title>Node31&#45;&gt;Node30</title>
<path fill="none" stroke="midnightblue" d="M525.753,-348.753C517.516,-340.516 505.274,-328.274 495.382,-318.382"/>
<polygon fill="midnightblue" stroke="midnightblue" points="497.621,-315.671 488.075,-311.075 492.671,-320.621 497.621,-315.671"/>
</g>
</g>
</svg>
