<?xml version="1.0" encoding="UTF-8" standalone="no"?>
<!DOCTYPE svg PUBLIC "-//W3C//DTD SVG 1.1//EN"
 "http://www.w3.org/Graphics/SVG/1.1/DTD/svg11.dtd">
<!-- Generated by graphviz version 2.30.1 (20140712.1814)
 -->
<!-- Title: include/cinder/app/TouchEvent.h Pages: 1 -->
<svg width="934pt" height="274pt"
 viewBox="0.00 0.00 934.00 274.00" xmlns="http://www.w3.org/2000/svg" xmlns:xlink="http://www.w3.org/1999/xlink">
<g id="graph0" class="graph" transform="scale(1 1) rotate(0) translate(4 270)">
<title>include/cinder/app/TouchEvent.h</title>
<polygon fill="white" stroke="white" points="-4,5 -4,-270 931,-270 931,5 -4,5"/>
<!-- Node1 -->
<g id="node1" class="node"><title>Node1</title>
<polygon fill="#bfbfbf" stroke="black" points="325.417,-233 325.417,-265 422.583,-265 422.583,-233 325.417,-233"/>
<text text-anchor="start" x="333.417" y="-251" font-family="Helvetica,sans-Serif" font-size="10.00">include/cinder/app</text>
<text text-anchor="middle" x="374" y="-239" font-family="Helvetica,sans-Serif" font-size="10.00">/TouchEvent.h</text>
</g>
<!-- Node2 -->
<g id="node2" class="node"><title>Node2</title>
<g id="a_node2"><a xlink:href="_cinder_8h.html" target="_top" xlink:title="cinder/Cinder.h">
<polygon fill="white" stroke="black" points="68.3672,-59 68.3672,-79 151.633,-79 151.633,-59 68.3672,-59"/>
<text text-anchor="middle" x="110" y="-65" font-family="Helvetica,sans-Serif" font-size="10.00">cinder/Cinder.h</text>
</a>
</g>
</g>
<!-- Node1&#45;&gt;Node2 -->
<g id="edge1" class="edge"><title>Node1&#45;&gt;Node2</title>
<path fill="none" stroke="midnightblue" d="M325.305,-237.12C295.304,-228.931 256.979,-215.693 227,-196 181.247,-165.945 141.007,-114.295 121.858,-87.41"/>
<polygon fill="midnightblue" stroke="midnightblue" points="124.586,-85.2031 115.991,-79.0092 118.848,-89.2116 124.586,-85.2031"/>
</g>
<!-- Node6 -->
<g id="node6" class="node"><title>Node6</title>
<g id="a_node6"><a xlink:href="_event_8h.html" target="_top" xlink:title="cinder/app/Event.h">
<polygon fill="white" stroke="black" points="236.306,-175 236.306,-195 335.694,-195 335.694,-175 236.306,-175"/>
<text text-anchor="middle" x="286" y="-181" font-family="Helvetica,sans-Serif" font-size="10.00">cinder/app/Event.h</text>
</a>
</g>
</g>
<!-- Node1&#45;&gt;Node6 -->
<g id="edge5" class="edge"><title>Node1&#45;&gt;Node6</title>
<path fill="none" stroke="midnightblue" d="M352.698,-232.992C338.928,-223.29 321.074,-210.711 307.304,-201.009"/>
<polygon fill="midnightblue" stroke="midnightblue" points="309.119,-198.007 298.929,-195.109 305.088,-203.73 309.119,-198.007"/>
</g>
<!-- Node13 -->
<g id="node13" class="node"><title>Node13</title>
<g id="a_node13"><a xlink:href="_vector_8h.html" target="_top" xlink:title="cinder/Vector.h">
<polygon fill="white" stroke="black" points="666.919,-175 666.919,-195 749.081,-195 749.081,-175 666.919,-175"/>
<text text-anchor="middle" x="708" y="-181" font-family="Helvetica,sans-Serif" font-size="10.00">cinder/Vector.h</text>
</a>
</g>
</g>
<!-- Node1&#45;&gt;Node13 -->
<g id="edge14" class="edge"><title>Node1&#45;&gt;Node13</title>
<path fill="none" stroke="midnightblue" d="M422.924,-238.918C485.401,-227.321 593.019,-207.344 656.642,-195.533"/>
<polygon fill="midnightblue" stroke="midnightblue" points="657.65,-198.906 666.844,-193.64 656.373,-192.024 657.65,-198.906"/>
</g>
<!-- Node9 -->
<g id="node9" class="node"><title>Node9</title>
<polygon fill="white" stroke="#bfbfbf" points="418.384,-59 418.384,-79 461.616,-79 461.616,-59 418.384,-59"/>
<text text-anchor="middle" x="440" y="-65" font-family="Helvetica,sans-Serif" font-size="10.00">vector</text>
</g>
<!-- Node1&#45;&gt;Node9 -->
<g id="edge26" class="edge"><title>Node1&#45;&gt;Node9</title>
<path fill="none" stroke="midnightblue" d="M379.627,-232.824C391.662,-200.366 419.873,-124.282 433.023,-88.8161"/>
<polygon fill="midnightblue" stroke="midnightblue" points="436.391,-89.7999 436.586,-79.2068 429.828,-87.3662 436.391,-89.7999"/>
</g>
<!-- Node3 -->
<g id="node3" class="node"><title>Node3</title>
<polygon fill="white" stroke="#bfbfbf" points="-0.450684,-1 -0.450684,-21 44.4507,-21 44.4507,-1 -0.450684,-1"/>
<text text-anchor="middle" x="22" y="-7" font-family="Helvetica,sans-Serif" font-size="10.00">cstdint</text>
</g>
<!-- Node2&#45;&gt;Node3 -->
<g id="edge2" class="edge"><title>Node2&#45;&gt;Node3</title>
<path fill="none" stroke="midnightblue" d="M95.4686,-58.7527C81.757,-50.0272 60.9794,-36.8051 45.0148,-26.6458"/>
<polygon fill="midnightblue" stroke="midnightblue" points="46.5767,-23.4912 36.261,-21.0752 42.8186,-29.3968 46.5767,-23.4912"/>
</g>
<!-- Node4 -->
<g id="node4" class="node"><title>Node4</title>
<polygon fill="white" stroke="#bfbfbf" points="62.5298,-1 62.5298,-21 157.47,-21 157.47,-1 62.5298,-1"/>
<text text-anchor="middle" x="110" y="-7" font-family="Helvetica,sans-Serif" font-size="10.00">boost/version.hpp</text>
</g>
<!-- Node2&#45;&gt;Node4 -->
<g id="edge3" class="edge"><title>Node2&#45;&gt;Node4</title>
<path fill="none" stroke="midnightblue" d="M110,-58.7527C110,-51.2504 110,-40.4238 110,-31.0781"/>
<polygon fill="midnightblue" stroke="midnightblue" points="113.5,-31.0752 110,-21.0752 106.5,-31.0752 113.5,-31.0752"/>
</g>
<!-- Node5 -->
<g id="node5" class="node"><title>Node5</title>
<polygon fill="white" stroke="#bfbfbf" points="175.621,-1 175.621,-21 308.379,-21 308.379,-1 175.621,-1"/>
<text text-anchor="middle" x="242" y="-7" font-family="Helvetica,sans-Serif" font-size="10.00">boost/checked_delete.hpp</text>
</g>
<!-- Node2&#45;&gt;Node5 -->
<g id="edge4" class="edge"><title>Node2&#45;&gt;Node5</title>
<path fill="none" stroke="midnightblue" d="M131.502,-58.878C153.172,-49.6848 186.821,-35.4095 211.295,-25.0263"/>
<polygon fill="midnightblue" stroke="midnightblue" points="212.668,-28.2457 220.507,-21.1181 209.935,-21.8016 212.668,-28.2457"/>
</g>
<!-- Node6&#45;&gt;Node2 -->
<g id="edge6" class="edge"><title>Node6&#45;&gt;Node2</title>
<path fill="none" stroke="midnightblue" d="M271.895,-174.864C241.515,-155.186 169.668,-108.649 132.757,-84.7406"/>
<polygon fill="midnightblue" stroke="midnightblue" points="134.468,-81.6788 124.172,-79.1799 130.663,-87.554 134.468,-81.6788"/>
</g>
<!-- Node7 -->
<g id="node7" class="node"><title>Node7</title>
<g id="a_node7"><a xlink:href="_function_8h.html" target="_top" xlink:title="cinder/Function.h">
<polygon fill="white" stroke="black" points="239.646,-117 239.646,-137 332.354,-137 332.354,-117 239.646,-117"/>
<text text-anchor="middle" x="286" y="-123" font-family="Helvetica,sans-Serif" font-size="10.00">cinder/Function.h</text>
</a>
</g>
</g>
<!-- Node6&#45;&gt;Node7 -->
<g id="edge7" class="edge"><title>Node6&#45;&gt;Node7</title>
<path fill="none" stroke="midnightblue" d="M286,-174.753C286,-167.25 286,-156.424 286,-147.078"/>
<polygon fill="midnightblue" stroke="midnightblue" points="289.5,-147.075 286,-137.075 282.5,-147.075 289.5,-147.075"/>
</g>
<!-- Node7&#45;&gt;Node2 -->
<g id="edge8" class="edge"><title>Node7&#45;&gt;Node2</title>
<path fill="none" stroke="midnightblue" d="M257.331,-116.878C227.583,-107.413 180.902,-92.5598 148.074,-82.1146"/>
<polygon fill="midnightblue" stroke="midnightblue" points="148.956,-78.7222 138.365,-79.0253 146.833,-85.3927 148.956,-78.7222"/>
</g>
<!-- Node8 -->
<g id="node8" class="node"><title>Node8</title>
<polygon fill="white" stroke="#bfbfbf" points="169.436,-59 169.436,-79 226.564,-79 226.564,-59 169.436,-59"/>
<text text-anchor="middle" x="198" y="-65" font-family="Helvetica,sans-Serif" font-size="10.00">algorithm</text>
</g>
<!-- Node7&#45;&gt;Node8 -->
<g id="edge9" class="edge"><title>Node7&#45;&gt;Node8</title>
<path fill="none" stroke="midnightblue" d="M271.469,-116.753C257.757,-108.027 236.979,-94.8051 221.015,-84.6458"/>
<polygon fill="midnightblue" stroke="midnightblue" points="222.577,-81.4912 212.261,-79.0752 218.819,-87.3968 222.577,-81.4912"/>
</g>
<!-- Node7&#45;&gt;Node9 -->
<g id="edge10" class="edge"><title>Node7&#45;&gt;Node9</title>
<path fill="none" stroke="midnightblue" d="M311.086,-116.878C337.617,-107.23 379.542,-91.9848 408.333,-81.5152"/>
<polygon fill="midnightblue" stroke="midnightblue" points="409.721,-84.7349 417.923,-78.0281 407.329,-78.1563 409.721,-84.7349"/>
</g>
<!-- Node10 -->
<g id="node10" class="node"><title>Node10</title>
<polygon fill="white" stroke="#bfbfbf" points="244.608,-59 244.608,-79 283.392,-79 283.392,-59 244.608,-59"/>
<text text-anchor="middle" x="264" y="-65" font-family="Helvetica,sans-Serif" font-size="10.00">utility</text>
</g>
<!-- Node7&#45;&gt;Node10 -->
<g id="edge11" class="edge"><title>Node7&#45;&gt;Node10</title>
<path fill="none" stroke="midnightblue" d="M282.367,-116.753C279.356,-109.087 274.981,-97.9515 271.256,-88.4708"/>
<polygon fill="midnightblue" stroke="midnightblue" points="274.479,-87.1029 267.565,-79.0752 267.964,-89.6625 274.479,-87.1029"/>
</g>
<!-- Node11 -->
<g id="node11" class="node"><title>Node11</title>
<polygon fill="white" stroke="#bfbfbf" points="301.303,-59 301.303,-79 400.697,-79 400.697,-59 301.303,-59"/>
<text text-anchor="middle" x="351" y="-65" font-family="Helvetica,sans-Serif" font-size="10.00">boost/signals2.hpp</text>
</g>
<!-- Node7&#45;&gt;Node11 -->
<g id="edge12" class="edge"><title>Node7&#45;&gt;Node11</title>
<path fill="none" stroke="midnightblue" d="M296.733,-116.753C306.483,-108.353 321.068,-95.7874 332.664,-85.7976"/>
<polygon fill="midnightblue" stroke="midnightblue" points="335.175,-88.254 340.466,-79.0752 330.606,-82.9507 335.175,-88.254"/>
</g>
<!-- Node12 -->
<g id="node12" class="node"><title>Node12</title>
<polygon fill="white" stroke="#bfbfbf" points="479.596,-59 479.596,-79 538.404,-79 538.404,-59 479.596,-59"/>
<text text-anchor="middle" x="509" y="-65" font-family="Helvetica,sans-Serif" font-size="10.00">functional</text>
</g>
<!-- Node7&#45;&gt;Node12 -->
<g id="edge13" class="edge"><title>Node7&#45;&gt;Node12</title>
<path fill="none" stroke="midnightblue" d="M322.325,-116.987C357.421,-108.264 412.347,-94.5728 469.294,-80.1685"/>
<polygon fill="midnightblue" stroke="midnightblue" points="470.359,-83.5093 479.194,-77.6622 468.641,-76.7234 470.359,-83.5093"/>
</g>
<!-- Node14 -->
<g id="node14" class="node"><title>Node14</title>
<polygon fill="white" stroke="#bfbfbf" points="676.384,-59 676.384,-79 719.616,-79 719.616,-59 676.384,-59"/>
<text text-anchor="middle" x="698" y="-65" font-family="Helvetica,sans-Serif" font-size="10.00">cmath</text>
</g>
<!-- Node13&#45;&gt;Node14 -->
<g id="edge15" class="edge"><title>Node13&#45;&gt;Node14</title>
<path fill="none" stroke="midnightblue" d="M698.943,-174.72C691.153,-166.038 680.483,-152.295 676,-138 670.682,-121.042 678.202,-101.773 685.859,-88.0874"/>
<polygon fill="midnightblue" stroke="midnightblue" points="689.048,-89.58 691.277,-79.2222 683.076,-85.9296 689.048,-89.58"/>
</g>
<!-- Node15 -->
<g id="node15" class="node"><title>Node15</title>
<polygon fill="white" stroke="#bfbfbf" points="685.273,-117 685.273,-137 730.727,-137 730.727,-117 685.273,-117"/>
<text text-anchor="middle" x="708" y="-123" font-family="Helvetica,sans-Serif" font-size="10.00">cstring</text>
</g>
<!-- Node13&#45;&gt;Node15 -->
<g id="edge16" class="edge"><title>Node13&#45;&gt;Node15</title>
<path fill="none" stroke="midnightblue" d="M708,-174.753C708,-167.25 708,-156.424 708,-147.078"/>
<polygon fill="midnightblue" stroke="midnightblue" points="711.5,-147.075 708,-137.075 704.5,-147.075 711.5,-147.075"/>
</g>
<!-- Node16 -->
<g id="node16" class="node"><title>Node16</title>
<polygon fill="white" stroke="#bfbfbf" points="748.828,-117 748.828,-137 803.172,-137 803.172,-117 748.828,-117"/>
<text text-anchor="middle" x="776" y="-123" font-family="Helvetica,sans-Serif" font-size="10.00">iostream</text>
</g>
<!-- Node13&#45;&gt;Node16 -->
<g id="edge17" class="edge"><title>Node13&#45;&gt;Node16</title>
<path fill="none" stroke="midnightblue" d="M719.229,-174.753C729.527,-166.272 744.984,-153.543 757.17,-143.507"/>
<polygon fill="midnightblue" stroke="midnightblue" points="759.486,-146.134 764.98,-137.075 755.036,-140.731 759.486,-146.134"/>
</g>
<!-- Node17 -->
<g id="node17" class="node"><title>Node17</title>
<polygon fill="white" stroke="#bfbfbf" points="820.884,-117 820.884,-137 869.116,-137 869.116,-117 820.884,-117"/>
<text text-anchor="middle" x="845" y="-123" font-family="Helvetica,sans-Serif" font-size="10.00">cassert</text>
</g>
<!-- Node13&#45;&gt;Node17 -->
<g id="edge18" class="edge"><title>Node13&#45;&gt;Node17</title>
<path fill="none" stroke="midnightblue" d="M730.316,-174.878C752.807,-165.685 787.73,-151.409 813.132,-141.026"/>
<polygon fill="midnightblue" stroke="midnightblue" points="814.761,-144.142 822.693,-137.118 812.112,-137.662 814.761,-144.142"/>
</g>
<!-- Node18 -->
<g id="node18" class="node"><title>Node18</title>
<polygon fill="white" stroke="#bfbfbf" points="887.613,-117 887.613,-137 926.387,-137 926.387,-117 887.613,-117"/>
<text text-anchor="middle" x="907" y="-123" font-family="Helvetica,sans-Serif" font-size="10.00">limits</text>
</g>
<!-- Node13&#45;&gt;Node18 -->
<g id="edge19" class="edge"><title>Node13&#45;&gt;Node18</title>
<path fill="none" stroke="midnightblue" d="M744.352,-174.925C776.887,-166.634 826.074,-153.686 877.732,-137.933"/>
<polygon fill="midnightblue" stroke="midnightblue" points="878.874,-141.243 887.404,-134.959 876.817,-134.553 878.874,-141.243"/>
</g>
<!-- Node19 -->
<g id="node19" class="node"><title>Node19</title>
<g id="a_node19"><a xlink:href="_cinder_math_8h.html" target="_top" xlink:title="cinder/CinderMath.h">
<polygon fill="white" stroke="black" points="522.978,-117 522.978,-137 629.022,-137 629.022,-117 522.978,-117"/>
<text text-anchor="middle" x="576" y="-123" font-family="Helvetica,sans-Serif" font-size="10.00">cinder/CinderMath.h</text>
</a>
</g>
</g>
<!-- Node13&#45;&gt;Node19 -->
<g id="edge20" class="edge"><title>Node13&#45;&gt;Node19</title>
<path fill="none" stroke="midnightblue" d="M686.498,-174.878C664.828,-165.685 631.179,-151.409 606.705,-141.026"/>
<polygon fill="midnightblue" stroke="midnightblue" points="608.065,-137.802 597.493,-137.118 605.332,-144.246 608.065,-137.802"/>
</g>
<!-- Node19&#45;&gt;Node2 -->
<g id="edge21" class="edge"><title>Node19&#45;&gt;Node2</title>
<path fill="none" stroke="midnightblue" d="M522.942,-121.627C445.618,-114.925 297.258,-100.826 161.835,-80.1836"/>
<polygon fill="midnightblue" stroke="midnightblue" points="162.11,-76.6847 151.693,-78.6216 161.044,-83.6031 162.11,-76.6847"/>
</g>
<!-- Node19&#45;&gt;Node14 -->
<g id="edge22" class="edge"><title>Node19&#45;&gt;Node14</title>
<path fill="none" stroke="midnightblue" d="M595.873,-116.878C615.724,-107.766 646.451,-93.6617 669.019,-83.3028"/>
<polygon fill="midnightblue" stroke="midnightblue" points="670.507,-86.4707 678.136,-79.1181 667.587,-80.1089 670.507,-86.4707"/>
</g>
<!-- Node20 -->
<g id="node20" class="node"><title>Node20</title>
<polygon fill="white" stroke="#bfbfbf" points="614.113,-59 614.113,-79 657.887,-79 657.887,-59 614.113,-59"/>
<text text-anchor="middle" x="636" y="-65" font-family="Helvetica,sans-Serif" font-size="10.00">climits</text>
</g>
<!-- Node19&#45;&gt;Node20 -->
<g id="edge23" class="edge"><title>Node19&#45;&gt;Node20</title>
<path fill="none" stroke="midnightblue" d="M585.908,-116.753C594.82,-108.435 608.11,-96.031 618.762,-86.0893"/>
<polygon fill="midnightblue" stroke="midnightblue" points="621.354,-88.4571 626.277,-79.0752 616.578,-83.3397 621.354,-88.4571"/>
</g>
<!-- Node21 -->
<g id="node21" class="node"><title>Node21</title>
<polygon fill="white" stroke="#bfbfbf" points="556.049,-59 556.049,-79 595.951,-79 595.951,-59 556.049,-59"/>
<text text-anchor="middle" x="576" y="-65" font-family="Helvetica,sans-Serif" font-size="10.00">cfloat</text>
</g>
<!-- Node19&#45;&gt;Node21 -->
<g id="edge24" class="edge"><title>Node19&#45;&gt;Node21</title>
<path fill="none" stroke="midnightblue" d="M576,-116.753C576,-109.25 576,-98.4238 576,-89.0781"/>
<polygon fill="midnightblue" stroke="midnightblue" points="579.5,-89.0752 576,-79.0752 572.5,-89.0752 579.5,-89.0752"/>
</g>
<!-- Node19&#45;&gt;Node12 -->
<g id="edge25" class="edge"><title>Node19&#45;&gt;Node12</title>
<path fill="none" stroke="midnightblue" d="M564.936,-116.753C554.79,-108.272 539.56,-95.543 527.553,-85.5073"/>
<polygon fill="midnightblue" stroke="midnightblue" points="529.775,-82.8028 519.858,-79.0752 525.286,-88.1738 529.775,-82.8028"/>
</g>
</g>
</svg>
