<?xml version="1.0" encoding="UTF-8" standalone="no"?>
<!DOCTYPE svg PUBLIC "-//W3C//DTD SVG 1.1//EN"
 "http://www.w3.org/Graphics/SVG/1.1/DTD/svg11.dtd">
<!-- Generated by graphviz version 2.30.1 (20140712.1814)
 -->
<!-- Title: include/cinder/TriMesh.h Pages: 1 -->
<!--zoomable 158 -->
<svg id="main" version="1.1" xmlns="http://www.w3.org/2000/svg" xmlns:xlink="http://www.w3.org/1999/xlink" xml:space="preserve" onload="init(evt)">
<style type="text/css"><![CDATA[
.edge:hover path { stroke: red; }
.edge:hover polygon { stroke: red; fill: red; }
]]></style>
<script type="text/javascript"><![CDATA[
var edges = document.getElementsByTagName('g');
if (edges && edges.length) {
  for (var i=0;i<edges.length;i++) {
    if (edges[i].id.substr(0,4)=='edge') {
      edges[i].setAttribute('class','edge');
    }
  }
}
]]></script>
        <defs>
                <circle id="rim" cx="0" cy="0" r="7"/>
                <circle id="rim2" cx="0" cy="0" r="3.5"/>
                <g id="zoomPlus">
                        <use xlink:href="#rim" fill="#404040">
                                <set attributeName="fill" to="#808080" begin="zoomplus.mouseover" end="zoomplus.mouseout"/>
                        </use>
                        <path d="M-4,0h8M0,-4v8" fill="none" stroke="white" stroke-width="1.5" pointer-events="none"/>
                </g>
                <g id="zoomMin">
                        <use xlink:href="#rim" fill="#404040">
                                <set attributeName="fill" to="#808080" begin="zoomminus.mouseover" end="zoomminus.mouseout"/>
                        </use>
                        <path d="M-4,0h8" fill="none" stroke="white" stroke-width="1.5" pointer-events="none"/>
                </g>
                <g id="dirArrow">
                        <path fill="none" stroke="white" stroke-width="1.5" d="M0,-3.0v7 M-2.5,-0.5L0,-3.0L2.5,-0.5"/>
                </g>
               <g id="resetDef">
                       <use xlink:href="#rim2" fill="#404040">
                               <set attributeName="fill" to="#808080" begin="reset.mouseover" end="reset.mouseout"/>
                       </use>
               </g>
        </defs>

<script type="text/javascript">
var viewWidth = 966;
var viewHeight = 158;
var sectionId = 'dynsection-1';
</script>
<script xlink:href="svgpan.js"/>
<svg id="graph" class="graph">
<g id="viewport">
<title>include/cinder/TriMesh.h</title>
<polygon fill="white" stroke="white" points="-4,5 -4,-154 963,-154 963,5 -4,5"/>
<!-- Node1 -->
<g id="node1" class="node"><title>Node1</title>
<polygon fill="#bfbfbf" stroke="black" points="462.715,-129 462.715,-149 587.285,-149 587.285,-129 462.715,-129"/>
<text text-anchor="middle" x="525" y="-135" font-family="Helvetica,sans-Serif" font-size="10.00">include/cinder/TriMesh.h</text>
</g>
<!-- Node2 -->
<g id="node2" class="node"><title>Node2</title>
<g id="a_node2"><a xlink:href="_dx_vbo_8h.html" target="_top" xlink:title="include/cinder/dx/DxVbo.h">
<polygon fill="white" stroke="black" points="128.912,-71 128.912,-91 261.088,-91 261.088,-71 128.912,-71"/>
<text text-anchor="middle" x="195" y="-77" font-family="Helvetica,sans-Serif" font-size="10.00">include/cinder/dx/DxVbo.h</text>
</a>
</g>
</g>
<!-- Node1&#45;&gt;Node2 -->
<g id="edge1" class="edge"><title>Node1&#45;&gt;Node2</title>
<path fill="none" stroke="midnightblue" d="M461.559,-127.234C399.547,-116.711 306.215,-100.873 248.037,-91.0002"/>
<polygon fill="midnightblue" stroke="midnightblue" points="461.168,-130.718 471.613,-128.94 462.34,-123.817 461.168,-130.718"/>
</g>
<!-- Node5 -->
<g id="node5" class="node"><title>Node5</title>
<g id="a_node5"><a xlink:href="_vbo_8h.html" target="_top" xlink:title="include/cinder/gl/Vbo.h">
<polygon fill="white" stroke="black" points="553.412,-71 553.412,-91 670.588,-91 670.588,-71 553.412,-71"/>
<text text-anchor="middle" x="612" y="-77" font-family="Helvetica,sans-Serif" font-size="10.00">include/cinder/gl/Vbo.h</text>
</a>
</g>
</g>
<!-- Node1&#45;&gt;Node5 -->
<g id="edge4" class="edge"><title>Node1&#45;&gt;Node5</title>
<path fill="none" stroke="midnightblue" d="M548.066,-123.153C563.912,-112.953 584.438,-99.7411 597.901,-91.0752"/>
<polygon fill="midnightblue" stroke="midnightblue" points="545.881,-120.397 539.366,-128.753 549.669,-126.283 545.881,-120.397"/>
</g>
<!-- Node8 -->
<g id="node8" class="node"><title>Node8</title>
<g id="a_node8"><a xlink:href="_obj_loader_8h.html" target="_top" xlink:title="include/cinder/ObjLoader.h">
<polygon fill="white" stroke="black" points="688.513,-71 688.513,-91 823.487,-91 823.487,-71 688.513,-71"/>
<text text-anchor="middle" x="756" y="-77" font-family="Helvetica,sans-Serif" font-size="10.00">include/cinder/ObjLoader.h</text>
</a>
</g>
</g>
<!-- Node1&#45;&gt;Node8 -->
<g id="edge7" class="edge"><title>Node1&#45;&gt;Node8</title>
<path fill="none" stroke="midnightblue" d="M572.106,-126.58C615.417,-116.081 678.782,-100.72 718.683,-91.0466"/>
<polygon fill="midnightblue" stroke="midnightblue" points="571.265,-123.183 562.371,-128.94 572.914,-129.986 571.265,-123.183"/>
</g>
<!-- Node10 -->
<g id="node10" class="node"><title>Node10</title>
<g id="a_node10"><a xlink:href="_triangulate_8h.html" target="_top" xlink:title="include/cinder/Triangulate.h">
<polygon fill="white" stroke="black" points="358.757,-71 358.757,-91 497.243,-91 497.243,-71 358.757,-71"/>
<text text-anchor="middle" x="428" y="-77" font-family="Helvetica,sans-Serif" font-size="10.00">include/cinder/Triangulate.h</text>
</a>
</g>
</g>
<!-- Node1&#45;&gt;Node10 -->
<g id="edge9" class="edge"><title>Node1&#45;&gt;Node10</title>
<path fill="none" stroke="midnightblue" d="M500.268,-123.722C482.474,-113.449 459.011,-99.9031 443.72,-91.0752"/>
<polygon fill="midnightblue" stroke="midnightblue" points="498.572,-126.784 508.982,-128.753 502.072,-120.722 498.572,-126.784"/>
</g>
<!-- Node3 -->
<g id="node3" class="node"><title>Node3</title>
<g id="a_node3"><a xlink:href="dx_8cpp.html" target="_top" xlink:title="src/cinder/dx/dx.cpp">
<polygon fill="white" stroke="black" points="142.537,-7 142.537,-27 247.463,-27 247.463,-7 142.537,-7"/>
<text text-anchor="middle" x="195" y="-13" font-family="Helvetica,sans-Serif" font-size="10.00">src/cinder/dx/dx.cpp</text>
</a>
</g>
</g>
<!-- Node1&#45;&gt;Node3 -->
<g id="edge14" class="edge"><title>Node1&#45;&gt;Node3</title>
<path fill="none" stroke="midnightblue" d="M471.481,-126.692C436.417,-118.613 389.867,-106.608 350,-92 297.642,-72.8149 239.07,-42.1728 211.3,-27.0485"/>
<polygon fill="midnightblue" stroke="midnightblue" points="470.985,-130.169 481.512,-128.969 472.535,-123.342 470.985,-130.169"/>
</g>
<!-- Node6 -->
<g id="node6" class="node"><title>Node6</title>
<g id="a_node6"><a xlink:href="gl_8cpp.html" target="_top" xlink:title="src/cinder/gl/gl.cpp">
<polygon fill="white" stroke="black" points="528.315,-7 528.315,-27 627.685,-27 627.685,-7 528.315,-7"/>
<text text-anchor="middle" x="578" y="-13" font-family="Helvetica,sans-Serif" font-size="10.00">src/cinder/gl/gl.cpp</text>
</a>
</g>
</g>
<!-- Node1&#45;&gt;Node6 -->
<g id="edge15" class="edge"><title>Node1&#45;&gt;Node6</title>
<path fill="none" stroke="midnightblue" d="M528.669,-118.996C531.749,-105.049 536.809,-85.8555 544,-70 551.306,-53.8898 563.205,-37.08 570.814,-27.0786"/>
<polygon fill="midnightblue" stroke="midnightblue" points="525.22,-118.39 526.62,-128.892 532.075,-119.809 525.22,-118.39"/>
</g>
<!-- Node13 -->
<g id="node13" class="node"><title>Node13</title>
<g id="a_node13"><a xlink:href="_tri_mesh_8cpp.html" target="_top" xlink:title="src/cinder/TriMesh.cpp">
<polygon fill="white" stroke="black" points="841.614,-71 841.614,-91 958.386,-91 958.386,-71 841.614,-71"/>
<text text-anchor="middle" x="900" y="-77" font-family="Helvetica,sans-Serif" font-size="10.00">src/cinder/TriMesh.cpp</text>
</a>
</g>
</g>
<!-- Node1&#45;&gt;Node13 -->
<g id="edge16" class="edge"><title>Node1&#45;&gt;Node13</title>
<path fill="none" stroke="midnightblue" d="M595.881,-127.415C666.998,-116.795 775.237,-100.631 841.581,-90.7239"/>
<polygon fill="midnightblue" stroke="midnightblue" points="595.04,-124.002 585.667,-128.94 596.074,-130.925 595.04,-124.002"/>
</g>
<!-- Node2&#45;&gt;Node3 -->
<g id="edge2" class="edge"><title>Node2&#45;&gt;Node3</title>
<path fill="none" stroke="midnightblue" d="M195,-60.7346C195,-49.5568 195,-35.991 195,-27.1858"/>
<polygon fill="midnightblue" stroke="midnightblue" points="191.5,-60.8517 195,-70.8517 198.5,-60.8517 191.5,-60.8517"/>
</g>
<!-- Node4 -->
<g id="node4" class="node"><title>Node4</title>
<g id="a_node4"><a xlink:href="_dx_vbo_8cpp.html" target="_top" xlink:title="src/cinder/dx/DxVbo.cpp">
<polygon fill="white" stroke="black" points="-0.189453,-7 -0.189453,-27 124.189,-27 124.189,-7 -0.189453,-7"/>
<text text-anchor="middle" x="62" y="-13" font-family="Helvetica,sans-Serif" font-size="10.00">src/cinder/dx/DxVbo.cpp</text>
</a>
</g>
</g>
<!-- Node2&#45;&gt;Node4 -->
<g id="edge3" class="edge"><title>Node2&#45;&gt;Node4</title>
<path fill="none" stroke="midnightblue" d="M166.428,-66.6806C140.748,-54.7096 103.732,-37.4541 81.3627,-27.0262"/>
<polygon fill="midnightblue" stroke="midnightblue" points="165.118,-69.9317 175.661,-70.9847 168.076,-63.5872 165.118,-69.9317"/>
</g>
<!-- Node5&#45;&gt;Node6 -->
<g id="edge5" class="edge"><title>Node5&#45;&gt;Node6</title>
<path fill="none" stroke="midnightblue" d="M602.006,-61.7753C595.773,-50.4093 588.017,-36.2662 583.037,-27.1858"/>
<polygon fill="midnightblue" stroke="midnightblue" points="599.106,-63.7665 606.983,-70.8517 605.244,-60.4006 599.106,-63.7665"/>
</g>
<!-- Node7 -->
<g id="node7" class="node"><title>Node7</title>
<g id="a_node7"><a xlink:href="_vbo_8cpp.html" target="_top" xlink:title="src/cinder/gl/Vbo.cpp">
<polygon fill="white" stroke="black" points="645.311,-7 645.311,-27 754.689,-27 754.689,-7 645.311,-7"/>
<text text-anchor="middle" x="700" y="-13" font-family="Helvetica,sans-Serif" font-size="10.00">src/cinder/gl/Vbo.cpp</text>
</a>
</g>
</g>
<!-- Node5&#45;&gt;Node7 -->
<g id="edge6" class="edge"><title>Node5&#45;&gt;Node7</title>
<path fill="none" stroke="midnightblue" d="M633.574,-64.8004C650.291,-53.0226 672.902,-37.0916 686.962,-27.1858"/>
<polygon fill="midnightblue" stroke="midnightblue" points="631.144,-62.2309 624.985,-70.8517 635.175,-67.9533 631.144,-62.2309"/>
</g>
<!-- Node9 -->
<g id="node9" class="node"><title>Node9</title>
<g id="a_node9"><a xlink:href="_obj_loader_8cpp.html" target="_top" xlink:title="src/cinder/ObjLoader.cpp">
<polygon fill="white" stroke="black" points="772.412,-7 772.412,-27 899.588,-27 899.588,-7 772.412,-7"/>
<text text-anchor="middle" x="836" y="-13" font-family="Helvetica,sans-Serif" font-size="10.00">src/cinder/ObjLoader.cpp</text>
</a>
</g>
</g>
<!-- Node8&#45;&gt;Node9 -->
<g id="edge8" class="edge"><title>Node8&#45;&gt;Node9</title>
<path fill="none" stroke="midnightblue" d="M776.036,-64.4722C791.19,-52.7281 811.484,-36.9999 824.147,-27.1858"/>
<polygon fill="midnightblue" stroke="midnightblue" points="773.564,-61.9595 767.804,-70.8517 777.852,-67.4924 773.564,-61.9595"/>
</g>
<!-- Node11 -->
<g id="node11" class="node"><title>Node11</title>
<g id="a_node11"><a xlink:href="_svg_gl_8h.html" target="_top" xlink:title="include/cinder/svg\l/SvgGl.h">
<polygon fill="white" stroke="black" points="413.978,-1 413.978,-33 510.022,-33 510.022,-1 413.978,-1"/>
<text text-anchor="start" x="421.978" y="-19" font-family="Helvetica,sans-Serif" font-size="10.00">include/cinder/svg</text>
<text text-anchor="middle" x="462" y="-7" font-family="Helvetica,sans-Serif" font-size="10.00">/SvgGl.h</text>
</a>
</g>
</g>
<!-- Node10&#45;&gt;Node11 -->
<g id="edge10" class="edge"><title>Node10&#45;&gt;Node11</title>
<path fill="none" stroke="midnightblue" d="M437.905,-61.9374C442.859,-52.9033 448.793,-42.0827 453.533,-33.4404"/>
<polygon fill="midnightblue" stroke="midnightblue" points="434.756,-60.4006 433.017,-70.8517 440.894,-63.7665 434.756,-60.4006"/>
</g>
<!-- Node10&#45;&gt;Node3 -->
<g id="edge11" class="edge"><title>Node10&#45;&gt;Node3</title>
<path fill="none" stroke="midnightblue" d="M384.34,-68.3823C339.302,-56.398 270.009,-37.9595 228.921,-27.0262"/>
<polygon fill="midnightblue" stroke="midnightblue" points="383.556,-71.7954 394.12,-70.9847 385.356,-65.0308 383.556,-71.7954"/>
</g>
<!-- Node10&#45;&gt;Node6 -->
<g id="edge12" class="edge"><title>Node10&#45;&gt;Node6</title>
<path fill="none" stroke="midnightblue" d="M459.083,-67.1525C488.08,-55.1669 530.6,-37.592 556.162,-27.0262"/>
<polygon fill="midnightblue" stroke="midnightblue" points="457.716,-63.9301 449.811,-70.9847 460.39,-70.3993 457.716,-63.9301"/>
</g>
<!-- Node12 -->
<g id="node12" class="node"><title>Node12</title>
<g id="a_node12"><a xlink:href="_triangulate_8cpp.html" target="_top" xlink:title="src/cinder/Triangulate.cpp">
<polygon fill="white" stroke="black" points="265.656,-7 265.656,-27 396.344,-27 396.344,-7 265.656,-7"/>
<text text-anchor="middle" x="331" y="-13" font-family="Helvetica,sans-Serif" font-size="10.00">src/cinder/Triangulate.cpp</text>
</a>
</g>
</g>
<!-- Node10&#45;&gt;Node12 -->
<g id="edge13" class="edge"><title>Node10&#45;&gt;Node12</title>
<path fill="none" stroke="midnightblue" d="M405.237,-65.4504C386.72,-53.6147 361.156,-37.2751 345.371,-27.1858"/>
<polygon fill="midnightblue" stroke="midnightblue" points="403.376,-68.4151 413.687,-70.8517 407.146,-62.517 403.376,-68.4151"/>
</g>
</g>
</svg>
        <g id="navigator" transform="translate(0 0)" fill="#404254">
                <rect fill="#f2f5e9" fill-opacity="0.5" stroke="#606060" stroke-width=".5" x="0" y="0" width="60" height="60"/>
                <use id="zoomplus" xlink:href="#zoomPlus" x="17" y="9" onmousedown="handleZoom(evt,'in')"/>
                <use id="zoomminus" xlink:href="#zoomMin" x="42" y="9" onmousedown="handleZoom(evt,'out')"/>
                <use id="reset" xlink:href="#resetDef" x="30" y="36" onmousedown="handleReset()"/>
                <g id="arrowUp" xlink:href="#dirArrow" transform="translate(30 24)" onmousedown="handlePan(0,-1)">
                  <use xlink:href="#rim" fill="#404040">
                        <set attributeName="fill" to="#808080" begin="arrowUp.mouseover" end="arrowUp.mouseout"/>
                  </use>
                  <path fill="none" stroke="white" stroke-width="1.5" d="M0,-3.0v7 M-2.5,-0.5L0,-3.0L2.5,-0.5"/>
                </g>
                <g id="arrowRight" xlink:href="#dirArrow" transform="rotate(90) translate(36 -43)" onmousedown="handlePan(1,0)">
                  <use xlink:href="#rim" fill="#404040">
                        <set attributeName="fill" to="#808080" begin="arrowRight.mouseover" end="arrowRight.mouseout"/>
                  </use>
                  <path fill="none" stroke="white" stroke-width="1.5" d="M0,-3.0v7 M-2.5,-0.5L0,-3.0L2.5,-0.5"/>
                </g>
                <g id="arrowDown" xlink:href="#dirArrow" transform="rotate(180) translate(-30 -48)" onmousedown="handlePan(0,1)">
                  <use xlink:href="#rim" fill="#404040">
                        <set attributeName="fill" to="#808080" begin="arrowDown.mouseover" end="arrowDown.mouseout"/>
                  </use>
                  <path fill="none" stroke="white" stroke-width="1.5" d="M0,-3.0v7 M-2.5,-0.5L0,-3.0L2.5,-0.5"/>
                </g>
                <g id="arrowLeft" xlink:href="#dirArrow" transform="rotate(270) translate(-36 17)" onmousedown="handlePan(-1,0)">
                  <use xlink:href="#rim" fill="#404040">
                        <set attributeName="fill" to="#808080" begin="arrowLeft.mouseover" end="arrowLeft.mouseout"/>
                  </use>
                  <path fill="none" stroke="white" stroke-width="1.5" d="M0,-3.0v7 M-2.5,-0.5L0,-3.0L2.5,-0.5"/>
                </g>
        </g>
        <svg viewBox="0 0 15 15" width="100%" height="30px" preserveAspectRatio="xMaxYMin meet">
         <g id="arrow_out" transform="scale(0.3 0.3)">
          <a xlink:href="_tri_mesh_8h__dep__incl_org.svg" target="_base">
           <rect id="button" ry="5" rx="5" y="6" x="6" height="38" width="38"
                fill="#f2f5e9" fill-opacity="0.5" stroke="#606060" stroke-width="1.0"/>
           <path id="arrow"
             d="M 11.500037,31.436501 C 11.940474,20.09759 22.043105,11.32322 32.158766,21.979434 L 37.068811,17.246167 C 37.068811,17.246167 37.088388,32 37.088388,32 L 22.160133,31.978069 C 22.160133,31.978069 26.997745,27.140456 26.997745,27.140456 C 18.528582,18.264221 13.291696,25.230495 11.500037,31.436501 z"
             style="fill:#404040;"/>
          </a>
         </g>
        </svg>
</svg>
