<?xml version="1.0" encoding="UTF-8" standalone="no"?>
<!DOCTYPE svg PUBLIC "-//W3C//DTD SVG 1.1//EN"
 "http://www.w3.org/Graphics/SVG/1.1/DTD/svg11.dtd">
<!-- Generated by graphviz version 2.30.1 (20140712.1814)
 -->
<!-- Title: include/cinder/Tween.h Pages: 1 -->
<svg width="546pt" height="146pt"
 viewBox="0.00 0.00 546.00 146.00" xmlns="http://www.w3.org/2000/svg" xmlns:xlink="http://www.w3.org/1999/xlink">
<g id="graph0" class="graph" transform="scale(1 1) rotate(0) translate(4 142)">
<title>include/cinder/Tween.h</title>
<polygon fill="white" stroke="white" points="-4,5 -4,-142 543,-142 543,5 -4,5"/>
<!-- Node1 -->
<g id="node1" class="node"><title>Node1</title>
<polygon fill="#bfbfbf" stroke="black" points="339.855,-117 339.855,-137 458.145,-137 458.145,-117 339.855,-117"/>
<text text-anchor="middle" x="399" y="-123" font-family="Helvetica,sans-Serif" font-size="10.00">include/cinder/Tween.h</text>
</g>
<!-- Node2 -->
<g id="node2" class="node"><title>Node2</title>
<g id="a_node2"><a xlink:href="_timeline_8h.html" target="_top" xlink:title="include/cinder/Timeline.h">
<polygon fill="white" stroke="black" points="277.878,-59 277.878,-79 404.122,-79 404.122,-59 277.878,-59"/>
<text text-anchor="middle" x="341" y="-65" font-family="Helvetica,sans-Serif" font-size="10.00">include/cinder/Timeline.h</text>
</a>
</g>
</g>
<!-- Node1&#45;&gt;Node2 -->
<g id="edge1" class="edge"><title>Node1&#45;&gt;Node2</title>
<path fill="none" stroke="midnightblue" d="M382.122,-109.704C371.79,-99.7286 358.955,-87.3361 350.399,-79.0752"/>
<polygon fill="midnightblue" stroke="midnightblue" points="379.797,-112.325 389.422,-116.753 384.66,-107.289 379.797,-112.325"/>
</g>
<!-- Node6 -->
<g id="node6" class="node"><title>Node6</title>
<g id="a_node6"><a xlink:href="_tween_8cpp.html" target="_top" xlink:title="src/cinder/Tween.cpp">
<polygon fill="white" stroke="black" points="427.754,-1 427.754,-21 538.246,-21 538.246,-1 427.754,-1"/>
<text text-anchor="middle" x="483" y="-7" font-family="Helvetica,sans-Serif" font-size="10.00">src/cinder/Tween.cpp</text>
</a>
</g>
</g>
<!-- Node1&#45;&gt;Node6 -->
<g id="edge6" class="edge"><title>Node1&#45;&gt;Node6</title>
<path fill="none" stroke="midnightblue" d="M411.835,-108.582C429.929,-84.0246 462.289,-40.1079 476.266,-21.1394"/>
<polygon fill="midnightblue" stroke="midnightblue" points="408.988,-106.544 405.874,-116.671 414.624,-110.697 408.988,-106.544"/>
</g>
<!-- Node3 -->
<g id="node3" class="node"><title>Node3</title>
<g id="a_node3"><a xlink:href="_app_8cpp.html" target="_top" xlink:title="src/cinder/app/App.cpp">
<polygon fill="white" stroke="black" points="-0.140137,-1 -0.140137,-21 118.14,-21 118.14,-1 -0.140137,-1"/>
<text text-anchor="middle" x="59" y="-7" font-family="Helvetica,sans-Serif" font-size="10.00">src/cinder/app/App.cpp</text>
</a>
</g>
</g>
<!-- Node2&#45;&gt;Node3 -->
<g id="edge2" class="edge"><title>Node2&#45;&gt;Node3</title>
<path fill="none" stroke="midnightblue" d="M285.485,-56.9758C232.58,-46.4697 153.882,-30.8418 104.556,-21.0466"/>
<polygon fill="midnightblue" stroke="midnightblue" points="284.888,-60.4255 295.378,-58.9404 286.252,-53.5596 284.888,-60.4255"/>
</g>
<!-- Node4 -->
<g id="node4" class="node"><title>Node4</title>
<g id="a_node4"><a xlink:href="_timeline_8cpp.html" target="_top" xlink:title="src/cinder/Timeline.cpp">
<polygon fill="white" stroke="black" points="135.777,-1 135.777,-21 254.223,-21 254.223,-1 135.777,-1"/>
<text text-anchor="middle" x="195" y="-7" font-family="Helvetica,sans-Serif" font-size="10.00">src/cinder/Timeline.cpp</text>
</a>
</g>
</g>
<!-- Node2&#45;&gt;Node4 -->
<g id="edge3" class="edge"><title>Node2&#45;&gt;Node4</title>
<path fill="none" stroke="midnightblue" d="M307.744,-55.2441C280.614,-44.8381 242.949,-30.3912 218.772,-21.1181"/>
<polygon fill="midnightblue" stroke="midnightblue" points="306.627,-58.5646 317.218,-58.878 309.134,-52.0289 306.627,-58.5646"/>
</g>
<!-- Node5 -->
<g id="node5" class="node"><title>Node5</title>
<g id="a_node5"><a xlink:href="_timeline_item_8cpp.html" target="_top" xlink:title="src/cinder/TimelineItem.cpp">
<polygon fill="white" stroke="black" points="272.053,-1 272.053,-21 409.947,-21 409.947,-1 272.053,-1"/>
<text text-anchor="middle" x="341" y="-7" font-family="Helvetica,sans-Serif" font-size="10.00">src/cinder/TimelineItem.cpp</text>
</a>
</g>
</g>
<!-- Node2&#45;&gt;Node5 -->
<g id="edge4" class="edge"><title>Node2&#45;&gt;Node5</title>
<path fill="none" stroke="midnightblue" d="M341,-48.7065C341,-39.3384 341,-28.5262 341,-21.0752"/>
<polygon fill="midnightblue" stroke="midnightblue" points="337.5,-48.7527 341,-58.7527 344.5,-48.7528 337.5,-48.7527"/>
</g>
<!-- Node2&#45;&gt;Node6 -->
<g id="edge5" class="edge"><title>Node2&#45;&gt;Node6</title>
<path fill="none" stroke="midnightblue" d="M373.693,-55.1069C400.053,-44.7114 436.468,-30.3505 459.879,-21.1181"/>
<polygon fill="midnightblue" stroke="midnightblue" points="372.149,-51.9533 364.131,-58.878 374.718,-58.4652 372.149,-51.9533"/>
</g>
</g>
</svg>
