<?xml version="1.0" encoding="UTF-8" standalone="no"?>
<!DOCTYPE svg PUBLIC "-//W3C//DTD SVG 1.1//EN"
 "http://www.w3.org/Graphics/SVG/1.1/DTD/svg11.dtd">
<!-- Generated by graphviz version 2.30.1 (20140712.1814)
 -->
<!-- Title: include/cinder/Tween.h Pages: 1 -->
<!--zoomable 552 -->
<svg id="main" version="1.1" xmlns="http://www.w3.org/2000/svg" xmlns:xlink="http://www.w3.org/1999/xlink" xml:space="preserve" onload="init(evt)">
<style type="text/css"><![CDATA[
.edge:hover path { stroke: red; }
.edge:hover polygon { stroke: red; fill: red; }
]]></style>
<script type="text/javascript"><![CDATA[
var edges = document.getElementsByTagName('g');
if (edges && edges.length) {
  for (var i=0;i<edges.length;i++) {
    if (edges[i].id.substr(0,4)=='edge') {
      edges[i].setAttribute('class','edge');
    }
  }
}
]]></script>
        <defs>
                <circle id="rim" cx="0" cy="0" r="7"/>
                <circle id="rim2" cx="0" cy="0" r="3.5"/>
                <g id="zoomPlus">
                        <use xlink:href="#rim" fill="#404040">
                                <set attributeName="fill" to="#808080" begin="zoomplus.mouseover" end="zoomplus.mouseout"/>
                        </use>
                        <path d="M-4,0h8M0,-4v8" fill="none" stroke="white" stroke-width="1.5" pointer-events="none"/>
                </g>
                <g id="zoomMin">
                        <use xlink:href="#rim" fill="#404040">
                                <set attributeName="fill" to="#808080" begin="zoomminus.mouseover" end="zoomminus.mouseout"/>
                        </use>
                        <path d="M-4,0h8" fill="none" stroke="white" stroke-width="1.5" pointer-events="none"/>
                </g>
                <g id="dirArrow">
                        <path fill="none" stroke="white" stroke-width="1.5" d="M0,-3.0v7 M-2.5,-0.5L0,-3.0L2.5,-0.5"/>
                </g>
               <g id="resetDef">
                       <use xlink:href="#rim2" fill="#404040">
                               <set attributeName="fill" to="#808080" begin="reset.mouseover" end="reset.mouseout"/>
                       </use>
               </g>
        </defs>

<script type="text/javascript">
var viewWidth = 1183;
var viewHeight = 552;
var sectionId = 'dynsection-0';
</script>
<script xlink:href="svgpan.js"/>
<svg id="graph" class="graph">
<g id="viewport">
<title>include/cinder/Tween.h</title>
<polygon fill="white" stroke="white" points="-4,5 -4,-548 1180,-548 1180,5 -4,5"/>
<!-- Node1 -->
<g id="node1" class="node"><title>Node1</title>
<polygon fill="#bfbfbf" stroke="black" points="772.855,-523 772.855,-543 891.145,-543 891.145,-523 772.855,-523"/>
<text text-anchor="middle" x="832" y="-529" font-family="Helvetica,sans-Serif" font-size="10.00">include/cinder/Tween.h</text>
</g>
<!-- Node2 -->
<g id="node2" class="node"><title>Node2</title>
<g id="a_node2"><a xlink:href="_cinder_8h.html" target="_top" xlink:title="cinder/Cinder.h">
<polygon fill="white" stroke="black" points="211.367,-59 211.367,-79 294.633,-79 294.633,-59 211.367,-59"/>
<text text-anchor="middle" x="253" y="-65" font-family="Helvetica,sans-Serif" font-size="10.00">cinder/Cinder.h</text>
</a>
</g>
</g>
<!-- Node1&#45;&gt;Node2 -->
<g id="edge1" class="edge"><title>Node1&#45;&gt;Node2</title>
<path fill="none" stroke="midnightblue" d="M772.616,-528.462C604.773,-517.674 139,-481.975 139,-418 139,-418 139,-418 139,-184 139,-136.285 189.552,-101.566 223.329,-83.6935"/>
<polygon fill="midnightblue" stroke="midnightblue" points="225.029,-86.7557 232.355,-79.1024 221.855,-80.5164 225.029,-86.7557"/>
</g>
<!-- Node6 -->
<g id="node6" class="node"><title>Node6</title>
<g id="a_node6"><a xlink:href="_timeline_item_8h.html" target="_top" xlink:title="cinder/TimelineItem.h">
<polygon fill="white" stroke="black" points="-0.612305,-407 -0.612305,-427 110.612,-427 110.612,-407 -0.612305,-407"/>
<text text-anchor="middle" x="55" y="-413" font-family="Helvetica,sans-Serif" font-size="10.00">cinder/TimelineItem.h</text>
</a>
</g>
</g>
<!-- Node1&#45;&gt;Node6 -->
<g id="edge5" class="edge"><title>Node1&#45;&gt;Node6</title>
<path fill="none" stroke="midnightblue" d="M772.632,-530.485C613.135,-526.085 183.421,-511.945 125,-486 100.438,-475.092 79.4386,-451.594 67.0174,-435.296"/>
<polygon fill="midnightblue" stroke="midnightblue" points="69.7586,-433.115 61.0312,-427.108 64.1078,-437.246 69.7586,-433.115"/>
</g>
<!-- Node7 -->
<g id="node7" class="node"><title>Node7</title>
<g id="a_node7"><a xlink:href="_cinder_math_8h.html" target="_top" xlink:title="cinder/CinderMath.h">
<polygon fill="white" stroke="black" points="673.978,-117 673.978,-137 780.022,-137 780.022,-117 673.978,-117"/>
<text text-anchor="middle" x="727" y="-123" font-family="Helvetica,sans-Serif" font-size="10.00">cinder/CinderMath.h</text>
</a>
</g>
</g>
<!-- Node1&#45;&gt;Node7 -->
<g id="edge7" class="edge"><title>Node1&#45;&gt;Node7</title>
<path fill="none" stroke="midnightblue" d="M832,-522.838C832,-503.48 832,-456.99 832,-418 832,-418 832,-418 832,-242 832,-195.959 785.091,-160.535 753.98,-142.105"/>
<polygon fill="midnightblue" stroke="midnightblue" points="755.71,-139.062 745.29,-137.15 752.243,-145.143 755.71,-139.062"/>
</g>
<!-- Node12 -->
<g id="node12" class="node"><title>Node12</title>
<g id="a_node12"><a xlink:href="_easing_8h.html" target="_top" xlink:title="cinder/Easing.h">
<polygon fill="white" stroke="black" points="859.535,-349 859.535,-369 944.465,-369 944.465,-349 859.535,-349"/>
<text text-anchor="middle" x="902" y="-355" font-family="Helvetica,sans-Serif" font-size="10.00">cinder/Easing.h</text>
</a>
</g>
</g>
<!-- Node1&#45;&gt;Node12 -->
<g id="edge13" class="edge"><title>Node1&#45;&gt;Node12</title>
<path fill="none" stroke="midnightblue" d="M835.764,-522.753C846.826,-495.571 879.397,-415.538 894.344,-378.811"/>
<polygon fill="midnightblue" stroke="midnightblue" points="897.69,-379.875 898.218,-369.293 891.206,-377.236 897.69,-379.875"/>
</g>
<!-- Node13 -->
<g id="node13" class="node"><title>Node13</title>
<g id="a_node13"><a xlink:href="_function_8h.html" target="_top" xlink:title="cinder/Function.h">
<polygon fill="white" stroke="black" points="916.646,-117 916.646,-137 1009.35,-137 1009.35,-117 916.646,-117"/>
<text text-anchor="middle" x="963" y="-123" font-family="Helvetica,sans-Serif" font-size="10.00">cinder/Function.h</text>
</a>
</g>
</g>
<!-- Node1&#45;&gt;Node13 -->
<g id="edge15" class="edge"><title>Node1&#45;&gt;Node13</title>
<path fill="none" stroke="midnightblue" d="M861.008,-522.988C902.015,-508.23 972,-474.733 972,-418 972,-418 972,-418 972,-242 972,-208.542 968.1,-169.731 965.434,-147.115"/>
<polygon fill="midnightblue" stroke="midnightblue" points="968.903,-146.643 964.214,-137.142 961.955,-147.493 968.903,-146.643"/>
</g>
<!-- Node18 -->
<g id="node18" class="node"><title>Node18</title>
<g id="a_node18"><a xlink:href="_quaternion_8h.html" target="_top" xlink:title="cinder/Quaternion.h">
<polygon fill="white" stroke="black" points="580.084,-465 580.084,-485 683.916,-485 683.916,-465 580.084,-465"/>
<text text-anchor="middle" x="632" y="-471" font-family="Helvetica,sans-Serif" font-size="10.00">cinder/Quaternion.h</text>
</a>
</g>
</g>
<!-- Node1&#45;&gt;Node18 -->
<g id="edge22" class="edge"><title>Node1&#45;&gt;Node18</title>
<path fill="none" stroke="midnightblue" d="M799.421,-522.878C765.325,-513.331 711.655,-498.303 674.305,-487.845"/>
<polygon fill="midnightblue" stroke="midnightblue" points="674.807,-484.351 664.233,-485.025 672.919,-491.092 674.807,-484.351"/>
</g>
<!-- Node31 -->
<g id="node31" class="node"><title>Node31</title>
<polygon fill="white" stroke="#bfbfbf" points="1000.5,-465 1000.5,-485 1029.5,-485 1029.5,-465 1000.5,-465"/>
<text text-anchor="middle" x="1014.61" y="-471" font-family="Helvetica,sans-Serif" font-size="10.00">list</text>
</g>
<!-- Node1&#45;&gt;Node31 -->
<g id="edge61" class="edge"><title>Node1&#45;&gt;Node31</title>
<path fill="none" stroke="midnightblue" d="M863.678,-522.958C894.896,-513.948 943.897,-499.541 986,-486 987.458,-485.531 988.954,-485.042 990.461,-484.542"/>
<polygon fill="midnightblue" stroke="midnightblue" points="991.942,-487.735 1000.29,-481.207 989.692,-481.107 991.942,-487.735"/>
</g>
<!-- Node3 -->
<g id="node3" class="node"><title>Node3</title>
<polygon fill="white" stroke="#bfbfbf" points="142.549,-1 142.549,-21 187.451,-21 187.451,-1 142.549,-1"/>
<text text-anchor="middle" x="165" y="-7" font-family="Helvetica,sans-Serif" font-size="10.00">cstdint</text>
</g>
<!-- Node2&#45;&gt;Node3 -->
<g id="edge2" class="edge"><title>Node2&#45;&gt;Node3</title>
<path fill="none" stroke="midnightblue" d="M238.469,-58.7527C224.757,-50.0272 203.979,-36.8051 188.015,-26.6458"/>
<polygon fill="midnightblue" stroke="midnightblue" points="189.577,-23.4912 179.261,-21.0752 185.819,-29.3968 189.577,-23.4912"/>
</g>
<!-- Node4 -->
<g id="node4" class="node"><title>Node4</title>
<polygon fill="white" stroke="#bfbfbf" points="205.53,-1 205.53,-21 300.47,-21 300.47,-1 205.53,-1"/>
<text text-anchor="middle" x="253" y="-7" font-family="Helvetica,sans-Serif" font-size="10.00">boost/version.hpp</text>
</g>
<!-- Node2&#45;&gt;Node4 -->
<g id="edge3" class="edge"><title>Node2&#45;&gt;Node4</title>
<path fill="none" stroke="midnightblue" d="M253,-58.7527C253,-51.2504 253,-40.4238 253,-31.0781"/>
<polygon fill="midnightblue" stroke="midnightblue" points="256.5,-31.0752 253,-21.0752 249.5,-31.0752 256.5,-31.0752"/>
</g>
<!-- Node5 -->
<g id="node5" class="node"><title>Node5</title>
<polygon fill="white" stroke="#bfbfbf" points="318.621,-1 318.621,-21 451.379,-21 451.379,-1 318.621,-1"/>
<text text-anchor="middle" x="385" y="-7" font-family="Helvetica,sans-Serif" font-size="10.00">boost/checked_delete.hpp</text>
</g>
<!-- Node2&#45;&gt;Node5 -->
<g id="edge4" class="edge"><title>Node2&#45;&gt;Node5</title>
<path fill="none" stroke="midnightblue" d="M274.502,-58.878C296.172,-49.6848 329.821,-35.4095 354.295,-25.0263"/>
<polygon fill="midnightblue" stroke="midnightblue" points="355.668,-28.2457 363.507,-21.1181 352.935,-21.8016 355.668,-28.2457"/>
</g>
<!-- Node6&#45;&gt;Node2 -->
<g id="edge6" class="edge"><title>Node6&#45;&gt;Node2</title>
<path fill="none" stroke="midnightblue" d="M58.1019,-406.964C64.3799,-387.842 78,-341.775 78,-302 78,-302 78,-302 78,-184 78,-124.558 149.763,-94.4971 201.379,-80.5637"/>
<polygon fill="midnightblue" stroke="midnightblue" points="202.271,-83.9483 211.083,-78.0671 200.526,-77.1691 202.271,-83.9483"/>
</g>
<!-- Node7&#45;&gt;Node2 -->
<g id="edge8" class="edge"><title>Node7&#45;&gt;Node2</title>
<path fill="none" stroke="midnightblue" d="M673.548,-119.685C581.811,-108.847 395.538,-86.8399 304.888,-76.1302"/>
<polygon fill="midnightblue" stroke="midnightblue" points="305.186,-72.6412 294.844,-74.9436 304.364,-79.5928 305.186,-72.6412"/>
</g>
<!-- Node8 -->
<g id="node8" class="node"><title>Node8</title>
<polygon fill="white" stroke="#bfbfbf" points="624.384,-59 624.384,-79 667.616,-79 667.616,-59 624.384,-59"/>
<text text-anchor="middle" x="646" y="-65" font-family="Helvetica,sans-Serif" font-size="10.00">cmath</text>
</g>
<!-- Node7&#45;&gt;Node8 -->
<g id="edge9" class="edge"><title>Node7&#45;&gt;Node8</title>
<path fill="none" stroke="midnightblue" d="M713.624,-116.753C701.122,-108.109 682.236,-95.0518 667.597,-84.9314"/>
<polygon fill="midnightblue" stroke="midnightblue" points="669.343,-81.8831 659.127,-79.0752 665.362,-87.641 669.343,-81.8831"/>
</g>
<!-- Node9 -->
<g id="node9" class="node"><title>Node9</title>
<polygon fill="white" stroke="#bfbfbf" points="744.113,-59 744.113,-79 787.887,-79 787.887,-59 744.113,-59"/>
<text text-anchor="middle" x="766" y="-65" font-family="Helvetica,sans-Serif" font-size="10.00">climits</text>
</g>
<!-- Node7&#45;&gt;Node9 -->
<g id="edge10" class="edge"><title>Node7&#45;&gt;Node9</title>
<path fill="none" stroke="midnightblue" d="M733.44,-116.753C738.949,-108.843 747.031,-97.2372 753.765,-87.5683"/>
<polygon fill="midnightblue" stroke="midnightblue" points="756.837,-89.2815 759.68,-79.0752 751.093,-85.281 756.837,-89.2815"/>
</g>
<!-- Node10 -->
<g id="node10" class="node"><title>Node10</title>
<polygon fill="white" stroke="#bfbfbf" points="686.049,-59 686.049,-79 725.951,-79 725.951,-59 686.049,-59"/>
<text text-anchor="middle" x="706" y="-65" font-family="Helvetica,sans-Serif" font-size="10.00">cfloat</text>
</g>
<!-- Node7&#45;&gt;Node10 -->
<g id="edge11" class="edge"><title>Node7&#45;&gt;Node10</title>
<path fill="none" stroke="midnightblue" d="M723.532,-116.753C720.658,-109.087 716.482,-97.9515 712.927,-88.4708"/>
<polygon fill="midnightblue" stroke="midnightblue" points="716.192,-87.2095 709.403,-79.0752 709.637,-89.6674 716.192,-87.2095"/>
</g>
<!-- Node11 -->
<g id="node11" class="node"><title>Node11</title>
<polygon fill="white" stroke="#bfbfbf" points="805.596,-59 805.596,-79 864.404,-79 864.404,-59 805.596,-59"/>
<text text-anchor="middle" x="835" y="-65" font-family="Helvetica,sans-Serif" font-size="10.00">functional</text>
</g>
<!-- Node7&#45;&gt;Node11 -->
<g id="edge12" class="edge"><title>Node7&#45;&gt;Node11</title>
<path fill="none" stroke="midnightblue" d="M744.834,-116.753C762.134,-107.783 788.598,-94.0601 808.388,-83.7986"/>
<polygon fill="midnightblue" stroke="midnightblue" points="810.231,-86.7856 817.498,-79.0752 807.009,-80.5713 810.231,-86.7856"/>
</g>
<!-- Node12&#45;&gt;Node7 -->
<g id="edge14" class="edge"><title>Node12&#45;&gt;Node7</title>
<path fill="none" stroke="midnightblue" d="M901.9,-348.994C901.092,-319.754 894.639,-226.348 846,-174 830.707,-157.541 808.85,-146.903 788.032,-140.057"/>
<polygon fill="midnightblue" stroke="midnightblue" points="788.835,-136.643 778.249,-137.082 786.798,-143.34 788.835,-136.643"/>
</g>
<!-- Node13&#45;&gt;Node2 -->
<g id="edge16" class="edge"><title>Node13&#45;&gt;Node2</title>
<path fill="none" stroke="midnightblue" d="M916.415,-122.326C789.507,-112.316 438.282,-84.6138 305.11,-74.1101"/>
<polygon fill="midnightblue" stroke="midnightblue" points="305.024,-70.5925 294.779,-73.2953 304.473,-77.5708 305.024,-70.5925"/>
</g>
<!-- Node14 -->
<g id="node14" class="node"><title>Node14</title>
<polygon fill="white" stroke="#bfbfbf" points="1117.44,-59 1117.44,-79 1174.56,-79 1174.56,-59 1117.44,-59"/>
<text text-anchor="middle" x="1146" y="-65" font-family="Helvetica,sans-Serif" font-size="10.00">algorithm</text>
</g>
<!-- Node13&#45;&gt;Node14 -->
<g id="edge17" class="edge"><title>Node13&#45;&gt;Node14</title>
<path fill="none" stroke="midnightblue" d="M992.809,-116.878C1024.15,-107.287 1073.57,-92.1652 1107.76,-81.7017"/>
<polygon fill="midnightblue" stroke="midnightblue" points="1108.87,-85.0221 1117.41,-78.749 1106.82,-78.3285 1108.87,-85.0221"/>
</g>
<!-- Node15 -->
<g id="node15" class="node"><title>Node15</title>
<polygon fill="white" stroke="#bfbfbf" points="882.384,-59 882.384,-79 925.616,-79 925.616,-59 882.384,-59"/>
<text text-anchor="middle" x="904" y="-65" font-family="Helvetica,sans-Serif" font-size="10.00">vector</text>
</g>
<!-- Node13&#45;&gt;Node15 -->
<g id="edge18" class="edge"><title>Node13&#45;&gt;Node15</title>
<path fill="none" stroke="midnightblue" d="M953.257,-116.753C944.494,-108.435 931.425,-96.031 920.951,-86.0893"/>
<polygon fill="midnightblue" stroke="midnightblue" points="923.224,-83.4209 913.561,-79.0752 918.405,-88.4981 923.224,-83.4209"/>
</g>
<!-- Node16 -->
<g id="node16" class="node"><title>Node16</title>
<polygon fill="white" stroke="#bfbfbf" points="943.608,-59 943.608,-79 982.392,-79 982.392,-59 943.608,-59"/>
<text text-anchor="middle" x="963" y="-65" font-family="Helvetica,sans-Serif" font-size="10.00">utility</text>
</g>
<!-- Node13&#45;&gt;Node16 -->
<g id="edge19" class="edge"><title>Node13&#45;&gt;Node16</title>
<path fill="none" stroke="midnightblue" d="M963,-116.753C963,-109.25 963,-98.4238 963,-89.0781"/>
<polygon fill="midnightblue" stroke="midnightblue" points="966.5,-89.0752 963,-79.0752 959.5,-89.0752 966.5,-89.0752"/>
</g>
<!-- Node17 -->
<g id="node17" class="node"><title>Node17</title>
<polygon fill="white" stroke="#bfbfbf" points="1000.3,-59 1000.3,-79 1099.7,-79 1099.7,-59 1000.3,-59"/>
<text text-anchor="middle" x="1050" y="-65" font-family="Helvetica,sans-Serif" font-size="10.00">boost/signals2.hpp</text>
</g>
<!-- Node13&#45;&gt;Node17 -->
<g id="edge20" class="edge"><title>Node13&#45;&gt;Node17</title>
<path fill="none" stroke="midnightblue" d="M977.366,-116.753C990.922,-108.027 1011.46,-94.8051 1027.25,-84.6458"/>
<polygon fill="midnightblue" stroke="midnightblue" points="1029.39,-87.4307 1035.9,-79.0752 1025.6,-81.5447 1029.39,-87.4307"/>
</g>
<!-- Node13&#45;&gt;Node11 -->
<g id="edge21" class="edge"><title>Node13&#45;&gt;Node11</title>
<path fill="none" stroke="midnightblue" d="M942.15,-116.878C921.23,-107.725 888.796,-93.5357 865.09,-83.1643"/>
<polygon fill="midnightblue" stroke="midnightblue" points="866.406,-79.9198 855.841,-79.1181 863.6,-86.3329 866.406,-79.9198"/>
</g>
<!-- Node18&#45;&gt;Node7 -->
<g id="edge23" class="edge"><title>Node18&#45;&gt;Node7</title>
<path fill="none" stroke="midnightblue" d="M670.803,-464.941C718.729,-451.179 794,-420.012 794,-360 794,-360 794,-360 794,-242 794,-202.886 764.321,-165.339 744.47,-144.599"/>
<polygon fill="midnightblue" stroke="midnightblue" points="746.709,-141.887 737.176,-137.264 741.745,-146.823 746.709,-141.887"/>
</g>
<!-- Node19 -->
<g id="node19" class="node"><title>Node19</title>
<g id="a_node19"><a xlink:href="_vector_8h.html" target="_top" xlink:title="cinder/Vector.h">
<polygon fill="white" stroke="black" points="370.919,-175 370.919,-195 453.081,-195 453.081,-175 370.919,-175"/>
<text text-anchor="middle" x="412" y="-181" font-family="Helvetica,sans-Serif" font-size="10.00">cinder/Vector.h</text>
</a>
</g>
</g>
<!-- Node18&#45;&gt;Node19 -->
<g id="edge24" class="edge"><title>Node18&#45;&gt;Node19</title>
<path fill="none" stroke="midnightblue" d="M579.7,-469.287C475.73,-458.468 253,-427.422 253,-360 253,-360 253,-360 253,-300 253,-268.62 250.316,-254.682 272,-232 295.01,-207.931 330.811,-196.445 360.449,-190.97"/>
<polygon fill="midnightblue" stroke="midnightblue" points="361.354,-194.367 370.644,-189.273 360.205,-187.462 361.354,-194.367"/>
</g>
<!-- Node24 -->
<g id="node24" class="node"><title>Node24</title>
<g id="a_node24"><a xlink:href="_matrix_8h.html" target="_top" xlink:title="cinder/Matrix.h">
<polygon fill="white" stroke="black" points="471.212,-407 471.212,-427 552.788,-427 552.788,-407 471.212,-407"/>
<text text-anchor="middle" x="512" y="-413" font-family="Helvetica,sans-Serif" font-size="10.00">cinder/Matrix.h</text>
</a>
</g>
</g>
<!-- Node18&#45;&gt;Node24 -->
<g id="edge31" class="edge"><title>Node18&#45;&gt;Node24</title>
<path fill="none" stroke="midnightblue" d="M612.453,-464.878C593.015,-455.807 562.973,-441.788 540.804,-431.442"/>
<polygon fill="midnightblue" stroke="midnightblue" points="542.081,-428.175 531.539,-427.118 539.121,-434.519 542.081,-428.175"/>
</g>
<!-- Node19&#45;&gt;Node8 -->
<g id="edge25" class="edge"><title>Node19&#45;&gt;Node8</title>
<path fill="none" stroke="midnightblue" d="M453.303,-176.874C485.888,-170.088 531.735,-157.9 568,-138 592.451,-124.582 615.932,-102.43 630.627,-87.072"/>
<polygon fill="midnightblue" stroke="midnightblue" points="633.579,-89.0386 637.838,-79.3374 628.459,-84.2655 633.579,-89.0386"/>
</g>
<!-- Node20 -->
<g id="node20" class="node"><title>Node20</title>
<polygon fill="white" stroke="#bfbfbf" points="514.273,-117 514.273,-137 559.727,-137 559.727,-117 514.273,-117"/>
<text text-anchor="middle" x="537" y="-123" font-family="Helvetica,sans-Serif" font-size="10.00">cstring</text>
</g>
<!-- Node19&#45;&gt;Node20 -->
<g id="edge26" class="edge"><title>Node19&#45;&gt;Node20</title>
<path fill="none" stroke="midnightblue" d="M432.362,-174.878C452.701,-165.766 484.184,-151.662 507.306,-141.303"/>
<polygon fill="midnightblue" stroke="midnightblue" points="508.952,-144.401 516.647,-137.118 506.09,-138.013 508.952,-144.401"/>
</g>
<!-- Node21 -->
<g id="node21" class="node"><title>Node21</title>
<polygon fill="white" stroke="#bfbfbf" points="318.828,-117 318.828,-137 373.172,-137 373.172,-117 318.828,-117"/>
<text text-anchor="middle" x="346" y="-123" font-family="Helvetica,sans-Serif" font-size="10.00">iostream</text>
</g>
<!-- Node19&#45;&gt;Node21 -->
<g id="edge27" class="edge"><title>Node19&#45;&gt;Node21</title>
<path fill="none" stroke="midnightblue" d="M401.101,-174.753C391.202,-166.353 376.392,-153.787 364.619,-143.798"/>
<polygon fill="midnightblue" stroke="midnightblue" points="366.585,-140.876 356.696,-137.075 362.056,-146.214 366.585,-140.876"/>
</g>
<!-- Node22 -->
<g id="node22" class="node"><title>Node22</title>
<polygon fill="white" stroke="#bfbfbf" points="390.884,-117 390.884,-137 439.116,-137 439.116,-117 390.884,-117"/>
<text text-anchor="middle" x="415" y="-123" font-family="Helvetica,sans-Serif" font-size="10.00">cassert</text>
</g>
<!-- Node19&#45;&gt;Node22 -->
<g id="edge28" class="edge"><title>Node19&#45;&gt;Node22</title>
<path fill="none" stroke="midnightblue" d="M412.495,-174.753C412.897,-167.25 413.477,-156.424 413.978,-147.078"/>
<polygon fill="midnightblue" stroke="midnightblue" points="417.474,-147.248 414.514,-137.075 410.484,-146.874 417.474,-147.248"/>
</g>
<!-- Node23 -->
<g id="node23" class="node"><title>Node23</title>
<polygon fill="white" stroke="#bfbfbf" points="457.613,-117 457.613,-137 496.387,-137 496.387,-117 457.613,-117"/>
<text text-anchor="middle" x="477" y="-123" font-family="Helvetica,sans-Serif" font-size="10.00">limits</text>
</g>
<!-- Node19&#45;&gt;Node23 -->
<g id="edge29" class="edge"><title>Node19&#45;&gt;Node23</title>
<path fill="none" stroke="midnightblue" d="M422.733,-174.753C432.483,-166.353 447.068,-153.787 458.664,-143.798"/>
<polygon fill="midnightblue" stroke="midnightblue" points="461.175,-146.254 466.466,-137.075 456.606,-140.951 461.175,-146.254"/>
</g>
<!-- Node19&#45;&gt;Node7 -->
<g id="edge30" class="edge"><title>Node19&#45;&gt;Node7</title>
<path fill="none" stroke="midnightblue" d="M453.142,-176.498C457.815,-175.652 462.51,-174.805 467,-174 535.033,-161.797 613.121,-148.011 665.818,-138.74"/>
<polygon fill="midnightblue" stroke="midnightblue" points="666.439,-142.185 675.681,-137.005 665.226,-135.291 666.439,-142.185"/>
</g>
<!-- Node24&#45;&gt;Node2 -->
<g id="edge32" class="edge"><title>Node24&#45;&gt;Node2</title>
<path fill="none" stroke="midnightblue" d="M470.922,-410.841C381.468,-398.458 177,-363.435 177,-302 177,-302 177,-302 177,-184 177,-143.325 210.91,-106.124 233.428,-85.9052"/>
<polygon fill="midnightblue" stroke="midnightblue" points="235.85,-88.4378 241.125,-79.2493 231.272,-83.1429 235.85,-88.4378"/>
</g>
<!-- Node24&#45;&gt;Node7 -->
<g id="edge33" class="edge"><title>Node24&#45;&gt;Node7</title>
<path fill="none" stroke="midnightblue" d="M552.84,-414.855C622.301,-410.498 756,-390.604 756,-302 756,-302 756,-302 756,-242 756,-207.602 743.446,-169.117 734.857,-146.815"/>
<polygon fill="midnightblue" stroke="midnightblue" points="737.997,-145.239 731.032,-137.255 731.498,-147.84 737.997,-145.239"/>
</g>
<!-- Node25 -->
<g id="node25" class="node"><title>Node25</title>
<g id="a_node25"><a xlink:href="_matrix22_8h.html" target="_top" xlink:title="cinder/Matrix22.h">
<polygon fill="white" stroke="black" points="597.65,-233 597.65,-253 690.35,-253 690.35,-233 597.65,-233"/>
<text text-anchor="middle" x="644" y="-239" font-family="Helvetica,sans-Serif" font-size="10.00">cinder/Matrix22.h</text>
</a>
</g>
</g>
<!-- Node24&#45;&gt;Node25 -->
<g id="edge34" class="edge"><title>Node24&#45;&gt;Node25</title>
<path fill="none" stroke="midnightblue" d="M548.924,-406.987C569.66,-400.114 594.422,-388.579 610,-370 635.985,-339.009 642.263,-289.977 643.683,-263.13"/>
<polygon fill="midnightblue" stroke="midnightblue" points="647.182,-263.217 644.037,-253.1 640.186,-262.97 647.182,-263.217"/>
</g>
<!-- Node27 -->
<g id="node27" class="node"><title>Node27</title>
<g id="a_node27"><a xlink:href="_matrix_affine2_8h.html" target="_top" xlink:title="cinder/MatrixAffine2.h">
<polygon fill="white" stroke="black" points="280.646,-233 280.646,-253 393.354,-253 393.354,-233 280.646,-233"/>
<text text-anchor="middle" x="337" y="-239" font-family="Helvetica,sans-Serif" font-size="10.00">cinder/MatrixAffine2.h</text>
</a>
</g>
</g>
<!-- Node24&#45;&gt;Node27 -->
<g id="edge39" class="edge"><title>Node24&#45;&gt;Node27</title>
<path fill="none" stroke="midnightblue" d="M502.591,-406.753C474.342,-378.988 389.988,-296.079 353.795,-260.507"/>
<polygon fill="midnightblue" stroke="midnightblue" points="356.041,-257.807 346.455,-253.293 351.134,-262.799 356.041,-257.807"/>
</g>
<!-- Node28 -->
<g id="node28" class="node"><title>Node28</title>
<g id="a_node28"><a xlink:href="_matrix33_8h.html" target="_top" xlink:title="cinder/Matrix33.h">
<polygon fill="white" stroke="black" points="411.65,-233 411.65,-253 504.35,-253 504.35,-233 411.65,-233"/>
<text text-anchor="middle" x="458" y="-239" font-family="Helvetica,sans-Serif" font-size="10.00">cinder/Matrix33.h</text>
</a>
</g>
</g>
<!-- Node24&#45;&gt;Node28 -->
<g id="edge44" class="edge"><title>Node24&#45;&gt;Node28</title>
<path fill="none" stroke="midnightblue" d="M505.938,-406.739C500.124,-397.625 491.32,-383.196 485,-370 473.091,-345.135 468.962,-338.918 463,-312 459.44,-295.928 458.272,-277.252 457.948,-263.543"/>
<polygon fill="midnightblue" stroke="midnightblue" points="461.446,-263.324 457.841,-253.362 454.447,-263.399 461.446,-263.324"/>
</g>
<!-- Node29 -->
<g id="node29" class="node"><title>Node29</title>
<g id="a_node29"><a xlink:href="_matrix44_8h.html" target="_top" xlink:title="cinder/Matrix44.h">
<polygon fill="white" stroke="black" points="485.65,-291 485.65,-311 578.35,-311 578.35,-291 485.65,-291"/>
<text text-anchor="middle" x="532" y="-297" font-family="Helvetica,sans-Serif" font-size="10.00">cinder/Matrix44.h</text>
</a>
</g>
</g>
<!-- Node24&#45;&gt;Node29 -->
<g id="edge49" class="edge"><title>Node24&#45;&gt;Node29</title>
<path fill="none" stroke="midnightblue" d="M505.159,-406.632C496.381,-393.399 483.17,-368.552 491,-348 495.387,-336.485 504.127,-326.019 512.414,-317.99"/>
<polygon fill="midnightblue" stroke="midnightblue" points="514.987,-320.383 520.064,-311.084 510.296,-315.187 514.987,-320.383"/>
</g>
<!-- Node30 -->
<g id="node30" class="node"><title>Node30</title>
<g id="a_node30"><a xlink:href="_matrix_algo_8h.html" target="_top" xlink:title="cinder/MatrixAlgo.h">
<polygon fill="white" stroke="black" points="500.205,-349 500.205,-369 601.795,-369 601.795,-349 500.205,-349"/>
<text text-anchor="middle" x="551" y="-355" font-family="Helvetica,sans-Serif" font-size="10.00">cinder/MatrixAlgo.h</text>
</a>
</g>
</g>
<!-- Node24&#45;&gt;Node30 -->
<g id="edge57" class="edge"><title>Node24&#45;&gt;Node30</title>
<path fill="none" stroke="midnightblue" d="M518.44,-406.753C523.949,-398.843 532.031,-387.237 538.765,-377.568"/>
<polygon fill="midnightblue" stroke="midnightblue" points="541.837,-379.282 544.68,-369.075 536.093,-375.281 541.837,-379.282"/>
</g>
<!-- Node25&#45;&gt;Node2 -->
<g id="edge35" class="edge"><title>Node25&#45;&gt;Node2</title>
<path fill="none" stroke="midnightblue" d="M641.531,-232.667C634.607,-208.541 612.533,-144.039 568,-116 525.198,-89.0512 382.578,-77.1232 304.753,-72.5129"/>
<polygon fill="midnightblue" stroke="midnightblue" points="304.862,-69.0134 294.678,-71.9355 304.461,-76.002 304.862,-69.0134"/>
</g>
<!-- Node25&#45;&gt;Node7 -->
<g id="edge36" class="edge"><title>Node25&#45;&gt;Node7</title>
<path fill="none" stroke="midnightblue" d="M650.792,-232.671C664.662,-213.621 696.43,-169.987 714.261,-145.497"/>
<polygon fill="midnightblue" stroke="midnightblue" points="717.289,-147.284 720.346,-137.139 711.63,-143.164 717.289,-147.284"/>
</g>
<!-- Node25&#45;&gt;Node19 -->
<g id="edge37" class="edge"><title>Node25&#45;&gt;Node19</title>
<path fill="none" stroke="midnightblue" d="M606.467,-232.94C566.372,-223.262 502.732,-207.901 459.252,-197.406"/>
<polygon fill="midnightblue" stroke="midnightblue" points="460.021,-193.991 449.479,-195.047 458.378,-200.795 460.021,-193.991"/>
</g>
<!-- Node26 -->
<g id="node26" class="node"><title>Node26</title>
<polygon fill="white" stroke="#bfbfbf" points="547.49,-175 547.49,-195 598.51,-195 598.51,-175 547.49,-175"/>
<text text-anchor="middle" x="573" y="-181" font-family="Helvetica,sans-Serif" font-size="10.00">iomanip</text>
</g>
<!-- Node25&#45;&gt;Node26 -->
<g id="edge38" class="edge"><title>Node25&#45;&gt;Node26</title>
<path fill="none" stroke="midnightblue" d="M632.276,-232.753C621.523,-224.272 605.385,-211.543 592.661,-201.507"/>
<polygon fill="midnightblue" stroke="midnightblue" points="594.525,-198.52 584.506,-195.075 590.19,-204.016 594.525,-198.52"/>
</g>
<!-- Node27&#45;&gt;Node2 -->
<g id="edge40" class="edge"><title>Node27&#45;&gt;Node2</title>
<path fill="none" stroke="midnightblue" d="M318.857,-232.855C305.158,-224.98 287.057,-212.313 277,-196 256.335,-162.481 252.768,-115.149 252.537,-89.0803"/>
<polygon fill="midnightblue" stroke="midnightblue" points="256.038,-89.0427 252.61,-79.0177 249.038,-88.9922 256.038,-89.0427"/>
</g>
<!-- Node27&#45;&gt;Node7 -->
<g id="edge41" class="edge"><title>Node27&#45;&gt;Node7</title>
<path fill="none" stroke="midnightblue" d="M365.251,-232.867C390.884,-224.284 429.521,-210.604 462,-196 480.861,-187.519 483.556,-181.043 503,-174 555.575,-154.957 618.103,-142.944 663.719,-135.99"/>
<polygon fill="midnightblue" stroke="midnightblue" points="664.389,-139.429 673.766,-134.498 663.361,-132.504 664.389,-139.429"/>
</g>
<!-- Node27&#45;&gt;Node19 -->
<g id="edge42" class="edge"><title>Node27&#45;&gt;Node19</title>
<path fill="none" stroke="midnightblue" d="M349.385,-232.753C360.852,-224.19 378.119,-211.298 391.618,-201.219"/>
<polygon fill="midnightblue" stroke="midnightblue" points="393.927,-203.863 399.846,-195.075 389.739,-198.254 393.927,-203.863"/>
</g>
<!-- Node27&#45;&gt;Node26 -->
<g id="edge43" class="edge"><title>Node27&#45;&gt;Node26</title>
<path fill="none" stroke="midnightblue" d="M375.18,-232.94C419.987,-222.308 493.7,-204.817 537.373,-194.454"/>
<polygon fill="midnightblue" stroke="midnightblue" points="538.345,-197.82 547.267,-192.106 536.729,-191.01 538.345,-197.82"/>
</g>
<!-- Node28&#45;&gt;Node2 -->
<g id="edge45" class="edge"><title>Node28&#45;&gt;Node2</title>
<path fill="none" stroke="midnightblue" d="M432.431,-232.947C412.163,-225.046 383.736,-212.298 362,-196 319.954,-164.475 282.687,-114.231 264.593,-87.7184"/>
<polygon fill="midnightblue" stroke="midnightblue" points="267.295,-85.4628 258.821,-79.1028 261.479,-89.3588 267.295,-85.4628"/>
</g>
<!-- Node28&#45;&gt;Node7 -->
<g id="edge46" class="edge"><title>Node28&#45;&gt;Node7</title>
<path fill="none" stroke="midnightblue" d="M465.898,-232.983C479.251,-218.321 507.797,-189.404 538,-174 577.353,-153.93 625.836,-142.36 663.845,-135.844"/>
<polygon fill="midnightblue" stroke="midnightblue" points="664.468,-139.288 673.769,-134.215 663.334,-132.381 664.468,-139.288"/>
</g>
<!-- Node28&#45;&gt;Node19 -->
<g id="edge47" class="edge"><title>Node28&#45;&gt;Node19</title>
<path fill="none" stroke="midnightblue" d="M450.404,-232.753C443.773,-224.68 433.979,-212.757 425.942,-202.973"/>
<polygon fill="midnightblue" stroke="midnightblue" points="428.507,-200.581 419.455,-195.075 423.098,-205.024 428.507,-200.581"/>
</g>
<!-- Node28&#45;&gt;Node26 -->
<g id="edge48" class="edge"><title>Node28&#45;&gt;Node26</title>
<path fill="none" stroke="midnightblue" d="M476.733,-232.878C495.277,-223.847 523.893,-209.913 545.11,-199.581"/>
<polygon fill="midnightblue" stroke="midnightblue" points="546.817,-202.643 554.275,-195.118 543.752,-196.349 546.817,-202.643"/>
</g>
<!-- Node29&#45;&gt;Node2 -->
<g id="edge50" class="edge"><title>Node29&#45;&gt;Node2</title>
<path fill="none" stroke="midnightblue" d="M485.452,-297.959C418.941,-294.047 301.474,-283.113 272,-254 227.69,-210.232 239.611,-127.179 247.996,-89.4822"/>
<polygon fill="midnightblue" stroke="midnightblue" points="251.501,-89.8724 250.418,-79.333 244.692,-88.2472 251.501,-89.8724"/>
</g>
<!-- Node29&#45;&gt;Node7 -->
<g id="edge51" class="edge"><title>Node29&#45;&gt;Node7</title>
<path fill="none" stroke="midnightblue" d="M578.573,-299.655C616.267,-296.793 668.016,-286.577 699,-254 726.701,-224.874 729.33,-174.704 728.421,-147.279"/>
<polygon fill="midnightblue" stroke="midnightblue" points="731.904,-146.847 727.878,-137.046 724.913,-147.218 731.904,-146.847"/>
</g>
<!-- Node29&#45;&gt;Node19 -->
<g id="edge52" class="edge"><title>Node29&#45;&gt;Node19</title>
<path fill="none" stroke="midnightblue" d="M531.817,-290.955C531.065,-276.767 527.666,-249.134 513,-232 499.45,-216.17 479.323,-205.505 460.595,-198.467"/>
<polygon fill="midnightblue" stroke="midnightblue" points="461.565,-195.098 450.97,-195.108 459.259,-201.708 461.565,-195.098"/>
</g>
<!-- Node29&#45;&gt;Node25 -->
<g id="edge53" class="edge"><title>Node29&#45;&gt;Node25</title>
<path fill="none" stroke="midnightblue" d="M550.495,-290.753C568.516,-281.742 596.129,-267.935 616.682,-257.659"/>
<polygon fill="midnightblue" stroke="midnightblue" points="618.471,-260.678 625.85,-253.075 615.34,-254.417 618.471,-260.678"/>
</g>
<!-- Node29&#45;&gt;Node28 -->
<g id="edge54" class="edge"><title>Node29&#45;&gt;Node28</title>
<path fill="none" stroke="midnightblue" d="M519.78,-290.753C508.466,-282.19 491.429,-269.298 478.11,-259.219"/>
<polygon fill="midnightblue" stroke="midnightblue" points="480.078,-256.319 469.992,-253.075 475.854,-261.901 480.078,-256.319"/>
</g>
<!-- Node29&#45;&gt;Node27 -->
<g id="edge55" class="edge"><title>Node29&#45;&gt;Node27</title>
<path fill="none" stroke="midnightblue" d="M500.236,-290.878C466.992,-281.331 414.663,-266.303 378.247,-255.845"/>
<polygon fill="midnightblue" stroke="midnightblue" points="379.005,-252.422 368.427,-253.025 377.073,-259.15 379.005,-252.422"/>
</g>
<!-- Node29&#45;&gt;Node26 -->
<g id="edge56" class="edge"><title>Node29&#45;&gt;Node26</title>
<path fill="none" stroke="midnightblue" d="M535.355,-290.671C542.086,-271.957 557.349,-229.517 566.235,-204.809"/>
<polygon fill="midnightblue" stroke="midnightblue" points="569.622,-205.734 569.713,-195.139 563.035,-203.365 569.622,-205.734"/>
</g>
<!-- Node30&#45;&gt;Node25 -->
<g id="edge58" class="edge"><title>Node30&#45;&gt;Node25</title>
<path fill="none" stroke="midnightblue" d="M558.611,-348.671C574.22,-329.537 610.061,-285.602 629.989,-261.175"/>
<polygon fill="midnightblue" stroke="midnightblue" points="632.935,-263.101 636.544,-253.139 627.511,-258.676 632.935,-263.101"/>
</g>
<!-- Node30&#45;&gt;Node28 -->
<g id="edge59" class="edge"><title>Node30&#45;&gt;Node28</title>
<path fill="none" stroke="midnightblue" d="M527.714,-348.981C511.248,-341.458 489.889,-329.184 477,-312 466.333,-297.778 461.654,-277.846 459.602,-263.238"/>
<polygon fill="midnightblue" stroke="midnightblue" points="463.079,-262.836 458.489,-253.287 456.123,-263.614 463.079,-262.836"/>
</g>
<!-- Node30&#45;&gt;Node29 -->
<g id="edge60" class="edge"><title>Node30&#45;&gt;Node29</title>
<path fill="none" stroke="midnightblue" d="M547.863,-348.753C545.289,-341.169 541.564,-330.188 538.37,-320.774"/>
<polygon fill="midnightblue" stroke="midnightblue" points="541.607,-319.42 535.079,-311.075 534.978,-321.67 541.607,-319.42"/>
</g>
</g>
</svg>
        <g id="navigator" transform="translate(0 0)" fill="#404254">
                <rect fill="#f2f5e9" fill-opacity="0.5" stroke="#606060" stroke-width=".5" x="0" y="0" width="60" height="60"/>
                <use id="zoomplus" xlink:href="#zoomPlus" x="17" y="9" onmousedown="handleZoom(evt,'in')"/>
                <use id="zoomminus" xlink:href="#zoomMin" x="42" y="9" onmousedown="handleZoom(evt,'out')"/>
                <use id="reset" xlink:href="#resetDef" x="30" y="36" onmousedown="handleReset()"/>
                <g id="arrowUp" xlink:href="#dirArrow" transform="translate(30 24)" onmousedown="handlePan(0,-1)">
                  <use xlink:href="#rim" fill="#404040">
                        <set attributeName="fill" to="#808080" begin="arrowUp.mouseover" end="arrowUp.mouseout"/>
                  </use>
                  <path fill="none" stroke="white" stroke-width="1.5" d="M0,-3.0v7 M-2.5,-0.5L0,-3.0L2.5,-0.5"/>
                </g>
                <g id="arrowRight" xlink:href="#dirArrow" transform="rotate(90) translate(36 -43)" onmousedown="handlePan(1,0)">
                  <use xlink:href="#rim" fill="#404040">
                        <set attributeName="fill" to="#808080" begin="arrowRight.mouseover" end="arrowRight.mouseout"/>
                  </use>
                  <path fill="none" stroke="white" stroke-width="1.5" d="M0,-3.0v7 M-2.5,-0.5L0,-3.0L2.5,-0.5"/>
                </g>
                <g id="arrowDown" xlink:href="#dirArrow" transform="rotate(180) translate(-30 -48)" onmousedown="handlePan(0,1)">
                  <use xlink:href="#rim" fill="#404040">
                        <set attributeName="fill" to="#808080" begin="arrowDown.mouseover" end="arrowDown.mouseout"/>
                  </use>
                  <path fill="none" stroke="white" stroke-width="1.5" d="M0,-3.0v7 M-2.5,-0.5L0,-3.0L2.5,-0.5"/>
                </g>
                <g id="arrowLeft" xlink:href="#dirArrow" transform="rotate(270) translate(-36 17)" onmousedown="handlePan(-1,0)">
                  <use xlink:href="#rim" fill="#404040">
                        <set attributeName="fill" to="#808080" begin="arrowLeft.mouseover" end="arrowLeft.mouseout"/>
                  </use>
                  <path fill="none" stroke="white" stroke-width="1.5" d="M0,-3.0v7 M-2.5,-0.5L0,-3.0L2.5,-0.5"/>
                </g>
        </g>
        <svg viewBox="0 0 15 15" width="100%" height="30px" preserveAspectRatio="xMaxYMin meet">
         <g id="arrow_out" transform="scale(0.3 0.3)">
          <a xlink:href="_tween_8h__incl_org.svg" target="_base">
           <rect id="button" ry="5" rx="5" y="6" x="6" height="38" width="38"
                fill="#f2f5e9" fill-opacity="0.5" stroke="#606060" stroke-width="1.0"/>
           <path id="arrow"
             d="M 11.500037,31.436501 C 11.940474,20.09759 22.043105,11.32322 32.158766,21.979434 L 37.068811,17.246167 C 37.068811,17.246167 37.088388,32 37.088388,32 L 22.160133,31.978069 C 22.160133,31.978069 26.997745,27.140456 26.997745,27.140456 C 18.528582,18.264221 13.291696,25.230495 11.500037,31.436501 z"
             style="fill:#404040;"/>
          </a>
         </g>
        </svg>
</svg>
