<?xml version="1.0" encoding="UTF-8" standalone="no"?>
<!DOCTYPE svg PUBLIC "-//W3C//DTD SVG 1.1//EN"
 "http://www.w3.org/Graphics/SVG/1.1/DTD/svg11.dtd">
<!-- Generated by graphviz version 2.30.1 (20140712.1814)
 -->
<!-- Title: src/cinder/Tween.cpp Pages: 1 -->
<svg width="1025pt" height="668pt"
 viewBox="0.00 0.00 1025.00 668.00" xmlns="http://www.w3.org/2000/svg" xmlns:xlink="http://www.w3.org/1999/xlink">
<g id="graph0" class="graph" transform="scale(1 1) rotate(0) translate(4 664)">
<title>src/cinder/Tween.cpp</title>
<polygon fill="white" stroke="white" points="-4,5 -4,-664 1022,-664 1022,5 -4,5"/>
<!-- Node1 -->
<g id="node1" class="node"><title>Node1</title>
<polygon fill="#bfbfbf" stroke="black" points="604.754,-639 604.754,-659 715.246,-659 715.246,-639 604.754,-639"/>
<text text-anchor="middle" x="660" y="-645" font-family="Helvetica,sans-Serif" font-size="10.00">src/cinder/Tween.cpp</text>
</g>
<!-- Node2 -->
<g id="node2" class="node"><title>Node2</title>
<g id="a_node2"><a xlink:href="_tween_8h.html" target="_top" xlink:title="cinder/Tween.h">
<polygon fill="white" stroke="black" points="550.089,-523 550.089,-543 633.911,-543 633.911,-523 550.089,-523"/>
<text text-anchor="middle" x="592" y="-529" font-family="Helvetica,sans-Serif" font-size="10.00">cinder/Tween.h</text>
</a>
</g>
</g>
<!-- Node1&#45;&gt;Node2 -->
<g id="edge1" class="edge"><title>Node1&#45;&gt;Node2</title>
<path fill="none" stroke="midnightblue" d="M654.435,-638.671C643.122,-619.705 617.274,-576.371 602.631,-551.822"/>
<polygon fill="midnightblue" stroke="midnightblue" points="605.58,-549.935 597.452,-543.139 599.569,-553.521 605.58,-549.935"/>
</g>
<!-- Node33 -->
<g id="node33" class="node"><title>Node33</title>
<g id="a_node33"><a xlink:href="_timeline_8h.html" target="_top" xlink:title="cinder/Timeline.h">
<polygon fill="white" stroke="black" points="662.112,-581 662.112,-601 753.888,-601 753.888,-581 662.112,-581"/>
<text text-anchor="middle" x="708" y="-587" font-family="Helvetica,sans-Serif" font-size="10.00">cinder/Timeline.h</text>
</a>
</g>
</g>
<!-- Node1&#45;&gt;Node33 -->
<g id="edge63" class="edge"><title>Node1&#45;&gt;Node33</title>
<path fill="none" stroke="midnightblue" d="M667.926,-638.753C674.916,-630.598 685.272,-618.516 693.706,-608.677"/>
<polygon fill="midnightblue" stroke="midnightblue" points="696.371,-610.946 700.221,-601.075 691.056,-606.39 696.371,-610.946"/>
</g>
<!-- Node3 -->
<g id="node3" class="node"><title>Node3</title>
<g id="a_node3"><a xlink:href="_cinder_8h.html" target="_top" xlink:title="cinder/Cinder.h">
<polygon fill="white" stroke="black" points="669.367,-59 669.367,-79 752.633,-79 752.633,-59 669.367,-59"/>
<text text-anchor="middle" x="711" y="-65" font-family="Helvetica,sans-Serif" font-size="10.00">cinder/Cinder.h</text>
</a>
</g>
</g>
<!-- Node2&#45;&gt;Node3 -->
<g id="edge2" class="edge"><title>Node2&#45;&gt;Node3</title>
<path fill="none" stroke="midnightblue" d="M590.859,-522.809C588.596,-500.605 585.747,-443.135 611,-406 628.918,-379.651 646.237,-387.293 673,-370 716.612,-341.821 768,-353.924 768,-302 768,-302 768,-302 768,-184 768,-146.27 742.714,-108.228 725.825,-87.0265"/>
<polygon fill="midnightblue" stroke="midnightblue" points="728.48,-84.7446 719.411,-79.2673 723.085,-89.2048 728.48,-84.7446"/>
</g>
<!-- Node7 -->
<g id="node7" class="node"><title>Node7</title>
<g id="a_node7"><a xlink:href="_timeline_item_8h.html" target="_top" xlink:title="cinder/TimelineItem.h">
<polygon fill="white" stroke="black" points="828.388,-465 828.388,-485 939.612,-485 939.612,-465 828.388,-465"/>
<text text-anchor="middle" x="884" y="-471" font-family="Helvetica,sans-Serif" font-size="10.00">cinder/TimelineItem.h</text>
</a>
</g>
</g>
<!-- Node2&#45;&gt;Node7 -->
<g id="edge6" class="edge"><title>Node2&#45;&gt;Node7</title>
<path fill="none" stroke="midnightblue" d="M634.147,-523.917C684.954,-514.173 770.547,-497.758 827.159,-486.901"/>
<polygon fill="midnightblue" stroke="midnightblue" points="827.867,-490.329 837.029,-485.008 826.549,-483.454 827.867,-490.329"/>
</g>
<!-- Node8 -->
<g id="node8" class="node"><title>Node8</title>
<g id="a_node8"><a xlink:href="_cinder_math_8h.html" target="_top" xlink:title="cinder/CinderMath.h">
<polygon fill="white" stroke="black" points="139.978,-117 139.978,-137 246.022,-137 246.022,-117 139.978,-117"/>
<text text-anchor="middle" x="193" y="-123" font-family="Helvetica,sans-Serif" font-size="10.00">cinder/CinderMath.h</text>
</a>
</g>
</g>
<!-- Node2&#45;&gt;Node8 -->
<g id="edge8" class="edge"><title>Node2&#45;&gt;Node8</title>
<path fill="none" stroke="midnightblue" d="M549.899,-528.366C414.652,-516.134 0,-474.062 0,-418 0,-418 0,-418 0,-242 0,-180.508 73.5295,-151.495 129.818,-138.293"/>
<polygon fill="midnightblue" stroke="midnightblue" points="130.75,-141.671 139.751,-136.082 129.229,-134.838 130.75,-141.671"/>
</g>
<!-- Node13 -->
<g id="node13" class="node"><title>Node13</title>
<g id="a_node13"><a xlink:href="_easing_8h.html" target="_top" xlink:title="cinder/Easing.h">
<polygon fill="white" stroke="black" points="357.535,-465 357.535,-485 442.465,-485 442.465,-465 357.535,-465"/>
<text text-anchor="middle" x="400" y="-471" font-family="Helvetica,sans-Serif" font-size="10.00">cinder/Easing.h</text>
</a>
</g>
</g>
<!-- Node2&#45;&gt;Node13 -->
<g id="edge14" class="edge"><title>Node2&#45;&gt;Node13</title>
<path fill="none" stroke="midnightblue" d="M560.725,-522.878C527.992,-513.331 476.469,-498.303 440.613,-487.845"/>
<polygon fill="midnightblue" stroke="midnightblue" points="441.524,-484.465 430.944,-485.025 439.564,-491.185 441.524,-484.465"/>
</g>
<!-- Node14 -->
<g id="node14" class="node"><title>Node14</title>
<g id="a_node14"><a xlink:href="_function_8h.html" target="_top" xlink:title="cinder/Function.h">
<polygon fill="white" stroke="black" points="679.646,-465 679.646,-485 772.354,-485 772.354,-465 679.646,-465"/>
<text text-anchor="middle" x="726" y="-471" font-family="Helvetica,sans-Serif" font-size="10.00">cinder/Function.h</text>
</a>
</g>
</g>
<!-- Node2&#45;&gt;Node14 -->
<g id="edge16" class="edge"><title>Node2&#45;&gt;Node14</title>
<path fill="none" stroke="midnightblue" d="M613.828,-522.878C635.826,-513.685 669.984,-499.409 694.83,-489.026"/>
<polygon fill="midnightblue" stroke="midnightblue" points="696.305,-492.203 704.182,-485.118 693.605,-485.745 696.305,-492.203"/>
</g>
<!-- Node19 -->
<g id="node19" class="node"><title>Node19</title>
<g id="a_node19"><a xlink:href="_quaternion_8h.html" target="_top" xlink:title="cinder/Quaternion.h">
<polygon fill="white" stroke="black" points="460.084,-465 460.084,-485 563.916,-485 563.916,-465 460.084,-465"/>
<text text-anchor="middle" x="512" y="-471" font-family="Helvetica,sans-Serif" font-size="10.00">cinder/Quaternion.h</text>
</a>
</g>
</g>
<!-- Node2&#45;&gt;Node19 -->
<g id="edge23" class="edge"><title>Node2&#45;&gt;Node19</title>
<path fill="none" stroke="midnightblue" d="M578.79,-522.753C566.441,-514.109 547.788,-501.052 533.331,-490.931"/>
<polygon fill="midnightblue" stroke="midnightblue" points="535.164,-487.943 524.965,-485.075 531.15,-493.677 535.164,-487.943"/>
</g>
<!-- Node32 -->
<g id="node32" class="node"><title>Node32</title>
<polygon fill="white" stroke="#bfbfbf" points="626.5,-465 626.5,-485 655.5,-485 655.5,-465 626.5,-465"/>
<text text-anchor="middle" x="640.611" y="-471" font-family="Helvetica,sans-Serif" font-size="10.00">list</text>
</g>
<!-- Node2&#45;&gt;Node32 -->
<g id="edge62" class="edge"><title>Node2&#45;&gt;Node32</title>
<path fill="none" stroke="midnightblue" d="M600.091,-522.753C607.227,-514.598 617.799,-502.516 626.408,-492.677"/>
<polygon fill="midnightblue" stroke="midnightblue" points="629.108,-494.906 633.059,-485.075 623.84,-490.296 629.108,-494.906"/>
</g>
<!-- Node4 -->
<g id="node4" class="node"><title>Node4</title>
<polygon fill="white" stroke="#bfbfbf" points="600.549,-1 600.549,-21 645.451,-21 645.451,-1 600.549,-1"/>
<text text-anchor="middle" x="623" y="-7" font-family="Helvetica,sans-Serif" font-size="10.00">cstdint</text>
</g>
<!-- Node3&#45;&gt;Node4 -->
<g id="edge3" class="edge"><title>Node3&#45;&gt;Node4</title>
<path fill="none" stroke="midnightblue" d="M696.469,-58.7527C682.757,-50.0272 661.979,-36.8051 646.015,-26.6458"/>
<polygon fill="midnightblue" stroke="midnightblue" points="647.577,-23.4912 637.261,-21.0752 643.819,-29.3968 647.577,-23.4912"/>
</g>
<!-- Node5 -->
<g id="node5" class="node"><title>Node5</title>
<polygon fill="white" stroke="#bfbfbf" points="663.53,-1 663.53,-21 758.47,-21 758.47,-1 663.53,-1"/>
<text text-anchor="middle" x="711" y="-7" font-family="Helvetica,sans-Serif" font-size="10.00">boost/version.hpp</text>
</g>
<!-- Node3&#45;&gt;Node5 -->
<g id="edge4" class="edge"><title>Node3&#45;&gt;Node5</title>
<path fill="none" stroke="midnightblue" d="M711,-58.7527C711,-51.2504 711,-40.4238 711,-31.0781"/>
<polygon fill="midnightblue" stroke="midnightblue" points="714.5,-31.0752 711,-21.0752 707.5,-31.0752 714.5,-31.0752"/>
</g>
<!-- Node6 -->
<g id="node6" class="node"><title>Node6</title>
<polygon fill="white" stroke="#bfbfbf" points="776.621,-1 776.621,-21 909.379,-21 909.379,-1 776.621,-1"/>
<text text-anchor="middle" x="843" y="-7" font-family="Helvetica,sans-Serif" font-size="10.00">boost/checked_delete.hpp</text>
</g>
<!-- Node3&#45;&gt;Node6 -->
<g id="edge5" class="edge"><title>Node3&#45;&gt;Node6</title>
<path fill="none" stroke="midnightblue" d="M732.502,-58.878C754.172,-49.6848 787.821,-35.4095 812.295,-25.0263"/>
<polygon fill="midnightblue" stroke="midnightblue" points="813.668,-28.2457 821.507,-21.1181 810.935,-21.8016 813.668,-28.2457"/>
</g>
<!-- Node7&#45;&gt;Node3 -->
<g id="edge7" class="edge"><title>Node7&#45;&gt;Node3</title>
<path fill="none" stroke="midnightblue" d="M907.881,-464.845C924.486,-457.32 945.909,-445.102 959,-428 978.148,-402.985 979,-391.502 979,-360 979,-360 979,-360 979,-184 979,-91.0918 840.927,-72.825 762.991,-69.9146"/>
<polygon fill="midnightblue" stroke="midnightblue" points="762.976,-66.4127 752.875,-69.6101 762.765,-73.4095 762.976,-66.4127"/>
</g>
<!-- Node8&#45;&gt;Node3 -->
<g id="edge9" class="edge"><title>Node8&#45;&gt;Node3</title>
<path fill="none" stroke="midnightblue" d="M246.053,-117.967C251.101,-117.272 256.145,-116.605 261,-116 405.008,-98.0596 575.591,-82.0508 659.345,-74.533"/>
<polygon fill="midnightblue" stroke="midnightblue" points="659.715,-78.014 669.364,-73.6371 659.092,-71.0418 659.715,-78.014"/>
</g>
<!-- Node9 -->
<g id="node9" class="node"><title>Node9</title>
<polygon fill="white" stroke="#bfbfbf" points="293.384,-59 293.384,-79 336.616,-79 336.616,-59 293.384,-59"/>
<text text-anchor="middle" x="315" y="-65" font-family="Helvetica,sans-Serif" font-size="10.00">cmath</text>
</g>
<!-- Node8&#45;&gt;Node9 -->
<g id="edge10" class="edge"><title>Node8&#45;&gt;Node9</title>
<path fill="none" stroke="midnightblue" d="M212.873,-116.878C232.724,-107.766 263.451,-93.6617 286.019,-83.3028"/>
<polygon fill="midnightblue" stroke="midnightblue" points="287.507,-86.4707 295.136,-79.1181 284.587,-80.1089 287.507,-86.4707"/>
</g>
<!-- Node10 -->
<g id="node10" class="node"><title>Node10</title>
<polygon fill="white" stroke="#bfbfbf" points="230.113,-59 230.113,-79 273.887,-79 273.887,-59 230.113,-59"/>
<text text-anchor="middle" x="252" y="-65" font-family="Helvetica,sans-Serif" font-size="10.00">climits</text>
</g>
<!-- Node8&#45;&gt;Node10 -->
<g id="edge11" class="edge"><title>Node8&#45;&gt;Node10</title>
<path fill="none" stroke="midnightblue" d="M202.743,-116.753C211.506,-108.435 224.575,-96.031 235.049,-86.0893"/>
<polygon fill="midnightblue" stroke="midnightblue" points="237.595,-88.4981 242.439,-79.0752 232.776,-83.4209 237.595,-88.4981"/>
</g>
<!-- Node11 -->
<g id="node11" class="node"><title>Node11</title>
<polygon fill="white" stroke="#bfbfbf" points="172.049,-59 172.049,-79 211.951,-79 211.951,-59 172.049,-59"/>
<text text-anchor="middle" x="192" y="-65" font-family="Helvetica,sans-Serif" font-size="10.00">cfloat</text>
</g>
<!-- Node8&#45;&gt;Node11 -->
<g id="edge12" class="edge"><title>Node8&#45;&gt;Node11</title>
<path fill="none" stroke="midnightblue" d="M192.835,-116.753C192.701,-109.25 192.508,-98.4238 192.341,-89.0781"/>
<polygon fill="midnightblue" stroke="midnightblue" points="195.84,-89.0111 192.162,-79.0752 188.841,-89.1361 195.84,-89.0111"/>
</g>
<!-- Node12 -->
<g id="node12" class="node"><title>Node12</title>
<polygon fill="white" stroke="#bfbfbf" points="71.5962,-59 71.5962,-79 130.404,-79 130.404,-59 71.5962,-59"/>
<text text-anchor="middle" x="101" y="-65" font-family="Helvetica,sans-Serif" font-size="10.00">functional</text>
</g>
<!-- Node8&#45;&gt;Node12 -->
<g id="edge13" class="edge"><title>Node8&#45;&gt;Node12</title>
<path fill="none" stroke="midnightblue" d="M177.808,-116.753C163.339,-107.946 141.345,-94.5575 124.594,-84.3617"/>
<polygon fill="midnightblue" stroke="midnightblue" points="126.271,-81.285 115.909,-79.0752 122.631,-87.2644 126.271,-81.285"/>
</g>
<!-- Node13&#45;&gt;Node8 -->
<g id="edge15" class="edge"><title>Node13&#45;&gt;Node8</title>
<path fill="none" stroke="midnightblue" d="M357.33,-472.908C290.399,-470.194 165.508,-460.758 138,-428 66.6631,-343.047 148.917,-196.227 181.153,-145.691"/>
<polygon fill="midnightblue" stroke="midnightblue" points="184.184,-147.452 186.708,-137.162 178.318,-143.631 184.184,-147.452"/>
</g>
<!-- Node14&#45;&gt;Node3 -->
<g id="edge17" class="edge"><title>Node14&#45;&gt;Node3</title>
<path fill="none" stroke="midnightblue" d="M764.019,-464.993C798.437,-456.124 845.718,-441.921 859,-428 880.747,-405.208 879,-391.502 879,-360 879,-360 879,-360 879,-184 879,-127.117 812.237,-96.6477 762.885,-81.8957"/>
<polygon fill="midnightblue" stroke="midnightblue" points="763.537,-78.4421 752.96,-79.067 761.618,-85.174 763.537,-78.4421"/>
</g>
<!-- Node15 -->
<g id="node15" class="node"><title>Node15</title>
<polygon fill="white" stroke="#bfbfbf" points="793.436,-407 793.436,-427 850.564,-427 850.564,-407 793.436,-407"/>
<text text-anchor="middle" x="822" y="-413" font-family="Helvetica,sans-Serif" font-size="10.00">algorithm</text>
</g>
<!-- Node14&#45;&gt;Node15 -->
<g id="edge18" class="edge"><title>Node14&#45;&gt;Node15</title>
<path fill="none" stroke="midnightblue" d="M741.852,-464.753C756.95,-455.946 779.901,-442.558 797.38,-432.362"/>
<polygon fill="midnightblue" stroke="midnightblue" points="799.568,-435.137 806.443,-427.075 796.041,-429.091 799.568,-435.137"/>
</g>
<!-- Node16 -->
<g id="node16" class="node"><title>Node16</title>
<polygon fill="white" stroke="#bfbfbf" points="907.384,-407 907.384,-427 950.616,-427 950.616,-407 907.384,-407"/>
<text text-anchor="middle" x="929" y="-413" font-family="Helvetica,sans-Serif" font-size="10.00">vector</text>
</g>
<!-- Node14&#45;&gt;Node16 -->
<g id="edge19" class="edge"><title>Node14&#45;&gt;Node16</title>
<path fill="none" stroke="midnightblue" d="M758.96,-464.944C792.649,-455.682 846.48,-440.868 893,-428 894.446,-427.6 895.924,-427.191 897.417,-426.777"/>
<polygon fill="midnightblue" stroke="midnightblue" points="898.599,-430.081 907.3,-424.036 896.728,-423.336 898.599,-430.081"/>
</g>
<!-- Node17 -->
<g id="node17" class="node"><title>Node17</title>
<polygon fill="white" stroke="#bfbfbf" points="619.608,-407 619.608,-427 658.392,-427 658.392,-407 619.608,-407"/>
<text text-anchor="middle" x="639" y="-413" font-family="Helvetica,sans-Serif" font-size="10.00">utility</text>
</g>
<!-- Node14&#45;&gt;Node17 -->
<g id="edge20" class="edge"><title>Node14&#45;&gt;Node17</title>
<path fill="none" stroke="midnightblue" d="M711.634,-464.753C698.078,-456.027 677.536,-442.805 661.753,-432.646"/>
<polygon fill="midnightblue" stroke="midnightblue" points="663.402,-429.545 653.099,-427.075 659.613,-435.431 663.402,-429.545"/>
</g>
<!-- Node18 -->
<g id="node18" class="node"><title>Node18</title>
<polygon fill="white" stroke="#bfbfbf" points="676.303,-407 676.303,-427 775.697,-427 775.697,-407 676.303,-407"/>
<text text-anchor="middle" x="726" y="-413" font-family="Helvetica,sans-Serif" font-size="10.00">boost/signals2.hpp</text>
</g>
<!-- Node14&#45;&gt;Node18 -->
<g id="edge21" class="edge"><title>Node14&#45;&gt;Node18</title>
<path fill="none" stroke="midnightblue" d="M726,-464.753C726,-457.25 726,-446.424 726,-437.078"/>
<polygon fill="midnightblue" stroke="midnightblue" points="729.5,-437.075 726,-427.075 722.5,-437.075 729.5,-437.075"/>
</g>
<!-- Node14&#45;&gt;Node12 -->
<g id="edge22" class="edge"><title>Node14&#45;&gt;Node12</title>
<path fill="none" stroke="midnightblue" d="M679.314,-466.249C674.152,-465.457 668.967,-464.692 664,-464 527.933,-445.058 479.834,-489.522 357,-428 210.057,-354.402 129.32,-151.762 107.267,-88.8702"/>
<polygon fill="midnightblue" stroke="midnightblue" points="110.476,-87.4396 103.927,-79.1114 103.853,-89.706 110.476,-87.4396"/>
</g>
<!-- Node19&#45;&gt;Node8 -->
<g id="edge24" class="edge"><title>Node19&#45;&gt;Node8</title>
<path fill="none" stroke="midnightblue" d="M459.782,-465.271C456.813,-464.827 453.87,-464.4 451,-464 381.656,-454.334 199.199,-462.01 138,-428 75.5079,-393.272 38,-373.493 38,-302 38,-302 38,-302 38,-242 38,-187.072 101.95,-155.673 147.696,-140.239"/>
<polygon fill="midnightblue" stroke="midnightblue" points="148.997,-143.497 157.44,-137.096 146.848,-136.835 148.997,-143.497"/>
</g>
<!-- Node20 -->
<g id="node20" class="node"><title>Node20</title>
<g id="a_node20"><a xlink:href="_vector_8h.html" target="_top" xlink:title="cinder/Vector.h">
<polygon fill="white" stroke="black" points="451.919,-175 451.919,-195 534.081,-195 534.081,-175 451.919,-175"/>
<text text-anchor="middle" x="493" y="-181" font-family="Helvetica,sans-Serif" font-size="10.00">cinder/Vector.h</text>
</a>
</g>
</g>
<!-- Node19&#45;&gt;Node20 -->
<g id="edge25" class="edge"><title>Node19&#45;&gt;Node20</title>
<path fill="none" stroke="midnightblue" d="M519.352,-464.831C550.156,-425.906 665.837,-274.404 635,-232 614.371,-203.633 575.861,-192.403 544.144,-188.119"/>
<polygon fill="midnightblue" stroke="midnightblue" points="544.453,-184.631 534.117,-186.959 543.648,-191.585 544.453,-184.631"/>
</g>
<!-- Node25 -->
<g id="node25" class="node"><title>Node25</title>
<g id="a_node25"><a xlink:href="_matrix_8h.html" target="_top" xlink:title="cinder/Matrix.h">
<polygon fill="white" stroke="black" points="366.212,-407 366.212,-427 447.788,-427 447.788,-407 366.212,-407"/>
<text text-anchor="middle" x="407" y="-413" font-family="Helvetica,sans-Serif" font-size="10.00">cinder/Matrix.h</text>
</a>
</g>
</g>
<!-- Node19&#45;&gt;Node25 -->
<g id="edge32" class="edge"><title>Node19&#45;&gt;Node25</title>
<path fill="none" stroke="midnightblue" d="M494.661,-464.753C477.842,-455.783 452.113,-442.06 432.872,-431.799"/>
<polygon fill="midnightblue" stroke="midnightblue" points="434.487,-428.693 424.016,-427.075 431.192,-434.869 434.487,-428.693"/>
</g>
<!-- Node20&#45;&gt;Node9 -->
<g id="edge26" class="edge"><title>Node20&#45;&gt;Node9</title>
<path fill="none" stroke="midnightblue" d="M451.904,-176.251C411.741,-167.915 354.326,-153.723 338,-138 324.838,-125.324 319.208,-104.862 316.8,-89.6901"/>
<polygon fill="midnightblue" stroke="midnightblue" points="320.22,-88.8292 315.515,-79.3364 313.273,-89.6913 320.22,-88.8292"/>
</g>
<!-- Node21 -->
<g id="node21" class="node"><title>Node21</title>
<polygon fill="white" stroke="#bfbfbf" points="470.273,-117 470.273,-137 515.727,-137 515.727,-117 470.273,-117"/>
<text text-anchor="middle" x="493" y="-123" font-family="Helvetica,sans-Serif" font-size="10.00">cstring</text>
</g>
<!-- Node20&#45;&gt;Node21 -->
<g id="edge27" class="edge"><title>Node20&#45;&gt;Node21</title>
<path fill="none" stroke="midnightblue" d="M493,-174.753C493,-167.25 493,-156.424 493,-147.078"/>
<polygon fill="midnightblue" stroke="midnightblue" points="496.5,-147.075 493,-137.075 489.5,-147.075 496.5,-147.075"/>
</g>
<!-- Node22 -->
<g id="node22" class="node"><title>Node22</title>
<polygon fill="white" stroke="#bfbfbf" points="533.828,-117 533.828,-137 588.172,-137 588.172,-117 533.828,-117"/>
<text text-anchor="middle" x="561" y="-123" font-family="Helvetica,sans-Serif" font-size="10.00">iostream</text>
</g>
<!-- Node20&#45;&gt;Node22 -->
<g id="edge28" class="edge"><title>Node20&#45;&gt;Node22</title>
<path fill="none" stroke="midnightblue" d="M504.229,-174.753C514.527,-166.272 529.984,-153.543 542.17,-143.507"/>
<polygon fill="midnightblue" stroke="midnightblue" points="544.486,-146.134 549.98,-137.075 540.036,-140.731 544.486,-146.134"/>
</g>
<!-- Node23 -->
<g id="node23" class="node"><title>Node23</title>
<polygon fill="white" stroke="#bfbfbf" points="346.884,-117 346.884,-137 395.116,-137 395.116,-117 346.884,-117"/>
<text text-anchor="middle" x="371" y="-123" font-family="Helvetica,sans-Serif" font-size="10.00">cassert</text>
</g>
<!-- Node20&#45;&gt;Node23 -->
<g id="edge29" class="edge"><title>Node20&#45;&gt;Node23</title>
<path fill="none" stroke="midnightblue" d="M473.127,-174.878C453.276,-165.766 422.549,-151.662 399.981,-141.303"/>
<polygon fill="midnightblue" stroke="midnightblue" points="401.413,-138.109 390.864,-137.118 398.493,-144.471 401.413,-138.109"/>
</g>
<!-- Node24 -->
<g id="node24" class="node"><title>Node24</title>
<polygon fill="white" stroke="#bfbfbf" points="413.613,-117 413.613,-137 452.387,-137 452.387,-117 413.613,-117"/>
<text text-anchor="middle" x="433" y="-123" font-family="Helvetica,sans-Serif" font-size="10.00">limits</text>
</g>
<!-- Node20&#45;&gt;Node24 -->
<g id="edge30" class="edge"><title>Node20&#45;&gt;Node24</title>
<path fill="none" stroke="midnightblue" d="M483.092,-174.753C474.18,-166.435 460.89,-154.031 450.238,-144.089"/>
<polygon fill="midnightblue" stroke="midnightblue" points="452.422,-141.34 442.723,-137.075 447.646,-146.457 452.422,-141.34"/>
</g>
<!-- Node20&#45;&gt;Node8 -->
<g id="edge31" class="edge"><title>Node20&#45;&gt;Node8</title>
<path fill="none" stroke="midnightblue" d="M451.915,-176.331C399.959,-166.632 310.177,-149.873 251.186,-138.861"/>
<polygon fill="midnightblue" stroke="midnightblue" points="251.742,-135.405 241.27,-137.01 250.458,-142.286 251.742,-135.405"/>
</g>
<!-- Node25&#45;&gt;Node3 -->
<g id="edge33" class="edge"><title>Node25&#45;&gt;Node3</title>
<path fill="none" stroke="midnightblue" d="M447.908,-410.362C534.823,-397.235 730,-361.169 730,-302 730,-302 730,-302 730,-184 730,-150.186 721.766,-111.487 716.139,-88.9899"/>
<polygon fill="midnightblue" stroke="midnightblue" points="719.465,-87.8741 713.562,-79.076 712.69,-89.6348 719.465,-87.8741"/>
</g>
<!-- Node25&#45;&gt;Node8 -->
<g id="edge34" class="edge"><title>Node25&#45;&gt;Node8</title>
<path fill="none" stroke="midnightblue" d="M384.617,-406.988C328.539,-382.932 183.283,-311.091 138,-196 134.42,-186.901 133.861,-182.858 138,-174 144.071,-161.008 155.816,-150.394 166.899,-142.648"/>
<polygon fill="midnightblue" stroke="midnightblue" points="169.034,-145.435 175.524,-137.06 165.228,-139.56 169.034,-145.435"/>
</g>
<!-- Node26 -->
<g id="node26" class="node"><title>Node26</title>
<g id="a_node26"><a xlink:href="_matrix22_8h.html" target="_top" xlink:title="cinder/Matrix22.h">
<polygon fill="white" stroke="black" points="533.65,-233 533.65,-253 626.35,-253 626.35,-233 533.65,-233"/>
<text text-anchor="middle" x="580" y="-239" font-family="Helvetica,sans-Serif" font-size="10.00">cinder/Matrix22.h</text>
</a>
</g>
</g>
<!-- Node25&#45;&gt;Node26 -->
<g id="edge35" class="edge"><title>Node25&#45;&gt;Node26</title>
<path fill="none" stroke="midnightblue" d="M448.005,-410.771C476.158,-405.159 512.539,-393.615 536,-370 565.149,-340.659 575.041,-290.976 578.358,-263.584"/>
<polygon fill="midnightblue" stroke="midnightblue" points="581.871,-263.64 579.415,-253.334 574.908,-262.922 581.871,-263.64"/>
</g>
<!-- Node28 -->
<g id="node28" class="node"><title>Node28</title>
<g id="a_node28"><a xlink:href="_matrix_affine2_8h.html" target="_top" xlink:title="cinder/MatrixAffine2.h">
<polygon fill="white" stroke="black" points="365.646,-233 365.646,-253 478.354,-253 478.354,-233 365.646,-233"/>
<text text-anchor="middle" x="422" y="-239" font-family="Helvetica,sans-Serif" font-size="10.00">cinder/MatrixAffine2.h</text>
</a>
</g>
</g>
<!-- Node25&#45;&gt;Node28 -->
<g id="edge40" class="edge"><title>Node25&#45;&gt;Node28</title>
<path fill="none" stroke="midnightblue" d="M406.742,-406.837C406.495,-397.554 406.139,-382.78 406,-370 405.894,-360.223 405.413,-357.76 406,-348 407.558,-322.082 408.949,-315.647 413,-290 414.397,-281.158 416.255,-271.422 417.92,-263.192"/>
<polygon fill="midnightblue" stroke="midnightblue" points="421.403,-263.632 420.009,-253.129 414.549,-262.209 421.403,-263.632"/>
</g>
<!-- Node29 -->
<g id="node29" class="node"><title>Node29</title>
<g id="a_node29"><a xlink:href="_matrix33_8h.html" target="_top" xlink:title="cinder/Matrix33.h">
<polygon fill="white" stroke="black" points="217.65,-233 217.65,-253 310.35,-253 310.35,-233 217.65,-233"/>
<text text-anchor="middle" x="264" y="-239" font-family="Helvetica,sans-Serif" font-size="10.00">cinder/Matrix33.h</text>
</a>
</g>
</g>
<!-- Node25&#45;&gt;Node29 -->
<g id="edge45" class="edge"><title>Node25&#45;&gt;Node29</title>
<path fill="none" stroke="midnightblue" d="M399.312,-406.753C376.422,-379.221 308.454,-297.469 278.478,-261.414"/>
<polygon fill="midnightblue" stroke="midnightblue" points="280.811,-258.745 271.726,-253.293 275.428,-263.22 280.811,-258.745"/>
</g>
<!-- Node30 -->
<g id="node30" class="node"><title>Node30</title>
<g id="a_node30"><a xlink:href="_matrix44_8h.html" target="_top" xlink:title="cinder/Matrix44.h">
<polygon fill="white" stroke="black" points="421.65,-291 421.65,-311 514.35,-311 514.35,-291 421.65,-291"/>
<text text-anchor="middle" x="468" y="-297" font-family="Helvetica,sans-Serif" font-size="10.00">cinder/Matrix44.h</text>
</a>
</g>
</g>
<!-- Node25&#45;&gt;Node30 -->
<g id="edge50" class="edge"><title>Node25&#45;&gt;Node30</title>
<path fill="none" stroke="midnightblue" d="M406.441,-406.586C406.038,-392.862 406.864,-366.936 417,-348 423.594,-335.681 434.838,-325.001 445.093,-317.041"/>
<polygon fill="midnightblue" stroke="midnightblue" points="447.334,-319.739 453.351,-311.018 443.209,-314.083 447.334,-319.739"/>
</g>
<!-- Node31 -->
<g id="node31" class="node"><title>Node31</title>
<g id="a_node31"><a xlink:href="_matrix_algo_8h.html" target="_top" xlink:title="cinder/MatrixAlgo.h">
<polygon fill="white" stroke="black" points="426.205,-349 426.205,-369 527.795,-369 527.795,-349 426.205,-349"/>
<text text-anchor="middle" x="477" y="-355" font-family="Helvetica,sans-Serif" font-size="10.00">cinder/MatrixAlgo.h</text>
</a>
</g>
</g>
<!-- Node25&#45;&gt;Node31 -->
<g id="edge58" class="edge"><title>Node25&#45;&gt;Node31</title>
<path fill="none" stroke="midnightblue" d="M418.559,-406.753C429.16,-398.272 445.071,-385.543 457.616,-375.507"/>
<polygon fill="midnightblue" stroke="midnightblue" points="460.034,-378.055 465.656,-369.075 455.661,-372.589 460.034,-378.055"/>
</g>
<!-- Node26&#45;&gt;Node3 -->
<g id="edge36" class="edge"><title>Node26&#45;&gt;Node3</title>
<path fill="none" stroke="midnightblue" d="M591.607,-232.956C602.352,-224.226 618.376,-210.265 630,-196 656.193,-163.856 655.229,-150.653 678,-116 684.41,-106.246 691.973,-95.6431 698.242,-87.0778"/>
<polygon fill="midnightblue" stroke="midnightblue" points="701.075,-89.1331 704.202,-79.0103 695.445,-84.9735 701.075,-89.1331"/>
</g>
<!-- Node26&#45;&gt;Node8 -->
<g id="edge37" class="edge"><title>Node26&#45;&gt;Node8</title>
<path fill="none" stroke="midnightblue" d="M550.619,-232.917C522.705,-224.103 479.67,-210.038 443,-196 419.946,-187.175 415.454,-181.7 392,-174 346.344,-159.011 293.261,-147.001 253.408,-139.016"/>
<polygon fill="midnightblue" stroke="midnightblue" points="254.062,-135.578 243.573,-137.074 252.705,-142.445 254.062,-135.578"/>
</g>
<!-- Node26&#45;&gt;Node20 -->
<g id="edge38" class="edge"><title>Node26&#45;&gt;Node20</title>
<path fill="none" stroke="midnightblue" d="M565.634,-232.753C552.078,-224.027 531.536,-210.805 515.753,-200.646"/>
<polygon fill="midnightblue" stroke="midnightblue" points="517.402,-197.545 507.099,-195.075 513.613,-203.431 517.402,-197.545"/>
</g>
<!-- Node27 -->
<g id="node27" class="node"><title>Node27</title>
<polygon fill="white" stroke="#bfbfbf" points="306.49,-175 306.49,-195 357.51,-195 357.51,-175 306.49,-175"/>
<text text-anchor="middle" x="332" y="-181" font-family="Helvetica,sans-Serif" font-size="10.00">iomanip</text>
</g>
<!-- Node26&#45;&gt;Node27 -->
<g id="edge39" class="edge"><title>Node26&#45;&gt;Node27</title>
<path fill="none" stroke="midnightblue" d="M539.879,-232.94C492.186,-222.171 413.327,-204.364 367.677,-194.056"/>
<polygon fill="midnightblue" stroke="midnightblue" points="368.169,-190.579 357.644,-191.791 366.627,-197.407 368.169,-190.579"/>
</g>
<!-- Node28&#45;&gt;Node3 -->
<g id="edge41" class="edge"><title>Node28&#45;&gt;Node3</title>
<path fill="none" stroke="midnightblue" d="M452.625,-232.995C477.733,-225 513.766,-212.099 543,-196 602.296,-163.345 663.953,-111.778 693.354,-85.9096"/>
<polygon fill="midnightblue" stroke="midnightblue" points="695.933,-88.3008 701.085,-79.0432 691.284,-83.0671 695.933,-88.3008"/>
</g>
<!-- Node28&#45;&gt;Node8 -->
<g id="edge42" class="edge"><title>Node28&#45;&gt;Node8</title>
<path fill="none" stroke="midnightblue" d="M417.098,-232.976C408.652,-218.303 389.935,-189.371 366,-174 333.155,-152.907 290.895,-141.438 256.365,-135.228"/>
<polygon fill="midnightblue" stroke="midnightblue" points="256.826,-131.756 246.382,-133.538 255.658,-138.658 256.826,-131.756"/>
</g>
<!-- Node28&#45;&gt;Node20 -->
<g id="edge43" class="edge"><title>Node28&#45;&gt;Node20</title>
<path fill="none" stroke="midnightblue" d="M433.724,-232.753C444.477,-224.272 460.615,-211.543 473.339,-201.507"/>
<polygon fill="midnightblue" stroke="midnightblue" points="475.81,-204.016 481.494,-195.075 471.475,-198.52 475.81,-204.016"/>
</g>
<!-- Node28&#45;&gt;Node27 -->
<g id="edge44" class="edge"><title>Node28&#45;&gt;Node27</title>
<path fill="none" stroke="midnightblue" d="M407.138,-232.753C392.984,-223.946 371.467,-210.558 355.081,-200.362"/>
<polygon fill="midnightblue" stroke="midnightblue" points="356.925,-197.387 346.585,-195.075 353.227,-203.33 356.925,-197.387"/>
</g>
<!-- Node29&#45;&gt;Node3 -->
<g id="edge46" class="edge"><title>Node29&#45;&gt;Node3</title>
<path fill="none" stroke="midnightblue" d="M266.142,-232.881C272.365,-208.701 292.934,-142.957 338,-116 390.986,-84.3046 569.488,-74.3321 658.963,-71.2866"/>
<polygon fill="midnightblue" stroke="midnightblue" points="659.278,-74.7783 669.159,-70.9565 659.051,-67.782 659.278,-74.7783"/>
</g>
<!-- Node29&#45;&gt;Node8 -->
<g id="edge47" class="edge"><title>Node29&#45;&gt;Node8</title>
<path fill="none" stroke="midnightblue" d="M258.19,-232.671C246.378,-213.705 219.389,-170.371 204.1,-145.822"/>
<polygon fill="midnightblue" stroke="midnightblue" points="206.95,-143.777 198.692,-137.139 201.008,-147.478 206.95,-143.777"/>
</g>
<!-- Node29&#45;&gt;Node20 -->
<g id="edge48" class="edge"><title>Node29&#45;&gt;Node20</title>
<path fill="none" stroke="midnightblue" d="M301.047,-232.94C340.541,-223.283 403.177,-207.965 446.088,-197.472"/>
<polygon fill="midnightblue" stroke="midnightblue" points="447.124,-200.822 456.006,-195.047 445.461,-194.022 447.124,-200.822"/>
</g>
<!-- Node29&#45;&gt;Node27 -->
<g id="edge49" class="edge"><title>Node29&#45;&gt;Node27</title>
<path fill="none" stroke="midnightblue" d="M275.229,-232.753C285.527,-224.272 300.984,-211.543 313.17,-201.507"/>
<polygon fill="midnightblue" stroke="midnightblue" points="315.486,-204.134 320.98,-195.075 311.036,-198.731 315.486,-204.134"/>
</g>
<!-- Node30&#45;&gt;Node3 -->
<g id="edge51" class="edge"><title>Node30&#45;&gt;Node3</title>
<path fill="none" stroke="midnightblue" d="M514.658,-298.048C551.39,-294.175 601.767,-283.38 635,-254 685.218,-209.604 702.966,-126.875 708.62,-89.3714"/>
<polygon fill="midnightblue" stroke="midnightblue" points="712.113,-89.6608 710.009,-79.277 705.178,-88.7066 712.113,-89.6608"/>
</g>
<!-- Node30&#45;&gt;Node8 -->
<g id="edge52" class="edge"><title>Node30&#45;&gt;Node8</title>
<path fill="none" stroke="midnightblue" d="M421.396,-298.163C354.843,-294.508 237.454,-283.897 209,-254 181.61,-225.221 184.849,-174.538 189.171,-147.039"/>
<polygon fill="midnightblue" stroke="midnightblue" points="192.631,-147.57 190.942,-137.111 185.74,-146.341 192.631,-147.57"/>
</g>
<!-- Node30&#45;&gt;Node20 -->
<g id="edge53" class="edge"><title>Node30&#45;&gt;Node20</title>
<path fill="none" stroke="midnightblue" d="M472.795,-290.768C477.279,-281.675 483.757,-267.261 487,-254 490.915,-237.991 492.347,-219.309 492.839,-205.582"/>
<polygon fill="midnightblue" stroke="midnightblue" points="496.342,-205.459 493.064,-195.384 489.344,-205.305 496.342,-205.459"/>
</g>
<!-- Node30&#45;&gt;Node26 -->
<g id="edge54" class="edge"><title>Node30&#45;&gt;Node26</title>
<path fill="none" stroke="midnightblue" d="M486.495,-290.753C504.516,-281.742 532.129,-267.935 552.682,-257.659"/>
<polygon fill="midnightblue" stroke="midnightblue" points="554.471,-260.678 561.85,-253.075 551.34,-254.417 554.471,-260.678"/>
</g>
<!-- Node30&#45;&gt;Node29 -->
<g id="edge55" class="edge"><title>Node30&#45;&gt;Node29</title>
<path fill="none" stroke="midnightblue" d="M434.77,-290.878C399.843,-281.29 344.78,-266.175 306.664,-255.712"/>
<polygon fill="midnightblue" stroke="midnightblue" points="307.448,-252.297 296.878,-253.025 305.595,-259.048 307.448,-252.297"/>
</g>
<!-- Node30&#45;&gt;Node28 -->
<g id="edge56" class="edge"><title>Node30&#45;&gt;Node28</title>
<path fill="none" stroke="midnightblue" d="M460.404,-290.753C453.773,-282.68 443.979,-270.757 435.942,-260.973"/>
<polygon fill="midnightblue" stroke="midnightblue" points="438.507,-258.581 429.455,-253.075 433.098,-263.024 438.507,-258.581"/>
</g>
<!-- Node30&#45;&gt;Node27 -->
<g id="edge57" class="edge"><title>Node30&#45;&gt;Node27</title>
<path fill="none" stroke="midnightblue" d="M424.737,-290.967C401.948,-284.216 375.06,-272.808 357,-254 344.226,-240.697 337.884,-220.326 334.796,-205.347"/>
<polygon fill="midnightblue" stroke="midnightblue" points="338.183,-204.399 333.016,-195.15 331.288,-205.602 338.183,-204.399"/>
</g>
<!-- Node31&#45;&gt;Node26 -->
<g id="edge59" class="edge"><title>Node31&#45;&gt;Node26</title>
<path fill="none" stroke="midnightblue" d="M486.763,-348.723C496.25,-339.598 510.948,-325.159 523,-312 538.509,-295.066 555.282,-274.798 566.59,-260.819"/>
<polygon fill="midnightblue" stroke="midnightblue" points="569.326,-263.001 572.863,-253.014 563.87,-258.616 569.326,-263.001"/>
</g>
<!-- Node31&#45;&gt;Node29 -->
<g id="edge60" class="edge"><title>Node31&#45;&gt;Node29</title>
<path fill="none" stroke="midnightblue" d="M459.929,-348.864C422.681,-328.928 333.926,-281.425 289.809,-257.813"/>
<polygon fill="midnightblue" stroke="midnightblue" points="291.325,-254.655 280.856,-253.022 288.021,-260.826 291.325,-254.655"/>
</g>
<!-- Node31&#45;&gt;Node30 -->
<g id="edge61" class="edge"><title>Node31&#45;&gt;Node30</title>
<path fill="none" stroke="midnightblue" d="M475.514,-348.753C474.308,-341.25 472.568,-330.424 471.066,-321.078"/>
<polygon fill="midnightblue" stroke="midnightblue" points="474.501,-320.393 469.459,-311.075 467.59,-321.504 474.501,-320.393"/>
</g>
<!-- Node33&#45;&gt;Node3 -->
<g id="edge64" class="edge"><title>Node33&#45;&gt;Node3</title>
<path fill="none" stroke="midnightblue" d="M753.927,-582.882C840.005,-568.239 1017,-531.393 1017,-476 1017,-476 1017,-476 1017,-184 1017,-147.261 1000.91,-135.853 970,-116 936.488,-94.4777 828.413,-80.9294 762.934,-74.4801"/>
<polygon fill="midnightblue" stroke="midnightblue" points="763.098,-70.9798 752.809,-73.5058 762.427,-77.9476 763.098,-70.9798"/>
</g>
<!-- Node33&#45;&gt;Node7 -->
<g id="edge65" class="edge"><title>Node33&#45;&gt;Node7</title>
<path fill="none" stroke="midnightblue" d="M736.415,-580.848C758.61,-572.969 789.665,-560.299 814,-544 835.417,-529.655 856.101,-508.343 869.359,-493.412"/>
<polygon fill="midnightblue" stroke="midnightblue" points="872.349,-495.307 876.257,-485.459 867.061,-490.721 872.349,-495.307"/>
</g>
<!-- Node33&#45;&gt;Node13 -->
<g id="edge66" class="edge"><title>Node33&#45;&gt;Node13</title>
<path fill="none" stroke="midnightblue" d="M667.194,-580.943C632.975,-572.833 583.092,-559.799 541,-544 499.348,-528.366 453.311,-504.922 425.527,-490.048"/>
<polygon fill="midnightblue" stroke="midnightblue" points="426.96,-486.844 416.499,-485.171 423.634,-493.003 426.96,-486.844"/>
</g>
<!-- Node33&#45;&gt;Node2 -->
<g id="edge67" class="edge"><title>Node33&#45;&gt;Node2</title>
<path fill="none" stroke="midnightblue" d="M689.104,-580.878C670.398,-571.847 641.534,-557.913 620.132,-547.581"/>
<polygon fill="midnightblue" stroke="midnightblue" points="621.415,-544.314 610.887,-543.118 618.371,-550.618 621.415,-544.314"/>
</g>
<!-- Node33&#45;&gt;Node14 -->
<g id="edge68" class="edge"><title>Node33&#45;&gt;Node14</title>
<path fill="none" stroke="midnightblue" d="M715.136,-580.762C721.501,-571.894 730.359,-557.84 734,-544 738.247,-527.854 735.426,-508.956 732.014,-495.186"/>
<polygon fill="midnightblue" stroke="midnightblue" points="735.339,-494.08 729.275,-485.392 728.598,-495.966 735.339,-494.08"/>
</g>
<!-- Node33&#45;&gt;Node16 -->
<g id="edge69" class="edge"><title>Node33&#45;&gt;Node16</title>
<path fill="none" stroke="midnightblue" d="M716.444,-580.905C724.98,-571.675 738.515,-556.941 750,-544 781.166,-508.881 780.994,-491.571 819,-464 842.937,-446.636 874.413,-434.327 897.561,-426.838"/>
<polygon fill="midnightblue" stroke="midnightblue" points="898.728,-430.14 907.238,-423.829 896.65,-423.456 898.728,-430.14"/>
</g>
<!-- Node33&#45;&gt;Node32 -->
<g id="edge70" class="edge"><title>Node33&#45;&gt;Node32</title>
<path fill="none" stroke="midnightblue" d="M702.517,-580.671C691.371,-561.705 665.902,-518.371 651.474,-493.822"/>
<polygon fill="midnightblue" stroke="midnightblue" points="654.456,-491.987 646.371,-485.139 648.421,-495.534 654.456,-491.987"/>
</g>
<!-- Node34 -->
<g id="node34" class="node"><title>Node34</title>
<polygon fill="white" stroke="#bfbfbf" points="690.273,-523 690.273,-543 725.727,-543 725.727,-523 690.273,-523"/>
<text text-anchor="middle" x="708" y="-529" font-family="Helvetica,sans-Serif" font-size="10.00">map</text>
</g>
<!-- Node33&#45;&gt;Node34 -->
<g id="edge71" class="edge"><title>Node33&#45;&gt;Node34</title>
<path fill="none" stroke="midnightblue" d="M708,-580.753C708,-573.25 708,-562.424 708,-553.078"/>
<polygon fill="midnightblue" stroke="midnightblue" points="711.5,-553.075 708,-543.075 704.5,-553.075 711.5,-553.075"/>
</g>
</g>
</svg>
