<?xml version="1.0" encoding="UTF-8" standalone="no"?>
<!DOCTYPE svg PUBLIC "-//W3C//DTD SVG 1.1//EN"
 "http://www.w3.org/Graphics/SVG/1.1/DTD/svg11.dtd">
<!-- Generated by graphviz version 2.30.1 (20140712.1814)
 -->
<!-- Title: include/cinder/Unicode.h Pages: 1 -->
<!--zoomable 100 -->
<svg id="main" version="1.1" xmlns="http://www.w3.org/2000/svg" xmlns:xlink="http://www.w3.org/1999/xlink" xml:space="preserve" onload="init(evt)">
<style type="text/css"><![CDATA[
.edge:hover path { stroke: red; }
.edge:hover polygon { stroke: red; fill: red; }
]]></style>
<script type="text/javascript"><![CDATA[
var edges = document.getElementsByTagName('g');
if (edges && edges.length) {
  for (var i=0;i<edges.length;i++) {
    if (edges[i].id.substr(0,4)=='edge') {
      edges[i].setAttribute('class','edge');
    }
  }
}
]]></script>
        <defs>
                <circle id="rim" cx="0" cy="0" r="7"/>
                <circle id="rim2" cx="0" cy="0" r="3.5"/>
                <g id="zoomPlus">
                        <use xlink:href="#rim" fill="#404040">
                                <set attributeName="fill" to="#808080" begin="zoomplus.mouseover" end="zoomplus.mouseout"/>
                        </use>
                        <path d="M-4,0h8M0,-4v8" fill="none" stroke="white" stroke-width="1.5" pointer-events="none"/>
                </g>
                <g id="zoomMin">
                        <use xlink:href="#rim" fill="#404040">
                                <set attributeName="fill" to="#808080" begin="zoomminus.mouseover" end="zoomminus.mouseout"/>
                        </use>
                        <path d="M-4,0h8" fill="none" stroke="white" stroke-width="1.5" pointer-events="none"/>
                </g>
                <g id="dirArrow">
                        <path fill="none" stroke="white" stroke-width="1.5" d="M0,-3.0v7 M-2.5,-0.5L0,-3.0L2.5,-0.5"/>
                </g>
               <g id="resetDef">
                       <use xlink:href="#rim2" fill="#404040">
                               <set attributeName="fill" to="#808080" begin="reset.mouseover" end="reset.mouseout"/>
                       </use>
               </g>
        </defs>

<script type="text/javascript">
var viewWidth = 1750;
var viewHeight = 100;
var sectionId = 'dynsection-1';
</script>
<script xlink:href="svgpan.js"/>
<svg id="graph" class="graph">
<g id="viewport">
<title>include/cinder/Unicode.h</title>
<polygon fill="white" stroke="white" points="-4,5 -4,-96 1747,-96 1747,5 -4,5"/>
<!-- Node1 -->
<g id="node1" class="node"><title>Node1</title>
<polygon fill="#bfbfbf" stroke="black" points="869.244,-71 869.244,-91 994.756,-91 994.756,-71 869.244,-71"/>
<text text-anchor="middle" x="932" y="-77" font-family="Helvetica,sans-Serif" font-size="10.00">include/cinder/Unicode.h</text>
</g>
<!-- Node2 -->
<g id="node2" class="node"><title>Node2</title>
<g id="a_node2"><a xlink:href="_app_basic_8cpp.html" target="_top" xlink:title="src/cinder/app/AppBasic.cpp">
<polygon fill="white" stroke="black" points="-0.366699,-7 -0.366699,-27 142.367,-27 142.367,-7 -0.366699,-7"/>
<text text-anchor="middle" x="71" y="-13" font-family="Helvetica,sans-Serif" font-size="10.00">src/cinder/app/AppBasic.cpp</text>
</a>
</g>
</g>
<!-- Node1&#45;&gt;Node2 -->
<g id="edge1" class="edge"><title>Node1&#45;&gt;Node2</title>
<path fill="none" stroke="midnightblue" d="M859.141,-79.072C720.645,-76.5642 410.068,-67.3728 151,-34 137.795,-32.2989 123.501,-29.6899 110.699,-27.069"/>
<polygon fill="midnightblue" stroke="midnightblue" points="859.153,-82.5726 869.212,-79.248 859.275,-75.5737 859.153,-82.5726"/>
</g>
<!-- Node3 -->
<g id="node3" class="node"><title>Node3</title>
<g id="a_node3"><a xlink:href="_app_impl_msw_8cpp.html" target="_top" xlink:title="src/cinder/app/AppImplMsw.cpp">
<polygon fill="white" stroke="black" points="160.412,-7 160.412,-27 317.588,-27 317.588,-7 160.412,-7"/>
<text text-anchor="middle" x="239" y="-13" font-family="Helvetica,sans-Serif" font-size="10.00">src/cinder/app/AppImplMsw.cpp</text>
</a>
</g>
</g>
<!-- Node1&#45;&gt;Node3 -->
<g id="edge2" class="edge"><title>Node1&#45;&gt;Node3</title>
<path fill="none" stroke="midnightblue" d="M859.07,-76.9065C745.141,-71.5224 518.171,-58.5792 327,-34 312.831,-32.1782 297.48,-29.5994 283.628,-27.043"/>
<polygon fill="midnightblue" stroke="midnightblue" points="858.92,-80.4033 869.072,-77.3735 859.247,-73.4109 858.92,-80.4033"/>
</g>
<!-- Node4 -->
<g id="node4" class="node"><title>Node4</title>
<g id="a_node4"><a xlink:href="_app_impl_msw_screen_saver_8cpp.html" target="_top" xlink:title="src/cinder/app/AppImplMsw\lScreenSaver.cpp">
<polygon fill="white" stroke="black" points="335.589,-1 335.589,-33 474.411,-33 474.411,-1 335.589,-1"/>
<text text-anchor="start" x="343.589" y="-19" font-family="Helvetica,sans-Serif" font-size="10.00">src/cinder/app/AppImplMsw</text>
<text text-anchor="middle" x="405" y="-7" font-family="Helvetica,sans-Serif" font-size="10.00">ScreenSaver.cpp</text>
</a>
</g>
</g>
<!-- Node1&#45;&gt;Node4 -->
<g id="edge3" class="edge"><title>Node1&#45;&gt;Node4</title>
<path fill="none" stroke="midnightblue" d="M858.909,-74.7754C769.814,-67.8859 614.819,-54.2202 483,-34 480.267,-33.5808 477.485,-33.1295 474.679,-32.6535"/>
<polygon fill="midnightblue" stroke="midnightblue" points="858.674,-78.2675 868.912,-75.5417 859.208,-71.2879 858.674,-78.2675"/>
</g>
<!-- Node5 -->
<g id="node5" class="node"><title>Node5</title>
<g id="a_node5"><a xlink:href="_clipboard_8cpp.html" target="_top" xlink:title="src/cinder/Clipboard.cpp">
<polygon fill="white" stroke="black" points="492.086,-7 492.086,-27 615.914,-27 615.914,-7 492.086,-7"/>
<text text-anchor="middle" x="554" y="-13" font-family="Helvetica,sans-Serif" font-size="10.00">src/cinder/Clipboard.cpp</text>
</a>
</g>
</g>
<!-- Node1&#45;&gt;Node5 -->
<g id="edge4" class="edge"><title>Node1&#45;&gt;Node5</title>
<path fill="none" stroke="midnightblue" d="M859.025,-70.5911C796.664,-62.1866 704.659,-48.923 625,-34 614.195,-31.9758 602.534,-29.4796 591.847,-27.0659"/>
<polygon fill="midnightblue" stroke="midnightblue" points="858.78,-74.0895 869.157,-71.949 859.71,-67.1515 858.78,-74.0895"/>
</g>
<!-- Node6 -->
<g id="node6" class="node"><title>Node6</title>
<g id="a_node6"><a xlink:href="_dx_texture_font_8cpp.html" target="_top" xlink:title="src/cinder/dx/DxTextureFont.cpp">
<polygon fill="white" stroke="black" points="634.306,-7 634.306,-27 793.694,-27 793.694,-7 634.306,-7"/>
<text text-anchor="middle" x="714" y="-13" font-family="Helvetica,sans-Serif" font-size="10.00">src/cinder/dx/DxTextureFont.cpp</text>
</a>
</g>
</g>
<!-- Node1&#45;&gt;Node6 -->
<g id="edge5" class="edge"><title>Node1&#45;&gt;Node6</title>
<path fill="none" stroke="midnightblue" d="M890.618,-68.2309C848.468,-56.2431 784.019,-37.9135 745.737,-27.0262"/>
<polygon fill="midnightblue" stroke="midnightblue" points="889.725,-71.6155 900.301,-70.9847 891.64,-64.8825 889.725,-71.6155"/>
</g>
<!-- Node7 -->
<g id="node7" class="node"><title>Node7</title>
<g id="a_node7"><a xlink:href="_font_8cpp.html" target="_top" xlink:title="src/cinder/Font.cpp">
<polygon fill="white" stroke="black" points="811.483,-7 811.483,-27 912.517,-27 912.517,-7 811.483,-7"/>
<text text-anchor="middle" x="862" y="-13" font-family="Helvetica,sans-Serif" font-size="10.00">src/cinder/Font.cpp</text>
</a>
</g>
</g>
<!-- Node1&#45;&gt;Node7 -->
<g id="edge6" class="edge"><title>Node1&#45;&gt;Node7</title>
<path fill="none" stroke="midnightblue" d="M914.096,-64.1419C900.878,-52.4346 883.348,-36.9082 872.371,-27.1858"/>
<polygon fill="midnightblue" stroke="midnightblue" points="911.865,-66.8414 921.671,-70.8517 916.506,-61.6012 911.865,-66.8414"/>
</g>
<!-- Node8 -->
<g id="node8" class="node"><title>Node8</title>
<g id="a_node8"><a xlink:href="_texture_font_8cpp.html" target="_top" xlink:title="src/cinder/gl/TextureFont.cpp">
<polygon fill="white" stroke="black" points="930.806,-7 930.806,-27 1075.19,-27 1075.19,-7 930.806,-7"/>
<text text-anchor="middle" x="1003" y="-13" font-family="Helvetica,sans-Serif" font-size="10.00">src/cinder/gl/TextureFont.cpp</text>
</a>
</g>
</g>
<!-- Node1&#45;&gt;Node8 -->
<g id="edge7" class="edge"><title>Node1&#45;&gt;Node8</title>
<path fill="none" stroke="midnightblue" d="M950.16,-64.1419C963.567,-52.4346 981.347,-36.9082 992.481,-27.1858"/>
<polygon fill="midnightblue" stroke="midnightblue" points="947.707,-61.6378 942.476,-70.8517 952.311,-66.9104 947.707,-61.6378"/>
</g>
<!-- Node9 -->
<g id="node9" class="node"><title>Node9</title>
<g id="a_node9"><a xlink:href="_serial_8cpp.html" target="_top" xlink:title="src/cinder/Serial.cpp">
<polygon fill="white" stroke="black" points="1092.7,-7 1092.7,-27 1199.3,-27 1199.3,-7 1092.7,-7"/>
<text text-anchor="middle" x="1146" y="-13" font-family="Helvetica,sans-Serif" font-size="10.00">src/cinder/Serial.cpp</text>
</a>
</g>
</g>
<!-- Node1&#45;&gt;Node9 -->
<g id="edge8" class="edge"><title>Node1&#45;&gt;Node9</title>
<path fill="none" stroke="midnightblue" d="M972.885,-68.155C1014.27,-56.1658 1077.35,-37.8906 1114.85,-27.0262"/>
<polygon fill="midnightblue" stroke="midnightblue" points="971.748,-64.8401 963.117,-70.9847 973.696,-71.5636 971.748,-64.8401"/>
</g>
<!-- Node10 -->
<g id="node10" class="node"><title>Node10</title>
<g id="a_node10"><a xlink:href="_unicode_8cpp.html" target="_top" xlink:title="src/cinder/Unicode.cpp">
<polygon fill="white" stroke="black" points="1217.14,-7 1217.14,-27 1334.86,-27 1334.86,-7 1217.14,-7"/>
<text text-anchor="middle" x="1276" y="-13" font-family="Helvetica,sans-Serif" font-size="10.00">src/cinder/Unicode.cpp</text>
</a>
</g>
</g>
<!-- Node1&#45;&gt;Node10 -->
<g id="edge9" class="edge"><title>Node1&#45;&gt;Node10</title>
<path fill="none" stroke="midnightblue" d="M1003.47,-69.4122C1059.34,-60.8179 1138.84,-47.8842 1208,-34 1218.23,-31.9471 1229.26,-29.4678 1239.39,-27.0803"/>
<polygon fill="midnightblue" stroke="midnightblue" points="1002.68,-65.9926 993.327,-70.9656 1003.74,-72.912 1002.68,-65.9926"/>
</g>
<!-- Node11 -->
<g id="node11" class="node"><title>Node11</title>
<g id="a_node11"><a xlink:href="_url_8cpp.html" target="_top" xlink:title="src/cinder/Url.cpp">
<polygon fill="white" stroke="black" points="1353.1,-7 1353.1,-27 1446.9,-27 1446.9,-7 1353.1,-7"/>
<text text-anchor="middle" x="1400" y="-13" font-family="Helvetica,sans-Serif" font-size="10.00">src/cinder/Url.cpp</text>
</a>
</g>
</g>
<!-- Node1&#45;&gt;Node11 -->
<g id="edge10" class="edge"><title>Node1&#45;&gt;Node11</title>
<path fill="none" stroke="midnightblue" d="M1004.83,-75.4326C1087.41,-69.4267 1225.79,-56.8521 1343,-34 1352.28,-32.1904 1362.25,-29.615 1371.22,-27.058"/>
<polygon fill="midnightblue" stroke="midnightblue" points="1004.52,-71.9458 994.797,-76.1501 1005.02,-78.928 1004.52,-71.9458"/>
</g>
<!-- Node12 -->
<g id="node12" class="node"><title>Node12</title>
<g id="a_node12"><a xlink:href="_url_impl_win_inet_8cpp.html" target="_top" xlink:title="src/cinder/UrlImplWinInet.cpp">
<polygon fill="white" stroke="black" points="1464.7,-7 1464.7,-27 1611.3,-27 1611.3,-7 1464.7,-7"/>
<text text-anchor="middle" x="1538" y="-13" font-family="Helvetica,sans-Serif" font-size="10.00">src/cinder/UrlImplWinInet.cpp</text>
</a>
</g>
</g>
<!-- Node1&#45;&gt;Node12 -->
<g id="edge11" class="edge"><title>Node1&#45;&gt;Node12</title>
<path fill="none" stroke="midnightblue" d="M1005.16,-75.9438C1106.53,-69.7826 1295.29,-56.3567 1455,-34 1468.23,-32.1486 1482.54,-29.5918 1495.49,-27.0649"/>
<polygon fill="midnightblue" stroke="midnightblue" points="1004.8,-72.4589 995.031,-76.5529 1005.22,-79.4463 1004.8,-72.4589"/>
</g>
<!-- Node13 -->
<g id="node13" class="node"><title>Node13</title>
<g id="a_node13"><a xlink:href="_utilities_8cpp.html" target="_top" xlink:title="src/cinder/Utilities.cpp">
<polygon fill="white" stroke="black" points="1629.37,-7 1629.37,-27 1742.63,-27 1742.63,-7 1629.37,-7"/>
<text text-anchor="middle" x="1686" y="-13" font-family="Helvetica,sans-Serif" font-size="10.00">src/cinder/Utilities.cpp</text>
</a>
</g>
</g>
<!-- Node1&#45;&gt;Node13 -->
<g id="edge12" class="edge"><title>Node1&#45;&gt;Node13</title>
<path fill="none" stroke="midnightblue" d="M1005.31,-79.2045C1131.57,-76.9208 1397.88,-68.0931 1620,-34 1631.07,-32.3007 1643.01,-29.6593 1653.66,-27.0089"/>
<polygon fill="midnightblue" stroke="midnightblue" points="1004.94,-75.7103 995.001,-79.382 1005.06,-82.7093 1004.94,-75.7103"/>
</g>
</g>
</svg>
        <g id="navigator" transform="translate(0 0)" fill="#404254">
                <rect fill="#f2f5e9" fill-opacity="0.5" stroke="#606060" stroke-width=".5" x="0" y="0" width="60" height="60"/>
                <use id="zoomplus" xlink:href="#zoomPlus" x="17" y="9" onmousedown="handleZoom(evt,'in')"/>
                <use id="zoomminus" xlink:href="#zoomMin" x="42" y="9" onmousedown="handleZoom(evt,'out')"/>
                <use id="reset" xlink:href="#resetDef" x="30" y="36" onmousedown="handleReset()"/>
                <g id="arrowUp" xlink:href="#dirArrow" transform="translate(30 24)" onmousedown="handlePan(0,-1)">
                  <use xlink:href="#rim" fill="#404040">
                        <set attributeName="fill" to="#808080" begin="arrowUp.mouseover" end="arrowUp.mouseout"/>
                  </use>
                  <path fill="none" stroke="white" stroke-width="1.5" d="M0,-3.0v7 M-2.5,-0.5L0,-3.0L2.5,-0.5"/>
                </g>
                <g id="arrowRight" xlink:href="#dirArrow" transform="rotate(90) translate(36 -43)" onmousedown="handlePan(1,0)">
                  <use xlink:href="#rim" fill="#404040">
                        <set attributeName="fill" to="#808080" begin="arrowRight.mouseover" end="arrowRight.mouseout"/>
                  </use>
                  <path fill="none" stroke="white" stroke-width="1.5" d="M0,-3.0v7 M-2.5,-0.5L0,-3.0L2.5,-0.5"/>
                </g>
                <g id="arrowDown" xlink:href="#dirArrow" transform="rotate(180) translate(-30 -48)" onmousedown="handlePan(0,1)">
                  <use xlink:href="#rim" fill="#404040">
                        <set attributeName="fill" to="#808080" begin="arrowDown.mouseover" end="arrowDown.mouseout"/>
                  </use>
                  <path fill="none" stroke="white" stroke-width="1.5" d="M0,-3.0v7 M-2.5,-0.5L0,-3.0L2.5,-0.5"/>
                </g>
                <g id="arrowLeft" xlink:href="#dirArrow" transform="rotate(270) translate(-36 17)" onmousedown="handlePan(-1,0)">
                  <use xlink:href="#rim" fill="#404040">
                        <set attributeName="fill" to="#808080" begin="arrowLeft.mouseover" end="arrowLeft.mouseout"/>
                  </use>
                  <path fill="none" stroke="white" stroke-width="1.5" d="M0,-3.0v7 M-2.5,-0.5L0,-3.0L2.5,-0.5"/>
                </g>
        </g>
        <svg viewBox="0 0 15 15" width="100%" height="30px" preserveAspectRatio="xMaxYMin meet">
         <g id="arrow_out" transform="scale(0.3 0.3)">
          <a xlink:href="_unicode_8h__dep__incl_org.svg" target="_base">
           <rect id="button" ry="5" rx="5" y="6" x="6" height="38" width="38"
                fill="#f2f5e9" fill-opacity="0.5" stroke="#606060" stroke-width="1.0"/>
           <path id="arrow"
             d="M 11.500037,31.436501 C 11.940474,20.09759 22.043105,11.32322 32.158766,21.979434 L 37.068811,17.246167 C 37.068811,17.246167 37.088388,32 37.088388,32 L 22.160133,31.978069 C 22.160133,31.978069 26.997745,27.140456 26.997745,27.140456 C 18.528582,18.264221 13.291696,25.230495 11.500037,31.436501 z"
             style="fill:#404040;"/>
          </a>
         </g>
        </svg>
</svg>
