<?xml version="1.0" encoding="UTF-8" standalone="no"?>
<!DOCTYPE svg PUBLIC "-//W3C//DTD SVG 1.1//EN"
 "http://www.w3.org/Graphics/SVG/1.1/DTD/svg11.dtd">
<!-- Generated by graphviz version 2.30.1 (20140712.1814)
 -->
<!-- Title: src/cinder/Unicode.cpp Pages: 1 -->
<svg width="703pt" height="262pt"
 viewBox="0.00 0.00 703.00 262.00" xmlns="http://www.w3.org/2000/svg" xmlns:xlink="http://www.w3.org/1999/xlink">
<g id="graph0" class="graph" transform="scale(1 1) rotate(0) translate(4 258)">
<title>src/cinder/Unicode.cpp</title>
<polygon fill="white" stroke="white" points="-4,5 -4,-258 700,-258 700,5 -4,5"/>
<!-- Node1 -->
<g id="node1" class="node"><title>Node1</title>
<polygon fill="#bfbfbf" stroke="black" points="369.143,-233 369.143,-253 486.857,-253 486.857,-233 369.143,-233"/>
<text text-anchor="middle" x="428" y="-239" font-family="Helvetica,sans-Serif" font-size="10.00">src/cinder/Unicode.cpp</text>
</g>
<!-- Node2 -->
<g id="node2" class="node"><title>Node2</title>
<g id="a_node2"><a xlink:href="_unicode_8h.html" target="_top" xlink:title="cinder/Unicode.h">
<polygon fill="white" stroke="black" points="207.478,-175 207.478,-195 298.522,-195 298.522,-175 207.478,-175"/>
<text text-anchor="middle" x="253" y="-181" font-family="Helvetica,sans-Serif" font-size="10.00">cinder/Unicode.h</text>
</a>
</g>
</g>
<!-- Node1&#45;&gt;Node2 -->
<g id="edge1" class="edge"><title>Node1&#45;&gt;Node2</title>
<path fill="none" stroke="midnightblue" d="M399.494,-232.878C369.914,-223.413 323.499,-208.56 290.858,-198.115"/>
<polygon fill="midnightblue" stroke="midnightblue" points="291.795,-194.74 281.204,-195.025 289.662,-201.407 291.795,-194.74"/>
</g>
<!-- Node14 -->
<g id="node14" class="node"><title>Node14</title>
<polygon fill="white" stroke="#bfbfbf" points="316.273,-175 316.273,-195 361.727,-195 361.727,-175 316.273,-175"/>
<text text-anchor="middle" x="339" y="-181" font-family="Helvetica,sans-Serif" font-size="10.00">cstring</text>
</g>
<!-- Node1&#45;&gt;Node14 -->
<g id="edge14" class="edge"><title>Node1&#45;&gt;Node14</title>
<path fill="none" stroke="midnightblue" d="M413.303,-232.753C399.436,-224.027 378.422,-210.805 362.276,-200.646"/>
<polygon fill="midnightblue" stroke="midnightblue" points="363.751,-197.438 353.423,-195.075 360.023,-203.363 363.751,-197.438"/>
</g>
<!-- Node13 -->
<g id="node13" class="node"><title>Node13</title>
<polygon fill="white" stroke="#bfbfbf" points="343.773,-117 343.773,-137 384.227,-137 384.227,-117 343.773,-117"/>
<text text-anchor="middle" x="364" y="-123" font-family="Helvetica,sans-Serif" font-size="10.00">string</text>
</g>
<!-- Node1&#45;&gt;Node13 -->
<g id="edge15" class="edge"><title>Node1&#45;&gt;Node13</title>
<path fill="none" stroke="midnightblue" d="M422.763,-232.671C412.162,-213.789 388.002,-170.754 374.189,-146.149"/>
<polygon fill="midnightblue" stroke="midnightblue" points="377.078,-144.146 369.131,-137.139 370.974,-147.573 377.078,-144.146"/>
</g>
<!-- Node15 -->
<g id="node15" class="node"><title>Node15</title>
<polygon fill="white" stroke="#bfbfbf" points="418.417,-175 418.417,-195 515.583,-195 515.583,-175 418.417,-175"/>
<text text-anchor="middle" x="467" y="-181" font-family="Helvetica,sans-Serif" font-size="10.00">utf8cpp/checked.h</text>
</g>
<!-- Node1&#45;&gt;Node15 -->
<g id="edge16" class="edge"><title>Node1&#45;&gt;Node15</title>
<path fill="none" stroke="midnightblue" d="M434.44,-232.753C439.949,-224.843 448.031,-213.237 454.765,-203.568"/>
<polygon fill="midnightblue" stroke="midnightblue" points="457.837,-205.282 460.68,-195.075 452.093,-201.281 457.837,-205.282"/>
</g>
<!-- Node16 -->
<g id="node16" class="node"><title>Node16</title>
<polygon fill="white" stroke="#bfbfbf" points="533.54,-175 533.54,-195 598.46,-195 598.46,-175 533.54,-175"/>
<text text-anchor="middle" x="566" y="-181" font-family="Helvetica,sans-Serif" font-size="10.00">linebreak.h</text>
</g>
<!-- Node1&#45;&gt;Node16 -->
<g id="edge17" class="edge"><title>Node1&#45;&gt;Node16</title>
<path fill="none" stroke="midnightblue" d="M450.479,-232.878C473.234,-223.644 508.624,-209.283 534.239,-198.889"/>
<polygon fill="midnightblue" stroke="midnightblue" points="535.58,-202.121 543.53,-195.118 532.948,-195.635 535.58,-202.121"/>
</g>
<!-- Node17 -->
<g id="node17" class="node"><title>Node17</title>
<polygon fill="white" stroke="#bfbfbf" points="616.589,-175 616.589,-195 695.411,-195 695.411,-175 616.589,-175"/>
<text text-anchor="middle" x="656" y="-181" font-family="Helvetica,sans-Serif" font-size="10.00">linebreakdef.h</text>
</g>
<!-- Node1&#45;&gt;Node17 -->
<g id="edge18" class="edge"><title>Node1&#45;&gt;Node17</title>
<path fill="none" stroke="midnightblue" d="M464.886,-232.94C504.206,-223.283 566.569,-207.965 609.293,-197.472"/>
<polygon fill="midnightblue" stroke="midnightblue" points="610.291,-200.831 619.167,-195.047 608.621,-194.033 610.291,-200.831"/>
</g>
<!-- Node3 -->
<g id="node3" class="node"><title>Node3</title>
<g id="a_node3"><a xlink:href="_cinder_8h.html" target="_top" xlink:title="cinder/Cinder.h">
<polygon fill="white" stroke="black" points="68.3672,-59 68.3672,-79 151.633,-79 151.633,-59 68.3672,-59"/>
<text text-anchor="middle" x="110" y="-65" font-family="Helvetica,sans-Serif" font-size="10.00">cinder/Cinder.h</text>
</a>
</g>
</g>
<!-- Node2&#45;&gt;Node3 -->
<g id="edge2" class="edge"><title>Node2&#45;&gt;Node3</title>
<path fill="none" stroke="midnightblue" d="M241.298,-174.671C216.77,-155.118 159.753,-109.664 129.563,-85.596"/>
<polygon fill="midnightblue" stroke="midnightblue" points="131.465,-82.6363 121.464,-79.1394 127.102,-88.1098 131.465,-82.6363"/>
</g>
<!-- Node7 -->
<g id="node7" class="node"><title>Node7</title>
<g id="a_node7"><a xlink:href="_function_8h.html" target="_top" xlink:title="cinder/Function.h">
<polygon fill="white" stroke="black" points="219.646,-117 219.646,-137 312.354,-137 312.354,-117 219.646,-117"/>
<text text-anchor="middle" x="266" y="-123" font-family="Helvetica,sans-Serif" font-size="10.00">cinder/Function.h</text>
</a>
</g>
</g>
<!-- Node2&#45;&gt;Node7 -->
<g id="edge6" class="edge"><title>Node2&#45;&gt;Node7</title>
<path fill="none" stroke="midnightblue" d="M255.147,-174.753C256.888,-167.25 259.402,-156.424 261.571,-147.078"/>
<polygon fill="midnightblue" stroke="midnightblue" points="265.041,-147.608 263.893,-137.075 258.223,-146.025 265.041,-147.608"/>
</g>
<!-- Node2&#45;&gt;Node13 -->
<g id="edge13" class="edge"><title>Node2&#45;&gt;Node13</title>
<path fill="none" stroke="midnightblue" d="M271.329,-174.753C289.19,-165.742 316.557,-151.935 336.926,-141.659"/>
<polygon fill="midnightblue" stroke="midnightblue" points="338.66,-144.704 346.012,-137.075 335.507,-138.455 338.66,-144.704"/>
</g>
<!-- Node4 -->
<g id="node4" class="node"><title>Node4</title>
<polygon fill="white" stroke="#bfbfbf" points="-0.450684,-1 -0.450684,-21 44.4507,-21 44.4507,-1 -0.450684,-1"/>
<text text-anchor="middle" x="22" y="-7" font-family="Helvetica,sans-Serif" font-size="10.00">cstdint</text>
</g>
<!-- Node3&#45;&gt;Node4 -->
<g id="edge3" class="edge"><title>Node3&#45;&gt;Node4</title>
<path fill="none" stroke="midnightblue" d="M95.4686,-58.7527C81.757,-50.0272 60.9794,-36.8051 45.0148,-26.6458"/>
<polygon fill="midnightblue" stroke="midnightblue" points="46.5767,-23.4912 36.261,-21.0752 42.8186,-29.3968 46.5767,-23.4912"/>
</g>
<!-- Node5 -->
<g id="node5" class="node"><title>Node5</title>
<polygon fill="white" stroke="#bfbfbf" points="62.5298,-1 62.5298,-21 157.47,-21 157.47,-1 62.5298,-1"/>
<text text-anchor="middle" x="110" y="-7" font-family="Helvetica,sans-Serif" font-size="10.00">boost/version.hpp</text>
</g>
<!-- Node3&#45;&gt;Node5 -->
<g id="edge4" class="edge"><title>Node3&#45;&gt;Node5</title>
<path fill="none" stroke="midnightblue" d="M110,-58.7527C110,-51.2504 110,-40.4238 110,-31.0781"/>
<polygon fill="midnightblue" stroke="midnightblue" points="113.5,-31.0752 110,-21.0752 106.5,-31.0752 113.5,-31.0752"/>
</g>
<!-- Node6 -->
<g id="node6" class="node"><title>Node6</title>
<polygon fill="white" stroke="#bfbfbf" points="175.621,-1 175.621,-21 308.379,-21 308.379,-1 175.621,-1"/>
<text text-anchor="middle" x="242" y="-7" font-family="Helvetica,sans-Serif" font-size="10.00">boost/checked_delete.hpp</text>
</g>
<!-- Node3&#45;&gt;Node6 -->
<g id="edge5" class="edge"><title>Node3&#45;&gt;Node6</title>
<path fill="none" stroke="midnightblue" d="M131.502,-58.878C153.172,-49.6848 186.821,-35.4095 211.295,-25.0263"/>
<polygon fill="midnightblue" stroke="midnightblue" points="212.668,-28.2457 220.507,-21.1181 209.935,-21.8016 212.668,-28.2457"/>
</g>
<!-- Node7&#45;&gt;Node3 -->
<g id="edge7" class="edge"><title>Node7&#45;&gt;Node3</title>
<path fill="none" stroke="midnightblue" d="M240.589,-116.878C214.562,-107.535 173.913,-92.943 144.883,-82.522"/>
<polygon fill="midnightblue" stroke="midnightblue" points="145.736,-79.1098 135.142,-79.0253 143.371,-85.6982 145.736,-79.1098"/>
</g>
<!-- Node8 -->
<g id="node8" class="node"><title>Node8</title>
<polygon fill="white" stroke="#bfbfbf" points="169.436,-59 169.436,-79 226.564,-79 226.564,-59 169.436,-59"/>
<text text-anchor="middle" x="198" y="-65" font-family="Helvetica,sans-Serif" font-size="10.00">algorithm</text>
</g>
<!-- Node7&#45;&gt;Node8 -->
<g id="edge8" class="edge"><title>Node7&#45;&gt;Node8</title>
<path fill="none" stroke="midnightblue" d="M254.771,-116.753C244.473,-108.272 229.016,-95.543 216.83,-85.5073"/>
<polygon fill="midnightblue" stroke="midnightblue" points="218.964,-82.7305 209.02,-79.0752 214.514,-88.1341 218.964,-82.7305"/>
</g>
<!-- Node9 -->
<g id="node9" class="node"><title>Node9</title>
<polygon fill="white" stroke="#bfbfbf" points="244.384,-59 244.384,-79 287.616,-79 287.616,-59 244.384,-59"/>
<text text-anchor="middle" x="266" y="-65" font-family="Helvetica,sans-Serif" font-size="10.00">vector</text>
</g>
<!-- Node7&#45;&gt;Node9 -->
<g id="edge9" class="edge"><title>Node7&#45;&gt;Node9</title>
<path fill="none" stroke="midnightblue" d="M266,-116.753C266,-109.25 266,-98.4238 266,-89.0781"/>
<polygon fill="midnightblue" stroke="midnightblue" points="269.5,-89.0752 266,-79.0752 262.5,-89.0752 269.5,-89.0752"/>
</g>
<!-- Node10 -->
<g id="node10" class="node"><title>Node10</title>
<polygon fill="white" stroke="#bfbfbf" points="305.608,-59 305.608,-79 344.392,-79 344.392,-59 305.608,-59"/>
<text text-anchor="middle" x="325" y="-65" font-family="Helvetica,sans-Serif" font-size="10.00">utility</text>
</g>
<!-- Node7&#45;&gt;Node10 -->
<g id="edge10" class="edge"><title>Node7&#45;&gt;Node10</title>
<path fill="none" stroke="midnightblue" d="M275.743,-116.753C284.506,-108.435 297.575,-96.031 308.049,-86.0893"/>
<polygon fill="midnightblue" stroke="midnightblue" points="310.595,-88.4981 315.439,-79.0752 305.776,-83.4209 310.595,-88.4981"/>
</g>
<!-- Node11 -->
<g id="node11" class="node"><title>Node11</title>
<polygon fill="white" stroke="#bfbfbf" points="362.303,-59 362.303,-79 461.697,-79 461.697,-59 362.303,-59"/>
<text text-anchor="middle" x="412" y="-65" font-family="Helvetica,sans-Serif" font-size="10.00">boost/signals2.hpp</text>
</g>
<!-- Node7&#45;&gt;Node11 -->
<g id="edge11" class="edge"><title>Node7&#45;&gt;Node11</title>
<path fill="none" stroke="midnightblue" d="M289.782,-116.878C313.962,-107.603 351.628,-93.1564 378.755,-82.7515"/>
<polygon fill="midnightblue" stroke="midnightblue" points="380.145,-85.9672 388.228,-79.1181 377.638,-79.4315 380.145,-85.9672"/>
</g>
<!-- Node12 -->
<g id="node12" class="node"><title>Node12</title>
<polygon fill="white" stroke="#bfbfbf" points="479.596,-59 479.596,-79 538.404,-79 538.404,-59 479.596,-59"/>
<text text-anchor="middle" x="509" y="-65" font-family="Helvetica,sans-Serif" font-size="10.00">functional</text>
</g>
<!-- Node7&#45;&gt;Node12 -->
<g id="edge12" class="edge"><title>Node7&#45;&gt;Node12</title>
<path fill="none" stroke="midnightblue" d="M307.888,-116.93C347.089,-108.358 407.528,-94.9276 469.291,-80.1211"/>
<polygon fill="midnightblue" stroke="midnightblue" points="470.308,-83.4762 479.212,-77.7334 468.67,-76.6705 470.308,-83.4762"/>
</g>
</g>
</svg>
