<?xml version="1.0" encoding="UTF-8" standalone="no"?>
<!DOCTYPE svg PUBLIC "-//W3C//DTD SVG 1.1//EN"
 "http://www.w3.org/Graphics/SVG/1.1/DTD/svg11.dtd">
<!-- Generated by graphviz version 2.30.1 (20140712.1814)
 -->
<!-- Title: src/cinder/UrlImplWinInet.cpp Pages: 1 -->
<!--zoomable 436 -->
<svg id="main" version="1.1" xmlns="http://www.w3.org/2000/svg" xmlns:xlink="http://www.w3.org/1999/xlink" xml:space="preserve" onload="init(evt)">
<style type="text/css"><![CDATA[
.edge:hover path { stroke: red; }
.edge:hover polygon { stroke: red; fill: red; }
]]></style>
<script type="text/javascript"><![CDATA[
var edges = document.getElementsByTagName('g');
if (edges && edges.length) {
  for (var i=0;i<edges.length;i++) {
    if (edges[i].id.substr(0,4)=='edge') {
      edges[i].setAttribute('class','edge');
    }
  }
}
]]></script>
        <defs>
                <circle id="rim" cx="0" cy="0" r="7"/>
                <circle id="rim2" cx="0" cy="0" r="3.5"/>
                <g id="zoomPlus">
                        <use xlink:href="#rim" fill="#404040">
                                <set attributeName="fill" to="#808080" begin="zoomplus.mouseover" end="zoomplus.mouseout"/>
                        </use>
                        <path d="M-4,0h8M0,-4v8" fill="none" stroke="white" stroke-width="1.5" pointer-events="none"/>
                </g>
                <g id="zoomMin">
                        <use xlink:href="#rim" fill="#404040">
                                <set attributeName="fill" to="#808080" begin="zoomminus.mouseover" end="zoomminus.mouseout"/>
                        </use>
                        <path d="M-4,0h8" fill="none" stroke="white" stroke-width="1.5" pointer-events="none"/>
                </g>
                <g id="dirArrow">
                        <path fill="none" stroke="white" stroke-width="1.5" d="M0,-3.0v7 M-2.5,-0.5L0,-3.0L2.5,-0.5"/>
                </g>
               <g id="resetDef">
                       <use xlink:href="#rim2" fill="#404040">
                               <set attributeName="fill" to="#808080" begin="reset.mouseover" end="reset.mouseout"/>
                       </use>
               </g>
        </defs>

<script type="text/javascript">
var viewWidth = 1395;
var viewHeight = 436;
var sectionId = 'dynsection-0';
</script>
<script xlink:href="svgpan.js"/>
<svg id="graph" class="graph">
<g id="viewport">
<title>src/cinder/UrlImplWinInet.cpp</title>
<polygon fill="white" stroke="white" points="-4,5 -4,-432 1392.09,-432 1392.09,5 -4,5"/>
<!-- Node1 -->
<g id="node1" class="node"><title>Node1</title>
<polygon fill="#bfbfbf" stroke="black" points="1075.79,-407 1075.79,-427 1222.38,-427 1222.38,-407 1075.79,-407"/>
<text text-anchor="middle" x="1149.09" y="-413" font-family="Helvetica,sans-Serif" font-size="10.00">src/cinder/UrlImplWinInet.cpp</text>
</g>
<!-- Node2 -->
<g id="node2" class="node"><title>Node2</title>
<g id="a_node2"><a xlink:href="_url_impl_win_inet_8h.html" target="_top" xlink:title="cinder/UrlImplWinInet.h">
<polygon fill="white" stroke="black" points="683.125,-291 683.125,-311 803.046,-311 803.046,-291 683.125,-291"/>
<text text-anchor="middle" x="743.085" y="-297" font-family="Helvetica,sans-Serif" font-size="10.00">cinder/UrlImplWinInet.h</text>
</a>
</g>
</g>
<!-- Node1&#45;&gt;Node2 -->
<g id="edge1" class="edge"><title>Node1&#45;&gt;Node2</title>
<path fill="none" stroke="midnightblue" d="M1075.51,-408.78C1021.59,-402.161 947.108,-390.231 884.085,-370 841.031,-356.179 794.381,-331.6 766.996,-316.084"/>
<polygon fill="midnightblue" stroke="midnightblue" points="768.566,-312.95 758.151,-311.007 765.081,-319.021 768.566,-312.95"/>
</g>
<!-- Node19 -->
<g id="node19" class="node"><title>Node19</title>
<g id="a_node19"><a xlink:href="_utilities_8h.html" target="_top" xlink:title="cinder/Utilities.h">
<polygon fill="white" stroke="black" points="892.795,-349 892.795,-369 979.376,-369 979.376,-349 892.795,-349"/>
<text text-anchor="middle" x="936.085" y="-355" font-family="Helvetica,sans-Serif" font-size="10.00">cinder/Utilities.h</text>
</a>
</g>
</g>
<!-- Node1&#45;&gt;Node19 -->
<g id="edge23" class="edge"><title>Node1&#45;&gt;Node19</title>
<path fill="none" stroke="midnightblue" d="M1114.39,-406.878C1077.77,-397.249 1019.94,-382.046 980.124,-371.578"/>
<polygon fill="midnightblue" stroke="midnightblue" points="980.975,-368.183 970.414,-369.025 979.195,-374.953 980.975,-368.183"/>
</g>
<!-- Node22 -->
<g id="node22" class="node"><title>Node22</title>
<g id="a_node22"><a xlink:href="_unicode_8h.html" target="_top" xlink:title="cinder/Unicode.h">
<polygon fill="white" stroke="black" points="1109.56,-175 1109.56,-195 1200.61,-195 1200.61,-175 1109.56,-175"/>
<text text-anchor="middle" x="1155.09" y="-181" font-family="Helvetica,sans-Serif" font-size="10.00">cinder/Unicode.h</text>
</a>
</g>
</g>
<!-- Node1&#45;&gt;Node22 -->
<g id="edge35" class="edge"><title>Node1&#45;&gt;Node22</title>
<path fill="none" stroke="midnightblue" d="M1146.25,-406.95C1143.54,-397.754 1139.62,-383.048 1138.09,-370 1131,-309.889 1143.59,-238.439 1150.71,-205.014"/>
<polygon fill="midnightblue" stroke="midnightblue" points="1154.13,-205.727 1152.87,-195.207 1147.3,-204.217 1154.13,-205.727"/>
</g>
<!-- Node28 -->
<g id="node28" class="node"><title>Node28</title>
<polygon fill="white" stroke="#bfbfbf" points="1146.63,-349 1146.63,-369 1211.54,-369 1211.54,-349 1146.63,-349"/>
<text text-anchor="middle" x="1179.09" y="-355" font-family="Helvetica,sans-Serif" font-size="10.00">Windows.h</text>
</g>
<!-- Node1&#45;&gt;Node28 -->
<g id="edge45" class="edge"><title>Node1&#45;&gt;Node28</title>
<path fill="none" stroke="midnightblue" d="M1154.04,-406.753C1158.19,-399.006 1164.24,-387.714 1169.35,-378.169"/>
<polygon fill="midnightblue" stroke="midnightblue" points="1172.59,-379.543 1174.22,-369.075 1166.42,-376.237 1172.59,-379.543"/>
</g>
<!-- Node29 -->
<g id="node29" class="node"><title>Node29</title>
<polygon fill="white" stroke="#bfbfbf" points="1229.24,-349 1229.24,-369 1286.93,-369 1286.93,-349 1229.24,-349"/>
<text text-anchor="middle" x="1258.09" y="-355" font-family="Helvetica,sans-Serif" font-size="10.00">Wininet.h</text>
</g>
<!-- Node1&#45;&gt;Node29 -->
<g id="edge46" class="edge"><title>Node1&#45;&gt;Node29</title>
<path fill="none" stroke="midnightblue" d="M1167.08,-406.753C1184.62,-397.742 1211.5,-383.935 1231.5,-373.659"/>
<polygon fill="midnightblue" stroke="midnightblue" points="1233.13,-376.758 1240.42,-369.075 1229.93,-370.532 1233.13,-376.758"/>
</g>
<!-- Node30 -->
<g id="node30" class="node"><title>Node30</title>
<polygon fill="white" stroke="#bfbfbf" points="1305.08,-349 1305.08,-369 1361.09,-369 1361.09,-349 1305.08,-349"/>
<text text-anchor="middle" x="1333.09" y="-355" font-family="Helvetica,sans-Serif" font-size="10.00">Strsafe.h</text>
</g>
<!-- Node1&#45;&gt;Node30 -->
<g id="edge47" class="edge"><title>Node1&#45;&gt;Node30</title>
<path fill="none" stroke="midnightblue" d="M1179.06,-406.878C1210.76,-397.231 1260.84,-381.987 1295.24,-371.518"/>
<polygon fill="midnightblue" stroke="midnightblue" points="1296.39,-374.827 1304.94,-368.567 1294.35,-368.13 1296.39,-374.827"/>
</g>
<!-- Node3 -->
<g id="node3" class="node"><title>Node3</title>
<g id="a_node3"><a xlink:href="_url_8h.html" target="_top" xlink:title="cinder/Url.h">
<polygon fill="white" stroke="black" points="707.521,-233 707.521,-253 774.649,-253 774.649,-233 707.521,-233"/>
<text text-anchor="middle" x="741.085" y="-239" font-family="Helvetica,sans-Serif" font-size="10.00">cinder/Url.h</text>
</a>
</g>
</g>
<!-- Node2&#45;&gt;Node3 -->
<g id="edge2" class="edge"><title>Node2&#45;&gt;Node3</title>
<path fill="none" stroke="midnightblue" d="M742.755,-290.753C742.487,-283.25 742.1,-272.424 741.767,-263.078"/>
<polygon fill="midnightblue" stroke="midnightblue" points="745.264,-262.944 741.409,-253.075 738.269,-263.194 745.264,-262.944"/>
</g>
<!-- Node4 -->
<g id="node4" class="node"><title>Node4</title>
<g id="a_node4"><a xlink:href="_cinder_8h.html" target="_top" xlink:title="cinder/Cinder.h">
<polygon fill="white" stroke="black" points="253.452,-59 253.452,-79 336.718,-79 336.718,-59 253.452,-59"/>
<text text-anchor="middle" x="295.085" y="-65" font-family="Helvetica,sans-Serif" font-size="10.00">cinder/Cinder.h</text>
</a>
</g>
</g>
<!-- Node3&#45;&gt;Node4 -->
<g id="edge3" class="edge"><title>Node3&#45;&gt;Node4</title>
<path fill="none" stroke="midnightblue" d="M750.698,-232.829C758.968,-224.221 770.3,-210.525 775.085,-196 780.597,-179.268 787.118,-130.098 774.085,-116 745.529,-85.1091 465.382,-74.3516 347.225,-71.1688"/>
<polygon fill="midnightblue" stroke="midnightblue" points="347.069,-67.6636 336.981,-70.9009 346.886,-74.6612 347.069,-67.6636"/>
</g>
<!-- Node8 -->
<g id="node8" class="node"><title>Node8</title>
<g id="a_node8"><a xlink:href="_stream_8h.html" target="_top" xlink:title="cinder/Stream.h">
<polygon fill="white" stroke="black" points="434.792,-175 434.792,-195 521.378,-195 521.378,-175 434.792,-175"/>
<text text-anchor="middle" x="478.085" y="-181" font-family="Helvetica,sans-Serif" font-size="10.00">cinder/Stream.h</text>
</a>
</g>
</g>
<!-- Node3&#45;&gt;Node8 -->
<g id="edge7" class="edge"><title>Node3&#45;&gt;Node8</title>
<path fill="none" stroke="midnightblue" d="M707.509,-234.851C662.756,-225.322 583.095,-208.359 530.423,-197.144"/>
<polygon fill="midnightblue" stroke="midnightblue" points="531.102,-193.71 520.592,-195.051 529.644,-200.557 531.102,-193.71"/>
</g>
<!-- Node18 -->
<g id="node18" class="node"><title>Node18</title>
<polygon fill="white" stroke="#bfbfbf" points="711.913,-175 711.913,-195 766.258,-195 766.258,-175 711.913,-175"/>
<text text-anchor="middle" x="739.085" y="-181" font-family="Helvetica,sans-Serif" font-size="10.00">iostream</text>
</g>
<!-- Node3&#45;&gt;Node18 -->
<g id="edge22" class="edge"><title>Node3&#45;&gt;Node18</title>
<path fill="none" stroke="midnightblue" d="M740.755,-232.753C740.487,-225.25 740.1,-214.424 739.767,-205.078"/>
<polygon fill="midnightblue" stroke="midnightblue" points="743.264,-204.944 739.409,-195.075 736.269,-205.194 743.264,-204.944"/>
</g>
<!-- Node5 -->
<g id="node5" class="node"><title>Node5</title>
<polygon fill="white" stroke="#bfbfbf" points="184.635,-1 184.635,-21 229.536,-21 229.536,-1 184.635,-1"/>
<text text-anchor="middle" x="207.085" y="-7" font-family="Helvetica,sans-Serif" font-size="10.00">cstdint</text>
</g>
<!-- Node4&#45;&gt;Node5 -->
<g id="edge4" class="edge"><title>Node4&#45;&gt;Node5</title>
<path fill="none" stroke="midnightblue" d="M280.554,-58.7527C266.842,-50.0272 246.065,-36.8051 230.1,-26.6458"/>
<polygon fill="midnightblue" stroke="midnightblue" points="231.662,-23.4912 221.346,-21.0752 227.904,-29.3968 231.662,-23.4912"/>
</g>
<!-- Node6 -->
<g id="node6" class="node"><title>Node6</title>
<polygon fill="white" stroke="#bfbfbf" points="247.615,-1 247.615,-21 342.555,-21 342.555,-1 247.615,-1"/>
<text text-anchor="middle" x="295.085" y="-7" font-family="Helvetica,sans-Serif" font-size="10.00">boost/version.hpp</text>
</g>
<!-- Node4&#45;&gt;Node6 -->
<g id="edge5" class="edge"><title>Node4&#45;&gt;Node6</title>
<path fill="none" stroke="midnightblue" d="M295.085,-58.7527C295.085,-51.2504 295.085,-40.4238 295.085,-31.0781"/>
<polygon fill="midnightblue" stroke="midnightblue" points="298.585,-31.0752 295.085,-21.0752 291.585,-31.0752 298.585,-31.0752"/>
</g>
<!-- Node7 -->
<g id="node7" class="node"><title>Node7</title>
<polygon fill="white" stroke="#bfbfbf" points="360.706,-1 360.706,-21 493.464,-21 493.464,-1 360.706,-1"/>
<text text-anchor="middle" x="427.085" y="-7" font-family="Helvetica,sans-Serif" font-size="10.00">boost/checked_delete.hpp</text>
</g>
<!-- Node4&#45;&gt;Node7 -->
<g id="edge6" class="edge"><title>Node4&#45;&gt;Node7</title>
<path fill="none" stroke="midnightblue" d="M316.587,-58.878C338.257,-49.6848 371.906,-35.4095 396.38,-25.0263"/>
<polygon fill="midnightblue" stroke="midnightblue" points="397.754,-28.2457 405.593,-21.1181 395.02,-21.8016 397.754,-28.2457"/>
</g>
<!-- Node8&#45;&gt;Node4 -->
<g id="edge8" class="edge"><title>Node8&#45;&gt;Node4</title>
<path fill="none" stroke="midnightblue" d="M434.606,-183.137C397.712,-180.053 345.852,-169.799 314.085,-138 301.383,-125.285 296.998,-104.828 295.57,-89.6685"/>
<polygon fill="midnightblue" stroke="midnightblue" points="299.043,-89.1034 294.966,-79.3246 292.055,-89.5118 299.043,-89.1034"/>
</g>
<!-- Node9 -->
<g id="node9" class="node"><title>Node9</title>
<g id="a_node9"><a xlink:href="_buffer_8h.html" target="_top" xlink:title="cinder/Buffer.h">
<polygon fill="white" stroke="black" points="186.929,-117 186.929,-137 267.241,-137 267.241,-117 186.929,-117"/>
<text text-anchor="middle" x="227.085" y="-123" font-family="Helvetica,sans-Serif" font-size="10.00">cinder/Buffer.h</text>
</a>
</g>
</g>
<!-- Node8&#45;&gt;Node9 -->
<g id="edge9" class="edge"><title>Node8&#45;&gt;Node9</title>
<path fill="none" stroke="midnightblue" d="M437.479,-174.94C393.917,-165.222 324.667,-149.771 277.614,-139.273"/>
<polygon fill="midnightblue" stroke="midnightblue" points="278.155,-135.808 267.633,-137.047 276.631,-142.64 278.155,-135.808"/>
</g>
<!-- Node10 -->
<g id="node10" class="node"><title>Node10</title>
<g id="a_node10"><a xlink:href="_exception_8h.html" target="_top" xlink:title="cinder/Exception.h">
<polygon fill="white" stroke="black" points="897.95,-117 897.95,-137 996.22,-137 996.22,-117 897.95,-117"/>
<text text-anchor="middle" x="947.085" y="-123" font-family="Helvetica,sans-Serif" font-size="10.00">cinder/Exception.h</text>
</a>
</g>
</g>
<!-- Node8&#45;&gt;Node10 -->
<g id="edge11" class="edge"><title>Node8&#45;&gt;Node10</title>
<path fill="none" stroke="midnightblue" d="M521.786,-178.782C606.258,-168.696 792.025,-146.515 887.641,-135.098"/>
<polygon fill="midnightblue" stroke="midnightblue" points="888.21,-138.555 897.724,-133.894 887.38,-131.604 888.21,-138.555"/>
</g>
<!-- Node13 -->
<g id="node13" class="node"><title>Node13</title>
<g id="a_node13"><a xlink:href="_filesystem_8h.html" target="_top" xlink:title="cinder/Filesystem.h">
<polygon fill="white" stroke="black" points="29.0163,-117 29.0163,-137 131.154,-137 131.154,-117 29.0163,-117"/>
<text text-anchor="middle" x="80.0852" y="-123" font-family="Helvetica,sans-Serif" font-size="10.00">cinder/Filesystem.h</text>
</a>
</g>
</g>
<!-- Node8&#45;&gt;Node13 -->
<g id="edge15" class="edge"><title>Node8&#45;&gt;Node13</title>
<path fill="none" stroke="midnightblue" d="M434.735,-177.9C363.731,-167.91 222.442,-148.03 141.269,-136.609"/>
<polygon fill="midnightblue" stroke="midnightblue" points="141.583,-133.119 131.193,-135.191 140.608,-140.05 141.583,-133.119"/>
</g>
<!-- Node15 -->
<g id="node15" class="node"><title>Node15</title>
<polygon fill="white" stroke="#bfbfbf" points="646.376,-117 646.376,-137 765.794,-137 765.794,-117 646.376,-117"/>
<text text-anchor="middle" x="706.085" y="-123" font-family="Helvetica,sans-Serif" font-size="10.00">boost/noncopyable.hpp</text>
</g>
<!-- Node8&#45;&gt;Node15 -->
<g id="edge18" class="edge"><title>Node8&#45;&gt;Node15</title>
<path fill="none" stroke="midnightblue" d="M514.971,-174.94C554.292,-165.283 616.655,-149.965 659.378,-139.472"/>
<polygon fill="midnightblue" stroke="midnightblue" points="660.376,-142.831 669.253,-137.047 658.706,-136.033 660.376,-142.831"/>
</g>
<!-- Node12 -->
<g id="node12" class="node"><title>Node12</title>
<polygon fill="white" stroke="#bfbfbf" points="942.859,-59 942.859,-79 983.312,-79 983.312,-59 942.859,-59"/>
<text text-anchor="middle" x="963.085" y="-65" font-family="Helvetica,sans-Serif" font-size="10.00">string</text>
</g>
<!-- Node8&#45;&gt;Node12 -->
<g id="edge19" class="edge"><title>Node8&#45;&gt;Node12</title>
<path fill="none" stroke="midnightblue" d="M521.747,-179.855C579.959,-173.732 685.899,-160.496 774.085,-138 831.687,-123.306 896.383,-98.0281 933.182,-82.7781"/>
<polygon fill="midnightblue" stroke="midnightblue" points="934.917,-85.8465 942.793,-78.7598 932.216,-79.3883 934.917,-85.8465"/>
</g>
<!-- Node16 -->
<g id="node16" class="node"><title>Node16</title>
<polygon fill="white" stroke="#bfbfbf" points="322.659,-117 322.659,-137 471.511,-137 471.511,-117 322.659,-117"/>
<text text-anchor="middle" x="397.085" y="-123" font-family="Helvetica,sans-Serif" font-size="10.00">boost/iostreams/concepts.hpp</text>
</g>
<!-- Node8&#45;&gt;Node16 -->
<g id="edge20" class="edge"><title>Node8&#45;&gt;Node16</title>
<path fill="none" stroke="midnightblue" d="M464.71,-174.753C452.207,-166.109 433.321,-153.052 418.682,-142.931"/>
<polygon fill="midnightblue" stroke="midnightblue" points="420.428,-139.883 410.212,-137.075 416.447,-145.641 420.428,-139.883"/>
</g>
<!-- Node17 -->
<g id="node17" class="node"><title>Node17</title>
<polygon fill="white" stroke="#bfbfbf" points="489.391,-117 489.391,-137 628.78,-137 628.78,-117 489.391,-117"/>
<text text-anchor="middle" x="559.085" y="-123" font-family="Helvetica,sans-Serif" font-size="10.00">boost/iostreams/stream.hpp</text>
</g>
<!-- Node8&#45;&gt;Node17 -->
<g id="edge21" class="edge"><title>Node8&#45;&gt;Node17</title>
<path fill="none" stroke="midnightblue" d="M491.461,-174.753C503.964,-166.109 522.85,-153.052 537.488,-142.931"/>
<polygon fill="midnightblue" stroke="midnightblue" points="539.723,-145.641 545.959,-137.075 535.743,-139.883 539.723,-145.641"/>
</g>
<!-- Node9&#45;&gt;Node4 -->
<g id="edge10" class="edge"><title>Node9&#45;&gt;Node4</title>
<path fill="none" stroke="midnightblue" d="M238.314,-116.753C248.612,-108.272 264.069,-95.543 276.255,-85.5073"/>
<polygon fill="midnightblue" stroke="midnightblue" points="278.571,-88.1341 284.065,-79.0752 274.121,-82.7305 278.571,-88.1341"/>
</g>
<!-- Node10&#45;&gt;Node4 -->
<g id="edge12" class="edge"><title>Node10&#45;&gt;Node4</title>
<path fill="none" stroke="midnightblue" d="M897.614,-117.767C893.047,-117.122 888.484,-116.52 884.085,-116 686.393,-92.6279 449.913,-78.2547 347.088,-72.6693"/>
<polygon fill="midnightblue" stroke="midnightblue" points="347.148,-69.1675 336.974,-72.1249 346.771,-76.1574 347.148,-69.1675"/>
</g>
<!-- Node11 -->
<g id="node11" class="node"><title>Node11</title>
<polygon fill="white" stroke="#bfbfbf" points="1018.47,-59 1018.47,-79 1061.7,-79 1061.7,-59 1018.47,-59"/>
<text text-anchor="middle" x="1040.09" y="-65" font-family="Helvetica,sans-Serif" font-size="10.00">vector</text>
</g>
<!-- Node10&#45;&gt;Node11 -->
<g id="edge13" class="edge"><title>Node10&#45;&gt;Node11</title>
<path fill="none" stroke="midnightblue" d="M962.442,-116.753C977.068,-107.946 999.302,-94.5575 1016.23,-84.3617"/>
<polygon fill="midnightblue" stroke="midnightblue" points="1018.25,-87.2321 1025.01,-79.0752 1014.64,-81.2354 1018.25,-87.2321"/>
</g>
<!-- Node10&#45;&gt;Node12 -->
<g id="edge14" class="edge"><title>Node10&#45;&gt;Node12</title>
<path fill="none" stroke="midnightblue" d="M949.727,-116.753C951.894,-109.169 955.031,-98.1881 957.721,-88.7739"/>
<polygon fill="midnightblue" stroke="midnightblue" points="961.11,-89.652 960.492,-79.0752 954.38,-87.7289 961.11,-89.652"/>
</g>
<!-- Node13&#45;&gt;Node4 -->
<g id="edge16" class="edge"><title>Node13&#45;&gt;Node4</title>
<path fill="none" stroke="midnightblue" d="M115.107,-116.878C152.074,-107.249 210.444,-92.046 250.633,-81.5783"/>
<polygon fill="midnightblue" stroke="midnightblue" points="251.64,-84.9329 260.434,-79.0253 249.875,-78.1589 251.64,-84.9329"/>
</g>
<!-- Node14 -->
<g id="node14" class="node"><title>Node14</title>
<polygon fill="white" stroke="#bfbfbf" points="26.5066,-59 26.5066,-79 133.664,-79 133.664,-59 26.5066,-59"/>
<text text-anchor="middle" x="80.0852" y="-65" font-family="Helvetica,sans-Serif" font-size="10.00">boost/filesystem.hpp</text>
</g>
<!-- Node13&#45;&gt;Node14 -->
<g id="edge17" class="edge"><title>Node13&#45;&gt;Node14</title>
<path fill="none" stroke="midnightblue" d="M80.0852,-116.753C80.0852,-109.25 80.0852,-98.4238 80.0852,-89.0781"/>
<polygon fill="midnightblue" stroke="midnightblue" points="83.5853,-89.0752 80.0852,-79.0752 76.5853,-89.0752 83.5853,-89.0752"/>
</g>
<!-- Node19&#45;&gt;Node12 -->
<g id="edge24" class="edge"><title>Node19&#45;&gt;Node12</title>
<path fill="none" stroke="midnightblue" d="M955.448,-348.896C970.188,-341.044 989.948,-328.386 1002.09,-312 1020.99,-286.475 1024.09,-275.765 1024.09,-244 1024.09,-244 1024.09,-244 1024.09,-184 1024.09,-152.62 1020.3,-143.444 1005.09,-116 998.966,-104.962 989.697,-94.4285 981.423,-86.233"/>
<polygon fill="midnightblue" stroke="midnightblue" points="983.601,-83.4761 973.929,-79.1518 978.793,-88.5639 983.601,-83.4761"/>
</g>
<!-- Node19&#45;&gt;Node11 -->
<g id="edge25" class="edge"><title>Node19&#45;&gt;Node11</title>
<path fill="none" stroke="midnightblue" d="M966.857,-348.855C985.719,-341.724 1008.89,-329.963 1023.09,-312 1075.81,-245.285 1055.94,-133.287 1045.19,-88.9223"/>
<polygon fill="midnightblue" stroke="midnightblue" points="1048.57,-87.9941 1042.71,-79.1691 1041.79,-89.7239 1048.57,-87.9941"/>
</g>
<!-- Node19&#45;&gt;Node4 -->
<g id="edge26" class="edge"><title>Node19&#45;&gt;Node4</title>
<path fill="none" stroke="midnightblue" d="M892.553,-357.333C708.183,-353.944 1.08519,-335.014 1.08519,-244 1.08519,-244 1.08519,-244 1.08519,-184 1.08519,-152.62 -3.25558,-136.974 20.0852,-116 52.1722,-87.1669 172.881,-76.1849 243.256,-72.1735"/>
<polygon fill="midnightblue" stroke="midnightblue" points="243.462,-75.6676 253.258,-71.6309 243.083,-68.6778 243.462,-75.6676"/>
</g>
<!-- Node19&#45;&gt;Node3 -->
<g id="edge27" class="edge"><title>Node19&#45;&gt;Node3</title>
<path fill="none" stroke="midnightblue" d="M920.457,-348.864C886.5,-329.012 805.783,-281.823 765.223,-258.111"/>
<polygon fill="midnightblue" stroke="midnightblue" points="766.916,-255.047 756.517,-253.022 763.384,-261.09 766.916,-255.047"/>
</g>
<!-- Node20 -->
<g id="node20" class="node"><title>Node20</title>
<g id="a_node20"><a xlink:href="_data_source_8h.html" target="_top" xlink:title="cinder/DataSource.h">
<polygon fill="white" stroke="black" points="290.504,-291 290.504,-311 397.666,-311 397.666,-291 290.504,-291"/>
<text text-anchor="middle" x="344.085" y="-297" font-family="Helvetica,sans-Serif" font-size="10.00">cinder/DataSource.h</text>
</a>
</g>
</g>
<!-- Node19&#45;&gt;Node20 -->
<g id="edge28" class="edge"><title>Node19&#45;&gt;Node20</title>
<path fill="none" stroke="midnightblue" d="M892.554,-353.882C789.289,-344.114 529.109,-319.502 407.973,-308.043"/>
<polygon fill="midnightblue" stroke="midnightblue" points="408.028,-304.533 397.743,-307.076 407.369,-311.502 408.028,-304.533"/>
</g>
<!-- Node21 -->
<g id="node21" class="node"><title>Node21</title>
<polygon fill="white" stroke="#bfbfbf" points="878.888,-291 878.888,-311 993.282,-311 993.282,-291 878.888,-291"/>
<text text-anchor="middle" x="936.085" y="-297" font-family="Helvetica,sans-Serif" font-size="10.00">boost/lexical_cast.hpp</text>
</g>
<!-- Node19&#45;&gt;Node21 -->
<g id="edge34" class="edge"><title>Node19&#45;&gt;Node21</title>
<path fill="none" stroke="midnightblue" d="M936.085,-348.753C936.085,-341.25 936.085,-330.424 936.085,-321.078"/>
<polygon fill="midnightblue" stroke="midnightblue" points="939.585,-321.075 936.085,-311.075 932.585,-321.075 939.585,-321.075"/>
</g>
<!-- Node20&#45;&gt;Node4 -->
<g id="edge29" class="edge"><title>Node20&#45;&gt;Node4</title>
<path fill="none" stroke="midnightblue" d="M328.418,-290.977C293.308,-269.715 208.983,-212.593 178.085,-138 164.756,-105.821 206.103,-88.1073 243.269,-78.8967"/>
<polygon fill="midnightblue" stroke="midnightblue" points="244.136,-82.2888 253.091,-76.627 242.56,-75.4686 244.136,-82.2888"/>
</g>
<!-- Node20&#45;&gt;Node3 -->
<g id="edge30" class="edge"><title>Node20&#45;&gt;Node3</title>
<path fill="none" stroke="midnightblue" d="M398.04,-292.389C477.351,-281.202 623.905,-260.529 697.096,-250.205"/>
<polygon fill="midnightblue" stroke="midnightblue" points="697.932,-253.622 707.345,-248.759 696.954,-246.69 697.932,-253.622"/>
</g>
<!-- Node20&#45;&gt;Node9 -->
<g id="edge31" class="edge"><title>Node20&#45;&gt;Node9</title>
<path fill="none" stroke="midnightblue" d="M337.795,-290.753C319.146,-263.338 263.927,-182.161 239.244,-145.875"/>
<polygon fill="midnightblue" stroke="midnightblue" points="241.925,-143.593 233.407,-137.293 236.137,-147.53 241.925,-143.593"/>
</g>
<!-- Node20&#45;&gt;Node8 -->
<g id="edge32" class="edge"><title>Node20&#45;&gt;Node8</title>
<path fill="none" stroke="midnightblue" d="M355.051,-290.671C377.936,-271.202 431.005,-226.053 459.387,-201.907"/>
<polygon fill="midnightblue" stroke="midnightblue" points="461.994,-204.285 467.342,-195.139 457.458,-198.953 461.994,-204.285"/>
</g>
<!-- Node20&#45;&gt;Node13 -->
<g id="edge33" class="edge"><title>Node20&#45;&gt;Node13</title>
<path fill="none" stroke="midnightblue" d="M290.276,-299.576C246.961,-296.623 186.657,-286.321 145.085,-254 109.917,-226.658 91.988,-175.004 84.4995,-147.077"/>
<polygon fill="midnightblue" stroke="midnightblue" points="87.8807,-146.17 82.0535,-137.322 81.0909,-147.873 87.8807,-146.17"/>
</g>
<!-- Node22&#45;&gt;Node4 -->
<g id="edge36" class="edge"><title>Node22&#45;&gt;Node4</title>
<path fill="none" stroke="midnightblue" d="M1109.17,-177.402C1055.95,-169.443 965.724,-154.995 889.085,-138 852.666,-129.924 844.804,-122.58 808.085,-116 641.168,-86.0883 440.035,-75.2498 346.978,-71.6406"/>
<polygon fill="midnightblue" stroke="midnightblue" points="347.1,-68.1429 336.975,-71.2646 346.837,-75.1379 347.1,-68.1429"/>
</g>
<!-- Node23 -->
<g id="node23" class="node"><title>Node23</title>
<g id="a_node23"><a xlink:href="_function_8h.html" target="_top" xlink:title="cinder/Function.h">
<polygon fill="white" stroke="black" points="1127.73,-117 1127.73,-137 1220.44,-137 1220.44,-117 1127.73,-117"/>
<text text-anchor="middle" x="1174.09" y="-123" font-family="Helvetica,sans-Serif" font-size="10.00">cinder/Function.h</text>
</a>
</g>
</g>
<!-- Node22&#45;&gt;Node23 -->
<g id="edge37" class="edge"><title>Node22&#45;&gt;Node23</title>
<path fill="none" stroke="midnightblue" d="M1158.22,-174.753C1160.8,-167.169 1164.52,-156.188 1167.72,-146.774"/>
<polygon fill="midnightblue" stroke="midnightblue" points="1171.11,-147.67 1171.01,-137.075 1164.48,-145.42 1171.11,-147.67"/>
</g>
<!-- Node22&#45;&gt;Node12 -->
<g id="edge44" class="edge"><title>Node22&#45;&gt;Node12</title>
<path fill="none" stroke="midnightblue" d="M1139.7,-174.864C1106.33,-155.053 1027.12,-108.022 987.105,-84.2615"/>
<polygon fill="midnightblue" stroke="midnightblue" points="988.665,-81.1176 978.28,-79.0217 985.091,-87.1366 988.665,-81.1176"/>
</g>
<!-- Node23&#45;&gt;Node4 -->
<g id="edge38" class="edge"><title>Node23&#45;&gt;Node4</title>
<path fill="none" stroke="midnightblue" d="M1127.45,-123.029C977.043,-113.447 505.418,-83.4 347.327,-73.3283"/>
<polygon fill="midnightblue" stroke="midnightblue" points="347.137,-69.8091 336.934,-72.6661 346.691,-76.795 347.137,-69.8091"/>
</g>
<!-- Node24 -->
<g id="node24" class="node"><title>Node24</title>
<polygon fill="white" stroke="#bfbfbf" points="1079.52,-59 1079.52,-79 1136.65,-79 1136.65,-59 1079.52,-59"/>
<text text-anchor="middle" x="1108.09" y="-65" font-family="Helvetica,sans-Serif" font-size="10.00">algorithm</text>
</g>
<!-- Node23&#45;&gt;Node24 -->
<g id="edge39" class="edge"><title>Node23&#45;&gt;Node24</title>
<path fill="none" stroke="midnightblue" d="M1163.19,-116.753C1153.29,-108.353 1138.48,-95.7874 1126.7,-85.7976"/>
<polygon fill="midnightblue" stroke="midnightblue" points="1128.67,-82.8762 1118.78,-79.0752 1124.14,-88.2138 1128.67,-82.8762"/>
</g>
<!-- Node23&#45;&gt;Node11 -->
<g id="edge40" class="edge"><title>Node23&#45;&gt;Node11</title>
<path fill="none" stroke="midnightblue" d="M1152.26,-116.878C1130.26,-107.685 1096.1,-93.4095 1071.26,-83.0263"/>
<polygon fill="midnightblue" stroke="midnightblue" points="1072.48,-79.7447 1061.9,-79.1181 1069.78,-86.2034 1072.48,-79.7447"/>
</g>
<!-- Node25 -->
<g id="node25" class="node"><title>Node25</title>
<polygon fill="white" stroke="#bfbfbf" points="1154.69,-59 1154.69,-79 1193.48,-79 1193.48,-59 1154.69,-59"/>
<text text-anchor="middle" x="1174.09" y="-65" font-family="Helvetica,sans-Serif" font-size="10.00">utility</text>
</g>
<!-- Node23&#45;&gt;Node25 -->
<g id="edge41" class="edge"><title>Node23&#45;&gt;Node25</title>
<path fill="none" stroke="midnightblue" d="M1174.09,-116.753C1174.09,-109.25 1174.09,-98.4238 1174.09,-89.0781"/>
<polygon fill="midnightblue" stroke="midnightblue" points="1177.59,-89.0752 1174.09,-79.0752 1170.59,-89.0752 1177.59,-89.0752"/>
</g>
<!-- Node26 -->
<g id="node26" class="node"><title>Node26</title>
<polygon fill="white" stroke="#bfbfbf" points="1211.39,-59 1211.39,-79 1310.78,-79 1310.78,-59 1211.39,-59"/>
<text text-anchor="middle" x="1261.09" y="-65" font-family="Helvetica,sans-Serif" font-size="10.00">boost/signals2.hpp</text>
</g>
<!-- Node23&#45;&gt;Node26 -->
<g id="edge42" class="edge"><title>Node23&#45;&gt;Node26</title>
<path fill="none" stroke="midnightblue" d="M1188.45,-116.753C1202.01,-108.027 1222.55,-94.8051 1238.33,-84.6458"/>
<polygon fill="midnightblue" stroke="midnightblue" points="1240.47,-87.4307 1246.99,-79.0752 1236.68,-81.5447 1240.47,-87.4307"/>
</g>
<!-- Node27 -->
<g id="node27" class="node"><title>Node27</title>
<polygon fill="white" stroke="#bfbfbf" points="1328.68,-59 1328.68,-79 1387.49,-79 1387.49,-59 1328.68,-59"/>
<text text-anchor="middle" x="1358.09" y="-65" font-family="Helvetica,sans-Serif" font-size="10.00">functional</text>
</g>
<!-- Node23&#45;&gt;Node27 -->
<g id="edge43" class="edge"><title>Node23&#45;&gt;Node27</title>
<path fill="none" stroke="midnightblue" d="M1204.06,-116.878C1235.29,-107.372 1284.38,-92.4317 1318.72,-81.9798"/>
<polygon fill="midnightblue" stroke="midnightblue" points="1319.88,-85.2854 1328.43,-79.0253 1317.84,-78.5886 1319.88,-85.2854"/>
</g>
</g>
</svg>
        <g id="navigator" transform="translate(0 0)" fill="#404254">
                <rect fill="#f2f5e9" fill-opacity="0.5" stroke="#606060" stroke-width=".5" x="0" y="0" width="60" height="60"/>
                <use id="zoomplus" xlink:href="#zoomPlus" x="17" y="9" onmousedown="handleZoom(evt,'in')"/>
                <use id="zoomminus" xlink:href="#zoomMin" x="42" y="9" onmousedown="handleZoom(evt,'out')"/>
                <use id="reset" xlink:href="#resetDef" x="30" y="36" onmousedown="handleReset()"/>
                <g id="arrowUp" xlink:href="#dirArrow" transform="translate(30 24)" onmousedown="handlePan(0,-1)">
                  <use xlink:href="#rim" fill="#404040">
                        <set attributeName="fill" to="#808080" begin="arrowUp.mouseover" end="arrowUp.mouseout"/>
                  </use>
                  <path fill="none" stroke="white" stroke-width="1.5" d="M0,-3.0v7 M-2.5,-0.5L0,-3.0L2.5,-0.5"/>
                </g>
                <g id="arrowRight" xlink:href="#dirArrow" transform="rotate(90) translate(36 -43)" onmousedown="handlePan(1,0)">
                  <use xlink:href="#rim" fill="#404040">
                        <set attributeName="fill" to="#808080" begin="arrowRight.mouseover" end="arrowRight.mouseout"/>
                  </use>
                  <path fill="none" stroke="white" stroke-width="1.5" d="M0,-3.0v7 M-2.5,-0.5L0,-3.0L2.5,-0.5"/>
                </g>
                <g id="arrowDown" xlink:href="#dirArrow" transform="rotate(180) translate(-30 -48)" onmousedown="handlePan(0,1)">
                  <use xlink:href="#rim" fill="#404040">
                        <set attributeName="fill" to="#808080" begin="arrowDown.mouseover" end="arrowDown.mouseout"/>
                  </use>
                  <path fill="none" stroke="white" stroke-width="1.5" d="M0,-3.0v7 M-2.5,-0.5L0,-3.0L2.5,-0.5"/>
                </g>
                <g id="arrowLeft" xlink:href="#dirArrow" transform="rotate(270) translate(-36 17)" onmousedown="handlePan(-1,0)">
                  <use xlink:href="#rim" fill="#404040">
                        <set attributeName="fill" to="#808080" begin="arrowLeft.mouseover" end="arrowLeft.mouseout"/>
                  </use>
                  <path fill="none" stroke="white" stroke-width="1.5" d="M0,-3.0v7 M-2.5,-0.5L0,-3.0L2.5,-0.5"/>
                </g>
        </g>
        <svg viewBox="0 0 15 15" width="100%" height="30px" preserveAspectRatio="xMaxYMin meet">
         <g id="arrow_out" transform="scale(0.3 0.3)">
          <a xlink:href="_url_impl_win_inet_8cpp__incl_org.svg" target="_base">
           <rect id="button" ry="5" rx="5" y="6" x="6" height="38" width="38"
                fill="#f2f5e9" fill-opacity="0.5" stroke="#606060" stroke-width="1.0"/>
           <path id="arrow"
             d="M 11.500037,31.436501 C 11.940474,20.09759 22.043105,11.32322 32.158766,21.979434 L 37.068811,17.246167 C 37.068811,17.246167 37.088388,32 37.088388,32 L 22.160133,31.978069 C 22.160133,31.978069 26.997745,27.140456 26.997745,27.140456 C 18.528582,18.264221 13.291696,25.230495 11.500037,31.436501 z"
             style="fill:#404040;"/>
          </a>
         </g>
        </svg>
</svg>
