<?xml version="1.0" encoding="UTF-8" standalone="no"?>
<!DOCTYPE svg PUBLIC "-//W3C//DTD SVG 1.1//EN"
 "http://www.w3.org/Graphics/SVG/1.1/DTD/svg11.dtd">
<!-- Generated by graphviz version 2.30.1 (20140712.1814)
 -->
<!-- Title: include/cinder/Url.h Pages: 1 -->
<svg width="895pt" height="262pt"
 viewBox="0.00 0.00 895.00 262.00" xmlns="http://www.w3.org/2000/svg" xmlns:xlink="http://www.w3.org/1999/xlink">
<g id="graph0" class="graph" transform="scale(1 1) rotate(0) translate(4 258)">
<title>include/cinder/Url.h</title>
<polygon fill="white" stroke="white" points="-4,5 -4,-258 892,-258 892,5 -4,5"/>
<!-- Node1 -->
<g id="node1" class="node"><title>Node1</title>
<polygon fill="#bfbfbf" stroke="black" points="329.202,-233 329.202,-253 430.798,-253 430.798,-233 329.202,-233"/>
<text text-anchor="middle" x="380" y="-239" font-family="Helvetica,sans-Serif" font-size="10.00">include/cinder/Url.h</text>
</g>
<!-- Node2 -->
<g id="node2" class="node"><title>Node2</title>
<g id="a_node2"><a xlink:href="_cinder_8h.html" target="_top" xlink:title="cinder/Cinder.h">
<polygon fill="white" stroke="black" points="68.3672,-59 68.3672,-79 151.633,-79 151.633,-59 68.3672,-59"/>
<text text-anchor="middle" x="110" y="-65" font-family="Helvetica,sans-Serif" font-size="10.00">cinder/Cinder.h</text>
</a>
</g>
</g>
<!-- Node1&#45;&gt;Node2 -->
<g id="edge1" class="edge"><title>Node1&#45;&gt;Node2</title>
<path fill="none" stroke="midnightblue" d="M329.039,-233.268C245.633,-217.822 85.9243,-183.021 53,-138 38.9167,-118.742 62.7357,-97.8977 83.7512,-84.4345"/>
<polygon fill="midnightblue" stroke="midnightblue" points="85.736,-87.3241 92.4676,-79.1426 82.1032,-81.3405 85.736,-87.3241"/>
</g>
<!-- Node6 -->
<g id="node6" class="node"><title>Node6</title>
<g id="a_node6"><a xlink:href="_stream_8h.html" target="_top" xlink:title="cinder/Stream.h">
<polygon fill="white" stroke="black" points="336.707,-175 336.707,-195 423.293,-195 423.293,-175 336.707,-175"/>
<text text-anchor="middle" x="380" y="-181" font-family="Helvetica,sans-Serif" font-size="10.00">cinder/Stream.h</text>
</a>
</g>
</g>
<!-- Node1&#45;&gt;Node6 -->
<g id="edge5" class="edge"><title>Node1&#45;&gt;Node6</title>
<path fill="none" stroke="midnightblue" d="M380,-232.753C380,-225.25 380,-214.424 380,-205.078"/>
<polygon fill="midnightblue" stroke="midnightblue" points="383.5,-205.075 380,-195.075 376.5,-205.075 383.5,-205.075"/>
</g>
<!-- Node16 -->
<g id="node16" class="node"><title>Node16</title>
<polygon fill="white" stroke="#bfbfbf" points="440.828,-175 440.828,-195 495.172,-195 495.172,-175 440.828,-175"/>
<text text-anchor="middle" x="468" y="-181" font-family="Helvetica,sans-Serif" font-size="10.00">iostream</text>
</g>
<!-- Node1&#45;&gt;Node16 -->
<g id="edge20" class="edge"><title>Node1&#45;&gt;Node16</title>
<path fill="none" stroke="midnightblue" d="M394.531,-232.753C408.243,-224.027 429.021,-210.805 444.985,-200.646"/>
<polygon fill="midnightblue" stroke="midnightblue" points="447.181,-203.397 453.739,-195.075 443.423,-197.491 447.181,-203.397"/>
</g>
<!-- Node3 -->
<g id="node3" class="node"><title>Node3</title>
<polygon fill="white" stroke="#bfbfbf" points="-0.450684,-1 -0.450684,-21 44.4507,-21 44.4507,-1 -0.450684,-1"/>
<text text-anchor="middle" x="22" y="-7" font-family="Helvetica,sans-Serif" font-size="10.00">cstdint</text>
</g>
<!-- Node2&#45;&gt;Node3 -->
<g id="edge2" class="edge"><title>Node2&#45;&gt;Node3</title>
<path fill="none" stroke="midnightblue" d="M95.4686,-58.7527C81.757,-50.0272 60.9794,-36.8051 45.0148,-26.6458"/>
<polygon fill="midnightblue" stroke="midnightblue" points="46.5767,-23.4912 36.261,-21.0752 42.8186,-29.3968 46.5767,-23.4912"/>
</g>
<!-- Node4 -->
<g id="node4" class="node"><title>Node4</title>
<polygon fill="white" stroke="#bfbfbf" points="62.5298,-1 62.5298,-21 157.47,-21 157.47,-1 62.5298,-1"/>
<text text-anchor="middle" x="110" y="-7" font-family="Helvetica,sans-Serif" font-size="10.00">boost/version.hpp</text>
</g>
<!-- Node2&#45;&gt;Node4 -->
<g id="edge3" class="edge"><title>Node2&#45;&gt;Node4</title>
<path fill="none" stroke="midnightblue" d="M110,-58.7527C110,-51.2504 110,-40.4238 110,-31.0781"/>
<polygon fill="midnightblue" stroke="midnightblue" points="113.5,-31.0752 110,-21.0752 106.5,-31.0752 113.5,-31.0752"/>
</g>
<!-- Node5 -->
<g id="node5" class="node"><title>Node5</title>
<polygon fill="white" stroke="#bfbfbf" points="175.621,-1 175.621,-21 308.379,-21 308.379,-1 175.621,-1"/>
<text text-anchor="middle" x="242" y="-7" font-family="Helvetica,sans-Serif" font-size="10.00">boost/checked_delete.hpp</text>
</g>
<!-- Node2&#45;&gt;Node5 -->
<g id="edge4" class="edge"><title>Node2&#45;&gt;Node5</title>
<path fill="none" stroke="midnightblue" d="M131.502,-58.878C153.172,-49.6848 186.821,-35.4095 211.295,-25.0263"/>
<polygon fill="midnightblue" stroke="midnightblue" points="212.668,-28.2457 220.507,-21.1181 209.935,-21.8016 212.668,-28.2457"/>
</g>
<!-- Node6&#45;&gt;Node2 -->
<g id="edge6" class="edge"><title>Node6&#45;&gt;Node2</title>
<path fill="none" stroke="midnightblue" d="M336.442,-184.425C257.6,-184.162 96.1227,-178.551 61,-138 46.0623,-120.754 67.8049,-99.1242 86.899,-84.9505"/>
<polygon fill="midnightblue" stroke="midnightblue" points="88.9183,-87.8092 95.0743,-79.1863 84.8846,-82.0882 88.9183,-87.8092"/>
</g>
<!-- Node7 -->
<g id="node7" class="node"><title>Node7</title>
<g id="a_node7"><a xlink:href="_buffer_8h.html" target="_top" xlink:title="cinder/Buffer.h">
<polygon fill="white" stroke="black" points="69.8442,-117 69.8442,-137 150.156,-137 150.156,-117 69.8442,-117"/>
<text text-anchor="middle" x="110" y="-123" font-family="Helvetica,sans-Serif" font-size="10.00">cinder/Buffer.h</text>
</a>
</g>
</g>
<!-- Node6&#45;&gt;Node7 -->
<g id="edge7" class="edge"><title>Node6&#45;&gt;Node7</title>
<path fill="none" stroke="midnightblue" d="M336.62,-175.003C288.506,-165.023 210.995,-148.947 160.271,-138.427"/>
<polygon fill="midnightblue" stroke="midnightblue" points="160.69,-134.939 150.187,-136.335 159.268,-141.793 160.69,-134.939"/>
</g>
<!-- Node8 -->
<g id="node8" class="node"><title>Node8</title>
<g id="a_node8"><a xlink:href="_exception_8h.html" target="_top" xlink:title="cinder/Exception.h">
<polygon fill="white" stroke="black" points="749.865,-117 749.865,-137 848.135,-137 848.135,-117 749.865,-117"/>
<text text-anchor="middle" x="799" y="-123" font-family="Helvetica,sans-Serif" font-size="10.00">cinder/Exception.h</text>
</a>
</g>
</g>
<!-- Node6&#45;&gt;Node8 -->
<g id="edge9" class="edge"><title>Node6&#45;&gt;Node8</title>
<path fill="none" stroke="midnightblue" d="M423.37,-175.411C426.286,-174.91 429.183,-174.434 432,-174 565.445,-153.424 602.436,-157.541 739.615,-138.133"/>
<polygon fill="midnightblue" stroke="midnightblue" points="740.265,-141.576 749.668,-136.695 739.273,-134.647 740.265,-141.576"/>
</g>
<!-- Node11 -->
<g id="node11" class="node"><title>Node11</title>
<g id="a_node11"><a xlink:href="_filesystem_8h.html" target="_top" xlink:title="cinder/Filesystem.h">
<polygon fill="white" stroke="black" points="629.931,-117 629.931,-137 732.069,-137 732.069,-117 629.931,-117"/>
<text text-anchor="middle" x="681" y="-123" font-family="Helvetica,sans-Serif" font-size="10.00">cinder/Filesystem.h</text>
</a>
</g>
</g>
<!-- Node6&#45;&gt;Node11 -->
<g id="edge13" class="edge"><title>Node6&#45;&gt;Node11</title>
<path fill="none" stroke="midnightblue" d="M423.407,-175.628C426.315,-175.075 429.199,-174.528 432,-174 496.665,-161.809 570.84,-148.148 621.295,-138.903"/>
<polygon fill="midnightblue" stroke="midnightblue" points="622.169,-142.302 631.375,-137.057 620.908,-135.416 622.169,-142.302"/>
</g>
<!-- Node13 -->
<g id="node13" class="node"><title>Node13</title>
<polygon fill="white" stroke="#bfbfbf" points="168.291,-117 168.291,-137 287.709,-137 287.709,-117 168.291,-117"/>
<text text-anchor="middle" x="228" y="-123" font-family="Helvetica,sans-Serif" font-size="10.00">boost/noncopyable.hpp</text>
</g>
<!-- Node6&#45;&gt;Node13 -->
<g id="edge16" class="edge"><title>Node6&#45;&gt;Node13</title>
<path fill="none" stroke="midnightblue" d="M355.24,-174.878C329.956,-165.563 290.509,-151.03 262.24,-140.615"/>
<polygon fill="midnightblue" stroke="midnightblue" points="263.343,-137.291 252.749,-137.118 260.923,-143.859 263.343,-137.291"/>
</g>
<!-- Node10 -->
<g id="node10" class="node"><title>Node10</title>
<polygon fill="white" stroke="#bfbfbf" points="846.773,-59 846.773,-79 887.227,-79 887.227,-59 846.773,-59"/>
<text text-anchor="middle" x="867" y="-65" font-family="Helvetica,sans-Serif" font-size="10.00">string</text>
</g>
<!-- Node6&#45;&gt;Node10 -->
<g id="edge17" class="edge"><title>Node6&#45;&gt;Node10</title>
<path fill="none" stroke="midnightblue" d="M423.355,-175.308C426.275,-174.832 429.177,-174.39 432,-174 478.946,-167.516 822.475,-170.464 857,-138 870.011,-125.766 871.226,-104.593 869.991,-89.1159"/>
<polygon fill="midnightblue" stroke="midnightblue" points="873.452,-88.5772 868.793,-79.062 866.501,-89.406 873.452,-88.5772"/>
</g>
<!-- Node14 -->
<g id="node14" class="node"><title>Node14</title>
<polygon fill="white" stroke="#bfbfbf" points="305.574,-117 305.574,-137 454.426,-137 454.426,-117 305.574,-117"/>
<text text-anchor="middle" x="380" y="-123" font-family="Helvetica,sans-Serif" font-size="10.00">boost/iostreams/concepts.hpp</text>
</g>
<!-- Node6&#45;&gt;Node14 -->
<g id="edge18" class="edge"><title>Node6&#45;&gt;Node14</title>
<path fill="none" stroke="midnightblue" d="M380,-174.753C380,-167.25 380,-156.424 380,-147.078"/>
<polygon fill="midnightblue" stroke="midnightblue" points="383.5,-147.075 380,-137.075 376.5,-147.075 383.5,-147.075"/>
</g>
<!-- Node15 -->
<g id="node15" class="node"><title>Node15</title>
<polygon fill="white" stroke="#bfbfbf" points="472.306,-117 472.306,-137 611.694,-137 611.694,-117 472.306,-117"/>
<text text-anchor="middle" x="542" y="-123" font-family="Helvetica,sans-Serif" font-size="10.00">boost/iostreams/stream.hpp</text>
</g>
<!-- Node6&#45;&gt;Node15 -->
<g id="edge19" class="edge"><title>Node6&#45;&gt;Node15</title>
<path fill="none" stroke="midnightblue" d="M406.389,-174.878C433.535,-165.494 475.998,-150.815 506.17,-140.386"/>
<polygon fill="midnightblue" stroke="midnightblue" points="507.583,-143.6 515.891,-137.025 505.296,-136.985 507.583,-143.6"/>
</g>
<!-- Node7&#45;&gt;Node2 -->
<g id="edge8" class="edge"><title>Node7&#45;&gt;Node2</title>
<path fill="none" stroke="midnightblue" d="M110,-116.753C110,-109.25 110,-98.4238 110,-89.0781"/>
<polygon fill="midnightblue" stroke="midnightblue" points="113.5,-89.0752 110,-79.0752 106.5,-89.0752 113.5,-89.0752"/>
</g>
<!-- Node8&#45;&gt;Node2 -->
<g id="edge10" class="edge"><title>Node8&#45;&gt;Node2</title>
<path fill="none" stroke="midnightblue" d="M749.688,-117.16C746.752,-116.739 743.84,-116.347 741,-116 527.073,-89.8242 270.386,-76.7504 162.165,-72.0717"/>
<polygon fill="midnightblue" stroke="midnightblue" points="161.994,-68.5614 151.854,-71.6321 161.696,-75.555 161.994,-68.5614"/>
</g>
<!-- Node9 -->
<g id="node9" class="node"><title>Node9</title>
<polygon fill="white" stroke="#bfbfbf" points="777.384,-59 777.384,-79 820.616,-79 820.616,-59 777.384,-59"/>
<text text-anchor="middle" x="799" y="-65" font-family="Helvetica,sans-Serif" font-size="10.00">vector</text>
</g>
<!-- Node8&#45;&gt;Node9 -->
<g id="edge11" class="edge"><title>Node8&#45;&gt;Node9</title>
<path fill="none" stroke="midnightblue" d="M799,-116.753C799,-109.25 799,-98.4238 799,-89.0781"/>
<polygon fill="midnightblue" stroke="midnightblue" points="802.5,-89.0752 799,-79.0752 795.5,-89.0752 802.5,-89.0752"/>
</g>
<!-- Node8&#45;&gt;Node10 -->
<g id="edge12" class="edge"><title>Node8&#45;&gt;Node10</title>
<path fill="none" stroke="midnightblue" d="M810.229,-116.753C820.527,-108.272 835.984,-95.543 848.17,-85.5073"/>
<polygon fill="midnightblue" stroke="midnightblue" points="850.486,-88.1341 855.98,-79.0752 846.036,-82.7305 850.486,-88.1341"/>
</g>
<!-- Node11&#45;&gt;Node2 -->
<g id="edge14" class="edge"><title>Node11&#45;&gt;Node2</title>
<path fill="none" stroke="midnightblue" d="M629.784,-117.327C626.477,-116.853 623.194,-116.405 620,-116 453.13,-94.825 254.333,-79.8227 161.957,-73.4357"/>
<polygon fill="midnightblue" stroke="midnightblue" points="161.975,-69.9288 151.759,-72.7358 161.496,-76.9124 161.975,-69.9288"/>
</g>
<!-- Node12 -->
<g id="node12" class="node"><title>Node12</title>
<polygon fill="white" stroke="#bfbfbf" points="627.421,-59 627.421,-79 734.579,-79 734.579,-59 627.421,-59"/>
<text text-anchor="middle" x="681" y="-65" font-family="Helvetica,sans-Serif" font-size="10.00">boost/filesystem.hpp</text>
</g>
<!-- Node11&#45;&gt;Node12 -->
<g id="edge15" class="edge"><title>Node11&#45;&gt;Node12</title>
<path fill="none" stroke="midnightblue" d="M681,-116.753C681,-109.25 681,-98.4238 681,-89.0781"/>
<polygon fill="midnightblue" stroke="midnightblue" points="684.5,-89.0752 681,-79.0752 677.5,-89.0752 684.5,-89.0752"/>
</g>
</g>
</svg>
