<?xml version="1.0" encoding="UTF-8" standalone="no"?>
<!DOCTYPE svg PUBLIC "-//W3C//DTD SVG 1.1//EN"
 "http://www.w3.org/Graphics/SVG/1.1/DTD/svg11.dtd">
<!-- Generated by graphviz version 2.30.1 (20140712.1814)
 -->
<!-- Title: src/cinder/UrlImplCurl.cpp Pages: 1 -->
<!--zoomable 378 -->
<svg id="main" version="1.1" xmlns="http://www.w3.org/2000/svg" xmlns:xlink="http://www.w3.org/1999/xlink" xml:space="preserve" onload="init(evt)">
<style type="text/css"><![CDATA[
.edge:hover path { stroke: red; }
.edge:hover polygon { stroke: red; fill: red; }
]]></style>
<script type="text/javascript"><![CDATA[
var edges = document.getElementsByTagName('g');
if (edges && edges.length) {
  for (var i=0;i<edges.length;i++) {
    if (edges[i].id.substr(0,4)=='edge') {
      edges[i].setAttribute('class','edge');
    }
  }
}
]]></script>
        <defs>
                <circle id="rim" cx="0" cy="0" r="7"/>
                <circle id="rim2" cx="0" cy="0" r="3.5"/>
                <g id="zoomPlus">
                        <use xlink:href="#rim" fill="#404040">
                                <set attributeName="fill" to="#808080" begin="zoomplus.mouseover" end="zoomplus.mouseout"/>
                        </use>
                        <path d="M-4,0h8M0,-4v8" fill="none" stroke="white" stroke-width="1.5" pointer-events="none"/>
                </g>
                <g id="zoomMin">
                        <use xlink:href="#rim" fill="#404040">
                                <set attributeName="fill" to="#808080" begin="zoomminus.mouseover" end="zoomminus.mouseout"/>
                        </use>
                        <path d="M-4,0h8" fill="none" stroke="white" stroke-width="1.5" pointer-events="none"/>
                </g>
                <g id="dirArrow">
                        <path fill="none" stroke="white" stroke-width="1.5" d="M0,-3.0v7 M-2.5,-0.5L0,-3.0L2.5,-0.5"/>
                </g>
               <g id="resetDef">
                       <use xlink:href="#rim2" fill="#404040">
                               <set attributeName="fill" to="#808080" begin="reset.mouseover" end="reset.mouseout"/>
                       </use>
               </g>
        </defs>

<script type="text/javascript">
var viewWidth = 846;
var viewHeight = 378;
var sectionId = 'dynsection-0';
</script>
<script xlink:href="svgpan.js"/>
<svg id="graph" class="graph">
<g id="viewport">
<title>src/cinder/UrlImplCurl.cpp</title>
<polygon fill="white" stroke="white" points="-4,5 -4,-374 842.776,-374 842.776,5 -4,5"/>
<!-- Node1 -->
<g id="node1" class="node"><title>Node1</title>
<polygon fill="#bfbfbf" stroke="black" points="641.264,-349 641.264,-369 772.288,-369 772.288,-349 641.264,-349"/>
<text text-anchor="middle" x="706.776" y="-355" font-family="Helvetica,sans-Serif" font-size="10.00">src/cinder/UrlImplCurl.cpp</text>
</g>
<!-- Node2 -->
<g id="node2" class="node"><title>Node2</title>
<g id="a_node2"><a xlink:href="_url_impl_curl_8h.html" target="_top" xlink:title="cinder/UrlImplCurl.h">
<polygon fill="white" stroke="black" points="543.599,-291 543.599,-311 647.953,-311 647.953,-291 543.599,-291"/>
<text text-anchor="middle" x="595.776" y="-297" font-family="Helvetica,sans-Serif" font-size="10.00">cinder/UrlImplCurl.h</text>
</a>
</g>
</g>
<!-- Node1&#45;&gt;Node2 -->
<g id="edge1" class="edge"><title>Node1&#45;&gt;Node2</title>
<path fill="none" stroke="midnightblue" d="M688.447,-348.753C670.586,-339.742 643.219,-325.935 622.85,-315.659"/>
<polygon fill="midnightblue" stroke="midnightblue" points="624.269,-312.455 613.765,-311.075 621.116,-318.704 624.269,-312.455"/>
</g>
<!-- Node19 -->
<g id="node19" class="node"><title>Node19</title>
<polygon fill="white" stroke="#bfbfbf" points="735.104,-291 735.104,-311 794.449,-311 794.449,-291 735.104,-291"/>
<text text-anchor="middle" x="764.776" y="-297" font-family="Helvetica,sans-Serif" font-size="10.00">curl/curl.h</text>
</g>
<!-- Node1&#45;&gt;Node19 -->
<g id="edge23" class="edge"><title>Node1&#45;&gt;Node19</title>
<path fill="none" stroke="midnightblue" d="M716.354,-348.753C724.969,-340.435 737.816,-328.031 748.112,-318.089"/>
<polygon fill="midnightblue" stroke="midnightblue" points="750.614,-320.539 755.377,-311.075 745.752,-315.503 750.614,-320.539"/>
</g>
<!-- Node15 -->
<g id="node15" class="node"><title>Node15</title>
<polygon fill="white" stroke="#bfbfbf" points="718.067,-117 718.067,-137 837.485,-137 837.485,-117 718.067,-117"/>
<text text-anchor="middle" x="777.776" y="-123" font-family="Helvetica,sans-Serif" font-size="10.00">boost/noncopyable.hpp</text>
</g>
<!-- Node1&#45;&gt;Node15 -->
<g id="edge24" class="edge"><title>Node1&#45;&gt;Node15</title>
<path fill="none" stroke="midnightblue" d="M709.246,-348.729C712.769,-335.61 719.505,-310.898 725.776,-290 741.428,-237.841 761.505,-176.79 771.516,-146.705"/>
<polygon fill="midnightblue" stroke="midnightblue" points="774.877,-147.69 774.722,-137.096 768.237,-145.475 774.877,-147.69"/>
</g>
<!-- Node3 -->
<g id="node3" class="node"><title>Node3</title>
<g id="a_node3"><a xlink:href="_url_8h.html" target="_top" xlink:title="cinder/Url.h">
<polygon fill="white" stroke="black" points="450.212,-233 450.212,-253 517.34,-253 517.34,-233 450.212,-233"/>
<text text-anchor="middle" x="483.776" y="-239" font-family="Helvetica,sans-Serif" font-size="10.00">cinder/Url.h</text>
</a>
</g>
</g>
<!-- Node2&#45;&gt;Node3 -->
<g id="edge2" class="edge"><title>Node2&#45;&gt;Node3</title>
<path fill="none" stroke="midnightblue" d="M577.282,-290.753C559.26,-281.742 531.647,-267.935 511.094,-257.659"/>
<polygon fill="midnightblue" stroke="midnightblue" points="512.436,-254.417 501.927,-253.075 509.306,-260.678 512.436,-254.417"/>
</g>
<!-- Node4 -->
<g id="node4" class="node"><title>Node4</title>
<g id="a_node4"><a xlink:href="_cinder_8h.html" target="_top" xlink:title="cinder/Cinder.h">
<polygon fill="white" stroke="black" points="342.143,-59 342.143,-79 425.409,-79 425.409,-59 342.143,-59"/>
<text text-anchor="middle" x="383.776" y="-65" font-family="Helvetica,sans-Serif" font-size="10.00">cinder/Cinder.h</text>
</a>
</g>
</g>
<!-- Node3&#45;&gt;Node4 -->
<g id="edge3" class="edge"><title>Node3&#45;&gt;Node4</title>
<path fill="none" stroke="midnightblue" d="M450.155,-239.992C350.673,-233.283 61.1896,-207.976 4.77622,-138 -1.36055,-130.388 -1.70783,-123.319 4.77622,-116 26.1082,-91.9224 233.031,-77.9096 331.803,-72.5427"/>
<polygon fill="midnightblue" stroke="midnightblue" points="332.071,-76.0335 341.87,-72.0053 331.698,-69.0434 332.071,-76.0335"/>
</g>
<!-- Node8 -->
<g id="node8" class="node"><title>Node8</title>
<g id="a_node8"><a xlink:href="_stream_8h.html" target="_top" xlink:title="cinder/Stream.h">
<polygon fill="white" stroke="black" points="396.483,-175 396.483,-195 483.069,-195 483.069,-175 396.483,-175"/>
<text text-anchor="middle" x="439.776" y="-181" font-family="Helvetica,sans-Serif" font-size="10.00">cinder/Stream.h</text>
</a>
</g>
</g>
<!-- Node3&#45;&gt;Node8 -->
<g id="edge7" class="edge"><title>Node3&#45;&gt;Node8</title>
<path fill="none" stroke="midnightblue" d="M476.511,-232.753C470.167,-224.68 460.8,-212.757 453.112,-202.973"/>
<polygon fill="midnightblue" stroke="midnightblue" points="455.837,-200.776 446.907,-195.075 450.333,-205.101 455.837,-200.776"/>
</g>
<!-- Node18 -->
<g id="node18" class="node"><title>Node18</title>
<polygon fill="white" stroke="#bfbfbf" points="500.604,-175 500.604,-195 554.949,-195 554.949,-175 500.604,-175"/>
<text text-anchor="middle" x="527.776" y="-181" font-family="Helvetica,sans-Serif" font-size="10.00">iostream</text>
</g>
<!-- Node3&#45;&gt;Node18 -->
<g id="edge22" class="edge"><title>Node3&#45;&gt;Node18</title>
<path fill="none" stroke="midnightblue" d="M491.042,-232.753C497.385,-224.68 506.753,-212.757 514.441,-202.973"/>
<polygon fill="midnightblue" stroke="midnightblue" points="517.22,-205.101 520.646,-195.075 511.715,-200.776 517.22,-205.101"/>
</g>
<!-- Node5 -->
<g id="node5" class="node"><title>Node5</title>
<polygon fill="white" stroke="#bfbfbf" points="273.326,-1 273.326,-21 318.227,-21 318.227,-1 273.326,-1"/>
<text text-anchor="middle" x="295.776" y="-7" font-family="Helvetica,sans-Serif" font-size="10.00">cstdint</text>
</g>
<!-- Node4&#45;&gt;Node5 -->
<g id="edge4" class="edge"><title>Node4&#45;&gt;Node5</title>
<path fill="none" stroke="midnightblue" d="M369.245,-58.7527C355.533,-50.0272 334.756,-36.8051 318.791,-26.6458"/>
<polygon fill="midnightblue" stroke="midnightblue" points="320.353,-23.4912 310.037,-21.0752 316.595,-29.3968 320.353,-23.4912"/>
</g>
<!-- Node6 -->
<g id="node6" class="node"><title>Node6</title>
<polygon fill="white" stroke="#bfbfbf" points="336.306,-1 336.306,-21 431.246,-21 431.246,-1 336.306,-1"/>
<text text-anchor="middle" x="383.776" y="-7" font-family="Helvetica,sans-Serif" font-size="10.00">boost/version.hpp</text>
</g>
<!-- Node4&#45;&gt;Node6 -->
<g id="edge5" class="edge"><title>Node4&#45;&gt;Node6</title>
<path fill="none" stroke="midnightblue" d="M383.776,-58.7527C383.776,-51.2504 383.776,-40.4238 383.776,-31.0781"/>
<polygon fill="midnightblue" stroke="midnightblue" points="387.276,-31.0752 383.776,-21.0752 380.276,-31.0752 387.276,-31.0752"/>
</g>
<!-- Node7 -->
<g id="node7" class="node"><title>Node7</title>
<polygon fill="white" stroke="#bfbfbf" points="449.397,-1 449.397,-21 582.155,-21 582.155,-1 449.397,-1"/>
<text text-anchor="middle" x="515.776" y="-7" font-family="Helvetica,sans-Serif" font-size="10.00">boost/checked_delete.hpp</text>
</g>
<!-- Node4&#45;&gt;Node7 -->
<g id="edge6" class="edge"><title>Node4&#45;&gt;Node7</title>
<path fill="none" stroke="midnightblue" d="M405.278,-58.878C426.948,-49.6848 460.597,-35.4095 485.071,-25.0263"/>
<polygon fill="midnightblue" stroke="midnightblue" points="486.445,-28.2457 494.284,-21.1181 483.711,-21.8016 486.445,-28.2457"/>
</g>
<!-- Node8&#45;&gt;Node4 -->
<g id="edge8" class="edge"><title>Node8&#45;&gt;Node4</title>
<path fill="none" stroke="midnightblue" d="M396.465,-182.55C292.993,-178.643 38.1216,-166.223 12.7762,-138 6.24304,-130.725 6.30161,-123.327 12.7762,-116 33.5612,-92.4788 234.787,-78.2384 331.878,-72.6839"/>
<polygon fill="midnightblue" stroke="midnightblue" points="332.275,-76.1672 342.062,-72.1113 331.882,-69.1782 332.275,-76.1672"/>
</g>
<!-- Node9 -->
<g id="node9" class="node"><title>Node9</title>
<g id="a_node9"><a xlink:href="_buffer_8h.html" target="_top" xlink:title="cinder/Buffer.h">
<polygon fill="white" stroke="black" points="345.62,-117 345.62,-137 425.932,-137 425.932,-117 345.62,-117"/>
<text text-anchor="middle" x="385.776" y="-123" font-family="Helvetica,sans-Serif" font-size="10.00">cinder/Buffer.h</text>
</a>
</g>
</g>
<!-- Node8&#45;&gt;Node9 -->
<g id="edge9" class="edge"><title>Node8&#45;&gt;Node9</title>
<path fill="none" stroke="midnightblue" d="M430.859,-174.753C422.917,-166.516 411.112,-154.274 401.573,-144.382"/>
<polygon fill="midnightblue" stroke="midnightblue" points="403.988,-141.844 394.527,-137.075 398.949,-146.703 403.988,-141.844"/>
</g>
<!-- Node10 -->
<g id="node10" class="node"><title>Node10</title>
<g id="a_node10"><a xlink:href="_exception_8h.html" target="_top" xlink:title="cinder/Exception.h">
<polygon fill="white" stroke="black" points="563.641,-117 563.641,-137 661.911,-137 661.911,-117 563.641,-117"/>
<text text-anchor="middle" x="612.776" y="-123" font-family="Helvetica,sans-Serif" font-size="10.00">cinder/Exception.h</text>
</a>
</g>
</g>
<!-- Node8&#45;&gt;Node10 -->
<g id="edge11" class="edge"><title>Node8&#45;&gt;Node10</title>
<path fill="none" stroke="midnightblue" d="M467.957,-174.878C497.198,-165.413 543.083,-150.56 575.351,-140.115"/>
<polygon fill="midnightblue" stroke="midnightblue" points="576.458,-143.435 584.894,-137.025 574.303,-136.775 576.458,-143.435"/>
</g>
<!-- Node13 -->
<g id="node13" class="node"><title>Node13</title>
<g id="a_node13"><a xlink:href="_filesystem_8h.html" target="_top" xlink:title="cinder/Filesystem.h">
<polygon fill="white" stroke="black" points="443.707,-117 443.707,-137 545.845,-137 545.845,-117 443.707,-117"/>
<text text-anchor="middle" x="494.776" y="-123" font-family="Helvetica,sans-Serif" font-size="10.00">cinder/Filesystem.h</text>
</a>
</g>
</g>
<!-- Node8&#45;&gt;Node13 -->
<g id="edge15" class="edge"><title>Node8&#45;&gt;Node13</title>
<path fill="none" stroke="midnightblue" d="M448.858,-174.753C456.948,-166.516 468.972,-154.274 478.686,-144.382"/>
<polygon fill="midnightblue" stroke="midnightblue" points="481.353,-146.662 485.863,-137.075 476.359,-141.757 481.353,-146.662"/>
</g>
<!-- Node8&#45;&gt;Node15 -->
<g id="edge18" class="edge"><title>Node8&#45;&gt;Node15</title>
<path fill="none" stroke="midnightblue" d="M483.169,-175.553C486.08,-175.018 488.97,-174.495 491.776,-174 565.477,-160.99 650.137,-147.561 708.11,-138.597"/>
<polygon fill="midnightblue" stroke="midnightblue" points="708.906,-142.016 718.255,-137.032 707.839,-135.097 708.906,-142.016"/>
</g>
<!-- Node12 -->
<g id="node12" class="node"><title>Node12</title>
<polygon fill="white" stroke="#bfbfbf" points="660.55,-59 660.55,-79 701.003,-79 701.003,-59 660.55,-59"/>
<text text-anchor="middle" x="680.776" y="-65" font-family="Helvetica,sans-Serif" font-size="10.00">string</text>
</g>
<!-- Node8&#45;&gt;Node12 -->
<g id="edge19" class="edge"><title>Node8&#45;&gt;Node12</title>
<path fill="none" stroke="midnightblue" d="M483.308,-175.492C550.014,-162.434 669.963,-138.856 670.776,-138 682.831,-125.32 684.358,-104.858 683.461,-89.6875"/>
<polygon fill="midnightblue" stroke="midnightblue" points="686.905,-88.9421 682.438,-79.335 679.939,-89.6308 686.905,-88.9421"/>
</g>
<!-- Node16 -->
<g id="node16" class="node"><title>Node16</title>
<polygon fill="white" stroke="#bfbfbf" points="21.3504,-117 21.3504,-137 170.202,-137 170.202,-117 21.3504,-117"/>
<text text-anchor="middle" x="95.7762" y="-123" font-family="Helvetica,sans-Serif" font-size="10.00">boost/iostreams/concepts.hpp</text>
</g>
<!-- Node8&#45;&gt;Node16 -->
<g id="edge20" class="edge"><title>Node8&#45;&gt;Node16</title>
<path fill="none" stroke="midnightblue" d="M396.208,-176.908C336.845,-167.244 230.061,-149.86 161.093,-138.633"/>
<polygon fill="midnightblue" stroke="midnightblue" points="161.635,-135.175 151.202,-137.023 160.51,-142.084 161.635,-135.175"/>
</g>
<!-- Node17 -->
<g id="node17" class="node"><title>Node17</title>
<polygon fill="white" stroke="#bfbfbf" points="188.082,-117 188.082,-137 327.471,-137 327.471,-117 188.082,-117"/>
<text text-anchor="middle" x="257.776" y="-123" font-family="Helvetica,sans-Serif" font-size="10.00">boost/iostreams/stream.hpp</text>
</g>
<!-- Node8&#45;&gt;Node17 -->
<g id="edge21" class="edge"><title>Node8&#45;&gt;Node17</title>
<path fill="none" stroke="midnightblue" d="M410.13,-174.878C379.235,-165.372 330.679,-150.432 296.71,-139.98"/>
<polygon fill="midnightblue" stroke="midnightblue" points="297.696,-136.621 287.108,-137.025 295.637,-143.311 297.696,-136.621"/>
</g>
<!-- Node9&#45;&gt;Node4 -->
<g id="edge10" class="edge"><title>Node9&#45;&gt;Node4</title>
<path fill="none" stroke="midnightblue" d="M385.446,-116.753C385.178,-109.25 384.791,-98.4238 384.458,-89.0781"/>
<polygon fill="midnightblue" stroke="midnightblue" points="387.955,-88.9439 384.1,-79.0752 380.96,-89.1938 387.955,-88.9439"/>
</g>
<!-- Node10&#45;&gt;Node4 -->
<g id="edge12" class="edge"><title>Node10&#45;&gt;Node4</title>
<path fill="none" stroke="midnightblue" d="M575.729,-116.94C536.236,-107.283 473.599,-91.9654 430.688,-81.4719"/>
<polygon fill="midnightblue" stroke="midnightblue" points="431.315,-78.0223 420.77,-79.0466 429.653,-84.8219 431.315,-78.0223"/>
</g>
<!-- Node11 -->
<g id="node11" class="node"><title>Node11</title>
<polygon fill="white" stroke="#bfbfbf" points="591.16,-59 591.16,-79 634.392,-79 634.392,-59 591.16,-59"/>
<text text-anchor="middle" x="612.776" y="-65" font-family="Helvetica,sans-Serif" font-size="10.00">vector</text>
</g>
<!-- Node10&#45;&gt;Node11 -->
<g id="edge13" class="edge"><title>Node10&#45;&gt;Node11</title>
<path fill="none" stroke="midnightblue" d="M612.776,-116.753C612.776,-109.25 612.776,-98.4238 612.776,-89.0781"/>
<polygon fill="midnightblue" stroke="midnightblue" points="616.276,-89.0752 612.776,-79.0752 609.276,-89.0752 616.276,-89.0752"/>
</g>
<!-- Node10&#45;&gt;Node12 -->
<g id="edge14" class="edge"><title>Node10&#45;&gt;Node12</title>
<path fill="none" stroke="midnightblue" d="M624.005,-116.753C634.303,-108.272 649.76,-95.543 661.946,-85.5073"/>
<polygon fill="midnightblue" stroke="midnightblue" points="664.262,-88.1341 669.756,-79.0752 659.812,-82.7305 664.262,-88.1341"/>
</g>
<!-- Node13&#45;&gt;Node4 -->
<g id="edge16" class="edge"><title>Node13&#45;&gt;Node4</title>
<path fill="none" stroke="midnightblue" d="M476.447,-116.753C458.586,-107.742 431.219,-93.9353 410.85,-83.6589"/>
<polygon fill="midnightblue" stroke="midnightblue" points="412.269,-80.4547 401.765,-79.0752 409.116,-86.7044 412.269,-80.4547"/>
</g>
<!-- Node14 -->
<g id="node14" class="node"><title>Node14</title>
<polygon fill="white" stroke="#bfbfbf" points="443.198,-59 443.198,-79 550.355,-79 550.355,-59 443.198,-59"/>
<text text-anchor="middle" x="496.776" y="-65" font-family="Helvetica,sans-Serif" font-size="10.00">boost/filesystem.hpp</text>
</g>
<!-- Node13&#45;&gt;Node14 -->
<g id="edge17" class="edge"><title>Node13&#45;&gt;Node14</title>
<path fill="none" stroke="midnightblue" d="M495.106,-116.753C495.374,-109.25 495.761,-98.4238 496.095,-89.0781"/>
<polygon fill="midnightblue" stroke="midnightblue" points="499.593,-89.1938 496.452,-79.0752 492.597,-88.9439 499.593,-89.1938"/>
</g>
</g>
</svg>
        <g id="navigator" transform="translate(0 0)" fill="#404254">
                <rect fill="#f2f5e9" fill-opacity="0.5" stroke="#606060" stroke-width=".5" x="0" y="0" width="60" height="60"/>
                <use id="zoomplus" xlink:href="#zoomPlus" x="17" y="9" onmousedown="handleZoom(evt,'in')"/>
                <use id="zoomminus" xlink:href="#zoomMin" x="42" y="9" onmousedown="handleZoom(evt,'out')"/>
                <use id="reset" xlink:href="#resetDef" x="30" y="36" onmousedown="handleReset()"/>
                <g id="arrowUp" xlink:href="#dirArrow" transform="translate(30 24)" onmousedown="handlePan(0,-1)">
                  <use xlink:href="#rim" fill="#404040">
                        <set attributeName="fill" to="#808080" begin="arrowUp.mouseover" end="arrowUp.mouseout"/>
                  </use>
                  <path fill="none" stroke="white" stroke-width="1.5" d="M0,-3.0v7 M-2.5,-0.5L0,-3.0L2.5,-0.5"/>
                </g>
                <g id="arrowRight" xlink:href="#dirArrow" transform="rotate(90) translate(36 -43)" onmousedown="handlePan(1,0)">
                  <use xlink:href="#rim" fill="#404040">
                        <set attributeName="fill" to="#808080" begin="arrowRight.mouseover" end="arrowRight.mouseout"/>
                  </use>
                  <path fill="none" stroke="white" stroke-width="1.5" d="M0,-3.0v7 M-2.5,-0.5L0,-3.0L2.5,-0.5"/>
                </g>
                <g id="arrowDown" xlink:href="#dirArrow" transform="rotate(180) translate(-30 -48)" onmousedown="handlePan(0,1)">
                  <use xlink:href="#rim" fill="#404040">
                        <set attributeName="fill" to="#808080" begin="arrowDown.mouseover" end="arrowDown.mouseout"/>
                  </use>
                  <path fill="none" stroke="white" stroke-width="1.5" d="M0,-3.0v7 M-2.5,-0.5L0,-3.0L2.5,-0.5"/>
                </g>
                <g id="arrowLeft" xlink:href="#dirArrow" transform="rotate(270) translate(-36 17)" onmousedown="handlePan(-1,0)">
                  <use xlink:href="#rim" fill="#404040">
                        <set attributeName="fill" to="#808080" begin="arrowLeft.mouseover" end="arrowLeft.mouseout"/>
                  </use>
                  <path fill="none" stroke="white" stroke-width="1.5" d="M0,-3.0v7 M-2.5,-0.5L0,-3.0L2.5,-0.5"/>
                </g>
        </g>
        <svg viewBox="0 0 15 15" width="100%" height="30px" preserveAspectRatio="xMaxYMin meet">
         <g id="arrow_out" transform="scale(0.3 0.3)">
          <a xlink:href="_url_impl_curl_8cpp__incl_org.svg" target="_base">
           <rect id="button" ry="5" rx="5" y="6" x="6" height="38" width="38"
                fill="#f2f5e9" fill-opacity="0.5" stroke="#606060" stroke-width="1.0"/>
           <path id="arrow"
             d="M 11.500037,31.436501 C 11.940474,20.09759 22.043105,11.32322 32.158766,21.979434 L 37.068811,17.246167 C 37.068811,17.246167 37.088388,32 37.088388,32 L 22.160133,31.978069 C 22.160133,31.978069 26.997745,27.140456 26.997745,27.140456 C 18.528582,18.264221 13.291696,25.230495 11.500037,31.436501 z"
             style="fill:#404040;"/>
          </a>
         </g>
        </svg>
</svg>
