<?xml version="1.0" encoding="UTF-8" standalone="no"?>
<!DOCTYPE svg PUBLIC "-//W3C//DTD SVG 1.1//EN"
 "http://www.w3.org/Graphics/SVG/1.1/DTD/svg11.dtd">
<!-- Generated by graphviz version 2.30.1 (20140712.1814)
 -->
<!-- Title: src/cinder/UrlImplCocoa.mm Pages: 1 -->
<svg width="1010pt" height="378pt"
 viewBox="0.00 0.00 1010.00 378.00" xmlns="http://www.w3.org/2000/svg" xmlns:xlink="http://www.w3.org/1999/xlink">
<g id="graph0" class="graph" transform="scale(1 1) rotate(0) translate(4 374)">
<title>src/cinder/UrlImplCocoa.mm</title>
<polygon fill="white" stroke="white" points="-4,5 -4,-374 1007,-374 1007,5 -4,5"/>
<!-- Node1 -->
<g id="node1" class="node"><title>Node1</title>
<polygon fill="#bfbfbf" stroke="black" points="829.934,-349 829.934,-369 972.066,-369 972.066,-349 829.934,-349"/>
<text text-anchor="middle" x="901" y="-355" font-family="Helvetica,sans-Serif" font-size="10.00">src/cinder/UrlImplCocoa.mm</text>
</g>
<!-- Node2 -->
<g id="node2" class="node"><title>Node2</title>
<g id="a_node2"><a xlink:href="_url_impl_cocoa_8h.html" target="_top" xlink:title="cinder/UrlImplCocoa.h">
<polygon fill="white" stroke="black" points="784.537,-291 784.537,-311 899.463,-311 899.463,-291 784.537,-291"/>
<text text-anchor="middle" x="842" y="-297" font-family="Helvetica,sans-Serif" font-size="10.00">cinder/UrlImplCocoa.h</text>
</a>
</g>
</g>
<!-- Node1&#45;&gt;Node2 -->
<g id="edge1" class="edge"><title>Node1&#45;&gt;Node2</title>
<path fill="none" stroke="midnightblue" d="M891.257,-348.753C882.494,-340.435 869.425,-328.031 858.951,-318.089"/>
<polygon fill="midnightblue" stroke="midnightblue" points="861.224,-315.421 851.561,-311.075 856.405,-320.498 861.224,-315.421"/>
</g>
<!-- Node19 -->
<g id="node19" class="node"><title>Node19</title>
<polygon fill="white" stroke="#bfbfbf" points="917.535,-291 917.535,-311 1002.47,-311 1002.47,-291 917.535,-291"/>
<text text-anchor="middle" x="960" y="-297" font-family="Helvetica,sans-Serif" font-size="10.00">Cocoa/Cocoa.h</text>
</g>
<!-- Node1&#45;&gt;Node19 -->
<g id="edge24" class="edge"><title>Node1&#45;&gt;Node19</title>
<path fill="none" stroke="midnightblue" d="M910.743,-348.753C919.506,-340.435 932.575,-328.031 943.049,-318.089"/>
<polygon fill="midnightblue" stroke="midnightblue" points="945.595,-320.498 950.439,-311.075 940.776,-315.421 945.595,-320.498"/>
</g>
<!-- Node3 -->
<g id="node3" class="node"><title>Node3</title>
<g id="a_node3"><a xlink:href="_cinder_8h.html" target="_top" xlink:title="cinder/Cinder.h">
<polygon fill="white" stroke="black" points="671.367,-59 671.367,-79 754.633,-79 754.633,-59 671.367,-59"/>
<text text-anchor="middle" x="713" y="-65" font-family="Helvetica,sans-Serif" font-size="10.00">cinder/Cinder.h</text>
</a>
</g>
</g>
<!-- Node2&#45;&gt;Node3 -->
<g id="edge2" class="edge"><title>Node2&#45;&gt;Node3</title>
<path fill="none" stroke="midnightblue" d="M850.337,-290.938C875.662,-262.304 947.325,-172.337 903,-116 894.35,-105.006 818.032,-89.0928 764.796,-79.1571"/>
<polygon fill="midnightblue" stroke="midnightblue" points="765.285,-75.6881 754.815,-77.3134 764.013,-82.5717 765.285,-75.6881"/>
</g>
<!-- Node7 -->
<g id="node7" class="node"><title>Node7</title>
<g id="a_node7"><a xlink:href="_url_8h.html" target="_top" xlink:title="cinder/Url.h">
<polygon fill="white" stroke="black" points="702.436,-233 702.436,-253 769.564,-253 769.564,-233 702.436,-233"/>
<text text-anchor="middle" x="736" y="-239" font-family="Helvetica,sans-Serif" font-size="10.00">cinder/Url.h</text>
</a>
</g>
</g>
<!-- Node2&#45;&gt;Node7 -->
<g id="edge6" class="edge"><title>Node2&#45;&gt;Node7</title>
<path fill="none" stroke="midnightblue" d="M824.496,-290.753C807.517,-281.783 781.542,-268.06 762.119,-257.799"/>
<polygon fill="midnightblue" stroke="midnightblue" points="763.655,-254.652 753.178,-253.075 760.385,-260.841 763.655,-254.652"/>
</g>
<!-- Node4 -->
<g id="node4" class="node"><title>Node4</title>
<polygon fill="white" stroke="#bfbfbf" points="602.549,-1 602.549,-21 647.451,-21 647.451,-1 602.549,-1"/>
<text text-anchor="middle" x="625" y="-7" font-family="Helvetica,sans-Serif" font-size="10.00">cstdint</text>
</g>
<!-- Node3&#45;&gt;Node4 -->
<g id="edge3" class="edge"><title>Node3&#45;&gt;Node4</title>
<path fill="none" stroke="midnightblue" d="M698.469,-58.7527C684.757,-50.0272 663.979,-36.8051 648.015,-26.6458"/>
<polygon fill="midnightblue" stroke="midnightblue" points="649.577,-23.4912 639.261,-21.0752 645.819,-29.3968 649.577,-23.4912"/>
</g>
<!-- Node5 -->
<g id="node5" class="node"><title>Node5</title>
<polygon fill="white" stroke="#bfbfbf" points="665.53,-1 665.53,-21 760.47,-21 760.47,-1 665.53,-1"/>
<text text-anchor="middle" x="713" y="-7" font-family="Helvetica,sans-Serif" font-size="10.00">boost/version.hpp</text>
</g>
<!-- Node3&#45;&gt;Node5 -->
<g id="edge4" class="edge"><title>Node3&#45;&gt;Node5</title>
<path fill="none" stroke="midnightblue" d="M713,-58.7527C713,-51.2504 713,-40.4238 713,-31.0781"/>
<polygon fill="midnightblue" stroke="midnightblue" points="716.5,-31.0752 713,-21.0752 709.5,-31.0752 716.5,-31.0752"/>
</g>
<!-- Node6 -->
<g id="node6" class="node"><title>Node6</title>
<polygon fill="white" stroke="#bfbfbf" points="778.621,-1 778.621,-21 911.379,-21 911.379,-1 778.621,-1"/>
<text text-anchor="middle" x="845" y="-7" font-family="Helvetica,sans-Serif" font-size="10.00">boost/checked_delete.hpp</text>
</g>
<!-- Node3&#45;&gt;Node6 -->
<g id="edge5" class="edge"><title>Node3&#45;&gt;Node6</title>
<path fill="none" stroke="midnightblue" d="M734.502,-58.878C756.172,-49.6848 789.821,-35.4095 814.295,-25.0263"/>
<polygon fill="midnightblue" stroke="midnightblue" points="815.668,-28.2457 823.507,-21.1181 812.935,-21.8016 815.668,-28.2457"/>
</g>
<!-- Node7&#45;&gt;Node3 -->
<g id="edge7" class="edge"><title>Node7&#45;&gt;Node3</title>
<path fill="none" stroke="midnightblue" d="M738.894,-232.876C745.12,-211.748 758.191,-158.061 745,-116 741.708,-105.502 735.079,-95.3019 728.704,-87.1854"/>
<polygon fill="midnightblue" stroke="midnightblue" points="731.172,-84.6813 722.057,-79.2804 725.814,-89.1866 731.172,-84.6813"/>
</g>
<!-- Node8 -->
<g id="node8" class="node"><title>Node8</title>
<g id="a_node8"><a xlink:href="_stream_8h.html" target="_top" xlink:title="cinder/Stream.h">
<polygon fill="white" stroke="black" points="362.707,-175 362.707,-195 449.293,-195 449.293,-175 362.707,-175"/>
<text text-anchor="middle" x="406" y="-181" font-family="Helvetica,sans-Serif" font-size="10.00">cinder/Stream.h</text>
</a>
</g>
</g>
<!-- Node7&#45;&gt;Node8 -->
<g id="edge8" class="edge"><title>Node7&#45;&gt;Node8</title>
<path fill="none" stroke="midnightblue" d="M702.235,-236.27C644.892,-226.539 528.037,-206.709 459.477,-195.075"/>
<polygon fill="midnightblue" stroke="midnightblue" points="459.759,-191.573 449.315,-193.35 458.588,-198.474 459.759,-191.573"/>
</g>
<!-- Node18 -->
<g id="node18" class="node"><title>Node18</title>
<polygon fill="white" stroke="#bfbfbf" points="681.828,-175 681.828,-195 736.172,-195 736.172,-175 681.828,-175"/>
<text text-anchor="middle" x="709" y="-181" font-family="Helvetica,sans-Serif" font-size="10.00">iostream</text>
</g>
<!-- Node7&#45;&gt;Node18 -->
<g id="edge23" class="edge"><title>Node7&#45;&gt;Node18</title>
<path fill="none" stroke="midnightblue" d="M731.541,-232.753C727.806,-225.006 722.362,-213.714 717.76,-204.169"/>
<polygon fill="midnightblue" stroke="midnightblue" points="720.871,-202.563 713.376,-195.075 714.566,-205.603 720.871,-202.563"/>
</g>
<!-- Node8&#45;&gt;Node3 -->
<g id="edge9" class="edge"><title>Node8&#45;&gt;Node3</title>
<path fill="none" stroke="midnightblue" d="M362.619,-184.044C284.449,-182.734 132.715,-173.038 185,-116 216.75,-81.3638 533.968,-72.7145 660.901,-70.6331"/>
<polygon fill="midnightblue" stroke="midnightblue" points="661.201,-74.1289 671.145,-70.4727 661.091,-67.1298 661.201,-74.1289"/>
</g>
<!-- Node9 -->
<g id="node9" class="node"><title>Node9</title>
<g id="a_node9"><a xlink:href="_buffer_8h.html" target="_top" xlink:title="cinder/Buffer.h">
<polygon fill="white" stroke="black" points="655.844,-117 655.844,-137 736.156,-137 736.156,-117 655.844,-117"/>
<text text-anchor="middle" x="696" y="-123" font-family="Helvetica,sans-Serif" font-size="10.00">cinder/Buffer.h</text>
</a>
</g>
</g>
<!-- Node8&#45;&gt;Node9 -->
<g id="edge10" class="edge"><title>Node8&#45;&gt;Node9</title>
<path fill="none" stroke="midnightblue" d="M449.377,-175.795C495.394,-167.065 570.501,-152.75 645.516,-138.083"/>
<polygon fill="midnightblue" stroke="midnightblue" points="646.476,-141.461 655.617,-136.105 645.131,-134.592 646.476,-141.461"/>
</g>
<!-- Node10 -->
<g id="node10" class="node"><title>Node10</title>
<g id="a_node10"><a xlink:href="_exception_8h.html" target="_top" xlink:title="cinder/Exception.h">
<polygon fill="white" stroke="black" points="39.8647,-117 39.8647,-137 138.135,-137 138.135,-117 39.8647,-117"/>
<text text-anchor="middle" x="89" y="-123" font-family="Helvetica,sans-Serif" font-size="10.00">cinder/Exception.h</text>
</a>
</g>
</g>
<!-- Node8&#45;&gt;Node10 -->
<g id="edge12" class="edge"><title>Node8&#45;&gt;Node10</title>
<path fill="none" stroke="midnightblue" d="M362.587,-176.331C307.091,-166.527 210.755,-149.509 148.467,-138.505"/>
<polygon fill="midnightblue" stroke="midnightblue" points="148.85,-135.019 138.393,-136.726 147.632,-141.912 148.85,-135.019"/>
</g>
<!-- Node13 -->
<g id="node13" class="node"><title>Node13</title>
<g id="a_node13"><a xlink:href="_filesystem_8h.html" target="_top" xlink:title="cinder/Filesystem.h">
<polygon fill="white" stroke="black" points="791.931,-117 791.931,-137 894.069,-137 894.069,-117 791.931,-117"/>
<text text-anchor="middle" x="843" y="-123" font-family="Helvetica,sans-Serif" font-size="10.00">cinder/Filesystem.h</text>
</a>
</g>
</g>
<!-- Node8&#45;&gt;Node13 -->
<g id="edge16" class="edge"><title>Node8&#45;&gt;Node13</title>
<path fill="none" stroke="midnightblue" d="M449.499,-178.426C527.66,-168.41 692.042,-147.345 781.624,-135.865"/>
<polygon fill="midnightblue" stroke="midnightblue" points="782.165,-139.324 791.639,-134.582 781.276,-132.381 782.165,-139.324"/>
</g>
<!-- Node15 -->
<g id="node15" class="node"><title>Node15</title>
<polygon fill="white" stroke="#bfbfbf" points="194.291,-117 194.291,-137 313.709,-137 313.709,-117 194.291,-117"/>
<text text-anchor="middle" x="254" y="-123" font-family="Helvetica,sans-Serif" font-size="10.00">boost/noncopyable.hpp</text>
</g>
<!-- Node8&#45;&gt;Node15 -->
<g id="edge19" class="edge"><title>Node8&#45;&gt;Node15</title>
<path fill="none" stroke="midnightblue" d="M381.24,-174.878C355.956,-165.563 316.509,-151.03 288.24,-140.615"/>
<polygon fill="midnightblue" stroke="midnightblue" points="289.343,-137.291 278.749,-137.118 286.923,-143.859 289.343,-137.291"/>
</g>
<!-- Node12 -->
<g id="node12" class="node"><title>Node12</title>
<polygon fill="white" stroke="#bfbfbf" points="-0.226562,-59 -0.226562,-79 40.2266,-79 40.2266,-59 -0.226562,-59"/>
<text text-anchor="middle" x="20" y="-65" font-family="Helvetica,sans-Serif" font-size="10.00">string</text>
</g>
<!-- Node8&#45;&gt;Node12 -->
<g id="edge20" class="edge"><title>Node8&#45;&gt;Node12</title>
<path fill="none" stroke="midnightblue" d="M362.356,-181.561C268.606,-175.911 54.5417,-160.657 31,-138 18.1031,-125.588 16.5267,-104.446 17.442,-89.0241"/>
<polygon fill="midnightblue" stroke="midnightblue" points="20.931,-89.3061 18.4226,-79.0125 13.9644,-88.6236 20.931,-89.3061"/>
</g>
<!-- Node16 -->
<g id="node16" class="node"><title>Node16</title>
<polygon fill="white" stroke="#bfbfbf" points="331.574,-117 331.574,-137 480.426,-137 480.426,-117 331.574,-117"/>
<text text-anchor="middle" x="406" y="-123" font-family="Helvetica,sans-Serif" font-size="10.00">boost/iostreams/concepts.hpp</text>
</g>
<!-- Node8&#45;&gt;Node16 -->
<g id="edge21" class="edge"><title>Node8&#45;&gt;Node16</title>
<path fill="none" stroke="midnightblue" d="M406,-174.753C406,-167.25 406,-156.424 406,-147.078"/>
<polygon fill="midnightblue" stroke="midnightblue" points="409.5,-147.075 406,-137.075 402.5,-147.075 409.5,-147.075"/>
</g>
<!-- Node17 -->
<g id="node17" class="node"><title>Node17</title>
<polygon fill="white" stroke="#bfbfbf" points="498.306,-117 498.306,-137 637.694,-137 637.694,-117 498.306,-117"/>
<text text-anchor="middle" x="568" y="-123" font-family="Helvetica,sans-Serif" font-size="10.00">boost/iostreams/stream.hpp</text>
</g>
<!-- Node8&#45;&gt;Node17 -->
<g id="edge22" class="edge"><title>Node8&#45;&gt;Node17</title>
<path fill="none" stroke="midnightblue" d="M432.389,-174.878C459.535,-165.494 501.998,-150.815 532.17,-140.386"/>
<polygon fill="midnightblue" stroke="midnightblue" points="533.583,-143.6 541.891,-137.025 531.296,-136.985 533.583,-143.6"/>
</g>
<!-- Node9&#45;&gt;Node3 -->
<g id="edge11" class="edge"><title>Node9&#45;&gt;Node3</title>
<path fill="none" stroke="midnightblue" d="M698.807,-116.753C701.109,-109.169 704.443,-98.1881 707.301,-88.7739"/>
<polygon fill="midnightblue" stroke="midnightblue" points="710.689,-89.6607 710.245,-79.0752 703.991,-87.6273 710.689,-89.6607"/>
</g>
<!-- Node10&#45;&gt;Node3 -->
<g id="edge13" class="edge"><title>Node10&#45;&gt;Node3</title>
<path fill="none" stroke="midnightblue" d="M138.473,-117.785C143.04,-117.136 147.602,-116.529 152,-116 338.714,-93.5591 561.725,-78.863 660.955,-72.9488"/>
<polygon fill="midnightblue" stroke="midnightblue" points="661.242,-76.438 671.018,-72.3539 660.828,-69.4502 661.242,-76.438"/>
</g>
<!-- Node11 -->
<g id="node11" class="node"><title>Node11</title>
<polygon fill="white" stroke="#bfbfbf" points="67.3843,-59 67.3843,-79 110.616,-79 110.616,-59 67.3843,-59"/>
<text text-anchor="middle" x="89" y="-65" font-family="Helvetica,sans-Serif" font-size="10.00">vector</text>
</g>
<!-- Node10&#45;&gt;Node11 -->
<g id="edge14" class="edge"><title>Node10&#45;&gt;Node11</title>
<path fill="none" stroke="midnightblue" d="M89,-116.753C89,-109.25 89,-98.4238 89,-89.0781"/>
<polygon fill="midnightblue" stroke="midnightblue" points="92.5001,-89.0752 89,-79.0752 85.5001,-89.0752 92.5001,-89.0752"/>
</g>
<!-- Node10&#45;&gt;Node12 -->
<g id="edge15" class="edge"><title>Node10&#45;&gt;Node12</title>
<path fill="none" stroke="midnightblue" d="M77.6061,-116.753C67.1564,-108.272 51.4726,-95.543 39.1073,-85.5073"/>
<polygon fill="midnightblue" stroke="midnightblue" points="41.1521,-82.6593 31.1819,-79.0752 36.7409,-88.0945 41.1521,-82.6593"/>
</g>
<!-- Node13&#45;&gt;Node3 -->
<g id="edge17" class="edge"><title>Node13&#45;&gt;Node3</title>
<path fill="none" stroke="midnightblue" d="M821.824,-116.878C800.577,-107.725 767.636,-93.5357 743.56,-83.1643"/>
<polygon fill="midnightblue" stroke="midnightblue" points="744.736,-79.8599 734.167,-79.1181 741.966,-86.2888 744.736,-79.8599"/>
</g>
<!-- Node14 -->
<g id="node14" class="node"><title>Node14</title>
<polygon fill="white" stroke="#bfbfbf" points="789.421,-59 789.421,-79 896.579,-79 896.579,-59 789.421,-59"/>
<text text-anchor="middle" x="843" y="-65" font-family="Helvetica,sans-Serif" font-size="10.00">boost/filesystem.hpp</text>
</g>
<!-- Node13&#45;&gt;Node14 -->
<g id="edge18" class="edge"><title>Node13&#45;&gt;Node14</title>
<path fill="none" stroke="midnightblue" d="M843,-116.753C843,-109.25 843,-98.4238 843,-89.0781"/>
<polygon fill="midnightblue" stroke="midnightblue" points="846.5,-89.0752 843,-79.0752 839.5,-89.0752 846.5,-89.0752"/>
</g>
</g>
</svg>
