<?xml version="1.0" encoding="UTF-8" standalone="no"?>
<!DOCTYPE svg PUBLIC "-//W3C//DTD SVG 1.1//EN"
 "http://www.w3.org/Graphics/SVG/1.1/DTD/svg11.dtd">
<!-- Generated by graphviz version 2.30.1 (20140712.1814)
 -->
<!-- Title: src/cinder/Utilities.cpp Pages: 1 -->
<svg width="1494pt" height="436pt"
 viewBox="0.00 0.00 1494.09 436.00" xmlns="http://www.w3.org/2000/svg" xmlns:xlink="http://www.w3.org/1999/xlink">
<g id="graph0" class="graph" transform="scale(1 1) rotate(0) translate(4 432)">
<title>src/cinder/Utilities.cpp</title>
<polygon fill="white" stroke="white" points="-4,5 -4,-432 1491.09,-432 1491.09,5 -4,5"/>
<!-- Node1 -->
<g id="node1" class="node"><title>Node1</title>
<polygon fill="#bfbfbf" stroke="black" points="1122.47,-407 1122.47,-427 1235.72,-427 1235.72,-407 1122.47,-407"/>
<text text-anchor="middle" x="1179.09" y="-413" font-family="Helvetica,sans-Serif" font-size="10.00">src/cinder/Utilities.cpp</text>
</g>
<!-- Node2 -->
<g id="node2" class="node"><title>Node2</title>
<g id="a_node2"><a xlink:href="_cinder_8h.html" target="_top" xlink:title="cinder/Cinder.h">
<polygon fill="white" stroke="black" points="257.458,-59 257.458,-79 340.724,-79 340.724,-59 257.458,-59"/>
<text text-anchor="middle" x="299.091" y="-65" font-family="Helvetica,sans-Serif" font-size="10.00">cinder/Cinder.h</text>
</a>
</g>
</g>
<!-- Node1&#45;&gt;Node2 -->
<g id="edge1" class="edge"><title>Node1&#45;&gt;Node2</title>
<path fill="none" stroke="midnightblue" d="M1122.27,-416.536C886.964,-418.02 1.09131,-416.035 1.09131,-302 1.09131,-302 1.09131,-302 1.09131,-184 1.09131,-152.62 -3.27392,-136.947 20.0913,-116 52.7536,-86.7188 175.778,-75.9023 247.086,-72.04"/>
<polygon fill="midnightblue" stroke="midnightblue" points="247.408,-75.5282 257.215,-71.5192 247.048,-68.5374 247.408,-75.5282"/>
</g>
<!-- Node6 -->
<g id="node6" class="node"><title>Node6</title>
<g id="a_node6"><a xlink:href="_utilities_8h.html" target="_top" xlink:title="cinder/Utilities.h">
<polygon fill="white" stroke="black" points="788.801,-349 788.801,-369 875.382,-369 875.382,-349 788.801,-349"/>
<text text-anchor="middle" x="832.091" y="-355" font-family="Helvetica,sans-Serif" font-size="10.00">cinder/Utilities.h</text>
</a>
</g>
</g>
<!-- Node1&#45;&gt;Node6 -->
<g id="edge5" class="edge"><title>Node1&#45;&gt;Node6</title>
<path fill="none" stroke="midnightblue" d="M1122.95,-406.94C1057.41,-396.362 949.791,-378.995 885.458,-368.613"/>
<polygon fill="midnightblue" stroke="midnightblue" points="885.948,-365.146 875.518,-367.008 884.833,-372.057 885.948,-365.146"/>
</g>
<!-- Node21 -->
<g id="node21" class="node"><title>Node21</title>
<g id="a_node21"><a xlink:href="_unicode_8h.html" target="_top" xlink:title="cinder/Unicode.h">
<polygon fill="white" stroke="black" points="1078.57,-175 1078.57,-195 1169.61,-195 1169.61,-175 1078.57,-175"/>
<text text-anchor="middle" x="1124.09" y="-181" font-family="Helvetica,sans-Serif" font-size="10.00">cinder/Unicode.h</text>
</a>
</g>
</g>
<!-- Node1&#45;&gt;Node21 -->
<g id="edge34" class="edge"><title>Node1&#45;&gt;Node21</title>
<path fill="none" stroke="midnightblue" d="M1176.94,-406.984C1168.81,-372.998 1139.92,-252.186 1128.64,-205.04"/>
<polygon fill="midnightblue" stroke="midnightblue" points="1132.02,-204.116 1126.29,-195.204 1125.21,-205.744 1132.02,-204.116"/>
</g>
<!-- Node8 -->
<g id="node8" class="node"><title>Node8</title>
<polygon fill="white" stroke="#bfbfbf" points="1116.48,-59 1116.48,-79 1159.71,-79 1159.71,-59 1116.48,-59"/>
<text text-anchor="middle" x="1138.09" y="-65" font-family="Helvetica,sans-Serif" font-size="10.00">vector</text>
</g>
<!-- Node1&#45;&gt;Node8 -->
<g id="edge44" class="edge"><title>Node1&#45;&gt;Node8</title>
<path fill="none" stroke="midnightblue" d="M1181.65,-406.924C1186.84,-387.728 1198.09,-341.527 1198.09,-302 1198.09,-302 1198.09,-302 1198.09,-184 1198.09,-145.865 1171.47,-107.957 1153.7,-86.8909"/>
<polygon fill="midnightblue" stroke="midnightblue" points="1156.17,-84.4001 1146.94,-79.1862 1150.9,-89.0137 1156.17,-84.4001"/>
</g>
<!-- Node27 -->
<g id="node27" class="node"><title>Node27</title>
<polygon fill="white" stroke="#bfbfbf" points="1225.72,-349 1225.72,-369 1328.46,-369 1328.46,-349 1225.72,-349"/>
<text text-anchor="middle" x="1277.09" y="-355" font-family="Helvetica,sans-Serif" font-size="10.00">boost/tokenizer.hpp</text>
</g>
<!-- Node1&#45;&gt;Node27 -->
<g id="edge45" class="edge"><title>Node1&#45;&gt;Node27</title>
<path fill="none" stroke="midnightblue" d="M1195.27,-406.753C1210.83,-397.864 1234.55,-384.309 1252.45,-374.079"/>
<polygon fill="midnightblue" stroke="midnightblue" points="1254.26,-377.075 1261.21,-369.075 1250.79,-370.998 1254.26,-377.075"/>
</g>
<!-- Node28 -->
<g id="node28" class="node"><title>Node28</title>
<polygon fill="white" stroke="#bfbfbf" points="1346.56,-349 1346.56,-369 1477.62,-369 1477.62,-349 1346.56,-349"/>
<text text-anchor="middle" x="1412.09" y="-355" font-family="Helvetica,sans-Serif" font-size="10.00">boost/algorithm/string.hpp</text>
</g>
<!-- Node1&#45;&gt;Node28 -->
<g id="edge46" class="edge"><title>Node1&#45;&gt;Node28</title>
<path fill="none" stroke="midnightblue" d="M1216.79,-406.94C1257.05,-397.262 1320.97,-381.901 1364.64,-371.406"/>
<polygon fill="midnightblue" stroke="midnightblue" points="1365.55,-374.787 1374.45,-369.047 1363.91,-367.98 1365.55,-374.787"/>
</g>
<!-- Node3 -->
<g id="node3" class="node"><title>Node3</title>
<polygon fill="white" stroke="#bfbfbf" points="188.641,-1 188.641,-21 233.542,-21 233.542,-1 188.641,-1"/>
<text text-anchor="middle" x="211.091" y="-7" font-family="Helvetica,sans-Serif" font-size="10.00">cstdint</text>
</g>
<!-- Node2&#45;&gt;Node3 -->
<g id="edge2" class="edge"><title>Node2&#45;&gt;Node3</title>
<path fill="none" stroke="midnightblue" d="M284.56,-58.7527C270.848,-50.0272 250.071,-36.8051 234.106,-26.6458"/>
<polygon fill="midnightblue" stroke="midnightblue" points="235.668,-23.4912 225.352,-21.0752 231.91,-29.3968 235.668,-23.4912"/>
</g>
<!-- Node4 -->
<g id="node4" class="node"><title>Node4</title>
<polygon fill="white" stroke="#bfbfbf" points="251.621,-1 251.621,-21 346.562,-21 346.562,-1 251.621,-1"/>
<text text-anchor="middle" x="299.091" y="-7" font-family="Helvetica,sans-Serif" font-size="10.00">boost/version.hpp</text>
</g>
<!-- Node2&#45;&gt;Node4 -->
<g id="edge3" class="edge"><title>Node2&#45;&gt;Node4</title>
<path fill="none" stroke="midnightblue" d="M299.091,-58.7527C299.091,-51.2504 299.091,-40.4238 299.091,-31.0781"/>
<polygon fill="midnightblue" stroke="midnightblue" points="302.591,-31.0752 299.091,-21.0752 295.591,-31.0752 302.591,-31.0752"/>
</g>
<!-- Node5 -->
<g id="node5" class="node"><title>Node5</title>
<polygon fill="white" stroke="#bfbfbf" points="364.712,-1 364.712,-21 497.47,-21 497.47,-1 364.712,-1"/>
<text text-anchor="middle" x="431.091" y="-7" font-family="Helvetica,sans-Serif" font-size="10.00">boost/checked_delete.hpp</text>
</g>
<!-- Node2&#45;&gt;Node5 -->
<g id="edge4" class="edge"><title>Node2&#45;&gt;Node5</title>
<path fill="none" stroke="midnightblue" d="M320.593,-58.878C342.263,-49.6848 375.912,-35.4095 400.387,-25.0263"/>
<polygon fill="midnightblue" stroke="midnightblue" points="401.76,-28.2457 409.599,-21.1181 399.026,-21.8016 401.76,-28.2457"/>
</g>
<!-- Node7 -->
<g id="node7" class="node"><title>Node7</title>
<polygon fill="white" stroke="#bfbfbf" points="1002.86,-59 1002.86,-79 1043.32,-79 1043.32,-59 1002.86,-59"/>
<text text-anchor="middle" x="1023.09" y="-65" font-family="Helvetica,sans-Serif" font-size="10.00">string</text>
</g>
<!-- Node6&#45;&gt;Node7 -->
<g id="edge6" class="edge"><title>Node6&#45;&gt;Node7</title>
<path fill="none" stroke="midnightblue" d="M846.644,-348.854C887.306,-322.316 1001.83,-240.623 1043.09,-138 1049.73,-121.488 1042.48,-101.929 1034.92,-88.037"/>
<polygon fill="midnightblue" stroke="midnightblue" points="1037.93,-86.2371 1029.81,-79.4314 1031.91,-89.8153 1037.93,-86.2371"/>
</g>
<!-- Node6&#45;&gt;Node8 -->
<g id="edge7" class="edge"><title>Node6&#45;&gt;Node8</title>
<path fill="none" stroke="midnightblue" d="M855.16,-348.991C874.859,-340.778 903.504,-327.572 926.091,-312 1019.92,-247.316 1098.85,-132.02 1127.03,-87.8738"/>
<polygon fill="midnightblue" stroke="midnightblue" points="1130.03,-89.6795 1132.4,-79.3533 1124.1,-85.9475 1130.03,-89.6795"/>
</g>
<!-- Node6&#45;&gt;Node2 -->
<g id="edge8" class="edge"><title>Node6&#45;&gt;Node2</title>
<path fill="none" stroke="midnightblue" d="M832.091,-348.838C832.091,-329.48 832.091,-282.99 832.091,-244 832.091,-244 832.091,-244 832.091,-184 832.091,-152.498 836.446,-135.982 812.091,-116 776.994,-87.2042 474.749,-75.1471 351.292,-71.3928"/>
<polygon fill="midnightblue" stroke="midnightblue" points="351.064,-67.8846 340.964,-71.0855 350.856,-74.8815 351.064,-67.8846"/>
</g>
<!-- Node9 -->
<g id="node9" class="node"><title>Node9</title>
<g id="a_node9"><a xlink:href="_url_8h.html" target="_top" xlink:title="cinder/Url.h">
<polygon fill="white" stroke="black" points="350.527,-233 350.527,-253 417.655,-253 417.655,-233 350.527,-233"/>
<text text-anchor="middle" x="384.091" y="-239" font-family="Helvetica,sans-Serif" font-size="10.00">cinder/Url.h</text>
</a>
</g>
</g>
<!-- Node6&#45;&gt;Node9 -->
<g id="edge9" class="edge"><title>Node6&#45;&gt;Node9</title>
<path fill="none" stroke="midnightblue" d="M827.292,-348.582C818.969,-333.342 800.303,-303.614 775.091,-290 715.939,-258.057 516.828,-248.044 427.775,-245.119"/>
<polygon fill="midnightblue" stroke="midnightblue" points="427.835,-241.619 417.73,-244.804 427.615,-248.616 427.835,-241.619"/>
</g>
<!-- Node19 -->
<g id="node19" class="node"><title>Node19</title>
<g id="a_node19"><a xlink:href="_data_source_8h.html" target="_top" xlink:title="cinder/DataSource.h">
<polygon fill="white" stroke="black" points="184.51,-291 184.51,-311 291.672,-311 291.672,-291 184.51,-291"/>
<text text-anchor="middle" x="238.091" y="-297" font-family="Helvetica,sans-Serif" font-size="10.00">cinder/DataSource.h</text>
</a>
</g>
</g>
<!-- Node6&#45;&gt;Node19 -->
<g id="edge27" class="edge"><title>Node6&#45;&gt;Node19</title>
<path fill="none" stroke="midnightblue" d="M788.413,-353.882C684.799,-344.114 423.74,-319.502 302.195,-308.043"/>
<polygon fill="midnightblue" stroke="midnightblue" points="302.215,-304.53 291.931,-307.076 301.558,-311.499 302.215,-304.53"/>
</g>
<!-- Node20 -->
<g id="node20" class="node"><title>Node20</title>
<polygon fill="white" stroke="#bfbfbf" points="651.895,-291 651.895,-311 766.288,-311 766.288,-291 651.895,-291"/>
<text text-anchor="middle" x="709.091" y="-297" font-family="Helvetica,sans-Serif" font-size="10.00">boost/lexical_cast.hpp</text>
</g>
<!-- Node6&#45;&gt;Node20 -->
<g id="edge33" class="edge"><title>Node6&#45;&gt;Node20</title>
<path fill="none" stroke="midnightblue" d="M812.055,-348.878C792.042,-339.766 761.063,-325.662 738.31,-315.303"/>
<polygon fill="midnightblue" stroke="midnightblue" points="739.67,-312.076 729.119,-311.118 736.769,-318.447 739.67,-312.076"/>
</g>
<!-- Node9&#45;&gt;Node2 -->
<g id="edge10" class="edge"><title>Node9&#45;&gt;Node2</title>
<path fill="none" stroke="midnightblue" d="M352.708,-232.989C312.697,-219.618 245.221,-190.293 216.091,-138 202.549,-113.689 233.075,-94.5958 260.849,-82.9089"/>
<polygon fill="midnightblue" stroke="midnightblue" points="262.477,-86.0285 270.482,-79.0876 259.896,-79.5218 262.477,-86.0285"/>
</g>
<!-- Node10 -->
<g id="node10" class="node"><title>Node10</title>
<g id="a_node10"><a xlink:href="_stream_8h.html" target="_top" xlink:title="cinder/Stream.h">
<polygon fill="white" stroke="black" points="340.798,-175 340.798,-195 427.384,-195 427.384,-175 340.798,-175"/>
<text text-anchor="middle" x="384.091" y="-181" font-family="Helvetica,sans-Serif" font-size="10.00">cinder/Stream.h</text>
</a>
</g>
</g>
<!-- Node9&#45;&gt;Node10 -->
<g id="edge11" class="edge"><title>Node9&#45;&gt;Node10</title>
<path fill="none" stroke="midnightblue" d="M384.091,-232.753C384.091,-225.25 384.091,-214.424 384.091,-205.078"/>
<polygon fill="midnightblue" stroke="midnightblue" points="387.591,-205.075 384.091,-195.075 380.591,-205.075 387.591,-205.075"/>
</g>
<!-- Node18 -->
<g id="node18" class="node"><title>Node18</title>
<polygon fill="white" stroke="#bfbfbf" points="444.919,-175 444.919,-195 499.264,-195 499.264,-175 444.919,-175"/>
<text text-anchor="middle" x="472.091" y="-181" font-family="Helvetica,sans-Serif" font-size="10.00">iostream</text>
</g>
<!-- Node9&#45;&gt;Node18 -->
<g id="edge26" class="edge"><title>Node9&#45;&gt;Node18</title>
<path fill="none" stroke="midnightblue" d="M398.623,-232.753C412.334,-224.027 433.112,-210.805 449.077,-200.646"/>
<polygon fill="midnightblue" stroke="midnightblue" points="451.273,-203.397 457.83,-195.075 447.515,-197.491 451.273,-203.397"/>
</g>
<!-- Node10&#45;&gt;Node2 -->
<g id="edge12" class="edge"><title>Node10&#45;&gt;Node2</title>
<path fill="none" stroke="midnightblue" d="M377.135,-174.671C362.869,-155.537 330.111,-111.602 311.897,-87.1745"/>
<polygon fill="midnightblue" stroke="midnightblue" points="314.689,-85.0641 305.906,-79.1394 309.077,-89.2484 314.689,-85.0641"/>
</g>
<!-- Node11 -->
<g id="node11" class="node"><title>Node11</title>
<g id="a_node11"><a xlink:href="_buffer_8h.html" target="_top" xlink:title="cinder/Buffer.h">
<polygon fill="white" stroke="black" points="224.936,-117 224.936,-137 305.247,-137 305.247,-117 224.936,-117"/>
<text text-anchor="middle" x="265.091" y="-123" font-family="Helvetica,sans-Serif" font-size="10.00">cinder/Buffer.h</text>
</a>
</g>
</g>
<!-- Node10&#45;&gt;Node11 -->
<g id="edge13" class="edge"><title>Node10&#45;&gt;Node11</title>
<path fill="none" stroke="midnightblue" d="M364.707,-174.878C345.431,-165.807 315.64,-151.788 293.655,-141.442"/>
<polygon fill="midnightblue" stroke="midnightblue" points="295.006,-138.209 284.467,-137.118 292.025,-144.543 295.006,-138.209"/>
</g>
<!-- Node12 -->
<g id="node12" class="node"><title>Node12</title>
<g id="a_node12"><a xlink:href="_exception_8h.html" target="_top" xlink:title="cinder/Exception.h">
<polygon fill="white" stroke="black" points="935.956,-117 935.956,-137 1034.23,-137 1034.23,-117 935.956,-117"/>
<text text-anchor="middle" x="985.091" y="-123" font-family="Helvetica,sans-Serif" font-size="10.00">cinder/Exception.h</text>
</a>
</g>
</g>
<!-- Node10&#45;&gt;Node12 -->
<g id="edge15" class="edge"><title>Node10&#45;&gt;Node12</title>
<path fill="none" stroke="midnightblue" d="M427.444,-175.294C430.365,-174.821 433.267,-174.384 436.091,-174 634.024,-147.098 685.137,-155.841 884.091,-138 897.517,-136.796 911.938,-135.419 925.56,-134.079"/>
<polygon fill="midnightblue" stroke="midnightblue" points="926.186,-137.534 935.792,-133.065 925.496,-130.568 926.186,-137.534"/>
</g>
<!-- Node13 -->
<g id="node13" class="node"><title>Node13</title>
<g id="a_node13"><a xlink:href="_filesystem_8h.html" target="_top" xlink:title="cinder/Filesystem.h">
<polygon fill="white" stroke="black" points="29.0225,-117 29.0225,-137 131.16,-137 131.16,-117 29.0225,-117"/>
<text text-anchor="middle" x="80.0913" y="-123" font-family="Helvetica,sans-Serif" font-size="10.00">cinder/Filesystem.h</text>
</a>
</g>
</g>
<!-- Node10&#45;&gt;Node13 -->
<g id="edge19" class="edge"><title>Node10&#45;&gt;Node13</title>
<path fill="none" stroke="midnightblue" d="M340.536,-175.977C287.613,-166.228 198.093,-149.737 139.036,-138.858"/>
<polygon fill="midnightblue" stroke="midnightblue" points="139.574,-135.399 129.106,-137.029 138.306,-142.283 139.574,-135.399"/>
</g>
<!-- Node15 -->
<g id="node15" class="node"><title>Node15</title>
<polygon fill="white" stroke="#bfbfbf" points="684.382,-117 684.382,-137 803.8,-137 803.8,-117 684.382,-117"/>
<text text-anchor="middle" x="744.091" y="-123" font-family="Helvetica,sans-Serif" font-size="10.00">boost/noncopyable.hpp</text>
</g>
<!-- Node10&#45;&gt;Node15 -->
<g id="edge22" class="edge"><title>Node10&#45;&gt;Node15</title>
<path fill="none" stroke="midnightblue" d="M427.478,-175.516C430.391,-174.99 433.282,-174.48 436.091,-174 459.041,-170.081 590.545,-150.611 674.133,-138.291"/>
<polygon fill="midnightblue" stroke="midnightblue" points="674.696,-141.746 684.079,-136.825 673.676,-134.82 674.696,-141.746"/>
</g>
<!-- Node10&#45;&gt;Node7 -->
<g id="edge23" class="edge"><title>Node10&#45;&gt;Node7</title>
<path fill="none" stroke="midnightblue" d="M427.451,-175.344C430.37,-174.859 433.27,-174.405 436.091,-174 602.26,-150.122 647.684,-171.945 812.091,-138 878.285,-124.333 952.958,-97.4162 993.325,-81.8603"/>
<polygon fill="midnightblue" stroke="midnightblue" points="994.772,-85.0529 1002.82,-78.1651 992.234,-78.5292 994.772,-85.0529"/>
</g>
<!-- Node16 -->
<g id="node16" class="node"><title>Node16</title>
<polygon fill="white" stroke="#bfbfbf" points="360.666,-117 360.666,-137 509.517,-137 509.517,-117 360.666,-117"/>
<text text-anchor="middle" x="435.091" y="-123" font-family="Helvetica,sans-Serif" font-size="10.00">boost/iostreams/concepts.hpp</text>
</g>
<!-- Node10&#45;&gt;Node16 -->
<g id="edge24" class="edge"><title>Node10&#45;&gt;Node16</title>
<path fill="none" stroke="midnightblue" d="M392.513,-174.753C399.94,-166.598 410.943,-154.516 419.903,-144.677"/>
<polygon fill="midnightblue" stroke="midnightblue" points="422.681,-146.825 426.826,-137.075 417.505,-142.112 422.681,-146.825"/>
</g>
<!-- Node17 -->
<g id="node17" class="node"><title>Node17</title>
<polygon fill="white" stroke="#bfbfbf" points="527.397,-117 527.397,-137 666.786,-137 666.786,-117 527.397,-117"/>
<text text-anchor="middle" x="597.091" y="-123" font-family="Helvetica,sans-Serif" font-size="10.00">boost/iostreams/stream.hpp</text>
</g>
<!-- Node10&#45;&gt;Node17 -->
<g id="edge25" class="edge"><title>Node10&#45;&gt;Node17</title>
<path fill="none" stroke="midnightblue" d="M418.787,-174.878C455.41,-165.249 513.238,-150.046 553.052,-139.578"/>
<polygon fill="midnightblue" stroke="midnightblue" points="553.982,-142.953 562.763,-137.025 552.202,-136.183 553.982,-142.953"/>
</g>
<!-- Node11&#45;&gt;Node2 -->
<g id="edge14" class="edge"><title>Node11&#45;&gt;Node2</title>
<path fill="none" stroke="midnightblue" d="M270.706,-116.753C275.459,-108.924 282.409,-97.4761 288.243,-87.8679"/>
<polygon fill="midnightblue" stroke="midnightblue" points="291.383,-89.4395 293.581,-79.0752 285.4,-85.8066 291.383,-89.4395"/>
</g>
<!-- Node12&#45;&gt;Node2 -->
<g id="edge16" class="edge"><title>Node12&#45;&gt;Node2</title>
<path fill="none" stroke="midnightblue" d="M935.623,-117.747C931.055,-117.106 926.492,-116.511 922.091,-116 710.967,-91.4933 457.989,-77.5503 350.962,-72.3591"/>
<polygon fill="midnightblue" stroke="midnightblue" points="350.919,-68.853 340.763,-71.8695 350.584,-75.845 350.919,-68.853"/>
</g>
<!-- Node12&#45;&gt;Node8 -->
<g id="edge17" class="edge"><title>Node12&#45;&gt;Node8</title>
<path fill="none" stroke="midnightblue" d="M1010.01,-116.878C1036.37,-107.23 1078.03,-91.9848 1106.63,-81.5152"/>
<polygon fill="midnightblue" stroke="midnightblue" points="1107.97,-84.7521 1116.16,-78.0281 1105.56,-78.1785 1107.97,-84.7521"/>
</g>
<!-- Node12&#45;&gt;Node7 -->
<g id="edge18" class="edge"><title>Node12&#45;&gt;Node7</title>
<path fill="none" stroke="midnightblue" d="M991.366,-116.753C996.734,-108.843 1004.61,-97.2372 1011.17,-87.5683"/>
<polygon fill="midnightblue" stroke="midnightblue" points="1014.21,-89.3152 1016.93,-79.0752 1008.42,-85.3847 1014.21,-89.3152"/>
</g>
<!-- Node13&#45;&gt;Node2 -->
<g id="edge20" class="edge"><title>Node13&#45;&gt;Node2</title>
<path fill="none" stroke="midnightblue" d="M115.765,-116.878C153.499,-107.229 213.128,-91.9816 254.072,-81.5118"/>
<polygon fill="midnightblue" stroke="midnightblue" points="254.975,-84.8936 263.796,-79.0253 253.241,-78.1119 254.975,-84.8936"/>
</g>
<!-- Node14 -->
<g id="node14" class="node"><title>Node14</title>
<polygon fill="white" stroke="#bfbfbf" points="26.5127,-59 26.5127,-79 133.67,-79 133.67,-59 26.5127,-59"/>
<text text-anchor="middle" x="80.0913" y="-65" font-family="Helvetica,sans-Serif" font-size="10.00">boost/filesystem.hpp</text>
</g>
<!-- Node13&#45;&gt;Node14 -->
<g id="edge21" class="edge"><title>Node13&#45;&gt;Node14</title>
<path fill="none" stroke="midnightblue" d="M80.0913,-116.753C80.0913,-109.25 80.0913,-98.4238 80.0913,-89.0781"/>
<polygon fill="midnightblue" stroke="midnightblue" points="83.5914,-89.0752 80.0913,-79.0752 76.5914,-89.0752 83.5914,-89.0752"/>
</g>
<!-- Node19&#45;&gt;Node2 -->
<g id="edge28" class="edge"><title>Node19&#45;&gt;Node2</title>
<path fill="none" stroke="midnightblue" d="M232.644,-290.744C216.678,-262.287 173.307,-174.478 209.091,-116 218.662,-100.36 235.414,-89.8239 251.891,-82.8307"/>
<polygon fill="midnightblue" stroke="midnightblue" points="253.441,-85.984 261.504,-79.1109 250.914,-79.4557 253.441,-85.984"/>
</g>
<!-- Node19&#45;&gt;Node9 -->
<g id="edge29" class="edge"><title>Node19&#45;&gt;Node9</title>
<path fill="none" stroke="midnightblue" d="M261.874,-290.878C286.054,-281.603 323.719,-267.156 350.846,-256.752"/>
<polygon fill="midnightblue" stroke="midnightblue" points="352.236,-259.967 360.319,-253.118 349.729,-253.432 352.236,-259.967"/>
</g>
<!-- Node19&#45;&gt;Node11 -->
<g id="edge30" class="edge"><title>Node19&#45;&gt;Node11</title>
<path fill="none" stroke="midnightblue" d="M239.543,-290.753C243.792,-263.688 256.265,-184.224 262.064,-147.286"/>
<polygon fill="midnightblue" stroke="midnightblue" points="265.539,-147.715 263.632,-137.293 258.624,-146.629 265.539,-147.715"/>
</g>
<!-- Node19&#45;&gt;Node10 -->
<g id="edge31" class="edge"><title>Node19&#45;&gt;Node10</title>
<path fill="none" stroke="midnightblue" d="M249.792,-290.864C274.78,-271.352 333.586,-225.436 364.428,-201.353"/>
<polygon fill="midnightblue" stroke="midnightblue" points="366.607,-204.093 372.335,-195.18 362.299,-198.576 366.607,-204.093"/>
</g>
<!-- Node19&#45;&gt;Node13 -->
<g id="edge32" class="edge"><title>Node19&#45;&gt;Node13</title>
<path fill="none" stroke="midnightblue" d="M208.758,-290.957C188.829,-283.607 162.945,-271.554 145.091,-254 113.622,-223.059 94.349,-173.652 85.625,-146.823"/>
<polygon fill="midnightblue" stroke="midnightblue" points="88.9225,-145.64 82.6155,-137.127 82.2372,-147.715 88.9225,-145.64"/>
</g>
<!-- Node21&#45;&gt;Node2 -->
<g id="edge35" class="edge"><title>Node21&#45;&gt;Node2</title>
<path fill="none" stroke="midnightblue" d="M1083.62,-174.995C1043.72,-166.013 981.065,-151.627 927.091,-138 890.922,-128.868 882.829,-122.479 846.091,-116 666.118,-84.2622 448.843,-74.2612 351.135,-71.2405"/>
<polygon fill="midnightblue" stroke="midnightblue" points="351.038,-67.7361 340.939,-70.9374 350.83,-74.733 351.038,-67.7361"/>
</g>
<!-- Node22 -->
<g id="node22" class="node"><title>Node22</title>
<g id="a_node22"><a xlink:href="_function_8h.html" target="_top" xlink:title="cinder/Function.h">
<polygon fill="white" stroke="black" points="1225.74,-117 1225.74,-137 1318.45,-137 1318.45,-117 1225.74,-117"/>
<text text-anchor="middle" x="1272.09" y="-123" font-family="Helvetica,sans-Serif" font-size="10.00">cinder/Function.h</text>
</a>
</g>
</g>
<!-- Node21&#45;&gt;Node22 -->
<g id="edge36" class="edge"><title>Node21&#45;&gt;Node22</title>
<path fill="none" stroke="midnightblue" d="M1148.2,-174.878C1172.71,-165.603 1210.89,-151.156 1238.39,-140.752"/>
<polygon fill="midnightblue" stroke="midnightblue" points="1239.88,-143.931 1247.99,-137.118 1237.4,-137.384 1239.88,-143.931"/>
</g>
<!-- Node21&#45;&gt;Node7 -->
<g id="edge43" class="edge"><title>Node21&#45;&gt;Node7</title>
<path fill="none" stroke="midnightblue" d="M1118.53,-174.679C1110.18,-161.072 1093.54,-135.29 1076.09,-116 1066.13,-104.988 1053.64,-94.0351 1043.29,-85.5812"/>
<polygon fill="midnightblue" stroke="midnightblue" points="1045.2,-82.6255 1035.2,-79.1211 1040.83,-88.0957 1045.2,-82.6255"/>
</g>
<!-- Node22&#45;&gt;Node2 -->
<g id="edge37" class="edge"><title>Node22&#45;&gt;Node2</title>
<path fill="none" stroke="midnightblue" d="M1225.49,-123.318C1062.95,-113.963 521.775,-82.8163 351.114,-72.9941"/>
<polygon fill="midnightblue" stroke="midnightblue" points="351.073,-69.4861 340.889,-72.4056 350.671,-76.4745 351.073,-69.4861"/>
</g>
<!-- Node23 -->
<g id="node23" class="node"><title>Node23</title>
<polygon fill="white" stroke="#bfbfbf" points="1177.53,-59 1177.53,-79 1234.66,-79 1234.66,-59 1177.53,-59"/>
<text text-anchor="middle" x="1206.09" y="-65" font-family="Helvetica,sans-Serif" font-size="10.00">algorithm</text>
</g>
<!-- Node22&#45;&gt;Node23 -->
<g id="edge38" class="edge"><title>Node22&#45;&gt;Node23</title>
<path fill="none" stroke="midnightblue" d="M1261.19,-116.753C1251.29,-108.353 1236.48,-95.7874 1224.71,-85.7976"/>
<polygon fill="midnightblue" stroke="midnightblue" points="1226.68,-82.8762 1216.79,-79.0752 1222.15,-88.2138 1226.68,-82.8762"/>
</g>
<!-- Node22&#45;&gt;Node8 -->
<g id="edge39" class="edge"><title>Node22&#45;&gt;Node8</title>
<path fill="none" stroke="midnightblue" d="M1250.26,-116.878C1228.27,-107.685 1194.11,-93.4095 1169.26,-83.0263"/>
<polygon fill="midnightblue" stroke="midnightblue" points="1170.49,-79.7447 1159.91,-79.1181 1167.79,-86.2034 1170.49,-79.7447"/>
</g>
<!-- Node24 -->
<g id="node24" class="node"><title>Node24</title>
<polygon fill="white" stroke="#bfbfbf" points="1252.7,-59 1252.7,-79 1291.48,-79 1291.48,-59 1252.7,-59"/>
<text text-anchor="middle" x="1272.09" y="-65" font-family="Helvetica,sans-Serif" font-size="10.00">utility</text>
</g>
<!-- Node22&#45;&gt;Node24 -->
<g id="edge40" class="edge"><title>Node22&#45;&gt;Node24</title>
<path fill="none" stroke="midnightblue" d="M1272.09,-116.753C1272.09,-109.25 1272.09,-98.4238 1272.09,-89.0781"/>
<polygon fill="midnightblue" stroke="midnightblue" points="1275.59,-89.0752 1272.09,-79.0752 1268.59,-89.0752 1275.59,-89.0752"/>
</g>
<!-- Node25 -->
<g id="node25" class="node"><title>Node25</title>
<polygon fill="white" stroke="#bfbfbf" points="1309.39,-59 1309.39,-79 1408.79,-79 1408.79,-59 1309.39,-59"/>
<text text-anchor="middle" x="1359.09" y="-65" font-family="Helvetica,sans-Serif" font-size="10.00">boost/signals2.hpp</text>
</g>
<!-- Node22&#45;&gt;Node25 -->
<g id="edge41" class="edge"><title>Node22&#45;&gt;Node25</title>
<path fill="none" stroke="midnightblue" d="M1286.46,-116.753C1300.01,-108.027 1320.55,-94.8051 1336.34,-84.6458"/>
<polygon fill="midnightblue" stroke="midnightblue" points="1338.48,-87.4307 1344.99,-79.0752 1334.69,-81.5447 1338.48,-87.4307"/>
</g>
<!-- Node26 -->
<g id="node26" class="node"><title>Node26</title>
<polygon fill="white" stroke="#bfbfbf" points="1426.69,-59 1426.69,-79 1485.5,-79 1485.5,-59 1426.69,-59"/>
<text text-anchor="middle" x="1456.09" y="-65" font-family="Helvetica,sans-Serif" font-size="10.00">functional</text>
</g>
<!-- Node22&#45;&gt;Node26 -->
<g id="edge42" class="edge"><title>Node22&#45;&gt;Node26</title>
<path fill="none" stroke="midnightblue" d="M1302.06,-116.878C1333.3,-107.372 1382.39,-92.4317 1416.73,-81.9798"/>
<polygon fill="midnightblue" stroke="midnightblue" points="1417.89,-85.2854 1426.44,-79.0253 1415.85,-78.5886 1417.89,-85.2854"/>
</g>
</g>
</svg>
