<?xml version="1.0" encoding="UTF-8" standalone="no"?>
<!DOCTYPE svg PUBLIC "-//W3C//DTD SVG 1.1//EN"
 "http://www.w3.org/Graphics/SVG/1.1/DTD/svg11.dtd">
<!-- Generated by graphviz version 2.30.1 (20140712.1814)
 -->
<!-- Title: include/cinder/Utilities.h Pages: 1 -->
<svg width="4095pt" height="240pt"
 viewBox="0.00 0.00 4095.42 240.00" xmlns="http://www.w3.org/2000/svg" xmlns:xlink="http://www.w3.org/1999/xlink">
<g id="graph0" class="graph" transform="scale(1 1) rotate(0) translate(4 236)">
<title>include/cinder/Utilities.h</title>
<polygon fill="white" stroke="white" points="-4,5 -4,-236 4092.42,-236 4092.42,5 -4,5"/>
<!-- Node1 -->
<g id="node1" class="node"><title>Node1</title>
<polygon fill="#bfbfbf" stroke="black" points="2080.48,-211 2080.48,-231 2201.52,-231 2201.52,-211 2080.48,-211"/>
<text text-anchor="middle" x="2141" y="-217" font-family="Helvetica,sans-Serif" font-size="10.00">include/cinder/Utilities.h</text>
</g>
<!-- Node2 -->
<g id="node2" class="node"><title>Node2</title>
<g id="a_node2"><a xlink:href="_json_8h.html" target="_top" xlink:title="include/cinder/Json.h">
<polygon fill="white" stroke="black" points="2745.03,-147 2745.03,-167 2854.97,-167 2854.97,-147 2745.03,-147"/>
<text text-anchor="middle" x="2800" y="-153" font-family="Helvetica,sans-Serif" font-size="10.00">include/cinder/Json.h</text>
</a>
</g>
</g>
<!-- Node1&#45;&gt;Node2 -->
<g id="edge1" class="edge"><title>Node1&#45;&gt;Node2</title>
<path fill="none" stroke="midnightblue" d="M2211.81,-218.268C2323.61,-214.692 2547.58,-204.115 2735,-174 2745.79,-172.267 2757.41,-169.649 2767.81,-167.03"/>
<polygon fill="midnightblue" stroke="midnightblue" points="2211.56,-214.774 2201.67,-218.583 2211.78,-221.771 2211.56,-214.774"/>
</g>
<!-- Node4 -->
<g id="node4" class="node"><title>Node4</title>
<g id="a_node4"><a xlink:href="_xml_8h.html" target="_top" xlink:title="include/cinder/Xml.h">
<polygon fill="white" stroke="black" points="11.978,-147 11.978,-167 118.022,-167 118.022,-147 11.978,-147"/>
<text text-anchor="middle" x="65" y="-153" font-family="Helvetica,sans-Serif" font-size="10.00">include/cinder/Xml.h</text>
</a>
</g>
</g>
<!-- Node1&#45;&gt;Node4 -->
<g id="edge3" class="edge"><title>Node1&#45;&gt;Node4</title>
<path fill="none" stroke="midnightblue" d="M2070.11,-220.386C1759.66,-221.765 518.367,-223.984 132,-174 120.377,-172.496 107.834,-169.799 96.7794,-167.043"/>
<polygon fill="midnightblue" stroke="midnightblue" points="2070.34,-223.885 2080.32,-220.339 2070.31,-216.885 2070.34,-223.885"/>
</g>
<!-- Node9 -->
<g id="node9" class="node"><title>Node9</title>
<g id="a_node9"><a xlink:href="_app_8cpp.html" target="_top" xlink:title="src/cinder/app/App.cpp">
<polygon fill="white" stroke="black" points="173.86,-147 173.86,-167 292.14,-167 292.14,-147 173.86,-147"/>
<text text-anchor="middle" x="233" y="-153" font-family="Helvetica,sans-Serif" font-size="10.00">src/cinder/app/App.cpp</text>
</a>
</g>
</g>
<!-- Node1&#45;&gt;Node9 -->
<g id="edge8" class="edge"><title>Node1&#45;&gt;Node9</title>
<path fill="none" stroke="midnightblue" d="M2070.35,-220.179C1776.82,-220.622 652.583,-219.265 301,-174 289.212,-172.482 276.484,-169.782 265.263,-167.027"/>
<polygon fill="midnightblue" stroke="midnightblue" points="2070.44,-223.679 2080.44,-220.162 2070.43,-216.679 2070.44,-223.679"/>
</g>
<!-- Node10 -->
<g id="node10" class="node"><title>Node10</title>
<g id="a_node10"><a xlink:href="_app_impl_msw_8cpp.html" target="_top" xlink:title="src/cinder/app/AppImplMsw.cpp">
<polygon fill="white" stroke="black" points="310.412,-147 310.412,-167 467.588,-167 467.588,-147 310.412,-147"/>
<text text-anchor="middle" x="389" y="-153" font-family="Helvetica,sans-Serif" font-size="10.00">src/cinder/app/AppImplMsw.cpp</text>
</a>
</g>
</g>
<!-- Node1&#45;&gt;Node10 -->
<g id="edge9" class="edge"><title>Node1&#45;&gt;Node10</title>
<path fill="none" stroke="midnightblue" d="M2070,-219.478C1794.13,-217.224 793.078,-206.91 477,-174 462.019,-172.44 445.756,-169.765 431.334,-167.044"/>
<polygon fill="midnightblue" stroke="midnightblue" points="2070.25,-222.98 2080.28,-219.561 2070.31,-215.98 2070.25,-222.98"/>
</g>
<!-- Node11 -->
<g id="node11" class="node"><title>Node11</title>
<g id="a_node11"><a xlink:href="_app_impl_msw_basic_8cpp.html" target="_top" xlink:title="src/cinder/app/AppImplMsw\lBasic.cpp">
<polygon fill="white" stroke="black" points="485.589,-141 485.589,-173 624.411,-173 624.411,-141 485.589,-141"/>
<text text-anchor="start" x="493.589" y="-159" font-family="Helvetica,sans-Serif" font-size="10.00">src/cinder/app/AppImplMsw</text>
<text text-anchor="middle" x="555" y="-147" font-family="Helvetica,sans-Serif" font-size="10.00">Basic.cpp</text>
</a>
</g>
</g>
<!-- Node1&#45;&gt;Node11 -->
<g id="edge10" class="edge"><title>Node1&#45;&gt;Node11</title>
<path fill="none" stroke="midnightblue" d="M2070.29,-219.43C1811.66,-217.099 917.534,-206.8 634,-174 630.942,-173.646 627.826,-173.235 624.684,-172.779"/>
<polygon fill="midnightblue" stroke="midnightblue" points="2070.28,-222.93 2080.31,-219.519 2070.34,-215.931 2070.28,-222.93"/>
</g>
<!-- Node12 -->
<g id="node12" class="node"><title>Node12</title>
<g id="a_node12"><a xlink:href="_app_impl_msw_screen_saver_8cpp.html" target="_top" xlink:title="src/cinder/app/AppImplMsw\lScreenSaver.cpp">
<polygon fill="white" stroke="black" points="642.589,-141 642.589,-173 781.411,-173 781.411,-141 642.589,-141"/>
<text text-anchor="start" x="650.589" y="-159" font-family="Helvetica,sans-Serif" font-size="10.00">src/cinder/app/AppImplMsw</text>
<text text-anchor="middle" x="712" y="-147" font-family="Helvetica,sans-Serif" font-size="10.00">ScreenSaver.cpp</text>
</a>
</g>
</g>
<!-- Node1&#45;&gt;Node12 -->
<g id="edge11" class="edge"><title>Node1&#45;&gt;Node12</title>
<path fill="none" stroke="midnightblue" d="M2070.04,-219.161C1828.81,-216.061 1041.43,-203.853 790,-174 787.255,-173.674 784.462,-173.301 781.646,-172.891"/>
<polygon fill="midnightblue" stroke="midnightblue" points="2070.05,-222.661 2080.09,-219.289 2070.14,-215.662 2070.05,-222.661"/>
</g>
<!-- Node13 -->
<g id="node13" class="node"><title>Node13</title>
<g id="a_node13"><a xlink:href="_app_impl_win_r_t_8cpp.html" target="_top" xlink:title="src/cinder/app/AppImplWin\lRT.cpp">
<polygon fill="white" stroke="black" points="799.254,-141 799.254,-173 934.746,-173 934.746,-141 799.254,-141"/>
<text text-anchor="start" x="807.254" y="-159" font-family="Helvetica,sans-Serif" font-size="10.00">src/cinder/app/AppImplWin</text>
<text text-anchor="middle" x="867" y="-147" font-family="Helvetica,sans-Serif" font-size="10.00">RT.cpp</text>
</a>
</g>
</g>
<!-- Node1&#45;&gt;Node13 -->
<g id="edge12" class="edge"><title>Node1&#45;&gt;Node13</title>
<path fill="none" stroke="midnightblue" d="M2069.94,-218.85C1847,-214.992 1163.12,-201.198 943,-174 940.324,-173.669 937.602,-173.293 934.857,-172.879"/>
<polygon fill="midnightblue" stroke="midnightblue" points="2070.15,-222.354 2080.21,-219.026 2070.27,-215.355 2070.15,-222.354"/>
</g>
<!-- Node14 -->
<g id="node14" class="node"><title>Node14</title>
<g id="a_node14"><a xlink:href="_app_impl_win_r_t_basic_8cpp.html" target="_top" xlink:title="src/cinder/app/AppImplWin\lRTBasic.cpp">
<polygon fill="white" stroke="black" points="952.254,-141 952.254,-173 1087.75,-173 1087.75,-141 952.254,-141"/>
<text text-anchor="start" x="960.254" y="-159" font-family="Helvetica,sans-Serif" font-size="10.00">src/cinder/app/AppImplWin</text>
<text text-anchor="middle" x="1020" y="-147" font-family="Helvetica,sans-Serif" font-size="10.00">RTBasic.cpp</text>
</a>
</g>
</g>
<!-- Node1&#45;&gt;Node14 -->
<g id="edge13" class="edge"><title>Node1&#45;&gt;Node14</title>
<path fill="none" stroke="midnightblue" d="M2070.39,-220.792C1901.49,-221.838 1461.08,-219.547 1097,-174 1094.02,-173.627 1090.98,-173.2 1087.92,-172.731"/>
<polygon fill="midnightblue" stroke="midnightblue" points="2070.42,-224.292 2080.4,-220.724 2070.38,-217.292 2070.42,-224.292"/>
</g>
<!-- Node15 -->
<g id="node15" class="node"><title>Node15</title>
<g id="a_node15"><a xlink:href="_context_audio_unit_8cpp.html" target="_top" xlink:title="src/cinder/audio/cocoa\l/ContextAudioUnit.cpp">
<polygon fill="white" stroke="black" points="1105.97,-141 1105.97,-173 1222.03,-173 1222.03,-141 1105.97,-141"/>
<text text-anchor="start" x="1113.97" y="-159" font-family="Helvetica,sans-Serif" font-size="10.00">src/cinder/audio/cocoa</text>
<text text-anchor="middle" x="1164" y="-147" font-family="Helvetica,sans-Serif" font-size="10.00">/ContextAudioUnit.cpp</text>
</a>
</g>
</g>
<!-- Node1&#45;&gt;Node15 -->
<g id="edge14" class="edge"><title>Node1&#45;&gt;Node15</title>
<path fill="none" stroke="midnightblue" d="M2070.23,-220.832C1916.6,-221.674 1541.35,-218.514 1231,-174 1228.16,-173.592 1225.26,-173.121 1222.34,-172.6"/>
<polygon fill="midnightblue" stroke="midnightblue" points="2070.49,-224.33 2080.47,-220.768 2070.45,-217.33 2070.49,-224.33"/>
</g>
<!-- Node16 -->
<g id="node16" class="node"><title>Node16</title>
<g id="a_node16"><a xlink:href="_source_8cpp.html" target="_top" xlink:title="src/cinder/audio/Source.cpp">
<polygon fill="white" stroke="black" points="1240.02,-147 1240.02,-167 1379.98,-167 1379.98,-147 1240.02,-147"/>
<text text-anchor="middle" x="1310" y="-153" font-family="Helvetica,sans-Serif" font-size="10.00">src/cinder/audio/Source.cpp</text>
</a>
</g>
</g>
<!-- Node1&#45;&gt;Node16 -->
<g id="edge15" class="edge"><title>Node1&#45;&gt;Node16</title>
<path fill="none" stroke="midnightblue" d="M2070.18,-218.938C1936.49,-216.21 1638,-206.67 1389,-174 1375.96,-172.289 1361.84,-169.677 1349.2,-167.057"/>
<polygon fill="midnightblue" stroke="midnightblue" points="2070.23,-222.44 2080.29,-219.138 2070.36,-215.441 2070.23,-222.44"/>
</g>
<!-- Node17 -->
<g id="node17" class="node"><title>Node17</title>
<g id="a_node17"><a xlink:href="_target_8cpp.html" target="_top" xlink:title="src/cinder/audio/Target.cpp">
<polygon fill="white" stroke="black" points="1397.97,-147 1397.97,-167 1534.03,-167 1534.03,-147 1397.97,-147"/>
<text text-anchor="middle" x="1466" y="-153" font-family="Helvetica,sans-Serif" font-size="10.00">src/cinder/audio/Target.cpp</text>
</a>
</g>
</g>
<!-- Node1&#45;&gt;Node17 -->
<g id="edge16" class="edge"><title>Node1&#45;&gt;Node17</title>
<path fill="none" stroke="midnightblue" d="M2070.28,-217.494C1958.05,-212.859 1732.45,-200.857 1543,-174 1530.43,-172.218 1516.83,-169.619 1504.61,-167.032"/>
<polygon fill="midnightblue" stroke="midnightblue" points="2070.32,-220.999 2080.46,-217.907 2070.61,-214.005 2070.32,-220.999"/>
</g>
<!-- Node18 -->
<g id="node18" class="node"><title>Node18</title>
<g id="a_node18"><a xlink:href="_data_target_8cpp.html" target="_top" xlink:title="src/cinder/DataTarget.cpp">
<polygon fill="white" stroke="black" points="1552.03,-147 1552.03,-167 1681.97,-167 1681.97,-147 1552.03,-147"/>
<text text-anchor="middle" x="1617" y="-153" font-family="Helvetica,sans-Serif" font-size="10.00">src/cinder/DataTarget.cpp</text>
</a>
</g>
</g>
<!-- Node1&#45;&gt;Node18 -->
<g id="edge17" class="edge"><title>Node1&#45;&gt;Node18</title>
<path fill="none" stroke="midnightblue" d="M2070.07,-215.197C1981.14,-208.614 1824.17,-195.137 1691,-174 1679.19,-172.125 1666.42,-169.561 1654.87,-167.035"/>
<polygon fill="midnightblue" stroke="midnightblue" points="2070.08,-218.707 2080.31,-215.947 2070.59,-211.726 2070.08,-218.707"/>
</g>
<!-- Node19 -->
<g id="node19" class="node"><title>Node19</title>
<g id="a_node19"><a xlink:href="_dx_texture_font_8cpp.html" target="_top" xlink:title="src/cinder/dx/DxTextureFont.cpp">
<polygon fill="white" stroke="black" points="1700.31,-147 1700.31,-167 1859.69,-167 1859.69,-147 1700.31,-147"/>
<text text-anchor="middle" x="1780" y="-153" font-family="Helvetica,sans-Serif" font-size="10.00">src/cinder/dx/DxTextureFont.cpp</text>
</a>
</g>
</g>
<!-- Node1&#45;&gt;Node19 -->
<g id="edge18" class="edge"><title>Node1&#45;&gt;Node19</title>
<path fill="none" stroke="midnightblue" d="M2076.55,-209.293C2021.41,-200.087 1939.95,-186.377 1869,-174 1856.32,-171.788 1842.63,-169.351 1829.88,-167.061"/>
<polygon fill="midnightblue" stroke="midnightblue" points="2076.09,-212.764 2086.53,-210.958 2077.24,-205.86 2076.09,-212.764"/>
</g>
<!-- Node20 -->
<g id="node20" class="node"><title>Node20</title>
<g id="a_node20"><a xlink:href="_exception_8cpp.html" target="_top" xlink:title="src/cinder/Exception.cpp">
<polygon fill="white" stroke="black" points="1877.53,-147 1877.53,-167 2002.47,-167 2002.47,-147 1877.53,-147"/>
<text text-anchor="middle" x="1940" y="-153" font-family="Helvetica,sans-Serif" font-size="10.00">src/cinder/Exception.cpp</text>
</a>
</g>
</g>
<!-- Node1&#45;&gt;Node20 -->
<g id="edge19" class="edge"><title>Node1&#45;&gt;Node20</title>
<path fill="none" stroke="midnightblue" d="M2101.86,-207.926C2062.98,-195.934 2004.26,-177.822 1969.26,-167.026"/>
<polygon fill="midnightblue" stroke="midnightblue" points="2101.19,-211.382 2111.77,-210.985 2103.25,-204.693 2101.19,-211.382"/>
</g>
<!-- Node21 -->
<g id="node21" class="node"><title>Node21</title>
<g id="a_node21"><a xlink:href="_font_8cpp.html" target="_top" xlink:title="src/cinder/Font.cpp">
<polygon fill="white" stroke="black" points="2020.48,-147 2020.48,-167 2121.52,-167 2121.52,-147 2020.48,-147"/>
<text text-anchor="middle" x="2071" y="-153" font-family="Helvetica,sans-Serif" font-size="10.00">src/cinder/Font.cpp</text>
</a>
</g>
</g>
<!-- Node1&#45;&gt;Node21 -->
<g id="edge20" class="edge"><title>Node1&#45;&gt;Node21</title>
<path fill="none" stroke="midnightblue" d="M2123.1,-204.142C2109.88,-192.435 2092.35,-176.908 2081.37,-167.186"/>
<polygon fill="midnightblue" stroke="midnightblue" points="2120.86,-206.841 2130.67,-210.852 2125.51,-201.601 2120.86,-206.841"/>
</g>
<!-- Node22 -->
<g id="node22" class="node"><title>Node22</title>
<g id="a_node22"><a xlink:href="_texture_font_8cpp.html" target="_top" xlink:title="src/cinder/gl/TextureFont.cpp">
<polygon fill="white" stroke="black" points="2139.81,-147 2139.81,-167 2284.19,-167 2284.19,-147 2139.81,-147"/>
<text text-anchor="middle" x="2212" y="-153" font-family="Helvetica,sans-Serif" font-size="10.00">src/cinder/gl/TextureFont.cpp</text>
</a>
</g>
</g>
<!-- Node1&#45;&gt;Node22 -->
<g id="edge21" class="edge"><title>Node1&#45;&gt;Node22</title>
<path fill="none" stroke="midnightblue" d="M2159.16,-204.142C2172.57,-192.435 2190.35,-176.908 2201.48,-167.186"/>
<polygon fill="midnightblue" stroke="midnightblue" points="2156.71,-201.638 2151.48,-210.852 2161.31,-206.91 2156.71,-201.638"/>
</g>
<!-- Node23 -->
<g id="node23" class="node"><title>Node23</title>
<g id="a_node23"><a xlink:href="_image_io_8cpp.html" target="_top" xlink:title="src/cinder/ImageIo.cpp">
<polygon fill="white" stroke="black" points="2302.42,-147 2302.42,-167 2419.58,-167 2419.58,-147 2302.42,-147"/>
<text text-anchor="middle" x="2361" y="-153" font-family="Helvetica,sans-Serif" font-size="10.00">src/cinder/ImageIo.cpp</text>
</a>
</g>
</g>
<!-- Node1&#45;&gt;Node23 -->
<g id="edge22" class="edge"><title>Node1&#45;&gt;Node23</title>
<path fill="none" stroke="midnightblue" d="M2182.76,-208.231C2225.3,-196.243 2290.34,-177.914 2328.97,-167.026"/>
<polygon fill="midnightblue" stroke="midnightblue" points="2181.67,-204.903 2172.99,-210.985 2183.56,-211.641 2181.67,-204.903"/>
</g>
<!-- Node24 -->
<g id="node24" class="node"><title>Node24</title>
<g id="a_node24"><a xlink:href="_image_source_file_wic_8cpp.html" target="_top" xlink:title="src/cinder/ImageSourceFile\lWic.cpp">
<polygon fill="white" stroke="black" points="2437.14,-141 2437.14,-173 2574.86,-173 2574.86,-141 2437.14,-141"/>
<text text-anchor="start" x="2445.14" y="-159" font-family="Helvetica,sans-Serif" font-size="10.00">src/cinder/ImageSourceFile</text>
<text text-anchor="middle" x="2506" y="-147" font-family="Helvetica,sans-Serif" font-size="10.00">Wic.cpp</text>
</a>
</g>
</g>
<!-- Node1&#45;&gt;Node24 -->
<g id="edge23" class="edge"><title>Node1&#45;&gt;Node24</title>
<path fill="none" stroke="midnightblue" d="M2211.79,-209.53C2269.96,-200.714 2354.48,-187.426 2428,-174 2430.99,-173.454 2434.05,-172.883 2437.13,-172.296"/>
<polygon fill="midnightblue" stroke="midnightblue" points="2210.97,-206.114 2201.6,-211.068 2212.01,-213.035 2210.97,-206.114"/>
</g>
<!-- Node25 -->
<g id="node25" class="node"><title>Node25</title>
<g id="a_node25"><a xlink:href="_image_target_file_wic_8cpp.html" target="_top" xlink:title="src/cinder/ImageTargetFile\lWic.cpp">
<polygon fill="white" stroke="black" points="2593.09,-141 2593.09,-173 2726.91,-173 2726.91,-141 2593.09,-141"/>
<text text-anchor="start" x="2601.09" y="-159" font-family="Helvetica,sans-Serif" font-size="10.00">src/cinder/ImageTargetFile</text>
<text text-anchor="middle" x="2660" y="-147" font-family="Helvetica,sans-Serif" font-size="10.00">Wic.cpp</text>
</a>
</g>
</g>
<!-- Node1&#45;&gt;Node25 -->
<g id="edge24" class="edge"><title>Node1&#45;&gt;Node25</title>
<path fill="none" stroke="midnightblue" d="M2211.74,-214.857C2299.26,-207.985 2452.65,-194.272 2583,-174 2586.24,-173.496 2589.55,-172.947 2592.88,-172.364"/>
<polygon fill="midnightblue" stroke="midnightblue" points="2211.36,-211.376 2201.66,-215.641 2211.9,-218.355 2211.36,-211.376"/>
</g>
<!-- Node3 -->
<g id="node3" class="node"><title>Node3</title>
<g id="a_node3"><a xlink:href="_json_8cpp.html" target="_top" xlink:title="src/cinder/Json.cpp">
<polygon fill="white" stroke="black" points="3092.93,-77 3092.93,-97 3195.07,-97 3195.07,-77 3092.93,-77"/>
<text text-anchor="middle" x="3144" y="-83" font-family="Helvetica,sans-Serif" font-size="10.00">src/cinder/Json.cpp</text>
</a>
</g>
</g>
<!-- Node1&#45;&gt;Node3 -->
<g id="edge25" class="edge"><title>Node1&#45;&gt;Node3</title>
<path fill="none" stroke="midnightblue" d="M2211.82,-220.236C2480.51,-220.789 3424.07,-219.477 3468,-174 3478.5,-163.131 3477.8,-151.501 3468,-140 3433.59,-99.6226 3277.75,-90.4732 3195.39,-88.4849"/>
<polygon fill="midnightblue" stroke="midnightblue" points="2211.8,-216.736 2201.79,-220.214 2211.78,-223.736 2211.8,-216.736"/>
</g>
<!-- Node26 -->
<g id="node26" class="node"><title>Node26</title>
<g id="a_node26"><a xlink:href="_params_8cpp.html" target="_top" xlink:title="src/cinder/params/Params.cpp">
<polygon fill="white" stroke="black" points="2873.2,-147 2873.2,-167 3024.8,-167 3024.8,-147 2873.2,-147"/>
<text text-anchor="middle" x="2949" y="-153" font-family="Helvetica,sans-Serif" font-size="10.00">src/cinder/params/Params.cpp</text>
</a>
</g>
</g>
<!-- Node1&#45;&gt;Node26 -->
<g id="edge26" class="edge"><title>Node1&#45;&gt;Node26</title>
<path fill="none" stroke="midnightblue" d="M2211.8,-218.314C2341.43,-214.6 2625.45,-203.556 2863,-174 2877.02,-172.256 2892.2,-169.668 2905.85,-167.079"/>
<polygon fill="midnightblue" stroke="midnightblue" points="2211.51,-214.821 2201.61,-218.6 2211.7,-221.818 2211.51,-214.821"/>
</g>
<!-- Node27 -->
<g id="node27" class="node"><title>Node27</title>
<g id="a_node27"><a xlink:href="_movie_writer_8cpp.html" target="_top" xlink:title="src/cinder/qtime/MovieWriter.cpp">
<polygon fill="white" stroke="black" points="3042.57,-147 3042.57,-167 3203.43,-167 3203.43,-147 3042.57,-147"/>
<text text-anchor="middle" x="3123" y="-153" font-family="Helvetica,sans-Serif" font-size="10.00">src/cinder/qtime/MovieWriter.cpp</text>
</a>
</g>
</g>
<!-- Node1&#45;&gt;Node27 -->
<g id="edge27" class="edge"><title>Node1&#45;&gt;Node27</title>
<path fill="none" stroke="midnightblue" d="M2211.87,-219.335C2363.16,-217.26 2728.78,-208.75 3033,-174 3047.82,-172.307 3063.89,-169.7 3078.3,-167.079"/>
<polygon fill="midnightblue" stroke="midnightblue" points="2211.73,-215.837 2201.78,-219.468 2211.83,-222.836 2211.73,-215.837"/>
</g>
<!-- Node28 -->
<g id="node28" class="node"><title>Node28</title>
<g id="a_node28"><a xlink:href="_serial_8cpp.html" target="_top" xlink:title="src/cinder/Serial.cpp">
<polygon fill="white" stroke="black" points="3221.7,-147 3221.7,-167 3328.3,-167 3328.3,-147 3221.7,-147"/>
<text text-anchor="middle" x="3275" y="-153" font-family="Helvetica,sans-Serif" font-size="10.00">src/cinder/Serial.cpp</text>
</a>
</g>
</g>
<!-- Node1&#45;&gt;Node28 -->
<g id="edge28" class="edge"><title>Node1&#45;&gt;Node28</title>
<path fill="none" stroke="midnightblue" d="M2211.9,-218.858C2418.58,-215.227 3018.13,-202.471 3212,-174 3222.83,-172.41 3234.5,-169.727 3244.81,-167.009"/>
<polygon fill="midnightblue" stroke="midnightblue" points="2211.71,-215.361 2201.77,-219.034 2211.83,-222.36 2211.71,-215.361"/>
</g>
<!-- Node29 -->
<g id="node29" class="node"><title>Node29</title>
<g id="a_node29"><a xlink:href="_stream_8cpp.html" target="_top" xlink:title="src/cinder/Stream.cpp">
<polygon fill="white" stroke="black" points="3346.37,-147 3346.37,-167 3459.63,-167 3459.63,-147 3346.37,-147"/>
<text text-anchor="middle" x="3403" y="-153" font-family="Helvetica,sans-Serif" font-size="10.00">src/cinder/Stream.cpp</text>
</a>
</g>
</g>
<!-- Node1&#45;&gt;Node29 -->
<g id="edge29" class="edge"><title>Node1&#45;&gt;Node29</title>
<path fill="none" stroke="midnightblue" d="M2211.97,-219.127C2434.65,-216.094 3117.69,-204.49 3337,-174 3348.33,-172.425 3360.55,-169.747 3371.36,-167.027"/>
<polygon fill="midnightblue" stroke="midnightblue" points="2211.67,-215.63 2201.72,-219.265 2211.77,-222.63 2211.67,-215.63"/>
</g>
<!-- Node7 -->
<g id="node7" class="node"><title>Node7</title>
<g id="a_node7"><a xlink:href="_svg_8cpp.html" target="_top" xlink:title="src/cinder/svg/Svg.cpp">
<polygon fill="white" stroke="black" points="2053.7,-7 2053.7,-27 2170.3,-27 2170.3,-7 2053.7,-7"/>
<text text-anchor="middle" x="2112" y="-13" font-family="Helvetica,sans-Serif" font-size="10.00">src/cinder/svg/Svg.cpp</text>
</a>
</g>
</g>
<!-- Node1&#45;&gt;Node7 -->
<g id="edge30" class="edge"><title>Node1&#45;&gt;Node7</title>
<path fill="none" stroke="midnightblue" d="M2211.89,-219.618C2551.8,-217.622 3999.61,-207.183 4032,-174 4291.05,91.4296 3574.08,-94.4469 3204,-70 2809.37,-43.9316 2333.68,-25.8487 2170.34,-20.0228"/>
<polygon fill="midnightblue" stroke="midnightblue" points="2211.67,-216.119 2201.69,-219.677 2211.71,-223.119 2211.67,-216.119"/>
</g>
<!-- Node30 -->
<g id="node30" class="node"><title>Node30</title>
<g id="a_node30"><a xlink:href="_text_8cpp.html" target="_top" xlink:title="src/cinder/Text.cpp">
<polygon fill="white" stroke="black" points="3516.32,-147 3516.32,-167 3615.68,-167 3615.68,-147 3516.32,-147"/>
<text text-anchor="middle" x="3566" y="-153" font-family="Helvetica,sans-Serif" font-size="10.00">src/cinder/Text.cpp</text>
</a>
</g>
</g>
<!-- Node1&#45;&gt;Node30 -->
<g id="edge31" class="edge"><title>Node1&#45;&gt;Node30</title>
<path fill="none" stroke="midnightblue" d="M2211.7,-219.581C2453.9,-217.835 3249.12,-209.477 3502,-174 3513,-172.457 3524.85,-169.786 3535.33,-167.063"/>
<polygon fill="midnightblue" stroke="midnightblue" points="2211.59,-216.081 2201.61,-219.652 2211.64,-223.081 2211.59,-216.081"/>
</g>
<!-- Node31 -->
<g id="node31" class="node"><title>Node31</title>
<g id="a_node31"><a xlink:href="_url_8cpp.html" target="_top" xlink:title="src/cinder/Url.cpp">
<polygon fill="white" stroke="black" points="3634.1,-147 3634.1,-167 3727.9,-167 3727.9,-147 3634.1,-147"/>
<text text-anchor="middle" x="3681" y="-153" font-family="Helvetica,sans-Serif" font-size="10.00">src/cinder/Url.cpp</text>
</a>
</g>
</g>
<!-- Node1&#45;&gt;Node31 -->
<g id="edge32" class="edge"><title>Node1&#45;&gt;Node31</title>
<path fill="none" stroke="midnightblue" d="M2211.93,-220.076C2468.36,-219.997 3346.82,-216.553 3624,-174 3633.96,-172.472 3644.64,-169.769 3654.04,-167.014"/>
<polygon fill="midnightblue" stroke="midnightblue" points="2211.62,-216.576 2201.63,-220.078 2211.63,-223.576 2211.62,-216.576"/>
</g>
<!-- Node32 -->
<g id="node32" class="node"><title>Node32</title>
<g id="a_node32"><a xlink:href="_url_impl_win_inet_8cpp.html" target="_top" xlink:title="src/cinder/UrlImplWinInet.cpp">
<polygon fill="white" stroke="black" points="3745.7,-147 3745.7,-167 3892.3,-167 3892.3,-147 3745.7,-147"/>
<text text-anchor="middle" x="3819" y="-153" font-family="Helvetica,sans-Serif" font-size="10.00">src/cinder/UrlImplWinInet.cpp</text>
</a>
</g>
</g>
<!-- Node1&#45;&gt;Node32 -->
<g id="edge33" class="edge"><title>Node1&#45;&gt;Node32</title>
<path fill="none" stroke="midnightblue" d="M2211.76,-219.48C2480,-217.275 3434.23,-207.217 3736,-174 3750.15,-172.443 3765.49,-169.768 3779.09,-167.047"/>
<polygon fill="midnightblue" stroke="midnightblue" points="2211.73,-215.981 2201.76,-219.562 2211.78,-222.98 2211.73,-215.981"/>
</g>
<!-- Node33 -->
<g id="node33" class="node"><title>Node33</title>
<g id="a_node33"><a xlink:href="_utilities_8cpp.html" target="_top" xlink:title="src/cinder/Utilities.cpp">
<polygon fill="white" stroke="black" points="3910.37,-147 3910.37,-167 4023.63,-167 4023.63,-147 3910.37,-147"/>
<text text-anchor="middle" x="3967" y="-153" font-family="Helvetica,sans-Serif" font-size="10.00">src/cinder/Utilities.cpp</text>
</a>
</g>
</g>
<!-- Node1&#45;&gt;Node33 -->
<g id="edge34" class="edge"><title>Node1&#45;&gt;Node33</title>
<path fill="none" stroke="midnightblue" d="M2211.85,-220.148C2497.62,-220.436 3566.16,-218.452 3901,-174 3912.45,-172.479 3924.81,-169.778 3935.7,-167.023"/>
<polygon fill="midnightblue" stroke="midnightblue" points="2211.62,-216.648 2201.62,-220.136 2211.61,-223.648 2211.62,-216.648"/>
</g>
<!-- Node8 -->
<g id="node8" class="node"><title>Node8</title>
<g id="a_node8"><a xlink:href="_xml_8cpp.html" target="_top" xlink:title="src/cinder/Xml.cpp">
<polygon fill="white" stroke="black" points="113.877,-77 113.877,-97 212.123,-97 212.123,-77 113.877,-77"/>
<text text-anchor="middle" x="163" y="-83" font-family="Helvetica,sans-Serif" font-size="10.00">src/cinder/Xml.cpp</text>
</a>
</g>
</g>
<!-- Node1&#45;&gt;Node8 -->
<g id="edge35" class="edge"><title>Node1&#45;&gt;Node8</title>
<path fill="none" stroke="midnightblue" d="M2070.09,-219.679C1720.88,-217.933 199.361,-208.362 165,-174 144.513,-153.513 153.928,-114.688 159.69,-97.0846"/>
<polygon fill="midnightblue" stroke="midnightblue" points="2070.3,-223.18 2080.32,-219.729 2070.33,-216.18 2070.3,-223.18"/>
</g>
<!-- Node2&#45;&gt;Node3 -->
<g id="edge2" class="edge"><title>Node2&#45;&gt;Node3</title>
<path fill="none" stroke="midnightblue" d="M2844.53,-144.496C2851.04,-142.921 2857.68,-141.375 2864,-140 2943.47,-122.703 3036.42,-106.165 3092.72,-96.5514"/>
<polygon fill="midnightblue" stroke="midnightblue" points="2843.33,-141.187 2834.45,-146.975 2845,-147.984 2843.33,-141.187"/>
</g>
<!-- Node5 -->
<g id="node5" class="node"><title>Node5</title>
<g id="a_node5"><a xlink:href="_svg_8h.html" target="_top" xlink:title="include/cinder/svg\l/Svg.h">
<polygon fill="white" stroke="black" points="-0.0219727,-71 -0.0219727,-103 96.022,-103 96.022,-71 -0.0219727,-71"/>
<text text-anchor="start" x="7.97803" y="-89" font-family="Helvetica,sans-Serif" font-size="10.00">include/cinder/svg</text>
<text text-anchor="middle" x="48" y="-77" font-family="Helvetica,sans-Serif" font-size="10.00">/Svg.h</text>
</a>
</g>
</g>
<!-- Node4&#45;&gt;Node5 -->
<g id="edge4" class="edge"><title>Node4&#45;&gt;Node5</title>
<path fill="none" stroke="midnightblue" d="M60.2145,-136.858C57.5576,-126.231 54.298,-113.192 51.8145,-103.258"/>
<polygon fill="midnightblue" stroke="midnightblue" points="56.8864,-137.977 62.7073,-146.829 63.6774,-136.279 56.8864,-137.977"/>
</g>
<!-- Node4&#45;&gt;Node8 -->
<g id="edge7" class="edge"><title>Node4&#45;&gt;Node8</title>
<path fill="none" stroke="midnightblue" d="M86.4564,-141.112C105.855,-127.652 133.782,-108.273 149.993,-97.0255"/>
<polygon fill="midnightblue" stroke="midnightblue" points="84.4373,-138.253 78.2167,-146.829 88.4279,-144.004 84.4373,-138.253"/>
</g>
<!-- Node6 -->
<g id="node6" class="node"><title>Node6</title>
<g id="a_node6"><a xlink:href="_svg_gl_8h.html" target="_top" xlink:title="include/cinder/svg\l/SvgGl.h">
<polygon fill="white" stroke="black" points="-0.0219727,-1 -0.0219727,-33 96.022,-33 96.022,-1 -0.0219727,-1"/>
<text text-anchor="start" x="7.97803" y="-19" font-family="Helvetica,sans-Serif" font-size="10.00">include/cinder/svg</text>
<text text-anchor="middle" x="48" y="-7" font-family="Helvetica,sans-Serif" font-size="10.00">/SvgGl.h</text>
</a>
</g>
</g>
<!-- Node5&#45;&gt;Node6 -->
<g id="edge5" class="edge"><title>Node5&#45;&gt;Node6</title>
<path fill="none" stroke="midnightblue" d="M48,-60.6174C48,-51.3378 48,-41.1413 48,-33.0492"/>
<polygon fill="midnightblue" stroke="midnightblue" points="44.5001,-60.9086 48,-70.9086 51.5001,-60.9086 44.5001,-60.9086"/>
</g>
<!-- Node5&#45;&gt;Node7 -->
<g id="edge6" class="edge"><title>Node5&#45;&gt;Node7</title>
<path fill="none" stroke="midnightblue" d="M106.5,-70.1446C345.121,-39.7681 1748.58,-22.1641 2053.55,-18.6514"/>
<polygon fill="midnightblue" stroke="midnightblue" points="105.756,-66.7142 96.3318,-71.5543 106.718,-73.6479 105.756,-66.7142"/>
</g>
</g>
</svg>
