<?xml version="1.0" encoding="UTF-8" standalone="no"?>
<!DOCTYPE svg PUBLIC "-//W3C//DTD SVG 1.1//EN"
 "http://www.w3.org/Graphics/SVG/1.1/DTD/svg11.dtd">
<!-- Generated by graphviz version 2.30.1 (20140712.1814)
 -->
<!-- Title: include/cinder/gl/Vbo.h Pages: 1 -->
<svg width="233pt" height="88pt"
 viewBox="0.00 0.00 233.00 88.00" xmlns="http://www.w3.org/2000/svg" xmlns:xlink="http://www.w3.org/1999/xlink">
<g id="graph0" class="graph" transform="scale(1 1) rotate(0) translate(4 84)">
<title>include/cinder/gl/Vbo.h</title>
<polygon fill="white" stroke="white" points="-4,5 -4,-84 230,-84 230,5 -4,5"/>
<!-- Node1 -->
<g id="node1" class="node"><title>Node1</title>
<polygon fill="#bfbfbf" stroke="black" points="51.4116,-59 51.4116,-79 168.588,-79 168.588,-59 51.4116,-59"/>
<text text-anchor="middle" x="110" y="-65" font-family="Helvetica,sans-Serif" font-size="10.00">include/cinder/gl/Vbo.h</text>
</g>
<!-- Node2 -->
<g id="node2" class="node"><title>Node2</title>
<g id="a_node2"><a xlink:href="gl_8cpp.html" target="_top" xlink:title="src/cinder/gl/gl.cpp">
<polygon fill="white" stroke="black" points="-0.68457,-1 -0.68457,-21 98.6846,-21 98.6846,-1 -0.68457,-1"/>
<text text-anchor="middle" x="49" y="-7" font-family="Helvetica,sans-Serif" font-size="10.00">src/cinder/gl/gl.cpp</text>
</a>
</g>
</g>
<!-- Node1&#45;&gt;Node2 -->
<g id="edge1" class="edge"><title>Node1&#45;&gt;Node2</title>
<path fill="none" stroke="midnightblue" d="M92.249,-51.704C81.3829,-41.7286 67.884,-29.3361 58.8855,-21.0752"/>
<polygon fill="midnightblue" stroke="midnightblue" points="90.1936,-54.5683 99.9271,-58.7527 94.9275,-49.4117 90.1936,-54.5683"/>
</g>
<!-- Node3 -->
<g id="node3" class="node"><title>Node3</title>
<g id="a_node3"><a xlink:href="_vbo_8cpp.html" target="_top" xlink:title="src/cinder/gl/Vbo.cpp">
<polygon fill="white" stroke="black" points="116.311,-1 116.311,-21 225.689,-21 225.689,-1 116.311,-1"/>
<text text-anchor="middle" x="171" y="-7" font-family="Helvetica,sans-Serif" font-size="10.00">src/cinder/gl/Vbo.cpp</text>
</a>
</g>
</g>
<!-- Node1&#45;&gt;Node3 -->
<g id="edge2" class="edge"><title>Node1&#45;&gt;Node3</title>
<path fill="none" stroke="midnightblue" d="M127.751,-51.704C138.617,-41.7286 152.116,-29.3361 161.115,-21.0752"/>
<polygon fill="midnightblue" stroke="midnightblue" points="125.073,-49.4117 120.073,-58.7527 129.806,-54.5683 125.073,-49.4117"/>
</g>
</g>
</svg>
