<?xml version="1.0" encoding="UTF-8" standalone="no"?>
<!DOCTYPE svg PUBLIC "-//W3C//DTD SVG 1.1//EN"
 "http://www.w3.org/Graphics/SVG/1.1/DTD/svg11.dtd">
<!-- Generated by graphviz version 2.30.1 (20140712.1814)
 -->
<!-- Title: include/cinder/audio/WaveformType.h Pages: 1 -->
<svg width="310pt" height="240pt"
 viewBox="0.00 0.00 310.00 240.00" xmlns="http://www.w3.org/2000/svg" xmlns:xlink="http://www.w3.org/1999/xlink">
<g id="graph0" class="graph" transform="scale(1 1) rotate(0) translate(4 236)">
<title>include/cinder/audio/WaveformType.h</title>
<polygon fill="white" stroke="white" points="-4,5 -4,-236 307,-236 307,5 -4,5"/>
<!-- Node1 -->
<g id="node1" class="node"><title>Node1</title>
<polygon fill="#bfbfbf" stroke="black" points="96.5249,-199 96.5249,-231 201.475,-231 201.475,-199 96.5249,-199"/>
<text text-anchor="start" x="104.525" y="-217" font-family="Helvetica,sans-Serif" font-size="10.00">include/cinder/audio</text>
<text text-anchor="middle" x="149" y="-205" font-family="Helvetica,sans-Serif" font-size="10.00">/WaveformType.h</text>
</g>
<!-- Node2 -->
<g id="node2" class="node"><title>Node2</title>
<g id="a_node2"><a xlink:href="_wave_table_8h.html" target="_top" xlink:title="include/cinder/audio\l/WaveTable.h">
<polygon fill="white" stroke="black" points="96.5249,-129 96.5249,-161 201.475,-161 201.475,-129 96.5249,-129"/>
<text text-anchor="start" x="104.525" y="-147" font-family="Helvetica,sans-Serif" font-size="10.00">include/cinder/audio</text>
<text text-anchor="middle" x="149" y="-135" font-family="Helvetica,sans-Serif" font-size="10.00">/WaveTable.h</text>
</a>
</g>
</g>
<!-- Node1&#45;&gt;Node2 -->
<g id="edge1" class="edge"><title>Node1&#45;&gt;Node2</title>
<path fill="none" stroke="midnightblue" d="M149,-188.617C149,-179.338 149,-169.141 149,-161.049"/>
<polygon fill="midnightblue" stroke="midnightblue" points="145.5,-188.909 149,-198.909 152.5,-188.909 145.5,-188.909"/>
</g>
<!-- Node3 -->
<g id="node3" class="node"><title>Node3</title>
<g id="a_node3"><a xlink:href="_gen_node_8h.html" target="_top" xlink:title="include/cinder/audio\l/GenNode.h">
<polygon fill="white" stroke="black" points="22.5249,-59 22.5249,-91 127.475,-91 127.475,-59 22.5249,-59"/>
<text text-anchor="start" x="30.5249" y="-77" font-family="Helvetica,sans-Serif" font-size="10.00">include/cinder/audio</text>
<text text-anchor="middle" x="75" y="-65" font-family="Helvetica,sans-Serif" font-size="10.00">/GenNode.h</text>
</a>
</g>
</g>
<!-- Node2&#45;&gt;Node3 -->
<g id="edge2" class="edge"><title>Node2&#45;&gt;Node3</title>
<path fill="none" stroke="midnightblue" d="M124.952,-121.901C113.966,-111.806 101.236,-100.109 91.3771,-91.0492"/>
<polygon fill="midnightblue" stroke="midnightblue" points="122.846,-124.719 132.577,-128.909 127.582,-119.565 122.846,-124.719"/>
</g>
<!-- Node5 -->
<g id="node5" class="node"><title>Node5</title>
<g id="a_node5"><a xlink:href="_wave_table_8cpp.html" target="_top" xlink:title="src/cinder/audio/WaveTable.cpp">
<polygon fill="white" stroke="black" points="145.314,-65 145.314,-85 302.686,-85 302.686,-65 145.314,-65"/>
<text text-anchor="middle" x="224" y="-71" font-family="Helvetica,sans-Serif" font-size="10.00">src/cinder/audio/WaveTable.cpp</text>
</a>
</g>
</g>
<!-- Node2&#45;&gt;Node5 -->
<g id="edge4" class="edge"><title>Node2&#45;&gt;Node5</title>
<path fill="none" stroke="midnightblue" d="M173.4,-121.877C187.22,-109.347 203.754,-94.3562 214.07,-85.0035"/>
<polygon fill="midnightblue" stroke="midnightblue" points="170.702,-119.599 165.645,-128.909 175.404,-124.785 170.702,-119.599"/>
</g>
<!-- Node4 -->
<g id="node4" class="node"><title>Node4</title>
<g id="a_node4"><a xlink:href="_gen_node_8cpp.html" target="_top" xlink:title="src/cinder/audio/GenNode.cpp">
<polygon fill="white" stroke="black" points="-0.539062,-1 -0.539062,-21 150.539,-21 150.539,-1 -0.539062,-1"/>
<text text-anchor="middle" x="75" y="-7" font-family="Helvetica,sans-Serif" font-size="10.00">src/cinder/audio/GenNode.cpp</text>
</a>
</g>
</g>
<!-- Node3&#45;&gt;Node4 -->
<g id="edge3" class="edge"><title>Node3&#45;&gt;Node4</title>
<path fill="none" stroke="midnightblue" d="M75,-48.922C75,-39.1719 75,-28.6099 75,-21.2904"/>
<polygon fill="midnightblue" stroke="midnightblue" points="71.5001,-48.9915 75,-58.9915 78.5001,-48.9916 71.5001,-48.9915"/>
</g>
</g>
</svg>
