<?xml version="1.0" encoding="UTF-8" standalone="no"?>
<!DOCTYPE svg PUBLIC "-//W3C//DTD SVG 1.1//EN"
 "http://www.w3.org/Graphics/SVG/1.1/DTD/svg11.dtd">
<!-- Generated by graphviz version 2.30.1 (20140712.1814)
 -->
<!-- Title: include/cinder/audio/WaveTable.h Pages: 1 -->
<svg width="479pt" height="216pt"
 viewBox="0.00 0.00 479.00 216.00" xmlns="http://www.w3.org/2000/svg" xmlns:xlink="http://www.w3.org/1999/xlink">
<g id="graph0" class="graph" transform="scale(1 1) rotate(0) translate(4 212)">
<title>include/cinder/audio/WaveTable.h</title>
<polygon fill="white" stroke="white" points="-4,5 -4,-212 476,-212 476,5 -4,5"/>
<!-- Node1 -->
<g id="node1" class="node"><title>Node1</title>
<polygon fill="#bfbfbf" stroke="black" points="164.525,-175 164.525,-207 269.475,-207 269.475,-175 164.525,-175"/>
<text text-anchor="start" x="172.525" y="-193" font-family="Helvetica,sans-Serif" font-size="10.00">include/cinder/audio</text>
<text text-anchor="middle" x="217" y="-181" font-family="Helvetica,sans-Serif" font-size="10.00">/WaveTable.h</text>
</g>
<!-- Node2 -->
<g id="node2" class="node"><title>Node2</title>
<g id="a_node2"><a xlink:href="_waveform_type_8h.html" target="_top" xlink:title="cinder/audio/WaveformType.h">
<polygon fill="white" stroke="black" points="-0.240234,-117 -0.240234,-137 148.24,-137 148.24,-117 -0.240234,-117"/>
<text text-anchor="middle" x="74" y="-123" font-family="Helvetica,sans-Serif" font-size="10.00">cinder/audio/WaveformType.h</text>
</a>
</g>
</g>
<!-- Node1&#45;&gt;Node2 -->
<g id="edge1" class="edge"><title>Node1&#45;&gt;Node2</title>
<path fill="none" stroke="midnightblue" d="M182.384,-174.992C158.516,-164.643 127.097,-151.021 104.236,-141.109"/>
<polygon fill="midnightblue" stroke="midnightblue" points="105.576,-137.876 95.0089,-137.109 102.791,-144.298 105.576,-137.876"/>
</g>
<!-- Node3 -->
<g id="node3" class="node"><title>Node3</title>
<g id="a_node3"><a xlink:href="audio_2_buffer_8h.html" target="_top" xlink:title="cinder/audio/Buffer.h">
<polygon fill="white" stroke="black" points="204.221,-117 204.221,-137 311.779,-137 311.779,-117 204.221,-117"/>
<text text-anchor="middle" x="258" y="-123" font-family="Helvetica,sans-Serif" font-size="10.00">cinder/audio/Buffer.h</text>
</a>
</g>
</g>
<!-- Node1&#45;&gt;Node3 -->
<g id="edge2" class="edge"><title>Node1&#45;&gt;Node3</title>
<path fill="none" stroke="midnightblue" d="M226.925,-174.992C232.755,-166.175 240.156,-154.983 246.273,-145.733"/>
<polygon fill="midnightblue" stroke="midnightblue" points="249.26,-147.562 251.856,-137.29 243.421,-143.701 249.26,-147.562"/>
</g>
<!-- Node7 -->
<g id="node7" class="node"><title>Node7</title>
<polygon fill="white" stroke="#bfbfbf" points="90.3843,-59 90.3843,-79 133.616,-79 133.616,-59 90.3843,-59"/>
<text text-anchor="middle" x="112" y="-65" font-family="Helvetica,sans-Serif" font-size="10.00">vector</text>
</g>
<!-- Node1&#45;&gt;Node7 -->
<g id="edge10" class="edge"><title>Node1&#45;&gt;Node7</title>
<path fill="none" stroke="midnightblue" d="M205.443,-174.921C193.641,-159.724 174.605,-135.758 157,-116 148.009,-105.91 137.467,-95.0844 128.848,-86.4715"/>
<polygon fill="midnightblue" stroke="midnightblue" points="131.141,-83.8165 121.572,-79.2682 126.216,-88.791 131.141,-83.8165"/>
</g>
<!-- Node11 -->
<g id="node11" class="node"><title>Node11</title>
<polygon fill="white" stroke="#bfbfbf" points="330.158,-117 330.158,-137 367.842,-137 367.842,-117 330.158,-117"/>
<text text-anchor="middle" x="349" y="-123" font-family="Helvetica,sans-Serif" font-size="10.00">tuple</text>
</g>
<!-- Node1&#45;&gt;Node11 -->
<g id="edge11" class="edge"><title>Node1&#45;&gt;Node11</title>
<path fill="none" stroke="midnightblue" d="M248.954,-174.992C270.921,-164.674 299.818,-151.101 320.905,-141.196"/>
<polygon fill="midnightblue" stroke="midnightblue" points="322.428,-144.348 329.991,-136.928 319.452,-138.012 322.428,-144.348"/>
</g>
<!-- Node4 -->
<g id="node4" class="node"><title>Node4</title>
<g id="a_node4"><a xlink:href="_cinder_assert_8h.html" target="_top" xlink:title="cinder/CinderAssert.h">
<polygon fill="white" stroke="black" points="151.924,-59 151.924,-79 264.076,-79 264.076,-59 151.924,-59"/>
<text text-anchor="middle" x="208" y="-65" font-family="Helvetica,sans-Serif" font-size="10.00">cinder/CinderAssert.h</text>
</a>
</g>
</g>
<!-- Node3&#45;&gt;Node4 -->
<g id="edge3" class="edge"><title>Node3&#45;&gt;Node4</title>
<path fill="none" stroke="midnightblue" d="M249.744,-116.753C242.463,-108.598 231.675,-96.5158 222.89,-86.6769"/>
<polygon fill="midnightblue" stroke="midnightblue" points="225.374,-84.2035 216.103,-79.0752 220.152,-88.8657 225.374,-84.2035"/>
</g>
<!-- Node3&#45;&gt;Node7 -->
<g id="edge6" class="edge"><title>Node3&#45;&gt;Node7</title>
<path fill="none" stroke="midnightblue" d="M234.218,-116.878C209.462,-107.383 170.571,-92.4655 143.326,-82.0153"/>
<polygon fill="midnightblue" stroke="midnightblue" points="144.453,-78.6991 133.863,-78.3857 141.946,-85.2348 144.453,-78.6991"/>
</g>
<!-- Node8 -->
<g id="node8" class="node"><title>Node8</title>
<polygon fill="white" stroke="#bfbfbf" points="281.943,-59 281.943,-79 334.057,-79 334.057,-59 281.943,-59"/>
<text text-anchor="middle" x="308" y="-65" font-family="Helvetica,sans-Serif" font-size="10.00">memory</text>
</g>
<!-- Node3&#45;&gt;Node8 -->
<g id="edge7" class="edge"><title>Node3&#45;&gt;Node8</title>
<path fill="none" stroke="midnightblue" d="M266.256,-116.753C273.537,-108.598 284.325,-96.5158 293.11,-86.6769"/>
<polygon fill="midnightblue" stroke="midnightblue" points="295.848,-88.8657 299.897,-79.0752 290.626,-84.2035 295.848,-88.8657"/>
</g>
<!-- Node9 -->
<g id="node9" class="node"><title>Node9</title>
<polygon fill="white" stroke="#bfbfbf" points="351.828,-59 351.828,-79 396.172,-79 396.172,-59 351.828,-59"/>
<text text-anchor="middle" x="374" y="-65" font-family="Helvetica,sans-Serif" font-size="10.00">cstdlib</text>
</g>
<!-- Node3&#45;&gt;Node9 -->
<g id="edge8" class="edge"><title>Node3&#45;&gt;Node9</title>
<path fill="none" stroke="midnightblue" d="M276.896,-116.878C295.602,-107.847 324.466,-93.9132 345.868,-83.5812"/>
<polygon fill="midnightblue" stroke="midnightblue" points="347.629,-86.6176 355.113,-79.1181 344.585,-80.3137 347.629,-86.6176"/>
</g>
<!-- Node10 -->
<g id="node10" class="node"><title>Node10</title>
<polygon fill="white" stroke="#bfbfbf" points="414.436,-59 414.436,-79 471.564,-79 471.564,-59 414.436,-59"/>
<text text-anchor="middle" x="443" y="-65" font-family="Helvetica,sans-Serif" font-size="10.00">algorithm</text>
</g>
<!-- Node3&#45;&gt;Node10 -->
<g id="edge9" class="edge"><title>Node3&#45;&gt;Node10</title>
<path fill="none" stroke="midnightblue" d="M288.135,-116.878C319.912,-107.259 370.07,-92.0762 404.647,-81.6095"/>
<polygon fill="midnightblue" stroke="midnightblue" points="405.842,-84.9048 414.399,-78.6577 403.814,-78.205 405.842,-84.9048"/>
</g>
<!-- Node5 -->
<g id="node5" class="node"><title>Node5</title>
<g id="a_node5"><a xlink:href="_current_function_8h.html" target="_top" xlink:title="cinder/CurrentFunction.h">
<polygon fill="white" stroke="black" points="92.9731,-1 92.9731,-21 219.027,-21 219.027,-1 92.9731,-1"/>
<text text-anchor="middle" x="156" y="-7" font-family="Helvetica,sans-Serif" font-size="10.00">cinder/CurrentFunction.h</text>
</a>
</g>
</g>
<!-- Node4&#45;&gt;Node5 -->
<g id="edge4" class="edge"><title>Node4&#45;&gt;Node5</title>
<path fill="none" stroke="midnightblue" d="M199.413,-58.7527C191.841,-50.598 180.622,-38.5158 171.486,-28.6769"/>
<polygon fill="midnightblue" stroke="midnightblue" points="173.796,-26.0216 164.427,-21.0752 168.667,-30.7847 173.796,-26.0216"/>
</g>
<!-- Node6 -->
<g id="node6" class="node"><title>Node6</title>
<polygon fill="white" stroke="#bfbfbf" points="236.884,-1 236.884,-21 285.116,-21 285.116,-1 236.884,-1"/>
<text text-anchor="middle" x="261" y="-7" font-family="Helvetica,sans-Serif" font-size="10.00">cassert</text>
</g>
<!-- Node4&#45;&gt;Node6 -->
<g id="edge5" class="edge"><title>Node4&#45;&gt;Node6</title>
<path fill="none" stroke="midnightblue" d="M216.752,-58.7527C224.547,-50.5165 236.134,-38.2738 245.495,-28.3824"/>
<polygon fill="midnightblue" stroke="midnightblue" points="248.079,-30.744 252.411,-21.0752 242.995,-25.9323 248.079,-30.744"/>
</g>
</g>
</svg>
