<?xml version="1.0" encoding="UTF-8" standalone="no"?>
<!DOCTYPE svg PUBLIC "-//W3C//DTD SVG 1.1//EN"
 "http://www.w3.org/Graphics/SVG/1.1/DTD/svg11.dtd">
<!-- Generated by graphviz version 2.30.1 (20140712.1814)
 -->
<!-- Title: include/cinder/WinRTUtils.h Pages: 1 -->
<svg width="316pt" height="204pt"
 viewBox="0.00 0.00 316.00 204.00" xmlns="http://www.w3.org/2000/svg" xmlns:xlink="http://www.w3.org/1999/xlink">
<g id="graph0" class="graph" transform="scale(1 1) rotate(0) translate(4 200)">
<title>include/cinder/WinRTUtils.h</title>
<polygon fill="white" stroke="white" points="-4,5 -4,-200 313,-200 313,5 -4,5"/>
<!-- Node1 -->
<g id="node1" class="node"><title>Node1</title>
<polygon fill="#bfbfbf" stroke="black" points="96.6792,-175 96.6792,-195 235.321,-195 235.321,-175 96.6792,-175"/>
<text text-anchor="middle" x="166" y="-181" font-family="Helvetica,sans-Serif" font-size="10.00">include/cinder/WinRTUtils.h</text>
</g>
<!-- Node2 -->
<g id="node2" class="node"><title>Node2</title>
<polygon fill="white" stroke="#bfbfbf" points="72.7734,-117 72.7734,-137 113.227,-137 113.227,-117 72.7734,-117"/>
<text text-anchor="middle" x="93" y="-123" font-family="Helvetica,sans-Serif" font-size="10.00">string</text>
</g>
<!-- Node1&#45;&gt;Node2 -->
<g id="edge1" class="edge"><title>Node1&#45;&gt;Node2</title>
<path fill="none" stroke="midnightblue" d="M153.946,-174.753C142.784,-166.19 125.977,-153.298 112.839,-143.219"/>
<polygon fill="midnightblue" stroke="midnightblue" points="114.895,-140.385 104.83,-137.075 110.634,-145.939 114.895,-140.385"/>
</g>
<!-- Node3 -->
<g id="node3" class="node"><title>Node3</title>
<g id="a_node3"><a xlink:href="_filesystem_8h.html" target="_top" xlink:title="filesystem.h">
<polygon fill="white" stroke="black" points="131.604,-117 131.604,-137 200.396,-137 200.396,-117 131.604,-117"/>
<text text-anchor="middle" x="166" y="-123" font-family="Helvetica,sans-Serif" font-size="10.00">filesystem.h</text>
</a>
</g>
</g>
<!-- Node1&#45;&gt;Node3 -->
<g id="edge2" class="edge"><title>Node1&#45;&gt;Node3</title>
<path fill="none" stroke="midnightblue" d="M166,-174.753C166,-167.25 166,-156.424 166,-147.078"/>
<polygon fill="midnightblue" stroke="midnightblue" points="169.5,-147.075 166,-137.075 162.5,-147.075 169.5,-147.075"/>
</g>
<!-- Node9 -->
<g id="node9" class="node"><title>Node9</title>
<polygon fill="white" stroke="#bfbfbf" points="218.488,-117 218.488,-137 279.512,-137 279.512,-117 218.488,-117"/>
<text text-anchor="middle" x="249" y="-123" font-family="Helvetica,sans-Serif" font-size="10.00">ppltasks.h</text>
</g>
<!-- Node1&#45;&gt;Node9 -->
<g id="edge8" class="edge"><title>Node1&#45;&gt;Node9</title>
<path fill="none" stroke="midnightblue" d="M179.706,-174.753C192.517,-166.109 211.87,-153.052 226.87,-142.931"/>
<polygon fill="midnightblue" stroke="midnightblue" points="229.217,-145.57 235.549,-137.075 225.302,-139.767 229.217,-145.57"/>
</g>
<!-- Node4 -->
<g id="node4" class="node"><title>Node4</title>
<g id="a_node4"><a xlink:href="_cinder_8h.html" target="_top" xlink:title="cinder/Cinder.h">
<polygon fill="white" stroke="black" points="68.3672,-59 68.3672,-79 151.633,-79 151.633,-59 68.3672,-59"/>
<text text-anchor="middle" x="110" y="-65" font-family="Helvetica,sans-Serif" font-size="10.00">cinder/Cinder.h</text>
</a>
</g>
</g>
<!-- Node3&#45;&gt;Node4 -->
<g id="edge3" class="edge"><title>Node3&#45;&gt;Node4</title>
<path fill="none" stroke="midnightblue" d="M156.753,-116.753C148.516,-108.516 136.274,-96.2738 126.382,-86.3824"/>
<polygon fill="midnightblue" stroke="midnightblue" points="128.621,-83.6714 119.075,-79.0752 123.671,-88.6212 128.621,-83.6714"/>
</g>
<!-- Node8 -->
<g id="node8" class="node"><title>Node8</title>
<polygon fill="white" stroke="#bfbfbf" points="169.421,-59 169.421,-79 276.579,-79 276.579,-59 169.421,-59"/>
<text text-anchor="middle" x="223" y="-65" font-family="Helvetica,sans-Serif" font-size="10.00">boost/filesystem.hpp</text>
</g>
<!-- Node3&#45;&gt;Node8 -->
<g id="edge7" class="edge"><title>Node3&#45;&gt;Node8</title>
<path fill="none" stroke="midnightblue" d="M175.412,-116.753C183.879,-108.435 196.504,-96.031 206.623,-86.0893"/>
<polygon fill="midnightblue" stroke="midnightblue" points="209.082,-88.5801 213.763,-79.0752 204.176,-83.5868 209.082,-88.5801"/>
</g>
<!-- Node5 -->
<g id="node5" class="node"><title>Node5</title>
<polygon fill="white" stroke="#bfbfbf" points="-0.450684,-1 -0.450684,-21 44.4507,-21 44.4507,-1 -0.450684,-1"/>
<text text-anchor="middle" x="22" y="-7" font-family="Helvetica,sans-Serif" font-size="10.00">cstdint</text>
</g>
<!-- Node4&#45;&gt;Node5 -->
<g id="edge4" class="edge"><title>Node4&#45;&gt;Node5</title>
<path fill="none" stroke="midnightblue" d="M95.4686,-58.7527C81.757,-50.0272 60.9794,-36.8051 45.0148,-26.6458"/>
<polygon fill="midnightblue" stroke="midnightblue" points="46.5767,-23.4912 36.261,-21.0752 42.8186,-29.3968 46.5767,-23.4912"/>
</g>
<!-- Node6 -->
<g id="node6" class="node"><title>Node6</title>
<polygon fill="white" stroke="#bfbfbf" points="62.5298,-1 62.5298,-21 157.47,-21 157.47,-1 62.5298,-1"/>
<text text-anchor="middle" x="110" y="-7" font-family="Helvetica,sans-Serif" font-size="10.00">boost/version.hpp</text>
</g>
<!-- Node4&#45;&gt;Node6 -->
<g id="edge5" class="edge"><title>Node4&#45;&gt;Node6</title>
<path fill="none" stroke="midnightblue" d="M110,-58.7527C110,-51.2504 110,-40.4238 110,-31.0781"/>
<polygon fill="midnightblue" stroke="midnightblue" points="113.5,-31.0752 110,-21.0752 106.5,-31.0752 113.5,-31.0752"/>
</g>
<!-- Node7 -->
<g id="node7" class="node"><title>Node7</title>
<polygon fill="white" stroke="#bfbfbf" points="175.621,-1 175.621,-21 308.379,-21 308.379,-1 175.621,-1"/>
<text text-anchor="middle" x="242" y="-7" font-family="Helvetica,sans-Serif" font-size="10.00">boost/checked_delete.hpp</text>
</g>
<!-- Node4&#45;&gt;Node7 -->
<g id="edge6" class="edge"><title>Node4&#45;&gt;Node7</title>
<path fill="none" stroke="midnightblue" d="M131.502,-58.878C153.172,-49.6848 186.821,-35.4095 211.295,-25.0263"/>
<polygon fill="midnightblue" stroke="midnightblue" points="212.668,-28.2457 220.507,-21.1181 209.935,-21.8016 212.668,-28.2457"/>
</g>
</g>
</svg>
