<?xml version="1.0" encoding="UTF-8" standalone="no"?>
<!DOCTYPE svg PUBLIC "-//W3C//DTD SVG 1.1//EN"
 "http://www.w3.org/Graphics/SVG/1.1/DTD/svg11.dtd">
<!-- Generated by graphviz version 2.30.1 (20140712.1814)
 -->
<!-- Title: include/cinder/WinRTUtils.h Pages: 1 -->
<svg width="444pt" height="100pt"
 viewBox="0.00 0.00 444.00 100.00" xmlns="http://www.w3.org/2000/svg" xmlns:xlink="http://www.w3.org/1999/xlink">
<g id="graph0" class="graph" transform="scale(1 1) rotate(0) translate(4 96)">
<title>include/cinder/WinRTUtils.h</title>
<polygon fill="white" stroke="white" points="-4,5 -4,-96 441,-96 441,5 -4,5"/>
<!-- Node1 -->
<g id="node1" class="node"><title>Node1</title>
<polygon fill="#bfbfbf" stroke="black" points="150.679,-71 150.679,-91 289.321,-91 289.321,-71 150.679,-71"/>
<text text-anchor="middle" x="220" y="-77" font-family="Helvetica,sans-Serif" font-size="10.00">include/cinder/WinRTUtils.h</text>
</g>
<!-- Node2 -->
<g id="node2" class="node"><title>Node2</title>
<g id="a_node2"><a xlink:href="_app_impl_win_r_t_8cpp.html" target="_top" xlink:title="src/cinder/app/AppImplWin\lRT.cpp">
<polygon fill="white" stroke="black" points="-0.746094,-1 -0.746094,-33 134.746,-33 134.746,-1 -0.746094,-1"/>
<text text-anchor="start" x="7.25391" y="-19" font-family="Helvetica,sans-Serif" font-size="10.00">src/cinder/app/AppImplWin</text>
<text text-anchor="middle" x="67" y="-7" font-family="Helvetica,sans-Serif" font-size="10.00">RT.cpp</text>
</a>
</g>
</g>
<!-- Node1&#45;&gt;Node2 -->
<g id="edge1" class="edge"><title>Node1&#45;&gt;Node2</title>
<path fill="none" stroke="midnightblue" d="M188.212,-67.1185C163.72,-57.1937 129.807,-43.4514 104.08,-33.0258"/>
<polygon fill="midnightblue" stroke="midnightblue" points="187.17,-70.4728 197.752,-70.9847 189.799,-63.9852 187.17,-70.4728"/>
</g>
<!-- Node3 -->
<g id="node3" class="node"><title>Node3</title>
<g id="a_node3"><a xlink:href="_app_impl_win_r_t_basic_8cpp.html" target="_top" xlink:title="src/cinder/app/AppImplWin\lRTBasic.cpp">
<polygon fill="white" stroke="black" points="152.254,-1 152.254,-33 287.746,-33 287.746,-1 152.254,-1"/>
<text text-anchor="start" x="160.254" y="-19" font-family="Helvetica,sans-Serif" font-size="10.00">src/cinder/app/AppImplWin</text>
<text text-anchor="middle" x="220" y="-7" font-family="Helvetica,sans-Serif" font-size="10.00">RTBasic.cpp</text>
</a>
</g>
</g>
<!-- Node1&#45;&gt;Node3 -->
<g id="edge2" class="edge"><title>Node1&#45;&gt;Node3</title>
<path fill="none" stroke="midnightblue" d="M220,-60.7747C220,-51.9863 220,-41.715 220,-33.4404"/>
<polygon fill="midnightblue" stroke="midnightblue" points="216.5,-60.8517 220,-70.8517 223.5,-60.8517 216.5,-60.8517"/>
</g>
<!-- Node4 -->
<g id="node4" class="node"><title>Node4</title>
<g id="a_node4"><a xlink:href="_win_r_t_utils_8cpp.html" target="_top" xlink:title="src/cinder/WinRTUtils.cpp">
<polygon fill="white" stroke="black" points="305.578,-7 305.578,-27 436.422,-27 436.422,-7 305.578,-7"/>
<text text-anchor="middle" x="371" y="-13" font-family="Helvetica,sans-Serif" font-size="10.00">src/cinder/WinRTUtils.cpp</text>
</a>
</g>
</g>
<!-- Node1&#45;&gt;Node4 -->
<g id="edge3" class="edge"><title>Node1&#45;&gt;Node4</title>
<path fill="none" stroke="midnightblue" d="M251.29,-67.1525C280.481,-55.1669 323.284,-37.592 349.017,-27.0262"/>
<polygon fill="midnightblue" stroke="midnightblue" points="249.878,-63.9486 241.957,-70.9847 252.537,-70.4241 249.878,-63.9486"/>
</g>
</g>
</svg>
