<?xml version="1.0" encoding="UTF-8" standalone="no"?>
<!DOCTYPE svg PUBLIC "-//W3C//DTD SVG 1.1//EN"
 "http://www.w3.org/Graphics/SVG/1.1/DTD/svg11.dtd">
<!-- Generated by graphviz version 2.30.1 (20140712.1814)
 -->
<!-- Title: src/cinder/WinRTUtils.cpp Pages: 1 -->
<svg width="399pt" height="262pt"
 viewBox="0.00 0.00 399.04 262.00" xmlns="http://www.w3.org/2000/svg" xmlns:xlink="http://www.w3.org/1999/xlink">
<g id="graph0" class="graph" transform="scale(1 1) rotate(0) translate(4 258)">
<title>src/cinder/WinRTUtils.cpp</title>
<polygon fill="white" stroke="white" points="-4,5 -4,-258 396.045,-258 396.045,5 -4,5"/>
<!-- Node1 -->
<g id="node1" class="node"><title>Node1</title>
<polygon fill="#bfbfbf" stroke="black" points="220.578,-233 220.578,-253 351.422,-253 351.422,-233 220.578,-233"/>
<text text-anchor="middle" x="286" y="-239" font-family="Helvetica,sans-Serif" font-size="10.00">src/cinder/WinRTUtils.cpp</text>
</g>
<!-- Node2 -->
<g id="node2" class="node"><title>Node2</title>
<g id="a_node2"><a xlink:href="_win_r_t_utils_8h.html" target="_top" xlink:title="cinder/WinRTUtils.h">
<polygon fill="white" stroke="black" points="76.9131,-175 76.9131,-195 181.087,-195 181.087,-175 76.9131,-175"/>
<text text-anchor="middle" x="129" y="-181" font-family="Helvetica,sans-Serif" font-size="10.00">cinder/WinRTUtils.h</text>
</a>
</g>
</g>
<!-- Node1&#45;&gt;Node2 -->
<g id="edge1" class="edge"><title>Node1&#45;&gt;Node2</title>
<path fill="none" stroke="midnightblue" d="M260.426,-232.878C234.118,-223.494 192.965,-208.815 163.724,-198.386"/>
<polygon fill="midnightblue" stroke="midnightblue" points="164.898,-195.088 154.303,-195.025 162.546,-201.682 164.898,-195.088"/>
</g>
<!-- Node11 -->
<g id="node11" class="node"><title>Node11</title>
<polygon fill="white" stroke="#bfbfbf" points="198.714,-175 198.714,-195 245.286,-195 245.286,-175 198.714,-175"/>
<text text-anchor="middle" x="222" y="-181" font-family="Helvetica,sans-Serif" font-size="10.00">math.h</text>
</g>
<!-- Node1&#45;&gt;Node11 -->
<g id="edge10" class="edge"><title>Node1&#45;&gt;Node11</title>
<path fill="none" stroke="midnightblue" d="M275.432,-232.753C265.832,-224.353 251.471,-211.787 240.054,-201.798"/>
<polygon fill="midnightblue" stroke="midnightblue" points="242.202,-199.026 232.372,-195.075 237.593,-204.294 242.202,-199.026"/>
</g>
<!-- Node12 -->
<g id="node12" class="node"><title>Node12</title>
<polygon fill="white" stroke="#bfbfbf" points="263.273,-175 263.273,-195 308.727,-195 308.727,-175 263.273,-175"/>
<text text-anchor="middle" x="286" y="-181" font-family="Helvetica,sans-Serif" font-size="10.00">atomic</text>
</g>
<!-- Node1&#45;&gt;Node12 -->
<g id="edge11" class="edge"><title>Node1&#45;&gt;Node12</title>
<path fill="none" stroke="midnightblue" d="M286,-232.753C286,-225.25 286,-214.424 286,-205.078"/>
<polygon fill="midnightblue" stroke="midnightblue" points="289.5,-205.075 286,-195.075 282.5,-205.075 289.5,-205.075"/>
</g>
<!-- Node13 -->
<g id="node13" class="node"><title>Node13</title>
<polygon fill="white" stroke="#bfbfbf" points="327.219,-175 327.219,-195 378.781,-195 378.781,-175 327.219,-175"/>
<text text-anchor="middle" x="353" y="-181" font-family="Helvetica,sans-Serif" font-size="10.00">sstream</text>
</g>
<!-- Node1&#45;&gt;Node13 -->
<g id="edge12" class="edge"><title>Node1&#45;&gt;Node13</title>
<path fill="none" stroke="midnightblue" d="M297.064,-232.753C307.21,-224.272 322.44,-211.543 334.447,-201.507"/>
<polygon fill="midnightblue" stroke="midnightblue" points="336.714,-204.174 342.142,-195.075 332.225,-198.803 336.714,-204.174"/>
</g>
<!-- Node10 -->
<g id="node10" class="node"><title>Node10</title>
<polygon fill="white" stroke="#bfbfbf" points="279.488,-117 279.488,-137 340.512,-137 340.512,-117 279.488,-117"/>
<text text-anchor="middle" x="310" y="-123" font-family="Helvetica,sans-Serif" font-size="10.00">ppltasks.h</text>
</g>
<!-- Node1&#45;&gt;Node10 -->
<g id="edge13" class="edge"><title>Node1&#45;&gt;Node10</title>
<path fill="none" stroke="midnightblue" d="M331.682,-232.979C352.278,-226.387 374.698,-215.12 387,-196 401.761,-173.057 371.391,-153.254 344.553,-141.03"/>
<polygon fill="midnightblue" stroke="midnightblue" points="345.855,-137.78 335.287,-137.029 343.08,-144.206 345.855,-137.78"/>
</g>
<!-- Node3 -->
<g id="node3" class="node"><title>Node3</title>
<polygon fill="white" stroke="#bfbfbf" points="72.7734,-117 72.7734,-137 113.227,-137 113.227,-117 72.7734,-117"/>
<text text-anchor="middle" x="93" y="-123" font-family="Helvetica,sans-Serif" font-size="10.00">string</text>
</g>
<!-- Node2&#45;&gt;Node3 -->
<g id="edge2" class="edge"><title>Node2&#45;&gt;Node3</title>
<path fill="none" stroke="midnightblue" d="M123.055,-174.753C117.97,-166.843 110.51,-155.237 104.294,-145.568"/>
<polygon fill="midnightblue" stroke="midnightblue" points="107.186,-143.594 98.8341,-137.075 101.298,-147.38 107.186,-143.594"/>
</g>
<!-- Node4 -->
<g id="node4" class="node"><title>Node4</title>
<g id="a_node4"><a xlink:href="_filesystem_8h.html" target="_top" xlink:title="filesystem.h">
<polygon fill="white" stroke="black" points="131.604,-117 131.604,-137 200.396,-137 200.396,-117 131.604,-117"/>
<text text-anchor="middle" x="166" y="-123" font-family="Helvetica,sans-Serif" font-size="10.00">filesystem.h</text>
</a>
</g>
</g>
<!-- Node2&#45;&gt;Node4 -->
<g id="edge3" class="edge"><title>Node2&#45;&gt;Node4</title>
<path fill="none" stroke="midnightblue" d="M135.11,-174.753C140.336,-166.843 148.004,-155.237 154.392,-145.568"/>
<polygon fill="midnightblue" stroke="midnightblue" points="157.411,-147.348 160.004,-137.075 151.571,-143.489 157.411,-147.348"/>
</g>
<!-- Node2&#45;&gt;Node10 -->
<g id="edge9" class="edge"><title>Node2&#45;&gt;Node10</title>
<path fill="none" stroke="midnightblue" d="M158.484,-174.878C189.077,-165.413 237.083,-150.56 270.844,-140.115"/>
<polygon fill="midnightblue" stroke="midnightblue" points="272.31,-143.325 280.829,-137.025 270.241,-136.637 272.31,-143.325"/>
</g>
<!-- Node5 -->
<g id="node5" class="node"><title>Node5</title>
<g id="a_node5"><a xlink:href="_cinder_8h.html" target="_top" xlink:title="cinder/Cinder.h">
<polygon fill="white" stroke="black" points="68.3672,-59 68.3672,-79 151.633,-79 151.633,-59 68.3672,-59"/>
<text text-anchor="middle" x="110" y="-65" font-family="Helvetica,sans-Serif" font-size="10.00">cinder/Cinder.h</text>
</a>
</g>
</g>
<!-- Node4&#45;&gt;Node5 -->
<g id="edge4" class="edge"><title>Node4&#45;&gt;Node5</title>
<path fill="none" stroke="midnightblue" d="M156.753,-116.753C148.516,-108.516 136.274,-96.2738 126.382,-86.3824"/>
<polygon fill="midnightblue" stroke="midnightblue" points="128.621,-83.6714 119.075,-79.0752 123.671,-88.6212 128.621,-83.6714"/>
</g>
<!-- Node9 -->
<g id="node9" class="node"><title>Node9</title>
<polygon fill="white" stroke="#bfbfbf" points="169.421,-59 169.421,-79 276.579,-79 276.579,-59 169.421,-59"/>
<text text-anchor="middle" x="223" y="-65" font-family="Helvetica,sans-Serif" font-size="10.00">boost/filesystem.hpp</text>
</g>
<!-- Node4&#45;&gt;Node9 -->
<g id="edge8" class="edge"><title>Node4&#45;&gt;Node9</title>
<path fill="none" stroke="midnightblue" d="M175.412,-116.753C183.879,-108.435 196.504,-96.031 206.623,-86.0893"/>
<polygon fill="midnightblue" stroke="midnightblue" points="209.082,-88.5801 213.763,-79.0752 204.176,-83.5868 209.082,-88.5801"/>
</g>
<!-- Node6 -->
<g id="node6" class="node"><title>Node6</title>
<polygon fill="white" stroke="#bfbfbf" points="-0.450684,-1 -0.450684,-21 44.4507,-21 44.4507,-1 -0.450684,-1"/>
<text text-anchor="middle" x="22" y="-7" font-family="Helvetica,sans-Serif" font-size="10.00">cstdint</text>
</g>
<!-- Node5&#45;&gt;Node6 -->
<g id="edge5" class="edge"><title>Node5&#45;&gt;Node6</title>
<path fill="none" stroke="midnightblue" d="M95.4686,-58.7527C81.757,-50.0272 60.9794,-36.8051 45.0148,-26.6458"/>
<polygon fill="midnightblue" stroke="midnightblue" points="46.5767,-23.4912 36.261,-21.0752 42.8186,-29.3968 46.5767,-23.4912"/>
</g>
<!-- Node7 -->
<g id="node7" class="node"><title>Node7</title>
<polygon fill="white" stroke="#bfbfbf" points="62.5298,-1 62.5298,-21 157.47,-21 157.47,-1 62.5298,-1"/>
<text text-anchor="middle" x="110" y="-7" font-family="Helvetica,sans-Serif" font-size="10.00">boost/version.hpp</text>
</g>
<!-- Node5&#45;&gt;Node7 -->
<g id="edge6" class="edge"><title>Node5&#45;&gt;Node7</title>
<path fill="none" stroke="midnightblue" d="M110,-58.7527C110,-51.2504 110,-40.4238 110,-31.0781"/>
<polygon fill="midnightblue" stroke="midnightblue" points="113.5,-31.0752 110,-21.0752 106.5,-31.0752 113.5,-31.0752"/>
</g>
<!-- Node8 -->
<g id="node8" class="node"><title>Node8</title>
<polygon fill="white" stroke="#bfbfbf" points="175.621,-1 175.621,-21 308.379,-21 308.379,-1 175.621,-1"/>
<text text-anchor="middle" x="242" y="-7" font-family="Helvetica,sans-Serif" font-size="10.00">boost/checked_delete.hpp</text>
</g>
<!-- Node5&#45;&gt;Node8 -->
<g id="edge7" class="edge"><title>Node5&#45;&gt;Node8</title>
<path fill="none" stroke="midnightblue" d="M131.502,-58.878C153.172,-49.6848 186.821,-35.4095 211.295,-25.0263"/>
<polygon fill="midnightblue" stroke="midnightblue" points="212.668,-28.2457 220.507,-21.1181 209.935,-21.8016 212.668,-28.2457"/>
</g>
</g>
</svg>
