<?xml version="1.0" encoding="UTF-8" standalone="no"?>
<!DOCTYPE svg PUBLIC "-//W3C//DTD SVG 1.1//EN"
 "http://www.w3.org/Graphics/SVG/1.1/DTD/svg11.dtd">
<!-- Generated by graphviz version 2.30.1 (20140712.1814)
 -->
<!-- Title: src/cinder/Xml.cpp Pages: 1 -->
<!--zoomable 494 -->
<svg id="main" version="1.1" xmlns="http://www.w3.org/2000/svg" xmlns:xlink="http://www.w3.org/1999/xlink" xml:space="preserve" onload="init(evt)">
<style type="text/css"><![CDATA[
.edge:hover path { stroke: red; }
.edge:hover polygon { stroke: red; fill: red; }
]]></style>
<script type="text/javascript"><![CDATA[
var edges = document.getElementsByTagName('g');
if (edges && edges.length) {
  for (var i=0;i<edges.length;i++) {
    if (edges[i].id.substr(0,4)=='edge') {
      edges[i].setAttribute('class','edge');
    }
  }
}
]]></script>
        <defs>
                <circle id="rim" cx="0" cy="0" r="7"/>
                <circle id="rim2" cx="0" cy="0" r="3.5"/>
                <g id="zoomPlus">
                        <use xlink:href="#rim" fill="#404040">
                                <set attributeName="fill" to="#808080" begin="zoomplus.mouseover" end="zoomplus.mouseout"/>
                        </use>
                        <path d="M-4,0h8M0,-4v8" fill="none" stroke="white" stroke-width="1.5" pointer-events="none"/>
                </g>
                <g id="zoomMin">
                        <use xlink:href="#rim" fill="#404040">
                                <set attributeName="fill" to="#808080" begin="zoomminus.mouseover" end="zoomminus.mouseout"/>
                        </use>
                        <path d="M-4,0h8" fill="none" stroke="white" stroke-width="1.5" pointer-events="none"/>
                </g>
                <g id="dirArrow">
                        <path fill="none" stroke="white" stroke-width="1.5" d="M0,-3.0v7 M-2.5,-0.5L0,-3.0L2.5,-0.5"/>
                </g>
               <g id="resetDef">
                       <use xlink:href="#rim2" fill="#404040">
                               <set attributeName="fill" to="#808080" begin="reset.mouseover" end="reset.mouseout"/>
                       </use>
               </g>
        </defs>

<script type="text/javascript">
var viewWidth = 1307;
var viewHeight = 494;
var sectionId = 'dynsection-0';
</script>
<script xlink:href="svgpan.js"/>
<svg id="graph" class="graph">
<g id="viewport">
<title>src/cinder/Xml.cpp</title>
<polygon fill="white" stroke="white" points="-4,5 -4,-490 1304,-490 1304,5 -4,5"/>
<!-- Node1 -->
<g id="node1" class="node"><title>Node1</title>
<polygon fill="#bfbfbf" stroke="black" points="896.877,-465 896.877,-485 995.123,-485 995.123,-465 896.877,-465"/>
<text text-anchor="middle" x="946" y="-471" font-family="Helvetica,sans-Serif" font-size="10.00">src/cinder/Xml.cpp</text>
</g>
<!-- Node2 -->
<g id="node2" class="node"><title>Node2</title>
<g id="a_node2"><a xlink:href="_xml_8h.html" target="_top" xlink:title="cinder/Xml.h">
<polygon fill="white" stroke="black" points="730.212,-407 730.212,-427 801.788,-427 801.788,-407 730.212,-407"/>
<text text-anchor="middle" x="766" y="-413" font-family="Helvetica,sans-Serif" font-size="10.00">cinder/Xml.h</text>
</a>
</g>
</g>
<!-- Node1&#45;&gt;Node2 -->
<g id="edge1" class="edge"><title>Node1&#45;&gt;Node2</title>
<path fill="none" stroke="midnightblue" d="M916.679,-464.878C886.255,-455.413 838.514,-440.56 804.94,-430.115"/>
<polygon fill="midnightblue" stroke="midnightblue" points="805.598,-426.654 795.01,-427.025 803.519,-433.338 805.598,-426.654"/>
</g>
<!-- Node21 -->
<g id="node21" class="node"><title>Node21</title>
<g id="a_node21"><a xlink:href="_utilities_8h.html" target="_top" xlink:title="cinder/Utilities.h">
<polygon fill="white" stroke="black" points="831.709,-349 831.709,-369 918.291,-369 918.291,-349 831.709,-349"/>
<text text-anchor="middle" x="875" y="-355" font-family="Helvetica,sans-Serif" font-size="10.00">cinder/Utilities.h</text>
</a>
</g>
</g>
<!-- Node1&#45;&gt;Node21 -->
<g id="edge45" class="edge"><title>Node1&#45;&gt;Node21</title>
<path fill="none" stroke="midnightblue" d="M918.324,-464.944C901.378,-457.802 881.072,-445.994 871,-428 862.622,-413.034 865.021,-393.2 868.674,-378.818"/>
<polygon fill="midnightblue" stroke="midnightblue" points="872.083,-379.635 871.555,-369.053 865.369,-377.654 872.083,-379.635"/>
</g>
<!-- Node23 -->
<g id="node23" class="node"><title>Node23</title>
<polygon fill="white" stroke="#bfbfbf" points="880.468,-407 880.468,-427 1011.53,-427 1011.53,-407 880.468,-407"/>
<text text-anchor="middle" x="946" y="-413" font-family="Helvetica,sans-Serif" font-size="10.00">boost/algorithm/string.hpp</text>
</g>
<!-- Node1&#45;&gt;Node23 -->
<g id="edge46" class="edge"><title>Node1&#45;&gt;Node23</title>
<path fill="none" stroke="midnightblue" d="M946,-464.753C946,-457.25 946,-446.424 946,-437.078"/>
<polygon fill="midnightblue" stroke="midnightblue" points="949.5,-437.075 946,-427.075 942.5,-437.075 949.5,-437.075"/>
</g>
<!-- Node24 -->
<g id="node24" class="node"><title>Node24</title>
<polygon fill="white" stroke="#bfbfbf" points="1029.09,-407 1029.09,-427 1142.91,-427 1142.91,-407 1029.09,-407"/>
<text text-anchor="middle" x="1086" y="-413" font-family="Helvetica,sans-Serif" font-size="10.00">rapidxml/rapidxml.hpp</text>
</g>
<!-- Node1&#45;&gt;Node24 -->
<g id="edge47" class="edge"><title>Node1&#45;&gt;Node24</title>
<path fill="none" stroke="midnightblue" d="M968.805,-464.878C991.89,-455.644 1027.79,-441.283 1053.78,-430.889"/>
<polygon fill="midnightblue" stroke="midnightblue" points="1055.22,-434.082 1063.2,-427.118 1052.62,-427.582 1055.22,-434.082"/>
</g>
<!-- Node25 -->
<g id="node25" class="node"><title>Node25</title>
<polygon fill="white" stroke="#bfbfbf" points="1160.58,-407 1160.58,-427 1299.42,-427 1299.42,-407 1160.58,-407"/>
<text text-anchor="middle" x="1230" y="-413" font-family="Helvetica,sans-Serif" font-size="10.00">rapidxml/rapidxml_print.hpp</text>
</g>
<!-- Node1&#45;&gt;Node25 -->
<g id="edge48" class="edge"><title>Node1&#45;&gt;Node25</title>
<path fill="none" stroke="midnightblue" d="M991.945,-464.94C1041.65,-455.14 1120.9,-439.512 1174.16,-429.01"/>
<polygon fill="midnightblue" stroke="midnightblue" points="1174.99,-432.415 1184.12,-427.047 1173.63,-425.547 1174.99,-432.415"/>
</g>
<!-- Node3 -->
<g id="node3" class="node"><title>Node3</title>
<g id="a_node3"><a xlink:href="_cinder_8h.html" target="_top" xlink:title="cinder/Cinder.h">
<polygon fill="white" stroke="black" points="831.367,-59 831.367,-79 914.633,-79 914.633,-59 831.367,-59"/>
<text text-anchor="middle" x="873" y="-65" font-family="Helvetica,sans-Serif" font-size="10.00">cinder/Cinder.h</text>
</a>
</g>
</g>
<!-- Node2&#45;&gt;Node3 -->
<g id="edge2" class="edge"><title>Node2&#45;&gt;Node3</title>
<path fill="none" stroke="midnightblue" d="M730.017,-413.554C593.332,-403.791 114,-365.058 114,-302 114,-302 114,-302 114,-184 114,-138.343 148.866,-133.585 191,-116 248.552,-91.9803 671.414,-76.3919 820.86,-71.5835"/>
<polygon fill="midnightblue" stroke="midnightblue" points="821.256,-75.0728 831.139,-71.2559 821.033,-68.0763 821.256,-75.0728"/>
</g>
<!-- Node7 -->
<g id="node7" class="node"><title>Node7</title>
<g id="a_node7"><a xlink:href="_stream_8h.html" target="_top" xlink:title="cinder/Stream.h">
<polygon fill="white" stroke="black" points="576.707,-175 576.707,-195 663.293,-195 663.293,-175 576.707,-175"/>
<text text-anchor="middle" x="620" y="-181" font-family="Helvetica,sans-Serif" font-size="10.00">cinder/Stream.h</text>
</a>
</g>
</g>
<!-- Node2&#45;&gt;Node7 -->
<g id="edge6" class="edge"><title>Node2&#45;&gt;Node7</title>
<path fill="none" stroke="midnightblue" d="M730.115,-409.8C681.496,-399.262 596.472,-372.762 559,-312 535.862,-274.481 576.128,-226.88 601.571,-202.315"/>
<polygon fill="midnightblue" stroke="midnightblue" points="604.285,-204.57 609.212,-195.191 599.511,-199.451 604.285,-204.57"/>
</g>
<!-- Node17 -->
<g id="node17" class="node"><title>Node17</title>
<g id="a_node17"><a xlink:href="_data_source_8h.html" target="_top" xlink:title="cinder/DataSource.h">
<polygon fill="white" stroke="black" points="819.419,-291 819.419,-311 926.581,-311 926.581,-291 819.419,-291"/>
<text text-anchor="middle" x="873" y="-297" font-family="Helvetica,sans-Serif" font-size="10.00">cinder/DataSource.h</text>
</a>
</g>
</g>
<!-- Node2&#45;&gt;Node17 -->
<g id="edge21" class="edge"><title>Node2&#45;&gt;Node17</title>
<path fill="none" stroke="midnightblue" d="M773.025,-406.881C783.45,-393.525 803.851,-368.054 823,-348 833.055,-337.47 845.038,-326.4 854.752,-317.759"/>
<polygon fill="midnightblue" stroke="midnightblue" points="857.086,-320.367 862.287,-311.136 852.465,-315.11 857.086,-320.367"/>
</g>
<!-- Node20 -->
<g id="node20" class="node"><title>Node20</title>
<g id="a_node20"><a xlink:href="_data_target_8h.html" target="_top" xlink:title="cinder/DataTarget.h">
<polygon fill="white" stroke="black" points="568.365,-291 568.365,-311 671.635,-311 671.635,-291 568.365,-291"/>
<text text-anchor="middle" x="620" y="-297" font-family="Helvetica,sans-Serif" font-size="10.00">cinder/DataTarget.h</text>
</a>
</g>
</g>
<!-- Node2&#45;&gt;Node20 -->
<g id="edge30" class="edge"><title>Node2&#45;&gt;Node20</title>
<path fill="none" stroke="midnightblue" d="M754.299,-406.864C729.311,-387.352 670.505,-341.436 639.663,-317.353"/>
<polygon fill="midnightblue" stroke="midnightblue" points="641.793,-314.576 631.757,-311.18 637.485,-320.093 641.793,-314.576"/>
</g>
<!-- Node9 -->
<g id="node9" class="node"><title>Node9</title>
<g id="a_node9"><a xlink:href="_exception_8h.html" target="_top" xlink:title="cinder/Exception.h">
<polygon fill="white" stroke="black" points="716.865,-117 716.865,-137 815.135,-137 815.135,-117 716.865,-117"/>
<text text-anchor="middle" x="766" y="-123" font-family="Helvetica,sans-Serif" font-size="10.00">cinder/Exception.h</text>
</a>
</g>
</g>
<!-- Node2&#45;&gt;Node9 -->
<g id="edge35" class="edge"><title>Node2&#45;&gt;Node9</title>
<path fill="none" stroke="midnightblue" d="M766,-406.838C766,-387.48 766,-340.99 766,-302 766,-302 766,-302 766,-242 766,-208.798 766,-170.157 766,-147.462"/>
<polygon fill="midnightblue" stroke="midnightblue" points="769.5,-147.162 766,-137.162 762.5,-147.162 769.5,-147.162"/>
</g>
<!-- Node2&#45;&gt;Node21 -->
<g id="edge36" class="edge"><title>Node2&#45;&gt;Node21</title>
<path fill="none" stroke="midnightblue" d="M783.999,-406.753C801.538,-397.742 828.412,-383.935 848.414,-373.659"/>
<polygon fill="midnightblue" stroke="midnightblue" points="850.04,-376.758 857.336,-369.075 846.842,-370.532 850.04,-376.758"/>
</g>
<!-- Node11 -->
<g id="node11" class="node"><title>Node11</title>
<polygon fill="white" stroke="#bfbfbf" points="55.7734,-59 55.7734,-79 96.2266,-79 96.2266,-59 55.7734,-59"/>
<text text-anchor="middle" x="76" y="-65" font-family="Helvetica,sans-Serif" font-size="10.00">string</text>
</g>
<!-- Node2&#45;&gt;Node11 -->
<g id="edge43" class="edge"><title>Node2&#45;&gt;Node11</title>
<path fill="none" stroke="midnightblue" d="M730.082,-414.497C578.641,-407.69 0,-376.788 0,-302 0,-302 0,-302 0,-184 0,-143.325 33.9099,-106.124 56.4281,-85.9052"/>
<polygon fill="midnightblue" stroke="midnightblue" points="58.8503,-88.4378 64.125,-79.2493 54.2715,-83.1429 58.8503,-88.4378"/>
</g>
<!-- Node10 -->
<g id="node10" class="node"><title>Node10</title>
<polygon fill="white" stroke="#bfbfbf" points="1153.38,-59 1153.38,-79 1196.62,-79 1196.62,-59 1153.38,-59"/>
<text text-anchor="middle" x="1175" y="-65" font-family="Helvetica,sans-Serif" font-size="10.00">vector</text>
</g>
<!-- Node2&#45;&gt;Node10 -->
<g id="edge44" class="edge"><title>Node2&#45;&gt;Node10</title>
<path fill="none" stroke="midnightblue" d="M801.824,-410.702C907.896,-394.534 1213,-344.347 1213,-302 1213,-302 1213,-302 1213,-184 1213,-148.541 1196.25,-109.914 1184.99,-87.9569"/>
<polygon fill="midnightblue" stroke="midnightblue" points="1188.07,-86.2963 1180.28,-79.1127 1181.89,-89.5848 1188.07,-86.2963"/>
</g>
<!-- Node4 -->
<g id="node4" class="node"><title>Node4</title>
<polygon fill="white" stroke="#bfbfbf" points="762.549,-1 762.549,-21 807.451,-21 807.451,-1 762.549,-1"/>
<text text-anchor="middle" x="785" y="-7" font-family="Helvetica,sans-Serif" font-size="10.00">cstdint</text>
</g>
<!-- Node3&#45;&gt;Node4 -->
<g id="edge3" class="edge"><title>Node3&#45;&gt;Node4</title>
<path fill="none" stroke="midnightblue" d="M858.469,-58.7527C844.757,-50.0272 823.979,-36.8051 808.015,-26.6458"/>
<polygon fill="midnightblue" stroke="midnightblue" points="809.577,-23.4912 799.261,-21.0752 805.819,-29.3968 809.577,-23.4912"/>
</g>
<!-- Node5 -->
<g id="node5" class="node"><title>Node5</title>
<polygon fill="white" stroke="#bfbfbf" points="825.53,-1 825.53,-21 920.47,-21 920.47,-1 825.53,-1"/>
<text text-anchor="middle" x="873" y="-7" font-family="Helvetica,sans-Serif" font-size="10.00">boost/version.hpp</text>
</g>
<!-- Node3&#45;&gt;Node5 -->
<g id="edge4" class="edge"><title>Node3&#45;&gt;Node5</title>
<path fill="none" stroke="midnightblue" d="M873,-58.7527C873,-51.2504 873,-40.4238 873,-31.0781"/>
<polygon fill="midnightblue" stroke="midnightblue" points="876.5,-31.0752 873,-21.0752 869.5,-31.0752 876.5,-31.0752"/>
</g>
<!-- Node6 -->
<g id="node6" class="node"><title>Node6</title>
<polygon fill="white" stroke="#bfbfbf" points="938.621,-1 938.621,-21 1071.38,-21 1071.38,-1 938.621,-1"/>
<text text-anchor="middle" x="1005" y="-7" font-family="Helvetica,sans-Serif" font-size="10.00">boost/checked_delete.hpp</text>
</g>
<!-- Node3&#45;&gt;Node6 -->
<g id="edge5" class="edge"><title>Node3&#45;&gt;Node6</title>
<path fill="none" stroke="midnightblue" d="M894.502,-58.878C916.172,-49.6848 949.821,-35.4095 974.295,-25.0263"/>
<polygon fill="midnightblue" stroke="midnightblue" points="975.668,-28.2457 983.507,-21.1181 972.935,-21.8016 975.668,-28.2457"/>
</g>
<!-- Node7&#45;&gt;Node3 -->
<g id="edge7" class="edge"><title>Node7&#45;&gt;Node3</title>
<path fill="none" stroke="midnightblue" d="M629.432,-174.668C644.677,-160.088 676.244,-131.927 708,-116 743.774,-98.0577 787.534,-86.2674 820.998,-79.1194"/>
<polygon fill="midnightblue" stroke="midnightblue" points="821.946,-82.4975 831.032,-77.0484 820.531,-75.642 821.946,-82.4975"/>
</g>
<!-- Node8 -->
<g id="node8" class="node"><title>Node8</title>
<g id="a_node8"><a xlink:href="_buffer_8h.html" target="_top" xlink:title="cinder/Buffer.h">
<polygon fill="white" stroke="black" points="832.844,-117 832.844,-137 913.156,-137 913.156,-117 832.844,-117"/>
<text text-anchor="middle" x="873" y="-123" font-family="Helvetica,sans-Serif" font-size="10.00">cinder/Buffer.h</text>
</a>
</g>
</g>
<!-- Node7&#45;&gt;Node8 -->
<g id="edge8" class="edge"><title>Node7&#45;&gt;Node8</title>
<path fill="none" stroke="midnightblue" d="M660.93,-174.94C704.969,-165.193 775.055,-149.68 822.491,-139.18"/>
<polygon fill="midnightblue" stroke="midnightblue" points="823.54,-142.532 832.547,-136.954 822.027,-135.698 823.54,-142.532"/>
</g>
<!-- Node7&#45;&gt;Node9 -->
<g id="edge10" class="edge"><title>Node7&#45;&gt;Node9</title>
<path fill="none" stroke="midnightblue" d="M643.782,-174.878C667.962,-165.603 705.628,-151.156 732.755,-140.752"/>
<polygon fill="midnightblue" stroke="midnightblue" points="734.145,-143.967 742.228,-137.118 731.638,-137.432 734.145,-143.967"/>
</g>
<!-- Node12 -->
<g id="node12" class="node"><title>Node12</title>
<g id="a_node12"><a xlink:href="_filesystem_8h.html" target="_top" xlink:title="cinder/Filesystem.h">
<polygon fill="white" stroke="black" points="1006.93,-117 1006.93,-137 1109.07,-137 1109.07,-117 1006.93,-117"/>
<text text-anchor="middle" x="1058" y="-123" font-family="Helvetica,sans-Serif" font-size="10.00">cinder/Filesystem.h</text>
</a>
</g>
</g>
<!-- Node7&#45;&gt;Node12 -->
<g id="edge14" class="edge"><title>Node7&#45;&gt;Node12</title>
<path fill="none" stroke="midnightblue" d="M663.371,-175.419C666.287,-174.917 669.184,-174.438 672,-174 786.006,-156.268 919.887,-141.705 996.255,-133.986"/>
<polygon fill="midnightblue" stroke="midnightblue" points="997.041,-137.424 1006.64,-132.942 996.342,-130.459 997.041,-137.424"/>
</g>
<!-- Node14 -->
<g id="node14" class="node"><title>Node14</title>
<polygon fill="white" stroke="#bfbfbf" points="541.291,-117 541.291,-137 660.709,-137 660.709,-117 541.291,-117"/>
<text text-anchor="middle" x="601" y="-123" font-family="Helvetica,sans-Serif" font-size="10.00">boost/noncopyable.hpp</text>
</g>
<!-- Node7&#45;&gt;Node14 -->
<g id="edge17" class="edge"><title>Node7&#45;&gt;Node14</title>
<path fill="none" stroke="midnightblue" d="M616.863,-174.753C614.289,-167.169 610.564,-156.188 607.37,-146.774"/>
<polygon fill="midnightblue" stroke="midnightblue" points="610.607,-145.42 604.079,-137.075 603.978,-147.67 610.607,-145.42"/>
</g>
<!-- Node7&#45;&gt;Node11 -->
<g id="edge18" class="edge"><title>Node7&#45;&gt;Node11</title>
<path fill="none" stroke="midnightblue" d="M576.682,-184.222C500.614,-183.506 338.784,-177.018 209,-138 167.638,-125.565 123.802,-100.529 98.2178,-84.5508"/>
<polygon fill="midnightblue" stroke="midnightblue" points="99.9742,-81.5201 89.6562,-79.1141 96.2217,-87.4294 99.9742,-81.5201"/>
</g>
<!-- Node15 -->
<g id="node15" class="node"><title>Node15</title>
<polygon fill="white" stroke="#bfbfbf" points="217.574,-117 217.574,-137 366.426,-137 366.426,-117 217.574,-117"/>
<text text-anchor="middle" x="292" y="-123" font-family="Helvetica,sans-Serif" font-size="10.00">boost/iostreams/concepts.hpp</text>
</g>
<!-- Node7&#45;&gt;Node15 -->
<g id="edge19" class="edge"><title>Node7&#45;&gt;Node15</title>
<path fill="none" stroke="midnightblue" d="M576.444,-176.564C519.707,-166.877 420.107,-149.872 355.101,-138.773"/>
<polygon fill="midnightblue" stroke="midnightblue" points="355.423,-135.278 344.976,-137.045 354.245,-142.178 355.423,-135.278"/>
</g>
<!-- Node16 -->
<g id="node16" class="node"><title>Node16</title>
<polygon fill="white" stroke="#bfbfbf" points="384.306,-117 384.306,-137 523.694,-137 523.694,-117 384.306,-117"/>
<text text-anchor="middle" x="454" y="-123" font-family="Helvetica,sans-Serif" font-size="10.00">boost/iostreams/stream.hpp</text>
</g>
<!-- Node7&#45;&gt;Node16 -->
<g id="edge20" class="edge"><title>Node7&#45;&gt;Node16</title>
<path fill="none" stroke="midnightblue" d="M592.96,-174.878C565.023,-165.453 521.253,-150.688 490.312,-140.25"/>
<polygon fill="midnightblue" stroke="midnightblue" points="491.348,-136.906 480.754,-137.025 489.11,-143.538 491.348,-136.906"/>
</g>
<!-- Node8&#45;&gt;Node3 -->
<g id="edge9" class="edge"><title>Node8&#45;&gt;Node3</title>
<path fill="none" stroke="midnightblue" d="M873,-116.753C873,-109.25 873,-98.4238 873,-89.0781"/>
<polygon fill="midnightblue" stroke="midnightblue" points="876.5,-89.0752 873,-79.0752 869.5,-89.0752 876.5,-89.0752"/>
</g>
<!-- Node9&#45;&gt;Node3 -->
<g id="edge11" class="edge"><title>Node9&#45;&gt;Node3</title>
<path fill="none" stroke="midnightblue" d="M783.669,-116.753C800.808,-107.783 827.028,-94.0601 846.635,-83.7986"/>
<polygon fill="midnightblue" stroke="midnightblue" points="848.423,-86.8132 855.66,-79.0752 845.177,-80.6112 848.423,-86.8132"/>
</g>
<!-- Node9&#45;&gt;Node10 -->
<g id="edge12" class="edge"><title>Node9&#45;&gt;Node10</title>
<path fill="none" stroke="midnightblue" d="M815.334,-117.322C818.264,-116.86 821.169,-116.416 824,-116 955.117,-96.7356 988.972,-99.862 1120,-80 1127.59,-78.85 1135.73,-77.4565 1143.37,-76.0796"/>
<polygon fill="midnightblue" stroke="midnightblue" points="1144.17,-79.4916 1153.37,-74.2368 1142.9,-72.6076 1144.17,-79.4916"/>
</g>
<!-- Node9&#45;&gt;Node11 -->
<g id="edge13" class="edge"><title>Node9&#45;&gt;Node11</title>
<path fill="none" stroke="midnightblue" d="M716.677,-120.671C701.402,-119.087 684.512,-117.401 669,-116 453.534,-96.5396 193.562,-78.122 106.248,-72.0747"/>
<polygon fill="midnightblue" stroke="midnightblue" points="106.456,-68.5808 96.239,-71.3833 105.974,-75.5642 106.456,-68.5808"/>
</g>
<!-- Node12&#45;&gt;Node3 -->
<g id="edge15" class="edge"><title>Node12&#45;&gt;Node3</title>
<path fill="none" stroke="midnightblue" d="M1027.86,-116.878C996.461,-107.372 947.105,-92.4317 912.576,-81.9798"/>
<polygon fill="midnightblue" stroke="midnightblue" points="913.401,-78.5727 902.816,-79.0253 911.373,-85.2725 913.401,-78.5727"/>
</g>
<!-- Node13 -->
<g id="node13" class="node"><title>Node13</title>
<polygon fill="white" stroke="#bfbfbf" points="1004.42,-59 1004.42,-79 1111.58,-79 1111.58,-59 1004.42,-59"/>
<text text-anchor="middle" x="1058" y="-65" font-family="Helvetica,sans-Serif" font-size="10.00">boost/filesystem.hpp</text>
</g>
<!-- Node12&#45;&gt;Node13 -->
<g id="edge16" class="edge"><title>Node12&#45;&gt;Node13</title>
<path fill="none" stroke="midnightblue" d="M1058,-116.753C1058,-109.25 1058,-98.4238 1058,-89.0781"/>
<polygon fill="midnightblue" stroke="midnightblue" points="1061.5,-89.0752 1058,-79.0752 1054.5,-89.0752 1061.5,-89.0752"/>
</g>
<!-- Node17&#45;&gt;Node3 -->
<g id="edge22" class="edge"><title>Node17&#45;&gt;Node3</title>
<path fill="none" stroke="midnightblue" d="M878.037,-290.878C891.008,-266.803 925.35,-199.196 937,-138 938.829,-128.395 941.461,-124.701 937,-116 929.916,-102.185 916.54,-91.5799 903.84,-84.0531"/>
<polygon fill="midnightblue" stroke="midnightblue" points="905.265,-80.8432 894.812,-79.1146 901.906,-86.9844 905.265,-80.8432"/>
</g>
<!-- Node18 -->
<g id="node18" class="node"><title>Node18</title>
<g id="a_node18"><a xlink:href="_url_8h.html" target="_top" xlink:title="cinder/Url.h">
<polygon fill="white" stroke="black" points="670.436,-233 670.436,-253 737.564,-253 737.564,-233 670.436,-233"/>
<text text-anchor="middle" x="704" y="-239" font-family="Helvetica,sans-Serif" font-size="10.00">cinder/Url.h</text>
</a>
</g>
</g>
<!-- Node17&#45;&gt;Node18 -->
<g id="edge23" class="edge"><title>Node17&#45;&gt;Node18</title>
<path fill="none" stroke="midnightblue" d="M845.471,-290.878C817.029,-281.453 772.468,-266.688 740.968,-256.25"/>
<polygon fill="midnightblue" stroke="midnightblue" points="741.83,-252.848 731.237,-253.025 739.629,-259.493 741.83,-252.848"/>
</g>
<!-- Node17&#45;&gt;Node8 -->
<g id="edge27" class="edge"><title>Node17&#45;&gt;Node8</title>
<path fill="none" stroke="midnightblue" d="M873,-290.753C873,-263.804 873,-184.908 873,-147.766"/>
<polygon fill="midnightblue" stroke="midnightblue" points="876.5,-147.293 873,-137.293 869.5,-147.293 876.5,-147.293"/>
</g>
<!-- Node17&#45;&gt;Node7 -->
<g id="edge28" class="edge"><title>Node17&#45;&gt;Node7</title>
<path fill="none" stroke="midnightblue" d="M857.714,-290.9C834.209,-277.119 787.547,-250.595 746,-232 717.009,-219.025 683.143,-206.818 657.826,-198.244"/>
<polygon fill="midnightblue" stroke="midnightblue" points="658.822,-194.886 648.228,-195.028 656.598,-201.524 658.822,-194.886"/>
</g>
<!-- Node17&#45;&gt;Node12 -->
<g id="edge29" class="edge"><title>Node17&#45;&gt;Node12</title>
<path fill="none" stroke="midnightblue" d="M918.204,-290.969C942.66,-284.19 972.057,-272.754 993,-254 1026.04,-224.415 1044.77,-174.061 1052.97,-146.827"/>
<polygon fill="midnightblue" stroke="midnightblue" points="1056.39,-147.578 1055.76,-137.002 1049.66,-145.661 1056.39,-147.578"/>
</g>
<!-- Node18&#45;&gt;Node3 -->
<g id="edge24" class="edge"><title>Node18&#45;&gt;Node3</title>
<path fill="none" stroke="midnightblue" d="M737.908,-237.134C788.273,-227.881 881.277,-202.546 922,-138 933.81,-119.28 914.286,-98.7991 896.495,-85.2586"/>
<polygon fill="midnightblue" stroke="midnightblue" points="898.213,-82.184 888.045,-79.2071 894.137,-87.8752 898.213,-82.184"/>
</g>
<!-- Node18&#45;&gt;Node7 -->
<g id="edge25" class="edge"><title>Node18&#45;&gt;Node7</title>
<path fill="none" stroke="midnightblue" d="M690.129,-232.753C677.041,-224.027 657.208,-210.805 641.969,-200.646"/>
<polygon fill="midnightblue" stroke="midnightblue" points="643.875,-197.71 633.613,-195.075 639.992,-203.534 643.875,-197.71"/>
</g>
<!-- Node19 -->
<g id="node19" class="node"><title>Node19</title>
<polygon fill="white" stroke="#bfbfbf" points="680.828,-175 680.828,-195 735.172,-195 735.172,-175 680.828,-175"/>
<text text-anchor="middle" x="708" y="-181" font-family="Helvetica,sans-Serif" font-size="10.00">iostream</text>
</g>
<!-- Node18&#45;&gt;Node19 -->
<g id="edge26" class="edge"><title>Node18&#45;&gt;Node19</title>
<path fill="none" stroke="midnightblue" d="M704.661,-232.753C705.196,-225.25 705.97,-214.424 706.637,-205.078"/>
<polygon fill="midnightblue" stroke="midnightblue" points="710.13,-205.299 707.352,-195.075 703.148,-204.8 710.13,-205.299"/>
</g>
<!-- Node20&#45;&gt;Node3 -->
<g id="edge31" class="edge"><title>Node20&#45;&gt;Node3</title>
<path fill="none" stroke="midnightblue" d="M567.974,-295.312C434.644,-281.483 98.7278,-234.176 209,-116 250.429,-71.6018 671.509,-69.1011 820.835,-69.6271"/>
<polygon fill="midnightblue" stroke="midnightblue" points="821.093,-73.1281 831.107,-69.6697 821.122,-66.1282 821.093,-73.1281"/>
</g>
<!-- Node20&#45;&gt;Node18 -->
<g id="edge32" class="edge"><title>Node20&#45;&gt;Node18</title>
<path fill="none" stroke="midnightblue" d="M633.871,-290.753C646.959,-282.027 666.792,-268.805 682.031,-258.646"/>
<polygon fill="midnightblue" stroke="midnightblue" points="684.008,-261.534 690.387,-253.075 680.125,-255.71 684.008,-261.534"/>
</g>
<!-- Node20&#45;&gt;Node7 -->
<g id="edge33" class="edge"><title>Node20&#45;&gt;Node7</title>
<path fill="none" stroke="midnightblue" d="M620,-290.671C620,-272.041 620,-229.898 620,-205.143"/>
<polygon fill="midnightblue" stroke="midnightblue" points="623.5,-205.139 620,-195.139 616.5,-205.139 623.5,-205.139"/>
</g>
<!-- Node20&#45;&gt;Node11 -->
<g id="edge34" class="edge"><title>Node20&#45;&gt;Node11</title>
<path fill="none" stroke="midnightblue" d="M568.185,-299.596C497.598,-297.648 368.092,-289.061 264,-254 165.888,-220.954 113.868,-227.598 62,-138 53.1561,-122.723 59.013,-102.67 65.645,-88.3062"/>
<polygon fill="midnightblue" stroke="midnightblue" points="68.9671,-89.4977 70.4119,-79.0018 62.7372,-86.3058 68.9671,-89.4977"/>
</g>
<!-- Node21&#45;&gt;Node11 -->
<g id="edge37" class="edge"><title>Node21&#45;&gt;Node11</title>
<path fill="none" stroke="midnightblue" d="M831.404,-357.897C728.154,-356.131 462.478,-342.6 264,-254 180.958,-216.93 113.357,-126.204 87.4186,-87.7214"/>
<polygon fill="midnightblue" stroke="midnightblue" points="90.1719,-85.5395 81.7376,-79.1276 84.3325,-89.3998 90.1719,-85.5395"/>
</g>
<!-- Node21&#45;&gt;Node10 -->
<g id="edge38" class="edge"><title>Node21&#45;&gt;Node10</title>
<path fill="none" stroke="midnightblue" d="M918.294,-356.469C988.217,-353.111 1121.66,-342.751 1156,-312 1179.38,-291.067 1175,-275.38 1175,-244 1175,-244 1175,-244 1175,-184 1175,-150.798 1175,-112.157 1175,-89.4623"/>
<polygon fill="midnightblue" stroke="midnightblue" points="1178.5,-89.1616 1175,-79.1617 1171.5,-89.1617 1178.5,-89.1616"/>
</g>
<!-- Node21&#45;&gt;Node3 -->
<g id="edge39" class="edge"><title>Node21&#45;&gt;Node3</title>
<path fill="none" stroke="midnightblue" d="M897.992,-348.947C972.785,-318.247 1199.74,-214.515 1118,-116 1105.76,-101.249 993.134,-84.8852 924.921,-76.2047"/>
<polygon fill="midnightblue" stroke="midnightblue" points="925.145,-72.7054 914.786,-74.9299 924.271,-79.6507 925.145,-72.7054"/>
</g>
<!-- Node21&#45;&gt;Node18 -->
<g id="edge40" class="edge"><title>Node21&#45;&gt;Node18</title>
<path fill="none" stroke="midnightblue" d="M861.295,-348.864C831.779,-329.186 761.973,-282.649 726.111,-258.741"/>
<polygon fill="midnightblue" stroke="midnightblue" points="728.032,-255.815 717.77,-253.18 724.149,-261.639 728.032,-255.815"/>
</g>
<!-- Node21&#45;&gt;Node17 -->
<g id="edge41" class="edge"><title>Node21&#45;&gt;Node17</title>
<path fill="none" stroke="midnightblue" d="M874.67,-348.753C874.402,-341.25 874.015,-330.424 873.681,-321.078"/>
<polygon fill="midnightblue" stroke="midnightblue" points="877.179,-320.944 873.324,-311.075 870.183,-321.194 877.179,-320.944"/>
</g>
<!-- Node22 -->
<g id="node22" class="node"><title>Node22</title>
<polygon fill="white" stroke="#bfbfbf" points="1032.8,-291 1032.8,-311 1147.2,-311 1147.2,-291 1032.8,-291"/>
<text text-anchor="middle" x="1090" y="-297" font-family="Helvetica,sans-Serif" font-size="10.00">boost/lexical_cast.hpp</text>
</g>
<!-- Node21&#45;&gt;Node22 -->
<g id="edge42" class="edge"><title>Node21&#45;&gt;Node22</title>
<path fill="none" stroke="midnightblue" d="M910.022,-348.878C946.989,-339.249 1005.36,-324.046 1045.55,-313.578"/>
<polygon fill="midnightblue" stroke="midnightblue" points="1046.55,-316.933 1055.35,-311.025 1044.79,-310.159 1046.55,-316.933"/>
</g>
</g>
</svg>
        <g id="navigator" transform="translate(0 0)" fill="#404254">
                <rect fill="#f2f5e9" fill-opacity="0.5" stroke="#606060" stroke-width=".5" x="0" y="0" width="60" height="60"/>
                <use id="zoomplus" xlink:href="#zoomPlus" x="17" y="9" onmousedown="handleZoom(evt,'in')"/>
                <use id="zoomminus" xlink:href="#zoomMin" x="42" y="9" onmousedown="handleZoom(evt,'out')"/>
                <use id="reset" xlink:href="#resetDef" x="30" y="36" onmousedown="handleReset()"/>
                <g id="arrowUp" xlink:href="#dirArrow" transform="translate(30 24)" onmousedown="handlePan(0,-1)">
                  <use xlink:href="#rim" fill="#404040">
                        <set attributeName="fill" to="#808080" begin="arrowUp.mouseover" end="arrowUp.mouseout"/>
                  </use>
                  <path fill="none" stroke="white" stroke-width="1.5" d="M0,-3.0v7 M-2.5,-0.5L0,-3.0L2.5,-0.5"/>
                </g>
                <g id="arrowRight" xlink:href="#dirArrow" transform="rotate(90) translate(36 -43)" onmousedown="handlePan(1,0)">
                  <use xlink:href="#rim" fill="#404040">
                        <set attributeName="fill" to="#808080" begin="arrowRight.mouseover" end="arrowRight.mouseout"/>
                  </use>
                  <path fill="none" stroke="white" stroke-width="1.5" d="M0,-3.0v7 M-2.5,-0.5L0,-3.0L2.5,-0.5"/>
                </g>
                <g id="arrowDown" xlink:href="#dirArrow" transform="rotate(180) translate(-30 -48)" onmousedown="handlePan(0,1)">
                  <use xlink:href="#rim" fill="#404040">
                        <set attributeName="fill" to="#808080" begin="arrowDown.mouseover" end="arrowDown.mouseout"/>
                  </use>
                  <path fill="none" stroke="white" stroke-width="1.5" d="M0,-3.0v7 M-2.5,-0.5L0,-3.0L2.5,-0.5"/>
                </g>
                <g id="arrowLeft" xlink:href="#dirArrow" transform="rotate(270) translate(-36 17)" onmousedown="handlePan(-1,0)">
                  <use xlink:href="#rim" fill="#404040">
                        <set attributeName="fill" to="#808080" begin="arrowLeft.mouseover" end="arrowLeft.mouseout"/>
                  </use>
                  <path fill="none" stroke="white" stroke-width="1.5" d="M0,-3.0v7 M-2.5,-0.5L0,-3.0L2.5,-0.5"/>
                </g>
        </g>
        <svg viewBox="0 0 15 15" width="100%" height="30px" preserveAspectRatio="xMaxYMin meet">
         <g id="arrow_out" transform="scale(0.3 0.3)">
          <a xlink:href="_xml_8cpp__incl_org.svg" target="_base">
           <rect id="button" ry="5" rx="5" y="6" x="6" height="38" width="38"
                fill="#f2f5e9" fill-opacity="0.5" stroke="#606060" stroke-width="1.0"/>
           <path id="arrow"
             d="M 11.500037,31.436501 C 11.940474,20.09759 22.043105,11.32322 32.158766,21.979434 L 37.068811,17.246167 C 37.068811,17.246167 37.088388,32 37.088388,32 L 22.160133,31.978069 C 22.160133,31.978069 26.997745,27.140456 26.997745,27.140456 C 18.528582,18.264221 13.291696,25.230495 11.500037,31.436501 z"
             style="fill:#404040;"/>
          </a>
         </g>
        </svg>
</svg>
