<?xml version="1.0" encoding="UTF-8" standalone="no"?>
<!DOCTYPE svg PUBLIC "-//W3C//DTD SVG 1.1//EN"
 "http://www.w3.org/Graphics/SVG/1.1/DTD/svg11.dtd">
<!-- Generated by graphviz version 2.30.1 (20140712.1814)
 -->
<!-- Title: include/cinder/Xml.h Pages: 1 -->
<!--zoomable 436 -->
<svg id="main" version="1.1" xmlns="http://www.w3.org/2000/svg" xmlns:xlink="http://www.w3.org/1999/xlink" xml:space="preserve" onload="init(evt)">
<style type="text/css"><![CDATA[
.edge:hover path { stroke: red; }
.edge:hover polygon { stroke: red; fill: red; }
]]></style>
<script type="text/javascript"><![CDATA[
var edges = document.getElementsByTagName('g');
if (edges && edges.length) {
  for (var i=0;i<edges.length;i++) {
    if (edges[i].id.substr(0,4)=='edge') {
      edges[i].setAttribute('class','edge');
    }
  }
}
]]></script>
        <defs>
                <circle id="rim" cx="0" cy="0" r="7"/>
                <circle id="rim2" cx="0" cy="0" r="3.5"/>
                <g id="zoomPlus">
                        <use xlink:href="#rim" fill="#404040">
                                <set attributeName="fill" to="#808080" begin="zoomplus.mouseover" end="zoomplus.mouseout"/>
                        </use>
                        <path d="M-4,0h8M0,-4v8" fill="none" stroke="white" stroke-width="1.5" pointer-events="none"/>
                </g>
                <g id="zoomMin">
                        <use xlink:href="#rim" fill="#404040">
                                <set attributeName="fill" to="#808080" begin="zoomminus.mouseover" end="zoomminus.mouseout"/>
                        </use>
                        <path d="M-4,0h8" fill="none" stroke="white" stroke-width="1.5" pointer-events="none"/>
                </g>
                <g id="dirArrow">
                        <path fill="none" stroke="white" stroke-width="1.5" d="M0,-3.0v7 M-2.5,-0.5L0,-3.0L2.5,-0.5"/>
                </g>
               <g id="resetDef">
                       <use xlink:href="#rim2" fill="#404040">
                               <set attributeName="fill" to="#808080" begin="reset.mouseover" end="reset.mouseout"/>
                       </use>
               </g>
        </defs>

<script type="text/javascript">
var viewWidth = 1261;
var viewHeight = 436;
var sectionId = 'dynsection-0';
</script>
<script xlink:href="svgpan.js"/>
<svg id="graph" class="graph">
<g id="viewport">
<title>include/cinder/Xml.h</title>
<polygon fill="white" stroke="white" points="-4,5 -4,-432 1258.35,-432 1258.35,5 -4,5"/>
<!-- Node1 -->
<g id="node1" class="node"><title>Node1</title>
<polygon fill="#bfbfbf" stroke="black" points="840.326,-407 840.326,-427 946.37,-427 946.37,-407 840.326,-407"/>
<text text-anchor="middle" x="893.348" y="-413" font-family="Helvetica,sans-Serif" font-size="10.00">include/cinder/Xml.h</text>
</g>
<!-- Node2 -->
<g id="node2" class="node"><title>Node2</title>
<g id="a_node2"><a xlink:href="_cinder_8h.html" target="_top" xlink:title="cinder/Cinder.h">
<polygon fill="white" stroke="black" points="715.716,-59 715.716,-79 798.981,-79 798.981,-59 715.716,-59"/>
<text text-anchor="middle" x="757.348" y="-65" font-family="Helvetica,sans-Serif" font-size="10.00">cinder/Cinder.h</text>
</a>
</g>
</g>
<!-- Node1&#45;&gt;Node2 -->
<g id="edge1" class="edge"><title>Node1&#45;&gt;Node2</title>
<path fill="none" stroke="midnightblue" d="M840.221,-414.834C648.19,-409.928 1.34837,-387.086 1.34837,-302 1.34837,-302 1.34837,-302 1.34837,-184 1.34837,-152.62 -4.04511,-135.74 20.3484,-116 73.3124,-73.1408 546.523,-69.7422 705.512,-69.8222"/>
<polygon fill="midnightblue" stroke="midnightblue" points="705.519,-73.3221 715.522,-69.8321 705.526,-66.3221 705.519,-73.3221"/>
</g>
<!-- Node6 -->
<g id="node6" class="node"><title>Node6</title>
<g id="a_node6"><a xlink:href="_stream_8h.html" target="_top" xlink:title="cinder/Stream.h">
<polygon fill="white" stroke="black" points="609.055,-175 609.055,-195 695.641,-195 695.641,-175 609.055,-175"/>
<text text-anchor="middle" x="652.348" y="-181" font-family="Helvetica,sans-Serif" font-size="10.00">cinder/Stream.h</text>
</a>
</g>
</g>
<!-- Node1&#45;&gt;Node6 -->
<g id="edge5" class="edge"><title>Node1&#45;&gt;Node6</title>
<path fill="none" stroke="midnightblue" d="M882.249,-406.832C860.879,-389.065 812.736,-348.477 774.348,-312 734.488,-274.124 690.155,-226.986 667.495,-202.5"/>
<polygon fill="midnightblue" stroke="midnightblue" points="670.032,-200.088 660.679,-195.111 664.887,-204.834 670.032,-200.088"/>
</g>
<!-- Node16 -->
<g id="node16" class="node"><title>Node16</title>
<g id="a_node16"><a xlink:href="_data_source_8h.html" target="_top" xlink:title="cinder/DataSource.h">
<polygon fill="white" stroke="black" points="573.767,-291 573.767,-311 680.929,-311 680.929,-291 573.767,-291"/>
<text text-anchor="middle" x="627.348" y="-297" font-family="Helvetica,sans-Serif" font-size="10.00">cinder/DataSource.h</text>
</a>
</g>
</g>
<!-- Node1&#45;&gt;Node16 -->
<g id="edge20" class="edge"><title>Node1&#45;&gt;Node16</title>
<path fill="none" stroke="midnightblue" d="M840.045,-411.673C798.461,-406.455 740.395,-395.01 695.348,-370 672.653,-357.399 652.442,-335.02 640.069,-319.39"/>
<polygon fill="midnightblue" stroke="midnightblue" points="642.582,-316.914 633.731,-311.091 637.019,-321.163 642.582,-316.914"/>
</g>
<!-- Node19 -->
<g id="node19" class="node"><title>Node19</title>
<g id="a_node19"><a xlink:href="_data_target_8h.html" target="_top" xlink:title="cinder/DataTarget.h">
<polygon fill="white" stroke="black" points="799.713,-291 799.713,-311 902.984,-311 902.984,-291 799.713,-291"/>
<text text-anchor="middle" x="851.348" y="-297" font-family="Helvetica,sans-Serif" font-size="10.00">cinder/DataTarget.h</text>
</a>
</g>
</g>
<!-- Node1&#45;&gt;Node19 -->
<g id="edge29" class="edge"><title>Node1&#45;&gt;Node19</title>
<path fill="none" stroke="midnightblue" d="M889.911,-406.671C883.017,-387.957 867.381,-345.517 858.278,-320.809"/>
<polygon fill="midnightblue" stroke="midnightblue" points="861.457,-319.313 854.716,-311.139 854.888,-321.733 861.457,-319.313"/>
</g>
<!-- Node8 -->
<g id="node8" class="node"><title>Node8</title>
<g id="a_node8"><a xlink:href="_exception_8h.html" target="_top" xlink:title="cinder/Exception.h">
<polygon fill="white" stroke="black" points="975.213,-117 975.213,-137 1073.48,-137 1073.48,-117 975.213,-117"/>
<text text-anchor="middle" x="1024.35" y="-123" font-family="Helvetica,sans-Serif" font-size="10.00">cinder/Exception.h</text>
</a>
</g>
</g>
<!-- Node1&#45;&gt;Node8 -->
<g id="edge34" class="edge"><title>Node1&#45;&gt;Node8</title>
<path fill="none" stroke="midnightblue" d="M941.525,-406.979C1022.55,-390.417 1177.35,-352.207 1177.35,-302 1177.35,-302 1177.35,-302 1177.35,-242 1177.35,-187.376 1113.87,-155.823 1068.68,-140.283"/>
<polygon fill="midnightblue" stroke="midnightblue" points="1069.66,-136.919 1059.07,-137.118 1067.47,-143.568 1069.66,-136.919"/>
</g>
<!-- Node20 -->
<g id="node20" class="node"><title>Node20</title>
<g id="a_node20"><a xlink:href="_utilities_8h.html" target="_top" xlink:title="cinder/Utilities.h">
<polygon fill="white" stroke="black" points="888.058,-349 888.058,-369 974.639,-369 974.639,-349 888.058,-349"/>
<text text-anchor="middle" x="931.348" y="-355" font-family="Helvetica,sans-Serif" font-size="10.00">cinder/Utilities.h</text>
</a>
</g>
</g>
<!-- Node1&#45;&gt;Node20 -->
<g id="edge35" class="edge"><title>Node1&#45;&gt;Node20</title>
<path fill="none" stroke="midnightblue" d="M899.623,-406.753C904.991,-398.843 912.866,-387.237 919.427,-377.568"/>
<polygon fill="midnightblue" stroke="midnightblue" points="922.471,-379.315 925.19,-369.075 916.679,-375.385 922.471,-379.315"/>
</g>
<!-- Node10 -->
<g id="node10" class="node"><title>Node10</title>
<polygon fill="white" stroke="#bfbfbf" points="1004.12,-59 1004.12,-79 1044.57,-79 1044.57,-59 1004.12,-59"/>
<text text-anchor="middle" x="1024.35" y="-65" font-family="Helvetica,sans-Serif" font-size="10.00">string</text>
</g>
<!-- Node1&#45;&gt;Node10 -->
<g id="edge42" class="edge"><title>Node1&#45;&gt;Node10</title>
<path fill="none" stroke="midnightblue" d="M946.687,-411.846C994.397,-406.626 1065.38,-395.085 1122.35,-370 1169.21,-349.365 1215.35,-353.204 1215.35,-302 1215.35,-302 1215.35,-302 1215.35,-242 1215.35,-156.302 1107.86,-102.385 1054.15,-80.7947"/>
<polygon fill="midnightblue" stroke="midnightblue" points="1055.38,-77.5154 1044.79,-77.1392 1052.83,-84.0361 1055.38,-77.5154"/>
</g>
<!-- Node9 -->
<g id="node9" class="node"><title>Node9</title>
<polygon fill="white" stroke="#bfbfbf" points="1155.73,-59 1155.73,-79 1198.96,-79 1198.96,-59 1155.73,-59"/>
<text text-anchor="middle" x="1177.35" y="-65" font-family="Helvetica,sans-Serif" font-size="10.00">vector</text>
</g>
<!-- Node1&#45;&gt;Node9 -->
<g id="edge43" class="edge"><title>Node1&#45;&gt;Node9</title>
<path fill="none" stroke="midnightblue" d="M946.582,-414.853C1003.49,-411.882 1095.26,-401.991 1167.35,-370 1211.89,-350.234 1253.35,-350.727 1253.35,-302 1253.35,-302 1253.35,-302 1253.35,-184 1253.35,-143.325 1219.44,-106.124 1196.92,-85.9052"/>
<polygon fill="midnightblue" stroke="midnightblue" points="1199.08,-83.1429 1189.22,-79.2493 1194.5,-88.4378 1199.08,-83.1429"/>
</g>
<!-- Node3 -->
<g id="node3" class="node"><title>Node3</title>
<polygon fill="white" stroke="#bfbfbf" points="646.898,-1 646.898,-21 691.799,-21 691.799,-1 646.898,-1"/>
<text text-anchor="middle" x="669.348" y="-7" font-family="Helvetica,sans-Serif" font-size="10.00">cstdint</text>
</g>
<!-- Node2&#45;&gt;Node3 -->
<g id="edge2" class="edge"><title>Node2&#45;&gt;Node3</title>
<path fill="none" stroke="midnightblue" d="M742.817,-58.7527C729.105,-50.0272 708.328,-36.8051 692.363,-26.6458"/>
<polygon fill="midnightblue" stroke="midnightblue" points="693.925,-23.4912 683.609,-21.0752 690.167,-29.3968 693.925,-23.4912"/>
</g>
<!-- Node4 -->
<g id="node4" class="node"><title>Node4</title>
<polygon fill="white" stroke="#bfbfbf" points="709.878,-1 709.878,-21 804.819,-21 804.819,-1 709.878,-1"/>
<text text-anchor="middle" x="757.348" y="-7" font-family="Helvetica,sans-Serif" font-size="10.00">boost/version.hpp</text>
</g>
<!-- Node2&#45;&gt;Node4 -->
<g id="edge3" class="edge"><title>Node2&#45;&gt;Node4</title>
<path fill="none" stroke="midnightblue" d="M757.348,-58.7527C757.348,-51.2504 757.348,-40.4238 757.348,-31.0781"/>
<polygon fill="midnightblue" stroke="midnightblue" points="760.848,-31.0752 757.348,-21.0752 753.848,-31.0752 760.848,-31.0752"/>
</g>
<!-- Node5 -->
<g id="node5" class="node"><title>Node5</title>
<polygon fill="white" stroke="#bfbfbf" points="822.969,-1 822.969,-21 955.727,-21 955.727,-1 822.969,-1"/>
<text text-anchor="middle" x="889.348" y="-7" font-family="Helvetica,sans-Serif" font-size="10.00">boost/checked_delete.hpp</text>
</g>
<!-- Node2&#45;&gt;Node5 -->
<g id="edge4" class="edge"><title>Node2&#45;&gt;Node5</title>
<path fill="none" stroke="midnightblue" d="M778.85,-58.878C800.52,-49.6848 834.169,-35.4095 858.644,-25.0263"/>
<polygon fill="midnightblue" stroke="midnightblue" points="860.017,-28.2457 867.856,-21.1181 857.283,-21.8016 860.017,-28.2457"/>
</g>
<!-- Node6&#45;&gt;Node2 -->
<g id="edge6" class="edge"><title>Node6&#45;&gt;Node2</title>
<path fill="none" stroke="midnightblue" d="M681.406,-174.846C699.9,-167.612 722.992,-155.738 737.348,-138 748.576,-124.127 753.501,-104.148 755.661,-89.4342"/>
<polygon fill="midnightblue" stroke="midnightblue" points="759.15,-89.7352 756.833,-79.3969 752.197,-88.9237 759.15,-89.7352"/>
</g>
<!-- Node7 -->
<g id="node7" class="node"><title>Node7</title>
<g id="a_node7"><a xlink:href="_buffer_8h.html" target="_top" xlink:title="cinder/Buffer.h">
<polygon fill="white" stroke="black" points="187.193,-117 187.193,-137 267.504,-137 267.504,-117 187.193,-117"/>
<text text-anchor="middle" x="227.348" y="-123" font-family="Helvetica,sans-Serif" font-size="10.00">cinder/Buffer.h</text>
</a>
</g>
</g>
<!-- Node6&#45;&gt;Node7 -->
<g id="edge7" class="edge"><title>Node6&#45;&gt;Node7</title>
<path fill="none" stroke="midnightblue" d="M609.051,-179.835C540.778,-173.019 403.739,-158.341 277.878,-138.148"/>
<polygon fill="midnightblue" stroke="midnightblue" points="278.109,-134.64 267.678,-136.495 276.99,-141.55 278.109,-134.64"/>
</g>
<!-- Node6&#45;&gt;Node8 -->
<g id="edge9" class="edge"><title>Node6&#45;&gt;Node8</title>
<path fill="none" stroke="midnightblue" d="M695.732,-175.498C698.645,-174.976 701.538,-174.472 704.348,-174 795.112,-158.758 900.893,-144.169 965.214,-135.65"/>
<polygon fill="midnightblue" stroke="midnightblue" points="965.716,-139.114 975.172,-134.335 964.8,-132.174 965.716,-139.114"/>
</g>
<!-- Node11 -->
<g id="node11" class="node"><title>Node11</title>
<g id="a_node11"><a xlink:href="_filesystem_8h.html" target="_top" xlink:title="cinder/Filesystem.h">
<polygon fill="white" stroke="black" points="29.2795,-117 29.2795,-137 131.417,-137 131.417,-117 29.2795,-117"/>
<text text-anchor="middle" x="80.3484" y="-123" font-family="Helvetica,sans-Serif" font-size="10.00">cinder/Filesystem.h</text>
</a>
</g>
</g>
<!-- Node6&#45;&gt;Node11 -->
<g id="edge13" class="edge"><title>Node6&#45;&gt;Node11</title>
<path fill="none" stroke="midnightblue" d="M608.883,-179.854C525.421,-171.878 336.927,-153.785 178.348,-138 166.449,-136.815 153.739,-135.532 141.549,-134.292"/>
<polygon fill="midnightblue" stroke="midnightblue" points="141.764,-130.796 131.46,-133.264 141.054,-137.76 141.764,-130.796"/>
</g>
<!-- Node13 -->
<g id="node13" class="node"><title>Node13</title>
<polygon fill="white" stroke="#bfbfbf" points="285.639,-117 285.639,-137 405.057,-137 405.057,-117 285.639,-117"/>
<text text-anchor="middle" x="345.348" y="-123" font-family="Helvetica,sans-Serif" font-size="10.00">boost/noncopyable.hpp</text>
</g>
<!-- Node6&#45;&gt;Node13 -->
<g id="edge16" class="edge"><title>Node6&#45;&gt;Node13</title>
<path fill="none" stroke="midnightblue" d="M609.014,-176.095C555.657,-166.362 464.764,-149.783 404.882,-138.86"/>
<polygon fill="midnightblue" stroke="midnightblue" points="405.28,-135.374 394.814,-137.023 404.023,-142.261 405.28,-135.374"/>
</g>
<!-- Node6&#45;&gt;Node10 -->
<g id="edge17" class="edge"><title>Node6&#45;&gt;Node10</title>
<path fill="none" stroke="midnightblue" d="M681.85,-174.959C751.155,-153.721 923.783,-100.818 993.961,-79.3124"/>
<polygon fill="midnightblue" stroke="midnightblue" points="995.395,-82.5336 1003.93,-76.2571 993.344,-75.8408 995.395,-82.5336"/>
</g>
<!-- Node14 -->
<g id="node14" class="node"><title>Node14</title>
<polygon fill="white" stroke="#bfbfbf" points="422.923,-117 422.923,-137 571.774,-137 571.774,-117 422.923,-117"/>
<text text-anchor="middle" x="497.348" y="-123" font-family="Helvetica,sans-Serif" font-size="10.00">boost/iostreams/concepts.hpp</text>
</g>
<!-- Node6&#45;&gt;Node14 -->
<g id="edge18" class="edge"><title>Node6&#45;&gt;Node14</title>
<path fill="none" stroke="midnightblue" d="M627.1,-174.878C601.24,-165.535 560.851,-150.943 532.007,-140.522"/>
<polygon fill="midnightblue" stroke="midnightblue" points="532.923,-137.132 522.329,-137.025 530.545,-143.715 532.923,-137.132"/>
</g>
<!-- Node15 -->
<g id="node15" class="node"><title>Node15</title>
<polygon fill="white" stroke="#bfbfbf" points="589.654,-117 589.654,-137 729.043,-137 729.043,-117 589.654,-117"/>
<text text-anchor="middle" x="659.348" y="-123" font-family="Helvetica,sans-Serif" font-size="10.00">boost/iostreams/stream.hpp</text>
</g>
<!-- Node6&#45;&gt;Node15 -->
<g id="edge19" class="edge"><title>Node6&#45;&gt;Node15</title>
<path fill="none" stroke="midnightblue" d="M653.504,-174.753C654.442,-167.25 655.795,-156.424 656.964,-147.078"/>
<polygon fill="midnightblue" stroke="midnightblue" points="660.447,-147.432 658.214,-137.075 653.501,-146.564 660.447,-147.432"/>
</g>
<!-- Node7&#45;&gt;Node2 -->
<g id="edge8" class="edge"><title>Node7&#45;&gt;Node2</title>
<path fill="none" stroke="midnightblue" d="M267.665,-117.42C270.597,-116.904 273.515,-116.423 276.348,-116 431.772,-92.7753 617.296,-78.9085 705.64,-73.1404"/>
<polygon fill="midnightblue" stroke="midnightblue" points="705.915,-76.6301 715.669,-72.4933 705.464,-69.6446 705.915,-76.6301"/>
</g>
<!-- Node8&#45;&gt;Node2 -->
<g id="edge10" class="edge"><title>Node8&#45;&gt;Node2</title>
<path fill="none" stroke="midnightblue" d="M981.153,-116.94C934.207,-107.094 859.211,-91.3645 809.138,-80.8623"/>
<polygon fill="midnightblue" stroke="midnightblue" points="809.667,-77.397 799.161,-78.7697 808.23,-84.248 809.667,-77.397"/>
</g>
<!-- Node8&#45;&gt;Node9 -->
<g id="edge11" class="edge"><title>Node8&#45;&gt;Node9</title>
<path fill="none" stroke="midnightblue" d="M1049.27,-116.878C1075.63,-107.23 1117.28,-91.9848 1145.89,-81.5152"/>
<polygon fill="midnightblue" stroke="midnightblue" points="1147.23,-84.7521 1155.41,-78.0281 1144.82,-78.1785 1147.23,-84.7521"/>
</g>
<!-- Node8&#45;&gt;Node10 -->
<g id="edge12" class="edge"><title>Node8&#45;&gt;Node10</title>
<path fill="none" stroke="midnightblue" d="M1024.35,-116.753C1024.35,-109.25 1024.35,-98.4238 1024.35,-89.0781"/>
<polygon fill="midnightblue" stroke="midnightblue" points="1027.85,-89.0752 1024.35,-79.0752 1020.85,-89.0752 1027.85,-89.0752"/>
</g>
<!-- Node11&#45;&gt;Node2 -->
<g id="edge14" class="edge"><title>Node11&#45;&gt;Node2</title>
<path fill="none" stroke="midnightblue" d="M131.746,-117.716C136.34,-117.09 140.924,-116.506 145.348,-116 352.295,-92.3398 600.058,-77.9908 705.622,-72.5294"/>
<polygon fill="midnightblue" stroke="midnightblue" points="705.88,-76.0209 715.688,-72.0134 705.522,-69.03 705.88,-76.0209"/>
</g>
<!-- Node12 -->
<g id="node12" class="node"><title>Node12</title>
<polygon fill="white" stroke="#bfbfbf" points="26.7698,-59 26.7698,-79 133.927,-79 133.927,-59 26.7698,-59"/>
<text text-anchor="middle" x="80.3484" y="-65" font-family="Helvetica,sans-Serif" font-size="10.00">boost/filesystem.hpp</text>
</g>
<!-- Node11&#45;&gt;Node12 -->
<g id="edge15" class="edge"><title>Node11&#45;&gt;Node12</title>
<path fill="none" stroke="midnightblue" d="M80.3484,-116.753C80.3484,-109.25 80.3484,-98.4238 80.3484,-89.0781"/>
<polygon fill="midnightblue" stroke="midnightblue" points="83.8485,-89.0752 80.3484,-79.0752 76.8485,-89.0752 83.8485,-89.0752"/>
</g>
<!-- Node16&#45;&gt;Node2 -->
<g id="edge21" class="edge"><title>Node16&#45;&gt;Node2</title>
<path fill="none" stroke="midnightblue" d="M573.631,-296.615C430.619,-285.786 59.3816,-244.793 178.348,-116 213.733,-77.6932 569.988,-71.2585 705.45,-70.1997"/>
<polygon fill="midnightblue" stroke="midnightblue" points="705.603,-73.6988 715.578,-70.1274 705.553,-66.699 705.603,-73.6988"/>
</g>
<!-- Node17 -->
<g id="node17" class="node"><title>Node17</title>
<g id="a_node17"><a xlink:href="_url_8h.html" target="_top" xlink:title="cinder/Url.h">
<polygon fill="white" stroke="black" points="737.784,-233 737.784,-253 804.912,-253 804.912,-233 737.784,-233"/>
<text text-anchor="middle" x="771.348" y="-239" font-family="Helvetica,sans-Serif" font-size="10.00">cinder/Url.h</text>
</a>
</g>
</g>
<!-- Node16&#45;&gt;Node17 -->
<g id="edge22" class="edge"><title>Node16&#45;&gt;Node17</title>
<path fill="none" stroke="midnightblue" d="M650.805,-290.878C674.654,-281.603 711.803,-267.156 738.559,-256.752"/>
<polygon fill="midnightblue" stroke="midnightblue" points="739.85,-260.005 747.902,-253.118 737.313,-253.481 739.85,-260.005"/>
</g>
<!-- Node16&#45;&gt;Node7 -->
<g id="edge26" class="edge"><title>Node16&#45;&gt;Node7</title>
<path fill="none" stroke="midnightblue" d="M606.406,-290.995C540.273,-262.558 335.68,-174.583 257.838,-141.11"/>
<polygon fill="midnightblue" stroke="midnightblue" points="259.136,-137.859 248.566,-137.124 256.37,-144.289 259.136,-137.859"/>
</g>
<!-- Node16&#45;&gt;Node6 -->
<g id="edge27" class="edge"><title>Node16&#45;&gt;Node6</title>
<path fill="none" stroke="midnightblue" d="M629.394,-290.671C633.48,-272.041 642.722,-229.898 648.15,-205.143"/>
<polygon fill="midnightblue" stroke="midnightblue" points="651.621,-205.657 650.344,-195.139 644.783,-204.158 651.621,-205.657"/>
</g>
<!-- Node16&#45;&gt;Node11 -->
<g id="edge28" class="edge"><title>Node16&#45;&gt;Node11</title>
<path fill="none" stroke="midnightblue" d="M573.687,-297.761C455.455,-292.418 180.203,-277.582 145.348,-254 108.274,-228.916 91.0715,-175.885 84.2172,-147.272"/>
<polygon fill="midnightblue" stroke="midnightblue" points="87.5871,-146.3 82.0124,-137.29 80.7518,-147.81 87.5871,-146.3"/>
</g>
<!-- Node17&#45;&gt;Node2 -->
<g id="edge23" class="edge"><title>Node17&#45;&gt;Node2</title>
<path fill="none" stroke="midnightblue" d="M772.637,-232.86C773.874,-223.594 775.653,-208.834 776.348,-196 778.424,-157.688 768.967,-113.455 762.65,-88.9085"/>
<polygon fill="midnightblue" stroke="midnightblue" points="765.993,-87.8599 760.022,-79.1079 759.232,-89.6732 765.993,-87.8599"/>
</g>
<!-- Node17&#45;&gt;Node6 -->
<g id="edge24" class="edge"><title>Node17&#45;&gt;Node6</title>
<path fill="none" stroke="midnightblue" d="M751.964,-232.878C732.688,-223.807 702.897,-209.788 680.912,-199.442"/>
<polygon fill="midnightblue" stroke="midnightblue" points="682.263,-196.209 671.724,-195.118 679.282,-202.543 682.263,-196.209"/>
</g>
<!-- Node18 -->
<g id="node18" class="node"><title>Node18</title>
<polygon fill="white" stroke="#bfbfbf" points="713.176,-175 713.176,-195 767.521,-195 767.521,-175 713.176,-175"/>
<text text-anchor="middle" x="740.348" y="-181" font-family="Helvetica,sans-Serif" font-size="10.00">iostream</text>
</g>
<!-- Node17&#45;&gt;Node18 -->
<g id="edge25" class="edge"><title>Node17&#45;&gt;Node18</title>
<path fill="none" stroke="midnightblue" d="M766.229,-232.753C761.896,-224.924 755.558,-213.476 750.24,-203.868"/>
<polygon fill="midnightblue" stroke="midnightblue" points="753.277,-202.129 745.372,-195.075 747.153,-205.519 753.277,-202.129"/>
</g>
<!-- Node19&#45;&gt;Node2 -->
<g id="edge30" class="edge"><title>Node19&#45;&gt;Node2</title>
<path fill="none" stroke="midnightblue" d="M849.88,-290.606C847.671,-277.341 843.029,-252.456 836.348,-232 818.864,-178.464 811.38,-165.941 785.348,-116 780.387,-106.483 774.245,-96.2511 768.979,-87.8596"/>
<polygon fill="midnightblue" stroke="midnightblue" points="771.847,-85.8475 763.515,-79.3033 765.947,-89.6151 771.847,-85.8475"/>
</g>
<!-- Node19&#45;&gt;Node17 -->
<g id="edge31" class="edge"><title>Node19&#45;&gt;Node17</title>
<path fill="none" stroke="midnightblue" d="M838.138,-290.753C825.789,-282.109 807.137,-269.052 792.679,-258.931"/>
<polygon fill="midnightblue" stroke="midnightblue" points="794.512,-255.943 784.313,-253.075 790.498,-261.677 794.512,-255.943"/>
</g>
<!-- Node19&#45;&gt;Node6 -->
<g id="edge32" class="edge"><title>Node19&#45;&gt;Node6</title>
<path fill="none" stroke="midnightblue" d="M848.651,-290.555C843.953,-275.818 832.857,-247.448 813.348,-232 796.593,-218.732 745.971,-205.53 705.914,-196.696"/>
<polygon fill="midnightblue" stroke="midnightblue" points="706.499,-193.241 695.985,-194.546 705.018,-200.083 706.499,-193.241"/>
</g>
<!-- Node19&#45;&gt;Node10 -->
<g id="edge33" class="edge"><title>Node19&#45;&gt;Node10</title>
<path fill="none" stroke="midnightblue" d="M855.655,-290.838C869.187,-262.653 913.125,-175.541 966.348,-116 976.859,-104.241 990.621,-93.1856 1002.1,-84.861"/>
<polygon fill="midnightblue" stroke="midnightblue" points="1004.18,-87.678 1010.34,-79.061 1000.15,-81.9531 1004.18,-87.678"/>
</g>
<!-- Node20&#45;&gt;Node10 -->
<g id="edge36" class="edge"><title>Node20&#45;&gt;Node10</title>
<path fill="none" stroke="midnightblue" d="M974.85,-355.755C1008.59,-351.705 1054.2,-340.815 1082.35,-312 1104.28,-289.555 1101.35,-275.38 1101.35,-244 1101.35,-244 1101.35,-244 1101.35,-184 1101.35,-152.62 1099.71,-142.138 1082.35,-116 1073.9,-103.289 1060.82,-92.474 1049.21,-84.53"/>
<polygon fill="midnightblue" stroke="midnightblue" points="1051.02,-81.5316 1040.72,-79.031 1047.21,-87.4062 1051.02,-81.5316"/>
</g>
<!-- Node20&#45;&gt;Node9 -->
<g id="edge37" class="edge"><title>Node20&#45;&gt;Node9</title>
<path fill="none" stroke="midnightblue" d="M974.718,-357.81C1013.61,-355.292 1069.73,-345.494 1104.35,-312 1168.18,-250.247 1176.71,-134.887 1177.48,-89.2735"/>
<polygon fill="midnightblue" stroke="midnightblue" points="1180.98,-89.0478 1177.54,-79.0285 1173.98,-89.0089 1180.98,-89.0478"/>
</g>
<!-- Node20&#45;&gt;Node2 -->
<g id="edge38" class="edge"><title>Node20&#45;&gt;Node2</title>
<path fill="none" stroke="midnightblue" d="M929.833,-348.709C926.076,-327.23 915.103,-272.856 894.348,-232 863.241,-170.765 804.764,-112.786 775.293,-85.8085"/>
<polygon fill="midnightblue" stroke="midnightblue" points="777.566,-83.1452 767.797,-79.0446 772.877,-88.3423 777.566,-83.1452"/>
</g>
<!-- Node20&#45;&gt;Node17 -->
<g id="edge39" class="edge"><title>Node20&#45;&gt;Node17</title>
<path fill="none" stroke="midnightblue" d="M887.745,-354.516C856.545,-349.747 815.731,-338.496 790.348,-312 777.915,-299.022 773.491,-278.603 771.981,-263.524"/>
<polygon fill="midnightblue" stroke="midnightblue" points="775.454,-262.997 771.309,-253.246 768.469,-263.453 775.454,-262.997"/>
</g>
<!-- Node20&#45;&gt;Node16 -->
<g id="edge40" class="edge"><title>Node20&#45;&gt;Node16</title>
<path fill="none" stroke="midnightblue" d="M887.793,-349.977C834.87,-340.228 745.35,-323.737 686.293,-312.858"/>
<polygon fill="midnightblue" stroke="midnightblue" points="686.831,-309.399 676.363,-311.029 685.563,-316.283 686.831,-309.399"/>
</g>
<!-- Node21 -->
<g id="node21" class="node"><title>Node21</title>
<polygon fill="white" stroke="#bfbfbf" points="959.152,-291 959.152,-311 1073.55,-311 1073.55,-291 959.152,-291"/>
<text text-anchor="middle" x="1016.35" y="-297" font-family="Helvetica,sans-Serif" font-size="10.00">boost/lexical_cast.hpp</text>
</g>
<!-- Node20&#45;&gt;Node21 -->
<g id="edge41" class="edge"><title>Node20&#45;&gt;Node21</title>
<path fill="none" stroke="midnightblue" d="M945.384,-348.753C958.629,-340.027 978.698,-326.805 994.118,-316.646"/>
<polygon fill="midnightblue" stroke="midnightblue" points="996.148,-319.5 1002.57,-311.075 992.297,-313.654 996.148,-319.5"/>
</g>
</g>
</svg>
        <g id="navigator" transform="translate(0 0)" fill="#404254">
                <rect fill="#f2f5e9" fill-opacity="0.5" stroke="#606060" stroke-width=".5" x="0" y="0" width="60" height="60"/>
                <use id="zoomplus" xlink:href="#zoomPlus" x="17" y="9" onmousedown="handleZoom(evt,'in')"/>
                <use id="zoomminus" xlink:href="#zoomMin" x="42" y="9" onmousedown="handleZoom(evt,'out')"/>
                <use id="reset" xlink:href="#resetDef" x="30" y="36" onmousedown="handleReset()"/>
                <g id="arrowUp" xlink:href="#dirArrow" transform="translate(30 24)" onmousedown="handlePan(0,-1)">
                  <use xlink:href="#rim" fill="#404040">
                        <set attributeName="fill" to="#808080" begin="arrowUp.mouseover" end="arrowUp.mouseout"/>
                  </use>
                  <path fill="none" stroke="white" stroke-width="1.5" d="M0,-3.0v7 M-2.5,-0.5L0,-3.0L2.5,-0.5"/>
                </g>
                <g id="arrowRight" xlink:href="#dirArrow" transform="rotate(90) translate(36 -43)" onmousedown="handlePan(1,0)">
                  <use xlink:href="#rim" fill="#404040">
                        <set attributeName="fill" to="#808080" begin="arrowRight.mouseover" end="arrowRight.mouseout"/>
                  </use>
                  <path fill="none" stroke="white" stroke-width="1.5" d="M0,-3.0v7 M-2.5,-0.5L0,-3.0L2.5,-0.5"/>
                </g>
                <g id="arrowDown" xlink:href="#dirArrow" transform="rotate(180) translate(-30 -48)" onmousedown="handlePan(0,1)">
                  <use xlink:href="#rim" fill="#404040">
                        <set attributeName="fill" to="#808080" begin="arrowDown.mouseover" end="arrowDown.mouseout"/>
                  </use>
                  <path fill="none" stroke="white" stroke-width="1.5" d="M0,-3.0v7 M-2.5,-0.5L0,-3.0L2.5,-0.5"/>
                </g>
                <g id="arrowLeft" xlink:href="#dirArrow" transform="rotate(270) translate(-36 17)" onmousedown="handlePan(-1,0)">
                  <use xlink:href="#rim" fill="#404040">
                        <set attributeName="fill" to="#808080" begin="arrowLeft.mouseover" end="arrowLeft.mouseout"/>
                  </use>
                  <path fill="none" stroke="white" stroke-width="1.5" d="M0,-3.0v7 M-2.5,-0.5L0,-3.0L2.5,-0.5"/>
                </g>
        </g>
        <svg viewBox="0 0 15 15" width="100%" height="30px" preserveAspectRatio="xMaxYMin meet">
         <g id="arrow_out" transform="scale(0.3 0.3)">
          <a xlink:href="_xml_8h__incl_org.svg" target="_base">
           <rect id="button" ry="5" rx="5" y="6" x="6" height="38" width="38"
                fill="#f2f5e9" fill-opacity="0.5" stroke="#606060" stroke-width="1.0"/>
           <path id="arrow"
             d="M 11.500037,31.436501 C 11.940474,20.09759 22.043105,11.32322 32.158766,21.979434 L 37.068811,17.246167 C 37.068811,17.246167 37.088388,32 37.088388,32 L 22.160133,31.978069 C 22.160133,31.978069 26.997745,27.140456 26.997745,27.140456 C 18.528582,18.264221 13.291696,25.230495 11.500037,31.436501 z"
             style="fill:#404040;"/>
          </a>
         </g>
        </svg>
</svg>
