<?xml version="1.0" encoding="UTF-8" standalone="no"?>
<!DOCTYPE svg PUBLIC "-//W3C//DTD SVG 1.1//EN"
 "http://www.w3.org/Graphics/SVG/1.1/DTD/svg11.dtd">
<!-- Generated by graphviz version 2.30.1 (20140712.1814)
 -->
<!-- Title: include/cinder/audio/Utilities.h Pages: 1 -->
<svg width="678pt" height="100pt"
 viewBox="0.00 0.00 678.00 100.00" xmlns="http://www.w3.org/2000/svg" xmlns:xlink="http://www.w3.org/1999/xlink">
<g id="graph0" class="graph" transform="scale(1 1) rotate(0) translate(4 96)">
<title>include/cinder/audio/Utilities.h</title>
<polygon fill="white" stroke="white" points="-4,5 -4,-96 675,-96 675,5 -4,5"/>
<!-- Node1 -->
<g id="node1" class="node"><title>Node1</title>
<polygon fill="#bfbfbf" stroke="black" points="287.525,-59 287.525,-91 392.475,-91 392.475,-59 287.525,-59"/>
<text text-anchor="start" x="295.525" y="-77" font-family="Helvetica,sans-Serif" font-size="10.00">include/cinder/audio</text>
<text text-anchor="middle" x="340" y="-65" font-family="Helvetica,sans-Serif" font-size="10.00">/Utilities.h</text>
</g>
<!-- Node2 -->
<g id="node2" class="node"><title>Node2</title>
<g id="a_node2"><a xlink:href="_delay_node_8cpp.html" target="_top" xlink:title="src/cinder/audio/DelayNode.cpp">
<polygon fill="white" stroke="black" points="-0.871582,-1 -0.871582,-21 156.872,-21 156.872,-1 -0.871582,-1"/>
<text text-anchor="middle" x="78" y="-7" font-family="Helvetica,sans-Serif" font-size="10.00">src/cinder/audio/DelayNode.cpp</text>
</a>
</g>
</g>
<!-- Node1&#45;&gt;Node2 -->
<g id="edge1" class="edge"><title>Node1&#45;&gt;Node2</title>
<path fill="none" stroke="midnightblue" d="M277.522,-59.2151C227.341,-47.3401 158.49,-31.0472 116.187,-21.0367"/>
<polygon fill="midnightblue" stroke="midnightblue" points="276.758,-62.631 287.296,-61.528 278.37,-55.8191 276.758,-62.631"/>
</g>
<!-- Node3 -->
<g id="node3" class="node"><title>Node3</title>
<g id="a_node3"><a xlink:href="_output_node_8cpp.html" target="_top" xlink:title="src/cinder/audio/OutputNode.cpp">
<polygon fill="white" stroke="black" points="174.902,-1 174.902,-21 337.098,-21 337.098,-1 174.902,-1"/>
<text text-anchor="middle" x="256" y="-7" font-family="Helvetica,sans-Serif" font-size="10.00">src/cinder/audio/OutputNode.cpp</text>
</a>
</g>
</g>
<!-- Node1&#45;&gt;Node3 -->
<g id="edge2" class="edge"><title>Node1&#45;&gt;Node3</title>
<path fill="none" stroke="midnightblue" d="M311.426,-52.91C296.856,-42.1553 279.875,-29.6222 268.587,-21.2904"/>
<polygon fill="midnightblue" stroke="midnightblue" points="309.542,-55.869 319.666,-58.9915 313.699,-50.237 309.542,-55.869"/>
</g>
<!-- Node4 -->
<g id="node4" class="node"><title>Node4</title>
<g id="a_node4"><a xlink:href="audio_2_utilities_8cpp.html" target="_top" xlink:title="src/cinder/audio/Utilities.cpp">
<polygon fill="white" stroke="black" points="354.751,-1 354.751,-21 495.249,-21 495.249,-1 354.751,-1"/>
<text text-anchor="middle" x="425" y="-7" font-family="Helvetica,sans-Serif" font-size="10.00">src/cinder/audio/Utilities.cpp</text>
</a>
</g>
</g>
<!-- Node1&#45;&gt;Node4 -->
<g id="edge3" class="edge"><title>Node1&#45;&gt;Node4</title>
<path fill="none" stroke="midnightblue" d="M368.914,-52.91C383.658,-42.1553 400.841,-29.6222 412.263,-21.2904"/>
<polygon fill="midnightblue" stroke="midnightblue" points="366.593,-50.2708 360.576,-58.9915 370.718,-55.9262 366.593,-50.2708"/>
</g>
<!-- Node5 -->
<g id="node5" class="node"><title>Node5</title>
<g id="a_node5"><a xlink:href="_wave_table_8cpp.html" target="_top" xlink:title="src/cinder/audio/WaveTable.cpp">
<polygon fill="white" stroke="black" points="513.314,-1 513.314,-21 670.686,-21 670.686,-1 513.314,-1"/>
<text text-anchor="middle" x="592" y="-7" font-family="Helvetica,sans-Serif" font-size="10.00">src/cinder/audio/WaveTable.cpp</text>
</a>
</g>
</g>
<!-- Node1&#45;&gt;Node5 -->
<g id="edge4" class="edge"><title>Node1&#45;&gt;Node5</title>
<path fill="none" stroke="midnightblue" d="M402.487,-58.6263C450.442,-46.8277 515.019,-30.9397 555.055,-21.0897"/>
<polygon fill="midnightblue" stroke="midnightblue" points="401.395,-55.2904 392.521,-61.0782 403.067,-62.0877 401.395,-55.2904"/>
</g>
</g>
</svg>
