<?xml version="1.0" encoding="UTF-8" standalone="no"?>
<!DOCTYPE svg PUBLIC "-//W3C//DTD SVG 1.1//EN"
 "http://www.w3.org/Graphics/SVG/1.1/DTD/svg11.dtd">
<!-- Generated by graphviz version 2.30.1 (20140712.1814)
 -->
<!-- Title: src/cinder/audio/Utilities.cpp Pages: 1 -->
<svg width="808pt" height="262pt"
 viewBox="0.00 0.00 808.00 262.00" xmlns="http://www.w3.org/2000/svg" xmlns:xlink="http://www.w3.org/1999/xlink">
<g id="graph0" class="graph" transform="scale(1 1) rotate(0) translate(4 258)">
<title>src/cinder/audio/Utilities.cpp</title>
<polygon fill="white" stroke="white" points="-4,5 -4,-258 805,-258 805,5 -4,5"/>
<!-- Node1 -->
<g id="node1" class="node"><title>Node1</title>
<polygon fill="#bfbfbf" stroke="black" points="495.751,-233 495.751,-253 636.249,-253 636.249,-233 495.751,-233"/>
<text text-anchor="middle" x="566" y="-239" font-family="Helvetica,sans-Serif" font-size="10.00">src/cinder/audio/Utilities.cpp</text>
</g>
<!-- Node2 -->
<g id="node2" class="node"><title>Node2</title>
<g id="a_node2"><a xlink:href="audio_2_utilities_8h.html" target="_top" xlink:title="cinder/audio/Utilities.h">
<polygon fill="white" stroke="black" points="465.086,-175 465.086,-195 578.914,-195 578.914,-175 465.086,-175"/>
<text text-anchor="middle" x="522" y="-181" font-family="Helvetica,sans-Serif" font-size="10.00">cinder/audio/Utilities.h</text>
</a>
</g>
</g>
<!-- Node1&#45;&gt;Node2 -->
<g id="edge1" class="edge"><title>Node1&#45;&gt;Node2</title>
<path fill="none" stroke="midnightblue" d="M558.734,-232.753C552.391,-224.68 543.023,-212.757 535.336,-202.973"/>
<polygon fill="midnightblue" stroke="midnightblue" points="538.061,-200.776 529.131,-195.075 532.557,-205.101 538.061,-200.776"/>
</g>
<!-- Node11 -->
<g id="node11" class="node"><title>Node11</title>
<g id="a_node11"><a xlink:href="_cinder_math_8h.html" target="_top" xlink:title="cinder/CinderMath.h">
<polygon fill="white" stroke="black" points="558.978,-117 558.978,-137 665.022,-137 665.022,-117 558.978,-117"/>
<text text-anchor="middle" x="612" y="-123" font-family="Helvetica,sans-Serif" font-size="10.00">cinder/CinderMath.h</text>
</a>
</g>
</g>
<!-- Node1&#45;&gt;Node11 -->
<g id="edge20" class="edge"><title>Node1&#45;&gt;Node11</title>
<path fill="none" stroke="midnightblue" d="M570.39,-232.925C574.789,-223.711 581.656,-208.99 587,-196 593.721,-179.662 600.593,-160.783 605.426,-147.069"/>
<polygon fill="midnightblue" stroke="midnightblue" points="608.836,-147.92 608.824,-137.325 602.226,-145.615 608.836,-147.92"/>
</g>
<!-- Node3 -->
<g id="node3" class="node"><title>Node3</title>
<g id="a_node3"><a xlink:href="audio_2_buffer_8h.html" target="_top" xlink:title="cinder/audio/Buffer.h">
<polygon fill="white" stroke="black" points="256.221,-117 256.221,-137 363.779,-137 363.779,-117 256.221,-117"/>
<text text-anchor="middle" x="310" y="-123" font-family="Helvetica,sans-Serif" font-size="10.00">cinder/audio/Buffer.h</text>
</a>
</g>
</g>
<!-- Node2&#45;&gt;Node3 -->
<g id="edge2" class="edge"><title>Node2&#45;&gt;Node3</title>
<path fill="none" stroke="midnightblue" d="M487.467,-174.878C451.093,-165.27 393.704,-150.11 354.084,-139.645"/>
<polygon fill="midnightblue" stroke="midnightblue" points="354.73,-136.195 344.167,-137.025 352.942,-142.963 354.73,-136.195"/>
</g>
<!-- Node2&#45;&gt;Node11 -->
<g id="edge10" class="edge"><title>Node2&#45;&gt;Node11</title>
<path fill="none" stroke="midnightblue" d="M536.862,-174.753C551.016,-165.946 572.533,-152.558 588.919,-142.362"/>
<polygon fill="midnightblue" stroke="midnightblue" points="590.773,-145.33 597.415,-137.075 587.075,-139.387 590.773,-145.33"/>
</g>
<!-- Node20 -->
<g id="node20" class="node"><title>Node20</title>
<polygon fill="white" stroke="#bfbfbf" points="500.773,-117 500.773,-137 541.227,-137 541.227,-117 500.773,-117"/>
<text text-anchor="middle" x="521" y="-123" font-family="Helvetica,sans-Serif" font-size="10.00">string</text>
</g>
<!-- Node2&#45;&gt;Node20 -->
<g id="edge19" class="edge"><title>Node2&#45;&gt;Node20</title>
<path fill="none" stroke="midnightblue" d="M521.835,-174.753C521.701,-167.25 521.508,-156.424 521.341,-147.078"/>
<polygon fill="midnightblue" stroke="midnightblue" points="524.84,-147.011 521.162,-137.075 517.841,-147.136 524.84,-147.011"/>
</g>
<!-- Node4 -->
<g id="node4" class="node"><title>Node4</title>
<g id="a_node4"><a xlink:href="_cinder_assert_8h.html" target="_top" xlink:title="cinder/CinderAssert.h">
<polygon fill="white" stroke="black" points="58.9238,-59 58.9238,-79 171.076,-79 171.076,-59 58.9238,-59"/>
<text text-anchor="middle" x="115" y="-65" font-family="Helvetica,sans-Serif" font-size="10.00">cinder/CinderAssert.h</text>
</a>
</g>
</g>
<!-- Node3&#45;&gt;Node4 -->
<g id="edge3" class="edge"><title>Node3&#45;&gt;Node4</title>
<path fill="none" stroke="midnightblue" d="M278.236,-116.878C244.992,-107.331 192.663,-92.3033 156.247,-81.8454"/>
<polygon fill="midnightblue" stroke="midnightblue" points="157.005,-78.4216 146.427,-79.0253 155.073,-85.1496 157.005,-78.4216"/>
</g>
<!-- Node7 -->
<g id="node7" class="node"><title>Node7</title>
<polygon fill="white" stroke="#bfbfbf" points="189.384,-59 189.384,-79 232.616,-79 232.616,-59 189.384,-59"/>
<text text-anchor="middle" x="211" y="-65" font-family="Helvetica,sans-Serif" font-size="10.00">vector</text>
</g>
<!-- Node3&#45;&gt;Node7 -->
<g id="edge6" class="edge"><title>Node3&#45;&gt;Node7</title>
<path fill="none" stroke="midnightblue" d="M293.652,-116.753C277.938,-107.864 253.975,-94.3092 235.89,-84.0793"/>
<polygon fill="midnightblue" stroke="midnightblue" points="237.471,-80.9523 227.044,-79.0752 234.024,-87.0451 237.471,-80.9523"/>
</g>
<!-- Node8 -->
<g id="node8" class="node"><title>Node8</title>
<polygon fill="white" stroke="#bfbfbf" points="250.943,-59 250.943,-79 303.057,-79 303.057,-59 250.943,-59"/>
<text text-anchor="middle" x="277" y="-65" font-family="Helvetica,sans-Serif" font-size="10.00">memory</text>
</g>
<!-- Node3&#45;&gt;Node8 -->
<g id="edge7" class="edge"><title>Node3&#45;&gt;Node8</title>
<path fill="none" stroke="midnightblue" d="M304.551,-116.753C299.937,-108.924 293.191,-97.4761 287.529,-87.8679"/>
<polygon fill="midnightblue" stroke="midnightblue" points="290.44,-85.9136 282.348,-79.0752 284.409,-89.4675 290.44,-85.9136"/>
</g>
<!-- Node9 -->
<g id="node9" class="node"><title>Node9</title>
<polygon fill="white" stroke="#bfbfbf" points="320.828,-59 320.828,-79 365.172,-79 365.172,-59 320.828,-59"/>
<text text-anchor="middle" x="343" y="-65" font-family="Helvetica,sans-Serif" font-size="10.00">cstdlib</text>
</g>
<!-- Node3&#45;&gt;Node9 -->
<g id="edge8" class="edge"><title>Node3&#45;&gt;Node9</title>
<path fill="none" stroke="midnightblue" d="M315.449,-116.753C320.063,-108.924 326.809,-97.4761 332.471,-87.8679"/>
<polygon fill="midnightblue" stroke="midnightblue" points="335.591,-89.4675 337.652,-79.0752 329.56,-85.9136 335.591,-89.4675"/>
</g>
<!-- Node10 -->
<g id="node10" class="node"><title>Node10</title>
<polygon fill="white" stroke="#bfbfbf" points="383.436,-59 383.436,-79 440.564,-79 440.564,-59 383.436,-59"/>
<text text-anchor="middle" x="412" y="-65" font-family="Helvetica,sans-Serif" font-size="10.00">algorithm</text>
</g>
<!-- Node3&#45;&gt;Node10 -->
<g id="edge9" class="edge"><title>Node3&#45;&gt;Node10</title>
<path fill="none" stroke="midnightblue" d="M326.843,-116.753C343.108,-107.823 367.949,-94.1848 386.612,-83.9388"/>
<polygon fill="midnightblue" stroke="midnightblue" points="388.389,-86.9559 395.47,-79.0752 385.02,-80.8198 388.389,-86.9559"/>
</g>
<!-- Node5 -->
<g id="node5" class="node"><title>Node5</title>
<g id="a_node5"><a xlink:href="_current_function_8h.html" target="_top" xlink:title="cinder/CurrentFunction.h">
<polygon fill="white" stroke="black" points="-0.0268555,-1 -0.0268555,-21 126.027,-21 126.027,-1 -0.0268555,-1"/>
<text text-anchor="middle" x="63" y="-7" font-family="Helvetica,sans-Serif" font-size="10.00">cinder/CurrentFunction.h</text>
</a>
</g>
</g>
<!-- Node4&#45;&gt;Node5 -->
<g id="edge4" class="edge"><title>Node4&#45;&gt;Node5</title>
<path fill="none" stroke="midnightblue" d="M106.413,-58.7527C98.841,-50.598 87.6218,-38.5158 78.4856,-28.6769"/>
<polygon fill="midnightblue" stroke="midnightblue" points="80.7963,-26.0216 71.427,-21.0752 75.6667,-30.7847 80.7963,-26.0216"/>
</g>
<!-- Node6 -->
<g id="node6" class="node"><title>Node6</title>
<polygon fill="white" stroke="#bfbfbf" points="143.884,-1 143.884,-21 192.116,-21 192.116,-1 143.884,-1"/>
<text text-anchor="middle" x="168" y="-7" font-family="Helvetica,sans-Serif" font-size="10.00">cassert</text>
</g>
<!-- Node4&#45;&gt;Node6 -->
<g id="edge5" class="edge"><title>Node4&#45;&gt;Node6</title>
<path fill="none" stroke="midnightblue" d="M123.752,-58.7527C131.547,-50.5165 143.134,-38.2738 152.495,-28.3824"/>
<polygon fill="midnightblue" stroke="midnightblue" points="155.079,-30.744 159.411,-21.0752 149.995,-25.9323 155.079,-30.744"/>
</g>
<!-- Node12 -->
<g id="node12" class="node"><title>Node12</title>
<g id="a_node12"><a xlink:href="_cinder_8h.html" target="_top" xlink:title="cinder/Cinder.h">
<polygon fill="white" stroke="black" points="458.367,-59 458.367,-79 541.633,-79 541.633,-59 458.367,-59"/>
<text text-anchor="middle" x="500" y="-65" font-family="Helvetica,sans-Serif" font-size="10.00">cinder/Cinder.h</text>
</a>
</g>
</g>
<!-- Node11&#45;&gt;Node12 -->
<g id="edge11" class="edge"><title>Node11&#45;&gt;Node12</title>
<path fill="none" stroke="midnightblue" d="M593.505,-116.753C575.484,-107.742 547.871,-93.9353 527.318,-83.6589"/>
<polygon fill="midnightblue" stroke="midnightblue" points="528.66,-80.4169 518.15,-79.0752 525.529,-86.6779 528.66,-80.4169"/>
</g>
<!-- Node16 -->
<g id="node16" class="node"><title>Node16</title>
<polygon fill="white" stroke="#bfbfbf" points="559.384,-59 559.384,-79 602.616,-79 602.616,-59 559.384,-59"/>
<text text-anchor="middle" x="581" y="-65" font-family="Helvetica,sans-Serif" font-size="10.00">cmath</text>
</g>
<!-- Node11&#45;&gt;Node16 -->
<g id="edge15" class="edge"><title>Node11&#45;&gt;Node16</title>
<path fill="none" stroke="midnightblue" d="M606.881,-116.753C602.547,-108.924 596.21,-97.4761 590.891,-87.8679"/>
<polygon fill="midnightblue" stroke="midnightblue" points="593.929,-86.129 586.024,-79.0752 587.805,-89.5193 593.929,-86.129"/>
</g>
<!-- Node17 -->
<g id="node17" class="node"><title>Node17</title>
<polygon fill="white" stroke="#bfbfbf" points="621.113,-59 621.113,-79 664.887,-79 664.887,-59 621.113,-59"/>
<text text-anchor="middle" x="643" y="-65" font-family="Helvetica,sans-Serif" font-size="10.00">climits</text>
</g>
<!-- Node11&#45;&gt;Node17 -->
<g id="edge16" class="edge"><title>Node11&#45;&gt;Node17</title>
<path fill="none" stroke="midnightblue" d="M617.119,-116.753C621.453,-108.924 627.79,-97.4761 633.109,-87.8679"/>
<polygon fill="midnightblue" stroke="midnightblue" points="636.195,-89.5193 637.976,-79.0752 630.071,-86.129 636.195,-89.5193"/>
</g>
<!-- Node18 -->
<g id="node18" class="node"><title>Node18</title>
<polygon fill="white" stroke="#bfbfbf" points="683.049,-59 683.049,-79 722.951,-79 722.951,-59 683.049,-59"/>
<text text-anchor="middle" x="703" y="-65" font-family="Helvetica,sans-Serif" font-size="10.00">cfloat</text>
</g>
<!-- Node11&#45;&gt;Node18 -->
<g id="edge17" class="edge"><title>Node11&#45;&gt;Node18</title>
<path fill="none" stroke="midnightblue" d="M627.027,-116.753C641.338,-107.946 663.094,-94.5575 679.662,-84.3617"/>
<polygon fill="midnightblue" stroke="midnightblue" points="681.571,-87.297 688.253,-79.0752 677.902,-81.3354 681.571,-87.297"/>
</g>
<!-- Node19 -->
<g id="node19" class="node"><title>Node19</title>
<polygon fill="white" stroke="#bfbfbf" points="740.596,-59 740.596,-79 799.404,-79 799.404,-59 740.596,-59"/>
<text text-anchor="middle" x="770" y="-65" font-family="Helvetica,sans-Serif" font-size="10.00">functional</text>
</g>
<!-- Node11&#45;&gt;Node19 -->
<g id="edge18" class="edge"><title>Node11&#45;&gt;Node19</title>
<path fill="none" stroke="midnightblue" d="M637.737,-116.878C664.213,-107.494 705.628,-92.8155 735.055,-82.3857"/>
<polygon fill="midnightblue" stroke="midnightblue" points="736.28,-85.665 744.536,-79.0253 733.941,-79.0671 736.28,-85.665"/>
</g>
<!-- Node13 -->
<g id="node13" class="node"><title>Node13</title>
<polygon fill="white" stroke="#bfbfbf" points="389.549,-1 389.549,-21 434.451,-21 434.451,-1 389.549,-1"/>
<text text-anchor="middle" x="412" y="-7" font-family="Helvetica,sans-Serif" font-size="10.00">cstdint</text>
</g>
<!-- Node12&#45;&gt;Node13 -->
<g id="edge12" class="edge"><title>Node12&#45;&gt;Node13</title>
<path fill="none" stroke="midnightblue" d="M485.469,-58.7527C471.757,-50.0272 450.979,-36.8051 435.015,-26.6458"/>
<polygon fill="midnightblue" stroke="midnightblue" points="436.577,-23.4912 426.261,-21.0752 432.819,-29.3968 436.577,-23.4912"/>
</g>
<!-- Node14 -->
<g id="node14" class="node"><title>Node14</title>
<polygon fill="white" stroke="#bfbfbf" points="452.53,-1 452.53,-21 547.47,-21 547.47,-1 452.53,-1"/>
<text text-anchor="middle" x="500" y="-7" font-family="Helvetica,sans-Serif" font-size="10.00">boost/version.hpp</text>
</g>
<!-- Node12&#45;&gt;Node14 -->
<g id="edge13" class="edge"><title>Node12&#45;&gt;Node14</title>
<path fill="none" stroke="midnightblue" d="M500,-58.7527C500,-51.2504 500,-40.4238 500,-31.0781"/>
<polygon fill="midnightblue" stroke="midnightblue" points="503.5,-31.0752 500,-21.0752 496.5,-31.0752 503.5,-31.0752"/>
</g>
<!-- Node15 -->
<g id="node15" class="node"><title>Node15</title>
<polygon fill="white" stroke="#bfbfbf" points="565.621,-1 565.621,-21 698.379,-21 698.379,-1 565.621,-1"/>
<text text-anchor="middle" x="632" y="-7" font-family="Helvetica,sans-Serif" font-size="10.00">boost/checked_delete.hpp</text>
</g>
<!-- Node12&#45;&gt;Node15 -->
<g id="edge14" class="edge"><title>Node12&#45;&gt;Node15</title>
<path fill="none" stroke="midnightblue" d="M521.502,-58.878C543.172,-49.6848 576.821,-35.4095 601.295,-25.0263"/>
<polygon fill="midnightblue" stroke="midnightblue" points="602.668,-28.2457 610.507,-21.1181 599.935,-21.8016 602.668,-28.2457"/>
</g>
</g>
</svg>
