<?xml version="1.0" encoding="UTF-8" standalone="no"?>
<!DOCTYPE svg PUBLIC "-//W3C//DTD SVG 1.1//EN"
 "http://www.w3.org/Graphics/SVG/1.1/DTD/svg11.dtd">
<!-- Generated by graphviz version 2.30.1 (20140712.1814)
 -->
<!-- Title: include/cinder/audio/Exception.h Pages: 1 -->
<svg width="2608pt" height="392pt"
 viewBox="0.00 0.00 2608.00 392.00" xmlns="http://www.w3.org/2000/svg" xmlns:xlink="http://www.w3.org/1999/xlink">
<g id="graph0" class="graph" transform="scale(1 1) rotate(0) translate(4 388)">
<title>include/cinder/audio/Exception.h</title>
<polygon fill="white" stroke="white" points="-4,5 -4,-388 2605,-388 2605,5 -4,5"/>
<!-- Node1 -->
<g id="node1" class="node"><title>Node1</title>
<polygon fill="#bfbfbf" stroke="black" points="1674.52,-351 1674.52,-383 1779.48,-383 1779.48,-351 1674.52,-351"/>
<text text-anchor="start" x="1682.52" y="-369" font-family="Helvetica,sans-Serif" font-size="10.00">include/cinder/audio</text>
<text text-anchor="middle" x="1727" y="-357" font-family="Helvetica,sans-Serif" font-size="10.00">/Exception.h</text>
</g>
<!-- Node2 -->
<g id="node2" class="node"><title>Node2</title>
<g id="a_node2"><a xlink:href="_node_8h.html" target="_top" xlink:title="include/cinder/audio\l/Node.h">
<polygon fill="white" stroke="black" points="1339.52,-281 1339.52,-313 1444.48,-313 1444.48,-281 1339.52,-281"/>
<text text-anchor="start" x="1347.52" y="-299" font-family="Helvetica,sans-Serif" font-size="10.00">include/cinder/audio</text>
<text text-anchor="middle" x="1392" y="-287" font-family="Helvetica,sans-Serif" font-size="10.00">/Node.h</text>
</a>
</g>
</g>
<!-- Node1&#45;&gt;Node2 -->
<g id="edge1" class="edge"><title>Node1&#45;&gt;Node2</title>
<path fill="none" stroke="midnightblue" d="M1664.44,-355.394C1608.74,-345.65 1525.14,-330.286 1453,-314 1450.22,-313.373 1447.38,-312.709 1444.52,-312.02"/>
<polygon fill="midnightblue" stroke="midnightblue" points="1664.05,-358.879 1674.51,-357.147 1665.25,-351.983 1664.05,-358.879"/>
</g>
<!-- Node36 -->
<g id="node36" class="node"><title>Node36</title>
<g id="a_node36"><a xlink:href="_device_manager_audio_session_8mm.html" target="_top" xlink:title="src/cinder/audio/cocoa\l/DeviceManagerAudioSession.mm">
<polygon fill="white" stroke="black" points="1462.3,-281 1462.3,-313 1631.7,-313 1631.7,-281 1462.3,-281"/>
<text text-anchor="start" x="1470.3" y="-299" font-family="Helvetica,sans-Serif" font-size="10.00">src/cinder/audio/cocoa</text>
<text text-anchor="middle" x="1547" y="-287" font-family="Helvetica,sans-Serif" font-size="10.00">/DeviceManagerAudioSession.mm</text>
</a>
</g>
</g>
<!-- Node1&#45;&gt;Node36 -->
<g id="edge54" class="edge"><title>Node1&#45;&gt;Node36</title>
<path fill="none" stroke="midnightblue" d="M1677.65,-347.358C1649.09,-336.568 1613.61,-323.164 1586.84,-313.049"/>
<polygon fill="midnightblue" stroke="midnightblue" points="1676.46,-350.649 1687.05,-350.909 1678.93,-344.1 1676.46,-350.649"/>
</g>
<!-- Node37 -->
<g id="node37" class="node"><title>Node37</title>
<g id="a_node37"><a xlink:href="_device_manager_core_audio_8cpp.html" target="_top" xlink:title="src/cinder/audio/cocoa\l/DeviceManagerCoreAudio.cpp">
<polygon fill="white" stroke="black" points="1649.52,-281 1649.52,-313 1804.48,-313 1804.48,-281 1649.52,-281"/>
<text text-anchor="start" x="1657.52" y="-299" font-family="Helvetica,sans-Serif" font-size="10.00">src/cinder/audio/cocoa</text>
<text text-anchor="middle" x="1727" y="-287" font-family="Helvetica,sans-Serif" font-size="10.00">/DeviceManagerCoreAudio.cpp</text>
</a>
</g>
</g>
<!-- Node1&#45;&gt;Node37 -->
<g id="edge55" class="edge"><title>Node1&#45;&gt;Node37</title>
<path fill="none" stroke="midnightblue" d="M1727,-340.617C1727,-331.338 1727,-321.141 1727,-313.049"/>
<polygon fill="midnightblue" stroke="midnightblue" points="1723.5,-340.909 1727,-350.909 1730.5,-340.909 1723.5,-340.909"/>
</g>
<!-- Node38 -->
<g id="node38" class="node"><title>Node38</title>
<g id="a_node38"><a xlink:href="_file_core_audio_8cpp.html" target="_top" xlink:title="src/cinder/audio/cocoa\l/FileCoreAudio.cpp">
<polygon fill="white" stroke="black" points="1822.97,-281 1822.97,-313 1939.03,-313 1939.03,-281 1822.97,-281"/>
<text text-anchor="start" x="1830.97" y="-299" font-family="Helvetica,sans-Serif" font-size="10.00">src/cinder/audio/cocoa</text>
<text text-anchor="middle" x="1881" y="-287" font-family="Helvetica,sans-Serif" font-size="10.00">/FileCoreAudio.cpp</text>
</a>
</g>
</g>
<!-- Node1&#45;&gt;Node38 -->
<g id="edge56" class="edge"><title>Node1&#45;&gt;Node38</title>
<path fill="none" stroke="midnightblue" d="M1770.5,-346.793C1794.71,-336.102 1824.41,-322.988 1846.92,-313.049"/>
<polygon fill="midnightblue" stroke="midnightblue" points="1768.91,-343.667 1761.18,-350.909 1771.74,-350.071 1768.91,-343.667"/>
</g>
<!-- Node39 -->
<g id="node39" class="node"><title>Node39</title>
<g id="a_node39"><a xlink:href="_fft_8cpp.html" target="_top" xlink:title="src/cinder/audio/dsp\l/Fft.cpp">
<polygon fill="white" stroke="black" points="1957.25,-281 1957.25,-313 2062.75,-313 2062.75,-281 1957.25,-281"/>
<text text-anchor="start" x="1965.25" y="-299" font-family="Helvetica,sans-Serif" font-size="10.00">src/cinder/audio/dsp</text>
<text text-anchor="middle" x="2010" y="-287" font-family="Helvetica,sans-Serif" font-size="10.00">/Fft.cpp</text>
</a>
</g>
</g>
<!-- Node1&#45;&gt;Node39 -->
<g id="edge57" class="edge"><title>Node1&#45;&gt;Node39</title>
<path fill="none" stroke="midnightblue" d="M1789.53,-351.665C1833.83,-341.416 1894.63,-327.163 1948,-314 1950.91,-313.281 1953.9,-312.536 1956.92,-311.778"/>
<polygon fill="midnightblue" stroke="midnightblue" points="1788.72,-348.258 1779.77,-353.919 1790.3,-355.078 1788.72,-348.258"/>
</g>
<!-- Node40 -->
<g id="node40" class="node"><title>Node40</title>
<g id="a_node40"><a xlink:href="_file_ogg_vorbis_8cpp.html" target="_top" xlink:title="src/cinder/audio/FileOgg\lVorbis.cpp">
<polygon fill="white" stroke="black" points="2080.81,-281 2080.81,-313 2205.19,-313 2205.19,-281 2080.81,-281"/>
<text text-anchor="start" x="2088.81" y="-299" font-family="Helvetica,sans-Serif" font-size="10.00">src/cinder/audio/FileOgg</text>
<text text-anchor="middle" x="2143" y="-287" font-family="Helvetica,sans-Serif" font-size="10.00">Vorbis.cpp</text>
</a>
</g>
</g>
<!-- Node1&#45;&gt;Node40 -->
<g id="edge58" class="edge"><title>Node1&#45;&gt;Node40</title>
<path fill="none" stroke="midnightblue" d="M1789.92,-357.809C1859.06,-348.501 1973.29,-332.219 2071,-314 2074.15,-313.413 2077.37,-312.788 2080.61,-312.139"/>
<polygon fill="midnightblue" stroke="midnightblue" points="1789.09,-354.39 1779.64,-359.186 1790.02,-361.328 1789.09,-354.39"/>
</g>
<!-- Node15 -->
<g id="node15" class="node"><title>Node15</title>
<g id="a_node15"><a xlink:href="_output_node_8cpp.html" target="_top" xlink:title="src/cinder/audio/OutputNode.cpp">
<polygon fill="white" stroke="black" points="-0.0981445,-77 -0.0981445,-97 162.098,-97 162.098,-77 -0.0981445,-77"/>
<text text-anchor="middle" x="81" y="-83" font-family="Helvetica,sans-Serif" font-size="10.00">src/cinder/audio/OutputNode.cpp</text>
</a>
</g>
</g>
<!-- Node1&#45;&gt;Node15 -->
<g id="edge59" class="edge"><title>Node1&#45;&gt;Node15</title>
<path fill="none" stroke="midnightblue" d="M1664.01,-361.845C1499.55,-350.325 1044.16,-314.107 671,-244 550.432,-221.348 522.607,-205.337 404,-174 298.523,-146.132 173.769,-112.815 114.936,-97.0812"/>
<polygon fill="midnightblue" stroke="midnightblue" points="1664.2,-365.366 1674.41,-362.568 1664.68,-358.383 1664.2,-365.366"/>
</g>
<!-- Node3 -->
<g id="node3" class="node"><title>Node3</title>
<g id="a_node3"><a xlink:href="_channel_router_node_8h.html" target="_top" xlink:title="include/cinder/audio\l/ChannelRouterNode.h">
<polygon fill="white" stroke="black" points="679.855,-211 679.855,-243 798.145,-243 798.145,-211 679.855,-211"/>
<text text-anchor="start" x="687.855" y="-229" font-family="Helvetica,sans-Serif" font-size="10.00">include/cinder/audio</text>
<text text-anchor="middle" x="739" y="-217" font-family="Helvetica,sans-Serif" font-size="10.00">/ChannelRouterNode.h</text>
</a>
</g>
</g>
<!-- Node2&#45;&gt;Node3 -->
<g id="edge2" class="edge"><title>Node2&#45;&gt;Node3</title>
<path fill="none" stroke="midnightblue" d="M1329.15,-289.455C1203.24,-276.343 921.637,-247.019 798.526,-234.199"/>
<polygon fill="midnightblue" stroke="midnightblue" points="1329.08,-292.967 1339.39,-290.522 1329.81,-286.005 1329.08,-292.967"/>
</g>
<!-- Node5 -->
<g id="node5" class="node"><title>Node5</title>
<g id="a_node5"><a xlink:href="_context_8h.html" target="_top" xlink:title="include/cinder/audio\l/Context.h">
<polygon fill="white" stroke="black" points="980.525,-141 980.525,-173 1085.48,-173 1085.48,-141 980.525,-141"/>
<text text-anchor="start" x="988.525" y="-159" font-family="Helvetica,sans-Serif" font-size="10.00">include/cinder/audio</text>
<text text-anchor="middle" x="1033" y="-147" font-family="Helvetica,sans-Serif" font-size="10.00">/Context.h</text>
</a>
</g>
</g>
<!-- Node2&#45;&gt;Node5 -->
<g id="edge4" class="edge"><title>Node2&#45;&gt;Node5</title>
<path fill="none" stroke="midnightblue" d="M1329.36,-286.585C1284.65,-278.567 1223.7,-264.958 1173,-244 1127.39,-225.147 1079.49,-192.501 1053.22,-173.313"/>
<polygon fill="midnightblue" stroke="midnightblue" points="1328.76,-290.034 1339.22,-288.309 1329.97,-283.138 1328.76,-290.034"/>
</g>
<!-- Node20 -->
<g id="node20" class="node"><title>Node20</title>
<g id="a_node20"><a xlink:href="_delay_node_8h.html" target="_top" xlink:title="include/cinder/audio\l/DelayNode.h">
<polygon fill="white" stroke="black" points="2372.52,-141 2372.52,-173 2477.48,-173 2477.48,-141 2372.52,-141"/>
<text text-anchor="start" x="2380.52" y="-159" font-family="Helvetica,sans-Serif" font-size="10.00">include/cinder/audio</text>
<text text-anchor="middle" x="2425" y="-147" font-family="Helvetica,sans-Serif" font-size="10.00">/DelayNode.h</text>
</a>
</g>
</g>
<!-- Node2&#45;&gt;Node20 -->
<g id="edge20" class="edge"><title>Node2&#45;&gt;Node20</title>
<path fill="none" stroke="midnightblue" d="M1454.95,-280.17C1591.38,-266.458 2271.99,-289.074 2359,-244 2388.58,-228.677 2408.81,-193.431 2418.47,-173.137"/>
<polygon fill="midnightblue" stroke="midnightblue" points="1454.26,-276.728 1444.76,-281.415 1455.11,-283.676 1454.26,-276.728"/>
</g>
<!-- Node23 -->
<g id="node23" class="node"><title>Node23</title>
<g id="a_node23"><a xlink:href="_filter_node_8h.html" target="_top" xlink:title="include/cinder/audio\l/FilterNode.h">
<polygon fill="white" stroke="black" points="1817.52,-211 1817.52,-243 1922.48,-243 1922.48,-211 1817.52,-211"/>
<text text-anchor="start" x="1825.52" y="-229" font-family="Helvetica,sans-Serif" font-size="10.00">include/cinder/audio</text>
<text text-anchor="middle" x="1870" y="-217" font-family="Helvetica,sans-Serif" font-size="10.00">/FilterNode.h</text>
</a>
</g>
</g>
<!-- Node2&#45;&gt;Node23 -->
<g id="edge24" class="edge"><title>Node2&#45;&gt;Node23</title>
<path fill="none" stroke="midnightblue" d="M1454.94,-279.756C1590.37,-254.229 1739.8,-239.156 1817.31,-232.314"/>
<polygon fill="midnightblue" stroke="midnightblue" points="1453.97,-276.379 1444.8,-281.693 1455.28,-283.255 1453.97,-276.379"/>
</g>
<!-- Node25 -->
<g id="node25" class="node"><title>Node25</title>
<g id="a_node25"><a xlink:href="_input_node_8h.html" target="_top" xlink:title="include/cinder/audio\l/InputNode.h">
<polygon fill="white" stroke="black" points="1339.52,-211 1339.52,-243 1444.48,-243 1444.48,-211 1339.52,-211"/>
<text text-anchor="start" x="1347.52" y="-229" font-family="Helvetica,sans-Serif" font-size="10.00">include/cinder/audio</text>
<text text-anchor="middle" x="1392" y="-217" font-family="Helvetica,sans-Serif" font-size="10.00">/InputNode.h</text>
</a>
</g>
</g>
<!-- Node2&#45;&gt;Node25 -->
<g id="edge27" class="edge"><title>Node2&#45;&gt;Node25</title>
<path fill="none" stroke="midnightblue" d="M1392,-270.617C1392,-261.338 1392,-251.141 1392,-243.049"/>
<polygon fill="midnightblue" stroke="midnightblue" points="1388.5,-270.909 1392,-280.909 1395.5,-270.909 1388.5,-270.909"/>
</g>
<!-- Node29 -->
<g id="node29" class="node"><title>Node29</title>
<g id="a_node29"><a xlink:href="_node_math_8h.html" target="_top" xlink:title="include/cinder/audio\l/NodeMath.h">
<polygon fill="white" stroke="black" points="2079.52,-211 2079.52,-243 2184.48,-243 2184.48,-211 2079.52,-211"/>
<text text-anchor="start" x="2087.52" y="-229" font-family="Helvetica,sans-Serif" font-size="10.00">include/cinder/audio</text>
<text text-anchor="middle" x="2132" y="-217" font-family="Helvetica,sans-Serif" font-size="10.00">/NodeMath.h</text>
</a>
</g>
</g>
<!-- Node2&#45;&gt;Node29 -->
<g id="edge38" class="edge"><title>Node2&#45;&gt;Node29</title>
<path fill="none" stroke="midnightblue" d="M1454.89,-279.849C1664.89,-245.31 1721.91,-260.196 1931,-244 1981.26,-240.107 2038.57,-235.531 2079.1,-232.272"/>
<polygon fill="midnightblue" stroke="midnightblue" points="1454.06,-276.439 1444.77,-281.532 1455.21,-283.344 1454.06,-276.439"/>
</g>
<!-- Node32 -->
<g id="node32" class="node"><title>Node32</title>
<g id="a_node32"><a xlink:href="_output_node_8h.html" target="_top" xlink:title="include/cinder/audio\l/OutputNode.h">
<polygon fill="white" stroke="black" points="980.525,-211 980.525,-243 1085.48,-243 1085.48,-211 980.525,-211"/>
<text text-anchor="start" x="988.525" y="-229" font-family="Helvetica,sans-Serif" font-size="10.00">include/cinder/audio</text>
<text text-anchor="middle" x="1033" y="-217" font-family="Helvetica,sans-Serif" font-size="10.00">/OutputNode.h</text>
</a>
</g>
</g>
<!-- Node2&#45;&gt;Node32 -->
<g id="edge44" class="edge"><title>Node2&#45;&gt;Node32</title>
<path fill="none" stroke="midnightblue" d="M1329.64,-284.62C1273.07,-274.238 1187.39,-258.37 1113,-244 1104.1,-242.281 1094.65,-240.421 1085.48,-238.599"/>
<polygon fill="midnightblue" stroke="midnightblue" points="1329.04,-288.068 1339.51,-286.429 1330.31,-281.183 1329.04,-288.068"/>
</g>
<!-- Node33 -->
<g id="node33" class="node"><title>Node33</title>
<g id="a_node33"><a xlink:href="_pan_node_8h.html" target="_top" xlink:title="include/cinder/audio\l/PanNode.h">
<polygon fill="white" stroke="black" points="1669.52,-141 1669.52,-173 1774.48,-173 1774.48,-141 1669.52,-141"/>
<text text-anchor="start" x="1677.52" y="-159" font-family="Helvetica,sans-Serif" font-size="10.00">include/cinder/audio</text>
<text text-anchor="middle" x="1722" y="-147" font-family="Helvetica,sans-Serif" font-size="10.00">/PanNode.h</text>
</a>
</g>
</g>
<!-- Node2&#45;&gt;Node33 -->
<g id="edge47" class="edge"><title>Node2&#45;&gt;Node33</title>
<path fill="none" stroke="midnightblue" d="M1437.3,-277.055C1503.58,-249.341 1625.63,-198.301 1686.1,-173.013"/>
<polygon fill="midnightblue" stroke="midnightblue" points="1435.82,-273.882 1427.94,-280.969 1438.52,-280.34 1435.82,-273.882"/>
</g>
<!-- Node35 -->
<g id="node35" class="node"><title>Node35</title>
<g id="a_node35"><a xlink:href="_sample_recorder_node_8h.html" target="_top" xlink:title="include/cinder/audio\l/SampleRecorderNode.h">
<polygon fill="white" stroke="black" points="1181.97,-211 1181.97,-243 1308.03,-243 1308.03,-211 1181.97,-211"/>
<text text-anchor="start" x="1189.97" y="-229" font-family="Helvetica,sans-Serif" font-size="10.00">include/cinder/audio</text>
<text text-anchor="middle" x="1245" y="-217" font-family="Helvetica,sans-Serif" font-size="10.00">/SampleRecorderNode.h</text>
</a>
</g>
</g>
<!-- Node2&#45;&gt;Node35 -->
<g id="edge51" class="edge"><title>Node2&#45;&gt;Node35</title>
<path fill="none" stroke="midnightblue" d="M1350.17,-276.651C1327.12,-265.986 1298.92,-252.944 1277.53,-243.049"/>
<polygon fill="midnightblue" stroke="midnightblue" points="1348.83,-279.887 1359.38,-280.909 1351.77,-273.534 1348.83,-279.887"/>
</g>
<!-- Node14 -->
<g id="node14" class="node"><title>Node14</title>
<g id="a_node14"><a xlink:href="_node_8cpp.html" target="_top" xlink:title="src/cinder/audio/Node.cpp">
<polygon fill="white" stroke="black" points="2292.91,-77 2292.91,-97 2425.09,-97 2425.09,-77 2292.91,-77"/>
<text text-anchor="middle" x="2359" y="-83" font-family="Helvetica,sans-Serif" font-size="10.00">src/cinder/audio/Node.cpp</text>
</a>
</g>
</g>
<!-- Node2&#45;&gt;Node14 -->
<g id="edge53" class="edge"><title>Node2&#45;&gt;Node14</title>
<path fill="none" stroke="midnightblue" d="M1454.79,-279.995C1631.57,-256.185 2037.2,-286.54 2193,-244 2257.44,-226.405 2281.64,-223.938 2326,-174 2346.39,-151.045 2354.76,-114.148 2357.67,-97.1335"/>
<polygon fill="midnightblue" stroke="midnightblue" points="1454.16,-276.551 1444.76,-281.444 1455.16,-283.479 1454.16,-276.551"/>
</g>
<!-- Node4 -->
<g id="node4" class="node"><title>Node4</title>
<g id="a_node4"><a xlink:href="_channel_router_node_8cpp.html" target="_top" xlink:title="src/cinder/audio/Channel\lRouterNode.cpp">
<polygon fill="white" stroke="black" points="179.69,-71 179.69,-103 306.31,-103 306.31,-71 179.69,-71"/>
<text text-anchor="start" x="187.69" y="-89" font-family="Helvetica,sans-Serif" font-size="10.00">src/cinder/audio/Channel</text>
<text text-anchor="middle" x="243" y="-77" font-family="Helvetica,sans-Serif" font-size="10.00">RouterNode.cpp</text>
</a>
</g>
</g>
<!-- Node3&#45;&gt;Node4 -->
<g id="edge3" class="edge"><title>Node3&#45;&gt;Node4</title>
<path fill="none" stroke="midnightblue" d="M675.142,-208.233C576.579,-180.81 389.154,-128.664 296.958,-103.013"/>
<polygon fill="midnightblue" stroke="midnightblue" points="674.403,-211.66 684.975,-210.969 676.279,-204.916 674.403,-211.66"/>
</g>
<!-- Node6 -->
<g id="node6" class="node"><title>Node6</title>
<g id="a_node6"><a xlink:href="_context_audio_unit_8h.html" target="_top" xlink:title="include/cinder/audio\l/cocoa/ContextAudioUnit.h">
<polygon fill="white" stroke="black" points="324.798,-71 324.798,-103 459.202,-103 459.202,-71 324.798,-71"/>
<text text-anchor="start" x="332.798" y="-89" font-family="Helvetica,sans-Serif" font-size="10.00">include/cinder/audio</text>
<text text-anchor="middle" x="392" y="-77" font-family="Helvetica,sans-Serif" font-size="10.00">/cocoa/ContextAudioUnit.h</text>
</a>
</g>
</g>
<!-- Node5&#45;&gt;Node6 -->
<g id="edge5" class="edge"><title>Node5&#45;&gt;Node6</title>
<path fill="none" stroke="midnightblue" d="M970.219,-152.534C865.781,-146.249 649.94,-131.052 469,-104 465.894,-103.536 462.725,-103.026 459.529,-102.482"/>
<polygon fill="midnightblue" stroke="midnightblue" points="970.086,-156.032 980.276,-153.132 970.502,-149.045 970.086,-156.032"/>
</g>
<!-- Node8 -->
<g id="node8" class="node"><title>Node8</title>
<g id="a_node8"><a xlink:href="_monitor_node_8h.html" target="_top" xlink:title="include/cinder/audio\l/MonitorNode.h">
<polygon fill="white" stroke="black" points="477.525,-71 477.525,-103 582.475,-103 582.475,-71 477.525,-71"/>
<text text-anchor="start" x="485.525" y="-89" font-family="Helvetica,sans-Serif" font-size="10.00">include/cinder/audio</text>
<text text-anchor="middle" x="530" y="-77" font-family="Helvetica,sans-Serif" font-size="10.00">/MonitorNode.h</text>
</a>
</g>
</g>
<!-- Node5&#45;&gt;Node8 -->
<g id="edge7" class="edge"><title>Node5&#45;&gt;Node8</title>
<path fill="none" stroke="midnightblue" d="M970.276,-151.29C884.395,-144.232 725.621,-129.001 592,-104 588.94,-103.428 585.808,-102.789 582.657,-102.105"/>
<polygon fill="midnightblue" stroke="midnightblue" points="970.131,-154.79 980.382,-152.11 970.698,-147.813 970.131,-154.79"/>
</g>
<!-- Node5&#45;&gt;Node4 -->
<g id="edge9" class="edge"><title>Node5&#45;&gt;Node4</title>
<path fill="none" stroke="midnightblue" d="M969.926,-154.461C844.678,-150.737 555.971,-138.817 316,-104 312.918,-103.553 309.773,-103.049 306.603,-102.503"/>
<polygon fill="midnightblue" stroke="midnightblue" points="970,-157.965 980.097,-154.756 970.203,-150.968 970,-157.965"/>
</g>
<!-- Node10 -->
<g id="node10" class="node"><title>Node10</title>
<g id="a_node10"><a xlink:href="_context_8cpp.html" target="_top" xlink:title="src/cinder/audio/Context.cpp">
<polygon fill="white" stroke="black" points="1474.63,-77 1474.63,-97 1617.37,-97 1617.37,-77 1474.63,-77"/>
<text text-anchor="middle" x="1546" y="-83" font-family="Helvetica,sans-Serif" font-size="10.00">src/cinder/audio/Context.cpp</text>
</a>
</g>
</g>
<!-- Node5&#45;&gt;Node10 -->
<g id="edge10" class="edge"><title>Node5&#45;&gt;Node10</title>
<path fill="none" stroke="midnightblue" d="M1095.89,-149.929C1180.16,-141.45 1334.29,-124.746 1465,-104 1477.46,-102.023 1490.92,-99.5141 1503.23,-97.0732"/>
<polygon fill="midnightblue" stroke="midnightblue" points="1095.31,-146.468 1085.71,-150.946 1096.01,-153.434 1095.31,-146.468"/>
</g>
<!-- Node11 -->
<g id="node11" class="node"><title>Node11</title>
<g id="a_node11"><a xlink:href="_device_8cpp.html" target="_top" xlink:title="src/cinder/audio/Device.cpp">
<polygon fill="white" stroke="black" points="600.582,-77 600.582,-97 739.418,-97 739.418,-77 600.582,-77"/>
<text text-anchor="middle" x="670" y="-83" font-family="Helvetica,sans-Serif" font-size="10.00">src/cinder/audio/Device.cpp</text>
</a>
</g>
</g>
<!-- Node5&#45;&gt;Node11 -->
<g id="edge11" class="edge"><title>Node5&#45;&gt;Node11</title>
<path fill="none" stroke="midnightblue" d="M970.335,-144.972C912.541,-134.705 824.393,-118.802 748,-104 736.736,-101.817 724.577,-99.3682 713.287,-97.0547"/>
<polygon fill="midnightblue" stroke="midnightblue" points="969.95,-148.458 980.408,-146.759 971.173,-141.566 969.95,-148.458"/>
</g>
<!-- Node12 -->
<g id="node12" class="node"><title>Node12</title>
<g id="a_node12"><a xlink:href="_gen_node_8cpp.html" target="_top" xlink:title="src/cinder/audio/GenNode.cpp">
<polygon fill="white" stroke="black" points="1305.46,-77 1305.46,-97 1456.54,-97 1456.54,-77 1305.46,-77"/>
<text text-anchor="middle" x="1381" y="-83" font-family="Helvetica,sans-Serif" font-size="10.00">src/cinder/audio/GenNode.cpp</text>
</a>
</g>
</g>
<!-- Node5&#45;&gt;Node12 -->
<g id="edge12" class="edge"><title>Node5&#45;&gt;Node12</title>
<path fill="none" stroke="midnightblue" d="M1095.32,-143.822C1164.11,-130.381 1273.22,-109.06 1334.78,-97.0308"/>
<polygon fill="midnightblue" stroke="midnightblue" points="1094.62,-140.393 1085.48,-145.746 1095.96,-147.263 1094.62,-140.393"/>
</g>
<!-- Node13 -->
<g id="node13" class="node"><title>Node13</title>
<g id="a_node13"><a xlink:href="_input_node_8cpp.html" target="_top" xlink:title="src/cinder/audio/InputNode.cpp">
<polygon fill="white" stroke="black" points="1132.79,-77 1132.79,-97 1287.21,-97 1287.21,-77 1132.79,-77"/>
<text text-anchor="middle" x="1210" y="-83" font-family="Helvetica,sans-Serif" font-size="10.00">src/cinder/audio/InputNode.cpp</text>
</a>
</g>
</g>
<!-- Node5&#45;&gt;Node13 -->
<g id="edge13" class="edge"><title>Node5&#45;&gt;Node13</title>
<path fill="none" stroke="midnightblue" d="M1081.63,-137.319C1115.78,-124.198 1159.94,-107.23 1186.56,-97.0035"/>
<polygon fill="midnightblue" stroke="midnightblue" points="1080.36,-134.055 1072.28,-140.909 1082.87,-140.589 1080.36,-134.055"/>
</g>
<!-- Node5&#45;&gt;Node14 -->
<g id="edge14" class="edge"><title>Node5&#45;&gt;Node14</title>
<path fill="none" stroke="midnightblue" d="M1095.87,-152.238C1154.6,-148.794 1244.72,-143.686 1323,-140 1733.08,-120.691 1837.12,-140.825 2246,-104 2264.75,-102.312 2285.14,-99.6729 2303.38,-97.0218"/>
<polygon fill="midnightblue" stroke="midnightblue" points="1095.42,-148.759 1085.64,-152.84 1095.83,-155.747 1095.42,-148.759"/>
</g>
<!-- Node5&#45;&gt;Node15 -->
<g id="edge15" class="edge"><title>Node5&#45;&gt;Node15</title>
<path fill="none" stroke="midnightblue" d="M970.036,-154.695C827.376,-151.194 468.754,-139.328 171,-104 156.186,-102.242 140.117,-99.6183 125.711,-97.001"/>
<polygon fill="midnightblue" stroke="midnightblue" points="970.255,-158.201 980.337,-154.942 970.424,-151.203 970.255,-158.201"/>
</g>
<!-- Node16 -->
<g id="node16" class="node"><title>Node16</title>
<g id="a_node16"><a xlink:href="_param_8cpp.html" target="_top" xlink:title="src/cinder/audio/Param.cpp">
<polygon fill="white" stroke="black" points="757.138,-77 757.138,-97 894.862,-97 894.862,-77 757.138,-77"/>
<text text-anchor="middle" x="826" y="-83" font-family="Helvetica,sans-Serif" font-size="10.00">src/cinder/audio/Param.cpp</text>
</a>
</g>
</g>
<!-- Node5&#45;&gt;Node16 -->
<g id="edge16" class="edge"><title>Node5&#45;&gt;Node16</title>
<path fill="none" stroke="midnightblue" d="M977.667,-137.823C937.553,-124.646 885.017,-107.387 853.478,-97.0266"/>
<polygon fill="midnightblue" stroke="midnightblue" points="976.724,-141.197 987.317,-140.993 978.909,-134.547 976.724,-141.197"/>
</g>
<!-- Node17 -->
<g id="node17" class="node"><title>Node17</title>
<g id="a_node17"><a xlink:href="_sample_player_node_8cpp.html" target="_top" xlink:title="src/cinder/audio/SamplePlayer\lNode.cpp">
<polygon fill="white" stroke="black" points="1635.19,-71 1635.19,-103 1786.81,-103 1786.81,-71 1635.19,-71"/>
<text text-anchor="start" x="1643.19" y="-89" font-family="Helvetica,sans-Serif" font-size="10.00">src/cinder/audio/SamplePlayer</text>
<text text-anchor="middle" x="1711" y="-77" font-family="Helvetica,sans-Serif" font-size="10.00">Node.cpp</text>
</a>
</g>
</g>
<!-- Node5&#45;&gt;Node17 -->
<g id="edge17" class="edge"><title>Node5&#45;&gt;Node17</title>
<path fill="none" stroke="midnightblue" d="M1095.66,-152.543C1204.09,-146.106 1433.59,-130.48 1626,-104 1628.98,-103.591 1632,-103.147 1635.06,-102.678"/>
<polygon fill="midnightblue" stroke="midnightblue" points="1095.33,-149.056 1085.55,-153.137 1095.74,-156.044 1095.33,-149.056"/>
</g>
<!-- Node18 -->
<g id="node18" class="node"><title>Node18</title>
<g id="a_node18"><a xlink:href="_sample_recorder_node_8cpp.html" target="_top" xlink:title="src/cinder/audio/SampleRecorder\lNode.cpp">
<polygon fill="white" stroke="black" points="950.798,-71 950.798,-103 1115.2,-103 1115.2,-71 950.798,-71"/>
<text text-anchor="start" x="958.798" y="-89" font-family="Helvetica,sans-Serif" font-size="10.00">src/cinder/audio/SampleRecorder</text>
<text text-anchor="middle" x="1033" y="-77" font-family="Helvetica,sans-Serif" font-size="10.00">Node.cpp</text>
</a>
</g>
</g>
<!-- Node5&#45;&gt;Node18 -->
<g id="edge18" class="edge"><title>Node5&#45;&gt;Node18</title>
<path fill="none" stroke="midnightblue" d="M1033,-130.617C1033,-121.338 1033,-111.141 1033,-103.049"/>
<polygon fill="midnightblue" stroke="midnightblue" points="1029.5,-130.909 1033,-140.909 1036.5,-130.909 1029.5,-130.909"/>
</g>
<!-- Node19 -->
<g id="node19" class="node"><title>Node19</title>
<g id="a_node19"><a xlink:href="_voice_8cpp.html" target="_top" xlink:title="src/cinder/audio/Voice.cpp">
<polygon fill="white" stroke="black" points="1914.63,-7 1914.63,-27 2047.37,-27 2047.37,-7 1914.63,-7"/>
<text text-anchor="middle" x="1981" y="-13" font-family="Helvetica,sans-Serif" font-size="10.00">src/cinder/audio/Voice.cpp</text>
</a>
</g>
</g>
<!-- Node5&#45;&gt;Node19 -->
<g id="edge19" class="edge"><title>Node5&#45;&gt;Node19</title>
<path fill="none" stroke="midnightblue" d="M977.532,-136.26C963.481,-128.463 950.091,-117.943 942,-104 934.415,-90.9302 931.585,-80.949 942,-70 975.57,-34.7082 1690.52,-21.9685 1914.51,-18.8349"/>
<polygon fill="midnightblue" stroke="midnightblue" points="976.315,-139.568 986.813,-140.998 979.499,-133.334 976.315,-139.568"/>
</g>
<!-- Node7 -->
<g id="node7" class="node"><title>Node7</title>
<g id="a_node7"><a xlink:href="_context_audio_unit_8cpp.html" target="_top" xlink:title="src/cinder/audio/cocoa\l/ContextAudioUnit.cpp">
<polygon fill="white" stroke="black" points="333.973,-1 333.973,-33 450.027,-33 450.027,-1 333.973,-1"/>
<text text-anchor="start" x="341.973" y="-19" font-family="Helvetica,sans-Serif" font-size="10.00">src/cinder/audio/cocoa</text>
<text text-anchor="middle" x="392" y="-7" font-family="Helvetica,sans-Serif" font-size="10.00">/ContextAudioUnit.cpp</text>
</a>
</g>
</g>
<!-- Node6&#45;&gt;Node7 -->
<g id="edge6" class="edge"><title>Node6&#45;&gt;Node7</title>
<path fill="none" stroke="midnightblue" d="M392,-60.6174C392,-51.3378 392,-41.1413 392,-33.0492"/>
<polygon fill="midnightblue" stroke="midnightblue" points="388.5,-60.9086 392,-70.9086 395.5,-60.9086 388.5,-60.9086"/>
</g>
<!-- Node9 -->
<g id="node9" class="node"><title>Node9</title>
<g id="a_node9"><a xlink:href="_monitor_node_8cpp.html" target="_top" xlink:title="src/cinder/audio/Monitor\lNode.cpp">
<polygon fill="white" stroke="black" points="468.643,-1 468.643,-33 591.357,-33 591.357,-1 468.643,-1"/>
<text text-anchor="start" x="476.643" y="-19" font-family="Helvetica,sans-Serif" font-size="10.00">src/cinder/audio/Monitor</text>
<text text-anchor="middle" x="530" y="-7" font-family="Helvetica,sans-Serif" font-size="10.00">Node.cpp</text>
</a>
</g>
</g>
<!-- Node8&#45;&gt;Node9 -->
<g id="edge8" class="edge"><title>Node8&#45;&gt;Node9</title>
<path fill="none" stroke="midnightblue" d="M530,-60.6174C530,-51.3378 530,-41.1413 530,-33.0492"/>
<polygon fill="midnightblue" stroke="midnightblue" points="526.5,-60.9086 530,-70.9086 533.5,-60.9086 526.5,-60.9086"/>
</g>
<!-- Node21 -->
<g id="node21" class="node"><title>Node21</title>
<g id="a_node21"><a xlink:href="_node_effects_8h.html" target="_top" xlink:title="include/cinder/audio\l/NodeEffects.h">
<polygon fill="white" stroke="black" points="2132.52,-71 2132.52,-103 2237.48,-103 2237.48,-71 2132.52,-71"/>
<text text-anchor="start" x="2140.52" y="-89" font-family="Helvetica,sans-Serif" font-size="10.00">include/cinder/audio</text>
<text text-anchor="middle" x="2185" y="-77" font-family="Helvetica,sans-Serif" font-size="10.00">/NodeEffects.h</text>
</a>
</g>
</g>
<!-- Node20&#45;&gt;Node21 -->
<g id="edge21" class="edge"><title>Node20&#45;&gt;Node21</title>
<path fill="none" stroke="midnightblue" d="M2362.7,-138.347C2323.85,-127.34 2274.41,-113.332 2237.55,-102.888"/>
<polygon fill="midnightblue" stroke="midnightblue" points="2361.76,-141.718 2372.33,-141.077 2363.66,-134.984 2361.76,-141.718"/>
</g>
<!-- Node22 -->
<g id="node22" class="node"><title>Node22</title>
<g id="a_node22"><a xlink:href="_delay_node_8cpp.html" target="_top" xlink:title="src/cinder/audio/DelayNode.cpp">
<polygon fill="white" stroke="black" points="2443.13,-77 2443.13,-97 2600.87,-97 2600.87,-77 2443.13,-77"/>
<text text-anchor="middle" x="2522" y="-83" font-family="Helvetica,sans-Serif" font-size="10.00">src/cinder/audio/DelayNode.cpp</text>
</a>
</g>
</g>
<!-- Node20&#45;&gt;Node22 -->
<g id="edge22" class="edge"><title>Node20&#45;&gt;Node22</title>
<path fill="none" stroke="midnightblue" d="M2455.06,-134.925C2473.23,-122.192 2495.44,-106.618 2509.16,-97.0035"/>
<polygon fill="midnightblue" stroke="midnightblue" points="2452.71,-132.302 2446.53,-140.909 2456.72,-138.034 2452.71,-132.302"/>
</g>
<!-- Node20&#45;&gt;Node14 -->
<g id="edge23" class="edge"><title>Node20&#45;&gt;Node14</title>
<path fill="none" stroke="midnightblue" d="M2403.19,-133.525C2391.09,-121.067 2376.73,-106.269 2367.74,-97.0035"/>
<polygon fill="midnightblue" stroke="midnightblue" points="2400.88,-136.17 2410.35,-140.909 2405.9,-131.295 2400.88,-136.17"/>
</g>
<!-- Node23&#45;&gt;Node21 -->
<g id="edge25" class="edge"><title>Node23&#45;&gt;Node21</title>
<path fill="none" stroke="midnightblue" d="M1906.81,-205.774C1922.41,-196.689 1940.52,-185.449 1956,-174 1974.22,-160.523 1974.09,-150.822 1994,-140 2017.78,-127.076 2084.59,-110.372 2132.49,-99.4308"/>
<polygon fill="midnightblue" stroke="midnightblue" points="1904.88,-202.844 1897.95,-210.858 1908.37,-208.914 1904.88,-202.844"/>
</g>
<!-- Node24 -->
<g id="node24" class="node"><title>Node24</title>
<g id="a_node24"><a xlink:href="_filter_node_8cpp.html" target="_top" xlink:title="src/cinder/audio/FilterNode.cpp">
<polygon fill="white" stroke="black" points="1792.8,-147 1792.8,-167 1947.2,-167 1947.2,-147 1792.8,-147"/>
<text text-anchor="middle" x="1870" y="-153" font-family="Helvetica,sans-Serif" font-size="10.00">src/cinder/audio/FilterNode.cpp</text>
</a>
</g>
</g>
<!-- Node23&#45;&gt;Node24 -->
<g id="edge26" class="edge"><title>Node23&#45;&gt;Node24</title>
<path fill="none" stroke="midnightblue" d="M1870,-200.668C1870,-188.865 1870,-175.57 1870,-167.004"/>
<polygon fill="midnightblue" stroke="midnightblue" points="1866.5,-200.909 1870,-210.909 1873.5,-200.909 1866.5,-200.909"/>
</g>
<!-- Node25&#45;&gt;Node5 -->
<g id="edge28" class="edge"><title>Node25&#45;&gt;Node5</title>
<path fill="none" stroke="midnightblue" d="M1329.39,-212.501C1325.2,-211.642 1321.04,-210.801 1317,-210 1236.49,-194.044 1142.77,-177.225 1085.69,-167.175"/>
<polygon fill="midnightblue" stroke="midnightblue" points="1328.68,-215.928 1339.18,-214.531 1330.1,-209.074 1328.68,-215.928"/>
</g>
<!-- Node26 -->
<g id="node26" class="node"><title>Node26</title>
<g id="a_node26"><a xlink:href="_gen_node_8h.html" target="_top" xlink:title="include/cinder/audio\l/GenNode.h">
<polygon fill="white" stroke="black" points="1331.52,-141 1331.52,-173 1436.48,-173 1436.48,-141 1331.52,-141"/>
<text text-anchor="start" x="1339.52" y="-159" font-family="Helvetica,sans-Serif" font-size="10.00">include/cinder/audio</text>
<text text-anchor="middle" x="1384" y="-147" font-family="Helvetica,sans-Serif" font-size="10.00">/GenNode.h</text>
</a>
</g>
</g>
<!-- Node25&#45;&gt;Node26 -->
<g id="edge29" class="edge"><title>Node25&#45;&gt;Node26</title>
<path fill="none" stroke="midnightblue" d="M1389.05,-200.92C1387.95,-191.56 1386.73,-181.229 1385.77,-173.049"/>
<polygon fill="midnightblue" stroke="midnightblue" points="1385.58,-201.386 1390.22,-210.909 1392.53,-200.568 1385.58,-201.386"/>
</g>
<!-- Node27 -->
<g id="node27" class="node"><title>Node27</title>
<g id="a_node27"><a xlink:href="_sample_player_node_8h.html" target="_top" xlink:title="include/cinder/audio\l/SamplePlayerNode.h">
<polygon fill="white" stroke="black" points="1500.36,-141 1500.36,-173 1613.64,-173 1613.64,-141 1500.36,-141"/>
<text text-anchor="start" x="1508.36" y="-159" font-family="Helvetica,sans-Serif" font-size="10.00">include/cinder/audio</text>
<text text-anchor="middle" x="1557" y="-147" font-family="Helvetica,sans-Serif" font-size="10.00">/SamplePlayerNode.h</text>
</a>
</g>
</g>
<!-- Node25&#45;&gt;Node27 -->
<g id="edge31" class="edge"><title>Node25&#45;&gt;Node27</title>
<path fill="none" stroke="midnightblue" d="M1437.92,-207.076C1463.98,-196.335 1496.15,-183.076 1520.48,-173.049"/>
<polygon fill="midnightblue" stroke="midnightblue" points="1436.53,-203.862 1428.62,-210.909 1439.2,-210.334 1436.53,-203.862"/>
</g>
<!-- Node28 -->
<g id="node28" class="node"><title>Node28</title>
<g id="a_node28"><a xlink:href="_voice_8h.html" target="_top" xlink:title="include/cinder/audio\l/Voice.h">
<polygon fill="white" stroke="black" points="1804.52,-71 1804.52,-103 1909.48,-103 1909.48,-71 1804.52,-71"/>
<text text-anchor="start" x="1812.52" y="-89" font-family="Helvetica,sans-Serif" font-size="10.00">include/cinder/audio</text>
<text text-anchor="middle" x="1857" y="-77" font-family="Helvetica,sans-Serif" font-size="10.00">/Voice.h</text>
</a>
</g>
</g>
<!-- Node25&#45;&gt;Node28 -->
<g id="edge35" class="edge"><title>Node25&#45;&gt;Node28</title>
<path fill="none" stroke="midnightblue" d="M1454.62,-215.411C1512.3,-205.017 1593.16,-188.639 1622,-174 1642.51,-163.592 1640.69,-150.785 1661,-140 1664.26,-138.269 1747.41,-116.479 1804.35,-101.661"/>
<polygon fill="midnightblue" stroke="midnightblue" points="1453.73,-212.015 1444.5,-217.217 1454.96,-218.906 1453.73,-212.015"/>
</g>
<!-- Node25&#45;&gt;Node10 -->
<g id="edge36" class="edge"><title>Node25&#45;&gt;Node10</title>
<path fill="none" stroke="midnightblue" d="M1416.47,-204.076C1450.71,-173.391 1511.44,-118.965 1535.64,-97.2865"/>
<polygon fill="midnightblue" stroke="midnightblue" points="1413.89,-201.689 1408.77,-210.969 1418.56,-206.902 1413.89,-201.689"/>
</g>
<!-- Node25&#45;&gt;Node13 -->
<g id="edge37" class="edge"><title>Node25&#45;&gt;Node13</title>
<path fill="none" stroke="midnightblue" d="M1363.55,-204.605C1351.09,-195.226 1336.31,-184.081 1323,-174 1286.05,-146.018 1242.43,-112.754 1221.86,-97.0571"/>
<polygon fill="midnightblue" stroke="midnightblue" points="1361.66,-207.563 1371.75,-210.78 1365.87,-201.97 1361.66,-207.563"/>
</g>
<!-- Node26&#45;&gt;Node12 -->
<g id="edge30" class="edge"><title>Node26&#45;&gt;Node12</title>
<path fill="none" stroke="midnightblue" d="M1382.88,-130.668C1382.36,-118.865 1381.78,-105.57 1381.4,-97.0035"/>
<polygon fill="midnightblue" stroke="midnightblue" points="1379.4,-131.073 1383.33,-140.909 1386.39,-130.764 1379.4,-131.073"/>
</g>
<!-- Node27&#45;&gt;Node28 -->
<g id="edge32" class="edge"><title>Node27&#45;&gt;Node28</title>
<path fill="none" stroke="midnightblue" d="M1624.11,-140.859C1625.42,-140.57 1626.72,-140.283 1628,-140 1702.15,-123.654 1721.11,-121.49 1795,-104 1798.03,-103.283 1801.14,-102.531 1804.27,-101.761"/>
<polygon fill="midnightblue" stroke="midnightblue" points="1622.96,-137.53 1613.96,-143.116 1624.48,-144.363 1622.96,-137.53"/>
</g>
<!-- Node27&#45;&gt;Node17 -->
<g id="edge34" class="edge"><title>Node27&#45;&gt;Node17</title>
<path fill="none" stroke="midnightblue" d="M1600.5,-136.793C1624.71,-126.102 1654.41,-112.988 1676.92,-103.049"/>
<polygon fill="midnightblue" stroke="midnightblue" points="1598.91,-133.667 1591.18,-140.909 1601.74,-140.071 1598.91,-133.667"/>
</g>
<!-- Node28&#45;&gt;Node19 -->
<g id="edge33" class="edge"><title>Node28&#45;&gt;Node19</title>
<path fill="none" stroke="midnightblue" d="M1893.54,-65.9601C1917.09,-53.0461 1946.57,-36.8806 1964.58,-27.0035"/>
<polygon fill="midnightblue" stroke="midnightblue" points="1891.6,-63.0314 1884.52,-70.9086 1894.97,-69.1691 1891.6,-63.0314"/>
</g>
<!-- Node30 -->
<g id="node30" class="node"><title>Node30</title>
<g id="a_node30"><a xlink:href="_gain_node_8h.html" target="_top" xlink:title="include/cinder/audio\l/GainNode.h">
<polygon fill="white" stroke="black" points="2212.52,-141 2212.52,-173 2317.48,-173 2317.48,-141 2212.52,-141"/>
<text text-anchor="start" x="2220.52" y="-159" font-family="Helvetica,sans-Serif" font-size="10.00">include/cinder/audio</text>
<text text-anchor="middle" x="2265" y="-147" font-family="Helvetica,sans-Serif" font-size="10.00">/GainNode.h</text>
</a>
</g>
</g>
<!-- Node29&#45;&gt;Node30 -->
<g id="edge39" class="edge"><title>Node29&#45;&gt;Node30</title>
<path fill="none" stroke="midnightblue" d="M2170.68,-206.223C2191.38,-195.639 2216.47,-182.813 2235.57,-173.049"/>
<polygon fill="midnightblue" stroke="midnightblue" points="2168.83,-203.24 2161.52,-210.909 2172.01,-209.473 2168.83,-203.24"/>
</g>
<!-- Node29&#45;&gt;Node21 -->
<g id="edge42" class="edge"><title>Node29&#45;&gt;Node21</title>
<path fill="none" stroke="midnightblue" d="M2149.93,-202.539C2155.78,-193.941 2161.84,-183.888 2166,-174 2175.96,-150.322 2181.03,-120.684 2183.34,-103.106"/>
<polygon fill="midnightblue" stroke="midnightblue" points="2146.92,-200.724 2143.99,-210.904 2152.63,-204.776 2146.92,-200.724"/>
</g>
<!-- Node31 -->
<g id="node31" class="node"><title>Node31</title>
<g id="a_node31"><a xlink:href="_node_math_8cpp.html" target="_top" xlink:title="src/cinder/audio/NodeMath.cpp">
<polygon fill="white" stroke="black" points="2002.8,-147 2002.8,-167 2157.2,-167 2157.2,-147 2002.8,-147"/>
<text text-anchor="middle" x="2080" y="-153" font-family="Helvetica,sans-Serif" font-size="10.00">src/cinder/audio/NodeMath.cpp</text>
</a>
</g>
</g>
<!-- Node29&#45;&gt;Node31 -->
<g id="edge43" class="edge"><title>Node29&#45;&gt;Node31</title>
<path fill="none" stroke="midnightblue" d="M2114.27,-202.817C2104.86,-190.511 2093.84,-176.094 2086.89,-167.004"/>
<polygon fill="midnightblue" stroke="midnightblue" points="2111.6,-205.091 2120.46,-210.909 2117.17,-200.839 2111.6,-205.091"/>
</g>
<!-- Node30&#45;&gt;Node21 -->
<g id="edge40" class="edge"><title>Node30&#45;&gt;Node21</title>
<path fill="none" stroke="midnightblue" d="M2239.35,-134.195C2227.39,-124.034 2213.47,-112.197 2202.7,-103.049"/>
<polygon fill="midnightblue" stroke="midnightblue" points="2237.36,-137.099 2247.25,-140.909 2241.89,-131.765 2237.36,-137.099"/>
</g>
<!-- Node30&#45;&gt;Node19 -->
<g id="edge41" class="edge"><title>Node30&#45;&gt;Node19</title>
<path fill="none" stroke="midnightblue" d="M2266.34,-130.703C2265.91,-111.423 2261.99,-85.6119 2246,-70 2218.37,-43.016 2116.55,-29.2269 2047.47,-22.8252"/>
<polygon fill="midnightblue" stroke="midnightblue" points="2262.84,-130.877 2266.26,-140.904 2269.84,-130.931 2262.84,-130.877"/>
</g>
<!-- Node32&#45;&gt;Node5 -->
<g id="edge45" class="edge"><title>Node32&#45;&gt;Node5</title>
<path fill="none" stroke="midnightblue" d="M1033,-200.617C1033,-191.338 1033,-181.141 1033,-173.049"/>
<polygon fill="midnightblue" stroke="midnightblue" points="1029.5,-200.909 1033,-210.909 1036.5,-200.909 1029.5,-200.909"/>
</g>
<!-- Node32&#45;&gt;Node15 -->
<g id="edge46" class="edge"><title>Node32&#45;&gt;Node15</title>
<path fill="none" stroke="midnightblue" d="M970.144,-217.878C827.704,-199.304 469.503,-151.642 171,-104 157.679,-101.874 143.282,-99.3958 129.992,-97.0338"/>
<polygon fill="midnightblue" stroke="midnightblue" points="970.06,-221.397 980.428,-219.218 970.964,-214.456 970.06,-221.397"/>
</g>
<!-- Node33&#45;&gt;Node21 -->
<g id="edge48" class="edge"><title>Node33&#45;&gt;Node21</title>
<path fill="none" stroke="midnightblue" d="M1784.59,-140.073C1933.11,-113.908 1974.64,-129.143 2119,-104 2123.3,-103.251 2127.73,-102.385 2132.17,-101.451"/>
<polygon fill="midnightblue" stroke="midnightblue" points="1783.87,-136.645 1774.65,-141.857 1785.11,-143.535 1783.87,-136.645"/>
</g>
<!-- Node34 -->
<g id="node34" class="node"><title>Node34</title>
<g id="a_node34"><a xlink:href="_pan_node_8cpp.html" target="_top" xlink:title="src/cinder/audio/PanNode.cpp">
<polygon fill="white" stroke="black" points="1927.02,-77 1927.02,-97 2076.98,-97 2076.98,-77 1927.02,-77"/>
<text text-anchor="middle" x="2002" y="-83" font-family="Helvetica,sans-Serif" font-size="10.00">src/cinder/audio/PanNode.cpp</text>
</a>
</g>
</g>
<!-- Node33&#45;&gt;Node34 -->
<g id="edge49" class="edge"><title>Node33&#45;&gt;Node34</title>
<path fill="none" stroke="midnightblue" d="M1784.84,-139.814C1853.26,-122.888 1921.35,-106.818 1962.96,-97.0837"/>
<polygon fill="midnightblue" stroke="midnightblue" points="1783.61,-136.513 1774.75,-142.317 1785.3,-143.307 1783.61,-136.513"/>
</g>
<!-- Node33&#45;&gt;Node19 -->
<g id="edge50" class="edge"><title>Node33&#45;&gt;Node19</title>
<path fill="none" stroke="midnightblue" d="M1785.01,-140.27C1866.27,-129.719 2042.2,-152.219 2085,-104 2095.03,-92.6982 2092.94,-82.8543 2085,-70 2071.15,-47.5907 2044.4,-34.5156 2021.49,-27.0815"/>
<polygon fill="midnightblue" stroke="midnightblue" points="1783.99,-136.887 1774.66,-141.901 1785.08,-143.802 1783.99,-136.887"/>
</g>
<!-- Node35&#45;&gt;Node18 -->
<g id="edge52" class="edge"><title>Node35&#45;&gt;Node18</title>
<path fill="none" stroke="midnightblue" d="M1213.5,-205.498C1170.44,-177.467 1094.2,-127.835 1056.06,-103.013"/>
<polygon fill="midnightblue" stroke="midnightblue" points="1211.62,-208.447 1221.91,-210.969 1215.44,-202.58 1211.62,-208.447"/>
</g>
</g>
</svg>
