<?xml version="1.0" encoding="UTF-8" standalone="no"?>
<!DOCTYPE svg PUBLIC "-//W3C//DTD SVG 1.1//EN"
 "http://www.w3.org/Graphics/SVG/1.1/DTD/svg11.dtd">
<!-- Generated by graphviz version 2.30.1 (20140712.1814)
 -->
<!-- Title: cinder::gl::FboException Pages: 1 -->
<svg width="130pt" height="274pt"
 viewBox="0.00 0.00 130.00 274.00" xmlns="http://www.w3.org/2000/svg" xmlns:xlink="http://www.w3.org/1999/xlink">
<g id="graph0" class="graph" transform="scale(1 1) rotate(0) translate(4 270)">
<title>cinder::gl::FboException</title>
<polygon fill="white" stroke="white" points="-4,5 -4,-270 127,-270 127,5 -4,5"/>
<!-- Node1 -->
<g id="node1" class="node"><title>Node1</title>
<polygon fill="#bfbfbf" stroke="black" points="-0.640137,-71 -0.640137,-91 122.64,-91 122.64,-71 -0.640137,-71"/>
<text text-anchor="middle" x="61" y="-77" font-family="Helvetica,sans-Serif" font-size="10.00">cinder::gl::FboException</text>
</g>
<!-- Node5 -->
<g id="node5" class="node"><title>Node5</title>
<g id="a_node5"><a xlink:href="classcinder_1_1gl_1_1_fbo_exception_invalid_specification.html" target="_top" xlink:title="cinder::gl::FboException\lInvalidSpecification">
<polygon fill="white" stroke="black" points="-0.640137,-1 -0.640137,-33 122.64,-33 122.64,-1 -0.640137,-1"/>
<text text-anchor="start" x="7.35986" y="-19" font-family="Helvetica,sans-Serif" font-size="10.00">cinder::gl::FboException</text>
<text text-anchor="middle" x="61" y="-7" font-family="Helvetica,sans-Serif" font-size="10.00">InvalidSpecification</text>
</a>
</g>
</g>
<!-- Node1&#45;&gt;Node5 -->
<g id="edge4" class="edge"><title>Node1&#45;&gt;Node5</title>
<path fill="none" stroke="midnightblue" d="M61,-60.7747C61,-51.9863 61,-41.715 61,-33.4404"/>
<polygon fill="midnightblue" stroke="midnightblue" points="57.5001,-60.8517 61,-70.8517 64.5001,-60.8517 57.5001,-60.8517"/>
</g>
<!-- Node2 -->
<g id="node2" class="node"><title>Node2</title>
<g id="a_node2"><a xlink:href="classcinder_1_1gl_1_1_exception.html" target="_top" xlink:title="cinder::gl::Exception">
<polygon fill="white" stroke="black" points="7.97559,-129 7.97559,-149 114.024,-149 114.024,-129 7.97559,-129"/>
<text text-anchor="middle" x="61" y="-135" font-family="Helvetica,sans-Serif" font-size="10.00">cinder::gl::Exception</text>
</a>
</g>
</g>
<!-- Node2&#45;&gt;Node1 -->
<g id="edge1" class="edge"><title>Node2&#45;&gt;Node1</title>
<path fill="none" stroke="midnightblue" d="M61,-118.707C61,-109.338 61,-98.5262 61,-91.0752"/>
<polygon fill="midnightblue" stroke="midnightblue" points="57.5001,-118.753 61,-128.753 64.5001,-118.753 57.5001,-118.753"/>
</g>
<!-- Node3 -->
<g id="node3" class="node"><title>Node3</title>
<g id="a_node3"><a xlink:href="classcinder_1_1_exception.html" target="_top" xlink:title="cinder::Exception">
<polygon fill="white" stroke="black" points="14.6455,-187 14.6455,-207 107.354,-207 107.354,-187 14.6455,-187"/>
<text text-anchor="middle" x="61" y="-193" font-family="Helvetica,sans-Serif" font-size="10.00">cinder::Exception</text>
</a>
</g>
</g>
<!-- Node3&#45;&gt;Node2 -->
<g id="edge2" class="edge"><title>Node3&#45;&gt;Node2</title>
<path fill="none" stroke="midnightblue" d="M61,-176.707C61,-167.338 61,-156.526 61,-149.075"/>
<polygon fill="midnightblue" stroke="midnightblue" points="57.5001,-176.753 61,-186.753 64.5001,-176.753 57.5001,-176.753"/>
</g>
<!-- Node4 -->
<g id="node4" class="node"><title>Node4</title>
<polygon fill="white" stroke="#bfbfbf" points="31.5962,-245 31.5962,-265 90.4038,-265 90.4038,-245 31.5962,-245"/>
<text text-anchor="middle" x="61" y="-251" font-family="Helvetica,sans-Serif" font-size="10.00">exception</text>
</g>
<!-- Node4&#45;&gt;Node3 -->
<g id="edge3" class="edge"><title>Node4&#45;&gt;Node3</title>
<path fill="none" stroke="midnightblue" d="M61,-234.707C61,-225.338 61,-214.526 61,-207.075"/>
<polygon fill="midnightblue" stroke="midnightblue" points="57.5001,-234.753 61,-244.753 64.5001,-234.753 57.5001,-234.753"/>
</g>
</g>
</svg>
