<?xml version="1.0" encoding="UTF-8" standalone="no"?>
<!DOCTYPE svg PUBLIC "-//W3C//DTD SVG 1.1//EN"
 "http://www.w3.org/Graphics/SVG/1.1/DTD/svg11.dtd">
<!-- Generated by graphviz version 2.30.1 (20140712.1814)
 -->
<!-- Title: cinder::CameraStereo Pages: 1 -->
<svg width="120pt" height="146pt"
 viewBox="0.00 0.00 120.00 146.00" xmlns="http://www.w3.org/2000/svg" xmlns:xlink="http://www.w3.org/1999/xlink">
<g id="graph0" class="graph" transform="scale(1 1) rotate(0) translate(4 142)">
<title>cinder::CameraStereo</title>
<polygon fill="white" stroke="white" points="-4,5 -4,-142 117,-142 117,5 -4,5"/>
<!-- Node1 -->
<g id="node1" class="node"><title>Node1</title>
<polygon fill="#bfbfbf" stroke="black" points="-0.911133,-1 -0.911133,-21 112.911,-21 112.911,-1 -0.911133,-1"/>
<text text-anchor="middle" x="56" y="-7" font-family="Helvetica,sans-Serif" font-size="10.00">cinder::CameraStereo</text>
</g>
<!-- Node2 -->
<g id="node2" class="node"><title>Node2</title>
<g id="a_node2"><a xlink:href="classcinder_1_1_camera_persp.html" target="_top" xlink:title="cinder::CameraPersp">
<polygon fill="white" stroke="black" points="0.758789,-59 0.758789,-79 111.241,-79 111.241,-59 0.758789,-59"/>
<text text-anchor="middle" x="56" y="-65" font-family="Helvetica,sans-Serif" font-size="10.00">cinder::CameraPersp</text>
</a>
</g>
</g>
<!-- Node2&#45;&gt;Node1 -->
<g id="edge1" class="edge"><title>Node2&#45;&gt;Node1</title>
<path fill="none" stroke="midnightblue" d="M56,-48.7065C56,-39.3384 56,-28.5262 56,-21.0752"/>
<polygon fill="midnightblue" stroke="midnightblue" points="52.5001,-48.7527 56,-58.7527 59.5001,-48.7528 52.5001,-48.7527"/>
</g>
<!-- Node3 -->
<g id="node3" class="node"><title>Node3</title>
<g id="a_node3"><a xlink:href="classcinder_1_1_camera.html" target="_top" xlink:title="cinder::Camera">
<polygon fill="white" stroke="black" points="13.8203,-117 13.8203,-137 98.1797,-137 98.1797,-117 13.8203,-117"/>
<text text-anchor="middle" x="56" y="-123" font-family="Helvetica,sans-Serif" font-size="10.00">cinder::Camera</text>
</a>
</g>
</g>
<!-- Node3&#45;&gt;Node2 -->
<g id="edge2" class="edge"><title>Node3&#45;&gt;Node2</title>
<path fill="none" stroke="midnightblue" d="M56,-106.707C56,-97.3384 56,-86.5262 56,-79.0752"/>
<polygon fill="midnightblue" stroke="midnightblue" points="52.5001,-106.753 56,-116.753 59.5001,-106.753 52.5001,-106.753"/>
</g>
</g>
</svg>
