<?xml version="1.0" encoding="UTF-8" standalone="no"?>
<!DOCTYPE svg PUBLIC "-//W3C//DTD SVG 1.1//EN"
 "http://www.w3.org/Graphics/SVG/1.1/DTD/svg11.dtd">
<!-- Generated by graphviz version 2.30.1 (20140712.1814)
 -->
<!-- Title: cinder::ImageSourceFileQuartz Pages: 1 -->
<svg width="162pt" height="216pt"
 viewBox="0.00 0.00 162.00 216.00" xmlns="http://www.w3.org/2000/svg" xmlns:xlink="http://www.w3.org/1999/xlink">
<g id="graph0" class="graph" transform="scale(1 1) rotate(0) translate(4 212)">
<title>cinder::ImageSourceFileQuartz</title>
<polygon fill="white" stroke="white" points="-4,5 -4,-212 159,-212 159,5 -4,5"/>
<!-- Node1 -->
<g id="node1" class="node"><title>Node1</title>
<polygon fill="#bfbfbf" stroke="black" points="-0.196777,-1 -0.196777,-21 154.197,-21 154.197,-1 -0.196777,-1"/>
<text text-anchor="middle" x="77" y="-7" font-family="Helvetica,sans-Serif" font-size="10.00">cinder::ImageSourceFileQuartz</text>
</g>
<!-- Node2 -->
<g id="node2" class="node"><title>Node2</title>
<g id="a_node2"><a xlink:href="classcinder_1_1cocoa_1_1_image_source_cg_image.html" target="_top" xlink:title="cinder::cocoa::ImageSource\lCgImage">
<polygon fill="white" stroke="black" points="6.74414,-59 6.74414,-91 147.256,-91 147.256,-59 6.74414,-59"/>
<text text-anchor="start" x="14.7441" y="-77" font-family="Helvetica,sans-Serif" font-size="10.00">cinder::cocoa::ImageSource</text>
<text text-anchor="middle" x="77" y="-65" font-family="Helvetica,sans-Serif" font-size="10.00">CgImage</text>
</a>
</g>
</g>
<!-- Node2&#45;&gt;Node1 -->
<g id="edge1" class="edge"><title>Node2&#45;&gt;Node1</title>
<path fill="none" stroke="midnightblue" d="M77,-48.922C77,-39.1719 77,-28.6099 77,-21.2904"/>
<polygon fill="midnightblue" stroke="midnightblue" points="73.5001,-48.9915 77,-58.9915 80.5001,-48.9916 73.5001,-48.9915"/>
</g>
<!-- Node3 -->
<g id="node3" class="node"><title>Node3</title>
<g id="a_node3"><a xlink:href="classcinder_1_1_image_source.html" target="_top" xlink:title="cinder::ImageSource">
<polygon fill="white" stroke="black" points="22.8647,-129 22.8647,-149 131.135,-149 131.135,-129 22.8647,-129"/>
<text text-anchor="middle" x="77" y="-135" font-family="Helvetica,sans-Serif" font-size="10.00">cinder::ImageSource</text>
</a>
</g>
</g>
<!-- Node3&#45;&gt;Node2 -->
<g id="edge2" class="edge"><title>Node3&#45;&gt;Node2</title>
<path fill="none" stroke="midnightblue" d="M77,-118.775C77,-109.986 77,-99.715 77,-91.4404"/>
<polygon fill="midnightblue" stroke="midnightblue" points="73.5001,-118.852 77,-128.852 80.5001,-118.852 73.5001,-118.852"/>
</g>
<!-- Node4 -->
<g id="node4" class="node"><title>Node4</title>
<g id="a_node4"><a xlink:href="classcinder_1_1_image_io.html" target="_top" xlink:title="cinder::ImageIo">
<polygon fill="white" stroke="black" points="34.5371,-187 34.5371,-207 119.463,-207 119.463,-187 34.5371,-187"/>
<text text-anchor="middle" x="77" y="-193" font-family="Helvetica,sans-Serif" font-size="10.00">cinder::ImageIo</text>
</a>
</g>
</g>
<!-- Node4&#45;&gt;Node3 -->
<g id="edge3" class="edge"><title>Node4&#45;&gt;Node3</title>
<path fill="none" stroke="midnightblue" d="M77,-176.707C77,-167.338 77,-156.526 77,-149.075"/>
<polygon fill="midnightblue" stroke="midnightblue" points="73.5001,-176.753 77,-186.753 80.5001,-176.753 73.5001,-176.753"/>
</g>
</g>
</svg>
