<?xml version="1.0" encoding="UTF-8" standalone="no"?>
<!DOCTYPE svg PUBLIC "-//W3C//DTD SVG 1.1//EN"
 "http://www.w3.org/Graphics/SVG/1.1/DTD/svg11.dtd">
<!-- Generated by graphviz version 2.30.1 (20140712.1814)
 -->
<!-- Title: cinder::audio::cocoa::NodeAudioUnit Pages: 1 -->
<svg width="300pt" height="142pt"
 viewBox="0.00 0.00 300.00 142.00" xmlns="http://www.w3.org/2000/svg" xmlns:xlink="http://www.w3.org/1999/xlink">
<g id="graph0" class="graph" transform="scale(1 1) rotate(0) translate(4 138)">
<title>cinder::audio::cocoa::NodeAudioUnit</title>
<polygon fill="white" stroke="white" points="-4,5 -4,-138 297,-138 297,5 -4,5"/>
<!-- Node1 -->
<g id="node1" class="node"><title>Node1</title>
<polygon fill="#bfbfbf" stroke="black" points="0.249023,-51 0.249023,-83 105.751,-83 105.751,-51 0.249023,-51"/>
<text text-anchor="start" x="8.24902" y="-69" font-family="Helvetica,sans-Serif" font-size="10.00">cinder::audio::cocoa</text>
<text text-anchor="middle" x="53" y="-57" font-family="Helvetica,sans-Serif" font-size="10.00">::NodeAudioUnit</text>
</g>
<!-- Node2 -->
<g id="node2" class="node"><title>Node2</title>
<g id="a_node2"><a xlink:href="classcinder_1_1audio_1_1cocoa_1_1_effect_audio_unit_node.html" target="_top" xlink:title="cinder::audio::cocoa\l::EffectAudioUnitNode">
<polygon fill="white" stroke="black" points="159.894,-102 159.894,-134 274.106,-134 274.106,-102 159.894,-102"/>
<text text-anchor="start" x="167.894" y="-120" font-family="Helvetica,sans-Serif" font-size="10.00">cinder::audio::cocoa</text>
<text text-anchor="middle" x="217" y="-108" font-family="Helvetica,sans-Serif" font-size="10.00">::EffectAudioUnitNode</text>
</a>
</g>
</g>
<!-- Node1&#45;&gt;Node2 -->
<g id="edge1" class="edge"><title>Node1&#45;&gt;Node2</title>
<path fill="none" stroke="midnightblue" d="M114.84,-86.1535C131.39,-91.3634 149.138,-96.9508 165.076,-101.968"/>
<polygon fill="midnightblue" stroke="midnightblue" points="115.847,-82.8012 105.258,-83.1367 113.745,-89.4781 115.847,-82.8012"/>
</g>
<!-- Node3 -->
<g id="node3" class="node"><title>Node3</title>
<g id="a_node3"><a xlink:href="classcinder_1_1audio_1_1cocoa_1_1_input_device_node_audio_unit.html" target="_top" xlink:title="cinder::audio::cocoa\l::InputDeviceNodeAudioUnit">
<polygon fill="white" stroke="black" points="146.185,-51 146.185,-83 287.815,-83 287.815,-51 146.185,-51"/>
<text text-anchor="start" x="154.185" y="-69" font-family="Helvetica,sans-Serif" font-size="10.00">cinder::audio::cocoa</text>
<text text-anchor="middle" x="217" y="-57" font-family="Helvetica,sans-Serif" font-size="10.00">::InputDeviceNodeAudioUnit</text>
</a>
</g>
</g>
<!-- Node1&#45;&gt;Node3 -->
<g id="edge2" class="edge"><title>Node1&#45;&gt;Node3</title>
<path fill="none" stroke="midnightblue" d="M116.449,-67C126.101,-67 136.124,-67 145.929,-67"/>
<polygon fill="midnightblue" stroke="midnightblue" points="116.15,-63.5001 106.15,-67 116.15,-70.5001 116.15,-63.5001"/>
</g>
<!-- Node4 -->
<g id="node4" class="node"><title>Node4</title>
<g id="a_node4"><a xlink:href="classcinder_1_1audio_1_1cocoa_1_1_output_device_node_audio_unit.html" target="_top" xlink:title="cinder::audio::cocoa\l::OutputDeviceNodeAudioUnit">
<polygon fill="white" stroke="black" points="142.296,-0 142.296,-32 291.704,-32 291.704,-0 142.296,-0"/>
<text text-anchor="start" x="150.296" y="-18" font-family="Helvetica,sans-Serif" font-size="10.00">cinder::audio::cocoa</text>
<text text-anchor="middle" x="217" y="-6" font-family="Helvetica,sans-Serif" font-size="10.00">::OutputDeviceNodeAudioUnit</text>
</a>
</g>
</g>
<!-- Node1&#45;&gt;Node4 -->
<g id="edge3" class="edge"><title>Node1&#45;&gt;Node4</title>
<path fill="none" stroke="midnightblue" d="M114.84,-47.8465C131.39,-42.6366 149.138,-37.0492 165.076,-32.0317"/>
<polygon fill="midnightblue" stroke="midnightblue" points="113.745,-44.5219 105.258,-50.8633 115.847,-51.1988 113.745,-44.5219"/>
</g>
</g>
</svg>
