<?xml version="1.0" encoding="UTF-8" standalone="no"?>
<!DOCTYPE svg PUBLIC "-//W3C//DTD SVG 1.1//EN"
 "http://www.w3.org/Graphics/SVG/1.1/DTD/svg11.dtd">
<!-- Generated by graphviz version 2.30.1 (20140712.1814)
 -->
<!-- Title: cinder::audio::BufferBaseT&lt; T &gt; Pages: 1 -->
<svg width="319pt" height="182pt"
 viewBox="0.00 0.00 319.00 182.00" xmlns="http://www.w3.org/2000/svg" xmlns:xlink="http://www.w3.org/1999/xlink">
<g id="graph0" class="graph" transform="scale(1 1) rotate(0) translate(4 178)">
<title>cinder::audio::BufferBaseT&lt; T &gt;</title>
<polygon fill="white" stroke="white" points="-4,5 -4,-178 316,-178 316,5 -4,5"/>
<!-- Node1 -->
<g id="node1" class="node"><title>Node1</title>
<polygon fill="#bfbfbf" stroke="black" points="93.9429,-141 93.9429,-173 222.057,-173 222.057,-141 93.9429,-141"/>
<text text-anchor="start" x="101.943" y="-159" font-family="Helvetica,sans-Serif" font-size="10.00">cinder::audio::BufferBase</text>
<text text-anchor="middle" x="158" y="-147" font-family="Helvetica,sans-Serif" font-size="10.00">T&lt; T &gt;</text>
</g>
<!-- Node2 -->
<g id="node2" class="node"><title>Node2</title>
<g id="a_node2"><a xlink:href="classcinder_1_1audio_1_1_buffer_interleaved_t.html" target="_top" xlink:title="Audio buffer that stores its channels of type T in one interleaved array (ie. the first sample of cha...">
<polygon fill="white" stroke="black" points="-0.399414,-71 -0.399414,-103 154.399,-103 154.399,-71 -0.399414,-71"/>
<text text-anchor="start" x="7.60059" y="-89" font-family="Helvetica,sans-Serif" font-size="10.00">cinder::audio::BufferInterleaved</text>
<text text-anchor="middle" x="77" y="-77" font-family="Helvetica,sans-Serif" font-size="10.00">T&lt; T &gt;</text>
</a>
</g>
</g>
<!-- Node1&#45;&gt;Node2 -->
<g id="edge1" class="edge"><title>Node1&#45;&gt;Node2</title>
<path fill="none" stroke="midnightblue" d="M132.026,-134.195C119.922,-124.034 105.823,-112.197 94.9263,-103.049"/>
<polygon fill="midnightblue" stroke="midnightblue" points="130.114,-137.159 140.023,-140.909 134.615,-131.798 130.114,-137.159"/>
</g>
<!-- Node3 -->
<g id="node3" class="node"><title>Node3</title>
<g id="a_node3"><a xlink:href="classcinder_1_1audio_1_1_buffer_t.html" target="_top" xlink:title="Audio buffer that stores its channels of type T contiguously (ie. the first sample of channel 1 is di...">
<polygon fill="white" stroke="black" points="172.789,-77 172.789,-97 307.211,-97 307.211,-77 172.789,-77"/>
<text text-anchor="middle" x="240" y="-83" font-family="Helvetica,sans-Serif" font-size="10.00">cinder::audio::BufferT&lt; T &gt;</text>
</a>
</g>
</g>
<!-- Node1&#45;&gt;Node3 -->
<g id="edge2" class="edge"><title>Node1&#45;&gt;Node3</title>
<path fill="none" stroke="midnightblue" d="M184.255,-134.228C199.449,-121.628 217.759,-106.444 229.143,-97.0035"/>
<polygon fill="midnightblue" stroke="midnightblue" points="181.662,-131.831 176.198,-140.909 186.13,-137.219 181.662,-131.831"/>
</g>
<!-- Node4 -->
<g id="node4" class="node"><title>Node4</title>
<g id="a_node4"><a xlink:href="classcinder_1_1audio_1_1_buffer_spectral_t.html" target="_top" xlink:title="A buffer that contains frequency domain audio data. ">
<polygon fill="white" stroke="black" points="168.997,-1 168.997,-33 311.003,-33 311.003,-1 168.997,-1"/>
<text text-anchor="start" x="176.997" y="-19" font-family="Helvetica,sans-Serif" font-size="10.00">cinder::audio::BufferSpectral</text>
<text text-anchor="middle" x="240" y="-7" font-family="Helvetica,sans-Serif" font-size="10.00">T&lt; T &gt;</text>
</a>
</g>
</g>
<!-- Node3&#45;&gt;Node4 -->
<g id="edge3" class="edge"><title>Node3&#45;&gt;Node4</title>
<path fill="none" stroke="midnightblue" d="M240,-66.5217C240,-55.9564 240,-43.0873 240,-33.2579"/>
<polygon fill="midnightblue" stroke="midnightblue" points="236.5,-66.8292 240,-76.8292 243.5,-66.8293 236.5,-66.8292"/>
</g>
</g>
</svg>
