<?xml version="1.0" encoding="UTF-8" standalone="no"?>
<!DOCTYPE svg PUBLIC "-//W3C//DTD SVG 1.1//EN"
 "http://www.w3.org/Graphics/SVG/1.1/DTD/svg11.dtd">
<!-- Generated by graphviz version 2.30.1 (20140712.1814)
 -->
<!-- Title: cinder::ImageTargetFileWic Pages: 1 -->
<svg width="144pt" height="146pt"
 viewBox="0.00 0.00 144.00 146.00" xmlns="http://www.w3.org/2000/svg" xmlns:xlink="http://www.w3.org/1999/xlink">
<g id="graph0" class="graph" transform="scale(1 1) rotate(0) translate(4 142)">
<title>cinder::ImageTargetFileWic</title>
<polygon fill="white" stroke="white" points="-4,5 -4,-142 141,-142 141,5 -4,5"/>
<!-- Node1 -->
<g id="node1" class="node"><title>Node1</title>
<polygon fill="#bfbfbf" stroke="black" points="-0.576172,-1 -0.576172,-21 136.576,-21 136.576,-1 -0.576172,-1"/>
<text text-anchor="middle" x="68" y="-7" font-family="Helvetica,sans-Serif" font-size="10.00">cinder::ImageTargetFileWic</text>
</g>
<!-- Node2 -->
<g id="node2" class="node"><title>Node2</title>
<g id="a_node2"><a xlink:href="classcinder_1_1_image_target.html" target="_top" xlink:title="cinder::ImageTarget">
<polygon fill="white" stroke="black" points="15.8105,-59 15.8105,-79 120.189,-79 120.189,-59 15.8105,-59"/>
<text text-anchor="middle" x="68" y="-65" font-family="Helvetica,sans-Serif" font-size="10.00">cinder::ImageTarget</text>
</a>
</g>
</g>
<!-- Node2&#45;&gt;Node1 -->
<g id="edge1" class="edge"><title>Node2&#45;&gt;Node1</title>
<path fill="none" stroke="midnightblue" d="M68,-48.7065C68,-39.3384 68,-28.5262 68,-21.0752"/>
<polygon fill="midnightblue" stroke="midnightblue" points="64.5001,-48.7527 68,-58.7527 71.5001,-48.7528 64.5001,-48.7527"/>
</g>
<!-- Node3 -->
<g id="node3" class="node"><title>Node3</title>
<g id="a_node3"><a xlink:href="classcinder_1_1_image_io.html" target="_top" xlink:title="cinder::ImageIo">
<polygon fill="white" stroke="black" points="25.5371,-117 25.5371,-137 110.463,-137 110.463,-117 25.5371,-117"/>
<text text-anchor="middle" x="68" y="-123" font-family="Helvetica,sans-Serif" font-size="10.00">cinder::ImageIo</text>
</a>
</g>
</g>
<!-- Node3&#45;&gt;Node2 -->
<g id="edge2" class="edge"><title>Node3&#45;&gt;Node2</title>
<path fill="none" stroke="midnightblue" d="M68,-106.707C68,-97.3384 68,-86.5262 68,-79.0752"/>
<polygon fill="midnightblue" stroke="midnightblue" points="64.5001,-106.753 68,-116.753 71.5001,-106.753 64.5001,-106.753"/>
</g>
</g>
</svg>
