<?xml version="1.0" encoding="UTF-8" standalone="no"?>
<!DOCTYPE svg PUBLIC "-//W3C//DTD SVG 1.1//EN"
 "http://www.w3.org/Graphics/SVG/1.1/DTD/svg11.dtd">
<!-- Generated by graphviz version 2.30.1 (20140712.1814)
 -->
<!-- Title: cinder::ImageTarget Pages: 1 -->
<!--zoomable 287 -->
<svg id="main" version="1.1" xmlns="http://www.w3.org/2000/svg" xmlns:xlink="http://www.w3.org/1999/xlink" xml:space="preserve" onload="init(evt)">
<style type="text/css"><![CDATA[
.edge:hover path { stroke: red; }
.edge:hover polygon { stroke: red; fill: red; }
]]></style>
<script type="text/javascript"><![CDATA[
var edges = document.getElementsByTagName('g');
if (edges && edges.length) {
  for (var i=0;i<edges.length;i++) {
    if (edges[i].id.substr(0,4)=='edge') {
      edges[i].setAttribute('class','edge');
    }
  }
}
]]></script>
        <defs>
                <circle id="rim" cx="0" cy="0" r="7"/>
                <circle id="rim2" cx="0" cy="0" r="3.5"/>
                <g id="zoomPlus">
                        <use xlink:href="#rim" fill="#404040">
                                <set attributeName="fill" to="#808080" begin="zoomplus.mouseover" end="zoomplus.mouseout"/>
                        </use>
                        <path d="M-4,0h8M0,-4v8" fill="none" stroke="white" stroke-width="1.5" pointer-events="none"/>
                </g>
                <g id="zoomMin">
                        <use xlink:href="#rim" fill="#404040">
                                <set attributeName="fill" to="#808080" begin="zoomminus.mouseover" end="zoomminus.mouseout"/>
                        </use>
                        <path d="M-4,0h8" fill="none" stroke="white" stroke-width="1.5" pointer-events="none"/>
                </g>
                <g id="dirArrow">
                        <path fill="none" stroke="white" stroke-width="1.5" d="M0,-3.0v7 M-2.5,-0.5L0,-3.0L2.5,-0.5"/>
                </g>
               <g id="resetDef">
                       <use xlink:href="#rim2" fill="#404040">
                               <set attributeName="fill" to="#808080" begin="reset.mouseover" end="reset.mouseout"/>
                       </use>
               </g>
        </defs>

<script type="text/javascript">
var viewWidth = 648;
var viewHeight = 287;
var sectionId = 'dynsection-0';
</script>
<script xlink:href="svgpan.js"/>
<svg id="graph" class="graph">
<g id="viewport">
<title>cinder::ImageTarget</title>
<polygon fill="white" stroke="white" points="-4,5 -4,-283 645,-283 645,5 -4,5"/>
<!-- Node1 -->
<g id="node1" class="node"><title>Node1</title>
<polygon fill="#bfbfbf" stroke="black" points="121.811,-129 121.811,-149 226.189,-149 226.189,-129 121.811,-129"/>
<text text-anchor="middle" x="174" y="-135" font-family="Helvetica,sans-Serif" font-size="10.00">cinder::ImageTarget</text>
</g>
<!-- Node3 -->
<g id="node3" class="node"><title>Node3</title>
<g id="a_node3"><a xlink:href="classcinder_1_1cocoa_1_1_image_target_cg_image.html" target="_top" xlink:title="cinder::cocoa::ImageTarget\lCgImage">
<polygon fill="white" stroke="black" points="288.69,-246 288.69,-278 425.31,-278 425.31,-246 288.69,-246"/>
<text text-anchor="start" x="296.69" y="-264" font-family="Helvetica,sans-Serif" font-size="10.00">cinder::cocoa::ImageTarget</text>
<text text-anchor="middle" x="357" y="-252" font-family="Helvetica,sans-Serif" font-size="10.00">CgImage</text>
</a>
</g>
</g>
<!-- Node1&#45;&gt;Node3 -->
<g id="edge2" class="edge"><title>Node1&#45;&gt;Node3</title>
<path fill="none" stroke="midnightblue" d="M186.857,-157.724C201.753,-179.721 229.359,-215.773 262,-236 270.06,-240.995 279.092,-245.048 288.284,-248.334"/>
<polygon fill="midnightblue" stroke="midnightblue" points="189.696,-155.672 181.273,-149.245 183.85,-159.522 189.696,-155.672"/>
</g>
<!-- Node5 -->
<g id="node5" class="node"><title>Node5</title>
<polygon fill="white" stroke="#bfbfbf" points="262.557,-207 262.557,-227 451.443,-227 451.443,-207 262.557,-207"/>
<text text-anchor="middle" x="357" y="-213" font-family="Helvetica,sans-Serif" font-size="10.00">cinder::dx::ImageTargetGLTexture&lt; T &gt;</text>
</g>
<!-- Node1&#45;&gt;Node5 -->
<g id="edge4" class="edge"><title>Node1&#45;&gt;Node5</title>
<path fill="none" stroke="midnightblue" d="M194.82,-155.416C211.684,-168.566 237.071,-186.495 262,-197 271.686,-201.082 282.298,-204.366 292.793,-206.998"/>
<polygon fill="midnightblue" stroke="midnightblue" points="196.826,-152.539 186.826,-149.04 192.461,-158.012 196.826,-152.539"/>
</g>
<!-- Node6 -->
<g id="node6" class="node"><title>Node6</title>
<polygon fill="white" stroke="#bfbfbf" points="263.946,-168 263.946,-188 450.054,-188 450.054,-168 263.946,-168"/>
<text text-anchor="middle" x="357" y="-174" font-family="Helvetica,sans-Serif" font-size="10.00">cinder::gl::ImageTargetGLTexture&lt; T &gt;</text>
</g>
<!-- Node1&#45;&gt;Node6 -->
<g id="edge5" class="edge"><title>Node1&#45;&gt;Node6</title>
<path fill="none" stroke="midnightblue" d="M230.477,-151.162C240.946,-153.444 251.807,-155.803 262,-158 277.168,-161.27 293.721,-164.804 308.651,-167.978"/>
<polygon fill="midnightblue" stroke="midnightblue" points="231.11,-147.718 220.594,-149.006 229.618,-154.557 231.11,-147.718"/>
</g>
<!-- Node7 -->
<g id="node7" class="node"><title>Node7</title>
<polygon fill="white" stroke="#bfbfbf" points="274.688,-129 274.688,-149 439.312,-149 439.312,-129 274.688,-129"/>
<text text-anchor="middle" x="357" y="-135" font-family="Helvetica,sans-Serif" font-size="10.00">cinder::ImageTargetChannel&lt; T &gt;</text>
</g>
<!-- Node1&#45;&gt;Node7 -->
<g id="edge6" class="edge"><title>Node1&#45;&gt;Node7</title>
<path fill="none" stroke="midnightblue" d="M236.422,-139C248.62,-139 261.607,-139 274.357,-139"/>
<polygon fill="midnightblue" stroke="midnightblue" points="236.383,-135.5 226.383,-139 236.383,-142.5 236.383,-135.5"/>
</g>
<!-- Node8 -->
<g id="node8" class="node"><title>Node8</title>
<g id="a_node8"><a xlink:href="classcinder_1_1_image_target_file_wic.html" target="_top" xlink:title="cinder::ImageTargetFileWic">
<polygon fill="white" stroke="black" points="288.424,-90 288.424,-110 425.576,-110 425.576,-90 288.424,-90"/>
<text text-anchor="middle" x="357" y="-96" font-family="Helvetica,sans-Serif" font-size="10.00">cinder::ImageTargetFileWic</text>
</a>
</g>
</g>
<!-- Node1&#45;&gt;Node8 -->
<g id="edge7" class="edge"><title>Node1&#45;&gt;Node8</title>
<path fill="none" stroke="midnightblue" d="M227.638,-126.663C238.961,-124.075 250.869,-121.404 262,-119 275.996,-115.977 291.197,-112.841 305.213,-110.009"/>
<polygon fill="midnightblue" stroke="midnightblue" points="226.836,-123.256 217.873,-128.906 228.403,-130.078 226.836,-123.256"/>
</g>
<!-- Node9 -->
<g id="node9" class="node"><title>Node9</title>
<polygon fill="white" stroke="#bfbfbf" points="276.083,-51 276.083,-71 437.917,-71 437.917,-51 276.083,-51"/>
<text text-anchor="middle" x="357" y="-57" font-family="Helvetica,sans-Serif" font-size="10.00">cinder::ImageTargetSurface&lt; T &gt;</text>
</g>
<!-- Node1&#45;&gt;Node9 -->
<g id="edge8" class="edge"><title>Node1&#45;&gt;Node9</title>
<path fill="none" stroke="midnightblue" d="M194.456,-122.45C211.273,-109.005 236.783,-90.5928 262,-80 270.596,-76.3891 279.929,-73.4488 289.266,-71.0585"/>
<polygon fill="midnightblue" stroke="midnightblue" points="192.024,-119.918 186.502,-128.96 196.458,-125.335 192.024,-119.918"/>
</g>
<!-- Node10 -->
<g id="node10" class="node"><title>Node10</title>
<g id="a_node10"><a xlink:href="classcinder_1_1qtime_1_1_image_target_cv_pixel_buffer.html" target="_top" xlink:title="cinder::qtime::ImageTarget\lCvPixelBuffer">
<polygon fill="white" stroke="black" points="289.806,-0 289.806,-32 424.194,-32 424.194,-0 289.806,-0"/>
<text text-anchor="start" x="297.806" y="-18" font-family="Helvetica,sans-Serif" font-size="10.00">cinder::qtime::ImageTarget</text>
<text text-anchor="middle" x="357" y="-6" font-family="Helvetica,sans-Serif" font-size="10.00">CvPixelBuffer</text>
</a>
</g>
</g>
<!-- Node1&#45;&gt;Node10 -->
<g id="edge9" class="edge"><title>Node1&#45;&gt;Node10</title>
<path fill="none" stroke="midnightblue" d="M186.548,-120.367C201.311,-98.1198 228.954,-61.3683 262,-41 270.482,-35.7723 280.046,-31.6264 289.745,-28.3412"/>
<polygon fill="midnightblue" stroke="midnightblue" points="183.509,-118.623 181.032,-128.924 189.392,-122.416 183.509,-118.623"/>
</g>
<!-- Node2 -->
<g id="node2" class="node"><title>Node2</title>
<g id="a_node2"><a xlink:href="classcinder_1_1_image_io.html" target="_top" xlink:title="cinder::ImageIo">
<polygon fill="white" stroke="black" points="0.537109,-129 0.537109,-149 85.4629,-149 85.4629,-129 0.537109,-129"/>
<text text-anchor="middle" x="43" y="-135" font-family="Helvetica,sans-Serif" font-size="10.00">cinder::ImageIo</text>
</a>
</g>
</g>
<!-- Node2&#45;&gt;Node1 -->
<g id="edge1" class="edge"><title>Node2&#45;&gt;Node1</title>
<path fill="none" stroke="midnightblue" d="M95.7287,-139C104.253,-139 113.088,-139 121.605,-139"/>
<polygon fill="midnightblue" stroke="midnightblue" points="95.5265,-135.5 85.5265,-139 95.5265,-142.5 95.5265,-135.5"/>
</g>
<!-- Node4 -->
<g id="node4" class="node"><title>Node4</title>
<g id="a_node4"><a xlink:href="classcinder_1_1_image_target_file_quartz.html" target="_top" xlink:title="cinder::ImageTargetFileQuartz">
<polygon fill="white" stroke="black" points="488.749,-252 488.749,-272 639.251,-272 639.251,-252 488.749,-252"/>
<text text-anchor="middle" x="564" y="-258" font-family="Helvetica,sans-Serif" font-size="10.00">cinder::ImageTargetFileQuartz</text>
</a>
</g>
</g>
<!-- Node3&#45;&gt;Node4 -->
<g id="edge3" class="edge"><title>Node3&#45;&gt;Node4</title>
<path fill="none" stroke="midnightblue" d="M435.496,-262C452.856,-262 471.235,-262 488.471,-262"/>
<polygon fill="midnightblue" stroke="midnightblue" points="435.409,-258.5 425.409,-262 435.409,-265.5 435.409,-258.5"/>
</g>
</g>
</svg>
        <g id="navigator" transform="translate(0 0)" fill="#404254">
                <rect fill="#f2f5e9" fill-opacity="0.5" stroke="#606060" stroke-width=".5" x="0" y="0" width="60" height="60"/>
                <use id="zoomplus" xlink:href="#zoomPlus" x="17" y="9" onmousedown="handleZoom(evt,'in')"/>
                <use id="zoomminus" xlink:href="#zoomMin" x="42" y="9" onmousedown="handleZoom(evt,'out')"/>
                <use id="reset" xlink:href="#resetDef" x="30" y="36" onmousedown="handleReset()"/>
                <g id="arrowUp" xlink:href="#dirArrow" transform="translate(30 24)" onmousedown="handlePan(0,-1)">
                  <use xlink:href="#rim" fill="#404040">
                        <set attributeName="fill" to="#808080" begin="arrowUp.mouseover" end="arrowUp.mouseout"/>
                  </use>
                  <path fill="none" stroke="white" stroke-width="1.5" d="M0,-3.0v7 M-2.5,-0.5L0,-3.0L2.5,-0.5"/>
                </g>
                <g id="arrowRight" xlink:href="#dirArrow" transform="rotate(90) translate(36 -43)" onmousedown="handlePan(1,0)">
                  <use xlink:href="#rim" fill="#404040">
                        <set attributeName="fill" to="#808080" begin="arrowRight.mouseover" end="arrowRight.mouseout"/>
                  </use>
                  <path fill="none" stroke="white" stroke-width="1.5" d="M0,-3.0v7 M-2.5,-0.5L0,-3.0L2.5,-0.5"/>
                </g>
                <g id="arrowDown" xlink:href="#dirArrow" transform="rotate(180) translate(-30 -48)" onmousedown="handlePan(0,1)">
                  <use xlink:href="#rim" fill="#404040">
                        <set attributeName="fill" to="#808080" begin="arrowDown.mouseover" end="arrowDown.mouseout"/>
                  </use>
                  <path fill="none" stroke="white" stroke-width="1.5" d="M0,-3.0v7 M-2.5,-0.5L0,-3.0L2.5,-0.5"/>
                </g>
                <g id="arrowLeft" xlink:href="#dirArrow" transform="rotate(270) translate(-36 17)" onmousedown="handlePan(-1,0)">
                  <use xlink:href="#rim" fill="#404040">
                        <set attributeName="fill" to="#808080" begin="arrowLeft.mouseover" end="arrowLeft.mouseout"/>
                  </use>
                  <path fill="none" stroke="white" stroke-width="1.5" d="M0,-3.0v7 M-2.5,-0.5L0,-3.0L2.5,-0.5"/>
                </g>
        </g>
        <svg viewBox="0 0 15 15" width="100%" height="30px" preserveAspectRatio="xMaxYMin meet">
         <g id="arrow_out" transform="scale(0.3 0.3)">
          <a xlink:href="classcinder_1_1_image_target__inherit__graph_org.svg" target="_base">
           <rect id="button" ry="5" rx="5" y="6" x="6" height="38" width="38"
                fill="#f2f5e9" fill-opacity="0.5" stroke="#606060" stroke-width="1.0"/>
           <path id="arrow"
             d="M 11.500037,31.436501 C 11.940474,20.09759 22.043105,11.32322 32.158766,21.979434 L 37.068811,17.246167 C 37.068811,17.246167 37.088388,32 37.088388,32 L 22.160133,31.978069 C 22.160133,31.978069 26.997745,27.140456 26.997745,27.140456 C 18.528582,18.264221 13.291696,25.230495 11.500037,31.436501 z"
             style="fill:#404040;"/>
          </a>
         </g>
        </svg>
</svg>
