<?xml version="1.0" encoding="UTF-8" standalone="no"?>
<!DOCTYPE svg PUBLIC "-//W3C//DTD SVG 1.1//EN"
 "http://www.w3.org/Graphics/SVG/1.1/DTD/svg11.dtd">
<!-- Generated by graphviz version 2.30.1 (20140712.1814)
 -->
<!-- Title: cinder::dx::VboExc Pages: 1 -->
<svg width="400pt" height="106pt"
 viewBox="0.00 0.00 400.00 106.00" xmlns="http://www.w3.org/2000/svg" xmlns:xlink="http://www.w3.org/1999/xlink">
<g id="graph0" class="graph" transform="scale(1 1) rotate(0) translate(4 102)">
<title>cinder::dx::VboExc</title>
<polygon fill="white" stroke="white" points="-4,5 -4,-102 397,-102 397,5 -4,5"/>
<!-- Node1 -->
<g id="node1" class="node"><title>Node1</title>
<polygon fill="#bfbfbf" stroke="black" points="96.313,-39 96.313,-59 195.687,-59 195.687,-39 96.313,-39"/>
<text text-anchor="middle" x="146" y="-45" font-family="Helvetica,sans-Serif" font-size="10.00">cinder::dx::VboExc</text>
</g>
<!-- Node3 -->
<g id="node3" class="node"><title>Node3</title>
<g id="a_node3"><a xlink:href="classcinder_1_1dx_1_1_vbo_failed_map_exc.html" target="_top" xlink:title="cinder::dx::VboFailedMapExc">
<polygon fill="white" stroke="black" points="238.968,-78 238.968,-98 385.032,-98 385.032,-78 238.968,-78"/>
<text text-anchor="middle" x="312" y="-84" font-family="Helvetica,sans-Serif" font-size="10.00">cinder::dx::VboFailedMapExc</text>
</a>
</g>
</g>
<!-- Node1&#45;&gt;Node3 -->
<g id="edge2" class="edge"><title>Node1&#45;&gt;Node3</title>
<path fill="none" stroke="midnightblue" d="M198.988,-61.3629C221.538,-66.7254 247.601,-72.9234 268.909,-77.9906"/>
<polygon fill="midnightblue" stroke="midnightblue" points="199.773,-57.952 189.234,-59.0435 198.153,-64.7621 199.773,-57.952"/>
</g>
<!-- Node4 -->
<g id="node4" class="node"><title>Node4</title>
<g id="a_node4"><a xlink:href="classcinder_1_1dx_1_1_vbo_failed_unmap_exc.html" target="_top" xlink:title="cinder::dx::VboFailedUnmapExc">
<polygon fill="white" stroke="black" points="232.577,-39 232.577,-59 391.423,-59 391.423,-39 232.577,-39"/>
<text text-anchor="middle" x="312" y="-45" font-family="Helvetica,sans-Serif" font-size="10.00">cinder::dx::VboFailedUnmapExc</text>
</a>
</g>
</g>
<!-- Node1&#45;&gt;Node4 -->
<g id="edge3" class="edge"><title>Node1&#45;&gt;Node4</title>
<path fill="none" stroke="midnightblue" d="M205.987,-49C214.54,-49 223.458,-49 232.323,-49"/>
<polygon fill="midnightblue" stroke="midnightblue" points="205.761,-45.5001 195.761,-49 205.761,-52.5001 205.761,-45.5001"/>
</g>
<!-- Node5 -->
<g id="node5" class="node"><title>Node5</title>
<g id="a_node5"><a xlink:href="classcinder_1_1dx_1_1_vbo_invalid_target_exc.html" target="_top" xlink:title="cinder::dx::VboInvalidTargetExc">
<polygon fill="white" stroke="black" points="233.963,-0 233.963,-20 390.037,-20 390.037,-0 233.963,-0"/>
<text text-anchor="middle" x="312" y="-6" font-family="Helvetica,sans-Serif" font-size="10.00">cinder::dx::VboInvalidTargetExc</text>
</a>
</g>
</g>
<!-- Node1&#45;&gt;Node5 -->
<g id="edge4" class="edge"><title>Node1&#45;&gt;Node5</title>
<path fill="none" stroke="midnightblue" d="M198.988,-36.6371C221.538,-31.2746 247.601,-25.0766 268.909,-20.0094"/>
<polygon fill="midnightblue" stroke="midnightblue" points="198.153,-33.2379 189.234,-38.9565 199.773,-40.048 198.153,-33.2379"/>
</g>
<!-- Node2 -->
<g id="node2" class="node"><title>Node2</title>
<polygon fill="white" stroke="#bfbfbf" points="0.596191,-39 0.596191,-59 59.4038,-59 59.4038,-39 0.596191,-39"/>
<text text-anchor="middle" x="30" y="-45" font-family="Helvetica,sans-Serif" font-size="10.00">exception</text>
</g>
<!-- Node2&#45;&gt;Node1 -->
<g id="edge1" class="edge"><title>Node2&#45;&gt;Node1</title>
<path fill="none" stroke="midnightblue" d="M69.5071,-49C78.0338,-49 87.1797,-49 96.0594,-49"/>
<polygon fill="midnightblue" stroke="midnightblue" points="69.473,-45.5001 59.4729,-49 69.4729,-52.5001 69.473,-45.5001"/>
</g>
</g>
</svg>
