<?xml version="1.0" encoding="UTF-8" standalone="no"?>
<!DOCTYPE svg PUBLIC "-//W3C//DTD SVG 1.1//EN"
 "http://www.w3.org/Graphics/SVG/1.1/DTD/svg11.dtd">
<!-- Generated by graphviz version 2.30.1 (20140712.1814)
 -->
<!-- Title: sealed Pages: 1 -->
<svg width="246pt" height="91pt"
 viewBox="0.00 0.00 246.00 91.00" xmlns="http://www.w3.org/2000/svg" xmlns:xlink="http://www.w3.org/1999/xlink">
<g id="graph0" class="graph" transform="scale(1 1) rotate(0) translate(4 87)">
<title>sealed</title>
<polygon fill="white" stroke="white" points="-4,5 -4,-87 243,-87 243,5 -4,5"/>
<!-- Node1 -->
<g id="node1" class="node"><title>Node1</title>
<polygon fill="#bfbfbf" stroke="black" points="192.266,-31 192.266,-51 237.734,-51 237.734,-31 192.266,-31"/>
<text text-anchor="middle" x="215" y="-37" font-family="Helvetica,sans-Serif" font-size="10.00">sealed</text>
</g>
<!-- Node2 -->
<g id="node2" class="node"><title>Node2</title>
<polygon fill="white" stroke="#bfbfbf" points="0.622559,-51 0.622559,-83 155.377,-83 155.377,-51 0.622559,-51"/>
<text text-anchor="start" x="8.62256" y="-69" font-family="Helvetica,sans-Serif" font-size="10.00">Windows::ApplicationModel</text>
<text text-anchor="middle" x="78" y="-57" font-family="Helvetica,sans-Serif" font-size="10.00">::Core::IFrameworkViewSource</text>
</g>
<!-- Node2&#45;&gt;Node1 -->
<g id="edge1" class="edge"><title>Node2&#45;&gt;Node1</title>
<path fill="none" stroke="midnightblue" d="M165.533,-50.3343C175.334,-48.4467 184.553,-46.6714 192.264,-45.1861"/>
<polygon fill="midnightblue" stroke="midnightblue" points="164.73,-46.9247 155.572,-52.2528 166.054,-53.7984 164.73,-46.9247"/>
</g>
<!-- Node3 -->
<g id="node3" class="node"><title>Node3</title>
<polygon fill="white" stroke="#bfbfbf" points="8.85986,-0 8.85986,-32 147.14,-32 147.14,-0 8.85986,-0"/>
<text text-anchor="start" x="16.8599" y="-18" font-family="Helvetica,sans-Serif" font-size="10.00">Windows::ApplicationModel</text>
<text text-anchor="middle" x="78" y="-6" font-family="Helvetica,sans-Serif" font-size="10.00">::Core::IFrameworkView</text>
</g>
<!-- Node3&#45;&gt;Node1 -->
<g id="edge2" class="edge"><title>Node3&#45;&gt;Node1</title>
<path fill="none" stroke="midnightblue" d="M157.135,-30.4695C169.917,-32.8365 182.177,-35.1068 192.019,-36.9294"/>
<polygon fill="midnightblue" stroke="midnightblue" points="157.761,-27.026 147.291,-28.6465 156.486,-33.9089 157.761,-27.026"/>
</g>
</g>
</svg>
