<?xml version="1.0" encoding="UTF-8" standalone="no"?>
<!DOCTYPE svg PUBLIC "-//W3C//DTD SVG 1.1//EN"
 "http://www.w3.org/Graphics/SVG/1.1/DTD/svg11.dtd">
<!-- Generated by graphviz version 2.30.1 (20140712.1814)
 -->
<!-- Title: cinder::ImageSourceFileWicExceptionUnsupportedData Pages: 1 -->
<svg width="148pt" height="216pt"
 viewBox="0.00 0.00 148.00 216.00" xmlns="http://www.w3.org/2000/svg" xmlns:xlink="http://www.w3.org/1999/xlink">
<g id="graph0" class="graph" transform="scale(1 1) rotate(0) translate(4 212)">
<title>cinder::ImageSourceFileWicExceptionUnsupportedData</title>
<polygon fill="white" stroke="white" points="-4,5 -4,-212 145,-212 145,5 -4,5"/>
<!-- Node1 -->
<g id="node1" class="node"><title>Node1</title>
<polygon fill="#bfbfbf" stroke="black" points="-0.521973,-1 -0.521973,-33 140.522,-33 140.522,-1 -0.521973,-1"/>
<text text-anchor="start" x="7.47803" y="-19" font-family="Helvetica,sans-Serif" font-size="10.00">cinder::ImageSourceFileWic</text>
<text text-anchor="middle" x="70" y="-7" font-family="Helvetica,sans-Serif" font-size="10.00">ExceptionUnsupportedData</text>
</g>
<!-- Node2 -->
<g id="node2" class="node"><title>Node2</title>
<g id="a_node2"><a xlink:href="classcinder_1_1_image_io_exception.html" target="_top" xlink:title="cinder::ImageIoException">
<polygon fill="white" stroke="black" points="5.5791,-71 5.5791,-91 134.421,-91 134.421,-71 5.5791,-71"/>
<text text-anchor="middle" x="70" y="-77" font-family="Helvetica,sans-Serif" font-size="10.00">cinder::ImageIoException</text>
</a>
</g>
</g>
<!-- Node2&#45;&gt;Node1 -->
<g id="edge1" class="edge"><title>Node2&#45;&gt;Node1</title>
<path fill="none" stroke="midnightblue" d="M70,-60.7747C70,-51.9863 70,-41.715 70,-33.4404"/>
<polygon fill="midnightblue" stroke="midnightblue" points="66.5001,-60.8517 70,-70.8517 73.5001,-60.8517 66.5001,-60.8517"/>
</g>
<!-- Node3 -->
<g id="node3" class="node"><title>Node3</title>
<g id="a_node3"><a xlink:href="classcinder_1_1_exception.html" target="_top" xlink:title="cinder::Exception">
<polygon fill="white" stroke="black" points="23.6455,-129 23.6455,-149 116.354,-149 116.354,-129 23.6455,-129"/>
<text text-anchor="middle" x="70" y="-135" font-family="Helvetica,sans-Serif" font-size="10.00">cinder::Exception</text>
</a>
</g>
</g>
<!-- Node3&#45;&gt;Node2 -->
<g id="edge2" class="edge"><title>Node3&#45;&gt;Node2</title>
<path fill="none" stroke="midnightblue" d="M70,-118.707C70,-109.338 70,-98.5262 70,-91.0752"/>
<polygon fill="midnightblue" stroke="midnightblue" points="66.5001,-118.753 70,-128.753 73.5001,-118.753 66.5001,-118.753"/>
</g>
<!-- Node4 -->
<g id="node4" class="node"><title>Node4</title>
<polygon fill="white" stroke="#bfbfbf" points="40.5962,-187 40.5962,-207 99.4038,-207 99.4038,-187 40.5962,-187"/>
<text text-anchor="middle" x="70" y="-193" font-family="Helvetica,sans-Serif" font-size="10.00">exception</text>
</g>
<!-- Node4&#45;&gt;Node3 -->
<g id="edge3" class="edge"><title>Node4&#45;&gt;Node3</title>
<path fill="none" stroke="midnightblue" d="M70,-176.707C70,-167.338 70,-156.526 70,-149.075"/>
<polygon fill="midnightblue" stroke="midnightblue" points="66.5001,-176.753 70,-186.753 73.5001,-176.753 66.5001,-176.753"/>
</g>
</g>
</svg>
