<?xml version="1.0" encoding="UTF-8" standalone="no"?>
<!DOCTYPE svg PUBLIC "-//W3C//DTD SVG 1.1//EN"
 "http://www.w3.org/Graphics/SVG/1.1/DTD/svg11.dtd">
<!-- Generated by graphviz version 2.30.1 (20140712.1814)
 -->
<!-- Title: cinder::audio::MathNode Pages: 1 -->
<!--zoomable 145 -->
<svg id="main" version="1.1" xmlns="http://www.w3.org/2000/svg" xmlns:xlink="http://www.w3.org/1999/xlink" xml:space="preserve" onload="init(evt)">
<style type="text/css"><![CDATA[
.edge:hover path { stroke: red; }
.edge:hover polygon { stroke: red; fill: red; }
]]></style>
<script type="text/javascript"><![CDATA[
var edges = document.getElementsByTagName('g');
if (edges && edges.length) {
  for (var i=0;i<edges.length;i++) {
    if (edges[i].id.substr(0,4)=='edge') {
      edges[i].setAttribute('class','edge');
    }
  }
}
]]></script>
        <defs>
                <circle id="rim" cx="0" cy="0" r="7"/>
                <circle id="rim2" cx="0" cy="0" r="3.5"/>
                <g id="zoomPlus">
                        <use xlink:href="#rim" fill="#404040">
                                <set attributeName="fill" to="#808080" begin="zoomplus.mouseover" end="zoomplus.mouseout"/>
                        </use>
                        <path d="M-4,0h8M0,-4v8" fill="none" stroke="white" stroke-width="1.5" pointer-events="none"/>
                </g>
                <g id="zoomMin">
                        <use xlink:href="#rim" fill="#404040">
                                <set attributeName="fill" to="#808080" begin="zoomminus.mouseover" end="zoomminus.mouseout"/>
                        </use>
                        <path d="M-4,0h8" fill="none" stroke="white" stroke-width="1.5" pointer-events="none"/>
                </g>
                <g id="dirArrow">
                        <path fill="none" stroke="white" stroke-width="1.5" d="M0,-3.0v7 M-2.5,-0.5L0,-3.0L2.5,-0.5"/>
                </g>
               <g id="resetDef">
                       <use xlink:href="#rim2" fill="#404040">
                               <set attributeName="fill" to="#808080" begin="reset.mouseover" end="reset.mouseout"/>
                       </use>
               </g>
        </defs>

<script type="text/javascript">
var viewWidth = 750;
var viewHeight = 145;
var sectionId = 'dynsection-0';
</script>
<script xlink:href="svgpan.js"/>
<svg id="graph" class="graph">
<g id="viewport">
<title>cinder::audio::MathNode</title>
<polygon fill="white" stroke="white" points="-4,5 -4,-141 747,-141 747,5 -4,5"/>
<!-- Node1 -->
<g id="node1" class="node"><title>Node1</title>
<polygon fill="#bfbfbf" stroke="black" points="280.522,-58 280.522,-78 405.478,-78 405.478,-58 280.522,-58"/>
<text text-anchor="middle" x="343" y="-64" font-family="Helvetica,sans-Serif" font-size="10.00">cinder::audio::MathNode</text>
</g>
<!-- Node5 -->
<g id="node5" class="node"><title>Node5</title>
<g id="a_node5"><a xlink:href="classcinder_1_1audio_1_1_add_node.html" target="_top" xlink:title="Node for performing an addition operation on its input. ">
<polygon fill="white" stroke="black" points="451.742,-117 451.742,-137 572.258,-137 572.258,-117 451.742,-117"/>
<text text-anchor="middle" x="512" y="-123" font-family="Helvetica,sans-Serif" font-size="10.00">cinder::audio::AddNode</text>
</a>
</g>
</g>
<!-- Node1&#45;&gt;Node5 -->
<g id="edge4" class="edge"><title>Node1&#45;&gt;Node5</title>
<path fill="none" stroke="midnightblue" d="M376.869,-82.0023C395.757,-89.8152 420.023,-99.4615 442,-107 452.264,-110.521 463.521,-113.958 473.91,-116.963"/>
<polygon fill="midnightblue" stroke="midnightblue" points="378.1,-78.7235 367.524,-78.1047 375.406,-85.1842 378.1,-78.7235"/>
</g>
<!-- Node6 -->
<g id="node6" class="node"><title>Node6</title>
<g id="a_node6"><a xlink:href="classcinder_1_1audio_1_1_divide_node.html" target="_top" xlink:title="Node for performing a division operation on its input. ">
<polygon fill="white" stroke="black" points="446.744,-78 446.744,-98 577.256,-98 577.256,-78 446.744,-78"/>
<text text-anchor="middle" x="512" y="-84" font-family="Helvetica,sans-Serif" font-size="10.00">cinder::audio::DivideNode</text>
</a>
</g>
</g>
<!-- Node1&#45;&gt;Node6 -->
<g id="edge5" class="edge"><title>Node1&#45;&gt;Node6</title>
<path fill="none" stroke="midnightblue" d="M415.801,-76.5989C425.993,-77.8195 436.423,-79.0686 446.466,-80.2714"/>
<polygon fill="midnightblue" stroke="midnightblue" points="416.055,-73.1045 405.71,-75.3904 415.223,-80.0548 416.055,-73.1045"/>
</g>
<!-- Node7 -->
<g id="node7" class="node"><title>Node7</title>
<g id="a_node7"><a xlink:href="classcinder_1_1audio_1_1_multiply_node.html" target="_top" xlink:title="Node for performing a mulitplication operation on its input. ">
<polygon fill="white" stroke="black" points="443.69,-39 443.69,-59 580.31,-59 580.31,-39 443.69,-39"/>
<text text-anchor="middle" x="512" y="-45" font-family="Helvetica,sans-Serif" font-size="10.00">cinder::audio::MultiplyNode</text>
</a>
</g>
</g>
<!-- Node1&#45;&gt;Node7 -->
<g id="edge6" class="edge"><title>Node1&#45;&gt;Node7</title>
<path fill="none" stroke="midnightblue" d="M415.68,-59.8448C424.961,-58.7889 434.44,-57.7104 443.647,-56.6629"/>
<polygon fill="midnightblue" stroke="midnightblue" points="415.25,-56.371 405.71,-60.9791 416.042,-63.3261 415.25,-56.371"/>
</g>
<!-- Node9 -->
<g id="node9" class="node"><title>Node9</title>
<g id="a_node9"><a xlink:href="classcinder_1_1audio_1_1_subtract_node.html" target="_top" xlink:title="Node for performing a subtration operation on its input. ">
<polygon fill="white" stroke="black" points="442.018,-0 442.018,-20 581.982,-20 581.982,-0 442.018,-0"/>
<text text-anchor="middle" x="512" y="-6" font-family="Helvetica,sans-Serif" font-size="10.00">cinder::audio::SubtractNode</text>
</a>
</g>
</g>
<!-- Node1&#45;&gt;Node9 -->
<g id="edge8" class="edge"><title>Node1&#45;&gt;Node9</title>
<path fill="none" stroke="midnightblue" d="M376.452,-54.0428C395.38,-46.1655 419.825,-36.4404 442,-29 451.542,-25.7986 461.953,-22.7209 471.728,-20.0092"/>
<polygon fill="midnightblue" stroke="midnightblue" points="374.962,-50.8723 367.098,-57.9719 377.673,-57.3262 374.962,-50.8723"/>
</g>
<!-- Node2 -->
<g id="node2" class="node"><title>Node2</title>
<g id="a_node2"><a xlink:href="classcinder_1_1audio_1_1_node.html" target="_top" xlink:title="Fundamental building block for creating an audio processing graph. ">
<polygon fill="white" stroke="black" points="140.638,-58 140.638,-78 243.362,-78 243.362,-58 140.638,-58"/>
<text text-anchor="middle" x="192" y="-64" font-family="Helvetica,sans-Serif" font-size="10.00">cinder::audio::Node</text>
</a>
</g>
</g>
<!-- Node2&#45;&gt;Node1 -->
<g id="edge1" class="edge"><title>Node2&#45;&gt;Node1</title>
<path fill="none" stroke="midnightblue" d="M253.675,-68C262.522,-68 271.639,-68 280.502,-68"/>
<polygon fill="midnightblue" stroke="midnightblue" points="253.445,-64.5001 243.445,-68 253.445,-71.5001 253.445,-64.5001"/>
</g>
<!-- Node3 -->
<g id="node3" class="node"><title>Node3</title>
<polygon fill="white" stroke="#bfbfbf" points="0.0864258,-75 0.0864258,-107 103.914,-107 103.914,-75 0.0864258,-75"/>
<text text-anchor="start" x="8.08643" y="-93" font-family="Helvetica,sans-Serif" font-size="10.00">std::enable_shared</text>
<text text-anchor="middle" x="52" y="-81" font-family="Helvetica,sans-Serif" font-size="10.00">_from_this&lt; Node &gt;</text>
</g>
<!-- Node3&#45;&gt;Node2 -->
<g id="edge2" class="edge"><title>Node3&#45;&gt;Node2</title>
<path fill="none" stroke="midnightblue" d="M114.117,-80.8139C122.835,-79.3608 131.724,-77.8794 140.216,-76.4641"/>
<polygon fill="midnightblue" stroke="midnightblue" points="113.283,-77.4045 103.994,-82.501 114.433,-84.3093 113.283,-77.4045"/>
</g>
<!-- Node4 -->
<g id="node4" class="node"><title>Node4</title>
<polygon fill="white" stroke="#bfbfbf" points="15.6431,-36 15.6431,-56 88.3569,-56 88.3569,-36 15.6431,-36"/>
<text text-anchor="middle" x="52" y="-42" font-family="Helvetica,sans-Serif" font-size="10.00">noncopyable</text>
</g>
<!-- Node4&#45;&gt;Node2 -->
<g id="edge3" class="edge"><title>Node4&#45;&gt;Node2</title>
<path fill="none" stroke="midnightblue" d="M98.5171,-53.2563C111.963,-55.3998 126.759,-57.7586 140.498,-59.949"/>
<polygon fill="midnightblue" stroke="midnightblue" points="98.9648,-49.7836 88.5384,-51.6655 97.8627,-56.6963 98.9648,-49.7836"/>
</g>
<!-- Node8 -->
<g id="node8" class="node"><title>Node8</title>
<g id="a_node8"><a xlink:href="classcinder_1_1audio_1_1_gain_node.html" target="_top" xlink:title="Node for changing the gain, or amplitude, of a signal. ">
<polygon fill="white" stroke="black" points="618.077,-39 618.077,-59 741.923,-59 741.923,-39 618.077,-39"/>
<text text-anchor="middle" x="680" y="-45" font-family="Helvetica,sans-Serif" font-size="10.00">cinder::audio::GainNode</text>
</a>
</g>
</g>
<!-- Node7&#45;&gt;Node8 -->
<g id="edge7" class="edge"><title>Node7&#45;&gt;Node8</title>
<path fill="none" stroke="midnightblue" d="M590.763,-49C599.89,-49 609.101,-49 617.954,-49"/>
<polygon fill="midnightblue" stroke="midnightblue" points="590.519,-45.5001 580.519,-49 590.519,-52.5001 590.519,-45.5001"/>
</g>
</g>
</svg>
        <g id="navigator" transform="translate(0 0)" fill="#404254">
                <rect fill="#f2f5e9" fill-opacity="0.5" stroke="#606060" stroke-width=".5" x="0" y="0" width="60" height="60"/>
                <use id="zoomplus" xlink:href="#zoomPlus" x="17" y="9" onmousedown="handleZoom(evt,'in')"/>
                <use id="zoomminus" xlink:href="#zoomMin" x="42" y="9" onmousedown="handleZoom(evt,'out')"/>
                <use id="reset" xlink:href="#resetDef" x="30" y="36" onmousedown="handleReset()"/>
                <g id="arrowUp" xlink:href="#dirArrow" transform="translate(30 24)" onmousedown="handlePan(0,-1)">
                  <use xlink:href="#rim" fill="#404040">
                        <set attributeName="fill" to="#808080" begin="arrowUp.mouseover" end="arrowUp.mouseout"/>
                  </use>
                  <path fill="none" stroke="white" stroke-width="1.5" d="M0,-3.0v7 M-2.5,-0.5L0,-3.0L2.5,-0.5"/>
                </g>
                <g id="arrowRight" xlink:href="#dirArrow" transform="rotate(90) translate(36 -43)" onmousedown="handlePan(1,0)">
                  <use xlink:href="#rim" fill="#404040">
                        <set attributeName="fill" to="#808080" begin="arrowRight.mouseover" end="arrowRight.mouseout"/>
                  </use>
                  <path fill="none" stroke="white" stroke-width="1.5" d="M0,-3.0v7 M-2.5,-0.5L0,-3.0L2.5,-0.5"/>
                </g>
                <g id="arrowDown" xlink:href="#dirArrow" transform="rotate(180) translate(-30 -48)" onmousedown="handlePan(0,1)">
                  <use xlink:href="#rim" fill="#404040">
                        <set attributeName="fill" to="#808080" begin="arrowDown.mouseover" end="arrowDown.mouseout"/>
                  </use>
                  <path fill="none" stroke="white" stroke-width="1.5" d="M0,-3.0v7 M-2.5,-0.5L0,-3.0L2.5,-0.5"/>
                </g>
                <g id="arrowLeft" xlink:href="#dirArrow" transform="rotate(270) translate(-36 17)" onmousedown="handlePan(-1,0)">
                  <use xlink:href="#rim" fill="#404040">
                        <set attributeName="fill" to="#808080" begin="arrowLeft.mouseover" end="arrowLeft.mouseout"/>
                  </use>
                  <path fill="none" stroke="white" stroke-width="1.5" d="M0,-3.0v7 M-2.5,-0.5L0,-3.0L2.5,-0.5"/>
                </g>
        </g>
        <svg viewBox="0 0 15 15" width="100%" height="30px" preserveAspectRatio="xMaxYMin meet">
         <g id="arrow_out" transform="scale(0.3 0.3)">
          <a xlink:href="classcinder_1_1audio_1_1_math_node__inherit__graph_org.svg" target="_base">
           <rect id="button" ry="5" rx="5" y="6" x="6" height="38" width="38"
                fill="#f2f5e9" fill-opacity="0.5" stroke="#606060" stroke-width="1.0"/>
           <path id="arrow"
             d="M 11.500037,31.436501 C 11.940474,20.09759 22.043105,11.32322 32.158766,21.979434 L 37.068811,17.246167 C 37.068811,17.246167 37.088388,32 37.088388,32 L 22.160133,31.978069 C 22.160133,31.978069 26.997745,27.140456 26.997745,27.140456 C 18.528582,18.264221 13.291696,25.230495 11.500037,31.436501 z"
             style="fill:#404040;"/>
          </a>
         </g>
        </svg>
</svg>
