<?xml version="1.0" encoding="UTF-8" standalone="no"?>
<!DOCTYPE svg PUBLIC "-//W3C//DTD SVG 1.1//EN"
 "http://www.w3.org/Graphics/SVG/1.1/DTD/svg11.dtd">
<!-- Generated by graphviz version 2.30.1 (20140712.1814)
 -->
<!-- Title: cinder::FilterBase Pages: 1 -->
<svg width="284pt" height="340pt"
 viewBox="0.00 0.00 284.00 340.00" xmlns="http://www.w3.org/2000/svg" xmlns:xlink="http://www.w3.org/1999/xlink">
<g id="graph0" class="graph" transform="scale(1 1) rotate(0) translate(4 336)">
<title>cinder::FilterBase</title>
<polygon fill="white" stroke="white" points="-4,5 -4,-336 281,-336 281,5 -4,5"/>
<!-- Node1 -->
<g id="node1" class="node"><title>Node1</title>
<polygon fill="#bfbfbf" stroke="black" points="0.0961914,-156 0.0961914,-176 93.9038,-176 93.9038,-156 0.0961914,-156"/>
<text text-anchor="middle" x="47" y="-162" font-family="Helvetica,sans-Serif" font-size="10.00">cinder::FilterBase</text>
</g>
<!-- Node2 -->
<g id="node2" class="node"><title>Node2</title>
<g id="a_node2"><a xlink:href="classcinder_1_1_filter_bessel_blackman.html" target="_top" xlink:title="cinder::FilterBesselBlackman">
<polygon fill="white" stroke="black" points="130.532,-312 130.532,-332 275.468,-332 275.468,-312 130.532,-312"/>
<text text-anchor="middle" x="203" y="-318" font-family="Helvetica,sans-Serif" font-size="10.00">cinder::FilterBesselBlackman</text>
</a>
</g>
</g>
<!-- Node1&#45;&gt;Node2 -->
<g id="edge1" class="edge"><title>Node1&#45;&gt;Node2</title>
<path fill="none" stroke="midnightblue" d="M54.6334,-186.067C65.5376,-215.907 90.1093,-271.701 130,-302 135.372,-306.08 141.533,-309.328 147.939,-311.914"/>
<polygon fill="midnightblue" stroke="midnightblue" points="57.8375,-184.627 51.2314,-176.343 51.2302,-186.938 57.8375,-184.627"/>
</g>
<!-- Node3 -->
<g id="node3" class="node"><title>Node3</title>
<g id="a_node3"><a xlink:href="classcinder_1_1_filter_box.html" target="_top" xlink:title="cinder::FilterBox">
<polygon fill="white" stroke="black" points="158.877,-273 158.877,-293 247.123,-293 247.123,-273 158.877,-273"/>
<text text-anchor="middle" x="203" y="-279" font-family="Helvetica,sans-Serif" font-size="10.00">cinder::FilterBox</text>
</a>
</g>
</g>
<!-- Node1&#45;&gt;Node3 -->
<g id="edge2" class="edge"><title>Node1&#45;&gt;Node3</title>
<path fill="none" stroke="midnightblue" d="M59.1054,-185.03C72.9408,-207.062 98.626,-242.891 130,-263 138.629,-268.53 148.788,-272.552 158.713,-275.47"/>
<polygon fill="midnightblue" stroke="midnightblue" points="61.9509,-182.973 53.7617,-176.251 55.9715,-186.613 61.9509,-182.973"/>
</g>
<!-- Node4 -->
<g id="node4" class="node"><title>Node4</title>
<g id="a_node4"><a xlink:href="classcinder_1_1_filter_catmull_rom.html" target="_top" xlink:title="cinder::FilterCatmullRom">
<polygon fill="white" stroke="black" points="139.988,-234 139.988,-254 266.012,-254 266.012,-234 139.988,-234"/>
<text text-anchor="middle" x="203" y="-240" font-family="Helvetica,sans-Serif" font-size="10.00">cinder::FilterCatmullRom</text>
</a>
</g>
</g>
<!-- Node1&#45;&gt;Node4 -->
<g id="edge3" class="edge"><title>Node1&#45;&gt;Node4</title>
<path fill="none" stroke="midnightblue" d="M67.4055,-182.66C83.3043,-195.558 106.874,-213.02 130,-224 138.321,-227.951 147.564,-231.248 156.579,-233.951"/>
<polygon fill="midnightblue" stroke="midnightblue" points="69.3458,-179.723 59.4136,-176.035 64.8781,-185.112 69.3458,-179.723"/>
</g>
<!-- Node5 -->
<g id="node5" class="node"><title>Node5</title>
<g id="a_node5"><a xlink:href="classcinder_1_1_filter_cubic.html" target="_top" xlink:title="cinder::FilterCubic">
<polygon fill="white" stroke="black" points="154.709,-195 154.709,-215 251.291,-215 251.291,-195 154.709,-195"/>
<text text-anchor="middle" x="203" y="-201" font-family="Helvetica,sans-Serif" font-size="10.00">cinder::FilterCubic</text>
</a>
</g>
</g>
<!-- Node1&#45;&gt;Node5 -->
<g id="edge4" class="edge"><title>Node1&#45;&gt;Node5</title>
<path fill="none" stroke="midnightblue" d="M97.3881,-178.507C118.431,-183.837 142.646,-189.969 162.476,-194.991"/>
<polygon fill="midnightblue" stroke="midnightblue" points="98.2121,-175.106 87.6588,-176.043 96.4935,-181.891 98.2121,-175.106"/>
</g>
<!-- Node6 -->
<g id="node6" class="node"><title>Node6</title>
<g id="a_node6"><a xlink:href="classcinder_1_1_filter_gaussian.html" target="_top" xlink:title="cinder::FilterGaussian">
<polygon fill="white" stroke="black" points="146.37,-156 146.37,-176 259.63,-176 259.63,-156 146.37,-156"/>
<text text-anchor="middle" x="203" y="-162" font-family="Helvetica,sans-Serif" font-size="10.00">cinder::FilterGaussian</text>
</a>
</g>
</g>
<!-- Node1&#45;&gt;Node6 -->
<g id="edge5" class="edge"><title>Node1&#45;&gt;Node6</title>
<path fill="none" stroke="midnightblue" d="M104.437,-166C118.097,-166 132.688,-166 146.312,-166"/>
<polygon fill="midnightblue" stroke="midnightblue" points="104.205,-162.5 94.2051,-166 104.205,-169.5 104.205,-162.5"/>
</g>
<!-- Node7 -->
<g id="node7" class="node"><title>Node7</title>
<g id="a_node7"><a xlink:href="classcinder_1_1_filter_mitchell.html" target="_top" xlink:title="cinder::FilterMitchell">
<polygon fill="white" stroke="black" points="150.544,-117 150.544,-137 255.456,-137 255.456,-117 150.544,-117"/>
<text text-anchor="middle" x="203" y="-123" font-family="Helvetica,sans-Serif" font-size="10.00">cinder::FilterMitchell</text>
</a>
</g>
</g>
<!-- Node1&#45;&gt;Node7 -->
<g id="edge6" class="edge"><title>Node1&#45;&gt;Node7</title>
<path fill="none" stroke="midnightblue" d="M97.3881,-153.493C118.431,-148.163 142.646,-142.031 162.476,-137.009"/>
<polygon fill="midnightblue" stroke="midnightblue" points="96.4935,-150.109 87.6588,-155.957 98.2121,-156.894 96.4935,-150.109"/>
</g>
<!-- Node8 -->
<g id="node8" class="node"><title>Node8</title>
<g id="a_node8"><a xlink:href="classcinder_1_1_filter_quadratic.html" target="_top" xlink:title="cinder::FilterQuadratic">
<polygon fill="white" stroke="black" points="145.815,-78 145.815,-98 260.185,-98 260.185,-78 145.815,-78"/>
<text text-anchor="middle" x="203" y="-84" font-family="Helvetica,sans-Serif" font-size="10.00">cinder::FilterQuadratic</text>
</a>
</g>
</g>
<!-- Node1&#45;&gt;Node8 -->
<g id="edge7" class="edge"><title>Node1&#45;&gt;Node8</title>
<path fill="none" stroke="midnightblue" d="M67.4055,-149.34C83.3043,-136.442 106.874,-118.98 130,-108 138.321,-104.049 147.564,-100.752 156.579,-98.0486"/>
<polygon fill="midnightblue" stroke="midnightblue" points="64.8781,-146.888 59.4136,-155.965 69.3458,-152.277 64.8781,-146.888"/>
</g>
<!-- Node9 -->
<g id="node9" class="node"><title>Node9</title>
<g id="a_node9"><a xlink:href="classcinder_1_1_filter_sinc_blackman.html" target="_top" xlink:title="cinder::FilterSincBlackman">
<polygon fill="white" stroke="black" points="135.813,-39 135.813,-59 270.187,-59 270.187,-39 135.813,-39"/>
<text text-anchor="middle" x="203" y="-45" font-family="Helvetica,sans-Serif" font-size="10.00">cinder::FilterSincBlackman</text>
</a>
</g>
</g>
<!-- Node1&#45;&gt;Node9 -->
<g id="edge8" class="edge"><title>Node1&#45;&gt;Node9</title>
<path fill="none" stroke="midnightblue" d="M59.1054,-146.97C72.9408,-124.938 98.626,-89.1086 130,-69 136.335,-64.9397 143.495,-61.6926 150.782,-59.0987"/>
<polygon fill="midnightblue" stroke="midnightblue" points="55.9715,-145.387 53.7617,-155.749 61.9509,-149.027 55.9715,-145.387"/>
</g>
<!-- Node10 -->
<g id="node10" class="node"><title>Node10</title>
<g id="a_node10"><a xlink:href="classcinder_1_1_filter_triangle.html" target="_top" xlink:title="cinder::FilterTriangle">
<polygon fill="white" stroke="black" points="149.612,-0 149.612,-20 256.388,-20 256.388,-0 149.612,-0"/>
<text text-anchor="middle" x="203" y="-6" font-family="Helvetica,sans-Serif" font-size="10.00">cinder::FilterTriangle</text>
</a>
</g>
</g>
<!-- Node1&#45;&gt;Node10 -->
<g id="edge9" class="edge"><title>Node1&#45;&gt;Node10</title>
<path fill="none" stroke="midnightblue" d="M54.6334,-145.933C65.5376,-116.093 90.1093,-60.2988 130,-30 135.785,-25.6057 142.485,-22.1769 149.422,-19.5014"/>
<polygon fill="midnightblue" stroke="midnightblue" points="51.2302,-145.062 51.2314,-155.657 57.8375,-147.373 51.2302,-145.062"/>
</g>
</g>
</svg>
