<?xml version="1.0" encoding="UTF-8" standalone="no"?>
<!DOCTYPE svg PUBLIC "-//W3C//DTD SVG 1.1//EN"
 "http://www.w3.org/Graphics/SVG/1.1/DTD/svg11.dtd">
<!-- Generated by graphviz version 2.30.1 (20140712.1814)
 -->
<!-- Title: cinder::audio::InputNode Pages: 1 -->
<!--zoomable 391 -->
<svg id="main" version="1.1" xmlns="http://www.w3.org/2000/svg" xmlns:xlink="http://www.w3.org/1999/xlink" xml:space="preserve" onload="init(evt)">
<style type="text/css"><![CDATA[
.edge:hover path { stroke: red; }
.edge:hover polygon { stroke: red; fill: red; }
]]></style>
<script type="text/javascript"><![CDATA[
var edges = document.getElementsByTagName('g');
if (edges && edges.length) {
  for (var i=0;i<edges.length;i++) {
    if (edges[i].id.substr(0,4)=='edge') {
      edges[i].setAttribute('class','edge');
    }
  }
}
]]></script>
        <defs>
                <circle id="rim" cx="0" cy="0" r="7"/>
                <circle id="rim2" cx="0" cy="0" r="3.5"/>
                <g id="zoomPlus">
                        <use xlink:href="#rim" fill="#404040">
                                <set attributeName="fill" to="#808080" begin="zoomplus.mouseover" end="zoomplus.mouseout"/>
                        </use>
                        <path d="M-4,0h8M0,-4v8" fill="none" stroke="white" stroke-width="1.5" pointer-events="none"/>
                </g>
                <g id="zoomMin">
                        <use xlink:href="#rim" fill="#404040">
                                <set attributeName="fill" to="#808080" begin="zoomminus.mouseover" end="zoomminus.mouseout"/>
                        </use>
                        <path d="M-4,0h8" fill="none" stroke="white" stroke-width="1.5" pointer-events="none"/>
                </g>
                <g id="dirArrow">
                        <path fill="none" stroke="white" stroke-width="1.5" d="M0,-3.0v7 M-2.5,-0.5L0,-3.0L2.5,-0.5"/>
                </g>
               <g id="resetDef">
                       <use xlink:href="#rim2" fill="#404040">
                               <set attributeName="fill" to="#808080" begin="reset.mouseover" end="reset.mouseout"/>
                       </use>
               </g>
        </defs>

<script type="text/javascript">
var viewWidth = 830;
var viewHeight = 391;
var sectionId = 'dynsection-0';
</script>
<script xlink:href="svgpan.js"/>
<svg id="graph" class="graph">
<g id="viewport">
<title>cinder::audio::InputNode</title>
<polygon fill="white" stroke="white" points="-4,5 -4,-387 827,-387 827,5 -4,5"/>
<!-- Node1 -->
<g id="node1" class="node"><title>Node1</title>
<polygon fill="#bfbfbf" stroke="black" points="280.518,-176 280.518,-196 405.482,-196 405.482,-176 280.518,-176"/>
<text text-anchor="middle" x="343" y="-182" font-family="Helvetica,sans-Serif" font-size="10.00">cinder::audio::InputNode</text>
</g>
<!-- Node5 -->
<g id="node5" class="node"><title>Node5</title>
<g id="a_node5"><a xlink:href="classcinder_1_1audio_1_1_callback_processor_node.html" target="_top" xlink:title="InputNode that processes audio with a std::function callback. ">
<polygon fill="white" stroke="black" points="441.956,-246 441.956,-266 628.044,-266 628.044,-246 441.956,-246"/>
<text text-anchor="middle" x="535" y="-252" font-family="Helvetica,sans-Serif" font-size="10.00">cinder::audio::CallbackProcessorNode</text>
</a>
</g>
</g>
<!-- Node1&#45;&gt;Node5 -->
<g id="edge4" class="edge"><title>Node1&#45;&gt;Node5</title>
<path fill="none" stroke="midnightblue" d="M369.182,-201.138C388.514,-212.186 416.184,-226.783 442,-236 453.083,-239.957 465.21,-243.27 476.916,-245.989"/>
<polygon fill="midnightblue" stroke="midnightblue" points="370.811,-198.037 360.406,-196.039 367.294,-204.089 370.811,-198.037"/>
</g>
<!-- Node6 -->
<g id="node6" class="node"><title>Node6</title>
<g id="a_node6"><a xlink:href="classcinder_1_1audio_1_1_gen_node.html" target="_top" xlink:title="Base class for InputNode&#39;s that generate audio samples. Gen&#39;s are always mono channel. ">
<polygon fill="white" stroke="black" points="474.188,-207 474.188,-227 595.812,-227 595.812,-207 474.188,-207"/>
<text text-anchor="middle" x="535" y="-213" font-family="Helvetica,sans-Serif" font-size="10.00">cinder::audio::GenNode</text>
</a>
</g>
</g>
<!-- Node1&#45;&gt;Node6 -->
<g id="edge5" class="edge"><title>Node1&#45;&gt;Node6</title>
<path fill="none" stroke="midnightblue" d="M415.39,-197.648C434.724,-200.802 455.451,-204.184 474.083,-207.224"/>
<polygon fill="midnightblue" stroke="midnightblue" points="415.858,-194.178 405.425,-196.022 414.731,-201.087 415.858,-194.178"/>
</g>
<!-- Node14 -->
<g id="node14" class="node"><title>Node14</title>
<g id="a_node14"><a xlink:href="classcinder_1_1audio_1_1_input_device_node.html" target="_top" xlink:title="Interface representing a Node that communicates with a hardware input device. This is typically a mic...">
<polygon fill="white" stroke="black" points="457.234,-115 457.234,-135 612.766,-135 612.766,-115 457.234,-115"/>
<text text-anchor="middle" x="535" y="-121" font-family="Helvetica,sans-Serif" font-size="10.00">cinder::audio::InputDeviceNode</text>
</a>
</g>
</g>
<!-- Node1&#45;&gt;Node14 -->
<g id="edge13" class="edge"><title>Node1&#45;&gt;Node14</title>
<path fill="none" stroke="midnightblue" d="M384.901,-172.869C420.178,-161.543 470.383,-145.424 502.579,-135.088"/>
<polygon fill="midnightblue" stroke="midnightblue" points="383.826,-169.538 375.375,-175.927 385.966,-176.203 383.826,-169.538"/>
</g>
<!-- Node16 -->
<g id="node16" class="node"><title>Node16</title>
<g id="a_node16"><a xlink:href="classcinder_1_1audio_1_1_sample_player_node.html" target="_top" xlink:title="Base Node class for sampled audio playback. Can do operations like seek and loop. ...">
<polygon fill="white" stroke="black" points="452.513,-39 452.513,-59 617.487,-59 617.487,-39 452.513,-39"/>
<text text-anchor="middle" x="535" y="-45" font-family="Helvetica,sans-Serif" font-size="10.00">cinder::audio::SamplePlayerNode</text>
</a>
</g>
</g>
<!-- Node1&#45;&gt;Node16 -->
<g id="edge15" class="edge"><title>Node1&#45;&gt;Node16</title>
<path fill="none" stroke="midnightblue" d="M362.769,-169.103C382.032,-152.097 413.18,-125.521 442,-105 466.523,-87.5388 496.589,-69.8913 515.526,-59.198"/>
<polygon fill="midnightblue" stroke="midnightblue" points="360.191,-166.712 355.044,-175.973 364.843,-171.943 360.191,-166.712"/>
</g>
<!-- Node2 -->
<g id="node2" class="node"><title>Node2</title>
<g id="a_node2"><a xlink:href="classcinder_1_1audio_1_1_node.html" target="_top" xlink:title="Fundamental building block for creating an audio processing graph. ">
<polygon fill="white" stroke="black" points="140.638,-176 140.638,-196 243.362,-196 243.362,-176 140.638,-176"/>
<text text-anchor="middle" x="192" y="-182" font-family="Helvetica,sans-Serif" font-size="10.00">cinder::audio::Node</text>
</a>
</g>
</g>
<!-- Node2&#45;&gt;Node1 -->
<g id="edge1" class="edge"><title>Node2&#45;&gt;Node1</title>
<path fill="none" stroke="midnightblue" d="M253.675,-186C262.522,-186 271.639,-186 280.502,-186"/>
<polygon fill="midnightblue" stroke="midnightblue" points="253.445,-182.5 243.445,-186 253.445,-189.5 253.445,-182.5"/>
</g>
<!-- Node3 -->
<g id="node3" class="node"><title>Node3</title>
<polygon fill="white" stroke="#bfbfbf" points="0.0864258,-193 0.0864258,-225 103.914,-225 103.914,-193 0.0864258,-193"/>
<text text-anchor="start" x="8.08643" y="-211" font-family="Helvetica,sans-Serif" font-size="10.00">std::enable_shared</text>
<text text-anchor="middle" x="52" y="-199" font-family="Helvetica,sans-Serif" font-size="10.00">_from_this&lt; Node &gt;</text>
</g>
<!-- Node3&#45;&gt;Node2 -->
<g id="edge2" class="edge"><title>Node3&#45;&gt;Node2</title>
<path fill="none" stroke="midnightblue" d="M114.117,-198.814C122.835,-197.361 131.724,-195.879 140.216,-194.464"/>
<polygon fill="midnightblue" stroke="midnightblue" points="113.283,-195.405 103.994,-200.501 114.433,-202.309 113.283,-195.405"/>
</g>
<!-- Node4 -->
<g id="node4" class="node"><title>Node4</title>
<polygon fill="white" stroke="#bfbfbf" points="15.6431,-154 15.6431,-174 88.3569,-174 88.3569,-154 15.6431,-154"/>
<text text-anchor="middle" x="52" y="-160" font-family="Helvetica,sans-Serif" font-size="10.00">noncopyable</text>
</g>
<!-- Node4&#45;&gt;Node2 -->
<g id="edge3" class="edge"><title>Node4&#45;&gt;Node2</title>
<path fill="none" stroke="midnightblue" d="M98.5171,-171.256C111.963,-173.4 126.759,-175.759 140.498,-177.949"/>
<polygon fill="midnightblue" stroke="midnightblue" points="98.9648,-167.784 88.5384,-169.666 97.8627,-174.696 98.9648,-167.784"/>
</g>
<!-- Node7 -->
<g id="node7" class="node"><title>Node7</title>
<g id="a_node7"><a xlink:href="classcinder_1_1audio_1_1_gen_noise_node.html" target="_top" xlink:title="Noise generator. ">
<polygon fill="white" stroke="black" points="669.404,-363 669.404,-383 816.596,-383 816.596,-363 669.404,-363"/>
<text text-anchor="middle" x="743" y="-369" font-family="Helvetica,sans-Serif" font-size="10.00">cinder::audio::GenNoiseNode</text>
</a>
</g>
</g>
<!-- Node6&#45;&gt;Node7 -->
<g id="edge6" class="edge"><title>Node6&#45;&gt;Node7</title>
<path fill="none" stroke="midnightblue" d="M605.402,-223.606C613.707,-226.735 621.522,-231.061 628,-237 667.792,-273.477 624.889,-315.794 664,-353 668.254,-357.047 673.212,-360.304 678.528,-362.922"/>
<polygon fill="midnightblue" stroke="midnightblue" points="606.454,-220.268 595.863,-220.559 604.324,-226.936 606.454,-220.268"/>
</g>
<!-- Node8 -->
<g id="node8" class="node"><title>Node8</title>
<g id="a_node8"><a xlink:href="classcinder_1_1audio_1_1_gen_osc_node.html" target="_top" xlink:title="General purpose, band&#45;limited oscillator using wavetable lookup. ">
<polygon fill="white" stroke="black" points="673.298,-324 673.298,-344 812.702,-344 812.702,-324 673.298,-324"/>
<text text-anchor="middle" x="743" y="-330" font-family="Helvetica,sans-Serif" font-size="10.00">cinder::audio::GenOscNode</text>
</a>
</g>
</g>
<!-- Node6&#45;&gt;Node8 -->
<g id="edge7" class="edge"><title>Node6&#45;&gt;Node8</title>
<path fill="none" stroke="midnightblue" d="M605.618,-224.8C613.692,-227.761 621.39,-231.722 628,-237 657.523,-260.571 634.918,-289.888 664,-314 668.95,-318.104 674.64,-321.38 680.644,-323.991"/>
<polygon fill="midnightblue" stroke="midnightblue" points="606.598,-221.439 596.008,-221.764 604.489,-228.114 606.598,-221.439"/>
</g>
<!-- Node9 -->
<g id="node9" class="node"><title>Node9</title>
<g id="a_node9"><a xlink:href="classcinder_1_1audio_1_1_gen_phasor_node.html" target="_top" xlink:title="Phase generator, i.e. ramping waveform that runs from 0 to 1. ">
<polygon fill="white" stroke="black" points="666.345,-285 666.345,-305 819.655,-305 819.655,-285 666.345,-285"/>
<text text-anchor="middle" x="743" y="-291" font-family="Helvetica,sans-Serif" font-size="10.00">cinder::audio::GenPhasorNode</text>
</a>
</g>
</g>
<!-- Node6&#45;&gt;Node9 -->
<g id="edge8" class="edge"><title>Node6&#45;&gt;Node9</title>
<path fill="none" stroke="midnightblue" d="M605.467,-227.36C613.329,-229.901 621.015,-233.063 628,-237 648.267,-248.423 643.947,-263.205 664,-275 670.989,-279.111 678.815,-282.386 686.739,-284.992"/>
<polygon fill="midnightblue" stroke="midnightblue" points="606.404,-223.988 595.825,-224.56 604.452,-230.71 606.404,-223.988"/>
</g>
<!-- Node10 -->
<g id="node10" class="node"><title>Node10</title>
<g id="a_node10"><a xlink:href="classcinder_1_1audio_1_1_gen_pulse_node.html" target="_top" xlink:title="Pulse waveform generator with variable pulse width. Based on wavetable lookup of two band&#45;limited saw...">
<polygon fill="white" stroke="black" points="669.68,-246 669.68,-266 816.32,-266 816.32,-246 669.68,-246"/>
<text text-anchor="middle" x="743" y="-252" font-family="Helvetica,sans-Serif" font-size="10.00">cinder::audio::GenPulseNode</text>
</a>
</g>
</g>
<!-- Node6&#45;&gt;Node10 -->
<g id="edge9" class="edge"><title>Node6&#45;&gt;Node10</title>
<path fill="none" stroke="midnightblue" d="M599.025,-228.932C627.861,-234.391 661.644,-240.787 689.13,-245.991"/>
<polygon fill="midnightblue" stroke="midnightblue" points="599.527,-225.465 589.05,-227.043 598.225,-232.343 599.527,-225.465"/>
</g>
<!-- Node11 -->
<g id="node11" class="node"><title>Node11</title>
<g id="a_node11"><a xlink:href="classcinder_1_1audio_1_1_gen_sine_node.html" target="_top" xlink:title="Sine waveform generator. ">
<polygon fill="white" stroke="black" points="672.18,-207 672.18,-227 813.82,-227 813.82,-207 672.18,-207"/>
<text text-anchor="middle" x="743" y="-213" font-family="Helvetica,sans-Serif" font-size="10.00">cinder::audio::GenSineNode</text>
</a>
</g>
</g>
<!-- Node6&#45;&gt;Node11 -->
<g id="edge10" class="edge"><title>Node6&#45;&gt;Node11</title>
<path fill="none" stroke="midnightblue" d="M606.139,-217C627.458,-217 650.876,-217 672.174,-217"/>
<polygon fill="midnightblue" stroke="midnightblue" points="605.86,-213.5 595.86,-217 605.86,-220.5 605.86,-213.5"/>
</g>
<!-- Node12 -->
<g id="node12" class="node"><title>Node12</title>
<g id="a_node12"><a xlink:href="classcinder_1_1audio_1_1_gen_table_node.html" target="_top" xlink:title="Basic table&#45;lookup oscillator. ">
<polygon fill="white" stroke="black" points="670.234,-168 670.234,-188 815.766,-188 815.766,-168 670.234,-168"/>
<text text-anchor="middle" x="743" y="-174" font-family="Helvetica,sans-Serif" font-size="10.00">cinder::audio::GenTableNode</text>
</a>
</g>
</g>
<!-- Node6&#45;&gt;Node12 -->
<g id="edge11" class="edge"><title>Node6&#45;&gt;Node12</title>
<path fill="none" stroke="midnightblue" d="M599.025,-205.068C627.861,-199.609 661.644,-193.213 689.13,-188.009"/>
<polygon fill="midnightblue" stroke="midnightblue" points="598.225,-201.657 589.05,-206.957 599.527,-208.535 598.225,-201.657"/>
</g>
<!-- Node13 -->
<g id="node13" class="node"><title>Node13</title>
<g id="a_node13"><a xlink:href="classcinder_1_1audio_1_1_gen_triangle_node.html" target="_top" xlink:title="Triangle waveform generator. ">
<polygon fill="white" stroke="black" points="664.307,-129 664.307,-149 821.693,-149 821.693,-129 664.307,-129"/>
<text text-anchor="middle" x="743" y="-135" font-family="Helvetica,sans-Serif" font-size="10.00">cinder::audio::GenTriangleNode</text>
</a>
</g>
</g>
<!-- Node6&#45;&gt;Node13 -->
<g id="edge12" class="edge"><title>Node6&#45;&gt;Node13</title>
<path fill="none" stroke="midnightblue" d="M564.119,-202.12C589.628,-189.089 628.555,-170.356 664,-158 673.739,-154.605 684.365,-151.585 694.552,-149.007"/>
<polygon fill="midnightblue" stroke="midnightblue" points="562.315,-199.113 555.035,-206.81 565.526,-205.333 562.315,-199.113"/>
</g>
<!-- Node15 -->
<g id="node15" class="node"><title>Node15</title>
<g id="a_node15"><a xlink:href="classcinder_1_1audio_1_1cocoa_1_1_input_device_node_audio_unit.html" target="_top" xlink:title="cinder::audio::cocoa\l::InputDeviceNodeAudioUnit">
<polygon fill="white" stroke="black" points="672.185,-78 672.185,-110 813.815,-110 813.815,-78 672.185,-78"/>
<text text-anchor="start" x="680.185" y="-96" font-family="Helvetica,sans-Serif" font-size="10.00">cinder::audio::cocoa</text>
<text text-anchor="middle" x="743" y="-84" font-family="Helvetica,sans-Serif" font-size="10.00">::InputDeviceNodeAudioUnit</text>
</a>
</g>
</g>
<!-- Node14&#45;&gt;Node15 -->
<g id="edge14" class="edge"><title>Node14&#45;&gt;Node15</title>
<path fill="none" stroke="midnightblue" d="M612.647,-113.466C632.129,-110.534 652.959,-107.399 672.087,-104.521"/>
<polygon fill="midnightblue" stroke="midnightblue" points="611.966,-110.029 602.598,-114.978 613.007,-116.951 611.966,-110.029"/>
</g>
<!-- Node17 -->
<g id="node17" class="node"><title>Node17</title>
<g id="a_node17"><a xlink:href="classcinder_1_1audio_1_1_buffer_player_node.html" target="_top" xlink:title="Buffer&#45;based SamplePlayerNode, where all samples are loaded into memory before playback. ">
<polygon fill="white" stroke="black" points="664.214,-39 664.214,-59 821.786,-59 821.786,-39 664.214,-39"/>
<text text-anchor="middle" x="743" y="-45" font-family="Helvetica,sans-Serif" font-size="10.00">cinder::audio::BufferPlayerNode</text>
</a>
</g>
</g>
<!-- Node16&#45;&gt;Node17 -->
<g id="edge16" class="edge"><title>Node16&#45;&gt;Node17</title>
<path fill="none" stroke="midnightblue" d="M627.817,-49C639.922,-49 652.236,-49 664.079,-49"/>
<polygon fill="midnightblue" stroke="midnightblue" points="627.713,-45.5001 617.713,-49 627.712,-52.5001 627.713,-45.5001"/>
</g>
<!-- Node18 -->
<g id="node18" class="node"><title>Node18</title>
<g id="a_node18"><a xlink:href="classcinder_1_1audio_1_1_file_player_node.html" target="_top" xlink:title="File&#45;based SamplePlayerNode, where samples are constantly streamed from file. Suitable for large audi...">
<polygon fill="white" stroke="black" points="669.409,-0 669.409,-20 816.591,-20 816.591,-0 669.409,-0"/>
<text text-anchor="middle" x="743" y="-6" font-family="Helvetica,sans-Serif" font-size="10.00">cinder::audio::FilePlayerNode</text>
</a>
</g>
</g>
<!-- Node16&#45;&gt;Node18 -->
<g id="edge17" class="edge"><title>Node16&#45;&gt;Node18</title>
<path fill="none" stroke="midnightblue" d="M599.025,-37.0681C627.861,-31.6089 661.644,-25.213 689.13,-20.0094"/>
<polygon fill="midnightblue" stroke="midnightblue" points="598.225,-33.6574 589.05,-38.9565 599.527,-40.5352 598.225,-33.6574"/>
</g>
</g>
</svg>
        <g id="navigator" transform="translate(0 0)" fill="#404254">
                <rect fill="#f2f5e9" fill-opacity="0.5" stroke="#606060" stroke-width=".5" x="0" y="0" width="60" height="60"/>
                <use id="zoomplus" xlink:href="#zoomPlus" x="17" y="9" onmousedown="handleZoom(evt,'in')"/>
                <use id="zoomminus" xlink:href="#zoomMin" x="42" y="9" onmousedown="handleZoom(evt,'out')"/>
                <use id="reset" xlink:href="#resetDef" x="30" y="36" onmousedown="handleReset()"/>
                <g id="arrowUp" xlink:href="#dirArrow" transform="translate(30 24)" onmousedown="handlePan(0,-1)">
                  <use xlink:href="#rim" fill="#404040">
                        <set attributeName="fill" to="#808080" begin="arrowUp.mouseover" end="arrowUp.mouseout"/>
                  </use>
                  <path fill="none" stroke="white" stroke-width="1.5" d="M0,-3.0v7 M-2.5,-0.5L0,-3.0L2.5,-0.5"/>
                </g>
                <g id="arrowRight" xlink:href="#dirArrow" transform="rotate(90) translate(36 -43)" onmousedown="handlePan(1,0)">
                  <use xlink:href="#rim" fill="#404040">
                        <set attributeName="fill" to="#808080" begin="arrowRight.mouseover" end="arrowRight.mouseout"/>
                  </use>
                  <path fill="none" stroke="white" stroke-width="1.5" d="M0,-3.0v7 M-2.5,-0.5L0,-3.0L2.5,-0.5"/>
                </g>
                <g id="arrowDown" xlink:href="#dirArrow" transform="rotate(180) translate(-30 -48)" onmousedown="handlePan(0,1)">
                  <use xlink:href="#rim" fill="#404040">
                        <set attributeName="fill" to="#808080" begin="arrowDown.mouseover" end="arrowDown.mouseout"/>
                  </use>
                  <path fill="none" stroke="white" stroke-width="1.5" d="M0,-3.0v7 M-2.5,-0.5L0,-3.0L2.5,-0.5"/>
                </g>
                <g id="arrowLeft" xlink:href="#dirArrow" transform="rotate(270) translate(-36 17)" onmousedown="handlePan(-1,0)">
                  <use xlink:href="#rim" fill="#404040">
                        <set attributeName="fill" to="#808080" begin="arrowLeft.mouseover" end="arrowLeft.mouseout"/>
                  </use>
                  <path fill="none" stroke="white" stroke-width="1.5" d="M0,-3.0v7 M-2.5,-0.5L0,-3.0L2.5,-0.5"/>
                </g>
        </g>
        <svg viewBox="0 0 15 15" width="100%" height="30px" preserveAspectRatio="xMaxYMin meet">
         <g id="arrow_out" transform="scale(0.3 0.3)">
          <a xlink:href="classcinder_1_1audio_1_1_input_node__inherit__graph_org.svg" target="_base">
           <rect id="button" ry="5" rx="5" y="6" x="6" height="38" width="38"
                fill="#f2f5e9" fill-opacity="0.5" stroke="#606060" stroke-width="1.0"/>
           <path id="arrow"
             d="M 11.500037,31.436501 C 11.940474,20.09759 22.043105,11.32322 32.158766,21.979434 L 37.068811,17.246167 C 37.068811,17.246167 37.088388,32 37.088388,32 L 22.160133,31.978069 C 22.160133,31.978069 26.997745,27.140456 26.997745,27.140456 C 18.528582,18.264221 13.291696,25.230495 11.500037,31.436501 z"
             style="fill:#404040;"/>
          </a>
         </g>
        </svg>
</svg>
