<?xml version="1.0" encoding="UTF-8" standalone="no"?>
<!DOCTYPE svg PUBLIC "-//W3C//DTD SVG 1.1//EN"
 "http://www.w3.org/Graphics/SVG/1.1/DTD/svg11.dtd">
<!-- Generated by graphviz version 2.30.1 (20140712.1814)
 -->
<!-- Title: cinder::Cue Pages: 1 -->
<svg width="144pt" height="158pt"
 viewBox="0.00 0.00 144.00 158.00" xmlns="http://www.w3.org/2000/svg" xmlns:xlink="http://www.w3.org/1999/xlink">
<g id="graph0" class="graph" transform="scale(1 1) rotate(0) translate(4 154)">
<title>cinder::Cue</title>
<polygon fill="white" stroke="white" points="-4,5 -4,-154 141,-154 141,5 -4,5"/>
<!-- Node1 -->
<g id="node1" class="node"><title>Node1</title>
<polygon fill="#bfbfbf" stroke="black" points="34.4312,-1 34.4312,-21 101.569,-21 101.569,-1 34.4312,-1"/>
<text text-anchor="middle" x="68" y="-7" font-family="Helvetica,sans-Serif" font-size="10.00">cinder::Cue</text>
</g>
<!-- Node2 -->
<g id="node2" class="node"><title>Node2</title>
<g id="a_node2"><a xlink:href="classcinder_1_1_timeline_item.html" target="_top" xlink:title="Base interface for anything that can go on a Timeline. ">
<polygon fill="white" stroke="black" points="15.1685,-59 15.1685,-79 120.832,-79 120.832,-59 15.1685,-59"/>
<text text-anchor="middle" x="68" y="-65" font-family="Helvetica,sans-Serif" font-size="10.00">cinder::TimelineItem</text>
</a>
</g>
</g>
<!-- Node2&#45;&gt;Node1 -->
<g id="edge1" class="edge"><title>Node2&#45;&gt;Node1</title>
<path fill="none" stroke="midnightblue" d="M68,-48.7065C68,-39.3384 68,-28.5262 68,-21.0752"/>
<polygon fill="midnightblue" stroke="midnightblue" points="64.5001,-48.7527 68,-58.7527 71.5001,-48.7528 64.5001,-48.7527"/>
</g>
<!-- Node3 -->
<g id="node3" class="node"><title>Node3</title>
<polygon fill="white" stroke="#bfbfbf" points="-0.307617,-117 -0.307617,-149 136.308,-149 136.308,-117 -0.307617,-117"/>
<text text-anchor="start" x="7.69238" y="-135" font-family="Helvetica,sans-Serif" font-size="10.00">std::enable_shared</text>
<text text-anchor="middle" x="68" y="-123" font-family="Helvetica,sans-Serif" font-size="10.00">_from_this&lt; TimelineItem &gt;</text>
</g>
<!-- Node3&#45;&gt;Node2 -->
<g id="edge2" class="edge"><title>Node3&#45;&gt;Node2</title>
<path fill="none" stroke="midnightblue" d="M68,-106.922C68,-97.1719 68,-86.6099 68,-79.2904"/>
<polygon fill="midnightblue" stroke="midnightblue" points="64.5001,-106.991 68,-116.992 71.5001,-106.992 64.5001,-106.991"/>
</g>
</g>
</svg>
