<?xml version="1.0" encoding="UTF-8" standalone="no"?>
<!DOCTYPE svg PUBLIC "-//W3C//DTD SVG 1.1//EN"
 "http://www.w3.org/Graphics/SVG/1.1/DTD/svg11.dtd">
<!-- Generated by graphviz version 2.30.1 (20140712.1814)
 -->
<!-- Title: cinder::audio::cocoa::ContextAudioUnit Pages: 1 -->
<svg width="122pt" height="170pt"
 viewBox="0.00 0.00 122.00 170.00" xmlns="http://www.w3.org/2000/svg" xmlns:xlink="http://www.w3.org/1999/xlink">
<g id="graph0" class="graph" transform="scale(1 1) rotate(0) translate(4 166)">
<title>cinder::audio::cocoa::ContextAudioUnit</title>
<polygon fill="white" stroke="white" points="-4,5 -4,-166 119,-166 119,5 -4,5"/>
<!-- Node1 -->
<g id="node1" class="node"><title>Node1</title>
<polygon fill="#bfbfbf" stroke="black" points="4.24902,-1 4.24902,-33 109.751,-33 109.751,-1 4.24902,-1"/>
<text text-anchor="start" x="12.249" y="-19" font-family="Helvetica,sans-Serif" font-size="10.00">cinder::audio::cocoa</text>
<text text-anchor="middle" x="57" y="-7" font-family="Helvetica,sans-Serif" font-size="10.00">::ContextAudioUnit</text>
</g>
<!-- Node2 -->
<g id="node2" class="node"><title>Node2</title>
<g id="a_node2"><a xlink:href="classcinder_1_1audio_1_1_context.html" target="_top" xlink:title="Manages the creation, connections, and lifecycle of audio::Node&#39;s. ">
<polygon fill="white" stroke="black" points="0.359863,-71 0.359863,-91 113.64,-91 113.64,-71 0.359863,-71"/>
<text text-anchor="middle" x="57" y="-77" font-family="Helvetica,sans-Serif" font-size="10.00">cinder::audio::Context</text>
</a>
</g>
</g>
<!-- Node2&#45;&gt;Node1 -->
<g id="edge1" class="edge"><title>Node2&#45;&gt;Node1</title>
<path fill="none" stroke="midnightblue" d="M57,-60.7747C57,-51.9863 57,-41.715 57,-33.4404"/>
<polygon fill="midnightblue" stroke="midnightblue" points="53.5001,-60.8517 57,-70.8517 60.5001,-60.8517 53.5001,-60.8517"/>
</g>
<!-- Node3 -->
<g id="node3" class="node"><title>Node3</title>
<polygon fill="white" stroke="#bfbfbf" points="-0.191895,-129 -0.191895,-161 114.192,-161 114.192,-129 -0.191895,-129"/>
<text text-anchor="start" x="7.80811" y="-147" font-family="Helvetica,sans-Serif" font-size="10.00">std::enable_shared</text>
<text text-anchor="middle" x="57" y="-135" font-family="Helvetica,sans-Serif" font-size="10.00">_from_this&lt; Context &gt;</text>
</g>
<!-- Node3&#45;&gt;Node2 -->
<g id="edge2" class="edge"><title>Node3&#45;&gt;Node2</title>
<path fill="none" stroke="midnightblue" d="M57,-118.922C57,-109.172 57,-98.6099 57,-91.2904"/>
<polygon fill="midnightblue" stroke="midnightblue" points="53.5001,-118.991 57,-128.992 60.5001,-118.992 53.5001,-118.991"/>
</g>
</g>
</svg>
