<?xml version="1.0" encoding="UTF-8" standalone="no"?>
<!DOCTYPE svg PUBLIC "-//W3C//DTD SVG 1.1//EN"
 "http://www.w3.org/Graphics/SVG/1.1/DTD/svg11.dtd">
<!-- Generated by graphviz version 2.30.1 (20140712.1814)
 -->
<!-- Title: cinder::audio::cocoa::EffectAudioUnitNode Pages: 1 -->
<svg width="286pt" height="182pt"
 viewBox="0.00 0.00 286.00 182.00" xmlns="http://www.w3.org/2000/svg" xmlns:xlink="http://www.w3.org/1999/xlink">
<g id="graph0" class="graph" transform="scale(1 1) rotate(0) translate(4 178)">
<title>cinder::audio::cocoa::EffectAudioUnitNode</title>
<polygon fill="white" stroke="white" points="-4,5 -4,-178 283,-178 283,5 -4,5"/>
<!-- Node1 -->
<g id="node1" class="node"><title>Node1</title>
<polygon fill="#bfbfbf" stroke="black" points="107.894,-1 107.894,-33 222.106,-33 222.106,-1 107.894,-1"/>
<text text-anchor="start" x="115.894" y="-19" font-family="Helvetica,sans-Serif" font-size="10.00">cinder::audio::cocoa</text>
<text text-anchor="middle" x="165" y="-7" font-family="Helvetica,sans-Serif" font-size="10.00">::EffectAudioUnitNode</text>
</g>
<!-- Node2 -->
<g id="node2" class="node"><title>Node2</title>
<g id="a_node2"><a xlink:href="classcinder_1_1audio_1_1_node.html" target="_top" xlink:title="Fundamental building block for creating an audio processing graph. ">
<polygon fill="white" stroke="black" points="52.6382,-77 52.6382,-97 155.362,-97 155.362,-77 52.6382,-77"/>
<text text-anchor="middle" x="104" y="-83" font-family="Helvetica,sans-Serif" font-size="10.00">cinder::audio::Node</text>
</a>
</g>
</g>
<!-- Node2&#45;&gt;Node1 -->
<g id="edge1" class="edge"><title>Node2&#45;&gt;Node1</title>
<path fill="none" stroke="midnightblue" d="M119.101,-69.1659C128.966,-58.1689 141.745,-43.9238 151.313,-33.2579"/>
<polygon fill="midnightblue" stroke="midnightblue" points="116.299,-67.0482 112.227,-76.8292 121.51,-71.7225 116.299,-67.0482"/>
</g>
<!-- Node3 -->
<g id="node3" class="node"><title>Node3</title>
<polygon fill="white" stroke="#bfbfbf" points="-0.913574,-141 -0.913574,-173 102.914,-173 102.914,-141 -0.913574,-141"/>
<text text-anchor="start" x="7.08643" y="-159" font-family="Helvetica,sans-Serif" font-size="10.00">std::enable_shared</text>
<text text-anchor="middle" x="51" y="-147" font-family="Helvetica,sans-Serif" font-size="10.00">_from_this&lt; Node &gt;</text>
</g>
<!-- Node3&#45;&gt;Node2 -->
<g id="edge2" class="edge"><title>Node3&#45;&gt;Node2</title>
<path fill="none" stroke="midnightblue" d="M69.0688,-132.817C78.6605,-120.511 89.8974,-106.094 96.9825,-97.0035"/>
<polygon fill="midnightblue" stroke="midnightblue" points="66.1493,-130.87 62.7624,-140.909 71.6704,-135.173 66.1493,-130.87"/>
</g>
<!-- Node4 -->
<g id="node4" class="node"><title>Node4</title>
<polygon fill="white" stroke="#bfbfbf" points="120.643,-147 120.643,-167 193.357,-167 193.357,-147 120.643,-147"/>
<text text-anchor="middle" x="157" y="-153" font-family="Helvetica,sans-Serif" font-size="10.00">noncopyable</text>
</g>
<!-- Node4&#45;&gt;Node2 -->
<g id="edge3" class="edge"><title>Node4&#45;&gt;Node2</title>
<path fill="none" stroke="midnightblue" d="M143.656,-138.88C133.291,-125.581 119.327,-107.665 111.035,-97.0255"/>
<polygon fill="midnightblue" stroke="midnightblue" points="140.944,-141.094 149.852,-146.829 146.465,-136.79 140.944,-141.094"/>
</g>
<!-- Node5 -->
<g id="node5" class="node"><title>Node5</title>
<g id="a_node5"><a xlink:href="classcinder_1_1audio_1_1cocoa_1_1_node_audio_unit.html" target="_top" xlink:title="cinder::audio::cocoa\l::NodeAudioUnit">
<polygon fill="white" stroke="black" points="173.249,-71 173.249,-103 278.751,-103 278.751,-71 173.249,-71"/>
<text text-anchor="start" x="181.249" y="-89" font-family="Helvetica,sans-Serif" font-size="10.00">cinder::audio::cocoa</text>
<text text-anchor="middle" x="226" y="-77" font-family="Helvetica,sans-Serif" font-size="10.00">::NodeAudioUnit</text>
</a>
</g>
</g>
<!-- Node5&#45;&gt;Node1 -->
<g id="edge4" class="edge"><title>Node5&#45;&gt;Node1</title>
<path fill="none" stroke="midnightblue" d="M205.647,-63.3116C196.714,-53.3529 186.469,-41.933 178.5,-33.0492"/>
<polygon fill="midnightblue" stroke="midnightblue" points="203.179,-65.8019 212.462,-70.9086 208.39,-61.1276 203.179,-65.8019"/>
</g>
</g>
</svg>
