<?xml version="1.0" encoding="UTF-8" standalone="no"?>
<!DOCTYPE svg PUBLIC "-//W3C//DTD SVG 1.1//EN"
 "http://www.w3.org/Graphics/SVG/1.1/DTD/svg11.dtd">
<!-- Generated by graphviz version 2.30.1 (20140712.1814)
 -->
<!-- Title: cinder::XmlTree::ExcAttrNotFound Pages: 1 -->
<svg width="142pt" height="216pt"
 viewBox="0.00 0.00 142.00 216.00" xmlns="http://www.w3.org/2000/svg" xmlns:xlink="http://www.w3.org/1999/xlink">
<g id="graph0" class="graph" transform="scale(1 1) rotate(0) translate(4 212)">
<title>cinder::XmlTree::ExcAttrNotFound</title>
<polygon fill="white" stroke="white" points="-4,5 -4,-212 139,-212 139,5 -4,5"/>
<!-- Node1 -->
<g id="node1" class="node"><title>Node1</title>
<polygon fill="#bfbfbf" stroke="black" points="5.00342,-1 5.00342,-33 128.997,-33 128.997,-1 5.00342,-1"/>
<text text-anchor="start" x="13.0034" y="-19" font-family="Helvetica,sans-Serif" font-size="10.00">cinder::XmlTree::ExcAttr</text>
<text text-anchor="middle" x="67" y="-7" font-family="Helvetica,sans-Serif" font-size="10.00">NotFound</text>
</g>
<!-- Node2 -->
<g id="node2" class="node"><title>Node2</title>
<g id="a_node2"><a xlink:href="classcinder_1_1_xml_tree_1_1_exception.html" target="_top" xlink:title="Base class for XmlTree exceptions. ">
<polygon fill="white" stroke="black" points="-0.841309,-71 -0.841309,-91 134.841,-91 134.841,-71 -0.841309,-71"/>
<text text-anchor="middle" x="67" y="-77" font-family="Helvetica,sans-Serif" font-size="10.00">cinder::XmlTree::Exception</text>
</a>
</g>
</g>
<!-- Node2&#45;&gt;Node1 -->
<g id="edge1" class="edge"><title>Node2&#45;&gt;Node1</title>
<path fill="none" stroke="midnightblue" d="M67,-60.7747C67,-51.9863 67,-41.715 67,-33.4404"/>
<polygon fill="midnightblue" stroke="midnightblue" points="63.5001,-60.8517 67,-70.8517 70.5001,-60.8517 63.5001,-60.8517"/>
</g>
<!-- Node3 -->
<g id="node3" class="node"><title>Node3</title>
<g id="a_node3"><a xlink:href="classcinder_1_1_exception.html" target="_top" xlink:title="cinder::Exception">
<polygon fill="white" stroke="black" points="20.6455,-129 20.6455,-149 113.354,-149 113.354,-129 20.6455,-129"/>
<text text-anchor="middle" x="67" y="-135" font-family="Helvetica,sans-Serif" font-size="10.00">cinder::Exception</text>
</a>
</g>
</g>
<!-- Node3&#45;&gt;Node2 -->
<g id="edge2" class="edge"><title>Node3&#45;&gt;Node2</title>
<path fill="none" stroke="midnightblue" d="M67,-118.707C67,-109.338 67,-98.5262 67,-91.0752"/>
<polygon fill="midnightblue" stroke="midnightblue" points="63.5001,-118.753 67,-128.753 70.5001,-118.753 63.5001,-118.753"/>
</g>
<!-- Node4 -->
<g id="node4" class="node"><title>Node4</title>
<polygon fill="white" stroke="#bfbfbf" points="37.5962,-187 37.5962,-207 96.4038,-207 96.4038,-187 37.5962,-187"/>
<text text-anchor="middle" x="67" y="-193" font-family="Helvetica,sans-Serif" font-size="10.00">exception</text>
</g>
<!-- Node4&#45;&gt;Node3 -->
<g id="edge3" class="edge"><title>Node4&#45;&gt;Node3</title>
<path fill="none" stroke="midnightblue" d="M67,-176.707C67,-167.338 67,-156.526 67,-149.075"/>
<polygon fill="midnightblue" stroke="midnightblue" points="63.5001,-176.753 67,-186.753 70.5001,-176.753 63.5001,-176.753"/>
</g>
</g>
</svg>
