<?xml version="1.0" encoding="UTF-8" standalone="no"?>
<!DOCTYPE svg PUBLIC "-//W3C//DTD SVG 1.1//EN"
 "http://www.w3.org/Graphics/SVG/1.1/DTD/svg11.dtd">
<!-- Generated by graphviz version 2.30.1 (20140712.1814)
 -->
<!-- Title: cinder::app::Renderer Pages: 1 -->
<svg width="273pt" height="88pt"
 viewBox="0.00 0.00 273.00 88.00" xmlns="http://www.w3.org/2000/svg" xmlns:xlink="http://www.w3.org/1999/xlink">
<g id="graph0" class="graph" transform="scale(1 1) rotate(0) translate(4 84)">
<title>cinder::app::Renderer</title>
<polygon fill="white" stroke="white" points="-4,5 -4,-84 270,-84 270,5 -4,5"/>
<!-- Node1 -->
<g id="node1" class="node"><title>Node1</title>
<polygon fill="#bfbfbf" stroke="black" points="76.6382,-59 76.6382,-79 189.362,-79 189.362,-59 76.6382,-59"/>
<text text-anchor="middle" x="133" y="-65" font-family="Helvetica,sans-Serif" font-size="10.00">cinder::app::Renderer</text>
</g>
<!-- Node2 -->
<g id="node2" class="node"><title>Node2</title>
<g id="a_node2"><a xlink:href="classcinder_1_1app_1_1_renderer_dx.html" target="_top" xlink:title="cinder::app::RendererDx">
<polygon fill="white" stroke="black" points="-0.472656,-1 -0.472656,-21 124.473,-21 124.473,-1 -0.472656,-1"/>
<text text-anchor="middle" x="62" y="-7" font-family="Helvetica,sans-Serif" font-size="10.00">cinder::app::RendererDx</text>
</a>
</g>
</g>
<!-- Node1&#45;&gt;Node2 -->
<g id="edge1" class="edge"><title>Node1&#45;&gt;Node2</title>
<path fill="none" stroke="midnightblue" d="M113.079,-52.288C100.31,-42.2161 84.1851,-29.4981 73.506,-21.0752"/>
<polygon fill="midnightblue" stroke="midnightblue" points="111.257,-55.3079 121.276,-58.7527 115.592,-49.8118 111.257,-55.3079"/>
</g>
<!-- Node3 -->
<g id="node3" class="node"><title>Node3</title>
<g id="a_node3"><a xlink:href="classcinder_1_1app_1_1_renderer_gl.html" target="_top" xlink:title="cinder::app::RendererGl">
<polygon fill="white" stroke="black" points="142.638,-1 142.638,-21 265.362,-21 265.362,-1 142.638,-1"/>
<text text-anchor="middle" x="204" y="-7" font-family="Helvetica,sans-Serif" font-size="10.00">cinder::app::RendererGl</text>
</a>
</g>
</g>
<!-- Node1&#45;&gt;Node3 -->
<g id="edge2" class="edge"><title>Node1&#45;&gt;Node3</title>
<path fill="none" stroke="midnightblue" d="M152.921,-52.288C165.69,-42.2161 181.815,-29.4981 192.494,-21.0752"/>
<polygon fill="midnightblue" stroke="midnightblue" points="150.408,-49.8118 144.724,-58.7527 154.743,-55.3079 150.408,-49.8118"/>
</g>
</g>
</svg>
