<?xml version="1.0" encoding="UTF-8" standalone="no"?>
<!DOCTYPE svg PUBLIC "-//W3C//DTD SVG 1.1//EN"
 "http://www.w3.org/Graphics/SVG/1.1/DTD/svg11.dtd">
<!-- Generated by graphviz version 2.30.1 (20140712.1814)
 -->
<!-- Title: cinder::FontInvalidNameExc Pages: 1 -->
<svg width="148pt" height="146pt"
 viewBox="0.00 0.00 148.00 146.00" xmlns="http://www.w3.org/2000/svg" xmlns:xlink="http://www.w3.org/1999/xlink">
<g id="graph0" class="graph" transform="scale(1 1) rotate(0) translate(4 142)">
<title>cinder::FontInvalidNameExc</title>
<polygon fill="white" stroke="white" points="-4,5 -4,-142 145,-142 145,5 -4,5"/>
<!-- Node1 -->
<g id="node1" class="node"><title>Node1</title>
<polygon fill="#bfbfbf" stroke="black" points="-0.526855,-1 -0.526855,-21 140.527,-21 140.527,-1 -0.526855,-1"/>
<text text-anchor="middle" x="70" y="-7" font-family="Helvetica,sans-Serif" font-size="10.00">cinder::FontInvalidNameExc</text>
</g>
<!-- Node2 -->
<g id="node2" class="node"><title>Node2</title>
<g id="a_node2"><a xlink:href="classcinder_1_1_exception.html" target="_top" xlink:title="cinder::Exception">
<polygon fill="white" stroke="black" points="23.6455,-59 23.6455,-79 116.354,-79 116.354,-59 23.6455,-59"/>
<text text-anchor="middle" x="70" y="-65" font-family="Helvetica,sans-Serif" font-size="10.00">cinder::Exception</text>
</a>
</g>
</g>
<!-- Node2&#45;&gt;Node1 -->
<g id="edge1" class="edge"><title>Node2&#45;&gt;Node1</title>
<path fill="none" stroke="midnightblue" d="M70,-48.7065C70,-39.3384 70,-28.5262 70,-21.0752"/>
<polygon fill="midnightblue" stroke="midnightblue" points="66.5001,-48.7527 70,-58.7527 73.5001,-48.7528 66.5001,-48.7527"/>
</g>
<!-- Node3 -->
<g id="node3" class="node"><title>Node3</title>
<polygon fill="white" stroke="#bfbfbf" points="40.5962,-117 40.5962,-137 99.4038,-137 99.4038,-117 40.5962,-117"/>
<text text-anchor="middle" x="70" y="-123" font-family="Helvetica,sans-Serif" font-size="10.00">exception</text>
</g>
<!-- Node3&#45;&gt;Node2 -->
<g id="edge2" class="edge"><title>Node3&#45;&gt;Node2</title>
<path fill="none" stroke="midnightblue" d="M70,-106.707C70,-97.3384 70,-86.5262 70,-79.0752"/>
<polygon fill="midnightblue" stroke="midnightblue" points="66.5001,-106.753 70,-116.753 73.5001,-106.753 66.5001,-106.753"/>
</g>
</g>
</svg>
