<?xml version="1.0" encoding="UTF-8" standalone="no"?>
<!DOCTYPE svg PUBLIC "-//W3C//DTD SVG 1.1//EN"
 "http://www.w3.org/Graphics/SVG/1.1/DTD/svg11.dtd">
<!-- Generated by graphviz version 2.30.1 (20140712.1814)
 -->
<!-- Title: cinder::params::InterfaceGl::Options&lt; T &gt; Pages: 1 -->
<svg width="134pt" height="112pt"
 viewBox="0.00 0.00 134.00 112.00" xmlns="http://www.w3.org/2000/svg" xmlns:xlink="http://www.w3.org/1999/xlink">
<g id="graph0" class="graph" transform="scale(1 1) rotate(0) translate(4 108)">
<title>cinder::params::InterfaceGl::Options&lt; T &gt;</title>
<polygon fill="white" stroke="white" points="-4,5 -4,-108 131,-108 131,5 -4,5"/>
<!-- Node1 -->
<g id="node1" class="node"><title>Node1</title>
<polygon fill="#bfbfbf" stroke="black" points="-0.302734,-1 -0.302734,-33 126.303,-33 126.303,-1 -0.302734,-1"/>
<text text-anchor="start" x="7.69727" y="-19" font-family="Helvetica,sans-Serif" font-size="10.00">cinder::params::Interface</text>
<text text-anchor="middle" x="63" y="-7" font-family="Helvetica,sans-Serif" font-size="10.00">Gl::Options&lt; T &gt;</text>
</g>
<!-- Node2 -->
<g id="node2" class="node"><title>Node2</title>
<g id="a_node2"><a xlink:href="classcinder_1_1params_1_1_interface_gl_1_1_options_base.html" target="_top" xlink:title="Base class for chainable options. ">
<polygon fill="white" stroke="black" points="-0.302734,-71 -0.302734,-103 126.303,-103 126.303,-71 -0.302734,-71"/>
<text text-anchor="start" x="7.69727" y="-89" font-family="Helvetica,sans-Serif" font-size="10.00">cinder::params::Interface</text>
<text text-anchor="middle" x="63" y="-77" font-family="Helvetica,sans-Serif" font-size="10.00">Gl::OptionsBase</text>
</a>
</g>
</g>
<!-- Node2&#45;&gt;Node1 -->
<g id="edge1" class="edge"><title>Node2&#45;&gt;Node1</title>
<path fill="none" stroke="midnightblue" d="M63,-60.6174C63,-51.3378 63,-41.1413 63,-33.0492"/>
<polygon fill="midnightblue" stroke="midnightblue" points="59.5001,-60.9086 63,-70.9086 66.5001,-60.9086 59.5001,-60.9086"/>
</g>
</g>
</svg>
