<?xml version="1.0" encoding="UTF-8" standalone="no"?>
<!DOCTYPE svg PUBLIC "-//W3C//DTD SVG 1.1//EN"
 "http://www.w3.org/Graphics/SVG/1.1/DTD/svg11.dtd">
<!-- Generated by graphviz version 2.30.1 (20140712.1814)
 -->
<!-- Title: cinder::ImageIoException Pages: 1 -->
<!--zoomable 436 -->
<svg id="main" version="1.1" xmlns="http://www.w3.org/2000/svg" xmlns:xlink="http://www.w3.org/1999/xlink" xml:space="preserve" onload="init(evt)">
<style type="text/css"><![CDATA[
.edge:hover path { stroke: red; }
.edge:hover polygon { stroke: red; fill: red; }
]]></style>
<script type="text/javascript"><![CDATA[
var edges = document.getElementsByTagName('g');
if (edges && edges.length) {
  for (var i=0;i<edges.length;i++) {
    if (edges[i].id.substr(0,4)=='edge') {
      edges[i].setAttribute('class','edge');
    }
  }
}
]]></script>
        <defs>
                <circle id="rim" cx="0" cy="0" r="7"/>
                <circle id="rim2" cx="0" cy="0" r="3.5"/>
                <g id="zoomPlus">
                        <use xlink:href="#rim" fill="#404040">
                                <set attributeName="fill" to="#808080" begin="zoomplus.mouseover" end="zoomplus.mouseout"/>
                        </use>
                        <path d="M-4,0h8M0,-4v8" fill="none" stroke="white" stroke-width="1.5" pointer-events="none"/>
                </g>
                <g id="zoomMin">
                        <use xlink:href="#rim" fill="#404040">
                                <set attributeName="fill" to="#808080" begin="zoomminus.mouseover" end="zoomminus.mouseout"/>
                        </use>
                        <path d="M-4,0h8" fill="none" stroke="white" stroke-width="1.5" pointer-events="none"/>
                </g>
                <g id="dirArrow">
                        <path fill="none" stroke="white" stroke-width="1.5" d="M0,-3.0v7 M-2.5,-0.5L0,-3.0L2.5,-0.5"/>
                </g>
               <g id="resetDef">
                       <use xlink:href="#rim2" fill="#404040">
                               <set attributeName="fill" to="#808080" begin="reset.mouseover" end="reset.mouseout"/>
                       </use>
               </g>
        </defs>

<script type="text/javascript">
var viewWidth = 570;
var viewHeight = 436;
var sectionId = 'dynsection-0';
</script>
<script xlink:href="svgpan.js"/>
<svg id="graph" class="graph">
<g id="viewport">
<title>cinder::ImageIoException</title>
<polygon fill="white" stroke="white" points="-4,5 -4,-432 567,-432 567,5 -4,5"/>
<!-- Node1 -->
<g id="node1" class="node"><title>Node1</title>
<polygon fill="#bfbfbf" stroke="black" points="226.579,-198 226.579,-218 355.421,-218 355.421,-198 226.579,-198"/>
<text text-anchor="middle" x="291" y="-204" font-family="Helvetica,sans-Serif" font-size="10.00">cinder::ImageIoException</text>
</g>
<!-- Node4 -->
<g id="node4" class="node"><title>Node4</title>
<g id="a_node4"><a xlink:href="classcinder_1_1_image_io_exception_failed_load.html" target="_top" xlink:title="cinder::ImageIoException\lFailedLoad">
<polygon fill="white" stroke="black" points="412.579,-396 412.579,-428 541.421,-428 541.421,-396 412.579,-396"/>
<text text-anchor="start" x="420.579" y="-414" font-family="Helvetica,sans-Serif" font-size="10.00">cinder::ImageIoException</text>
<text text-anchor="middle" x="477" y="-402" font-family="Helvetica,sans-Serif" font-size="10.00">FailedLoad</text>
</a>
</g>
</g>
<!-- Node1&#45;&gt;Node4 -->
<g id="edge3" class="edge"><title>Node1&#45;&gt;Node4</title>
<path fill="none" stroke="midnightblue" d="M297.842,-228.243C309.524,-265.131 339.278,-343.405 392,-386 398.056,-390.893 405.033,-394.868 412.323,-398.097"/>
<polygon fill="midnightblue" stroke="midnightblue" points="301.049,-226.759 294.791,-218.21 294.351,-228.795 301.049,-226.759"/>
</g>
<!-- Node5 -->
<g id="node5" class="node"><title>Node5</title>
<g id="a_node5"><a xlink:href="classcinder_1_1_image_io_exception_failed_write.html" target="_top" xlink:title="cinder::ImageIoException\lFailedWrite">
<polygon fill="white" stroke="black" points="412.579,-345 412.579,-377 541.421,-377 541.421,-345 412.579,-345"/>
<text text-anchor="start" x="420.579" y="-363" font-family="Helvetica,sans-Serif" font-size="10.00">cinder::ImageIoException</text>
<text text-anchor="middle" x="477" y="-351" font-family="Helvetica,sans-Serif" font-size="10.00">FailedWrite</text>
</a>
</g>
</g>
<!-- Node1&#45;&gt;Node5 -->
<g id="edge4" class="edge"><title>Node1&#45;&gt;Node5</title>
<path fill="none" stroke="midnightblue" d="M302.224,-227.414C317.875,-255.282 350.387,-306.41 392,-335 398.165,-339.236 405.048,-342.803 412.148,-345.802"/>
<polygon fill="midnightblue" stroke="midnightblue" points="305.101,-225.381 297.234,-218.284 298.958,-228.737 305.101,-225.381"/>
</g>
<!-- Node6 -->
<g id="node6" class="node"><title>Node6</title>
<g id="a_node6"><a xlink:href="classcinder_1_1_image_io_exception_illegal_channel_order.html" target="_top" xlink:title="cinder::ImageIoException\lIllegalChannelOrder">
<polygon fill="white" stroke="black" points="412.579,-294 412.579,-326 541.421,-326 541.421,-294 412.579,-294"/>
<text text-anchor="start" x="420.579" y="-312" font-family="Helvetica,sans-Serif" font-size="10.00">cinder::ImageIoException</text>
<text text-anchor="middle" x="477" y="-300" font-family="Helvetica,sans-Serif" font-size="10.00">IllegalChannelOrder</text>
</a>
</g>
</g>
<!-- Node1&#45;&gt;Node6 -->
<g id="edge5" class="edge"><title>Node1&#45;&gt;Node6</title>
<path fill="none" stroke="midnightblue" d="M310.14,-224.948C329.216,-241.974 360.75,-267.928 392,-284 399.195,-287.7 407.011,-290.983 414.883,-293.862"/>
<polygon fill="midnightblue" stroke="midnightblue" points="312.287,-222.17 302.531,-218.037 307.58,-227.352 312.287,-222.17"/>
</g>
<!-- Node7 -->
<g id="node7" class="node"><title>Node7</title>
<g id="a_node7"><a xlink:href="classcinder_1_1_image_io_exception_illegal_color_model.html" target="_top" xlink:title="cinder::ImageIoException\lIllegalColorModel">
<polygon fill="white" stroke="black" points="412.579,-243 412.579,-275 541.421,-275 541.421,-243 412.579,-243"/>
<text text-anchor="start" x="420.579" y="-261" font-family="Helvetica,sans-Serif" font-size="10.00">cinder::ImageIoException</text>
<text text-anchor="middle" x="477" y="-249" font-family="Helvetica,sans-Serif" font-size="10.00">IllegalColorModel</text>
</a>
</g>
</g>
<!-- Node1&#45;&gt;Node7 -->
<g id="edge6" class="edge"><title>Node1&#45;&gt;Node7</title>
<path fill="none" stroke="midnightblue" d="M338.014,-220.754C362.24,-227.469 392.193,-235.771 417.994,-242.922"/>
<polygon fill="midnightblue" stroke="midnightblue" points="338.924,-217.374 328.352,-218.076 337.054,-224.12 338.924,-217.374"/>
</g>
<!-- Node8 -->
<g id="node8" class="node"><title>Node8</title>
<g id="a_node8"><a xlink:href="classcinder_1_1_image_io_exception_illegal_data_type.html" target="_top" xlink:title="cinder::ImageIoException\lIllegalDataType">
<polygon fill="white" stroke="black" points="412.579,-192 412.579,-224 541.421,-224 541.421,-192 412.579,-192"/>
<text text-anchor="start" x="420.579" y="-210" font-family="Helvetica,sans-Serif" font-size="10.00">cinder::ImageIoException</text>
<text text-anchor="middle" x="477" y="-198" font-family="Helvetica,sans-Serif" font-size="10.00">IllegalDataType</text>
</a>
</g>
</g>
<!-- Node1&#45;&gt;Node8 -->
<g id="edge7" class="edge"><title>Node1&#45;&gt;Node8</title>
<path fill="none" stroke="midnightblue" d="M365.634,-208C381.123,-208 397.335,-208 412.417,-208"/>
<polygon fill="midnightblue" stroke="midnightblue" points="365.58,-204.5 355.58,-208 365.58,-211.5 365.58,-204.5"/>
</g>
<!-- Node9 -->
<g id="node9" class="node"><title>Node9</title>
<g id="a_node9"><a xlink:href="classcinder_1_1_image_io_exception_unknown_extension.html" target="_top" xlink:title="cinder::ImageIoException\lUnknownExtension">
<polygon fill="white" stroke="black" points="412.579,-141 412.579,-173 541.421,-173 541.421,-141 412.579,-141"/>
<text text-anchor="start" x="420.579" y="-159" font-family="Helvetica,sans-Serif" font-size="10.00">cinder::ImageIoException</text>
<text text-anchor="middle" x="477" y="-147" font-family="Helvetica,sans-Serif" font-size="10.00">UnknownExtension</text>
</a>
</g>
</g>
<!-- Node1&#45;&gt;Node9 -->
<g id="edge8" class="edge"><title>Node1&#45;&gt;Node9</title>
<path fill="none" stroke="midnightblue" d="M338.014,-195.246C362.24,-188.531 392.193,-180.229 417.994,-173.078"/>
<polygon fill="midnightblue" stroke="midnightblue" points="337.054,-191.88 328.352,-197.924 338.924,-198.626 337.054,-191.88"/>
</g>
<!-- Node10 -->
<g id="node10" class="node"><title>Node10</title>
<g id="a_node10"><a xlink:href="classcinder_1_1_image_source_file_quartz_exception_unsupported_data.html" target="_top" xlink:title="cinder::ImageSourceFileQuartz\lExceptionUnsupportedData">
<polygon fill="white" stroke="black" points="399.803,-90 399.803,-122 554.197,-122 554.197,-90 399.803,-90"/>
<text text-anchor="start" x="407.803" y="-108" font-family="Helvetica,sans-Serif" font-size="10.00">cinder::ImageSourceFileQuartz</text>
<text text-anchor="middle" x="477" y="-96" font-family="Helvetica,sans-Serif" font-size="10.00">ExceptionUnsupportedData</text>
</a>
</g>
</g>
<!-- Node1&#45;&gt;Node10 -->
<g id="edge9" class="edge"><title>Node1&#45;&gt;Node10</title>
<path fill="none" stroke="midnightblue" d="M310.063,-190.744C329.077,-173.426 360.562,-147.078 392,-131 398.502,-127.675 405.52,-124.717 412.63,-122.107"/>
<polygon fill="midnightblue" stroke="midnightblue" points="307.433,-188.409 302.481,-197.776 312.193,-193.542 307.433,-188.409"/>
</g>
<!-- Node11 -->
<g id="node11" class="node"><title>Node11</title>
<g id="a_node11"><a xlink:href="classcinder_1_1_image_source_file_wic_exception_unsupported_data.html" target="_top" xlink:title="cinder::ImageSourceFileWic\lExceptionUnsupportedData">
<polygon fill="white" stroke="black" points="406.478,-39 406.478,-71 547.522,-71 547.522,-39 406.478,-39"/>
<text text-anchor="start" x="414.478" y="-57" font-family="Helvetica,sans-Serif" font-size="10.00">cinder::ImageSourceFileWic</text>
<text text-anchor="middle" x="477" y="-45" font-family="Helvetica,sans-Serif" font-size="10.00">ExceptionUnsupportedData</text>
</a>
</g>
</g>
<!-- Node1&#45;&gt;Node11 -->
<g id="edge10" class="edge"><title>Node1&#45;&gt;Node11</title>
<path fill="none" stroke="midnightblue" d="M301.913,-188.788C317.374,-160.718 349.876,-108.722 392,-80 397.029,-76.5714 402.536,-73.6038 408.251,-71.037"/>
<polygon fill="midnightblue" stroke="midnightblue" points="298.637,-187.492 297.002,-197.96 304.808,-190.796 298.637,-187.492"/>
</g>
<!-- Node12 -->
<g id="node12" class="node"><title>Node12</title>
<g id="a_node12"><a xlink:href="classcinder_1_1_image_source_png_exception.html" target="_top" xlink:title="cinder::ImageSourcePngException">
<polygon fill="white" stroke="black" points="392.01,-0 392.01,-20 561.99,-20 561.99,-0 392.01,-0"/>
<text text-anchor="middle" x="477" y="-6" font-family="Helvetica,sans-Serif" font-size="10.00">cinder::ImageSourcePngException</text>
</a>
</g>
</g>
<!-- Node1&#45;&gt;Node12 -->
<g id="edge11" class="edge"><title>Node1&#45;&gt;Node12</title>
<path fill="none" stroke="midnightblue" d="M297.198,-188.26C308.092,-150.945 336.985,-70.1227 392,-29 396.79,-25.4193 402.134,-22.4937 407.742,-20.1059"/>
<polygon fill="midnightblue" stroke="midnightblue" points="293.808,-187.385 294.49,-197.958 300.55,-189.268 293.808,-187.385"/>
</g>
<!-- Node2 -->
<g id="node2" class="node"><title>Node2</title>
<g id="a_node2"><a xlink:href="classcinder_1_1_exception.html" target="_top" xlink:title="cinder::Exception">
<polygon fill="white" stroke="black" points="96.6455,-198 96.6455,-218 189.354,-218 189.354,-198 96.6455,-198"/>
<text text-anchor="middle" x="143" y="-204" font-family="Helvetica,sans-Serif" font-size="10.00">cinder::Exception</text>
</a>
</g>
</g>
<!-- Node2&#45;&gt;Node1 -->
<g id="edge1" class="edge"><title>Node2&#45;&gt;Node1</title>
<path fill="none" stroke="midnightblue" d="M199.514,-208C208.303,-208 217.451,-208 226.407,-208"/>
<polygon fill="midnightblue" stroke="midnightblue" points="199.395,-204.5 189.395,-208 199.395,-211.5 199.395,-204.5"/>
</g>
<!-- Node3 -->
<g id="node3" class="node"><title>Node3</title>
<polygon fill="white" stroke="#bfbfbf" points="0.596191,-198 0.596191,-218 59.4038,-218 59.4038,-198 0.596191,-198"/>
<text text-anchor="middle" x="30" y="-204" font-family="Helvetica,sans-Serif" font-size="10.00">exception</text>
</g>
<!-- Node3&#45;&gt;Node2 -->
<g id="edge2" class="edge"><title>Node3&#45;&gt;Node2</title>
<path fill="none" stroke="midnightblue" d="M69.6967,-208C78.2784,-208 87.4518,-208 96.2839,-208"/>
<polygon fill="midnightblue" stroke="midnightblue" points="69.5853,-204.5 59.5853,-208 69.5852,-211.5 69.5853,-204.5"/>
</g>
</g>
</svg>
        <g id="navigator" transform="translate(0 0)" fill="#404254">
                <rect fill="#f2f5e9" fill-opacity="0.5" stroke="#606060" stroke-width=".5" x="0" y="0" width="60" height="60"/>
                <use id="zoomplus" xlink:href="#zoomPlus" x="17" y="9" onmousedown="handleZoom(evt,'in')"/>
                <use id="zoomminus" xlink:href="#zoomMin" x="42" y="9" onmousedown="handleZoom(evt,'out')"/>
                <use id="reset" xlink:href="#resetDef" x="30" y="36" onmousedown="handleReset()"/>
                <g id="arrowUp" xlink:href="#dirArrow" transform="translate(30 24)" onmousedown="handlePan(0,-1)">
                  <use xlink:href="#rim" fill="#404040">
                        <set attributeName="fill" to="#808080" begin="arrowUp.mouseover" end="arrowUp.mouseout"/>
                  </use>
                  <path fill="none" stroke="white" stroke-width="1.5" d="M0,-3.0v7 M-2.5,-0.5L0,-3.0L2.5,-0.5"/>
                </g>
                <g id="arrowRight" xlink:href="#dirArrow" transform="rotate(90) translate(36 -43)" onmousedown="handlePan(1,0)">
                  <use xlink:href="#rim" fill="#404040">
                        <set attributeName="fill" to="#808080" begin="arrowRight.mouseover" end="arrowRight.mouseout"/>
                  </use>
                  <path fill="none" stroke="white" stroke-width="1.5" d="M0,-3.0v7 M-2.5,-0.5L0,-3.0L2.5,-0.5"/>
                </g>
                <g id="arrowDown" xlink:href="#dirArrow" transform="rotate(180) translate(-30 -48)" onmousedown="handlePan(0,1)">
                  <use xlink:href="#rim" fill="#404040">
                        <set attributeName="fill" to="#808080" begin="arrowDown.mouseover" end="arrowDown.mouseout"/>
                  </use>
                  <path fill="none" stroke="white" stroke-width="1.5" d="M0,-3.0v7 M-2.5,-0.5L0,-3.0L2.5,-0.5"/>
                </g>
                <g id="arrowLeft" xlink:href="#dirArrow" transform="rotate(270) translate(-36 17)" onmousedown="handlePan(-1,0)">
                  <use xlink:href="#rim" fill="#404040">
                        <set attributeName="fill" to="#808080" begin="arrowLeft.mouseover" end="arrowLeft.mouseout"/>
                  </use>
                  <path fill="none" stroke="white" stroke-width="1.5" d="M0,-3.0v7 M-2.5,-0.5L0,-3.0L2.5,-0.5"/>
                </g>
        </g>
        <svg viewBox="0 0 15 15" width="100%" height="30px" preserveAspectRatio="xMaxYMin meet">
         <g id="arrow_out" transform="scale(0.3 0.3)">
          <a xlink:href="classcinder_1_1_image_io_exception__inherit__graph_org.svg" target="_base">
           <rect id="button" ry="5" rx="5" y="6" x="6" height="38" width="38"
                fill="#f2f5e9" fill-opacity="0.5" stroke="#606060" stroke-width="1.0"/>
           <path id="arrow"
             d="M 11.500037,31.436501 C 11.940474,20.09759 22.043105,11.32322 32.158766,21.979434 L 37.068811,17.246167 C 37.068811,17.246167 37.088388,32 37.088388,32 L 22.160133,31.978069 C 22.160133,31.978069 26.997745,27.140456 26.997745,27.140456 C 18.528582,18.264221 13.291696,25.230495 11.500037,31.436501 z"
             style="fill:#404040;"/>
          </a>
         </g>
        </svg>
</svg>
