<?xml version="1.0" encoding="UTF-8" standalone="no"?>
<!DOCTYPE svg PUBLIC "-//W3C//DTD SVG 1.1//EN"
 "http://www.w3.org/Graphics/SVG/1.1/DTD/svg11.dtd">
<!-- Generated by graphviz version 2.30.1 (20140712.1814)
 -->
<!-- Title: cinder::audio::DeviceManager Pages: 1 -->
<svg width="458pt" height="91pt"
 viewBox="0.00 0.00 458.00 91.00" xmlns="http://www.w3.org/2000/svg" xmlns:xlink="http://www.w3.org/1999/xlink">
<g id="graph0" class="graph" transform="scale(1 1) rotate(0) translate(4 87)">
<title>cinder::audio::DeviceManager</title>
<polygon fill="white" stroke="white" points="-4,5 -4,-87 455,-87 455,5 -4,5"/>
<!-- Node1 -->
<g id="node1" class="node"><title>Node1</title>
<polygon fill="#bfbfbf" stroke="black" points="110.574,-31 110.574,-51 259.426,-51 259.426,-31 110.574,-31"/>
<text text-anchor="middle" x="185" y="-37" font-family="Helvetica,sans-Serif" font-size="10.00">cinder::audio::DeviceManager</text>
</g>
<!-- Node3 -->
<g id="node3" class="node"><title>Node3</title>
<g id="a_node3"><a xlink:href="classcinder_1_1audio_1_1cocoa_1_1_device_manager_audio_session.html" target="_top" xlink:title="cinder::audio::cocoa\l::DeviceManagerAudioSession">
<polygon fill="white" stroke="black" points="296.628,-51 296.628,-83 449.372,-83 449.372,-51 296.628,-51"/>
<text text-anchor="start" x="304.628" y="-69" font-family="Helvetica,sans-Serif" font-size="10.00">cinder::audio::cocoa</text>
<text text-anchor="middle" x="373" y="-57" font-family="Helvetica,sans-Serif" font-size="10.00">::DeviceManagerAudioSession</text>
</a>
</g>
</g>
<!-- Node1&#45;&gt;Node3 -->
<g id="edge2" class="edge"><title>Node1&#45;&gt;Node3</title>
<path fill="none" stroke="midnightblue" d="M267.556,-52.4002C277.138,-53.7398 286.886,-55.1023 296.382,-56.4298"/>
<polygon fill="midnightblue" stroke="midnightblue" points="268.035,-48.9333 257.646,-51.0151 267.066,-55.8659 268.035,-48.9333"/>
</g>
<!-- Node4 -->
<g id="node4" class="node"><title>Node4</title>
<g id="a_node4"><a xlink:href="classcinder_1_1audio_1_1cocoa_1_1_device_manager_core_audio.html" target="_top" xlink:title="cinder::audio::cocoa\l::DeviceManagerCoreAudio">
<polygon fill="white" stroke="black" points="303.579,-0 303.579,-32 442.421,-32 442.421,-0 303.579,-0"/>
<text text-anchor="start" x="311.579" y="-18" font-family="Helvetica,sans-Serif" font-size="10.00">cinder::audio::cocoa</text>
<text text-anchor="middle" x="373" y="-6" font-family="Helvetica,sans-Serif" font-size="10.00">::DeviceManagerCoreAudio</text>
</a>
</g>
</g>
<!-- Node1&#45;&gt;Node4 -->
<g id="edge3" class="edge"><title>Node1&#45;&gt;Node4</title>
<path fill="none" stroke="midnightblue" d="M269.466,-29.7814C280.87,-28.2486 292.467,-26.6899 303.562,-25.1987"/>
<polygon fill="midnightblue" stroke="midnightblue" points="268.957,-26.3183 259.512,-31.1193 269.889,-33.256 268.957,-26.3183"/>
</g>
<!-- Node2 -->
<g id="node2" class="node"><title>Node2</title>
<polygon fill="white" stroke="#bfbfbf" points="0.643066,-31 0.643066,-51 73.3569,-51 73.3569,-31 0.643066,-31"/>
<text text-anchor="middle" x="37" y="-37" font-family="Helvetica,sans-Serif" font-size="10.00">noncopyable</text>
</g>
<!-- Node2&#45;&gt;Node1 -->
<g id="edge1" class="edge"><title>Node2&#45;&gt;Node1</title>
<path fill="none" stroke="midnightblue" d="M83.7386,-41C92.2196,-41 101.274,-41 110.342,-41"/>
<polygon fill="midnightblue" stroke="midnightblue" points="83.7157,-37.5001 73.7156,-41 83.7156,-44.5001 83.7157,-37.5001"/>
</g>
</g>
</svg>
