<?xml version="1.0" encoding="UTF-8" standalone="no"?>
<!DOCTYPE svg PUBLIC "-//W3C//DTD SVG 1.1//EN"
 "http://www.w3.org/Graphics/SVG/1.1/DTD/svg11.dtd">
<!-- Generated by graphviz version 2.30.1 (20140712.1814)
 -->
<!-- Title: cinder::JsonTree::ExcChildNotFound Pages: 1 -->
<svg width="146pt" height="216pt"
 viewBox="0.00 0.00 146.00 216.00" xmlns="http://www.w3.org/2000/svg" xmlns:xlink="http://www.w3.org/1999/xlink">
<g id="graph0" class="graph" transform="scale(1 1) rotate(0) translate(4 212)">
<title>cinder::JsonTree::ExcChildNotFound</title>
<polygon fill="white" stroke="white" points="-4,5 -4,-212 143,-212 143,5 -4,5"/>
<!-- Node1 -->
<g id="node1" class="node"><title>Node1</title>
<polygon fill="#bfbfbf" stroke="black" points="1.43701,-1 1.43701,-33 136.563,-33 136.563,-1 1.43701,-1"/>
<text text-anchor="start" x="9.43701" y="-19" font-family="Helvetica,sans-Serif" font-size="10.00">cinder::JsonTree::ExcChild</text>
<text text-anchor="middle" x="69" y="-7" font-family="Helvetica,sans-Serif" font-size="10.00">NotFound</text>
</g>
<!-- Node2 -->
<g id="node2" class="node"><title>Node2</title>
<g id="a_node2"><a xlink:href="classcinder_1_1_json_tree_1_1_exception.html" target="_top" xlink:title="Base class for JsonTree exceptions. ">
<polygon fill="white" stroke="black" points="-0.791992,-71 -0.791992,-91 138.792,-91 138.792,-71 -0.791992,-71"/>
<text text-anchor="middle" x="69" y="-77" font-family="Helvetica,sans-Serif" font-size="10.00">cinder::JsonTree::Exception</text>
</a>
</g>
</g>
<!-- Node2&#45;&gt;Node1 -->
<g id="edge1" class="edge"><title>Node2&#45;&gt;Node1</title>
<path fill="none" stroke="midnightblue" d="M69,-60.7747C69,-51.9863 69,-41.715 69,-33.4404"/>
<polygon fill="midnightblue" stroke="midnightblue" points="65.5001,-60.8517 69,-70.8517 72.5001,-60.8517 65.5001,-60.8517"/>
</g>
<!-- Node3 -->
<g id="node3" class="node"><title>Node3</title>
<g id="a_node3"><a xlink:href="classcinder_1_1_exception.html" target="_top" xlink:title="cinder::Exception">
<polygon fill="white" stroke="black" points="22.6455,-129 22.6455,-149 115.354,-149 115.354,-129 22.6455,-129"/>
<text text-anchor="middle" x="69" y="-135" font-family="Helvetica,sans-Serif" font-size="10.00">cinder::Exception</text>
</a>
</g>
</g>
<!-- Node3&#45;&gt;Node2 -->
<g id="edge2" class="edge"><title>Node3&#45;&gt;Node2</title>
<path fill="none" stroke="midnightblue" d="M69,-118.707C69,-109.338 69,-98.5262 69,-91.0752"/>
<polygon fill="midnightblue" stroke="midnightblue" points="65.5001,-118.753 69,-128.753 72.5001,-118.753 65.5001,-118.753"/>
</g>
<!-- Node4 -->
<g id="node4" class="node"><title>Node4</title>
<polygon fill="white" stroke="#bfbfbf" points="39.5962,-187 39.5962,-207 98.4038,-207 98.4038,-187 39.5962,-187"/>
<text text-anchor="middle" x="69" y="-193" font-family="Helvetica,sans-Serif" font-size="10.00">exception</text>
</g>
<!-- Node4&#45;&gt;Node3 -->
<g id="edge3" class="edge"><title>Node4&#45;&gt;Node3</title>
<path fill="none" stroke="midnightblue" d="M69,-176.707C69,-167.338 69,-156.526 69,-149.075"/>
<polygon fill="midnightblue" stroke="midnightblue" points="65.5001,-176.753 69,-186.753 72.5001,-176.753 65.5001,-176.753"/>
</g>
</g>
</svg>
