<?xml version="1.0" encoding="UTF-8" standalone="no"?>
<!DOCTYPE svg PUBLIC "-//W3C//DTD SVG 1.1//EN"
 "http://www.w3.org/Graphics/SVG/1.1/DTD/svg11.dtd">
<!-- Generated by graphviz version 2.30.1 (20140712.1814)
 -->
<!-- Title: cinder::svg::ValueExc Pages: 1 -->
<svg width="118pt" height="204pt"
 viewBox="0.00 0.00 118.00 204.00" xmlns="http://www.w3.org/2000/svg" xmlns:xlink="http://www.w3.org/1999/xlink">
<g id="graph0" class="graph" transform="scale(1 1) rotate(0) translate(4 200)">
<title>cinder::svg::ValueExc</title>
<polygon fill="white" stroke="white" points="-4,5 -4,-200 115,-200 115,5 -4,5"/>
<!-- Node1 -->
<g id="node1" class="node"><title>Node1</title>
<polygon fill="#bfbfbf" stroke="black" points="-0.709961,-1 -0.709961,-21 110.71,-21 110.71,-1 -0.709961,-1"/>
<text text-anchor="middle" x="55" y="-7" font-family="Helvetica,sans-Serif" font-size="10.00">cinder::svg::ValueExc</text>
</g>
<!-- Node2 -->
<g id="node2" class="node"><title>Node2</title>
<g id="a_node2"><a xlink:href="classcinder_1_1svg_1_1_exc.html" target="_top" xlink:title="SVG Exception base&#45;class. ">
<polygon fill="white" stroke="black" points="11.7095,-59 11.7095,-79 98.2905,-79 98.2905,-59 11.7095,-59"/>
<text text-anchor="middle" x="55" y="-65" font-family="Helvetica,sans-Serif" font-size="10.00">cinder::svg::Exc</text>
</a>
</g>
</g>
<!-- Node2&#45;&gt;Node1 -->
<g id="edge1" class="edge"><title>Node2&#45;&gt;Node1</title>
<path fill="none" stroke="midnightblue" d="M55,-48.7065C55,-39.3384 55,-28.5262 55,-21.0752"/>
<polygon fill="midnightblue" stroke="midnightblue" points="51.5001,-48.7527 55,-58.7527 58.5001,-48.7528 51.5001,-48.7527"/>
</g>
<!-- Node3 -->
<g id="node3" class="node"><title>Node3</title>
<g id="a_node3"><a xlink:href="classcinder_1_1_exception.html" target="_top" xlink:title="cinder::Exception">
<polygon fill="white" stroke="black" points="8.64551,-117 8.64551,-137 101.354,-137 101.354,-117 8.64551,-117"/>
<text text-anchor="middle" x="55" y="-123" font-family="Helvetica,sans-Serif" font-size="10.00">cinder::Exception</text>
</a>
</g>
</g>
<!-- Node3&#45;&gt;Node2 -->
<g id="edge2" class="edge"><title>Node3&#45;&gt;Node2</title>
<path fill="none" stroke="midnightblue" d="M55,-106.707C55,-97.3384 55,-86.5262 55,-79.0752"/>
<polygon fill="midnightblue" stroke="midnightblue" points="51.5001,-106.753 55,-116.753 58.5001,-106.753 51.5001,-106.753"/>
</g>
<!-- Node4 -->
<g id="node4" class="node"><title>Node4</title>
<polygon fill="white" stroke="#bfbfbf" points="25.5962,-175 25.5962,-195 84.4038,-195 84.4038,-175 25.5962,-175"/>
<text text-anchor="middle" x="55" y="-181" font-family="Helvetica,sans-Serif" font-size="10.00">exception</text>
</g>
<!-- Node4&#45;&gt;Node3 -->
<g id="edge3" class="edge"><title>Node4&#45;&gt;Node3</title>
<path fill="none" stroke="midnightblue" d="M55,-164.707C55,-155.338 55,-144.526 55,-137.075"/>
<polygon fill="midnightblue" stroke="midnightblue" points="51.5001,-164.753 55,-174.753 58.5001,-164.753 51.5001,-164.753"/>
</g>
</g>
</svg>
