<?xml version="1.0" encoding="UTF-8" standalone="no"?>
<!DOCTYPE svg PUBLIC "-//W3C//DTD SVG 1.1//EN"
 "http://www.w3.org/Graphics/SVG/1.1/DTD/svg11.dtd">
<!-- Generated by graphviz version 2.30.1 (20140712.1814)
 -->
<!-- Title: cinder::app::AppImplMsw Pages: 1 -->
<svg width="337pt" height="100pt"
 viewBox="0.00 0.00 337.00 100.00" xmlns="http://www.w3.org/2000/svg" xmlns:xlink="http://www.w3.org/1999/xlink">
<g id="graph0" class="graph" transform="scale(1 1) rotate(0) translate(4 96)">
<title>cinder::app::AppImplMsw</title>
<polygon fill="white" stroke="white" points="-4,5 -4,-96 334,-96 334,5 -4,5"/>
<!-- Node1 -->
<g id="node1" class="node"><title>Node1</title>
<polygon fill="#bfbfbf" stroke="black" points="98.8647,-71 98.8647,-91 227.135,-91 227.135,-71 98.8647,-71"/>
<text text-anchor="middle" x="163" y="-77" font-family="Helvetica,sans-Serif" font-size="10.00">cinder::app::AppImplMsw</text>
</g>
<!-- Node2 -->
<g id="node2" class="node"><title>Node2</title>
<g id="a_node2"><a xlink:href="classcinder_1_1app_1_1_app_impl_msw_basic.html" target="_top" xlink:title="cinder::app::AppImplMswBasic">
<polygon fill="white" stroke="black" points="-0.361816,-7 -0.361816,-27 152.362,-27 152.362,-7 -0.361816,-7"/>
<text text-anchor="middle" x="76" y="-13" font-family="Helvetica,sans-Serif" font-size="10.00">cinder::app::AppImplMswBasic</text>
</a>
</g>
</g>
<!-- Node1&#45;&gt;Node2 -->
<g id="edge1" class="edge"><title>Node1&#45;&gt;Node2</title>
<path fill="none" stroke="midnightblue" d="M141.672,-64.8004C125.145,-53.0226 102.79,-37.0916 88.8898,-27.1858"/>
<polygon fill="midnightblue" stroke="midnightblue" points="139.988,-67.8984 150.163,-70.8517 144.05,-62.1978 139.988,-67.8984"/>
</g>
<!-- Node3 -->
<g id="node3" class="node"><title>Node3</title>
<g id="a_node3"><a xlink:href="classcinder_1_1app_1_1_app_impl_msw_screen_saver.html" target="_top" xlink:title="cinder::app::AppImplMswScreen\lSaver">
<polygon fill="white" stroke="black" points="170.022,-1 170.022,-33 329.978,-33 329.978,-1 170.022,-1"/>
<text text-anchor="start" x="178.022" y="-19" font-family="Helvetica,sans-Serif" font-size="10.00">cinder::app::AppImplMswScreen</text>
<text text-anchor="middle" x="250" y="-7" font-family="Helvetica,sans-Serif" font-size="10.00">Saver</text>
</a>
</g>
</g>
<!-- Node1&#45;&gt;Node3 -->
<g id="edge2" class="edge"><title>Node1&#45;&gt;Node3</title>
<path fill="none" stroke="midnightblue" d="M184.068,-64.9862C197.592,-55.3485 215.098,-42.8729 228.672,-33.1992"/>
<polygon fill="midnightblue" stroke="midnightblue" points="181.95,-62.1978 175.837,-70.8517 186.012,-67.8984 181.95,-62.1978"/>
</g>
</g>
</svg>
