<?xml version="1.0" encoding="UTF-8" standalone="no"?>
<!DOCTYPE svg PUBLIC "-//W3C//DTD SVG 1.1//EN"
 "http://www.w3.org/Graphics/SVG/1.1/DTD/svg11.dtd">
<!-- Generated by graphviz version 2.30.1 (20140712.1814)
 -->
<!-- Title: cinder::DataSource Pages: 1 -->
<svg width="408pt" height="88pt"
 viewBox="0.00 0.00 408.00 88.00" xmlns="http://www.w3.org/2000/svg" xmlns:xlink="http://www.w3.org/1999/xlink">
<g id="graph0" class="graph" transform="scale(1 1) rotate(0) translate(4 84)">
<title>cinder::DataSource</title>
<polygon fill="white" stroke="white" points="-4,5 -4,-84 405,-84 405,5 -4,5"/>
<!-- Node1 -->
<g id="node1" class="node"><title>Node1</title>
<polygon fill="#bfbfbf" stroke="black" points="156.2,-59 156.2,-79 257.8,-79 257.8,-59 156.2,-59"/>
<text text-anchor="middle" x="207" y="-65" font-family="Helvetica,sans-Serif" font-size="10.00">cinder::DataSource</text>
</g>
<!-- Node2 -->
<g id="node2" class="node"><title>Node2</title>
<g id="a_node2"><a xlink:href="classcinder_1_1_data_source_buffer.html" target="_top" xlink:title="cinder::DataSourceBuffer">
<polygon fill="white" stroke="black" points="-0.0522461,-1 -0.0522461,-21 128.052,-21 128.052,-1 -0.0522461,-1"/>
<text text-anchor="middle" x="64" y="-7" font-family="Helvetica,sans-Serif" font-size="10.00">cinder::DataSourceBuffer</text>
</a>
</g>
</g>
<!-- Node1&#45;&gt;Node2 -->
<g id="edge1" class="edge"><title>Node1&#45;&gt;Node2</title>
<path fill="none" stroke="midnightblue" d="M174.077,-55.1069C147.531,-44.7114 110.859,-30.3505 87.2837,-21.1181"/>
<polygon fill="midnightblue" stroke="midnightblue" points="173.119,-58.4905 183.706,-58.878 175.671,-51.9725 173.119,-58.4905"/>
</g>
<!-- Node3 -->
<g id="node3" class="node"><title>Node3</title>
<g id="a_node3"><a xlink:href="classcinder_1_1_data_source_path.html" target="_top" xlink:title="cinder::DataSourcePath">
<polygon fill="white" stroke="black" points="145.914,-1 145.914,-21 268.086,-21 268.086,-1 145.914,-1"/>
<text text-anchor="middle" x="207" y="-7" font-family="Helvetica,sans-Serif" font-size="10.00">cinder::DataSourcePath</text>
</a>
</g>
</g>
<!-- Node1&#45;&gt;Node3 -->
<g id="edge2" class="edge"><title>Node1&#45;&gt;Node3</title>
<path fill="none" stroke="midnightblue" d="M207,-48.7065C207,-39.3384 207,-28.5262 207,-21.0752"/>
<polygon fill="midnightblue" stroke="midnightblue" points="203.5,-48.7527 207,-58.7527 210.5,-48.7528 203.5,-48.7527"/>
</g>
<!-- Node4 -->
<g id="node4" class="node"><title>Node4</title>
<g id="a_node4"><a xlink:href="classcinder_1_1_data_source_url.html" target="_top" xlink:title="cinder::DataSourceUrl">
<polygon fill="white" stroke="black" points="285.813,-1 285.813,-21 400.187,-21 400.187,-1 285.813,-1"/>
<text text-anchor="middle" x="343" y="-7" font-family="Helvetica,sans-Serif" font-size="10.00">cinder::DataSourceUrl</text>
</a>
</g>
</g>
<!-- Node1&#45;&gt;Node4 -->
<g id="edge3" class="edge"><title>Node1&#45;&gt;Node4</title>
<path fill="none" stroke="midnightblue" d="M238.646,-54.9693C263.865,-44.585 298.533,-30.3099 320.856,-21.1181"/>
<polygon fill="midnightblue" stroke="midnightblue" points="237.068,-51.8341 229.153,-58.878 239.733,-58.3068 237.068,-51.8341"/>
</g>
</g>
</svg>
