<?xml version="1.0" encoding="UTF-8" standalone="no"?>
<!DOCTYPE svg PUBLIC "-//W3C//DTD SVG 1.1//EN"
 "http://www.w3.org/Graphics/SVG/1.1/DTD/svg11.dtd">
<!-- Generated by graphviz version 2.30.1 (20140712.1814)
 -->
<!-- Title: cinder::OStreamFile Pages: 1 -->
<svg width="112pt" height="204pt"
 viewBox="0.00 0.00 112.00 204.00" xmlns="http://www.w3.org/2000/svg" xmlns:xlink="http://www.w3.org/1999/xlink">
<g id="graph0" class="graph" transform="scale(1 1) rotate(0) translate(4 200)">
<title>cinder::OStreamFile</title>
<polygon fill="white" stroke="white" points="-4,5 -4,-200 109,-200 109,5 -4,5"/>
<!-- Node1 -->
<g id="node1" class="node"><title>Node1</title>
<polygon fill="#bfbfbf" stroke="black" points="-0.458008,-1 -0.458008,-21 104.458,-21 104.458,-1 -0.458008,-1"/>
<text text-anchor="middle" x="52" y="-7" font-family="Helvetica,sans-Serif" font-size="10.00">cinder::OStreamFile</text>
</g>
<!-- Node2 -->
<g id="node2" class="node"><title>Node2</title>
<g id="a_node2"><a xlink:href="classcinder_1_1_o_stream.html" target="_top" xlink:title="cinder::OStream">
<polygon fill="white" stroke="black" points="7.59863,-59 7.59863,-79 96.4014,-79 96.4014,-59 7.59863,-59"/>
<text text-anchor="middle" x="52" y="-65" font-family="Helvetica,sans-Serif" font-size="10.00">cinder::OStream</text>
</a>
</g>
</g>
<!-- Node2&#45;&gt;Node1 -->
<g id="edge1" class="edge"><title>Node2&#45;&gt;Node1</title>
<path fill="none" stroke="midnightblue" d="M52,-48.7065C52,-39.3384 52,-28.5262 52,-21.0752"/>
<polygon fill="midnightblue" stroke="midnightblue" points="48.5001,-48.7527 52,-58.7527 55.5001,-48.7528 48.5001,-48.7527"/>
</g>
<!-- Node3 -->
<g id="node3" class="node"><title>Node3</title>
<g id="a_node3"><a xlink:href="classcinder_1_1_stream_base.html" target="_top" xlink:title="cinder::StreamBase">
<polygon fill="white" stroke="black" points="0.0913086,-117 0.0913086,-137 103.909,-137 103.909,-117 0.0913086,-117"/>
<text text-anchor="middle" x="52" y="-123" font-family="Helvetica,sans-Serif" font-size="10.00">cinder::StreamBase</text>
</a>
</g>
</g>
<!-- Node3&#45;&gt;Node2 -->
<g id="edge2" class="edge"><title>Node3&#45;&gt;Node2</title>
<path fill="none" stroke="midnightblue" d="M52,-106.707C52,-97.3384 52,-86.5262 52,-79.0752"/>
<polygon fill="midnightblue" stroke="midnightblue" points="48.5001,-106.753 52,-116.753 55.5001,-106.753 48.5001,-106.753"/>
</g>
<!-- Node4 -->
<g id="node4" class="node"><title>Node4</title>
<polygon fill="white" stroke="#bfbfbf" points="15.6431,-175 15.6431,-195 88.3569,-195 88.3569,-175 15.6431,-175"/>
<text text-anchor="middle" x="52" y="-181" font-family="Helvetica,sans-Serif" font-size="10.00">noncopyable</text>
</g>
<!-- Node4&#45;&gt;Node3 -->
<g id="edge3" class="edge"><title>Node4&#45;&gt;Node3</title>
<path fill="none" stroke="#8b1a1a" d="M52,-164.707C52,-155.338 52,-144.526 52,-137.075"/>
<polygon fill="#8b1a1a" stroke="#8b1a1a" points="48.5001,-164.753 52,-174.753 55.5001,-164.753 48.5001,-164.753"/>
</g>
</g>
</svg>
