<?xml version="1.0" encoding="UTF-8" standalone="no"?>
<!DOCTYPE svg PUBLIC "-//W3C//DTD SVG 1.1//EN"
 "http://www.w3.org/Graphics/SVG/1.1/DTD/svg11.dtd">
<!-- Generated by graphviz version 2.30.1 (20140712.1814)
 -->
<!-- Title: cinder::XmlTree::ExcUnknownNodeType Pages: 1 -->
<svg width="158pt" height="158pt"
 viewBox="0.00 0.00 158.00 158.00" xmlns="http://www.w3.org/2000/svg" xmlns:xlink="http://www.w3.org/1999/xlink">
<g id="graph0" class="graph" transform="scale(1 1) rotate(0) translate(4 154)">
<title>cinder::XmlTree::ExcUnknownNodeType</title>
<polygon fill="white" stroke="white" points="-4,5 -4,-154 155,-154 155,5 -4,5"/>
<!-- Node1 -->
<g id="node1" class="node"><title>Node1</title>
<polygon fill="#bfbfbf" stroke="black" points="-0.0629883,-1 -0.0629883,-33 150.063,-33 150.063,-1 -0.0629883,-1"/>
<text text-anchor="start" x="7.93701" y="-19" font-family="Helvetica,sans-Serif" font-size="10.00">cinder::XmlTree::ExcUnknown</text>
<text text-anchor="middle" x="75" y="-7" font-family="Helvetica,sans-Serif" font-size="10.00">NodeType</text>
</g>
<!-- Node2 -->
<g id="node2" class="node"><title>Node2</title>
<g id="a_node2"><a xlink:href="classcinder_1_1_exception.html" target="_top" xlink:title="cinder::Exception">
<polygon fill="white" stroke="black" points="28.6455,-71 28.6455,-91 121.354,-91 121.354,-71 28.6455,-71"/>
<text text-anchor="middle" x="75" y="-77" font-family="Helvetica,sans-Serif" font-size="10.00">cinder::Exception</text>
</a>
</g>
</g>
<!-- Node2&#45;&gt;Node1 -->
<g id="edge1" class="edge"><title>Node2&#45;&gt;Node1</title>
<path fill="none" stroke="midnightblue" d="M75,-60.7747C75,-51.9863 75,-41.715 75,-33.4404"/>
<polygon fill="midnightblue" stroke="midnightblue" points="71.5001,-60.8517 75,-70.8517 78.5001,-60.8517 71.5001,-60.8517"/>
</g>
<!-- Node3 -->
<g id="node3" class="node"><title>Node3</title>
<polygon fill="white" stroke="#bfbfbf" points="45.5962,-129 45.5962,-149 104.404,-149 104.404,-129 45.5962,-129"/>
<text text-anchor="middle" x="75" y="-135" font-family="Helvetica,sans-Serif" font-size="10.00">exception</text>
</g>
<!-- Node3&#45;&gt;Node2 -->
<g id="edge2" class="edge"><title>Node3&#45;&gt;Node2</title>
<path fill="none" stroke="midnightblue" d="M75,-118.707C75,-109.338 75,-98.5262 75,-91.0752"/>
<polygon fill="midnightblue" stroke="midnightblue" points="71.5001,-118.753 75,-128.753 78.5001,-118.753 71.5001,-118.753"/>
</g>
</g>
</svg>
