<?xml version="1.0" encoding="UTF-8" standalone="no"?>
<!DOCTYPE svg PUBLIC "-//W3C//DTD SVG 1.1//EN"
 "http://www.w3.org/Graphics/SVG/1.1/DTD/svg11.dtd">
<!-- Generated by graphviz version 2.30.1 (20140712.1814)
 -->
<!-- Title: cinder::IoStreamFile Pages: 1 -->
<svg width="227pt" height="262pt"
 viewBox="0.00 0.00 227.00 262.00" xmlns="http://www.w3.org/2000/svg" xmlns:xlink="http://www.w3.org/1999/xlink">
<g id="graph0" class="graph" transform="scale(1 1) rotate(0) translate(4 258)">
<title>cinder::IoStreamFile</title>
<polygon fill="white" stroke="white" points="-4,5 -4,-258 224,-258 224,5 -4,5"/>
<!-- Node1 -->
<g id="node1" class="node"><title>Node1</title>
<polygon fill="#bfbfbf" stroke="black" points="62.2612,-1 62.2612,-21 167.739,-21 167.739,-1 62.2612,-1"/>
<text text-anchor="middle" x="115" y="-7" font-family="Helvetica,sans-Serif" font-size="10.00">cinder::IoStreamFile</text>
</g>
<!-- Node2 -->
<g id="node2" class="node"><title>Node2</title>
<g id="a_node2"><a xlink:href="classcinder_1_1_io_stream.html" target="_top" xlink:title="cinder::IoStream">
<polygon fill="white" stroke="black" points="70.3179,-59 70.3179,-79 159.682,-79 159.682,-59 70.3179,-59"/>
<text text-anchor="middle" x="115" y="-65" font-family="Helvetica,sans-Serif" font-size="10.00">cinder::IoStream</text>
</a>
</g>
</g>
<!-- Node2&#45;&gt;Node1 -->
<g id="edge1" class="edge"><title>Node2&#45;&gt;Node1</title>
<path fill="none" stroke="midnightblue" d="M115,-48.7065C115,-39.3384 115,-28.5262 115,-21.0752"/>
<polygon fill="midnightblue" stroke="midnightblue" points="111.5,-48.7527 115,-58.7527 118.5,-48.7528 111.5,-48.7527"/>
</g>
<!-- Node3 -->
<g id="node3" class="node"><title>Node3</title>
<g id="a_node3"><a xlink:href="classcinder_1_1_i_stream_cinder.html" target="_top" xlink:title="cinder::IStreamCinder">
<polygon fill="white" stroke="black" points="-0.630371,-117 -0.630371,-137 112.63,-137 112.63,-117 -0.630371,-117"/>
<text text-anchor="middle" x="56" y="-123" font-family="Helvetica,sans-Serif" font-size="10.00">cinder::IStreamCinder</text>
</a>
</g>
</g>
<!-- Node3&#45;&gt;Node2 -->
<g id="edge2" class="edge"><title>Node3&#45;&gt;Node2</title>
<path fill="none" stroke="midnightblue" d="M73.169,-109.704C83.6788,-99.7286 96.7351,-87.3361 105.439,-79.0752"/>
<polygon fill="midnightblue" stroke="midnightblue" points="70.5862,-107.33 65.7427,-116.753 75.4052,-112.407 70.5862,-107.33"/>
</g>
<!-- Node4 -->
<g id="node4" class="node"><title>Node4</title>
<g id="a_node4"><a xlink:href="classcinder_1_1_stream_base.html" target="_top" xlink:title="cinder::StreamBase">
<polygon fill="white" stroke="black" points="63.0913,-175 63.0913,-195 166.909,-195 166.909,-175 63.0913,-175"/>
<text text-anchor="middle" x="115" y="-181" font-family="Helvetica,sans-Serif" font-size="10.00">cinder::StreamBase</text>
</a>
</g>
</g>
<!-- Node4&#45;&gt;Node3 -->
<g id="edge3" class="edge"><title>Node4&#45;&gt;Node3</title>
<path fill="none" stroke="midnightblue" d="M97.831,-167.704C87.3212,-157.729 74.2649,-145.336 65.5614,-137.075"/>
<polygon fill="midnightblue" stroke="midnightblue" points="95.5948,-170.407 105.257,-174.753 100.414,-165.33 95.5948,-170.407"/>
</g>
<!-- Node6 -->
<g id="node6" class="node"><title>Node6</title>
<g id="a_node6"><a xlink:href="classcinder_1_1_o_stream.html" target="_top" xlink:title="cinder::OStream">
<polygon fill="white" stroke="black" points="130.599,-117 130.599,-137 219.401,-137 219.401,-117 130.599,-117"/>
<text text-anchor="middle" x="175" y="-123" font-family="Helvetica,sans-Serif" font-size="10.00">cinder::OStream</text>
</a>
</g>
</g>
<!-- Node4&#45;&gt;Node6 -->
<g id="edge6" class="edge"><title>Node4&#45;&gt;Node6</title>
<path fill="none" stroke="midnightblue" d="M132.46,-167.704C143.148,-157.729 156.426,-145.336 165.277,-137.075"/>
<polygon fill="midnightblue" stroke="midnightblue" points="129.83,-165.371 124.908,-174.753 134.606,-170.488 129.83,-165.371"/>
</g>
<!-- Node5 -->
<g id="node5" class="node"><title>Node5</title>
<polygon fill="white" stroke="#bfbfbf" points="78.6431,-233 78.6431,-253 151.357,-253 151.357,-233 78.6431,-233"/>
<text text-anchor="middle" x="115" y="-239" font-family="Helvetica,sans-Serif" font-size="10.00">noncopyable</text>
</g>
<!-- Node5&#45;&gt;Node4 -->
<g id="edge4" class="edge"><title>Node5&#45;&gt;Node4</title>
<path fill="none" stroke="#8b1a1a" d="M115,-222.707C115,-213.338 115,-202.526 115,-195.075"/>
<polygon fill="#8b1a1a" stroke="#8b1a1a" points="111.5,-222.753 115,-232.753 118.5,-222.753 111.5,-222.753"/>
</g>
<!-- Node6&#45;&gt;Node2 -->
<g id="edge5" class="edge"><title>Node6&#45;&gt;Node2</title>
<path fill="none" stroke="midnightblue" d="M157.54,-109.704C146.852,-99.7286 133.574,-87.3361 124.723,-79.0752"/>
<polygon fill="midnightblue" stroke="midnightblue" points="155.394,-112.488 165.092,-116.753 160.17,-107.371 155.394,-112.488"/>
</g>
</g>
</svg>
