<?xml version="1.0" encoding="UTF-8" standalone="no"?>
<!DOCTYPE svg PUBLIC "-//W3C//DTD SVG 1.1//EN"
 "http://www.w3.org/Graphics/SVG/1.1/DTD/svg11.dtd">
<!-- Generated by graphviz version 2.30.1 (20140712.1814)
 -->
<!-- Title: cinder::TweenRef&lt; T &gt; Pages: 1 -->
<svg width="136pt" height="158pt"
 viewBox="0.00 0.00 136.00 158.00" xmlns="http://www.w3.org/2000/svg" xmlns:xlink="http://www.w3.org/1999/xlink">
<g id="graph0" class="graph" transform="scale(1 1) rotate(0) translate(4 154)">
<title>cinder::TweenRef&lt; T &gt;</title>
<polygon fill="white" stroke="white" points="-4,5 -4,-154 133,-154 133,5 -4,5"/>
<!-- Node1 -->
<g id="node1" class="node"><title>Node1</title>
<polygon fill="#bfbfbf" stroke="black" points="5.59229,-59 5.59229,-79 122.408,-79 122.408,-59 5.59229,-59"/>
<text text-anchor="middle" x="64" y="-65" font-family="Helvetica,sans-Serif" font-size="10.00">cinder::TweenRef&lt; T &gt;</text>
</g>
<!-- Node3 -->
<g id="node3" class="node"><title>Node3</title>
<g id="a_node3"><a xlink:href="classcinder_1_1_fn_tween_ref.html" target="_top" xlink:title="cinder::FnTweenRef\&lt; T \&gt;">
<polygon fill="white" stroke="black" points="-0.242676,-1 -0.242676,-21 128.243,-21 128.243,-1 -0.242676,-1"/>
<text text-anchor="middle" x="64" y="-7" font-family="Helvetica,sans-Serif" font-size="10.00">cinder::FnTweenRef&lt; T &gt;</text>
</a>
</g>
</g>
<!-- Node1&#45;&gt;Node3 -->
<g id="edge2" class="edge"><title>Node1&#45;&gt;Node3</title>
<path fill="none" stroke="midnightblue" d="M64,-48.7065C64,-39.3384 64,-28.5262 64,-21.0752"/>
<polygon fill="midnightblue" stroke="midnightblue" points="60.5001,-48.7527 64,-58.7527 67.5001,-48.7528 60.5001,-48.7527"/>
</g>
<!-- Node2 -->
<g id="node2" class="node"><title>Node2</title>
<polygon fill="white" stroke="#bfbfbf" points="3.69287,-117 3.69287,-149 124.307,-149 124.307,-117 3.69287,-117"/>
<text text-anchor="start" x="11.6929" y="-135" font-family="Helvetica,sans-Serif" font-size="10.00">std::shared_ptr&lt; Tween</text>
<text text-anchor="middle" x="64" y="-123" font-family="Helvetica,sans-Serif" font-size="10.00">&lt; T &gt; &gt;</text>
</g>
<!-- Node2&#45;&gt;Node1 -->
<g id="edge1" class="edge"><title>Node2&#45;&gt;Node1</title>
<path fill="none" stroke="midnightblue" d="M64,-106.922C64,-97.1719 64,-86.6099 64,-79.2904"/>
<polygon fill="midnightblue" stroke="midnightblue" points="60.5001,-106.991 64,-116.992 67.5001,-106.992 60.5001,-106.991"/>
</g>
</g>
</svg>
