<?xml version="1.0" encoding="UTF-8" standalone="no"?>
<!DOCTYPE svg PUBLIC "-//W3C//DTD SVG 1.1//EN"
 "http://www.w3.org/Graphics/SVG/1.1/DTD/svg11.dtd">
<!-- Generated by graphviz version 2.30.1 (20140712.1814)
 -->
<!-- Title: cinder::svg::ExcChildNotFound Pages: 1 -->
<svg width="132pt" height="216pt"
 viewBox="0.00 0.00 132.00 216.00" xmlns="http://www.w3.org/2000/svg" xmlns:xlink="http://www.w3.org/1999/xlink">
<g id="graph0" class="graph" transform="scale(1 1) rotate(0) translate(4 212)">
<title>cinder::svg::ExcChildNotFound</title>
<polygon fill="white" stroke="white" points="-4,5 -4,-212 129,-212 129,5 -4,5"/>
<!-- Node1 -->
<g id="node1" class="node"><title>Node1</title>
<polygon fill="#bfbfbf" stroke="black" points="-0.465332,-1 -0.465332,-33 124.465,-33 124.465,-1 -0.465332,-1"/>
<text text-anchor="start" x="7.53467" y="-19" font-family="Helvetica,sans-Serif" font-size="10.00">cinder::svg::ExcChildNot</text>
<text text-anchor="middle" x="62" y="-7" font-family="Helvetica,sans-Serif" font-size="10.00">Found</text>
</g>
<!-- Node2 -->
<g id="node2" class="node"><title>Node2</title>
<g id="a_node2"><a xlink:href="classcinder_1_1svg_1_1_exc.html" target="_top" xlink:title="SVG Exception base&#45;class. ">
<polygon fill="white" stroke="black" points="18.7095,-71 18.7095,-91 105.291,-91 105.291,-71 18.7095,-71"/>
<text text-anchor="middle" x="62" y="-77" font-family="Helvetica,sans-Serif" font-size="10.00">cinder::svg::Exc</text>
</a>
</g>
</g>
<!-- Node2&#45;&gt;Node1 -->
<g id="edge1" class="edge"><title>Node2&#45;&gt;Node1</title>
<path fill="none" stroke="midnightblue" d="M62,-60.7747C62,-51.9863 62,-41.715 62,-33.4404"/>
<polygon fill="midnightblue" stroke="midnightblue" points="58.5001,-60.8517 62,-70.8517 65.5001,-60.8517 58.5001,-60.8517"/>
</g>
<!-- Node3 -->
<g id="node3" class="node"><title>Node3</title>
<g id="a_node3"><a xlink:href="classcinder_1_1_exception.html" target="_top" xlink:title="cinder::Exception">
<polygon fill="white" stroke="black" points="15.6455,-129 15.6455,-149 108.354,-149 108.354,-129 15.6455,-129"/>
<text text-anchor="middle" x="62" y="-135" font-family="Helvetica,sans-Serif" font-size="10.00">cinder::Exception</text>
</a>
</g>
</g>
<!-- Node3&#45;&gt;Node2 -->
<g id="edge2" class="edge"><title>Node3&#45;&gt;Node2</title>
<path fill="none" stroke="midnightblue" d="M62,-118.707C62,-109.338 62,-98.5262 62,-91.0752"/>
<polygon fill="midnightblue" stroke="midnightblue" points="58.5001,-118.753 62,-128.753 65.5001,-118.753 58.5001,-118.753"/>
</g>
<!-- Node4 -->
<g id="node4" class="node"><title>Node4</title>
<polygon fill="white" stroke="#bfbfbf" points="32.5962,-187 32.5962,-207 91.4038,-207 91.4038,-187 32.5962,-187"/>
<text text-anchor="middle" x="62" y="-193" font-family="Helvetica,sans-Serif" font-size="10.00">exception</text>
</g>
<!-- Node4&#45;&gt;Node3 -->
<g id="edge3" class="edge"><title>Node4&#45;&gt;Node3</title>
<path fill="none" stroke="midnightblue" d="M62,-176.707C62,-167.338 62,-156.526 62,-149.075"/>
<polygon fill="midnightblue" stroke="midnightblue" points="58.5001,-176.753 62,-186.753 65.5001,-176.753 58.5001,-176.753"/>
</g>
</g>
</svg>
