<?xml version="1.0" encoding="UTF-8" standalone="no"?>
<!DOCTYPE svg PUBLIC "-//W3C//DTD SVG 1.1//EN"
 "http://www.w3.org/Graphics/SVG/1.1/DTD/svg11.dtd">
<!-- Generated by graphviz version 2.30.1 (20140712.1814)
 -->
<!-- Title: cinder::audio::Voice Pages: 1 -->
<svg width="303pt" height="100pt"
 viewBox="0.00 0.00 303.00 100.00" xmlns="http://www.w3.org/2000/svg" xmlns:xlink="http://www.w3.org/1999/xlink">
<g id="graph0" class="graph" transform="scale(1 1) rotate(0) translate(4 96)">
<title>cinder::audio::Voice</title>
<polygon fill="white" stroke="white" points="-4,5 -4,-96 300,-96 300,5 -4,5"/>
<!-- Node1 -->
<g id="node1" class="node"><title>Node1</title>
<polygon fill="#bfbfbf" stroke="black" points="96.3574,-71 96.3574,-91 199.643,-91 199.643,-71 96.3574,-71"/>
<text text-anchor="middle" x="148" y="-77" font-family="Helvetica,sans-Serif" font-size="10.00">cinder::audio::Voice</text>
</g>
<!-- Node2 -->
<g id="node2" class="node"><title>Node2</title>
<g id="a_node2"><a xlink:href="classcinder_1_1audio_1_1_voice_callback_processor.html" target="_top" xlink:title="Concrete Voice for processing audio with a callback function. ">
<polygon fill="white" stroke="black" points="-0.817383,-1 -0.817383,-33 140.817,-33 140.817,-1 -0.817383,-1"/>
<text text-anchor="start" x="7.18262" y="-19" font-family="Helvetica,sans-Serif" font-size="10.00">cinder::audio::VoiceCallback</text>
<text text-anchor="middle" x="70" y="-7" font-family="Helvetica,sans-Serif" font-size="10.00">Processor</text>
</a>
</g>
</g>
<!-- Node1&#45;&gt;Node2 -->
<g id="edge1" class="edge"><title>Node1&#45;&gt;Node2</title>
<path fill="none" stroke="midnightblue" d="M128.415,-64.4324C116.39,-54.8743 101.06,-42.6886 89.1215,-33.1992"/>
<polygon fill="midnightblue" stroke="midnightblue" points="126.485,-67.3691 136.491,-70.8517 130.84,-61.8893 126.485,-67.3691"/>
</g>
<!-- Node3 -->
<g id="node3" class="node"><title>Node3</title>
<g id="a_node3"><a xlink:href="classcinder_1_1audio_1_1_voice_sample_player_node.html" target="_top" xlink:title="Concrete Voice for sample playback. ">
<polygon fill="white" stroke="black" points="158.404,-1 158.404,-33 295.596,-33 295.596,-1 158.404,-1"/>
<text text-anchor="start" x="166.404" y="-19" font-family="Helvetica,sans-Serif" font-size="10.00">cinder::audio::VoiceSample</text>
<text text-anchor="middle" x="227" y="-7" font-family="Helvetica,sans-Serif" font-size="10.00">PlayerNode</text>
</a>
</g>
</g>
<!-- Node1&#45;&gt;Node3 -->
<g id="edge2" class="edge"><title>Node1&#45;&gt;Node3</title>
<path fill="none" stroke="midnightblue" d="M167.836,-64.4324C180.015,-54.8743 195.542,-42.6886 207.633,-33.1992"/>
<polygon fill="midnightblue" stroke="midnightblue" points="165.363,-61.9245 159.657,-70.8517 169.684,-67.4312 165.363,-61.9245"/>
</g>
</g>
</svg>
