<?xml version="1.0" encoding="UTF-8" standalone="no"?>
<!DOCTYPE svg PUBLIC "-//W3C//DTD SVG 1.1//EN"
 "http://www.w3.org/Graphics/SVG/1.1/DTD/svg11.dtd">
<!-- Generated by graphviz version 2.30.1 (20140712.1814)
 -->
<!-- Title: cinder::svg::Node Pages: 1 -->
<svg width="424pt" height="496pt"
 viewBox="0.00 0.00 424.00 496.00" xmlns="http://www.w3.org/2000/svg" xmlns:xlink="http://www.w3.org/1999/xlink">
<g id="graph0" class="graph" transform="scale(1 1) rotate(0) translate(4 492)">
<title>cinder::svg::Node</title>
<polygon fill="white" stroke="white" points="-4,5 -4,-492 421,-492 421,5 -4,5"/>
<!-- Node1 -->
<g id="node1" class="node"><title>Node1</title>
<polygon fill="#bfbfbf" stroke="black" points="0.0913086,-234 0.0913086,-254 93.9087,-254 93.9087,-234 0.0913086,-234"/>
<text text-anchor="middle" x="47" y="-240" font-family="Helvetica,sans-Serif" font-size="10.00">cinder::svg::Node</text>
</g>
<!-- Node2 -->
<g id="node2" class="node"><title>Node2</title>
<g id="a_node2"><a xlink:href="classcinder_1_1svg_1_1_circle.html" target="_top" xlink:title="SVG Circle element: http://www.w3.org/TR/SVG/shapes.html#CircleElement. ">
<polygon fill="white" stroke="black" points="138.266,-468 138.266,-488 233.734,-488 233.734,-468 138.266,-468"/>
<text text-anchor="middle" x="186" y="-474" font-family="Helvetica,sans-Serif" font-size="10.00">cinder::svg::Circle</text>
</a>
</g>
</g>
<!-- Node1&#45;&gt;Node2 -->
<g id="edge1" class="edge"><title>Node1&#45;&gt;Node2</title>
<path fill="none" stroke="midnightblue" d="M50.1567,-264.142C55.6873,-306.003 74.1197,-403.07 130,-458 134.13,-462.06 139.148,-465.303 144.453,-467.893"/>
<polygon fill="midnightblue" stroke="midnightblue" points="53.6171,-263.602 48.942,-254.095 46.6677,-264.443 53.6171,-263.602"/>
</g>
<!-- Node3 -->
<g id="node3" class="node"><title>Node3</title>
<g id="a_node3"><a xlink:href="classcinder_1_1svg_1_1_ellipse.html" target="_top" xlink:title="SVG Ellipse element: http://www.w3.org/TR/SVG/shapes.html#EllipseElement. ">
<polygon fill="white" stroke="black" points="136.315,-429 136.315,-449 235.685,-449 235.685,-429 136.315,-429"/>
<text text-anchor="middle" x="186" y="-435" font-family="Helvetica,sans-Serif" font-size="10.00">cinder::svg::Ellipse</text>
</a>
</g>
</g>
<!-- Node1&#45;&gt;Node3 -->
<g id="edge2" class="edge"><title>Node1&#45;&gt;Node3</title>
<path fill="none" stroke="midnightblue" d="M52.118,-264.142C60.4989,-300.173 82.8759,-375.912 130,-419 134.424,-423.045 139.73,-426.288 145.277,-428.884"/>
<polygon fill="midnightblue" stroke="midnightblue" points="55.5228,-263.329 49.9545,-254.315 48.6865,-264.834 55.5228,-263.329"/>
</g>
<!-- Node4 -->
<g id="node4" class="node"><title>Node4</title>
<g id="a_node4"><a xlink:href="classcinder_1_1svg_1_1_gradient.html" target="_top" xlink:title="Base class for SVG Gradients. See SVG Gradients: http://www.w3.org/TR/SVG/pservers.html#Gradients. ">
<polygon fill="white" stroke="black" points="131.867,-390 131.867,-410 240.133,-410 240.133,-390 131.867,-390"/>
<text text-anchor="middle" x="186" y="-396" font-family="Helvetica,sans-Serif" font-size="10.00">cinder::svg::Gradient</text>
</a>
</g>
</g>
<!-- Node1&#45;&gt;Node4 -->
<g id="edge3" class="edge"><title>Node1&#45;&gt;Node4</title>
<path fill="none" stroke="midnightblue" d="M54.939,-263.681C66.2394,-293.019 91.3182,-348.172 130,-380 134.943,-384.067 140.784,-387.344 146.782,-389.972"/>
<polygon fill="midnightblue" stroke="midnightblue" points="58.1567,-262.291 51.3994,-254.131 51.5931,-264.724 58.1567,-262.291"/>
</g>
<!-- Node7 -->
<g id="node7" class="node"><title>Node7</title>
<g id="a_node7"><a xlink:href="classcinder_1_1svg_1_1_group.html" target="_top" xlink:title="Represents a group of SVG elements. http://www.w3.org/TR/SVG/struct.html#Groups. ">
<polygon fill="white" stroke="black" points="137.148,-351 137.148,-371 234.852,-371 234.852,-351 137.148,-351"/>
<text text-anchor="middle" x="186" y="-357" font-family="Helvetica,sans-Serif" font-size="10.00">cinder::svg::Group</text>
</a>
</g>
</g>
<!-- Node1&#45;&gt;Node7 -->
<g id="edge6" class="edge"><title>Node1&#45;&gt;Node7</title>
<path fill="none" stroke="midnightblue" d="M59.3847,-262.612C73.4887,-284.243 99.432,-319.686 130,-341 135.751,-345.01 142.397,-348.311 149.038,-350.994"/>
<polygon fill="midnightblue" stroke="midnightblue" points="62.2377,-260.575 53.9245,-254.007 56.3272,-264.326 62.2377,-260.575"/>
</g>
<!-- Node9 -->
<g id="node9" class="node"><title>Node9</title>
<g id="a_node9"><a xlink:href="classcinder_1_1svg_1_1_image.html" target="_top" xlink:title="SVG Image Element. Represents an unpremultiplied bitmap. http://www.w3.org/TR/SVG/struct.html#ImageElement. ">
<polygon fill="white" stroke="black" points="137.148,-312 137.148,-332 234.852,-332 234.852,-312 137.148,-312"/>
<text text-anchor="middle" x="186" y="-318" font-family="Helvetica,sans-Serif" font-size="10.00">cinder::svg::Image</text>
</a>
</g>
</g>
<!-- Node1&#45;&gt;Node9 -->
<g id="edge8" class="edge"><title>Node1&#45;&gt;Node9</title>
<path fill="none" stroke="midnightblue" d="M68.2041,-260.611C84.2268,-273.196 107.579,-290.265 130,-302 137.201,-305.769 145.273,-309.136 152.968,-311.983"/>
<polygon fill="midnightblue" stroke="midnightblue" points="70.1066,-257.651 60.1092,-254.144 65.7371,-263.12 70.1066,-257.651"/>
</g>
<!-- Node10 -->
<g id="node10" class="node"><title>Node10</title>
<g id="a_node10"><a xlink:href="classcinder_1_1svg_1_1_line.html" target="_top" xlink:title="SVG Line element: http://www.w3.org/TR/SVG/shapes.html#LineElement. ">
<polygon fill="white" stroke="black" points="141.591,-273 141.591,-293 230.409,-293 230.409,-273 141.591,-273"/>
<text text-anchor="middle" x="186" y="-279" font-family="Helvetica,sans-Serif" font-size="10.00">cinder::svg::Line</text>
</a>
</g>
</g>
<!-- Node1&#45;&gt;Node10 -->
<g id="edge9" class="edge"><title>Node1&#45;&gt;Node10</title>
<path fill="none" stroke="midnightblue" d="M92.9554,-256.798C111.435,-262.058 132.517,-268.06 149.839,-272.991"/>
<polygon fill="midnightblue" stroke="midnightblue" points="93.8571,-253.415 83.2809,-254.043 91.9405,-260.148 93.8571,-253.415"/>
</g>
<!-- Node11 -->
<g id="node11" class="node"><title>Node11</title>
<g id="a_node11"><a xlink:href="classcinder_1_1svg_1_1_path.html" target="_top" xlink:title="SVG Path element: http://www.w3.org/TR/SVG/paths.html#PathElement. ">
<polygon fill="white" stroke="black" points="140.759,-234 140.759,-254 231.241,-254 231.241,-234 140.759,-234"/>
<text text-anchor="middle" x="186" y="-240" font-family="Helvetica,sans-Serif" font-size="10.00">cinder::svg::Path</text>
</a>
</g>
</g>
<!-- Node1&#45;&gt;Node11 -->
<g id="edge10" class="edge"><title>Node1&#45;&gt;Node11</title>
<path fill="none" stroke="midnightblue" d="M104.096,-244C116.31,-244 129.068,-244 140.746,-244"/>
<polygon fill="midnightblue" stroke="midnightblue" points="104,-240.5 94.0001,-244 104,-247.5 104,-240.5"/>
</g>
<!-- Node12 -->
<g id="node12" class="node"><title>Node12</title>
<g id="a_node12"><a xlink:href="classcinder_1_1svg_1_1_polygon.html" target="_top" xlink:title="SVG Polygon Element: http://www.w3.org/TR/SVG/shapes.html#PolygonElement. ">
<polygon fill="white" stroke="black" points="132.976,-195 132.976,-215 239.024,-215 239.024,-195 132.976,-195"/>
<text text-anchor="middle" x="186" y="-201" font-family="Helvetica,sans-Serif" font-size="10.00">cinder::svg::Polygon</text>
</a>
</g>
</g>
<!-- Node1&#45;&gt;Node12 -->
<g id="edge11" class="edge"><title>Node1&#45;&gt;Node12</title>
<path fill="none" stroke="midnightblue" d="M92.9554,-231.202C111.435,-225.942 132.517,-219.94 149.839,-215.009"/>
<polygon fill="midnightblue" stroke="midnightblue" points="91.9405,-227.852 83.2809,-233.957 93.8571,-234.585 91.9405,-227.852"/>
</g>
<!-- Node13 -->
<g id="node13" class="node"><title>Node13</title>
<g id="a_node13"><a xlink:href="classcinder_1_1svg_1_1_polyline.html" target="_top" xlink:title="SVG Polyline Element: http://www.w3.org/TR/SVG/shapes.html#PolylineElement. ">
<polygon fill="white" stroke="black" points="133.535,-156 133.535,-176 238.465,-176 238.465,-156 133.535,-156"/>
<text text-anchor="middle" x="186" y="-162" font-family="Helvetica,sans-Serif" font-size="10.00">cinder::svg::Polyline</text>
</a>
</g>
</g>
<!-- Node1&#45;&gt;Node13 -->
<g id="edge12" class="edge"><title>Node1&#45;&gt;Node13</title>
<path fill="none" stroke="midnightblue" d="M68.2041,-227.389C84.2268,-214.804 107.579,-197.735 130,-186 137.201,-182.231 145.273,-178.864 152.968,-176.017"/>
<polygon fill="midnightblue" stroke="midnightblue" points="65.7371,-224.88 60.1092,-233.856 70.1066,-230.349 65.7371,-224.88"/>
</g>
<!-- Node14 -->
<g id="node14" class="node"><title>Node14</title>
<g id="a_node14"><a xlink:href="classcinder_1_1svg_1_1_rect.html" target="_top" xlink:title="SVG Rect element: http://www.w3.org/TR/SVG/shapes.html#RectElement. ">
<polygon fill="white" stroke="black" points="140.764,-117 140.764,-137 231.236,-137 231.236,-117 140.764,-117"/>
<text text-anchor="middle" x="186" y="-123" font-family="Helvetica,sans-Serif" font-size="10.00">cinder::svg::Rect</text>
</a>
</g>
</g>
<!-- Node1&#45;&gt;Node14 -->
<g id="edge13" class="edge"><title>Node1&#45;&gt;Node14</title>
<path fill="none" stroke="midnightblue" d="M59.3847,-225.388C73.4887,-203.757 99.432,-168.314 130,-147 135.751,-142.99 142.397,-139.689 149.038,-137.006"/>
<polygon fill="midnightblue" stroke="midnightblue" points="56.3272,-223.674 53.9245,-233.993 62.2377,-227.425 56.3272,-223.674"/>
</g>
<!-- Node15 -->
<g id="node15" class="node"><title>Node15</title>
<g id="a_node15"><a xlink:href="classcinder_1_1svg_1_1_text.html" target="_top" xlink:title="SVG Text element. http://www.w3.org/TR/SVG/text.html#TextElement. ">
<polygon fill="white" stroke="black" points="141.875,-78 141.875,-98 230.125,-98 230.125,-78 141.875,-78"/>
<text text-anchor="middle" x="186" y="-84" font-family="Helvetica,sans-Serif" font-size="10.00">cinder::svg::Text</text>
</a>
</g>
</g>
<!-- Node1&#45;&gt;Node15 -->
<g id="edge14" class="edge"><title>Node1&#45;&gt;Node15</title>
<path fill="none" stroke="midnightblue" d="M54.939,-224.319C66.2394,-194.981 91.3182,-139.828 130,-108 134.943,-103.933 140.784,-100.656 146.782,-98.0276"/>
<polygon fill="midnightblue" stroke="midnightblue" points="51.5931,-223.276 51.3994,-233.869 58.1567,-225.709 51.5931,-223.276"/>
</g>
<!-- Node16 -->
<g id="node16" class="node"><title>Node16</title>
<g id="a_node16"><a xlink:href="classcinder_1_1svg_1_1_text_span.html" target="_top" xlink:title="SVG tspan Element. Generally owned by a svg::Text Node. http://www.w3.org/TR/SVG/text.html#TSpanElement. ">
<polygon fill="white" stroke="black" points="130.197,-39 130.197,-59 241.803,-59 241.803,-39 130.197,-39"/>
<text text-anchor="middle" x="186" y="-45" font-family="Helvetica,sans-Serif" font-size="10.00">cinder::svg::TextSpan</text>
</a>
</g>
</g>
<!-- Node1&#45;&gt;Node16 -->
<g id="edge15" class="edge"><title>Node1&#45;&gt;Node16</title>
<path fill="none" stroke="midnightblue" d="M52.118,-223.858C60.4989,-187.827 82.8759,-112.088 130,-69 134.424,-64.9549 139.73,-61.712 145.277,-59.1164"/>
<polygon fill="midnightblue" stroke="midnightblue" points="48.6865,-223.166 49.9545,-233.685 55.5228,-224.671 48.6865,-223.166"/>
</g>
<!-- Node17 -->
<g id="node17" class="node"><title>Node17</title>
<g id="a_node17"><a xlink:href="classcinder_1_1svg_1_1_use.html" target="_top" xlink:title="SVG Use Element, which instantiates a different element: http://www.w3.org/TR/SVG/struct.html#UseElement. ">
<polygon fill="white" stroke="black" points="142.153,-0 142.153,-20 229.847,-20 229.847,-0 142.153,-0"/>
<text text-anchor="middle" x="186" y="-6" font-family="Helvetica,sans-Serif" font-size="10.00">cinder::svg::Use</text>
</a>
</g>
</g>
<!-- Node1&#45;&gt;Node17 -->
<g id="edge16" class="edge"><title>Node1&#45;&gt;Node17</title>
<path fill="none" stroke="midnightblue" d="M50.0563,-223.693C55.3971,-181.502 73.4909,-83.743 130,-29 133.773,-25.3449 138.283,-22.3907 143.074,-20.0035"/>
<polygon fill="midnightblue" stroke="midnightblue" points="46.5572,-223.486 48.8891,-233.821 53.5111,-224.287 46.5572,-223.486"/>
</g>
<!-- Node5 -->
<g id="node5" class="node"><title>Node5</title>
<g id="a_node5"><a xlink:href="classcinder_1_1svg_1_1_linear_gradient.html" target="_top" xlink:title="SVG Linear gradient. ">
<polygon fill="white" stroke="black" points="278.968,-429 278.968,-449 415.032,-449 415.032,-429 278.968,-429"/>
<text text-anchor="middle" x="347" y="-435" font-family="Helvetica,sans-Serif" font-size="10.00">cinder::svg::LinearGradient</text>
</a>
</g>
</g>
<!-- Node4&#45;&gt;Node5 -->
<g id="edge4" class="edge"><title>Node4&#45;&gt;Node5</title>
<path fill="none" stroke="midnightblue" d="M237.697,-412.435C259.492,-417.781 284.626,-423.946 305.192,-428.991"/>
<polygon fill="midnightblue" stroke="midnightblue" points="238.492,-409.027 227.946,-410.043 236.825,-415.825 238.492,-409.027"/>
</g>
<!-- Node6 -->
<g id="node6" class="node"><title>Node6</title>
<g id="a_node6"><a xlink:href="classcinder_1_1svg_1_1_radial_gradient.html" target="_top" xlink:title="SVG Radial gradient. ">
<polygon fill="white" stroke="black" points="278.692,-390 278.692,-410 415.308,-410 415.308,-390 278.692,-390"/>
<text text-anchor="middle" x="347" y="-396" font-family="Helvetica,sans-Serif" font-size="10.00">cinder::svg::RadialGradient</text>
</a>
</g>
</g>
<!-- Node4&#45;&gt;Node6 -->
<g id="edge5" class="edge"><title>Node4&#45;&gt;Node6</title>
<path fill="none" stroke="midnightblue" d="M250.633,-400C259.845,-400 269.353,-400 278.635,-400"/>
<polygon fill="midnightblue" stroke="midnightblue" points="250.387,-396.5 240.387,-400 250.387,-403.5 250.387,-396.5"/>
</g>
<!-- Node8 -->
<g id="node8" class="node"><title>Node8</title>
<g id="a_node8"><a xlink:href="classcinder_1_1svg_1_1_doc.html" target="_top" xlink:title="Represents an SVG Document. See SVG Document Structure http://www.w3.org/TR/SVG/struct.html. ">
<polygon fill="white" stroke="black" points="303.153,-351 303.153,-371 390.847,-371 390.847,-351 303.153,-351"/>
<text text-anchor="middle" x="347" y="-357" font-family="Helvetica,sans-Serif" font-size="10.00">cinder::svg::Doc</text>
</a>
</g>
</g>
<!-- Node7&#45;&gt;Node8 -->
<g id="edge7" class="edge"><title>Node7&#45;&gt;Node8</title>
<path fill="none" stroke="midnightblue" d="M245.223,-361C264.298,-361 285.138,-361 302.89,-361"/>
<polygon fill="midnightblue" stroke="midnightblue" points="245.137,-357.5 235.137,-361 245.137,-364.5 245.137,-357.5"/>
</g>
</g>
</svg>
