<?xml version="1.0" encoding="UTF-8" standalone="no"?>
<!DOCTYPE svg PUBLIC "-//W3C//DTD SVG 1.1//EN"
 "http://www.w3.org/Graphics/SVG/1.1/DTD/svg11.dtd">
<!-- Generated by graphviz version 2.30.1 (20140712.1814)
 -->
<!-- Title: cinder::CaptureExc Pages: 1 -->
<svg width="285pt" height="216pt"
 viewBox="0.00 0.00 285.00 216.00" xmlns="http://www.w3.org/2000/svg" xmlns:xlink="http://www.w3.org/1999/xlink">
<g id="graph0" class="graph" transform="scale(1 1) rotate(0) translate(4 212)">
<title>cinder::CaptureExc</title>
<polygon fill="white" stroke="white" points="-4,5 -4,-212 282,-212 282,5 -4,5"/>
<!-- Node1 -->
<g id="node1" class="node"><title>Node1</title>
<polygon fill="#bfbfbf" stroke="black" points="88.4805,-71 88.4805,-91 189.52,-91 189.52,-71 88.4805,-71"/>
<text text-anchor="middle" x="139" y="-77" font-family="Helvetica,sans-Serif" font-size="10.00">cinder::CaptureExc</text>
</g>
<!-- Node4 -->
<g id="node4" class="node"><title>Node4</title>
<g id="a_node4"><a xlink:href="classcinder_1_1_capture_exc_init_fail.html" target="_top" xlink:title="cinder::CaptureExcInitFail">
<polygon fill="white" stroke="black" points="-0.246094,-7 -0.246094,-27 130.246,-27 130.246,-7 -0.246094,-7"/>
<text text-anchor="middle" x="65" y="-13" font-family="Helvetica,sans-Serif" font-size="10.00">cinder::CaptureExcInitFail</text>
</a>
</g>
</g>
<!-- Node1&#45;&gt;Node4 -->
<g id="edge3" class="edge"><title>Node1&#45;&gt;Node4</title>
<path fill="none" stroke="midnightblue" d="M120.073,-64.1419C106.099,-52.4346 87.5678,-36.9082 75.9638,-27.1858"/>
<polygon fill="midnightblue" stroke="midnightblue" points="118.168,-67.1123 128.081,-70.8517 122.664,-61.7466 118.168,-67.1123"/>
</g>
<!-- Node5 -->
<g id="node5" class="node"><title>Node5</title>
<g id="a_node5"><a xlink:href="classcinder_1_1_capture_exc_invalid_channel_order.html" target="_top" xlink:title="cinder::CaptureExcInvalid\lChannelOrder">
<polygon fill="white" stroke="black" points="148.027,-1 148.027,-33 277.973,-33 277.973,-1 148.027,-1"/>
<text text-anchor="start" x="156.027" y="-19" font-family="Helvetica,sans-Serif" font-size="10.00">cinder::CaptureExcInvalid</text>
<text text-anchor="middle" x="213" y="-7" font-family="Helvetica,sans-Serif" font-size="10.00">ChannelOrder</text>
</a>
</g>
</g>
<!-- Node1&#45;&gt;Node5 -->
<g id="edge4" class="edge"><title>Node1&#45;&gt;Node5</title>
<path fill="none" stroke="midnightblue" d="M157.914,-64.1533C169.271,-54.6379 183.643,-42.5965 194.859,-33.1992"/>
<polygon fill="midnightblue" stroke="midnightblue" points="155.336,-61.7466 149.919,-70.8517 159.832,-67.1123 155.336,-61.7466"/>
</g>
<!-- Node2 -->
<g id="node2" class="node"><title>Node2</title>
<g id="a_node2"><a xlink:href="classcinder_1_1_exception.html" target="_top" xlink:title="cinder::Exception">
<polygon fill="white" stroke="black" points="92.6455,-129 92.6455,-149 185.354,-149 185.354,-129 92.6455,-129"/>
<text text-anchor="middle" x="139" y="-135" font-family="Helvetica,sans-Serif" font-size="10.00">cinder::Exception</text>
</a>
</g>
</g>
<!-- Node2&#45;&gt;Node1 -->
<g id="edge1" class="edge"><title>Node2&#45;&gt;Node1</title>
<path fill="none" stroke="midnightblue" d="M139,-118.707C139,-109.338 139,-98.5262 139,-91.0752"/>
<polygon fill="midnightblue" stroke="midnightblue" points="135.5,-118.753 139,-128.753 142.5,-118.753 135.5,-118.753"/>
</g>
<!-- Node3 -->
<g id="node3" class="node"><title>Node3</title>
<polygon fill="white" stroke="#bfbfbf" points="109.596,-187 109.596,-207 168.404,-207 168.404,-187 109.596,-187"/>
<text text-anchor="middle" x="139" y="-193" font-family="Helvetica,sans-Serif" font-size="10.00">exception</text>
</g>
<!-- Node3&#45;&gt;Node2 -->
<g id="edge2" class="edge"><title>Node3&#45;&gt;Node2</title>
<path fill="none" stroke="midnightblue" d="M139,-176.707C139,-167.338 139,-156.526 139,-149.075"/>
<polygon fill="midnightblue" stroke="midnightblue" points="135.5,-176.753 139,-186.753 142.5,-176.753 135.5,-176.753"/>
</g>
</g>
</svg>
