<?xml version="1.0" encoding="UTF-8" standalone="no"?>
<!DOCTYPE svg PUBLIC "-//W3C//DTD SVG 1.1//EN"
 "http://www.w3.org/Graphics/SVG/1.1/DTD/svg11.dtd">
<!-- Generated by graphviz version 2.30.1 (20140712.1814)
 -->
<!-- Title: cinder::IStreamMem Pages: 1 -->
<svg width="120pt" height="204pt"
 viewBox="0.00 0.00 120.00 204.00" xmlns="http://www.w3.org/2000/svg" xmlns:xlink="http://www.w3.org/1999/xlink">
<g id="graph0" class="graph" transform="scale(1 1) rotate(0) translate(4 200)">
<title>cinder::IStreamMem</title>
<polygon fill="white" stroke="white" points="-4,5 -4,-200 117,-200 117,5 -4,5"/>
<!-- Node1 -->
<g id="node1" class="node"><title>Node1</title>
<polygon fill="#bfbfbf" stroke="black" points="2.98779,-1 2.98779,-21 109.012,-21 109.012,-1 2.98779,-1"/>
<text text-anchor="middle" x="56" y="-7" font-family="Helvetica,sans-Serif" font-size="10.00">cinder::IStreamMem</text>
</g>
<!-- Node2 -->
<g id="node2" class="node"><title>Node2</title>
<g id="a_node2"><a xlink:href="classcinder_1_1_i_stream_cinder.html" target="_top" xlink:title="cinder::IStreamCinder">
<polygon fill="white" stroke="black" points="-0.630371,-59 -0.630371,-79 112.63,-79 112.63,-59 -0.630371,-59"/>
<text text-anchor="middle" x="56" y="-65" font-family="Helvetica,sans-Serif" font-size="10.00">cinder::IStreamCinder</text>
</a>
</g>
</g>
<!-- Node2&#45;&gt;Node1 -->
<g id="edge1" class="edge"><title>Node2&#45;&gt;Node1</title>
<path fill="none" stroke="midnightblue" d="M56,-48.7065C56,-39.3384 56,-28.5262 56,-21.0752"/>
<polygon fill="midnightblue" stroke="midnightblue" points="52.5001,-48.7527 56,-58.7527 59.5001,-48.7528 52.5001,-48.7527"/>
</g>
<!-- Node3 -->
<g id="node3" class="node"><title>Node3</title>
<g id="a_node3"><a xlink:href="classcinder_1_1_stream_base.html" target="_top" xlink:title="cinder::StreamBase">
<polygon fill="white" stroke="black" points="4.09131,-117 4.09131,-137 107.909,-137 107.909,-117 4.09131,-117"/>
<text text-anchor="middle" x="56" y="-123" font-family="Helvetica,sans-Serif" font-size="10.00">cinder::StreamBase</text>
</a>
</g>
</g>
<!-- Node3&#45;&gt;Node2 -->
<g id="edge2" class="edge"><title>Node3&#45;&gt;Node2</title>
<path fill="none" stroke="midnightblue" d="M56,-106.707C56,-97.3384 56,-86.5262 56,-79.0752"/>
<polygon fill="midnightblue" stroke="midnightblue" points="52.5001,-106.753 56,-116.753 59.5001,-106.753 52.5001,-106.753"/>
</g>
<!-- Node4 -->
<g id="node4" class="node"><title>Node4</title>
<polygon fill="white" stroke="#bfbfbf" points="19.6431,-175 19.6431,-195 92.3569,-195 92.3569,-175 19.6431,-175"/>
<text text-anchor="middle" x="56" y="-181" font-family="Helvetica,sans-Serif" font-size="10.00">noncopyable</text>
</g>
<!-- Node4&#45;&gt;Node3 -->
<g id="edge3" class="edge"><title>Node4&#45;&gt;Node3</title>
<path fill="none" stroke="#8b1a1a" d="M56,-164.707C56,-155.338 56,-144.526 56,-137.075"/>
<polygon fill="#8b1a1a" stroke="#8b1a1a" points="52.5001,-164.753 56,-174.753 59.5001,-164.753 52.5001,-164.753"/>
</g>
</g>
</svg>
