<?xml version="1.0" encoding="UTF-8" standalone="no"?>
<!DOCTYPE svg PUBLIC "-//W3C//DTD SVG 1.1//EN"
 "http://www.w3.org/Graphics/SVG/1.1/DTD/svg11.dtd">
<!-- Generated by graphviz version 2.30.1 (20140712.1814)
 -->
<!-- Title: cinder::Camera Pages: 1 -->
<svg width="246pt" height="146pt"
 viewBox="0.00 0.00 246.00 146.00" xmlns="http://www.w3.org/2000/svg" xmlns:xlink="http://www.w3.org/1999/xlink">
<g id="graph0" class="graph" transform="scale(1 1) rotate(0) translate(4 142)">
<title>cinder::Camera</title>
<polygon fill="white" stroke="white" points="-4,5 -4,-142 243,-142 243,5 -4,5"/>
<!-- Node1 -->
<g id="node1" class="node"><title>Node1</title>
<polygon fill="#bfbfbf" stroke="black" points="75.8203,-117 75.8203,-137 160.18,-137 160.18,-117 75.8203,-117"/>
<text text-anchor="middle" x="118" y="-123" font-family="Helvetica,sans-Serif" font-size="10.00">cinder::Camera</text>
</g>
<!-- Node2 -->
<g id="node2" class="node"><title>Node2</title>
<g id="a_node2"><a xlink:href="classcinder_1_1_camera_ortho.html" target="_top" xlink:title="cinder::CameraOrtho">
<polygon fill="white" stroke="black" points="-0.68457,-59 -0.68457,-79 108.685,-79 108.685,-59 -0.68457,-59"/>
<text text-anchor="middle" x="54" y="-65" font-family="Helvetica,sans-Serif" font-size="10.00">cinder::CameraOrtho</text>
</a>
</g>
</g>
<!-- Node1&#45;&gt;Node2 -->
<g id="edge1" class="edge"><title>Node1&#45;&gt;Node2</title>
<path fill="none" stroke="midnightblue" d="M99.7105,-109.997C88.2537,-99.9719 73.9053,-87.4171 64.3716,-79.0752"/>
<polygon fill="midnightblue" stroke="midnightblue" points="97.6011,-112.802 107.432,-116.753 102.211,-107.534 97.6011,-112.802"/>
</g>
<!-- Node3 -->
<g id="node3" class="node"><title>Node3</title>
<g id="a_node3"><a xlink:href="classcinder_1_1_camera_persp.html" target="_top" xlink:title="cinder::CameraPersp">
<polygon fill="white" stroke="black" points="126.759,-59 126.759,-79 237.241,-79 237.241,-59 126.759,-59"/>
<text text-anchor="middle" x="182" y="-65" font-family="Helvetica,sans-Serif" font-size="10.00">cinder::CameraPersp</text>
</a>
</g>
</g>
<!-- Node1&#45;&gt;Node3 -->
<g id="edge2" class="edge"><title>Node1&#45;&gt;Node3</title>
<path fill="none" stroke="midnightblue" d="M136.289,-109.997C147.746,-99.9719 162.095,-87.4171 171.628,-79.0752"/>
<polygon fill="midnightblue" stroke="midnightblue" points="133.789,-107.534 128.568,-116.753 138.399,-112.802 133.789,-107.534"/>
</g>
<!-- Node4 -->
<g id="node4" class="node"><title>Node4</title>
<g id="a_node4"><a xlink:href="classcinder_1_1_camera_stereo.html" target="_top" xlink:title="cinder::CameraStereo">
<polygon fill="white" stroke="black" points="125.089,-1 125.089,-21 238.911,-21 238.911,-1 125.089,-1"/>
<text text-anchor="middle" x="182" y="-7" font-family="Helvetica,sans-Serif" font-size="10.00">cinder::CameraStereo</text>
</a>
</g>
</g>
<!-- Node3&#45;&gt;Node4 -->
<g id="edge3" class="edge"><title>Node3&#45;&gt;Node4</title>
<path fill="none" stroke="midnightblue" d="M182,-48.7065C182,-39.3384 182,-28.5262 182,-21.0752"/>
<polygon fill="midnightblue" stroke="midnightblue" points="178.5,-48.7527 182,-58.7527 185.5,-48.7528 178.5,-48.7527"/>
</g>
</g>
</svg>
