<?xml version="1.0" encoding="UTF-8" standalone="no"?>
<!DOCTYPE svg PUBLIC "-//W3C//DTD SVG 1.1//EN"
 "http://www.w3.org/Graphics/SVG/1.1/DTD/svg11.dtd">
<!-- Generated by graphviz version 2.30.1 (20140712.1814)
 -->
<!-- Title: cinder::JsonTree::Exception Pages: 1 -->
<svg width="546pt" height="142pt"
 viewBox="0.00 0.00 546.00 142.00" xmlns="http://www.w3.org/2000/svg" xmlns:xlink="http://www.w3.org/1999/xlink">
<g id="graph0" class="graph" transform="scale(1 1) rotate(0) translate(4 138)">
<title>cinder::JsonTree::Exception</title>
<polygon fill="white" stroke="white" points="-4,5 -4,-138 543,-138 543,5 -4,5"/>
<!-- Node1 -->
<g id="node1" class="node"><title>Node1</title>
<polygon fill="#bfbfbf" stroke="black" points="226.208,-57 226.208,-77 365.792,-77 365.792,-57 226.208,-57"/>
<text text-anchor="middle" x="296" y="-63" font-family="Helvetica,sans-Serif" font-size="10.00">cinder::JsonTree::Exception</text>
</g>
<!-- Node4 -->
<g id="node4" class="node"><title>Node4</title>
<g id="a_node4"><a xlink:href="classcinder_1_1_json_tree_1_1_exc_child_not_found.html" target="_top" xlink:title="Exception expressing the absence of an expected child node. ">
<polygon fill="white" stroke="black" points="402.437,-102 402.437,-134 537.563,-134 537.563,-102 402.437,-102"/>
<text text-anchor="start" x="410.437" y="-120" font-family="Helvetica,sans-Serif" font-size="10.00">cinder::JsonTree::ExcChild</text>
<text text-anchor="middle" x="470" y="-108" font-family="Helvetica,sans-Serif" font-size="10.00">NotFound</text>
</a>
</g>
</g>
<!-- Node1&#45;&gt;Node4 -->
<g id="edge3" class="edge"><title>Node1&#45;&gt;Node4</title>
<path fill="none" stroke="midnightblue" d="M340.618,-79.9333C363.156,-86.6161 390.873,-94.8343 414.777,-101.922"/>
<polygon fill="midnightblue" stroke="midnightblue" points="341.564,-76.5632 330.982,-77.076 339.574,-83.2744 341.564,-76.5632"/>
</g>
<!-- Node5 -->
<g id="node5" class="node"><title>Node5</title>
<g id="a_node5"><a xlink:href="classcinder_1_1_json_tree_1_1_exc_json_parser_error.html" target="_top" xlink:title="Exception expressing the existence of errors when serializing or deserializing JSON. ">
<polygon fill="white" stroke="black" points="403.27,-51 403.27,-83 536.73,-83 536.73,-51 403.27,-51"/>
<text text-anchor="start" x="411.27" y="-69" font-family="Helvetica,sans-Serif" font-size="10.00">cinder::JsonTree::ExcJson</text>
<text text-anchor="middle" x="470" y="-57" font-family="Helvetica,sans-Serif" font-size="10.00">ParserError</text>
</a>
</g>
</g>
<!-- Node1&#45;&gt;Node5 -->
<g id="edge4" class="edge"><title>Node1&#45;&gt;Node5</title>
<path fill="none" stroke="midnightblue" d="M376.097,-67C385.127,-67 394.258,-67 403.09,-67"/>
<polygon fill="midnightblue" stroke="midnightblue" points="375.968,-63.5001 365.968,-67 375.968,-70.5001 375.968,-63.5001"/>
</g>
<!-- Node6 -->
<g id="node6" class="node"><title>Node6</title>
<g id="a_node6"><a xlink:href="classcinder_1_1_json_tree_1_1_exc_non_convertible.html" target="_top" xlink:title="Exception expressing the inability to convert a node&#39;s value to a requested type. ...">
<polygon fill="white" stroke="black" points="404.659,-0 404.659,-32 535.341,-32 535.341,-0 404.659,-0"/>
<text text-anchor="start" x="412.659" y="-18" font-family="Helvetica,sans-Serif" font-size="10.00">cinder::JsonTree::ExcNon</text>
<text text-anchor="middle" x="470" y="-6" font-family="Helvetica,sans-Serif" font-size="10.00">Convertible</text>
</a>
</g>
</g>
<!-- Node1&#45;&gt;Node6 -->
<g id="edge5" class="edge"><title>Node1&#45;&gt;Node6</title>
<path fill="none" stroke="midnightblue" d="M340.618,-54.0667C363.156,-47.3839 390.873,-39.1657 414.777,-32.0777"/>
<polygon fill="midnightblue" stroke="midnightblue" points="339.574,-50.7256 330.982,-56.924 341.564,-57.4368 339.574,-50.7256"/>
</g>
<!-- Node2 -->
<g id="node2" class="node"><title>Node2</title>
<g id="a_node2"><a xlink:href="classcinder_1_1_exception.html" target="_top" xlink:title="cinder::Exception">
<polygon fill="white" stroke="black" points="96.6455,-57 96.6455,-77 189.354,-77 189.354,-57 96.6455,-57"/>
<text text-anchor="middle" x="143" y="-63" font-family="Helvetica,sans-Serif" font-size="10.00">cinder::Exception</text>
</a>
</g>
</g>
<!-- Node2&#45;&gt;Node1 -->
<g id="edge1" class="edge"><title>Node2&#45;&gt;Node1</title>
<path fill="none" stroke="midnightblue" d="M199.892,-67C208.408,-67 217.28,-67 226.035,-67"/>
<polygon fill="midnightblue" stroke="midnightblue" points="199.715,-63.5001 189.715,-67 199.715,-70.5001 199.715,-63.5001"/>
</g>
<!-- Node3 -->
<g id="node3" class="node"><title>Node3</title>
<polygon fill="white" stroke="#bfbfbf" points="0.596191,-57 0.596191,-77 59.4038,-77 59.4038,-57 0.596191,-57"/>
<text text-anchor="middle" x="30" y="-63" font-family="Helvetica,sans-Serif" font-size="10.00">exception</text>
</g>
<!-- Node3&#45;&gt;Node2 -->
<g id="edge2" class="edge"><title>Node3&#45;&gt;Node2</title>
<path fill="none" stroke="midnightblue" d="M69.6967,-67C78.2784,-67 87.4518,-67 96.2839,-67"/>
<polygon fill="midnightblue" stroke="midnightblue" points="69.5853,-63.5001 59.5853,-67 69.5852,-70.5001 69.5853,-63.5001"/>
</g>
</g>
</svg>
