<?xml version="1.0" encoding="UTF-8" standalone="no"?>
<!DOCTYPE svg PUBLIC "-//W3C//DTD SVG 1.1//EN"
 "http://www.w3.org/Graphics/SVG/1.1/DTD/svg11.dtd">
<!-- Generated by graphviz version 2.30.1 (20140712.1814)
 -->
<!-- Title: cinder::StreamBase Pages: 1 -->
<!--zoomable 223 -->
<svg id="main" version="1.1" xmlns="http://www.w3.org/2000/svg" xmlns:xlink="http://www.w3.org/1999/xlink" xml:space="preserve" onload="init(evt)">
<style type="text/css"><![CDATA[
.edge:hover path { stroke: red; }
.edge:hover polygon { stroke: red; fill: red; }
]]></style>
<script type="text/javascript"><![CDATA[
var edges = document.getElementsByTagName('g');
if (edges && edges.length) {
  for (var i=0;i<edges.length;i++) {
    if (edges[i].id.substr(0,4)=='edge') {
      edges[i].setAttribute('class','edge');
    }
  }
}
]]></script>
        <defs>
                <circle id="rim" cx="0" cy="0" r="7"/>
                <circle id="rim2" cx="0" cy="0" r="3.5"/>
                <g id="zoomPlus">
                        <use xlink:href="#rim" fill="#404040">
                                <set attributeName="fill" to="#808080" begin="zoomplus.mouseover" end="zoomplus.mouseout"/>
                        </use>
                        <path d="M-4,0h8M0,-4v8" fill="none" stroke="white" stroke-width="1.5" pointer-events="none"/>
                </g>
                <g id="zoomMin">
                        <use xlink:href="#rim" fill="#404040">
                                <set attributeName="fill" to="#808080" begin="zoomminus.mouseover" end="zoomminus.mouseout"/>
                        </use>
                        <path d="M-4,0h8" fill="none" stroke="white" stroke-width="1.5" pointer-events="none"/>
                </g>
                <g id="dirArrow">
                        <path fill="none" stroke="white" stroke-width="1.5" d="M0,-3.0v7 M-2.5,-0.5L0,-3.0L2.5,-0.5"/>
                </g>
               <g id="resetDef">
                       <use xlink:href="#rim2" fill="#404040">
                               <set attributeName="fill" to="#808080" begin="reset.mouseover" end="reset.mouseout"/>
                       </use>
               </g>
        </defs>

<script type="text/javascript">
var viewWidth = 662;
var viewHeight = 223;
var sectionId = 'dynsection-0';
</script>
<script xlink:href="svgpan.js"/>
<svg id="graph" class="graph">
<g id="viewport">
<title>cinder::StreamBase</title>
<polygon fill="white" stroke="white" points="-4,5 -4,-219 659,-219 659,5 -4,5"/>
<!-- Node1 -->
<g id="node1" class="node"><title>Node1</title>
<polygon fill="#bfbfbf" stroke="black" points="110.091,-97 110.091,-117 213.909,-117 213.909,-97 110.091,-97"/>
<text text-anchor="middle" x="162" y="-103" font-family="Helvetica,sans-Serif" font-size="10.00">cinder::StreamBase</text>
</g>
<!-- Node3 -->
<g id="node3" class="node"><title>Node3</title>
<g id="a_node3"><a xlink:href="classcinder_1_1_i_stream_cinder.html" target="_top" xlink:title="cinder::IStreamCinder">
<polygon fill="white" stroke="black" points="250.37,-117 250.37,-137 363.63,-137 363.63,-117 250.37,-117"/>
<text text-anchor="middle" x="307" y="-123" font-family="Helvetica,sans-Serif" font-size="10.00">cinder::IStreamCinder</text>
</a>
</g>
</g>
<!-- Node1&#45;&gt;Node3 -->
<g id="edge2" class="edge"><title>Node1&#45;&gt;Node3</title>
<path fill="none" stroke="midnightblue" d="M224.251,-115.567C232.9,-116.776 241.754,-118.015 250.292,-119.209"/>
<polygon fill="midnightblue" stroke="midnightblue" points="224.611,-112.083 214.222,-114.164 223.641,-119.015 224.611,-112.083"/>
</g>
<!-- Node9 -->
<g id="node9" class="node"><title>Node9</title>
<g id="a_node9"><a xlink:href="classcinder_1_1_o_stream.html" target="_top" xlink:title="cinder::OStream">
<polygon fill="white" stroke="black" points="262.599,-58 262.599,-78 351.401,-78 351.401,-58 262.599,-58"/>
<text text-anchor="middle" x="307" y="-64" font-family="Helvetica,sans-Serif" font-size="10.00">cinder::OStream</text>
</a>
</g>
</g>
<!-- Node1&#45;&gt;Node9 -->
<g id="edge8" class="edge"><title>Node1&#45;&gt;Node9</title>
<path fill="none" stroke="midnightblue" d="M209.658,-94.2752C229.01,-88.9972 251.136,-82.963 269.299,-78.0094"/>
<polygon fill="midnightblue" stroke="midnightblue" points="208.553,-90.9486 199.826,-96.9565 210.395,-97.702 208.553,-90.9486"/>
</g>
<!-- Node2 -->
<g id="node2" class="node"><title>Node2</title>
<polygon fill="white" stroke="#bfbfbf" points="0.643066,-97 0.643066,-117 73.3569,-117 73.3569,-97 0.643066,-97"/>
<text text-anchor="middle" x="37" y="-103" font-family="Helvetica,sans-Serif" font-size="10.00">noncopyable</text>
</g>
<!-- Node2&#45;&gt;Node1 -->
<g id="edge1" class="edge"><title>Node2&#45;&gt;Node1</title>
<path fill="none" stroke="#8b1a1a" d="M83.7341,-107C92.2781,-107 101.258,-107 109.95,-107"/>
<polygon fill="#8b1a1a" stroke="#8b1a1a" points="83.5767,-103.5 73.5767,-107 83.5767,-110.5 83.5767,-103.5"/>
</g>
<!-- Node4 -->
<g id="node4" class="node"><title>Node4</title>
<g id="a_node4"><a xlink:href="classcinder_1_1_io_stream.html" target="_top" xlink:title="cinder::IoStream">
<polygon fill="white" stroke="black" points="411.318,-78 411.318,-98 500.682,-98 500.682,-78 411.318,-78"/>
<text text-anchor="middle" x="456" y="-84" font-family="Helvetica,sans-Serif" font-size="10.00">cinder::IoStream</text>
</a>
</g>
</g>
<!-- Node3&#45;&gt;Node4 -->
<g id="edge3" class="edge"><title>Node3&#45;&gt;Node4</title>
<path fill="none" stroke="midnightblue" d="M355.689,-114.348C375.648,-109.053 398.515,-102.986 417.272,-98.0094"/>
<polygon fill="midnightblue" stroke="midnightblue" points="354.624,-111.009 345.856,-116.957 356.419,-117.775 354.624,-111.009"/>
</g>
<!-- Node6 -->
<g id="node6" class="node"><title>Node6</title>
<g id="a_node6"><a xlink:href="classcinder_1_1_i_stream_file.html" target="_top" xlink:title="cinder::IStreamFile">
<polygon fill="white" stroke="black" points="406.042,-195 406.042,-215 505.958,-215 505.958,-195 406.042,-195"/>
<text text-anchor="middle" x="456" y="-201" font-family="Helvetica,sans-Serif" font-size="10.00">cinder::IStreamFile</text>
</a>
</g>
</g>
<!-- Node3&#45;&gt;Node6 -->
<g id="edge5" class="edge"><title>Node3&#45;&gt;Node6</title>
<path fill="none" stroke="midnightblue" d="M330.475,-143.084C348.633,-155.6 375.166,-172.831 400,-185 407.482,-188.666 415.813,-192.036 423.683,-194.922"/>
<polygon fill="midnightblue" stroke="midnightblue" points="331.998,-139.878 321.796,-137.02 327.989,-145.617 331.998,-139.878"/>
</g>
<!-- Node7 -->
<g id="node7" class="node"><title>Node7</title>
<g id="a_node7"><a xlink:href="classcinder_1_1_i_stream_mem.html" target="_top" xlink:title="cinder::IStreamMem">
<polygon fill="white" stroke="black" points="402.988,-156 402.988,-176 509.012,-176 509.012,-156 402.988,-156"/>
<text text-anchor="middle" x="456" y="-162" font-family="Helvetica,sans-Serif" font-size="10.00">cinder::IStreamMem</text>
</a>
</g>
</g>
<!-- Node3&#45;&gt;Node7 -->
<g id="edge6" class="edge"><title>Node3&#45;&gt;Node7</title>
<path fill="none" stroke="midnightblue" d="M355.689,-139.652C375.648,-144.947 398.515,-151.014 417.272,-155.991"/>
<polygon fill="midnightblue" stroke="midnightblue" points="356.419,-136.225 345.856,-137.043 354.624,-142.991 356.419,-136.225"/>
</g>
<!-- Node8 -->
<g id="node8" class="node"><title>Node8</title>
<g id="a_node8"><a xlink:href="classcinder_1_1_i_stream_url.html" target="_top" xlink:title="cinder::IStreamUrl">
<polygon fill="white" stroke="black" points="407.712,-117 407.712,-137 504.288,-137 504.288,-117 407.712,-117"/>
<text text-anchor="middle" x="456" y="-123" font-family="Helvetica,sans-Serif" font-size="10.00">cinder::IStreamUrl</text>
</a>
</g>
</g>
<!-- Node3&#45;&gt;Node8 -->
<g id="edge7" class="edge"><title>Node3&#45;&gt;Node8</title>
<path fill="none" stroke="midnightblue" d="M374.159,-127C385.33,-127 396.729,-127 407.311,-127"/>
<polygon fill="midnightblue" stroke="midnightblue" points="373.994,-123.5 363.994,-127 373.994,-130.5 373.994,-123.5"/>
</g>
<!-- Node5 -->
<g id="node5" class="node"><title>Node5</title>
<g id="a_node5"><a xlink:href="classcinder_1_1_io_stream_file.html" target="_top" xlink:title="cinder::IoStreamFile">
<polygon fill="white" stroke="black" points="548.261,-78 548.261,-98 653.739,-98 653.739,-78 548.261,-78"/>
<text text-anchor="middle" x="601" y="-84" font-family="Helvetica,sans-Serif" font-size="10.00">cinder::IoStreamFile</text>
</a>
</g>
</g>
<!-- Node4&#45;&gt;Node5 -->
<g id="edge4" class="edge"><title>Node4&#45;&gt;Node5</title>
<path fill="none" stroke="midnightblue" d="M511.417,-88C523.432,-88 536.13,-88 548.044,-88"/>
<polygon fill="midnightblue" stroke="midnightblue" points="511.072,-84.5001 501.072,-88 511.072,-91.5001 511.072,-84.5001"/>
</g>
<!-- Node9&#45;&gt;Node4 -->
<g id="edge9" class="edge"><title>Node9&#45;&gt;Node4</title>
<path fill="none" stroke="midnightblue" d="M361.64,-75.298C377.936,-77.5151 395.641,-79.9239 411.208,-82.0419"/>
<polygon fill="midnightblue" stroke="midnightblue" points="362.087,-71.8267 351.707,-73.9465 361.144,-78.7628 362.087,-71.8267"/>
</g>
<!-- Node10 -->
<g id="node10" class="node"><title>Node10</title>
<g id="a_node10"><a xlink:href="classcinder_1_1_o_stream_file.html" target="_top" xlink:title="cinder::OStreamFile">
<polygon fill="white" stroke="black" points="403.542,-39 403.542,-59 508.458,-59 508.458,-39 403.542,-39"/>
<text text-anchor="middle" x="456" y="-45" font-family="Helvetica,sans-Serif" font-size="10.00">cinder::OStreamFile</text>
</a>
</g>
</g>
<!-- Node9&#45;&gt;Node10 -->
<g id="edge10" class="edge"><title>Node9&#45;&gt;Node10</title>
<path fill="none" stroke="midnightblue" d="M361.864,-61.0379C375.437,-59.2836 389.974,-57.4047 403.432,-55.6653"/>
<polygon fill="midnightblue" stroke="midnightblue" points="361.176,-57.5978 351.707,-62.3508 362.073,-64.54 361.176,-57.5978"/>
</g>
<!-- Node11 -->
<g id="node11" class="node"><title>Node11</title>
<g id="a_node11"><a xlink:href="classcinder_1_1_o_stream_mem.html" target="_top" xlink:title="cinder::OStreamMem">
<polygon fill="white" stroke="black" points="400.488,-0 400.488,-20 511.512,-20 511.512,-0 400.488,-0"/>
<text text-anchor="middle" x="456" y="-6" font-family="Helvetica,sans-Serif" font-size="10.00">cinder::OStreamMem</text>
</a>
</g>
</g>
<!-- Node9&#45;&gt;Node11 -->
<g id="edge11" class="edge"><title>Node9&#45;&gt;Node11</title>
<path fill="none" stroke="midnightblue" d="M339.768,-53.9006C357.393,-46.2383 379.778,-36.7688 400,-29 407.922,-25.9568 416.566,-22.8651 424.607,-20.0843"/>
<polygon fill="midnightblue" stroke="midnightblue" points="338.269,-50.7358 330.509,-57.9493 341.074,-57.1494 338.269,-50.7358"/>
</g>
</g>
</svg>
        <g id="navigator" transform="translate(0 0)" fill="#404254">
                <rect fill="#f2f5e9" fill-opacity="0.5" stroke="#606060" stroke-width=".5" x="0" y="0" width="60" height="60"/>
                <use id="zoomplus" xlink:href="#zoomPlus" x="17" y="9" onmousedown="handleZoom(evt,'in')"/>
                <use id="zoomminus" xlink:href="#zoomMin" x="42" y="9" onmousedown="handleZoom(evt,'out')"/>
                <use id="reset" xlink:href="#resetDef" x="30" y="36" onmousedown="handleReset()"/>
                <g id="arrowUp" xlink:href="#dirArrow" transform="translate(30 24)" onmousedown="handlePan(0,-1)">
                  <use xlink:href="#rim" fill="#404040">
                        <set attributeName="fill" to="#808080" begin="arrowUp.mouseover" end="arrowUp.mouseout"/>
                  </use>
                  <path fill="none" stroke="white" stroke-width="1.5" d="M0,-3.0v7 M-2.5,-0.5L0,-3.0L2.5,-0.5"/>
                </g>
                <g id="arrowRight" xlink:href="#dirArrow" transform="rotate(90) translate(36 -43)" onmousedown="handlePan(1,0)">
                  <use xlink:href="#rim" fill="#404040">
                        <set attributeName="fill" to="#808080" begin="arrowRight.mouseover" end="arrowRight.mouseout"/>
                  </use>
                  <path fill="none" stroke="white" stroke-width="1.5" d="M0,-3.0v7 M-2.5,-0.5L0,-3.0L2.5,-0.5"/>
                </g>
                <g id="arrowDown" xlink:href="#dirArrow" transform="rotate(180) translate(-30 -48)" onmousedown="handlePan(0,1)">
                  <use xlink:href="#rim" fill="#404040">
                        <set attributeName="fill" to="#808080" begin="arrowDown.mouseover" end="arrowDown.mouseout"/>
                  </use>
                  <path fill="none" stroke="white" stroke-width="1.5" d="M0,-3.0v7 M-2.5,-0.5L0,-3.0L2.5,-0.5"/>
                </g>
                <g id="arrowLeft" xlink:href="#dirArrow" transform="rotate(270) translate(-36 17)" onmousedown="handlePan(-1,0)">
                  <use xlink:href="#rim" fill="#404040">
                        <set attributeName="fill" to="#808080" begin="arrowLeft.mouseover" end="arrowLeft.mouseout"/>
                  </use>
                  <path fill="none" stroke="white" stroke-width="1.5" d="M0,-3.0v7 M-2.5,-0.5L0,-3.0L2.5,-0.5"/>
                </g>
        </g>
        <svg viewBox="0 0 15 15" width="100%" height="30px" preserveAspectRatio="xMaxYMin meet">
         <g id="arrow_out" transform="scale(0.3 0.3)">
          <a xlink:href="classcinder_1_1_stream_base__inherit__graph_org.svg" target="_base">
           <rect id="button" ry="5" rx="5" y="6" x="6" height="38" width="38"
                fill="#f2f5e9" fill-opacity="0.5" stroke="#606060" stroke-width="1.0"/>
           <path id="arrow"
             d="M 11.500037,31.436501 C 11.940474,20.09759 22.043105,11.32322 32.158766,21.979434 L 37.068811,17.246167 C 37.068811,17.246167 37.088388,32 37.088388,32 L 22.160133,31.978069 C 22.160133,31.978069 26.997745,27.140456 26.997745,27.140456 C 18.528582,18.264221 13.291696,25.230495 11.500037,31.436501 z"
             style="fill:#404040;"/>
          </a>
         </g>
        </svg>
</svg>
