<?xml version="1.0" encoding="UTF-8" standalone="no"?>
<!DOCTYPE svg PUBLIC "-//W3C//DTD SVG 1.1//EN"
 "http://www.w3.org/Graphics/SVG/1.1/DTD/svg11.dtd">
<!-- Generated by graphviz version 2.30.1 (20140712.1814)
 -->
<!-- Title: cinder::app::Event Pages: 1 -->
<svg width="276pt" height="145pt"
 viewBox="0.00 0.00 276.00 145.00" xmlns="http://www.w3.org/2000/svg" xmlns:xlink="http://www.w3.org/1999/xlink">
<g id="graph0" class="graph" transform="scale(1 1) rotate(0) translate(4 141)">
<title>cinder::app::Event</title>
<polygon fill="white" stroke="white" points="-4,5 -4,-141 273,-141 273,5 -4,5"/>
<!-- Node1 -->
<g id="node1" class="node"><title>Node1</title>
<polygon fill="#bfbfbf" stroke="black" points="0.697266,-58 0.697266,-78 97.3027,-78 97.3027,-58 0.697266,-58"/>
<text text-anchor="middle" x="49" y="-64" font-family="Helvetica,sans-Serif" font-size="10.00">cinder::app::Event</text>
</g>
<!-- Node2 -->
<g id="node2" class="node"><title>Node2</title>
<g id="a_node2"><a xlink:href="classcinder_1_1app_1_1_file_drop_event.html" target="_top" xlink:title="Represents a file&#45;drop event, typically received from Windows Explorer or Mac OS X Finder...">
<polygon fill="white" stroke="black" points="133.803,-117 133.803,-137 268.197,-137 268.197,-117 133.803,-117"/>
<text text-anchor="middle" x="201" y="-123" font-family="Helvetica,sans-Serif" font-size="10.00">cinder::app::FileDropEvent</text>
</a>
</g>
</g>
<!-- Node1&#45;&gt;Node2 -->
<g id="edge1" class="edge"><title>Node1&#45;&gt;Node2</title>
<path fill="none" stroke="midnightblue" d="M79.0259,-82.7045C95.0105,-90.4883 115.339,-99.881 134,-107 143.397,-110.585 153.733,-113.97 163.38,-116.902"/>
<polygon fill="midnightblue" stroke="midnightblue" points="80.2053,-79.3837 69.6885,-78.1006 77.1097,-85.6621 80.2053,-79.3837"/>
</g>
<!-- Node3 -->
<g id="node3" class="node"><title>Node3</title>
<g id="a_node3"><a xlink:href="classcinder_1_1app_1_1_key_event.html" target="_top" xlink:title="Represents a keyboard event. ">
<polygon fill="white" stroke="black" points="144.082,-78 144.082,-98 257.918,-98 257.918,-78 144.082,-78"/>
<text text-anchor="middle" x="201" y="-84" font-family="Helvetica,sans-Serif" font-size="10.00">cinder::app::KeyEvent</text>
</a>
</g>
</g>
<!-- Node1&#45;&gt;Node3 -->
<g id="edge2" class="edge"><title>Node1&#45;&gt;Node3</title>
<path fill="none" stroke="midnightblue" d="M107.717,-75.6956C119.605,-77.2806 132.105,-78.9473 143.932,-80.5243"/>
<polygon fill="midnightblue" stroke="midnightblue" points="107.836,-72.1805 97.4609,-74.3281 106.911,-79.1191 107.836,-72.1805"/>
</g>
<!-- Node4 -->
<g id="node4" class="node"><title>Node4</title>
<g id="a_node4"><a xlink:href="classcinder_1_1app_1_1_mouse_event.html" target="_top" xlink:title="Represents a mouse event. ">
<polygon fill="white" stroke="black" points="137.69,-39 137.69,-59 264.31,-59 264.31,-39 137.69,-39"/>
<text text-anchor="middle" x="201" y="-45" font-family="Helvetica,sans-Serif" font-size="10.00">cinder::app::MouseEvent</text>
</a>
</g>
</g>
<!-- Node1&#45;&gt;Node4 -->
<g id="edge3" class="edge"><title>Node1&#45;&gt;Node4</title>
<path fill="none" stroke="midnightblue" d="M107.5,-60.7167C117.309,-59.4742 127.541,-58.1782 137.473,-56.9201"/>
<polygon fill="midnightblue" stroke="midnightblue" points="106.942,-57.2593 97.4609,-61.9883 107.822,-64.2038 106.942,-57.2593"/>
</g>
<!-- Node5 -->
<g id="node5" class="node"><title>Node5</title>
<g id="a_node5"><a xlink:href="classcinder_1_1app_1_1_touch_event.html" target="_top" xlink:title="Represents a touch event. ">
<polygon fill="white" stroke="black" points="139.355,-0 139.355,-20 262.645,-20 262.645,-0 139.355,-0"/>
<text text-anchor="middle" x="201" y="-6" font-family="Helvetica,sans-Serif" font-size="10.00">cinder::app::TouchEvent</text>
</a>
</g>
</g>
<!-- Node1&#45;&gt;Node5 -->
<g id="edge4" class="edge"><title>Node1&#45;&gt;Node5</title>
<path fill="none" stroke="midnightblue" d="M79.7073,-53.4158C95.603,-45.9054 115.637,-36.9022 134,-30 143.526,-26.4194 154.003,-23.0116 163.748,-20.0567"/>
<polygon fill="midnightblue" stroke="midnightblue" points="77.909,-50.3961 70.3966,-57.8671 80.9283,-56.7115 77.909,-50.3961"/>
</g>
</g>
</svg>
