<?xml version="1.0" encoding="UTF-8" standalone="no"?>
<!DOCTYPE svg PUBLIC "-//W3C//DTD SVG 1.1//EN"
 "http://www.w3.org/Graphics/SVG/1.1/DTD/svg11.dtd">
<!-- Generated by graphviz version 2.30.1 (20140712.1814)
 -->
<!-- Title: cinder::app::App Pages: 1 -->
<svg width="282pt" height="145pt"
 viewBox="0.00 0.00 282.00 145.00" xmlns="http://www.w3.org/2000/svg" xmlns:xlink="http://www.w3.org/1999/xlink">
<g id="graph0" class="graph" transform="scale(1 1) rotate(0) translate(4 141)">
<title>cinder::app::App</title>
<polygon fill="white" stroke="white" points="-4,5 -4,-141 279,-141 279,5 -4,5"/>
<!-- Node1 -->
<g id="node1" class="node"><title>Node1</title>
<polygon fill="#bfbfbf" stroke="black" points="0.586426,-58 0.586426,-78 89.4136,-78 89.4136,-58 0.586426,-58"/>
<text text-anchor="middle" x="45" y="-64" font-family="Helvetica,sans-Serif" font-size="10.00">cinder::app::App</text>
</g>
<!-- Node2 -->
<g id="node2" class="node"><title>Node2</title>
<g id="a_node2"><a xlink:href="classcinder_1_1app_1_1_app_basic.html" target="_top" xlink:title="cinder::app::AppBasic">
<polygon fill="white" stroke="black" points="143.36,-117 143.36,-137 256.64,-137 256.64,-117 143.36,-117"/>
<text text-anchor="middle" x="200" y="-123" font-family="Helvetica,sans-Serif" font-size="10.00">cinder::app::AppBasic</text>
</a>
</g>
</g>
<!-- Node1&#45;&gt;Node2 -->
<g id="edge1" class="edge"><title>Node1&#45;&gt;Node2</title>
<path fill="none" stroke="midnightblue" d="M73.1915,-82.8244C88.4156,-90.7219 107.921,-100.184 126,-107 135.837,-110.708 146.654,-114.052 156.879,-116.897"/>
<polygon fill="midnightblue" stroke="midnightblue" points="74.7951,-79.7133 64.3166,-78.1471 71.5313,-85.9059 74.7951,-79.7133"/>
</g>
<!-- Node3 -->
<g id="node3" class="node"><title>Node3</title>
<g id="a_node3"><a xlink:href="classcinder_1_1app_1_1_app_cocoa_touch.html" target="_top" xlink:title="cinder::app::AppCocoaTouch">
<polygon fill="white" stroke="black" points="127.791,-78 127.791,-98 272.209,-98 272.209,-78 127.791,-78"/>
<text text-anchor="middle" x="200" y="-84" font-family="Helvetica,sans-Serif" font-size="10.00">cinder::app::AppCocoaTouch</text>
</a>
</g>
</g>
<!-- Node1&#45;&gt;Node3 -->
<g id="edge2" class="edge"><title>Node1&#45;&gt;Node3</title>
<path fill="none" stroke="midnightblue" d="M99.4847,-74.9915C108.595,-76.1823 118.185,-77.4359 127.669,-78.6757"/>
<polygon fill="midnightblue" stroke="midnightblue" points="99.8037,-71.5035 89.4344,-73.6777 98.8964,-78.4444 99.8037,-71.5035"/>
</g>
<!-- Node4 -->
<g id="node4" class="node"><title>Node4</title>
<g id="a_node4"><a xlink:href="classcinder_1_1app_1_1_app_cocoa_view.html" target="_top" xlink:title="cinder::app::AppCocoaView">
<polygon fill="white" stroke="black" points="130.384,-39 130.384,-59 269.616,-59 269.616,-39 130.384,-39"/>
<text text-anchor="middle" x="200" y="-45" font-family="Helvetica,sans-Serif" font-size="10.00">cinder::app::AppCocoaView</text>
</a>
</g>
</g>
<!-- Node1&#45;&gt;Node4 -->
<g id="edge3" class="edge"><title>Node1&#45;&gt;Node4</title>
<path fill="none" stroke="midnightblue" d="M99.5435,-61.3508C109.472,-60.1178 119.969,-58.8143 130.276,-57.5343"/>
<polygon fill="midnightblue" stroke="midnightblue" points="98.9268,-57.9004 89.4344,-62.6062 99.7895,-64.8471 98.9268,-57.9004"/>
</g>
<!-- Node5 -->
<g id="node5" class="node"><title>Node5</title>
<g id="a_node5"><a xlink:href="classcinder_1_1app_1_1_app_screen_saver.html" target="_top" xlink:title="cinder::app::AppScreenSaver">
<polygon fill="white" stroke="black" points="126.683,-0 126.683,-20 273.317,-20 273.317,-0 126.683,-0"/>
<text text-anchor="middle" x="200" y="-6" font-family="Helvetica,sans-Serif" font-size="10.00">cinder::app::AppScreenSaver</text>
</a>
</g>
</g>
<!-- Node1&#45;&gt;Node5 -->
<g id="edge4" class="edge"><title>Node1&#45;&gt;Node5</title>
<path fill="none" stroke="midnightblue" d="M73.9682,-53.2252C89.0943,-45.6177 108.263,-36.584 126,-30 135.979,-26.296 146.951,-22.9337 157.289,-20.0676"/>
<polygon fill="midnightblue" stroke="midnightblue" points="71.9794,-50.311 64.6676,-57.9784 75.1649,-56.5442 71.9794,-50.311"/>
</g>
</g>
</svg>
