<?xml version="1.0" encoding="UTF-8" standalone="no"?>
<!DOCTYPE svg PUBLIC "-//W3C//DTD SVG 1.1//EN"
 "http://www.w3.org/Graphics/SVG/1.1/DTD/svg11.dtd">
<!-- Generated by graphviz version 2.30.1 (20140712.1814)
 -->
<!-- Title: cinder::app::App::Settings Pages: 1 -->
<svg width="324pt" height="193pt"
 viewBox="0.00 0.00 324.00 193.00" xmlns="http://www.w3.org/2000/svg" xmlns:xlink="http://www.w3.org/1999/xlink">
<g id="graph0" class="graph" transform="scale(1 1) rotate(0) translate(4 189)">
<title>cinder::app::App::Settings</title>
<polygon fill="white" stroke="white" points="-4,5 -4,-189 321,-189 321,5 -4,5"/>
<!-- Node1 -->
<g id="node1" class="node"><title>Node1</title>
<polygon fill="#bfbfbf" stroke="black" points="0.741699,-82 0.741699,-102 131.258,-102 131.258,-82 0.741699,-82"/>
<text text-anchor="middle" x="66" y="-88" font-family="Helvetica,sans-Serif" font-size="10.00">cinder::app::App::Settings</text>
</g>
<!-- Node2 -->
<g id="node2" class="node"><title>Node2</title>
<g id="a_node2"><a xlink:href="classcinder_1_1app_1_1_app_basic_1_1_settings.html" target="_top" xlink:title="cinder::app::AppBasic\l::Settings">
<polygon fill="white" stroke="black" points="185.36,-153 185.36,-185 298.64,-185 298.64,-153 185.36,-153"/>
<text text-anchor="start" x="193.36" y="-171" font-family="Helvetica,sans-Serif" font-size="10.00">cinder::app::AppBasic</text>
<text text-anchor="middle" x="242" y="-159" font-family="Helvetica,sans-Serif" font-size="10.00">::Settings</text>
</a>
</g>
</g>
<!-- Node1&#45;&gt;Node2 -->
<g id="edge1" class="edge"><title>Node1&#45;&gt;Node2</title>
<path fill="none" stroke="midnightblue" d="M94.1747,-106.892C114.258,-117.609 142.438,-132.045 168,-143 176.038,-146.445 184.7,-149.816 193.151,-152.93"/>
<polygon fill="midnightblue" stroke="midnightblue" points="95.7491,-103.765 85.2844,-102.109 92.4325,-109.929 95.7491,-103.765"/>
</g>
<!-- Node3 -->
<g id="node3" class="node"><title>Node3</title>
<g id="a_node3"><a xlink:href="classcinder_1_1app_1_1_app_cocoa_touch_1_1_settings.html" target="_top" xlink:title="cinder::app::AppCocoaTouch\l::Settings">
<polygon fill="white" stroke="black" points="169.791,-102 169.791,-134 314.209,-134 314.209,-102 169.791,-102"/>
<text text-anchor="start" x="177.791" y="-120" font-family="Helvetica,sans-Serif" font-size="10.00">cinder::app::AppCocoaTouch</text>
<text text-anchor="middle" x="242" y="-108" font-family="Helvetica,sans-Serif" font-size="10.00">::Settings</text>
</a>
</g>
</g>
<!-- Node1&#45;&gt;Node3 -->
<g id="edge2" class="edge"><title>Node1&#45;&gt;Node3</title>
<path fill="none" stroke="midnightblue" d="M141.369,-103.113C150.744,-104.513 160.318,-105.944 169.644,-107.338"/>
<polygon fill="midnightblue" stroke="midnightblue" points="141.704,-99.6239 131.297,-101.608 140.67,-106.547 141.704,-99.6239"/>
</g>
<!-- Node4 -->
<g id="node4" class="node"><title>Node4</title>
<g id="a_node4"><a xlink:href="classcinder_1_1app_1_1_app_cocoa_view_1_1_settings.html" target="_top" xlink:title="cinder::app::AppCocoaView\l::Settings">
<polygon fill="white" stroke="black" points="172.384,-51 172.384,-83 311.616,-83 311.616,-51 172.384,-51"/>
<text text-anchor="start" x="180.384" y="-69" font-family="Helvetica,sans-Serif" font-size="10.00">cinder::app::AppCocoaView</text>
<text text-anchor="middle" x="242" y="-57" font-family="Helvetica,sans-Serif" font-size="10.00">::Settings</text>
</a>
</g>
</g>
<!-- Node1&#45;&gt;Node4 -->
<g id="edge3" class="edge"><title>Node1&#45;&gt;Node4</title>
<path fill="none" stroke="midnightblue" d="M141.439,-81.3048C151.682,-79.8331 162.162,-78.3273 172.295,-76.8714"/>
<polygon fill="midnightblue" stroke="midnightblue" points="140.697,-77.8753 131.297,-82.762 141.693,-84.8041 140.697,-77.8753"/>
</g>
<!-- Node5 -->
<g id="node5" class="node"><title>Node5</title>
<g id="a_node5"><a xlink:href="classcinder_1_1app_1_1_app_screen_saver_1_1_settings.html" target="_top" xlink:title="cinder::app::AppScreenSaver\l::Settings">
<polygon fill="white" stroke="black" points="168.683,-0 168.683,-32 315.317,-32 315.317,-0 168.683,-0"/>
<text text-anchor="start" x="176.683" y="-18" font-family="Helvetica,sans-Serif" font-size="10.00">cinder::app::AppScreenSaver</text>
<text text-anchor="middle" x="242" y="-6" font-family="Helvetica,sans-Serif" font-size="10.00">::Settings</text>
</a>
</g>
</g>
<!-- Node1&#45;&gt;Node5 -->
<g id="edge4" class="edge"><title>Node1&#45;&gt;Node5</title>
<path fill="none" stroke="midnightblue" d="M94.578,-77.2499C114.654,-66.7841 142.651,-52.7447 168,-42 176.051,-38.5872 184.72,-35.2314 193.174,-32.1235"/>
<polygon fill="midnightblue" stroke="midnightblue" points="92.9024,-74.1765 85.6778,-81.9261 96.1583,-80.3732 92.9024,-74.1765"/>
</g>
</g>
</svg>
