<?xml version="1.0" encoding="UTF-8" standalone="no"?>
<!DOCTYPE svg PUBLIC "-//W3C//DTD SVG 1.1//EN"
 "http://www.w3.org/Graphics/SVG/1.1/DTD/svg11.dtd">
<!-- Generated by graphviz version 2.30.1 (20140712.1814)
 -->
<!-- Title: cinder::StreamExcOutOfMemory Pages: 1 -->
<svg width="168pt" height="204pt"
 viewBox="0.00 0.00 168.00 204.00" xmlns="http://www.w3.org/2000/svg" xmlns:xlink="http://www.w3.org/1999/xlink">
<g id="graph0" class="graph" transform="scale(1 1) rotate(0) translate(4 200)">
<title>cinder::StreamExcOutOfMemory</title>
<polygon fill="white" stroke="white" points="-4,5 -4,-200 165,-200 165,5 -4,5"/>
<!-- Node1 -->
<g id="node1" class="node"><title>Node1</title>
<polygon fill="#bfbfbf" stroke="black" points="-0.241211,-1 -0.241211,-21 160.241,-21 160.241,-1 -0.241211,-1"/>
<text text-anchor="middle" x="80" y="-7" font-family="Helvetica,sans-Serif" font-size="10.00">cinder::StreamExcOutOfMemory</text>
</g>
<!-- Node2 -->
<g id="node2" class="node"><title>Node2</title>
<g id="a_node2"><a xlink:href="classcinder_1_1_stream_exc.html" target="_top" xlink:title="cinder::StreamExc">
<polygon fill="white" stroke="black" points="31.1528,-59 31.1528,-79 128.847,-79 128.847,-59 31.1528,-59"/>
<text text-anchor="middle" x="80" y="-65" font-family="Helvetica,sans-Serif" font-size="10.00">cinder::StreamExc</text>
</a>
</g>
</g>
<!-- Node2&#45;&gt;Node1 -->
<g id="edge1" class="edge"><title>Node2&#45;&gt;Node1</title>
<path fill="none" stroke="midnightblue" d="M80,-48.7065C80,-39.3384 80,-28.5262 80,-21.0752"/>
<polygon fill="midnightblue" stroke="midnightblue" points="76.5001,-48.7527 80,-58.7527 83.5001,-48.7528 76.5001,-48.7527"/>
</g>
<!-- Node3 -->
<g id="node3" class="node"><title>Node3</title>
<g id="a_node3"><a xlink:href="classcinder_1_1_exception.html" target="_top" xlink:title="cinder::Exception">
<polygon fill="white" stroke="black" points="33.6455,-117 33.6455,-137 126.354,-137 126.354,-117 33.6455,-117"/>
<text text-anchor="middle" x="80" y="-123" font-family="Helvetica,sans-Serif" font-size="10.00">cinder::Exception</text>
</a>
</g>
</g>
<!-- Node3&#45;&gt;Node2 -->
<g id="edge2" class="edge"><title>Node3&#45;&gt;Node2</title>
<path fill="none" stroke="midnightblue" d="M80,-106.707C80,-97.3384 80,-86.5262 80,-79.0752"/>
<polygon fill="midnightblue" stroke="midnightblue" points="76.5001,-106.753 80,-116.753 83.5001,-106.753 76.5001,-106.753"/>
</g>
<!-- Node4 -->
<g id="node4" class="node"><title>Node4</title>
<polygon fill="white" stroke="#bfbfbf" points="50.5962,-175 50.5962,-195 109.404,-195 109.404,-175 50.5962,-175"/>
<text text-anchor="middle" x="80" y="-181" font-family="Helvetica,sans-Serif" font-size="10.00">exception</text>
</g>
<!-- Node4&#45;&gt;Node3 -->
<g id="edge3" class="edge"><title>Node4&#45;&gt;Node3</title>
<path fill="none" stroke="midnightblue" d="M80,-164.707C80,-155.338 80,-144.526 80,-137.075"/>
<polygon fill="midnightblue" stroke="midnightblue" points="76.5001,-164.753 80,-174.753 83.5001,-164.753 76.5001,-164.753"/>
</g>
</g>
</svg>
