<?xml version="1.0" encoding="UTF-8" standalone="no"?>
<!DOCTYPE svg PUBLIC "-//W3C//DTD SVG 1.1//EN"
 "http://www.w3.org/Graphics/SVG/1.1/DTD/svg11.dtd">
<!-- Generated by graphviz version 2.30.1 (20140712.1814)
 -->
<!-- Title: cinder::dx::ExceptionUnknownTarget Pages: 1 -->
<svg width="158pt" height="216pt"
 viewBox="0.00 0.00 158.00 216.00" xmlns="http://www.w3.org/2000/svg" xmlns:xlink="http://www.w3.org/1999/xlink">
<g id="graph0" class="graph" transform="scale(1 1) rotate(0) translate(4 212)">
<title>cinder::dx::ExceptionUnknownTarget</title>
<polygon fill="white" stroke="white" points="-4,5 -4,-212 155,-212 155,5 -4,5"/>
<!-- Node1 -->
<g id="node1" class="node"><title>Node1</title>
<polygon fill="#bfbfbf" stroke="black" points="-0.258301,-1 -0.258301,-33 150.258,-33 150.258,-1 -0.258301,-1"/>
<text text-anchor="start" x="7.7417" y="-19" font-family="Helvetica,sans-Serif" font-size="10.00">cinder::dx::ExceptionUnknown</text>
<text text-anchor="middle" x="75" y="-7" font-family="Helvetica,sans-Serif" font-size="10.00">Target</text>
</g>
<!-- Node2 -->
<g id="node2" class="node"><title>Node2</title>
<g id="a_node2"><a xlink:href="classcinder_1_1dx_1_1_exception.html" target="_top" xlink:title="cinder::dx::Exception">
<polygon fill="white" stroke="black" points="20.5864,-71 20.5864,-91 129.414,-91 129.414,-71 20.5864,-71"/>
<text text-anchor="middle" x="75" y="-77" font-family="Helvetica,sans-Serif" font-size="10.00">cinder::dx::Exception</text>
</a>
</g>
</g>
<!-- Node2&#45;&gt;Node1 -->
<g id="edge1" class="edge"><title>Node2&#45;&gt;Node1</title>
<path fill="none" stroke="midnightblue" d="M75,-60.7747C75,-51.9863 75,-41.715 75,-33.4404"/>
<polygon fill="midnightblue" stroke="midnightblue" points="71.5001,-60.8517 75,-70.8517 78.5001,-60.8517 71.5001,-60.8517"/>
</g>
<!-- Node3 -->
<g id="node3" class="node"><title>Node3</title>
<g id="a_node3"><a xlink:href="classcinder_1_1_exception.html" target="_top" xlink:title="cinder::Exception">
<polygon fill="white" stroke="black" points="28.6455,-129 28.6455,-149 121.354,-149 121.354,-129 28.6455,-129"/>
<text text-anchor="middle" x="75" y="-135" font-family="Helvetica,sans-Serif" font-size="10.00">cinder::Exception</text>
</a>
</g>
</g>
<!-- Node3&#45;&gt;Node2 -->
<g id="edge2" class="edge"><title>Node3&#45;&gt;Node2</title>
<path fill="none" stroke="midnightblue" d="M75,-118.707C75,-109.338 75,-98.5262 75,-91.0752"/>
<polygon fill="midnightblue" stroke="midnightblue" points="71.5001,-118.753 75,-128.753 78.5001,-118.753 71.5001,-118.753"/>
</g>
<!-- Node4 -->
<g id="node4" class="node"><title>Node4</title>
<polygon fill="white" stroke="#bfbfbf" points="45.5962,-187 45.5962,-207 104.404,-207 104.404,-187 45.5962,-187"/>
<text text-anchor="middle" x="75" y="-193" font-family="Helvetica,sans-Serif" font-size="10.00">exception</text>
</g>
<!-- Node4&#45;&gt;Node3 -->
<g id="edge3" class="edge"><title>Node4&#45;&gt;Node3</title>
<path fill="none" stroke="midnightblue" d="M75,-176.707C75,-167.338 75,-156.526 75,-149.075"/>
<polygon fill="midnightblue" stroke="midnightblue" points="71.5001,-176.753 75,-186.753 78.5001,-176.753 71.5001,-176.753"/>
</g>
</g>
</svg>
