<?xml version="1.0" encoding="UTF-8" standalone="no"?>
<!DOCTYPE svg PUBLIC "-//W3C//DTD SVG 1.1//EN"
 "http://www.w3.org/Graphics/SVG/1.1/DTD/svg11.dtd">
<!-- Generated by graphviz version 2.30.1 (20140712.1814)
 -->
<!-- Title: cinder::XmlTree::Exception Pages: 1 -->
<svg width="280pt" height="216pt"
 viewBox="0.00 0.00 280.00 216.00" xmlns="http://www.w3.org/2000/svg" xmlns:xlink="http://www.w3.org/1999/xlink">
<g id="graph0" class="graph" transform="scale(1 1) rotate(0) translate(4 212)">
<title>cinder::XmlTree::Exception</title>
<polygon fill="white" stroke="white" points="-4,5 -4,-212 277,-212 277,5 -4,5"/>
<!-- Node1 -->
<g id="node1" class="node"><title>Node1</title>
<polygon fill="#bfbfbf" stroke="black" points="66.1587,-71 66.1587,-91 201.841,-91 201.841,-71 66.1587,-71"/>
<text text-anchor="middle" x="134" y="-77" font-family="Helvetica,sans-Serif" font-size="10.00">cinder::XmlTree::Exception</text>
</g>
<!-- Node4 -->
<g id="node4" class="node"><title>Node4</title>
<g id="a_node4"><a xlink:href="classcinder_1_1_xml_tree_1_1_exc_attr_not_found.html" target="_top" xlink:title="Exception expressing the absence of an expected attribute. ">
<polygon fill="white" stroke="black" points="-0.996582,-1 -0.996582,-33 122.997,-33 122.997,-1 -0.996582,-1"/>
<text text-anchor="start" x="7.00342" y="-19" font-family="Helvetica,sans-Serif" font-size="10.00">cinder::XmlTree::ExcAttr</text>
<text text-anchor="middle" x="61" y="-7" font-family="Helvetica,sans-Serif" font-size="10.00">NotFound</text>
</a>
</g>
</g>
<!-- Node1&#45;&gt;Node4 -->
<g id="edge3" class="edge"><title>Node1&#45;&gt;Node4</title>
<path fill="none" stroke="midnightblue" d="M115.342,-64.1533C104.138,-54.6379 89.9604,-42.5965 78.8958,-33.1992"/>
<polygon fill="midnightblue" stroke="midnightblue" points="113.341,-67.0459 123.229,-70.8517 117.872,-61.7105 113.341,-67.0459"/>
</g>
<!-- Node5 -->
<g id="node5" class="node"><title>Node5</title>
<g id="a_node5"><a xlink:href="classcinder_1_1_xml_tree_1_1_exc_child_not_found.html" target="_top" xlink:title="Exception expressing the absence of an expected child node. ">
<polygon fill="white" stroke="black" points="141.388,-1 141.388,-33 272.612,-33 272.612,-1 141.388,-1"/>
<text text-anchor="start" x="149.388" y="-19" font-family="Helvetica,sans-Serif" font-size="10.00">cinder::XmlTree::ExcChild</text>
<text text-anchor="middle" x="207" y="-7" font-family="Helvetica,sans-Serif" font-size="10.00">NotFound</text>
</a>
</g>
</g>
<!-- Node1&#45;&gt;Node5 -->
<g id="edge4" class="edge"><title>Node1&#45;&gt;Node5</title>
<path fill="none" stroke="midnightblue" d="M152.658,-64.1533C163.862,-54.6379 178.04,-42.5965 189.104,-33.1992"/>
<polygon fill="midnightblue" stroke="midnightblue" points="150.128,-61.7105 144.771,-70.8517 154.659,-67.0459 150.128,-61.7105"/>
</g>
<!-- Node2 -->
<g id="node2" class="node"><title>Node2</title>
<g id="a_node2"><a xlink:href="classcinder_1_1_exception.html" target="_top" xlink:title="cinder::Exception">
<polygon fill="white" stroke="black" points="87.6455,-129 87.6455,-149 180.354,-149 180.354,-129 87.6455,-129"/>
<text text-anchor="middle" x="134" y="-135" font-family="Helvetica,sans-Serif" font-size="10.00">cinder::Exception</text>
</a>
</g>
</g>
<!-- Node2&#45;&gt;Node1 -->
<g id="edge1" class="edge"><title>Node2&#45;&gt;Node1</title>
<path fill="none" stroke="midnightblue" d="M134,-118.707C134,-109.338 134,-98.5262 134,-91.0752"/>
<polygon fill="midnightblue" stroke="midnightblue" points="130.5,-118.753 134,-128.753 137.5,-118.753 130.5,-118.753"/>
</g>
<!-- Node3 -->
<g id="node3" class="node"><title>Node3</title>
<polygon fill="white" stroke="#bfbfbf" points="104.596,-187 104.596,-207 163.404,-207 163.404,-187 104.596,-187"/>
<text text-anchor="middle" x="134" y="-193" font-family="Helvetica,sans-Serif" font-size="10.00">exception</text>
</g>
<!-- Node3&#45;&gt;Node2 -->
<g id="edge2" class="edge"><title>Node3&#45;&gt;Node2</title>
<path fill="none" stroke="midnightblue" d="M134,-176.707C134,-167.338 134,-156.526 134,-149.075"/>
<polygon fill="midnightblue" stroke="midnightblue" points="130.5,-176.753 134,-186.753 137.5,-176.753 130.5,-176.753"/>
</g>
</g>
</svg>
