<?xml version="1.0" encoding="UTF-8" standalone="no"?>
<!DOCTYPE svg PUBLIC "-//W3C//DTD SVG 1.1//EN"
 "http://www.w3.org/Graphics/SVG/1.1/DTD/svg11.dtd">
<!-- Generated by graphviz version 2.30.1 (20140712.1814)
 -->
<!-- Title: cinder::audio::GenSineNode Pages: 1 -->
<svg width="201pt" height="274pt"
 viewBox="0.00 0.00 201.00 274.00" xmlns="http://www.w3.org/2000/svg" xmlns:xlink="http://www.w3.org/1999/xlink">
<g id="graph0" class="graph" transform="scale(1 1) rotate(0) translate(4 270)">
<title>cinder::audio::GenSineNode</title>
<polygon fill="white" stroke="white" points="-4,5 -4,-270 198,-270 198,5 -4,5"/>
<!-- Node1 -->
<g id="node1" class="node"><title>Node1</title>
<polygon fill="#bfbfbf" stroke="black" points="33.1802,-1 33.1802,-21 174.82,-21 174.82,-1 33.1802,-1"/>
<text text-anchor="middle" x="104" y="-7" font-family="Helvetica,sans-Serif" font-size="10.00">cinder::audio::GenSineNode</text>
</g>
<!-- Node2 -->
<g id="node2" class="node"><title>Node2</title>
<g id="a_node2"><a xlink:href="classcinder_1_1audio_1_1_gen_node.html" target="_top" xlink:title="Base class for InputNode&#39;s that generate audio samples. Gen&#39;s are always mono channel. ">
<polygon fill="white" stroke="black" points="43.1875,-59 43.1875,-79 164.812,-79 164.812,-59 43.1875,-59"/>
<text text-anchor="middle" x="104" y="-65" font-family="Helvetica,sans-Serif" font-size="10.00">cinder::audio::GenNode</text>
</a>
</g>
</g>
<!-- Node2&#45;&gt;Node1 -->
<g id="edge1" class="edge"><title>Node2&#45;&gt;Node1</title>
<path fill="none" stroke="midnightblue" d="M104,-48.7065C104,-39.3384 104,-28.5262 104,-21.0752"/>
<polygon fill="midnightblue" stroke="midnightblue" points="100.5,-48.7527 104,-58.7527 107.5,-48.7528 100.5,-48.7527"/>
</g>
<!-- Node3 -->
<g id="node3" class="node"><title>Node3</title>
<g id="a_node3"><a xlink:href="classcinder_1_1audio_1_1_input_node.html" target="_top" xlink:title="InputNode is the base class for Node&#39;s that produce audio. It cannot have any inputs. ">
<polygon fill="white" stroke="black" points="41.5176,-117 41.5176,-137 166.482,-137 166.482,-117 41.5176,-117"/>
<text text-anchor="middle" x="104" y="-123" font-family="Helvetica,sans-Serif" font-size="10.00">cinder::audio::InputNode</text>
</a>
</g>
</g>
<!-- Node3&#45;&gt;Node2 -->
<g id="edge2" class="edge"><title>Node3&#45;&gt;Node2</title>
<path fill="none" stroke="midnightblue" d="M104,-106.707C104,-97.3384 104,-86.5262 104,-79.0752"/>
<polygon fill="midnightblue" stroke="midnightblue" points="100.5,-106.753 104,-116.753 107.5,-106.753 100.5,-106.753"/>
</g>
<!-- Node4 -->
<g id="node4" class="node"><title>Node4</title>
<g id="a_node4"><a xlink:href="classcinder_1_1audio_1_1_node.html" target="_top" xlink:title="Fundamental building block for creating an audio processing graph. ">
<polygon fill="white" stroke="black" points="52.6382,-175 52.6382,-195 155.362,-195 155.362,-175 52.6382,-175"/>
<text text-anchor="middle" x="104" y="-181" font-family="Helvetica,sans-Serif" font-size="10.00">cinder::audio::Node</text>
</a>
</g>
</g>
<!-- Node4&#45;&gt;Node3 -->
<g id="edge3" class="edge"><title>Node4&#45;&gt;Node3</title>
<path fill="none" stroke="midnightblue" d="M104,-164.707C104,-155.338 104,-144.526 104,-137.075"/>
<polygon fill="midnightblue" stroke="midnightblue" points="100.5,-164.753 104,-174.753 107.5,-164.753 100.5,-164.753"/>
</g>
<!-- Node5 -->
<g id="node5" class="node"><title>Node5</title>
<polygon fill="white" stroke="#bfbfbf" points="-0.913574,-233 -0.913574,-265 102.914,-265 102.914,-233 -0.913574,-233"/>
<text text-anchor="start" x="7.08643" y="-251" font-family="Helvetica,sans-Serif" font-size="10.00">std::enable_shared</text>
<text text-anchor="middle" x="51" y="-239" font-family="Helvetica,sans-Serif" font-size="10.00">_from_this&lt; Node &gt;</text>
</g>
<!-- Node5&#45;&gt;Node4 -->
<g id="edge4" class="edge"><title>Node5&#45;&gt;Node4</title>
<path fill="none" stroke="midnightblue" d="M70.5886,-225.085C79.4124,-214.763 89.3353,-203.155 96.0582,-195.29"/>
<polygon fill="midnightblue" stroke="midnightblue" points="67.6672,-223.116 63.8298,-232.992 72.9881,-227.665 67.6672,-223.116"/>
</g>
<!-- Node6 -->
<g id="node6" class="node"><title>Node6</title>
<polygon fill="white" stroke="#bfbfbf" points="120.643,-239 120.643,-259 193.357,-259 193.357,-239 120.643,-239"/>
<text text-anchor="middle" x="157" y="-245" font-family="Helvetica,sans-Serif" font-size="10.00">noncopyable</text>
</g>
<!-- Node6&#45;&gt;Node4 -->
<g id="edge5" class="edge"><title>Node6&#45;&gt;Node4</title>
<path fill="none" stroke="midnightblue" d="M142.586,-231.139C132.689,-219.56 119.928,-204.633 111.852,-195.186"/>
<polygon fill="midnightblue" stroke="midnightblue" points="140.021,-233.525 149.18,-238.852 145.342,-228.976 140.021,-233.525"/>
</g>
</g>
</svg>
