<?xml version="1.0" encoding="UTF-8" standalone="no"?>
<!DOCTYPE svg PUBLIC "-//W3C//DTD SVG 1.1//EN"
 "http://www.w3.org/Graphics/SVG/1.1/DTD/svg11.dtd">
<!-- Generated by graphviz version 2.30.1 (20140712.1814)
 -->
<!-- Title: cinder::gl::VboFailedMapExc Pages: 1 -->
<svg width="150pt" height="146pt"
 viewBox="0.00 0.00 150.00 146.00" xmlns="http://www.w3.org/2000/svg" xmlns:xlink="http://www.w3.org/1999/xlink">
<g id="graph0" class="graph" transform="scale(1 1) rotate(0) translate(4 142)">
<title>cinder::gl::VboFailedMapExc</title>
<polygon fill="white" stroke="white" points="-4,5 -4,-142 147,-142 147,5 -4,5"/>
<!-- Node1 -->
<g id="node1" class="node"><title>Node1</title>
<polygon fill="#bfbfbf" stroke="black" points="-0.642578,-1 -0.642578,-21 142.643,-21 142.643,-1 -0.642578,-1"/>
<text text-anchor="middle" x="71" y="-7" font-family="Helvetica,sans-Serif" font-size="10.00">cinder::gl::VboFailedMapExc</text>
</g>
<!-- Node2 -->
<g id="node2" class="node"><title>Node2</title>
<g id="a_node2"><a xlink:href="classcinder_1_1gl_1_1_vbo_exc.html" target="_top" xlink:title="cinder::gl::VboExc">
<polygon fill="white" stroke="black" points="22.7021,-59 22.7021,-79 119.298,-79 119.298,-59 22.7021,-59"/>
<text text-anchor="middle" x="71" y="-65" font-family="Helvetica,sans-Serif" font-size="10.00">cinder::gl::VboExc</text>
</a>
</g>
</g>
<!-- Node2&#45;&gt;Node1 -->
<g id="edge1" class="edge"><title>Node2&#45;&gt;Node1</title>
<path fill="none" stroke="midnightblue" d="M71,-48.7065C71,-39.3384 71,-28.5262 71,-21.0752"/>
<polygon fill="midnightblue" stroke="midnightblue" points="67.5001,-48.7527 71,-58.7527 74.5001,-48.7528 67.5001,-48.7527"/>
</g>
<!-- Node3 -->
<g id="node3" class="node"><title>Node3</title>
<polygon fill="white" stroke="#bfbfbf" points="41.5962,-117 41.5962,-137 100.404,-137 100.404,-117 41.5962,-117"/>
<text text-anchor="middle" x="71" y="-123" font-family="Helvetica,sans-Serif" font-size="10.00">exception</text>
</g>
<!-- Node3&#45;&gt;Node2 -->
<g id="edge2" class="edge"><title>Node3&#45;&gt;Node2</title>
<path fill="none" stroke="midnightblue" d="M71,-106.707C71,-97.3384 71,-86.5262 71,-79.0752"/>
<polygon fill="midnightblue" stroke="midnightblue" points="67.5001,-106.753 71,-116.753 74.5001,-106.753 67.5001,-106.753"/>
</g>
</g>
</svg>
