<?xml version="1.0" encoding="UTF-8" standalone="no"?>
<!DOCTYPE svg PUBLIC "-//W3C//DTD SVG 1.1//EN"
 "http://www.w3.org/Graphics/SVG/1.1/DTD/svg11.dtd">
<!-- Generated by graphviz version 2.30.1 (20140712.1814)
 -->
<!-- Title: cinder::ImageIo Pages: 1 -->
<!--zoomable 571 -->
<svg id="main" version="1.1" xmlns="http://www.w3.org/2000/svg" xmlns:xlink="http://www.w3.org/1999/xlink" xml:space="preserve" onload="init(evt)">
<style type="text/css"><![CDATA[
.edge:hover path { stroke: red; }
.edge:hover polygon { stroke: red; fill: red; }
]]></style>
<script type="text/javascript"><![CDATA[
var edges = document.getElementsByTagName('g');
if (edges && edges.length) {
  for (var i=0;i<edges.length;i++) {
    if (edges[i].id.substr(0,4)=='edge') {
      edges[i].setAttribute('class','edge');
    }
  }
}
]]></script>
        <defs>
                <circle id="rim" cx="0" cy="0" r="7"/>
                <circle id="rim2" cx="0" cy="0" r="3.5"/>
                <g id="zoomPlus">
                        <use xlink:href="#rim" fill="#404040">
                                <set attributeName="fill" to="#808080" begin="zoomplus.mouseover" end="zoomplus.mouseout"/>
                        </use>
                        <path d="M-4,0h8M0,-4v8" fill="none" stroke="white" stroke-width="1.5" pointer-events="none"/>
                </g>
                <g id="zoomMin">
                        <use xlink:href="#rim" fill="#404040">
                                <set attributeName="fill" to="#808080" begin="zoomminus.mouseover" end="zoomminus.mouseout"/>
                        </use>
                        <path d="M-4,0h8" fill="none" stroke="white" stroke-width="1.5" pointer-events="none"/>
                </g>
                <g id="dirArrow">
                        <path fill="none" stroke="white" stroke-width="1.5" d="M0,-3.0v7 M-2.5,-0.5L0,-3.0L2.5,-0.5"/>
                </g>
               <g id="resetDef">
                       <use xlink:href="#rim2" fill="#404040">
                               <set attributeName="fill" to="#808080" begin="reset.mouseover" end="reset.mouseout"/>
                       </use>
               </g>
        </defs>

<script type="text/javascript">
var viewWidth = 654;
var viewHeight = 571;
var sectionId = 'dynsection-0';
</script>
<script xlink:href="svgpan.js"/>
<svg id="graph" class="graph">
<g id="viewport">
<title>cinder::ImageIo</title>
<polygon fill="white" stroke="white" points="-4,5 -4,-567 651,-567 651,5 -4,5"/>
<!-- Node1 -->
<g id="node1" class="node"><title>Node1</title>
<polygon fill="#bfbfbf" stroke="black" points="0.537109,-280 0.537109,-300 85.4629,-300 85.4629,-280 0.537109,-280"/>
<text text-anchor="middle" x="43" y="-286" font-family="Helvetica,sans-Serif" font-size="10.00">cinder::ImageIo</text>
</g>
<!-- Node2 -->
<g id="node2" class="node"><title>Node2</title>
<g id="a_node2"><a xlink:href="classcinder_1_1_image_source.html" target="_top" xlink:title="cinder::ImageSource">
<polygon fill="white" stroke="black" points="121.865,-394 121.865,-414 230.135,-414 230.135,-394 121.865,-394"/>
<text text-anchor="middle" x="176" y="-400" font-family="Helvetica,sans-Serif" font-size="10.00">cinder::ImageSource</text>
</a>
</g>
</g>
<!-- Node1&#45;&gt;Node2 -->
<g id="edge1" class="edge"><title>Node1&#45;&gt;Node2</title>
<path fill="none" stroke="midnightblue" d="M63.4167,-306.897C90.9798,-330.883 140.61,-374.073 163.212,-393.742"/>
<polygon fill="midnightblue" stroke="midnightblue" points="65.4666,-304.041 55.6254,-300.117 60.8713,-309.322 65.4666,-304.041"/>
</g>
<!-- Node11 -->
<g id="node11" class="node"><title>Node11</title>
<g id="a_node11"><a xlink:href="classcinder_1_1_image_target.html" target="_top" xlink:title="cinder::ImageTarget">
<polygon fill="white" stroke="black" points="123.811,-148 123.811,-168 228.189,-168 228.189,-148 123.811,-148"/>
<text text-anchor="middle" x="176" y="-154" font-family="Helvetica,sans-Serif" font-size="10.00">cinder::ImageTarget</text>
</a>
</g>
</g>
<!-- Node1&#45;&gt;Node11 -->
<g id="edge10" class="edge"><title>Node1&#45;&gt;Node11</title>
<path fill="none" stroke="midnightblue" d="M61.3671,-272.5C89.0744,-244.582 142.429,-190.82 164.768,-168.31"/>
<polygon fill="midnightblue" stroke="midnightblue" points="58.8392,-270.079 54.2794,-279.642 63.8078,-275.01 58.8392,-270.079"/>
</g>
<!-- Node3 -->
<g id="node3" class="node"><title>Node3</title>
<g id="a_node3"><a xlink:href="classcinder_1_1cocoa_1_1_image_source_cg_image.html" target="_top" xlink:title="cinder::cocoa::ImageSource\lCgImage">
<polygon fill="white" stroke="black" points="290.744,-531 290.744,-563 431.256,-563 431.256,-531 290.744,-531"/>
<text text-anchor="start" x="298.744" y="-549" font-family="Helvetica,sans-Serif" font-size="10.00">cinder::cocoa::ImageSource</text>
<text text-anchor="middle" x="361" y="-537" font-family="Helvetica,sans-Serif" font-size="10.00">CgImage</text>
</a>
</g>
</g>
<!-- Node2&#45;&gt;Node3 -->
<g id="edge2" class="edge"><title>Node2&#45;&gt;Node3</title>
<path fill="none" stroke="midnightblue" d="M186.428,-423.162C200.258,-449.258 228.522,-495.625 266,-521 273.431,-526.031 281.814,-530.094 290.437,-533.373"/>
<polygon fill="midnightblue" stroke="midnightblue" points="189.528,-421.535 181.846,-414.238 183.301,-424.733 189.528,-421.535"/>
</g>
<!-- Node5 -->
<g id="node5" class="node"><title>Node5</title>
<polygon fill="white" stroke="#bfbfbf" points="282.409,-492 282.409,-512 439.591,-512 439.591,-492 282.409,-492"/>
<text text-anchor="middle" x="361" y="-498" font-family="Helvetica,sans-Serif" font-size="10.00">cinder::dx::ImageSourceTexture</text>
</g>
<!-- Node2&#45;&gt;Node5 -->
<g id="edge4" class="edge"><title>Node2&#45;&gt;Node5</title>
<path fill="none" stroke="midnightblue" d="M192.101,-421.739C208.452,-439.757 236.215,-467.071 266,-482 274.204,-486.112 283.221,-489.38 292.324,-491.978"/>
<polygon fill="midnightblue" stroke="midnightblue" points="194.673,-419.364 185.426,-414.193 189.43,-424.002 194.673,-419.364"/>
</g>
<!-- Node6 -->
<g id="node6" class="node"><title>Node6</title>
<polygon fill="white" stroke="#bfbfbf" points="283.798,-453 283.798,-473 438.202,-473 438.202,-453 283.798,-453"/>
<text text-anchor="middle" x="361" y="-459" font-family="Helvetica,sans-Serif" font-size="10.00">cinder::gl::ImageSourceTexture</text>
</g>
<!-- Node2&#45;&gt;Node6 -->
<g id="edge5" class="edge"><title>Node2&#45;&gt;Node6</title>
<path fill="none" stroke="midnightblue" d="M206.124,-418.559C223.23,-426.651 245.461,-436.391 266,-443 277.912,-446.833 290.912,-450.137 303.341,-452.892"/>
<polygon fill="midnightblue" stroke="midnightblue" points="207.225,-415.204 196.696,-414.02 204.189,-421.511 207.225,-415.204"/>
</g>
<!-- Node7 -->
<g id="node7" class="node"><title>Node7</title>
<polygon fill="white" stroke="#bfbfbf" points="288.239,-414 288.239,-434 433.761,-434 433.761,-414 288.239,-414"/>
<text text-anchor="middle" x="361" y="-420" font-family="Helvetica,sans-Serif" font-size="10.00">cinder::ImageSourceChannel</text>
</g>
<!-- Node2&#45;&gt;Node7 -->
<g id="edge6" class="edge"><title>Node2&#45;&gt;Node7</title>
<path fill="none" stroke="midnightblue" d="M240.8,-410.973C256.087,-412.643 272.512,-414.439 288.136,-416.146"/>
<polygon fill="midnightblue" stroke="midnightblue" points="240.744,-407.446 230.423,-409.839 239.984,-414.404 240.744,-407.446"/>
</g>
<!-- Node8 -->
<g id="node8" class="node"><title>Node8</title>
<g id="a_node8"><a xlink:href="classcinder_1_1_image_source_file_wic.html" target="_top" xlink:title="cinder::ImageSourceFileWic">
<polygon fill="white" stroke="black" points="290.478,-375 290.478,-395 431.522,-395 431.522,-375 290.478,-375"/>
<text text-anchor="middle" x="361" y="-381" font-family="Helvetica,sans-Serif" font-size="10.00">cinder::ImageSourceFileWic</text>
</a>
</g>
</g>
<!-- Node2&#45;&gt;Node8 -->
<g id="edge7" class="edge"><title>Node2&#45;&gt;Node8</title>
<path fill="none" stroke="midnightblue" d="M240.715,-397.385C256.686,-395.727 273.904,-393.939 290.156,-392.252"/>
<polygon fill="midnightblue" stroke="midnightblue" points="240.008,-393.939 230.423,-398.453 240.731,-400.902 240.008,-393.939"/>
</g>
<!-- Node9 -->
<g id="node9" class="node"><title>Node9</title>
<g id="a_node9"><a xlink:href="classcinder_1_1_image_source_png.html" target="_top" xlink:title="cinder::ImageSourcePng">
<polygon fill="white" stroke="black" points="297.968,-336 297.968,-356 424.032,-356 424.032,-336 297.968,-336"/>
<text text-anchor="middle" x="361" y="-342" font-family="Helvetica,sans-Serif" font-size="10.00">cinder::ImageSourcePng</text>
</a>
</g>
</g>
<!-- Node2&#45;&gt;Node9 -->
<g id="edge8" class="edge"><title>Node2&#45;&gt;Node9</title>
<path fill="none" stroke="midnightblue" d="M206.838,-389.539C223.864,-381.728 245.782,-372.4 266,-366 278.089,-362.173 291.285,-358.856 303.865,-356.082"/>
<polygon fill="midnightblue" stroke="midnightblue" points="205.01,-386.53 197.428,-393.93 207.97,-392.873 205.01,-386.53"/>
</g>
<!-- Node10 -->
<g id="node10" class="node"><title>Node10</title>
<polygon fill="white" stroke="#bfbfbf" points="289.633,-297 289.633,-317 432.367,-317 432.367,-297 289.633,-297"/>
<text text-anchor="middle" x="361" y="-303" font-family="Helvetica,sans-Serif" font-size="10.00">cinder::ImageSourceSurface</text>
</g>
<!-- Node2&#45;&gt;Node10 -->
<g id="edge9" class="edge"><title>Node2&#45;&gt;Node10</title>
<path fill="none" stroke="midnightblue" d="M192.149,-386.494C208.539,-368.712 236.333,-341.752 266,-327 274.217,-322.914 283.242,-319.661 292.349,-317.071"/>
<polygon fill="midnightblue" stroke="midnightblue" points="189.537,-384.164 185.455,-393.941 194.743,-388.843 189.537,-384.164"/>
</g>
<!-- Node4 -->
<g id="node4" class="node"><title>Node4</title>
<g id="a_node4"><a xlink:href="classcinder_1_1_image_source_file_quartz.html" target="_top" xlink:title="cinder::ImageSourceFileQuartz">
<polygon fill="white" stroke="black" points="491.803,-537 491.803,-557 646.197,-557 646.197,-537 491.803,-537"/>
<text text-anchor="middle" x="569" y="-543" font-family="Helvetica,sans-Serif" font-size="10.00">cinder::ImageSourceFileQuartz</text>
</a>
</g>
</g>
<!-- Node3&#45;&gt;Node4 -->
<g id="edge3" class="edge"><title>Node3&#45;&gt;Node4</title>
<path fill="none" stroke="midnightblue" d="M441.594,-547C458.08,-547 475.41,-547 491.772,-547"/>
<polygon fill="midnightblue" stroke="midnightblue" points="441.455,-543.5 431.455,-547 441.455,-550.5 441.455,-543.5"/>
</g>
<!-- Node12 -->
<g id="node12" class="node"><title>Node12</title>
<g id="a_node12"><a xlink:href="classcinder_1_1cocoa_1_1_image_target_cg_image.html" target="_top" xlink:title="cinder::cocoa::ImageTarget\lCgImage">
<polygon fill="white" stroke="black" points="292.69,-246 292.69,-278 429.31,-278 429.31,-246 292.69,-246"/>
<text text-anchor="start" x="300.69" y="-264" font-family="Helvetica,sans-Serif" font-size="10.00">cinder::cocoa::ImageTarget</text>
<text text-anchor="middle" x="361" y="-252" font-family="Helvetica,sans-Serif" font-size="10.00">CgImage</text>
</a>
</g>
</g>
<!-- Node11&#45;&gt;Node12 -->
<g id="edge11" class="edge"><title>Node11&#45;&gt;Node12</title>
<path fill="none" stroke="midnightblue" d="M192.554,-175.666C209.09,-193.394 236.834,-220.265 266,-236 274.196,-240.422 283.209,-244.144 292.31,-247.262"/>
<polygon fill="midnightblue" stroke="midnightblue" points="195.104,-173.268 185.78,-168.237 189.931,-177.984 195.104,-173.268"/>
</g>
<!-- Node14 -->
<g id="node14" class="node"><title>Node14</title>
<polygon fill="white" stroke="#bfbfbf" points="266.557,-207 266.557,-227 455.443,-227 455.443,-207 266.557,-207"/>
<text text-anchor="middle" x="361" y="-213" font-family="Helvetica,sans-Serif" font-size="10.00">cinder::dx::ImageTargetGLTexture&lt; T &gt;</text>
</g>
<!-- Node11&#45;&gt;Node14 -->
<g id="edge13" class="edge"><title>Node11&#45;&gt;Node14</title>
<path fill="none" stroke="midnightblue" d="M206.124,-172.559C223.23,-180.651 245.461,-190.391 266,-197 277.912,-200.833 290.912,-204.137 303.341,-206.892"/>
<polygon fill="midnightblue" stroke="midnightblue" points="207.225,-169.204 196.696,-168.02 204.189,-175.511 207.225,-169.204"/>
</g>
<!-- Node15 -->
<g id="node15" class="node"><title>Node15</title>
<polygon fill="white" stroke="#bfbfbf" points="267.946,-168 267.946,-188 454.054,-188 454.054,-168 267.946,-168"/>
<text text-anchor="middle" x="361" y="-174" font-family="Helvetica,sans-Serif" font-size="10.00">cinder::gl::ImageTargetGLTexture&lt; T &gt;</text>
</g>
<!-- Node11&#45;&gt;Node15 -->
<g id="edge14" class="edge"><title>Node11&#45;&gt;Node15</title>
<path fill="none" stroke="midnightblue" d="M238.642,-164.737C248.222,-165.784 258.292,-166.884 268.364,-167.985"/>
<polygon fill="midnightblue" stroke="midnightblue" points="238.784,-161.232 228.463,-163.624 238.023,-168.19 238.784,-161.232"/>
</g>
<!-- Node16 -->
<g id="node16" class="node"><title>Node16</title>
<polygon fill="white" stroke="#bfbfbf" points="278.688,-129 278.688,-149 443.312,-149 443.312,-129 278.688,-129"/>
<text text-anchor="middle" x="361" y="-135" font-family="Helvetica,sans-Serif" font-size="10.00">cinder::ImageTargetChannel&lt; T &gt;</text>
</g>
<!-- Node11&#45;&gt;Node16 -->
<g id="edge15" class="edge"><title>Node11&#45;&gt;Node16</title>
<path fill="none" stroke="midnightblue" d="M238.531,-151.612C251.348,-150.281 265.048,-148.858 278.458,-147.466"/>
<polygon fill="midnightblue" stroke="midnightblue" points="238.048,-148.143 228.463,-152.657 238.771,-155.105 238.048,-148.143"/>
</g>
<!-- Node17 -->
<g id="node17" class="node"><title>Node17</title>
<g id="a_node17"><a xlink:href="classcinder_1_1_image_target_file_wic.html" target="_top" xlink:title="cinder::ImageTargetFileWic">
<polygon fill="white" stroke="black" points="292.424,-90 292.424,-110 429.576,-110 429.576,-90 292.424,-90"/>
<text text-anchor="middle" x="361" y="-96" font-family="Helvetica,sans-Serif" font-size="10.00">cinder::ImageTargetFileWic</text>
</a>
</g>
</g>
<!-- Node11&#45;&gt;Node17 -->
<g id="edge16" class="edge"><title>Node11&#45;&gt;Node17</title>
<path fill="none" stroke="midnightblue" d="M206.838,-143.539C223.864,-135.728 245.782,-126.4 266,-120 278.089,-116.173 291.285,-112.856 303.865,-110.082"/>
<polygon fill="midnightblue" stroke="midnightblue" points="205.01,-140.53 197.428,-147.93 207.97,-146.873 205.01,-140.53"/>
</g>
<!-- Node18 -->
<g id="node18" class="node"><title>Node18</title>
<polygon fill="white" stroke="#bfbfbf" points="280.083,-51 280.083,-71 441.917,-71 441.917,-51 280.083,-51"/>
<text text-anchor="middle" x="361" y="-57" font-family="Helvetica,sans-Serif" font-size="10.00">cinder::ImageTargetSurface&lt; T &gt;</text>
</g>
<!-- Node11&#45;&gt;Node18 -->
<g id="edge17" class="edge"><title>Node11&#45;&gt;Node18</title>
<path fill="none" stroke="midnightblue" d="M192.149,-140.494C208.539,-122.712 236.333,-95.7519 266,-81 274.217,-76.9142 283.242,-73.6609 292.349,-71.071"/>
<polygon fill="midnightblue" stroke="midnightblue" points="189.537,-138.164 185.455,-147.941 194.743,-142.843 189.537,-138.164"/>
</g>
<!-- Node19 -->
<g id="node19" class="node"><title>Node19</title>
<g id="a_node19"><a xlink:href="classcinder_1_1qtime_1_1_image_target_cv_pixel_buffer.html" target="_top" xlink:title="cinder::qtime::ImageTarget\lCvPixelBuffer">
<polygon fill="white" stroke="black" points="293.806,-0 293.806,-32 428.194,-32 428.194,-0 293.806,-0"/>
<text text-anchor="start" x="301.806" y="-18" font-family="Helvetica,sans-Serif" font-size="10.00">cinder::qtime::ImageTarget</text>
<text text-anchor="middle" x="361" y="-6" font-family="Helvetica,sans-Serif" font-size="10.00">CvPixelBuffer</text>
</a>
</g>
</g>
<!-- Node11&#45;&gt;Node19 -->
<g id="edge18" class="edge"><title>Node11&#45;&gt;Node19</title>
<path fill="none" stroke="midnightblue" d="M186.655,-138.66C200.6,-112.725 228.837,-67.0502 266,-42 274.284,-36.4162 283.742,-32.0252 293.394,-28.5738"/>
<polygon fill="midnightblue" stroke="midnightblue" points="183.384,-137.363 181.87,-147.85 189.593,-140.597 183.384,-137.363"/>
</g>
<!-- Node13 -->
<g id="node13" class="node"><title>Node13</title>
<g id="a_node13"><a xlink:href="classcinder_1_1_image_target_file_quartz.html" target="_top" xlink:title="cinder::ImageTargetFileQuartz">
<polygon fill="white" stroke="black" points="493.749,-252 493.749,-272 644.251,-272 644.251,-252 493.749,-252"/>
<text text-anchor="middle" x="569" y="-258" font-family="Helvetica,sans-Serif" font-size="10.00">cinder::ImageTargetFileQuartz</text>
</a>
</g>
</g>
<!-- Node12&#45;&gt;Node13 -->
<g id="edge12" class="edge"><title>Node12&#45;&gt;Node13</title>
<path fill="none" stroke="midnightblue" d="M439.715,-262C457.383,-262 476.109,-262 493.634,-262"/>
<polygon fill="midnightblue" stroke="midnightblue" points="439.452,-258.5 429.452,-262 439.452,-265.5 439.452,-258.5"/>
</g>
</g>
</svg>
        <g id="navigator" transform="translate(0 0)" fill="#404254">
                <rect fill="#f2f5e9" fill-opacity="0.5" stroke="#606060" stroke-width=".5" x="0" y="0" width="60" height="60"/>
                <use id="zoomplus" xlink:href="#zoomPlus" x="17" y="9" onmousedown="handleZoom(evt,'in')"/>
                <use id="zoomminus" xlink:href="#zoomMin" x="42" y="9" onmousedown="handleZoom(evt,'out')"/>
                <use id="reset" xlink:href="#resetDef" x="30" y="36" onmousedown="handleReset()"/>
                <g id="arrowUp" xlink:href="#dirArrow" transform="translate(30 24)" onmousedown="handlePan(0,-1)">
                  <use xlink:href="#rim" fill="#404040">
                        <set attributeName="fill" to="#808080" begin="arrowUp.mouseover" end="arrowUp.mouseout"/>
                  </use>
                  <path fill="none" stroke="white" stroke-width="1.5" d="M0,-3.0v7 M-2.5,-0.5L0,-3.0L2.5,-0.5"/>
                </g>
                <g id="arrowRight" xlink:href="#dirArrow" transform="rotate(90) translate(36 -43)" onmousedown="handlePan(1,0)">
                  <use xlink:href="#rim" fill="#404040">
                        <set attributeName="fill" to="#808080" begin="arrowRight.mouseover" end="arrowRight.mouseout"/>
                  </use>
                  <path fill="none" stroke="white" stroke-width="1.5" d="M0,-3.0v7 M-2.5,-0.5L0,-3.0L2.5,-0.5"/>
                </g>
                <g id="arrowDown" xlink:href="#dirArrow" transform="rotate(180) translate(-30 -48)" onmousedown="handlePan(0,1)">
                  <use xlink:href="#rim" fill="#404040">
                        <set attributeName="fill" to="#808080" begin="arrowDown.mouseover" end="arrowDown.mouseout"/>
                  </use>
                  <path fill="none" stroke="white" stroke-width="1.5" d="M0,-3.0v7 M-2.5,-0.5L0,-3.0L2.5,-0.5"/>
                </g>
                <g id="arrowLeft" xlink:href="#dirArrow" transform="rotate(270) translate(-36 17)" onmousedown="handlePan(-1,0)">
                  <use xlink:href="#rim" fill="#404040">
                        <set attributeName="fill" to="#808080" begin="arrowLeft.mouseover" end="arrowLeft.mouseout"/>
                  </use>
                  <path fill="none" stroke="white" stroke-width="1.5" d="M0,-3.0v7 M-2.5,-0.5L0,-3.0L2.5,-0.5"/>
                </g>
        </g>
        <svg viewBox="0 0 15 15" width="100%" height="30px" preserveAspectRatio="xMaxYMin meet">
         <g id="arrow_out" transform="scale(0.3 0.3)">
          <a xlink:href="classcinder_1_1_image_io__inherit__graph_org.svg" target="_base">
           <rect id="button" ry="5" rx="5" y="6" x="6" height="38" width="38"
                fill="#f2f5e9" fill-opacity="0.5" stroke="#606060" stroke-width="1.0"/>
           <path id="arrow"
             d="M 11.500037,31.436501 C 11.940474,20.09759 22.043105,11.32322 32.158766,21.979434 L 37.068811,17.246167 C 37.068811,17.246167 37.088388,32 37.088388,32 L 22.160133,31.978069 C 22.160133,31.978069 26.997745,27.140456 26.997745,27.140456 C 18.528582,18.264221 13.291696,25.230495 11.500037,31.436501 z"
             style="fill:#404040;"/>
          </a>
         </g>
        </svg>
</svg>
