<?xml version="1.0" encoding="UTF-8" standalone="no"?>
<!DOCTYPE svg PUBLIC "-//W3C//DTD SVG 1.1//EN"
 "http://www.w3.org/Graphics/SVG/1.1/DTD/svg11.dtd">
<!-- Generated by graphviz version 2.30.1 (20140712.1814)
 -->
<!-- Title: cinder::audio::Node Pages: 1 -->
<!--zoomable 586 -->
<svg id="main" version="1.1" xmlns="http://www.w3.org/2000/svg" xmlns:xlink="http://www.w3.org/1999/xlink" xml:space="preserve" onload="init(evt)">
<style type="text/css"><![CDATA[
.edge:hover path { stroke: red; }
.edge:hover polygon { stroke: red; fill: red; }
]]></style>
<script type="text/javascript"><![CDATA[
var edges = document.getElementsByTagName('g');
if (edges && edges.length) {
  for (var i=0;i<edges.length;i++) {
    if (edges[i].id.substr(0,4)=='edge') {
      edges[i].setAttribute('class','edge');
    }
  }
}
]]></script>
        <defs>
                <circle id="rim" cx="0" cy="0" r="7"/>
                <circle id="rim2" cx="0" cy="0" r="3.5"/>
                <g id="zoomPlus">
                        <use xlink:href="#rim" fill="#404040">
                                <set attributeName="fill" to="#808080" begin="zoomplus.mouseover" end="zoomplus.mouseout"/>
                        </use>
                        <path d="M-4,0h8M0,-4v8" fill="none" stroke="white" stroke-width="1.5" pointer-events="none"/>
                </g>
                <g id="zoomMin">
                        <use xlink:href="#rim" fill="#404040">
                                <set attributeName="fill" to="#808080" begin="zoomminus.mouseover" end="zoomminus.mouseout"/>
                        </use>
                        <path d="M-4,0h8" fill="none" stroke="white" stroke-width="1.5" pointer-events="none"/>
                </g>
                <g id="dirArrow">
                        <path fill="none" stroke="white" stroke-width="1.5" d="M0,-3.0v7 M-2.5,-0.5L0,-3.0L2.5,-0.5"/>
                </g>
               <g id="resetDef">
                       <use xlink:href="#rim2" fill="#404040">
                               <set attributeName="fill" to="#808080" begin="reset.mouseover" end="reset.mouseout"/>
                       </use>
               </g>
        </defs>

<script type="text/javascript">
var viewWidth = 890;
var viewHeight = 586;
var sectionId = 'dynsection-0';
</script>
<script xlink:href="svgpan.js"/>
<svg id="graph" class="graph">
<g id="viewport">
<title>cinder::audio::Node</title>
<polygon fill="white" stroke="white" points="-4,5 -4,-582 887,-582 887,5 -4,5"/>
<!-- Node1 -->
<g id="node1" class="node"><title>Node1</title>
<polygon fill="#bfbfbf" stroke="black" points="140.638,-324 140.638,-344 243.362,-344 243.362,-324 140.638,-324"/>
<text text-anchor="middle" x="192" y="-330" font-family="Helvetica,sans-Serif" font-size="10.00">cinder::audio::Node</text>
</g>
<!-- Node4 -->
<g id="node4" class="node"><title>Node4</title>
<g id="a_node4"><a xlink:href="classcinder_1_1audio_1_1_channel_router_node.html" target="_top" xlink:title="Node for mapping input channels to output channels. ">
<polygon fill="white" stroke="black" points="280.005,-492 280.005,-512 449.995,-512 449.995,-492 280.005,-492"/>
<text text-anchor="middle" x="365" y="-498" font-family="Helvetica,sans-Serif" font-size="10.00">cinder::audio::ChannelRouterNode</text>
</a>
</g>
</g>
<!-- Node1&#45;&gt;Node4 -->
<g id="edge3" class="edge"><title>Node1&#45;&gt;Node4</title>
<path fill="none" stroke="midnightblue" d="M198.962,-353.766C209.7,-385.866 235.426,-449.051 280,-482 285.545,-486.099 291.81,-489.371 298.356,-491.98"/>
<polygon fill="midnightblue" stroke="midnightblue" points="202.269,-352.618 195.889,-344.16 195.602,-354.751 202.269,-352.618"/>
</g>
<!-- Node5 -->
<g id="node5" class="node"><title>Node5</title>
<g id="a_node5"><a xlink:href="classcinder_1_1audio_1_1cocoa_1_1_effect_audio_unit_node.html" target="_top" xlink:title="cinder::audio::cocoa\l::EffectAudioUnitNode">
<polygon fill="white" stroke="black" points="307.894,-441 307.894,-473 422.106,-473 422.106,-441 307.894,-441"/>
<text text-anchor="start" x="315.894" y="-459" font-family="Helvetica,sans-Serif" font-size="10.00">cinder::audio::cocoa</text>
<text text-anchor="middle" x="365" y="-447" font-family="Helvetica,sans-Serif" font-size="10.00">::EffectAudioUnitNode</text>
</a>
</g>
</g>
<!-- Node1&#45;&gt;Node5 -->
<g id="edge4" class="edge"><title>Node1&#45;&gt;Node5</title>
<path fill="none" stroke="midnightblue" d="M204.962,-352.557C219.962,-374.389 247.67,-410.28 280,-431 288.483,-436.436 298.175,-440.798 307.889,-444.277"/>
<polygon fill="midnightblue" stroke="midnightblue" points="207.805,-350.511 199.335,-344.146 201.987,-354.404 207.805,-350.511"/>
</g>
<!-- Node6 -->
<g id="node6" class="node"><title>Node6</title>
<g id="a_node6"><a xlink:href="classcinder_1_1audio_1_1_delay_node.html" target="_top" xlink:title="General purpose delay line, supporting variable delay with linear interpolation. ">
<polygon fill="white" stroke="black" points="300.855,-402 300.855,-422 429.145,-422 429.145,-402 300.855,-402"/>
<text text-anchor="middle" x="365" y="-408" font-family="Helvetica,sans-Serif" font-size="10.00">cinder::audio::DelayNode</text>
</a>
</g>
</g>
<!-- Node1&#45;&gt;Node6 -->
<g id="edge5" class="edge"><title>Node1&#45;&gt;Node6</title>
<path fill="none" stroke="midnightblue" d="M213.178,-350.484C230.082,-363.52 255.341,-381.257 280,-392 289.208,-396.012 299.35,-399.293 309.306,-401.953"/>
<polygon fill="midnightblue" stroke="midnightblue" points="215.168,-347.596 205.147,-344.157 210.836,-353.095 215.168,-347.596"/>
</g>
<!-- Node7 -->
<g id="node7" class="node"><title>Node7</title>
<g id="a_node7"><a xlink:href="classcinder_1_1audio_1_1_filter_biquad_node.html" target="_top" xlink:title="General class for filtering nodes based on a biquad (two pole, two zero) filter. ">
<polygon fill="white" stroke="black" points="286.958,-363 286.958,-383 443.042,-383 443.042,-363 286.958,-363"/>
<text text-anchor="middle" x="365" y="-369" font-family="Helvetica,sans-Serif" font-size="10.00">cinder::audio::FilterBiquadNode</text>
</a>
</g>
</g>
<!-- Node1&#45;&gt;Node7 -->
<g id="edge6" class="edge"><title>Node1&#45;&gt;Node7</title>
<path fill="none" stroke="midnightblue" d="M246.89,-346.291C270.475,-351.67 297.795,-357.901 320.112,-362.991"/>
<polygon fill="midnightblue" stroke="midnightblue" points="247.565,-342.855 237.037,-344.043 246.008,-349.68 247.565,-342.855"/>
</g>
<!-- Node11 -->
<g id="node11" class="node"><title>Node11</title>
<g id="a_node11"><a xlink:href="classcinder_1_1audio_1_1_input_node.html" target="_top" xlink:title="InputNode is the base class for Node&#39;s that produce audio. It cannot have any inputs. ">
<polygon fill="white" stroke="black" points="302.518,-324 302.518,-344 427.482,-344 427.482,-324 302.518,-324"/>
<text text-anchor="middle" x="365" y="-330" font-family="Helvetica,sans-Serif" font-size="10.00">cinder::audio::InputNode</text>
</a>
</g>
</g>
<!-- Node1&#45;&gt;Node11 -->
<g id="edge10" class="edge"><title>Node1&#45;&gt;Node11</title>
<path fill="none" stroke="midnightblue" d="M253.597,-334C269.457,-334 286.569,-334 302.476,-334"/>
<polygon fill="midnightblue" stroke="midnightblue" points="253.381,-330.5 243.381,-334 253.381,-337.5 253.381,-330.5"/>
</g>
<!-- Node26 -->
<g id="node26" class="node"><title>Node26</title>
<g id="a_node26"><a xlink:href="classcinder_1_1audio_1_1_math_node.html" target="_top" xlink:title="Base class for an arithmetic based Node. ">
<polygon fill="white" stroke="black" points="302.522,-207 302.522,-227 427.478,-227 427.478,-207 302.522,-207"/>
<text text-anchor="middle" x="365" y="-213" font-family="Helvetica,sans-Serif" font-size="10.00">cinder::audio::MathNode</text>
</a>
</g>
</g>
<!-- Node1&#45;&gt;Node26 -->
<g id="edge25" class="edge"><title>Node1&#45;&gt;Node26</title>
<path fill="none" stroke="midnightblue" d="M216.22,-318.112C251.885,-293.71 319.15,-247.687 349.037,-227.238"/>
<polygon fill="midnightblue" stroke="midnightblue" points="214.153,-315.286 207.876,-323.822 218.105,-321.063 214.153,-315.286"/>
</g>
<!-- Node32 -->
<g id="node32" class="node"><title>Node32</title>
<g id="a_node32"><a xlink:href="classcinder_1_1audio_1_1_node_auto_pullable.html" target="_top" xlink:title="a Node that can be pulled without being connected to any outputs. ">
<polygon fill="white" stroke="black" points="285.562,-129 285.562,-149 444.438,-149 444.438,-129 285.562,-129"/>
<text text-anchor="middle" x="365" y="-135" font-family="Helvetica,sans-Serif" font-size="10.00">cinder::audio::NodeAutoPullable</text>
</a>
</g>
</g>
<!-- Node1&#45;&gt;Node32 -->
<g id="edge31" class="edge"><title>Node1&#45;&gt;Node32</title>
<path fill="none" stroke="midnightblue" d="M202.175,-314.565C216.14,-286.374 244.854,-233.526 280,-197 299.414,-176.823 326.862,-159.459 345.031,-149.121"/>
<polygon fill="midnightblue" stroke="midnightblue" points="198.93,-313.234 197.712,-323.759 205.228,-316.291 198.93,-313.234"/>
</g>
<!-- Node37 -->
<g id="node37" class="node"><title>Node37</title>
<g id="a_node37"><a xlink:href="classcinder_1_1audio_1_1_output_node.html" target="_top" xlink:title="Base class for Node&#39;s that consume an audio signal, for example speakers. It cannot have any outputs...">
<polygon fill="white" stroke="black" points="298.628,-90 298.628,-110 431.372,-110 431.372,-90 298.628,-90"/>
<text text-anchor="middle" x="365" y="-96" font-family="Helvetica,sans-Serif" font-size="10.00">cinder::audio::OutputNode</text>
</a>
</g>
</g>
<!-- Node1&#45;&gt;Node37 -->
<g id="edge36" class="edge"><title>Node1&#45;&gt;Node37</title>
<path fill="none" stroke="midnightblue" d="M195.071,-313.428C200.548,-270.363 219.441,-170.462 280,-119 285.469,-114.353 291.84,-110.78 298.583,-108.043"/>
<polygon fill="midnightblue" stroke="midnightblue" points="191.574,-313.201 193.903,-323.536 198.528,-314.004 191.574,-313.201"/>
</g>
<!-- Node40 -->
<g id="node40" class="node"><title>Node40</title>
<g id="a_node40"><a xlink:href="classcinder_1_1audio_1_1_pan2d_node.html" target="_top" xlink:title="Simple stereo panning using an equal power cross&#45;fade. The panning position is specified by a single ...">
<polygon fill="white" stroke="black" points="299.18,-51 299.18,-71 430.82,-71 430.82,-51 299.18,-51"/>
<text text-anchor="middle" x="365" y="-57" font-family="Helvetica,sans-Serif" font-size="10.00">cinder::audio::Pan2dNode</text>
</a>
</g>
</g>
<!-- Node1&#45;&gt;Node40 -->
<g id="edge39" class="edge"><title>Node1&#45;&gt;Node40</title>
<path fill="none" stroke="midnightblue" d="M193.599,-313.795C196.175,-265.583 209.68,-143.136 280,-80 285.563,-75.0055 292.157,-71.2372 299.167,-68.4067"/>
<polygon fill="midnightblue" stroke="midnightblue" points="190.098,-313.749 193.167,-323.89 197.092,-314.049 190.098,-313.749"/>
</g>
<!-- Node2 -->
<g id="node2" class="node"><title>Node2</title>
<polygon fill="white" stroke="#bfbfbf" points="0.0864258,-341 0.0864258,-373 103.914,-373 103.914,-341 0.0864258,-341"/>
<text text-anchor="start" x="8.08643" y="-359" font-family="Helvetica,sans-Serif" font-size="10.00">std::enable_shared</text>
<text text-anchor="middle" x="52" y="-347" font-family="Helvetica,sans-Serif" font-size="10.00">_from_this&lt; Node &gt;</text>
</g>
<!-- Node2&#45;&gt;Node1 -->
<g id="edge1" class="edge"><title>Node2&#45;&gt;Node1</title>
<path fill="none" stroke="midnightblue" d="M114.117,-346.814C122.835,-345.361 131.724,-343.879 140.216,-342.464"/>
<polygon fill="midnightblue" stroke="midnightblue" points="113.283,-343.405 103.994,-348.501 114.433,-350.309 113.283,-343.405"/>
</g>
<!-- Node3 -->
<g id="node3" class="node"><title>Node3</title>
<polygon fill="white" stroke="#bfbfbf" points="15.6431,-302 15.6431,-322 88.3569,-322 88.3569,-302 15.6431,-302"/>
<text text-anchor="middle" x="52" y="-308" font-family="Helvetica,sans-Serif" font-size="10.00">noncopyable</text>
</g>
<!-- Node3&#45;&gt;Node1 -->
<g id="edge2" class="edge"><title>Node3&#45;&gt;Node1</title>
<path fill="none" stroke="midnightblue" d="M98.5171,-319.256C111.963,-321.4 126.759,-323.759 140.498,-325.949"/>
<polygon fill="midnightblue" stroke="midnightblue" points="98.9648,-315.784 88.5384,-317.666 97.8627,-322.696 98.9648,-315.784"/>
</g>
<!-- Node8 -->
<g id="node8" class="node"><title>Node8</title>
<g id="a_node8"><a xlink:href="classcinder_1_1audio_1_1_filter_band_pass_node.html" target="_top" xlink:title="A band&#45;pass filtering Node. This is a subclass of FilterBiquadNode and manages its configuration appr...">
<polygon fill="white" stroke="black" points="516.803,-543 516.803,-575 641.197,-575 641.197,-543 516.803,-543"/>
<text text-anchor="start" x="524.803" y="-561" font-family="Helvetica,sans-Serif" font-size="10.00">cinder::audio::FilterBand</text>
<text text-anchor="middle" x="579" y="-549" font-family="Helvetica,sans-Serif" font-size="10.00">PassNode</text>
</a>
</g>
</g>
<!-- Node7&#45;&gt;Node8 -->
<g id="edge7" class="edge"><title>Node7&#45;&gt;Node8</title>
<path fill="none" stroke="midnightblue" d="M444.747,-388.495C446.592,-389.88 448.349,-391.378 450,-393 495.835,-438.02 441.113,-487.035 486,-533 494.349,-541.55 505.28,-547.347 516.678,-551.264"/>
<polygon fill="midnightblue" stroke="midnightblue" points="446.491,-385.457 436.156,-383.125 442.78,-391.393 446.491,-385.457"/>
</g>
<!-- Node9 -->
<g id="node9" class="node"><title>Node9</title>
<g id="a_node9"><a xlink:href="classcinder_1_1audio_1_1_filter_high_pass_node.html" target="_top" xlink:title="A high&#45;pass filtering Node. This is a subclass of FilterBiquadNode and manages its configuration appr...">
<polygon fill="white" stroke="black" points="518.197,-492 518.197,-524 639.803,-524 639.803,-492 518.197,-492"/>
<text text-anchor="start" x="526.197" y="-510" font-family="Helvetica,sans-Serif" font-size="10.00">cinder::audio::FilterHigh</text>
<text text-anchor="middle" x="579" y="-498" font-family="Helvetica,sans-Serif" font-size="10.00">PassNode</text>
</a>
</g>
</g>
<!-- Node7&#45;&gt;Node9 -->
<g id="edge8" class="edge"><title>Node7&#45;&gt;Node9</title>
<path fill="none" stroke="midnightblue" d="M443.531,-388.171C445.795,-389.642 447.961,-391.247 450,-393 482.356,-420.816 454.23,-453.516 486,-482 495.021,-490.088 506.379,-495.678 518.006,-499.536"/>
<polygon fill="midnightblue" stroke="midnightblue" points="444.815,-384.884 434.364,-383.147 441.451,-391.023 444.815,-384.884"/>
</g>
<!-- Node10 -->
<g id="node10" class="node"><title>Node10</title>
<g id="a_node10"><a xlink:href="classcinder_1_1audio_1_1_filter_low_pass_node.html" target="_top" xlink:title="A low&#45;pass filtering Node. This is a subclass of FilterBiquadNode and manages its configuration appro...">
<polygon fill="white" stroke="black" points="519.308,-441 519.308,-473 638.692,-473 638.692,-441 519.308,-441"/>
<text text-anchor="start" x="527.308" y="-459" font-family="Helvetica,sans-Serif" font-size="10.00">cinder::audio::FilterLow</text>
<text text-anchor="middle" x="579" y="-447" font-family="Helvetica,sans-Serif" font-size="10.00">PassNode</text>
</a>
</g>
</g>
<!-- Node7&#45;&gt;Node10 -->
<g id="edge9" class="edge"><title>Node7&#45;&gt;Node10</title>
<path fill="none" stroke="midnightblue" d="M436.564,-386.522C441.233,-388.407 445.759,-390.554 450,-393 470.154,-404.622 466.093,-418.961 486,-431 496.084,-437.098 507.651,-441.814 519.103,-445.445"/>
<polygon fill="midnightblue" stroke="midnightblue" points="437.419,-383.11 426.825,-383.01 435.044,-389.695 437.419,-383.11"/>
</g>
<!-- Node12 -->
<g id="node12" class="node"><title>Node12</title>
<g id="a_node12"><a xlink:href="classcinder_1_1audio_1_1_callback_processor_node.html" target="_top" xlink:title="InputNode that processes audio with a std::function callback. ">
<polygon fill="white" stroke="black" points="485.956,-402 485.956,-422 672.044,-422 672.044,-402 485.956,-402"/>
<text text-anchor="middle" x="579" y="-408" font-family="Helvetica,sans-Serif" font-size="10.00">cinder::audio::CallbackProcessorNode</text>
</a>
</g>
</g>
<!-- Node11&#45;&gt;Node12 -->
<g id="edge11" class="edge"><title>Node11&#45;&gt;Node12</title>
<path fill="none" stroke="midnightblue" d="M436.564,-347.522C441.233,-349.407 445.759,-351.554 450,-354 470.154,-365.622 465.733,-380.577 486,-392 493.262,-396.093 501.282,-399.349 509.469,-401.939"/>
<polygon fill="midnightblue" stroke="midnightblue" points="437.419,-344.11 426.825,-344.01 435.044,-350.695 437.419,-344.11"/>
</g>
<!-- Node13 -->
<g id="node13" class="node"><title>Node13</title>
<g id="a_node13"><a xlink:href="classcinder_1_1audio_1_1_gen_node.html" target="_top" xlink:title="Base class for InputNode&#39;s that generate audio samples. Gen&#39;s are always mono channel. ">
<polygon fill="white" stroke="black" points="518.188,-363 518.188,-383 639.812,-383 639.812,-363 518.188,-363"/>
<text text-anchor="middle" x="579" y="-369" font-family="Helvetica,sans-Serif" font-size="10.00">cinder::audio::GenNode</text>
</a>
</g>
</g>
<!-- Node11&#45;&gt;Node13 -->
<g id="edge12" class="edge"><title>Node11&#45;&gt;Node13</title>
<path fill="none" stroke="midnightblue" d="M430.472,-345.86C460.232,-351.335 495.18,-357.764 523.59,-362.991"/>
<polygon fill="midnightblue" stroke="midnightblue" points="431.064,-342.411 420.595,-344.043 429.797,-349.295 431.064,-342.411"/>
</g>
<!-- Node21 -->
<g id="node21" class="node"><title>Node21</title>
<g id="a_node21"><a xlink:href="classcinder_1_1audio_1_1_input_device_node.html" target="_top" xlink:title="Interface representing a Node that communicates with a hardware input device. This is typically a mic...">
<polygon fill="white" stroke="black" points="501.234,-324 501.234,-344 656.766,-344 656.766,-324 501.234,-324"/>
<text text-anchor="middle" x="579" y="-330" font-family="Helvetica,sans-Serif" font-size="10.00">cinder::audio::InputDeviceNode</text>
</a>
</g>
</g>
<!-- Node11&#45;&gt;Node21 -->
<g id="edge20" class="edge"><title>Node11&#45;&gt;Node21</title>
<path fill="none" stroke="midnightblue" d="M437.766,-334C458.168,-334 480.466,-334 501.156,-334"/>
<polygon fill="midnightblue" stroke="midnightblue" points="437.604,-330.5 427.604,-334 437.604,-337.5 437.604,-330.5"/>
</g>
<!-- Node23 -->
<g id="node23" class="node"><title>Node23</title>
<g id="a_node23"><a xlink:href="classcinder_1_1audio_1_1_sample_player_node.html" target="_top" xlink:title="Base Node class for sampled audio playback. Can do operations like seek and loop. ...">
<polygon fill="white" stroke="black" points="496.513,-285 496.513,-305 661.487,-305 661.487,-285 496.513,-285"/>
<text text-anchor="middle" x="579" y="-291" font-family="Helvetica,sans-Serif" font-size="10.00">cinder::audio::SamplePlayerNode</text>
</a>
</g>
</g>
<!-- Node11&#45;&gt;Node23 -->
<g id="edge22" class="edge"><title>Node11&#45;&gt;Node23</title>
<path fill="none" stroke="midnightblue" d="M430.472,-322.14C460.232,-316.665 495.18,-310.236 523.59,-305.009"/>
<polygon fill="midnightblue" stroke="midnightblue" points="429.797,-318.705 420.595,-323.957 431.064,-325.589 429.797,-318.705"/>
</g>
<!-- Node14 -->
<g id="node14" class="node"><title>Node14</title>
<g id="a_node14"><a xlink:href="classcinder_1_1audio_1_1_gen_noise_node.html" target="_top" xlink:title="Noise generator. ">
<polygon fill="white" stroke="black" points="721.404,-558 721.404,-578 868.596,-578 868.596,-558 721.404,-558"/>
<text text-anchor="middle" x="795" y="-564" font-family="Helvetica,sans-Serif" font-size="10.00">cinder::audio::GenNoiseNode</text>
</a>
</g>
</g>
<!-- Node13&#45;&gt;Node14 -->
<g id="edge13" class="edge"><title>Node13&#45;&gt;Node14</title>
<path fill="none" stroke="midnightblue" d="M649.48,-379.044C657.847,-382.249 665.657,-386.747 672,-393 722.361,-442.653 657.999,-497.984 708,-548 712.01,-552.011 716.657,-555.281 721.674,-557.939"/>
<polygon fill="midnightblue" stroke="midnightblue" points="650.437,-375.675 639.846,-375.948 648.296,-382.34 650.437,-375.675"/>
</g>
<!-- Node15 -->
<g id="node15" class="node"><title>Node15</title>
<g id="a_node15"><a xlink:href="classcinder_1_1audio_1_1_gen_osc_node.html" target="_top" xlink:title="General purpose, band&#45;limited oscillator using wavetable lookup. ">
<polygon fill="white" stroke="black" points="725.298,-519 725.298,-539 864.702,-539 864.702,-519 725.298,-519"/>
<text text-anchor="middle" x="795" y="-525" font-family="Helvetica,sans-Serif" font-size="10.00">cinder::audio::GenOscNode</text>
</a>
</g>
</g>
<!-- Node13&#45;&gt;Node15 -->
<g id="edge14" class="edge"><title>Node13&#45;&gt;Node15</title>
<path fill="none" stroke="midnightblue" d="M649.402,-379.606C657.707,-382.735 665.522,-387.061 672,-393 711.792,-429.477 668.473,-472.236 708,-509 712.939,-513.593 718.72,-517.199 724.909,-520.02"/>
<polygon fill="midnightblue" stroke="midnightblue" points="650.454,-376.268 639.863,-376.559 648.324,-382.936 650.454,-376.268"/>
</g>
<!-- Node16 -->
<g id="node16" class="node"><title>Node16</title>
<g id="a_node16"><a xlink:href="classcinder_1_1audio_1_1_gen_phasor_node.html" target="_top" xlink:title="Phase generator, i.e. ramping waveform that runs from 0 to 1. ">
<polygon fill="white" stroke="black" points="718.345,-480 718.345,-500 871.655,-500 871.655,-480 718.345,-480"/>
<text text-anchor="middle" x="795" y="-486" font-family="Helvetica,sans-Serif" font-size="10.00">cinder::audio::GenPhasorNode</text>
</a>
</g>
</g>
<!-- Node13&#45;&gt;Node16 -->
<g id="edge15" class="edge"><title>Node13&#45;&gt;Node16</title>
<path fill="none" stroke="midnightblue" d="M649.618,-380.8C657.692,-383.761 665.39,-387.722 672,-393 701.523,-416.571 678.648,-446.217 708,-470 713.002,-474.053 718.678,-477.315 724.671,-479.935"/>
<polygon fill="midnightblue" stroke="midnightblue" points="650.598,-377.439 640.008,-377.764 648.489,-384.114 650.598,-377.439"/>
</g>
<!-- Node17 -->
<g id="node17" class="node"><title>Node17</title>
<g id="a_node17"><a xlink:href="classcinder_1_1audio_1_1_gen_pulse_node.html" target="_top" xlink:title="Pulse waveform generator with variable pulse width. Based on wavetable lookup of two band&#45;limited saw...">
<polygon fill="white" stroke="black" points="721.68,-441 721.68,-461 868.32,-461 868.32,-441 721.68,-441"/>
<text text-anchor="middle" x="795" y="-447" font-family="Helvetica,sans-Serif" font-size="10.00">cinder::audio::GenPulseNode</text>
</a>
</g>
</g>
<!-- Node13&#45;&gt;Node17 -->
<g id="edge16" class="edge"><title>Node13&#45;&gt;Node17</title>
<path fill="none" stroke="midnightblue" d="M649.467,-383.36C657.329,-385.901 665.015,-389.063 672,-393 692.267,-404.423 687.816,-419.431 708,-431 715.182,-435.116 723.16,-438.386 731.28,-440.983"/>
<polygon fill="midnightblue" stroke="midnightblue" points="650.404,-379.988 639.825,-380.56 648.452,-386.71 650.404,-379.988"/>
</g>
<!-- Node18 -->
<g id="node18" class="node"><title>Node18</title>
<g id="a_node18"><a xlink:href="classcinder_1_1audio_1_1_gen_sine_node.html" target="_top" xlink:title="Sine waveform generator. ">
<polygon fill="white" stroke="black" points="724.18,-402 724.18,-422 865.82,-422 865.82,-402 724.18,-402"/>
<text text-anchor="middle" x="795" y="-408" font-family="Helvetica,sans-Serif" font-size="10.00">cinder::audio::GenSineNode</text>
</a>
</g>
</g>
<!-- Node13&#45;&gt;Node18 -->
<g id="edge17" class="edge"><title>Node13&#45;&gt;Node18</title>
<path fill="none" stroke="midnightblue" d="M645.08,-384.86C675.121,-390.335 710.399,-396.764 739.076,-401.991"/>
<polygon fill="midnightblue" stroke="midnightblue" points="645.576,-381.393 635.11,-383.043 644.321,-388.28 645.576,-381.393"/>
</g>
<!-- Node19 -->
<g id="node19" class="node"><title>Node19</title>
<g id="a_node19"><a xlink:href="classcinder_1_1audio_1_1_gen_table_node.html" target="_top" xlink:title="Basic table&#45;lookup oscillator. ">
<polygon fill="white" stroke="black" points="722.234,-363 722.234,-383 867.766,-383 867.766,-363 722.234,-363"/>
<text text-anchor="middle" x="795" y="-369" font-family="Helvetica,sans-Serif" font-size="10.00">cinder::audio::GenTableNode</text>
</a>
</g>
</g>
<!-- Node13&#45;&gt;Node19 -->
<g id="edge18" class="edge"><title>Node13&#45;&gt;Node19</title>
<path fill="none" stroke="midnightblue" d="M649.951,-373C673.027,-373 698.726,-373 721.956,-373"/>
<polygon fill="midnightblue" stroke="midnightblue" points="649.896,-369.5 639.895,-373 649.895,-376.5 649.896,-369.5"/>
</g>
<!-- Node20 -->
<g id="node20" class="node"><title>Node20</title>
<g id="a_node20"><a xlink:href="classcinder_1_1audio_1_1_gen_triangle_node.html" target="_top" xlink:title="Triangle waveform generator. ">
<polygon fill="white" stroke="black" points="716.307,-324 716.307,-344 873.693,-344 873.693,-324 716.307,-324"/>
<text text-anchor="middle" x="795" y="-330" font-family="Helvetica,sans-Serif" font-size="10.00">cinder::audio::GenTriangleNode</text>
</a>
</g>
</g>
<!-- Node13&#45;&gt;Node20 -->
<g id="edge19" class="edge"><title>Node13&#45;&gt;Node20</title>
<path fill="none" stroke="midnightblue" d="M645.08,-361.14C675.121,-355.665 710.399,-349.236 739.076,-344.009"/>
<polygon fill="midnightblue" stroke="midnightblue" points="644.321,-357.72 635.11,-362.957 645.576,-364.607 644.321,-357.72"/>
</g>
<!-- Node22 -->
<g id="node22" class="node"><title>Node22</title>
<g id="a_node22"><a xlink:href="classcinder_1_1audio_1_1cocoa_1_1_input_device_node_audio_unit.html" target="_top" xlink:title="cinder::audio::cocoa\l::InputDeviceNodeAudioUnit">
<polygon fill="white" stroke="black" points="724.185,-273 724.185,-305 865.815,-305 865.815,-273 724.185,-273"/>
<text text-anchor="start" x="732.185" y="-291" font-family="Helvetica,sans-Serif" font-size="10.00">cinder::audio::cocoa</text>
<text text-anchor="middle" x="795" y="-279" font-family="Helvetica,sans-Serif" font-size="10.00">::InputDeviceNodeAudioUnit</text>
</a>
</g>
</g>
<!-- Node21&#45;&gt;Node22 -->
<g id="edge21" class="edge"><title>Node21&#45;&gt;Node22</title>
<path fill="none" stroke="midnightblue" d="M637.681,-321.871C664.282,-316.277 696.088,-309.589 724.045,-303.71"/>
<polygon fill="midnightblue" stroke="midnightblue" points="636.825,-318.474 627.759,-323.957 638.266,-325.324 636.825,-318.474"/>
</g>
<!-- Node24 -->
<g id="node24" class="node"><title>Node24</title>
<g id="a_node24"><a xlink:href="classcinder_1_1audio_1_1_buffer_player_node.html" target="_top" xlink:title="Buffer&#45;based SamplePlayerNode, where all samples are loaded into memory before playback. ">
<polygon fill="white" stroke="black" points="716.214,-234 716.214,-254 873.786,-254 873.786,-234 716.214,-234"/>
<text text-anchor="middle" x="795" y="-240" font-family="Helvetica,sans-Serif" font-size="10.00">cinder::audio::BufferPlayerNode</text>
</a>
</g>
</g>
<!-- Node23&#45;&gt;Node24 -->
<g id="edge23" class="edge"><title>Node23&#45;&gt;Node24</title>
<path fill="none" stroke="midnightblue" d="M640.771,-282.759C651.234,-280.375 661.966,-277.754 672,-275 688.264,-270.535 691.744,-267.492 708,-263 719.643,-259.783 732.29,-256.742 744.213,-254.075"/>
<polygon fill="midnightblue" stroke="midnightblue" points="639.853,-279.378 630.854,-284.969 641.376,-286.21 639.853,-279.378"/>
</g>
<!-- Node25 -->
<g id="node25" class="node"><title>Node25</title>
<g id="a_node25"><a xlink:href="classcinder_1_1audio_1_1_file_player_node.html" target="_top" xlink:title="File&#45;based SamplePlayerNode, where samples are constantly streamed from file. Suitable for large audi...">
<polygon fill="white" stroke="black" points="721.409,-195 721.409,-215 868.591,-215 868.591,-195 721.409,-195"/>
<text text-anchor="middle" x="795" y="-201" font-family="Helvetica,sans-Serif" font-size="10.00">cinder::audio::FilePlayerNode</text>
</a>
</g>
</g>
<!-- Node23&#45;&gt;Node25 -->
<g id="edge24" class="edge"><title>Node23&#45;&gt;Node25</title>
<path fill="none" stroke="midnightblue" d="M661.394,-280.964C665.088,-279.201 668.647,-277.222 672,-275 695.13,-259.677 684.896,-239.362 708,-224 713.475,-220.36 719.537,-217.406 725.835,-215.011"/>
<polygon fill="midnightblue" stroke="midnightblue" points="659.842,-277.819 651.974,-284.916 662.55,-284.274 659.842,-277.819"/>
</g>
<!-- Node27 -->
<g id="node27" class="node"><title>Node27</title>
<g id="a_node27"><a xlink:href="classcinder_1_1audio_1_1_add_node.html" target="_top" xlink:title="Node for performing an addition operation on its input. ">
<polygon fill="white" stroke="black" points="518.742,-246 518.742,-266 639.258,-266 639.258,-246 518.742,-246"/>
<text text-anchor="middle" x="579" y="-252" font-family="Helvetica,sans-Serif" font-size="10.00">cinder::audio::AddNode</text>
</a>
</g>
</g>
<!-- Node26&#45;&gt;Node27 -->
<g id="edge26" class="edge"><title>Node26&#45;&gt;Node27</title>
<path fill="none" stroke="midnightblue" d="M430.472,-228.86C460.232,-234.335 495.18,-240.764 523.59,-245.991"/>
<polygon fill="midnightblue" stroke="midnightblue" points="431.064,-225.411 420.595,-227.043 429.797,-232.295 431.064,-225.411"/>
</g>
<!-- Node28 -->
<g id="node28" class="node"><title>Node28</title>
<g id="a_node28"><a xlink:href="classcinder_1_1audio_1_1_divide_node.html" target="_top" xlink:title="Node for performing a division operation on its input. ">
<polygon fill="white" stroke="black" points="513.744,-207 513.744,-227 644.256,-227 644.256,-207 513.744,-207"/>
<text text-anchor="middle" x="579" y="-213" font-family="Helvetica,sans-Serif" font-size="10.00">cinder::audio::DivideNode</text>
</a>
</g>
</g>
<!-- Node26&#45;&gt;Node28 -->
<g id="edge27" class="edge"><title>Node26&#45;&gt;Node28</title>
<path fill="none" stroke="midnightblue" d="M437.61,-217C462.238,-217 489.645,-217 513.66,-217"/>
<polygon fill="midnightblue" stroke="midnightblue" points="437.604,-213.5 427.604,-217 437.604,-220.5 437.604,-213.5"/>
</g>
<!-- Node29 -->
<g id="node29" class="node"><title>Node29</title>
<g id="a_node29"><a xlink:href="classcinder_1_1audio_1_1_multiply_node.html" target="_top" xlink:title="Node for performing a mulitplication operation on its input. ">
<polygon fill="white" stroke="black" points="510.69,-168 510.69,-188 647.31,-188 647.31,-168 510.69,-168"/>
<text text-anchor="middle" x="579" y="-174" font-family="Helvetica,sans-Serif" font-size="10.00">cinder::audio::MultiplyNode</text>
</a>
</g>
</g>
<!-- Node26&#45;&gt;Node29 -->
<g id="edge28" class="edge"><title>Node26&#45;&gt;Node29</title>
<path fill="none" stroke="midnightblue" d="M430.472,-205.14C460.232,-199.665 495.18,-193.236 523.59,-188.009"/>
<polygon fill="midnightblue" stroke="midnightblue" points="429.797,-201.705 420.595,-206.957 431.064,-208.589 429.797,-201.705"/>
</g>
<!-- Node31 -->
<g id="node31" class="node"><title>Node31</title>
<g id="a_node31"><a xlink:href="classcinder_1_1audio_1_1_subtract_node.html" target="_top" xlink:title="Node for performing a subtration operation on its input. ">
<polygon fill="white" stroke="black" points="509.018,-129 509.018,-149 648.982,-149 648.982,-129 509.018,-129"/>
<text text-anchor="middle" x="579" y="-135" font-family="Helvetica,sans-Serif" font-size="10.00">cinder::audio::SubtractNode</text>
</a>
</g>
</g>
<!-- Node26&#45;&gt;Node31 -->
<g id="edge30" class="edge"><title>Node26&#45;&gt;Node31</title>
<path fill="none" stroke="midnightblue" d="M391.636,-202.014C415.392,-188.712 452.073,-169.633 486,-158 496.182,-154.509 507.229,-151.555 518.018,-149.093"/>
<polygon fill="midnightblue" stroke="midnightblue" points="389.865,-198.995 382.896,-206.975 393.321,-205.083 389.865,-198.995"/>
</g>
<!-- Node30 -->
<g id="node30" class="node"><title>Node30</title>
<g id="a_node30"><a xlink:href="classcinder_1_1audio_1_1_gain_node.html" target="_top" xlink:title="Node for changing the gain, or amplitude, of a signal. ">
<polygon fill="white" stroke="black" points="733.077,-156 733.077,-176 856.923,-176 856.923,-156 733.077,-156"/>
<text text-anchor="middle" x="795" y="-162" font-family="Helvetica,sans-Serif" font-size="10.00">cinder::audio::GainNode</text>
</a>
</g>
</g>
<!-- Node29&#45;&gt;Node30 -->
<g id="edge29" class="edge"><title>Node29&#45;&gt;Node30</title>
<path fill="none" stroke="midnightblue" d="M657.503,-173.654C682.257,-172.266 709.295,-170.75 732.729,-169.436"/>
<polygon fill="midnightblue" stroke="midnightblue" points="657.206,-170.165 647.417,-174.22 657.598,-177.154 657.206,-170.165"/>
</g>
<!-- Node33 -->
<g id="node33" class="node"><title>Node33</title>
<g id="a_node33"><a xlink:href="classcinder_1_1audio_1_1_monitor_node.html" target="_top" xlink:title="Node for retrieving time&#45;domain audio PCM samples. ">
<polygon fill="white" stroke="black" points="510.966,-90 510.966,-110 647.034,-110 647.034,-90 510.966,-90"/>
<text text-anchor="middle" x="579" y="-96" font-family="Helvetica,sans-Serif" font-size="10.00">cinder::audio::MonitorNode</text>
</a>
</g>
</g>
<!-- Node32&#45;&gt;Node33 -->
<g id="edge32" class="edge"><title>Node32&#45;&gt;Node33</title>
<path fill="none" stroke="midnightblue" d="M430.472,-127.14C460.232,-121.665 495.18,-115.236 523.59,-110.009"/>
<polygon fill="midnightblue" stroke="midnightblue" points="429.797,-123.705 420.595,-128.957 431.064,-130.589 429.797,-123.705"/>
</g>
<!-- Node35 -->
<g id="node35" class="node"><title>Node35</title>
<g id="a_node35"><a xlink:href="classcinder_1_1audio_1_1_sample_recorder_node.html" target="_top" xlink:title="Base Node class for recording audio samples. Inherits from NodeAudioPullable, and therefore does not ...">
<polygon fill="white" stroke="black" points="490.121,-51 490.121,-71 667.879,-71 667.879,-51 490.121,-51"/>
<text text-anchor="middle" x="579" y="-57" font-family="Helvetica,sans-Serif" font-size="10.00">cinder::audio::SampleRecorderNode</text>
</a>
</g>
</g>
<!-- Node32&#45;&gt;Node35 -->
<g id="edge34" class="edge"><title>Node32&#45;&gt;Node35</title>
<path fill="none" stroke="midnightblue" d="M436.855,-125.436C441.425,-123.562 445.852,-121.428 450,-119 470.358,-107.084 465.465,-91.6085 486,-80 492.389,-76.3883 499.375,-73.4592 506.55,-71.0844"/>
<polygon fill="midnightblue" stroke="midnightblue" points="435.5,-122.205 427.315,-128.932 437.908,-128.778 435.5,-122.205"/>
</g>
<!-- Node34 -->
<g id="node34" class="node"><title>Node34</title>
<g id="a_node34"><a xlink:href="classcinder_1_1audio_1_1_monitor_spectral_node.html" target="_top" xlink:title="A Scope that performs spectral (Fourier) analysis. ">
<polygon fill="white" stroke="black" points="708.624,-90 708.624,-110 881.376,-110 881.376,-90 708.624,-90"/>
<text text-anchor="middle" x="795" y="-96" font-family="Helvetica,sans-Serif" font-size="10.00">cinder::audio::MonitorSpectralNode</text>
</a>
</g>
</g>
<!-- Node33&#45;&gt;Node34 -->
<g id="edge33" class="edge"><title>Node33&#45;&gt;Node34</title>
<path fill="none" stroke="midnightblue" d="M657.34,-100C673.989,-100 691.678,-100 708.613,-100"/>
<polygon fill="midnightblue" stroke="midnightblue" points="657.124,-96.5001 647.124,-100 657.124,-103.5 657.124,-96.5001"/>
</g>
<!-- Node36 -->
<g id="node36" class="node"><title>Node36</title>
<g id="a_node36"><a xlink:href="classcinder_1_1audio_1_1_buffer_recorder_node.html" target="_top" xlink:title="Records its inputs to a Buffer. The Buffer record size should be specified by the user (the default s...">
<polygon fill="white" stroke="black" points="709.822,-51 709.822,-71 880.178,-71 880.178,-51 709.822,-51"/>
<text text-anchor="middle" x="795" y="-57" font-family="Helvetica,sans-Serif" font-size="10.00">cinder::audio::BufferRecorderNode</text>
</a>
</g>
</g>
<!-- Node35&#45;&gt;Node36 -->
<g id="edge35" class="edge"><title>Node35&#45;&gt;Node36</title>
<path fill="none" stroke="midnightblue" d="M678.083,-61C688.684,-61 699.403,-61 709.82,-61"/>
<polygon fill="midnightblue" stroke="midnightblue" points="677.968,-57.5001 667.968,-61 677.968,-64.5001 677.968,-57.5001"/>
</g>
<!-- Node38 -->
<g id="node38" class="node"><title>Node38</title>
<g id="a_node38"><a xlink:href="classcinder_1_1audio_1_1_output_device_node.html" target="_top" xlink:title="Interface representing a Node that communicates with a hardware output device. This is typically spea...">
<polygon fill="white" stroke="black" points="497.345,-9 497.345,-29 660.655,-29 660.655,-9 497.345,-9"/>
<text text-anchor="middle" x="579" y="-15" font-family="Helvetica,sans-Serif" font-size="10.00">cinder::audio::OutputDeviceNode</text>
</a>
</g>
</g>
<!-- Node37&#45;&gt;Node38 -->
<g id="edge37" class="edge"><title>Node37&#45;&gt;Node38</title>
<path fill="none" stroke="midnightblue" d="M436.855,-86.4363C441.425,-84.5616 445.852,-82.428 450,-80 470.358,-68.0839 465.648,-52.9261 486,-41 494.643,-35.9353 504.391,-32.0351 514.226,-29.032"/>
<polygon fill="midnightblue" stroke="midnightblue" points="435.5,-83.2052 427.315,-89.9325 437.908,-89.7778 435.5,-83.2052"/>
</g>
<!-- Node39 -->
<g id="node39" class="node"><title>Node39</title>
<g id="a_node39"><a xlink:href="classcinder_1_1audio_1_1cocoa_1_1_output_device_node_audio_unit.html" target="_top" xlink:title="cinder::audio::cocoa\l::OutputDeviceNodeAudioUnit">
<polygon fill="white" stroke="black" points="720.296,-0 720.296,-32 869.704,-32 869.704,-0 720.296,-0"/>
<text text-anchor="start" x="728.296" y="-18" font-family="Helvetica,sans-Serif" font-size="10.00">cinder::audio::cocoa</text>
<text text-anchor="middle" x="795" y="-6" font-family="Helvetica,sans-Serif" font-size="10.00">::OutputDeviceNodeAudioUnit</text>
</a>
</g>
</g>
<!-- Node38&#45;&gt;Node39 -->
<g id="edge38" class="edge"><title>Node38&#45;&gt;Node39</title>
<path fill="none" stroke="midnightblue" d="M671.007,-17.7242C687.362,-17.4949 704.226,-17.2585 720.026,-17.037"/>
<polygon fill="midnightblue" stroke="midnightblue" points="670.854,-14.2259 660.904,-17.8658 670.952,-21.2252 670.854,-14.2259"/>
</g>
</g>
</svg>
        <g id="navigator" transform="translate(0 0)" fill="#404254">
                <rect fill="#f2f5e9" fill-opacity="0.5" stroke="#606060" stroke-width=".5" x="0" y="0" width="60" height="60"/>
                <use id="zoomplus" xlink:href="#zoomPlus" x="17" y="9" onmousedown="handleZoom(evt,'in')"/>
                <use id="zoomminus" xlink:href="#zoomMin" x="42" y="9" onmousedown="handleZoom(evt,'out')"/>
                <use id="reset" xlink:href="#resetDef" x="30" y="36" onmousedown="handleReset()"/>
                <g id="arrowUp" xlink:href="#dirArrow" transform="translate(30 24)" onmousedown="handlePan(0,-1)">
                  <use xlink:href="#rim" fill="#404040">
                        <set attributeName="fill" to="#808080" begin="arrowUp.mouseover" end="arrowUp.mouseout"/>
                  </use>
                  <path fill="none" stroke="white" stroke-width="1.5" d="M0,-3.0v7 M-2.5,-0.5L0,-3.0L2.5,-0.5"/>
                </g>
                <g id="arrowRight" xlink:href="#dirArrow" transform="rotate(90) translate(36 -43)" onmousedown="handlePan(1,0)">
                  <use xlink:href="#rim" fill="#404040">
                        <set attributeName="fill" to="#808080" begin="arrowRight.mouseover" end="arrowRight.mouseout"/>
                  </use>
                  <path fill="none" stroke="white" stroke-width="1.5" d="M0,-3.0v7 M-2.5,-0.5L0,-3.0L2.5,-0.5"/>
                </g>
                <g id="arrowDown" xlink:href="#dirArrow" transform="rotate(180) translate(-30 -48)" onmousedown="handlePan(0,1)">
                  <use xlink:href="#rim" fill="#404040">
                        <set attributeName="fill" to="#808080" begin="arrowDown.mouseover" end="arrowDown.mouseout"/>
                  </use>
                  <path fill="none" stroke="white" stroke-width="1.5" d="M0,-3.0v7 M-2.5,-0.5L0,-3.0L2.5,-0.5"/>
                </g>
                <g id="arrowLeft" xlink:href="#dirArrow" transform="rotate(270) translate(-36 17)" onmousedown="handlePan(-1,0)">
                  <use xlink:href="#rim" fill="#404040">
                        <set attributeName="fill" to="#808080" begin="arrowLeft.mouseover" end="arrowLeft.mouseout"/>
                  </use>
                  <path fill="none" stroke="white" stroke-width="1.5" d="M0,-3.0v7 M-2.5,-0.5L0,-3.0L2.5,-0.5"/>
                </g>
        </g>
        <svg viewBox="0 0 15 15" width="100%" height="30px" preserveAspectRatio="xMaxYMin meet">
         <g id="arrow_out" transform="scale(0.3 0.3)">
          <a xlink:href="classcinder_1_1audio_1_1_node__inherit__graph_org.svg" target="_base">
           <rect id="button" ry="5" rx="5" y="6" x="6" height="38" width="38"
                fill="#f2f5e9" fill-opacity="0.5" stroke="#606060" stroke-width="1.0"/>
           <path id="arrow"
             d="M 11.500037,31.436501 C 11.940474,20.09759 22.043105,11.32322 32.158766,21.979434 L 37.068811,17.246167 C 37.068811,17.246167 37.088388,32 37.088388,32 L 22.160133,31.978069 C 22.160133,31.978069 26.997745,27.140456 26.997745,27.140456 C 18.528582,18.264221 13.291696,25.230495 11.500037,31.436501 z"
             style="fill:#404040;"/>
          </a>
         </g>
        </svg>
</svg>
