<?xml version="1.0" encoding="UTF-8" standalone="no"?>
<!DOCTYPE svg PUBLIC "-//W3C//DTD SVG 1.1//EN"
 "http://www.w3.org/Graphics/SVG/1.1/DTD/svg11.dtd">
<!-- Generated by graphviz version 2.30.1 (20140712.1814)
 -->
<!-- Title: cinder::audio::FilterHighPassNode Pages: 1 -->
<svg width="201pt" height="228pt"
 viewBox="0.00 0.00 201.00 228.00" xmlns="http://www.w3.org/2000/svg" xmlns:xlink="http://www.w3.org/1999/xlink">
<g id="graph0" class="graph" transform="scale(1 1) rotate(0) translate(4 224)">
<title>cinder::audio::FilterHighPassNode</title>
<polygon fill="white" stroke="white" points="-4,5 -4,-224 198,-224 198,5 -4,5"/>
<!-- Node1 -->
<g id="node1" class="node"><title>Node1</title>
<polygon fill="#bfbfbf" stroke="black" points="43.1973,-1 43.1973,-33 164.803,-33 164.803,-1 43.1973,-1"/>
<text text-anchor="start" x="51.1973" y="-19" font-family="Helvetica,sans-Serif" font-size="10.00">cinder::audio::FilterHigh</text>
<text text-anchor="middle" x="104" y="-7" font-family="Helvetica,sans-Serif" font-size="10.00">PassNode</text>
</g>
<!-- Node2 -->
<g id="node2" class="node"><title>Node2</title>
<g id="a_node2"><a xlink:href="classcinder_1_1audio_1_1_filter_biquad_node.html" target="_top" xlink:title="General class for filtering nodes based on a biquad (two pole, two zero) filter. ">
<polygon fill="white" stroke="black" points="25.9585,-71 25.9585,-91 182.042,-91 182.042,-71 25.9585,-71"/>
<text text-anchor="middle" x="104" y="-77" font-family="Helvetica,sans-Serif" font-size="10.00">cinder::audio::FilterBiquadNode</text>
</a>
</g>
</g>
<!-- Node2&#45;&gt;Node1 -->
<g id="edge1" class="edge"><title>Node2&#45;&gt;Node1</title>
<path fill="none" stroke="midnightblue" d="M104,-60.7747C104,-51.9863 104,-41.715 104,-33.4404"/>
<polygon fill="midnightblue" stroke="midnightblue" points="100.5,-60.8517 104,-70.8517 107.5,-60.8517 100.5,-60.8517"/>
</g>
<!-- Node3 -->
<g id="node3" class="node"><title>Node3</title>
<g id="a_node3"><a xlink:href="classcinder_1_1audio_1_1_node.html" target="_top" xlink:title="Fundamental building block for creating an audio processing graph. ">
<polygon fill="white" stroke="black" points="52.6382,-129 52.6382,-149 155.362,-149 155.362,-129 52.6382,-129"/>
<text text-anchor="middle" x="104" y="-135" font-family="Helvetica,sans-Serif" font-size="10.00">cinder::audio::Node</text>
</a>
</g>
</g>
<!-- Node3&#45;&gt;Node2 -->
<g id="edge2" class="edge"><title>Node3&#45;&gt;Node2</title>
<path fill="none" stroke="midnightblue" d="M104,-118.707C104,-109.338 104,-98.5262 104,-91.0752"/>
<polygon fill="midnightblue" stroke="midnightblue" points="100.5,-118.753 104,-128.753 107.5,-118.753 100.5,-118.753"/>
</g>
<!-- Node4 -->
<g id="node4" class="node"><title>Node4</title>
<polygon fill="white" stroke="#bfbfbf" points="-0.913574,-187 -0.913574,-219 102.914,-219 102.914,-187 -0.913574,-187"/>
<text text-anchor="start" x="7.08643" y="-205" font-family="Helvetica,sans-Serif" font-size="10.00">std::enable_shared</text>
<text text-anchor="middle" x="51" y="-193" font-family="Helvetica,sans-Serif" font-size="10.00">_from_this&lt; Node &gt;</text>
</g>
<!-- Node4&#45;&gt;Node3 -->
<g id="edge3" class="edge"><title>Node4&#45;&gt;Node3</title>
<path fill="none" stroke="midnightblue" d="M70.5886,-179.085C79.4124,-168.763 89.3353,-157.155 96.0582,-149.29"/>
<polygon fill="midnightblue" stroke="midnightblue" points="67.6672,-177.116 63.8298,-186.992 72.9881,-181.665 67.6672,-177.116"/>
</g>
<!-- Node5 -->
<g id="node5" class="node"><title>Node5</title>
<polygon fill="white" stroke="#bfbfbf" points="120.643,-193 120.643,-213 193.357,-213 193.357,-193 120.643,-193"/>
<text text-anchor="middle" x="157" y="-199" font-family="Helvetica,sans-Serif" font-size="10.00">noncopyable</text>
</g>
<!-- Node5&#45;&gt;Node3 -->
<g id="edge4" class="edge"><title>Node5&#45;&gt;Node3</title>
<path fill="none" stroke="midnightblue" d="M142.586,-185.139C132.689,-173.56 119.928,-158.633 111.852,-149.186"/>
<polygon fill="midnightblue" stroke="midnightblue" points="140.021,-187.525 149.18,-192.852 145.342,-182.976 140.021,-187.525"/>
</g>
</g>
</svg>
