<?xml version="1.0" encoding="UTF-8" standalone="no"?>
<!DOCTYPE svg PUBLIC "-//W3C//DTD SVG 1.1//EN"
 "http://www.w3.org/Graphics/SVG/1.1/DTD/svg11.dtd">
<!-- Generated by graphviz version 2.30.1 (20140712.1814)
 -->
<!-- Title: cinder::svg::Exc Pages: 1 -->
<svg width="516pt" height="196pt"
 viewBox="0.00 0.00 516.00 196.00" xmlns="http://www.w3.org/2000/svg" xmlns:xlink="http://www.w3.org/1999/xlink">
<g id="graph0" class="graph" transform="scale(1 1) rotate(0) translate(4 192)">
<title>cinder::svg::Exc</title>
<polygon fill="white" stroke="white" points="-4,5 -4,-192 513,-192 513,5 -4,5"/>
<!-- Node1 -->
<g id="node1" class="node"><title>Node1</title>
<polygon fill="#bfbfbf" stroke="black" points="226.709,-78 226.709,-98 313.291,-98 313.291,-78 226.709,-78"/>
<text text-anchor="middle" x="270" y="-84" font-family="Helvetica,sans-Serif" font-size="10.00">cinder::svg::Exc</text>
</g>
<!-- Node4 -->
<g id="node4" class="node"><title>Node4</title>
<g id="a_node4"><a xlink:href="classcinder_1_1svg_1_1_exc_child_not_found.html" target="_top" xlink:title="cinder::svg::ExcChildNot\lFound">
<polygon fill="white" stroke="black" points="366.535,-156 366.535,-188 491.465,-188 491.465,-156 366.535,-156"/>
<text text-anchor="start" x="374.535" y="-174" font-family="Helvetica,sans-Serif" font-size="10.00">cinder::svg::ExcChildNot</text>
<text text-anchor="middle" x="429" y="-162" font-family="Helvetica,sans-Serif" font-size="10.00">Found</text>
</a>
</g>
</g>
<!-- Node1&#45;&gt;Node4 -->
<g id="edge3" class="edge"><title>Node1&#45;&gt;Node4</title>
<path fill="none" stroke="midnightblue" d="M290.012,-104.608C305.354,-117.331 327.942,-134.586 350,-146 357.099,-149.674 364.825,-152.984 372.564,-155.915"/>
<polygon fill="midnightblue" stroke="midnightblue" points="292.179,-101.856 282.284,-98.071 287.659,-107.201 292.179,-101.856"/>
</g>
<!-- Node5 -->
<g id="node5" class="node"><title>Node5</title>
<g id="a_node5"><a xlink:href="classcinder_1_1svg_1_1_float_parse_exc.html" target="_top" xlink:title="cinder::svg::FloatParseExc">
<polygon fill="white" stroke="black" points="361.532,-117 361.532,-137 496.468,-137 496.468,-117 361.532,-117"/>
<text text-anchor="middle" x="429" y="-123" font-family="Helvetica,sans-Serif" font-size="10.00">cinder::svg::FloatParseExc</text>
</a>
</g>
</g>
<!-- Node1&#45;&gt;Node5 -->
<g id="edge4" class="edge"><title>Node1&#45;&gt;Node5</title>
<path fill="none" stroke="midnightblue" d="M321.35,-100.507C342.803,-105.837 367.49,-111.969 387.706,-116.991"/>
<polygon fill="midnightblue" stroke="midnightblue" points="321.98,-97.0576 311.431,-98.0435 320.293,-103.851 321.98,-97.0576"/>
</g>
<!-- Node6 -->
<g id="node6" class="node"><title>Node6</title>
<g id="a_node6"><a xlink:href="classcinder_1_1svg_1_1_path_parse_exc.html" target="_top" xlink:title="cinder::svg::PathParseExc">
<polygon fill="white" stroke="black" points="362.362,-78 362.362,-98 495.638,-98 495.638,-78 362.362,-78"/>
<text text-anchor="middle" x="429" y="-84" font-family="Helvetica,sans-Serif" font-size="10.00">cinder::svg::PathParseExc</text>
</a>
</g>
</g>
<!-- Node1&#45;&gt;Node6 -->
<g id="edge5" class="edge"><title>Node1&#45;&gt;Node6</title>
<path fill="none" stroke="midnightblue" d="M323.609,-88C335.968,-88 349.29,-88 362.147,-88"/>
<polygon fill="midnightblue" stroke="midnightblue" points="323.486,-84.5001 313.486,-88 323.486,-91.5001 323.486,-84.5001"/>
</g>
<!-- Node7 -->
<g id="node7" class="node"><title>Node7</title>
<g id="a_node7"><a xlink:href="classcinder_1_1svg_1_1_transform_parse_exc.html" target="_top" xlink:title="cinder::svg::TransformParseExc">
<polygon fill="white" stroke="black" points="350.05,-39 350.05,-59 507.95,-59 507.95,-39 350.05,-39"/>
<text text-anchor="middle" x="429" y="-45" font-family="Helvetica,sans-Serif" font-size="10.00">cinder::svg::TransformParseExc</text>
</a>
</g>
</g>
<!-- Node1&#45;&gt;Node7 -->
<g id="edge6" class="edge"><title>Node1&#45;&gt;Node7</title>
<path fill="none" stroke="midnightblue" d="M320.078,-75.5022C329.98,-73.0011 340.32,-70.4043 350,-68 361.768,-65.0771 374.546,-61.9465 386.289,-59.0869"/>
<polygon fill="midnightblue" stroke="midnightblue" points="319.198,-72.1143 310.362,-77.9605 320.915,-78.9005 319.198,-72.1143"/>
</g>
<!-- Node8 -->
<g id="node8" class="node"><title>Node8</title>
<g id="a_node8"><a xlink:href="classcinder_1_1svg_1_1_value_exc.html" target="_top" xlink:title="cinder::svg::ValueExc">
<polygon fill="white" stroke="black" points="373.29,-0 373.29,-20 484.71,-20 484.71,-0 373.29,-0"/>
<text text-anchor="middle" x="429" y="-6" font-family="Helvetica,sans-Serif" font-size="10.00">cinder::svg::ValueExc</text>
</a>
</g>
</g>
<!-- Node1&#45;&gt;Node8 -->
<g id="edge7" class="edge"><title>Node1&#45;&gt;Node8</title>
<path fill="none" stroke="midnightblue" d="M289.186,-71.0293C304.364,-57.7447 327.134,-39.7707 350,-29 357.565,-25.4365 365.869,-22.4997 374.15,-20.0916"/>
<polygon fill="midnightblue" stroke="midnightblue" points="286.688,-68.5682 281.582,-77.8517 291.363,-73.7783 286.688,-68.5682"/>
</g>
<!-- Node2 -->
<g id="node2" class="node"><title>Node2</title>
<g id="a_node2"><a xlink:href="classcinder_1_1_exception.html" target="_top" xlink:title="cinder::Exception">
<polygon fill="white" stroke="black" points="96.6455,-78 96.6455,-98 189.354,-98 189.354,-78 96.6455,-78"/>
<text text-anchor="middle" x="143" y="-84" font-family="Helvetica,sans-Serif" font-size="10.00">cinder::Exception</text>
</a>
</g>
</g>
<!-- Node2&#45;&gt;Node1 -->
<g id="edge1" class="edge"><title>Node2&#45;&gt;Node1</title>
<path fill="none" stroke="midnightblue" d="M199.612,-88C208.695,-88 217.975,-88 226.671,-88"/>
<polygon fill="midnightblue" stroke="midnightblue" points="199.482,-84.5001 189.481,-88 199.481,-91.5001 199.482,-84.5001"/>
</g>
<!-- Node3 -->
<g id="node3" class="node"><title>Node3</title>
<polygon fill="white" stroke="#bfbfbf" points="0.596191,-78 0.596191,-98 59.4038,-98 59.4038,-78 0.596191,-78"/>
<text text-anchor="middle" x="30" y="-84" font-family="Helvetica,sans-Serif" font-size="10.00">exception</text>
</g>
<!-- Node3&#45;&gt;Node2 -->
<g id="edge2" class="edge"><title>Node3&#45;&gt;Node2</title>
<path fill="none" stroke="midnightblue" d="M69.6967,-88C78.2784,-88 87.4518,-88 96.2839,-88"/>
<polygon fill="midnightblue" stroke="midnightblue" points="69.5853,-84.5001 59.5853,-88 69.5852,-91.5001 69.5853,-84.5001"/>
</g>
</g>
</svg>
