<?xml version="1.0" encoding="UTF-8" standalone="no"?>
<!DOCTYPE svg PUBLIC "-//W3C//DTD SVG 1.1//EN"
 "http://www.w3.org/Graphics/SVG/1.1/DTD/svg11.dtd">
<!-- Generated by graphviz version 2.30.1 (20140712.1814)
 -->
<!-- Title: cinder::svg::Gradient Pages: 1 -->
<svg width="298pt" height="146pt"
 viewBox="0.00 0.00 298.00 146.00" xmlns="http://www.w3.org/2000/svg" xmlns:xlink="http://www.w3.org/1999/xlink">
<g id="graph0" class="graph" transform="scale(1 1) rotate(0) translate(4 142)">
<title>cinder::svg::Gradient</title>
<polygon fill="white" stroke="white" points="-4,5 -4,-142 295,-142 295,5 -4,5"/>
<!-- Node1 -->
<g id="node1" class="node"><title>Node1</title>
<polygon fill="#bfbfbf" stroke="black" points="90.8672,-59 90.8672,-79 199.133,-79 199.133,-59 90.8672,-59"/>
<text text-anchor="middle" x="145" y="-65" font-family="Helvetica,sans-Serif" font-size="10.00">cinder::svg::Gradient</text>
</g>
<!-- Node3 -->
<g id="node3" class="node"><title>Node3</title>
<g id="a_node3"><a xlink:href="classcinder_1_1svg_1_1_linear_gradient.html" target="_top" xlink:title="SVG Linear gradient. ">
<polygon fill="white" stroke="black" points="-0.0317383,-1 -0.0317383,-21 136.032,-21 136.032,-1 -0.0317383,-1"/>
<text text-anchor="middle" x="68" y="-7" font-family="Helvetica,sans-Serif" font-size="10.00">cinder::svg::LinearGradient</text>
</a>
</g>
</g>
<!-- Node1&#45;&gt;Node3 -->
<g id="edge2" class="edge"><title>Node1&#45;&gt;Node3</title>
<path fill="none" stroke="midnightblue" d="M124.191,-52.8661C110.222,-42.7069 92.2826,-29.6601 80.4784,-21.0752"/>
<polygon fill="midnightblue" stroke="midnightblue" points="122.139,-55.7016 132.285,-58.7527 126.256,-50.0404 122.139,-55.7016"/>
</g>
<!-- Node4 -->
<g id="node4" class="node"><title>Node4</title>
<g id="a_node4"><a xlink:href="classcinder_1_1svg_1_1_radial_gradient.html" target="_top" xlink:title="SVG Radial gradient. ">
<polygon fill="white" stroke="black" points="153.692,-1 153.692,-21 290.308,-21 290.308,-1 153.692,-1"/>
<text text-anchor="middle" x="222" y="-7" font-family="Helvetica,sans-Serif" font-size="10.00">cinder::svg::RadialGradient</text>
</a>
</g>
</g>
<!-- Node1&#45;&gt;Node4 -->
<g id="edge3" class="edge"><title>Node1&#45;&gt;Node4</title>
<path fill="none" stroke="midnightblue" d="M165.809,-52.8661C179.778,-42.7069 197.717,-29.6601 209.522,-21.0752"/>
<polygon fill="midnightblue" stroke="midnightblue" points="163.744,-50.0404 157.715,-58.7527 167.861,-55.7016 163.744,-50.0404"/>
</g>
<!-- Node2 -->
<g id="node2" class="node"><title>Node2</title>
<g id="a_node2"><a xlink:href="classcinder_1_1svg_1_1_node.html" target="_top" xlink:title="Base class for an element of an SVG Document. ">
<polygon fill="white" stroke="black" points="98.0913,-117 98.0913,-137 191.909,-137 191.909,-117 98.0913,-117"/>
<text text-anchor="middle" x="145" y="-123" font-family="Helvetica,sans-Serif" font-size="10.00">cinder::svg::Node</text>
</a>
</g>
</g>
<!-- Node2&#45;&gt;Node1 -->
<g id="edge1" class="edge"><title>Node2&#45;&gt;Node1</title>
<path fill="none" stroke="midnightblue" d="M145,-106.707C145,-97.3384 145,-86.5262 145,-79.0752"/>
<polygon fill="midnightblue" stroke="midnightblue" points="141.5,-106.753 145,-116.753 148.5,-106.753 141.5,-106.753"/>
</g>
</g>
</svg>
