<?xml version="1.0" encoding="UTF-8" standalone="no"?>
<!DOCTYPE svg PUBLIC "-//W3C//DTD SVG 1.1//EN"
 "http://www.w3.org/Graphics/SVG/1.1/DTD/svg11.dtd">
<!-- Generated by graphviz version 2.30.1 (20140712.1814)
 -->
<!-- Title: cinder::audio::BufferSpectralT&lt; T &gt; Pages: 1 -->
<svg width="150pt" height="170pt"
 viewBox="0.00 0.00 150.00 170.00" xmlns="http://www.w3.org/2000/svg" xmlns:xlink="http://www.w3.org/1999/xlink">
<g id="graph0" class="graph" transform="scale(1 1) rotate(0) translate(4 166)">
<title>cinder::audio::BufferSpectralT&lt; T &gt;</title>
<polygon fill="white" stroke="white" points="-4,5 -4,-166 147,-166 147,5 -4,5"/>
<!-- Node1 -->
<g id="node1" class="node"><title>Node1</title>
<polygon fill="#bfbfbf" stroke="black" points="-0.00292969,-1 -0.00292969,-33 142.003,-33 142.003,-1 -0.00292969,-1"/>
<text text-anchor="start" x="7.99707" y="-19" font-family="Helvetica,sans-Serif" font-size="10.00">cinder::audio::BufferSpectral</text>
<text text-anchor="middle" x="71" y="-7" font-family="Helvetica,sans-Serif" font-size="10.00">T&lt; T &gt;</text>
</g>
<!-- Node2 -->
<g id="node2" class="node"><title>Node2</title>
<g id="a_node2"><a xlink:href="classcinder_1_1audio_1_1_buffer_t.html" target="_top" xlink:title="Audio buffer that stores its channels of type T contiguously (ie. the first sample of channel 1 is di...">
<polygon fill="white" stroke="black" points="3.78857,-71 3.78857,-91 138.211,-91 138.211,-71 3.78857,-71"/>
<text text-anchor="middle" x="71" y="-77" font-family="Helvetica,sans-Serif" font-size="10.00">cinder::audio::BufferT&lt; T &gt;</text>
</a>
</g>
</g>
<!-- Node2&#45;&gt;Node1 -->
<g id="edge1" class="edge"><title>Node2&#45;&gt;Node1</title>
<path fill="none" stroke="midnightblue" d="M71,-60.7747C71,-51.9863 71,-41.715 71,-33.4404"/>
<polygon fill="midnightblue" stroke="midnightblue" points="67.5001,-60.8517 71,-70.8517 74.5001,-60.8517 67.5001,-60.8517"/>
</g>
<!-- Node3 -->
<g id="node3" class="node"><title>Node3</title>
<g id="a_node3"><a xlink:href="classcinder_1_1audio_1_1_buffer_base_t.html" target="_top" xlink:title="Base class for the various Buffer classes. The template parameter T defined the sample type (precisio...">
<polygon fill="white" stroke="black" points="6.94287,-129 6.94287,-161 135.057,-161 135.057,-129 6.94287,-129"/>
<text text-anchor="start" x="14.9429" y="-147" font-family="Helvetica,sans-Serif" font-size="10.00">cinder::audio::BufferBase</text>
<text text-anchor="middle" x="71" y="-135" font-family="Helvetica,sans-Serif" font-size="10.00">T&lt; T &gt;</text>
</a>
</g>
</g>
<!-- Node3&#45;&gt;Node2 -->
<g id="edge2" class="edge"><title>Node3&#45;&gt;Node2</title>
<path fill="none" stroke="midnightblue" d="M71,-118.922C71,-109.172 71,-98.6099 71,-91.2904"/>
<polygon fill="midnightblue" stroke="midnightblue" points="67.5001,-118.991 71,-128.992 74.5001,-118.992 67.5001,-118.991"/>
</g>
</g>
</svg>
