<?xml version="1.0" encoding="UTF-8" standalone="no"?>
<!DOCTYPE svg PUBLIC "-//W3C//DTD SVG 1.1//EN"
 "http://www.w3.org/Graphics/SVG/1.1/DTD/svg11.dtd">
<!-- Generated by graphviz version 2.30.1 (20140712.1814)
 -->
<!-- Title: cinder::DataTarget Pages: 1 -->
<svg width="273pt" height="88pt"
 viewBox="0.00 0.00 273.00 88.00" xmlns="http://www.w3.org/2000/svg" xmlns:xlink="http://www.w3.org/1999/xlink">
<g id="graph0" class="graph" transform="scale(1 1) rotate(0) translate(4 84)">
<title>cinder::DataTarget</title>
<polygon fill="white" stroke="white" points="-4,5 -4,-84 270,-84 270,5 -4,5"/>
<!-- Node1 -->
<g id="node1" class="node"><title>Node1</title>
<polygon fill="#bfbfbf" stroke="black" points="81.1455,-59 81.1455,-79 178.854,-79 178.854,-59 81.1455,-59"/>
<text text-anchor="middle" x="130" y="-65" font-family="Helvetica,sans-Serif" font-size="10.00">cinder::DataTarget</text>
</g>
<!-- Node2 -->
<g id="node2" class="node"><title>Node2</title>
<g id="a_node2"><a xlink:href="classcinder_1_1_data_target_path.html" target="_top" xlink:title="cinder::DataTargetPath">
<polygon fill="white" stroke="black" points="-0.140137,-1 -0.140137,-21 118.14,-21 118.14,-1 -0.140137,-1"/>
<text text-anchor="middle" x="59" y="-7" font-family="Helvetica,sans-Serif" font-size="10.00">cinder::DataTargetPath</text>
</a>
</g>
</g>
<!-- Node1&#45;&gt;Node2 -->
<g id="edge1" class="edge"><title>Node1&#45;&gt;Node2</title>
<path fill="none" stroke="midnightblue" d="M110.079,-52.288C97.3097,-42.2161 81.1851,-29.4981 70.506,-21.0752"/>
<polygon fill="midnightblue" stroke="midnightblue" points="108.257,-55.3079 118.276,-58.7527 112.592,-49.8118 108.257,-55.3079"/>
</g>
<!-- Node3 -->
<g id="node3" class="node"><title>Node3</title>
<g id="a_node3"><a xlink:href="classcinder_1_1_data_target_stream.html" target="_top" xlink:title="cinder::DataTargetStream">
<polygon fill="white" stroke="black" points="136.03,-1 136.03,-21 265.97,-21 265.97,-1 136.03,-1"/>
<text text-anchor="middle" x="201" y="-7" font-family="Helvetica,sans-Serif" font-size="10.00">cinder::DataTargetStream</text>
</a>
</g>
</g>
<!-- Node1&#45;&gt;Node3 -->
<g id="edge2" class="edge"><title>Node1&#45;&gt;Node3</title>
<path fill="none" stroke="midnightblue" d="M149.921,-52.288C162.69,-42.2161 178.815,-29.4981 189.494,-21.0752"/>
<polygon fill="midnightblue" stroke="midnightblue" points="147.408,-49.8118 141.724,-58.7527 151.743,-55.3079 147.408,-49.8118"/>
</g>
</g>
</svg>
