<?xml version="1.0" encoding="UTF-8" standalone="no"?>
<!DOCTYPE svg PUBLIC "-//W3C//DTD SVG 1.1//EN"
 "http://www.w3.org/Graphics/SVG/1.1/DTD/svg11.dtd">
<!-- Generated by graphviz version 2.30.1 (20140712.1814)
 -->
<!-- Title: cinder::dx::VboFailedUnmapExc Pages: 1 -->
<svg width="166pt" height="146pt"
 viewBox="0.00 0.00 166.00 146.00" xmlns="http://www.w3.org/2000/svg" xmlns:xlink="http://www.w3.org/1999/xlink">
<g id="graph0" class="graph" transform="scale(1 1) rotate(0) translate(4 142)">
<title>cinder::dx::VboFailedUnmapExc</title>
<polygon fill="white" stroke="white" points="-4,5 -4,-142 163,-142 163,5 -4,5"/>
<!-- Node1 -->
<g id="node1" class="node"><title>Node1</title>
<polygon fill="#bfbfbf" stroke="black" points="-0.42334,-1 -0.42334,-21 158.423,-21 158.423,-1 -0.42334,-1"/>
<text text-anchor="middle" x="79" y="-7" font-family="Helvetica,sans-Serif" font-size="10.00">cinder::dx::VboFailedUnmapExc</text>
</g>
<!-- Node2 -->
<g id="node2" class="node"><title>Node2</title>
<g id="a_node2"><a xlink:href="classcinder_1_1dx_1_1_vbo_exc.html" target="_top" xlink:title="cinder::dx::VboExc">
<polygon fill="white" stroke="black" points="29.313,-59 29.313,-79 128.687,-79 128.687,-59 29.313,-59"/>
<text text-anchor="middle" x="79" y="-65" font-family="Helvetica,sans-Serif" font-size="10.00">cinder::dx::VboExc</text>
</a>
</g>
</g>
<!-- Node2&#45;&gt;Node1 -->
<g id="edge1" class="edge"><title>Node2&#45;&gt;Node1</title>
<path fill="none" stroke="midnightblue" d="M79,-48.7065C79,-39.3384 79,-28.5262 79,-21.0752"/>
<polygon fill="midnightblue" stroke="midnightblue" points="75.5001,-48.7527 79,-58.7527 82.5001,-48.7528 75.5001,-48.7527"/>
</g>
<!-- Node3 -->
<g id="node3" class="node"><title>Node3</title>
<polygon fill="white" stroke="#bfbfbf" points="49.5962,-117 49.5962,-137 108.404,-137 108.404,-117 49.5962,-117"/>
<text text-anchor="middle" x="79" y="-123" font-family="Helvetica,sans-Serif" font-size="10.00">exception</text>
</g>
<!-- Node3&#45;&gt;Node2 -->
<g id="edge2" class="edge"><title>Node3&#45;&gt;Node2</title>
<path fill="none" stroke="midnightblue" d="M79,-106.707C79,-97.3384 79,-86.5262 79,-79.0752"/>
<polygon fill="midnightblue" stroke="midnightblue" points="75.5001,-106.753 79,-116.753 82.5001,-106.753 75.5001,-106.753"/>
</g>
</g>
</svg>
