<?xml version="1.0" encoding="UTF-8" standalone="no"?>
<!DOCTYPE svg PUBLIC "-//W3C//DTD SVG 1.1//EN"
 "http://www.w3.org/Graphics/SVG/1.1/DTD/svg11.dtd">
<!-- Generated by graphviz version 2.30.1 (20140712.1814)
 -->
<!-- Title: cinder::dx::Exception Pages: 1 -->
<svg width="714pt" height="142pt"
 viewBox="0.00 0.00 714.00 142.00" xmlns="http://www.w3.org/2000/svg" xmlns:xlink="http://www.w3.org/1999/xlink">
<g id="graph0" class="graph" transform="scale(1 1) rotate(0) translate(4 138)">
<title>cinder::dx::Exception</title>
<polygon fill="white" stroke="white" points="-4,5 -4,-138 711,-138 711,5 -4,5"/>
<!-- Node1 -->
<g id="node1" class="node"><title>Node1</title>
<polygon fill="#bfbfbf" stroke="black" points="226.586,-57 226.586,-77 335.414,-77 335.414,-57 226.586,-57"/>
<text text-anchor="middle" x="281" y="-63" font-family="Helvetica,sans-Serif" font-size="10.00">cinder::dx::Exception</text>
</g>
<!-- Node4 -->
<g id="node4" class="node"><title>Node4</title>
<g id="a_node4"><a xlink:href="classcinder_1_1dx_1_1_drawing_too_many_vertices_exception.html" target="_top" xlink:title="cinder::dx::DrawingTooMany\lVerticesException">
<polygon fill="white" stroke="black" points="376.917,-102 376.917,-134 519.083,-134 519.083,-102 376.917,-102"/>
<text text-anchor="start" x="384.917" y="-120" font-family="Helvetica,sans-Serif" font-size="10.00">cinder::dx::DrawingTooMany</text>
<text text-anchor="middle" x="448" y="-108" font-family="Helvetica,sans-Serif" font-size="10.00">VerticesException</text>
</a>
</g>
</g>
<!-- Node1&#45;&gt;Node4 -->
<g id="edge3" class="edge"><title>Node1&#45;&gt;Node4</title>
<path fill="none" stroke="midnightblue" d="M324.426,-80.1135C345.941,-86.7635 372.258,-94.8979 394.984,-101.922"/>
<polygon fill="midnightblue" stroke="midnightblue" points="325.186,-76.6852 314.599,-77.076 323.119,-83.373 325.186,-76.6852"/>
</g>
<!-- Node5 -->
<g id="node5" class="node"><title>Node5</title>
<g id="a_node5"><a xlink:href="classcinder_1_1dx_1_1_exception_unknown_target.html" target="_top" xlink:title="cinder::dx::ExceptionUnknown\lTarget">
<polygon fill="white" stroke="black" points="372.742,-51 372.742,-83 523.258,-83 523.258,-51 372.742,-51"/>
<text text-anchor="start" x="380.742" y="-69" font-family="Helvetica,sans-Serif" font-size="10.00">cinder::dx::ExceptionUnknown</text>
<text text-anchor="middle" x="448" y="-57" font-family="Helvetica,sans-Serif" font-size="10.00">Target</text>
</a>
</g>
</g>
<!-- Node1&#45;&gt;Node5 -->
<g id="edge4" class="edge"><title>Node1&#45;&gt;Node5</title>
<path fill="none" stroke="midnightblue" d="M345.765,-67C354.59,-67 363.716,-67 372.711,-67"/>
<polygon fill="midnightblue" stroke="midnightblue" points="345.571,-63.5001 335.571,-67 345.571,-70.5001 345.571,-63.5001"/>
</g>
<!-- Node6 -->
<g id="node6" class="node"><title>Node6</title>
<g id="a_node6"><a xlink:href="classcinder_1_1dx_1_1_render_target_exception.html" target="_top" xlink:title="cinder::dx::RenderTarget\lException">
<polygon fill="white" stroke="black" points="385.249,-0 385.249,-32 510.751,-32 510.751,-0 385.249,-0"/>
<text text-anchor="start" x="393.249" y="-18" font-family="Helvetica,sans-Serif" font-size="10.00">cinder::dx::RenderTarget</text>
<text text-anchor="middle" x="448" y="-6" font-family="Helvetica,sans-Serif" font-size="10.00">Exception</text>
</a>
</g>
</g>
<!-- Node1&#45;&gt;Node6 -->
<g id="edge5" class="edge"><title>Node1&#45;&gt;Node6</title>
<path fill="none" stroke="midnightblue" d="M324.426,-53.8865C345.941,-47.2365 372.258,-39.1021 394.984,-32.0777"/>
<polygon fill="midnightblue" stroke="midnightblue" points="323.119,-50.627 314.599,-56.924 325.186,-57.3148 323.119,-50.627"/>
</g>
<!-- Node2 -->
<g id="node2" class="node"><title>Node2</title>
<g id="a_node2"><a xlink:href="classcinder_1_1_exception.html" target="_top" xlink:title="cinder::Exception">
<polygon fill="white" stroke="black" points="96.6455,-57 96.6455,-77 189.354,-77 189.354,-57 96.6455,-57"/>
<text text-anchor="middle" x="143" y="-63" font-family="Helvetica,sans-Serif" font-size="10.00">cinder::Exception</text>
</a>
</g>
</g>
<!-- Node2&#45;&gt;Node1 -->
<g id="edge1" class="edge"><title>Node2&#45;&gt;Node1</title>
<path fill="none" stroke="midnightblue" d="M199.762,-67C208.503,-67 217.523,-67 226.219,-67"/>
<polygon fill="midnightblue" stroke="midnightblue" points="199.664,-63.5001 189.664,-67 199.664,-70.5001 199.664,-63.5001"/>
</g>
<!-- Node3 -->
<g id="node3" class="node"><title>Node3</title>
<polygon fill="white" stroke="#bfbfbf" points="0.596191,-57 0.596191,-77 59.4038,-77 59.4038,-57 0.596191,-57"/>
<text text-anchor="middle" x="30" y="-63" font-family="Helvetica,sans-Serif" font-size="10.00">exception</text>
</g>
<!-- Node3&#45;&gt;Node2 -->
<g id="edge2" class="edge"><title>Node3&#45;&gt;Node2</title>
<path fill="none" stroke="midnightblue" d="M69.6967,-67C78.2784,-67 87.4518,-67 96.2839,-67"/>
<polygon fill="midnightblue" stroke="midnightblue" points="69.5853,-63.5001 59.5853,-67 69.5852,-70.5001 69.5853,-63.5001"/>
</g>
<!-- Node7 -->
<g id="node7" class="node"><title>Node7</title>
<g id="a_node7"><a xlink:href="classcinder_1_1dx_1_1_render_target_exception_invalid_specification.html" target="_top" xlink:title="cinder::dx::RenderTarget\lExceptionInvalidSpecification">
<polygon fill="white" stroke="black" points="560.239,-0 560.239,-32 705.761,-32 705.761,-0 560.239,-0"/>
<text text-anchor="start" x="568.239" y="-18" font-family="Helvetica,sans-Serif" font-size="10.00">cinder::dx::RenderTarget</text>
<text text-anchor="middle" x="633" y="-6" font-family="Helvetica,sans-Serif" font-size="10.00">ExceptionInvalidSpecification</text>
</a>
</g>
</g>
<!-- Node6&#45;&gt;Node7 -->
<g id="edge6" class="edge"><title>Node6&#45;&gt;Node7</title>
<path fill="none" stroke="midnightblue" d="M521.084,-16C533.88,-16 547.208,-16 560.002,-16"/>
<polygon fill="midnightblue" stroke="midnightblue" points="520.955,-12.5001 510.955,-16 520.955,-19.5001 520.955,-12.5001"/>
</g>
</g>
</svg>
