<?xml version="1.0" encoding="UTF-8" standalone="no"?>
<!DOCTYPE svg PUBLIC "-//W3C//DTD SVG 1.1//EN"
 "http://www.w3.org/Graphics/SVG/1.1/DTD/svg11.dtd">
<!-- Generated by graphviz version 2.30.1 (20140712.1814)
 -->
<!-- Title: cinder::audio::AddNode Pages: 1 -->
<svg width="201pt" height="216pt"
 viewBox="0.00 0.00 201.00 216.00" xmlns="http://www.w3.org/2000/svg" xmlns:xlink="http://www.w3.org/1999/xlink">
<g id="graph0" class="graph" transform="scale(1 1) rotate(0) translate(4 212)">
<title>cinder::audio::AddNode</title>
<polygon fill="white" stroke="white" points="-4,5 -4,-212 198,-212 198,5 -4,5"/>
<!-- Node1 -->
<g id="node1" class="node"><title>Node1</title>
<polygon fill="#bfbfbf" stroke="black" points="43.7417,-1 43.7417,-21 164.258,-21 164.258,-1 43.7417,-1"/>
<text text-anchor="middle" x="104" y="-7" font-family="Helvetica,sans-Serif" font-size="10.00">cinder::audio::AddNode</text>
</g>
<!-- Node2 -->
<g id="node2" class="node"><title>Node2</title>
<g id="a_node2"><a xlink:href="classcinder_1_1audio_1_1_math_node.html" target="_top" xlink:title="Base class for an arithmetic based Node. ">
<polygon fill="white" stroke="black" points="41.5225,-59 41.5225,-79 166.478,-79 166.478,-59 41.5225,-59"/>
<text text-anchor="middle" x="104" y="-65" font-family="Helvetica,sans-Serif" font-size="10.00">cinder::audio::MathNode</text>
</a>
</g>
</g>
<!-- Node2&#45;&gt;Node1 -->
<g id="edge1" class="edge"><title>Node2&#45;&gt;Node1</title>
<path fill="none" stroke="midnightblue" d="M104,-48.7065C104,-39.3384 104,-28.5262 104,-21.0752"/>
<polygon fill="midnightblue" stroke="midnightblue" points="100.5,-48.7527 104,-58.7527 107.5,-48.7528 100.5,-48.7527"/>
</g>
<!-- Node3 -->
<g id="node3" class="node"><title>Node3</title>
<g id="a_node3"><a xlink:href="classcinder_1_1audio_1_1_node.html" target="_top" xlink:title="Fundamental building block for creating an audio processing graph. ">
<polygon fill="white" stroke="black" points="52.6382,-117 52.6382,-137 155.362,-137 155.362,-117 52.6382,-117"/>
<text text-anchor="middle" x="104" y="-123" font-family="Helvetica,sans-Serif" font-size="10.00">cinder::audio::Node</text>
</a>
</g>
</g>
<!-- Node3&#45;&gt;Node2 -->
<g id="edge2" class="edge"><title>Node3&#45;&gt;Node2</title>
<path fill="none" stroke="midnightblue" d="M104,-106.707C104,-97.3384 104,-86.5262 104,-79.0752"/>
<polygon fill="midnightblue" stroke="midnightblue" points="100.5,-106.753 104,-116.753 107.5,-106.753 100.5,-106.753"/>
</g>
<!-- Node4 -->
<g id="node4" class="node"><title>Node4</title>
<polygon fill="white" stroke="#bfbfbf" points="-0.913574,-175 -0.913574,-207 102.914,-207 102.914,-175 -0.913574,-175"/>
<text text-anchor="start" x="7.08643" y="-193" font-family="Helvetica,sans-Serif" font-size="10.00">std::enable_shared</text>
<text text-anchor="middle" x="51" y="-181" font-family="Helvetica,sans-Serif" font-size="10.00">_from_this&lt; Node &gt;</text>
</g>
<!-- Node4&#45;&gt;Node3 -->
<g id="edge3" class="edge"><title>Node4&#45;&gt;Node3</title>
<path fill="none" stroke="midnightblue" d="M70.5886,-167.085C79.4124,-156.763 89.3353,-145.155 96.0582,-137.29"/>
<polygon fill="midnightblue" stroke="midnightblue" points="67.6672,-165.116 63.8298,-174.992 72.9881,-169.665 67.6672,-165.116"/>
</g>
<!-- Node5 -->
<g id="node5" class="node"><title>Node5</title>
<polygon fill="white" stroke="#bfbfbf" points="120.643,-181 120.643,-201 193.357,-201 193.357,-181 120.643,-181"/>
<text text-anchor="middle" x="157" y="-187" font-family="Helvetica,sans-Serif" font-size="10.00">noncopyable</text>
</g>
<!-- Node5&#45;&gt;Node3 -->
<g id="edge4" class="edge"><title>Node5&#45;&gt;Node3</title>
<path fill="none" stroke="midnightblue" d="M142.586,-173.139C132.689,-161.56 119.928,-146.633 111.852,-137.186"/>
<polygon fill="midnightblue" stroke="midnightblue" points="140.021,-175.525 149.18,-180.852 145.342,-170.976 140.021,-175.525"/>
</g>
</g>
</svg>
