<?xml version="1.0" encoding="UTF-8" standalone="no"?>
<!DOCTYPE svg PUBLIC "-//W3C//DTD SVG 1.1//EN"
 "http://www.w3.org/Graphics/SVG/1.1/DTD/svg11.dtd">
<!-- Generated by graphviz version 2.30.1 (20140712.1814)
 -->
<!-- Title: cinder::Capture::Device Pages: 1 -->
<svg width="330pt" height="193pt"
 viewBox="0.00 0.00 330.00 193.00" xmlns="http://www.w3.org/2000/svg" xmlns:xlink="http://www.w3.org/1999/xlink">
<g id="graph0" class="graph" transform="scale(1 1) rotate(0) translate(4 189)">
<title>cinder::Capture::Device</title>
<polygon fill="white" stroke="white" points="-4,5 -4,-189 327,-189 327,5 -4,5"/>
<!-- Node1 -->
<g id="node1" class="node"><title>Node1</title>
<polygon fill="#bfbfbf" stroke="black" points="-0.246094,-82 -0.246094,-102 120.246,-102 120.246,-82 -0.246094,-82"/>
<text text-anchor="middle" x="60" y="-88" font-family="Helvetica,sans-Serif" font-size="10.00">cinder::Capture::Device</text>
</g>
<!-- Node2 -->
<g id="node2" class="node"><title>Node2</title>
<g id="a_node2"><a xlink:href="classcinder_1_1_capture_impl_av_foundation_device.html" target="_top" xlink:title="cinder::CaptureImplAvFoundation\lDevice">
<polygon fill="white" stroke="black" points="156.603,-153 156.603,-185 321.397,-185 321.397,-153 156.603,-153"/>
<text text-anchor="start" x="164.603" y="-171" font-family="Helvetica,sans-Serif" font-size="10.00">cinder::CaptureImplAvFoundation</text>
<text text-anchor="middle" x="239" y="-159" font-family="Helvetica,sans-Serif" font-size="10.00">Device</text>
</a>
</g>
</g>
<!-- Node1&#45;&gt;Node2 -->
<g id="edge1" class="edge"><title>Node1&#45;&gt;Node2</title>
<path fill="none" stroke="midnightblue" d="M86.5093,-107.373C105.281,-118.266 131.661,-132.714 156,-143 164.391,-146.547 173.44,-149.879 182.355,-152.898"/>
<polygon fill="midnightblue" stroke="midnightblue" points="88.0882,-104.241 77.6931,-102.193 84.5423,-110.277 88.0882,-104.241"/>
</g>
<!-- Node3 -->
<g id="node3" class="node"><title>Node3</title>
<g id="a_node3"><a xlink:href="classcinder_1_1_capture_impl_cocoa_dummy_device.html" target="_top" xlink:title="This class implements a stubbed&#45;out Capture implementation in order to allow an iOS app which require...">
<polygon fill="white" stroke="black" points="172.917,-102 172.917,-134 305.083,-134 305.083,-102 172.917,-102"/>
<text text-anchor="start" x="180.917" y="-120" font-family="Helvetica,sans-Serif" font-size="10.00">cinder::CaptureImplCocoa</text>
<text text-anchor="middle" x="239" y="-108" font-family="Helvetica,sans-Serif" font-size="10.00">DummyDevice</text>
</a>
</g>
</g>
<!-- Node1&#45;&gt;Node3 -->
<g id="edge2" class="edge"><title>Node1&#45;&gt;Node3</title>
<path fill="none" stroke="midnightblue" d="M130.417,-102.197C144.319,-104.239 158.881,-106.378 172.641,-108.399"/>
<polygon fill="midnightblue" stroke="midnightblue" points="130.833,-98.7205 120.431,-100.73 129.816,-105.646 130.833,-98.7205"/>
</g>
<!-- Node4 -->
<g id="node4" class="node"><title>Node4</title>
<g id="a_node4"><a xlink:href="classcinder_1_1_capture_impl_direct_show_1_1_device.html" target="_top" xlink:title="cinder::CaptureImplDirect\lShow::Device">
<polygon fill="white" stroke="black" points="174.313,-51 174.313,-83 303.687,-83 303.687,-51 174.313,-51"/>
<text text-anchor="start" x="182.313" y="-69" font-family="Helvetica,sans-Serif" font-size="10.00">cinder::CaptureImplDirect</text>
<text text-anchor="middle" x="239" y="-57" font-family="Helvetica,sans-Serif" font-size="10.00">Show::Device</text>
</a>
</g>
</g>
<!-- Node1&#45;&gt;Node4 -->
<g id="edge3" class="edge"><title>Node1&#45;&gt;Node4</title>
<path fill="none" stroke="midnightblue" d="M130.72,-82.1526C145.048,-80.1288 160.065,-78.0077 174.173,-76.0151"/>
<polygon fill="midnightblue" stroke="midnightblue" points="129.843,-78.7416 120.431,-83.6058 130.822,-85.6728 129.843,-78.7416"/>
</g>
<!-- Node5 -->
<g id="node5" class="node"><title>Node5</title>
<g id="a_node5"><a xlink:href="classcinder_1_1_capture_impl_qt_kit_device.html" target="_top" xlink:title="cinder::CaptureImplQtKit\lDevice">
<polygon fill="white" stroke="black" points="176.256,-0 176.256,-32 301.744,-32 301.744,-0 176.256,-0"/>
<text text-anchor="start" x="184.256" y="-18" font-family="Helvetica,sans-Serif" font-size="10.00">cinder::CaptureImplQtKit</text>
<text text-anchor="middle" x="239" y="-6" font-family="Helvetica,sans-Serif" font-size="10.00">Device</text>
</a>
</g>
</g>
<!-- Node1&#45;&gt;Node5 -->
<g id="edge4" class="edge"><title>Node1&#45;&gt;Node5</title>
<path fill="none" stroke="midnightblue" d="M86.8905,-76.769C105.658,-66.1292 131.873,-52.0805 156,-42 164.544,-38.4304 173.759,-35.0648 182.819,-32.0137"/>
<polygon fill="midnightblue" stroke="midnightblue" points="84.9939,-73.822 78.0618,-81.8344 88.4774,-79.8937 84.9939,-73.822"/>
</g>
</g>
</svg>
