<?xml version="1.0" encoding="UTF-8" standalone="no"?>
<!DOCTYPE svg PUBLIC "-//W3C//DTD SVG 1.1//EN"
 "http://www.w3.org/Graphics/SVG/1.1/DTD/svg11.dtd">
<!-- Generated by graphviz version 2.30.1 (20140712.1814)
 -->
<!-- Title: cinder::SerialExc Pages: 1 -->
<!--zoomable 196 -->
<svg id="main" version="1.1" xmlns="http://www.w3.org/2000/svg" xmlns:xlink="http://www.w3.org/1999/xlink" xml:space="preserve" onload="init(evt)">
<style type="text/css"><![CDATA[
.edge:hover path { stroke: red; }
.edge:hover polygon { stroke: red; fill: red; }
]]></style>
<script type="text/javascript"><![CDATA[
var edges = document.getElementsByTagName('g');
if (edges && edges.length) {
  for (var i=0;i<edges.length;i++) {
    if (edges[i].id.substr(0,4)=='edge') {
      edges[i].setAttribute('class','edge');
    }
  }
}
]]></script>
        <defs>
                <circle id="rim" cx="0" cy="0" r="7"/>
                <circle id="rim2" cx="0" cy="0" r="3.5"/>
                <g id="zoomPlus">
                        <use xlink:href="#rim" fill="#404040">
                                <set attributeName="fill" to="#808080" begin="zoomplus.mouseover" end="zoomplus.mouseout"/>
                        </use>
                        <path d="M-4,0h8M0,-4v8" fill="none" stroke="white" stroke-width="1.5" pointer-events="none"/>
                </g>
                <g id="zoomMin">
                        <use xlink:href="#rim" fill="#404040">
                                <set attributeName="fill" to="#808080" begin="zoomminus.mouseover" end="zoomminus.mouseout"/>
                        </use>
                        <path d="M-4,0h8" fill="none" stroke="white" stroke-width="1.5" pointer-events="none"/>
                </g>
                <g id="dirArrow">
                        <path fill="none" stroke="white" stroke-width="1.5" d="M0,-3.0v7 M-2.5,-0.5L0,-3.0L2.5,-0.5"/>
                </g>
               <g id="resetDef">
                       <use xlink:href="#rim2" fill="#404040">
                               <set attributeName="fill" to="#808080" begin="reset.mouseover" end="reset.mouseout"/>
                       </use>
               </g>
        </defs>

<script type="text/javascript">
var viewWidth = 540;
var viewHeight = 196;
var sectionId = 'dynsection-0';
</script>
<script xlink:href="svgpan.js"/>
<svg id="graph" class="graph">
<g id="viewport">
<title>cinder::SerialExc</title>
<polygon fill="white" stroke="white" points="-4,5 -4,-192 537,-192 537,5 -4,5"/>
<!-- Node1 -->
<g id="node1" class="node"><title>Node1</title>
<polygon fill="#bfbfbf" stroke="black" points="226.485,-78 226.485,-98 317.515,-98 317.515,-78 226.485,-78"/>
<text text-anchor="middle" x="272" y="-84" font-family="Helvetica,sans-Serif" font-size="10.00">cinder::SerialExc</text>
</g>
<!-- Node4 -->
<g id="node4" class="node"><title>Node4</title>
<g id="a_node4"><a xlink:href="classcinder_1_1_serial_exc_device_enumeration_failed.html" target="_top" xlink:title="cinder::SerialExcDeviceEnumeration\lFailed">
<polygon fill="white" stroke="black" points="353.853,-156 353.853,-188 532.147,-188 532.147,-156 353.853,-156"/>
<text text-anchor="start" x="361.853" y="-174" font-family="Helvetica,sans-Serif" font-size="10.00">cinder::SerialExcDeviceEnumeration</text>
<text text-anchor="middle" x="443" y="-162" font-family="Helvetica,sans-Serif" font-size="10.00">Failed</text>
</a>
</g>
</g>
<!-- Node1&#45;&gt;Node4 -->
<g id="edge3" class="edge"><title>Node1&#45;&gt;Node4</title>
<path fill="none" stroke="midnightblue" d="M292.456,-104.793C308.165,-117.618 331.315,-134.92 354,-146 361.587,-149.706 369.804,-152.991 378.065,-155.872"/>
<polygon fill="midnightblue" stroke="midnightblue" points="294.466,-101.912 284.544,-98.1959 289.983,-107.288 294.466,-101.912"/>
</g>
<!-- Node5 -->
<g id="node5" class="node"><title>Node5</title>
<g id="a_node5"><a xlink:href="classcinder_1_1_serial_exc_open_failed.html" target="_top" xlink:title="cinder::SerialExcOpenFailed">
<polygon fill="white" stroke="black" points="371.636,-117 371.636,-137 514.364,-137 514.364,-117 371.636,-117"/>
<text text-anchor="middle" x="443" y="-123" font-family="Helvetica,sans-Serif" font-size="10.00">cinder::SerialExcOpenFailed</text>
</a>
</g>
</g>
<!-- Node1&#45;&gt;Node5 -->
<g id="edge4" class="edge"><title>Node1&#45;&gt;Node5</title>
<path fill="none" stroke="midnightblue" d="M325.251,-100.312C334.812,-102.549 344.704,-104.853 354,-107 368.197,-110.278 383.693,-113.814 397.67,-116.988"/>
<polygon fill="midnightblue" stroke="midnightblue" points="325.981,-96.8887 315.446,-98.0148 324.384,-103.704 325.981,-96.8887"/>
</g>
<!-- Node6 -->
<g id="node6" class="node"><title>Node6</title>
<g id="a_node6"><a xlink:href="classcinder_1_1_serial_exc_read_failure.html" target="_top" xlink:title="cinder::SerialExcReadFailure">
<polygon fill="white" stroke="black" points="370.249,-78 370.249,-98 515.751,-98 515.751,-78 370.249,-78"/>
<text text-anchor="middle" x="443" y="-84" font-family="Helvetica,sans-Serif" font-size="10.00">cinder::SerialExcReadFailure</text>
</a>
</g>
</g>
<!-- Node1&#45;&gt;Node6 -->
<g id="edge5" class="edge"><title>Node1&#45;&gt;Node6</title>
<path fill="none" stroke="midnightblue" d="M327.896,-88C341.367,-88 355.988,-88 370.126,-88"/>
<polygon fill="midnightblue" stroke="midnightblue" points="327.845,-84.5001 317.845,-88 327.845,-91.5001 327.845,-84.5001"/>
</g>
<!-- Node7 -->
<g id="node7" class="node"><title>Node7</title>
<g id="a_node7"><a xlink:href="classcinder_1_1_serial_exc_write_failure.html" target="_top" xlink:title="cinder::SerialExcWriteFailure">
<polygon fill="white" stroke="black" points="370.625,-39 370.625,-59 515.375,-59 515.375,-39 370.625,-39"/>
<text text-anchor="middle" x="443" y="-45" font-family="Helvetica,sans-Serif" font-size="10.00">cinder::SerialExcWriteFailure</text>
</a>
</g>
</g>
<!-- Node1&#45;&gt;Node7 -->
<g id="edge6" class="edge"><title>Node1&#45;&gt;Node7</title>
<path fill="none" stroke="midnightblue" d="M322.639,-75.4986C332.989,-72.9607 343.84,-70.3505 354,-68 366.943,-65.0054 380.993,-61.9048 393.988,-59.0986"/>
<polygon fill="midnightblue" stroke="midnightblue" points="321.778,-72.1059 312.907,-77.8989 323.455,-78.9022 321.778,-72.1059"/>
</g>
<!-- Node8 -->
<g id="node8" class="node"><title>Node8</title>
<g id="a_node8"><a xlink:href="classcinder_1_1_serial_timeout_exc.html" target="_top" xlink:title="cinder::SerialTimeoutExc">
<polygon fill="white" stroke="black" points="379.607,-0 379.607,-20 506.393,-20 506.393,-0 379.607,-0"/>
<text text-anchor="middle" x="443" y="-6" font-family="Helvetica,sans-Serif" font-size="10.00">cinder::SerialTimeoutExc</text>
</a>
</g>
</g>
<!-- Node1&#45;&gt;Node8 -->
<g id="edge7" class="edge"><title>Node1&#45;&gt;Node8</title>
<path fill="none" stroke="midnightblue" d="M291.381,-71.1127C306.942,-57.7219 330.422,-39.5603 354,-29 361.988,-25.4223 370.692,-22.5007 379.417,-20.1193"/>
<polygon fill="midnightblue" stroke="midnightblue" points="288.779,-68.7403 283.6,-77.9827 293.412,-73.9878 288.779,-68.7403"/>
</g>
<!-- Node2 -->
<g id="node2" class="node"><title>Node2</title>
<g id="a_node2"><a xlink:href="classcinder_1_1_exception.html" target="_top" xlink:title="cinder::Exception">
<polygon fill="white" stroke="black" points="96.6455,-78 96.6455,-98 189.354,-98 189.354,-78 96.6455,-78"/>
<text text-anchor="middle" x="143" y="-84" font-family="Helvetica,sans-Serif" font-size="10.00">cinder::Exception</text>
</a>
</g>
</g>
<!-- Node2&#45;&gt;Node1 -->
<g id="edge1" class="edge"><title>Node2&#45;&gt;Node1</title>
<path fill="none" stroke="midnightblue" d="M199.758,-88C208.62,-88 217.686,-88 226.252,-88"/>
<polygon fill="midnightblue" stroke="midnightblue" points="199.491,-84.5001 189.491,-88 199.491,-91.5001 199.491,-84.5001"/>
</g>
<!-- Node3 -->
<g id="node3" class="node"><title>Node3</title>
<polygon fill="white" stroke="#bfbfbf" points="0.596191,-78 0.596191,-98 59.4038,-98 59.4038,-78 0.596191,-78"/>
<text text-anchor="middle" x="30" y="-84" font-family="Helvetica,sans-Serif" font-size="10.00">exception</text>
</g>
<!-- Node3&#45;&gt;Node2 -->
<g id="edge2" class="edge"><title>Node3&#45;&gt;Node2</title>
<path fill="none" stroke="midnightblue" d="M69.6967,-88C78.2784,-88 87.4518,-88 96.2839,-88"/>
<polygon fill="midnightblue" stroke="midnightblue" points="69.5853,-84.5001 59.5853,-88 69.5852,-91.5001 69.5853,-84.5001"/>
</g>
</g>
</svg>
        <g id="navigator" transform="translate(0 0)" fill="#404254">
                <rect fill="#f2f5e9" fill-opacity="0.5" stroke="#606060" stroke-width=".5" x="0" y="0" width="60" height="60"/>
                <use id="zoomplus" xlink:href="#zoomPlus" x="17" y="9" onmousedown="handleZoom(evt,'in')"/>
                <use id="zoomminus" xlink:href="#zoomMin" x="42" y="9" onmousedown="handleZoom(evt,'out')"/>
                <use id="reset" xlink:href="#resetDef" x="30" y="36" onmousedown="handleReset()"/>
                <g id="arrowUp" xlink:href="#dirArrow" transform="translate(30 24)" onmousedown="handlePan(0,-1)">
                  <use xlink:href="#rim" fill="#404040">
                        <set attributeName="fill" to="#808080" begin="arrowUp.mouseover" end="arrowUp.mouseout"/>
                  </use>
                  <path fill="none" stroke="white" stroke-width="1.5" d="M0,-3.0v7 M-2.5,-0.5L0,-3.0L2.5,-0.5"/>
                </g>
                <g id="arrowRight" xlink:href="#dirArrow" transform="rotate(90) translate(36 -43)" onmousedown="handlePan(1,0)">
                  <use xlink:href="#rim" fill="#404040">
                        <set attributeName="fill" to="#808080" begin="arrowRight.mouseover" end="arrowRight.mouseout"/>
                  </use>
                  <path fill="none" stroke="white" stroke-width="1.5" d="M0,-3.0v7 M-2.5,-0.5L0,-3.0L2.5,-0.5"/>
                </g>
                <g id="arrowDown" xlink:href="#dirArrow" transform="rotate(180) translate(-30 -48)" onmousedown="handlePan(0,1)">
                  <use xlink:href="#rim" fill="#404040">
                        <set attributeName="fill" to="#808080" begin="arrowDown.mouseover" end="arrowDown.mouseout"/>
                  </use>
                  <path fill="none" stroke="white" stroke-width="1.5" d="M0,-3.0v7 M-2.5,-0.5L0,-3.0L2.5,-0.5"/>
                </g>
                <g id="arrowLeft" xlink:href="#dirArrow" transform="rotate(270) translate(-36 17)" onmousedown="handlePan(-1,0)">
                  <use xlink:href="#rim" fill="#404040">
                        <set attributeName="fill" to="#808080" begin="arrowLeft.mouseover" end="arrowLeft.mouseout"/>
                  </use>
                  <path fill="none" stroke="white" stroke-width="1.5" d="M0,-3.0v7 M-2.5,-0.5L0,-3.0L2.5,-0.5"/>
                </g>
        </g>
        <svg viewBox="0 0 15 15" width="100%" height="30px" preserveAspectRatio="xMaxYMin meet">
         <g id="arrow_out" transform="scale(0.3 0.3)">
          <a xlink:href="classcinder_1_1_serial_exc__inherit__graph_org.svg" target="_base">
           <rect id="button" ry="5" rx="5" y="6" x="6" height="38" width="38"
                fill="#f2f5e9" fill-opacity="0.5" stroke="#606060" stroke-width="1.0"/>
           <path id="arrow"
             d="M 11.500037,31.436501 C 11.940474,20.09759 22.043105,11.32322 32.158766,21.979434 L 37.068811,17.246167 C 37.068811,17.246167 37.088388,32 37.088388,32 L 22.160133,31.978069 C 22.160133,31.978069 26.997745,27.140456 26.997745,27.140456 C 18.528582,18.264221 13.291696,25.230495 11.500037,31.436501 z"
             style="fill:#404040;"/>
          </a>
         </g>
        </svg>
</svg>
