<?xml version="1.0" encoding="UTF-8" standalone="no"?>
<!DOCTYPE svg PUBLIC "-//W3C//DTD SVG 1.1//EN"
 "http://www.w3.org/Graphics/SVG/1.1/DTD/svg11.dtd">
<!-- Generated by graphviz version 2.30.1 (20140712.1814)
 -->
<!-- Title: cinder::audio::Device Pages: 1 -->
<svg width="209pt" height="100pt"
 viewBox="0.00 0.00 209.00 100.00" xmlns="http://www.w3.org/2000/svg" xmlns:xlink="http://www.w3.org/1999/xlink">
<g id="graph0" class="graph" transform="scale(1 1) rotate(0) translate(4 96)">
<title>cinder::audio::Device</title>
<polygon fill="white" stroke="white" points="-4,5 -4,-96 206,-96 206,5 -4,5"/>
<!-- Node1 -->
<g id="node1" class="node"><title>Node1</title>
<polygon fill="#bfbfbf" stroke="black" points="55.3081,-1 55.3081,-21 164.692,-21 164.692,-1 55.3081,-1"/>
<text text-anchor="middle" x="110" y="-7" font-family="Helvetica,sans-Serif" font-size="10.00">cinder::audio::Device</text>
</g>
<!-- Node2 -->
<g id="node2" class="node"><title>Node2</title>
<polygon fill="white" stroke="#bfbfbf" points="-0.243652,-59 -0.243652,-91 110.244,-91 110.244,-59 -0.243652,-59"/>
<text text-anchor="start" x="7.75635" y="-77" font-family="Helvetica,sans-Serif" font-size="10.00">std::enable_shared</text>
<text text-anchor="middle" x="55" y="-65" font-family="Helvetica,sans-Serif" font-size="10.00">_from_this&lt; Device &gt;</text>
</g>
<!-- Node2&#45;&gt;Node1 -->
<g id="edge1" class="edge"><title>Node2&#45;&gt;Node1</title>
<path fill="none" stroke="midnightblue" d="M75.0561,-51.3913C84.2803,-40.9931 94.7128,-29.2328 101.759,-21.2904"/>
<polygon fill="midnightblue" stroke="midnightblue" points="72.3319,-49.1881 68.314,-58.9915 77.5684,-53.8334 72.3319,-49.1881"/>
</g>
<!-- Node3 -->
<g id="node3" class="node"><title>Node3</title>
<polygon fill="white" stroke="#bfbfbf" points="128.643,-65 128.643,-85 201.357,-85 201.357,-65 128.643,-65"/>
<text text-anchor="middle" x="165" y="-71" font-family="Helvetica,sans-Serif" font-size="10.00">noncopyable</text>
</g>
<!-- Node3&#45;&gt;Node1 -->
<g id="edge2" class="edge"><title>Node3&#45;&gt;Node1</title>
<path fill="none" stroke="#8b1a1a" d="M150.043,-57.1389C139.771,-45.5604 126.529,-30.633 118.149,-21.1858"/>
<polygon fill="#8b1a1a" stroke="#8b1a1a" points="147.63,-59.6936 156.885,-64.8517 152.867,-55.0483 147.63,-59.6936"/>
</g>
</g>
</svg>
