<?xml version="1.0" encoding="UTF-8" standalone="no"?>
<!DOCTYPE svg PUBLIC "-//W3C//DTD SVG 1.1//EN"
 "http://www.w3.org/Graphics/SVG/1.1/DTD/svg11.dtd">
<!-- Generated by graphviz version 2.30.1 (20140712.1814)
 -->
<!-- Title: cinder::audio::OutputDeviceNode Pages: 1 -->
<svg width="201pt" height="286pt"
 viewBox="0.00 0.00 201.00 286.00" xmlns="http://www.w3.org/2000/svg" xmlns:xlink="http://www.w3.org/1999/xlink">
<g id="graph0" class="graph" transform="scale(1 1) rotate(0) translate(4 282)">
<title>cinder::audio::OutputDeviceNode</title>
<polygon fill="white" stroke="white" points="-4,5 -4,-282 198,-282 198,5 -4,5"/>
<!-- Node1 -->
<g id="node1" class="node"><title>Node1</title>
<polygon fill="#bfbfbf" stroke="black" points="22.3452,-71 22.3452,-91 185.655,-91 185.655,-71 22.3452,-71"/>
<text text-anchor="middle" x="104" y="-77" font-family="Helvetica,sans-Serif" font-size="10.00">cinder::audio::OutputDeviceNode</text>
</g>
<!-- Node6 -->
<g id="node6" class="node"><title>Node6</title>
<g id="a_node6"><a xlink:href="classcinder_1_1audio_1_1cocoa_1_1_output_device_node_audio_unit.html" target="_top" xlink:title="cinder::audio::cocoa\l::OutputDeviceNodeAudioUnit">
<polygon fill="white" stroke="black" points="29.2959,-1 29.2959,-33 178.704,-33 178.704,-1 29.2959,-1"/>
<text text-anchor="start" x="37.2959" y="-19" font-family="Helvetica,sans-Serif" font-size="10.00">cinder::audio::cocoa</text>
<text text-anchor="middle" x="104" y="-7" font-family="Helvetica,sans-Serif" font-size="10.00">::OutputDeviceNodeAudioUnit</text>
</a>
</g>
</g>
<!-- Node1&#45;&gt;Node6 -->
<g id="edge5" class="edge"><title>Node1&#45;&gt;Node6</title>
<path fill="none" stroke="midnightblue" d="M104,-60.7747C104,-51.9863 104,-41.715 104,-33.4404"/>
<polygon fill="midnightblue" stroke="midnightblue" points="100.5,-60.8517 104,-70.8517 107.5,-60.8517 100.5,-60.8517"/>
</g>
<!-- Node2 -->
<g id="node2" class="node"><title>Node2</title>
<g id="a_node2"><a xlink:href="classcinder_1_1audio_1_1_output_node.html" target="_top" xlink:title="Base class for Node&#39;s that consume an audio signal, for example speakers. It cannot have any outputs...">
<polygon fill="white" stroke="black" points="37.6284,-129 37.6284,-149 170.372,-149 170.372,-129 37.6284,-129"/>
<text text-anchor="middle" x="104" y="-135" font-family="Helvetica,sans-Serif" font-size="10.00">cinder::audio::OutputNode</text>
</a>
</g>
</g>
<!-- Node2&#45;&gt;Node1 -->
<g id="edge1" class="edge"><title>Node2&#45;&gt;Node1</title>
<path fill="none" stroke="midnightblue" d="M104,-118.707C104,-109.338 104,-98.5262 104,-91.0752"/>
<polygon fill="midnightblue" stroke="midnightblue" points="100.5,-118.753 104,-128.753 107.5,-118.753 100.5,-118.753"/>
</g>
<!-- Node3 -->
<g id="node3" class="node"><title>Node3</title>
<g id="a_node3"><a xlink:href="classcinder_1_1audio_1_1_node.html" target="_top" xlink:title="Fundamental building block for creating an audio processing graph. ">
<polygon fill="white" stroke="black" points="52.6382,-187 52.6382,-207 155.362,-207 155.362,-187 52.6382,-187"/>
<text text-anchor="middle" x="104" y="-193" font-family="Helvetica,sans-Serif" font-size="10.00">cinder::audio::Node</text>
</a>
</g>
</g>
<!-- Node3&#45;&gt;Node2 -->
<g id="edge2" class="edge"><title>Node3&#45;&gt;Node2</title>
<path fill="none" stroke="midnightblue" d="M104,-176.707C104,-167.338 104,-156.526 104,-149.075"/>
<polygon fill="midnightblue" stroke="midnightblue" points="100.5,-176.753 104,-186.753 107.5,-176.753 100.5,-176.753"/>
</g>
<!-- Node4 -->
<g id="node4" class="node"><title>Node4</title>
<polygon fill="white" stroke="#bfbfbf" points="-0.913574,-245 -0.913574,-277 102.914,-277 102.914,-245 -0.913574,-245"/>
<text text-anchor="start" x="7.08643" y="-263" font-family="Helvetica,sans-Serif" font-size="10.00">std::enable_shared</text>
<text text-anchor="middle" x="51" y="-251" font-family="Helvetica,sans-Serif" font-size="10.00">_from_this&lt; Node &gt;</text>
</g>
<!-- Node4&#45;&gt;Node3 -->
<g id="edge3" class="edge"><title>Node4&#45;&gt;Node3</title>
<path fill="none" stroke="midnightblue" d="M70.5886,-237.085C79.4124,-226.763 89.3353,-215.155 96.0582,-207.29"/>
<polygon fill="midnightblue" stroke="midnightblue" points="67.6672,-235.116 63.8298,-244.992 72.9881,-239.665 67.6672,-235.116"/>
</g>
<!-- Node5 -->
<g id="node5" class="node"><title>Node5</title>
<polygon fill="white" stroke="#bfbfbf" points="120.643,-251 120.643,-271 193.357,-271 193.357,-251 120.643,-251"/>
<text text-anchor="middle" x="157" y="-257" font-family="Helvetica,sans-Serif" font-size="10.00">noncopyable</text>
</g>
<!-- Node5&#45;&gt;Node3 -->
<g id="edge4" class="edge"><title>Node5&#45;&gt;Node3</title>
<path fill="none" stroke="midnightblue" d="M142.586,-243.139C132.689,-231.56 119.928,-216.633 111.852,-207.186"/>
<polygon fill="midnightblue" stroke="midnightblue" points="140.021,-245.525 149.18,-250.852 145.342,-240.976 140.021,-245.525"/>
</g>
</g>
</svg>
