<?xml version="1.0" encoding="UTF-8" standalone="no"?>
<!DOCTYPE svg PUBLIC "-//W3C//DTD SVG 1.1//EN"
 "http://www.w3.org/Graphics/SVG/1.1/DTD/svg11.dtd">
<!-- Generated by graphviz version 2.30.1 (20140712.1814)
 -->
<!-- Title: cinder::gl::ExceptionUnknownTarget Pages: 1 -->
<svg width="154pt" height="216pt"
 viewBox="0.00 0.00 154.00 216.00" xmlns="http://www.w3.org/2000/svg" xmlns:xlink="http://www.w3.org/1999/xlink">
<g id="graph0" class="graph" transform="scale(1 1) rotate(0) translate(4 212)">
<title>cinder::gl::ExceptionUnknownTarget</title>
<polygon fill="white" stroke="white" points="-4,5 -4,-212 151,-212 151,5 -4,5"/>
<!-- Node1 -->
<g id="node1" class="node"><title>Node1</title>
<polygon fill="#bfbfbf" stroke="black" points="-0.869141,-1 -0.869141,-33 146.869,-33 146.869,-1 -0.869141,-1"/>
<text text-anchor="start" x="7.13086" y="-19" font-family="Helvetica,sans-Serif" font-size="10.00">cinder::gl::ExceptionUnknown</text>
<text text-anchor="middle" x="73" y="-7" font-family="Helvetica,sans-Serif" font-size="10.00">Target</text>
</g>
<!-- Node2 -->
<g id="node2" class="node"><title>Node2</title>
<g id="a_node2"><a xlink:href="classcinder_1_1gl_1_1_exception.html" target="_top" xlink:title="cinder::gl::Exception">
<polygon fill="white" stroke="black" points="19.9756,-71 19.9756,-91 126.024,-91 126.024,-71 19.9756,-71"/>
<text text-anchor="middle" x="73" y="-77" font-family="Helvetica,sans-Serif" font-size="10.00">cinder::gl::Exception</text>
</a>
</g>
</g>
<!-- Node2&#45;&gt;Node1 -->
<g id="edge1" class="edge"><title>Node2&#45;&gt;Node1</title>
<path fill="none" stroke="midnightblue" d="M73,-60.7747C73,-51.9863 73,-41.715 73,-33.4404"/>
<polygon fill="midnightblue" stroke="midnightblue" points="69.5001,-60.8517 73,-70.8517 76.5001,-60.8517 69.5001,-60.8517"/>
</g>
<!-- Node3 -->
<g id="node3" class="node"><title>Node3</title>
<g id="a_node3"><a xlink:href="classcinder_1_1_exception.html" target="_top" xlink:title="cinder::Exception">
<polygon fill="white" stroke="black" points="26.6455,-129 26.6455,-149 119.354,-149 119.354,-129 26.6455,-129"/>
<text text-anchor="middle" x="73" y="-135" font-family="Helvetica,sans-Serif" font-size="10.00">cinder::Exception</text>
</a>
</g>
</g>
<!-- Node3&#45;&gt;Node2 -->
<g id="edge2" class="edge"><title>Node3&#45;&gt;Node2</title>
<path fill="none" stroke="midnightblue" d="M73,-118.707C73,-109.338 73,-98.5262 73,-91.0752"/>
<polygon fill="midnightblue" stroke="midnightblue" points="69.5001,-118.753 73,-128.753 76.5001,-118.753 69.5001,-118.753"/>
</g>
<!-- Node4 -->
<g id="node4" class="node"><title>Node4</title>
<polygon fill="white" stroke="#bfbfbf" points="43.5962,-187 43.5962,-207 102.404,-207 102.404,-187 43.5962,-187"/>
<text text-anchor="middle" x="73" y="-193" font-family="Helvetica,sans-Serif" font-size="10.00">exception</text>
</g>
<!-- Node4&#45;&gt;Node3 -->
<g id="edge3" class="edge"><title>Node4&#45;&gt;Node3</title>
<path fill="none" stroke="midnightblue" d="M73,-176.707C73,-167.338 73,-156.526 73,-149.075"/>
<polygon fill="midnightblue" stroke="midnightblue" points="69.5001,-176.753 73,-186.753 76.5001,-176.753 69.5001,-176.753"/>
</g>
</g>
</svg>
