<?xml version="1.0" encoding="UTF-8" standalone="no"?>
<!DOCTYPE svg PUBLIC "-//W3C//DTD SVG 1.1//EN"
 "http://www.w3.org/Graphics/SVG/1.1/DTD/svg11.dtd">
<!-- Generated by graphviz version 2.30.1 (20140712.1814)
 -->
<!-- Title: cinder::qtime::MovieBase Pages: 1 -->
<svg width="280pt" height="88pt"
 viewBox="0.00 0.00 280.00 88.00" xmlns="http://www.w3.org/2000/svg" xmlns:xlink="http://www.w3.org/1999/xlink">
<g id="graph0" class="graph" transform="scale(1 1) rotate(0) translate(4 84)">
<title>cinder::qtime::MovieBase</title>
<polygon fill="white" stroke="white" points="-4,5 -4,-84 277,-84 277,5 -4,5"/>
<!-- Node1 -->
<g id="node1" class="node"><title>Node1</title>
<polygon fill="#bfbfbf" stroke="black" points="65.8647,-59 65.8647,-79 194.135,-79 194.135,-59 65.8647,-59"/>
<text text-anchor="middle" x="130" y="-65" font-family="Helvetica,sans-Serif" font-size="10.00">cinder::qtime::MovieBase</text>
</g>
<!-- Node2 -->
<g id="node2" class="node"><title>Node2</title>
<g id="a_node2"><a xlink:href="classcinder_1_1qtime_1_1_movie_gl.html" target="_top" xlink:title="QuickTime movie playback as OpenGL textures Textures are always bound to the GL_TEXTURE_RECTANGLE_ARB...">
<polygon fill="white" stroke="black" points="-0.73877,-1 -0.73877,-21 114.739,-21 114.739,-1 -0.73877,-1"/>
<text text-anchor="middle" x="57" y="-7" font-family="Helvetica,sans-Serif" font-size="10.00">cinder::qtime::MovieGl</text>
</a>
</g>
</g>
<!-- Node1&#45;&gt;Node2 -->
<g id="edge1" class="edge"><title>Node1&#45;&gt;Node2</title>
<path fill="none" stroke="midnightblue" d="M109.896,-52.5778C96.7082,-42.4611 79.9156,-29.5791 68.8302,-21.0752"/>
<polygon fill="midnightblue" stroke="midnightblue" points="107.881,-55.4431 117.946,-58.7527 112.142,-49.8891 107.881,-55.4431"/>
</g>
<!-- Node3 -->
<g id="node3" class="node"><title>Node3</title>
<g id="a_node3"><a xlink:href="classcinder_1_1qtime_1_1_movie_surface.html" target="_top" xlink:title="cinder::qtime::MovieSurface">
<polygon fill="white" stroke="black" points="133.03,-1 133.03,-21 272.97,-21 272.97,-1 133.03,-1"/>
<text text-anchor="middle" x="203" y="-7" font-family="Helvetica,sans-Serif" font-size="10.00">cinder::qtime::MovieSurface</text>
</a>
</g>
</g>
<!-- Node1&#45;&gt;Node3 -->
<g id="edge2" class="edge"><title>Node1&#45;&gt;Node3</title>
<path fill="none" stroke="midnightblue" d="M150.104,-52.5778C163.292,-42.4611 180.084,-29.5791 191.17,-21.0752"/>
<polygon fill="midnightblue" stroke="midnightblue" points="147.858,-49.8891 142.054,-58.7527 152.119,-55.4431 147.858,-49.8891"/>
</g>
</g>
</svg>
