<?xml version="1.0" encoding="UTF-8" standalone="no"?>
<!DOCTYPE svg PUBLIC "-//W3C//DTD SVG 1.1//EN"
 "http://www.w3.org/Graphics/SVG/1.1/DTD/svg11.dtd">
<!-- Generated by graphviz version 2.30.1 (20140712.1814)
 -->
<!-- Title: cinder::audio::cocoa::DeviceManagerAudioSession Pages: 1 -->
<svg width="160pt" height="158pt"
 viewBox="0.00 0.00 160.00 158.00" xmlns="http://www.w3.org/2000/svg" xmlns:xlink="http://www.w3.org/1999/xlink">
<g id="graph0" class="graph" transform="scale(1 1) rotate(0) translate(4 154)">
<title>cinder::audio::cocoa::DeviceManagerAudioSession</title>
<polygon fill="white" stroke="white" points="-4,5 -4,-154 157,-154 157,5 -4,5"/>
<!-- Node1 -->
<g id="node1" class="node"><title>Node1</title>
<polygon fill="#bfbfbf" stroke="black" points="-0.371582,-1 -0.371582,-33 152.372,-33 152.372,-1 -0.371582,-1"/>
<text text-anchor="start" x="7.62842" y="-19" font-family="Helvetica,sans-Serif" font-size="10.00">cinder::audio::cocoa</text>
<text text-anchor="middle" x="76" y="-7" font-family="Helvetica,sans-Serif" font-size="10.00">::DeviceManagerAudioSession</text>
</g>
<!-- Node2 -->
<g id="node2" class="node"><title>Node2</title>
<g id="a_node2"><a xlink:href="classcinder_1_1audio_1_1_device_manager.html" target="_top" xlink:title="Platform&#45;specific Singleton for managing hardware devices. Applications normally should not need to u...">
<polygon fill="white" stroke="black" points="1.57422,-71 1.57422,-91 150.426,-91 150.426,-71 1.57422,-71"/>
<text text-anchor="middle" x="76" y="-77" font-family="Helvetica,sans-Serif" font-size="10.00">cinder::audio::DeviceManager</text>
</a>
</g>
</g>
<!-- Node2&#45;&gt;Node1 -->
<g id="edge1" class="edge"><title>Node2&#45;&gt;Node1</title>
<path fill="none" stroke="midnightblue" d="M76,-60.7747C76,-51.9863 76,-41.715 76,-33.4404"/>
<polygon fill="midnightblue" stroke="midnightblue" points="72.5001,-60.8517 76,-70.8517 79.5001,-60.8517 72.5001,-60.8517"/>
</g>
<!-- Node3 -->
<g id="node3" class="node"><title>Node3</title>
<polygon fill="white" stroke="#bfbfbf" points="39.6431,-129 39.6431,-149 112.357,-149 112.357,-129 39.6431,-129"/>
<text text-anchor="middle" x="76" y="-135" font-family="Helvetica,sans-Serif" font-size="10.00">noncopyable</text>
</g>
<!-- Node3&#45;&gt;Node2 -->
<g id="edge2" class="edge"><title>Node3&#45;&gt;Node2</title>
<path fill="none" stroke="midnightblue" d="M76,-118.707C76,-109.338 76,-98.5262 76,-91.0752"/>
<polygon fill="midnightblue" stroke="midnightblue" points="72.5001,-118.753 76,-128.753 79.5001,-118.753 72.5001,-118.753"/>
</g>
</g>
</svg>
