<?xml version="1.0" encoding="UTF-8" standalone="no"?>
<!DOCTYPE svg PUBLIC "-//W3C//DTD SVG 1.1//EN"
 "http://www.w3.org/Graphics/SVG/1.1/DTD/svg11.dtd">
<!-- Generated by graphviz version 2.30.1 (20140712.1814)
 -->
<!-- Title: cinder::ImageIoExceptionIllegalChannelOrder Pages: 1 -->
<svg width="136pt" height="216pt"
 viewBox="0.00 0.00 136.00 216.00" xmlns="http://www.w3.org/2000/svg" xmlns:xlink="http://www.w3.org/1999/xlink">
<g id="graph0" class="graph" transform="scale(1 1) rotate(0) translate(4 212)">
<title>cinder::ImageIoExceptionIllegalChannelOrder</title>
<polygon fill="white" stroke="white" points="-4,5 -4,-212 133,-212 133,5 -4,5"/>
<!-- Node1 -->
<g id="node1" class="node"><title>Node1</title>
<polygon fill="#bfbfbf" stroke="black" points="-0.420898,-1 -0.420898,-33 128.421,-33 128.421,-1 -0.420898,-1"/>
<text text-anchor="start" x="7.5791" y="-19" font-family="Helvetica,sans-Serif" font-size="10.00">cinder::ImageIoException</text>
<text text-anchor="middle" x="64" y="-7" font-family="Helvetica,sans-Serif" font-size="10.00">IllegalChannelOrder</text>
</g>
<!-- Node2 -->
<g id="node2" class="node"><title>Node2</title>
<g id="a_node2"><a xlink:href="classcinder_1_1_image_io_exception.html" target="_top" xlink:title="cinder::ImageIoException">
<polygon fill="white" stroke="black" points="-0.420898,-71 -0.420898,-91 128.421,-91 128.421,-71 -0.420898,-71"/>
<text text-anchor="middle" x="64" y="-77" font-family="Helvetica,sans-Serif" font-size="10.00">cinder::ImageIoException</text>
</a>
</g>
</g>
<!-- Node2&#45;&gt;Node1 -->
<g id="edge1" class="edge"><title>Node2&#45;&gt;Node1</title>
<path fill="none" stroke="midnightblue" d="M64,-60.7747C64,-51.9863 64,-41.715 64,-33.4404"/>
<polygon fill="midnightblue" stroke="midnightblue" points="60.5001,-60.8517 64,-70.8517 67.5001,-60.8517 60.5001,-60.8517"/>
</g>
<!-- Node3 -->
<g id="node3" class="node"><title>Node3</title>
<g id="a_node3"><a xlink:href="classcinder_1_1_exception.html" target="_top" xlink:title="cinder::Exception">
<polygon fill="white" stroke="black" points="17.6455,-129 17.6455,-149 110.354,-149 110.354,-129 17.6455,-129"/>
<text text-anchor="middle" x="64" y="-135" font-family="Helvetica,sans-Serif" font-size="10.00">cinder::Exception</text>
</a>
</g>
</g>
<!-- Node3&#45;&gt;Node2 -->
<g id="edge2" class="edge"><title>Node3&#45;&gt;Node2</title>
<path fill="none" stroke="midnightblue" d="M64,-118.707C64,-109.338 64,-98.5262 64,-91.0752"/>
<polygon fill="midnightblue" stroke="midnightblue" points="60.5001,-118.753 64,-128.753 67.5001,-118.753 60.5001,-118.753"/>
</g>
<!-- Node4 -->
<g id="node4" class="node"><title>Node4</title>
<polygon fill="white" stroke="#bfbfbf" points="34.5962,-187 34.5962,-207 93.4038,-207 93.4038,-187 34.5962,-187"/>
<text text-anchor="middle" x="64" y="-193" font-family="Helvetica,sans-Serif" font-size="10.00">exception</text>
</g>
<!-- Node4&#45;&gt;Node3 -->
<g id="edge3" class="edge"><title>Node4&#45;&gt;Node3</title>
<path fill="none" stroke="midnightblue" d="M64,-176.707C64,-167.338 64,-156.526 64,-149.075"/>
<polygon fill="midnightblue" stroke="midnightblue" points="60.5001,-176.753 64,-186.753 67.5001,-176.753 60.5001,-176.753"/>
</g>
</g>
</svg>
