<?xml version="1.0" encoding="UTF-8" standalone="no"?>
<!DOCTYPE svg PUBLIC "-//W3C//DTD SVG 1.1//EN"
 "http://www.w3.org/Graphics/SVG/1.1/DTD/svg11.dtd">
<!-- Generated by graphviz version 2.30.1 (20140712.1814)
 -->
<!-- Title: cinder::audio::BufferInterleavedT&lt; T &gt; Pages: 1 -->
<svg width="162pt" height="112pt"
 viewBox="0.00 0.00 162.00 112.00" xmlns="http://www.w3.org/2000/svg" xmlns:xlink="http://www.w3.org/1999/xlink">
<g id="graph0" class="graph" transform="scale(1 1) rotate(0) translate(4 108)">
<title>cinder::audio::BufferInterleavedT&lt; T &gt;</title>
<polygon fill="white" stroke="white" points="-4,5 -4,-108 159,-108 159,5 -4,5"/>
<!-- Node1 -->
<g id="node1" class="node"><title>Node1</title>
<polygon fill="#bfbfbf" stroke="black" points="-0.399414,-1 -0.399414,-33 154.399,-33 154.399,-1 -0.399414,-1"/>
<text text-anchor="start" x="7.60059" y="-19" font-family="Helvetica,sans-Serif" font-size="10.00">cinder::audio::BufferInterleaved</text>
<text text-anchor="middle" x="77" y="-7" font-family="Helvetica,sans-Serif" font-size="10.00">T&lt; T &gt;</text>
</g>
<!-- Node2 -->
<g id="node2" class="node"><title>Node2</title>
<g id="a_node2"><a xlink:href="classcinder_1_1audio_1_1_buffer_base_t.html" target="_top" xlink:title="Base class for the various Buffer classes. The template parameter T defined the sample type (precisio...">
<polygon fill="white" stroke="black" points="12.9429,-71 12.9429,-103 141.057,-103 141.057,-71 12.9429,-71"/>
<text text-anchor="start" x="20.9429" y="-89" font-family="Helvetica,sans-Serif" font-size="10.00">cinder::audio::BufferBase</text>
<text text-anchor="middle" x="77" y="-77" font-family="Helvetica,sans-Serif" font-size="10.00">T&lt; T &gt;</text>
</a>
</g>
</g>
<!-- Node2&#45;&gt;Node1 -->
<g id="edge1" class="edge"><title>Node2&#45;&gt;Node1</title>
<path fill="none" stroke="midnightblue" d="M77,-60.6174C77,-51.3378 77,-41.1413 77,-33.0492"/>
<polygon fill="midnightblue" stroke="midnightblue" points="73.5001,-60.9086 77,-70.9086 80.5001,-60.9086 73.5001,-60.9086"/>
</g>
</g>
</svg>
