<?xml version="1.0" encoding="UTF-8" standalone="no"?>
<!DOCTYPE svg PUBLIC "-//W3C//DTD SVG 1.1//EN"
 "http://www.w3.org/Graphics/SVG/1.1/DTD/svg11.dtd">
<!-- Generated by graphviz version 2.30.1 (20140712.1814)
 -->
<!-- Title: cinder::svg::Doc Pages: 1 -->
<svg width="221pt" height="146pt"
 viewBox="0.00 0.00 221.00 146.00" xmlns="http://www.w3.org/2000/svg" xmlns:xlink="http://www.w3.org/1999/xlink">
<g id="graph0" class="graph" transform="scale(1 1) rotate(0) translate(4 142)">
<title>cinder::svg::Doc</title>
<polygon fill="white" stroke="white" points="-4,5 -4,-142 218,-142 218,5 -4,5"/>
<!-- Node1 -->
<g id="node1" class="node"><title>Node1</title>
<polygon fill="#bfbfbf" stroke="black" points="60.1528,-1 60.1528,-21 147.847,-21 147.847,-1 60.1528,-1"/>
<text text-anchor="middle" x="104" y="-7" font-family="Helvetica,sans-Serif" font-size="10.00">cinder::svg::Doc</text>
</g>
<!-- Node2 -->
<g id="node2" class="node"><title>Node2</title>
<g id="a_node2"><a xlink:href="classcinder_1_1svg_1_1_group.html" target="_top" xlink:title="Represents a group of SVG elements. http://www.w3.org/TR/SVG/struct.html#Groups. ">
<polygon fill="white" stroke="black" points="55.1479,-59 55.1479,-79 152.852,-79 152.852,-59 55.1479,-59"/>
<text text-anchor="middle" x="104" y="-65" font-family="Helvetica,sans-Serif" font-size="10.00">cinder::svg::Group</text>
</a>
</g>
</g>
<!-- Node2&#45;&gt;Node1 -->
<g id="edge1" class="edge"><title>Node2&#45;&gt;Node1</title>
<path fill="none" stroke="midnightblue" d="M104,-48.7065C104,-39.3384 104,-28.5262 104,-21.0752"/>
<polygon fill="midnightblue" stroke="midnightblue" points="100.5,-48.7527 104,-58.7527 107.5,-48.7528 100.5,-48.7527"/>
</g>
<!-- Node3 -->
<g id="node3" class="node"><title>Node3</title>
<g id="a_node3"><a xlink:href="classcinder_1_1svg_1_1_node.html" target="_top" xlink:title="Base class for an element of an SVG Document. ">
<polygon fill="white" stroke="black" points="-0.908691,-117 -0.908691,-137 92.9087,-137 92.9087,-117 -0.908691,-117"/>
<text text-anchor="middle" x="46" y="-123" font-family="Helvetica,sans-Serif" font-size="10.00">cinder::svg::Node</text>
</a>
</g>
</g>
<!-- Node3&#45;&gt;Node2 -->
<g id="edge2" class="edge"><title>Node3&#45;&gt;Node2</title>
<path fill="none" stroke="midnightblue" d="M62.878,-109.704C73.2097,-99.7286 86.0447,-87.3361 94.6007,-79.0752"/>
<polygon fill="midnightblue" stroke="midnightblue" points="60.3405,-107.289 55.5775,-116.753 65.2027,-112.325 60.3405,-107.289"/>
</g>
<!-- Node4 -->
<g id="node4" class="node"><title>Node4</title>
<polygon fill="white" stroke="#bfbfbf" points="110.633,-117 110.633,-137 213.367,-137 213.367,-117 110.633,-117"/>
<text text-anchor="middle" x="162" y="-123" font-family="Helvetica,sans-Serif" font-size="10.00">boost::noncopyable</text>
</g>
<!-- Node4&#45;&gt;Node2 -->
<g id="edge3" class="edge"><title>Node4&#45;&gt;Node2</title>
<path fill="none" stroke="#8b1a1a" d="M145.122,-109.704C134.79,-99.7286 121.955,-87.3361 113.399,-79.0752"/>
<polygon fill="#8b1a1a" stroke="#8b1a1a" points="142.797,-112.325 152.422,-116.753 147.66,-107.289 142.797,-112.325"/>
</g>
</g>
</svg>
