<?xml version="1.0" encoding="UTF-8" standalone="no"?>
<!DOCTYPE svg PUBLIC "-//W3C//DTD SVG 1.1//EN"
 "http://www.w3.org/Graphics/SVG/1.1/DTD/svg11.dtd">
<!-- Generated by graphviz version 2.30.1 (20140712.1814)
 -->
<!-- Title: cinder::audio::dsp::Converter Pages: 1 -->
<svg width="272pt" height="91pt"
 viewBox="0.00 0.00 272.00 91.00" xmlns="http://www.w3.org/2000/svg" xmlns:xlink="http://www.w3.org/1999/xlink">
<g id="graph0" class="graph" transform="scale(1 1) rotate(0) translate(4 87)">
<title>cinder::audio::dsp::Converter</title>
<polygon fill="white" stroke="white" points="-4,5 -4,-87 269,-87 269,5 -4,5"/>
<!-- Node1 -->
<g id="node1" class="node"><title>Node1</title>
<polygon fill="#bfbfbf" stroke="black" points="0.529785,-25 0.529785,-57 95.4702,-57 95.4702,-25 0.529785,-25"/>
<text text-anchor="start" x="8.52979" y="-43" font-family="Helvetica,sans-Serif" font-size="10.00">cinder::audio::dsp</text>
<text text-anchor="middle" x="48" y="-31" font-family="Helvetica,sans-Serif" font-size="10.00">::Converter</text>
</g>
<!-- Node2 -->
<g id="node2" class="node"><title>Node2</title>
<g id="a_node2"><a xlink:href="classcinder_1_1audio_1_1cocoa_1_1_converter_impl_core_audio.html" target="_top" xlink:title="cinder::audio::cocoa\l::ConverterImplCoreAudio">
<polygon fill="white" stroke="black" points="132.197,-51 132.197,-83 263.803,-83 263.803,-51 132.197,-51"/>
<text text-anchor="start" x="140.197" y="-69" font-family="Helvetica,sans-Serif" font-size="10.00">cinder::audio::cocoa</text>
<text text-anchor="middle" x="198" y="-57" font-family="Helvetica,sans-Serif" font-size="10.00">::ConverterImplCoreAudio</text>
</a>
</g>
</g>
<!-- Node1&#45;&gt;Node2 -->
<g id="edge1" class="edge"><title>Node1&#45;&gt;Node2</title>
<path fill="none" stroke="midnightblue" d="M105.758,-50.971C114.371,-52.4841 123.315,-54.0553 132.085,-55.596"/>
<polygon fill="midnightblue" stroke="midnightblue" points="106.283,-47.5097 95.8281,-49.2266 105.072,-54.4041 106.283,-47.5097"/>
</g>
<!-- Node3 -->
<g id="node3" class="node"><title>Node3</title>
<g id="a_node3"><a xlink:href="classcinder_1_1audio_1_1dsp_1_1_converter_impl_r8brain.html" target="_top" xlink:title="Converter implementation using the r8brain samplerate conversion library by designed by Aleksey Vanee...">
<polygon fill="white" stroke="black" points="138.313,-0 138.313,-32 257.687,-32 257.687,-0 138.313,-0"/>
<text text-anchor="start" x="146.313" y="-18" font-family="Helvetica,sans-Serif" font-size="10.00">cinder::audio::dsp</text>
<text text-anchor="middle" x="198" y="-6" font-family="Helvetica,sans-Serif" font-size="10.00">::ConverterImplR8brain</text>
</a>
</g>
</g>
<!-- Node1&#45;&gt;Node3 -->
<g id="edge2" class="edge"><title>Node1&#45;&gt;Node3</title>
<path fill="none" stroke="midnightblue" d="M105.826,-31.401C116.445,-29.6072 127.564,-27.729 138.241,-25.9255"/>
<polygon fill="midnightblue" stroke="midnightblue" points="105.105,-27.9731 95.8281,-33.0898 106.271,-34.8753 105.105,-27.9731"/>
</g>
</g>
</svg>
