<?xml version="1.0" encoding="UTF-8" standalone="no"?>
<!DOCTYPE svg PUBLIC "-//W3C//DTD SVG 1.1//EN"
 "http://www.w3.org/Graphics/SVG/1.1/DTD/svg11.dtd">
<!-- Generated by graphviz version 2.30.1 (20140712.1814)
 -->
<!-- Title: cinder::ImageSourcePngException Pages: 1 -->
<svg width="176pt" height="204pt"
 viewBox="0.00 0.00 176.00 204.00" xmlns="http://www.w3.org/2000/svg" xmlns:xlink="http://www.w3.org/1999/xlink">
<g id="graph0" class="graph" transform="scale(1 1) rotate(0) translate(4 200)">
<title>cinder::ImageSourcePngException</title>
<polygon fill="white" stroke="white" points="-4,5 -4,-200 173,-200 173,5 -4,5"/>
<!-- Node1 -->
<g id="node1" class="node"><title>Node1</title>
<polygon fill="#bfbfbf" stroke="black" points="-0.989746,-1 -0.989746,-21 168.99,-21 168.99,-1 -0.989746,-1"/>
<text text-anchor="middle" x="84" y="-7" font-family="Helvetica,sans-Serif" font-size="10.00">cinder::ImageSourcePngException</text>
</g>
<!-- Node2 -->
<g id="node2" class="node"><title>Node2</title>
<g id="a_node2"><a xlink:href="classcinder_1_1_image_io_exception.html" target="_top" xlink:title="cinder::ImageIoException">
<polygon fill="white" stroke="black" points="19.5791,-59 19.5791,-79 148.421,-79 148.421,-59 19.5791,-59"/>
<text text-anchor="middle" x="84" y="-65" font-family="Helvetica,sans-Serif" font-size="10.00">cinder::ImageIoException</text>
</a>
</g>
</g>
<!-- Node2&#45;&gt;Node1 -->
<g id="edge1" class="edge"><title>Node2&#45;&gt;Node1</title>
<path fill="none" stroke="midnightblue" d="M84,-48.7065C84,-39.3384 84,-28.5262 84,-21.0752"/>
<polygon fill="midnightblue" stroke="midnightblue" points="80.5001,-48.7527 84,-58.7527 87.5001,-48.7528 80.5001,-48.7527"/>
</g>
<!-- Node3 -->
<g id="node3" class="node"><title>Node3</title>
<g id="a_node3"><a xlink:href="classcinder_1_1_exception.html" target="_top" xlink:title="cinder::Exception">
<polygon fill="white" stroke="black" points="37.6455,-117 37.6455,-137 130.354,-137 130.354,-117 37.6455,-117"/>
<text text-anchor="middle" x="84" y="-123" font-family="Helvetica,sans-Serif" font-size="10.00">cinder::Exception</text>
</a>
</g>
</g>
<!-- Node3&#45;&gt;Node2 -->
<g id="edge2" class="edge"><title>Node3&#45;&gt;Node2</title>
<path fill="none" stroke="midnightblue" d="M84,-106.707C84,-97.3384 84,-86.5262 84,-79.0752"/>
<polygon fill="midnightblue" stroke="midnightblue" points="80.5001,-106.753 84,-116.753 87.5001,-106.753 80.5001,-106.753"/>
</g>
<!-- Node4 -->
<g id="node4" class="node"><title>Node4</title>
<polygon fill="white" stroke="#bfbfbf" points="54.5962,-175 54.5962,-195 113.404,-195 113.404,-175 54.5962,-175"/>
<text text-anchor="middle" x="84" y="-181" font-family="Helvetica,sans-Serif" font-size="10.00">exception</text>
</g>
<!-- Node4&#45;&gt;Node3 -->
<g id="edge3" class="edge"><title>Node4&#45;&gt;Node3</title>
<path fill="none" stroke="midnightblue" d="M84,-164.707C84,-155.338 84,-144.526 84,-137.075"/>
<polygon fill="midnightblue" stroke="midnightblue" points="80.5001,-164.753 84,-174.753 87.5001,-164.753 80.5001,-164.753"/>
</g>
</g>
</svg>
