<?xml version="1.0" encoding="UTF-8" standalone="no"?>
<!DOCTYPE svg PUBLIC "-//W3C//DTD SVG 1.1//EN"
 "http://www.w3.org/Graphics/SVG/1.1/DTD/svg11.dtd">
<!-- Generated by graphviz version 2.30.1 (20140712.1814)
 -->
<!-- Title: cinder::audio::FilterBiquadNode Pages: 1 -->
<svg width="604pt" height="142pt"
 viewBox="0.00 0.00 604.00 142.00" xmlns="http://www.w3.org/2000/svg" xmlns:xlink="http://www.w3.org/1999/xlink">
<g id="graph0" class="graph" transform="scale(1 1) rotate(0) translate(4 138)">
<title>cinder::audio::FilterBiquadNode</title>
<polygon fill="white" stroke="white" points="-4,5 -4,-138 601,-138 601,5 -4,5"/>
<!-- Node1 -->
<g id="node1" class="node"><title>Node1</title>
<polygon fill="#bfbfbf" stroke="black" points="279.958,-57 279.958,-77 436.042,-77 436.042,-57 279.958,-57"/>
<text text-anchor="middle" x="358" y="-63" font-family="Helvetica,sans-Serif" font-size="10.00">cinder::audio::FilterBiquadNode</text>
</g>
<!-- Node5 -->
<g id="node5" class="node"><title>Node5</title>
<g id="a_node5"><a xlink:href="classcinder_1_1audio_1_1_filter_band_pass_node.html" target="_top" xlink:title="A band&#45;pass filtering Node. This is a subclass of FilterBiquadNode and manages its configuration appr...">
<polygon fill="white" stroke="black" points="471.803,-102 471.803,-134 596.197,-134 596.197,-102 471.803,-102"/>
<text text-anchor="start" x="479.803" y="-120" font-family="Helvetica,sans-Serif" font-size="10.00">cinder::audio::FilterBand</text>
<text text-anchor="middle" x="534" y="-108" font-family="Helvetica,sans-Serif" font-size="10.00">PassNode</text>
</a>
</g>
</g>
<!-- Node1&#45;&gt;Node5 -->
<g id="edge4" class="edge"><title>Node1&#45;&gt;Node5</title>
<path fill="none" stroke="midnightblue" d="M403.125,-79.9333C425.926,-86.6161 453.964,-94.8343 478.147,-101.922"/>
<polygon fill="midnightblue" stroke="midnightblue" points="403.958,-76.53 393.377,-77.076 401.989,-83.2474 403.958,-76.53"/>
</g>
<!-- Node6 -->
<g id="node6" class="node"><title>Node6</title>
<g id="a_node6"><a xlink:href="classcinder_1_1audio_1_1_filter_high_pass_node.html" target="_top" xlink:title="A high&#45;pass filtering Node. This is a subclass of FilterBiquadNode and manages its configuration appr...">
<polygon fill="white" stroke="black" points="473.197,-51 473.197,-83 594.803,-83 594.803,-51 473.197,-51"/>
<text text-anchor="start" x="481.197" y="-69" font-family="Helvetica,sans-Serif" font-size="10.00">cinder::audio::FilterHigh</text>
<text text-anchor="middle" x="534" y="-57" font-family="Helvetica,sans-Serif" font-size="10.00">PassNode</text>
</a>
</g>
</g>
<!-- Node1&#45;&gt;Node6 -->
<g id="edge5" class="edge"><title>Node1&#45;&gt;Node6</title>
<path fill="none" stroke="midnightblue" d="M446.26,-67C455.295,-67 464.326,-67 472.963,-67"/>
<polygon fill="midnightblue" stroke="midnightblue" points="446.079,-63.5001 436.079,-67 446.079,-70.5001 446.079,-63.5001"/>
</g>
<!-- Node7 -->
<g id="node7" class="node"><title>Node7</title>
<g id="a_node7"><a xlink:href="classcinder_1_1audio_1_1_filter_low_pass_node.html" target="_top" xlink:title="A low&#45;pass filtering Node. This is a subclass of FilterBiquadNode and manages its configuration appro...">
<polygon fill="white" stroke="black" points="474.308,-0 474.308,-32 593.692,-32 593.692,-0 474.308,-0"/>
<text text-anchor="start" x="482.308" y="-18" font-family="Helvetica,sans-Serif" font-size="10.00">cinder::audio::FilterLow</text>
<text text-anchor="middle" x="534" y="-6" font-family="Helvetica,sans-Serif" font-size="10.00">PassNode</text>
</a>
</g>
</g>
<!-- Node1&#45;&gt;Node7 -->
<g id="edge6" class="edge"><title>Node1&#45;&gt;Node7</title>
<path fill="none" stroke="midnightblue" d="M403.125,-54.0667C425.926,-47.3839 453.964,-39.1657 478.147,-32.0777"/>
<polygon fill="midnightblue" stroke="midnightblue" points="401.989,-50.7526 393.377,-56.924 403.958,-57.47 401.989,-50.7526"/>
</g>
<!-- Node2 -->
<g id="node2" class="node"><title>Node2</title>
<g id="a_node2"><a xlink:href="classcinder_1_1audio_1_1_node.html" target="_top" xlink:title="Fundamental building block for creating an audio processing graph. ">
<polygon fill="white" stroke="black" points="140.638,-57 140.638,-77 243.362,-77 243.362,-57 140.638,-57"/>
<text text-anchor="middle" x="192" y="-63" font-family="Helvetica,sans-Serif" font-size="10.00">cinder::audio::Node</text>
</a>
</g>
</g>
<!-- Node2&#45;&gt;Node1 -->
<g id="edge1" class="edge"><title>Node2&#45;&gt;Node1</title>
<path fill="none" stroke="midnightblue" d="M253.717,-67C262.212,-67 271.035,-67 279.785,-67"/>
<polygon fill="midnightblue" stroke="midnightblue" points="253.544,-63.5001 243.544,-67 253.544,-70.5001 253.544,-63.5001"/>
</g>
<!-- Node3 -->
<g id="node3" class="node"><title>Node3</title>
<polygon fill="white" stroke="#bfbfbf" points="0.0864258,-74 0.0864258,-106 103.914,-106 103.914,-74 0.0864258,-74"/>
<text text-anchor="start" x="8.08643" y="-92" font-family="Helvetica,sans-Serif" font-size="10.00">std::enable_shared</text>
<text text-anchor="middle" x="52" y="-80" font-family="Helvetica,sans-Serif" font-size="10.00">_from_this&lt; Node &gt;</text>
</g>
<!-- Node3&#45;&gt;Node2 -->
<g id="edge2" class="edge"><title>Node3&#45;&gt;Node2</title>
<path fill="none" stroke="midnightblue" d="M114.117,-79.8139C122.835,-78.3608 131.724,-76.8794 140.216,-75.4641"/>
<polygon fill="midnightblue" stroke="midnightblue" points="113.283,-76.4045 103.994,-81.501 114.433,-83.3093 113.283,-76.4045"/>
</g>
<!-- Node4 -->
<g id="node4" class="node"><title>Node4</title>
<polygon fill="white" stroke="#bfbfbf" points="15.6431,-35 15.6431,-55 88.3569,-55 88.3569,-35 15.6431,-35"/>
<text text-anchor="middle" x="52" y="-41" font-family="Helvetica,sans-Serif" font-size="10.00">noncopyable</text>
</g>
<!-- Node4&#45;&gt;Node2 -->
<g id="edge3" class="edge"><title>Node4&#45;&gt;Node2</title>
<path fill="none" stroke="midnightblue" d="M98.5171,-52.2563C111.963,-54.3998 126.759,-56.7586 140.498,-58.949"/>
<polygon fill="midnightblue" stroke="midnightblue" points="98.9648,-48.7836 88.5384,-50.6655 97.8627,-55.6963 98.9648,-48.7836"/>
</g>
</g>
</svg>
