<?xml version="1.0" encoding="UTF-8" standalone="no"?>
<!DOCTYPE svg PUBLIC "-//W3C//DTD SVG 1.1//EN"
 "http://www.w3.org/Graphics/SVG/1.1/DTD/svg11.dtd">
<!-- Generated by graphviz version 2.30.1 (20140712.1814)
 -->
<!-- Title: cinder::qtime::MovieWriterExcInvalidPath Pages: 1 -->
<svg width="156pt" height="216pt"
 viewBox="0.00 0.00 156.00 216.00" xmlns="http://www.w3.org/2000/svg" xmlns:xlink="http://www.w3.org/1999/xlink">
<g id="graph0" class="graph" transform="scale(1 1) rotate(0) translate(4 212)">
<title>cinder::qtime::MovieWriterExcInvalidPath</title>
<polygon fill="white" stroke="white" points="-4,5 -4,-212 153,-212 153,5 -4,5"/>
<!-- Node1 -->
<g id="node1" class="node"><title>Node1</title>
<polygon fill="#bfbfbf" stroke="black" points="8.01904,-1 8.01904,-33 139.981,-33 139.981,-1 8.01904,-1"/>
<text text-anchor="start" x="16.019" y="-19" font-family="Helvetica,sans-Serif" font-size="10.00">cinder::qtime::MovieWriter</text>
<text text-anchor="middle" x="74" y="-7" font-family="Helvetica,sans-Serif" font-size="10.00">ExcInvalidPath</text>
</g>
<!-- Node2 -->
<g id="node2" class="node"><title>Node2</title>
<g id="a_node2"><a xlink:href="classcinder_1_1qtime_1_1_movie_writer_exc.html" target="_top" xlink:title="cinder::qtime::MovieWriterExc">
<polygon fill="white" stroke="black" points="-0.315918,-71 -0.315918,-91 148.316,-91 148.316,-71 -0.315918,-71"/>
<text text-anchor="middle" x="74" y="-77" font-family="Helvetica,sans-Serif" font-size="10.00">cinder::qtime::MovieWriterExc</text>
</a>
</g>
</g>
<!-- Node2&#45;&gt;Node1 -->
<g id="edge1" class="edge"><title>Node2&#45;&gt;Node1</title>
<path fill="none" stroke="midnightblue" d="M74,-60.7747C74,-51.9863 74,-41.715 74,-33.4404"/>
<polygon fill="midnightblue" stroke="midnightblue" points="70.5001,-60.8517 74,-70.8517 77.5001,-60.8517 70.5001,-60.8517"/>
</g>
<!-- Node3 -->
<g id="node3" class="node"><title>Node3</title>
<g id="a_node3"><a xlink:href="classcinder_1_1_exception.html" target="_top" xlink:title="cinder::Exception">
<polygon fill="white" stroke="black" points="27.6455,-129 27.6455,-149 120.354,-149 120.354,-129 27.6455,-129"/>
<text text-anchor="middle" x="74" y="-135" font-family="Helvetica,sans-Serif" font-size="10.00">cinder::Exception</text>
</a>
</g>
</g>
<!-- Node3&#45;&gt;Node2 -->
<g id="edge2" class="edge"><title>Node3&#45;&gt;Node2</title>
<path fill="none" stroke="midnightblue" d="M74,-118.707C74,-109.338 74,-98.5262 74,-91.0752"/>
<polygon fill="midnightblue" stroke="midnightblue" points="70.5001,-118.753 74,-128.753 77.5001,-118.753 70.5001,-118.753"/>
</g>
<!-- Node4 -->
<g id="node4" class="node"><title>Node4</title>
<polygon fill="white" stroke="#bfbfbf" points="44.5962,-187 44.5962,-207 103.404,-207 103.404,-187 44.5962,-187"/>
<text text-anchor="middle" x="74" y="-193" font-family="Helvetica,sans-Serif" font-size="10.00">exception</text>
</g>
<!-- Node4&#45;&gt;Node3 -->
<g id="edge3" class="edge"><title>Node4&#45;&gt;Node3</title>
<path fill="none" stroke="midnightblue" d="M74,-176.707C74,-167.338 74,-156.526 74,-149.075"/>
<polygon fill="midnightblue" stroke="midnightblue" points="70.5001,-176.753 74,-186.753 77.5001,-176.753 70.5001,-176.753"/>
</g>
</g>
</svg>
