<?xml version="1.0" encoding="UTF-8" standalone="no"?>
<!DOCTYPE svg PUBLIC "-//W3C//DTD SVG 1.1//EN"
 "http://www.w3.org/Graphics/SVG/1.1/DTD/svg11.dtd">
<!-- Generated by graphviz version 2.30.1 (20140712.1814)
 -->
<!-- Title: cinder::audio::cocoa::DeviceManagerCoreAudio Pages: 1 -->
<svg width="156pt" height="158pt"
 viewBox="0.00 0.00 156.00 158.00" xmlns="http://www.w3.org/2000/svg" xmlns:xlink="http://www.w3.org/1999/xlink">
<g id="graph0" class="graph" transform="scale(1 1) rotate(0) translate(4 154)">
<title>cinder::audio::cocoa::DeviceManagerCoreAudio</title>
<polygon fill="white" stroke="white" points="-4,5 -4,-154 153,-154 153,5 -4,5"/>
<!-- Node1 -->
<g id="node1" class="node"><title>Node1</title>
<polygon fill="#bfbfbf" stroke="black" points="4.5791,-1 4.5791,-33 143.421,-33 143.421,-1 4.5791,-1"/>
<text text-anchor="start" x="12.5791" y="-19" font-family="Helvetica,sans-Serif" font-size="10.00">cinder::audio::cocoa</text>
<text text-anchor="middle" x="74" y="-7" font-family="Helvetica,sans-Serif" font-size="10.00">::DeviceManagerCoreAudio</text>
</g>
<!-- Node2 -->
<g id="node2" class="node"><title>Node2</title>
<g id="a_node2"><a xlink:href="classcinder_1_1audio_1_1_device_manager.html" target="_top" xlink:title="Platform&#45;specific Singleton for managing hardware devices. Applications normally should not need to u...">
<polygon fill="white" stroke="black" points="-0.425781,-71 -0.425781,-91 148.426,-91 148.426,-71 -0.425781,-71"/>
<text text-anchor="middle" x="74" y="-77" font-family="Helvetica,sans-Serif" font-size="10.00">cinder::audio::DeviceManager</text>
</a>
</g>
</g>
<!-- Node2&#45;&gt;Node1 -->
<g id="edge1" class="edge"><title>Node2&#45;&gt;Node1</title>
<path fill="none" stroke="midnightblue" d="M74,-60.7747C74,-51.9863 74,-41.715 74,-33.4404"/>
<polygon fill="midnightblue" stroke="midnightblue" points="70.5001,-60.8517 74,-70.8517 77.5001,-60.8517 70.5001,-60.8517"/>
</g>
<!-- Node3 -->
<g id="node3" class="node"><title>Node3</title>
<polygon fill="white" stroke="#bfbfbf" points="37.6431,-129 37.6431,-149 110.357,-149 110.357,-129 37.6431,-129"/>
<text text-anchor="middle" x="74" y="-135" font-family="Helvetica,sans-Serif" font-size="10.00">noncopyable</text>
</g>
<!-- Node3&#45;&gt;Node2 -->
<g id="edge2" class="edge"><title>Node3&#45;&gt;Node2</title>
<path fill="none" stroke="midnightblue" d="M74,-118.707C74,-109.338 74,-98.5262 74,-91.0752"/>
<polygon fill="midnightblue" stroke="midnightblue" points="70.5001,-118.753 74,-128.753 77.5001,-118.753 70.5001,-118.753"/>
</g>
</g>
</svg>
