<?xml version="1.0" encoding="UTF-8" standalone="no"?>
<!DOCTYPE svg PUBLIC "-//W3C//DTD SVG 1.1//EN"
 "http://www.w3.org/Graphics/SVG/1.1/DTD/svg11.dtd">
<!-- Generated by graphviz version 2.30.1 (20140712.1814)
 -->
<!-- Title: cinder::SerialExc Pages: 1 -->
<svg width="540pt" height="196pt"
 viewBox="0.00 0.00 540.00 196.00" xmlns="http://www.w3.org/2000/svg" xmlns:xlink="http://www.w3.org/1999/xlink">
<g id="graph0" class="graph" transform="scale(1 1) rotate(0) translate(4 192)">
<title>cinder::SerialExc</title>
<polygon fill="white" stroke="white" points="-4,5 -4,-192 537,-192 537,5 -4,5"/>
<!-- Node1 -->
<g id="node1" class="node"><title>Node1</title>
<polygon fill="#bfbfbf" stroke="black" points="226.485,-78 226.485,-98 317.515,-98 317.515,-78 226.485,-78"/>
<text text-anchor="middle" x="272" y="-84" font-family="Helvetica,sans-Serif" font-size="10.00">cinder::SerialExc</text>
</g>
<!-- Node4 -->
<g id="node4" class="node"><title>Node4</title>
<g id="a_node4"><a xlink:href="classcinder_1_1_serial_exc_device_enumeration_failed.html" target="_top" xlink:title="cinder::SerialExcDeviceEnumeration\lFailed">
<polygon fill="white" stroke="black" points="353.853,-156 353.853,-188 532.147,-188 532.147,-156 353.853,-156"/>
<text text-anchor="start" x="361.853" y="-174" font-family="Helvetica,sans-Serif" font-size="10.00">cinder::SerialExcDeviceEnumeration</text>
<text text-anchor="middle" x="443" y="-162" font-family="Helvetica,sans-Serif" font-size="10.00">Failed</text>
</a>
</g>
</g>
<!-- Node1&#45;&gt;Node4 -->
<g id="edge3" class="edge"><title>Node1&#45;&gt;Node4</title>
<path fill="none" stroke="midnightblue" d="M292.456,-104.793C308.165,-117.618 331.315,-134.92 354,-146 361.587,-149.706 369.804,-152.991 378.065,-155.872"/>
<polygon fill="midnightblue" stroke="midnightblue" points="294.466,-101.912 284.544,-98.1959 289.983,-107.288 294.466,-101.912"/>
</g>
<!-- Node5 -->
<g id="node5" class="node"><title>Node5</title>
<g id="a_node5"><a xlink:href="classcinder_1_1_serial_exc_open_failed.html" target="_top" xlink:title="cinder::SerialExcOpenFailed">
<polygon fill="white" stroke="black" points="371.636,-117 371.636,-137 514.364,-137 514.364,-117 371.636,-117"/>
<text text-anchor="middle" x="443" y="-123" font-family="Helvetica,sans-Serif" font-size="10.00">cinder::SerialExcOpenFailed</text>
</a>
</g>
</g>
<!-- Node1&#45;&gt;Node5 -->
<g id="edge4" class="edge"><title>Node1&#45;&gt;Node5</title>
<path fill="none" stroke="midnightblue" d="M325.251,-100.312C334.812,-102.549 344.704,-104.853 354,-107 368.197,-110.278 383.693,-113.814 397.67,-116.988"/>
<polygon fill="midnightblue" stroke="midnightblue" points="325.981,-96.8887 315.446,-98.0148 324.384,-103.704 325.981,-96.8887"/>
</g>
<!-- Node6 -->
<g id="node6" class="node"><title>Node6</title>
<g id="a_node6"><a xlink:href="classcinder_1_1_serial_exc_read_failure.html" target="_top" xlink:title="cinder::SerialExcReadFailure">
<polygon fill="white" stroke="black" points="370.249,-78 370.249,-98 515.751,-98 515.751,-78 370.249,-78"/>
<text text-anchor="middle" x="443" y="-84" font-family="Helvetica,sans-Serif" font-size="10.00">cinder::SerialExcReadFailure</text>
</a>
</g>
</g>
<!-- Node1&#45;&gt;Node6 -->
<g id="edge5" class="edge"><title>Node1&#45;&gt;Node6</title>
<path fill="none" stroke="midnightblue" d="M327.896,-88C341.367,-88 355.988,-88 370.126,-88"/>
<polygon fill="midnightblue" stroke="midnightblue" points="327.845,-84.5001 317.845,-88 327.845,-91.5001 327.845,-84.5001"/>
</g>
<!-- Node7 -->
<g id="node7" class="node"><title>Node7</title>
<g id="a_node7"><a xlink:href="classcinder_1_1_serial_exc_write_failure.html" target="_top" xlink:title="cinder::SerialExcWriteFailure">
<polygon fill="white" stroke="black" points="370.625,-39 370.625,-59 515.375,-59 515.375,-39 370.625,-39"/>
<text text-anchor="middle" x="443" y="-45" font-family="Helvetica,sans-Serif" font-size="10.00">cinder::SerialExcWriteFailure</text>
</a>
</g>
</g>
<!-- Node1&#45;&gt;Node7 -->
<g id="edge6" class="edge"><title>Node1&#45;&gt;Node7</title>
<path fill="none" stroke="midnightblue" d="M322.639,-75.4986C332.989,-72.9607 343.84,-70.3505 354,-68 366.943,-65.0054 380.993,-61.9048 393.988,-59.0986"/>
<polygon fill="midnightblue" stroke="midnightblue" points="321.778,-72.1059 312.907,-77.8989 323.455,-78.9022 321.778,-72.1059"/>
</g>
<!-- Node8 -->
<g id="node8" class="node"><title>Node8</title>
<g id="a_node8"><a xlink:href="classcinder_1_1_serial_timeout_exc.html" target="_top" xlink:title="cinder::SerialTimeoutExc">
<polygon fill="white" stroke="black" points="379.607,-0 379.607,-20 506.393,-20 506.393,-0 379.607,-0"/>
<text text-anchor="middle" x="443" y="-6" font-family="Helvetica,sans-Serif" font-size="10.00">cinder::SerialTimeoutExc</text>
</a>
</g>
</g>
<!-- Node1&#45;&gt;Node8 -->
<g id="edge7" class="edge"><title>Node1&#45;&gt;Node8</title>
<path fill="none" stroke="midnightblue" d="M291.381,-71.1127C306.942,-57.7219 330.422,-39.5603 354,-29 361.988,-25.4223 370.692,-22.5007 379.417,-20.1193"/>
<polygon fill="midnightblue" stroke="midnightblue" points="288.779,-68.7403 283.6,-77.9827 293.412,-73.9878 288.779,-68.7403"/>
</g>
<!-- Node2 -->
<g id="node2" class="node"><title>Node2</title>
<g id="a_node2"><a xlink:href="classcinder_1_1_exception.html" target="_top" xlink:title="cinder::Exception">
<polygon fill="white" stroke="black" points="96.6455,-78 96.6455,-98 189.354,-98 189.354,-78 96.6455,-78"/>
<text text-anchor="middle" x="143" y="-84" font-family="Helvetica,sans-Serif" font-size="10.00">cinder::Exception</text>
</a>
</g>
</g>
<!-- Node2&#45;&gt;Node1 -->
<g id="edge1" class="edge"><title>Node2&#45;&gt;Node1</title>
<path fill="none" stroke="midnightblue" d="M199.758,-88C208.62,-88 217.686,-88 226.252,-88"/>
<polygon fill="midnightblue" stroke="midnightblue" points="199.491,-84.5001 189.491,-88 199.491,-91.5001 199.491,-84.5001"/>
</g>
<!-- Node3 -->
<g id="node3" class="node"><title>Node3</title>
<polygon fill="white" stroke="#bfbfbf" points="0.596191,-78 0.596191,-98 59.4038,-98 59.4038,-78 0.596191,-78"/>
<text text-anchor="middle" x="30" y="-84" font-family="Helvetica,sans-Serif" font-size="10.00">exception</text>
</g>
<!-- Node3&#45;&gt;Node2 -->
<g id="edge2" class="edge"><title>Node3&#45;&gt;Node2</title>
<path fill="none" stroke="midnightblue" d="M69.6967,-88C78.2784,-88 87.4518,-88 96.2839,-88"/>
<polygon fill="midnightblue" stroke="midnightblue" points="69.5853,-84.5001 59.5853,-88 69.5852,-91.5001 69.5853,-84.5001"/>
</g>
</g>
</svg>
