<?xml version="1.0" encoding="UTF-8" standalone="no"?>
<!DOCTYPE svg PUBLIC "-//W3C//DTD SVG 1.1//EN"
 "http://www.w3.org/Graphics/SVG/1.1/DTD/svg11.dtd">
<!-- Generated by graphviz version 2.30.1 (20140712.1814)
 -->
<!-- Title: cinder::audio::cocoa::SourceFileCoreAudio Pages: 1 -->
<svg width="134pt" height="216pt"
 viewBox="0.00 0.00 134.00 216.00" xmlns="http://www.w3.org/2000/svg" xmlns:xlink="http://www.w3.org/1999/xlink">
<g id="graph0" class="graph" transform="scale(1 1) rotate(0) translate(4 212)">
<title>cinder::audio::cocoa::SourceFileCoreAudio</title>
<polygon fill="white" stroke="white" points="-4,5 -4,-212 131,-212 131,5 -4,5"/>
<!-- Node1 -->
<g id="node1" class="node"><title>Node1</title>
<polygon fill="#bfbfbf" stroke="black" points="4.69727,-1 4.69727,-33 121.303,-33 121.303,-1 4.69727,-1"/>
<text text-anchor="start" x="12.6973" y="-19" font-family="Helvetica,sans-Serif" font-size="10.00">cinder::audio::cocoa</text>
<text text-anchor="middle" x="63" y="-7" font-family="Helvetica,sans-Serif" font-size="10.00">::SourceFileCoreAudio</text>
</g>
<!-- Node2 -->
<g id="node2" class="node"><title>Node2</title>
<g id="a_node2"><a xlink:href="classcinder_1_1audio_1_1_source_file.html" target="_top" xlink:title="Loads and reads from an audio file source. ">
<polygon fill="white" stroke="black" points="-0.307617,-71 -0.307617,-91 126.308,-91 126.308,-71 -0.307617,-71"/>
<text text-anchor="middle" x="63" y="-77" font-family="Helvetica,sans-Serif" font-size="10.00">cinder::audio::SourceFile</text>
</a>
</g>
</g>
<!-- Node2&#45;&gt;Node1 -->
<g id="edge1" class="edge"><title>Node2&#45;&gt;Node1</title>
<path fill="none" stroke="midnightblue" d="M63,-60.7747C63,-51.9863 63,-41.715 63,-33.4404"/>
<polygon fill="midnightblue" stroke="midnightblue" points="59.5001,-60.8517 63,-70.8517 66.5001,-60.8517 59.5001,-60.8517"/>
</g>
<!-- Node3 -->
<g id="node3" class="node"><title>Node3</title>
<g id="a_node3"><a xlink:href="classcinder_1_1audio_1_1_source.html" target="_top" xlink:title="Base class that is used to load and read from an audio source. ">
<polygon fill="white" stroke="black" points="7.74902,-129 7.74902,-149 118.251,-149 118.251,-129 7.74902,-129"/>
<text text-anchor="middle" x="63" y="-135" font-family="Helvetica,sans-Serif" font-size="10.00">cinder::audio::Source</text>
</a>
</g>
</g>
<!-- Node3&#45;&gt;Node2 -->
<g id="edge2" class="edge"><title>Node3&#45;&gt;Node2</title>
<path fill="none" stroke="midnightblue" d="M63,-118.707C63,-109.338 63,-98.5262 63,-91.0752"/>
<polygon fill="midnightblue" stroke="midnightblue" points="59.5001,-118.753 63,-128.753 66.5001,-118.753 59.5001,-118.753"/>
</g>
<!-- Node4 -->
<g id="node4" class="node"><title>Node4</title>
<polygon fill="white" stroke="#bfbfbf" points="26.6431,-187 26.6431,-207 99.3569,-207 99.3569,-187 26.6431,-187"/>
<text text-anchor="middle" x="63" y="-193" font-family="Helvetica,sans-Serif" font-size="10.00">noncopyable</text>
</g>
<!-- Node4&#45;&gt;Node3 -->
<g id="edge3" class="edge"><title>Node4&#45;&gt;Node3</title>
<path fill="none" stroke="midnightblue" d="M63,-176.707C63,-167.338 63,-156.526 63,-149.075"/>
<polygon fill="midnightblue" stroke="midnightblue" points="59.5001,-176.753 63,-186.753 66.5001,-176.753 59.5001,-176.753"/>
</g>
</g>
</svg>
