<?xml version="1.0" encoding="UTF-8" standalone="no"?>
<!DOCTYPE svg PUBLIC "-//W3C//DTD SVG 1.1//EN"
 "http://www.w3.org/Graphics/SVG/1.1/DTD/svg11.dtd">
<!-- Generated by graphviz version 2.30.1 (20140712.1814)
 -->
<!-- Title: include/cinder/audio/cocoa Pages: 1 -->
<svg width="94pt" height="152pt"
 viewBox="0.00 0.00 94.00 152.00" xmlns="http://www.w3.org/2000/svg" xmlns:xlink="http://www.w3.org/1999/xlink">
<g id="graph0" class="graph" transform="scale(1 1) rotate(0) translate(4 148)">
<title>include/cinder/audio/cocoa</title>
<polygon fill="white" stroke="white" points="-4,5 -4,-148 91,-148 91,5 -4,5"/>
<g id="clust1" class="cluster"><title>clusterdir_6216da5a8bb6b335ec7266cef3be80d4</title>
<g id="a_clust1"><a xlink:href="dir_6216da5a8bb6b335ec7266cef3be80d4.html" target="_top" xlink:title="audio">
<polygon fill="#ddddee" stroke="black" points="8,-64 8,-136 78,-136 78,-64 8,-64"/>
<text text-anchor="middle" x="43" y="-122" font-family="Helvetica,sans-Serif" font-size="10.00">audio</text>
</a>
</g>
</g>
<!-- dir_2a73a75608556d5ed5ee5da7d86ae2b3 -->
<g id="node1" class="node"><title>dir_2a73a75608556d5ed5ee5da7d86ae2b3</title>
<g id="a_node1"><a xlink:href="dir_2a73a75608556d5ed5ee5da7d86ae2b3.html" target="_top" xlink:title="cocoa">
<polygon fill="#eeeeff" stroke="black" points="70,-108 16,-108 16,-72 70,-72 70,-108"/>
<text text-anchor="middle" x="43" y="-86" font-family="Helvetica,sans-Serif" font-size="10.00">cocoa</text>
</a>
</g>
</g>
<!-- dir_dcce1e2d19cd727835eff9161019fd3e -->
<g id="node2" class="node"><title>dir_dcce1e2d19cd727835eff9161019fd3e</title>
<g id="a_node2"><a xlink:href="dir_dcce1e2d19cd727835eff9161019fd3e.html" target="_top" xlink:title="dsp">
<polygon fill="white" stroke="red" points="70,-36 16,-36 16,-0 70,-0 70,-36"/>
<text text-anchor="middle" x="43" y="-14" font-family="Helvetica,sans-Serif" font-size="10.00">dsp</text>
</a>
</g>
</g>
<!-- dir_2a73a75608556d5ed5ee5da7d86ae2b3&#45;&gt;dir_dcce1e2d19cd727835eff9161019fd3e -->
<g id="edge1" class="edge"><title>dir_2a73a75608556d5ed5ee5da7d86ae2b3&#45;&gt;dir_dcce1e2d19cd727835eff9161019fd3e</title>
<path fill="none" stroke="black" d="M43,-71.6966C43,-63.9827 43,-54.7125 43,-46.1124"/>
<polygon fill="black" stroke="black" points="46.5001,-46.1043 43,-36.1043 39.5001,-46.1044 46.5001,-46.1043"/>
<g id="a_edge1&#45;headlabel"><a xlink:href="dir_000004_000005.html" target="_top" xlink:title="2">
<text text-anchor="middle" x="49.3393" y="-45.699" font-family="Helvetica,sans-Serif" font-size="10.00">2</text>
</a>
</g>
</g>
</g>
</svg>
