<?xml version="1.0" encoding="UTF-8" standalone="no"?>
<!DOCTYPE svg PUBLIC "-//W3C//DTD SVG 1.1//EN"
 "http://www.w3.org/Graphics/SVG/1.1/DTD/svg11.dtd">
<!-- Generated by graphviz version 2.30.1 (20140712.1814)
 -->
<!-- Title: src/cinder/audio Pages: 1 -->
<svg width="254pt" height="160pt"
 viewBox="0.00 0.00 254.00 160.00" xmlns="http://www.w3.org/2000/svg" xmlns:xlink="http://www.w3.org/1999/xlink">
<g id="graph0" class="graph" transform="scale(1 1) rotate(0) translate(4 156)">
<title>src/cinder/audio</title>
<polygon fill="white" stroke="white" points="-4,5 -4,-156 251,-156 251,5 -4,5"/>
<g id="clust1" class="cluster"><title>clusterdir_243096399b5b2c1ff97f7736b0cce319</title>
<g id="a_clust1"><a xlink:href="dir_243096399b5b2c1ff97f7736b0cce319.html" target="_top" xlink:title="cinder">
<polygon fill="#ddddee" stroke="black" points="8,-56 8,-144 238,-144 238,-56 8,-56"/>
<text text-anchor="middle" x="123" y="-130" font-family="Helvetica,sans-Serif" font-size="10.00">cinder</text>
</a>
</g>
</g>
<g id="clust2" class="cluster"><title>clusterdir_70dad54e961807c113211c644a23f402</title>
<g id="a_clust2"><a xlink:href="dir_70dad54e961807c113211c644a23f402.html" target="_top">
<polygon fill="#eeeeff" stroke="black" points="16,-64 16,-116 230,-116 230,-64 16,-64"/>
</a>
</g>
</g>
<!-- dir_70dad54e961807c113211c644a23f402 -->
<g id="node1" class="node"><title>dir_70dad54e961807c113211c644a23f402</title>
<text text-anchor="middle" x="195" y="-86" font-family="Helvetica,sans-Serif" font-size="10.00">audio</text>
</g>
<!-- dir_d44c64559bbebec7f509842c48db8b23 -->
<g id="node4" class="node"><title>dir_d44c64559bbebec7f509842c48db8b23</title>
<g id="a_node4"><a xlink:href="dir_d44c64559bbebec7f509842c48db8b23.html" target="_top" xlink:title="include">
<polygon fill="white" stroke="red" points="150,-36 96,-36 96,-0 150,-0 150,-36"/>
<text text-anchor="middle" x="123" y="-14" font-family="Helvetica,sans-Serif" font-size="10.00">include</text>
</a>
</g>
</g>
<!-- dir_70dad54e961807c113211c644a23f402&#45;&gt;dir_d44c64559bbebec7f509842c48db8b23 -->
<g id="edge3" class="edge"><title>dir_70dad54e961807c113211c644a23f402&#45;&gt;dir_d44c64559bbebec7f509842c48db8b23</title>
<path fill="none" stroke="black" d="M177.202,-71.6966C168.396,-63.135 157.618,-52.6562 147.999,-43.3045"/>
<polygon fill="black" stroke="black" points="150.203,-40.5657 140.593,-36.1043 145.323,-45.5846 150.203,-40.5657"/>
<g id="a_edge3&#45;headlabel"><a xlink:href="dir_000017_000000.html" target="_top" xlink:title="130">
<text text-anchor="middle" x="154.759" y="-37.0356" font-family="Helvetica,sans-Serif" font-size="10.00">130</text>
</a>
</g>
</g>
<!-- dir_a05cb6367f5d5872028e3be2f6dc5cf2 -->
<g id="node2" class="node"><title>dir_a05cb6367f5d5872028e3be2f6dc5cf2</title>
<g id="a_node2"><a xlink:href="dir_a05cb6367f5d5872028e3be2f6dc5cf2.html" target="_top" xlink:title="cocoa">
<polygon fill="white" stroke="black" points="150,-108 96,-108 96,-72 150,-72 150,-108"/>
<text text-anchor="middle" x="123" y="-86" font-family="Helvetica,sans-Serif" font-size="10.00">cocoa</text>
</a>
</g>
</g>
<!-- dir_a05cb6367f5d5872028e3be2f6dc5cf2&#45;&gt;dir_d44c64559bbebec7f509842c48db8b23 -->
<g id="edge1" class="edge"><title>dir_a05cb6367f5d5872028e3be2f6dc5cf2&#45;&gt;dir_d44c64559bbebec7f509842c48db8b23</title>
<path fill="none" stroke="black" d="M123,-71.6966C123,-63.9827 123,-54.7125 123,-46.1124"/>
<polygon fill="black" stroke="black" points="126.5,-46.1043 123,-36.1043 119.5,-46.1044 126.5,-46.1043"/>
<g id="a_edge1&#45;headlabel"><a xlink:href="dir_000018_000000.html" target="_top" xlink:title="24">
<text text-anchor="middle" x="129.339" y="-45.699" font-family="Helvetica,sans-Serif" font-size="10.00">24</text>
</a>
</g>
</g>
<!-- dir_6b483636e86cc312cd91a6349a648418 -->
<g id="node3" class="node"><title>dir_6b483636e86cc312cd91a6349a648418</title>
<g id="a_node3"><a xlink:href="dir_6b483636e86cc312cd91a6349a648418.html" target="_top" xlink:title="dsp">
<polygon fill="white" stroke="red" points="78,-108 24,-108 24,-72 78,-72 78,-108"/>
<text text-anchor="middle" x="51" y="-86" font-family="Helvetica,sans-Serif" font-size="10.00">dsp</text>
</a>
</g>
</g>
<!-- dir_6b483636e86cc312cd91a6349a648418&#45;&gt;dir_d44c64559bbebec7f509842c48db8b23 -->
<g id="edge2" class="edge"><title>dir_6b483636e86cc312cd91a6349a648418&#45;&gt;dir_d44c64559bbebec7f509842c48db8b23</title>
<path fill="none" stroke="black" d="M68.7978,-71.6966C77.604,-63.135 88.3821,-52.6562 98.0011,-43.3045"/>
<polygon fill="black" stroke="black" points="100.677,-45.5846 105.407,-36.1043 95.7972,-40.5657 100.677,-45.5846"/>
<g id="a_edge2&#45;headlabel"><a xlink:href="dir_000019_000000.html" target="_top" xlink:title="18">
<text text-anchor="middle" x="100.079" y="-46.1261" font-family="Helvetica,sans-Serif" font-size="10.00">18</text>
</a>
</g>
</g>
</g>
</svg>
