<?xml version="1.0" encoding="UTF-8" standalone="no"?>
<!DOCTYPE svg PUBLIC "-//W3C//DTD SVG 1.1//EN"
 "http://www.w3.org/Graphics/SVG/1.1/DTD/svg11.dtd">
<!-- Generated by graphviz version 2.30.1 (20140712.1814)
 -->
<!-- Title: include/cinder/app Pages: 1 -->
<svg width="162pt" height="224pt"
 viewBox="0.00 0.00 162.00 224.00" xmlns="http://www.w3.org/2000/svg" xmlns:xlink="http://www.w3.org/1999/xlink">
<g id="graph0" class="graph" transform="scale(1 1) rotate(0) translate(4 220)">
<title>include/cinder/app</title>
<polygon fill="white" stroke="white" points="-4,5 -4,-220 159,-220 159,5 -4,5"/>
<g id="clust1" class="cluster"><title>clusterdir_41030c22d7e25923061af1d72cf8cf68</title>
<g id="a_clust1"><a xlink:href="dir_41030c22d7e25923061af1d72cf8cf68.html" target="_top" xlink:title="cinder">
<polygon fill="#ddddee" stroke="black" points="20,-136 20,-208 90,-208 90,-136 20,-136"/>
<text text-anchor="middle" x="55" y="-194" font-family="Helvetica,sans-Serif" font-size="10.00">cinder</text>
</a>
</g>
</g>
<!-- dir_99a4489fdcfec2ca6741c3db06b77bdd -->
<g id="node1" class="node"><title>dir_99a4489fdcfec2ca6741c3db06b77bdd</title>
<g id="a_node1"><a xlink:href="dir_99a4489fdcfec2ca6741c3db06b77bdd.html" target="_top" xlink:title="app">
<polygon fill="#eeeeff" stroke="black" points="82,-180 28,-180 28,-144 82,-144 82,-180"/>
<text text-anchor="middle" x="55" y="-158" font-family="Helvetica,sans-Serif" font-size="10.00">app</text>
</a>
</g>
</g>
<!-- dir_847de12698c6bf70bf3be9626b731d46 -->
<g id="node2" class="node"><title>dir_847de12698c6bf70bf3be9626b731d46</title>
<g id="a_node2"><a xlink:href="dir_847de12698c6bf70bf3be9626b731d46.html" target="_top" xlink:title="gl">
<polygon fill="none" stroke="black" points="54,-36 0,-36 0,-0 54,-0 54,-36"/>
<text text-anchor="middle" x="27" y="-14" font-family="Helvetica,sans-Serif" font-size="10.00">gl</text>
</a>
</g>
</g>
<!-- dir_99a4489fdcfec2ca6741c3db06b77bdd&#45;&gt;dir_847de12698c6bf70bf3be9626b731d46 -->
<g id="edge2" class="edge"><title>dir_99a4489fdcfec2ca6741c3db06b77bdd&#45;&gt;dir_847de12698c6bf70bf3be9626b731d46</title>
<path fill="none" stroke="black" d="M39.3901,-143.774C31.6271,-134.03 23.0541,-121.184 19,-108 12.7868,-87.7951 15.4541,-63.8851 19.3085,-45.9382"/>
<polygon fill="black" stroke="black" points="22.7313,-46.6736 21.657,-36.1334 15.9239,-45.043 22.7313,-46.6736"/>
<g id="a_edge2&#45;headlabel"><a xlink:href="dir_000002_000009.html" target="_top" xlink:title="5">
<text text-anchor="middle" x="24.6552" y="-46.8307" font-family="Helvetica,sans-Serif" font-size="10.00">5</text>
</a>
</g>
</g>
<!-- dir_6980b5d6547d79ccae785ba9d22a602b -->
<g id="node3" class="node"><title>dir_6980b5d6547d79ccae785ba9d22a602b</title>
<g id="a_node3"><a xlink:href="dir_6980b5d6547d79ccae785ba9d22a602b.html" target="_top" xlink:title="dx">
<polygon fill="none" stroke="black" points="82,-108 28,-108 28,-72 82,-72 82,-108"/>
<text text-anchor="middle" x="55" y="-86" font-family="Helvetica,sans-Serif" font-size="10.00">dx</text>
</a>
</g>
</g>
<!-- dir_99a4489fdcfec2ca6741c3db06b77bdd&#45;&gt;dir_6980b5d6547d79ccae785ba9d22a602b -->
<g id="edge3" class="edge"><title>dir_99a4489fdcfec2ca6741c3db06b77bdd&#45;&gt;dir_6980b5d6547d79ccae785ba9d22a602b</title>
<path fill="none" stroke="black" d="M55,-143.697C55,-135.983 55,-126.712 55,-118.112"/>
<polygon fill="black" stroke="black" points="58.5001,-118.104 55,-108.104 51.5001,-118.104 58.5001,-118.104"/>
<g id="a_edge3&#45;headlabel"><a xlink:href="dir_000002_000008.html" target="_top" xlink:title="1">
<text text-anchor="middle" x="61.3393" y="-117.699" font-family="Helvetica,sans-Serif" font-size="10.00">1</text>
</a>
</g>
</g>
<!-- dir_a156749fb1d06c573710d4b291846b73 -->
<g id="node4" class="node"><title>dir_a156749fb1d06c573710d4b291846b73</title>
<g id="a_node4"><a xlink:href="dir_a156749fb1d06c573710d4b291846b73.html" target="_top" xlink:title="cocoa">
<polygon fill="none" stroke="black" points="154,-108 100,-108 100,-72 154,-72 154,-108"/>
<text text-anchor="middle" x="127" y="-86" font-family="Helvetica,sans-Serif" font-size="10.00">cocoa</text>
</a>
</g>
</g>
<!-- dir_99a4489fdcfec2ca6741c3db06b77bdd&#45;&gt;dir_a156749fb1d06c573710d4b291846b73 -->
<g id="edge4" class="edge"><title>dir_99a4489fdcfec2ca6741c3db06b77bdd&#45;&gt;dir_a156749fb1d06c573710d4b291846b73</title>
<path fill="none" stroke="black" d="M72.7978,-143.697C81.604,-135.135 92.3821,-124.656 102.001,-115.304"/>
<polygon fill="black" stroke="black" points="104.677,-117.585 109.407,-108.104 99.7972,-112.566 104.677,-117.585"/>
<g id="a_edge4&#45;headlabel"><a xlink:href="dir_000002_000007.html" target="_top" xlink:title="1">
<text text-anchor="middle" x="104.079" y="-118.126" font-family="Helvetica,sans-Serif" font-size="10.00">1</text>
</a>
</g>
</g>
<!-- dir_6980b5d6547d79ccae785ba9d22a602b&#45;&gt;dir_847de12698c6bf70bf3be9626b731d46 -->
<g id="edge1" class="edge"><title>dir_6980b5d6547d79ccae785ba9d22a602b&#45;&gt;dir_847de12698c6bf70bf3be9626b731d46</title>
<path fill="none" stroke="black" d="M48.0786,-71.6966C44.9253,-63.8132 41.1217,-54.3042 37.6186,-45.5464"/>
<polygon fill="black" stroke="black" points="40.8054,-44.0892 33.8417,-36.1043 34.306,-46.689 40.8054,-44.0892"/>
<g id="a_edge1&#45;headlabel"><a xlink:href="dir_000008_000009.html" target="_top" xlink:title="2">
<text text-anchor="middle" x="44.7765" y="-42.3723" font-family="Helvetica,sans-Serif" font-size="10.00">2</text>
</a>
</g>
</g>
</g>
</svg>
