<?xml version="1.0" encoding="UTF-8" standalone="no"?>
<!DOCTYPE svg PUBLIC "-//W3C//DTD SVG 1.1//EN"
 "http://www.w3.org/Graphics/SVG/1.1/DTD/svg11.dtd">
<!-- Generated by graphviz version 2.30.1 (20140712.1814)
 -->
<!-- Title: Graphical Class Hierarchy Pages: 1 -->
<svg width="312pt" height="67pt"
 viewBox="0.00 0.00 312.00 67.00" xmlns="http://www.w3.org/2000/svg" xmlns:xlink="http://www.w3.org/1999/xlink">
<g id="graph0" class="graph" transform="scale(1 1) rotate(0) translate(4 63)">
<title>Graphical Class Hierarchy</title>
<polygon fill="white" stroke="white" points="-4,5 -4,-63 309,-63 309,5 -4,5"/>
<!-- Node1 -->
<g id="node1" class="node"><title>Node1</title>
<g id="a_node1"><a xlink:href="classcinder_1_1qtime_1_1_movie_base.html" target="_top" xlink:title="cinder::qtime::MovieBase">
<polygon fill="white" stroke="black" points="-0.135254,-19 -0.135254,-39 128.135,-39 128.135,-19 -0.135254,-19"/>
<text text-anchor="middle" x="64" y="-25" font-family="Helvetica,sans-Serif" font-size="10.00">cinder::qtime::MovieBase</text>
</a>
</g>
</g>
<!-- Node2 -->
<g id="node2" class="node"><title>Node2</title>
<g id="a_node2"><a xlink:href="classcinder_1_1qtime_1_1_movie_gl.html" target="_top" xlink:title="QuickTime movie playback as OpenGL textures Textures are always bound to the GL_TEXTURE_RECTANGLE_ARB...">
<polygon fill="white" stroke="black" points="176.261,-39 176.261,-59 291.739,-59 291.739,-39 176.261,-39"/>
<text text-anchor="middle" x="234" y="-45" font-family="Helvetica,sans-Serif" font-size="10.00">cinder::qtime::MovieGl</text>
</a>
</g>
</g>
<!-- Node1&#45;&gt;Node2 -->
<g id="edge1" class="edge"><title>Node1&#45;&gt;Node2</title>
<path fill="none" stroke="midnightblue" d="M138.504,-37.7505C151.074,-39.247 163.963,-40.7813 176.02,-42.2167"/>
<polygon fill="midnightblue" stroke="midnightblue" points="138.857,-34.2679 128.514,-36.5611 138.03,-41.2188 138.857,-34.2679"/>
</g>
<!-- Node3 -->
<g id="node3" class="node"><title>Node3</title>
<g id="a_node3"><a xlink:href="classcinder_1_1qtime_1_1_movie_surface.html" target="_top" xlink:title="cinder::qtime::MovieSurface">
<polygon fill="white" stroke="black" points="164.03,-0 164.03,-20 303.97,-20 303.97,-0 164.03,-0"/>
<text text-anchor="middle" x="234" y="-6" font-family="Helvetica,sans-Serif" font-size="10.00">cinder::qtime::MovieSurface</text>
</a>
</g>
</g>
<!-- Node1&#45;&gt;Node3 -->
<g id="edge2" class="edge"><title>Node1&#45;&gt;Node3</title>
<path fill="none" stroke="midnightblue" d="M138.62,-20.6739C146.98,-19.7284 155.48,-18.7671 163.781,-17.8283"/>
<polygon fill="midnightblue" stroke="midnightblue" points="138.057,-17.2152 128.514,-21.8169 138.844,-24.1709 138.057,-17.2152"/>
</g>
</g>
</svg>
