<?xml version="1.0" encoding="UTF-8" standalone="no"?>
<!DOCTYPE svg PUBLIC "-//W3C//DTD SVG 1.1//EN"
 "http://www.w3.org/Graphics/SVG/1.1/DTD/svg11.dtd">
<!-- Generated by graphviz version 2.30.1 (20140712.1814)
 -->
<!-- Title: Graphical Class Hierarchy Pages: 1 -->
<svg width="388pt" height="67pt"
 viewBox="0.00 0.00 388.00 67.00" xmlns="http://www.w3.org/2000/svg" xmlns:xlink="http://www.w3.org/1999/xlink">
<g id="graph0" class="graph" transform="scale(1 1) rotate(0) translate(4 63)">
<title>Graphical Class Hierarchy</title>
<polygon fill="white" stroke="white" points="-4,5 -4,-63 385,-63 385,5 -4,5"/>
<!-- Node1 -->
<g id="node1" class="node"><title>Node1</title>
<g id="a_node1"><a xlink:href="classcinder_1_1_camera.html" target="_top" xlink:title="cinder::Camera">
<polygon fill="white" stroke="black" points="-0.179688,-19 -0.179688,-39 84.1797,-39 84.1797,-19 -0.179688,-19"/>
<text text-anchor="middle" x="42" y="-25" font-family="Helvetica,sans-Serif" font-size="10.00">cinder::Camera</text>
</a>
</g>
</g>
<!-- Node2 -->
<g id="node2" class="node"><title>Node2</title>
<g id="a_node2"><a xlink:href="classcinder_1_1_camera_ortho.html" target="_top" xlink:title="cinder::CameraOrtho">
<polygon fill="white" stroke="black" points="120.315,-39 120.315,-59 229.685,-59 229.685,-39 120.315,-39"/>
<text text-anchor="middle" x="175" y="-45" font-family="Helvetica,sans-Serif" font-size="10.00">cinder::CameraOrtho</text>
</a>
</g>
</g>
<!-- Node1&#45;&gt;Node2 -->
<g id="edge1" class="edge"><title>Node1&#45;&gt;Node2</title>
<path fill="none" stroke="midnightblue" d="M94.4361,-36.8528C102.786,-38.1276 111.455,-39.4511 119.866,-40.7353"/>
<polygon fill="midnightblue" stroke="midnightblue" points="94.8629,-33.3775 84.4492,-35.3281 93.8064,-40.2973 94.8629,-33.3775"/>
</g>
<!-- Node3 -->
<g id="node3" class="node"><title>Node3</title>
<g id="a_node3"><a xlink:href="classcinder_1_1_camera_persp.html" target="_top" xlink:title="cinder::CameraPersp">
<polygon fill="white" stroke="black" points="119.759,-0 119.759,-20 230.241,-20 230.241,-0 119.759,-0"/>
<text text-anchor="middle" x="175" y="-6" font-family="Helvetica,sans-Serif" font-size="10.00">cinder::CameraPersp</text>
</a>
</g>
</g>
<!-- Node1&#45;&gt;Node3 -->
<g id="edge2" class="edge"><title>Node1&#45;&gt;Node3</title>
<path fill="none" stroke="midnightblue" d="M94.5719,-21.5201C102.723,-20.3379 111.175,-19.112 119.393,-17.9201"/>
<polygon fill="midnightblue" stroke="midnightblue" points="93.8433,-18.0891 84.4492,-22.9883 94.8481,-25.0166 93.8433,-18.0891"/>
</g>
<!-- Node4 -->
<g id="node4" class="node"><title>Node4</title>
<g id="a_node4"><a xlink:href="classcinder_1_1_camera_stereo.html" target="_top" xlink:title="cinder::CameraStereo">
<polygon fill="white" stroke="black" points="266.089,-0 266.089,-20 379.911,-20 379.911,-0 266.089,-0"/>
<text text-anchor="middle" x="323" y="-6" font-family="Helvetica,sans-Serif" font-size="10.00">cinder::CameraStereo</text>
</a>
</g>
</g>
<!-- Node3&#45;&gt;Node4 -->
<g id="edge3" class="edge"><title>Node3&#45;&gt;Node4</title>
<path fill="none" stroke="midnightblue" d="M240.484,-10C248.867,-10 257.401,-10 265.637,-10"/>
<polygon fill="midnightblue" stroke="midnightblue" points="240.365,-6.5001 230.365,-10 240.365,-13.5001 240.365,-6.5001"/>
</g>
</g>
</svg>
