<?xml version="1.0" encoding="UTF-8" standalone="no"?>
<!DOCTYPE svg PUBLIC "-//W3C//DTD SVG 1.1//EN"
 "http://www.w3.org/Graphics/SVG/1.1/DTD/svg11.dtd">
<!-- Generated by graphviz version 2.30.1 (20140712.1814)
 -->
<!-- Title: Graphical Class Hierarchy Pages: 1 -->
<svg width="470pt" height="40pt"
 viewBox="0.00 0.00 470.00 40.00" xmlns="http://www.w3.org/2000/svg" xmlns:xlink="http://www.w3.org/1999/xlink">
<g id="graph0" class="graph" transform="scale(1 1) rotate(0) translate(4 36)">
<title>Graphical Class Hierarchy</title>
<polygon fill="white" stroke="white" points="-4,5 -4,-36 467,-36 467,5 -4,5"/>
<!-- Node1 -->
<g id="node1" class="node"><title>Node1</title>
<g id="a_node1"><a xlink:href="structcinder_1_1audio_1_1_node_1_1_format.html" target="_top" xlink:title="cinder::audio::Node\l::Format">
<polygon fill="white" stroke="black" points="0.638184,-0 0.638184,-32 103.362,-32 103.362,-0 0.638184,-0"/>
<text text-anchor="start" x="8.63818" y="-18" font-family="Helvetica,sans-Serif" font-size="10.00">cinder::audio::Node</text>
<text text-anchor="middle" x="52" y="-6" font-family="Helvetica,sans-Serif" font-size="10.00">::Format</text>
</a>
</g>
</g>
<!-- Node2 -->
<g id="node2" class="node"><title>Node2</title>
<g id="a_node2"><a xlink:href="structcinder_1_1audio_1_1_monitor_node_1_1_format.html" target="_top" xlink:title="cinder::audio::MonitorNode\l::Format">
<polygon fill="white" stroke="black" points="139.966,-0 139.966,-32 276.034,-32 276.034,-0 139.966,-0"/>
<text text-anchor="start" x="147.966" y="-18" font-family="Helvetica,sans-Serif" font-size="10.00">cinder::audio::MonitorNode</text>
<text text-anchor="middle" x="208" y="-6" font-family="Helvetica,sans-Serif" font-size="10.00">::Format</text>
</a>
</g>
</g>
<!-- Node1&#45;&gt;Node2 -->
<g id="edge1" class="edge"><title>Node1&#45;&gt;Node2</title>
<path fill="none" stroke="midnightblue" d="M113.461,-16C122.15,-16 131.133,-16 139.94,-16"/>
<polygon fill="midnightblue" stroke="midnightblue" points="113.425,-12.5001 103.425,-16 113.425,-19.5001 113.425,-12.5001"/>
</g>
<!-- Node3 -->
<g id="node3" class="node"><title>Node3</title>
<g id="a_node3"><a xlink:href="structcinder_1_1audio_1_1_monitor_spectral_node_1_1_format.html" target="_top" xlink:title="cinder::audio::MonitorSpectral\lNode::Format">
<polygon fill="white" stroke="black" points="312.577,-0 312.577,-32 461.423,-32 461.423,-0 312.577,-0"/>
<text text-anchor="start" x="320.577" y="-18" font-family="Helvetica,sans-Serif" font-size="10.00">cinder::audio::MonitorSpectral</text>
<text text-anchor="middle" x="387" y="-6" font-family="Helvetica,sans-Serif" font-size="10.00">Node::Format</text>
</a>
</g>
</g>
<!-- Node2&#45;&gt;Node3 -->
<g id="edge2" class="edge"><title>Node2&#45;&gt;Node3</title>
<path fill="none" stroke="midnightblue" d="M286.261,-16C294.933,-16 303.751,-16 312.375,-16"/>
<polygon fill="midnightblue" stroke="midnightblue" points="286.169,-12.5001 276.168,-16 286.168,-19.5001 286.169,-12.5001"/>
</g>
</g>
</svg>
