<?xml version="1.0" encoding="UTF-8" standalone="no"?>
<!DOCTYPE svg PUBLIC "-//W3C//DTD SVG 1.1//EN"
 "http://www.w3.org/Graphics/SVG/1.1/DTD/svg11.dtd">
<!-- Generated by graphviz version 2.30.1 (20140712.1814)
 -->
<!-- Title: Graphical Class Hierarchy Pages: 1 -->
<svg width="328pt" height="142pt"
 viewBox="0.00 0.00 328.00 142.00" xmlns="http://www.w3.org/2000/svg" xmlns:xlink="http://www.w3.org/1999/xlink">
<g id="graph0" class="graph" transform="scale(1 1) rotate(0) translate(4 138)">
<title>Graphical Class Hierarchy</title>
<polygon fill="white" stroke="white" points="-4,5 -4,-138 325,-138 325,5 -4,5"/>
<!-- Node1 -->
<g id="node1" class="node"><title>Node1</title>
<g id="a_node1"><a xlink:href="classcinder_1_1_surface_constraints.html" target="_top" xlink:title="Base class for defining the properties of a Surface necessary to be interoperable with different APIs...">
<polygon fill="white" stroke="black" points="0.0839844,-57 0.0839844,-77 133.916,-77 133.916,-57 0.0839844,-57"/>
<text text-anchor="middle" x="67" y="-63" font-family="Helvetica,sans-Serif" font-size="10.00">cinder::SurfaceConstraints</text>
</a>
</g>
</g>
<!-- Node2 -->
<g id="node2" class="node"><title>Node2</title>
<g id="a_node2"><a xlink:href="classcinder_1_1dx_1_1_surface_constraints_g_l_texture.html" target="_top" xlink:title="cinder::dx::SurfaceConstraints\lGLTexture">
<polygon fill="white" stroke="black" points="170.025,-102 170.025,-134 319.975,-134 319.975,-102 170.025,-102"/>
<text text-anchor="start" x="178.025" y="-120" font-family="Helvetica,sans-Serif" font-size="10.00">cinder::dx::SurfaceConstraints</text>
<text text-anchor="middle" x="245" y="-108" font-family="Helvetica,sans-Serif" font-size="10.00">GLTexture</text>
</a>
</g>
</g>
<!-- Node1&#45;&gt;Node2 -->
<g id="edge1" class="edge"><title>Node1&#45;&gt;Node2</title>
<path fill="none" stroke="midnightblue" d="M112.632,-79.9333C135.695,-86.6161 164.056,-94.8343 188.516,-101.922"/>
<polygon fill="midnightblue" stroke="midnightblue" points="113.351,-76.4976 102.772,-77.076 111.403,-83.221 113.351,-76.4976"/>
</g>
<!-- Node3 -->
<g id="node3" class="node"><title>Node3</title>
<g id="a_node3"><a xlink:href="classcinder_1_1gl_1_1_surface_constraints_g_l_texture.html" target="_top" xlink:title="cinder::gl::SurfaceConstraints\lGLTexture">
<polygon fill="white" stroke="black" points="171.414,-51 171.414,-83 318.586,-83 318.586,-51 171.414,-51"/>
<text text-anchor="start" x="179.414" y="-69" font-family="Helvetica,sans-Serif" font-size="10.00">cinder::gl::SurfaceConstraints</text>
<text text-anchor="middle" x="245" y="-57" font-family="Helvetica,sans-Serif" font-size="10.00">GLTexture</text>
</a>
</g>
</g>
<!-- Node1&#45;&gt;Node3 -->
<g id="edge2" class="edge"><title>Node1&#45;&gt;Node3</title>
<path fill="none" stroke="midnightblue" d="M144.152,-67C153.194,-67 162.406,-67 171.397,-67"/>
<polygon fill="midnightblue" stroke="midnightblue" points="144.037,-63.5001 134.037,-67 144.037,-70.5001 144.037,-63.5001"/>
</g>
<!-- Node4 -->
<g id="node4" class="node"><title>Node4</title>
<g id="a_node4"><a xlink:href="classcinder_1_1_surface_constraints_default.html" target="_top" xlink:title="cinder::SurfaceConstraints\lDefault">
<polygon fill="white" stroke="black" points="178.084,-0 178.084,-32 311.916,-32 311.916,-0 178.084,-0"/>
<text text-anchor="start" x="186.084" y="-18" font-family="Helvetica,sans-Serif" font-size="10.00">cinder::SurfaceConstraints</text>
<text text-anchor="middle" x="245" y="-6" font-family="Helvetica,sans-Serif" font-size="10.00">Default</text>
</a>
</g>
</g>
<!-- Node1&#45;&gt;Node4 -->
<g id="edge3" class="edge"><title>Node1&#45;&gt;Node4</title>
<path fill="none" stroke="midnightblue" d="M112.632,-54.0667C135.695,-47.3839 164.056,-39.1657 188.516,-32.0777"/>
<polygon fill="midnightblue" stroke="midnightblue" points="111.403,-50.779 102.772,-56.924 113.351,-57.5024 111.403,-50.779"/>
</g>
</g>
</svg>
