<?xml version="1.0" encoding="UTF-8" standalone="no"?>
<!DOCTYPE svg PUBLIC "-//W3C//DTD SVG 1.1//EN"
 "http://www.w3.org/Graphics/SVG/1.1/DTD/svg11.dtd">
<!-- Generated by graphviz version 2.30.1 (20140712.1814)
 -->
<!-- Title: Graphical Class Hierarchy Pages: 1 -->
<svg width="274pt" height="106pt"
 viewBox="0.00 0.00 274.00 106.00" xmlns="http://www.w3.org/2000/svg" xmlns:xlink="http://www.w3.org/1999/xlink">
<g id="graph0" class="graph" transform="scale(1 1) rotate(0) translate(4 102)">
<title>Graphical Class Hierarchy</title>
<polygon fill="white" stroke="white" points="-4,5 -4,-102 271,-102 271,5 -4,5"/>
<!-- Node1 -->
<g id="node1" class="node"><title>Node1</title>
<g id="a_node1"><a xlink:href="classcinder_1_1_data_source.html" target="_top" xlink:title="cinder::DataSource">
<polygon fill="white" stroke="black" points="0.199707,-39 0.199707,-59 101.8,-59 101.8,-39 0.199707,-39"/>
<text text-anchor="middle" x="51" y="-45" font-family="Helvetica,sans-Serif" font-size="10.00">cinder::DataSource</text>
</a>
</g>
</g>
<!-- Node2 -->
<g id="node2" class="node"><title>Node2</title>
<g id="a_node2"><a xlink:href="classcinder_1_1_data_source_buffer.html" target="_top" xlink:title="cinder::DataSourceBuffer">
<polygon fill="white" stroke="black" points="137.948,-78 137.948,-98 266.052,-98 266.052,-78 137.948,-78"/>
<text text-anchor="middle" x="202" y="-84" font-family="Helvetica,sans-Serif" font-size="10.00">cinder::DataSourceBuffer</text>
</a>
</g>
</g>
<!-- Node1&#45;&gt;Node2 -->
<g id="edge1" class="edge"><title>Node1&#45;&gt;Node2</title>
<path fill="none" stroke="midnightblue" d="M100.061,-61.5798C120.357,-66.892 143.66,-72.9915 162.759,-77.9906"/>
<polygon fill="midnightblue" stroke="midnightblue" points="100.932,-58.1898 90.3712,-59.0435 99.159,-64.9616 100.932,-58.1898"/>
</g>
<!-- Node3 -->
<g id="node3" class="node"><title>Node3</title>
<g id="a_node3"><a xlink:href="classcinder_1_1_data_source_path.html" target="_top" xlink:title="cinder::DataSourcePath">
<polygon fill="white" stroke="black" points="140.914,-39 140.914,-59 263.086,-59 263.086,-39 140.914,-39"/>
<text text-anchor="middle" x="202" y="-45" font-family="Helvetica,sans-Serif" font-size="10.00">cinder::DataSourcePath</text>
</a>
</g>
</g>
<!-- Node1&#45;&gt;Node3 -->
<g id="edge2" class="edge"><title>Node1&#45;&gt;Node3</title>
<path fill="none" stroke="midnightblue" d="M112.119,-49C121.561,-49 131.323,-49 140.768,-49"/>
<polygon fill="midnightblue" stroke="midnightblue" points="112.029,-45.5001 102.029,-49 112.029,-52.5001 112.029,-45.5001"/>
</g>
<!-- Node4 -->
<g id="node4" class="node"><title>Node4</title>
<g id="a_node4"><a xlink:href="classcinder_1_1_data_source_url.html" target="_top" xlink:title="cinder::DataSourceUrl">
<polygon fill="white" stroke="black" points="144.813,-0 144.813,-20 259.187,-20 259.187,-0 144.813,-0"/>
<text text-anchor="middle" x="202" y="-6" font-family="Helvetica,sans-Serif" font-size="10.00">cinder::DataSourceUrl</text>
</a>
</g>
</g>
<!-- Node1&#45;&gt;Node4 -->
<g id="edge3" class="edge"><title>Node1&#45;&gt;Node4</title>
<path fill="none" stroke="midnightblue" d="M100.061,-36.4202C120.357,-31.108 143.66,-25.0085 162.759,-20.0094"/>
<polygon fill="midnightblue" stroke="midnightblue" points="99.159,-33.0384 90.3712,-38.9565 100.932,-39.8102 99.159,-33.0384"/>
</g>
</g>
</svg>
