<?xml version="1.0" encoding="UTF-8" standalone="no"?>
<!DOCTYPE svg PUBLIC "-//W3C//DTD SVG 1.1//EN"
 "http://www.w3.org/Graphics/SVG/1.1/DTD/svg11.dtd">
<!-- Generated by graphviz version 2.30.1 (20140712.1814)
 -->
<!-- Title: Graphical Class Hierarchy Pages: 1 -->
<svg width="400pt" height="106pt"
 viewBox="0.00 0.00 400.00 106.00" xmlns="http://www.w3.org/2000/svg" xmlns:xlink="http://www.w3.org/1999/xlink">
<g id="graph0" class="graph" transform="scale(1 1) rotate(0) translate(4 102)">
<title>Graphical Class Hierarchy</title>
<polygon fill="white" stroke="white" points="-4,5 -4,-102 397,-102 397,5 -4,5"/>
<!-- Node1 -->
<g id="node1" class="node"><title>Node1</title>
<g id="a_node1"><a xlink:href="classcinder_1_1app_1_1_app_impl_msw_renderer.html" target="_top" xlink:title="cinder::app::AppImplMswRenderer">
<polygon fill="white" stroke="black" points="0.0200195,-39 0.0200195,-59 169.98,-59 169.98,-39 0.0200195,-39"/>
<text text-anchor="middle" x="85" y="-45" font-family="Helvetica,sans-Serif" font-size="10.00">cinder::app::AppImplMswRenderer</text>
</a>
</g>
</g>
<!-- Node2 -->
<g id="node2" class="node"><title>Node2</title>
<g id="a_node2"><a xlink:href="classcinder_1_1app_1_1_app_impl_msw_renderer_dx.html" target="_top" xlink:title="cinder::app::AppImplMswRendererDx">
<polygon fill="white" stroke="black" points="207.909,-78 207.909,-98 390.091,-98 390.091,-78 207.909,-78"/>
<text text-anchor="middle" x="299" y="-84" font-family="Helvetica,sans-Serif" font-size="10.00">cinder::app::AppImplMswRendererDx</text>
</a>
</g>
</g>
<!-- Node1&#45;&gt;Node2 -->
<g id="edge1" class="edge"><title>Node1&#45;&gt;Node2</title>
<path fill="none" stroke="midnightblue" d="M150.472,-60.8604C180.232,-66.3352 215.18,-72.7643 243.59,-77.9906"/>
<polygon fill="midnightblue" stroke="midnightblue" points="151.064,-57.4106 140.595,-59.0435 149.797,-64.2951 151.064,-57.4106"/>
</g>
<!-- Node3 -->
<g id="node3" class="node"><title>Node3</title>
<g id="a_node3"><a xlink:href="classcinder_1_1app_1_1_app_impl_msw_renderer_gdi.html" target="_top" xlink:title="cinder::app::AppImplMswRendererGdi">
<polygon fill="white" stroke="black" points="206.239,-39 206.239,-59 391.761,-59 391.761,-39 206.239,-39"/>
<text text-anchor="middle" x="299" y="-45" font-family="Helvetica,sans-Serif" font-size="10.00">cinder::app::AppImplMswRendererGdi</text>
</a>
</g>
</g>
<!-- Node1&#45;&gt;Node3 -->
<g id="edge2" class="edge"><title>Node1&#45;&gt;Node3</title>
<path fill="none" stroke="midnightblue" d="M180.118,-49C188.711,-49 197.409,-49 205.983,-49"/>
<polygon fill="midnightblue" stroke="midnightblue" points="180.093,-45.5001 170.093,-49 180.092,-52.5001 180.093,-45.5001"/>
</g>
<!-- Node4 -->
<g id="node4" class="node"><title>Node4</title>
<g id="a_node4"><a xlink:href="classcinder_1_1app_1_1_app_impl_msw_renderer_gl.html" target="_top" xlink:title="cinder::app::AppImplMswRendererGl">
<polygon fill="white" stroke="black" points="209.02,-0 209.02,-20 388.98,-20 388.98,-0 209.02,-0"/>
<text text-anchor="middle" x="299" y="-6" font-family="Helvetica,sans-Serif" font-size="10.00">cinder::app::AppImplMswRendererGl</text>
</a>
</g>
</g>
<!-- Node1&#45;&gt;Node4 -->
<g id="edge3" class="edge"><title>Node1&#45;&gt;Node4</title>
<path fill="none" stroke="midnightblue" d="M150.472,-37.1396C180.232,-31.6648 215.18,-25.2357 243.59,-20.0094"/>
<polygon fill="midnightblue" stroke="midnightblue" points="149.797,-33.7049 140.595,-38.9565 151.064,-40.5894 149.797,-33.7049"/>
</g>
</g>
</svg>
