<?xml version="1.0" encoding="UTF-8" standalone="no"?>
<!DOCTYPE svg PUBLIC "-//W3C//DTD SVG 1.1//EN"
 "http://www.w3.org/Graphics/SVG/1.1/DTD/svg11.dtd">
<!-- Generated by graphviz version 2.30.1 (20140712.1814)
 -->
<!-- Title: Graphical Class Hierarchy Pages: 1 -->
<svg width="254pt" height="40pt"
 viewBox="0.00 0.00 254.00 40.00" xmlns="http://www.w3.org/2000/svg" xmlns:xlink="http://www.w3.org/1999/xlink">
<g id="graph0" class="graph" transform="scale(1 1) rotate(0) translate(4 36)">
<title>Graphical Class Hierarchy</title>
<polygon fill="white" stroke="white" points="-4,5 -4,-36 251,-36 251,5 -4,5"/>
<!-- Node1 -->
<g id="node1" class="node"><title>Node1</title>
<g id="a_node1"><a xlink:href="classcinder_1_1_tween_base_1_1_options.html" target="_top" xlink:title="cinder::TweenBase::\lOptions">
<polygon fill="white" stroke="black" points="0.694824,-0 0.694824,-32 107.305,-32 107.305,-0 0.694824,-0"/>
<text text-anchor="start" x="8.69482" y="-18" font-family="Helvetica,sans-Serif" font-size="10.00">cinder::TweenBase::</text>
<text text-anchor="middle" x="54" y="-6" font-family="Helvetica,sans-Serif" font-size="10.00">Options</text>
</a>
</g>
</g>
<!-- Node2 -->
<g id="node2" class="node"><title>Node2</title>
<g id="a_node2"><a xlink:href="classcinder_1_1_tween_1_1_options.html" target="_top" xlink:title="cinder::Tween\&lt; T \&gt;\l::Options">
<polygon fill="white" stroke="black" points="144.373,-0 144.373,-32 245.627,-32 245.627,-0 144.373,-0"/>
<text text-anchor="start" x="152.373" y="-18" font-family="Helvetica,sans-Serif" font-size="10.00">cinder::Tween&lt; T &gt;</text>
<text text-anchor="middle" x="195" y="-6" font-family="Helvetica,sans-Serif" font-size="10.00">::Options</text>
</a>
</g>
</g>
<!-- Node1&#45;&gt;Node2 -->
<g id="edge1" class="edge"><title>Node1&#45;&gt;Node2</title>
<path fill="none" stroke="midnightblue" d="M117.805,-16C126.627,-16 135.594,-16 144.131,-16"/>
<polygon fill="midnightblue" stroke="midnightblue" points="117.55,-12.5001 107.55,-16 117.55,-19.5001 117.55,-12.5001"/>
</g>
</g>
</svg>
