<?xml version="1.0" encoding="UTF-8" standalone="no"?>
<!DOCTYPE svg PUBLIC "-//W3C//DTD SVG 1.1//EN"
 "http://www.w3.org/Graphics/SVG/1.1/DTD/svg11.dtd">
<!-- Generated by graphviz version 2.30.1 (20140712.1814)
 -->
<!-- Title: Graphical Class Hierarchy Pages: 1 -->
<svg width="272pt" height="67pt"
 viewBox="0.00 0.00 272.00 67.00" xmlns="http://www.w3.org/2000/svg" xmlns:xlink="http://www.w3.org/1999/xlink">
<g id="graph0" class="graph" transform="scale(1 1) rotate(0) translate(4 63)">
<title>Graphical Class Hierarchy</title>
<polygon fill="white" stroke="white" points="-4,5 -4,-63 269,-63 269,5 -4,5"/>
<!-- Node1 -->
<g id="node1" class="node"><title>Node1</title>
<g id="a_node1"><a xlink:href="classcinder_1_1_data_target.html" target="_top" xlink:title="cinder::DataTarget">
<polygon fill="white" stroke="black" points="0.145508,-19 0.145508,-39 97.8545,-39 97.8545,-19 0.145508,-19"/>
<text text-anchor="middle" x="49" y="-25" font-family="Helvetica,sans-Serif" font-size="10.00">cinder::DataTarget</text>
</a>
</g>
</g>
<!-- Node2 -->
<g id="node2" class="node"><title>Node2</title>
<g id="a_node2"><a xlink:href="classcinder_1_1_data_target_path.html" target="_top" xlink:title="cinder::DataTargetPath">
<polygon fill="white" stroke="black" points="139.86,-39 139.86,-59 258.14,-59 258.14,-39 139.86,-39"/>
<text text-anchor="middle" x="199" y="-45" font-family="Helvetica,sans-Serif" font-size="10.00">cinder::DataTargetPath</text>
</a>
</g>
</g>
<!-- Node1&#45;&gt;Node2 -->
<g id="edge1" class="edge"><title>Node1&#45;&gt;Node2</title>
<path fill="none" stroke="midnightblue" d="M108.262,-36.8733C118.65,-38.2771 129.472,-39.7395 139.857,-41.1428"/>
<polygon fill="midnightblue" stroke="midnightblue" points="108.43,-33.3642 98.0514,-35.4934 107.493,-40.3012 108.43,-33.3642"/>
</g>
<!-- Node3 -->
<g id="node3" class="node"><title>Node3</title>
<g id="a_node3"><a xlink:href="classcinder_1_1_data_target_stream.html" target="_top" xlink:title="cinder::DataTargetStream">
<polygon fill="white" stroke="black" points="134.03,-0 134.03,-20 263.97,-20 263.97,-0 134.03,-0"/>
<text text-anchor="middle" x="199" y="-6" font-family="Helvetica,sans-Serif" font-size="10.00">cinder::DataTargetStream</text>
</a>
</g>
</g>
<!-- Node1&#45;&gt;Node3 -->
<g id="edge2" class="edge"><title>Node1&#45;&gt;Node3</title>
<path fill="none" stroke="midnightblue" d="M108.137,-21.5365C116.548,-20.4567 125.245,-19.3401 133.767,-18.2461"/>
<polygon fill="midnightblue" stroke="midnightblue" points="107.524,-18.0863 98.0514,-22.8312 108.416,-25.0293 107.524,-18.0863"/>
</g>
</g>
</svg>
