<?xml version="1.0" encoding="UTF-8" standalone="no"?>
<!DOCTYPE svg PUBLIC "-//W3C//DTD SVG 1.1//EN"
 "http://www.w3.org/Graphics/SVG/1.1/DTD/svg11.dtd">
<!-- Generated by graphviz version 2.30.1 (20140712.1814)
 -->
<!-- Title: Graphical Class Hierarchy Pages: 1 -->
<svg width="300pt" height="40pt"
 viewBox="0.00 0.00 300.00 40.00" xmlns="http://www.w3.org/2000/svg" xmlns:xlink="http://www.w3.org/1999/xlink">
<g id="graph0" class="graph" transform="scale(1 1) rotate(0) translate(4 36)">
<title>Graphical Class Hierarchy</title>
<polygon fill="white" stroke="white" points="-4,5 -4,-36 297,-36 297,5 -4,5"/>
<!-- Node1 -->
<g id="node1" class="node"><title>Node1</title>
<g id="a_node1"><a xlink:href="classcinder_1_1params_1_1_interface_gl_1_1_options_base.html" target="_top" xlink:title="Base class for chainable options. ">
<polygon fill="white" stroke="black" points="0.697266,-0 0.697266,-32 127.303,-32 127.303,-0 0.697266,-0"/>
<text text-anchor="start" x="8.69727" y="-18" font-family="Helvetica,sans-Serif" font-size="10.00">cinder::params::Interface</text>
<text text-anchor="middle" x="64" y="-6" font-family="Helvetica,sans-Serif" font-size="10.00">Gl::OptionsBase</text>
</a>
</g>
</g>
<!-- Node2 -->
<g id="node2" class="node"><title>Node2</title>
<g id="a_node2"><a xlink:href="classcinder_1_1params_1_1_interface_gl_1_1_options.html" target="_top" xlink:title="Provides chainable options, returned from addParam(). ">
<polygon fill="white" stroke="black" points="164.697,-0 164.697,-32 291.303,-32 291.303,-0 164.697,-0"/>
<text text-anchor="start" x="172.697" y="-18" font-family="Helvetica,sans-Serif" font-size="10.00">cinder::params::Interface</text>
<text text-anchor="middle" x="228" y="-6" font-family="Helvetica,sans-Serif" font-size="10.00">Gl::Options&lt; T &gt;</text>
</a>
</g>
</g>
<!-- Node1&#45;&gt;Node2 -->
<g id="edge1" class="edge"><title>Node1&#45;&gt;Node2</title>
<path fill="none" stroke="midnightblue" d="M137.673,-16C146.637,-16 155.739,-16 164.533,-16"/>
<polygon fill="midnightblue" stroke="midnightblue" points="137.633,-12.5001 127.633,-16 137.633,-19.5001 137.633,-12.5001"/>
</g>
</g>
</svg>
