<?xml version="1.0" encoding="UTF-8" standalone="no"?>
<!DOCTYPE svg PUBLIC "-//W3C//DTD SVG 1.1//EN"
 "http://www.w3.org/Graphics/SVG/1.1/DTD/svg11.dtd">
<!-- Generated by graphviz version 2.30.1 (20140712.1814)
 -->
<!-- Title: Graphical Class Hierarchy Pages: 1 -->
<svg width="336pt" height="352pt"
 viewBox="0.00 0.00 336.00 352.00" xmlns="http://www.w3.org/2000/svg" xmlns:xlink="http://www.w3.org/1999/xlink">
<g id="graph0" class="graph" transform="scale(1 1) rotate(0) translate(4 348)">
<title>Graphical Class Hierarchy</title>
<polygon fill="white" stroke="white" points="-4,5 -4,-348 333,-348 333,5 -4,5"/>
<!-- Node1 -->
<g id="node1" class="node"><title>Node1</title>
<g id="a_node1"><a xlink:href="protocol_cinder_view_delegate-p.html" target="_top" xlink:title="\&lt;CinderViewDelegate\&gt;">
<polygon fill="white" stroke="black" points="6.66699,-285 6.66699,-305 125.333,-305 125.333,-285 6.66699,-285"/>
<text text-anchor="middle" x="66" y="-291" font-family="Helvetica,sans-Serif" font-size="10.00">&lt;CinderViewDelegate&gt;</text>
</a>
</g>
</g>
<!-- Node2 -->
<g id="node2" class="node"><title>Node2</title>
<g id="a_node2"><a xlink:href="interface_window_impl_basic_cocoa.html" target="_top" xlink:title="WindowImplBasicCocoa">
<polygon fill="white" stroke="black" points="186.091,-246 186.091,-266 309.909,-266 309.909,-246 186.091,-246"/>
<text text-anchor="middle" x="248" y="-252" font-family="Helvetica,sans-Serif" font-size="10.00">WindowImplBasicCocoa</text>
</a>
</g>
</g>
<!-- Node1&#45;&gt;Node2 -->
<g id="edge1" class="edge"><title>Node1&#45;&gt;Node2</title>
<path fill="none" stroke="midnightblue" d="M123.395,-282.781C148.296,-277.386 177.206,-271.122 200.803,-266.009"/>
<polygon fill="midnightblue" stroke="midnightblue" points="122.387,-279.418 113.354,-284.957 123.869,-286.26 122.387,-279.418"/>
</g>
<!-- Node3 -->
<g id="node3" class="node"><title>Node3</title>
<g id="a_node3"><a xlink:href="interface_window_impl_cocoa_screen_saver.html" target="_top" xlink:title="WindowImplCocoaScreenSaver">
<polygon fill="white" stroke="black" points="169.414,-285 169.414,-305 326.586,-305 326.586,-285 169.414,-285"/>
<text text-anchor="middle" x="248" y="-291" font-family="Helvetica,sans-Serif" font-size="10.00">WindowImplCocoaScreenSaver</text>
</a>
</g>
</g>
<!-- Node1&#45;&gt;Node3 -->
<g id="edge2" class="edge"><title>Node1&#45;&gt;Node3</title>
<path fill="none" stroke="midnightblue" d="M135.766,-295C146.7,-295 158.078,-295 169.203,-295"/>
<polygon fill="midnightblue" stroke="midnightblue" points="135.441,-291.5 125.441,-295 135.441,-298.5 135.441,-291.5"/>
</g>
<!-- Node4 -->
<g id="node4" class="node"><title>Node4</title>
<polygon fill="white" stroke="#bfbfbf" points="0.739258,-168 0.739258,-188 131.261,-188 131.261,-168 0.739258,-168"/>
<text text-anchor="middle" x="66" y="-174" font-family="Helvetica,sans-Serif" font-size="10.00">&lt;NSApplicationDelegate&gt;</text>
</g>
<!-- Node5 -->
<g id="node5" class="node"><title>Node5</title>
<g id="a_node5"><a xlink:href="interface_app_impl_cocoa_basic.html" target="_top" xlink:title="AppImplCocoaBasic">
<polygon fill="white" stroke="black" points="194.978,-207 194.978,-227 301.022,-227 301.022,-207 194.978,-207"/>
<text text-anchor="middle" x="248" y="-213" font-family="Helvetica,sans-Serif" font-size="10.00">AppImplCocoaBasic</text>
</a>
</g>
</g>
<!-- Node4&#45;&gt;Node5 -->
<g id="edge3" class="edge"><title>Node4&#45;&gt;Node5</title>
<path fill="none" stroke="midnightblue" d="M123.395,-190.219C148.296,-195.614 177.206,-201.878 200.803,-206.991"/>
<polygon fill="midnightblue" stroke="midnightblue" points="123.869,-186.74 113.354,-188.043 122.387,-193.582 123.869,-186.74"/>
</g>
<!-- Node6 -->
<g id="node6" class="node"><title>Node6</title>
<polygon fill="white" stroke="#bfbfbf" points="36.6035,-129 36.6035,-149 95.3965,-149 95.3965,-129 36.6035,-129"/>
<text text-anchor="middle" x="66" y="-135" font-family="Helvetica,sans-Serif" font-size="10.00">NSObject</text>
</g>
<!-- Node6&#45;&gt;Node5 -->
<g id="edge4" class="edge"><title>Node6&#45;&gt;Node5</title>
<path fill="none" stroke="midnightblue" d="M105.279,-147.214C114.435,-150.124 123.896,-153.97 132,-159 151.767,-171.268 147.929,-185.235 168,-197 176.178,-201.794 185.486,-205.448 194.773,-208.231"/>
<polygon fill="midnightblue" stroke="midnightblue" points="106.121,-143.814 95.5427,-144.413 104.185,-150.541 106.121,-143.814"/>
</g>
<!-- Node7 -->
<g id="node7" class="node"><title>Node7</title>
<g id="a_node7"><a xlink:href="interface_app_impl_cocoa_renderer_gl.html" target="_top" xlink:title="AppImplCocoaRendererGl">
<polygon fill="white" stroke="black" points="181.36,-0 181.36,-20 314.64,-20 314.64,-0 181.36,-0"/>
<text text-anchor="middle" x="248" y="-6" font-family="Helvetica,sans-Serif" font-size="10.00">AppImplCocoaRendererGl</text>
</a>
</g>
</g>
<!-- Node6&#45;&gt;Node7 -->
<g id="edge5" class="edge"><title>Node6&#45;&gt;Node7</title>
<path fill="none" stroke="midnightblue" d="M78.7744,-120.462C95.5134,-95.6843 128.575,-52.2074 168,-29 174.2,-25.3505 181.065,-22.401 188.084,-20.0175"/>
<polygon fill="midnightblue" stroke="midnightblue" points="75.7544,-118.684 73.179,-128.961 81.6012,-122.533 75.7544,-118.684"/>
</g>
<!-- Node8 -->
<g id="node8" class="node"><title>Node8</title>
<g id="a_node8"><a xlink:href="interface_app_impl_cocoa_renderer_quartz.html" target="_top" xlink:title="AppImplCocoaRendererQuartz">
<polygon fill="white" stroke="black" points="171.355,-168 171.355,-188 324.645,-188 324.645,-168 171.355,-168"/>
<text text-anchor="middle" x="248" y="-174" font-family="Helvetica,sans-Serif" font-size="10.00">AppImplCocoaRendererQuartz</text>
</a>
</g>
</g>
<!-- Node6&#45;&gt;Node8 -->
<g id="edge6" class="edge"><title>Node6&#45;&gt;Node8</title>
<path fill="none" stroke="midnightblue" d="M105.313,-147.301C133.215,-153.347 171.143,-161.564 200.736,-167.976"/>
<polygon fill="midnightblue" stroke="midnightblue" points="106.036,-143.877 95.5215,-145.18 104.554,-150.718 106.036,-143.877"/>
</g>
<!-- Node9 -->
<g id="node9" class="node"><title>Node9</title>
<g id="a_node9"><a xlink:href="interface_app_impl_cocoa_screen_saver.html" target="_top" xlink:title="AppImplCocoaScreenSaver">
<polygon fill="white" stroke="black" points="178.301,-129 178.301,-149 317.699,-149 317.699,-129 178.301,-129"/>
<text text-anchor="middle" x="248" y="-135" font-family="Helvetica,sans-Serif" font-size="10.00">AppImplCocoaScreenSaver</text>
</a>
</g>
</g>
<!-- Node6&#45;&gt;Node9 -->
<g id="edge7" class="edge"><title>Node6&#45;&gt;Node9</title>
<path fill="none" stroke="midnightblue" d="M105.711,-139C126.846,-139 153.647,-139 178.211,-139"/>
<polygon fill="midnightblue" stroke="midnightblue" points="105.522,-135.5 95.5215,-139 105.522,-142.5 105.522,-135.5"/>
</g>
<!-- Node10 -->
<g id="node10" class="node"><title>Node10</title>
<g id="a_node10"><a xlink:href="interface_app_impl_cocoa_touch_renderer_gl.html" target="_top" xlink:title="AppImplCocoaTouchRendererGl">
<polygon fill="white" stroke="black" points="168.018,-90 168.018,-110 327.982,-110 327.982,-90 168.018,-90"/>
<text text-anchor="middle" x="248" y="-96" font-family="Helvetica,sans-Serif" font-size="10.00">AppImplCocoaTouchRendererGl</text>
</a>
</g>
</g>
<!-- Node6&#45;&gt;Node10 -->
<g id="edge8" class="edge"><title>Node6&#45;&gt;Node10</title>
<path fill="none" stroke="midnightblue" d="M105.313,-130.699C133.215,-124.653 171.143,-116.436 200.736,-110.024"/>
<polygon fill="midnightblue" stroke="midnightblue" points="104.554,-127.282 95.5215,-132.82 106.036,-134.123 104.554,-127.282"/>
</g>
<!-- Node11 -->
<g id="node11" class="node"><title>Node11</title>
<g id="a_node11"><a xlink:href="interface_app_impl_cocoa_touch_renderer_quartz.html" target="_top" xlink:title="AppImplCocoaTouchRenderer\lQuartz">
<polygon fill="white" stroke="black" points="173.018,-39 173.018,-71 322.982,-71 322.982,-39 173.018,-39"/>
<text text-anchor="start" x="181.018" y="-57" font-family="Helvetica,sans-Serif" font-size="10.00">AppImplCocoaTouchRenderer</text>
<text text-anchor="middle" x="248" y="-45" font-family="Helvetica,sans-Serif" font-size="10.00">Quartz</text>
</a>
</g>
</g>
<!-- Node6&#45;&gt;Node11 -->
<g id="edge9" class="edge"><title>Node6&#45;&gt;Node11</title>
<path fill="none" stroke="midnightblue" d="M90.2782,-123.391C110.257,-110.492 140.152,-92.3556 168,-80 175.232,-76.7912 183.003,-73.8072 190.748,-71.0996"/>
<polygon fill="midnightblue" stroke="midnightblue" points="88.2934,-120.507 81.8394,-128.909 92.1244,-126.365 88.2934,-120.507"/>
</g>
<!-- Node6&#45;&gt;Node2 -->
<g id="edge10" class="edge"><title>Node6&#45;&gt;Node2</title>
<path fill="none" stroke="midnightblue" d="M105.258,-145.073C114.808,-148.036 124.463,-152.443 132,-159 160.501,-183.796 138.881,-211.932 168,-236 173.344,-240.417 179.536,-243.875 186.056,-246.581"/>
<polygon fill="midnightblue" stroke="midnightblue" points="106,-141.649 95.4376,-142.48 104.212,-148.417 106,-141.649"/>
</g>
<!-- Node12 -->
<g id="node12" class="node"><title>Node12</title>
<polygon fill="white" stroke="#bfbfbf" points="7.4165,-207 7.4165,-227 124.583,-227 124.583,-207 7.4165,-207"/>
<text text-anchor="middle" x="66" y="-213" font-family="Helvetica,sans-Serif" font-size="10.00">&lt;NSWindowDelegate&gt;</text>
</g>
<!-- Node12&#45;&gt;Node5 -->
<g id="edge11" class="edge"><title>Node12&#45;&gt;Node5</title>
<path fill="none" stroke="midnightblue" d="M135.148,-217C154.966,-217 176.288,-217 194.946,-217"/>
<polygon fill="midnightblue" stroke="midnightblue" points="134.944,-213.5 124.944,-217 134.944,-220.5 134.944,-213.5"/>
</g>
<!-- Node12&#45;&gt;Node2 -->
<g id="edge12" class="edge"><title>Node12&#45;&gt;Node2</title>
<path fill="none" stroke="midnightblue" d="M123.395,-229.219C148.296,-234.614 177.206,-240.878 200.803,-245.991"/>
<polygon fill="midnightblue" stroke="midnightblue" points="123.869,-225.74 113.354,-227.043 122.387,-232.582 123.869,-225.74"/>
</g>
<!-- Node13 -->
<g id="node13" class="node"><title>Node13</title>
<polygon fill="white" stroke="#bfbfbf" points="18.3467,-324 18.3467,-344 113.653,-344 113.653,-324 18.3467,-324"/>
<text text-anchor="middle" x="66" y="-330" font-family="Helvetica,sans-Serif" font-size="10.00">ScreenSaverView</text>
</g>
<!-- Node13&#45;&gt;Node3 -->
<g id="edge13" class="edge"><title>Node13&#45;&gt;Node3</title>
<path fill="none" stroke="midnightblue" d="M123.395,-321.781C148.296,-316.386 177.206,-310.122 200.803,-305.009"/>
<polygon fill="midnightblue" stroke="midnightblue" points="122.387,-318.418 113.354,-323.957 123.869,-325.26 122.387,-318.418"/>
</g>
<!-- Node14 -->
<g id="node14" class="node"><title>Node14</title>
<polygon fill="white" stroke="#bfbfbf" points="10.478,-246 10.478,-266 121.522,-266 121.522,-246 10.478,-246"/>
<text text-anchor="middle" x="66" y="-252" font-family="Helvetica,sans-Serif" font-size="10.00">&lt;WindowImplCocoa&gt;</text>
</g>
<!-- Node14&#45;&gt;Node2 -->
<g id="edge14" class="edge"><title>Node14&#45;&gt;Node2</title>
<path fill="none" stroke="midnightblue" d="M132.162,-256C149.756,-256 168.724,-256 186.076,-256"/>
<polygon fill="midnightblue" stroke="midnightblue" points="131.984,-252.5 121.984,-256 131.984,-259.5 131.984,-252.5"/>
</g>
<!-- Node14&#45;&gt;Node3 -->
<g id="edge15" class="edge"><title>Node14&#45;&gt;Node3</title>
<path fill="none" stroke="midnightblue" d="M123.395,-268.219C148.296,-273.614 177.206,-279.878 200.803,-284.991"/>
<polygon fill="midnightblue" stroke="midnightblue" points="123.869,-264.74 113.354,-266.043 122.387,-271.582 123.869,-264.74"/>
</g>
</g>
</svg>
