<?xml version="1.0" encoding="UTF-8" standalone="no"?>
<!DOCTYPE svg PUBLIC "-//W3C//DTD SVG 1.1//EN"
 "http://www.w3.org/Graphics/SVG/1.1/DTD/svg11.dtd">
<!-- Generated by graphviz version 2.30.1 (20140712.1814)
 -->
<!-- Title: Graphical Class Hierarchy Pages: 1 -->
<svg width="332pt" height="79pt"
 viewBox="0.00 0.00 332.00 79.00" xmlns="http://www.w3.org/2000/svg" xmlns:xlink="http://www.w3.org/1999/xlink">
<g id="graph0" class="graph" transform="scale(1 1) rotate(0) translate(4 75)">
<title>Graphical Class Hierarchy</title>
<polygon fill="white" stroke="white" points="-4,5 -4,-75 329,-75 329,5 -4,5"/>
<!-- Node1 -->
<g id="node1" class="node"><title>Node1</title>
<g id="a_node1"><a xlink:href="classcinder_1_1app_1_1_app_impl_msw.html" target="_top" xlink:title="cinder::app::AppImplMsw">
<polygon fill="white" stroke="black" points="-0.135254,-28 -0.135254,-48 128.135,-48 128.135,-28 -0.135254,-28"/>
<text text-anchor="middle" x="64" y="-34" font-family="Helvetica,sans-Serif" font-size="10.00">cinder::app::AppImplMsw</text>
</a>
</g>
</g>
<!-- Node2 -->
<g id="node2" class="node"><title>Node2</title>
<g id="a_node2"><a xlink:href="classcinder_1_1app_1_1_app_impl_msw_basic.html" target="_top" xlink:title="cinder::app::AppImplMswBasic">
<polygon fill="white" stroke="black" points="167.638,-51 167.638,-71 320.362,-71 320.362,-51 167.638,-51"/>
<text text-anchor="middle" x="244" y="-57" font-family="Helvetica,sans-Serif" font-size="10.00">cinder::app::AppImplMswBasic</text>
</a>
</g>
</g>
<!-- Node1&#45;&gt;Node2 -->
<g id="edge1" class="edge"><title>Node1&#45;&gt;Node2</title>
<path fill="none" stroke="midnightblue" d="M138.205,-47.4591C147.859,-48.7065 157.769,-49.9871 167.462,-51.2394"/>
<polygon fill="midnightblue" stroke="midnightblue" points="138.623,-43.9841 128.257,-46.1737 137.726,-50.9264 138.623,-43.9841"/>
</g>
<!-- Node3 -->
<g id="node3" class="node"><title>Node3</title>
<g id="a_node3"><a xlink:href="classcinder_1_1app_1_1_app_impl_msw_screen_saver.html" target="_top" xlink:title="cinder::app::AppImplMswScreen\lSaver">
<polygon fill="white" stroke="black" points="164.022,-0 164.022,-32 323.978,-32 323.978,-0 164.022,-0"/>
<text text-anchor="start" x="172.022" y="-18" font-family="Helvetica,sans-Serif" font-size="10.00">cinder::app::AppImplMswScreen</text>
<text text-anchor="middle" x="244" y="-6" font-family="Helvetica,sans-Serif" font-size="10.00">Saver</text>
</a>
</g>
</g>
<!-- Node1&#45;&gt;Node3 -->
<g id="edge2" class="edge"><title>Node1&#45;&gt;Node3</title>
<path fill="none" stroke="midnightblue" d="M138.359,-28.9332C146.735,-27.8979 155.302,-26.8391 163.75,-25.7949"/>
<polygon fill="midnightblue" stroke="midnightblue" points="137.752,-25.4814 128.257,-30.1817 138.611,-32.4285 137.752,-25.4814"/>
</g>
</g>
</svg>
