<?xml version="1.0" encoding="UTF-8" standalone="no"?>
<!DOCTYPE svg PUBLIC "-//W3C//DTD SVG 1.1//EN"
 "http://www.w3.org/Graphics/SVG/1.1/DTD/svg11.dtd">
<!-- Generated by graphviz version 2.30.1 (20140712.1814)
 -->
<!-- Title: Graphical Class Hierarchy Pages: 1 -->
<svg width="390pt" height="28pt"
 viewBox="0.00 0.00 390.00 28.00" xmlns="http://www.w3.org/2000/svg" xmlns:xlink="http://www.w3.org/1999/xlink">
<g id="graph0" class="graph" transform="scale(1 1) rotate(0) translate(4 24)">
<title>Graphical Class Hierarchy</title>
<polygon fill="white" stroke="white" points="-4,5 -4,-24 387,-24 387,5 -4,5"/>
<!-- Node1 -->
<g id="node1" class="node"><title>Node1</title>
<polygon fill="white" stroke="#bfbfbf" points="0.0961914,-0 0.0961914,-20 63.9038,-20 63.9038,-0 0.0961914,-0"/>
<text text-anchor="middle" x="32" y="-6" font-family="Helvetica,sans-Serif" font-size="10.00">shared_ptr</text>
</g>
<!-- Node2 -->
<g id="node2" class="node"><title>Node2</title>
<g id="a_node2"><a xlink:href="classcinder_1_1_tween_ref.html" target="_top" xlink:title="cinder::TweenRef\&lt; T \&gt;">
<polygon fill="white" stroke="black" points="100.592,-0 100.592,-20 217.408,-20 217.408,-0 100.592,-0"/>
<text text-anchor="middle" x="159" y="-6" font-family="Helvetica,sans-Serif" font-size="10.00">cinder::TweenRef&lt; T &gt;</text>
</a>
</g>
</g>
<!-- Node1&#45;&gt;Node2 -->
<g id="edge1" class="edge"><title>Node1&#45;&gt;Node2</title>
<path fill="none" stroke="midnightblue" d="M74.4171,-10C82.7475,-10 91.644,-10 100.411,-10"/>
<polygon fill="midnightblue" stroke="midnightblue" points="74.2204,-6.5001 64.2203,-10 74.2203,-13.5001 74.2204,-6.5001"/>
</g>
<!-- Node3 -->
<g id="node3" class="node"><title>Node3</title>
<g id="a_node3"><a xlink:href="classcinder_1_1_fn_tween_ref.html" target="_top" xlink:title="cinder::FnTweenRef\&lt; T \&gt;">
<polygon fill="white" stroke="black" points="253.757,-0 253.757,-20 382.243,-20 382.243,-0 253.757,-0"/>
<text text-anchor="middle" x="318" y="-6" font-family="Helvetica,sans-Serif" font-size="10.00">cinder::FnTweenRef&lt; T &gt;</text>
</a>
</g>
</g>
<!-- Node2&#45;&gt;Node3 -->
<g id="edge2" class="edge"><title>Node2&#45;&gt;Node3</title>
<path fill="none" stroke="midnightblue" d="M227.598,-10C236.233,-10 245.047,-10 253.612,-10"/>
<polygon fill="midnightblue" stroke="midnightblue" points="227.57,-6.5001 217.57,-10 227.569,-13.5001 227.57,-6.5001"/>
</g>
</g>
</svg>
