<?xml version="1.0" encoding="UTF-8" standalone="no"?>
<!DOCTYPE svg PUBLIC "-//W3C//DTD SVG 1.1//EN"
 "http://www.w3.org/Graphics/SVG/1.1/DTD/svg11.dtd">
<!-- Generated by graphviz version 2.30.1 (20140712.1814)
 -->
<!-- Title: Graphical Class Hierarchy Pages: 1 -->
<svg width="284pt" height="40pt"
 viewBox="0.00 0.00 284.00 40.00" xmlns="http://www.w3.org/2000/svg" xmlns:xlink="http://www.w3.org/1999/xlink">
<g id="graph0" class="graph" transform="scale(1 1) rotate(0) translate(4 36)">
<title>Graphical Class Hierarchy</title>
<polygon fill="white" stroke="white" points="-4,5 -4,-36 281,-36 281,5 -4,5"/>
<!-- Node1 -->
<g id="node1" class="node"><title>Node1</title>
<g id="a_node1"><a xlink:href="classcinder_1_1audio_1_1_buffer_base_t.html" target="_top" xlink:title="cinder::audio::BufferBase\lT\&lt; double \&gt;">
<polygon fill="white" stroke="black" points="-0.0571289,-0 -0.0571289,-32 128.057,-32 128.057,-0 -0.0571289,-0"/>
<text text-anchor="start" x="7.94287" y="-18" font-family="Helvetica,sans-Serif" font-size="10.00">cinder::audio::BufferBase</text>
<text text-anchor="middle" x="64" y="-6" font-family="Helvetica,sans-Serif" font-size="10.00">T&lt; double &gt;</text>
</a>
</g>
</g>
<!-- Node2 -->
<g id="node2" class="node"><title>Node2</title>
<g id="a_node2"><a xlink:href="classcinder_1_1audio_1_1_buffer_t.html" target="_top" xlink:title="cinder::audio::BufferT\l\&lt; double \&gt;">
<polygon fill="white" stroke="black" points="164.285,-0 164.285,-32 275.715,-32 275.715,-0 164.285,-0"/>
<text text-anchor="start" x="172.285" y="-18" font-family="Helvetica,sans-Serif" font-size="10.00">cinder::audio::BufferT</text>
<text text-anchor="middle" x="220" y="-6" font-family="Helvetica,sans-Serif" font-size="10.00">&lt; double &gt;</text>
</a>
</g>
</g>
<!-- Node1&#45;&gt;Node2 -->
<g id="edge1" class="edge"><title>Node1&#45;&gt;Node2</title>
<path fill="none" stroke="midnightblue" d="M138.258,-16C146.974,-16 155.754,-16 164.15,-16"/>
<polygon fill="midnightblue" stroke="midnightblue" points="138.082,-12.5001 128.082,-16 138.082,-19.5001 138.082,-12.5001"/>
</g>
</g>
</svg>
