<?xml version="1.0" encoding="UTF-8" standalone="no"?>
<!DOCTYPE svg PUBLIC "-//W3C//DTD SVG 1.1//EN"
 "http://www.w3.org/Graphics/SVG/1.1/DTD/svg11.dtd">
<!-- Generated by graphviz version 2.30.1 (20140712.1814)
 -->
<!-- Title: WindowImplCocoaScreenSaver Pages: 1 -->
<svg width="368pt" height="88pt"
 viewBox="0.00 0.00 368.00 88.00" xmlns="http://www.w3.org/2000/svg" xmlns:xlink="http://www.w3.org/1999/xlink">
<g id="graph0" class="graph" transform="scale(1 1) rotate(0) translate(4 84)">
<title>WindowImplCocoaScreenSaver</title>
<polygon fill="white" stroke="white" points="-4,5 -4,-84 365,-84 365,5 -4,5"/>
<!-- Node1 -->
<g id="node1" class="node"><title>Node1</title>
<polygon fill="#bfbfbf" stroke="black" points="89.4141,-1 89.4141,-21 246.586,-21 246.586,-1 89.4141,-1"/>
<text text-anchor="middle" x="168" y="-7" font-family="Helvetica,sans-Serif" font-size="10.00">WindowImplCocoaScreenSaver</text>
</g>
<!-- Node2 -->
<g id="node2" class="node"><title>Node2</title>
<polygon fill="white" stroke="#bfbfbf" points="-0.65332,-59 -0.65332,-79 94.6533,-79 94.6533,-59 -0.65332,-59"/>
<text text-anchor="middle" x="47" y="-65" font-family="Helvetica,sans-Serif" font-size="10.00">ScreenSaverView</text>
</g>
<!-- Node2&#45;&gt;Node1 -->
<g id="edge1" class="edge"><title>Node2&#45;&gt;Node1</title>
<path fill="none" stroke="midnightblue" d="M76.0535,-54.5538C98.41,-44.2069 128.701,-30.1879 148.298,-21.1181"/>
<polygon fill="midnightblue" stroke="midnightblue" points="74.3152,-51.5015 66.71,-58.878 77.2553,-57.8542 74.3152,-51.5015"/>
</g>
<!-- Node3 -->
<g id="node3" class="node"><title>Node3</title>
<polygon fill="white" stroke="#bfbfbf" points="112.478,-59 112.478,-79 223.522,-79 223.522,-59 112.478,-59"/>
<text text-anchor="middle" x="168" y="-65" font-family="Helvetica,sans-Serif" font-size="10.00">&lt;WindowImplCocoa&gt;</text>
</g>
<!-- Node3&#45;&gt;Node1 -->
<g id="edge2" class="edge"><title>Node3&#45;&gt;Node1</title>
<path fill="none" stroke="midnightblue" d="M168,-48.7065C168,-39.3384 168,-28.5262 168,-21.0752"/>
<polygon fill="midnightblue" stroke="midnightblue" points="164.5,-48.7527 168,-58.7527 171.5,-48.7528 164.5,-48.7527"/>
</g>
<!-- Node4 -->
<g id="node4" class="node"><title>Node4</title>
<g id="a_node4"><a xlink:href="protocol_cinder_view_delegate-p.html" target="_top" xlink:title="\&lt;CinderViewDelegate\&gt;">
<polygon fill="white" stroke="black" points="241.667,-59 241.667,-79 360.333,-79 360.333,-59 241.667,-59"/>
<text text-anchor="middle" x="301" y="-65" font-family="Helvetica,sans-Serif" font-size="10.00">&lt;CinderViewDelegate&gt;</text>
</a>
</g>
</g>
<!-- Node4&#45;&gt;Node1 -->
<g id="edge3" class="edge"><title>Node4&#45;&gt;Node1</title>
<path fill="none" stroke="midnightblue" d="M270.052,-54.9693C245.389,-44.585 211.486,-30.3099 189.655,-21.1181"/>
<polygon fill="midnightblue" stroke="midnightblue" points="268.761,-58.2231 279.335,-58.878 271.477,-51.7716 268.761,-58.2231"/>
</g>
</g>
</svg>
