<?xml version="1.0" encoding="UTF-8" standalone="no"?>
<!DOCTYPE svg PUBLIC "-//W3C//DTD SVG 1.1//EN"
 "http://www.w3.org/Graphics/SVG/1.1/DTD/svg11.dtd">
<!-- Generated by graphviz version 2.30.1 (20140712.1814)
 -->
<!-- Title: WindowImplBasicCocoa Pages: 1 -->
<svg width="467pt" height="88pt"
 viewBox="0.00 0.00 467.00 88.00" xmlns="http://www.w3.org/2000/svg" xmlns:xlink="http://www.w3.org/1999/xlink">
<g id="graph0" class="graph" transform="scale(1 1) rotate(0) translate(4 84)">
<title>WindowImplBasicCocoa</title>
<polygon fill="white" stroke="white" points="-4,5 -4,-84 464,-84 464,5 -4,5"/>
<!-- Node1 -->
<g id="node1" class="node"><title>Node1</title>
<polygon fill="#bfbfbf" stroke="black" points="141.091,-1 141.091,-21 264.909,-21 264.909,-1 141.091,-1"/>
<text text-anchor="middle" x="203" y="-7" font-family="Helvetica,sans-Serif" font-size="10.00">WindowImplBasicCocoa</text>
</g>
<!-- Node2 -->
<g id="node2" class="node"><title>Node2</title>
<polygon fill="white" stroke="#bfbfbf" points="-0.396484,-59 -0.396484,-79 58.3965,-79 58.3965,-59 -0.396484,-59"/>
<text text-anchor="middle" x="29" y="-65" font-family="Helvetica,sans-Serif" font-size="10.00">NSObject</text>
</g>
<!-- Node2&#45;&gt;Node1 -->
<g id="edge1" class="edge"><title>Node2&#45;&gt;Node1</title>
<path fill="none" stroke="midnightblue" d="M66.9744,-55.7784C99.5223,-45.3032 145.661,-30.4538 174.957,-21.0253"/>
<polygon fill="midnightblue" stroke="midnightblue" points="65.7902,-52.4826 57.3434,-58.878 67.9348,-59.146 65.7902,-52.4826"/>
</g>
<!-- Node3 -->
<g id="node3" class="node"><title>Node3</title>
<polygon fill="white" stroke="#bfbfbf" points="76.4165,-59 76.4165,-79 193.583,-79 193.583,-59 76.4165,-59"/>
<text text-anchor="middle" x="135" y="-65" font-family="Helvetica,sans-Serif" font-size="10.00">&lt;NSWindowDelegate&gt;</text>
</g>
<!-- Node3&#45;&gt;Node1 -->
<g id="edge2" class="edge"><title>Node3&#45;&gt;Node1</title>
<path fill="none" stroke="midnightblue" d="M154.079,-52.288C166.309,-42.2161 181.752,-29.4981 191.98,-21.0752"/>
<polygon fill="midnightblue" stroke="midnightblue" points="151.723,-49.6939 146.229,-58.7527 156.173,-55.0974 151.723,-49.6939"/>
</g>
<!-- Node4 -->
<g id="node4" class="node"><title>Node4</title>
<g id="a_node4"><a xlink:href="protocol_cinder_view_delegate-p.html" target="_top" xlink:title="\&lt;CinderViewDelegate\&gt;">
<polygon fill="white" stroke="black" points="211.667,-59 211.667,-79 330.333,-79 330.333,-59 211.667,-59"/>
<text text-anchor="middle" x="271" y="-65" font-family="Helvetica,sans-Serif" font-size="10.00">&lt;CinderViewDelegate&gt;</text>
</a>
</g>
</g>
<!-- Node4&#45;&gt;Node1 -->
<g id="edge3" class="edge"><title>Node4&#45;&gt;Node1</title>
<path fill="none" stroke="midnightblue" d="M251.921,-52.288C239.691,-42.2161 224.248,-29.4981 214.02,-21.0752"/>
<polygon fill="midnightblue" stroke="midnightblue" points="249.827,-55.0974 259.771,-58.7527 254.277,-49.6939 249.827,-55.0974"/>
</g>
<!-- Node5 -->
<g id="node5" class="node"><title>Node5</title>
<polygon fill="white" stroke="#bfbfbf" points="348.478,-59 348.478,-79 459.522,-79 459.522,-59 348.478,-59"/>
<text text-anchor="middle" x="404" y="-65" font-family="Helvetica,sans-Serif" font-size="10.00">&lt;WindowImplCocoa&gt;</text>
</g>
<!-- Node5&#45;&gt;Node1 -->
<g id="edge4" class="edge"><title>Node5&#45;&gt;Node1</title>
<path fill="none" stroke="midnightblue" d="M361.584,-56.1825C323.916,-45.6881 269.674,-30.5757 235.394,-21.0253"/>
<polygon fill="midnightblue" stroke="midnightblue" points="360.686,-59.5657 371.259,-58.878 362.565,-52.8225 360.686,-59.5657"/>
</g>
</g>
</svg>
