<?xml version="1.0" encoding="UTF-8" standalone="no"?>
<!DOCTYPE svg PUBLIC "-//W3C//DTD SVG 1.1//EN"
 "http://www.w3.org/Graphics/SVG/1.1/DTD/svg11.dtd">
<!-- Generated by graphviz version 2.30.1 (20140712.1814)
 -->
<!-- Title: &lt;CinderViewDelegate&gt; Pages: 1 -->
<svg width="444pt" height="88pt"
 viewBox="0.00 0.00 444.00 88.00" xmlns="http://www.w3.org/2000/svg" xmlns:xlink="http://www.w3.org/1999/xlink">
<g id="graph0" class="graph" transform="scale(1 1) rotate(0) translate(4 84)">
<title>&lt;CinderViewDelegate&gt;</title>
<polygon fill="white" stroke="white" points="-4,5 -4,-84 441,-84 441,5 -4,5"/>
<!-- Node1 -->
<g id="node1" class="node"><title>Node1</title>
<polygon fill="#bfbfbf" stroke="black" points="159.667,-59 159.667,-79 278.333,-79 278.333,-59 159.667,-59"/>
<text text-anchor="middle" x="219" y="-65" font-family="Helvetica,sans-Serif" font-size="10.00">&lt;CinderViewDelegate&gt;</text>
</g>
<!-- Node2 -->
<g id="node2" class="node"><title>Node2</title>
<g id="a_node2"><a xlink:href="interface_window_impl_basic_cocoa.html" target="_top" xlink:title="WindowImplBasicCocoa">
<polygon fill="white" stroke="black" points="-0.908691,-1 -0.908691,-21 122.909,-21 122.909,-1 -0.908691,-1"/>
<text text-anchor="middle" x="61" y="-7" font-family="Helvetica,sans-Serif" font-size="10.00">WindowImplBasicCocoa</text>
</a>
</g>
</g>
<!-- Node1&#45;&gt;Node2 -->
<g id="edge1" class="edge"><title>Node1&#45;&gt;Node2</title>
<path fill="none" stroke="midnightblue" d="M183.75,-55.5065C154.241,-45.0475 112.837,-30.3725 86.4643,-21.0253"/>
<polygon fill="midnightblue" stroke="midnightblue" points="182.668,-58.8362 193.263,-58.878 185.007,-52.2383 182.668,-58.8362"/>
</g>
<!-- Node3 -->
<g id="node3" class="node"><title>Node3</title>
<g id="a_node3"><a xlink:href="interface_window_impl_cocoa_screen_saver.html" target="_top" xlink:title="WindowImplCocoaScreenSaver">
<polygon fill="white" stroke="black" points="140.414,-1 140.414,-21 297.586,-21 297.586,-1 140.414,-1"/>
<text text-anchor="middle" x="219" y="-7" font-family="Helvetica,sans-Serif" font-size="10.00">WindowImplCocoaScreenSaver</text>
</a>
</g>
</g>
<!-- Node1&#45;&gt;Node3 -->
<g id="edge2" class="edge"><title>Node1&#45;&gt;Node3</title>
<path fill="none" stroke="midnightblue" d="M219,-48.7065C219,-39.3384 219,-28.5262 219,-21.0752"/>
<polygon fill="midnightblue" stroke="midnightblue" points="215.5,-48.7527 219,-58.7527 222.5,-48.7528 215.5,-48.7527"/>
</g>
<!-- Node4 -->
<g id="node4" class="node"><title>Node4</title>
<polygon fill="white" stroke="#bfbfbf" points="315.568,-1 315.568,-21 436.432,-21 436.432,-1 315.568,-1"/>
<text text-anchor="middle" x="376" y="-7" font-family="Helvetica,sans-Serif" font-size="10.00">WindowImplCocoaView</text>
</g>
<!-- Node1&#45;&gt;Node4 -->
<g id="edge3" class="edge"><title>Node1&#45;&gt;Node4</title>
<path fill="none" stroke="midnightblue" d="M254.026,-55.5065C283.349,-45.0475 324.491,-30.3725 350.697,-21.0253"/>
<polygon fill="midnightblue" stroke="midnightblue" points="252.817,-52.2218 244.574,-58.878 255.169,-58.8149 252.817,-52.2218"/>
</g>
</g>
</svg>
