<?xml version="1.0" encoding="UTF-8" standalone="no"?>
<!DOCTYPE svg PUBLIC "-//W3C//DTD SVG 1.1//EN"
 "http://www.w3.org/Graphics/SVG/1.1/DTD/svg11.dtd">
<!-- Generated by graphviz version 2.30.1 (20140712.1814)
 -->
<!-- Title: cinder::qtime::MovieBase::Obj Pages: 1 -->
<svg width="323pt" height="88pt"
 viewBox="0.00 0.00 323.00 88.00" xmlns="http://www.w3.org/2000/svg" xmlns:xlink="http://www.w3.org/1999/xlink">
<g id="graph0" class="graph" transform="scale(1 1) rotate(0) translate(4 84)">
<title>cinder::qtime::MovieBase::Obj</title>
<polygon fill="white" stroke="white" points="-4,5 -4,-84 320,-84 320,5 -4,5"/>
<!-- Node1 -->
<g id="node1" class="node"><title>Node1</title>
<polygon fill="#bfbfbf" stroke="black" points="76.3057,-59 76.3057,-79 225.694,-79 225.694,-59 76.3057,-59"/>
<text text-anchor="middle" x="151" y="-65" font-family="Helvetica,sans-Serif" font-size="10.00">cinder::qtime::MovieBase::Obj</text>
</g>
<!-- Node2 -->
<g id="node2" class="node"><title>Node2</title>
<g id="a_node2"><a xlink:href="structcinder_1_1qtime_1_1_movie_gl_1_1_obj.html" target="_top" xlink:title="cinder::qtime::MovieGl::Obj">
<polygon fill="white" stroke="black" points="-0.297852,-1 -0.297852,-21 136.298,-21 136.298,-1 -0.297852,-1"/>
<text text-anchor="middle" x="68" y="-7" font-family="Helvetica,sans-Serif" font-size="10.00">cinder::qtime::MovieGl::Obj</text>
</a>
</g>
</g>
<!-- Node1&#45;&gt;Node2 -->
<g id="edge1" class="edge"><title>Node1&#45;&gt;Node2</title>
<path fill="none" stroke="midnightblue" d="M128.994,-53.1528C113.877,-42.9534 94.2948,-29.7411 81.4507,-21.0752"/>
<polygon fill="midnightblue" stroke="midnightblue" points="127.047,-56.0611 137.294,-58.7527 130.962,-50.2583 127.047,-56.0611"/>
</g>
<!-- Node3 -->
<g id="node3" class="node"><title>Node3</title>
<g id="a_node3"><a xlink:href="structcinder_1_1qtime_1_1_movie_surface_1_1_obj.html" target="_top" xlink:title="cinder::qtime::MovieSurface::Obj">
<polygon fill="white" stroke="black" points="154.471,-1 154.471,-21 315.529,-21 315.529,-1 154.471,-1"/>
<text text-anchor="middle" x="235" y="-7" font-family="Helvetica,sans-Serif" font-size="10.00">cinder::qtime::MovieSurface::Obj</text>
</a>
</g>
</g>
<!-- Node1&#45;&gt;Node3 -->
<g id="edge2" class="edge"><title>Node1&#45;&gt;Node3</title>
<path fill="none" stroke="midnightblue" d="M173.271,-53.1528C188.57,-42.9534 208.388,-29.7411 221.387,-21.0752"/>
<polygon fill="midnightblue" stroke="midnightblue" points="171.25,-50.2935 164.871,-58.7527 175.133,-56.1179 171.25,-50.2935"/>
</g>
</g>
</svg>
